<!-- stars: 7936 -->
<svg xmlns="http://www.w3.org/2000/svg" xmlns:xlink="http://www.w3.org/1999/xlink" width="1024" height="400">\n<path  d="M 0 0
L 1024 0
L 1024 400
L 0 400
L 0 0" style="stroke-width:0;stroke:rgba(255,255,255,1.0);fill:rgba(255,255,255,1.0)"/><path  d="M 38 11
L 957 11
L 957 351
L 38 351
L 38 11" style="stroke-width:0;stroke:rgba(255,255,255,1.0);fill:rgba(255,255,255,1.0)"/><path  d="M 38 351
L 957 351" style="stroke-width:2;stroke:rgba(85,85,85,1.0);fill:none"/><path  d="M 38 351
L 38 356" style="stroke-width:2;stroke:rgba(85,85,85,1.0);fill:none"/><text x="5" y="373" style="stroke-width:0;stroke:none;fill:rgba(51,51,51,1.0);font-size:12.8px;font-family:'Roboto Medium',sans-serif">2018-09-25</text><path  d="M 153 351
L 153 356" style="stroke-width:2;stroke:rgba(85,85,85,1.0);fill:none"/><text x="120" y="373" style="stroke-width:0;stroke:none;fill:rgba(51,51,51,1.0);font-size:12.8px;font-family:'Roboto Medium',sans-serif">2019-02-18</text><path  d="M 268 351
L 268 356" style="stroke-width:2;stroke:rgba(85,85,85,1.0);fill:none"/><text x="235" y="373" style="stroke-width:0;stroke:none;fill:rgba(51,51,51,1.0);font-size:12.8px;font-family:'Roboto Medium',sans-serif">2019-07-14</text><path  d="M 383 351
L 383 356" style="stroke-width:2;stroke:rgba(85,85,85,1.0);fill:none"/><text x="350" y="373" style="stroke-width:0;stroke:none;fill:rgba(51,51,51,1.0);font-size:12.8px;font-family:'Roboto Medium',sans-serif">2019-12-07</text><path  d="M 498 351
L 498 356" style="stroke-width:2;stroke:rgba(85,85,85,1.0);fill:none"/><text x="465" y="373" style="stroke-width:0;stroke:none;fill:rgba(51,51,51,1.0);font-size:12.8px;font-family:'Roboto Medium',sans-serif">2020-05-01</text><path  d="M 613 351
L 613 356" style="stroke-width:2;stroke:rgba(85,85,85,1.0);fill:none"/><text x="580" y="373" style="stroke-width:0;stroke:none;fill:rgba(51,51,51,1.0);font-size:12.8px;font-family:'Roboto Medium',sans-serif">2020-09-24</text><path  d="M 728 351
L 728 356" style="stroke-width:2;stroke:rgba(85,85,85,1.0);fill:none"/><text x="695" y="373" style="stroke-width:0;stroke:none;fill:rgba(51,51,51,1.0);font-size:12.8px;font-family:'Roboto Medium',sans-serif">2021-02-17</text><path  d="M 843 351
L 843 356" style="stroke-width:2;stroke:rgba(85,85,85,1.0);fill:none"/><text x="810" y="373" style="stroke-width:0;stroke:none;fill:rgba(51,51,51,1.0);font-size:12.8px;font-family:'Roboto Medium',sans-serif">2021-07-13</text><path  d="M 957 351
L 957 356" style="stroke-width:2;stroke:rgba(85,85,85,1.0);fill:none"/><text x="924" y="373" style="stroke-width:0;stroke:none;fill:rgba(51,51,51,1.0);font-size:12.8px;font-family:'Roboto Medium',sans-serif">2021-12-07</text><text x="483" y="395" style="stroke-width:0;stroke:none;fill:rgba(51,51,51,1.0);font-size:12.8px;font-family:'Roboto Medium',sans-serif">Time</text><path  d="M 959 351
L 959 11" style="stroke-width:2;stroke:rgba(85,85,85,1.0);fill:none"/><path  d="M 959 351
L 964 351" style="stroke-width:2;stroke:rgba(85,85,85,1.0);fill:none"/><text x="969" y="357" style="stroke-width:0;stroke:none;fill:rgba(51,51,51,1.0);font-size:12.8px;font-family:'Roboto Medium',sans-serif">0</text><path  d="M 959 308
L 964 308" style="stroke-width:2;stroke:rgba(85,85,85,1.0);fill:none"/><text x="969" y="314" style="stroke-width:0;stroke:none;fill:rgba(51,51,51,1.0);font-size:12.8px;font-family:'Roboto Medium',sans-serif">1000</text><path  d="M 959 266
L 964 266" style="stroke-width:2;stroke:rgba(85,85,85,1.0);fill:none"/><text x="969" y="272" style="stroke-width:0;stroke:none;fill:rgba(51,51,51,1.0);font-size:12.8px;font-family:'Roboto Medium',sans-serif">2000</text><path  d="M 959 223
L 964 223" style="stroke-width:2;stroke:rgba(85,85,85,1.0);fill:none"/><text x="969" y="229" style="stroke-width:0;stroke:none;fill:rgba(51,51,51,1.0);font-size:12.8px;font-family:'Roboto Medium',sans-serif">3000</text><path  d="M 959 181
L 964 181" style="stroke-width:2;stroke:rgba(85,85,85,1.0);fill:none"/><text x="969" y="187" style="stroke-width:0;stroke:none;fill:rgba(51,51,51,1.0);font-size:12.8px;font-family:'Roboto Medium',sans-serif">4000</text><path  d="M 959 138
L 964 138" style="stroke-width:2;stroke:rgba(85,85,85,1.0);fill:none"/><text x="969" y="144" style="stroke-width:0;stroke:none;fill:rgba(51,51,51,1.0);font-size:12.8px;font-family:'Roboto Medium',sans-serif">5000</text><path  d="M 959 96
L 964 96" style="stroke-width:2;stroke:rgba(85,85,85,1.0);fill:none"/><text x="969" y="102" style="stroke-width:0;stroke:none;fill:rgba(51,51,51,1.0);font-size:12.8px;font-family:'Roboto Medium',sans-serif">6000</text><path  d="M 959 53
L 964 53" style="stroke-width:2;stroke:rgba(85,85,85,1.0);fill:none"/><text x="969" y="59" style="stroke-width:0;stroke:none;fill:rgba(51,51,51,1.0);font-size:12.8px;font-family:'Roboto Medium',sans-serif">7000</text><path  d="M 959 11
L 964 11" style="stroke-width:2;stroke:rgba(85,85,85,1.0);fill:none"/><text x="969" y="17" style="stroke-width:0;stroke:none;fill:rgba(51,51,51,1.0);font-size:12.8px;font-family:'Roboto Medium',sans-serif">8000</text><text x="1009" y="150" style="stroke-width:0;stroke:none;fill:rgba(51,51,51,1.0);font-size:12.8px;font-family:'Roboto Medium',sans-serif" transform="rotate(90.00,1009,150)">Stargazers</text><path  d="M 38 351
L 40 350
L 50 350
L 51 350
L 51 350
L 51 350
L 51 350
L 54 350
L 55 350
L 55 350
L 57 350
L 57 350
L 58 350
L 58 350
L 58 350
L 58 350
L 61 350
L 67 350
L 67 350
L 69 350
L 70 350
L 70 350
L 72 350
L 72 350
L 74 349
L 74 349
L 79 349
L 83 349
L 88 349
L 88 349
L 94 349
L 94 349
L 94 349
L 94 349
L 94 349
L 94 349
L 94 349
L 95 349
L 95 349
L 95 349
L 95 349
L 97 349
L 99 349
L 99 349
L 99 349
L 99 349
L 99 349
L 100 349
L 100 348
L 101 348
L 103 348
L 103 348
L 104 348
L 105 348
L 107 348
L 108 348
L 108 348
L 109 348
L 110 348
L 110 348
L 110 348
L 111 348
L 111 348
L 112 348
L 112 348
L 112 348
L 112 348
L 113 348
L 113 348
L 113 348
L 113 348
L 113 347
L 114 347
L 115 347
L 115 347
L 115 347
L 116 347
L 117 347
L 117 347
L 118 347
L 118 347
L 120 347
L 120 347
L 120 347
L 120 347
L 120 347
L 121 347
L 122 347
L 122 347
L 123 347
L 123 347
L 123 347
L 124 347
L 125 347
L 127 347
L 127 346
L 127 346
L 127 346
L 127 346
L 129 346
L 131 346
L 133 346
L 134 346
L 134 346
L 134 346
L 134 346
L 142 346
L 145 346
L 149 346
L 149 346
L 150 346
L 150 346
L 151 346
L 151 346
L 152 346
L 153 346
L 154 346
L 154 346
L 154 345
L 155 345
L 155 345
L 155 345
L 156 345
L 156 345
L 156 345
L 159 345
L 159 345
L 161 345
L 162 345
L 164 345
L 164 345
L 165 345
L 166 345
L 167 345
L 167 345
L 167 345
L 168 345
L 169 345
L 169 345
L 170 345
L 171 345
L 172 345
L 173 344
L 175 344
L 175 344
L 176 344
L 177 344
L 177 344
L 177 344
L 178 344
L 178 344
L 182 344
L 182 344
L 183 344
L 183 344
L 183 344
L 184 344
L 184 344
L 184 344
L 185 344
L 185 344
L 185 344
L 186 344
L 186 344
L 187 344
L 187 343
L 187 343
L 187 343
L 187 343
L 187 343
L 188 343
L 188 343
L 188 343
L 188 343
L 188 343
L 188 343
L 188 343
L 189 343
L 189 343
L 189 343
L 190 343
L 191 343
L 192 343
L 192 343
L 193 343
L 193 343
L 193 343
L 194 343
L 194 343
L 194 342
L 194 342
L 194 342
L 194 342
L 195 342
L 196 342
L 198 342
L 198 342
L 199 342
L 200 342
L 201 342
L 203 342
L 204 342
L 204 342
L 204 342
L 205 342
L 205 342
L 205 342
L 205 342
L 205 342
L 207 342
L 207 342
L 208 342
L 208 341
L 209 341
L 209 341
L 209 341
L 210 341
L 210 341
L 211 341
L 211 341
L 212 341
L 212 341
L 213 341
L 214 341
L 215 341
L 216 341
L 217 341
L 217 341
L 217 341
L 217 341
L 218 341
L 219 341
L 221 341
L 222 341
L 225 341
L 226 341
L 227 340
L 229 340
L 230 340
L 230 340
L 230 340
L 232 340
L 236 340
L 237 340
L 237 340
L 237 340
L 238 340
L 238 340
L 238 340
L 239 340
L 239 340
L 239 340
L 245 340
L 247 340
L 248 340
L 248 340
L 248 340
L 248 340
L 249 340
L 249 339
L 249 339
L 249 339
L 249 339
L 250 339
L 250 339
L 253 339
L 253 339
L 253 339
L 255 339
L 256 339
L 256 339
L 257 339
L 257 339
L 258 339
L 258 339
L 259 339
L 259 339
L 259 339
L 259 339
L 259 339
L 260 339
L 260 339
L 260 339
L 260 338
L 261 338
L 261 338
L 261 338
L 262 338
L 262 338
L 263 338
L 263 338
L 263 338
L 263 338
L 265 338
L 266 338
L 267 338
L 267 338
L 268 338
L 269 338
L 269 338
L 270 338
L 270 338
L 272 338
L 273 338
L 275 338
L 275 338
L 278 337
L 278 337
L 279 337
L 281 337
L 281 337
L 281 337
L 282 337
L 286 337
L 290 337
L 290 337
L 292 337
L 293 337
L 295 337
L 296 337
L 299 337
L 301 337
L 301 337
L 302 337
L 302 337
L 305 337
L 310 337
L 310 337
L 310 337
L 311 337
L 311 336
L 322 336
L 322 336
L 323 336
L 323 336
L 323 336
L 323 336
L 323 336
L 323 336
L 323 336
L 323 336
L 323 336
L 324 336
L 324 336
L 324 336
L 326 336
L 329 336
L 329 336
L 329 336
L 335 336
L 336 336
L 337 336
L 338 336
L 338 335
L 339 335
L 340 335
L 341 335
L 341 335
L 342 335
L 342 335
L 343 335
L 343 335
L 344 335
L 346 335
L 347 335
L 347 335
L 347 335
L 352 335
L 363 335
L 364 335
L 367 335
L 370 335
L 370 335
L 372 335
L 374 335
L 374 335
L 374 335
L 375 334
L 375 334
L 376 334
L 376 334
L 380 334
L 380 334
L 382 334
L 383 334
L 388 334
L 388 334
L 388 334
L 393 334
L 395 334
L 396 334
L 397 334
L 397 334
L 397 334
L 398 334
L 398 334
L 398 334
L 399 334
L 399 334
L 399 334
L 399 334
L 401 333
L 402 333
L 405 333
L 406 333
L 408 333
L 412 333
L 412 333
L 412 333
L 413 333
L 413 333
L 414 333
L 415 333
L 418 333
L 418 333
L 422 333
L 422 333
L 423 333
L 424 333
L 426 333
L 427 333
L 429 333
L 432 333
L 436 333
L 437 332
L 438 332
L 438 332
L 441 332
L 448 332
L 450 332
L 452 332
L 453 332
L 454 332
L 454 332
L 455 332
L 456 332
L 456 332
L 456 332
L 458 332
L 458 332
L 458 332
L 458 332
L 459 332
L 459 332
L 460 332
L 460 332
L 461 332
L 461 332
L 463 331
L 463 331
L 463 331
L 463 331
L 463 331
L 464 331
L 464 331
L 464 331
L 464 331
L 464 331
L 464 331
L 465 331
L 465 331
L 466 331
L 467 331
L 468 331
L 468 331
L 470 331
L 470 331
L 470 331
L 470 331
L 470 331
L 471 331
L 471 330
L 471 330
L 472 330
L 472 330
L 473 330
L 473 330
L 473 330
L 473 330
L 474 330
L 475 330
L 476 330
L 477 330
L 478 330
L 478 330
L 478 330
L 478 330
L 479 330
L 479 330
L 480 330
L 480 330
L 480 330
L 480 330
L 480 330
L 480 330
L 481 329
L 481 329
L 481 329
L 481 329
L 481 329
L 481 329
L 481 329
L 481 329
L 481 329
L 481 329
L 482 329
L 482 329
L 483 329
L 483 329
L 483 329
L 483 329
L 484 329
L 484 329
L 484 329
L 486 329
L 486 329
L 487 329
L 487 329
L 487 328
L 487 328
L 489 328
L 489 328
L 489 328
L 489 328
L 489 328
L 489 328
L 489 328
L 489 328
L 489 328
L 489 328
L 489 328
L 489 328
L 489 328
L 489 328
L 489 328
L 489 328
L 489 328
L 490 328
L 490 328
L 490 328
L 490 328
L 490 328
L 490 327
L 490 327
L 490 327
L 490 327
L 490 327
L 490 327
L 491 327
L 491 327
L 491 327
L 491 327
L 491 327
L 492 327
L 492 327
L 492 327
L 492 327
L 492 327
L 492 327
L 492 327
L 493 327
L 493 327
L 494 327
L 494 327
L 495 327
L 495 326
L 495 326
L 495 326
L 495 326
L 496 326
L 496 326
L 496 326
L 496 326
L 496 326
L 496 326
L 497 326
L 498 326
L 498 326
L 499 326
L 499 326
L 500 326
L 501 326
L 502 326
L 502 326
L 502 326
L 502 326
L 503 326
L 503 326
L 503 326
L 503 325
L 503 325
L 503 325
L 504 325
L 505 325
L 505 325
L 506 325
L 506 325
L 506 325
L 507 325
L 507 325
L 507 325
L 508 325
L 508 325
L 508 325
L 509 325
L 509 325
L 509 325
L 509 325
L 510 325
L 510 325
L 510 325
L 510 325
L 510 324
L 511 324
L 512 324
L 512 324
L 514 324
L 514 324
L 514 324
L 514 324
L 514 324
L 515 324
L 516 324
L 516 324
L 516 324
L 516 324
L 517 324
L 517 324
L 517 324
L 518 324
L 518 324
L 519 324
L 519 324
L 519 324
L 519 324
L 519 324
L 519 323
L 520 323
L 520 323
L 520 323
L 520 323
L 520 323
L 520 323
L 521 323
L 521 323
L 521 323
L 522 323
L 523 323
L 523 323
L 523 323
L 523 323
L 524 323
L 524 323
L 524 323
L 525 323
L 526 323
L 526 323
L 526 323
L 526 323
L 526 322
L 526 322
L 526 322
L 526 322
L 526 322
L 526 322
L 527 322
L 527 322
L 527 322
L 527 322
L 527 322
L 527 322
L 527 322
L 527 322
L 527 322
L 527 322
L 527 322
L 528 322
L 528 322
L 528 322
L 528 322
L 528 322
L 530 322
L 530 322
L 531 321
L 531 321
L 531 321
L 532 321
L 532 321
L 532 321
L 532 321
L 533 321
L 533 321
L 533 321
L 533 321
L 533 321
L 533 321
L 533 321
L 533 321
L 533 321
L 534 321
L 534 321
L 534 321
L 534 321
L 534 321
L 534 321
L 534 321
L 534 320
L 534 320
L 535 320
L 535 320
L 535 320
L 535 320
L 535 320
L 535 320
L 536 320
L 536 320
L 536 320
L 536 320
L 536 320
L 537 320
L 537 320
L 537 320
L 537 320
L 537 320
L 537 320
L 537 320
L 537 320
L 538 320
L 538 320
L 539 320
L 539 319
L 539 319
L 539 319
L 540 319
L 540 319
L 541 319
L 542 319
L 542 319
L 543 319
L 543 319
L 543 319
L 543 319
L 543 319
L 544 319
L 544 319
L 544 319
L 544 319
L 544 319
L 544 319
L 544 319
L 545 319
L 546 319
L 546 319
L 546 318
L 546 318
L 546 318
L 547 318
L 547 318
L 547 318
L 547 318
L 547 318
L 547 318
L 548 318
L 548 318
L 548 318
L 549 318
L 549 318
L 550 318
L 550 318
L 550 318
L 550 318
L 550 318
L 551 318
L 552 318
L 552 318
L 552 318
L 553 318
L 553 317
L 553 317
L 554 317
L 554 317
L 555 317
L 556 317
L 556 317
L 556 317
L 557 317
L 557 317
L 557 317
L 557 317
L 557 317
L 558 317
L 558 317
L 558 317
L 558 317
L 558 317
L 559 317
L 559 317
L 559 317
L 559 317
L 560 317
L 560 317
L 560 316
L 560 316
L 561 316
L 561 316
L 561 316
L 561 316
L 561 316
L 561 316
L 561 316
L 562 316
L 562 316
L 562 316
L 562 316
L 563 316
L 563 316
L 564 316
L 564 316
L 564 316
L 564 316
L 565 316
L 565 316
L 565 316
L 565 316
L 566 315
L 566 315
L 566 315
L 566 315
L 566 315
L 567 315
L 567 315
L 567 315
L 567 315
L 567 315
L 568 315
L 568 315
L 568 315
L 568 315
L 568 315
L 568 315
L 568 315
L 568 315
L 568 315
L 569 315
L 569 315
L 569 315
L 569 315
L 569 315
L 569 314
L 569 314
L 570 314
L 570 314
L 570 314
L 571 314
L 571 314
L 572 314
L 572 314
L 572 314
L 572 314
L 572 314
L 573 314
L 573 314
L 573 314
L 574 314
L 574 314
L 574 314
L 574 314
L 574 314
L 574 314
L 575 314
L 575 314
L 575 313
L 576 313
L 576 313
L 577 313
L 577 313
L 577 313
L 577 313
L 577 313
L 578 313
L 578 313
L 578 313
L 578 313
L 578 313
L 579 313
L 579 313
L 579 313
L 579 313
L 579 313
L 580 313
L 580 313
L 580 313
L 580 313
L 580 313
L 581 313
L 582 312
L 582 312
L 583 312
L 583 312
L 583 312
L 583 312
L 583 312
L 583 312
L 583 312
L 584 312
L 584 312
L 584 312
L 585 312
L 585 312
L 585 312
L 585 312
L 585 312
L 586 312
L 586 312
L 586 312
L 587 312
L 587 312
L 588 312
L 588 311
L 589 311
L 589 311
L 590 311
L 590 311
L 591 311
L 592 311
L 593 311
L 594 311
L 594 311
L 594 311
L 595 311
L 595 311
L 595 311
L 596 311
L 596 311
L 597 311
L 597 311
L 597 311
L 598 311
L 598 311
L 598 311
L 598 311
L 599 311
L 599 310
L 599 310
L 599 310
L 599 310
L 600 310
L 600 310
L 601 310
L 601 310
L 601 310
L 602 310
L 602 310
L 602 310
L 602 310
L 602 310
L 602 310
L 602 310
L 602 310
L 602 310
L 602 310
L 603 310
L 603 310
L 604 310
L 604 310
L 604 309
L 604 309
L 604 309
L 605 309
L 605 309
L 605 309
L 605 309
L 607 309
L 607 309
L 607 309
L 608 309
L 608 309
L 609 309
L 610 309
L 611 309
L 611 309
L 611 309
L 612 309
L 612 309
L 612 309
L 612 309
L 613 309
L 615 309
L 615 309
L 615 308
L 615 308
L 615 308
L 615 308
L 616 308
L 616 308
L 616 308
L 616 308
L 617 308
L 617 308
L 617 308
L 617 308
L 617 308
L 617 308
L 617 308
L 619 308
L 621 308
L 621 308
L 622 308
L 624 308
L 624 308
L 624 308
L 625 308
L 625 307
L 625 307
L 625 307
L 626 307
L 627 307
L 627 307
L 627 307
L 627 307
L 627 307
L 627 307
L 627 307
L 628 307
L 628 307
L 628 307
L 628 307
L 628 307
L 628 307
L 628 307
L 628 307
L 628 307
L 628 307
L 629 307
L 629 307
L 629 307
L 629 306
L 629 306
L 629 306
L 630 306
L 630 306
L 630 306
L 630 306
L 630 306
L 631 306
L 631 306
L 632 306
L 632 306
L 632 306
L 632 306
L 633 306
L 633 306
L 633 306
L 633 306
L 634 306
L 634 306
L 634 306
L 635 306
L 635 306
L 635 305
L 635 305
L 635 305
L 636 305
L 636 305
L 636 305
L 637 305
L 638 305
L 638 305
L 638 305
L 638 305
L 638 305
L 638 305
L 638 305
L 639 305
L 639 305
L 639 305
L 639 305
L 639 305
L 639 305
L 639 305
L 639 305
L 639 305
L 639 305
L 639 304
L 639 304
L 639 304
L 639 304
L 639 304
L 639 304
L 640 304
L 640 304
L 640 304
L 640 304
L 640 304
L 640 304
L 640 304
L 640 304
L 640 304
L 641 304
L 641 304
L 641 304
L 641 304
L 641 304
L 641 304
L 641 304
L 641 304
L 642 303
L 642 303
L 642 303
L 642 303
L 642 303
L 643 303
L 643 303
L 643 303
L 643 303
L 643 303
L 643 303
L 644 303
L 644 303
L 644 303
L 644 303
L 644 303
L 644 303
L 644 303
L 644 303
L 645 303
L 645 303
L 645 303
L 645 303
L 645 303
L 645 302
L 645 302
L 645 302
L 645 302
L 646 302
L 646 302
L 646 302
L 647 302
L 647 302
L 647 302
L 647 302
L 648 302
L 648 302
L 648 302
L 649 302
L 649 302
L 649 302
L 649 302
L 649 302
L 649 302
L 649 302
L 649 302
L 650 302
L 650 301
L 650 301
L 651 301
L 651 301
L 651 301
L 651 301
L 651 301
L 652 301
L 652 301
L 652 301
L 652 301
L 652 301
L 653 301
L 653 301
L 653 301
L 653 301
L 654 301
L 654 301
L 654 301
L 654 301
L 654 301
L 654 301
L 654 301
L 655 301
L 655 300
L 656 300
L 656 300
L 656 300
L 656 300
L 656 300
L 656 300
L 657 300
L 657 300
L 657 300
L 657 300
L 657 300
L 657 300
L 657 300
L 658 300
L 658 300
L 658 300
L 659 300
L 659 300
L 659 300
L 659 300
L 659 300
L 660 300
L 660 300
L 660 299
L 660 299
L 660 299
L 661 299
L 661 299
L 662 299
L 662 299
L 662 299
L 662 299
L 663 299
L 663 299
L 663 299
L 663 299
L 663 299
L 663 299
L 663 299
L 664 299
L 665 299
L 665 299
L 665 299
L 665 299
L 665 299
L 665 299
L 666 298
L 666 298
L 666 298
L 666 298
L 666 298
L 666 298
L 667 298
L 667 298
L 667 298
L 667 298
L 667 298
L 667 298
L 668 298
L 668 298
L 668 298
L 668 298
L 668 298
L 668 298
L 669 298
L 671 298
L 671 298
L 671 298
L 671 298
L 671 298
L 672 297
L 672 297
L 672 297
L 672 297
L 672 297
L 672 297
L 672 297
L 672 297
L 672 297
L 673 297
L 673 297
L 673 297
L 673 297
L 673 297
L 673 297
L 673 297
L 674 297
L 674 297
L 674 297
L 675 297
L 675 297
L 676 297
L 676 297
L 676 296
L 676 296
L 676 296
L 676 296
L 676 296
L 677 296
L 677 296
L 677 296
L 678 296
L 678 296
L 678 296
L 678 296
L 678 296
L 679 296
L 679 296
L 679 296
L 680 296
L 680 296
L 681 296
L 681 296
L 681 296
L 681 296
L 682 296
L 682 296
L 682 295
L 682 295
L 682 295
L 682 295
L 683 295
L 683 295
L 683 295
L 683 295
L 683 295
L 683 295
L 683 295
L 683 295
L 683 295
L 683 295
L 683 295
L 683 295
L 683 295
L 683 295
L 684 295
L 684 295
L 684 295
L 684 295
L 684 295
L 684 294
L 685 294
L 685 294
L 685 294
L 685 294
L 685 294
L 686 294
L 686 294
L 686 294
L 686 294
L 686 294
L 687 294
L 687 294
L 687 294
L 687 294
L 688 294
L 688 294
L 688 294
L 688 294
L 688 294
L 688 294
L 688 294
L 688 294
L 688 294
L 688 293
L 688 293
L 689 293
L 689 293
L 689 293
L 689 293
L 689 293
L 689 293
L 690 293
L 691 293
L 692 293
L 692 293
L 692 293
L 692 293
L 693 293
L 693 293
L 693 293
L 693 293
L 693 293
L 694 293
L 694 293
L 694 293
L 694 293
L 694 292
L 694 292
L 694 292
L 694 292
L 694 292
L 694 292
L 694 292
L 695 292
L 695 292
L 695 292
L 695 292
L 695 292
L 695 292
L 695 292
L 695 292
L 696 292
L 696 292
L 696 292
L 697 292
L 697 292
L 697 292
L 698 292
L 698 292
L 698 292
L 698 291
L 698 291
L 699 291
L 699 291
L 699 291
L 699 291
L 699 291
L 699 291
L 699 291
L 699 291
L 699 291
L 700 291
L 700 291
L 700 291
L 700 291
L 701 291
L 701 291
L 701 291
L 701 291
L 702 291
L 702 291
L 702 291
L 702 291
L 702 290
L 702 290
L 703 290
L 704 290
L 704 290
L 704 290
L 704 290
L 704 290
L 705 290
L 705 290
L 705 290
L 705 290
L 705 290
L 705 290
L 706 290
L 706 290
L 706 290
L 706 290
L 706 290
L 707 290
L 707 290
L 707 290
L 707 290
L 707 290
L 707 289
L 708 289
L 708 289
L 708 289
L 708 289
L 708 289
L 708 289
L 708 289
L 708 289
L 709 289
L 709 289
L 709 289
L 709 289
L 709 289
L 709 289
L 709 289
L 709 289
L 710 289
L 710 289
L 710 289
L 710 289
L 710 289
L 710 289
L 710 288
L 711 288
L 711 288
L 711 288
L 711 288
L 712 288
L 712 288
L 712 288
L 712 288
L 713 288
L 713 288
L 713 288
L 714 288
L 714 288
L 714 288
L 714 288
L 714 288
L 714 288
L 714 288
L 714 288
L 715 288
L 715 288
L 715 288
L 715 288
L 715 287
L 716 287
L 716 287
L 716 287
L 717 287
L 717 287
L 717 287
L 717 287
L 717 287
L 717 287
L 717 287
L 717 287
L 718 287
L 718 287
L 718 287
L 718 287
L 718 287
L 719 287
L 719 287
L 719 287
L 719 287
L 719 287
L 719 287
L 719 286
L 719 286
L 719 286
L 720 286
L 720 286
L 720 286
L 720 286
L 721 286
L 721 286
L 721 286
L 722 286
L 722 286
L 723 286
L 724 286
L 724 286
L 724 286
L 724 286
L 724 286
L 724 286
L 726 286
L 726 286
L 726 286
L 727 286
L 727 286
L 727 285
L 727 285
L 727 285
L 728 285
L 728 285
L 728 285
L 728 285
L 728 285
L 728 285
L 729 285
L 729 285
L 729 285
L 729 285
L 729 285
L 729 285
L 729 285
L 730 285
L 730 285
L 730 285
L 730 285
L 730 285
L 730 285
L 730 285
L 730 284
L 730 284
L 731 284
L 731 284
L 731 284
L 731 284
L 731 284
L 731 284
L 731 284
L 732 284
L 732 284
L 732 284
L 732 284
L 732 284
L 732 284
L 732 284
L 732 284
L 732 284
L 732 284
L 733 284
L 733 284
L 733 284
L 733 284
L 733 284
L 733 283
L 734 283
L 734 283
L 734 283
L 734 283
L 734 283
L 734 283
L 734 283
L 734 283
L 734 283
L 734 283
L 734 283
L 734 283
L 734 283
L 735 283
L 735 283
L 735 283
L 736 283
L 736 283
L 736 283
L 736 283
L 736 283
L 737 283
L 737 283
L 737 282
L 737 282
L 737 282
L 737 282
L 737 282
L 737 282
L 737 282
L 737 282
L 737 282
L 737 282
L 738 282
L 738 282
L 738 282
L 738 282
L 738 282
L 738 282
L 738 282
L 738 282
L 738 282
L 738 282
L 738 282
L 738 282
L 738 282
L 739 281
L 739 281
L 739 281
L 739 281
L 739 281
L 739 281
L 739 281
L 739 281
L 739 281
L 740 281
L 740 281
L 741 281
L 741 281
L 741 281
L 741 281
L 741 281
L 741 281
L 741 281
L 742 281
L 742 281
L 742 281
L 742 281
L 742 281
L 742 281
L 742 280
L 743 280
L 743 280
L 743 280
L 743 280
L 743 280
L 743 280
L 743 280
L 743 280
L 744 280
L 744 280
L 744 280
L 744 280
L 745 280
L 745 280
L 745 280
L 745 280
L 745 280
L 745 280
L 745 280
L 745 280
L 745 280
L 745 280
L 745 279
L 745 279
L 745 279
L 745 279
L 745 279
L 745 279
L 746 279
L 746 279
L 746 279
L 746 279
L 746 279
L 746 279
L 747 279
L 747 279
L 747 279
L 747 279
L 747 279
L 747 279
L 747 279
L 747 279
L 747 279
L 747 279
L 747 279
L 747 279
L 747 278
L 747 278
L 747 278
L 747 278
L 747 278
L 747 278
L 747 278
L 747 278
L 747 278
L 747 278
L 747 278
L 747 278
L 747 278
L 747 278
L 747 278
L 747 278
L 747 278
L 747 278
L 747 278
L 747 278
L 747 278
L 747 278
L 747 278
L 747 277
L 747 277
L 747 277
L 747 277
L 747 277
L 747 277
L 747 277
L 747 277
L 747 277
L 747 277
L 747 277
L 747 277
L 747 277
L 747 277
L 747 277
L 747 277
L 747 277
L 747 277
L 747 277
L 747 277
L 747 277
L 747 277
L 747 277
L 747 277
L 747 276
L 747 276
L 747 276
L 747 276
L 747 276
L 747 276
L 747 276
L 747 276
L 747 276
L 747 276
L 747 276
L 747 276
L 747 276
L 747 276
L 747 276
L 748 276
L 748 276
L 748 276
L 748 276
L 748 276
L 748 276
L 748 276
L 748 276
L 748 275
L 748 275
L 748 275
L 748 275
L 748 275
L 748 275
L 748 275
L 748 275
L 748 275
L 748 275
L 748 275
L 748 275
L 748 275
L 748 275
L 748 275
L 748 275
L 748 275
L 748 275
L 748 275
L 748 275
L 748 275
L 748 275
L 748 275
L 748 275
L 748 274
L 748 274
L 748 274
L 748 274
L 748 274
L 748 274
L 748 274
L 748 274
L 748 274
L 748 274
L 748 274
L 748 274
L 748 274
L 748 274
L 748 274
L 748 274
L 748 274
L 748 274
L 749 274
L 749 274
L 749 274
L 749 274
L 749 274
L 749 273
L 749 273
L 749 273
L 749 273
L 749 273
L 749 273
L 749 273
L 749 273
L 749 273
L 749 273
L 749 273
L 749 273
L 749 273
L 749 273
L 749 273
L 749 273
L 749 273
L 749 273
L 749 273
L 749 273
L 749 273
L 749 273
L 749 273
L 749 273
L 749 272
L 749 272
L 749 272
L 749 272
L 749 272
L 749 272
L 749 272
L 749 272
L 749 272
L 749 272
L 749 272
L 749 272
L 749 272
L 749 272
L 749 272
L 749 272
L 749 272
L 749 272
L 749 272
L 749 272
L 749 272
L 749 272
L 749 272
L 749 271
L 749 271
L 749 271
L 749 271
L 749 271
L 749 271
L 749 271
L 749 271
L 749 271
L 749 271
L 749 271
L 749 271
L 749 271
L 749 271
L 749 271
L 749 271
L 749 271
L 749 271
L 749 271
L 749 271
L 749 271
L 749 271
L 749 271
L 749 271
L 749 270
L 749 270
L 749 270
L 749 270
L 749 270
L 749 270
L 749 270
L 749 270
L 749 270
L 749 270
L 749 270
L 749 270
L 749 270
L 749 270
L 749 270
L 749 270
L 749 270
L 749 270
L 749 270
L 749 270
L 749 270
L 749 270
L 749 270
L 749 269
L 750 269
L 750 269
L 750 269
L 750 269
L 750 269
L 750 269
L 750 269
L 750 269
L 750 269
L 750 269
L 750 269
L 750 269
L 750 269
L 750 269
L 750 269
L 750 269
L 750 269
L 750 269
L 750 269
L 750 269
L 750 269
L 750 269
L 750 269
L 750 268
L 750 268
L 750 268
L 750 268
L 750 268
L 750 268
L 750 268
L 750 268
L 750 268
L 750 268
L 750 268
L 750 268
L 750 268
L 750 268
L 750 268
L 750 268
L 750 268
L 750 268
L 750 268
L 750 268
L 750 268
L 750 268
L 750 268
L 750 267
L 750 267
L 750 267
L 750 267
L 750 267
L 750 267
L 750 267
L 750 267
L 750 267
L 750 267
L 750 267
L 750 267
L 751 267
L 751 267
L 751 267
L 751 267
L 751 267
L 751 267
L 751 267
L 751 267
L 751 267
L 751 267
L 751 267
L 751 267
L 751 266
L 751 266
L 751 266
L 751 266
L 751 266
L 751 266
L 751 266
L 751 266
L 751 266
L 751 266
L 751 266
L 751 266
L 751 266
L 751 266
L 751 266
L 751 266
L 751 266
L 751 266
L 751 266
L 751 266
L 751 266
L 751 266
L 751 266
L 751 266
L 751 265
L 751 265
L 751 265
L 751 265
L 751 265
L 751 265
L 751 265
L 752 265
L 752 265
L 752 265
L 752 265
L 752 265
L 752 265
L 752 265
L 752 265
L 752 265
L 752 265
L 752 265
L 752 265
L 752 265
L 752 265
L 753 265
L 753 265
L 753 264
L 753 264
L 753 264
L 753 264
L 753 264
L 753 264
L 753 264
L 753 264
L 754 264
L 754 264
L 754 264
L 754 264
L 754 264
L 754 264
L 754 264
L 754 264
L 754 264
L 754 264
L 754 264
L 755 264
L 755 264
L 755 264
L 755 264
L 755 264
L 755 263
L 755 263
L 755 263
L 755 263
L 755 263
L 755 263
L 755 263
L 755 263
L 755 263
L 755 263
L 756 263
L 756 263
L 756 263
L 756 263
L 756 263
L 756 263
L 756 263
L 756 263
L 756 263
L 756 263
L 756 263
L 757 263
L 757 263
L 757 262
L 757 262
L 757 262
L 757 262
L 757 262
L 757 262
L 757 262
L 757 262
L 758 262
L 758 262
L 758 262
L 758 262
L 758 262
L 758 262
L 758 262
L 758 262
L 758 262
L 758 262
L 759 262
L 759 262
L 759 262
L 759 262
L 759 262
L 759 262
L 759 261
L 759 261
L 759 261
L 759 261
L 759 261
L 759 261
L 759 261
L 759 261
L 759 261
L 759 261
L 759 261
L 759 261
L 759 261
L 759 261
L 759 261
L 759 261
L 759 261
L 759 261
L 759 261
L 759 261
L 759 261
L 759 261
L 759 261
L 759 260
L 759 260
L 759 260
L 759 260
L 759 260
L 759 260
L 759 260
L 759 260
L 760 260
L 760 260
L 760 260
L 760 260
L 760 260
L 760 260
L 760 260
L 760 260
L 760 260
L 760 260
L 760 260
L 760 260
L 760 260
L 760 260
L 760 260
L 760 260
L 760 259
L 760 259
L 760 259
L 760 259
L 760 259
L 760 259
L 760 259
L 760 259
L 760 259
L 760 259
L 760 259
L 760 259
L 760 259
L 760 259
L 760 259
L 760 259
L 760 259
L 760 259
L 760 259
L 760 259
L 760 259
L 760 259
L 760 259
L 761 258
L 761 258
L 761 258
L 761 258
L 761 258
L 761 258
L 761 258
L 761 258
L 761 258
L 761 258
L 761 258
L 761 258
L 761 258
L 761 258
L 761 258
L 761 258
L 761 258
L 761 258
L 761 258
L 761 258
L 761 258
L 761 258
L 761 258
L 761 258
L 761 257
L 761 257
L 761 257
L 761 257
L 761 257
L 761 257
L 761 257
L 761 257
L 761 257
L 761 257
L 761 257
L 761 257
L 761 257
L 761 257
L 761 257
L 761 257
L 761 257
L 761 257
L 761 257
L 761 257
L 761 257
L 761 257
L 761 257
L 761 256
L 761 256
L 761 256
L 761 256
L 761 256
L 761 256
L 761 256
L 761 256
L 761 256
L 761 256
L 761 256
L 761 256
L 761 256
L 761 256
L 761 256
L 761 256
L 761 256
L 761 256
L 761 256
L 761 256
L 761 256
L 761 256
L 761 256
L 761 256
L 761 255
L 761 255
L 761 255
L 761 255
L 761 255
L 761 255
L 761 255
L 761 255
L 761 255
L 761 255
L 761 255
L 761 255
L 761 255
L 761 255
L 761 255
L 761 255
L 761 255
L 761 255
L 761 255
L 761 255
L 761 255
L 761 255
L 761 255
L 762 254
L 762 254
L 762 254
L 762 254
L 762 254
L 762 254
L 762 254
L 762 254
L 762 254
L 762 254
L 762 254
L 762 254
L 762 254
L 762 254
L 762 254
L 762 254
L 762 254
L 762 254
L 762 254
L 762 254
L 762 254
L 762 254
L 762 254
L 762 254
L 762 253
L 762 253
L 762 253
L 762 253
L 762 253
L 762 253
L 762 253
L 762 253
L 762 253
L 762 253
L 762 253
L 762 253
L 762 253
L 763 253
L 763 253
L 763 253
L 763 253
L 763 253
L 763 253
L 763 253
L 763 253
L 763 253
L 763 253
L 763 252
L 763 252
L 763 252
L 763 252
L 763 252
L 763 252
L 763 252
L 763 252
L 763 252
L 763 252
L 763 252
L 763 252
L 763 252
L 763 252
L 763 252
L 763 252
L 763 252
L 764 252
L 764 252
L 764 252
L 764 252
L 764 252
L 764 252
L 764 252
L 764 251
L 764 251
L 764 251
L 764 251
L 764 251
L 764 251
L 764 251
L 764 251
L 764 251
L 764 251
L 764 251
L 764 251
L 764 251
L 764 251
L 764 251
L 764 251
L 764 251
L 764 251
L 764 251
L 764 251
L 764 251
L 764 251
L 764 251
L 765 250
L 765 250
L 765 250
L 765 250
L 765 250
L 765 250
L 765 250
L 765 250
L 765 250
L 765 250
L 765 250
L 765 250
L 765 250
L 765 250
L 765 250
L 765 250
L 765 250
L 765 250
L 765 250
L 765 250
L 765 250
L 765 250
L 765 250
L 765 250
L 765 249
L 765 249
L 765 249
L 765 249
L 765 249
L 765 249
L 766 249
L 766 249
L 766 249
L 766 249
L 766 249
L 766 249
L 766 249
L 766 249
L 766 249
L 766 249
L 766 249
L 766 249
L 766 249
L 766 249
L 766 249
L 766 249
L 766 249
L 766 249
L 766 248
L 766 248
L 766 248
L 766 248
L 767 248
L 767 248
L 767 248
L 767 248
L 767 248
L 767 248
L 767 248
L 767 248
L 767 248
L 767 248
L 767 248
L 767 248
L 767 248
L 768 248
L 768 248
L 768 248
L 768 248
L 768 248
L 768 248
L 768 247
L 768 247
L 768 247
L 768 247
L 768 247
L 768 247
L 768 247
L 768 247
L 768 247
L 769 247
L 769 247
L 769 247
L 769 247
L 769 247
L 769 247
L 769 247
L 770 247
L 770 247
L 770 247
L 770 247
L 770 247
L 770 247
L 770 247
L 770 247
L 770 246
L 770 246
L 770 246
L 771 246
L 771 246
L 771 246
L 771 246
L 771 246
L 771 246
L 771 246
L 771 246
L 771 246
L 771 246
L 771 246
L 771 246
L 771 246
L 771 246
L 771 246
L 771 246
L 771 246
L 771 246
L 771 246
L 772 246
L 772 245
L 772 245
L 772 245
L 772 245
L 772 245
L 772 245
L 772 245
L 772 245
L 772 245
L 772 245
L 772 245
L 772 245
L 772 245
L 772 245
L 773 245
L 773 245
L 773 245
L 773 245
L 773 245
L 773 245
L 773 245
L 774 245
L 774 245
L 774 245
L 774 244
L 774 244
L 774 244
L 774 244
L 774 244
L 774 244
L 774 244
L 774 244
L 774 244
L 774 244
L 774 244
L 774 244
L 774 244
L 774 244
L 775 244
L 775 244
L 775 244
L 775 244
L 775 244
L 775 244
L 775 244
L 775 244
L 775 244
L 775 243
L 775 243
L 775 243
L 775 243
L 775 243
L 775 243
L 775 243
L 775 243
L 775 243
L 775 243
L 775 243
L 775 243
L 775 243
L 776 243
L 776 243
L 776 243
L 776 243
L 776 243
L 776 243
L 776 243
L 776 243
L 776 243
L 776 243
L 776 243
L 776 242
L 776 242
L 776 242
L 776 242
L 776 242
L 776 242
L 776 242
L 776 242
L 776 242
L 776 242
L 777 242
L 777 242
L 777 242
L 777 242
L 777 242
L 777 242
L 777 242
L 778 242
L 778 242
L 778 242
L 778 242
L 778 242
L 778 242
L 778 241
L 778 241
L 778 241
L 778 241
L 778 241
L 779 241
L 779 241
L 779 241
L 779 241
L 779 241
L 779 241
L 779 241
L 779 241
L 779 241
L 779 241
L 779 241
L 779 241
L 779 241
L 779 241
L 779 241
L 779 241
L 779 241
L 779 241
L 779 241
L 779 240
L 779 240
L 779 240
L 779 240
L 779 240
L 779 240
L 779 240
L 779 240
L 779 240
L 779 240
L 779 240
L 779 240
L 779 240
L 779 240
L 779 240
L 780 240
L 780 240
L 780 240
L 780 240
L 780 240
L 780 240
L 780 240
L 780 240
L 780 239
L 780 239
L 780 239
L 780 239
L 780 239
L 780 239
L 780 239
L 780 239
L 780 239
L 780 239
L 780 239
L 780 239
L 780 239
L 780 239
L 780 239
L 780 239
L 780 239
L 780 239
L 781 239
L 781 239
L 781 239
L 781 239
L 781 239
L 781 239
L 781 238
L 781 238
L 781 238
L 781 238
L 781 238
L 781 238
L 781 238
L 781 238
L 781 238
L 781 238
L 781 238
L 781 238
L 781 238
L 781 238
L 781 238
L 781 238
L 781 238
L 781 238
L 781 238
L 781 238
L 781 238
L 781 238
L 781 238
L 781 237
L 781 237
L 781 237
L 781 237
L 781 237
L 781 237
L 781 237
L 781 237
L 781 237
L 781 237
L 781 237
L 781 237
L 781 237
L 781 237
L 781 237
L 781 237
L 781 237
L 781 237
L 781 237
L 781 237
L 781 237
L 781 237
L 781 237
L 781 237
L 781 236
L 781 236
L 781 236
L 781 236
L 781 236
L 781 236
L 781 236
L 781 236
L 781 236
L 781 236
L 781 236
L 781 236
L 781 236
L 781 236
L 781 236
L 781 236
L 781 236
L 781 236
L 781 236
L 781 236
L 781 236
L 781 236
L 781 236
L 782 235
L 782 235
L 782 235
L 782 235
L 782 235
L 782 235
L 782 235
L 782 235
L 782 235
L 782 235
L 782 235
L 782 235
L 782 235
L 782 235
L 782 235
L 782 235
L 782 235
L 782 235
L 782 235
L 782 235
L 782 235
L 782 235
L 782 235
L 782 235
L 782 234
L 782 234
L 782 234
L 782 234
L 782 234
L 782 234
L 782 234
L 782 234
L 782 234
L 782 234
L 782 234
L 782 234
L 782 234
L 782 234
L 782 234
L 782 234
L 782 234
L 782 234
L 782 234
L 782 234
L 782 234
L 782 234
L 782 234
L 782 233
L 782 233
L 782 233
L 782 233
L 782 233
L 782 233
L 782 233
L 782 233
L 782 233
L 782 233
L 782 233
L 782 233
L 782 233
L 782 233
L 782 233
L 782 233
L 782 233
L 782 233
L 782 233
L 782 233
L 782 233
L 782 233
L 782 233
L 782 233
L 782 232
L 782 232
L 782 232
L 782 232
L 782 232
L 782 232
L 782 232
L 782 232
L 782 232
L 782 232
L 782 232
L 783 232
L 783 232
L 783 232
L 783 232
L 783 232
L 783 232
L 783 232
L 783 232
L 783 232
L 783 232
L 783 232
L 783 232
L 783 232
L 783 231
L 783 231
L 783 231
L 783 231
L 783 231
L 783 231
L 783 231
L 783 231
L 783 231
L 783 231
L 783 231
L 783 231
L 783 231
L 783 231
L 783 231
L 783 231
L 783 231
L 783 231
L 783 231
L 783 231
L 783 231
L 783 231
L 783 231
L 783 230
L 783 230
L 783 230
L 783 230
L 783 230
L 783 230
L 783 230
L 783 230
L 783 230
L 783 230
L 783 230
L 783 230
L 783 230
L 783 230
L 783 230
L 783 230
L 783 230
L 783 230
L 783 230
L 783 230
L 783 230
L 783 230
L 783 230
L 783 230
L 783 229
L 783 229
L 783 229
L 783 229
L 783 229
L 783 229
L 783 229
L 783 229
L 783 229
L 783 229
L 783 229
L 783 229
L 783 229
L 783 229
L 783 229
L 783 229
L 783 229
L 783 229
L 783 229
L 783 229
L 783 229
L 783 229
L 783 229
L 783 228
L 783 228
L 783 228
L 783 228
L 783 228
L 783 228
L 783 228
L 783 228
L 783 228
L 783 228
L 783 228
L 783 228
L 783 228
L 783 228
L 783 228
L 783 228
L 783 228
L 783 228
L 783 228
L 783 228
L 783 228
L 783 228
L 783 228
L 783 228
L 783 227
L 783 227
L 783 227
L 783 227
L 783 227
L 783 227
L 783 227
L 783 227
L 783 227
L 783 227
L 783 227
L 783 227
L 783 227
L 783 227
L 783 227
L 783 227
L 783 227
L 783 227
L 783 227
L 783 227
L 783 227
L 783 227
L 783 227
L 783 226
L 783 226
L 783 226
L 783 226
L 783 226
L 783 226
L 783 226
L 783 226
L 783 226
L 783 226
L 783 226
L 783 226
L 783 226
L 783 226
L 783 226
L 783 226
L 783 226
L 783 226
L 783 226
L 783 226
L 783 226
L 783 226
L 783 226
L 783 226
L 783 225
L 783 225
L 783 225
L 783 225
L 783 225
L 783 225
L 783 225
L 783 225
L 783 225
L 783 225
L 783 225
L 783 225
L 783 225
L 783 225
L 783 225
L 783 225
L 783 225
L 783 225
L 783 225
L 783 225
L 783 225
L 783 225
L 783 225
L 783 224
L 783 224
L 783 224
L 783 224
L 783 224
L 783 224
L 783 224
L 783 224
L 783 224
L 783 224
L 783 224
L 783 224
L 783 224
L 783 224
L 783 224
L 783 224
L 783 224
L 783 224
L 783 224
L 783 224
L 783 224
L 783 224
L 783 224
L 783 224
L 783 223
L 783 223
L 783 223
L 783 223
L 783 223
L 783 223
L 783 223
L 783 223
L 783 223
L 783 223
L 783 223
L 783 223
L 783 223
L 783 223
L 783 223
L 783 223
L 783 223
L 783 223
L 783 223
L 783 223
L 783 223
L 783 223
L 783 223
L 783 222
L 783 222
L 783 222
L 783 222
L 783 222
L 783 222
L 783 222
L 783 222
L 783 222
L 783 222
L 783 222
L 783 222
L 783 222
L 783 222
L 783 222
L 783 222
L 783 222
L 783 222
L 783 222
L 783 222
L 783 222
L 783 222
L 783 222
L 783 222
L 783 221
L 783 221
L 783 221
L 783 221
L 783 221
L 783 221
L 783 221
L 783 221
L 783 221
L 783 221
L 783 221
L 783 221
L 783 221
L 783 221
L 783 221
L 783 221
L 783 221
L 783 221
L 783 221
L 783 221
L 783 221
L 783 221
L 783 221
L 783 220
L 783 220
L 783 220
L 783 220
L 783 220
L 783 220
L 783 220
L 783 220
L 783 220
L 783 220
L 783 220
L 783 220
L 783 220
L 783 220
L 783 220
L 783 220
L 783 220
L 783 220
L 783 220
L 783 220
L 783 220
L 783 220
L 783 220
L 783 220
L 783 219
L 783 219
L 783 219
L 783 219
L 783 219
L 783 219
L 783 219
L 783 219
L 783 219
L 783 219
L 783 219
L 783 219
L 783 219
L 783 219
L 783 219
L 783 219
L 783 219
L 783 219
L 783 219
L 783 219
L 783 219
L 783 219
L 783 219
L 783 218
L 783 218
L 783 218
L 783 218
L 783 218
L 783 218
L 783 218
L 783 218
L 783 218
L 783 218
L 783 218
L 783 218
L 783 218
L 783 218
L 783 218
L 783 218
L 783 218
L 783 218
L 783 218
L 783 218
L 783 218
L 783 218
L 783 218
L 783 218
L 783 217
L 783 217
L 783 217
L 783 217
L 783 217
L 783 217
L 783 217
L 783 217
L 783 217
L 783 217
L 783 217
L 783 217
L 783 217
L 783 217
L 783 217
L 783 217
L 783 217
L 783 217
L 783 217
L 783 217
L 783 217
L 783 217
L 783 217
L 783 216
L 783 216
L 784 216
L 784 216
L 784 216
L 784 216
L 784 216
L 784 216
L 784 216
L 784 216
L 784 216
L 784 216
L 784 216
L 784 216
L 784 216
L 784 216
L 784 216
L 784 216
L 784 216
L 784 216
L 784 216
L 784 216
L 784 216
L 784 216
L 784 215
L 784 215
L 784 215
L 784 215
L 784 215
L 784 215
L 784 215
L 784 215
L 784 215
L 784 215
L 784 215
L 784 215
L 784 215
L 784 215
L 784 215
L 784 215
L 784 215
L 784 215
L 784 215
L 784 215
L 784 215
L 784 215
L 784 215
L 784 215
L 784 214
L 784 214
L 784 214
L 784 214
L 784 214
L 784 214
L 784 214
L 784 214
L 784 214
L 784 214
L 784 214
L 784 214
L 784 214
L 784 214
L 784 214
L 784 214
L 784 214
L 784 214
L 784 214
L 784 214
L 784 214
L 784 214
L 784 214
L 784 213
L 784 213
L 784 213
L 784 213
L 784 213
L 784 213
L 784 213
L 784 213
L 784 213
L 784 213
L 784 213
L 784 213
L 784 213
L 784 213
L 784 213
L 784 213
L 784 213
L 784 213
L 784 213
L 784 213
L 784 213
L 784 213
L 784 213
L 784 213
L 784 212
L 784 212
L 784 212
L 784 212
L 784 212
L 784 212
L 784 212
L 784 212
L 784 212
L 784 212
L 784 212
L 784 212
L 784 212
L 784 212
L 784 212
L 784 212
L 784 212
L 784 212
L 784 212
L 784 212
L 784 212
L 784 212
L 784 212
L 784 211
L 784 211
L 784 211
L 784 211
L 784 211
L 784 211
L 784 211
L 784 211
L 784 211
L 784 211
L 784 211
L 784 211
L 784 211
L 784 211
L 784 211
L 784 211
L 784 211
L 784 211
L 784 211
L 784 211
L 784 211
L 784 211
L 784 211
L 784 211
L 784 210
L 784 210
L 784 210
L 784 210
L 784 210
L 784 210
L 784 210
L 784 210
L 784 210
L 784 210
L 784 210
L 784 210
L 784 210
L 784 210
L 784 210
L 784 210
L 784 210
L 784 210
L 784 210
L 784 210
L 784 210
L 784 210
L 784 210
L 784 209
L 784 209
L 784 209
L 784 209
L 784 209
L 784 209
L 784 209
L 784 209
L 784 209
L 784 209
L 784 209
L 784 209
L 784 209
L 784 209
L 784 209
L 784 209
L 784 209
L 784 209
L 784 209
L 784 209
L 784 209
L 784 209
L 784 209
L 784 209
L 784 208
L 784 208
L 784 208
L 784 208
L 784 208
L 784 208
L 784 208
L 784 208
L 784 208
L 784 208
L 784 208
L 784 208
L 784 208
L 784 208
L 784 208
L 784 208
L 784 208
L 784 208
L 784 208
L 784 208
L 784 208
L 784 208
L 784 208
L 784 207
L 784 207
L 784 207
L 784 207
L 784 207
L 784 207
L 784 207
L 784 207
L 784 207
L 784 207
L 784 207
L 784 207
L 784 207
L 784 207
L 784 207
L 784 207
L 784 207
L 784 207
L 784 207
L 784 207
L 784 207
L 784 207
L 784 207
L 784 207
L 784 206
L 784 206
L 784 206
L 784 206
L 784 206
L 784 206
L 784 206
L 784 206
L 784 206
L 784 206
L 784 206
L 784 206
L 784 206
L 784 206
L 784 206
L 784 206
L 784 206
L 784 206
L 784 206
L 784 206
L 784 206
L 784 206
L 784 206
L 784 205
L 784 205
L 784 205
L 784 205
L 784 205
L 784 205
L 784 205
L 784 205
L 784 205
L 784 205
L 784 205
L 784 205
L 784 205
L 784 205
L 784 205
L 784 205
L 784 205
L 784 205
L 784 205
L 784 205
L 784 205
L 784 205
L 784 205
L 784 205
L 784 204
L 784 204
L 784 204
L 784 204
L 784 204
L 784 204
L 784 204
L 784 204
L 784 204
L 784 204
L 784 204
L 784 204
L 784 204
L 784 204
L 784 204
L 784 204
L 784 204
L 784 204
L 784 204
L 784 204
L 784 204
L 784 204
L 784 204
L 784 203
L 784 203
L 784 203
L 784 203
L 784 203
L 784 203
L 784 203
L 784 203
L 784 203
L 785 203
L 785 203
L 785 203
L 785 203
L 785 203
L 785 203
L 785 203
L 785 203
L 785 203
L 785 203
L 785 203
L 785 203
L 785 203
L 785 203
L 785 203
L 785 202
L 785 202
L 785 202
L 785 202
L 785 202
L 785 202
L 785 202
L 785 202
L 785 202
L 785 202
L 785 202
L 785 202
L 785 202
L 785 202
L 785 202
L 785 202
L 785 202
L 785 202
L 785 202
L 785 202
L 785 202
L 785 202
L 785 202
L 785 201
L 785 201
L 785 201
L 785 201
L 785 201
L 785 201
L 785 201
L 785 201
L 785 201
L 785 201
L 785 201
L 785 201
L 785 201
L 785 201
L 785 201
L 785 201
L 785 201
L 785 201
L 785 201
L 785 201
L 785 201
L 785 201
L 785 201
L 785 201
L 785 200
L 785 200
L 785 200
L 785 200
L 785 200
L 785 200
L 785 200
L 785 200
L 785 200
L 785 200
L 785 200
L 785 200
L 785 200
L 785 200
L 785 200
L 785 200
L 785 200
L 785 200
L 785 200
L 785 200
L 785 200
L 785 200
L 785 200
L 785 199
L 785 199
L 785 199
L 785 199
L 785 199
L 785 199
L 785 199
L 785 199
L 785 199
L 785 199
L 785 199
L 785 199
L 785 199
L 785 199
L 785 199
L 785 199
L 785 199
L 785 199
L 785 199
L 785 199
L 785 199
L 785 199
L 785 199
L 785 199
L 785 198
L 785 198
L 785 198
L 785 198
L 785 198
L 785 198
L 785 198
L 785 198
L 785 198
L 785 198
L 785 198
L 785 198
L 785 198
L 785 198
L 785 198
L 785 198
L 785 198
L 785 198
L 785 198
L 785 198
L 785 198
L 785 198
L 785 198
L 785 198
L 785 197
L 785 197
L 785 197
L 785 197
L 785 197
L 785 197
L 785 197
L 785 197
L 785 197
L 785 197
L 785 197
L 785 197
L 785 197
L 785 197
L 785 197
L 785 197
L 785 197
L 785 197
L 785 197
L 785 197
L 785 197
L 785 197
L 785 197
L 785 196
L 785 196
L 785 196
L 785 196
L 785 196
L 785 196
L 785 196
L 785 196
L 785 196
L 785 196
L 785 196
L 785 196
L 785 196
L 785 196
L 785 196
L 786 196
L 786 196
L 786 196
L 786 196
L 786 196
L 786 196
L 786 196
L 786 196
L 786 196
L 786 195
L 786 195
L 786 195
L 786 195
L 786 195
L 786 195
L 786 195
L 786 195
L 786 195
L 786 195
L 786 195
L 786 195
L 786 195
L 786 195
L 786 195
L 786 195
L 786 195
L 786 195
L 786 195
L 786 195
L 786 195
L 786 195
L 786 195
L 786 194
L 786 194
L 786 194
L 786 194
L 786 194
L 787 194
L 787 194
L 787 194
L 787 194
L 787 194
L 787 194
L 787 194
L 787 194
L 787 194
L 787 194
L 787 194
L 787 194
L 788 194
L 788 194
L 788 194
L 788 194
L 788 194
L 788 194
L 788 194
L 788 193
L 788 193
L 788 193
L 788 193
L 788 193
L 788 193
L 788 193
L 788 193
L 788 193
L 788 193
L 788 193
L 788 193
L 788 193
L 788 193
L 788 193
L 789 193
L 789 193
L 789 193
L 789 193
L 789 193
L 789 193
L 789 193
L 789 193
L 789 192
L 789 192
L 789 192
L 789 192
L 789 192
L 789 192
L 789 192
L 789 192
L 789 192
L 789 192
L 789 192
L 789 192
L 789 192
L 789 192
L 789 192
L 789 192
L 789 192
L 789 192
L 789 192
L 789 192
L 789 192
L 789 192
L 789 192
L 789 192
L 789 191
L 789 191
L 789 191
L 789 191
L 789 191
L 789 191
L 789 191
L 790 191
L 790 191
L 790 191
L 790 191
L 790 191
L 790 191
L 790 191
L 790 191
L 790 191
L 790 191
L 790 191
L 790 191
L 790 191
L 790 191
L 790 191
L 790 191
L 790 190
L 790 190
L 790 190
L 790 190
L 790 190
L 790 190
L 790 190
L 790 190
L 790 190
L 790 190
L 790 190
L 790 190
L 791 190
L 791 190
L 791 190
L 791 190
L 791 190
L 791 190
L 791 190
L 791 190
L 791 190
L 791 190
L 791 190
L 791 190
L 792 189
L 792 189
L 792 189
L 792 189
L 792 189
L 792 189
L 792 189
L 792 189
L 792 189
L 792 189
L 792 189
L 792 189
L 792 189
L 792 189
L 792 189
L 792 189
L 792 189
L 792 189
L 792 189
L 792 189
L 792 189
L 792 189
L 792 189
L 792 188
L 792 188
L 792 188
L 792 188
L 792 188
L 792 188
L 792 188
L 792 188
L 792 188
L 792 188
L 793 188
L 793 188
L 793 188
L 793 188
L 793 188
L 793 188
L 793 188
L 793 188
L 793 188
L 793 188
L 793 188
L 793 188
L 793 188
L 793 188
L 793 187
L 793 187
L 793 187
L 793 187
L 793 187
L 793 187
L 793 187
L 793 187
L 793 187
L 793 187
L 793 187
L 794 187
L 794 187
L 794 187
L 794 187
L 794 187
L 794 187
L 794 187
L 794 187
L 794 187
L 794 187
L 794 187
L 794 187
L 794 186
L 794 186
L 794 186
L 794 186
L 794 186
L 794 186
L 794 186
L 794 186
L 795 186
L 795 186
L 795 186
L 795 186
L 795 186
L 795 186
L 795 186
L 795 186
L 795 186
L 795 186
L 795 186
L 795 186
L 795 186
L 795 186
L 795 186
L 796 186
L 796 185
L 796 185
L 796 185
L 796 185
L 796 185
L 796 185
L 796 185
L 796 185
L 796 185
L 796 185
L 796 185
L 797 185
L 797 185
L 797 185
L 797 185
L 797 185
L 797 185
L 797 185
L 797 185
L 797 185
L 797 185
L 797 185
L 797 185
L 797 184
L 797 184
L 797 184
L 797 184
L 797 184
L 798 184
L 798 184
L 798 184
L 798 184
L 798 184
L 798 184
L 798 184
L 798 184
L 798 184
L 798 184
L 798 184
L 798 184
L 798 184
L 798 184
L 798 184
L 798 184
L 798 184
L 798 184
L 798 184
L 798 183
L 798 183
L 798 183
L 799 183
L 799 183
L 799 183
L 799 183
L 799 183
L 799 183
L 799 183
L 799 183
L 799 183
L 799 183
L 799 183
L 799 183
L 799 183
L 799 183
L 799 183
L 799 183
L 799 183
L 799 183
L 799 183
L 799 183
L 800 182
L 800 182
L 800 182
L 800 182
L 800 182
L 800 182
L 800 182
L 800 182
L 800 182
L 800 182
L 800 182
L 800 182
L 800 182
L 800 182
L 800 182
L 800 182
L 800 182
L 801 182
L 801 182
L 801 182
L 801 182
L 801 182
L 801 182
L 801 182
L 802 181
L 802 181
L 802 181
L 802 181
L 802 181
L 802 181
L 802 181
L 802 181
L 803 181
L 803 181
L 803 181
L 803 181
L 803 181
L 803 181
L 803 181
L 803 181
L 803 181
L 803 181
L 803 181
L 803 181
L 803 181
L 803 181
L 803 181
L 803 181
L 803 180
L 803 180
L 803 180
L 803 180
L 803 180
L 803 180
L 803 180
L 803 180
L 803 180
L 803 180
L 803 180
L 803 180
L 803 180
L 803 180
L 803 180
L 803 180
L 803 180
L 803 180
L 803 180
L 803 180
L 803 180
L 803 180
L 803 180
L 803 179
L 803 179
L 803 179
L 803 179
L 803 179
L 803 179
L 804 179
L 804 179
L 804 179
L 804 179
L 804 179
L 804 179
L 804 179
L 804 179
L 804 179
L 804 179
L 804 179
L 804 179
L 804 179
L 804 179
L 804 179
L 804 179
L 804 179
L 804 179
L 804 178
L 804 178
L 804 178
L 804 178
L 804 178
L 804 178
L 804 178
L 804 178
L 804 178
L 804 178
L 804 178
L 804 178
L 804 178
L 804 178
L 804 178
L 804 178
L 804 178
L 804 178
L 804 178
L 804 178
L 804 178
L 804 178
L 804 178
L 804 177
L 804 177
L 804 177
L 804 177
L 804 177
L 804 177
L 804 177
L 804 177
L 804 177
L 804 177
L 804 177
L 804 177
L 804 177
L 804 177
L 804 177
L 804 177
L 804 177
L 804 177
L 804 177
L 804 177
L 804 177
L 804 177
L 804 177
L 804 177
L 804 176
L 804 176
L 804 176
L 804 176
L 804 176
L 804 176
L 804 176
L 804 176
L 804 176
L 804 176
L 804 176
L 804 176
L 804 176
L 804 176
L 804 176
L 804 176
L 804 176
L 804 176
L 804 176
L 804 176
L 804 176
L 804 176
L 804 176
L 804 175
L 804 175
L 804 175
L 804 175
L 804 175
L 804 175
L 804 175
L 804 175
L 804 175
L 804 175
L 804 175
L 804 175
L 804 175
L 804 175
L 804 175
L 804 175
L 804 175
L 804 175
L 804 175
L 804 175
L 804 175
L 804 175
L 804 175
L 804 175
L 804 174
L 804 174
L 804 174
L 804 174
L 804 174
L 804 174
L 804 174
L 804 174
L 804 174
L 804 174
L 804 174
L 804 174
L 804 174
L 804 174
L 804 174
L 804 174
L 804 174
L 804 174
L 804 174
L 804 174
L 804 174
L 804 174
L 804 174
L 804 173
L 804 173
L 804 173
L 804 173
L 804 173
L 804 173
L 804 173
L 804 173
L 804 173
L 804 173
L 804 173
L 804 173
L 804 173
L 804 173
L 804 173
L 804 173
L 804 173
L 804 173
L 804 173
L 804 173
L 804 173
L 804 173
L 804 173
L 804 173
L 804 172
L 804 172
L 804 172
L 804 172
L 804 172
L 804 172
L 804 172
L 804 172
L 804 172
L 804 172
L 804 172
L 804 172
L 804 172
L 804 172
L 804 172
L 804 172
L 804 172
L 804 172
L 804 172
L 804 172
L 804 172
L 804 172
L 804 172
L 804 171
L 804 171
L 804 171
L 804 171
L 804 171
L 804 171
L 804 171
L 804 171
L 804 171
L 804 171
L 804 171
L 804 171
L 804 171
L 804 171
L 804 171
L 804 171
L 804 171
L 804 171
L 804 171
L 804 171
L 804 171
L 804 171
L 804 171
L 804 171
L 804 170
L 804 170
L 804 170
L 804 170
L 804 170
L 804 170
L 804 170
L 804 170
L 804 170
L 804 170
L 804 170
L 804 170
L 804 170
L 804 170
L 804 170
L 804 170
L 804 170
L 804 170
L 804 170
L 804 170
L 804 170
L 804 170
L 804 170
L 805 169
L 805 169
L 805 169
L 805 169
L 805 169
L 805 169
L 805 169
L 805 169
L 805 169
L 805 169
L 805 169
L 805 169
L 805 169
L 805 169
L 805 169
L 805 169
L 805 169
L 805 169
L 805 169
L 805 169
L 805 169
L 805 169
L 805 169
L 805 169
L 805 168
L 805 168
L 805 168
L 805 168
L 805 168
L 805 168
L 805 168
L 805 168
L 805 168
L 805 168
L 805 168
L 805 168
L 805 168
L 805 168
L 805 168
L 805 168
L 805 168
L 805 168
L 805 168
L 805 168
L 805 168
L 805 168
L 805 168
L 805 167
L 805 167
L 805 167
L 805 167
L 805 167
L 805 167
L 805 167
L 805 167
L 805 167
L 805 167
L 805 167
L 805 167
L 805 167
L 805 167
L 805 167
L 805 167
L 805 167
L 805 167
L 805 167
L 805 167
L 805 167
L 805 167
L 805 167
L 805 167
L 805 166
L 805 166
L 805 166
L 805 166
L 805 166
L 805 166
L 805 166
L 805 166
L 805 166
L 805 166
L 805 166
L 805 166
L 805 166
L 805 166
L 805 166
L 805 166
L 805 166
L 805 166
L 805 166
L 805 166
L 805 166
L 805 166
L 805 166
L 805 165
L 805 165
L 805 165
L 805 165
L 805 165
L 805 165
L 805 165
L 805 165
L 805 165
L 805 165
L 805 165
L 805 165
L 805 165
L 805 165
L 805 165
L 805 165
L 805 165
L 805 165
L 805 165
L 805 165
L 805 165
L 805 165
L 805 165
L 805 165
L 805 164
L 805 164
L 805 164
L 805 164
L 805 164
L 805 164
L 805 164
L 805 164
L 805 164
L 805 164
L 805 164
L 805 164
L 805 164
L 805 164
L 805 164
L 805 164
L 805 164
L 805 164
L 805 164
L 805 164
L 805 164
L 805 164
L 805 164
L 805 163
L 805 163
L 805 163
L 805 163
L 805 163
L 805 163
L 805 163
L 805 163
L 805 163
L 805 163
L 805 163
L 805 163
L 805 163
L 805 163
L 805 163
L 805 163
L 805 163
L 805 163
L 805 163
L 805 163
L 805 163
L 805 163
L 805 163
L 805 163
L 805 162
L 805 162
L 805 162
L 805 162
L 805 162
L 805 162
L 805 162
L 805 162
L 805 162
L 805 162
L 805 162
L 805 162
L 805 162
L 805 162
L 805 162
L 805 162
L 805 162
L 805 162
L 805 162
L 805 162
L 805 162
L 805 162
L 805 162
L 805 162
L 805 161
L 805 161
L 805 161
L 805 161
L 805 161
L 805 161
L 805 161
L 805 161
L 805 161
L 805 161
L 805 161
L 805 161
L 805 161
L 805 161
L 805 161
L 805 161
L 805 161
L 805 161
L 805 161
L 805 161
L 805 161
L 805 161
L 805 161
L 805 160
L 805 160
L 805 160
L 805 160
L 805 160
L 805 160
L 805 160
L 805 160
L 805 160
L 805 160
L 805 160
L 805 160
L 805 160
L 805 160
L 805 160
L 805 160
L 805 160
L 805 160
L 805 160
L 805 160
L 805 160
L 805 160
L 805 160
L 805 160
L 805 159
L 805 159
L 805 159
L 805 159
L 805 159
L 805 159
L 805 159
L 805 159
L 805 159
L 805 159
L 805 159
L 805 159
L 805 159
L 805 159
L 805 159
L 805 159
L 805 159
L 805 159
L 805 159
L 805 159
L 805 159
L 805 159
L 805 159
L 805 158
L 805 158
L 805 158
L 805 158
L 805 158
L 805 158
L 805 158
L 805 158
L 805 158
L 805 158
L 805 158
L 805 158
L 805 158
L 805 158
L 805 158
L 805 158
L 805 158
L 805 158
L 805 158
L 805 158
L 805 158
L 805 158
L 805 158
L 805 158
L 805 157
L 805 157
L 805 157
L 805 157
L 805 157
L 805 157
L 805 157
L 805 157
L 805 157
L 805 157
L 805 157
L 805 157
L 805 157
L 805 157
L 805 157
L 805 157
L 805 157
L 805 157
L 805 157
L 805 157
L 805 157
L 805 157
L 805 157
L 805 156
L 805 156
L 805 156
L 805 156
L 805 156
L 805 156
L 805 156
L 805 156
L 805 156
L 805 156
L 805 156
L 805 156
L 805 156
L 805 156
L 805 156
L 805 156
L 805 156
L 805 156
L 805 156
L 805 156
L 805 156
L 805 156
L 805 156
L 805 156
L 805 155
L 805 155
L 805 155
L 805 155
L 805 155
L 805 155
L 805 155
L 805 155
L 805 155
L 805 155
L 805 155
L 805 155
L 805 155
L 805 155
L 805 155
L 805 155
L 805 155
L 805 155
L 805 155
L 805 155
L 805 155
L 805 155
L 805 155
L 805 154
L 805 154
L 805 154
L 805 154
L 805 154
L 805 154
L 805 154
L 805 154
L 805 154
L 805 154
L 805 154
L 805 154
L 805 154
L 805 154
L 805 154
L 805 154
L 805 154
L 805 154
L 805 154
L 805 154
L 806 154
L 806 154
L 806 154
L 806 154
L 806 153
L 806 153
L 806 153
L 806 153
L 806 153
L 806 153
L 806 153
L 806 153
L 806 153
L 806 153
L 806 153
L 806 153
L 806 153
L 806 153
L 806 153
L 806 153
L 806 153
L 806 153
L 806 153
L 806 153
L 806 153
L 806 153
L 806 153
L 806 152
L 806 152
L 806 152
L 806 152
L 806 152
L 806 152
L 806 152
L 806 152
L 806 152
L 806 152
L 806 152
L 806 152
L 806 152
L 806 152
L 806 152
L 806 152
L 806 152
L 806 152
L 806 152
L 806 152
L 806 152
L 806 152
L 806 152
L 806 152
L 806 151
L 806 151
L 806 151
L 806 151
L 806 151
L 806 151
L 806 151
L 806 151
L 806 151
L 806 151
L 806 151
L 806 151
L 806 151
L 806 151
L 806 151
L 806 151
L 806 151
L 806 151
L 806 151
L 806 151
L 806 151
L 806 151
L 806 151
L 806 150
L 806 150
L 806 150
L 806 150
L 806 150
L 806 150
L 806 150
L 806 150
L 806 150
L 806 150
L 806 150
L 806 150
L 806 150
L 806 150
L 806 150
L 806 150
L 806 150
L 806 150
L 806 150
L 806 150
L 806 150
L 806 150
L 806 150
L 806 150
L 806 149
L 806 149
L 806 149
L 806 149
L 806 149
L 806 149
L 806 149
L 806 149
L 806 149
L 806 149
L 806 149
L 806 149
L 806 149
L 806 149
L 806 149
L 806 149
L 806 149
L 806 149
L 806 149
L 806 149
L 806 149
L 806 149
L 806 149
L 806 148
L 806 148
L 806 148
L 806 148
L 806 148
L 806 148
L 806 148
L 806 148
L 806 148
L 806 148
L 806 148
L 806 148
L 806 148
L 806 148
L 806 148
L 806 148
L 806 148
L 806 148
L 806 148
L 806 148
L 806 148
L 806 148
L 806 148
L 806 148
L 806 147
L 806 147
L 806 147
L 806 147
L 806 147
L 806 147
L 806 147
L 806 147
L 806 147
L 806 147
L 806 147
L 806 147
L 806 147
L 806 147
L 806 147
L 806 147
L 806 147
L 806 147
L 806 147
L 806 147
L 806 147
L 806 147
L 806 147
L 806 147
L 806 146
L 806 146
L 806 146
L 806 146
L 806 146
L 806 146
L 806 146
L 806 146
L 806 146
L 806 146
L 806 146
L 806 146
L 806 146
L 806 146
L 806 146
L 806 146
L 806 146
L 806 146
L 806 146
L 806 146
L 806 146
L 806 146
L 806 146
L 806 145
L 806 145
L 806 145
L 806 145
L 806 145
L 806 145
L 806 145
L 806 145
L 806 145
L 806 145
L 806 145
L 806 145
L 806 145
L 806 145
L 806 145
L 806 145
L 806 145
L 806 145
L 806 145
L 806 145
L 806 145
L 806 145
L 806 145
L 806 145
L 806 144
L 806 144
L 806 144
L 806 144
L 806 144
L 806 144
L 806 144
L 806 144
L 806 144
L 806 144
L 806 144
L 806 144
L 806 144
L 806 144
L 806 144
L 806 144
L 806 144
L 806 144
L 806 144
L 806 144
L 806 144
L 806 144
L 806 144
L 806 143
L 806 143
L 806 143
L 806 143
L 806 143
L 806 143
L 806 143
L 806 143
L 806 143
L 806 143
L 806 143
L 806 143
L 806 143
L 806 143
L 806 143
L 806 143
L 806 143
L 806 143
L 806 143
L 806 143
L 806 143
L 806 143
L 806 143
L 806 143
L 806 142
L 806 142
L 806 142
L 806 142
L 806 142
L 806 142
L 806 142
L 806 142
L 806 142
L 806 142
L 806 142
L 806 142
L 806 142
L 806 142
L 806 142
L 806 142
L 806 142
L 806 142
L 806 142
L 806 142
L 806 142
L 806 142
L 806 142
L 806 141
L 806 141
L 806 141
L 806 141
L 806 141
L 806 141
L 806 141
L 806 141
L 806 141
L 806 141
L 806 141
L 806 141
L 806 141
L 806 141
L 806 141
L 806 141
L 806 141
L 806 141
L 806 141
L 806 141
L 806 141
L 806 141
L 806 141
L 806 141
L 806 140
L 806 140
L 806 140
L 807 140
L 807 140
L 807 140
L 807 140
L 807 140
L 807 140
L 807 140
L 807 140
L 807 140
L 807 140
L 807 140
L 807 140
L 807 140
L 807 140
L 807 140
L 807 140
L 807 140
L 807 140
L 807 140
L 807 140
L 807 139
L 807 139
L 807 139
L 807 139
L 807 139
L 807 139
L 807 139
L 807 139
L 807 139
L 807 139
L 807 139
L 807 139
L 807 139
L 807 139
L 807 139
L 807 139
L 807 139
L 807 139
L 807 139
L 807 139
L 807 139
L 807 139
L 807 139
L 807 139
L 807 138
L 807 138
L 807 138
L 807 138
L 807 138
L 807 138
L 807 138
L 807 138
L 807 138
L 807 138
L 807 138
L 807 138
L 807 138
L 807 138
L 807 138
L 807 138
L 807 138
L 807 138
L 807 138
L 807 138
L 807 138
L 807 138
L 807 138
L 807 137
L 807 137
L 807 137
L 807 137
L 807 137
L 807 137
L 807 137
L 807 137
L 807 137
L 807 137
L 807 137
L 807 137
L 807 137
L 807 137
L 807 137
L 807 137
L 807 137
L 807 137
L 807 137
L 807 137
L 807 137
L 807 137
L 807 137
L 807 137
L 807 136
L 807 136
L 807 136
L 807 136
L 807 136
L 807 136
L 807 136
L 807 136
L 807 136
L 807 136
L 807 136
L 807 136
L 807 136
L 807 136
L 807 136
L 807 136
L 807 136
L 807 136
L 807 136
L 807 136
L 807 136
L 807 136
L 807 136
L 807 135
L 807 135
L 807 135
L 807 135
L 807 135
L 807 135
L 807 135
L 807 135
L 807 135
L 807 135
L 807 135
L 807 135
L 807 135
L 807 135
L 807 135
L 807 135
L 807 135
L 807 135
L 807 135
L 807 135
L 807 135
L 807 135
L 807 135
L 807 135
L 807 134
L 807 134
L 807 134
L 807 134
L 807 134
L 807 134
L 807 134
L 807 134
L 807 134
L 807 134
L 807 134
L 807 134
L 807 134
L 807 134
L 807 134
L 807 134
L 807 134
L 807 134
L 807 134
L 807 134
L 807 134
L 807 134
L 807 134
L 807 133
L 807 133
L 807 133
L 807 133
L 807 133
L 807 133
L 807 133
L 807 133
L 807 133
L 807 133
L 807 133
L 807 133
L 807 133
L 807 133
L 807 133
L 807 133
L 807 133
L 807 133
L 807 133
L 807 133
L 807 133
L 807 133
L 807 133
L 807 133
L 807 132
L 807 132
L 807 132
L 807 132
L 807 132
L 807 132
L 807 132
L 807 132
L 807 132
L 807 132
L 807 132
L 807 132
L 807 132
L 808 132
L 808 132
L 808 132
L 808 132
L 808 132
L 808 132
L 808 132
L 808 132
L 808 132
L 808 132
L 808 131
L 808 131
L 808 131
L 808 131
L 808 131
L 808 131
L 808 131
L 808 131
L 808 131
L 808 131
L 808 131
L 808 131
L 808 131
L 808 131
L 808 131
L 808 131
L 808 131
L 808 131
L 808 131
L 808 131
L 808 131
L 808 131
L 808 131
L 808 131
L 808 130
L 808 130
L 808 130
L 808 130
L 808 130
L 808 130
L 808 130
L 808 130
L 808 130
L 808 130
L 808 130
L 808 130
L 808 130
L 808 130
L 808 130
L 808 130
L 808 130
L 808 130
L 808 130
L 808 130
L 808 130
L 808 130
L 808 130
L 808 130
L 808 129
L 808 129
L 808 129
L 808 129
L 808 129
L 808 129
L 808 129
L 808 129
L 808 129
L 808 129
L 808 129
L 808 129
L 808 129
L 808 129
L 808 129
L 808 129
L 808 129
L 808 129
L 808 129
L 809 129
L 809 129
L 809 129
L 809 129
L 809 128
L 809 128
L 809 128
L 809 128
L 809 128
L 809 128
L 809 128
L 809 128
L 809 128
L 809 128
L 809 128
L 809 128
L 809 128
L 809 128
L 809 128
L 809 128
L 809 128
L 809 128
L 809 128
L 809 128
L 809 128
L 809 128
L 809 128
L 809 128
L 809 127
L 809 127
L 809 127
L 809 127
L 809 127
L 809 127
L 809 127
L 809 127
L 809 127
L 809 127
L 809 127
L 809 127
L 809 127
L 809 127
L 809 127
L 809 127
L 809 127
L 809 127
L 809 127
L 809 127
L 809 127
L 809 127
L 809 127
L 809 126
L 809 126
L 809 126
L 809 126
L 809 126
L 809 126
L 809 126
L 809 126
L 809 126
L 809 126
L 809 126
L 809 126
L 809 126
L 809 126
L 809 126
L 809 126
L 809 126
L 809 126
L 809 126
L 809 126
L 809 126
L 809 126
L 809 126
L 809 126
L 809 125
L 809 125
L 809 125
L 809 125
L 809 125
L 809 125
L 809 125
L 809 125
L 809 125
L 809 125
L 809 125
L 809 125
L 809 125
L 809 125
L 809 125
L 810 125
L 810 125
L 810 125
L 810 125
L 810 125
L 810 125
L 810 125
L 810 125
L 810 124
L 810 124
L 810 124
L 810 124
L 810 124
L 810 124
L 810 124
L 810 124
L 810 124
L 810 124
L 810 124
L 810 124
L 810 124
L 810 124
L 810 124
L 810 124
L 810 124
L 810 124
L 810 124
L 810 124
L 810 124
L 810 124
L 810 124
L 810 124
L 810 123
L 810 123
L 810 123
L 810 123
L 810 123
L 810 123
L 810 123
L 810 123
L 810 123
L 810 123
L 810 123
L 810 123
L 810 123
L 810 123
L 810 123
L 810 123
L 811 123
L 811 123
L 811 123
L 811 123
L 811 123
L 811 123
L 811 123
L 811 122
L 811 122
L 811 122
L 811 122
L 811 122
L 811 122
L 811 122
L 811 122
L 811 122
L 811 122
L 811 122
L 811 122
L 811 122
L 811 122
L 811 122
L 811 122
L 811 122
L 811 122
L 811 122
L 811 122
L 811 122
L 811 122
L 811 122
L 811 122
L 811 121
L 811 121
L 811 121
L 811 121
L 811 121
L 811 121
L 811 121
L 811 121
L 811 121
L 811 121
L 811 121
L 811 121
L 811 121
L 811 121
L 811 121
L 811 121
L 811 121
L 811 121
L 811 121
L 812 121
L 812 121
L 812 121
L 812 121
L 812 120
L 812 120
L 812 120
L 812 120
L 812 120
L 812 120
L 812 120
L 812 120
L 812 120
L 812 120
L 812 120
L 812 120
L 812 120
L 812 120
L 812 120
L 812 120
L 812 120
L 812 120
L 812 120
L 813 120
L 813 120
L 813 120
L 813 120
L 813 120
L 813 119
L 813 119
L 813 119
L 813 119
L 813 119
L 813 119
L 813 119
L 813 119
L 813 119
L 813 119
L 813 119
L 813 119
L 813 119
L 813 119
L 814 119
L 814 119
L 814 119
L 814 119
L 814 119
L 814 119
L 814 119
L 814 119
L 814 119
L 814 118
L 814 118
L 814 118
L 814 118
L 814 118
L 814 118
L 814 118
L 814 118
L 814 118
L 814 118
L 814 118
L 814 118
L 814 118
L 814 118
L 814 118
L 814 118
L 814 118
L 814 118
L 814 118
L 814 118
L 814 118
L 814 118
L 814 118
L 815 118
L 815 117
L 815 117
L 815 117
L 815 117
L 815 117
L 815 117
L 815 117
L 815 117
L 815 117
L 815 117
L 815 117
L 815 117
L 815 117
L 815 117
L 815 117
L 815 117
L 815 117
L 815 117
L 815 117
L 815 117
L 815 117
L 815 117
L 815 117
L 815 116
L 816 116
L 816 116
L 816 116
L 816 116
L 816 116
L 816 116
L 816 116
L 816 116
L 816 116
L 816 116
L 816 116
L 816 116
L 816 116
L 816 116
L 816 116
L 816 116
L 816 116
L 816 116
L 816 116
L 816 116
L 816 116
L 816 116
L 816 116
L 816 115
L 816 115
L 817 115
L 817 115
L 817 115
L 817 115
L 817 115
L 817 115
L 817 115
L 817 115
L 817 115
L 817 115
L 817 115
L 817 115
L 817 115
L 817 115
L 817 115
L 817 115
L 817 115
L 817 115
L 817 115
L 817 115
L 817 115
L 817 114
L 817 114
L 817 114
L 818 114
L 818 114
L 818 114
L 818 114
L 818 114
L 818 114
L 818 114
L 818 114
L 818 114
L 818 114
L 818 114
L 818 114
L 819 114
L 819 114
L 819 114
L 819 114
L 819 114
L 819 114
L 819 114
L 819 114
L 819 114
L 819 113
L 819 113
L 819 113
L 819 113
L 819 113
L 819 113
L 819 113
L 820 113
L 820 113
L 820 113
L 820 113
L 820 113
L 820 113
L 820 113
L 820 113
L 820 113
L 820 113
L 820 113
L 820 113
L 820 113
L 820 113
L 820 113
L 820 113
L 820 113
L 820 112
L 820 112
L 820 112
L 820 112
L 820 112
L 820 112
L 820 112
L 820 112
L 820 112
L 820 112
L 820 112
L 821 112
L 821 112
L 821 112
L 821 112
L 821 112
L 821 112
L 821 112
L 821 112
L 821 112
L 821 112
L 821 112
L 821 112
L 821 111
L 821 111
L 821 111
L 821 111
L 821 111
L 821 111
L 821 111
L 821 111
L 821 111
L 821 111
L 821 111
L 821 111
L 821 111
L 821 111
L 821 111
L 821 111
L 821 111
L 821 111
L 821 111
L 821 111
L 821 111
L 821 111
L 822 111
L 822 111
L 822 110
L 822 110
L 822 110
L 822 110
L 822 110
L 822 110
L 822 110
L 822 110
L 822 110
L 822 110
L 822 110
L 822 110
L 822 110
L 822 110
L 822 110
L 822 110
L 822 110
L 822 110
L 822 110
L 822 110
L 822 110
L 822 110
L 822 110
L 822 109
L 822 109
L 822 109
L 822 109
L 822 109
L 822 109
L 822 109
L 822 109
L 822 109
L 822 109
L 822 109
L 822 109
L 822 109
L 822 109
L 822 109
L 822 109
L 822 109
L 822 109
L 822 109
L 822 109
L 822 109
L 822 109
L 822 109
L 822 109
L 822 108
L 822 108
L 822 108
L 822 108
L 822 108
L 822 108
L 822 108
L 822 108
L 822 108
L 822 108
L 822 108
L 822 108
L 823 108
L 823 108
L 823 108
L 823 108
L 823 108
L 823 108
L 823 108
L 823 108
L 823 108
L 823 108
L 823 108
L 823 107
L 823 107
L 823 107
L 823 107
L 823 107
L 823 107
L 823 107
L 823 107
L 823 107
L 823 107
L 823 107
L 823 107
L 823 107
L 823 107
L 823 107
L 823 107
L 823 107
L 823 107
L 823 107
L 823 107
L 823 107
L 823 107
L 823 107
L 823 107
L 823 106
L 823 106
L 824 106
L 824 106
L 824 106
L 824 106
L 824 106
L 824 106
L 824 106
L 824 106
L 824 106
L 824 106
L 824 106
L 824 106
L 824 106
L 824 106
L 825 106
L 825 106
L 825 106
L 825 106
L 825 106
L 825 106
L 825 106
L 825 105
L 825 105
L 825 105
L 825 105
L 825 105
L 825 105
L 825 105
L 825 105
L 825 105
L 825 105
L 825 105
L 825 105
L 825 105
L 825 105
L 825 105
L 825 105
L 825 105
L 825 105
L 825 105
L 825 105
L 825 105
L 825 105
L 825 105
L 825 105
L 825 104
L 825 104
L 825 104
L 825 104
L 825 104
L 825 104
L 825 104
L 825 104
L 825 104
L 826 104
L 826 104
L 826 104
L 826 104
L 826 104
L 826 104
L 826 104
L 826 104
L 826 104
L 826 104
L 826 104
L 826 104
L 826 104
L 826 104
L 826 103
L 826 103
L 826 103
L 826 103
L 826 103
L 826 103
L 826 103
L 826 103
L 826 103
L 826 103
L 826 103
L 826 103
L 826 103
L 826 103
L 826 103
L 826 103
L 826 103
L 826 103
L 826 103
L 826 103
L 827 103
L 827 103
L 827 103
L 827 103
L 827 102
L 827 102
L 827 102
L 827 102
L 827 102
L 827 102
L 827 102
L 827 102
L 827 102
L 827 102
L 827 102
L 827 102
L 827 102
L 827 102
L 827 102
L 827 102
L 827 102
L 828 102
L 828 102
L 828 102
L 828 102
L 828 102
L 828 102
L 828 101
L 828 101
L 828 101
L 828 101
L 828 101
L 828 101
L 828 101
L 829 101
L 829 101
L 829 101
L 829 101
L 829 101
L 829 101
L 830 101
L 830 101
L 830 101
L 830 101
L 830 101
L 830 101
L 830 101
L 830 101
L 831 101
L 831 101
L 831 101
L 831 100
L 831 100
L 831 100
L 831 100
L 831 100
L 831 100
L 831 100
L 831 100
L 831 100
L 831 100
L 831 100
L 831 100
L 832 100
L 832 100
L 832 100
L 832 100
L 832 100
L 832 100
L 832 100
L 832 100
L 832 100
L 832 100
L 832 100
L 833 99
L 833 99
L 833 99
L 833 99
L 833 99
L 833 99
L 833 99
L 833 99
L 833 99
L 833 99
L 833 99
L 833 99
L 833 99
L 833 99
L 833 99
L 834 99
L 834 99
L 834 99
L 834 99
L 834 99
L 834 99
L 834 99
L 835 99
L 835 99
L 835 98
L 835 98
L 835 98
L 835 98
L 835 98
L 835 98
L 835 98
L 836 98
L 836 98
L 836 98
L 836 98
L 836 98
L 836 98
L 836 98
L 836 98
L 836 98
L 836 98
L 836 98
L 837 98
L 837 98
L 837 98
L 837 98
L 837 98
L 837 97
L 837 97
L 837 97
L 837 97
L 837 97
L 837 97
L 837 97
L 838 97
L 838 97
L 838 97
L 838 97
L 838 97
L 838 97
L 838 97
L 838 97
L 838 97
L 838 97
L 838 97
L 838 97
L 838 97
L 839 97
L 839 97
L 839 97
L 839 97
L 839 96
L 839 96
L 839 96
L 839 96
L 839 96
L 839 96
L 839 96
L 839 96
L 839 96
L 839 96
L 839 96
L 839 96
L 840 96
L 840 96
L 840 96
L 840 96
L 840 96
L 840 96
L 840 96
L 841 96
L 841 96
L 841 96
L 841 96
L 841 96
L 841 95
L 841 95
L 841 95
L 841 95
L 841 95
L 842 95
L 842 95
L 842 95
L 842 95
L 842 95
L 842 95
L 842 95
L 842 95
L 842 95
L 842 95
L 842 95
L 842 95
L 842 95
L 842 95
L 842 95
L 842 95
L 842 95
L 843 95
L 843 94
L 843 94
L 843 94
L 843 94
L 843 94
L 843 94
L 843 94
L 843 94
L 843 94
L 843 94
L 843 94
L 844 94
L 844 94
L 844 94
L 844 94
L 844 94
L 844 94
L 844 94
L 844 94
L 845 94
L 845 94
L 845 94
L 845 94
L 845 94
L 845 93
L 845 93
L 845 93
L 845 93
L 845 93
L 846 93
L 846 93
L 846 93
L 846 93
L 846 93
L 846 93
L 846 93
L 846 93
L 847 93
L 847 93
L 847 93
L 847 93
L 847 93
L 847 93
L 847 93
L 847 93
L 847 93
L 847 93
L 847 92
L 847 92
L 847 92
L 847 92
L 847 92
L 847 92
L 847 92
L 847 92
L 847 92
L 848 92
L 848 92
L 848 92
L 848 92
L 848 92
L 848 92
L 848 92
L 848 92
L 848 92
L 848 92
L 848 92
L 848 92
L 848 92
L 848 92
L 848 92
L 848 91
L 848 91
L 848 91
L 848 91
L 848 91
L 848 91
L 848 91
L 848 91
L 848 91
L 848 91
L 848 91
L 848 91
L 848 91
L 848 91
L 848 91
L 848 91
L 848 91
L 848 91
L 848 91
L 848 91
L 849 91
L 849 91
L 849 91
L 849 90
L 849 90
L 849 90
L 849 90
L 849 90
L 849 90
L 849 90
L 849 90
L 849 90
L 849 90
L 849 90
L 849 90
L 849 90
L 849 90
L 849 90
L 849 90
L 849 90
L 849 90
L 849 90
L 849 90
L 849 90
L 849 90
L 849 90
L 849 90
L 849 89
L 849 89
L 849 89
L 849 89
L 849 89
L 850 89
L 850 89
L 850 89
L 850 89
L 850 89
L 850 89
L 850 89
L 850 89
L 850 89
L 850 89
L 850 89
L 850 89
L 850 89
L 851 89
L 851 89
L 851 89
L 851 89
L 851 89
L 851 88
L 851 88
L 851 88
L 851 88
L 852 88
L 852 88
L 852 88
L 852 88
L 852 88
L 852 88
L 852 88
L 852 88
L 852 88
L 852 88
L 852 88
L 852 88
L 852 88
L 852 88
L 852 88
L 853 88
L 853 88
L 853 88
L 853 88
L 853 88
L 853 87
L 853 87
L 853 87
L 853 87
L 853 87
L 853 87
L 853 87
L 853 87
L 853 87
L 853 87
L 854 87
L 854 87
L 854 87
L 854 87
L 854 87
L 854 87
L 854 87
L 854 87
L 854 87
L 855 87
L 855 87
L 855 87
L 855 87
L 855 86
L 855 86
L 855 86
L 855 86
L 855 86
L 855 86
L 855 86
L 855 86
L 855 86
L 855 86
L 855 86
L 855 86
L 855 86
L 855 86
L 855 86
L 856 86
L 856 86
L 856 86
L 856 86
L 856 86
L 856 86
L 856 86
L 856 86
L 856 86
L 856 85
L 856 85
L 857 85
L 857 85
L 857 85
L 857 85
L 857 85
L 857 85
L 857 85
L 857 85
L 858 85
L 858 85
L 858 85
L 858 85
L 858 85
L 858 85
L 858 85
L 858 85
L 858 85
L 859 85
L 859 85
L 859 85
L 859 85
L 859 84
L 859 84
L 859 84
L 859 84
L 859 84
L 859 84
L 859 84
L 859 84
L 859 84
L 859 84
L 859 84
L 859 84
L 860 84
L 860 84
L 860 84
L 860 84
L 860 84
L 860 84
L 860 84
L 860 84
L 860 84
L 860 84
L 860 84
L 860 84
L 861 83
L 861 83
L 861 83
L 861 83
L 861 83
L 861 83
L 861 83
L 861 83
L 861 83
L 861 83
L 862 83
L 862 83
L 862 83
L 862 83
L 862 83
L 862 83
L 862 83
L 862 83
L 862 83
L 862 83
L 863 83
L 863 83
L 863 83
L 863 82
L 863 82
L 863 82
L 863 82
L 863 82
L 863 82
L 863 82
L 863 82
L 863 82
L 863 82
L 863 82
L 863 82
L 863 82
L 863 82
L 863 82
L 864 82
L 864 82
L 864 82
L 864 82
L 864 82
L 864 82
L 864 82
L 864 82
L 864 82
L 864 81
L 864 81
L 864 81
L 864 81
L 864 81
L 864 81
L 864 81
L 864 81
L 864 81
L 865 81
L 865 81
L 865 81
L 865 81
L 865 81
L 865 81
L 865 81
L 865 81
L 866 81
L 866 81
L 866 81
L 866 81
L 866 81
L 866 81
L 866 80
L 866 80
L 866 80
L 866 80
L 866 80
L 867 80
L 867 80
L 867 80
L 867 80
L 867 80
L 867 80
L 867 80
L 867 80
L 867 80
L 868 80
L 868 80
L 868 80
L 868 80
L 868 80
L 868 80
L 868 80
L 868 80
L 868 80
L 868 80
L 869 79
L 869 79
L 869 79
L 869 79
L 869 79
L 869 79
L 869 79
L 869 79
L 869 79
L 870 79
L 870 79
L 870 79
L 870 79
L 870 79
L 870 79
L 870 79
L 870 79
L 870 79
L 870 79
L 870 79
L 870 79
L 870 79
L 870 79
L 870 79
L 870 78
L 871 78
L 871 78
L 871 78
L 871 78
L 871 78
L 871 78
L 871 78
L 871 78
L 871 78
L 871 78
L 871 78
L 871 78
L 871 78
L 871 78
L 871 78
L 872 78
L 872 78
L 872 78
L 872 78
L 872 78
L 872 78
L 872 78
L 873 77
L 873 77
L 873 77
L 873 77
L 873 77
L 873 77
L 874 77
L 874 77
L 874 77
L 874 77
L 874 77
L 874 77
L 874 77
L 874 77
L 874 77
L 874 77
L 874 77
L 874 77
L 874 77
L 874 77
L 874 77
L 874 77
L 875 77
L 875 77
L 875 76
L 875 76
L 875 76
L 875 76
L 875 76
L 875 76
L 875 76
L 875 76
L 875 76
L 875 76
L 876 76
L 876 76
L 876 76
L 876 76
L 876 76
L 876 76
L 876 76
L 876 76
L 876 76
L 876 76
L 876 76
L 876 76
L 876 76
L 876 75
L 876 75
L 876 75
L 876 75
L 876 75
L 876 75
L 876 75
L 876 75
L 876 75
L 876 75
L 876 75
L 876 75
L 876 75
L 876 75
L 876 75
L 876 75
L 876 75
L 876 75
L 876 75
L 876 75
L 876 75
L 876 75
L 876 75
L 876 75
L 876 74
L 876 74
L 876 74
L 876 74
L 876 74
L 876 74
L 876 74
L 876 74
L 876 74
L 876 74
L 877 74
L 877 74
L 877 74
L 877 74
L 877 74
L 877 74
L 877 74
L 877 74
L 877 74
L 877 74
L 877 74
L 877 74
L 877 74
L 877 73
L 877 73
L 877 73
L 877 73
L 877 73
L 877 73
L 877 73
L 877 73
L 877 73
L 877 73
L 877 73
L 877 73
L 877 73
L 877 73
L 877 73
L 877 73
L 877 73
L 877 73
L 877 73
L 877 73
L 877 73
L 877 73
L 878 73
L 878 73
L 878 72
L 878 72
L 878 72
L 878 72
L 878 72
L 878 72
L 878 72
L 878 72
L 878 72
L 878 72
L 878 72
L 878 72
L 878 72
L 878 72
L 878 72
L 878 72
L 878 72
L 878 72
L 878 72
L 878 72
L 878 72
L 878 72
L 878 72
L 878 71
L 879 71
L 879 71
L 879 71
L 879 71
L 879 71
L 879 71
L 879 71
L 879 71
L 879 71
L 879 71
L 879 71
L 879 71
L 879 71
L 879 71
L 879 71
L 879 71
L 879 71
L 880 71
L 880 71
L 880 71
L 880 71
L 880 71
L 880 71
L 880 70
L 880 70
L 880 70
L 880 70
L 880 70
L 880 70
L 880 70
L 880 70
L 880 70
L 880 70
L 880 70
L 880 70
L 880 70
L 880 70
L 880 70
L 880 70
L 880 70
L 880 70
L 880 70
L 880 70
L 880 70
L 880 70
L 880 70
L 880 69
L 880 69
L 880 69
L 880 69
L 880 69
L 880 69
L 881 69
L 881 69
L 881 69
L 881 69
L 881 69
L 881 69
L 881 69
L 881 69
L 881 69
L 881 69
L 881 69
L 881 69
L 881 69
L 881 69
L 881 69
L 881 69
L 881 69
L 881 69
L 881 68
L 881 68
L 881 68
L 881 68
L 881 68
L 881 68
L 881 68
L 881 68
L 881 68
L 881 68
L 881 68
L 881 68
L 881 68
L 881 68
L 881 68
L 881 68
L 881 68
L 881 68
L 881 68
L 881 68
L 881 68
L 881 68
L 881 68
L 881 67
L 881 67
L 881 67
L 881 67
L 881 67
L 881 67
L 881 67
L 881 67
L 881 67
L 881 67
L 881 67
L 881 67
L 881 67
L 881 67
L 881 67
L 881 67
L 881 67
L 881 67
L 881 67
L 881 67
L 881 67
L 881 67
L 881 67
L 881 67
L 881 66
L 881 66
L 881 66
L 881 66
L 881 66
L 882 66
L 882 66
L 882 66
L 882 66
L 882 66
L 882 66
L 882 66
L 882 66
L 882 66
L 882 66
L 882 66
L 882 66
L 882 66
L 882 66
L 882 66
L 882 66
L 882 66
L 882 66
L 882 65
L 882 65
L 882 65
L 882 65
L 882 65
L 882 65
L 882 65
L 882 65
L 882 65
L 882 65
L 882 65
L 882 65
L 882 65
L 882 65
L 882 65
L 882 65
L 882 65
L 882 65
L 882 65
L 882 65
L 882 65
L 882 65
L 882 65
L 882 65
L 882 64
L 882 64
L 882 64
L 882 64
L 882 64
L 882 64
L 882 64
L 882 64
L 882 64
L 882 64
L 882 64
L 882 64
L 882 64
L 882 64
L 883 64
L 883 64
L 883 64
L 883 64
L 883 64
L 883 64
L 883 64
L 883 64
L 883 64
L 883 63
L 883 63
L 883 63
L 883 63
L 883 63
L 883 63
L 883 63
L 883 63
L 883 63
L 883 63
L 883 63
L 883 63
L 883 63
L 883 63
L 883 63
L 883 63
L 883 63
L 883 63
L 883 63
L 883 63
L 883 63
L 883 63
L 883 63
L 883 63
L 883 62
L 883 62
L 883 62
L 883 62
L 883 62
L 883 62
L 883 62
L 883 62
L 883 62
L 883 62
L 883 62
L 883 62
L 883 62
L 883 62
L 883 62
L 883 62
L 883 62
L 883 62
L 883 62
L 883 62
L 883 62
L 884 62
L 884 62
L 884 62
L 884 61
L 884 61
L 884 61
L 884 61
L 884 61
L 884 61
L 884 61
L 884 61
L 884 61
L 884 61
L 884 61
L 884 61
L 884 61
L 884 61
L 884 61
L 884 61
L 884 61
L 884 61
L 884 61
L 885 61
L 885 61
L 885 61
L 885 61
L 885 60
L 885 60
L 885 60
L 885 60
L 885 60
L 885 60
L 885 60
L 885 60
L 885 60
L 885 60
L 885 60
L 885 60
L 885 60
L 885 60
L 885 60
L 885 60
L 885 60
L 885 60
L 885 60
L 885 60
L 885 60
L 885 60
L 885 60
L 885 60
L 885 59
L 885 59
L 885 59
L 885 59
L 885 59
L 885 59
L 886 59
L 886 59
L 886 59
L 886 59
L 886 59
L 886 59
L 886 59
L 886 59
L 886 59
L 886 59
L 886 59
L 886 59
L 886 59
L 886 59
L 886 59
L 886 59
L 886 59
L 886 58
L 886 58
L 886 58
L 886 58
L 886 58
L 886 58
L 886 58
L 886 58
L 886 58
L 887 58
L 887 58
L 887 58
L 887 58
L 887 58
L 887 58
L 887 58
L 887 58
L 887 58
L 887 58
L 887 58
L 887 58
L 887 58
L 887 58
L 887 58
L 887 57
L 888 57
L 888 57
L 888 57
L 888 57
L 888 57
L 888 57
L 888 57
L 888 57
L 888 57
L 888 57
L 888 57
L 888 57
L 889 57
L 889 57
L 889 57
L 889 57
L 889 57
L 889 57
L 889 57
L 889 57
L 889 57
L 889 57
L 889 56
L 889 56
L 889 56
L 889 56
L 889 56
L 889 56
L 890 56
L 890 56
L 890 56
L 890 56
L 890 56
L 890 56
L 890 56
L 890 56
L 891 56
L 891 56
L 891 56
L 891 56
L 891 56
L 891 56
L 891 56
L 891 56
L 891 56
L 891 56
L 891 55
L 891 55
L 891 55
L 891 55
L 891 55
L 891 55
L 891 55
L 891 55
L 891 55
L 891 55
L 891 55
L 891 55
L 891 55
L 891 55
L 891 55
L 891 55
L 891 55
L 891 55
L 891 55
L 891 55
L 892 55
L 892 55
L 892 55
L 892 54
L 892 54
L 892 54
L 892 54
L 892 54
L 892 54
L 892 54
L 892 54
L 892 54
L 892 54
L 892 54
L 892 54
L 892 54
L 892 54
L 892 54
L 892 54
L 892 54
L 892 54
L 892 54
L 892 54
L 892 54
L 892 54
L 892 54
L 892 54
L 893 53
L 893 53
L 893 53
L 893 53
L 893 53
L 893 53
L 893 53
L 893 53
L 893 53
L 893 53
L 893 53
L 893 53
L 893 53
L 893 53
L 893 53
L 893 53
L 893 53
L 893 53
L 893 53
L 893 53
L 893 53
L 893 53
L 893 53
L 893 52
L 893 52
L 893 52
L 893 52
L 893 52
L 893 52
L 894 52
L 894 52
L 894 52
L 894 52
L 894 52
L 894 52
L 894 52
L 894 52
L 894 52
L 894 52
L 894 52
L 894 52
L 894 52
L 894 52
L 894 52
L 894 52
L 894 52
L 894 52
L 895 51
L 895 51
L 895 51
L 895 51
L 895 51
L 895 51
L 895 51
L 895 51
L 895 51
L 895 51
L 895 51
L 895 51
L 895 51
L 895 51
L 895 51
L 895 51
L 895 51
L 895 51
L 895 51
L 895 51
L 895 51
L 895 51
L 895 51
L 895 50
L 895 50
L 895 50
L 895 50
L 895 50
L 896 50
L 896 50
L 896 50
L 896 50
L 896 50
L 896 50
L 896 50
L 896 50
L 896 50
L 896 50
L 896 50
L 897 50
L 897 50
L 897 50
L 897 50
L 897 50
L 897 50
L 897 50
L 897 50
L 897 49
L 898 49
L 898 49
L 898 49
L 898 49
L 898 49
L 898 49
L 898 49
L 898 49
L 898 49
L 898 49
L 898 49
L 898 49
L 898 49
L 898 49
L 898 49
L 898 49
L 898 49
L 898 49
L 898 49
L 899 49
L 899 49
L 899 49
L 899 48
L 899 48
L 899 48
L 899 48
L 899 48
L 899 48
L 899 48
L 899 48
L 899 48
L 899 48
L 899 48
L 899 48
L 899 48
L 899 48
L 899 48
L 899 48
L 899 48
L 899 48
L 899 48
L 899 48
L 899 48
L 899 48
L 899 48
L 899 48
L 899 47
L 899 47
L 899 47
L 899 47
L 899 47
L 899 47
L 899 47
L 899 47
L 899 47
L 900 47
L 900 47
L 900 47
L 900 47
L 900 47
L 900 47
L 900 47
L 900 47
L 900 47
L 900 47
L 900 47
L 900 47
L 900 47
L 900 47
L 900 46
L 900 46
L 900 46
L 901 46
L 901 46
L 901 46
L 901 46
L 901 46
L 901 46
L 901 46
L 901 46
L 901 46
L 901 46
L 901 46
L 901 46
L 901 46
L 902 46
L 902 46
L 902 46
L 902 46
L 902 46
L 902 46
L 902 46
L 902 46
L 902 45
L 902 45
L 902 45
L 903 45
L 903 45
L 903 45
L 903 45
L 903 45
L 903 45
L 903 45
L 903 45
L 903 45
L 903 45
L 903 45
L 903 45
L 903 45
L 903 45
L 903 45
L 903 45
L 903 45
L 903 45
L 904 45
L 904 45
L 904 45
L 904 44
L 904 44
L 904 44
L 904 44
L 904 44
L 904 44
L 904 44
L 904 44
L 904 44
L 904 44
L 904 44
L 905 44
L 905 44
L 905 44
L 905 44
L 905 44
L 905 44
L 905 44
L 906 44
L 906 44
L 906 44
L 906 44
L 906 44
L 906 43
L 906 43
L 907 43
L 907 43
L 907 43
L 907 43
L 907 43
L 907 43
L 907 43
L 907 43
L 907 43
L 907 43
L 907 43
L 907 43
L 907 43
L 907 43
L 908 43
L 909 43
L 909 43
L 909 43
L 909 43
L 909 43
L 909 43
L 909 43
L 909 42
L 909 42
L 910 42
L 910 42
L 910 42
L 910 42
L 910 42
L 910 42
L 910 42
L 910 42
L 910 42
L 910 42
L 911 42
L 911 42
L 911 42
L 911 42
L 911 42
L 912 42
L 912 42
L 912 42
L 912 42
L 912 42
L 912 42
L 912 41
L 912 41
L 912 41
L 913 41
L 913 41
L 913 41
L 913 41
L 913 41
L 913 41
L 913 41
L 913 41
L 913 41
L 913 41
L 914 41
L 914 41
L 914 41
L 914 41
L 914 41
L 914 41
L 914 41
L 914 41
L 914 41
L 914 41
L 914 41
L 914 40
L 914 40
L 914 40
L 914 40
L 914 40
L 914 40
L 914 40
L 914 40
L 914 40
L 914 40
L 914 40
L 915 40
L 915 40
L 915 40
L 915 40
L 915 40
L 915 40
L 915 40
L 915 40
L 915 40
L 915 40
L 915 40
L 915 40
L 915 39
L 915 39
L 915 39
L 915 39
L 915 39
L 915 39
L 915 39
L 915 39
L 915 39
L 915 39
L 915 39
L 915 39
L 915 39
L 915 39
L 915 39
L 915 39
L 915 39
L 915 39
L 915 39
L 915 39
L 916 39
L 916 39
L 916 39
L 916 39
L 916 38
L 916 38
L 916 38
L 916 38
L 916 38
L 916 38
L 916 38
L 916 38
L 916 38
L 917 38
L 917 38
L 917 38
L 918 38
L 918 38
L 918 38
L 918 38
L 918 38
L 918 38
L 918 38
L 918 38
L 918 38
L 918 38
L 919 38
L 919 37
L 919 37
L 919 37
L 919 37
L 919 37
L 919 37
L 919 37
L 919 37
L 919 37
L 919 37
L 919 37
L 920 37
L 920 37
L 920 37
L 920 37
L 920 37
L 920 37
L 920 37
L 921 37
L 921 37
L 921 37
L 921 37
L 921 37
L 921 37
L 921 36
L 921 36
L 921 36
L 921 36
L 921 36
L 922 36
L 922 36
L 922 36
L 922 36
L 922 36
L 922 36
L 922 36
L 922 36
L 923 36
L 923 36
L 923 36
L 923 36
L 923 36
L 924 36
L 924 36
L 924 36
L 924 36
L 924 36
L 924 35
L 924 35
L 924 35
L 924 35
L 924 35
L 925 35
L 925 35
L 925 35
L 925 35
L 925 35
L 925 35
L 925 35
L 925 35
L 925 35
L 925 35
L 925 35
L 925 35
L 925 35
L 925 35
L 925 35
L 925 35
L 925 35
L 925 35
L 925 35
L 925 34
L 925 34
L 925 34
L 925 34
L 926 34
L 926 34
L 926 34
L 926 34
L 926 34
L 926 34
L 926 34
L 926 34
L 926 34
L 926 34
L 926 34
L 926 34
L 926 34
L 926 34
L 926 34
L 926 34
L 926 34
L 926 34
L 926 34
L 927 33
L 927 33
L 927 33
L 927 33
L 927 33
L 927 33
L 927 33
L 927 33
L 927 33
L 927 33
L 927 33
L 927 33
L 927 33
L 927 33
L 928 33
L 928 33
L 928 33
L 928 33
L 928 33
L 928 33
L 928 33
L 928 33
L 928 33
L 928 33
L 929 32
L 929 32
L 929 32
L 929 32
L 929 32
L 929 32
L 929 32
L 929 32
L 929 32
L 929 32
L 929 32
L 929 32
L 930 32
L 930 32
L 930 32
L 930 32
L 930 32
L 930 32
L 930 32
L 930 32
L 930 32
L 930 32
L 930 32
L 930 31
L 930 31
L 930 31
L 930 31
L 930 31
L 930 31
L 931 31
L 931 31
L 931 31
L 931 31
L 931 31
L 931 31
L 931 31
L 931 31
L 931 31
L 931 31
L 932 31
L 932 31
L 932 31
L 932 31
L 932 31
L 932 31
L 932 31
L 932 31
L 932 30
L 932 30
L 932 30
L 933 30
L 933 30
L 933 30
L 933 30
L 933 30
L 933 30
L 933 30
L 933 30
L 933 30
L 933 30
L 933 30
L 933 30
L 934 30
L 934 30
L 934 30
L 934 30
L 934 30
L 934 30
L 934 30
L 934 30
L 935 29
L 935 29
L 935 29
L 935 29
L 935 29
L 935 29
L 935 29
L 936 29
L 936 29
L 936 29
L 936 29
L 936 29
L 936 29
L 936 29
L 936 29
L 937 29
L 937 29
L 937 29
L 937 29
L 937 29
L 937 29
L 937 29
L 938 29
L 938 29
L 938 28
L 938 28
L 938 28
L 938 28
L 938 28
L 938 28
L 938 28
L 939 28
L 939 28
L 939 28
L 939 28
L 939 28
L 940 28
L 940 28
L 940 28
L 940 28
L 940 28
L 940 28
L 940 28
L 941 28
L 941 28
L 941 28
L 941 28
L 941 28
L 941 27
L 941 27
L 941 27
L 941 27
L 941 27
L 941 27
L 941 27
L 942 27
L 942 27
L 942 27
L 942 27
L 942 27
L 942 27
L 942 27
L 942 27
L 942 27
L 942 27
L 942 27
L 942 27
L 943 27
L 943 27
L 943 27
L 943 27
L 943 26
L 943 26
L 943 26
L 943 26
L 943 26
L 943 26
L 943 26
L 943 26
L 943 26
L 943 26
L 943 26
L 943 26
L 943 26
L 943 26
L 943 26
L 943 26
L 944 26
L 944 26
L 944 26
L 944 26
L 944 26
L 944 26
L 944 26
L 944 26
L 945 25
L 945 25
L 945 25
L 945 25
L 945 25
L 945 25
L 945 25
L 945 25
L 945 25
L 946 25
L 946 25
L 946 25
L 946 25
L 946 25
L 946 25
L 946 25
L 946 25
L 946 25
L 946 25
L 946 25
L 946 25
L 947 25
L 947 25
L 947 24
L 947 24
L 947 24
L 947 24
L 947 24
L 947 24
L 947 24
L 947 24
L 947 24
L 947 24
L 947 24
L 947 24
L 948 24
L 948 24
L 948 24
L 948 24
L 948 24
L 949 24
L 949 24
L 949 24
L 950 24
L 950 24
L 950 24
L 951 24
L 951 23
L 951 23
L 951 23
L 951 23
L 951 23
L 951 23
L 951 23
L 952 23
L 952 23
L 952 23
L 952 23
L 952 23
L 952 23
L 952 23
L 952 23
L 952 23
L 952 23
L 952 23
L 953 23
L 953 23
L 953 23
L 953 23
L 953 23
L 953 22
L 953 22
L 953 22
L 953 22
L 953 22
L 953 22
L 953 22
L 954 22
L 954 22
L 954 22
L 954 22
L 954 22
L 954 22
L 954 22
L 954 22
L 954 22
L 954 22
L 954 22
L 954 22
L 954 22
L 954 22
L 954 22
L 954 22
L 954 22
L 954 21
L 954 21
L 954 21
L 954 21
L 954 21
L 954 21
L 954 21
L 954 21
L 954 21
L 954 21
L 954 21
L 954 21
L 954 21
L 955 21
L 955 21
L 955 21
L 955 21
L 955 21
L 955 21
L 955 21
L 955 21
L 955 21
L 955 21
L 955 20
L 955 20
L 955 20
L 955 20
L 955 20
L 955 20
L 955 20
L 955 20
L 955 20
L 955 20
L 955 20
L 955 20
L 955 20
L 956 20
L 956 20
L 956 20
L 956 20
L 956 20
L 956 20
L 956 20
L 956 20
L 956 20
L 956 20
L 956 20
L 956 19
L 956 19
L 956 19
L 956 19
L 956 19
L 956 19
L 956 19
L 956 19
L 956 19
L 956 19
L 956 19
L 956 19
L 956 19
L 956 19
L 956 19
L 957 19
L 957 19
L 957 19
L 957 19
L 957 19
L 957 19
L 957 19
L 957 19
L 957 18
L 957 18
L 957 18
L 957 18
L 957 18
L 957 18
L 957 18
L 957 18
L 957 18
L 957 18
L 957 18
L 957 18
L 957 18
L 957 18
L 957 18
L 957 18
L 957 18
L 957 18
L 957 18
L 957 18
L 957 18
L 957 18
L 957 18
L 957 18
L 957 17
L 957 17
L 957 17
L 957 17
L 957 17
L 957 17
L 957 17
L 957 17
L 957 17
L 957 17
L 957 17
L 957 17
L 957 17
L 957 17
L 957 17
L 957 17
L 957 17
L 957 17
L 957 17
L 957 17
L 957 17
L 957 17
L 957 17
L 957 16
L 957 16
L 957 16
L 957 16
L 957 16
L 957 16
L 957 16
L 957 16
L 957 16
L 957 16
L 957 16
L 957 16
L 957 16
L 957 16
L 957 16
L 957 16
L 957 16
L 957 16
L 957 16
L 957 16
L 957 16
L 957 16
L 957 16
L 957 16
L 957 15
L 957 15
L 957 15
L 957 15
L 957 15
L 957 15
L 957 15
L 957 15
L 957 15
L 957 15
L 957 15
L 957 15
L 957 15
L 957 15
L 957 15
L 957 15
L 957 15
L 957 15
L 957 15
L 957 15
L 957 15
L 957 15
L 957 15
L 957 14
L 957 14
L 957 14
L 957 14
L 957 14
L 957 14
L 957 14
L 957 14
L 957 14
L 957 14
L 957 14
L 957 14
L 957 14
L 957 14
L 957 14
L 957 14
L 957 14
L 957 14
L 957 14
L 957 14
L 957 14
L 957 14
L 957 14
L 957 14
L 957 13
L 957 13
L 957 13
L 957 13
L 957 13
L 957 13" style="stroke-width:2;stroke:rgba(129,199,239,1.0);fill:none"/></svg>