<!-- stars: 9712 -->
<svg xmlns="http://www.w3.org/2000/svg" xmlns:xlink="http://www.w3.org/1999/xlink" width="1024" height="400">\n<path  d="M 0 0
L 1024 0
L 1024 400
L 0 400
L 0 0" style="stroke-width:0;stroke:rgba(255,255,255,1.0);fill:rgba(255,255,255,1.0)"/><path  d="M 38 11
L 957 11
L 957 351
L 38 351
L 38 11" style="stroke-width:0;stroke:rgba(255,255,255,1.0);fill:rgba(255,255,255,1.0)"/><path  d="M 38 351
L 957 351" style="stroke-width:2;stroke:rgba(85,85,85,1.0);fill:none"/><path  d="M 38 351
L 38 356" style="stroke-width:2;stroke:rgba(85,85,85,1.0);fill:none"/><text x="5" y="373" style="stroke-width:0;stroke:none;fill:rgba(51,51,51,1.0);font-size:12.8px;font-family:'Roboto Medium',sans-serif">2018-09-25</text><path  d="M 153 351
L 153 356" style="stroke-width:2;stroke:rgba(85,85,85,1.0);fill:none"/><text x="120" y="373" style="stroke-width:0;stroke:none;fill:rgba(51,51,51,1.0);font-size:12.8px;font-family:'Roboto Medium',sans-serif">2019-02-22</text><path  d="M 268 351
L 268 356" style="stroke-width:2;stroke:rgba(85,85,85,1.0);fill:none"/><text x="235" y="373" style="stroke-width:0;stroke:none;fill:rgba(51,51,51,1.0);font-size:12.8px;font-family:'Roboto Medium',sans-serif">2019-07-23</text><path  d="M 383 351
L 383 356" style="stroke-width:2;stroke:rgba(85,85,85,1.0);fill:none"/><text x="350" y="373" style="stroke-width:0;stroke:none;fill:rgba(51,51,51,1.0);font-size:12.8px;font-family:'Roboto Medium',sans-serif">2019-12-21</text><path  d="M 498 351
L 498 356" style="stroke-width:2;stroke:rgba(85,85,85,1.0);fill:none"/><text x="465" y="373" style="stroke-width:0;stroke:none;fill:rgba(51,51,51,1.0);font-size:12.8px;font-family:'Roboto Medium',sans-serif">2020-05-19</text><path  d="M 613 351
L 613 356" style="stroke-width:2;stroke:rgba(85,85,85,1.0);fill:none"/><text x="580" y="373" style="stroke-width:0;stroke:none;fill:rgba(51,51,51,1.0);font-size:12.8px;font-family:'Roboto Medium',sans-serif">2020-10-17</text><path  d="M 728 351
L 728 356" style="stroke-width:2;stroke:rgba(85,85,85,1.0);fill:none"/><text x="695" y="373" style="stroke-width:0;stroke:none;fill:rgba(51,51,51,1.0);font-size:12.8px;font-family:'Roboto Medium',sans-serif">2021-03-17</text><path  d="M 843 351
L 843 356" style="stroke-width:2;stroke:rgba(85,85,85,1.0);fill:none"/><text x="810" y="373" style="stroke-width:0;stroke:none;fill:rgba(51,51,51,1.0);font-size:12.8px;font-family:'Roboto Medium',sans-serif">2021-08-14</text><path  d="M 957 351
L 957 356" style="stroke-width:2;stroke:rgba(85,85,85,1.0);fill:none"/><text x="924" y="373" style="stroke-width:0;stroke:none;fill:rgba(51,51,51,1.0);font-size:12.8px;font-family:'Roboto Medium',sans-serif">2022-01-12</text><text x="483" y="395" style="stroke-width:0;stroke:none;fill:rgba(51,51,51,1.0);font-size:12.8px;font-family:'Roboto Medium',sans-serif">Time</text><path  d="M 959 351
L 959 11" style="stroke-width:2;stroke:rgba(85,85,85,1.0);fill:none"/><path  d="M 959 351
L 964 351" style="stroke-width:2;stroke:rgba(85,85,85,1.0);fill:none"/><text x="969" y="357" style="stroke-width:0;stroke:none;fill:rgba(51,51,51,1.0);font-size:12.8px;font-family:'Roboto Medium',sans-serif">0</text><path  d="M 959 308
L 964 308" style="stroke-width:2;stroke:rgba(85,85,85,1.0);fill:none"/><text x="969" y="314" style="stroke-width:0;stroke:none;fill:rgba(51,51,51,1.0);font-size:12.8px;font-family:'Roboto Medium',sans-serif">1230</text><path  d="M 959 266
L 964 266" style="stroke-width:2;stroke:rgba(85,85,85,1.0);fill:none"/><text x="969" y="272" style="stroke-width:0;stroke:none;fill:rgba(51,51,51,1.0);font-size:12.8px;font-family:'Roboto Medium',sans-serif">2450</text><path  d="M 959 223
L 964 223" style="stroke-width:2;stroke:rgba(85,85,85,1.0);fill:none"/><text x="969" y="229" style="stroke-width:0;stroke:none;fill:rgba(51,51,51,1.0);font-size:12.8px;font-family:'Roboto Medium',sans-serif">3680</text><path  d="M 959 181
L 964 181" style="stroke-width:2;stroke:rgba(85,85,85,1.0);fill:none"/><text x="969" y="187" style="stroke-width:0;stroke:none;fill:rgba(51,51,51,1.0);font-size:12.8px;font-family:'Roboto Medium',sans-serif">4900</text><path  d="M 959 138
L 964 138" style="stroke-width:2;stroke:rgba(85,85,85,1.0);fill:none"/><text x="969" y="144" style="stroke-width:0;stroke:none;fill:rgba(51,51,51,1.0);font-size:12.8px;font-family:'Roboto Medium',sans-serif">6130</text><path  d="M 959 96
L 964 96" style="stroke-width:2;stroke:rgba(85,85,85,1.0);fill:none"/><text x="969" y="102" style="stroke-width:0;stroke:none;fill:rgba(51,51,51,1.0);font-size:12.8px;font-family:'Roboto Medium',sans-serif">7350</text><path  d="M 959 53
L 964 53" style="stroke-width:2;stroke:rgba(85,85,85,1.0);fill:none"/><text x="969" y="59" style="stroke-width:0;stroke:none;fill:rgba(51,51,51,1.0);font-size:12.8px;font-family:'Roboto Medium',sans-serif">8580</text><path  d="M 959 11
L 964 11" style="stroke-width:2;stroke:rgba(85,85,85,1.0);fill:none"/><text x="969" y="17" style="stroke-width:0;stroke:none;fill:rgba(51,51,51,1.0);font-size:12.8px;font-family:'Roboto Medium',sans-serif">9800</text><text x="1009" y="150" style="stroke-width:0;stroke:none;fill:rgba(51,51,51,1.0);font-size:12.8px;font-family:'Roboto Medium',sans-serif" transform="rotate(90.00,1009,150)">Stargazers</text><path  d="M 38 351
L 40 350
L 50 350
L 50 350
L 50 350
L 51 350
L 51 350
L 53 350
L 54 350
L 55 350
L 56 350
L 56 350
L 57 350
L 58 350
L 58 350
L 58 350
L 60 350
L 66 350
L 66 350
L 68 350
L 69 350
L 69 350
L 71 350
L 71 350
L 73 350
L 73 350
L 78 350
L 81 350
L 87 350
L 87 349
L 92 349
L 92 349
L 92 349
L 92 349
L 93 349
L 93 349
L 93 349
L 93 349
L 93 349
L 94 349
L 94 349
L 95 349
L 97 349
L 97 349
L 97 349
L 98 349
L 98 349
L 98 349
L 98 349
L 99 349
L 101 349
L 101 349
L 102 349
L 103 349
L 105 349
L 106 349
L 106 349
L 107 349
L 108 348
L 108 348
L 108 348
L 109 348
L 109 348
L 109 348
L 109 348
L 110 348
L 110 348
L 110 348
L 110 348
L 110 348
L 111 348
L 111 348
L 111 348
L 112 348
L 113 348
L 113 348
L 114 348
L 114 348
L 116 348
L 116 348
L 118 348
L 118 348
L 118 348
L 118 348
L 118 348
L 118 348
L 119 348
L 119 347
L 120 347
L 120 347
L 121 347
L 121 347
L 123 347
L 124 347
L 124 347
L 124 347
L 125 347
L 125 347
L 126 347
L 129 347
L 130 347
L 131 347
L 131 347
L 131 347
L 132 347
L 139 347
L 142 347
L 145 347
L 146 347
L 147 347
L 147 347
L 148 347
L 148 347
L 148 347
L 150 347
L 151 347
L 151 346
L 151 346
L 151 346
L 152 346
L 152 346
L 152 346
L 153 346
L 155 346
L 155 346
L 158 346
L 158 346
L 161 346
L 161 346
L 162 346
L 162 346
L 163 346
L 163 346
L 164 346
L 164 346
L 165 346
L 165 346
L 166 346
L 167 346
L 168 346
L 169 346
L 171 346
L 171 346
L 172 346
L 173 346
L 173 345
L 173 345
L 174 345
L 174 345
L 177 345
L 178 345
L 178 345
L 178 345
L 179 345
L 180 345
L 180 345
L 180 345
L 180 345
L 181 345
L 181 345
L 182 345
L 182 345
L 182 345
L 183 345
L 183 345
L 183 345
L 183 345
L 183 345
L 183 345
L 183 345
L 183 345
L 183 345
L 183 345
L 184 344
L 184 344
L 184 344
L 184 344
L 184 344
L 185 344
L 187 344
L 187 344
L 187 344
L 188 344
L 188 344
L 189 344
L 189 344
L 189 344
L 189 344
L 189 344
L 190 344
L 190 344
L 190 344
L 191 344
L 193 344
L 193 344
L 194 344
L 196 344
L 196 344
L 198 344
L 199 344
L 199 344
L 199 344
L 200 343
L 200 343
L 200 343
L 200 343
L 200 343
L 202 343
L 202 343
L 203 343
L 203 343
L 204 343
L 204 343
L 204 343
L 205 343
L 205 343
L 206 343
L 206 343
L 207 343
L 207 343
L 208 343
L 209 343
L 209 343
L 211 343
L 211 343
L 212 343
L 212 343
L 212 343
L 212 343
L 213 343
L 216 343
L 216 342
L 219 342
L 220 342
L 221 342
L 223 342
L 224 342
L 225 342
L 225 342
L 226 342
L 230 342
L 231 342
L 231 342
L 231 342
L 232 342
L 232 342
L 232 342
L 233 342
L 233 342
L 233 342
L 238 342
L 241 342
L 242 342
L 242 342
L 242 342
L 242 342
L 242 342
L 242 342
L 242 342
L 242 342
L 243 341
L 244 341
L 244 341
L 246 341
L 247 341
L 247 341
L 248 341
L 249 341
L 249 341
L 250 341
L 251 341
L 251 341
L 252 341
L 252 341
L 252 341
L 252 341
L 252 341
L 253 341
L 253 341
L 253 341
L 254 341
L 254 341
L 254 341
L 255 341
L 255 341
L 255 341
L 255 341
L 256 341
L 256 341
L 256 340
L 257 340
L 258 340
L 259 340
L 260 340
L 260 340
L 261 340
L 262 340
L 262 340
L 263 340
L 263 340
L 265 340
L 266 340
L 267 340
L 268 340
L 270 340
L 271 340
L 272 340
L 273 340
L 273 340
L 274 340
L 274 340
L 279 340
L 283 340
L 283 340
L 284 340
L 286 340
L 287 340
L 288 340
L 291 339
L 293 339
L 293 339
L 294 339
L 294 339
L 297 339
L 302 339
L 302 339
L 302 339
L 302 339
L 303 339
L 313 339
L 313 339
L 314 339
L 315 339
L 315 339
L 315 339
L 315 339
L 315 339
L 315 339
L 315 339
L 315 339
L 315 339
L 316 339
L 316 339
L 317 339
L 320 339
L 320 339
L 321 338
L 326 338
L 327 338
L 328 338
L 329 338
L 329 338
L 330 338
L 331 338
L 332 338
L 332 338
L 332 338
L 333 338
L 334 338
L 334 338
L 335 338
L 337 338
L 337 338
L 337 338
L 338 338
L 342 338
L 353 338
L 354 338
L 357 338
L 360 338
L 360 338
L 362 338
L 364 338
L 364 338
L 364 338
L 365 337
L 365 337
L 366 337
L 366 337
L 369 337
L 370 337
L 372 337
L 373 337
L 377 337
L 377 337
L 377 337
L 382 337
L 385 337
L 385 337
L 386 337
L 386 337
L 387 337
L 387 337
L 387 337
L 387 337
L 388 337
L 388 337
L 388 337
L 388 337
L 390 337
L 391 337
L 394 337
L 395 337
L 397 337
L 400 336
L 400 336
L 401 336
L 402 336
L 402 336
L 403 336
L 404 336
L 406 336
L 406 336
L 411 336
L 411 336
L 412 336
L 412 336
L 414 336
L 416 336
L 418 336
L 420 336
L 424 336
L 425 336
L 425 336
L 426 336
L 429 336
L 435 336
L 437 336
L 439 336
L 441 336
L 441 336
L 441 336
L 442 336
L 443 335
L 443 335
L 443 335
L 445 335
L 445 335
L 445 335
L 446 335
L 446 335
L 446 335
L 447 335
L 448 335
L 448 335
L 448 335
L 450 335
L 450 335
L 450 335
L 450 335
L 451 335
L 451 335
L 451 335
L 451 335
L 451 335
L 451 335
L 451 335
L 452 335
L 452 335
L 453 335
L 454 335
L 455 335
L 455 334
L 456 334
L 457 334
L 457 334
L 457 334
L 457 334
L 458 334
L 458 334
L 458 334
L 459 334
L 459 334
L 459 334
L 460 334
L 460 334
L 460 334
L 460 334
L 462 334
L 463 334
L 464 334
L 465 334
L 465 334
L 465 334
L 465 334
L 466 334
L 466 334
L 466 334
L 467 334
L 467 334
L 467 334
L 467 333
L 467 333
L 467 333
L 467 333
L 467 333
L 467 333
L 467 333
L 467 333
L 468 333
L 468 333
L 468 333
L 468 333
L 468 333
L 469 333
L 469 333
L 470 333
L 470 333
L 470 333
L 470 333
L 470 333
L 471 333
L 472 333
L 472 333
L 473 333
L 473 333
L 473 333
L 474 333
L 475 333
L 475 332
L 476 332
L 476 332
L 476 332
L 476 332
L 476 332
L 476 332
L 476 332
L 476 332
L 476 332
L 476 332
L 476 332
L 476 332
L 476 332
L 476 332
L 476 332
L 476 332
L 476 332
L 476 332
L 476 332
L 476 332
L 476 332
L 476 332
L 476 332
L 476 332
L 476 332
L 477 332
L 477 332
L 477 332
L 477 331
L 477 331
L 478 331
L 478 331
L 478 331
L 478 331
L 478 331
L 478 331
L 479 331
L 479 331
L 479 331
L 479 331
L 480 331
L 480 331
L 481 331
L 481 331
L 482 331
L 482 331
L 482 331
L 482 331
L 482 331
L 482 331
L 482 331
L 482 331
L 482 331
L 483 331
L 484 331
L 484 331
L 486 331
L 486 330
L 486 330
L 487 330
L 488 330
L 488 330
L 488 330
L 488 330
L 489 330
L 489 330
L 489 330
L 489 330
L 489 330
L 489 330
L 490 330
L 491 330
L 491 330
L 491 330
L 492 330
L 492 330
L 493 330
L 493 330
L 493 330
L 494 330
L 494 330
L 494 330
L 494 330
L 495 330
L 495 330
L 495 330
L 495 329
L 495 329
L 496 329
L 496 329
L 496 329
L 497 329
L 498 329
L 498 329
L 499 329
L 499 329
L 499 329
L 500 329
L 500 329
L 501 329
L 501 329
L 502 329
L 502 329
L 502 329
L 502 329
L 503 329
L 503 329
L 503 329
L 504 329
L 504 329
L 504 329
L 504 329
L 504 329
L 504 329
L 505 329
L 505 328
L 505 328
L 505 328
L 505 328
L 505 328
L 505 328
L 506 328
L 506 328
L 507 328
L 507 328
L 508 328
L 509 328
L 509 328
L 509 328
L 509 328
L 510 328
L 510 328
L 510 328
L 511 328
L 511 328
L 511 328
L 511 328
L 511 328
L 511 328
L 512 328
L 512 328
L 512 328
L 512 328
L 512 327
L 512 327
L 512 327
L 512 327
L 512 327
L 512 327
L 512 327
L 512 327
L 512 327
L 512 327
L 513 327
L 513 327
L 514 327
L 514 327
L 514 327
L 514 327
L 515 327
L 515 327
L 516 327
L 516 327
L 517 327
L 517 327
L 517 327
L 517 327
L 517 327
L 518 327
L 518 327
L 518 327
L 518 327
L 518 326
L 518 326
L 518 326
L 518 326
L 519 326
L 519 326
L 519 326
L 519 326
L 519 326
L 519 326
L 519 326
L 519 326
L 519 326
L 519 326
L 520 326
L 520 326
L 520 326
L 520 326
L 520 326
L 520 326
L 521 326
L 521 326
L 521 326
L 521 326
L 521 326
L 521 326
L 522 326
L 522 326
L 522 326
L 522 325
L 522 325
L 522 325
L 522 325
L 523 325
L 523 325
L 524 325
L 524 325
L 524 325
L 524 325
L 525 325
L 525 325
L 526 325
L 527 325
L 527 325
L 527 325
L 527 325
L 527 325
L 528 325
L 528 325
L 528 325
L 529 325
L 529 325
L 529 325
L 529 325
L 529 325
L 530 325
L 530 325
L 531 325
L 531 324
L 531 324
L 531 324
L 531 324
L 531 324
L 531 324
L 532 324
L 532 324
L 532 324
L 532 324
L 533 324
L 533 324
L 533 324
L 534 324
L 534 324
L 534 324
L 534 324
L 534 324
L 535 324
L 536 324
L 536 324
L 536 324
L 537 324
L 537 324
L 537 324
L 538 324
L 538 324
L 538 324
L 540 324
L 540 323
L 540 323
L 540 323
L 541 323
L 541 323
L 542 323
L 542 323
L 542 323
L 542 323
L 543 323
L 543 323
L 543 323
L 543 323
L 543 323
L 543 323
L 544 323
L 544 323
L 544 323
L 544 323
L 545 323
L 545 323
L 545 323
L 545 323
L 545 323
L 545 323
L 546 323
L 546 323
L 546 323
L 546 323
L 547 322
L 547 322
L 547 322
L 548 322
L 548 322
L 548 322
L 549 322
L 549 322
L 549 322
L 549 322
L 550 322
L 550 322
L 550 322
L 550 322
L 550 322
L 551 322
L 551 322
L 551 322
L 551 322
L 551 322
L 551 322
L 552 322
L 552 322
L 552 322
L 552 322
L 552 322
L 552 322
L 552 322
L 552 321
L 552 321
L 553 321
L 553 321
L 553 321
L 553 321
L 553 321
L 553 321
L 553 321
L 554 321
L 554 321
L 554 321
L 555 321
L 555 321
L 555 321
L 556 321
L 556 321
L 556 321
L 556 321
L 557 321
L 557 321
L 557 321
L 558 321
L 558 321
L 558 321
L 558 321
L 558 321
L 558 321
L 559 321
L 559 320
L 559 320
L 560 320
L 560 320
L 561 320
L 561 320
L 561 320
L 561 320
L 561 320
L 562 320
L 562 320
L 562 320
L 562 320
L 562 320
L 562 320
L 563 320
L 563 320
L 563 320
L 563 320
L 563 320
L 564 320
L 564 320
L 564 320
L 564 320
L 564 320
L 566 320
L 566 320
L 566 320
L 566 320
L 566 319
L 567 319
L 567 319
L 567 319
L 567 319
L 567 319
L 568 319
L 568 319
L 568 319
L 568 319
L 568 319
L 569 319
L 569 319
L 569 319
L 569 319
L 569 319
L 570 319
L 570 319
L 571 319
L 572 319
L 573 319
L 573 319
L 573 319
L 574 319
L 575 319
L 576 319
L 576 319
L 577 319
L 577 319
L 577 318
L 578 318
L 578 318
L 578 318
L 579 318
L 579 318
L 580 318
L 580 318
L 580 318
L 581 318
L 581 318
L 581 318
L 581 318
L 582 318
L 582 318
L 582 318
L 582 318
L 583 318
L 583 318
L 583 318
L 584 318
L 584 318
L 584 318
L 585 318
L 585 318
L 585 318
L 585 318
L 585 318
L 585 318
L 585 317
L 585 317
L 585 317
L 585 317
L 586 317
L 586 317
L 587 317
L 587 317
L 587 317
L 587 317
L 587 317
L 587 317
L 588 317
L 588 317
L 588 317
L 590 317
L 590 317
L 590 317
L 591 317
L 591 317
L 592 317
L 593 317
L 594 317
L 594 317
L 594 317
L 594 317
L 594 317
L 595 317
L 595 317
L 595 316
L 597 316
L 598 316
L 598 316
L 598 316
L 598 316
L 598 316
L 598 316
L 598 316
L 599 316
L 599 316
L 599 316
L 599 316
L 600 316
L 600 316
L 600 316
L 600 316
L 600 316
L 602 316
L 603 316
L 604 316
L 604 316
L 606 316
L 606 316
L 606 316
L 607 316
L 607 316
L 607 316
L 608 315
L 608 315
L 609 315
L 609 315
L 609 315
L 609 315
L 609 315
L 609 315
L 609 315
L 610 315
L 610 315
L 610 315
L 610 315
L 610 315
L 610 315
L 610 315
L 610 315
L 611 315
L 611 315
L 611 315
L 611 315
L 611 315
L 611 315
L 611 315
L 612 315
L 612 315
L 612 315
L 612 315
L 612 315
L 612 314
L 613 314
L 613 314
L 614 314
L 614 314
L 614 314
L 614 314
L 615 314
L 615 314
L 615 314
L 615 314
L 616 314
L 616 314
L 616 314
L 617 314
L 617 314
L 617 314
L 617 314
L 617 314
L 618 314
L 618 314
L 618 314
L 619 314
L 619 314
L 620 314
L 620 314
L 620 314
L 620 314
L 620 314
L 620 313
L 620 313
L 620 313
L 620 313
L 620 313
L 620 313
L 621 313
L 621 313
L 621 313
L 621 313
L 621 313
L 621 313
L 621 313
L 621 313
L 621 313
L 621 313
L 621 313
L 622 313
L 622 313
L 622 313
L 622 313
L 622 313
L 622 313
L 622 313
L 622 313
L 622 313
L 623 313
L 623 313
L 623 313
L 623 312
L 623 312
L 623 312
L 623 312
L 623 312
L 623 312
L 624 312
L 624 312
L 624 312
L 624 312
L 624 312
L 624 312
L 625 312
L 625 312
L 625 312
L 625 312
L 626 312
L 626 312
L 626 312
L 626 312
L 626 312
L 626 312
L 626 312
L 626 312
L 626 312
L 626 312
L 626 312
L 627 312
L 627 312
L 627 311
L 627 311
L 627 311
L 627 311
L 627 311
L 627 311
L 628 311
L 629 311
L 629 311
L 629 311
L 629 311
L 630 311
L 630 311
L 630 311
L 630 311
L 630 311
L 630 311
L 631 311
L 631 311
L 631 311
L 631 311
L 631 311
L 631 311
L 632 311
L 632 311
L 632 311
L 632 311
L 632 311
L 632 310
L 632 310
L 633 310
L 633 310
L 633 310
L 633 310
L 634 310
L 634 310
L 634 310
L 634 310
L 635 310
L 635 310
L 635 310
L 636 310
L 636 310
L 636 310
L 636 310
L 636 310
L 637 310
L 637 310
L 637 310
L 637 310
L 637 310
L 637 310
L 637 310
L 638 310
L 638 310
L 638 310
L 638 310
L 638 309
L 638 309
L 639 309
L 639 309
L 639 309
L 640 309
L 640 309
L 640 309
L 640 309
L 640 309
L 641 309
L 641 309
L 641 309
L 641 309
L 641 309
L 641 309
L 641 309
L 642 309
L 642 309
L 643 309
L 643 309
L 644 309
L 644 309
L 644 309
L 644 309
L 644 309
L 644 309
L 644 309
L 644 309
L 644 308
L 646 308
L 646 308
L 646 308
L 646 308
L 646 308
L 646 308
L 646 308
L 647 308
L 647 308
L 647 308
L 647 308
L 647 308
L 647 308
L 648 308
L 648 308
L 648 308
L 648 308
L 648 308
L 648 308
L 649 308
L 649 308
L 649 308
L 649 308
L 649 308
L 649 308
L 650 308
L 652 308
L 652 308
L 652 307
L 652 307
L 652 307
L 652 307
L 653 307
L 653 307
L 653 307
L 653 307
L 653 307
L 653 307
L 653 307
L 653 307
L 653 307
L 654 307
L 654 307
L 654 307
L 654 307
L 654 307
L 654 307
L 655 307
L 655 307
L 655 307
L 656 307
L 656 307
L 656 307
L 656 307
L 657 307
L 657 307
L 657 307
L 657 306
L 657 306
L 658 306
L 658 306
L 658 306
L 658 306
L 658 306
L 659 306
L 659 306
L 659 306
L 659 306
L 660 306
L 660 306
L 660 306
L 662 306
L 662 306
L 662 306
L 662 306
L 662 306
L 662 306
L 662 306
L 662 306
L 663 306
L 663 306
L 663 306
L 663 306
L 663 306
L 663 306
L 663 306
L 663 305
L 663 305
L 663 305
L 664 305
L 664 305
L 664 305
L 664 305
L 664 305
L 664 305
L 664 305
L 664 305
L 665 305
L 665 305
L 665 305
L 665 305
L 665 305
L 665 305
L 665 305
L 665 305
L 665 305
L 666 305
L 666 305
L 666 305
L 667 305
L 667 305
L 667 305
L 667 305
L 668 305
L 668 304
L 668 304
L 668 304
L 668 304
L 668 304
L 668 304
L 668 304
L 668 304
L 668 304
L 669 304
L 669 304
L 669 304
L 669 304
L 669 304
L 669 304
L 670 304
L 670 304
L 670 304
L 671 304
L 671 304
L 672 304
L 672 304
L 672 304
L 673 304
L 673 304
L 673 304
L 673 304
L 673 304
L 673 304
L 674 303
L 674 303
L 674 303
L 674 303
L 674 303
L 674 303
L 675 303
L 675 303
L 675 303
L 675 303
L 675 303
L 675 303
L 675 303
L 675 303
L 675 303
L 675 303
L 675 303
L 675 303
L 675 303
L 676 303
L 676 303
L 676 303
L 677 303
L 677 303
L 677 303
L 678 303
L 678 303
L 678 303
L 678 303
L 679 302
L 679 302
L 679 302
L 679 302
L 679 302
L 679 302
L 679 302
L 679 302
L 679 302
L 679 302
L 680 302
L 680 302
L 680 302
L 680 302
L 681 302
L 681 302
L 681 302
L 681 302
L 681 302
L 682 302
L 682 302
L 682 302
L 682 302
L 682 302
L 683 302
L 684 302
L 684 302
L 684 302
L 684 302
L 684 301
L 684 301
L 685 301
L 685 301
L 685 301
L 685 301
L 685 301
L 686 301
L 686 301
L 686 301
L 686 301
L 686 301
L 687 301
L 687 301
L 687 301
L 687 301
L 687 301
L 687 301
L 687 301
L 688 301
L 688 301
L 688 301
L 688 301
L 688 301
L 688 301
L 688 301
L 689 301
L 689 301
L 689 301
L 689 300
L 689 300
L 689 300
L 689 300
L 689 300
L 689 300
L 690 300
L 690 300
L 690 300
L 690 300
L 690 300
L 690 300
L 690 300
L 691 300
L 691 300
L 691 300
L 691 300
L 691 300
L 692 300
L 693 300
L 693 300
L 693 300
L 693 300
L 693 300
L 694 300
L 694 300
L 694 300
L 694 300
L 694 300
L 694 299
L 694 299
L 694 299
L 694 299
L 695 299
L 695 299
L 696 299
L 696 299
L 696 299
L 696 299
L 696 299
L 697 299
L 697 299
L 697 299
L 697 299
L 697 299
L 697 299
L 697 299
L 697 299
L 697 299
L 697 299
L 698 299
L 698 299
L 698 299
L 698 299
L 698 299
L 698 299
L 698 299
L 699 298
L 699 298
L 699 298
L 699 298
L 699 298
L 700 298
L 700 298
L 700 298
L 700 298
L 701 298
L 701 298
L 701 298
L 702 298
L 703 298
L 704 298
L 704 298
L 704 298
L 704 298
L 704 298
L 705 298
L 705 298
L 705 298
L 706 298
L 706 298
L 706 298
L 707 298
L 707 298
L 707 298
L 707 298
L 707 297
L 708 297
L 708 297
L 708 297
L 708 297
L 708 297
L 708 297
L 708 297
L 708 297
L 708 297
L 708 297
L 709 297
L 709 297
L 709 297
L 709 297
L 709 297
L 709 297
L 709 297
L 709 297
L 709 297
L 710 297
L 710 297
L 710 297
L 710 297
L 710 297
L 710 297
L 711 297
L 711 297
L 711 297
L 711 296
L 711 296
L 711 296
L 711 296
L 711 296
L 711 296
L 711 296
L 711 296
L 712 296
L 712 296
L 712 296
L 712 296
L 712 296
L 713 296
L 713 296
L 713 296
L 713 296
L 713 296
L 713 296
L 713 296
L 713 296
L 713 296
L 713 296
L 713 296
L 713 296
L 713 296
L 714 296
L 714 296
L 714 296
L 715 295
L 715 295
L 715 295
L 715 295
L 715 295
L 716 295
L 716 295
L 716 295
L 716 295
L 716 295
L 716 295
L 716 295
L 716 295
L 716 295
L 716 295
L 716 295
L 716 295
L 716 295
L 716 295
L 717 295
L 717 295
L 717 295
L 717 295
L 717 295
L 717 295
L 717 295
L 717 295
L 717 295
L 717 295
L 717 294
L 717 294
L 718 294
L 718 294
L 718 294
L 718 294
L 718 294
L 718 294
L 718 294
L 718 294
L 719 294
L 719 294
L 719 294
L 719 294
L 720 294
L 720 294
L 720 294
L 720 294
L 720 294
L 720 294
L 721 294
L 721 294
L 721 294
L 721 294
L 721 294
L 721 294
L 721 294
L 721 294
L 721 293
L 722 293
L 722 293
L 722 293
L 722 293
L 722 293
L 722 293
L 722 293
L 722 293
L 723 293
L 723 293
L 723 293
L 723 293
L 723 293
L 723 293
L 723 293
L 723 293
L 723 293
L 723 293
L 724 293
L 724 293
L 724 293
L 724 293
L 724 293
L 724 293
L 724 293
L 724 293
L 724 293
L 725 293
L 725 292
L 725 292
L 725 292
L 726 292
L 726 292
L 726 292
L 726 292
L 726 292
L 726 292
L 726 292
L 726 292
L 726 292
L 726 292
L 726 292
L 726 292
L 726 292
L 726 292
L 726 292
L 726 292
L 726 292
L 726 292
L 726 292
L 726 292
L 726 292
L 726 292
L 726 292
L 726 292
L 726 292
L 726 292
L 726 291
L 726 291
L 726 291
L 726 291
L 726 291
L 726 291
L 726 291
L 726 291
L 726 291
L 726 291
L 726 291
L 726 291
L 726 291
L 726 291
L 726 291
L 726 291
L 726 291
L 726 291
L 726 291
L 726 291
L 726 291
L 726 291
L 726 291
L 726 291
L 726 291
L 726 291
L 726 291
L 726 291
L 726 291
L 726 290
L 726 290
L 726 290
L 726 290
L 726 290
L 726 290
L 726 290
L 726 290
L 726 290
L 726 290
L 726 290
L 726 290
L 726 290
L 726 290
L 726 290
L 726 290
L 726 290
L 726 290
L 726 290
L 726 290
L 726 290
L 726 290
L 726 290
L 726 290
L 726 290
L 726 290
L 726 290
L 726 290
L 726 290
L 726 289
L 726 289
L 726 289
L 726 289
L 726 289
L 726 289
L 726 289
L 726 289
L 726 289
L 726 289
L 726 289
L 726 289
L 726 289
L 726 289
L 726 289
L 726 289
L 726 289
L 726 289
L 726 289
L 727 289
L 727 289
L 727 289
L 727 289
L 727 289
L 727 289
L 727 289
L 727 289
L 727 289
L 727 289
L 727 288
L 727 288
L 727 288
L 727 288
L 727 288
L 727 288
L 727 288
L 727 288
L 727 288
L 727 288
L 727 288
L 727 288
L 727 288
L 727 288
L 727 288
L 727 288
L 727 288
L 727 288
L 727 288
L 727 288
L 727 288
L 727 288
L 727 288
L 727 288
L 727 288
L 727 288
L 727 288
L 727 288
L 727 287
L 727 287
L 727 287
L 727 287
L 727 287
L 727 287
L 727 287
L 727 287
L 727 287
L 727 287
L 727 287
L 727 287
L 727 287
L 727 287
L 727 287
L 727 287
L 727 287
L 727 287
L 727 287
L 727 287
L 728 287
L 728 287
L 728 287
L 728 287
L 728 287
L 728 287
L 728 287
L 728 287
L 728 287
L 728 286
L 728 286
L 728 286
L 728 286
L 728 286
L 728 286
L 728 286
L 728 286
L 728 286
L 728 286
L 728 286
L 728 286
L 728 286
L 728 286
L 728 286
L 728 286
L 728 286
L 728 286
L 728 286
L 728 286
L 728 286
L 728 286
L 728 286
L 728 286
L 728 286
L 728 286
L 728 286
L 728 286
L 728 286
L 728 285
L 728 285
L 728 285
L 728 285
L 728 285
L 728 285
L 728 285
L 728 285
L 728 285
L 728 285
L 728 285
L 728 285
L 728 285
L 728 285
L 728 285
L 728 285
L 728 285
L 728 285
L 728 285
L 728 285
L 728 285
L 728 285
L 728 285
L 728 285
L 728 285
L 728 285
L 728 285
L 728 285
L 728 285
L 728 284
L 728 284
L 728 284
L 728 284
L 728 284
L 728 284
L 728 284
L 728 284
L 728 284
L 728 284
L 728 284
L 728 284
L 728 284
L 728 284
L 728 284
L 728 284
L 729 284
L 729 284
L 729 284
L 729 284
L 729 284
L 729 284
L 729 284
L 729 284
L 729 284
L 729 284
L 729 284
L 729 284
L 729 284
L 729 283
L 729 283
L 729 283
L 729 283
L 729 283
L 729 283
L 729 283
L 729 283
L 729 283
L 729 283
L 729 283
L 729 283
L 729 283
L 729 283
L 729 283
L 729 283
L 729 283
L 729 283
L 729 283
L 729 283
L 729 283
L 729 283
L 729 283
L 729 283
L 729 283
L 729 283
L 729 283
L 729 283
L 729 283
L 729 282
L 729 282
L 729 282
L 729 282
L 729 282
L 729 282
L 729 282
L 729 282
L 729 282
L 729 282
L 729 282
L 729 282
L 729 282
L 729 282
L 729 282
L 729 282
L 729 282
L 729 282
L 729 282
L 729 282
L 729 282
L 729 282
L 729 282
L 730 282
L 730 282
L 730 282
L 730 282
L 730 282
L 730 281
L 730 281
L 730 281
L 730 281
L 730 281
L 730 281
L 730 281
L 730 281
L 730 281
L 730 281
L 730 281
L 730 281
L 730 281
L 730 281
L 730 281
L 730 281
L 730 281
L 730 281
L 730 281
L 730 281
L 730 281
L 731 281
L 731 281
L 731 281
L 731 281
L 731 281
L 731 281
L 732 281
L 732 281
L 732 280
L 732 280
L 732 280
L 732 280
L 732 280
L 732 280
L 732 280
L 732 280
L 732 280
L 732 280
L 732 280
L 733 280
L 733 280
L 733 280
L 733 280
L 733 280
L 733 280
L 733 280
L 733 280
L 733 280
L 733 280
L 733 280
L 733 280
L 733 280
L 733 280
L 733 280
L 734 280
L 734 280
L 734 280
L 734 279
L 734 279
L 734 279
L 734 279
L 734 279
L 734 279
L 734 279
L 734 279
L 735 279
L 735 279
L 735 279
L 735 279
L 735 279
L 735 279
L 735 279
L 735 279
L 735 279
L 735 279
L 735 279
L 735 279
L 735 279
L 736 279
L 736 279
L 736 279
L 736 279
L 736 279
L 736 279
L 736 279
L 737 279
L 737 278
L 737 278
L 737 278
L 737 278
L 737 278
L 737 278
L 737 278
L 737 278
L 737 278
L 737 278
L 737 278
L 737 278
L 737 278
L 737 278
L 737 278
L 737 278
L 737 278
L 737 278
L 737 278
L 737 278
L 738 278
L 738 278
L 738 278
L 738 278
L 738 278
L 738 278
L 738 278
L 738 278
L 738 278
L 738 277
L 738 277
L 738 277
L 738 277
L 738 277
L 738 277
L 738 277
L 738 277
L 738 277
L 738 277
L 738 277
L 738 277
L 738 277
L 738 277
L 738 277
L 738 277
L 738 277
L 738 277
L 738 277
L 738 277
L 738 277
L 738 277
L 738 277
L 738 277
L 738 277
L 738 277
L 738 277
L 738 277
L 738 276
L 738 276
L 738 276
L 738 276
L 738 276
L 738 276
L 738 276
L 738 276
L 738 276
L 738 276
L 738 276
L 738 276
L 739 276
L 739 276
L 739 276
L 739 276
L 739 276
L 739 276
L 739 276
L 739 276
L 739 276
L 739 276
L 739 276
L 739 276
L 739 276
L 739 276
L 739 276
L 739 276
L 739 276
L 739 275
L 739 275
L 739 275
L 739 275
L 739 275
L 739 275
L 739 275
L 739 275
L 739 275
L 739 275
L 739 275
L 739 275
L 739 275
L 739 275
L 739 275
L 739 275
L 739 275
L 739 275
L 739 275
L 739 275
L 739 275
L 739 275
L 739 275
L 739 275
L 739 275
L 739 275
L 739 275
L 739 275
L 739 275
L 739 274
L 739 274
L 739 274
L 739 274
L 739 274
L 739 274
L 739 274
L 739 274
L 739 274
L 739 274
L 739 274
L 739 274
L 739 274
L 739 274
L 739 274
L 739 274
L 739 274
L 739 274
L 739 274
L 739 274
L 739 274
L 739 274
L 739 274
L 739 274
L 739 274
L 739 274
L 739 274
L 739 274
L 739 274
L 739 273
L 739 273
L 739 273
L 739 273
L 739 273
L 739 273
L 739 273
L 739 273
L 739 273
L 739 273
L 739 273
L 739 273
L 739 273
L 739 273
L 740 273
L 740 273
L 740 273
L 740 273
L 740 273
L 740 273
L 740 273
L 740 273
L 740 273
L 740 273
L 740 273
L 740 273
L 740 273
L 740 273
L 740 273
L 740 272
L 740 272
L 740 272
L 740 272
L 740 272
L 740 272
L 740 272
L 740 272
L 740 272
L 740 272
L 740 272
L 740 272
L 740 272
L 740 272
L 740 272
L 740 272
L 740 272
L 740 272
L 740 272
L 740 272
L 740 272
L 740 272
L 740 272
L 740 272
L 740 272
L 740 272
L 740 272
L 740 272
L 740 272
L 740 271
L 740 271
L 740 271
L 740 271
L 741 271
L 741 271
L 741 271
L 741 271
L 741 271
L 741 271
L 741 271
L 741 271
L 741 271
L 741 271
L 741 271
L 741 271
L 741 271
L 741 271
L 741 271
L 741 271
L 741 271
L 741 271
L 741 271
L 741 271
L 741 271
L 741 271
L 741 271
L 741 271
L 741 270
L 742 270
L 742 270
L 742 270
L 742 270
L 742 270
L 742 270
L 742 270
L 742 270
L 742 270
L 742 270
L 742 270
L 742 270
L 742 270
L 742 270
L 742 270
L 742 270
L 742 270
L 742 270
L 742 270
L 742 270
L 742 270
L 742 270
L 742 270
L 742 270
L 742 270
L 742 270
L 742 270
L 742 270
L 742 269
L 742 269
L 742 269
L 742 269
L 743 269
L 743 269
L 743 269
L 743 269
L 743 269
L 743 269
L 743 269
L 743 269
L 743 269
L 743 269
L 743 269
L 743 269
L 743 269
L 743 269
L 743 269
L 743 269
L 743 269
L 743 269
L 743 269
L 743 269
L 743 269
L 743 269
L 743 269
L 743 269
L 743 269
L 743 268
L 743 268
L 743 268
L 743 268
L 743 268
L 743 268
L 743 268
L 744 268
L 744 268
L 744 268
L 744 268
L 744 268
L 744 268
L 744 268
L 744 268
L 744 268
L 744 268
L 744 268
L 744 268
L 744 268
L 744 268
L 744 268
L 744 268
L 744 268
L 744 268
L 744 268
L 744 268
L 745 268
L 745 268
L 745 267
L 745 267
L 745 267
L 745 267
L 745 267
L 745 267
L 745 267
L 745 267
L 745 267
L 745 267
L 745 267
L 745 267
L 746 267
L 746 267
L 746 267
L 746 267
L 746 267
L 746 267
L 746 267
L 746 267
L 746 267
L 746 267
L 746 267
L 746 267
L 746 267
L 746 267
L 746 267
L 747 267
L 747 267
L 747 266
L 747 266
L 747 266
L 747 266
L 748 266
L 748 266
L 748 266
L 748 266
L 748 266
L 748 266
L 748 266
L 748 266
L 748 266
L 748 266
L 748 266
L 748 266
L 749 266
L 749 266
L 749 266
L 749 266
L 749 266
L 749 266
L 749 266
L 749 266
L 749 266
L 749 266
L 749 266
L 749 266
L 749 266
L 749 265
L 749 265
L 749 265
L 749 265
L 749 265
L 749 265
L 749 265
L 749 265
L 749 265
L 750 265
L 750 265
L 750 265
L 750 265
L 750 265
L 750 265
L 750 265
L 750 265
L 750 265
L 750 265
L 750 265
L 750 265
L 751 265
L 751 265
L 751 265
L 751 265
L 751 265
L 751 265
L 751 265
L 751 264
L 751 264
L 752 264
L 752 264
L 752 264
L 752 264
L 752 264
L 752 264
L 752 264
L 752 264
L 752 264
L 752 264
L 752 264
L 752 264
L 752 264
L 752 264
L 752 264
L 752 264
L 752 264
L 752 264
L 752 264
L 752 264
L 753 264
L 753 264
L 753 264
L 753 264
L 753 264
L 753 264
L 753 264
L 753 263
L 753 263
L 753 263
L 753 263
L 753 263
L 753 263
L 753 263
L 753 263
L 753 263
L 753 263
L 753 263
L 754 263
L 754 263
L 754 263
L 754 263
L 754 263
L 754 263
L 754 263
L 754 263
L 754 263
L 754 263
L 754 263
L 754 263
L 754 263
L 754 263
L 754 263
L 754 263
L 754 263
L 754 263
L 754 262
L 755 262
L 755 262
L 755 262
L 755 262
L 755 262
L 755 262
L 755 262
L 755 262
L 755 262
L 755 262
L 755 262
L 755 262
L 756 262
L 756 262
L 756 262
L 756 262
L 756 262
L 756 262
L 756 262
L 757 262
L 757 262
L 757 262
L 757 262
L 757 262
L 757 262
L 757 262
L 757 262
L 757 262
L 757 261
L 757 261
L 757 261
L 757 261
L 757 261
L 757 261
L 757 261
L 757 261
L 757 261
L 757 261
L 757 261
L 757 261
L 757 261
L 757 261
L 757 261
L 757 261
L 757 261
L 757 261
L 757 261
L 757 261
L 757 261
L 757 261
L 757 261
L 757 261
L 757 261
L 757 261
L 757 261
L 757 261
L 758 261
L 758 260
L 758 260
L 758 260
L 758 260
L 758 260
L 758 260
L 758 260
L 758 260
L 758 260
L 758 260
L 758 260
L 758 260
L 758 260
L 758 260
L 758 260
L 758 260
L 758 260
L 758 260
L 758 260
L 758 260
L 758 260
L 758 260
L 758 260
L 758 260
L 758 260
L 758 260
L 758 260
L 758 260
L 758 259
L 758 259
L 758 259
L 758 259
L 758 259
L 758 259
L 758 259
L 758 259
L 758 259
L 758 259
L 758 259
L 758 259
L 758 259
L 758 259
L 758 259
L 758 259
L 758 259
L 758 259
L 758 259
L 758 259
L 758 259
L 758 259
L 758 259
L 758 259
L 758 259
L 758 259
L 758 259
L 758 259
L 758 259
L 758 258
L 758 258
L 758 258
L 758 258
L 758 258
L 758 258
L 758 258
L 758 258
L 758 258
L 758 258
L 758 258
L 758 258
L 759 258
L 759 258
L 759 258
L 759 258
L 759 258
L 759 258
L 759 258
L 759 258
L 759 258
L 759 258
L 759 258
L 759 258
L 759 258
L 759 258
L 759 258
L 759 258
L 759 258
L 759 257
L 759 257
L 759 257
L 759 257
L 759 257
L 759 257
L 759 257
L 759 257
L 759 257
L 759 257
L 759 257
L 759 257
L 759 257
L 759 257
L 759 257
L 759 257
L 759 257
L 759 257
L 759 257
L 759 257
L 759 257
L 759 257
L 759 257
L 759 257
L 759 257
L 759 257
L 759 257
L 759 257
L 759 257
L 759 256
L 759 256
L 759 256
L 759 256
L 759 256
L 759 256
L 759 256
L 759 256
L 759 256
L 759 256
L 759 256
L 759 256
L 759 256
L 759 256
L 759 256
L 759 256
L 759 256
L 759 256
L 759 256
L 759 256
L 760 256
L 760 256
L 760 256
L 760 256
L 760 256
L 760 256
L 760 256
L 760 256
L 760 256
L 760 255
L 760 255
L 760 255
L 760 255
L 760 255
L 760 255
L 760 255
L 760 255
L 760 255
L 760 255
L 760 255
L 760 255
L 760 255
L 760 255
L 760 255
L 760 255
L 760 255
L 760 255
L 760 255
L 760 255
L 760 255
L 760 255
L 760 255
L 760 255
L 760 255
L 760 255
L 760 255
L 760 255
L 760 255
L 760 254
L 760 254
L 760 254
L 760 254
L 760 254
L 760 254
L 760 254
L 760 254
L 760 254
L 760 254
L 760 254
L 760 254
L 760 254
L 760 254
L 760 254
L 760 254
L 760 254
L 760 254
L 760 254
L 760 254
L 760 254
L 760 254
L 760 254
L 760 254
L 760 254
L 760 254
L 760 254
L 760 254
L 760 253
L 760 253
L 760 253
L 760 253
L 760 253
L 760 253
L 760 253
L 760 253
L 760 253
L 760 253
L 760 253
L 760 253
L 760 253
L 760 253
L 760 253
L 760 253
L 760 253
L 760 253
L 760 253
L 760 253
L 760 253
L 760 253
L 760 253
L 760 253
L 760 253
L 760 253
L 760 253
L 760 253
L 760 253
L 760 252
L 760 252
L 760 252
L 760 252
L 760 252
L 760 252
L 760 252
L 760 252
L 760 252
L 760 252
L 760 252
L 760 252
L 760 252
L 760 252
L 760 252
L 760 252
L 760 252
L 760 252
L 760 252
L 760 252
L 760 252
L 760 252
L 760 252
L 760 252
L 760 252
L 760 252
L 760 252
L 760 252
L 760 252
L 760 251
L 760 251
L 760 251
L 760 251
L 760 251
L 760 251
L 760 251
L 760 251
L 760 251
L 760 251
L 760 251
L 760 251
L 760 251
L 760 251
L 760 251
L 760 251
L 760 251
L 760 251
L 760 251
L 760 251
L 760 251
L 760 251
L 760 251
L 760 251
L 760 251
L 760 251
L 760 251
L 760 251
L 760 251
L 760 250
L 760 250
L 760 250
L 760 250
L 760 250
L 760 250
L 760 250
L 760 250
L 760 250
L 760 250
L 760 250
L 760 250
L 760 250
L 760 250
L 760 250
L 760 250
L 760 250
L 760 250
L 761 250
L 761 250
L 761 250
L 761 250
L 761 250
L 761 250
L 761 250
L 761 250
L 761 250
L 761 250
L 761 250
L 761 249
L 761 249
L 761 249
L 761 249
L 761 249
L 761 249
L 761 249
L 761 249
L 761 249
L 761 249
L 761 249
L 761 249
L 761 249
L 761 249
L 761 249
L 761 249
L 761 249
L 761 249
L 761 249
L 761 249
L 761 249
L 761 249
L 761 249
L 761 249
L 761 249
L 761 249
L 761 249
L 761 249
L 761 249
L 761 248
L 761 248
L 761 248
L 761 248
L 761 248
L 761 248
L 761 248
L 761 248
L 761 248
L 761 248
L 761 248
L 761 248
L 761 248
L 761 248
L 761 248
L 761 248
L 761 248
L 761 248
L 761 248
L 761 248
L 761 248
L 761 248
L 761 248
L 761 248
L 761 248
L 761 248
L 761 248
L 761 248
L 761 247
L 761 247
L 761 247
L 761 247
L 761 247
L 761 247
L 761 247
L 761 247
L 761 247
L 761 247
L 761 247
L 761 247
L 761 247
L 761 247
L 761 247
L 761 247
L 761 247
L 761 247
L 761 247
L 761 247
L 761 247
L 761 247
L 761 247
L 761 247
L 761 247
L 761 247
L 761 247
L 761 247
L 761 247
L 761 246
L 761 246
L 761 246
L 761 246
L 761 246
L 761 246
L 761 246
L 761 246
L 761 246
L 761 246
L 761 246
L 761 246
L 761 246
L 761 246
L 761 246
L 761 246
L 761 246
L 761 246
L 761 246
L 761 246
L 761 246
L 761 246
L 761 246
L 761 246
L 761 246
L 761 246
L 761 246
L 761 246
L 761 246
L 761 245
L 761 245
L 761 245
L 761 245
L 761 245
L 761 245
L 761 245
L 761 245
L 761 245
L 761 245
L 761 245
L 761 245
L 761 245
L 761 245
L 761 245
L 761 245
L 761 245
L 761 245
L 761 245
L 761 245
L 761 245
L 761 245
L 761 245
L 761 245
L 761 245
L 761 245
L 761 245
L 761 245
L 761 245
L 761 244
L 761 244
L 761 244
L 761 244
L 761 244
L 761 244
L 761 244
L 761 244
L 761 244
L 761 244
L 761 244
L 761 244
L 761 244
L 761 244
L 761 244
L 761 244
L 761 244
L 761 244
L 761 244
L 761 244
L 761 244
L 761 244
L 761 244
L 761 244
L 761 244
L 761 244
L 761 244
L 761 244
L 761 244
L 761 243
L 761 243
L 761 243
L 761 243
L 761 243
L 761 243
L 761 243
L 761 243
L 761 243
L 761 243
L 761 243
L 761 243
L 761 243
L 761 243
L 761 243
L 761 243
L 761 243
L 761 243
L 761 243
L 761 243
L 761 243
L 761 243
L 761 243
L 761 243
L 761 243
L 761 243
L 761 243
L 761 243
L 761 242
L 761 242
L 761 242
L 761 242
L 761 242
L 761 242
L 761 242
L 761 242
L 761 242
L 761 242
L 761 242
L 761 242
L 761 242
L 761 242
L 761 242
L 761 242
L 761 242
L 761 242
L 761 242
L 761 242
L 761 242
L 761 242
L 761 242
L 761 242
L 761 242
L 761 242
L 761 242
L 761 242
L 761 242
L 761 241
L 761 241
L 761 241
L 761 241
L 761 241
L 761 241
L 761 241
L 761 241
L 761 241
L 761 241
L 761 241
L 761 241
L 761 241
L 761 241
L 761 241
L 761 241
L 761 241
L 761 241
L 761 241
L 761 241
L 761 241
L 761 241
L 761 241
L 761 241
L 761 241
L 761 241
L 761 241
L 761 241
L 761 241
L 761 240
L 761 240
L 761 240
L 761 240
L 761 240
L 761 240
L 761 240
L 761 240
L 761 240
L 761 240
L 761 240
L 761 240
L 761 240
L 761 240
L 761 240
L 761 240
L 761 240
L 761 240
L 761 240
L 761 240
L 761 240
L 761 240
L 761 240
L 761 240
L 761 240
L 761 240
L 761 240
L 761 240
L 761 240
L 761 239
L 761 239
L 761 239
L 761 239
L 761 239
L 761 239
L 761 239
L 761 239
L 761 239
L 761 239
L 761 239
L 761 239
L 761 239
L 761 239
L 761 239
L 761 239
L 761 239
L 761 239
L 761 239
L 761 239
L 761 239
L 761 239
L 761 239
L 761 239
L 761 239
L 761 239
L 761 239
L 761 239
L 761 239
L 761 238
L 761 238
L 761 238
L 761 238
L 761 238
L 761 238
L 761 238
L 761 238
L 761 238
L 761 238
L 761 238
L 761 238
L 761 238
L 761 238
L 761 238
L 761 238
L 761 238
L 761 238
L 761 238
L 761 238
L 761 238
L 761 238
L 761 238
L 761 238
L 761 238
L 761 238
L 761 238
L 761 238
L 761 238
L 761 237
L 761 237
L 761 237
L 761 237
L 761 237
L 761 237
L 761 237
L 761 237
L 761 237
L 761 237
L 761 237
L 761 237
L 761 237
L 761 237
L 761 237
L 761 237
L 761 237
L 761 237
L 761 237
L 761 237
L 761 237
L 761 237
L 761 237
L 761 237
L 761 237
L 761 237
L 761 237
L 761 237
L 761 236
L 761 236
L 761 236
L 761 236
L 761 236
L 761 236
L 761 236
L 761 236
L 761 236
L 761 236
L 761 236
L 761 236
L 761 236
L 761 236
L 761 236
L 761 236
L 761 236
L 761 236
L 761 236
L 761 236
L 761 236
L 761 236
L 761 236
L 761 236
L 761 236
L 762 236
L 762 236
L 762 236
L 762 236
L 762 235
L 762 235
L 762 235
L 762 235
L 762 235
L 762 235
L 762 235
L 762 235
L 762 235
L 762 235
L 762 235
L 762 235
L 762 235
L 762 235
L 762 235
L 762 235
L 762 235
L 762 235
L 762 235
L 762 235
L 762 235
L 762 235
L 762 235
L 762 235
L 762 235
L 762 235
L 762 235
L 762 235
L 762 235
L 762 234
L 762 234
L 762 234
L 762 234
L 762 234
L 762 234
L 762 234
L 762 234
L 762 234
L 762 234
L 762 234
L 762 234
L 762 234
L 762 234
L 762 234
L 762 234
L 762 234
L 762 234
L 762 234
L 762 234
L 762 234
L 762 234
L 762 234
L 762 234
L 762 234
L 762 234
L 762 234
L 762 234
L 762 234
L 762 233
L 762 233
L 762 233
L 762 233
L 762 233
L 762 233
L 762 233
L 762 233
L 762 233
L 762 233
L 762 233
L 762 233
L 762 233
L 762 233
L 762 233
L 762 233
L 762 233
L 762 233
L 762 233
L 762 233
L 762 233
L 762 233
L 762 233
L 762 233
L 762 233
L 762 233
L 762 233
L 762 233
L 762 233
L 762 232
L 762 232
L 762 232
L 762 232
L 762 232
L 762 232
L 762 232
L 762 232
L 762 232
L 762 232
L 762 232
L 762 232
L 762 232
L 762 232
L 762 232
L 762 232
L 762 232
L 762 232
L 762 232
L 762 232
L 762 232
L 762 232
L 762 232
L 762 232
L 762 232
L 762 232
L 762 232
L 762 232
L 762 232
L 762 231
L 762 231
L 762 231
L 762 231
L 762 231
L 762 231
L 762 231
L 762 231
L 762 231
L 762 231
L 762 231
L 762 231
L 762 231
L 762 231
L 762 231
L 762 231
L 762 231
L 762 231
L 762 231
L 762 231
L 762 231
L 762 231
L 762 231
L 762 231
L 762 231
L 762 231
L 762 231
L 762 231
L 762 230
L 762 230
L 762 230
L 762 230
L 762 230
L 762 230
L 762 230
L 762 230
L 762 230
L 762 230
L 762 230
L 762 230
L 762 230
L 762 230
L 762 230
L 762 230
L 762 230
L 762 230
L 762 230
L 762 230
L 762 230
L 762 230
L 762 230
L 762 230
L 762 230
L 762 230
L 762 230
L 762 230
L 762 230
L 762 229
L 762 229
L 762 229
L 762 229
L 762 229
L 762 229
L 762 229
L 762 229
L 762 229
L 762 229
L 762 229
L 762 229
L 762 229
L 762 229
L 762 229
L 762 229
L 762 229
L 762 229
L 762 229
L 762 229
L 762 229
L 762 229
L 762 229
L 762 229
L 762 229
L 762 229
L 762 229
L 762 229
L 762 229
L 762 228
L 762 228
L 762 228
L 762 228
L 762 228
L 762 228
L 762 228
L 762 228
L 762 228
L 762 228
L 762 228
L 762 228
L 762 228
L 762 228
L 762 228
L 762 228
L 762 228
L 762 228
L 762 228
L 762 228
L 762 228
L 762 228
L 763 228
L 763 228
L 763 228
L 763 228
L 763 228
L 763 228
L 763 228
L 763 227
L 763 227
L 763 227
L 763 227
L 763 227
L 763 227
L 763 227
L 763 227
L 763 227
L 763 227
L 763 227
L 763 227
L 763 227
L 763 227
L 763 227
L 763 227
L 763 227
L 763 227
L 763 227
L 763 227
L 763 227
L 763 227
L 763 227
L 763 227
L 763 227
L 763 227
L 763 227
L 763 227
L 763 227
L 763 226
L 763 226
L 763 226
L 763 226
L 763 226
L 763 226
L 763 226
L 763 226
L 763 226
L 763 226
L 763 226
L 763 226
L 763 226
L 763 226
L 763 226
L 763 226
L 763 226
L 763 226
L 763 226
L 763 226
L 763 226
L 763 226
L 763 226
L 763 226
L 763 226
L 763 226
L 763 226
L 763 226
L 763 225
L 763 225
L 763 225
L 763 225
L 763 225
L 763 225
L 763 225
L 763 225
L 763 225
L 763 225
L 763 225
L 763 225
L 763 225
L 763 225
L 763 225
L 763 225
L 763 225
L 763 225
L 763 225
L 763 225
L 763 225
L 763 225
L 763 225
L 763 225
L 763 225
L 763 225
L 763 225
L 763 225
L 763 225
L 763 224
L 763 224
L 763 224
L 763 224
L 763 224
L 763 224
L 763 224
L 763 224
L 763 224
L 763 224
L 763 224
L 763 224
L 763 224
L 763 224
L 763 224
L 764 224
L 764 224
L 764 224
L 764 224
L 764 224
L 764 224
L 764 224
L 764 224
L 764 224
L 764 224
L 764 224
L 765 224
L 765 224
L 765 224
L 765 223
L 765 223
L 765 223
L 765 223
L 765 223
L 765 223
L 765 223
L 765 223
L 765 223
L 765 223
L 765 223
L 765 223
L 765 223
L 765 223
L 765 223
L 765 223
L 765 223
L 765 223
L 765 223
L 765 223
L 766 223
L 766 223
L 766 223
L 766 223
L 766 223
L 766 223
L 766 223
L 766 223
L 766 223
L 766 222
L 766 222
L 766 222
L 766 222
L 766 222
L 766 222
L 766 222
L 766 222
L 766 222
L 766 222
L 766 222
L 766 222
L 766 222
L 766 222
L 766 222
L 766 222
L 766 222
L 766 222
L 766 222
L 766 222
L 766 222
L 766 222
L 766 222
L 767 222
L 767 222
L 767 222
L 767 222
L 767 222
L 767 222
L 767 221
L 767 221
L 767 221
L 767 221
L 767 221
L 767 221
L 767 221
L 767 221
L 767 221
L 767 221
L 767 221
L 767 221
L 767 221
L 767 221
L 767 221
L 767 221
L 767 221
L 767 221
L 767 221
L 767 221
L 767 221
L 767 221
L 768 221
L 768 221
L 768 221
L 768 221
L 768 221
L 768 221
L 768 221
L 768 220
L 768 220
L 768 220
L 768 220
L 768 220
L 768 220
L 768 220
L 768 220
L 768 220
L 768 220
L 768 220
L 768 220
L 768 220
L 768 220
L 768 220
L 769 220
L 769 220
L 769 220
L 769 220
L 769 220
L 769 220
L 769 220
L 769 220
L 769 220
L 769 220
L 769 220
L 769 220
L 769 220
L 769 219
L 769 219
L 769 219
L 769 219
L 769 219
L 769 219
L 769 219
L 769 219
L 769 219
L 769 219
L 769 219
L 769 219
L 769 219
L 769 219
L 769 219
L 769 219
L 769 219
L 769 219
L 770 219
L 770 219
L 770 219
L 770 219
L 770 219
L 770 219
L 770 219
L 770 219
L 770 219
L 770 219
L 770 219
L 770 218
L 770 218
L 770 218
L 770 218
L 770 218
L 770 218
L 770 218
L 770 218
L 770 218
L 770 218
L 770 218
L 770 218
L 770 218
L 770 218
L 770 218
L 771 218
L 771 218
L 771 218
L 771 218
L 771 218
L 771 218
L 771 218
L 771 218
L 771 218
L 771 218
L 771 218
L 771 218
L 771 218
L 771 218
L 771 217
L 771 217
L 771 217
L 771 217
L 771 217
L 771 217
L 772 217
L 772 217
L 772 217
L 772 217
L 772 217
L 772 217
L 772 217
L 772 217
L 772 217
L 772 217
L 772 217
L 772 217
L 772 217
L 772 217
L 772 217
L 772 217
L 772 217
L 772 217
L 772 217
L 773 217
L 773 217
L 773 217
L 773 217
L 773 216
L 773 216
L 773 216
L 773 216
L 773 216
L 774 216
L 774 216
L 774 216
L 774 216
L 774 216
L 774 216
L 774 216
L 774 216
L 774 216
L 774 216
L 774 216
L 774 216
L 774 216
L 774 216
L 774 216
L 774 216
L 774 216
L 775 216
L 775 216
L 775 216
L 775 216
L 775 216
L 775 216
L 775 216
L 775 215
L 775 215
L 775 215
L 775 215
L 775 215
L 775 215
L 775 215
L 775 215
L 775 215
L 775 215
L 775 215
L 775 215
L 775 215
L 775 215
L 775 215
L 775 215
L 775 215
L 775 215
L 776 215
L 776 215
L 776 215
L 776 215
L 776 215
L 776 215
L 776 215
L 776 215
L 776 215
L 776 215
L 776 215
L 776 214
L 776 214
L 776 214
L 776 214
L 776 214
L 776 214
L 776 214
L 776 214
L 776 214
L 777 214
L 777 214
L 777 214
L 777 214
L 777 214
L 777 214
L 777 214
L 777 214
L 777 214
L 777 214
L 777 214
L 777 214
L 777 214
L 777 214
L 777 214
L 777 214
L 778 214
L 778 214
L 778 214
L 778 213
L 778 213
L 778 213
L 778 213
L 778 213
L 779 213
L 779 213
L 779 213
L 779 213
L 779 213
L 779 213
L 779 213
L 779 213
L 780 213
L 780 213
L 780 213
L 780 213
L 780 213
L 780 213
L 780 213
L 780 213
L 780 213
L 780 213
L 780 213
L 780 213
L 780 213
L 780 213
L 780 213
L 780 213
L 780 212
L 780 212
L 780 212
L 780 212
L 780 212
L 780 212
L 780 212
L 780 212
L 780 212
L 780 212
L 780 212
L 780 212
L 780 212
L 780 212
L 780 212
L 780 212
L 780 212
L 780 212
L 780 212
L 780 212
L 780 212
L 780 212
L 780 212
L 780 212
L 780 212
L 780 212
L 780 212
L 780 212
L 780 212
L 780 211
L 781 211
L 781 211
L 781 211
L 781 211
L 781 211
L 781 211
L 781 211
L 781 211
L 781 211
L 781 211
L 781 211
L 781 211
L 781 211
L 781 211
L 781 211
L 781 211
L 781 211
L 781 211
L 781 211
L 781 211
L 781 211
L 781 211
L 781 211
L 781 211
L 781 211
L 781 211
L 781 211
L 781 211
L 781 210
L 781 210
L 781 210
L 781 210
L 781 210
L 781 210
L 781 210
L 781 210
L 781 210
L 781 210
L 781 210
L 781 210
L 781 210
L 781 210
L 781 210
L 781 210
L 781 210
L 781 210
L 781 210
L 781 210
L 781 210
L 781 210
L 781 210
L 781 210
L 781 210
L 781 210
L 781 210
L 781 210
L 781 210
L 781 209
L 781 209
L 781 209
L 781 209
L 781 209
L 781 209
L 781 209
L 781 209
L 781 209
L 781 209
L 781 209
L 781 209
L 781 209
L 781 209
L 781 209
L 781 209
L 781 209
L 781 209
L 781 209
L 781 209
L 781 209
L 781 209
L 781 209
L 781 209
L 781 209
L 781 209
L 781 209
L 781 209
L 781 208
L 781 208
L 781 208
L 781 208
L 781 208
L 781 208
L 781 208
L 781 208
L 781 208
L 781 208
L 781 208
L 781 208
L 781 208
L 781 208
L 781 208
L 781 208
L 781 208
L 781 208
L 781 208
L 781 208
L 781 208
L 781 208
L 781 208
L 781 208
L 781 208
L 781 208
L 781 208
L 781 208
L 781 208
L 781 207
L 781 207
L 781 207
L 781 207
L 781 207
L 781 207
L 781 207
L 781 207
L 781 207
L 781 207
L 781 207
L 781 207
L 781 207
L 781 207
L 781 207
L 781 207
L 781 207
L 781 207
L 781 207
L 781 207
L 781 207
L 781 207
L 781 207
L 781 207
L 781 207
L 781 207
L 781 207
L 781 207
L 781 207
L 781 206
L 781 206
L 781 206
L 781 206
L 781 206
L 781 206
L 781 206
L 781 206
L 781 206
L 781 206
L 781 206
L 781 206
L 781 206
L 781 206
L 781 206
L 781 206
L 781 206
L 781 206
L 781 206
L 781 206
L 781 206
L 781 206
L 781 206
L 781 206
L 781 206
L 781 206
L 781 206
L 781 206
L 781 206
L 781 205
L 781 205
L 781 205
L 781 205
L 781 205
L 781 205
L 781 205
L 781 205
L 781 205
L 781 205
L 781 205
L 781 205
L 781 205
L 781 205
L 781 205
L 781 205
L 781 205
L 781 205
L 781 205
L 781 205
L 781 205
L 781 205
L 781 205
L 781 205
L 781 205
L 781 205
L 781 205
L 781 205
L 781 205
L 781 204
L 781 204
L 781 204
L 781 204
L 781 204
L 781 204
L 781 204
L 781 204
L 781 204
L 781 204
L 781 204
L 781 204
L 781 204
L 781 204
L 781 204
L 781 204
L 781 204
L 781 204
L 781 204
L 781 204
L 781 204
L 781 204
L 781 204
L 781 204
L 781 204
L 781 204
L 781 204
L 781 204
L 781 204
L 781 203
L 781 203
L 781 203
L 781 203
L 781 203
L 781 203
L 781 203
L 781 203
L 781 203
L 781 203
L 781 203
L 781 203
L 781 203
L 781 203
L 781 203
L 781 203
L 781 203
L 781 203
L 781 203
L 781 203
L 781 203
L 781 203
L 781 203
L 781 203
L 781 203
L 781 203
L 781 203
L 781 203
L 781 202
L 781 202
L 781 202
L 781 202
L 781 202
L 781 202
L 781 202
L 781 202
L 781 202
L 781 202
L 781 202
L 781 202
L 781 202
L 781 202
L 781 202
L 781 202
L 782 202
L 782 202
L 782 202
L 782 202
L 782 202
L 782 202
L 782 202
L 782 202
L 782 202
L 782 202
L 782 202
L 782 202
L 782 202
L 782 201
L 782 201
L 782 201
L 782 201
L 782 201
L 782 201
L 782 201
L 782 201
L 782 201
L 782 201
L 782 201
L 782 201
L 782 201
L 782 201
L 782 201
L 782 201
L 782 201
L 782 201
L 782 201
L 782 201
L 782 201
L 782 201
L 782 201
L 782 201
L 782 201
L 782 201
L 782 201
L 782 201
L 782 201
L 782 200
L 782 200
L 782 200
L 782 200
L 782 200
L 782 200
L 782 200
L 782 200
L 782 200
L 782 200
L 782 200
L 782 200
L 782 200
L 782 200
L 782 200
L 782 200
L 782 200
L 782 200
L 782 200
L 782 200
L 782 200
L 782 200
L 782 200
L 782 200
L 782 200
L 782 200
L 782 200
L 782 200
L 782 200
L 782 199
L 782 199
L 782 199
L 782 199
L 782 199
L 782 199
L 782 199
L 782 199
L 782 199
L 782 199
L 782 199
L 782 199
L 782 199
L 782 199
L 782 199
L 782 199
L 782 199
L 782 199
L 782 199
L 782 199
L 782 199
L 782 199
L 782 199
L 782 199
L 782 199
L 782 199
L 782 199
L 782 199
L 782 199
L 782 198
L 782 198
L 782 198
L 782 198
L 782 198
L 782 198
L 782 198
L 782 198
L 782 198
L 782 198
L 782 198
L 782 198
L 782 198
L 782 198
L 782 198
L 782 198
L 782 198
L 782 198
L 782 198
L 782 198
L 782 198
L 782 198
L 782 198
L 782 198
L 782 198
L 782 198
L 782 198
L 782 198
L 782 198
L 782 197
L 782 197
L 782 197
L 782 197
L 782 197
L 782 197
L 782 197
L 782 197
L 782 197
L 782 197
L 782 197
L 782 197
L 782 197
L 782 197
L 782 197
L 782 197
L 782 197
L 782 197
L 782 197
L 782 197
L 782 197
L 782 197
L 782 197
L 782 197
L 782 197
L 782 197
L 782 197
L 782 197
L 782 196
L 782 196
L 782 196
L 782 196
L 782 196
L 782 196
L 782 196
L 782 196
L 782 196
L 782 196
L 782 196
L 782 196
L 782 196
L 782 196
L 782 196
L 782 196
L 782 196
L 782 196
L 782 196
L 782 196
L 782 196
L 782 196
L 782 196
L 782 196
L 782 196
L 782 196
L 782 196
L 782 196
L 782 196
L 782 195
L 782 195
L 782 195
L 782 195
L 782 195
L 782 195
L 782 195
L 782 195
L 782 195
L 782 195
L 782 195
L 782 195
L 782 195
L 782 195
L 782 195
L 782 195
L 782 195
L 782 195
L 782 195
L 782 195
L 782 195
L 782 195
L 782 195
L 782 195
L 782 195
L 782 195
L 782 195
L 782 195
L 782 195
L 782 194
L 782 194
L 782 194
L 782 194
L 782 194
L 782 194
L 782 194
L 782 194
L 782 194
L 782 194
L 782 194
L 782 194
L 782 194
L 782 194
L 782 194
L 782 194
L 782 194
L 782 194
L 782 194
L 782 194
L 782 194
L 782 194
L 782 194
L 782 194
L 782 194
L 782 194
L 782 194
L 782 194
L 782 194
L 782 193
L 782 193
L 782 193
L 782 193
L 782 193
L 782 193
L 782 193
L 782 193
L 782 193
L 782 193
L 782 193
L 782 193
L 782 193
L 782 193
L 782 193
L 782 193
L 782 193
L 782 193
L 782 193
L 782 193
L 782 193
L 782 193
L 782 193
L 782 193
L 782 193
L 782 193
L 782 193
L 782 193
L 782 193
L 782 192
L 782 192
L 782 192
L 782 192
L 782 192
L 782 192
L 782 192
L 782 192
L 782 192
L 782 192
L 782 192
L 782 192
L 782 192
L 782 192
L 782 192
L 782 192
L 782 192
L 782 192
L 782 192
L 782 192
L 782 192
L 782 192
L 782 192
L 782 192
L 782 192
L 782 192
L 782 192
L 782 192
L 782 191
L 782 191
L 782 191
L 782 191
L 782 191
L 782 191
L 782 191
L 782 191
L 782 191
L 782 191
L 782 191
L 782 191
L 782 191
L 782 191
L 782 191
L 782 191
L 782 191
L 782 191
L 782 191
L 782 191
L 782 191
L 782 191
L 782 191
L 782 191
L 782 191
L 782 191
L 782 191
L 782 191
L 782 191
L 782 190
L 782 190
L 782 190
L 782 190
L 782 190
L 782 190
L 782 190
L 782 190
L 782 190
L 782 190
L 782 190
L 782 190
L 782 190
L 782 190
L 782 190
L 782 190
L 782 190
L 782 190
L 782 190
L 782 190
L 782 190
L 782 190
L 782 190
L 782 190
L 782 190
L 782 190
L 782 190
L 782 190
L 782 190
L 782 189
L 782 189
L 783 189
L 783 189
L 783 189
L 783 189
L 783 189
L 783 189
L 783 189
L 783 189
L 783 189
L 783 189
L 783 189
L 783 189
L 783 189
L 783 189
L 783 189
L 783 189
L 783 189
L 783 189
L 783 189
L 783 189
L 783 189
L 783 189
L 783 189
L 783 189
L 783 189
L 783 189
L 783 189
L 783 188
L 783 188
L 783 188
L 783 188
L 783 188
L 783 188
L 783 188
L 783 188
L 783 188
L 783 188
L 783 188
L 783 188
L 783 188
L 783 188
L 783 188
L 783 188
L 783 188
L 783 188
L 783 188
L 783 188
L 783 188
L 783 188
L 783 188
L 783 188
L 783 188
L 783 188
L 783 188
L 783 188
L 783 188
L 783 187
L 783 187
L 783 187
L 783 187
L 783 187
L 783 187
L 783 187
L 783 187
L 783 187
L 783 187
L 783 187
L 783 187
L 783 187
L 783 187
L 783 187
L 783 187
L 783 187
L 783 187
L 783 187
L 783 187
L 783 187
L 783 187
L 783 187
L 783 187
L 783 187
L 783 187
L 783 187
L 783 187
L 783 187
L 783 186
L 783 186
L 783 186
L 783 186
L 783 186
L 783 186
L 783 186
L 783 186
L 783 186
L 783 186
L 783 186
L 783 186
L 783 186
L 783 186
L 783 186
L 783 186
L 783 186
L 783 186
L 783 186
L 783 186
L 783 186
L 783 186
L 783 186
L 783 186
L 783 186
L 783 186
L 783 186
L 783 186
L 783 185
L 783 185
L 783 185
L 783 185
L 783 185
L 783 185
L 783 185
L 783 185
L 783 185
L 783 185
L 783 185
L 783 185
L 783 185
L 783 185
L 783 185
L 783 185
L 783 185
L 783 185
L 783 185
L 783 185
L 783 185
L 783 185
L 783 185
L 783 185
L 783 185
L 783 185
L 783 185
L 783 185
L 783 185
L 783 184
L 783 184
L 783 184
L 783 184
L 783 184
L 783 184
L 783 184
L 783 184
L 783 184
L 783 184
L 783 184
L 783 184
L 783 184
L 783 184
L 783 184
L 783 184
L 783 184
L 783 184
L 783 184
L 783 184
L 783 184
L 783 184
L 783 184
L 783 184
L 783 184
L 783 184
L 783 184
L 783 184
L 783 184
L 783 183
L 783 183
L 783 183
L 783 183
L 783 183
L 783 183
L 783 183
L 783 183
L 783 183
L 783 183
L 783 183
L 783 183
L 783 183
L 783 183
L 783 183
L 783 183
L 783 183
L 783 183
L 783 183
L 783 183
L 783 183
L 783 183
L 783 183
L 783 183
L 783 183
L 783 183
L 783 183
L 783 183
L 783 183
L 783 182
L 783 182
L 783 182
L 783 182
L 783 182
L 783 182
L 783 182
L 783 182
L 783 182
L 783 182
L 783 182
L 783 182
L 783 182
L 783 182
L 783 182
L 783 182
L 783 182
L 783 182
L 783 182
L 783 182
L 783 182
L 783 182
L 783 182
L 783 182
L 783 182
L 783 182
L 783 182
L 783 182
L 783 182
L 783 181
L 783 181
L 783 181
L 783 181
L 783 181
L 783 181
L 783 181
L 783 181
L 783 181
L 783 181
L 783 181
L 783 181
L 783 181
L 783 181
L 783 181
L 783 181
L 783 181
L 783 181
L 783 181
L 783 181
L 783 181
L 783 181
L 783 181
L 783 181
L 783 181
L 783 181
L 783 181
L 783 181
L 783 181
L 783 180
L 783 180
L 783 180
L 783 180
L 783 180
L 783 180
L 783 180
L 783 180
L 783 180
L 783 180
L 783 180
L 783 180
L 783 180
L 783 180
L 783 180
L 783 180
L 783 180
L 783 180
L 783 180
L 783 180
L 783 180
L 783 180
L 783 180
L 783 180
L 783 180
L 783 180
L 783 180
L 783 180
L 783 179
L 783 179
L 783 179
L 783 179
L 783 179
L 783 179
L 783 179
L 783 179
L 783 179
L 783 179
L 783 179
L 783 179
L 783 179
L 784 179
L 784 179
L 784 179
L 784 179
L 784 179
L 784 179
L 784 179
L 784 179
L 784 179
L 784 179
L 784 179
L 784 179
L 784 179
L 784 179
L 784 179
L 784 179
L 784 178
L 784 178
L 784 178
L 784 178
L 784 178
L 784 178
L 784 178
L 784 178
L 784 178
L 784 178
L 784 178
L 784 178
L 784 178
L 784 178
L 784 178
L 784 178
L 784 178
L 784 178
L 784 178
L 784 178
L 784 178
L 784 178
L 784 178
L 784 178
L 784 178
L 784 178
L 784 178
L 784 178
L 784 178
L 784 177
L 784 177
L 784 177
L 784 177
L 784 177
L 784 177
L 784 177
L 784 177
L 784 177
L 784 177
L 784 177
L 784 177
L 784 177
L 784 177
L 784 177
L 784 177
L 784 177
L 784 177
L 784 177
L 784 177
L 784 177
L 784 177
L 784 177
L 784 177
L 784 177
L 784 177
L 784 177
L 784 177
L 784 177
L 784 176
L 784 176
L 784 176
L 784 176
L 784 176
L 784 176
L 784 176
L 784 176
L 784 176
L 784 176
L 784 176
L 784 176
L 784 176
L 784 176
L 784 176
L 784 176
L 784 176
L 784 176
L 784 176
L 784 176
L 784 176
L 784 176
L 784 176
L 784 176
L 784 176
L 784 176
L 784 176
L 784 176
L 784 176
L 784 175
L 784 175
L 784 175
L 784 175
L 784 175
L 784 175
L 784 175
L 784 175
L 784 175
L 784 175
L 784 175
L 784 175
L 784 175
L 784 175
L 784 175
L 784 175
L 784 175
L 784 175
L 784 175
L 784 175
L 784 175
L 784 175
L 784 175
L 784 175
L 784 175
L 784 175
L 784 175
L 784 175
L 784 174
L 784 174
L 784 174
L 784 174
L 784 174
L 784 174
L 784 174
L 784 174
L 784 174
L 784 174
L 784 174
L 784 174
L 784 174
L 784 174
L 784 174
L 784 174
L 784 174
L 784 174
L 784 174
L 784 174
L 784 174
L 784 174
L 784 174
L 784 174
L 784 174
L 784 174
L 784 174
L 784 174
L 784 174
L 784 173
L 784 173
L 784 173
L 784 173
L 784 173
L 784 173
L 784 173
L 784 173
L 784 173
L 784 173
L 784 173
L 784 173
L 784 173
L 784 173
L 784 173
L 784 173
L 784 173
L 784 173
L 784 173
L 784 173
L 784 173
L 784 173
L 784 173
L 784 173
L 784 173
L 784 173
L 784 173
L 784 173
L 784 173
L 784 172
L 784 172
L 784 172
L 784 172
L 784 172
L 784 172
L 784 172
L 784 172
L 784 172
L 784 172
L 784 172
L 784 172
L 784 172
L 784 172
L 784 172
L 784 172
L 784 172
L 784 172
L 784 172
L 784 172
L 784 172
L 784 172
L 784 172
L 784 172
L 784 172
L 784 172
L 784 172
L 784 172
L 784 172
L 785 171
L 785 171
L 785 171
L 785 171
L 785 171
L 785 171
L 785 171
L 785 171
L 785 171
L 785 171
L 785 171
L 785 171
L 785 171
L 785 171
L 785 171
L 785 171
L 785 171
L 785 171
L 785 171
L 785 171
L 785 171
L 785 171
L 785 171
L 785 171
L 785 171
L 785 171
L 785 171
L 785 171
L 785 171
L 785 170
L 785 170
L 786 170
L 786 170
L 786 170
L 786 170
L 786 170
L 786 170
L 786 170
L 786 170
L 786 170
L 786 170
L 786 170
L 786 170
L 786 170
L 786 170
L 786 170
L 786 170
L 786 170
L 786 170
L 786 170
L 786 170
L 786 170
L 786 170
L 786 170
L 786 170
L 786 170
L 786 170
L 786 170
L 786 169
L 786 169
L 786 169
L 786 169
L 786 169
L 786 169
L 786 169
L 786 169
L 786 169
L 786 169
L 786 169
L 786 169
L 786 169
L 786 169
L 786 169
L 786 169
L 786 169
L 786 169
L 786 169
L 786 169
L 786 169
L 786 169
L 786 169
L 786 169
L 786 169
L 786 169
L 786 169
L 786 169
L 786 168
L 786 168
L 786 168
L 786 168
L 786 168
L 786 168
L 786 168
L 786 168
L 786 168
L 786 168
L 786 168
L 786 168
L 786 168
L 786 168
L 786 168
L 786 168
L 786 168
L 786 168
L 786 168
L 786 168
L 786 168
L 786 168
L 786 168
L 786 168
L 786 168
L 786 168
L 786 168
L 786 168
L 786 168
L 786 167
L 786 167
L 786 167
L 786 167
L 786 167
L 786 167
L 786 167
L 786 167
L 786 167
L 786 167
L 786 167
L 786 167
L 786 167
L 787 167
L 787 167
L 787 167
L 787 167
L 787 167
L 787 167
L 787 167
L 787 167
L 787 167
L 787 167
L 787 167
L 787 167
L 787 167
L 787 167
L 787 167
L 787 167
L 787 166
L 787 166
L 787 166
L 787 166
L 787 166
L 787 166
L 787 166
L 787 166
L 787 166
L 787 166
L 787 166
L 787 166
L 787 166
L 787 166
L 787 166
L 787 166
L 787 166
L 787 166
L 787 166
L 787 166
L 787 166
L 787 166
L 787 166
L 787 166
L 787 166
L 787 166
L 787 166
L 787 166
L 787 166
L 787 165
L 787 165
L 787 165
L 787 165
L 787 165
L 787 165
L 787 165
L 787 165
L 787 165
L 787 165
L 787 165
L 788 165
L 788 165
L 788 165
L 788 165
L 788 165
L 788 165
L 788 165
L 788 165
L 788 165
L 788 165
L 788 165
L 788 165
L 788 165
L 788 165
L 788 165
L 788 165
L 788 165
L 788 165
L 788 164
L 788 164
L 788 164
L 788 164
L 788 164
L 788 164
L 788 164
L 788 164
L 788 164
L 788 164
L 788 164
L 788 164
L 788 164
L 788 164
L 788 164
L 788 164
L 788 164
L 788 164
L 788 164
L 789 164
L 789 164
L 789 164
L 789 164
L 789 164
L 789 164
L 789 164
L 789 164
L 789 164
L 789 163
L 789 163
L 789 163
L 789 163
L 789 163
L 789 163
L 789 163
L 790 163
L 790 163
L 790 163
L 790 163
L 790 163
L 790 163
L 790 163
L 790 163
L 790 163
L 790 163
L 790 163
L 790 163
L 790 163
L 790 163
L 790 163
L 790 163
L 790 163
L 790 163
L 790 163
L 790 163
L 790 163
L 790 163
L 790 162
L 790 162
L 790 162
L 790 162
L 790 162
L 790 162
L 790 162
L 791 162
L 791 162
L 791 162
L 791 162
L 791 162
L 791 162
L 791 162
L 791 162
L 791 162
L 791 162
L 791 162
L 791 162
L 791 162
L 791 162
L 791 162
L 791 162
L 791 162
L 791 162
L 791 162
L 791 162
L 791 162
L 791 162
L 791 161
L 791 161
L 791 161
L 791 161
L 791 161
L 791 161
L 791 161
L 791 161
L 791 161
L 792 161
L 792 161
L 792 161
L 792 161
L 792 161
L 792 161
L 792 161
L 792 161
L 792 161
L 792 161
L 792 161
L 792 161
L 792 161
L 792 161
L 792 161
L 792 161
L 792 161
L 793 161
L 793 161
L 793 161
L 793 160
L 793 160
L 793 160
L 793 160
L 793 160
L 793 160
L 793 160
L 793 160
L 793 160
L 793 160
L 793 160
L 793 160
L 793 160
L 793 160
L 793 160
L 793 160
L 793 160
L 793 160
L 793 160
L 793 160
L 793 160
L 793 160
L 793 160
L 793 160
L 793 160
L 793 160
L 793 160
L 793 160
L 793 160
L 793 159
L 793 159
L 793 159
L 794 159
L 794 159
L 794 159
L 794 159
L 794 159
L 794 159
L 794 159
L 794 159
L 794 159
L 794 159
L 794 159
L 794 159
L 794 159
L 794 159
L 794 159
L 794 159
L 794 159
L 795 159
L 795 159
L 795 159
L 795 159
L 795 159
L 795 159
L 795 159
L 795 159
L 795 159
L 795 158
L 795 158
L 795 158
L 795 158
L 796 158
L 796 158
L 796 158
L 796 158
L 796 158
L 796 158
L 796 158
L 796 158
L 796 158
L 796 158
L 796 158
L 796 158
L 797 158
L 797 158
L 797 158
L 797 158
L 797 158
L 797 158
L 797 158
L 797 158
L 797 158
L 797 158
L 797 158
L 797 158
L 797 157
L 797 157
L 797 157
L 797 157
L 797 157
L 797 157
L 797 157
L 797 157
L 797 157
L 797 157
L 797 157
L 797 157
L 797 157
L 797 157
L 797 157
L 797 157
L 797 157
L 797 157
L 797 157
L 797 157
L 797 157
L 797 157
L 797 157
L 797 157
L 797 157
L 797 157
L 797 157
L 797 157
L 797 157
L 797 156
L 797 156
L 797 156
L 797 156
L 797 156
L 797 156
L 797 156
L 798 156
L 798 156
L 798 156
L 798 156
L 798 156
L 798 156
L 798 156
L 798 156
L 798 156
L 798 156
L 798 156
L 798 156
L 798 156
L 798 156
L 798 156
L 798 156
L 798 156
L 798 156
L 798 156
L 798 156
L 798 156
L 798 156
L 798 155
L 798 155
L 798 155
L 798 155
L 798 155
L 798 155
L 798 155
L 798 155
L 798 155
L 798 155
L 798 155
L 798 155
L 798 155
L 798 155
L 798 155
L 798 155
L 798 155
L 798 155
L 798 155
L 798 155
L 798 155
L 798 155
L 798 155
L 798 155
L 799 155
L 799 155
L 799 155
L 799 155
L 799 155
L 799 154
L 799 154
L 799 154
L 799 154
L 799 154
L 799 154
L 799 154
L 799 154
L 799 154
L 799 154
L 799 154
L 799 154
L 799 154
L 799 154
L 799 154
L 799 154
L 799 154
L 799 154
L 799 154
L 799 154
L 799 154
L 799 154
L 799 154
L 799 154
L 799 154
L 799 154
L 799 154
L 799 154
L 799 154
L 799 153
L 799 153
L 799 153
L 799 153
L 799 153
L 799 153
L 799 153
L 799 153
L 799 153
L 799 153
L 799 153
L 799 153
L 799 153
L 799 153
L 799 153
L 800 153
L 800 153
L 800 153
L 800 153
L 800 153
L 800 153
L 800 153
L 800 153
L 800 153
L 800 153
L 800 153
L 800 153
L 800 153
L 800 153
L 800 152
L 800 152
L 800 152
L 800 152
L 800 152
L 800 152
L 801 152
L 801 152
L 801 152
L 801 152
L 801 152
L 801 152
L 801 152
L 801 152
L 801 152
L 801 152
L 801 152
L 801 152
L 801 152
L 801 152
L 801 152
L 801 152
L 801 152
L 801 152
L 801 152
L 801 152
L 801 152
L 801 152
L 801 151
L 801 151
L 801 151
L 801 151
L 801 151
L 801 151
L 801 151
L 801 151
L 801 151
L 801 151
L 801 151
L 801 151
L 801 151
L 801 151
L 801 151
L 801 151
L 801 151
L 801 151
L 802 151
L 802 151
L 802 151
L 802 151
L 802 151
L 802 151
L 802 151
L 802 151
L 802 151
L 802 151
L 802 151
L 802 150
L 802 150
L 802 150
L 802 150
L 802 150
L 802 150
L 802 150
L 802 150
L 802 150
L 802 150
L 802 150
L 802 150
L 802 150
L 803 150
L 803 150
L 803 150
L 803 150
L 803 150
L 803 150
L 803 150
L 803 150
L 803 150
L 803 150
L 803 150
L 803 150
L 803 150
L 803 150
L 803 150
L 803 150
L 803 149
L 803 149
L 803 149
L 803 149
L 803 149
L 803 149
L 803 149
L 803 149
L 803 149
L 803 149
L 803 149
L 803 149
L 803 149
L 804 149
L 804 149
L 804 149
L 804 149
L 804 149
L 804 149
L 804 149
L 804 149
L 804 149
L 804 149
L 804 149
L 804 149
L 804 149
L 804 149
L 804 149
L 804 149
L 804 148
L 804 148
L 804 148
L 805 148
L 805 148
L 805 148
L 806 148
L 806 148
L 806 148
L 806 148
L 806 148
L 806 148
L 806 148
L 806 148
L 806 148
L 806 148
L 806 148
L 807 148
L 807 148
L 807 148
L 807 148
L 807 148
L 807 148
L 807 148
L 807 148
L 807 148
L 807 148
L 807 148
L 807 148
L 807 147
L 807 147
L 807 147
L 808 147
L 808 147
L 808 147
L 808 147
L 808 147
L 808 147
L 808 147
L 808 147
L 808 147
L 808 147
L 808 147
L 809 147
L 809 147
L 809 147
L 809 147
L 809 147
L 809 147
L 809 147
L 809 147
L 809 147
L 809 147
L 809 147
L 809 147
L 809 147
L 809 147
L 809 147
L 810 146
L 810 146
L 810 146
L 810 146
L 810 146
L 810 146
L 810 146
L 810 146
L 811 146
L 811 146
L 811 146
L 811 146
L 811 146
L 811 146
L 811 146
L 811 146
L 812 146
L 812 146
L 812 146
L 812 146
L 812 146
L 812 146
L 812 146
L 812 146
L 812 146
L 812 146
L 812 146
L 813 146
L 813 145
L 813 145
L 813 145
L 813 145
L 813 145
L 813 145
L 813 145
L 813 145
L 813 145
L 813 145
L 813 145
L 813 145
L 813 145
L 814 145
L 814 145
L 814 145
L 814 145
L 814 145
L 814 145
L 814 145
L 814 145
L 814 145
L 814 145
L 814 145
L 815 145
L 815 145
L 815 145
L 815 145
L 815 145
L 815 144
L 815 144
L 815 144
L 815 144
L 815 144
L 815 144
L 815 144
L 815 144
L 815 144
L 815 144
L 815 144
L 815 144
L 815 144
L 816 144
L 816 144
L 816 144
L 816 144
L 816 144
L 817 144
L 817 144
L 817 144
L 817 144
L 817 144
L 817 144
L 817 144
L 817 144
L 817 144
L 817 144
L 817 144
L 817 143
L 817 143
L 818 143
L 818 143
L 818 143
L 818 143
L 818 143
L 818 143
L 818 143
L 818 143
L 818 143
L 818 143
L 818 143
L 818 143
L 818 143
L 818 143
L 818 143
L 819 143
L 819 143
L 819 143
L 819 143
L 819 143
L 819 143
L 819 143
L 819 143
L 819 143
L 819 143
L 819 143
L 819 143
L 819 142
L 820 142
L 820 142
L 820 142
L 820 142
L 820 142
L 820 142
L 820 142
L 820 142
L 820 142
L 821 142
L 821 142
L 821 142
L 821 142
L 821 142
L 821 142
L 822 142
L 822 142
L 822 142
L 822 142
L 822 142
L 822 142
L 822 142
L 822 142
L 822 142
L 822 142
L 822 142
L 823 142
L 823 142
L 823 141
L 823 141
L 823 141
L 823 141
L 823 141
L 823 141
L 823 141
L 823 141
L 823 141
L 823 141
L 823 141
L 823 141
L 823 141
L 823 141
L 823 141
L 823 141
L 823 141
L 823 141
L 823 141
L 823 141
L 823 141
L 823 141
L 823 141
L 823 141
L 823 141
L 823 141
L 823 141
L 823 141
L 823 140
L 823 140
L 823 140
L 823 140
L 823 140
L 823 140
L 823 140
L 823 140
L 823 140
L 824 140
L 824 140
L 824 140
L 824 140
L 824 140
L 824 140
L 824 140
L 824 140
L 824 140
L 824 140
L 824 140
L 824 140
L 824 140
L 824 140
L 824 140
L 824 140
L 824 140
L 824 140
L 825 140
L 825 140
L 825 139
L 825 139
L 825 139
L 825 139
L 825 139
L 825 139
L 825 139
L 825 139
L 825 139
L 825 139
L 825 139
L 825 139
L 825 139
L 825 139
L 825 139
L 825 139
L 825 139
L 825 139
L 825 139
L 825 139
L 825 139
L 825 139
L 825 139
L 825 139
L 825 139
L 825 139
L 825 139
L 825 139
L 825 139
L 825 138
L 826 138
L 826 138
L 826 138
L 826 138
L 826 138
L 826 138
L 826 138
L 826 138
L 826 138
L 826 138
L 826 138
L 826 138
L 827 138
L 827 138
L 827 138
L 827 138
L 827 138
L 827 138
L 827 138
L 827 138
L 827 138
L 827 138
L 827 138
L 828 138
L 828 138
L 828 138
L 828 138
L 828 138
L 828 137
L 828 137
L 828 137
L 828 137
L 828 137
L 828 137
L 828 137
L 828 137
L 828 137
L 828 137
L 829 137
L 829 137
L 829 137
L 829 137
L 829 137
L 829 137
L 829 137
L 829 137
L 829 137
L 829 137
L 829 137
L 829 137
L 829 137
L 829 137
L 829 137
L 830 137
L 830 137
L 830 137
L 830 137
L 830 136
L 830 136
L 830 136
L 830 136
L 830 136
L 830 136
L 830 136
L 830 136
L 830 136
L 830 136
L 830 136
L 831 136
L 831 136
L 831 136
L 831 136
L 831 136
L 831 136
L 831 136
L 831 136
L 831 136
L 831 136
L 831 136
L 831 136
L 831 136
L 832 136
L 832 136
L 832 136
L 832 136
L 832 136
L 832 135
L 832 135
L 832 135
L 832 135
L 832 135
L 833 135
L 833 135
L 833 135
L 833 135
L 833 135
L 833 135
L 833 135
L 833 135
L 833 135
L 834 135
L 834 135
L 834 135
L 834 135
L 834 135
L 834 135
L 834 135
L 834 135
L 834 135
L 834 135
L 834 135
L 835 135
L 835 135
L 835 135
L 835 134
L 835 134
L 835 134
L 835 134
L 835 134
L 835 134
L 835 134
L 835 134
L 835 134
L 835 134
L 835 134
L 835 134
L 835 134
L 836 134
L 836 134
L 836 134
L 836 134
L 836 134
L 836 134
L 836 134
L 836 134
L 836 134
L 836 134
L 836 134
L 836 134
L 836 134
L 837 134
L 837 134
L 837 134
L 837 133
L 837 133
L 837 133
L 837 133
L 838 133
L 838 133
L 838 133
L 838 133
L 838 133
L 838 133
L 838 133
L 838 133
L 838 133
L 838 133
L 838 133
L 838 133
L 838 133
L 838 133
L 838 133
L 838 133
L 839 133
L 839 133
L 839 133
L 839 133
L 839 133
L 839 133
L 839 133
L 839 133
L 839 133
L 839 132
L 839 132
L 839 132
L 839 132
L 839 132
L 839 132
L 839 132
L 839 132
L 839 132
L 839 132
L 839 132
L 839 132
L 839 132
L 840 132
L 840 132
L 840 132
L 840 132
L 840 132
L 840 132
L 840 132
L 840 132
L 840 132
L 841 132
L 841 132
L 841 132
L 841 132
L 841 132
L 841 132
L 841 132
L 841 131
L 841 131
L 841 131
L 841 131
L 842 131
L 842 131
L 842 131
L 842 131
L 842 131
L 842 131
L 842 131
L 842 131
L 842 131
L 843 131
L 843 131
L 843 131
L 843 131
L 843 131
L 843 131
L 843 131
L 843 131
L 843 131
L 844 131
L 844 131
L 844 131
L 844 131
L 844 131
L 844 131
L 844 131
L 844 130
L 844 130
L 844 130
L 844 130
L 844 130
L 844 130
L 844 130
L 845 130
L 845 130
L 845 130
L 845 130
L 845 130
L 845 130
L 845 130
L 845 130
L 845 130
L 845 130
L 845 130
L 845 130
L 845 130
L 845 130
L 846 130
L 846 130
L 846 130
L 846 130
L 846 130
L 846 130
L 846 130
L 846 130
L 846 129
L 846 129
L 846 129
L 846 129
L 846 129
L 847 129
L 847 129
L 847 129
L 847 129
L 847 129
L 847 129
L 848 129
L 848 129
L 848 129
L 848 129
L 848 129
L 848 129
L 848 129
L 848 129
L 848 129
L 848 129
L 849 129
L 849 129
L 849 129
L 849 129
L 849 129
L 849 129
L 849 129
L 849 128
L 849 128
L 849 128
L 849 128
L 849 128
L 849 128
L 849 128
L 850 128
L 850 128
L 850 128
L 850 128
L 850 128
L 850 128
L 850 128
L 850 128
L 850 128
L 850 128
L 850 128
L 851 128
L 851 128
L 851 128
L 851 128
L 851 128
L 851 128
L 851 128
L 851 128
L 851 128
L 851 128
L 851 128
L 851 127
L 851 127
L 851 127
L 851 127
L 851 127
L 851 127
L 851 127
L 851 127
L 851 127
L 851 127
L 851 127
L 851 127
L 851 127
L 851 127
L 851 127
L 851 127
L 851 127
L 851 127
L 851 127
L 851 127
L 851 127
L 851 127
L 851 127
L 851 127
L 851 127
L 851 127
L 851 127
L 851 127
L 851 127
L 851 126
L 851 126
L 851 126
L 851 126
L 851 126
L 851 126
L 851 126
L 851 126
L 851 126
L 851 126
L 851 126
L 851 126
L 851 126
L 852 126
L 852 126
L 852 126
L 852 126
L 852 126
L 852 126
L 852 126
L 852 126
L 852 126
L 852 126
L 852 126
L 852 126
L 852 126
L 852 126
L 852 126
L 852 126
L 852 125
L 852 125
L 852 125
L 852 125
L 852 125
L 852 125
L 852 125
L 852 125
L 852 125
L 852 125
L 852 125
L 852 125
L 852 125
L 852 125
L 852 125
L 852 125
L 852 125
L 852 125
L 852 125
L 852 125
L 852 125
L 852 125
L 852 125
L 852 125
L 852 125
L 852 125
L 852 125
L 852 125
L 852 125
L 853 124
L 853 124
L 853 124
L 853 124
L 853 124
L 853 124
L 853 124
L 853 124
L 853 124
L 853 124
L 853 124
L 853 124
L 853 124
L 853 124
L 853 124
L 854 124
L 854 124
L 854 124
L 854 124
L 854 124
L 854 124
L 854 124
L 854 124
L 854 124
L 854 124
L 854 124
L 854 124
L 854 124
L 854 123
L 854 123
L 854 123
L 854 123
L 854 123
L 854 123
L 854 123
L 855 123
L 855 123
L 855 123
L 855 123
L 855 123
L 855 123
L 855 123
L 855 123
L 855 123
L 855 123
L 855 123
L 855 123
L 855 123
L 855 123
L 855 123
L 855 123
L 855 123
L 855 123
L 855 123
L 855 123
L 855 123
L 855 123
L 855 122
L 855 122
L 855 122
L 855 122
L 855 122
L 855 122
L 855 122
L 855 122
L 855 122
L 855 122
L 855 122
L 855 122
L 855 122
L 855 122
L 855 122
L 855 122
L 855 122
L 855 122
L 855 122
L 855 122
L 855 122
L 855 122
L 855 122
L 855 122
L 855 122
L 855 122
L 855 122
L 855 122
L 855 122
L 855 121
L 855 121
L 856 121
L 856 121
L 856 121
L 856 121
L 856 121
L 856 121
L 856 121
L 856 121
L 856 121
L 856 121
L 856 121
L 856 121
L 856 121
L 856 121
L 856 121
L 856 121
L 856 121
L 856 121
L 856 121
L 856 121
L 856 121
L 856 121
L 856 121
L 856 121
L 856 121
L 856 121
L 856 121
L 856 120
L 856 120
L 856 120
L 856 120
L 856 120
L 856 120
L 856 120
L 856 120
L 856 120
L 856 120
L 856 120
L 856 120
L 856 120
L 856 120
L 856 120
L 856 120
L 856 120
L 856 120
L 856 120
L 856 120
L 856 120
L 856 120
L 856 120
L 856 120
L 856 120
L 856 120
L 856 120
L 856 120
L 856 120
L 856 119
L 856 119
L 856 119
L 856 119
L 856 119
L 857 119
L 857 119
L 857 119
L 857 119
L 857 119
L 857 119
L 857 119
L 857 119
L 857 119
L 857 119
L 857 119
L 857 119
L 857 119
L 857 119
L 857 119
L 857 119
L 857 119
L 857 119
L 857 119
L 857 119
L 857 119
L 857 119
L 857 119
L 857 119
L 857 118
L 857 118
L 857 118
L 857 118
L 857 118
L 857 118
L 857 118
L 857 118
L 857 118
L 857 118
L 857 118
L 857 118
L 857 118
L 857 118
L 857 118
L 857 118
L 857 118
L 857 118
L 857 118
L 857 118
L 857 118
L 857 118
L 857 118
L 857 118
L 857 118
L 857 118
L 857 118
L 857 118
L 857 117
L 857 117
L 857 117
L 857 117
L 857 117
L 857 117
L 857 117
L 857 117
L 857 117
L 857 117
L 857 117
L 858 117
L 858 117
L 858 117
L 858 117
L 858 117
L 858 117
L 858 117
L 858 117
L 858 117
L 858 117
L 858 117
L 858 117
L 858 117
L 858 117
L 858 117
L 858 117
L 858 117
L 858 117
L 858 116
L 858 116
L 858 116
L 858 116
L 858 116
L 858 116
L 858 116
L 858 116
L 858 116
L 858 116
L 858 116
L 858 116
L 858 116
L 858 116
L 858 116
L 858 116
L 858 116
L 858 116
L 858 116
L 858 116
L 859 116
L 859 116
L 859 116
L 859 116
L 859 116
L 859 116
L 859 116
L 859 116
L 859 116
L 859 115
L 859 115
L 859 115
L 859 115
L 859 115
L 859 115
L 859 115
L 859 115
L 859 115
L 859 115
L 859 115
L 859 115
L 860 115
L 860 115
L 860 115
L 860 115
L 860 115
L 860 115
L 860 115
L 860 115
L 860 115
L 860 115
L 860 115
L 860 115
L 860 115
L 860 115
L 860 115
L 860 115
L 860 115
L 860 114
L 860 114
L 860 114
L 860 114
L 860 114
L 860 114
L 860 114
L 860 114
L 860 114
L 860 114
L 860 114
L 860 114
L 860 114
L 860 114
L 861 114
L 861 114
L 861 114
L 861 114
L 861 114
L 861 114
L 861 114
L 861 114
L 861 114
L 861 114
L 861 114
L 861 114
L 861 114
L 861 114
L 861 114
L 861 113
L 861 113
L 861 113
L 861 113
L 861 113
L 861 113
L 861 113
L 861 113
L 861 113
L 861 113
L 861 113
L 861 113
L 861 113
L 861 113
L 862 113
L 862 113
L 862 113
L 862 113
L 862 113
L 862 113
L 862 113
L 862 113
L 862 113
L 862 113
L 862 113
L 862 113
L 862 113
L 862 113
L 862 113
L 863 112
L 863 112
L 863 112
L 863 112
L 863 112
L 863 112
L 863 112
L 863 112
L 863 112
L 863 112
L 864 112
L 864 112
L 864 112
L 864 112
L 864 112
L 864 112
L 864 112
L 864 112
L 864 112
L 864 112
L 864 112
L 864 112
L 864 112
L 865 112
L 865 112
L 865 112
L 865 112
L 865 112
L 865 111
L 865 111
L 865 111
L 865 111
L 865 111
L 865 111
L 865 111
L 865 111
L 865 111
L 865 111
L 865 111
L 865 111
L 865 111
L 865 111
L 865 111
L 865 111
L 865 111
L 865 111
L 865 111
L 865 111
L 865 111
L 865 111
L 865 111
L 865 111
L 865 111
L 866 111
L 866 111
L 866 111
L 866 111
L 866 110
L 866 110
L 866 110
L 866 110
L 866 110
L 866 110
L 866 110
L 866 110
L 866 110
L 866 110
L 866 110
L 866 110
L 866 110
L 866 110
L 866 110
L 867 110
L 867 110
L 867 110
L 867 110
L 867 110
L 867 110
L 867 110
L 867 110
L 867 110
L 867 110
L 867 110
L 867 110
L 867 110
L 867 110
L 867 109
L 867 109
L 867 109
L 867 109
L 867 109
L 867 109
L 867 109
L 867 109
L 867 109
L 867 109
L 867 109
L 867 109
L 867 109
L 867 109
L 867 109
L 867 109
L 867 109
L 867 109
L 867 109
L 867 109
L 867 109
L 868 109
L 868 109
L 868 109
L 868 109
L 868 109
L 868 109
L 868 109
L 868 109
L 868 108
L 868 108
L 868 108
L 868 108
L 868 108
L 868 108
L 868 108
L 868 108
L 868 108
L 868 108
L 868 108
L 868 108
L 868 108
L 868 108
L 869 108
L 869 108
L 869 108
L 869 108
L 869 108
L 869 108
L 869 108
L 869 108
L 869 108
L 869 108
L 869 108
L 869 108
L 869 108
L 869 108
L 869 108
L 869 107
L 869 107
L 869 107
L 869 107
L 869 107
L 869 107
L 869 107
L 869 107
L 869 107
L 869 107
L 869 107
L 869 107
L 869 107
L 870 107
L 870 107
L 870 107
L 870 107
L 870 107
L 870 107
L 870 107
L 870 107
L 870 107
L 870 107
L 870 107
L 871 107
L 871 107
L 871 107
L 871 107
L 871 106
L 871 106
L 871 106
L 871 106
L 871 106
L 871 106
L 872 106
L 872 106
L 872 106
L 872 106
L 872 106
L 872 106
L 872 106
L 872 106
L 872 106
L 872 106
L 872 106
L 872 106
L 872 106
L 872 106
L 872 106
L 872 106
L 872 106
L 872 106
L 872 106
L 873 106
L 873 106
L 873 106
L 873 106
L 873 105
L 873 105
L 873 105
L 873 105
L 873 105
L 873 105
L 873 105
L 873 105
L 873 105
L 873 105
L 873 105
L 873 105
L 873 105
L 873 105
L 873 105
L 873 105
L 873 105
L 873 105
L 873 105
L 873 105
L 873 105
L 873 105
L 873 105
L 873 105
L 873 105
L 873 105
L 873 105
L 873 105
L 873 105
L 873 104
L 874 104
L 874 104
L 874 104
L 874 104
L 874 104
L 874 104
L 874 104
L 874 104
L 874 104
L 874 104
L 874 104
L 874 104
L 874 104
L 874 104
L 874 104
L 874 104
L 874 104
L 875 104
L 875 104
L 875 104
L 875 104
L 875 104
L 875 104
L 875 104
L 875 104
L 875 104
L 875 104
L 875 104
L 875 103
L 875 103
L 876 103
L 876 103
L 876 103
L 876 103
L 876 103
L 876 103
L 876 103
L 876 103
L 876 103
L 876 103
L 876 103
L 876 103
L 876 103
L 876 103
L 876 103
L 876 103
L 876 103
L 876 103
L 877 103
L 877 103
L 877 103
L 877 103
L 877 103
L 877 103
L 877 103
L 877 103
L 877 103
L 877 102
L 877 102
L 877 102
L 877 102
L 877 102
L 878 102
L 878 102
L 878 102
L 878 102
L 878 102
L 878 102
L 878 102
L 878 102
L 878 102
L 878 102
L 878 102
L 878 102
L 879 102
L 879 102
L 879 102
L 879 102
L 879 102
L 879 102
L 880 102
L 880 102
L 880 102
L 880 102
L 880 102
L 880 102
L 880 101
L 880 101
L 880 101
L 880 101
L 880 101
L 881 101
L 881 101
L 881 101
L 881 101
L 881 101
L 881 101
L 881 101
L 881 101
L 881 101
L 881 101
L 882 101
L 883 101
L 883 101
L 883 101
L 883 101
L 883 101
L 883 101
L 883 101
L 883 101
L 883 101
L 884 101
L 884 101
L 884 101
L 884 100
L 884 100
L 884 100
L 884 100
L 884 100
L 884 100
L 884 100
L 884 100
L 884 100
L 885 100
L 885 100
L 885 100
L 885 100
L 885 100
L 885 100
L 886 100
L 886 100
L 886 100
L 886 100
L 886 100
L 886 100
L 886 100
L 886 100
L 887 100
L 887 100
L 887 100
L 887 100
L 887 100
L 887 100
L 887 99
L 887 99
L 887 99
L 887 99
L 887 99
L 887 99
L 887 99
L 887 99
L 887 99
L 887 99
L 887 99
L 887 99
L 887 99
L 888 99
L 888 99
L 888 99
L 888 99
L 888 99
L 888 99
L 888 99
L 888 99
L 888 99
L 888 99
L 888 99
L 888 99
L 888 99
L 888 99
L 888 99
L 888 99
L 888 98
L 888 98
L 888 98
L 888 98
L 888 98
L 888 98
L 888 98
L 889 98
L 889 98
L 889 98
L 889 98
L 889 98
L 889 98
L 889 98
L 889 98
L 889 98
L 889 98
L 889 98
L 889 98
L 889 98
L 889 98
L 889 98
L 889 98
L 889 98
L 889 98
L 889 98
L 889 98
L 889 98
L 889 98
L 889 97
L 890 97
L 890 97
L 890 97
L 890 97
L 890 97
L 890 97
L 890 97
L 890 97
L 890 97
L 890 97
L 890 97
L 890 97
L 891 97
L 891 97
L 891 97
L 891 97
L 891 97
L 891 97
L 892 97
L 892 97
L 892 97
L 892 97
L 892 97
L 892 97
L 892 97
L 892 97
L 892 97
L 893 97
L 893 96
L 893 96
L 893 96
L 893 96
L 893 96
L 893 96
L 893 96
L 893 96
L 893 96
L 893 96
L 893 96
L 894 96
L 894 96
L 894 96
L 894 96
L 894 96
L 894 96
L 894 96
L 894 96
L 894 96
L 894 96
L 895 96
L 895 96
L 895 96
L 895 96
L 895 96
L 895 96
L 895 96
L 896 96
L 896 95
L 896 95
L 896 95
L 896 95
L 896 95
L 896 95
L 897 95
L 897 95
L 897 95
L 897 95
L 897 95
L 897 95
L 897 95
L 897 95
L 897 95
L 897 95
L 897 95
L 898 95
L 898 95
L 898 95
L 898 95
L 898 95
L 898 95
L 898 95
L 898 95
L 898 95
L 898 95
L 898 95
L 898 94
L 898 94
L 899 94
L 899 94
L 899 94
L 899 94
L 899 94
L 899 94
L 899 94
L 899 94
L 899 94
L 899 94
L 899 94
L 899 94
L 899 94
L 899 94
L 899 94
L 899 94
L 899 94
L 899 94
L 899 94
L 899 94
L 899 94
L 899 94
L 899 94
L 899 94
L 899 94
L 899 94
L 899 94
L 900 93
L 900 93
L 900 93
L 900 93
L 900 93
L 900 93
L 900 93
L 900 93
L 900 93
L 900 93
L 900 93
L 900 93
L 900 93
L 900 93
L 901 93
L 901 93
L 901 93
L 901 93
L 901 93
L 901 93
L 901 93
L 901 93
L 901 93
L 901 93
L 901 93
L 902 93
L 902 93
L 902 93
L 902 93
L 902 92
L 902 92
L 902 92
L 902 92
L 902 92
L 902 92
L 902 92
L 903 92
L 903 92
L 903 92
L 903 92
L 903 92
L 903 92
L 903 92
L 903 92
L 903 92
L 903 92
L 903 92
L 903 92
L 903 92
L 903 92
L 903 92
L 903 92
L 903 92
L 904 92
L 904 92
L 904 92
L 904 92
L 904 92
L 904 91
L 904 91
L 904 91
L 904 91
L 904 91
L 904 91
L 904 91
L 905 91
L 905 91
L 905 91
L 905 91
L 905 91
L 905 91
L 905 91
L 905 91
L 905 91
L 905 91
L 905 91
L 906 91
L 906 91
L 906 91
L 906 91
L 906 91
L 906 91
L 906 91
L 906 91
L 906 91
L 906 91
L 906 91
L 906 90
L 907 90
L 907 90
L 907 90
L 907 90
L 907 90
L 907 90
L 907 90
L 907 90
L 908 90
L 908 90
L 908 90
L 908 90
L 908 90
L 908 90
L 908 90
L 909 90
L 909 90
L 909 90
L 909 90
L 909 90
L 909 90
L 909 90
L 909 90
L 909 90
L 909 90
L 909 90
L 910 90
L 910 89
L 910 89
L 910 89
L 910 89
L 910 89
L 910 89
L 910 89
L 911 89
L 911 89
L 911 89
L 911 89
L 911 89
L 911 89
L 912 89
L 912 89
L 912 89
L 912 89
L 912 89
L 913 89
L 913 89
L 913 89
L 913 89
L 913 89
L 913 89
L 913 89
L 914 89
L 914 89
L 914 89
L 914 89
L 914 88
L 914 88
L 914 88
L 914 88
L 914 88
L 914 88
L 915 88
L 915 88
L 915 88
L 915 88
L 915 88
L 915 88
L 915 88
L 915 88
L 915 88
L 915 88
L 915 88
L 915 88
L 915 88
L 915 88
L 915 88
L 915 88
L 915 88
L 915 88
L 916 88
L 916 88
L 916 88
L 916 88
L 916 88
L 916 87
L 916 87
L 916 87
L 916 87
L 916 87
L 916 87
L 916 87
L 916 87
L 916 87
L 916 87
L 916 87
L 916 87
L 917 87
L 917 87
L 917 87
L 917 87
L 917 87
L 917 87
L 917 87
L 917 87
L 917 87
L 917 87
L 917 87
L 918 87
L 918 87
L 918 87
L 918 87
L 918 87
L 919 87
L 919 86
L 919 86
L 919 86
L 919 86
L 919 86
L 919 86
L 919 86
L 919 86
L 919 86
L 919 86
L 919 86
L 919 86
L 919 86
L 920 86
L 920 86
L 920 86
L 920 86
L 920 86
L 920 86
L 920 86
L 920 86
L 920 86
L 920 86
L 920 86
L 920 86
L 921 86
L 921 86
L 921 86
L 921 86
L 922 85
L 922 85
L 922 85
L 922 85
L 923 85
L 923 85
L 923 85
L 924 85
L 924 85
L 924 85
L 924 85
L 924 85
L 924 85
L 924 85
L 924 85
L 924 85
L 924 85
L 924 85
L 925 85
L 925 85
L 925 85
L 925 85
L 925 85
L 925 85
L 925 85
L 925 85
L 925 85
L 925 85
L 925 85
L 925 84
L 926 84
L 926 84
L 926 84
L 926 84
L 926 84
L 926 84
L 926 84
L 926 84
L 926 84
L 926 84
L 926 84
L 926 84
L 926 84
L 926 84
L 926 84
L 926 84
L 926 84
L 926 84
L 926 84
L 926 84
L 926 84
L 926 84
L 926 84
L 926 84
L 926 84
L 926 84
L 926 84
L 926 83
L 926 83
L 927 83
L 927 83
L 927 83
L 927 83
L 927 83
L 927 83
L 927 83
L 927 83
L 927 83
L 927 83
L 927 83
L 927 83
L 927 83
L 927 83
L 927 83
L 927 83
L 928 83
L 928 83
L 928 83
L 928 83
L 928 83
L 928 83
L 928 83
L 928 83
L 928 83
L 928 83
L 928 83
L 928 82
L 928 82
L 928 82
L 928 82
L 928 82
L 928 82
L 928 82
L 928 82
L 928 82
L 928 82
L 928 82
L 928 82
L 928 82
L 928 82
L 928 82
L 928 82
L 929 82
L 929 82
L 929 82
L 929 82
L 929 82
L 929 82
L 929 82
L 929 82
L 929 82
L 929 82
L 929 82
L 929 82
L 929 82
L 929 81
L 929 81
L 929 81
L 929 81
L 929 81
L 929 81
L 929 81
L 929 81
L 929 81
L 929 81
L 929 81
L 929 81
L 929 81
L 929 81
L 929 81
L 929 81
L 929 81
L 929 81
L 929 81
L 929 81
L 929 81
L 929 81
L 929 81
L 929 81
L 929 81
L 929 81
L 929 81
L 929 81
L 929 81
L 929 80
L 929 80
L 929 80
L 929 80
L 929 80
L 929 80
L 929 80
L 929 80
L 929 80
L 929 80
L 929 80
L 929 80
L 929 80
L 929 80
L 929 80
L 929 80
L 929 80
L 929 80
L 929 80
L 929 80
L 929 80
L 929 80
L 929 80
L 929 80
L 929 80
L 929 80
L 929 80
L 929 80
L 929 80
L 929 79
L 929 79
L 929 79
L 929 79
L 929 79
L 929 79
L 929 79
L 929 79
L 929 79
L 929 79
L 929 79
L 929 79
L 929 79
L 929 79
L 929 79
L 929 79
L 929 79
L 929 79
L 929 79
L 929 79
L 930 79
L 930 79
L 930 79
L 930 79
L 930 79
L 930 79
L 930 79
L 930 79
L 930 79
L 930 78
L 930 78
L 930 78
L 930 78
L 930 78
L 930 78
L 930 78
L 930 78
L 930 78
L 930 78
L 930 78
L 930 78
L 930 78
L 930 78
L 930 78
L 930 78
L 930 78
L 930 78
L 930 78
L 930 78
L 930 78
L 930 78
L 930 78
L 930 78
L 930 78
L 930 78
L 930 78
L 930 78
L 930 77
L 930 77
L 930 77
L 930 77
L 930 77
L 930 77
L 930 77
L 930 77
L 930 77
L 930 77
L 930 77
L 930 77
L 930 77
L 930 77
L 930 77
L 930 77
L 930 77
L 930 77
L 930 77
L 930 77
L 930 77
L 930 77
L 930 77
L 930 77
L 930 77
L 930 77
L 930 77
L 930 77
L 930 77
L 930 76
L 930 76
L 930 76
L 930 76
L 930 76
L 930 76
L 930 76
L 930 76
L 930 76
L 930 76
L 930 76
L 930 76
L 930 76
L 930 76
L 930 76
L 930 76
L 930 76
L 930 76
L 930 76
L 930 76
L 930 76
L 930 76
L 930 76
L 930 76
L 930 76
L 930 76
L 930 76
L 930 76
L 930 76
L 930 75
L 930 75
L 930 75
L 930 75
L 930 75
L 930 75
L 930 75
L 930 75
L 930 75
L 930 75
L 930 75
L 930 75
L 930 75
L 930 75
L 930 75
L 930 75
L 930 75
L 930 75
L 930 75
L 930 75
L 930 75
L 930 75
L 930 75
L 930 75
L 930 75
L 930 75
L 930 75
L 930 75
L 930 75
L 930 74
L 930 74
L 930 74
L 930 74
L 930 74
L 930 74
L 930 74
L 930 74
L 930 74
L 930 74
L 930 74
L 930 74
L 930 74
L 930 74
L 930 74
L 930 74
L 930 74
L 930 74
L 930 74
L 930 74
L 930 74
L 930 74
L 930 74
L 930 74
L 930 74
L 930 74
L 930 74
L 930 74
L 930 74
L 930 73
L 930 73
L 930 73
L 930 73
L 930 73
L 930 73
L 930 73
L 930 73
L 930 73
L 930 73
L 930 73
L 930 73
L 930 73
L 930 73
L 930 73
L 930 73
L 930 73
L 930 73
L 930 73
L 930 73
L 930 73
L 930 73
L 930 73
L 930 73
L 930 73
L 930 73
L 930 73
L 930 73
L 930 72
L 930 72
L 930 72
L 931 72
L 931 72
L 931 72
L 931 72
L 931 72
L 931 72
L 931 72
L 931 72
L 931 72
L 931 72
L 931 72
L 931 72
L 931 72
L 931 72
L 931 72
L 931 72
L 931 72
L 931 72
L 931 72
L 931 72
L 931 72
L 931 72
L 931 72
L 931 72
L 931 72
L 931 72
L 931 71
L 931 71
L 931 71
L 931 71
L 931 71
L 931 71
L 931 71
L 931 71
L 931 71
L 931 71
L 931 71
L 931 71
L 931 71
L 931 71
L 931 71
L 931 71
L 931 71
L 931 71
L 931 71
L 931 71
L 931 71
L 931 71
L 931 71
L 931 71
L 931 71
L 931 71
L 931 71
L 931 71
L 931 71
L 931 70
L 931 70
L 931 70
L 931 70
L 931 70
L 931 70
L 931 70
L 931 70
L 931 70
L 931 70
L 931 70
L 931 70
L 931 70
L 931 70
L 931 70
L 931 70
L 931 70
L 931 70
L 931 70
L 931 70
L 931 70
L 931 70
L 931 70
L 931 70
L 931 70
L 931 70
L 931 70
L 931 70
L 931 70
L 931 69
L 931 69
L 931 69
L 931 69
L 931 69
L 931 69
L 931 69
L 931 69
L 931 69
L 931 69
L 931 69
L 931 69
L 931 69
L 931 69
L 931 69
L 931 69
L 931 69
L 931 69
L 931 69
L 931 69
L 931 69
L 931 69
L 931 69
L 931 69
L 931 69
L 931 69
L 931 69
L 931 69
L 931 69
L 931 68
L 931 68
L 931 68
L 931 68
L 931 68
L 931 68
L 931 68
L 931 68
L 931 68
L 931 68
L 931 68
L 931 68
L 931 68
L 931 68
L 931 68
L 931 68
L 931 68
L 931 68
L 931 68
L 931 68
L 931 68
L 931 68
L 931 68
L 931 68
L 931 68
L 931 68
L 931 68
L 931 68
L 931 68
L 931 67
L 931 67
L 931 67
L 931 67
L 931 67
L 931 67
L 931 67
L 931 67
L 931 67
L 931 67
L 931 67
L 931 67
L 931 67
L 931 67
L 931 67
L 931 67
L 931 67
L 931 67
L 931 67
L 931 67
L 931 67
L 931 67
L 931 67
L 931 67
L 931 67
L 931 67
L 931 67
L 931 67
L 931 66
L 931 66
L 931 66
L 931 66
L 931 66
L 931 66
L 931 66
L 931 66
L 931 66
L 931 66
L 931 66
L 931 66
L 931 66
L 931 66
L 931 66
L 931 66
L 931 66
L 931 66
L 931 66
L 931 66
L 931 66
L 931 66
L 931 66
L 931 66
L 931 66
L 931 66
L 931 66
L 931 66
L 931 66
L 931 65
L 931 65
L 931 65
L 931 65
L 931 65
L 931 65
L 931 65
L 931 65
L 931 65
L 931 65
L 931 65
L 931 65
L 931 65
L 931 65
L 931 65
L 931 65
L 931 65
L 931 65
L 931 65
L 931 65
L 931 65
L 931 65
L 931 65
L 931 65
L 931 65
L 931 65
L 931 65
L 931 65
L 931 65
L 931 64
L 931 64
L 931 64
L 931 64
L 931 64
L 931 64
L 931 64
L 931 64
L 931 64
L 931 64
L 932 64
L 932 64
L 932 64
L 932 64
L 932 64
L 932 64
L 932 64
L 932 64
L 932 64
L 932 64
L 932 64
L 932 64
L 932 64
L 932 64
L 932 64
L 932 64
L 932 64
L 932 64
L 932 64
L 932 63
L 932 63
L 932 63
L 932 63
L 932 63
L 932 63
L 932 63
L 932 63
L 932 63
L 932 63
L 932 63
L 932 63
L 932 63
L 932 63
L 932 63
L 932 63
L 932 63
L 932 63
L 932 63
L 932 63
L 932 63
L 932 63
L 932 63
L 932 63
L 932 63
L 932 63
L 932 63
L 932 63
L 932 63
L 932 62
L 932 62
L 932 62
L 932 62
L 932 62
L 932 62
L 932 62
L 932 62
L 932 62
L 932 62
L 932 62
L 932 62
L 932 62
L 932 62
L 932 62
L 932 62
L 932 62
L 932 62
L 932 62
L 932 62
L 932 62
L 932 62
L 932 62
L 932 62
L 932 62
L 932 62
L 932 62
L 932 62
L 932 62
L 932 61
L 932 61
L 932 61
L 932 61
L 932 61
L 932 61
L 932 61
L 932 61
L 932 61
L 932 61
L 932 61
L 932 61
L 932 61
L 932 61
L 932 61
L 932 61
L 932 61
L 932 61
L 932 61
L 932 61
L 932 61
L 932 61
L 932 61
L 932 61
L 932 61
L 932 61
L 932 61
L 932 61
L 932 60
L 932 60
L 932 60
L 932 60
L 932 60
L 932 60
L 932 60
L 932 60
L 932 60
L 932 60
L 932 60
L 932 60
L 932 60
L 932 60
L 932 60
L 932 60
L 932 60
L 932 60
L 932 60
L 932 60
L 932 60
L 932 60
L 932 60
L 932 60
L 932 60
L 932 60
L 932 60
L 932 60
L 932 60
L 932 59
L 932 59
L 932 59
L 932 59
L 932 59
L 932 59
L 932 59
L 932 59
L 932 59
L 932 59
L 932 59
L 932 59
L 932 59
L 932 59
L 932 59
L 932 59
L 932 59
L 932 59
L 932 59
L 932 59
L 932 59
L 932 59
L 932 59
L 932 59
L 932 59
L 932 59
L 932 59
L 932 59
L 932 59
L 932 58
L 932 58
L 932 58
L 932 58
L 932 58
L 932 58
L 932 58
L 932 58
L 932 58
L 932 58
L 932 58
L 932 58
L 932 58
L 932 58
L 932 58
L 932 58
L 932 58
L 932 58
L 932 58
L 932 58
L 932 58
L 932 58
L 932 58
L 932 58
L 932 58
L 932 58
L 932 58
L 932 58
L 932 58
L 932 57
L 932 57
L 932 57
L 932 57
L 932 57
L 932 57
L 932 57
L 932 57
L 932 57
L 932 57
L 932 57
L 932 57
L 932 57
L 932 57
L 932 57
L 932 57
L 932 57
L 932 57
L 932 57
L 932 57
L 932 57
L 932 57
L 932 57
L 932 57
L 932 57
L 932 57
L 932 57
L 932 57
L 932 57
L 932 56
L 932 56
L 932 56
L 932 56
L 932 56
L 932 56
L 932 56
L 932 56
L 932 56
L 932 56
L 932 56
L 932 56
L 932 56
L 932 56
L 932 56
L 932 56
L 932 56
L 932 56
L 932 56
L 932 56
L 932 56
L 932 56
L 932 56
L 932 56
L 932 56
L 932 56
L 932 56
L 932 56
L 932 55
L 932 55
L 932 55
L 932 55
L 932 55
L 932 55
L 932 55
L 932 55
L 932 55
L 932 55
L 932 55
L 932 55
L 932 55
L 932 55
L 932 55
L 932 55
L 932 55
L 932 55
L 932 55
L 932 55
L 932 55
L 932 55
L 932 55
L 932 55
L 932 55
L 932 55
L 932 55
L 932 55
L 932 55
L 932 54
L 932 54
L 932 54
L 932 54
L 932 54
L 932 54
L 932 54
L 932 54
L 932 54
L 932 54
L 932 54
L 932 54
L 932 54
L 932 54
L 932 54
L 932 54
L 932 54
L 932 54
L 932 54
L 932 54
L 932 54
L 932 54
L 932 54
L 932 54
L 932 54
L 932 54
L 932 54
L 932 54
L 932 54
L 932 53
L 932 53
L 932 53
L 932 53
L 932 53
L 932 53
L 932 53
L 932 53
L 932 53
L 932 53
L 932 53
L 932 53
L 932 53
L 933 53
L 933 53
L 933 53
L 933 53
L 933 53
L 933 53
L 933 53
L 933 53
L 933 53
L 933 53
L 933 53
L 933 53
L 933 53
L 933 53
L 933 53
L 933 53
L 933 52
L 933 52
L 933 52
L 933 52
L 933 52
L 933 52
L 933 52
L 933 52
L 933 52
L 933 52
L 933 52
L 933 52
L 933 52
L 933 52
L 933 52
L 933 52
L 933 52
L 933 52
L 933 52
L 933 52
L 933 52
L 933 52
L 933 52
L 933 52
L 933 52
L 933 52
L 933 52
L 933 52
L 933 52
L 933 51
L 933 51
L 933 51
L 933 51
L 933 51
L 933 51
L 933 51
L 933 51
L 933 51
L 933 51
L 933 51
L 933 51
L 933 51
L 933 51
L 933 51
L 933 51
L 933 51
L 933 51
L 933 51
L 933 51
L 933 51
L 933 51
L 933 51
L 933 51
L 933 51
L 933 51
L 933 51
L 933 51
L 933 51
L 933 50
L 933 50
L 933 50
L 933 50
L 933 50
L 933 50
L 933 50
L 933 50
L 933 50
L 933 50
L 933 50
L 933 50
L 933 50
L 933 50
L 933 50
L 933 50
L 933 50
L 933 50
L 933 50
L 933 50
L 933 50
L 933 50
L 933 50
L 933 50
L 933 50
L 933 50
L 933 50
L 933 50
L 933 49
L 933 49
L 933 49
L 933 49
L 933 49
L 933 49
L 933 49
L 933 49
L 933 49
L 933 49
L 933 49
L 933 49
L 933 49
L 933 49
L 933 49
L 933 49
L 933 49
L 933 49
L 933 49
L 933 49
L 933 49
L 933 49
L 933 49
L 933 49
L 933 49
L 933 49
L 933 49
L 933 49
L 933 49
L 933 48
L 933 48
L 933 48
L 933 48
L 933 48
L 933 48
L 933 48
L 933 48
L 933 48
L 933 48
L 933 48
L 933 48
L 933 48
L 933 48
L 933 48
L 933 48
L 933 48
L 933 48
L 933 48
L 933 48
L 933 48
L 933 48
L 933 48
L 933 48
L 933 48
L 933 48
L 933 48
L 933 48
L 933 48
L 933 47
L 933 47
L 933 47
L 933 47
L 933 47
L 933 47
L 933 47
L 933 47
L 933 47
L 933 47
L 933 47
L 933 47
L 933 47
L 933 47
L 933 47
L 933 47
L 933 47
L 933 47
L 933 47
L 933 47
L 933 47
L 933 47
L 933 47
L 933 47
L 933 47
L 933 47
L 933 47
L 933 47
L 933 47
L 933 46
L 933 46
L 933 46
L 933 46
L 933 46
L 933 46
L 933 46
L 933 46
L 933 46
L 933 46
L 933 46
L 933 46
L 933 46
L 933 46
L 933 46
L 933 46
L 933 46
L 933 46
L 933 46
L 933 46
L 933 46
L 934 46
L 934 46
L 934 46
L 934 46
L 934 46
L 934 46
L 934 46
L 934 46
L 934 45
L 934 45
L 934 45
L 934 45
L 934 45
L 934 45
L 934 45
L 934 45
L 934 45
L 934 45
L 934 45
L 934 45
L 934 45
L 934 45
L 934 45
L 934 45
L 934 45
L 934 45
L 934 45
L 934 45
L 934 45
L 934 45
L 934 45
L 934 45
L 934 45
L 934 45
L 934 45
L 934 45
L 934 45
L 934 44
L 934 44
L 934 44
L 934 44
L 934 44
L 934 44
L 934 44
L 934 44
L 934 44
L 934 44
L 934 44
L 934 44
L 934 44
L 934 44
L 934 44
L 934 44
L 934 44
L 934 44
L 934 44
L 934 44
L 934 44
L 934 44
L 934 44
L 934 44
L 934 44
L 934 44
L 934 44
L 934 44
L 934 43
L 934 43
L 934 43
L 934 43
L 934 43
L 934 43
L 934 43
L 934 43
L 934 43
L 934 43
L 934 43
L 934 43
L 934 43
L 934 43
L 934 43
L 934 43
L 934 43
L 934 43
L 934 43
L 934 43
L 934 43
L 934 43
L 934 43
L 934 43
L 934 43
L 934 43
L 934 43
L 934 43
L 934 43
L 934 42
L 934 42
L 934 42
L 934 42
L 934 42
L 934 42
L 934 42
L 934 42
L 934 42
L 934 42
L 934 42
L 934 42
L 934 42
L 934 42
L 934 42
L 934 42
L 934 42
L 934 42
L 934 42
L 934 42
L 934 42
L 934 42
L 934 42
L 934 42
L 934 42
L 934 42
L 934 42
L 934 42
L 934 42
L 934 41
L 934 41
L 934 41
L 934 41
L 934 41
L 934 41
L 934 41
L 934 41
L 934 41
L 934 41
L 934 41
L 934 41
L 934 41
L 934 41
L 934 41
L 934 41
L 934 41
L 934 41
L 934 41
L 934 41
L 934 41
L 934 41
L 934 41
L 934 41
L 934 41
L 934 41
L 934 41
L 934 41
L 934 41
L 934 40
L 934 40
L 934 40
L 934 40
L 934 40
L 934 40
L 934 40
L 934 40
L 934 40
L 934 40
L 934 40
L 934 40
L 934 40
L 934 40
L 934 40
L 934 40
L 934 40
L 934 40
L 934 40
L 934 40
L 934 40
L 934 40
L 934 40
L 934 40
L 934 40
L 934 40
L 934 40
L 934 40
L 934 40
L 934 39
L 934 39
L 934 39
L 934 39
L 934 39
L 934 39
L 934 39
L 934 39
L 934 39
L 934 39
L 934 39
L 934 39
L 934 39
L 934 39
L 934 39
L 934 39
L 934 39
L 934 39
L 934 39
L 934 39
L 934 39
L 934 39
L 934 39
L 934 39
L 934 39
L 934 39
L 934 39
L 934 39
L 934 38
L 934 38
L 934 38
L 934 38
L 934 38
L 934 38
L 934 38
L 934 38
L 934 38
L 934 38
L 934 38
L 934 38
L 934 38
L 934 38
L 934 38
L 934 38
L 934 38
L 934 38
L 934 38
L 934 38
L 934 38
L 934 38
L 934 38
L 934 38
L 934 38
L 934 38
L 934 38
L 934 38
L 934 38
L 934 37
L 934 37
L 934 37
L 934 37
L 934 37
L 934 37
L 934 37
L 934 37
L 934 37
L 934 37
L 934 37
L 934 37
L 934 37
L 934 37
L 934 37
L 934 37
L 935 37
L 935 37
L 935 37
L 935 37
L 935 37
L 935 37
L 935 37
L 935 37
L 935 37
L 935 37
L 935 37
L 935 37
L 935 37
L 935 36
L 935 36
L 935 36
L 935 36
L 935 36
L 935 36
L 935 36
L 935 36
L 935 36
L 935 36
L 935 36
L 935 36
L 935 36
L 935 36
L 935 36
L 935 36
L 935 36
L 935 36
L 935 36
L 935 36
L 935 36
L 935 36
L 935 36
L 935 36
L 935 36
L 935 36
L 935 36
L 935 36
L 935 36
L 935 35
L 935 35
L 935 35
L 935 35
L 935 35
L 935 35
L 935 35
L 935 35
L 935 35
L 935 35
L 935 35
L 935 35
L 935 35
L 935 35
L 935 35
L 935 35
L 935 35
L 935 35
L 935 35
L 935 35
L 935 35
L 935 35
L 935 35
L 935 35
L 935 35
L 935 35
L 935 35
L 935 35
L 935 35
L 935 34
L 935 34
L 935 34
L 935 34
L 935 34
L 935 34
L 935 34
L 935 34
L 935 34
L 935 34
L 935 34
L 935 34
L 935 34
L 935 34
L 935 34
L 935 34
L 935 34
L 935 34
L 935 34
L 935 34
L 935 34
L 935 34
L 935 34
L 935 34
L 935 34
L 935 34
L 935 34
L 935 34
L 935 34
L 935 33
L 935 33
L 935 33
L 935 33
L 935 33
L 935 33
L 935 33
L 935 33
L 935 33
L 935 33
L 935 33
L 935 33
L 935 33
L 935 33
L 935 33
L 935 33
L 935 33
L 935 33
L 935 33
L 935 33
L 935 33
L 935 33
L 935 33
L 935 33
L 935 33
L 935 33
L 935 33
L 935 33
L 935 32
L 935 32
L 935 32
L 935 32
L 935 32
L 935 32
L 935 32
L 935 32
L 935 32
L 935 32
L 935 32
L 935 32
L 935 32
L 935 32
L 935 32
L 935 32
L 935 32
L 935 32
L 935 32
L 935 32
L 935 32
L 935 32
L 935 32
L 935 32
L 935 32
L 935 32
L 935 32
L 935 32
L 935 32
L 935 31
L 935 31
L 935 31
L 935 31
L 935 31
L 935 31
L 935 31
L 935 31
L 935 31
L 935 31
L 935 31
L 935 31
L 935 31
L 935 31
L 935 31
L 935 31
L 935 31
L 935 31
L 935 31
L 935 31
L 935 31
L 935 31
L 935 31
L 935 31
L 935 31
L 935 31
L 935 31
L 935 31
L 935 31
L 935 30
L 935 30
L 935 30
L 935 30
L 935 30
L 935 30
L 935 30
L 935 30
L 935 30
L 935 30
L 936 30
L 936 30
L 936 30
L 936 30
L 936 30
L 936 30
L 936 30
L 936 30
L 936 30
L 936 30
L 936 30
L 936 30
L 936 30
L 936 30
L 936 30
L 936 30
L 936 30
L 936 30
L 936 30
L 936 29
L 936 29
L 936 29
L 936 29
L 936 29
L 936 29
L 936 29
L 936 29
L 936 29
L 936 29
L 936 29
L 936 29
L 936 29
L 936 29
L 936 29
L 936 29
L 936 29
L 936 29
L 936 29
L 936 29
L 936 29
L 936 29
L 936 29
L 936 29
L 936 29
L 937 29
L 937 29
L 937 29
L 937 29
L 937 28
L 937 28
L 937 28
L 937 28
L 937 28
L 937 28
L 937 28
L 937 28
L 937 28
L 937 28
L 937 28
L 937 28
L 937 28
L 937 28
L 937 28
L 937 28
L 937 28
L 937 28
L 937 28
L 937 28
L 937 28
L 937 28
L 937 28
L 937 28
L 937 28
L 937 28
L 937 28
L 937 28
L 937 28
L 937 27
L 937 27
L 937 27
L 937 27
L 937 27
L 938 27
L 938 27
L 938 27
L 938 27
L 938 27
L 938 27
L 938 27
L 938 27
L 938 27
L 938 27
L 938 27
L 938 27
L 938 27
L 938 27
L 938 27
L 938 27
L 938 27
L 938 27
L 938 27
L 938 27
L 938 27
L 938 27
L 938 27
L 938 26
L 938 26
L 938 26
L 938 26
L 939 26
L 939 26
L 939 26
L 939 26
L 939 26
L 939 26
L 939 26
L 939 26
L 939 26
L 939 26
L 939 26
L 939 26
L 939 26
L 939 26
L 939 26
L 939 26
L 939 26
L 939 26
L 939 26
L 939 26
L 939 26
L 939 26
L 939 26
L 939 26
L 939 26
L 939 25
L 940 25
L 940 25
L 940 25
L 940 25
L 940 25
L 940 25
L 940 25
L 940 25
L 940 25
L 940 25
L 940 25
L 940 25
L 940 25
L 940 25
L 940 25
L 940 25
L 940 25
L 940 25
L 941 25
L 941 25
L 941 25
L 941 25
L 941 25
L 941 25
L 941 25
L 941 25
L 941 25
L 941 25
L 941 24
L 941 24
L 941 24
L 941 24
L 941 24
L 941 24
L 941 24
L 941 24
L 941 24
L 941 24
L 941 24
L 941 24
L 941 24
L 941 24
L 941 24
L 941 24
L 942 24
L 942 24
L 942 24
L 942 24
L 942 24
L 942 24
L 942 24
L 942 24
L 942 24
L 942 24
L 942 24
L 943 24
L 943 24
L 943 23
L 943 23
L 943 23
L 943 23
L 943 23
L 943 23
L 943 23
L 943 23
L 943 23
L 943 23
L 944 23
L 944 23
L 944 23
L 944 23
L 944 23
L 944 23
L 944 23
L 944 23
L 944 23
L 945 23
L 945 23
L 945 23
L 945 23
L 945 23
L 945 23
L 945 23
L 945 23
L 945 23
L 945 23
L 945 22
L 945 22
L 945 22
L 945 22
L 945 22
L 945 22
L 945 22
L 945 22
L 945 22
L 945 22
L 945 22
L 945 22
L 946 22
L 946 22
L 946 22
L 946 22
L 946 22
L 946 22
L 946 22
L 946 22
L 946 22
L 946 22
L 946 22
L 946 22
L 946 22
L 946 22
L 946 22
L 946 22
L 946 21
L 947 21
L 947 21
L 947 21
L 947 21
L 947 21
L 947 21
L 947 21
L 947 21
L 947 21
L 947 21
L 947 21
L 947 21
L 947 21
L 947 21
L 947 21
L 947 21
L 947 21
L 947 21
L 947 21
L 948 21
L 948 21
L 948 21
L 948 21
L 948 21
L 948 21
L 948 21
L 948 21
L 948 21
L 948 20
L 948 20
L 948 20
L 949 20
L 949 20
L 949 20
L 949 20
L 949 20
L 949 20
L 950 20
L 950 20
L 950 20
L 950 20
L 950 20
L 950 20
L 950 20
L 950 20
L 950 20
L 950 20
L 950 20
L 950 20
L 950 20
L 950 20
L 950 20
L 950 20
L 950 20
L 950 20
L 950 20
L 951 20
L 951 19
L 951 19
L 951 19
L 951 19
L 951 19
L 951 19
L 951 19
L 951 19
L 951 19
L 951 19
L 951 19
L 951 19
L 951 19
L 951 19
L 951 19
L 951 19
L 951 19
L 951 19
L 951 19
L 951 19
L 951 19
L 951 19
L 951 19
L 951 19
L 951 19
L 951 19
L 951 19
L 951 19
L 951 19
L 951 18
L 951 18
L 951 18
L 952 18
L 952 18
L 952 18
L 952 18
L 952 18
L 952 18
L 952 18
L 952 18
L 952 18
L 952 18
L 952 18
L 952 18
L 952 18
L 952 18
L 952 18
L 952 18
L 952 18
L 952 18
L 952 18
L 952 18
L 952 18
L 952 18
L 952 18
L 952 18
L 952 18
L 952 18
L 952 17
L 953 17
L 953 17
L 953 17
L 953 17
L 953 17
L 953 17
L 953 17
L 953 17
L 953 17
L 953 17
L 953 17
L 953 17
L 953 17
L 953 17
L 953 17
L 953 17
L 953 17
L 953 17
L 953 17
L 953 17
L 953 17
L 953 17
L 953 17
L 953 17
L 953 17
L 953 17
L 953 17
L 953 17
L 953 16
L 953 16
L 953 16
L 953 16
L 954 16
L 954 16
L 954 16
L 954 16
L 954 16
L 954 16
L 954 16
L 954 16
L 954 16
L 954 16
L 954 16
L 954 16
L 954 16
L 954 16
L 954 16
L 954 16
L 954 16
L 954 16
L 954 16
L 954 16
L 954 16
L 954 16
L 954 16
L 954 16
L 954 15
L 954 15
L 954 15
L 954 15
L 954 15
L 954 15
L 954 15
L 954 15
L 954 15
L 954 15
L 954 15
L 954 15
L 954 15
L 954 15
L 954 15
L 954 15
L 954 15
L 955 15
L 955 15
L 955 15
L 955 15
L 955 15
L 955 15
L 955 15
L 955 15
L 955 15
L 955 15
L 956 15
L 956 15
L 956 14
L 956 14
L 956 14
L 956 14
L 956 14
L 956 14
L 956 14
L 956 14
L 957 14
L 957 14
L 957 14
L 957 14
L 957 14
L 957 14
L 957 14
L 957 14
L 957 14
L 957 14
L 957 14
L 957 14
L 957 14
L 957 14
L 957 14
L 957 14
L 957 14
L 957 14
L 957 14" style="stroke-width:2;stroke:rgba(129,199,239,1.0);fill:none"/></svg>