<!-- stars: 7640 -->
<svg xmlns="http://www.w3.org/2000/svg" xmlns:xlink="http://www.w3.org/1999/xlink" width="1024" height="400">\n<path  d="M 0 0
L 1024 0
L 1024 400
L 0 400
L 0 0" style="stroke-width:0;stroke:rgba(255,255,255,1.0);fill:rgba(255,255,255,1.0)"/><path  d="M 38 11
L 957 11
L 957 351
L 38 351
L 38 11" style="stroke-width:0;stroke:rgba(255,255,255,1.0);fill:rgba(255,255,255,1.0)"/><path  d="M 38 351
L 957 351" style="stroke-width:2;stroke:rgba(85,85,85,1.0);fill:none"/><path  d="M 38 351
L 38 356" style="stroke-width:2;stroke:rgba(85,85,85,1.0);fill:none"/><text x="5" y="373" style="stroke-width:0;stroke:none;fill:rgba(51,51,51,1.0);font-size:12.8px;font-family:'Roboto Medium',sans-serif">2018-09-25</text><path  d="M 153 351
L 153 356" style="stroke-width:2;stroke:rgba(85,85,85,1.0);fill:none"/><text x="120" y="373" style="stroke-width:0;stroke:none;fill:rgba(51,51,51,1.0);font-size:12.8px;font-family:'Roboto Medium',sans-serif">2019-02-15</text><path  d="M 268 351
L 268 356" style="stroke-width:2;stroke:rgba(85,85,85,1.0);fill:none"/><text x="235" y="373" style="stroke-width:0;stroke:none;fill:rgba(51,51,51,1.0);font-size:12.8px;font-family:'Roboto Medium',sans-serif">2019-07-09</text><path  d="M 383 351
L 383 356" style="stroke-width:2;stroke:rgba(85,85,85,1.0);fill:none"/><text x="350" y="373" style="stroke-width:0;stroke:none;fill:rgba(51,51,51,1.0);font-size:12.8px;font-family:'Roboto Medium',sans-serif">2019-11-30</text><path  d="M 498 351
L 498 356" style="stroke-width:2;stroke:rgba(85,85,85,1.0);fill:none"/><text x="465" y="373" style="stroke-width:0;stroke:none;fill:rgba(51,51,51,1.0);font-size:12.8px;font-family:'Roboto Medium',sans-serif">2020-04-22</text><path  d="M 613 351
L 613 356" style="stroke-width:2;stroke:rgba(85,85,85,1.0);fill:none"/><text x="580" y="373" style="stroke-width:0;stroke:none;fill:rgba(51,51,51,1.0);font-size:12.8px;font-family:'Roboto Medium',sans-serif">2020-09-13</text><path  d="M 728 351
L 728 356" style="stroke-width:2;stroke:rgba(85,85,85,1.0);fill:none"/><text x="695" y="373" style="stroke-width:0;stroke:none;fill:rgba(51,51,51,1.0);font-size:12.8px;font-family:'Roboto Medium',sans-serif">2021-02-03</text><path  d="M 843 351
L 843 356" style="stroke-width:2;stroke:rgba(85,85,85,1.0);fill:none"/><text x="810" y="373" style="stroke-width:0;stroke:none;fill:rgba(51,51,51,1.0);font-size:12.8px;font-family:'Roboto Medium',sans-serif">2021-06-27</text><path  d="M 957 351
L 957 356" style="stroke-width:2;stroke:rgba(85,85,85,1.0);fill:none"/><text x="924" y="373" style="stroke-width:0;stroke:none;fill:rgba(51,51,51,1.0);font-size:12.8px;font-family:'Roboto Medium',sans-serif">2021-11-18</text><text x="483" y="395" style="stroke-width:0;stroke:none;fill:rgba(51,51,51,1.0);font-size:12.8px;font-family:'Roboto Medium',sans-serif">Time</text><path  d="M 959 351
L 959 11" style="stroke-width:2;stroke:rgba(85,85,85,1.0);fill:none"/><path  d="M 959 351
L 964 351" style="stroke-width:2;stroke:rgba(85,85,85,1.0);fill:none"/><text x="969" y="357" style="stroke-width:0;stroke:none;fill:rgba(51,51,51,1.0);font-size:12.8px;font-family:'Roboto Medium',sans-serif">0</text><path  d="M 959 308
L 964 308" style="stroke-width:2;stroke:rgba(85,85,85,1.0);fill:none"/><text x="969" y="314" style="stroke-width:0;stroke:none;fill:rgba(51,51,51,1.0);font-size:12.8px;font-family:'Roboto Medium',sans-serif">970</text><path  d="M 959 265
L 964 265" style="stroke-width:2;stroke:rgba(85,85,85,1.0);fill:none"/><text x="969" y="271" style="stroke-width:0;stroke:none;fill:rgba(51,51,51,1.0);font-size:12.8px;font-family:'Roboto Medium',sans-serif">1930</text><path  d="M 959 223
L 964 223" style="stroke-width:2;stroke:rgba(85,85,85,1.0);fill:none"/><text x="969" y="229" style="stroke-width:0;stroke:none;fill:rgba(51,51,51,1.0);font-size:12.8px;font-family:'Roboto Medium',sans-serif">2890</text><path  d="M 959 181
L 964 181" style="stroke-width:2;stroke:rgba(85,85,85,1.0);fill:none"/><text x="969" y="187" style="stroke-width:0;stroke:none;fill:rgba(51,51,51,1.0);font-size:12.8px;font-family:'Roboto Medium',sans-serif">3850</text><path  d="M 959 138
L 964 138" style="stroke-width:2;stroke:rgba(85,85,85,1.0);fill:none"/><text x="969" y="144" style="stroke-width:0;stroke:none;fill:rgba(51,51,51,1.0);font-size:12.8px;font-family:'Roboto Medium',sans-serif">4820</text><path  d="M 959 95
L 964 95" style="stroke-width:2;stroke:rgba(85,85,85,1.0);fill:none"/><text x="969" y="101" style="stroke-width:0;stroke:none;fill:rgba(51,51,51,1.0);font-size:12.8px;font-family:'Roboto Medium',sans-serif">5780</text><path  d="M 959 53
L 964 53" style="stroke-width:2;stroke:rgba(85,85,85,1.0);fill:none"/><text x="969" y="59" style="stroke-width:0;stroke:none;fill:rgba(51,51,51,1.0);font-size:12.8px;font-family:'Roboto Medium',sans-serif">6740</text><path  d="M 959 11
L 964 11" style="stroke-width:2;stroke:rgba(85,85,85,1.0);fill:none"/><text x="969" y="17" style="stroke-width:0;stroke:none;fill:rgba(51,51,51,1.0);font-size:12.8px;font-family:'Roboto Medium',sans-serif">7700</text><text x="1009" y="150" style="stroke-width:0;stroke:none;fill:rgba(51,51,51,1.0);font-size:12.8px;font-family:'Roboto Medium',sans-serif" transform="rotate(90.00,1009,150)">Stargazers</text><path  d="M 38 351
L 40 350
L 50 350
L 51 350
L 51 350
L 51 350
L 51 350
L 54 350
L 55 350
L 56 350
L 57 350
L 57 350
L 58 350
L 59 350
L 59 350
L 59 350
L 61 350
L 67 350
L 67 350
L 70 350
L 70 350
L 71 350
L 72 350
L 73 349
L 75 349
L 75 349
L 79 349
L 84 349
L 89 349
L 89 349
L 94 349
L 95 349
L 95 349
L 95 349
L 95 349
L 95 349
L 95 349
L 96 349
L 96 349
L 96 349
L 96 349
L 98 349
L 100 349
L 100 349
L 100 349
L 100 349
L 100 348
L 101 348
L 101 348
L 102 348
L 104 348
L 104 348
L 105 348
L 106 348
L 108 348
L 109 348
L 109 348
L 110 348
L 111 348
L 112 348
L 112 348
L 112 348
L 112 348
L 113 348
L 113 348
L 113 348
L 113 348
L 114 348
L 114 347
L 114 347
L 114 347
L 114 347
L 115 347
L 116 347
L 116 347
L 116 347
L 117 347
L 118 347
L 118 347
L 119 347
L 119 347
L 122 347
L 122 347
L 122 347
L 122 347
L 122 347
L 122 347
L 123 347
L 123 347
L 124 347
L 124 347
L 125 346
L 125 346
L 127 346
L 128 346
L 128 346
L 128 346
L 129 346
L 129 346
L 131 346
L 133 346
L 135 346
L 135 346
L 135 346
L 136 346
L 136 346
L 143 346
L 146 346
L 151 346
L 151 346
L 152 346
L 152 346
L 153 346
L 153 346
L 154 345
L 155 345
L 156 345
L 156 345
L 156 345
L 157 345
L 157 345
L 157 345
L 158 345
L 158 345
L 158 345
L 161 345
L 161 345
L 163 345
L 164 345
L 166 345
L 167 345
L 168 345
L 168 345
L 169 345
L 169 345
L 170 345
L 170 344
L 171 344
L 172 344
L 172 344
L 173 344
L 175 344
L 175 344
L 177 344
L 177 344
L 178 344
L 179 344
L 179 344
L 179 344
L 180 344
L 181 344
L 184 344
L 185 344
L 185 344
L 185 344
L 186 344
L 186 344
L 187 344
L 187 344
L 187 343
L 187 343
L 187 343
L 189 343
L 189 343
L 189 343
L 189 343
L 190 343
L 190 343
L 190 343
L 190 343
L 190 343
L 190 343
L 190 343
L 190 343
L 190 343
L 191 343
L 191 343
L 191 343
L 191 343
L 191 343
L 192 343
L 194 343
L 194 342
L 194 342
L 195 342
L 195 342
L 196 342
L 196 342
L 196 342
L 197 342
L 197 342
L 197 342
L 197 342
L 198 342
L 199 342
L 201 342
L 201 342
L 201 342
L 203 342
L 203 342
L 206 342
L 206 342
L 207 342
L 207 342
L 207 341
L 207 341
L 207 341
L 208 341
L 208 341
L 210 341
L 210 341
L 210 341
L 211 341
L 211 341
L 211 341
L 212 341
L 213 341
L 213 341
L 214 341
L 214 341
L 215 341
L 215 341
L 216 341
L 217 341
L 218 341
L 219 341
L 219 341
L 220 340
L 220 340
L 220 340
L 221 340
L 221 340
L 224 340
L 225 340
L 228 340
L 229 340
L 230 340
L 232 340
L 233 340
L 233 340
L 234 340
L 235 340
L 240 340
L 240 340
L 240 340
L 241 340
L 241 340
L 241 340
L 242 340
L 242 340
L 242 339
L 242 339
L 248 339
L 251 339
L 251 339
L 252 339
L 252 339
L 252 339
L 252 339
L 252 339
L 252 339
L 252 339
L 252 339
L 253 339
L 254 339
L 256 339
L 257 339
L 257 339
L 258 339
L 259 339
L 259 339
L 260 339
L 261 338
L 262 338
L 262 338
L 262 338
L 262 338
L 263 338
L 263 338
L 263 338
L 263 338
L 263 338
L 264 338
L 264 338
L 264 338
L 265 338
L 265 338
L 265 338
L 266 338
L 266 338
L 266 338
L 266 338
L 267 338
L 268 338
L 269 338
L 271 337
L 271 337
L 272 337
L 272 337
L 272 337
L 274 337
L 274 337
L 276 337
L 277 337
L 278 337
L 279 337
L 282 337
L 282 337
L 283 337
L 285 337
L 285 337
L 285 337
L 286 337
L 290 337
L 294 337
L 295 337
L 296 337
L 297 337
L 299 336
L 300 336
L 303 336
L 305 336
L 305 336
L 306 336
L 307 336
L 309 336
L 314 336
L 314 336
L 314 336
L 315 336
L 315 336
L 326 336
L 326 336
L 327 336
L 328 336
L 328 336
L 328 336
L 328 336
L 328 336
L 328 336
L 328 335
L 328 335
L 329 335
L 329 335
L 329 335
L 331 335
L 334 335
L 334 335
L 334 335
L 340 335
L 341 335
L 342 335
L 343 335
L 343 335
L 344 335
L 345 335
L 346 335
L 346 335
L 346 335
L 347 335
L 348 335
L 348 335
L 349 335
L 351 334
L 352 334
L 352 334
L 352 334
L 357 334
L 368 334
L 369 334
L 373 334
L 375 334
L 376 334
L 377 334
L 380 334
L 380 334
L 380 334
L 381 334
L 381 334
L 381 334
L 382 334
L 385 334
L 385 334
L 388 334
L 389 334
L 393 334
L 393 333
L 393 333
L 399 333
L 401 333
L 401 333
L 403 333
L 403 333
L 403 333
L 404 333
L 404 333
L 404 333
L 404 333
L 404 333
L 405 333
L 405 333
L 407 333
L 408 333
L 411 333
L 412 333
L 414 333
L 418 333
L 418 333
L 418 332
L 419 332
L 419 332
L 420 332
L 421 332
L 424 332
L 424 332
L 428 332
L 429 332
L 430 332
L 430 332
L 432 332
L 434 332
L 436 332
L 438 332
L 442 332
L 444 332
L 444 332
L 445 332
L 448 332
L 454 332
L 456 332
L 458 332
L 460 331
L 460 331
L 461 331
L 461 331
L 462 331
L 462 331
L 463 331
L 465 331
L 465 331
L 465 331
L 465 331
L 465 331
L 465 331
L 467 331
L 467 331
L 468 331
L 468 331
L 469 331
L 470 331
L 470 331
L 470 331
L 470 331
L 470 330
L 471 330
L 471 330
L 471 330
L 471 330
L 471 330
L 472 330
L 472 330
L 473 330
L 474 330
L 475 330
L 475 330
L 476 330
L 477 330
L 477 330
L 477 330
L 477 330
L 478 330
L 478 330
L 478 330
L 479 330
L 479 330
L 480 330
L 480 329
L 480 329
L 480 329
L 481 329
L 482 329
L 483 329
L 485 329
L 485 329
L 485 329
L 485 329
L 485 329
L 486 329
L 486 329
L 487 329
L 487 329
L 487 329
L 488 329
L 488 329
L 488 329
L 488 329
L 488 329
L 488 329
L 488 329
L 488 328
L 488 328
L 488 328
L 488 328
L 489 328
L 489 328
L 489 328
L 489 328
L 490 328
L 490 328
L 490 328
L 491 328
L 491 328
L 491 328
L 492 328
L 493 328
L 493 328
L 494 328
L 494 328
L 494 328
L 495 328
L 496 328
L 496 327
L 496 327
L 496 327
L 496 327
L 496 327
L 496 327
L 496 327
L 496 327
L 496 327
L 497 327
L 497 327
L 497 327
L 497 327
L 497 327
L 497 327
L 497 327
L 497 327
L 497 327
L 497 327
L 497 327
L 497 327
L 497 327
L 497 327
L 497 326
L 497 326
L 497 326
L 497 326
L 498 326
L 498 326
L 498 326
L 498 326
L 499 326
L 499 326
L 499 326
L 499 326
L 499 326
L 499 326
L 500 326
L 500 326
L 500 326
L 500 326
L 501 326
L 501 326
L 502 326
L 502 326
L 503 326
L 503 325
L 503 325
L 503 325
L 503 325
L 503 325
L 504 325
L 504 325
L 504 325
L 504 325
L 505 325
L 506 325
L 507 325
L 507 325
L 508 325
L 509 325
L 509 325
L 510 325
L 510 325
L 510 325
L 510 325
L 510 325
L 510 325
L 510 324
L 511 324
L 511 324
L 512 324
L 513 324
L 513 324
L 513 324
L 514 324
L 514 324
L 514 324
L 515 324
L 515 324
L 515 324
L 516 324
L 516 324
L 516 324
L 516 324
L 517 324
L 517 324
L 517 324
L 517 324
L 517 324
L 518 324
L 518 323
L 519 323
L 520 323
L 520 323
L 521 323
L 521 323
L 521 323
L 522 323
L 522 323
L 523 323
L 523 323
L 524 323
L 524 323
L 524 323
L 525 323
L 525 323
L 525 323
L 525 323
L 526 323
L 526 323
L 526 323
L 526 323
L 527 323
L 527 322
L 527 322
L 527 322
L 527 322
L 528 322
L 528 322
L 528 322
L 528 322
L 528 322
L 529 322
L 529 322
L 529 322
L 531 322
L 531 322
L 531 322
L 531 322
L 532 322
L 532 322
L 532 322
L 533 322
L 534 322
L 534 322
L 534 321
L 534 321
L 534 321
L 534 321
L 534 321
L 534 321
L 534 321
L 534 321
L 534 321
L 534 321
L 534 321
L 535 321
L 535 321
L 535 321
L 535 321
L 535 321
L 535 321
L 535 321
L 535 321
L 536 321
L 536 321
L 536 321
L 536 321
L 536 320
L 537 320
L 538 320
L 539 320
L 539 320
L 539 320
L 540 320
L 540 320
L 540 320
L 540 320
L 541 320
L 541 320
L 541 320
L 541 320
L 541 320
L 541 320
L 541 320
L 541 320
L 541 320
L 542 320
L 542 320
L 542 320
L 542 320
L 542 319
L 542 319
L 542 319
L 542 319
L 542 319
L 543 319
L 543 319
L 543 319
L 543 319
L 543 319
L 543 319
L 544 319
L 544 319
L 544 319
L 544 319
L 544 319
L 545 319
L 545 319
L 545 319
L 545 319
L 545 319
L 545 319
L 545 318
L 546 318
L 546 318
L 546 318
L 547 318
L 547 318
L 547 318
L 548 318
L 548 318
L 548 318
L 549 318
L 551 318
L 551 318
L 551 318
L 551 318
L 551 318
L 551 318
L 551 318
L 552 318
L 552 318
L 552 318
L 552 318
L 552 318
L 553 317
L 553 317
L 553 317
L 554 317
L 554 317
L 554 317
L 554 317
L 555 317
L 555 317
L 555 317
L 555 317
L 555 317
L 556 317
L 556 317
L 556 317
L 556 317
L 557 317
L 557 317
L 557 317
L 558 317
L 558 317
L 558 317
L 558 317
L 559 316
L 560 316
L 560 316
L 560 316
L 560 316
L 561 316
L 561 316
L 561 316
L 562 316
L 562 316
L 564 316
L 564 316
L 564 316
L 564 316
L 565 316
L 565 316
L 565 316
L 566 316
L 566 316
L 566 316
L 566 316
L 566 316
L 567 315
L 567 315
L 567 315
L 567 315
L 567 315
L 567 315
L 568 315
L 568 315
L 568 315
L 569 315
L 569 315
L 569 315
L 569 315
L 569 315
L 569 315
L 569 315
L 570 315
L 570 315
L 570 315
L 571 315
L 571 315
L 572 315
L 572 315
L 572 314
L 572 314
L 572 314
L 573 314
L 573 314
L 573 314
L 574 314
L 574 314
L 574 314
L 575 314
L 575 314
L 575 314
L 575 314
L 575 314
L 575 314
L 576 314
L 576 314
L 576 314
L 576 314
L 576 314
L 576 314
L 576 314
L 576 313
L 577 313
L 577 313
L 577 313
L 577 313
L 577 313
L 577 313
L 577 313
L 578 313
L 578 313
L 578 313
L 578 313
L 578 313
L 578 313
L 579 313
L 579 313
L 579 313
L 580 313
L 580 313
L 581 313
L 581 313
L 581 313
L 582 313
L 582 312
L 582 312
L 583 312
L 583 312
L 583 312
L 583 312
L 583 312
L 583 312
L 583 312
L 583 312
L 584 312
L 585 312
L 585 312
L 586 312
L 586 312
L 586 312
L 586 312
L 586 312
L 587 312
L 587 312
L 587 312
L 587 312
L 587 312
L 588 311
L 588 311
L 588 311
L 588 311
L 588 311
L 588 311
L 589 311
L 589 311
L 589 311
L 589 311
L 589 311
L 591 311
L 591 311
L 591 311
L 592 311
L 592 311
L 592 311
L 592 311
L 592 311
L 592 311
L 592 311
L 593 311
L 593 310
L 594 310
L 594 310
L 594 310
L 594 310
L 594 310
L 595 310
L 595 310
L 595 310
L 596 310
L 596 310
L 597 310
L 597 310
L 598 310
L 598 310
L 599 310
L 599 310
L 600 310
L 601 310
L 602 310
L 602 310
L 603 310
L 603 310
L 603 309
L 604 309
L 604 309
L 605 309
L 605 309
L 606 309
L 606 309
L 606 309
L 607 309
L 607 309
L 607 309
L 607 309
L 608 309
L 608 309
L 608 309
L 608 309
L 609 309
L 609 309
L 609 309
L 610 309
L 610 309
L 610 309
L 611 309
L 611 308
L 611 308
L 611 308
L 611 308
L 611 308
L 611 308
L 611 308
L 611 308
L 612 308
L 612 308
L 612 308
L 613 308
L 613 308
L 613 308
L 613 308
L 613 308
L 614 308
L 615 308
L 615 308
L 615 308
L 616 308
L 616 308
L 616 307
L 618 307
L 618 307
L 619 307
L 620 307
L 620 307
L 620 307
L 620 307
L 621 307
L 621 307
L 621 307
L 621 307
L 622 307
L 624 307
L 624 307
L 624 307
L 624 307
L 625 307
L 625 307
L 625 307
L 625 307
L 626 307
L 626 307
L 626 306
L 626 306
L 627 306
L 627 306
L 627 306
L 627 306
L 627 306
L 628 306
L 630 306
L 631 306
L 631 306
L 633 306
L 633 306
L 633 306
L 634 306
L 634 306
L 635 306
L 635 306
L 636 306
L 636 306
L 636 306
L 636 306
L 636 306
L 636 305
L 636 305
L 636 305
L 637 305
L 637 305
L 637 305
L 637 305
L 637 305
L 637 305
L 637 305
L 638 305
L 638 305
L 638 305
L 638 305
L 638 305
L 639 305
L 639 305
L 639 305
L 639 305
L 639 305
L 639 305
L 639 305
L 640 304
L 640 304
L 640 304
L 640 304
L 642 304
L 642 304
L 642 304
L 642 304
L 642 304
L 643 304
L 643 304
L 643 304
L 644 304
L 644 304
L 644 304
L 644 304
L 644 304
L 645 304
L 645 304
L 645 304
L 645 304
L 645 304
L 645 304
L 647 303
L 647 303
L 647 303
L 648 303
L 648 303
L 648 303
L 648 303
L 648 303
L 648 303
L 648 303
L 648 303
L 648 303
L 648 303
L 648 303
L 648 303
L 649 303
L 649 303
L 649 303
L 649 303
L 649 303
L 649 303
L 649 303
L 649 303
L 649 302
L 650 302
L 650 302
L 650 302
L 650 302
L 650 302
L 650 302
L 650 302
L 650 302
L 650 302
L 651 302
L 651 302
L 651 302
L 651 302
L 651 302
L 651 302
L 651 302
L 651 302
L 651 302
L 652 302
L 652 302
L 652 302
L 652 301
L 652 301
L 652 301
L 653 301
L 653 301
L 653 301
L 653 301
L 654 301
L 654 301
L 654 301
L 654 301
L 654 301
L 654 301
L 654 301
L 654 301
L 654 301
L 655 301
L 655 301
L 655 301
L 655 301
L 655 301
L 655 301
L 655 301
L 655 300
L 655 300
L 655 300
L 656 300
L 657 300
L 657 300
L 657 300
L 657 300
L 658 300
L 658 300
L 658 300
L 658 300
L 659 300
L 659 300
L 659 300
L 659 300
L 659 300
L 659 300
L 659 300
L 659 300
L 660 300
L 660 300
L 660 300
L 660 299
L 661 299
L 661 299
L 661 299
L 662 299
L 662 299
L 662 299
L 662 299
L 662 299
L 663 299
L 663 299
L 663 299
L 663 299
L 663 299
L 664 299
L 664 299
L 664 299
L 664 299
L 664 299
L 664 299
L 665 299
L 665 299
L 666 298
L 666 298
L 666 298
L 666 298
L 666 298
L 666 298
L 667 298
L 667 298
L 667 298
L 667 298
L 667 298
L 667 298
L 667 298
L 668 298
L 668 298
L 668 298
L 669 298
L 669 298
L 669 298
L 669 298
L 670 298
L 670 298
L 670 298
L 670 297
L 670 297
L 670 297
L 671 297
L 671 297
L 672 297
L 672 297
L 672 297
L 673 297
L 673 297
L 673 297
L 673 297
L 673 297
L 673 297
L 673 297
L 673 297
L 675 297
L 675 297
L 675 297
L 675 297
L 675 297
L 675 297
L 675 296
L 676 296
L 676 296
L 676 296
L 676 296
L 676 296
L 676 296
L 677 296
L 677 296
L 677 296
L 677 296
L 677 296
L 677 296
L 678 296
L 678 296
L 678 296
L 678 296
L 678 296
L 678 296
L 680 296
L 681 296
L 681 296
L 681 296
L 681 295
L 682 295
L 682 295
L 682 295
L 682 295
L 682 295
L 682 295
L 682 295
L 683 295
L 683 295
L 683 295
L 683 295
L 683 295
L 683 295
L 683 295
L 683 295
L 684 295
L 684 295
L 684 295
L 684 295
L 684 295
L 685 295
L 686 295
L 686 294
L 686 294
L 686 294
L 686 294
L 686 294
L 687 294
L 687 294
L 687 294
L 687 294
L 687 294
L 688 294
L 688 294
L 688 294
L 688 294
L 688 294
L 689 294
L 689 294
L 690 294
L 690 294
L 690 294
L 690 294
L 691 294
L 691 293
L 692 293
L 692 293
L 692 293
L 692 293
L 692 293
L 692 293
L 693 293
L 693 293
L 693 293
L 693 293
L 693 293
L 693 293
L 693 293
L 693 293
L 693 293
L 693 293
L 694 293
L 694 293
L 694 293
L 694 293
L 694 293
L 694 293
L 694 292
L 694 292
L 694 292
L 695 292
L 695 292
L 695 292
L 695 292
L 695 292
L 695 292
L 695 292
L 695 292
L 696 292
L 696 292
L 696 292
L 697 292
L 697 292
L 697 292
L 697 292
L 698 292
L 698 292
L 698 292
L 698 292
L 698 292
L 698 291
L 698 291
L 698 291
L 699 291
L 699 291
L 699 291
L 699 291
L 699 291
L 699 291
L 700 291
L 700 291
L 700 291
L 700 291
L 700 291
L 701 291
L 702 291
L 702 291
L 703 291
L 703 291
L 703 291
L 703 291
L 703 291
L 703 290
L 703 290
L 704 290
L 704 290
L 704 290
L 704 290
L 704 290
L 705 290
L 705 290
L 705 290
L 705 290
L 705 290
L 705 290
L 705 290
L 705 290
L 705 290
L 705 290
L 706 290
L 706 290
L 706 290
L 706 290
L 706 290
L 706 290
L 707 289
L 707 289
L 707 289
L 707 289
L 707 289
L 708 289
L 709 289
L 709 289
L 709 289
L 709 289
L 709 289
L 710 289
L 710 289
L 710 289
L 710 289
L 710 289
L 710 289
L 710 289
L 710 289
L 711 289
L 711 289
L 711 289
L 711 289
L 711 288
L 712 288
L 712 288
L 712 288
L 712 288
L 712 288
L 713 288
L 713 288
L 713 288
L 713 288
L 714 288
L 714 288
L 714 288
L 715 288
L 715 288
L 715 288
L 715 288
L 715 288
L 715 288
L 716 288
L 716 288
L 716 288
L 717 287
L 717 287
L 717 287
L 717 287
L 717 287
L 718 287
L 718 287
L 718 287
L 718 287
L 718 287
L 718 287
L 718 287
L 719 287
L 719 287
L 719 287
L 719 287
L 719 287
L 719 287
L 719 287
L 720 287
L 720 287
L 720 287
L 720 287
L 720 286
L 720 286
L 720 286
L 720 286
L 720 286
L 721 286
L 721 286
L 721 286
L 721 286
L 721 286
L 721 286
L 722 286
L 722 286
L 722 286
L 722 286
L 722 286
L 722 286
L 723 286
L 723 286
L 724 286
L 724 286
L 724 286
L 724 286
L 725 285
L 725 285
L 725 285
L 725 285
L 725 285
L 725 285
L 725 285
L 726 285
L 726 285
L 726 285
L 726 285
L 726 285
L 727 285
L 727 285
L 727 285
L 728 285
L 728 285
L 728 285
L 728 285
L 728 285
L 728 285
L 728 285
L 728 284
L 729 284
L 729 284
L 729 284
L 729 284
L 729 284
L 730 284
L 730 284
L 730 284
L 730 284
L 730 284
L 730 284
L 730 284
L 730 284
L 730 284
L 731 284
L 731 284
L 731 284
L 731 284
L 732 284
L 732 284
L 732 284
L 733 284
L 733 283
L 734 283
L 735 283
L 735 283
L 735 283
L 735 283
L 735 283
L 735 283
L 737 283
L 737 283
L 737 283
L 738 283
L 738 283
L 738 283
L 738 283
L 738 283
L 739 283
L 739 283
L 739 283
L 739 283
L 740 283
L 740 283
L 740 283
L 740 282
L 740 282
L 740 282
L 740 282
L 740 282
L 740 282
L 741 282
L 741 282
L 741 282
L 741 282
L 741 282
L 741 282
L 741 282
L 741 282
L 741 282
L 742 282
L 742 282
L 742 282
L 742 282
L 742 282
L 743 282
L 743 282
L 743 281
L 743 281
L 743 281
L 743 281
L 743 281
L 743 281
L 743 281
L 743 281
L 743 281
L 743 281
L 744 281
L 744 281
L 744 281
L 744 281
L 744 281
L 744 281
L 745 281
L 745 281
L 745 281
L 745 281
L 745 281
L 745 281
L 745 281
L 745 280
L 746 280
L 746 280
L 746 280
L 746 280
L 746 280
L 746 280
L 746 280
L 747 280
L 747 280
L 747 280
L 747 280
L 747 280
L 747 280
L 748 280
L 748 280
L 748 280
L 748 280
L 748 280
L 748 280
L 748 280
L 749 280
L 749 279
L 749 279
L 749 279
L 749 279
L 749 279
L 749 279
L 749 279
L 749 279
L 749 279
L 749 279
L 749 279
L 750 279
L 750 279
L 750 279
L 750 279
L 750 279
L 750 279
L 750 279
L 750 279
L 750 279
L 750 279
L 751 279
L 751 279
L 751 278
L 751 278
L 751 278
L 751 278
L 751 278
L 752 278
L 752 278
L 752 278
L 752 278
L 752 278
L 753 278
L 753 278
L 753 278
L 753 278
L 754 278
L 754 278
L 754 278
L 754 278
L 754 278
L 754 278
L 754 278
L 754 278
L 754 278
L 754 277
L 754 277
L 754 277
L 755 277
L 755 277
L 755 277
L 755 277
L 755 277
L 755 277
L 756 277
L 756 277
L 756 277
L 756 277
L 756 277
L 756 277
L 756 277
L 756 277
L 756 277
L 756 277
L 756 277
L 756 277
L 756 277
L 757 276
L 757 276
L 757 276
L 757 276
L 757 276
L 758 276
L 758 276
L 758 276
L 758 276
L 758 276
L 758 276
L 758 276
L 758 276
L 758 276
L 758 276
L 758 276
L 758 276
L 758 276
L 758 276
L 758 276
L 758 276
L 758 276
L 758 276
L 758 275
L 758 275
L 758 275
L 758 275
L 758 275
L 758 275
L 758 275
L 758 275
L 758 275
L 758 275
L 758 275
L 758 275
L 758 275
L 758 275
L 758 275
L 758 275
L 758 275
L 758 275
L 758 275
L 758 275
L 758 275
L 758 275
L 758 275
L 758 274
L 758 274
L 758 274
L 758 274
L 758 274
L 758 274
L 758 274
L 758 274
L 758 274
L 758 274
L 758 274
L 758 274
L 759 274
L 759 274
L 759 274
L 759 274
L 759 274
L 759 274
L 759 274
L 759 274
L 759 274
L 759 274
L 759 273
L 759 273
L 759 273
L 759 273
L 759 273
L 759 273
L 759 273
L 759 273
L 759 273
L 759 273
L 759 273
L 759 273
L 759 273
L 759 273
L 759 273
L 759 273
L 759 273
L 759 273
L 759 273
L 759 273
L 759 273
L 759 273
L 759 273
L 759 272
L 759 272
L 759 272
L 759 272
L 759 272
L 759 272
L 759 272
L 759 272
L 759 272
L 759 272
L 759 272
L 759 272
L 759 272
L 759 272
L 759 272
L 759 272
L 759 272
L 759 272
L 759 272
L 759 272
L 759 272
L 759 272
L 759 272
L 759 271
L 759 271
L 759 271
L 760 271
L 760 271
L 760 271
L 760 271
L 760 271
L 760 271
L 760 271
L 760 271
L 760 271
L 760 271
L 760 271
L 760 271
L 760 271
L 760 271
L 760 271
L 760 271
L 760 271
L 760 271
L 760 271
L 760 270
L 760 270
L 760 270
L 760 270
L 760 270
L 760 270
L 760 270
L 760 270
L 760 270
L 760 270
L 760 270
L 760 270
L 760 270
L 760 270
L 760 270
L 760 270
L 760 270
L 760 270
L 760 270
L 760 270
L 760 270
L 760 270
L 760 270
L 760 269
L 760 269
L 760 269
L 760 269
L 760 269
L 760 269
L 760 269
L 760 269
L 760 269
L 760 269
L 760 269
L 760 269
L 760 269
L 760 269
L 760 269
L 761 269
L 761 269
L 761 269
L 761 269
L 761 269
L 761 269
L 761 269
L 761 269
L 761 268
L 761 268
L 761 268
L 761 268
L 761 268
L 761 268
L 761 268
L 761 268
L 761 268
L 761 268
L 761 268
L 761 268
L 761 268
L 761 268
L 761 268
L 761 268
L 761 268
L 761 268
L 761 268
L 761 268
L 761 268
L 761 268
L 761 267
L 761 267
L 761 267
L 761 267
L 761 267
L 761 267
L 761 267
L 761 267
L 761 267
L 761 267
L 761 267
L 761 267
L 761 267
L 761 267
L 761 267
L 761 267
L 761 267
L 761 267
L 761 267
L 761 267
L 761 267
L 761 267
L 761 267
L 761 266
L 761 266
L 761 266
L 761 266
L 761 266
L 761 266
L 761 266
L 761 266
L 761 266
L 761 266
L 761 266
L 761 266
L 761 266
L 761 266
L 761 266
L 761 266
L 761 266
L 761 266
L 761 266
L 761 266
L 761 266
L 761 266
L 761 266
L 761 265
L 761 265
L 761 265
L 761 265
L 761 265
L 761 265
L 761 265
L 761 265
L 761 265
L 761 265
L 761 265
L 761 265
L 761 265
L 762 265
L 762 265
L 762 265
L 762 265
L 762 265
L 762 265
L 762 265
L 762 265
L 762 265
L 762 264
L 762 264
L 762 264
L 762 264
L 762 264
L 762 264
L 762 264
L 762 264
L 762 264
L 762 264
L 762 264
L 762 264
L 762 264
L 762 264
L 762 264
L 762 264
L 762 264
L 762 264
L 762 264
L 762 264
L 762 264
L 762 264
L 762 264
L 762 263
L 762 263
L 762 263
L 762 263
L 762 263
L 762 263
L 762 263
L 762 263
L 762 263
L 762 263
L 762 263
L 762 263
L 762 263
L 762 263
L 762 263
L 762 263
L 762 263
L 762 263
L 762 263
L 762 263
L 762 263
L 762 263
L 763 262
L 763 262
L 763 262
L 763 262
L 763 262
L 763 262
L 763 262
L 763 262
L 763 262
L 763 262
L 763 262
L 763 262
L 763 262
L 763 262
L 763 262
L 763 262
L 763 262
L 763 262
L 763 262
L 763 262
L 763 262
L 763 262
L 763 262
L 763 261
L 763 261
L 763 261
L 763 261
L 764 261
L 764 261
L 764 261
L 764 261
L 764 261
L 764 261
L 764 261
L 765 261
L 765 261
L 765 261
L 765 261
L 765 261
L 765 261
L 765 261
L 765 261
L 765 261
L 765 261
L 765 261
L 766 261
L 766 260
L 766 260
L 766 260
L 766 260
L 766 260
L 766 260
L 766 260
L 766 260
L 766 260
L 766 260
L 766 260
L 766 260
L 766 260
L 766 260
L 767 260
L 767 260
L 767 260
L 767 260
L 767 260
L 767 260
L 767 260
L 767 260
L 767 259
L 767 259
L 767 259
L 767 259
L 767 259
L 768 259
L 768 259
L 768 259
L 768 259
L 768 259
L 768 259
L 768 259
L 768 259
L 768 259
L 768 259
L 769 259
L 769 259
L 769 259
L 769 259
L 769 259
L 769 259
L 769 259
L 770 259
L 770 258
L 770 258
L 770 258
L 770 258
L 770 258
L 770 258
L 770 258
L 770 258
L 770 258
L 770 258
L 770 258
L 771 258
L 771 258
L 771 258
L 771 258
L 771 258
L 771 258
L 771 258
L 771 258
L 771 258
L 771 258
L 771 258
L 771 258
L 771 257
L 771 257
L 771 257
L 771 257
L 771 257
L 771 257
L 771 257
L 771 257
L 771 257
L 771 257
L 771 257
L 771 257
L 771 257
L 771 257
L 771 257
L 771 257
L 771 257
L 771 257
L 771 257
L 771 257
L 771 257
L 771 257
L 771 256
L 771 256
L 771 256
L 771 256
L 771 256
L 771 256
L 771 256
L 771 256
L 771 256
L 771 256
L 771 256
L 771 256
L 771 256
L 771 256
L 771 256
L 771 256
L 771 256
L 771 256
L 772 256
L 772 256
L 772 256
L 772 256
L 772 256
L 772 255
L 772 255
L 772 255
L 772 255
L 772 255
L 772 255
L 772 255
L 772 255
L 772 255
L 772 255
L 772 255
L 772 255
L 772 255
L 772 255
L 772 255
L 772 255
L 772 255
L 772 255
L 772 255
L 772 255
L 772 255
L 772 255
L 773 255
L 773 254
L 773 254
L 773 254
L 773 254
L 773 254
L 773 254
L 773 254
L 773 254
L 773 254
L 773 254
L 773 254
L 773 254
L 773 254
L 773 254
L 773 254
L 773 254
L 773 254
L 773 254
L 773 254
L 773 254
L 773 254
L 773 254
L 773 253
L 773 253
L 773 253
L 773 253
L 773 253
L 773 253
L 773 253
L 773 253
L 773 253
L 773 253
L 773 253
L 773 253
L 773 253
L 773 253
L 773 253
L 773 253
L 773 253
L 773 253
L 773 253
L 773 253
L 773 253
L 773 253
L 773 253
L 773 252
L 773 252
L 773 252
L 773 252
L 773 252
L 773 252
L 773 252
L 773 252
L 773 252
L 773 252
L 773 252
L 773 252
L 773 252
L 773 252
L 773 252
L 773 252
L 773 252
L 773 252
L 773 252
L 773 252
L 773 252
L 773 252
L 773 252
L 773 251
L 773 251
L 773 251
L 773 251
L 773 251
L 773 251
L 773 251
L 773 251
L 773 251
L 773 251
L 773 251
L 773 251
L 773 251
L 773 251
L 773 251
L 773 251
L 773 251
L 773 251
L 773 251
L 773 251
L 773 251
L 773 251
L 773 250
L 773 250
L 773 250
L 773 250
L 774 250
L 774 250
L 774 250
L 774 250
L 774 250
L 774 250
L 774 250
L 774 250
L 774 250
L 774 250
L 774 250
L 774 250
L 774 250
L 774 250
L 774 250
L 774 250
L 774 250
L 774 250
L 774 250
L 774 249
L 774 249
L 774 249
L 774 249
L 774 249
L 774 249
L 774 249
L 774 249
L 774 249
L 774 249
L 774 249
L 774 249
L 774 249
L 774 249
L 774 249
L 774 249
L 774 249
L 774 249
L 774 249
L 774 249
L 775 249
L 775 249
L 775 249
L 775 248
L 775 248
L 775 248
L 775 248
L 775 248
L 775 248
L 775 248
L 775 248
L 775 248
L 775 248
L 775 248
L 775 248
L 775 248
L 775 248
L 775 248
L 775 248
L 775 248
L 775 248
L 775 248
L 775 248
L 775 248
L 775 248
L 775 247
L 775 247
L 775 247
L 775 247
L 775 247
L 775 247
L 775 247
L 776 247
L 776 247
L 776 247
L 776 247
L 776 247
L 776 247
L 776 247
L 776 247
L 776 247
L 776 247
L 776 247
L 776 247
L 776 247
L 776 247
L 776 247
L 776 247
L 776 246
L 776 246
L 776 246
L 776 246
L 776 246
L 776 246
L 776 246
L 776 246
L 777 246
L 777 246
L 777 246
L 777 246
L 777 246
L 777 246
L 777 246
L 777 246
L 777 246
L 777 246
L 777 246
L 777 246
L 777 246
L 777 246
L 777 245
L 777 245
L 777 245
L 777 245
L 777 245
L 777 245
L 777 245
L 777 245
L 777 245
L 777 245
L 777 245
L 777 245
L 777 245
L 777 245
L 778 245
L 778 245
L 778 245
L 778 245
L 778 245
L 778 245
L 778 245
L 778 245
L 778 245
L 778 244
L 778 244
L 778 244
L 778 244
L 778 244
L 778 244
L 778 244
L 778 244
L 778 244
L 778 244
L 778 244
L 779 244
L 779 244
L 779 244
L 779 244
L 779 244
L 779 244
L 779 244
L 779 244
L 779 244
L 779 244
L 779 244
L 779 244
L 779 243
L 779 243
L 780 243
L 780 243
L 780 243
L 780 243
L 780 243
L 780 243
L 780 243
L 780 243
L 780 243
L 780 243
L 781 243
L 781 243
L 781 243
L 781 243
L 781 243
L 781 243
L 781 243
L 781 243
L 782 243
L 782 243
L 782 242
L 782 242
L 782 242
L 782 242
L 782 242
L 782 242
L 782 242
L 782 242
L 782 242
L 783 242
L 783 242
L 783 242
L 783 242
L 783 242
L 783 242
L 783 242
L 783 242
L 783 242
L 783 242
L 783 242
L 783 242
L 783 242
L 783 242
L 783 241
L 783 241
L 783 241
L 783 241
L 783 241
L 783 241
L 783 241
L 784 241
L 784 241
L 784 241
L 784 241
L 784 241
L 784 241
L 784 241
L 784 241
L 784 241
L 784 241
L 784 241
L 784 241
L 785 241
L 785 241
L 785 241
L 785 241
L 785 240
L 785 240
L 785 240
L 786 240
L 786 240
L 786 240
L 786 240
L 786 240
L 786 240
L 786 240
L 786 240
L 786 240
L 786 240
L 786 240
L 786 240
L 786 240
L 786 240
L 786 240
L 786 240
L 786 240
L 786 240
L 786 240
L 786 239
L 787 239
L 787 239
L 787 239
L 787 239
L 787 239
L 787 239
L 787 239
L 787 239
L 787 239
L 787 239
L 787 239
L 787 239
L 787 239
L 787 239
L 787 239
L 787 239
L 787 239
L 787 239
L 787 239
L 787 239
L 788 239
L 788 239
L 788 238
L 788 238
L 788 238
L 788 238
L 788 238
L 788 238
L 788 238
L 788 238
L 788 238
L 788 238
L 788 238
L 788 238
L 788 238
L 788 238
L 788 238
L 788 238
L 788 238
L 789 238
L 789 238
L 789 238
L 789 238
L 789 238
L 789 238
L 789 237
L 789 237
L 789 237
L 790 237
L 790 237
L 790 237
L 790 237
L 790 237
L 790 237
L 790 237
L 790 237
L 790 237
L 791 237
L 791 237
L 791 237
L 791 237
L 791 237
L 791 237
L 791 237
L 791 237
L 791 237
L 791 237
L 791 236
L 791 236
L 791 236
L 791 236
L 791 236
L 791 236
L 791 236
L 791 236
L 791 236
L 791 236
L 791 236
L 791 236
L 791 236
L 791 236
L 791 236
L 791 236
L 791 236
L 791 236
L 791 236
L 791 236
L 791 236
L 791 236
L 791 236
L 791 235
L 791 235
L 792 235
L 792 235
L 792 235
L 792 235
L 792 235
L 792 235
L 792 235
L 792 235
L 792 235
L 792 235
L 792 235
L 792 235
L 792 235
L 792 235
L 792 235
L 792 235
L 792 235
L 792 235
L 792 235
L 792 235
L 792 235
L 792 234
L 792 234
L 792 234
L 792 234
L 793 234
L 793 234
L 793 234
L 793 234
L 793 234
L 793 234
L 793 234
L 793 234
L 793 234
L 793 234
L 793 234
L 793 234
L 793 234
L 793 234
L 793 234
L 793 234
L 793 234
L 793 234
L 793 233
L 793 233
L 793 233
L 793 233
L 793 233
L 793 233
L 793 233
L 793 233
L 793 233
L 793 233
L 793 233
L 793 233
L 793 233
L 793 233
L 793 233
L 793 233
L 793 233
L 793 233
L 793 233
L 793 233
L 793 233
L 793 233
L 793 233
L 793 232
L 793 232
L 793 232
L 793 232
L 793 232
L 793 232
L 793 232
L 793 232
L 793 232
L 793 232
L 793 232
L 793 232
L 793 232
L 793 232
L 793 232
L 793 232
L 793 232
L 793 232
L 793 232
L 793 232
L 793 232
L 793 232
L 793 232
L 793 231
L 793 231
L 793 231
L 793 231
L 793 231
L 793 231
L 793 231
L 793 231
L 793 231
L 793 231
L 793 231
L 793 231
L 794 231
L 794 231
L 794 231
L 794 231
L 794 231
L 794 231
L 794 231
L 794 231
L 794 231
L 794 231
L 794 230
L 794 230
L 794 230
L 794 230
L 794 230
L 794 230
L 794 230
L 794 230
L 794 230
L 794 230
L 794 230
L 794 230
L 794 230
L 794 230
L 794 230
L 794 230
L 794 230
L 794 230
L 794 230
L 794 230
L 794 230
L 794 230
L 794 230
L 794 229
L 794 229
L 794 229
L 794 229
L 794 229
L 794 229
L 794 229
L 794 229
L 794 229
L 794 229
L 794 229
L 794 229
L 794 229
L 794 229
L 794 229
L 794 229
L 794 229
L 794 229
L 794 229
L 794 229
L 794 229
L 794 229
L 794 228
L 794 228
L 794 228
L 794 228
L 794 228
L 794 228
L 794 228
L 794 228
L 794 228
L 794 228
L 794 228
L 794 228
L 794 228
L 794 228
L 794 228
L 794 228
L 794 228
L 794 228
L 794 228
L 794 228
L 794 228
L 794 228
L 794 228
L 795 227
L 795 227
L 795 227
L 795 227
L 795 227
L 795 227
L 795 227
L 795 227
L 795 227
L 795 227
L 795 227
L 795 227
L 795 227
L 795 227
L 795 227
L 795 227
L 795 227
L 795 227
L 795 227
L 795 227
L 795 227
L 795 227
L 795 227
L 795 226
L 795 226
L 795 226
L 795 226
L 795 226
L 795 226
L 795 226
L 795 226
L 795 226
L 795 226
L 795 226
L 795 226
L 795 226
L 795 226
L 795 226
L 795 226
L 795 226
L 795 226
L 795 226
L 795 226
L 795 226
L 795 226
L 795 225
L 795 225
L 795 225
L 795 225
L 795 225
L 795 225
L 795 225
L 795 225
L 795 225
L 795 225
L 795 225
L 795 225
L 795 225
L 795 225
L 795 225
L 795 225
L 795 225
L 795 225
L 795 225
L 795 225
L 795 225
L 795 225
L 795 225
L 795 224
L 795 224
L 795 224
L 795 224
L 795 224
L 795 224
L 795 224
L 795 224
L 795 224
L 795 224
L 795 224
L 795 224
L 795 224
L 795 224
L 795 224
L 795 224
L 795 224
L 795 224
L 795 224
L 795 224
L 795 224
L 795 224
L 795 224
L 795 223
L 795 223
L 795 223
L 795 223
L 795 223
L 795 223
L 795 223
L 795 223
L 795 223
L 795 223
L 795 223
L 795 223
L 795 223
L 795 223
L 795 223
L 795 223
L 795 223
L 795 223
L 795 223
L 795 223
L 795 223
L 795 223
L 795 222
L 795 222
L 795 222
L 795 222
L 795 222
L 795 222
L 795 222
L 795 222
L 795 222
L 795 222
L 795 222
L 795 222
L 795 222
L 795 222
L 795 222
L 795 222
L 795 222
L 795 222
L 795 222
L 795 222
L 795 222
L 795 222
L 795 222
L 795 221
L 795 221
L 795 221
L 795 221
L 795 221
L 795 221
L 795 221
L 795 221
L 795 221
L 795 221
L 795 221
L 795 221
L 795 221
L 795 221
L 795 221
L 795 221
L 795 221
L 795 221
L 795 221
L 795 221
L 795 221
L 795 221
L 795 221
L 795 220
L 795 220
L 795 220
L 795 220
L 795 220
L 795 220
L 795 220
L 795 220
L 795 220
L 795 220
L 795 220
L 795 220
L 795 220
L 795 220
L 795 220
L 795 220
L 795 220
L 795 220
L 795 220
L 795 220
L 795 220
L 795 220
L 795 219
L 795 219
L 795 219
L 795 219
L 795 219
L 795 219
L 795 219
L 795 219
L 795 219
L 795 219
L 795 219
L 795 219
L 795 219
L 795 219
L 795 219
L 795 219
L 795 219
L 795 219
L 795 219
L 795 219
L 795 219
L 795 219
L 795 219
L 795 218
L 795 218
L 795 218
L 795 218
L 795 218
L 795 218
L 795 218
L 795 218
L 795 218
L 795 218
L 795 218
L 795 218
L 795 218
L 795 218
L 795 218
L 795 218
L 795 218
L 795 218
L 795 218
L 795 218
L 795 218
L 795 218
L 795 218
L 795 217
L 795 217
L 795 217
L 795 217
L 795 217
L 795 217
L 795 217
L 795 217
L 795 217
L 795 217
L 795 217
L 795 217
L 795 217
L 795 217
L 795 217
L 795 217
L 795 217
L 795 217
L 795 217
L 795 217
L 795 217
L 795 217
L 795 216
L 795 216
L 795 216
L 795 216
L 795 216
L 795 216
L 795 216
L 795 216
L 795 216
L 795 216
L 795 216
L 795 216
L 795 216
L 795 216
L 795 216
L 795 216
L 795 216
L 795 216
L 795 216
L 795 216
L 795 216
L 795 216
L 795 216
L 795 215
L 795 215
L 795 215
L 795 215
L 795 215
L 795 215
L 795 215
L 795 215
L 795 215
L 795 215
L 795 215
L 795 215
L 795 215
L 795 215
L 795 215
L 795 215
L 795 215
L 795 215
L 795 215
L 795 215
L 795 215
L 795 215
L 795 215
L 795 214
L 795 214
L 795 214
L 795 214
L 795 214
L 795 214
L 795 214
L 795 214
L 795 214
L 795 214
L 795 214
L 795 214
L 795 214
L 795 214
L 795 214
L 795 214
L 795 214
L 795 214
L 795 214
L 795 214
L 795 214
L 795 214
L 795 213
L 795 213
L 795 213
L 795 213
L 795 213
L 795 213
L 795 213
L 795 213
L 795 213
L 795 213
L 795 213
L 795 213
L 795 213
L 795 213
L 795 213
L 795 213
L 795 213
L 795 213
L 795 213
L 795 213
L 795 213
L 795 213
L 795 213
L 795 212
L 795 212
L 795 212
L 795 212
L 795 212
L 795 212
L 795 212
L 795 212
L 795 212
L 795 212
L 795 212
L 795 212
L 795 212
L 795 212
L 795 212
L 795 212
L 795 212
L 795 212
L 795 212
L 795 212
L 795 212
L 795 212
L 795 211
L 796 211
L 796 211
L 796 211
L 796 211
L 796 211
L 796 211
L 796 211
L 796 211
L 796 211
L 796 211
L 796 211
L 796 211
L 796 211
L 796 211
L 796 211
L 796 211
L 796 211
L 796 211
L 796 211
L 796 211
L 796 211
L 796 211
L 796 210
L 796 210
L 796 210
L 796 210
L 796 210
L 796 210
L 796 210
L 796 210
L 796 210
L 796 210
L 796 210
L 796 210
L 796 210
L 796 210
L 796 210
L 796 210
L 796 210
L 796 210
L 796 210
L 796 210
L 796 210
L 796 210
L 796 210
L 796 209
L 796 209
L 796 209
L 796 209
L 796 209
L 796 209
L 796 209
L 796 209
L 796 209
L 796 209
L 796 209
L 796 209
L 796 209
L 796 209
L 796 209
L 796 209
L 796 209
L 796 209
L 796 209
L 796 209
L 796 209
L 796 209
L 796 208
L 796 208
L 796 208
L 796 208
L 796 208
L 796 208
L 796 208
L 796 208
L 796 208
L 796 208
L 796 208
L 796 208
L 796 208
L 796 208
L 796 208
L 796 208
L 796 208
L 796 208
L 796 208
L 796 208
L 796 208
L 796 208
L 796 208
L 796 207
L 796 207
L 796 207
L 796 207
L 796 207
L 796 207
L 796 207
L 796 207
L 796 207
L 796 207
L 796 207
L 796 207
L 796 207
L 796 207
L 796 207
L 796 207
L 796 207
L 796 207
L 796 207
L 796 207
L 796 207
L 796 207
L 796 207
L 796 206
L 796 206
L 796 206
L 796 206
L 796 206
L 796 206
L 796 206
L 796 206
L 796 206
L 796 206
L 796 206
L 796 206
L 796 206
L 796 206
L 796 206
L 796 206
L 796 206
L 796 206
L 796 206
L 796 206
L 796 206
L 796 206
L 796 205
L 796 205
L 796 205
L 796 205
L 796 205
L 796 205
L 796 205
L 796 205
L 796 205
L 796 205
L 796 205
L 796 205
L 796 205
L 796 205
L 796 205
L 796 205
L 796 205
L 796 205
L 796 205
L 796 205
L 796 205
L 796 205
L 796 205
L 796 204
L 796 204
L 796 204
L 796 204
L 796 204
L 796 204
L 796 204
L 796 204
L 796 204
L 796 204
L 796 204
L 796 204
L 796 204
L 796 204
L 796 204
L 796 204
L 796 204
L 796 204
L 796 204
L 796 204
L 796 204
L 796 204
L 796 204
L 796 203
L 796 203
L 796 203
L 796 203
L 796 203
L 796 203
L 796 203
L 796 203
L 796 203
L 796 203
L 796 203
L 796 203
L 796 203
L 796 203
L 796 203
L 796 203
L 796 203
L 796 203
L 796 203
L 796 203
L 796 203
L 796 203
L 796 202
L 796 202
L 796 202
L 796 202
L 796 202
L 796 202
L 796 202
L 796 202
L 796 202
L 796 202
L 796 202
L 796 202
L 796 202
L 796 202
L 796 202
L 796 202
L 796 202
L 796 202
L 796 202
L 796 202
L 796 202
L 796 202
L 796 202
L 796 201
L 796 201
L 796 201
L 796 201
L 796 201
L 796 201
L 796 201
L 796 201
L 796 201
L 796 201
L 796 201
L 796 201
L 796 201
L 796 201
L 796 201
L 796 201
L 796 201
L 796 201
L 796 201
L 796 201
L 796 201
L 796 201
L 796 201
L 796 200
L 796 200
L 796 200
L 796 200
L 796 200
L 796 200
L 796 200
L 796 200
L 796 200
L 796 200
L 796 200
L 796 200
L 796 200
L 796 200
L 796 200
L 796 200
L 796 200
L 796 200
L 796 200
L 796 200
L 796 200
L 796 200
L 796 199
L 796 199
L 796 199
L 796 199
L 796 199
L 796 199
L 796 199
L 796 199
L 796 199
L 796 199
L 796 199
L 796 199
L 796 199
L 796 199
L 796 199
L 796 199
L 796 199
L 796 199
L 796 199
L 796 199
L 796 199
L 796 199
L 796 199
L 796 198
L 796 198
L 796 198
L 796 198
L 796 198
L 796 198
L 796 198
L 796 198
L 796 198
L 796 198
L 796 198
L 796 198
L 796 198
L 796 198
L 796 198
L 796 198
L 796 198
L 796 198
L 796 198
L 796 198
L 796 198
L 796 198
L 796 198
L 797 197
L 797 197
L 797 197
L 797 197
L 797 197
L 797 197
L 797 197
L 797 197
L 797 197
L 797 197
L 797 197
L 797 197
L 797 197
L 797 197
L 797 197
L 797 197
L 797 197
L 797 197
L 797 197
L 797 197
L 797 197
L 797 197
L 797 196
L 797 196
L 797 196
L 797 196
L 797 196
L 797 196
L 797 196
L 797 196
L 797 196
L 797 196
L 797 196
L 797 196
L 797 196
L 797 196
L 797 196
L 797 196
L 797 196
L 797 196
L 797 196
L 797 196
L 797 196
L 797 196
L 797 196
L 797 195
L 797 195
L 797 195
L 797 195
L 797 195
L 797 195
L 797 195
L 797 195
L 797 195
L 797 195
L 797 195
L 797 195
L 797 195
L 797 195
L 797 195
L 797 195
L 797 195
L 797 195
L 797 195
L 797 195
L 797 195
L 797 195
L 797 194
L 797 194
L 797 194
L 797 194
L 797 194
L 797 194
L 797 194
L 797 194
L 797 194
L 797 194
L 797 194
L 797 194
L 797 194
L 797 194
L 797 194
L 797 194
L 797 194
L 797 194
L 797 194
L 797 194
L 797 194
L 797 194
L 797 194
L 797 193
L 797 193
L 797 193
L 797 193
L 797 193
L 797 193
L 797 193
L 797 193
L 797 193
L 797 193
L 797 193
L 797 193
L 797 193
L 797 193
L 797 193
L 797 193
L 797 193
L 797 193
L 797 193
L 797 193
L 797 193
L 797 193
L 797 193
L 797 192
L 797 192
L 797 192
L 797 192
L 797 192
L 797 192
L 797 192
L 797 192
L 797 192
L 797 192
L 797 192
L 797 192
L 797 192
L 797 192
L 797 192
L 797 192
L 797 192
L 797 192
L 797 192
L 797 192
L 797 192
L 797 192
L 797 191
L 797 191
L 797 191
L 797 191
L 797 191
L 797 191
L 797 191
L 797 191
L 797 191
L 797 191
L 797 191
L 797 191
L 797 191
L 797 191
L 797 191
L 797 191
L 797 191
L 797 191
L 797 191
L 797 191
L 797 191
L 797 191
L 797 191
L 797 190
L 797 190
L 797 190
L 797 190
L 798 190
L 798 190
L 798 190
L 798 190
L 798 190
L 798 190
L 798 190
L 798 190
L 798 190
L 798 190
L 798 190
L 798 190
L 798 190
L 798 190
L 798 190
L 798 190
L 798 190
L 798 190
L 798 190
L 798 189
L 798 189
L 798 189
L 798 189
L 798 189
L 798 189
L 798 189
L 798 189
L 798 189
L 798 189
L 798 189
L 798 189
L 798 189
L 798 189
L 798 189
L 798 189
L 798 189
L 798 189
L 798 189
L 798 189
L 798 189
L 798 189
L 798 188
L 798 188
L 798 188
L 798 188
L 798 188
L 798 188
L 798 188
L 799 188
L 799 188
L 799 188
L 799 188
L 799 188
L 799 188
L 799 188
L 799 188
L 799 188
L 799 188
L 799 188
L 800 188
L 800 188
L 800 188
L 800 188
L 800 188
L 800 187
L 800 187
L 800 187
L 800 187
L 800 187
L 800 187
L 800 187
L 800 187
L 800 187
L 800 187
L 800 187
L 800 187
L 800 187
L 800 187
L 800 187
L 800 187
L 800 187
L 800 187
L 800 187
L 800 187
L 801 187
L 801 187
L 801 187
L 801 186
L 801 186
L 801 186
L 801 186
L 801 186
L 801 186
L 801 186
L 801 186
L 801 186
L 801 186
L 801 186
L 801 186
L 801 186
L 801 186
L 801 186
L 801 186
L 801 186
L 801 186
L 801 186
L 801 186
L 801 186
L 801 186
L 801 185
L 801 185
L 801 185
L 801 185
L 801 185
L 801 185
L 801 185
L 801 185
L 801 185
L 801 185
L 802 185
L 802 185
L 802 185
L 802 185
L 802 185
L 802 185
L 802 185
L 802 185
L 802 185
L 802 185
L 802 185
L 802 185
L 802 185
L 802 184
L 802 184
L 802 184
L 802 184
L 802 184
L 802 184
L 802 184
L 802 184
L 802 184
L 802 184
L 802 184
L 802 184
L 802 184
L 802 184
L 802 184
L 802 184
L 802 184
L 803 184
L 803 184
L 803 184
L 803 184
L 803 184
L 803 184
L 803 183
L 803 183
L 803 183
L 803 183
L 803 183
L 803 183
L 803 183
L 803 183
L 804 183
L 804 183
L 804 183
L 804 183
L 804 183
L 804 183
L 804 183
L 804 183
L 804 183
L 804 183
L 804 183
L 804 183
L 804 183
L 804 183
L 804 182
L 804 182
L 804 182
L 804 182
L 804 182
L 804 182
L 804 182
L 804 182
L 804 182
L 804 182
L 804 182
L 804 182
L 804 182
L 804 182
L 805 182
L 805 182
L 805 182
L 805 182
L 805 182
L 805 182
L 805 182
L 805 182
L 805 182
L 805 181
L 805 181
L 805 181
L 805 181
L 805 181
L 805 181
L 805 181
L 805 181
L 805 181
L 805 181
L 805 181
L 805 181
L 805 181
L 805 181
L 805 181
L 805 181
L 805 181
L 805 181
L 806 181
L 806 181
L 806 181
L 806 181
L 806 181
L 806 180
L 806 180
L 806 180
L 806 180
L 806 180
L 806 180
L 806 180
L 806 180
L 806 180
L 806 180
L 806 180
L 806 180
L 806 180
L 806 180
L 807 180
L 807 180
L 807 180
L 807 180
L 807 180
L 807 180
L 807 180
L 807 180
L 807 179
L 807 179
L 807 179
L 807 179
L 807 179
L 807 179
L 807 179
L 807 179
L 807 179
L 807 179
L 807 179
L 808 179
L 808 179
L 808 179
L 808 179
L 808 179
L 808 179
L 808 179
L 808 179
L 808 179
L 809 179
L 809 179
L 809 179
L 809 178
L 809 178
L 809 178
L 809 178
L 809 178
L 809 178
L 809 178
L 809 178
L 809 178
L 809 178
L 809 178
L 809 178
L 810 178
L 810 178
L 810 178
L 810 178
L 810 178
L 810 178
L 810 178
L 810 178
L 810 178
L 810 178
L 810 177
L 810 177
L 810 177
L 810 177
L 810 177
L 810 177
L 810 177
L 810 177
L 810 177
L 810 177
L 810 177
L 810 177
L 810 177
L 810 177
L 810 177
L 811 177
L 811 177
L 811 177
L 811 177
L 811 177
L 811 177
L 811 177
L 811 177
L 811 176
L 811 176
L 811 176
L 811 176
L 811 176
L 811 176
L 811 176
L 811 176
L 811 176
L 811 176
L 811 176
L 811 176
L 811 176
L 812 176
L 812 176
L 812 176
L 812 176
L 812 176
L 812 176
L 812 176
L 812 176
L 813 176
L 813 176
L 813 175
L 813 175
L 813 175
L 813 175
L 813 175
L 813 175
L 813 175
L 813 175
L 813 175
L 813 175
L 813 175
L 814 175
L 814 175
L 814 175
L 814 175
L 814 175
L 814 175
L 814 175
L 814 175
L 814 175
L 815 175
L 815 175
L 815 174
L 815 174
L 815 174
L 815 174
L 815 174
L 815 174
L 815 174
L 815 174
L 815 174
L 815 174
L 815 174
L 815 174
L 815 174
L 815 174
L 815 174
L 815 174
L 815 174
L 815 174
L 815 174
L 815 174
L 815 174
L 815 174
L 815 174
L 815 173
L 815 173
L 815 173
L 815 173
L 815 173
L 815 173
L 815 173
L 815 173
L 815 173
L 815 173
L 815 173
L 815 173
L 815 173
L 815 173
L 815 173
L 815 173
L 816 173
L 816 173
L 816 173
L 816 173
L 816 173
L 816 173
L 816 173
L 816 172
L 816 172
L 816 172
L 816 172
L 816 172
L 816 172
L 816 172
L 816 172
L 816 172
L 816 172
L 816 172
L 816 172
L 816 172
L 816 172
L 816 172
L 816 172
L 816 172
L 816 172
L 816 172
L 816 172
L 816 172
L 816 172
L 816 171
L 816 171
L 816 171
L 816 171
L 816 171
L 816 171
L 816 171
L 816 171
L 816 171
L 816 171
L 816 171
L 816 171
L 816 171
L 816 171
L 816 171
L 816 171
L 816 171
L 816 171
L 816 171
L 816 171
L 816 171
L 816 171
L 816 171
L 816 170
L 816 170
L 816 170
L 816 170
L 816 170
L 816 170
L 816 170
L 816 170
L 816 170
L 816 170
L 816 170
L 816 170
L 816 170
L 816 170
L 816 170
L 816 170
L 816 170
L 816 170
L 816 170
L 816 170
L 816 170
L 816 170
L 816 170
L 816 169
L 816 169
L 816 169
L 816 169
L 816 169
L 816 169
L 816 169
L 816 169
L 816 169
L 816 169
L 816 169
L 816 169
L 816 169
L 816 169
L 816 169
L 816 169
L 816 169
L 816 169
L 816 169
L 816 169
L 816 169
L 816 169
L 816 168
L 816 168
L 816 168
L 817 168
L 817 168
L 817 168
L 817 168
L 817 168
L 817 168
L 817 168
L 817 168
L 817 168
L 817 168
L 817 168
L 817 168
L 817 168
L 817 168
L 817 168
L 817 168
L 817 168
L 817 168
L 817 168
L 817 168
L 817 167
L 817 167
L 817 167
L 817 167
L 817 167
L 817 167
L 817 167
L 817 167
L 817 167
L 817 167
L 817 167
L 817 167
L 817 167
L 817 167
L 817 167
L 817 167
L 817 167
L 817 167
L 817 167
L 817 167
L 817 167
L 817 167
L 817 167
L 817 166
L 817 166
L 817 166
L 817 166
L 817 166
L 817 166
L 817 166
L 817 166
L 817 166
L 817 166
L 817 166
L 817 166
L 817 166
L 817 166
L 817 166
L 817 166
L 817 166
L 817 166
L 817 166
L 817 166
L 817 166
L 817 166
L 817 165
L 817 165
L 817 165
L 817 165
L 817 165
L 817 165
L 817 165
L 817 165
L 817 165
L 817 165
L 817 165
L 817 165
L 817 165
L 817 165
L 817 165
L 817 165
L 817 165
L 817 165
L 817 165
L 817 165
L 817 165
L 817 165
L 817 165
L 817 164
L 817 164
L 817 164
L 817 164
L 817 164
L 817 164
L 817 164
L 817 164
L 817 164
L 817 164
L 817 164
L 817 164
L 817 164
L 817 164
L 817 164
L 817 164
L 817 164
L 817 164
L 817 164
L 817 164
L 817 164
L 817 164
L 817 163
L 817 163
L 817 163
L 817 163
L 817 163
L 817 163
L 817 163
L 817 163
L 817 163
L 817 163
L 817 163
L 817 163
L 817 163
L 817 163
L 817 163
L 817 163
L 817 163
L 817 163
L 817 163
L 817 163
L 817 163
L 817 163
L 817 163
L 817 162
L 817 162
L 817 162
L 817 162
L 817 162
L 817 162
L 817 162
L 817 162
L 817 162
L 817 162
L 817 162
L 817 162
L 817 162
L 817 162
L 817 162
L 817 162
L 817 162
L 817 162
L 817 162
L 817 162
L 817 162
L 817 162
L 817 162
L 817 161
L 817 161
L 817 161
L 817 161
L 817 161
L 817 161
L 817 161
L 817 161
L 817 161
L 817 161
L 817 161
L 817 161
L 817 161
L 817 161
L 817 161
L 817 161
L 817 161
L 817 161
L 817 161
L 817 161
L 817 161
L 817 161
L 817 160
L 817 160
L 817 160
L 817 160
L 817 160
L 817 160
L 817 160
L 817 160
L 817 160
L 817 160
L 817 160
L 817 160
L 817 160
L 817 160
L 817 160
L 817 160
L 817 160
L 817 160
L 817 160
L 817 160
L 817 160
L 817 160
L 817 160
L 817 159
L 817 159
L 817 159
L 817 159
L 817 159
L 817 159
L 817 159
L 817 159
L 817 159
L 817 159
L 817 159
L 817 159
L 817 159
L 817 159
L 817 159
L 817 159
L 817 159
L 817 159
L 817 159
L 817 159
L 817 159
L 817 159
L 817 159
L 817 158
L 817 158
L 817 158
L 817 158
L 817 158
L 817 158
L 817 158
L 817 158
L 817 158
L 817 158
L 817 158
L 817 158
L 817 158
L 817 158
L 817 158
L 817 158
L 817 158
L 817 158
L 817 158
L 817 158
L 817 158
L 817 158
L 817 157
L 817 157
L 817 157
L 817 157
L 817 157
L 817 157
L 817 157
L 817 157
L 817 157
L 817 157
L 817 157
L 817 157
L 817 157
L 817 157
L 817 157
L 817 157
L 817 157
L 817 157
L 817 157
L 817 157
L 817 157
L 817 157
L 817 157
L 817 156
L 817 156
L 817 156
L 817 156
L 817 156
L 817 156
L 817 156
L 817 156
L 817 156
L 817 156
L 817 156
L 817 156
L 817 156
L 817 156
L 817 156
L 817 156
L 817 156
L 817 156
L 817 156
L 817 156
L 817 156
L 817 156
L 817 156
L 817 155
L 817 155
L 817 155
L 817 155
L 817 155
L 817 155
L 817 155
L 817 155
L 817 155
L 817 155
L 817 155
L 817 155
L 817 155
L 817 155
L 817 155
L 817 155
L 817 155
L 817 155
L 817 155
L 817 155
L 817 155
L 817 155
L 817 154
L 817 154
L 817 154
L 817 154
L 817 154
L 817 154
L 817 154
L 817 154
L 817 154
L 817 154
L 817 154
L 817 154
L 817 154
L 817 154
L 817 154
L 817 154
L 817 154
L 817 154
L 817 154
L 817 154
L 817 154
L 817 154
L 817 154
L 817 153
L 817 153
L 817 153
L 817 153
L 817 153
L 817 153
L 817 153
L 817 153
L 817 153
L 817 153
L 817 153
L 817 153
L 817 153
L 817 153
L 817 153
L 817 153
L 817 153
L 817 153
L 817 153
L 817 153
L 817 153
L 817 153
L 817 153
L 817 152
L 818 152
L 818 152
L 818 152
L 818 152
L 818 152
L 818 152
L 818 152
L 818 152
L 818 152
L 818 152
L 818 152
L 818 152
L 818 152
L 818 152
L 818 152
L 818 152
L 818 152
L 818 152
L 818 152
L 818 152
L 818 152
L 818 151
L 818 151
L 818 151
L 818 151
L 818 151
L 818 151
L 818 151
L 818 151
L 818 151
L 818 151
L 818 151
L 818 151
L 818 151
L 818 151
L 818 151
L 818 151
L 818 151
L 818 151
L 818 151
L 818 151
L 818 151
L 818 151
L 818 151
L 818 150
L 818 150
L 818 150
L 818 150
L 818 150
L 818 150
L 818 150
L 818 150
L 818 150
L 818 150
L 818 150
L 818 150
L 818 150
L 818 150
L 818 150
L 818 150
L 818 150
L 818 150
L 818 150
L 818 150
L 818 150
L 818 150
L 818 150
L 818 149
L 818 149
L 818 149
L 818 149
L 818 149
L 818 149
L 818 149
L 818 149
L 818 149
L 818 149
L 818 149
L 818 149
L 818 149
L 818 149
L 818 149
L 818 149
L 818 149
L 818 149
L 818 149
L 818 149
L 818 149
L 818 149
L 818 148
L 818 148
L 818 148
L 818 148
L 818 148
L 818 148
L 818 148
L 818 148
L 818 148
L 818 148
L 818 148
L 818 148
L 818 148
L 818 148
L 818 148
L 818 148
L 818 148
L 818 148
L 818 148
L 818 148
L 818 148
L 818 148
L 818 148
L 818 147
L 818 147
L 818 147
L 818 147
L 818 147
L 818 147
L 818 147
L 818 147
L 818 147
L 818 147
L 818 147
L 818 147
L 818 147
L 818 147
L 818 147
L 818 147
L 818 147
L 818 147
L 818 147
L 818 147
L 818 147
L 818 147
L 818 147
L 818 146
L 818 146
L 818 146
L 818 146
L 818 146
L 818 146
L 818 146
L 818 146
L 818 146
L 818 146
L 818 146
L 818 146
L 818 146
L 818 146
L 818 146
L 818 146
L 818 146
L 818 146
L 818 146
L 818 146
L 818 146
L 818 146
L 818 145
L 818 145
L 818 145
L 818 145
L 818 145
L 818 145
L 818 145
L 818 145
L 818 145
L 818 145
L 818 145
L 818 145
L 818 145
L 818 145
L 818 145
L 818 145
L 818 145
L 818 145
L 818 145
L 818 145
L 818 145
L 818 145
L 818 145
L 818 144
L 818 144
L 818 144
L 818 144
L 818 144
L 818 144
L 818 144
L 818 144
L 818 144
L 818 144
L 818 144
L 818 144
L 818 144
L 818 144
L 818 144
L 818 144
L 818 144
L 818 144
L 818 144
L 818 144
L 818 144
L 818 144
L 818 143
L 818 143
L 818 143
L 818 143
L 818 143
L 818 143
L 818 143
L 818 143
L 818 143
L 818 143
L 818 143
L 818 143
L 818 143
L 818 143
L 818 143
L 818 143
L 818 143
L 818 143
L 818 143
L 818 143
L 818 143
L 818 143
L 818 143
L 818 142
L 818 142
L 818 142
L 818 142
L 818 142
L 818 142
L 818 142
L 818 142
L 818 142
L 818 142
L 818 142
L 818 142
L 818 142
L 818 142
L 818 142
L 818 142
L 818 142
L 818 142
L 818 142
L 818 142
L 818 142
L 818 142
L 818 142
L 818 141
L 818 141
L 818 141
L 818 141
L 818 141
L 818 141
L 818 141
L 818 141
L 818 141
L 818 141
L 818 141
L 818 141
L 818 141
L 818 141
L 818 141
L 818 141
L 818 141
L 818 141
L 818 141
L 818 141
L 818 141
L 818 141
L 818 140
L 818 140
L 818 140
L 818 140
L 818 140
L 818 140
L 818 140
L 818 140
L 818 140
L 818 140
L 818 140
L 818 140
L 818 140
L 818 140
L 818 140
L 818 140
L 818 140
L 818 140
L 818 140
L 818 140
L 818 140
L 818 140
L 818 140
L 818 139
L 818 139
L 818 139
L 818 139
L 818 139
L 818 139
L 818 139
L 818 139
L 818 139
L 818 139
L 818 139
L 818 139
L 818 139
L 818 139
L 818 139
L 818 139
L 818 139
L 818 139
L 818 139
L 818 139
L 818 139
L 818 139
L 818 139
L 818 138
L 818 138
L 818 138
L 818 138
L 818 138
L 818 138
L 818 138
L 818 138
L 818 138
L 818 138
L 818 138
L 818 138
L 818 138
L 818 138
L 818 138
L 818 138
L 818 138
L 818 138
L 818 138
L 818 138
L 818 138
L 818 138
L 818 137
L 818 137
L 818 137
L 818 137
L 818 137
L 818 137
L 818 137
L 818 137
L 818 137
L 818 137
L 818 137
L 818 137
L 818 137
L 818 137
L 818 137
L 818 137
L 818 137
L 818 137
L 818 137
L 818 137
L 818 137
L 818 137
L 818 137
L 818 136
L 818 136
L 818 136
L 818 136
L 818 136
L 819 136
L 819 136
L 819 136
L 819 136
L 819 136
L 819 136
L 819 136
L 819 136
L 819 136
L 819 136
L 819 136
L 819 136
L 819 136
L 819 136
L 819 136
L 819 136
L 819 136
L 819 136
L 819 135
L 819 135
L 819 135
L 819 135
L 819 135
L 819 135
L 819 135
L 819 135
L 819 135
L 819 135
L 819 135
L 819 135
L 819 135
L 819 135
L 819 135
L 819 135
L 819 135
L 819 135
L 819 135
L 819 135
L 819 135
L 819 135
L 819 134
L 819 134
L 819 134
L 819 134
L 819 134
L 819 134
L 819 134
L 819 134
L 819 134
L 819 134
L 819 134
L 819 134
L 819 134
L 819 134
L 819 134
L 819 134
L 819 134
L 819 134
L 819 134
L 819 134
L 819 134
L 819 134
L 819 134
L 819 133
L 819 133
L 819 133
L 819 133
L 819 133
L 819 133
L 819 133
L 819 133
L 819 133
L 819 133
L 819 133
L 819 133
L 819 133
L 819 133
L 819 133
L 819 133
L 819 133
L 819 133
L 819 133
L 819 133
L 819 133
L 819 133
L 819 133
L 819 132
L 819 132
L 819 132
L 819 132
L 819 132
L 819 132
L 819 132
L 819 132
L 819 132
L 819 132
L 819 132
L 819 132
L 819 132
L 819 132
L 819 132
L 819 132
L 819 132
L 819 132
L 819 132
L 819 132
L 819 132
L 819 132
L 819 131
L 819 131
L 819 131
L 819 131
L 819 131
L 819 131
L 819 131
L 819 131
L 819 131
L 819 131
L 819 131
L 819 131
L 819 131
L 819 131
L 819 131
L 819 131
L 819 131
L 819 131
L 819 131
L 819 131
L 819 131
L 819 131
L 819 131
L 819 130
L 819 130
L 819 130
L 819 130
L 819 130
L 819 130
L 819 130
L 819 130
L 819 130
L 819 130
L 819 130
L 819 130
L 819 130
L 819 130
L 819 130
L 819 130
L 819 130
L 819 130
L 819 130
L 819 130
L 819 130
L 819 130
L 819 130
L 819 129
L 819 129
L 819 129
L 819 129
L 819 129
L 819 129
L 819 129
L 819 129
L 819 129
L 819 129
L 819 129
L 819 129
L 819 129
L 819 129
L 819 129
L 819 129
L 819 129
L 819 129
L 819 129
L 819 129
L 819 129
L 819 129
L 819 128
L 819 128
L 819 128
L 819 128
L 819 128
L 819 128
L 819 128
L 819 128
L 819 128
L 819 128
L 819 128
L 819 128
L 819 128
L 819 128
L 819 128
L 819 128
L 819 128
L 819 128
L 819 128
L 819 128
L 819 128
L 819 128
L 819 128
L 819 127
L 819 127
L 819 127
L 819 127
L 819 127
L 819 127
L 819 127
L 819 127
L 819 127
L 819 127
L 819 127
L 819 127
L 819 127
L 819 127
L 819 127
L 819 127
L 819 127
L 819 127
L 819 127
L 819 127
L 819 127
L 819 127
L 819 126
L 819 126
L 819 126
L 819 126
L 819 126
L 819 126
L 820 126
L 820 126
L 820 126
L 820 126
L 820 126
L 820 126
L 820 126
L 820 126
L 820 126
L 820 126
L 820 126
L 820 126
L 820 126
L 820 126
L 820 126
L 820 126
L 820 126
L 820 125
L 820 125
L 820 125
L 820 125
L 820 125
L 820 125
L 820 125
L 820 125
L 820 125
L 820 125
L 820 125
L 820 125
L 820 125
L 820 125
L 820 125
L 820 125
L 820 125
L 820 125
L 820 125
L 820 125
L 820 125
L 820 125
L 820 125
L 820 124
L 820 124
L 820 124
L 820 124
L 820 124
L 820 124
L 820 124
L 820 124
L 820 124
L 820 124
L 820 124
L 820 124
L 820 124
L 820 124
L 820 124
L 820 124
L 820 124
L 820 124
L 820 124
L 820 124
L 820 124
L 820 124
L 820 123
L 820 123
L 820 123
L 820 123
L 820 123
L 820 123
L 820 123
L 820 123
L 820 123
L 820 123
L 820 123
L 820 123
L 820 123
L 820 123
L 820 123
L 820 123
L 820 123
L 820 123
L 820 123
L 820 123
L 820 123
L 820 123
L 820 123
L 820 122
L 820 122
L 820 122
L 820 122
L 820 122
L 820 122
L 820 122
L 820 122
L 820 122
L 820 122
L 820 122
L 820 122
L 820 122
L 820 122
L 820 122
L 820 122
L 820 122
L 820 122
L 820 122
L 820 122
L 820 122
L 820 122
L 820 122
L 820 121
L 820 121
L 820 121
L 820 121
L 820 121
L 820 121
L 820 121
L 820 121
L 820 121
L 820 121
L 820 121
L 820 121
L 820 121
L 820 121
L 820 121
L 820 121
L 820 121
L 820 121
L 820 121
L 820 121
L 821 121
L 821 121
L 821 120
L 821 120
L 821 120
L 821 120
L 821 120
L 821 120
L 821 120
L 821 120
L 821 120
L 821 120
L 821 120
L 821 120
L 821 120
L 821 120
L 821 120
L 821 120
L 821 120
L 821 120
L 821 120
L 821 120
L 821 120
L 821 120
L 821 120
L 821 119
L 821 119
L 821 119
L 821 119
L 821 119
L 821 119
L 821 119
L 821 119
L 821 119
L 821 119
L 821 119
L 821 119
L 821 119
L 821 119
L 821 119
L 821 119
L 821 119
L 821 119
L 821 119
L 821 119
L 821 119
L 821 119
L 821 119
L 821 118
L 821 118
L 821 118
L 821 118
L 821 118
L 821 118
L 821 118
L 822 118
L 822 118
L 822 118
L 822 118
L 822 118
L 822 118
L 822 118
L 822 118
L 822 118
L 822 118
L 822 118
L 822 118
L 822 118
L 822 118
L 822 118
L 822 117
L 822 117
L 822 117
L 822 117
L 822 117
L 822 117
L 822 117
L 822 117
L 822 117
L 822 117
L 822 117
L 822 117
L 822 117
L 822 117
L 822 117
L 822 117
L 822 117
L 822 117
L 822 117
L 822 117
L 822 117
L 822 117
L 822 117
L 822 116
L 822 116
L 822 116
L 822 116
L 822 116
L 822 116
L 822 116
L 822 116
L 822 116
L 822 116
L 822 116
L 822 116
L 822 116
L 822 116
L 822 116
L 822 116
L 822 116
L 822 116
L 822 116
L 822 116
L 822 116
L 822 116
L 822 116
L 822 115
L 822 115
L 822 115
L 822 115
L 822 115
L 822 115
L 822 115
L 822 115
L 822 115
L 822 115
L 822 115
L 822 115
L 822 115
L 822 115
L 822 115
L 822 115
L 822 115
L 822 115
L 822 115
L 822 115
L 822 115
L 822 115
L 822 114
L 822 114
L 822 114
L 822 114
L 823 114
L 823 114
L 823 114
L 823 114
L 823 114
L 823 114
L 823 114
L 823 114
L 823 114
L 823 114
L 823 114
L 823 114
L 823 114
L 823 114
L 823 114
L 823 114
L 823 114
L 823 114
L 823 114
L 823 113
L 823 113
L 823 113
L 823 113
L 823 113
L 823 113
L 823 113
L 823 113
L 823 113
L 823 113
L 823 113
L 823 113
L 823 113
L 823 113
L 823 113
L 823 113
L 823 113
L 823 113
L 823 113
L 823 113
L 823 113
L 823 113
L 823 113
L 823 112
L 823 112
L 824 112
L 824 112
L 824 112
L 824 112
L 824 112
L 824 112
L 824 112
L 824 112
L 824 112
L 824 112
L 824 112
L 824 112
L 824 112
L 824 112
L 824 112
L 824 112
L 824 112
L 824 112
L 824 112
L 824 112
L 824 111
L 824 111
L 824 111
L 824 111
L 824 111
L 824 111
L 824 111
L 824 111
L 824 111
L 824 111
L 824 111
L 825 111
L 825 111
L 825 111
L 825 111
L 825 111
L 825 111
L 825 111
L 825 111
L 825 111
L 825 111
L 825 111
L 825 111
L 825 110
L 825 110
L 825 110
L 825 110
L 825 110
L 826 110
L 826 110
L 826 110
L 826 110
L 826 110
L 826 110
L 826 110
L 826 110
L 826 110
L 826 110
L 826 110
L 826 110
L 826 110
L 826 110
L 826 110
L 826 110
L 826 110
L 826 109
L 826 109
L 826 109
L 826 109
L 826 109
L 826 109
L 826 109
L 826 109
L 826 109
L 826 109
L 826 109
L 827 109
L 827 109
L 827 109
L 827 109
L 827 109
L 827 109
L 827 109
L 827 109
L 827 109
L 827 109
L 827 109
L 827 109
L 827 108
L 827 108
L 827 108
L 827 108
L 827 108
L 827 108
L 827 108
L 827 108
L 827 108
L 827 108
L 827 108
L 827 108
L 827 108
L 827 108
L 827 108
L 827 108
L 827 108
L 827 108
L 828 108
L 828 108
L 828 108
L 828 108
L 828 108
L 828 107
L 828 107
L 828 107
L 828 107
L 828 107
L 828 107
L 828 107
L 828 107
L 828 107
L 828 107
L 828 107
L 829 107
L 829 107
L 829 107
L 829 107
L 829 107
L 829 107
L 829 107
L 829 107
L 829 107
L 829 107
L 829 107
L 829 106
L 829 106
L 829 106
L 829 106
L 829 106
L 829 106
L 829 106
L 829 106
L 829 106
L 829 106
L 829 106
L 829 106
L 829 106
L 829 106
L 829 106
L 829 106
L 829 106
L 829 106
L 829 106
L 829 106
L 830 106
L 830 106
L 830 106
L 830 105
L 830 105
L 830 105
L 830 105
L 830 105
L 830 105
L 830 105
L 830 105
L 830 105
L 830 105
L 830 105
L 830 105
L 830 105
L 830 105
L 830 105
L 830 105
L 830 105
L 830 105
L 831 105
L 831 105
L 831 105
L 831 105
L 831 105
L 831 104
L 831 104
L 831 104
L 831 104
L 831 104
L 831 104
L 831 104
L 831 104
L 832 104
L 832 104
L 832 104
L 832 104
L 832 104
L 832 104
L 832 104
L 832 104
L 832 104
L 832 104
L 833 104
L 833 104
L 833 104
L 833 104
L 833 103
L 833 103
L 833 103
L 833 103
L 833 103
L 833 103
L 833 103
L 833 103
L 833 103
L 833 103
L 833 103
L 833 103
L 833 103
L 833 103
L 833 103
L 833 103
L 833 103
L 833 103
L 833 103
L 833 103
L 833 103
L 833 103
L 833 103
L 833 102
L 833 102
L 833 102
L 833 102
L 833 102
L 833 102
L 833 102
L 833 102
L 833 102
L 834 102
L 834 102
L 834 102
L 834 102
L 834 102
L 834 102
L 834 102
L 834 102
L 834 102
L 834 102
L 834 102
L 834 102
L 834 102
L 834 102
L 834 101
L 834 101
L 834 101
L 834 101
L 834 101
L 834 101
L 834 101
L 834 101
L 834 101
L 834 101
L 834 101
L 834 101
L 834 101
L 834 101
L 834 101
L 834 101
L 834 101
L 834 101
L 834 101
L 834 101
L 834 101
L 834 101
L 834 100
L 834 100
L 834 100
L 834 100
L 834 100
L 834 100
L 834 100
L 834 100
L 834 100
L 834 100
L 834 100
L 834 100
L 834 100
L 834 100
L 834 100
L 834 100
L 834 100
L 835 100
L 835 100
L 835 100
L 835 100
L 835 100
L 835 100
L 835 99
L 835 99
L 835 99
L 835 99
L 835 99
L 835 99
L 835 99
L 835 99
L 835 99
L 835 99
L 835 99
L 835 99
L 835 99
L 835 99
L 835 99
L 835 99
L 835 99
L 835 99
L 835 99
L 835 99
L 835 99
L 835 99
L 835 99
L 835 98
L 835 98
L 835 98
L 835 98
L 835 98
L 835 98
L 835 98
L 835 98
L 835 98
L 835 98
L 835 98
L 835 98
L 835 98
L 835 98
L 835 98
L 835 98
L 835 98
L 835 98
L 835 98
L 836 98
L 836 98
L 836 98
L 836 97
L 836 97
L 836 97
L 836 97
L 836 97
L 836 97
L 836 97
L 836 97
L 836 97
L 836 97
L 836 97
L 836 97
L 836 97
L 836 97
L 836 97
L 836 97
L 836 97
L 836 97
L 836 97
L 836 97
L 836 97
L 837 97
L 837 97
L 837 96
L 837 96
L 837 96
L 837 96
L 837 96
L 837 96
L 837 96
L 837 96
L 837 96
L 837 96
L 837 96
L 837 96
L 837 96
L 837 96
L 837 96
L 837 96
L 837 96
L 837 96
L 837 96
L 837 96
L 837 96
L 837 96
L 837 96
L 837 95
L 837 95
L 837 95
L 837 95
L 837 95
L 837 95
L 837 95
L 838 95
L 838 95
L 838 95
L 838 95
L 838 95
L 838 95
L 838 95
L 838 95
L 838 95
L 838 95
L 838 95
L 838 95
L 838 95
L 838 95
L 838 95
L 838 94
L 838 94
L 838 94
L 838 94
L 838 94
L 838 94
L 838 94
L 838 94
L 838 94
L 838 94
L 838 94
L 838 94
L 839 94
L 839 94
L 839 94
L 839 94
L 839 94
L 839 94
L 839 94
L 839 94
L 839 94
L 839 94
L 839 94
L 839 93
L 839 93
L 839 93
L 839 93
L 839 93
L 839 93
L 839 93
L 839 93
L 839 93
L 839 93
L 839 93
L 839 93
L 839 93
L 839 93
L 839 93
L 839 93
L 839 93
L 839 93
L 839 93
L 839 93
L 839 93
L 840 93
L 840 92
L 840 92
L 840 92
L 840 92
L 840 92
L 840 92
L 840 92
L 840 92
L 840 92
L 840 92
L 840 92
L 840 92
L 840 92
L 840 92
L 841 92
L 841 92
L 841 92
L 841 92
L 841 92
L 841 92
L 841 92
L 841 92
L 841 92
L 841 91
L 841 91
L 841 91
L 841 91
L 841 91
L 842 91
L 842 91
L 842 91
L 842 91
L 842 91
L 842 91
L 842 91
L 843 91
L 843 91
L 843 91
L 843 91
L 843 91
L 843 91
L 843 91
L 844 91
L 844 91
L 844 91
L 844 91
L 844 90
L 844 90
L 844 90
L 844 90
L 844 90
L 844 90
L 844 90
L 844 90
L 844 90
L 845 90
L 845 90
L 845 90
L 845 90
L 845 90
L 845 90
L 845 90
L 845 90
L 845 90
L 845 90
L 845 90
L 845 90
L 845 90
L 845 89
L 845 89
L 846 89
L 846 89
L 846 89
L 846 89
L 846 89
L 846 89
L 846 89
L 846 89
L 846 89
L 846 89
L 846 89
L 846 89
L 847 89
L 847 89
L 847 89
L 847 89
L 847 89
L 847 89
L 847 89
L 848 89
L 848 89
L 848 88
L 848 88
L 848 88
L 848 88
L 848 88
L 848 88
L 849 88
L 849 88
L 849 88
L 849 88
L 849 88
L 849 88
L 849 88
L 849 88
L 849 88
L 849 88
L 849 88
L 849 88
L 850 88
L 850 88
L 850 88
L 850 88
L 850 88
L 850 87
L 850 87
L 850 87
L 850 87
L 850 87
L 850 87
L 850 87
L 850 87
L 851 87
L 851 87
L 851 87
L 851 87
L 851 87
L 851 87
L 851 87
L 851 87
L 851 87
L 851 87
L 851 87
L 852 87
L 852 87
L 852 87
L 852 86
L 852 86
L 852 86
L 852 86
L 852 86
L 852 86
L 852 86
L 852 86
L 852 86
L 852 86
L 852 86
L 852 86
L 852 86
L 853 86
L 853 86
L 853 86
L 853 86
L 853 86
L 853 86
L 853 86
L 854 86
L 854 86
L 854 86
L 854 85
L 854 85
L 854 85
L 854 85
L 854 85
L 854 85
L 854 85
L 855 85
L 855 85
L 855 85
L 855 85
L 855 85
L 855 85
L 855 85
L 855 85
L 855 85
L 855 85
L 855 85
L 855 85
L 855 85
L 855 85
L 855 85
L 855 85
L 855 84
L 856 84
L 856 84
L 856 84
L 856 84
L 856 84
L 856 84
L 856 84
L 856 84
L 856 84
L 856 84
L 856 84
L 856 84
L 857 84
L 857 84
L 857 84
L 857 84
L 857 84
L 857 84
L 857 84
L 857 84
L 858 84
L 858 83
L 858 83
L 858 83
L 858 83
L 858 83
L 858 83
L 858 83
L 858 83
L 859 83
L 859 83
L 859 83
L 859 83
L 859 83
L 859 83
L 859 83
L 859 83
L 859 83
L 860 83
L 860 83
L 860 83
L 860 83
L 860 83
L 860 83
L 860 82
L 860 82
L 860 82
L 860 82
L 860 82
L 860 82
L 860 82
L 860 82
L 860 82
L 861 82
L 861 82
L 861 82
L 861 82
L 861 82
L 861 82
L 861 82
L 861 82
L 861 82
L 861 82
L 861 82
L 861 82
L 861 82
L 861 82
L 861 81
L 861 81
L 861 81
L 861 81
L 861 81
L 861 81
L 861 81
L 861 81
L 861 81
L 861 81
L 861 81
L 861 81
L 861 81
L 861 81
L 861 81
L 861 81
L 861 81
L 861 81
L 861 81
L 861 81
L 861 81
L 861 81
L 862 80
L 862 80
L 862 80
L 862 80
L 862 80
L 862 80
L 862 80
L 862 80
L 862 80
L 862 80
L 862 80
L 862 80
L 862 80
L 862 80
L 862 80
L 862 80
L 862 80
L 862 80
L 862 80
L 862 80
L 862 80
L 862 80
L 862 80
L 862 79
L 862 79
L 862 79
L 862 79
L 862 79
L 862 79
L 862 79
L 862 79
L 862 79
L 862 79
L 862 79
L 863 79
L 863 79
L 863 79
L 863 79
L 863 79
L 863 79
L 863 79
L 863 79
L 863 79
L 863 79
L 863 79
L 863 79
L 863 78
L 863 78
L 864 78
L 864 78
L 864 78
L 864 78
L 864 78
L 864 78
L 865 78
L 865 78
L 865 78
L 865 78
L 865 78
L 865 78
L 865 78
L 865 78
L 865 78
L 865 78
L 865 78
L 865 78
L 865 78
L 865 78
L 865 77
L 865 77
L 866 77
L 866 77
L 866 77
L 866 77
L 866 77
L 866 77
L 866 77
L 866 77
L 866 77
L 866 77
L 866 77
L 866 77
L 866 77
L 866 77
L 866 77
L 867 77
L 867 77
L 867 77
L 867 77
L 867 77
L 867 77
L 867 76
L 867 76
L 867 76
L 867 76
L 867 76
L 868 76
L 868 76
L 868 76
L 868 76
L 868 76
L 868 76
L 868 76
L 868 76
L 868 76
L 868 76
L 868 76
L 868 76
L 868 76
L 868 76
L 869 76
L 869 76
L 869 76
L 869 75
L 869 75
L 869 75
L 869 75
L 869 75
L 869 75
L 869 75
L 869 75
L 869 75
L 869 75
L 870 75
L 870 75
L 870 75
L 870 75
L 870 75
L 870 75
L 870 75
L 870 75
L 870 75
L 871 75
L 871 75
L 871 75
L 871 75
L 871 74
L 871 74
L 871 74
L 871 74
L 871 74
L 872 74
L 872 74
L 872 74
L 872 74
L 872 74
L 872 74
L 872 74
L 872 74
L 872 74
L 872 74
L 872 74
L 873 74
L 873 74
L 873 74
L 873 74
L 873 74
L 873 74
L 873 74
L 873 73
L 873 73
L 873 73
L 873 73
L 873 73
L 873 73
L 873 73
L 873 73
L 874 73
L 874 73
L 874 73
L 874 73
L 874 73
L 874 73
L 874 73
L 874 73
L 874 73
L 874 73
L 874 73
L 874 73
L 874 73
L 875 73
L 875 72
L 875 72
L 875 72
L 875 72
L 875 72
L 875 72
L 875 72
L 876 72
L 876 72
L 876 72
L 876 72
L 876 72
L 876 72
L 876 72
L 876 72
L 876 72
L 876 72
L 876 72
L 877 72
L 877 72
L 877 72
L 877 72
L 877 72
L 877 71
L 877 71
L 877 71
L 877 71
L 877 71
L 877 71
L 877 71
L 877 71
L 877 71
L 877 71
L 877 71
L 877 71
L 877 71
L 877 71
L 877 71
L 878 71
L 878 71
L 878 71
L 878 71
L 878 71
L 878 71
L 878 71
L 878 71
L 878 70
L 878 70
L 878 70
L 878 70
L 878 70
L 878 70
L 879 70
L 879 70
L 879 70
L 879 70
L 879 70
L 879 70
L 879 70
L 879 70
L 879 70
L 879 70
L 879 70
L 880 70
L 880 70
L 880 70
L 880 70
L 880 70
L 880 69
L 880 69
L 881 69
L 881 69
L 881 69
L 881 69
L 881 69
L 881 69
L 881 69
L 881 69
L 881 69
L 882 69
L 882 69
L 882 69
L 882 69
L 882 69
L 882 69
L 882 69
L 882 69
L 882 69
L 882 69
L 882 69
L 882 69
L 883 68
L 883 68
L 883 68
L 883 68
L 883 68
L 883 68
L 883 68
L 883 68
L 883 68
L 883 68
L 883 68
L 884 68
L 884 68
L 884 68
L 884 68
L 884 68
L 884 68
L 884 68
L 884 68
L 884 68
L 884 68
L 884 68
L 884 68
L 884 67
L 885 67
L 885 67
L 885 67
L 885 67
L 885 67
L 885 67
L 885 67
L 885 67
L 885 67
L 885 67
L 885 67
L 885 67
L 886 67
L 886 67
L 886 67
L 886 67
L 886 67
L 886 67
L 886 67
L 887 67
L 887 67
L 887 66
L 887 66
L 887 66
L 887 66
L 887 66
L 887 66
L 887 66
L 887 66
L 887 66
L 887 66
L 888 66
L 888 66
L 888 66
L 888 66
L 888 66
L 888 66
L 888 66
L 888 66
L 888 66
L 888 66
L 889 66
L 889 66
L 889 66
L 889 65
L 889 65
L 889 65
L 889 65
L 889 65
L 889 65
L 889 65
L 889 65
L 889 65
L 889 65
L 889 65
L 889 65
L 889 65
L 889 65
L 889 65
L 889 65
L 889 65
L 889 65
L 889 65
L 889 65
L 889 65
L 889 65
L 889 65
L 889 64
L 889 64
L 889 64
L 889 64
L 889 64
L 889 64
L 889 64
L 889 64
L 889 64
L 889 64
L 890 64
L 890 64
L 890 64
L 890 64
L 890 64
L 890 64
L 890 64
L 890 64
L 890 64
L 890 64
L 890 64
L 890 64
L 890 63
L 890 63
L 890 63
L 890 63
L 890 63
L 890 63
L 890 63
L 890 63
L 890 63
L 890 63
L 890 63
L 890 63
L 890 63
L 890 63
L 890 63
L 890 63
L 890 63
L 890 63
L 890 63
L 891 63
L 891 63
L 891 63
L 891 63
L 891 62
L 891 62
L 891 62
L 891 62
L 891 62
L 891 62
L 891 62
L 891 62
L 891 62
L 891 62
L 891 62
L 891 62
L 891 62
L 891 62
L 891 62
L 891 62
L 891 62
L 891 62
L 891 62
L 891 62
L 891 62
L 891 62
L 891 62
L 891 61
L 891 61
L 891 61
L 891 61
L 891 61
L 891 61
L 891 61
L 891 61
L 891 61
L 891 61
L 891 61
L 891 61
L 891 61
L 891 61
L 891 61
L 891 61
L 892 61
L 892 61
L 892 61
L 892 61
L 892 61
L 892 61
L 892 60
L 892 60
L 892 60
L 892 60
L 892 60
L 892 60
L 892 60
L 892 60
L 892 60
L 892 60
L 892 60
L 893 60
L 893 60
L 893 60
L 893 60
L 893 60
L 893 60
L 893 60
L 893 60
L 893 60
L 893 60
L 893 60
L 893 60
L 893 59
L 893 59
L 893 59
L 893 59
L 893 59
L 893 59
L 893 59
L 894 59
L 894 59
L 894 59
L 894 59
L 894 59
L 894 59
L 894 59
L 894 59
L 894 59
L 894 59
L 894 59
L 894 59
L 894 59
L 894 59
L 894 59
L 894 58
L 894 58
L 894 58
L 894 58
L 894 58
L 894 58
L 894 58
L 894 58
L 894 58
L 894 58
L 894 58
L 894 58
L 894 58
L 894 58
L 894 58
L 894 58
L 894 58
L 894 58
L 894 58
L 894 58
L 894 58
L 894 58
L 894 58
L 894 57
L 894 57
L 894 57
L 894 57
L 894 57
L 894 57
L 894 57
L 894 57
L 894 57
L 894 57
L 894 57
L 894 57
L 895 57
L 895 57
L 895 57
L 895 57
L 895 57
L 895 57
L 895 57
L 895 57
L 895 57
L 895 57
L 895 57
L 895 56
L 895 56
L 895 56
L 895 56
L 895 56
L 895 56
L 895 56
L 895 56
L 895 56
L 895 56
L 895 56
L 895 56
L 895 56
L 895 56
L 895 56
L 895 56
L 895 56
L 895 56
L 895 56
L 895 56
L 895 56
L 895 56
L 895 55
L 895 55
L 895 55
L 895 55
L 895 55
L 895 55
L 895 55
L 895 55
L 895 55
L 895 55
L 895 55
L 895 55
L 895 55
L 895 55
L 895 55
L 895 55
L 895 55
L 895 55
L 895 55
L 895 55
L 895 55
L 895 55
L 895 55
L 895 54
L 895 54
L 895 54
L 895 54
L 895 54
L 895 54
L 895 54
L 896 54
L 896 54
L 896 54
L 896 54
L 896 54
L 896 54
L 896 54
L 896 54
L 896 54
L 896 54
L 896 54
L 896 54
L 896 54
L 896 54
L 896 54
L 896 54
L 896 53
L 896 53
L 896 53
L 896 53
L 896 53
L 896 53
L 896 53
L 896 53
L 896 53
L 896 53
L 896 53
L 896 53
L 896 53
L 896 53
L 896 53
L 896 53
L 896 53
L 896 53
L 896 53
L 896 53
L 896 53
L 896 53
L 896 52
L 896 52
L 896 52
L 896 52
L 896 52
L 896 52
L 896 52
L 896 52
L 896 52
L 896 52
L 896 52
L 896 52
L 896 52
L 897 52
L 897 52
L 897 52
L 897 52
L 897 52
L 897 52
L 897 52
L 897 52
L 897 52
L 897 52
L 897 51
L 897 51
L 897 51
L 897 51
L 897 51
L 897 51
L 897 51
L 897 51
L 897 51
L 897 51
L 897 51
L 897 51
L 897 51
L 897 51
L 897 51
L 897 51
L 897 51
L 897 51
L 897 51
L 897 51
L 897 51
L 897 51
L 897 51
L 897 50
L 897 50
L 897 50
L 897 50
L 897 50
L 897 50
L 897 50
L 897 50
L 897 50
L 897 50
L 897 50
L 897 50
L 897 50
L 897 50
L 897 50
L 897 50
L 898 50
L 898 50
L 898 50
L 898 50
L 898 50
L 898 50
L 898 49
L 898 49
L 898 49
L 898 49
L 898 49
L 898 49
L 898 49
L 898 49
L 898 49
L 898 49
L 898 49
L 898 49
L 898 49
L 899 49
L 899 49
L 899 49
L 899 49
L 899 49
L 899 49
L 899 49
L 899 49
L 899 49
L 899 49
L 899 48
L 899 48
L 899 48
L 899 48
L 899 48
L 899 48
L 899 48
L 899 48
L 899 48
L 899 48
L 899 48
L 899 48
L 899 48
L 899 48
L 899 48
L 899 48
L 899 48
L 899 48
L 899 48
L 899 48
L 899 48
L 899 48
L 900 48
L 900 47
L 900 47
L 900 47
L 900 47
L 900 47
L 900 47
L 900 47
L 900 47
L 900 47
L 900 47
L 900 47
L 900 47
L 900 47
L 900 47
L 900 47
L 900 47
L 900 47
L 900 47
L 900 47
L 900 47
L 900 47
L 900 47
L 901 46
L 901 46
L 901 46
L 901 46
L 901 46
L 901 46
L 901 46
L 901 46
L 901 46
L 901 46
L 901 46
L 901 46
L 901 46
L 901 46
L 901 46
L 901 46
L 901 46
L 901 46
L 902 46
L 902 46
L 902 46
L 902 46
L 902 46
L 902 45
L 902 45
L 902 45
L 902 45
L 902 45
L 902 45
L 902 45
L 903 45
L 903 45
L 903 45
L 903 45
L 903 45
L 903 45
L 903 45
L 903 45
L 903 45
L 903 45
L 903 45
L 903 45
L 903 45
L 903 45
L 903 45
L 904 45
L 904 44
L 904 44
L 904 44
L 904 44
L 904 44
L 904 44
L 904 44
L 904 44
L 904 44
L 904 44
L 905 44
L 905 44
L 905 44
L 905 44
L 905 44
L 905 44
L 905 44
L 905 44
L 905 44
L 905 44
L 905 44
L 905 44
L 905 43
L 905 43
L 905 43
L 905 43
L 905 43
L 905 43
L 905 43
L 905 43
L 905 43
L 905 43
L 905 43
L 905 43
L 905 43
L 905 43
L 905 43
L 905 43
L 906 43
L 906 43
L 906 43
L 906 43
L 906 43
L 906 43
L 906 43
L 906 42
L 906 42
L 906 42
L 906 42
L 906 42
L 906 42
L 906 42
L 906 42
L 906 42
L 906 42
L 906 42
L 906 42
L 906 42
L 906 42
L 906 42
L 906 42
L 906 42
L 906 42
L 906 42
L 906 42
L 906 42
L 906 42
L 906 41
L 906 41
L 906 41
L 906 41
L 906 41
L 906 41
L 907 41
L 907 41
L 907 41
L 907 41
L 907 41
L 907 41
L 907 41
L 907 41
L 907 41
L 907 41
L 907 41
L 907 41
L 907 41
L 907 41
L 907 41
L 907 41
L 907 41
L 907 40
L 907 40
L 907 40
L 908 40
L 908 40
L 908 40
L 908 40
L 908 40
L 908 40
L 908 40
L 908 40
L 908 40
L 908 40
L 908 40
L 908 40
L 908 40
L 908 40
L 908 40
L 908 40
L 908 40
L 908 40
L 908 40
L 909 40
L 909 39
L 909 39
L 909 39
L 909 39
L 909 39
L 909 39
L 909 39
L 909 39
L 909 39
L 909 39
L 909 39
L 909 39
L 909 39
L 909 39
L 909 39
L 909 39
L 909 39
L 909 39
L 909 39
L 909 39
L 909 39
L 909 39
L 909 38
L 909 38
L 910 38
L 910 38
L 910 38
L 910 38
L 910 38
L 910 38
L 910 38
L 910 38
L 910 38
L 910 38
L 910 38
L 910 38
L 910 38
L 911 38
L 911 38
L 911 38
L 911 38
L 911 38
L 911 38
L 911 38
L 912 38
L 912 37
L 912 37
L 912 37
L 912 37
L 912 37
L 912 37
L 912 37
L 912 37
L 912 37
L 912 37
L 912 37
L 912 37
L 912 37
L 912 37
L 912 37
L 912 37
L 912 37
L 912 37
L 912 37
L 912 37
L 912 37
L 913 37
L 913 37
L 913 36
L 913 36
L 913 36
L 913 36
L 913 36
L 913 36
L 913 36
L 913 36
L 913 36
L 913 36
L 913 36
L 913 36
L 913 36
L 913 36
L 913 36
L 913 36
L 913 36
L 913 36
L 913 36
L 913 36
L 913 36
L 913 36
L 913 35
L 913 35
L 913 35
L 913 35
L 913 35
L 913 35
L 913 35
L 913 35
L 913 35
L 913 35
L 913 35
L 913 35
L 913 35
L 914 35
L 914 35
L 914 35
L 914 35
L 914 35
L 914 35
L 914 35
L 914 35
L 914 35
L 914 35
L 914 34
L 914 34
L 914 34
L 914 34
L 915 34
L 915 34
L 915 34
L 915 34
L 915 34
L 915 34
L 915 34
L 915 34
L 915 34
L 915 34
L 915 34
L 915 34
L 915 34
L 916 34
L 916 34
L 916 34
L 916 34
L 916 34
L 916 34
L 916 33
L 916 33
L 916 33
L 916 33
L 916 33
L 916 33
L 916 33
L 916 33
L 917 33
L 917 33
L 917 33
L 917 33
L 917 33
L 917 33
L 917 33
L 917 33
L 917 33
L 917 33
L 917 33
L 917 33
L 917 33
L 917 33
L 917 32
L 917 32
L 918 32
L 918 32
L 918 32
L 918 32
L 918 32
L 918 32
L 918 32
L 918 32
L 918 32
L 918 32
L 918 32
L 918 32
L 918 32
L 918 32
L 919 32
L 919 32
L 919 32
L 919 32
L 919 32
L 919 32
L 919 32
L 920 31
L 920 31
L 920 31
L 920 31
L 920 31
L 920 31
L 920 31
L 921 31
L 921 31
L 921 31
L 921 31
L 921 31
L 921 31
L 921 31
L 921 31
L 921 31
L 921 31
L 921 31
L 921 31
L 921 31
L 921 31
L 922 31
L 923 31
L 923 30
L 923 30
L 923 30
L 923 30
L 923 30
L 923 30
L 923 30
L 923 30
L 924 30
L 924 30
L 924 30
L 924 30
L 924 30
L 924 30
L 924 30
L 924 30
L 924 30
L 925 30
L 925 30
L 925 30
L 925 30
L 925 30
L 926 29
L 926 29
L 926 29
L 926 29
L 926 29
L 926 29
L 926 29
L 926 29
L 926 29
L 926 29
L 927 29
L 927 29
L 927 29
L 927 29
L 927 29
L 927 29
L 927 29
L 928 29
L 928 29
L 928 29
L 928 29
L 928 29
L 928 29
L 928 28
L 928 28
L 928 28
L 928 28
L 928 28
L 928 28
L 928 28
L 928 28
L 928 28
L 928 28
L 928 28
L 928 28
L 928 28
L 928 28
L 928 28
L 928 28
L 929 28
L 929 28
L 929 28
L 929 28
L 929 28
L 929 28
L 929 28
L 929 27
L 929 27
L 929 27
L 929 27
L 929 27
L 929 27
L 929 27
L 929 27
L 929 27
L 929 27
L 929 27
L 929 27
L 929 27
L 929 27
L 929 27
L 929 27
L 929 27
L 929 27
L 929 27
L 929 27
L 930 27
L 930 27
L 930 26
L 930 26
L 930 26
L 930 26
L 930 26
L 930 26
L 930 26
L 930 26
L 930 26
L 930 26
L 930 26
L 930 26
L 930 26
L 930 26
L 930 26
L 930 26
L 930 26
L 930 26
L 930 26
L 931 26
L 931 26
L 931 26
L 931 26
L 932 25
L 932 25
L 932 25
L 932 25
L 932 25
L 932 25
L 932 25
L 932 25
L 933 25
L 933 25
L 933 25
L 933 25
L 933 25
L 933 25
L 933 25
L 933 25
L 933 25
L 933 25
L 934 25
L 934 25
L 934 25
L 934 25
L 934 24
L 934 24
L 934 24
L 934 24
L 934 24
L 934 24
L 935 24
L 935 24
L 935 24
L 935 24
L 935 24
L 935 24
L 935 24
L 935 24
L 935 24
L 936 24
L 936 24
L 936 24
L 936 24
L 936 24
L 936 24
L 936 24
L 937 24
L 937 23
L 937 23
L 937 23
L 937 23
L 937 23
L 937 23
L 937 23
L 938 23
L 938 23
L 938 23
L 938 23
L 938 23
L 938 23
L 938 23
L 938 23
L 938 23
L 938 23
L 939 23
L 939 23
L 939 23
L 939 23
L 939 23
L 939 23
L 939 22
L 939 22
L 939 22
L 939 22
L 939 22
L 939 22
L 939 22
L 939 22
L 939 22
L 940 22
L 940 22
L 940 22
L 940 22
L 940 22
L 940 22
L 940 22
L 940 22
L 940 22
L 940 22
L 940 22
L 940 22
L 940 22
L 940 21
L 940 21
L 940 21
L 940 21
L 940 21
L 940 21
L 940 21
L 940 21
L 940 21
L 940 21
L 940 21
L 940 21
L 941 21
L 941 21
L 941 21
L 941 21
L 941 21
L 941 21
L 941 21
L 941 21
L 941 21
L 941 21
L 941 21
L 942 20
L 942 20
L 942 20
L 942 20
L 942 20
L 942 20
L 942 20
L 942 20
L 942 20
L 942 20
L 942 20
L 942 20
L 942 20
L 942 20
L 942 20
L 942 20
L 943 20
L 943 20
L 943 20
L 943 20
L 943 20
L 943 20
L 943 20
L 943 19
L 944 19
L 944 19
L 944 19
L 944 19
L 944 19
L 944 19
L 944 19
L 944 19
L 944 19
L 944 19
L 944 19
L 944 19
L 944 19
L 944 19
L 944 19
L 945 19
L 945 19
L 945 19
L 945 19
L 945 19
L 945 19
L 945 18
L 945 18
L 945 18
L 945 18
L 945 18
L 945 18
L 946 18
L 946 18
L 946 18
L 946 18
L 946 18
L 946 18
L 946 18
L 946 18
L 947 18
L 947 18
L 947 18
L 947 18
L 947 18
L 947 18
L 947 18
L 947 18
L 947 18
L 947 17
L 947 17
L 947 17
L 947 17
L 947 17
L 947 17
L 947 17
L 947 17
L 948 17
L 948 17
L 948 17
L 948 17
L 948 17
L 949 17
L 949 17
L 949 17
L 949 17
L 949 17
L 949 17
L 949 17
L 949 17
L 949 17
L 949 17
L 949 16
L 949 16
L 950 16
L 950 16
L 950 16
L 950 16
L 950 16
L 951 16
L 951 16
L 951 16
L 951 16
L 951 16
L 951 16
L 951 16
L 951 16
L 952 16
L 952 16
L 952 16
L 952 16
L 952 16
L 952 16
L 952 16
L 952 15
L 952 15
L 952 15
L 952 15
L 953 15
L 953 15
L 953 15
L 953 15
L 954 15
L 954 15
L 954 15
L 954 15
L 954 15
L 955 15
L 955 15
L 955 15
L 955 15
L 955 15
L 956 15
L 956 15
L 956 15
L 956 15
L 956 15
L 956 14
L 956 14
L 956 14
L 956 14
L 956 14
L 956 14
L 956 14
L 956 14
L 957 14
L 957 14
L 957 14
L 957 14
L 957 14
L 957 14
L 957 14
L 957 14
L 957 14
L 957 14
L 957 14
L 957 14
L 957 14
L 957 14
L 957 14
L 957 13
L 957 13
L 957 13
L 957 13
L 957 13
L 957 13
L 957 13" style="stroke-width:2;stroke:rgba(129,199,239,1.0);fill:none"/></svg>