<!-- stars: 9487 -->
<svg xmlns="http://www.w3.org/2000/svg" xmlns:xlink="http://www.w3.org/1999/xlink" width="1024" height="400">\n<path  d="M 0 0
L 1024 0
L 1024 400
L 0 400
L 0 0" style="stroke-width:0;stroke:rgba(255,255,255,1.0);fill:rgba(255,255,255,1.0)"/><path  d="M 38 11
L 957 11
L 957 351
L 38 351
L 38 11" style="stroke-width:0;stroke:rgba(255,255,255,1.0);fill:rgba(255,255,255,1.0)"/><path  d="M 38 351
L 957 351" style="stroke-width:2;stroke:rgba(85,85,85,1.0);fill:none"/><path  d="M 38 351
L 38 356" style="stroke-width:2;stroke:rgba(85,85,85,1.0);fill:none"/><text x="5" y="373" style="stroke-width:0;stroke:none;fill:rgba(51,51,51,1.0);font-size:12.8px;font-family:'Roboto Medium',sans-serif">2018-09-25</text><path  d="M 153 351
L 153 356" style="stroke-width:2;stroke:rgba(85,85,85,1.0);fill:none"/><text x="120" y="373" style="stroke-width:0;stroke:none;fill:rgba(51,51,51,1.0);font-size:12.8px;font-family:'Roboto Medium',sans-serif">2019-02-20</text><path  d="M 268 351
L 268 356" style="stroke-width:2;stroke:rgba(85,85,85,1.0);fill:none"/><text x="235" y="373" style="stroke-width:0;stroke:none;fill:rgba(51,51,51,1.0);font-size:12.8px;font-family:'Roboto Medium',sans-serif">2019-07-19</text><path  d="M 383 351
L 383 356" style="stroke-width:2;stroke:rgba(85,85,85,1.0);fill:none"/><text x="350" y="373" style="stroke-width:0;stroke:none;fill:rgba(51,51,51,1.0);font-size:12.8px;font-family:'Roboto Medium',sans-serif">2019-12-15</text><path  d="M 498 351
L 498 356" style="stroke-width:2;stroke:rgba(85,85,85,1.0);fill:none"/><text x="465" y="373" style="stroke-width:0;stroke:none;fill:rgba(51,51,51,1.0);font-size:12.8px;font-family:'Roboto Medium',sans-serif">2020-05-11</text><path  d="M 613 351
L 613 356" style="stroke-width:2;stroke:rgba(85,85,85,1.0);fill:none"/><text x="580" y="373" style="stroke-width:0;stroke:none;fill:rgba(51,51,51,1.0);font-size:12.8px;font-family:'Roboto Medium',sans-serif">2020-10-07</text><path  d="M 728 351
L 728 356" style="stroke-width:2;stroke:rgba(85,85,85,1.0);fill:none"/><text x="695" y="373" style="stroke-width:0;stroke:none;fill:rgba(51,51,51,1.0);font-size:12.8px;font-family:'Roboto Medium',sans-serif">2021-03-05</text><path  d="M 843 351
L 843 356" style="stroke-width:2;stroke:rgba(85,85,85,1.0);fill:none"/><text x="810" y="373" style="stroke-width:0;stroke:none;fill:rgba(51,51,51,1.0);font-size:12.8px;font-family:'Roboto Medium',sans-serif">2021-07-31</text><path  d="M 957 351
L 957 356" style="stroke-width:2;stroke:rgba(85,85,85,1.0);fill:none"/><text x="924" y="373" style="stroke-width:0;stroke:none;fill:rgba(51,51,51,1.0);font-size:12.8px;font-family:'Roboto Medium',sans-serif">2021-12-27</text><text x="483" y="395" style="stroke-width:0;stroke:none;fill:rgba(51,51,51,1.0);font-size:12.8px;font-family:'Roboto Medium',sans-serif">Time</text><path  d="M 959 351
L 959 11" style="stroke-width:2;stroke:rgba(85,85,85,1.0);fill:none"/><path  d="M 959 351
L 964 351" style="stroke-width:2;stroke:rgba(85,85,85,1.0);fill:none"/><text x="969" y="357" style="stroke-width:0;stroke:none;fill:rgba(51,51,51,1.0);font-size:12.8px;font-family:'Roboto Medium',sans-serif">0</text><path  d="M 959 308
L 964 308" style="stroke-width:2;stroke:rgba(85,85,85,1.0);fill:none"/><text x="969" y="314" style="stroke-width:0;stroke:none;fill:rgba(51,51,51,1.0);font-size:12.8px;font-family:'Roboto Medium',sans-serif">1190</text><path  d="M 959 265
L 964 265" style="stroke-width:2;stroke:rgba(85,85,85,1.0);fill:none"/><text x="969" y="271" style="stroke-width:0;stroke:none;fill:rgba(51,51,51,1.0);font-size:12.8px;font-family:'Roboto Medium',sans-serif">2380</text><path  d="M 959 223
L 964 223" style="stroke-width:2;stroke:rgba(85,85,85,1.0);fill:none"/><text x="969" y="229" style="stroke-width:0;stroke:none;fill:rgba(51,51,51,1.0);font-size:12.8px;font-family:'Roboto Medium',sans-serif">3570</text><path  d="M 959 181
L 964 181" style="stroke-width:2;stroke:rgba(85,85,85,1.0);fill:none"/><text x="969" y="187" style="stroke-width:0;stroke:none;fill:rgba(51,51,51,1.0);font-size:12.8px;font-family:'Roboto Medium',sans-serif">4750</text><path  d="M 959 138
L 964 138" style="stroke-width:2;stroke:rgba(85,85,85,1.0);fill:none"/><text x="969" y="144" style="stroke-width:0;stroke:none;fill:rgba(51,51,51,1.0);font-size:12.8px;font-family:'Roboto Medium',sans-serif">5940</text><path  d="M 959 95
L 964 95" style="stroke-width:2;stroke:rgba(85,85,85,1.0);fill:none"/><text x="969" y="101" style="stroke-width:0;stroke:none;fill:rgba(51,51,51,1.0);font-size:12.8px;font-family:'Roboto Medium',sans-serif">7130</text><path  d="M 959 53
L 964 53" style="stroke-width:2;stroke:rgba(85,85,85,1.0);fill:none"/><text x="969" y="59" style="stroke-width:0;stroke:none;fill:rgba(51,51,51,1.0);font-size:12.8px;font-family:'Roboto Medium',sans-serif">8320</text><path  d="M 959 11
L 964 11" style="stroke-width:2;stroke:rgba(85,85,85,1.0);fill:none"/><text x="969" y="17" style="stroke-width:0;stroke:none;fill:rgba(51,51,51,1.0);font-size:12.8px;font-family:'Roboto Medium',sans-serif">9500</text><text x="1009" y="150" style="stroke-width:0;stroke:none;fill:rgba(51,51,51,1.0);font-size:12.8px;font-family:'Roboto Medium',sans-serif" transform="rotate(90.00,1009,150)">Stargazers</text><path  d="M 38 351
L 40 350
L 50 350
L 50 350
L 51 350
L 51 350
L 51 350
L 53 350
L 54 350
L 55 350
L 57 350
L 57 350
L 57 350
L 58 350
L 58 350
L 58 350
L 60 350
L 66 350
L 66 350
L 69 350
L 69 350
L 70 350
L 71 350
L 72 350
L 73 350
L 73 350
L 78 350
L 82 350
L 87 349
L 87 349
L 93 349
L 93 349
L 93 349
L 93 349
L 93 349
L 93 349
L 93 349
L 94 349
L 94 349
L 94 349
L 94 349
L 96 349
L 98 349
L 98 349
L 98 349
L 98 349
L 98 349
L 99 349
L 99 349
L 100 349
L 102 349
L 102 349
L 103 349
L 104 349
L 106 349
L 107 349
L 107 348
L 108 348
L 109 348
L 109 348
L 109 348
L 110 348
L 110 348
L 110 348
L 110 348
L 111 348
L 111 348
L 111 348
L 111 348
L 111 348
L 112 348
L 112 348
L 112 348
L 113 348
L 114 348
L 114 348
L 115 348
L 115 348
L 117 348
L 117 348
L 119 348
L 119 348
L 119 348
L 119 348
L 119 347
L 119 347
L 121 347
L 121 347
L 121 347
L 121 347
L 122 347
L 122 347
L 124 347
L 125 347
L 125 347
L 125 347
L 126 347
L 126 347
L 128 347
L 130 347
L 131 347
L 132 347
L 132 347
L 132 347
L 133 347
L 140 347
L 143 347
L 147 347
L 147 347
L 148 347
L 148 347
L 149 347
L 149 346
L 150 346
L 152 346
L 152 346
L 152 346
L 152 346
L 153 346
L 153 346
L 153 346
L 154 346
L 154 346
L 157 346
L 157 346
L 159 346
L 160 346
L 162 346
L 162 346
L 163 346
L 164 346
L 165 346
L 165 346
L 165 346
L 165 346
L 167 346
L 167 346
L 168 346
L 169 346
L 170 346
L 171 345
L 173 345
L 173 345
L 174 345
L 174 345
L 174 345
L 175 345
L 176 345
L 176 345
L 179 345
L 180 345
L 180 345
L 180 345
L 181 345
L 182 345
L 182 345
L 182 345
L 182 345
L 182 345
L 183 345
L 184 345
L 184 345
L 184 345
L 184 345
L 185 345
L 185 345
L 185 345
L 185 345
L 185 344
L 185 344
L 185 344
L 185 344
L 185 344
L 186 344
L 186 344
L 186 344
L 186 344
L 186 344
L 187 344
L 189 344
L 189 344
L 189 344
L 190 344
L 190 344
L 191 344
L 191 344
L 191 344
L 191 344
L 191 344
L 192 344
L 192 344
L 192 344
L 193 344
L 195 344
L 195 344
L 196 344
L 198 343
L 198 343
L 200 343
L 201 343
L 201 343
L 202 343
L 202 343
L 202 343
L 202 343
L 202 343
L 203 343
L 204 343
L 204 343
L 205 343
L 205 343
L 206 343
L 206 343
L 206 343
L 207 343
L 207 343
L 208 343
L 208 343
L 209 343
L 209 343
L 210 343
L 211 343
L 212 343
L 213 343
L 214 342
L 214 342
L 214 342
L 214 342
L 215 342
L 215 342
L 218 342
L 219 342
L 222 342
L 223 342
L 224 342
L 226 342
L 227 342
L 227 342
L 227 342
L 229 342
L 233 342
L 233 342
L 233 342
L 234 342
L 234 342
L 235 342
L 235 342
L 235 342
L 235 342
L 236 342
L 241 342
L 244 342
L 244 341
L 245 341
L 245 341
L 245 341
L 245 341
L 245 341
L 245 341
L 245 341
L 245 341
L 246 341
L 247 341
L 249 341
L 250 341
L 250 341
L 251 341
L 252 341
L 252 341
L 253 341
L 254 341
L 254 341
L 255 341
L 255 341
L 255 341
L 255 341
L 255 341
L 256 341
L 256 341
L 256 341
L 257 340
L 257 340
L 257 340
L 257 340
L 257 340
L 258 340
L 258 340
L 259 340
L 259 340
L 259 340
L 259 340
L 261 340
L 262 340
L 263 340
L 263 340
L 264 340
L 265 340
L 265 340
L 266 340
L 266 340
L 268 340
L 269 340
L 270 340
L 271 340
L 274 340
L 274 340
L 275 340
L 276 340
L 277 339
L 277 339
L 278 339
L 282 339
L 286 339
L 286 339
L 287 339
L 289 339
L 291 339
L 292 339
L 294 339
L 297 339
L 297 339
L 297 339
L 298 339
L 300 339
L 305 339
L 305 339
L 305 339
L 306 339
L 306 339
L 317 339
L 317 339
L 318 339
L 318 339
L 318 339
L 318 339
L 318 339
L 318 338
L 318 338
L 319 338
L 319 338
L 319 338
L 319 338
L 320 338
L 321 338
L 324 338
L 324 338
L 324 338
L 330 338
L 331 338
L 332 338
L 333 338
L 333 338
L 334 338
L 335 338
L 336 338
L 336 338
L 336 338
L 337 338
L 338 338
L 338 338
L 339 338
L 341 338
L 341 338
L 341 338
L 342 337
L 346 337
L 358 337
L 359 337
L 362 337
L 364 337
L 365 337
L 366 337
L 368 337
L 368 337
L 369 337
L 369 337
L 369 337
L 370 337
L 370 337
L 374 337
L 374 337
L 376 337
L 377 337
L 382 337
L 382 337
L 382 337
L 387 337
L 389 337
L 390 337
L 391 337
L 391 337
L 391 337
L 392 336
L 392 336
L 392 336
L 392 336
L 392 336
L 392 336
L 393 336
L 395 336
L 395 336
L 399 336
L 400 336
L 402 336
L 405 336
L 405 336
L 406 336
L 406 336
L 406 336
L 407 336
L 409 336
L 411 336
L 411 336
L 416 336
L 416 336
L 417 336
L 417 336
L 419 336
L 421 336
L 423 336
L 425 335
L 429 335
L 430 335
L 431 335
L 431 335
L 434 335
L 441 335
L 443 335
L 445 335
L 446 335
L 447 335
L 447 335
L 448 335
L 448 335
L 448 335
L 449 335
L 451 335
L 451 335
L 451 335
L 451 335
L 451 335
L 451 335
L 453 335
L 453 335
L 454 335
L 454 335
L 455 335
L 456 335
L 456 334
L 456 334
L 456 334
L 456 334
L 457 334
L 457 334
L 457 334
L 457 334
L 457 334
L 457 334
L 457 334
L 459 334
L 459 334
L 461 334
L 461 334
L 462 334
L 462 334
L 462 334
L 462 334
L 463 334
L 464 334
L 464 334
L 464 334
L 464 334
L 465 334
L 465 334
L 465 334
L 465 334
L 466 333
L 466 333
L 468 333
L 468 333
L 470 333
L 470 333
L 471 333
L 471 333
L 471 333
L 471 333
L 472 333
L 472 333
L 473 333
L 473 333
L 473 333
L 473 333
L 473 333
L 473 333
L 473 333
L 473 333
L 473 333
L 473 333
L 473 333
L 473 333
L 473 333
L 474 333
L 474 333
L 474 332
L 475 332
L 475 332
L 475 332
L 475 332
L 476 332
L 476 332
L 476 332
L 477 332
L 478 332
L 478 332
L 479 332
L 479 332
L 479 332
L 480 332
L 481 332
L 481 332
L 481 332
L 481 332
L 481 332
L 481 332
L 481 332
L 481 332
L 481 332
L 481 332
L 481 332
L 482 332
L 482 332
L 482 331
L 482 331
L 482 331
L 482 331
L 482 331
L 482 331
L 482 331
L 482 331
L 482 331
L 482 331
L 482 331
L 482 331
L 482 331
L 482 331
L 482 331
L 483 331
L 483 331
L 483 331
L 483 331
L 484 331
L 484 331
L 484 331
L 484 331
L 484 331
L 484 331
L 484 331
L 484 331
L 485 331
L 485 330
L 486 330
L 486 330
L 487 330
L 487 330
L 487 330
L 488 330
L 488 330
L 488 330
L 488 330
L 488 330
L 488 330
L 488 330
L 488 330
L 489 330
L 490 330
L 490 330
L 491 330
L 492 330
L 492 330
L 493 330
L 494 330
L 494 330
L 494 330
L 494 330
L 495 330
L 495 330
L 495 330
L 495 329
L 495 329
L 495 329
L 496 329
L 497 329
L 497 329
L 497 329
L 498 329
L 498 329
L 499 329
L 499 329
L 499 329
L 500 329
L 500 329
L 500 329
L 501 329
L 501 329
L 501 329
L 501 329
L 501 329
L 501 329
L 502 329
L 502 329
L 502 329
L 503 329
L 504 329
L 504 329
L 505 329
L 505 328
L 505 328
L 506 328
L 506 328
L 507 328
L 507 328
L 508 328
L 508 328
L 508 328
L 509 328
L 509 328
L 509 328
L 509 328
L 510 328
L 510 328
L 510 328
L 510 328
L 510 328
L 511 328
L 511 328
L 511 328
L 511 328
L 511 328
L 511 328
L 512 328
L 512 328
L 512 328
L 512 328
L 513 327
L 513 327
L 515 327
L 515 327
L 515 327
L 515 327
L 515 327
L 516 327
L 516 327
L 516 327
L 517 327
L 518 327
L 518 327
L 518 327
L 518 327
L 518 327
L 518 327
L 518 327
L 518 327
L 518 327
L 518 327
L 518 327
L 518 327
L 518 327
L 519 327
L 519 327
L 519 327
L 519 327
L 519 326
L 519 326
L 519 326
L 519 326
L 520 326
L 520 326
L 520 326
L 520 326
L 521 326
L 522 326
L 522 326
L 522 326
L 523 326
L 523 326
L 523 326
L 523 326
L 524 326
L 524 326
L 524 326
L 524 326
L 525 326
L 525 326
L 525 326
L 525 326
L 525 326
L 525 326
L 525 326
L 525 326
L 525 325
L 525 325
L 525 325
L 525 325
L 525 325
L 525 325
L 526 325
L 526 325
L 526 325
L 526 325
L 526 325
L 526 325
L 527 325
L 527 325
L 527 325
L 528 325
L 528 325
L 528 325
L 528 325
L 529 325
L 529 325
L 529 325
L 529 325
L 529 325
L 529 325
L 529 325
L 529 325
L 530 325
L 530 324
L 530 324
L 531 324
L 531 324
L 532 324
L 532 324
L 532 324
L 534 324
L 534 324
L 534 324
L 534 324
L 534 324
L 534 324
L 535 324
L 535 324
L 535 324
L 535 324
L 536 324
L 536 324
L 536 324
L 536 324
L 537 324
L 537 324
L 537 324
L 537 324
L 538 324
L 538 324
L 538 324
L 538 323
L 538 323
L 539 323
L 539 323
L 539 323
L 539 323
L 540 323
L 540 323
L 540 323
L 541 323
L 541 323
L 541 323
L 541 323
L 541 323
L 543 323
L 543 323
L 543 323
L 543 323
L 544 323
L 544 323
L 544 323
L 545 323
L 545 323
L 546 323
L 547 323
L 547 323
L 547 323
L 548 323
L 548 322
L 548 322
L 549 322
L 549 322
L 549 322
L 549 322
L 549 322
L 550 322
L 550 322
L 550 322
L 550 322
L 551 322
L 551 322
L 551 322
L 551 322
L 552 322
L 552 322
L 552 322
L 552 322
L 552 322
L 552 322
L 552 322
L 552 322
L 553 322
L 553 322
L 553 322
L 554 322
L 554 322
L 555 321
L 555 321
L 555 321
L 555 321
L 556 321
L 556 321
L 556 321
L 556 321
L 557 321
L 557 321
L 557 321
L 557 321
L 557 321
L 558 321
L 558 321
L 558 321
L 558 321
L 558 321
L 559 321
L 559 321
L 559 321
L 559 321
L 559 321
L 559 321
L 559 321
L 559 321
L 559 321
L 559 321
L 559 320
L 560 320
L 560 320
L 560 320
L 560 320
L 560 320
L 561 320
L 561 320
L 561 320
L 562 320
L 562 320
L 562 320
L 563 320
L 563 320
L 563 320
L 563 320
L 564 320
L 564 320
L 564 320
L 565 320
L 565 320
L 565 320
L 565 320
L 565 320
L 565 320
L 565 320
L 566 320
L 566 320
L 567 319
L 567 319
L 568 319
L 568 319
L 568 319
L 568 319
L 568 319
L 569 319
L 569 319
L 569 319
L 569 319
L 569 319
L 569 319
L 569 319
L 570 319
L 570 319
L 570 319
L 570 319
L 571 319
L 571 319
L 571 319
L 571 319
L 571 319
L 573 319
L 573 319
L 573 319
L 573 319
L 574 319
L 574 318
L 574 318
L 574 318
L 574 318
L 574 318
L 575 318
L 575 318
L 575 318
L 575 318
L 576 318
L 576 318
L 576 318
L 576 318
L 576 318
L 576 318
L 577 318
L 578 318
L 579 318
L 579 318
L 580 318
L 580 318
L 581 318
L 581 318
L 582 318
L 583 318
L 584 318
L 584 318
L 584 318
L 584 317
L 585 317
L 586 317
L 586 317
L 586 317
L 586 317
L 587 317
L 587 317
L 587 317
L 588 317
L 588 317
L 588 317
L 589 317
L 589 317
L 589 317
L 589 317
L 590 317
L 590 317
L 590 317
L 591 317
L 591 317
L 592 317
L 592 317
L 592 317
L 592 317
L 592 317
L 592 317
L 592 317
L 592 316
L 592 316
L 593 316
L 593 316
L 593 316
L 593 316
L 593 316
L 594 316
L 594 316
L 594 316
L 594 316
L 594 316
L 595 316
L 596 316
L 596 316
L 596 316
L 597 316
L 597 316
L 597 316
L 599 316
L 599 316
L 599 316
L 600 316
L 601 316
L 601 316
L 601 316
L 602 316
L 602 315
L 602 315
L 602 315
L 603 315
L 605 315
L 605 315
L 605 315
L 605 315
L 605 315
L 605 315
L 606 315
L 606 315
L 606 315
L 607 315
L 607 315
L 607 315
L 607 315
L 607 315
L 607 315
L 607 315
L 607 315
L 609 315
L 611 315
L 611 315
L 612 315
L 613 315
L 614 315
L 614 315
L 615 314
L 615 314
L 615 314
L 615 314
L 616 314
L 616 314
L 616 314
L 616 314
L 617 314
L 617 314
L 617 314
L 617 314
L 617 314
L 617 314
L 617 314
L 617 314
L 618 314
L 618 314
L 618 314
L 618 314
L 618 314
L 618 314
L 619 314
L 619 314
L 619 314
L 619 314
L 619 314
L 619 314
L 620 313
L 620 313
L 620 313
L 620 313
L 620 313
L 620 313
L 620 313
L 622 313
L 622 313
L 622 313
L 622 313
L 623 313
L 623 313
L 623 313
L 623 313
L 624 313
L 624 313
L 624 313
L 624 313
L 624 313
L 625 313
L 625 313
L 625 313
L 625 313
L 625 313
L 625 313
L 627 313
L 627 313
L 627 312
L 628 312
L 628 312
L 628 312
L 628 312
L 628 312
L 628 312
L 628 312
L 628 312
L 628 312
L 628 312
L 628 312
L 628 312
L 629 312
L 629 312
L 629 312
L 629 312
L 629 312
L 629 312
L 629 312
L 629 312
L 629 312
L 630 312
L 630 312
L 630 312
L 630 312
L 630 312
L 630 312
L 630 311
L 630 311
L 630 311
L 630 311
L 630 311
L 630 311
L 631 311
L 631 311
L 631 311
L 631 311
L 631 311
L 631 311
L 631 311
L 632 311
L 632 311
L 632 311
L 632 311
L 632 311
L 633 311
L 633 311
L 633 311
L 633 311
L 633 311
L 634 311
L 634 311
L 634 311
L 634 311
L 634 311
L 634 310
L 634 310
L 634 310
L 634 310
L 634 310
L 634 310
L 634 310
L 634 310
L 635 310
L 635 310
L 635 310
L 635 310
L 635 310
L 636 310
L 637 310
L 637 310
L 637 310
L 637 310
L 638 310
L 638 310
L 638 310
L 638 310
L 638 310
L 638 310
L 638 310
L 638 310
L 639 310
L 639 310
L 639 309
L 639 309
L 640 309
L 640 309
L 640 309
L 640 309
L 640 309
L 640 309
L 640 309
L 641 309
L 641 309
L 641 309
L 641 309
L 642 309
L 642 309
L 642 309
L 642 309
L 643 309
L 643 309
L 643 309
L 644 309
L 644 309
L 644 309
L 644 309
L 644 309
L 645 309
L 645 309
L 645 309
L 645 308
L 645 308
L 645 308
L 645 308
L 646 308
L 646 308
L 646 308
L 646 308
L 646 308
L 647 308
L 647 308
L 647 308
L 647 308
L 648 308
L 648 308
L 648 308
L 648 308
L 648 308
L 649 308
L 649 308
L 649 308
L 649 308
L 649 308
L 649 308
L 649 308
L 650 308
L 650 308
L 651 308
L 651 307
L 652 307
L 652 307
L 652 307
L 652 307
L 652 307
L 652 307
L 652 307
L 652 307
L 652 307
L 654 307
L 654 307
L 654 307
L 654 307
L 654 307
L 655 307
L 655 307
L 655 307
L 655 307
L 655 307
L 655 307
L 655 307
L 655 307
L 656 307
L 656 307
L 656 307
L 656 307
L 656 307
L 656 306
L 657 306
L 657 306
L 657 306
L 657 306
L 657 306
L 657 306
L 659 306
L 660 306
L 660 306
L 660 306
L 660 306
L 660 306
L 661 306
L 661 306
L 661 306
L 661 306
L 661 306
L 661 306
L 661 306
L 661 306
L 661 306
L 662 306
L 662 306
L 662 306
L 662 306
L 662 306
L 662 306
L 663 305
L 663 305
L 663 305
L 663 305
L 664 305
L 664 305
L 665 305
L 665 305
L 665 305
L 665 305
L 665 305
L 665 305
L 665 305
L 666 305
L 666 305
L 666 305
L 667 305
L 667 305
L 667 305
L 667 305
L 667 305
L 668 305
L 668 305
L 668 305
L 668 305
L 670 305
L 670 305
L 670 305
L 670 304
L 670 304
L 671 304
L 671 304
L 671 304
L 671 304
L 671 304
L 671 304
L 671 304
L 671 304
L 671 304
L 672 304
L 672 304
L 672 304
L 672 304
L 672 304
L 672 304
L 672 304
L 672 304
L 672 304
L 672 304
L 673 304
L 673 304
L 673 304
L 673 304
L 673 304
L 673 304
L 674 304
L 674 303
L 674 303
L 674 303
L 674 303
L 674 303
L 675 303
L 675 303
L 675 303
L 675 303
L 675 303
L 675 303
L 676 303
L 676 303
L 676 303
L 676 303
L 676 303
L 677 303
L 677 303
L 677 303
L 677 303
L 677 303
L 677 303
L 677 303
L 677 303
L 678 303
L 678 303
L 678 303
L 678 303
L 678 302
L 678 302
L 679 302
L 680 302
L 681 302
L 681 302
L 681 302
L 681 302
L 681 302
L 682 302
L 682 302
L 682 302
L 682 302
L 682 302
L 682 302
L 682 302
L 683 302
L 683 302
L 683 302
L 683 302
L 683 302
L 683 302
L 683 302
L 683 302
L 683 302
L 683 302
L 683 302
L 684 302
L 684 301
L 684 301
L 684 301
L 684 301
L 685 301
L 685 301
L 685 301
L 685 301
L 685 301
L 685 301
L 686 301
L 687 301
L 687 301
L 687 301
L 687 301
L 687 301
L 687 301
L 688 301
L 688 301
L 688 301
L 688 301
L 688 301
L 688 301
L 688 301
L 688 301
L 689 301
L 689 301
L 689 301
L 689 300
L 689 300
L 690 300
L 690 300
L 690 300
L 690 300
L 691 300
L 691 300
L 691 300
L 691 300
L 692 300
L 692 300
L 692 300
L 692 300
L 692 300
L 692 300
L 693 300
L 693 300
L 693 300
L 693 300
L 694 300
L 694 300
L 695 300
L 695 300
L 695 300
L 695 300
L 695 300
L 695 300
L 695 299
L 695 299
L 695 299
L 695 299
L 696 299
L 696 299
L 696 299
L 696 299
L 696 299
L 697 299
L 697 299
L 697 299
L 697 299
L 697 299
L 697 299
L 698 299
L 698 299
L 698 299
L 698 299
L 698 299
L 698 299
L 698 299
L 698 299
L 698 299
L 698 299
L 699 299
L 699 299
L 699 298
L 699 298
L 699 298
L 699 298
L 700 298
L 700 298
L 700 298
L 700 298
L 702 298
L 702 298
L 702 298
L 702 298
L 702 298
L 702 298
L 702 298
L 702 298
L 703 298
L 703 298
L 703 298
L 703 298
L 703 298
L 703 298
L 703 298
L 704 298
L 704 298
L 705 298
L 705 298
L 705 298
L 705 297
L 705 297
L 705 297
L 705 297
L 706 297
L 706 297
L 706 297
L 706 297
L 706 297
L 706 297
L 706 297
L 706 297
L 707 297
L 707 297
L 707 297
L 707 297
L 707 297
L 707 297
L 707 297
L 708 297
L 708 297
L 708 297
L 708 297
L 709 297
L 709 297
L 709 297
L 709 297
L 709 297
L 710 296
L 710 296
L 711 296
L 712 296
L 712 296
L 712 296
L 713 296
L 713 296
L 713 296
L 714 296
L 714 296
L 714 296
L 715 296
L 715 296
L 715 296
L 715 296
L 715 296
L 716 296
L 716 296
L 716 296
L 716 296
L 716 296
L 717 296
L 717 296
L 717 296
L 717 296
L 717 296
L 717 296
L 717 295
L 717 295
L 718 295
L 718 295
L 718 295
L 718 295
L 718 295
L 718 295
L 718 295
L 718 295
L 718 295
L 719 295
L 719 295
L 719 295
L 719 295
L 719 295
L 719 295
L 720 295
L 720 295
L 720 295
L 720 295
L 720 295
L 720 295
L 720 295
L 720 295
L 720 295
L 720 295
L 720 295
L 721 294
L 721 294
L 721 294
L 721 294
L 721 294
L 721 294
L 722 294
L 722 294
L 722 294
L 722 294
L 722 294
L 722 294
L 722 294
L 722 294
L 722 294
L 722 294
L 722 294
L 722 294
L 723 294
L 723 294
L 723 294
L 723 294
L 724 294
L 724 294
L 724 294
L 724 294
L 724 294
L 725 294
L 725 293
L 725 293
L 725 293
L 725 293
L 725 293
L 725 293
L 725 293
L 725 293
L 725 293
L 725 293
L 725 293
L 725 293
L 726 293
L 726 293
L 726 293
L 726 293
L 726 293
L 726 293
L 726 293
L 726 293
L 726 293
L 726 293
L 726 293
L 726 293
L 727 293
L 727 293
L 727 293
L 727 293
L 727 292
L 727 292
L 727 292
L 727 292
L 727 292
L 728 292
L 728 292
L 729 292
L 729 292
L 729 292
L 729 292
L 729 292
L 729 292
L 729 292
L 730 292
L 730 292
L 730 292
L 730 292
L 730 292
L 730 292
L 730 292
L 730 292
L 730 292
L 730 292
L 731 292
L 731 292
L 731 292
L 731 292
L 731 291
L 732 291
L 732 291
L 732 291
L 732 291
L 732 291
L 732 291
L 732 291
L 732 291
L 733 291
L 733 291
L 733 291
L 733 291
L 733 291
L 733 291
L 733 291
L 733 291
L 733 291
L 733 291
L 733 291
L 733 291
L 733 291
L 734 291
L 734 291
L 734 291
L 734 291
L 734 291
L 735 291
L 735 290
L 735 290
L 735 290
L 735 290
L 735 290
L 735 290
L 735 290
L 735 290
L 735 290
L 735 290
L 735 290
L 735 290
L 735 290
L 735 290
L 735 290
L 735 290
L 735 290
L 735 290
L 735 290
L 735 290
L 735 290
L 735 290
L 735 290
L 735 290
L 735 290
L 735 290
L 735 290
L 735 290
L 735 289
L 735 289
L 735 289
L 735 289
L 735 289
L 735 289
L 735 289
L 735 289
L 735 289
L 735 289
L 735 289
L 735 289
L 735 289
L 735 289
L 735 289
L 735 289
L 735 289
L 735 289
L 735 289
L 735 289
L 735 289
L 735 289
L 735 289
L 735 289
L 735 289
L 735 289
L 735 289
L 735 289
L 735 288
L 735 288
L 735 288
L 735 288
L 735 288
L 735 288
L 735 288
L 735 288
L 735 288
L 735 288
L 735 288
L 735 288
L 735 288
L 735 288
L 735 288
L 735 288
L 735 288
L 735 288
L 735 288
L 735 288
L 735 288
L 735 288
L 735 288
L 735 288
L 735 288
L 735 288
L 735 288
L 735 288
L 735 287
L 735 287
L 735 287
L 735 287
L 735 287
L 735 287
L 736 287
L 736 287
L 736 287
L 736 287
L 736 287
L 736 287
L 736 287
L 736 287
L 736 287
L 736 287
L 736 287
L 736 287
L 736 287
L 736 287
L 736 287
L 736 287
L 736 287
L 736 287
L 736 287
L 736 287
L 736 287
L 736 287
L 736 286
L 736 286
L 736 286
L 736 286
L 736 286
L 736 286
L 736 286
L 736 286
L 736 286
L 736 286
L 736 286
L 736 286
L 736 286
L 736 286
L 736 286
L 736 286
L 736 286
L 736 286
L 736 286
L 736 286
L 736 286
L 736 286
L 736 286
L 736 286
L 736 286
L 737 286
L 737 286
L 737 286
L 737 285
L 737 285
L 737 285
L 737 285
L 737 285
L 737 285
L 737 285
L 737 285
L 737 285
L 737 285
L 737 285
L 737 285
L 737 285
L 737 285
L 737 285
L 737 285
L 737 285
L 737 285
L 737 285
L 737 285
L 737 285
L 737 285
L 737 285
L 737 285
L 737 285
L 737 285
L 737 285
L 737 285
L 737 284
L 737 284
L 737 284
L 737 284
L 737 284
L 737 284
L 737 284
L 737 284
L 737 284
L 737 284
L 737 284
L 737 284
L 737 284
L 737 284
L 737 284
L 737 284
L 737 284
L 737 284
L 737 284
L 737 284
L 737 284
L 737 284
L 737 284
L 737 284
L 737 284
L 737 284
L 737 284
L 737 284
L 737 283
L 737 283
L 737 283
L 737 283
L 737 283
L 737 283
L 737 283
L 737 283
L 737 283
L 737 283
L 737 283
L 737 283
L 737 283
L 737 283
L 737 283
L 737 283
L 737 283
L 737 283
L 737 283
L 737 283
L 737 283
L 737 283
L 737 283
L 737 283
L 737 283
L 737 283
L 737 283
L 737 283
L 737 282
L 737 282
L 737 282
L 737 282
L 737 282
L 737 282
L 737 282
L 737 282
L 737 282
L 737 282
L 737 282
L 737 282
L 737 282
L 737 282
L 737 282
L 737 282
L 738 282
L 738 282
L 738 282
L 738 282
L 738 282
L 738 282
L 738 282
L 738 282
L 738 282
L 738 282
L 738 282
L 738 281
L 738 281
L 738 281
L 738 281
L 738 281
L 738 281
L 738 281
L 738 281
L 738 281
L 738 281
L 738 281
L 738 281
L 738 281
L 738 281
L 738 281
L 738 281
L 738 281
L 738 281
L 738 281
L 738 281
L 738 281
L 738 281
L 738 281
L 738 281
L 738 281
L 738 281
L 738 281
L 738 281
L 738 280
L 738 280
L 738 280
L 738 280
L 738 280
L 738 280
L 739 280
L 739 280
L 739 280
L 739 280
L 739 280
L 739 280
L 739 280
L 739 280
L 739 280
L 739 280
L 739 280
L 739 280
L 739 280
L 739 280
L 739 280
L 739 280
L 739 280
L 739 280
L 739 280
L 739 280
L 739 280
L 739 280
L 739 279
L 739 279
L 739 279
L 739 279
L 739 279
L 739 279
L 739 279
L 739 279
L 739 279
L 739 279
L 739 279
L 739 279
L 739 279
L 739 279
L 739 279
L 739 279
L 739 279
L 739 279
L 739 279
L 740 279
L 740 279
L 740 279
L 740 279
L 740 279
L 740 279
L 740 279
L 740 279
L 740 279
L 740 278
L 740 278
L 740 278
L 740 278
L 740 278
L 741 278
L 741 278
L 741 278
L 741 278
L 741 278
L 741 278
L 741 278
L 741 278
L 741 278
L 742 278
L 742 278
L 742 278
L 742 278
L 742 278
L 742 278
L 742 278
L 742 278
L 742 278
L 742 278
L 742 278
L 742 278
L 742 278
L 743 278
L 743 277
L 743 277
L 743 277
L 743 277
L 743 277
L 743 277
L 743 277
L 743 277
L 743 277
L 743 277
L 743 277
L 743 277
L 743 277
L 743 277
L 743 277
L 743 277
L 744 277
L 744 277
L 744 277
L 744 277
L 744 277
L 744 277
L 744 277
L 744 277
L 744 277
L 744 277
L 745 277
L 745 277
L 745 276
L 745 276
L 745 276
L 745 276
L 745 276
L 746 276
L 746 276
L 746 276
L 746 276
L 746 276
L 746 276
L 746 276
L 746 276
L 746 276
L 746 276
L 746 276
L 747 276
L 747 276
L 747 276
L 747 276
L 747 276
L 747 276
L 747 276
L 747 276
L 747 276
L 747 276
L 747 276
L 747 276
L 747 275
L 747 275
L 747 275
L 747 275
L 747 275
L 747 275
L 747 275
L 747 275
L 747 275
L 747 275
L 747 275
L 747 275
L 747 275
L 747 275
L 747 275
L 747 275
L 747 275
L 747 275
L 747 275
L 747 275
L 747 275
L 747 275
L 747 275
L 747 275
L 747 275
L 747 275
L 747 275
L 747 275
L 747 274
L 747 274
L 747 274
L 747 274
L 747 274
L 747 274
L 747 274
L 747 274
L 747 274
L 747 274
L 747 274
L 747 274
L 747 274
L 748 274
L 748 274
L 748 274
L 748 274
L 748 274
L 748 274
L 748 274
L 748 274
L 748 274
L 748 274
L 748 274
L 748 274
L 748 274
L 748 274
L 748 274
L 748 273
L 748 273
L 748 273
L 748 273
L 748 273
L 748 273
L 748 273
L 748 273
L 748 273
L 748 273
L 748 273
L 748 273
L 749 273
L 749 273
L 749 273
L 749 273
L 749 273
L 749 273
L 749 273
L 749 273
L 749 273
L 749 273
L 749 273
L 749 273
L 749 273
L 749 273
L 749 273
L 749 273
L 749 272
L 749 272
L 749 272
L 749 272
L 749 272
L 749 272
L 749 272
L 749 272
L 749 272
L 749 272
L 749 272
L 749 272
L 749 272
L 749 272
L 749 272
L 749 272
L 749 272
L 749 272
L 749 272
L 749 272
L 749 272
L 749 272
L 749 272
L 749 272
L 749 272
L 749 272
L 749 272
L 749 272
L 749 271
L 749 271
L 749 271
L 749 271
L 749 271
L 749 271
L 749 271
L 749 271
L 749 271
L 749 271
L 749 271
L 749 271
L 749 271
L 749 271
L 749 271
L 749 271
L 749 271
L 749 271
L 749 271
L 749 271
L 749 271
L 749 271
L 749 271
L 749 271
L 749 271
L 749 271
L 749 271
L 749 271
L 749 270
L 749 270
L 749 270
L 749 270
L 749 270
L 749 270
L 749 270
L 749 270
L 749 270
L 749 270
L 749 270
L 749 270
L 749 270
L 749 270
L 749 270
L 749 270
L 749 270
L 749 270
L 749 270
L 749 270
L 749 270
L 749 270
L 749 270
L 749 270
L 749 270
L 749 270
L 749 270
L 749 270
L 750 269
L 750 269
L 750 269
L 750 269
L 750 269
L 750 269
L 750 269
L 750 269
L 750 269
L 750 269
L 750 269
L 750 269
L 750 269
L 750 269
L 750 269
L 750 269
L 750 269
L 750 269
L 750 269
L 750 269
L 750 269
L 750 269
L 750 269
L 750 269
L 750 269
L 750 269
L 750 269
L 750 269
L 750 268
L 750 268
L 750 268
L 750 268
L 750 268
L 750 268
L 750 268
L 750 268
L 751 268
L 751 268
L 751 268
L 751 268
L 751 268
L 751 268
L 751 268
L 751 268
L 751 268
L 751 268
L 751 268
L 751 268
L 751 268
L 751 268
L 751 268
L 751 268
L 751 268
L 751 268
L 751 268
L 751 268
L 751 267
L 751 267
L 751 267
L 751 267
L 751 267
L 751 267
L 751 267
L 751 267
L 751 267
L 751 267
L 751 267
L 751 267
L 752 267
L 752 267
L 752 267
L 752 267
L 752 267
L 752 267
L 752 267
L 752 267
L 752 267
L 752 267
L 752 267
L 752 267
L 752 267
L 752 267
L 752 267
L 752 267
L 752 266
L 752 266
L 752 266
L 752 266
L 752 266
L 752 266
L 752 266
L 752 266
L 752 266
L 752 266
L 753 266
L 753 266
L 753 266
L 753 266
L 753 266
L 753 266
L 753 266
L 753 266
L 753 266
L 753 266
L 753 266
L 753 266
L 753 266
L 753 266
L 753 266
L 753 266
L 753 266
L 753 266
L 753 265
L 753 265
L 753 265
L 753 265
L 753 265
L 753 265
L 753 265
L 753 265
L 753 265
L 753 265
L 753 265
L 753 265
L 754 265
L 754 265
L 754 265
L 754 265
L 754 265
L 754 265
L 754 265
L 754 265
L 754 265
L 754 265
L 754 265
L 754 265
L 754 265
L 755 265
L 755 265
L 755 264
L 755 264
L 755 264
L 755 264
L 755 264
L 755 264
L 755 264
L 755 264
L 755 264
L 756 264
L 756 264
L 756 264
L 756 264
L 756 264
L 756 264
L 756 264
L 756 264
L 756 264
L 756 264
L 756 264
L 756 264
L 757 264
L 757 264
L 757 264
L 757 264
L 757 264
L 757 264
L 757 264
L 757 263
L 757 263
L 757 263
L 757 263
L 758 263
L 758 263
L 758 263
L 758 263
L 758 263
L 758 263
L 758 263
L 758 263
L 758 263
L 758 263
L 758 263
L 759 263
L 759 263
L 759 263
L 759 263
L 759 263
L 759 263
L 759 263
L 759 263
L 759 263
L 759 263
L 759 263
L 759 263
L 759 263
L 759 262
L 759 262
L 759 262
L 759 262
L 759 262
L 760 262
L 760 262
L 760 262
L 760 262
L 760 262
L 760 262
L 760 262
L 760 262
L 760 262
L 760 262
L 760 262
L 760 262
L 760 262
L 760 262
L 761 262
L 761 262
L 761 262
L 761 262
L 761 262
L 761 262
L 761 262
L 761 262
L 761 262
L 761 261
L 761 261
L 761 261
L 761 261
L 761 261
L 761 261
L 761 261
L 762 261
L 762 261
L 762 261
L 762 261
L 762 261
L 762 261
L 762 261
L 762 261
L 762 261
L 762 261
L 762 261
L 762 261
L 762 261
L 762 261
L 762 261
L 763 261
L 763 261
L 763 261
L 763 261
L 763 261
L 763 261
L 763 260
L 763 260
L 763 260
L 763 260
L 763 260
L 763 260
L 763 260
L 763 260
L 763 260
L 763 260
L 763 260
L 763 260
L 763 260
L 763 260
L 763 260
L 763 260
L 763 260
L 763 260
L 763 260
L 763 260
L 764 260
L 764 260
L 764 260
L 764 260
L 764 260
L 764 260
L 764 260
L 764 260
L 764 259
L 764 259
L 764 259
L 765 259
L 765 259
L 765 259
L 765 259
L 765 259
L 765 259
L 765 259
L 766 259
L 766 259
L 766 259
L 766 259
L 766 259
L 766 259
L 766 259
L 766 259
L 766 259
L 766 259
L 766 259
L 766 259
L 766 259
L 766 259
L 766 259
L 766 259
L 766 259
L 766 259
L 766 258
L 766 258
L 766 258
L 767 258
L 767 258
L 767 258
L 767 258
L 767 258
L 767 258
L 767 258
L 767 258
L 767 258
L 767 258
L 767 258
L 767 258
L 767 258
L 767 258
L 767 258
L 767 258
L 767 258
L 767 258
L 767 258
L 767 258
L 767 258
L 767 258
L 767 258
L 767 258
L 767 258
L 767 257
L 767 257
L 767 257
L 767 257
L 767 257
L 767 257
L 767 257
L 767 257
L 767 257
L 767 257
L 767 257
L 767 257
L 767 257
L 767 257
L 768 257
L 768 257
L 768 257
L 768 257
L 768 257
L 768 257
L 768 257
L 768 257
L 768 257
L 768 257
L 768 257
L 768 257
L 768 257
L 768 257
L 768 256
L 768 256
L 768 256
L 768 256
L 768 256
L 768 256
L 768 256
L 768 256
L 768 256
L 768 256
L 768 256
L 768 256
L 768 256
L 768 256
L 768 256
L 768 256
L 768 256
L 768 256
L 768 256
L 768 256
L 768 256
L 768 256
L 768 256
L 768 256
L 768 256
L 768 256
L 768 256
L 768 256
L 768 255
L 768 255
L 768 255
L 768 255
L 768 255
L 768 255
L 768 255
L 768 255
L 768 255
L 768 255
L 768 255
L 768 255
L 768 255
L 768 255
L 768 255
L 768 255
L 768 255
L 768 255
L 768 255
L 768 255
L 768 255
L 768 255
L 768 255
L 768 255
L 768 255
L 768 255
L 768 255
L 769 255
L 769 254
L 769 254
L 769 254
L 769 254
L 769 254
L 769 254
L 769 254
L 769 254
L 769 254
L 769 254
L 769 254
L 769 254
L 769 254
L 769 254
L 769 254
L 769 254
L 769 254
L 769 254
L 769 254
L 769 254
L 769 254
L 769 254
L 769 254
L 769 254
L 769 254
L 769 254
L 769 254
L 769 254
L 769 253
L 769 253
L 769 253
L 769 253
L 769 253
L 769 253
L 769 253
L 769 253
L 769 253
L 769 253
L 769 253
L 769 253
L 769 253
L 769 253
L 769 253
L 769 253
L 769 253
L 769 253
L 769 253
L 769 253
L 769 253
L 769 253
L 769 253
L 769 253
L 769 253
L 769 253
L 769 253
L 769 253
L 769 252
L 769 252
L 769 252
L 769 252
L 769 252
L 769 252
L 769 252
L 769 252
L 769 252
L 769 252
L 769 252
L 769 252
L 769 252
L 769 252
L 769 252
L 770 252
L 770 252
L 770 252
L 770 252
L 770 252
L 770 252
L 770 252
L 770 252
L 770 252
L 770 252
L 770 252
L 770 252
L 770 252
L 770 251
L 770 251
L 770 251
L 770 251
L 770 251
L 770 251
L 770 251
L 770 251
L 770 251
L 770 251
L 770 251
L 770 251
L 770 251
L 770 251
L 770 251
L 770 251
L 770 251
L 770 251
L 770 251
L 770 251
L 770 251
L 770 251
L 770 251
L 770 251
L 770 251
L 770 251
L 770 251
L 770 251
L 770 250
L 770 250
L 770 250
L 770 250
L 770 250
L 770 250
L 770 250
L 770 250
L 770 250
L 770 250
L 770 250
L 770 250
L 770 250
L 770 250
L 770 250
L 770 250
L 770 250
L 770 250
L 770 250
L 770 250
L 770 250
L 770 250
L 770 250
L 770 250
L 770 250
L 770 250
L 770 250
L 770 250
L 770 249
L 770 249
L 770 249
L 770 249
L 770 249
L 770 249
L 770 249
L 770 249
L 770 249
L 770 249
L 770 249
L 770 249
L 770 249
L 770 249
L 770 249
L 770 249
L 770 249
L 770 249
L 770 249
L 770 249
L 770 249
L 770 249
L 770 249
L 770 249
L 770 249
L 770 249
L 770 249
L 770 249
L 770 248
L 770 248
L 770 248
L 770 248
L 770 248
L 770 248
L 770 248
L 770 248
L 770 248
L 770 248
L 770 248
L 770 248
L 770 248
L 770 248
L 770 248
L 770 248
L 770 248
L 770 248
L 770 248
L 770 248
L 770 248
L 770 248
L 770 248
L 770 248
L 770 248
L 770 248
L 770 248
L 770 247
L 770 247
L 770 247
L 770 247
L 770 247
L 770 247
L 770 247
L 770 247
L 770 247
L 770 247
L 770 247
L 770 247
L 770 247
L 770 247
L 770 247
L 770 247
L 770 247
L 770 247
L 770 247
L 770 247
L 770 247
L 770 247
L 770 247
L 770 247
L 770 247
L 770 247
L 770 247
L 770 247
L 770 246
L 770 246
L 770 246
L 770 246
L 770 246
L 770 246
L 770 246
L 770 246
L 770 246
L 770 246
L 770 246
L 770 246
L 770 246
L 770 246
L 770 246
L 770 246
L 770 246
L 770 246
L 770 246
L 770 246
L 770 246
L 770 246
L 770 246
L 770 246
L 770 246
L 770 246
L 770 246
L 770 246
L 770 245
L 770 245
L 770 245
L 770 245
L 770 245
L 770 245
L 770 245
L 770 245
L 770 245
L 770 245
L 770 245
L 770 245
L 770 245
L 770 245
L 770 245
L 770 245
L 770 245
L 770 245
L 770 245
L 770 245
L 770 245
L 770 245
L 770 245
L 770 245
L 770 245
L 770 245
L 770 245
L 770 245
L 770 244
L 770 244
L 770 244
L 770 244
L 770 244
L 770 244
L 770 244
L 770 244
L 770 244
L 770 244
L 770 244
L 770 244
L 770 244
L 770 244
L 770 244
L 770 244
L 770 244
L 770 244
L 770 244
L 770 244
L 770 244
L 770 244
L 770 244
L 770 244
L 770 244
L 770 244
L 770 244
L 770 244
L 770 243
L 770 243
L 770 243
L 770 243
L 770 243
L 770 243
L 770 243
L 770 243
L 770 243
L 770 243
L 770 243
L 770 243
L 770 243
L 770 243
L 770 243
L 770 243
L 770 243
L 770 243
L 770 243
L 770 243
L 770 243
L 770 243
L 770 243
L 770 243
L 770 243
L 770 243
L 770 243
L 770 243
L 770 242
L 770 242
L 770 242
L 770 242
L 770 242
L 770 242
L 770 242
L 770 242
L 770 242
L 770 242
L 770 242
L 770 242
L 770 242
L 770 242
L 770 242
L 770 242
L 770 242
L 770 242
L 770 242
L 770 242
L 770 242
L 770 242
L 770 242
L 770 242
L 770 242
L 770 242
L 770 242
L 770 242
L 770 241
L 770 241
L 770 241
L 770 241
L 770 241
L 770 241
L 770 241
L 770 241
L 770 241
L 770 241
L 770 241
L 770 241
L 770 241
L 770 241
L 770 241
L 770 241
L 770 241
L 770 241
L 770 241
L 770 241
L 770 241
L 770 241
L 770 241
L 770 241
L 770 241
L 770 241
L 770 241
L 770 241
L 770 240
L 770 240
L 770 240
L 770 240
L 770 240
L 770 240
L 770 240
L 770 240
L 770 240
L 770 240
L 770 240
L 770 240
L 770 240
L 770 240
L 771 240
L 771 240
L 771 240
L 771 240
L 771 240
L 771 240
L 771 240
L 771 240
L 771 240
L 771 240
L 771 240
L 771 240
L 771 240
L 771 240
L 771 239
L 771 239
L 771 239
L 771 239
L 771 239
L 771 239
L 771 239
L 771 239
L 771 239
L 771 239
L 771 239
L 771 239
L 771 239
L 771 239
L 771 239
L 771 239
L 771 239
L 771 239
L 771 239
L 771 239
L 771 239
L 771 239
L 771 239
L 771 239
L 771 239
L 771 239
L 771 239
L 771 239
L 771 238
L 771 238
L 771 238
L 771 238
L 771 238
L 771 238
L 771 238
L 771 238
L 771 238
L 771 238
L 771 238
L 771 238
L 771 238
L 771 238
L 771 238
L 771 238
L 771 238
L 771 238
L 771 238
L 771 238
L 771 238
L 771 238
L 771 238
L 771 238
L 771 238
L 771 238
L 771 238
L 771 238
L 771 237
L 771 237
L 771 237
L 771 237
L 771 237
L 771 237
L 771 237
L 771 237
L 771 237
L 771 237
L 771 237
L 771 237
L 771 237
L 771 237
L 771 237
L 771 237
L 771 237
L 771 237
L 771 237
L 771 237
L 771 237
L 771 237
L 771 237
L 771 237
L 771 237
L 771 237
L 771 237
L 771 237
L 771 236
L 771 236
L 771 236
L 771 236
L 771 236
L 771 236
L 771 236
L 771 236
L 771 236
L 771 236
L 771 236
L 771 236
L 771 236
L 771 236
L 771 236
L 771 236
L 771 236
L 771 236
L 771 236
L 771 236
L 771 236
L 771 236
L 771 236
L 771 236
L 771 236
L 771 236
L 771 236
L 771 236
L 771 235
L 771 235
L 771 235
L 771 235
L 771 235
L 771 235
L 771 235
L 771 235
L 771 235
L 771 235
L 771 235
L 771 235
L 771 235
L 771 235
L 771 235
L 771 235
L 771 235
L 771 235
L 771 235
L 771 235
L 771 235
L 771 235
L 771 235
L 771 235
L 771 235
L 771 235
L 771 235
L 771 235
L 771 234
L 771 234
L 771 234
L 771 234
L 771 234
L 771 234
L 771 234
L 771 234
L 771 234
L 771 234
L 771 234
L 771 234
L 771 234
L 771 234
L 771 234
L 771 234
L 771 234
L 771 234
L 771 234
L 771 234
L 771 234
L 771 234
L 771 234
L 771 234
L 771 234
L 771 234
L 771 234
L 771 234
L 771 233
L 771 233
L 771 233
L 771 233
L 771 233
L 771 233
L 771 233
L 771 233
L 771 233
L 771 233
L 771 233
L 771 233
L 771 233
L 771 233
L 771 233
L 771 233
L 771 233
L 771 233
L 771 233
L 771 233
L 771 233
L 771 233
L 771 233
L 771 233
L 771 233
L 771 233
L 771 233
L 771 233
L 771 232
L 771 232
L 771 232
L 771 232
L 771 232
L 771 232
L 771 232
L 771 232
L 771 232
L 771 232
L 771 232
L 771 232
L 771 232
L 771 232
L 771 232
L 771 232
L 771 232
L 771 232
L 771 232
L 771 232
L 771 232
L 771 232
L 771 232
L 771 232
L 771 232
L 771 232
L 771 232
L 771 232
L 771 231
L 771 231
L 771 231
L 771 231
L 771 231
L 771 231
L 771 231
L 771 231
L 771 231
L 771 231
L 771 231
L 771 231
L 771 231
L 771 231
L 771 231
L 771 231
L 771 231
L 771 231
L 771 231
L 771 231
L 771 231
L 771 231
L 771 231
L 771 231
L 771 231
L 771 231
L 771 231
L 771 230
L 771 230
L 771 230
L 771 230
L 771 230
L 771 230
L 771 230
L 771 230
L 771 230
L 771 230
L 771 230
L 771 230
L 771 230
L 771 230
L 771 230
L 771 230
L 771 230
L 771 230
L 771 230
L 771 230
L 771 230
L 771 230
L 771 230
L 771 230
L 771 230
L 771 230
L 771 230
L 771 230
L 771 229
L 771 229
L 771 229
L 771 229
L 771 229
L 771 229
L 771 229
L 771 229
L 771 229
L 771 229
L 771 229
L 771 229
L 771 229
L 771 229
L 771 229
L 771 229
L 771 229
L 771 229
L 771 229
L 771 229
L 771 229
L 771 229
L 771 229
L 771 229
L 771 229
L 771 229
L 771 229
L 771 229
L 771 228
L 771 228
L 771 228
L 771 228
L 771 228
L 771 228
L 771 228
L 771 228
L 771 228
L 771 228
L 771 228
L 771 228
L 771 228
L 771 228
L 771 228
L 771 228
L 771 228
L 771 228
L 771 228
L 771 228
L 771 228
L 771 228
L 771 228
L 771 228
L 772 228
L 772 228
L 772 228
L 772 228
L 772 227
L 772 227
L 772 227
L 772 227
L 772 227
L 772 227
L 772 227
L 772 227
L 772 227
L 772 227
L 772 227
L 772 227
L 772 227
L 772 227
L 772 227
L 772 227
L 772 227
L 772 227
L 772 227
L 772 227
L 772 227
L 772 227
L 772 227
L 772 227
L 772 227
L 772 227
L 772 227
L 772 227
L 772 226
L 772 226
L 772 226
L 772 226
L 772 226
L 772 226
L 772 226
L 772 226
L 772 226
L 772 226
L 772 226
L 772 226
L 772 226
L 772 226
L 772 226
L 772 226
L 772 226
L 772 226
L 772 226
L 772 226
L 772 226
L 772 226
L 772 226
L 772 226
L 772 226
L 772 226
L 772 226
L 772 226
L 772 225
L 772 225
L 772 225
L 772 225
L 772 225
L 772 225
L 772 225
L 772 225
L 772 225
L 772 225
L 772 225
L 772 225
L 772 225
L 772 225
L 772 225
L 772 225
L 772 225
L 772 225
L 772 225
L 772 225
L 772 225
L 772 225
L 772 225
L 772 225
L 772 225
L 772 225
L 772 225
L 772 225
L 772 224
L 772 224
L 772 224
L 772 224
L 772 224
L 772 224
L 772 224
L 772 224
L 772 224
L 772 224
L 772 224
L 772 224
L 772 224
L 772 224
L 772 224
L 772 224
L 772 224
L 772 224
L 772 224
L 772 224
L 772 224
L 772 224
L 772 224
L 772 224
L 772 224
L 772 224
L 772 224
L 772 224
L 772 223
L 772 223
L 772 223
L 772 223
L 772 223
L 772 223
L 772 223
L 772 223
L 772 223
L 772 223
L 772 223
L 772 223
L 772 223
L 772 223
L 772 223
L 772 223
L 772 223
L 772 223
L 772 223
L 772 223
L 772 223
L 772 223
L 772 223
L 772 223
L 772 223
L 772 223
L 772 223
L 772 223
L 772 222
L 772 222
L 772 222
L 772 222
L 772 222
L 772 222
L 772 222
L 772 222
L 772 222
L 772 222
L 772 222
L 772 222
L 772 222
L 772 222
L 772 222
L 772 222
L 772 222
L 772 222
L 773 222
L 773 222
L 773 222
L 773 222
L 773 222
L 773 222
L 773 222
L 773 222
L 773 222
L 773 222
L 773 221
L 773 221
L 773 221
L 773 221
L 773 221
L 773 221
L 773 221
L 773 221
L 773 221
L 773 221
L 773 221
L 773 221
L 773 221
L 773 221
L 773 221
L 773 221
L 773 221
L 773 221
L 773 221
L 773 221
L 773 221
L 773 221
L 773 221
L 773 221
L 773 221
L 773 221
L 773 221
L 773 221
L 773 220
L 773 220
L 773 220
L 773 220
L 773 220
L 773 220
L 773 220
L 773 220
L 773 220
L 773 220
L 773 220
L 773 220
L 773 220
L 773 220
L 773 220
L 773 220
L 773 220
L 773 220
L 773 220
L 774 220
L 774 220
L 774 220
L 774 220
L 774 220
L 774 220
L 774 220
L 774 220
L 774 220
L 774 219
L 774 219
L 774 219
L 775 219
L 775 219
L 775 219
L 775 219
L 775 219
L 775 219
L 775 219
L 775 219
L 775 219
L 775 219
L 775 219
L 775 219
L 775 219
L 775 219
L 775 219
L 775 219
L 775 219
L 775 219
L 775 219
L 775 219
L 775 219
L 775 219
L 775 219
L 775 219
L 775 219
L 776 218
L 776 218
L 776 218
L 776 218
L 776 218
L 776 218
L 776 218
L 776 218
L 776 218
L 776 218
L 776 218
L 776 218
L 776 218
L 776 218
L 776 218
L 776 218
L 776 218
L 776 218
L 776 218
L 776 218
L 776 218
L 776 218
L 776 218
L 776 218
L 776 218
L 776 218
L 776 218
L 776 218
L 776 217
L 776 217
L 776 217
L 776 217
L 776 217
L 776 217
L 776 217
L 776 217
L 776 217
L 776 217
L 777 217
L 777 217
L 777 217
L 777 217
L 777 217
L 777 217
L 777 217
L 777 217
L 777 217
L 777 217
L 777 217
L 777 217
L 777 217
L 777 217
L 777 217
L 777 217
L 777 217
L 777 217
L 777 216
L 777 216
L 777 216
L 777 216
L 777 216
L 777 216
L 777 216
L 777 216
L 777 216
L 777 216
L 778 216
L 778 216
L 778 216
L 778 216
L 778 216
L 778 216
L 778 216
L 778 216
L 778 216
L 778 216
L 778 216
L 778 216
L 778 216
L 779 216
L 779 216
L 779 216
L 779 216
L 779 216
L 779 215
L 779 215
L 779 215
L 779 215
L 779 215
L 779 215
L 779 215
L 779 215
L 779 215
L 779 215
L 779 215
L 779 215
L 779 215
L 779 215
L 779 215
L 779 215
L 779 215
L 779 215
L 779 215
L 779 215
L 779 215
L 779 215
L 779 215
L 779 215
L 779 215
L 779 215
L 779 215
L 779 215
L 780 214
L 780 214
L 780 214
L 780 214
L 780 214
L 780 214
L 780 214
L 780 214
L 780 214
L 780 214
L 780 214
L 780 214
L 780 214
L 780 214
L 780 214
L 780 214
L 780 214
L 780 214
L 780 214
L 780 214
L 780 214
L 780 214
L 780 214
L 780 214
L 780 214
L 781 214
L 781 214
L 781 213
L 781 213
L 781 213
L 781 213
L 781 213
L 781 213
L 781 213
L 781 213
L 781 213
L 781 213
L 781 213
L 781 213
L 781 213
L 781 213
L 781 213
L 781 213
L 781 213
L 781 213
L 782 213
L 782 213
L 782 213
L 782 213
L 782 213
L 782 213
L 782 213
L 782 213
L 782 213
L 782 213
L 782 212
L 782 212
L 782 212
L 782 212
L 782 212
L 783 212
L 783 212
L 783 212
L 783 212
L 783 212
L 783 212
L 783 212
L 783 212
L 783 212
L 783 212
L 783 212
L 783 212
L 784 212
L 784 212
L 784 212
L 784 212
L 784 212
L 784 212
L 784 212
L 784 212
L 784 212
L 784 212
L 784 212
L 784 211
L 784 211
L 784 211
L 784 211
L 784 211
L 784 211
L 784 211
L 785 211
L 785 211
L 785 211
L 785 211
L 785 211
L 785 211
L 785 211
L 785 211
L 785 211
L 785 211
L 785 211
L 785 211
L 785 211
L 785 211
L 785 211
L 785 211
L 785 211
L 785 211
L 785 211
L 785 211
L 785 211
L 785 210
L 786 210
L 786 210
L 786 210
L 786 210
L 786 210
L 786 210
L 786 210
L 786 210
L 786 210
L 786 210
L 786 210
L 786 210
L 786 210
L 786 210
L 786 210
L 786 210
L 786 210
L 786 210
L 786 210
L 786 210
L 786 210
L 787 210
L 787 210
L 787 210
L 787 210
L 787 210
L 787 210
L 787 209
L 787 209
L 787 209
L 787 209
L 787 209
L 787 209
L 787 209
L 787 209
L 787 209
L 788 209
L 788 209
L 788 209
L 788 209
L 788 209
L 788 209
L 788 209
L 788 209
L 788 209
L 789 209
L 789 209
L 789 209
L 789 209
L 789 209
L 789 209
L 789 209
L 790 209
L 790 209
L 790 209
L 790 208
L 790 208
L 790 208
L 790 208
L 790 208
L 790 208
L 790 208
L 790 208
L 790 208
L 790 208
L 790 208
L 790 208
L 790 208
L 790 208
L 790 208
L 790 208
L 790 208
L 790 208
L 790 208
L 790 208
L 790 208
L 790 208
L 790 208
L 790 208
L 790 208
L 790 208
L 790 208
L 790 208
L 790 207
L 790 207
L 790 207
L 790 207
L 790 207
L 790 207
L 790 207
L 790 207
L 790 207
L 790 207
L 790 207
L 790 207
L 790 207
L 790 207
L 790 207
L 790 207
L 790 207
L 790 207
L 790 207
L 790 207
L 791 207
L 791 207
L 791 207
L 791 207
L 791 207
L 791 207
L 791 207
L 791 207
L 791 206
L 791 206
L 791 206
L 791 206
L 791 206
L 791 206
L 791 206
L 791 206
L 791 206
L 791 206
L 791 206
L 791 206
L 791 206
L 791 206
L 791 206
L 791 206
L 791 206
L 791 206
L 791 206
L 791 206
L 791 206
L 791 206
L 791 206
L 791 206
L 791 206
L 791 206
L 791 206
L 791 206
L 791 205
L 791 205
L 791 205
L 791 205
L 791 205
L 791 205
L 791 205
L 791 205
L 791 205
L 791 205
L 791 205
L 791 205
L 791 205
L 791 205
L 791 205
L 791 205
L 791 205
L 791 205
L 791 205
L 791 205
L 791 205
L 791 205
L 791 205
L 791 205
L 791 205
L 791 205
L 791 205
L 791 205
L 791 204
L 791 204
L 791 204
L 791 204
L 791 204
L 791 204
L 791 204
L 791 204
L 791 204
L 791 204
L 791 204
L 791 204
L 791 204
L 791 204
L 791 204
L 791 204
L 791 204
L 791 204
L 791 204
L 791 204
L 791 204
L 791 204
L 791 204
L 791 204
L 791 204
L 791 204
L 791 204
L 791 204
L 791 203
L 791 203
L 791 203
L 791 203
L 791 203
L 791 203
L 791 203
L 791 203
L 791 203
L 791 203
L 791 203
L 791 203
L 791 203
L 791 203
L 791 203
L 791 203
L 791 203
L 791 203
L 791 203
L 791 203
L 791 203
L 791 203
L 791 203
L 791 203
L 791 203
L 791 203
L 791 203
L 791 203
L 791 202
L 791 202
L 791 202
L 791 202
L 791 202
L 791 202
L 791 202
L 791 202
L 791 202
L 791 202
L 791 202
L 791 202
L 791 202
L 791 202
L 791 202
L 791 202
L 791 202
L 791 202
L 791 202
L 791 202
L 791 202
L 791 202
L 791 202
L 791 202
L 791 202
L 791 202
L 791 202
L 791 202
L 791 201
L 791 201
L 791 201
L 791 201
L 791 201
L 791 201
L 791 201
L 791 201
L 791 201
L 791 201
L 791 201
L 791 201
L 791 201
L 791 201
L 791 201
L 791 201
L 791 201
L 791 201
L 791 201
L 791 201
L 791 201
L 791 201
L 791 201
L 791 201
L 791 201
L 791 201
L 791 201
L 791 201
L 791 200
L 791 200
L 791 200
L 791 200
L 791 200
L 791 200
L 791 200
L 791 200
L 791 200
L 791 200
L 791 200
L 791 200
L 791 200
L 791 200
L 791 200
L 791 200
L 791 200
L 791 200
L 791 200
L 791 200
L 791 200
L 791 200
L 791 200
L 791 200
L 791 200
L 791 200
L 791 200
L 791 200
L 791 199
L 791 199
L 791 199
L 791 199
L 791 199
L 791 199
L 791 199
L 791 199
L 791 199
L 791 199
L 791 199
L 791 199
L 791 199
L 791 199
L 791 199
L 791 199
L 791 199
L 791 199
L 791 199
L 791 199
L 791 199
L 791 199
L 791 199
L 791 199
L 791 199
L 791 199
L 791 199
L 791 199
L 791 198
L 791 198
L 791 198
L 791 198
L 791 198
L 791 198
L 791 198
L 791 198
L 791 198
L 791 198
L 791 198
L 791 198
L 791 198
L 791 198
L 791 198
L 791 198
L 791 198
L 791 198
L 791 198
L 791 198
L 791 198
L 791 198
L 791 198
L 791 198
L 791 198
L 791 198
L 791 198
L 791 198
L 791 197
L 791 197
L 791 197
L 791 197
L 791 197
L 791 197
L 791 197
L 791 197
L 791 197
L 791 197
L 791 197
L 791 197
L 791 197
L 791 197
L 791 197
L 791 197
L 791 197
L 791 197
L 791 197
L 791 197
L 791 197
L 791 197
L 791 197
L 791 197
L 791 197
L 791 197
L 791 197
L 791 196
L 791 196
L 791 196
L 791 196
L 791 196
L 791 196
L 791 196
L 791 196
L 792 196
L 792 196
L 792 196
L 792 196
L 792 196
L 792 196
L 792 196
L 792 196
L 792 196
L 792 196
L 792 196
L 792 196
L 792 196
L 792 196
L 792 196
L 792 196
L 792 196
L 792 196
L 792 196
L 792 196
L 792 195
L 792 195
L 792 195
L 792 195
L 792 195
L 792 195
L 792 195
L 792 195
L 792 195
L 792 195
L 792 195
L 792 195
L 792 195
L 792 195
L 792 195
L 792 195
L 792 195
L 792 195
L 792 195
L 792 195
L 792 195
L 792 195
L 792 195
L 792 195
L 792 195
L 792 195
L 792 195
L 792 195
L 792 194
L 792 194
L 792 194
L 792 194
L 792 194
L 792 194
L 792 194
L 792 194
L 792 194
L 792 194
L 792 194
L 792 194
L 792 194
L 792 194
L 792 194
L 792 194
L 792 194
L 792 194
L 792 194
L 792 194
L 792 194
L 792 194
L 792 194
L 792 194
L 792 194
L 792 194
L 792 194
L 792 194
L 792 193
L 792 193
L 792 193
L 792 193
L 792 193
L 792 193
L 792 193
L 792 193
L 792 193
L 792 193
L 792 193
L 792 193
L 792 193
L 792 193
L 792 193
L 792 193
L 792 193
L 792 193
L 792 193
L 792 193
L 792 193
L 792 193
L 792 193
L 792 193
L 792 193
L 792 193
L 792 193
L 792 193
L 792 192
L 792 192
L 792 192
L 792 192
L 792 192
L 792 192
L 792 192
L 792 192
L 792 192
L 792 192
L 792 192
L 792 192
L 792 192
L 792 192
L 792 192
L 792 192
L 792 192
L 792 192
L 792 192
L 792 192
L 792 192
L 792 192
L 792 192
L 792 192
L 792 192
L 792 192
L 792 192
L 792 192
L 792 191
L 792 191
L 792 191
L 792 191
L 792 191
L 792 191
L 792 191
L 792 191
L 792 191
L 792 191
L 792 191
L 792 191
L 792 191
L 792 191
L 792 191
L 792 191
L 792 191
L 792 191
L 792 191
L 792 191
L 792 191
L 792 191
L 792 191
L 792 191
L 792 191
L 792 191
L 792 191
L 792 191
L 792 190
L 792 190
L 792 190
L 792 190
L 792 190
L 792 190
L 792 190
L 792 190
L 792 190
L 792 190
L 792 190
L 792 190
L 792 190
L 792 190
L 792 190
L 792 190
L 792 190
L 792 190
L 792 190
L 792 190
L 792 190
L 792 190
L 792 190
L 792 190
L 792 190
L 792 190
L 792 190
L 792 190
L 792 189
L 792 189
L 792 189
L 792 189
L 792 189
L 792 189
L 792 189
L 792 189
L 792 189
L 792 189
L 792 189
L 792 189
L 792 189
L 792 189
L 792 189
L 792 189
L 792 189
L 792 189
L 792 189
L 792 189
L 792 189
L 792 189
L 792 189
L 792 189
L 792 189
L 792 189
L 792 189
L 792 189
L 792 188
L 792 188
L 792 188
L 792 188
L 792 188
L 792 188
L 792 188
L 792 188
L 792 188
L 792 188
L 792 188
L 792 188
L 792 188
L 792 188
L 792 188
L 792 188
L 792 188
L 792 188
L 792 188
L 792 188
L 792 188
L 792 188
L 792 188
L 792 188
L 792 188
L 792 188
L 792 188
L 792 188
L 792 187
L 792 187
L 792 187
L 792 187
L 792 187
L 792 187
L 792 187
L 792 187
L 792 187
L 792 187
L 792 187
L 792 187
L 792 187
L 792 187
L 792 187
L 792 187
L 792 187
L 792 187
L 792 187
L 792 187
L 792 187
L 792 187
L 792 187
L 792 187
L 792 187
L 792 187
L 792 187
L 792 187
L 792 186
L 792 186
L 792 186
L 792 186
L 792 186
L 792 186
L 792 186
L 792 186
L 792 186
L 792 186
L 792 186
L 792 186
L 792 186
L 792 186
L 792 186
L 792 186
L 792 186
L 792 186
L 792 186
L 792 186
L 792 186
L 792 186
L 792 186
L 792 186
L 792 186
L 792 186
L 792 186
L 792 186
L 792 185
L 792 185
L 792 185
L 792 185
L 792 185
L 792 185
L 792 185
L 792 185
L 792 185
L 792 185
L 792 185
L 792 185
L 792 185
L 792 185
L 792 185
L 792 185
L 792 185
L 792 185
L 792 185
L 792 185
L 792 185
L 792 185
L 792 185
L 792 185
L 792 185
L 792 185
L 792 185
L 792 185
L 792 184
L 792 184
L 792 184
L 792 184
L 792 184
L 792 184
L 792 184
L 792 184
L 792 184
L 792 184
L 792 184
L 792 184
L 792 184
L 792 184
L 792 184
L 792 184
L 793 184
L 793 184
L 793 184
L 793 184
L 793 184
L 793 184
L 793 184
L 793 184
L 793 184
L 793 184
L 793 184
L 793 184
L 793 183
L 793 183
L 793 183
L 793 183
L 793 183
L 793 183
L 793 183
L 793 183
L 793 183
L 793 183
L 793 183
L 793 183
L 793 183
L 793 183
L 793 183
L 793 183
L 793 183
L 793 183
L 793 183
L 793 183
L 793 183
L 793 183
L 793 183
L 793 183
L 793 183
L 793 183
L 793 183
L 793 183
L 793 182
L 793 182
L 793 182
L 793 182
L 793 182
L 793 182
L 793 182
L 793 182
L 793 182
L 793 182
L 793 182
L 793 182
L 793 182
L 793 182
L 793 182
L 793 182
L 793 182
L 793 182
L 793 182
L 793 182
L 793 182
L 793 182
L 793 182
L 793 182
L 793 182
L 793 182
L 793 182
L 793 182
L 793 181
L 793 181
L 793 181
L 793 181
L 793 181
L 793 181
L 793 181
L 793 181
L 793 181
L 793 181
L 793 181
L 793 181
L 793 181
L 793 181
L 793 181
L 793 181
L 793 181
L 793 181
L 793 181
L 793 181
L 793 181
L 793 181
L 793 181
L 793 181
L 793 181
L 793 181
L 793 181
L 793 181
L 793 180
L 793 180
L 793 180
L 793 180
L 793 180
L 793 180
L 793 180
L 793 180
L 793 180
L 793 180
L 793 180
L 793 180
L 793 180
L 793 180
L 793 180
L 793 180
L 793 180
L 793 180
L 793 180
L 793 180
L 793 180
L 793 180
L 793 180
L 793 180
L 793 180
L 793 180
L 793 180
L 793 179
L 793 179
L 793 179
L 793 179
L 793 179
L 793 179
L 793 179
L 793 179
L 793 179
L 793 179
L 793 179
L 793 179
L 793 179
L 793 179
L 793 179
L 793 179
L 793 179
L 793 179
L 793 179
L 793 179
L 793 179
L 793 179
L 793 179
L 793 179
L 793 179
L 793 179
L 793 179
L 793 179
L 793 178
L 793 178
L 793 178
L 793 178
L 793 178
L 793 178
L 793 178
L 793 178
L 793 178
L 793 178
L 793 178
L 793 178
L 793 178
L 793 178
L 793 178
L 793 178
L 793 178
L 793 178
L 793 178
L 793 178
L 793 178
L 793 178
L 793 178
L 793 178
L 793 178
L 793 178
L 793 178
L 793 178
L 793 177
L 793 177
L 793 177
L 793 177
L 793 177
L 793 177
L 793 177
L 793 177
L 793 177
L 793 177
L 793 177
L 793 177
L 793 177
L 793 177
L 793 177
L 793 177
L 793 177
L 793 177
L 793 177
L 793 177
L 793 177
L 793 177
L 793 177
L 793 177
L 793 177
L 793 177
L 793 177
L 793 177
L 793 176
L 793 176
L 793 176
L 793 176
L 793 176
L 793 176
L 793 176
L 793 176
L 793 176
L 793 176
L 793 176
L 793 176
L 793 176
L 793 176
L 793 176
L 793 176
L 793 176
L 793 176
L 793 176
L 793 176
L 793 176
L 793 176
L 793 176
L 793 176
L 793 176
L 793 176
L 793 176
L 793 176
L 793 175
L 793 175
L 793 175
L 793 175
L 793 175
L 793 175
L 793 175
L 793 175
L 793 175
L 793 175
L 793 175
L 793 175
L 793 175
L 793 175
L 793 175
L 793 175
L 793 175
L 793 175
L 793 175
L 793 175
L 793 175
L 793 175
L 793 175
L 793 175
L 793 175
L 793 175
L 793 175
L 793 175
L 793 174
L 793 174
L 793 174
L 793 174
L 793 174
L 793 174
L 793 174
L 793 174
L 793 174
L 793 174
L 793 174
L 793 174
L 793 174
L 793 174
L 793 174
L 793 174
L 793 174
L 793 174
L 793 174
L 793 174
L 793 174
L 793 174
L 793 174
L 793 174
L 793 174
L 793 174
L 793 174
L 793 174
L 793 173
L 793 173
L 793 173
L 793 173
L 793 173
L 793 173
L 793 173
L 793 173
L 793 173
L 793 173
L 793 173
L 793 173
L 793 173
L 793 173
L 793 173
L 794 173
L 794 173
L 794 173
L 794 173
L 794 173
L 794 173
L 794 173
L 794 173
L 794 173
L 794 173
L 794 173
L 794 173
L 794 173
L 794 172
L 794 172
L 794 172
L 794 172
L 794 172
L 794 172
L 794 172
L 794 172
L 794 172
L 794 172
L 794 172
L 794 172
L 794 172
L 794 172
L 794 172
L 794 172
L 794 172
L 794 172
L 794 172
L 794 172
L 794 172
L 794 172
L 794 172
L 794 172
L 794 172
L 794 172
L 794 172
L 794 172
L 794 171
L 794 171
L 794 171
L 794 171
L 794 171
L 794 171
L 794 171
L 794 171
L 794 171
L 794 171
L 794 171
L 794 171
L 794 171
L 794 171
L 794 171
L 794 171
L 794 171
L 794 171
L 794 171
L 794 171
L 794 171
L 794 171
L 794 171
L 794 171
L 794 171
L 794 171
L 794 171
L 794 171
L 794 170
L 794 170
L 794 170
L 794 170
L 794 170
L 794 170
L 794 170
L 794 170
L 794 170
L 794 170
L 794 170
L 794 170
L 794 170
L 794 170
L 794 170
L 794 170
L 794 170
L 794 170
L 794 170
L 794 170
L 794 170
L 794 170
L 794 170
L 794 170
L 794 170
L 794 170
L 794 170
L 794 170
L 794 169
L 794 169
L 794 169
L 794 169
L 794 169
L 794 169
L 794 169
L 794 169
L 794 169
L 794 169
L 794 169
L 794 169
L 794 169
L 794 169
L 794 169
L 794 169
L 794 169
L 794 169
L 794 169
L 794 169
L 794 169
L 794 169
L 794 169
L 794 169
L 794 169
L 794 169
L 794 169
L 794 169
L 794 168
L 794 168
L 794 168
L 794 168
L 794 168
L 794 168
L 794 168
L 794 168
L 794 168
L 794 168
L 794 168
L 794 168
L 794 168
L 794 168
L 794 168
L 794 168
L 794 168
L 794 168
L 794 168
L 794 168
L 794 168
L 794 168
L 794 168
L 794 168
L 794 168
L 794 168
L 794 168
L 794 168
L 794 167
L 794 167
L 794 167
L 794 167
L 794 167
L 794 167
L 794 167
L 794 167
L 794 167
L 794 167
L 794 167
L 794 167
L 794 167
L 794 167
L 794 167
L 794 167
L 794 167
L 794 167
L 794 167
L 794 167
L 794 167
L 794 167
L 794 167
L 794 167
L 794 167
L 794 167
L 794 167
L 794 167
L 794 166
L 794 166
L 794 166
L 794 166
L 794 166
L 794 166
L 794 166
L 794 166
L 794 166
L 794 166
L 794 166
L 794 166
L 794 166
L 794 166
L 794 166
L 794 166
L 794 166
L 794 166
L 794 166
L 794 166
L 794 166
L 794 166
L 795 166
L 795 166
L 795 166
L 795 166
L 795 166
L 795 166
L 795 165
L 795 165
L 795 165
L 795 165
L 795 165
L 795 165
L 795 165
L 795 165
L 795 165
L 795 165
L 795 165
L 795 165
L 795 165
L 795 165
L 795 165
L 795 165
L 795 165
L 795 165
L 795 165
L 795 165
L 795 165
L 795 165
L 795 165
L 795 165
L 796 165
L 796 165
L 796 165
L 796 165
L 796 164
L 796 164
L 796 164
L 796 164
L 796 164
L 796 164
L 796 164
L 796 164
L 796 164
L 796 164
L 796 164
L 796 164
L 796 164
L 796 164
L 796 164
L 796 164
L 796 164
L 796 164
L 796 164
L 796 164
L 796 164
L 796 164
L 796 164
L 796 164
L 796 164
L 796 164
L 796 164
L 796 163
L 796 163
L 796 163
L 796 163
L 796 163
L 796 163
L 796 163
L 796 163
L 796 163
L 796 163
L 796 163
L 796 163
L 796 163
L 796 163
L 796 163
L 796 163
L 796 163
L 796 163
L 796 163
L 796 163
L 796 163
L 796 163
L 796 163
L 796 163
L 796 163
L 796 163
L 796 163
L 796 163
L 796 162
L 796 162
L 796 162
L 796 162
L 796 162
L 796 162
L 796 162
L 796 162
L 796 162
L 796 162
L 796 162
L 796 162
L 796 162
L 796 162
L 796 162
L 796 162
L 796 162
L 796 162
L 796 162
L 796 162
L 796 162
L 796 162
L 796 162
L 796 162
L 796 162
L 796 162
L 796 162
L 796 162
L 796 161
L 796 161
L 796 161
L 796 161
L 796 161
L 796 161
L 796 161
L 796 161
L 796 161
L 796 161
L 796 161
L 796 161
L 797 161
L 797 161
L 797 161
L 797 161
L 797 161
L 797 161
L 797 161
L 797 161
L 797 161
L 797 161
L 797 161
L 797 161
L 797 161
L 797 161
L 797 161
L 797 161
L 797 160
L 797 160
L 797 160
L 797 160
L 797 160
L 797 160
L 797 160
L 797 160
L 797 160
L 797 160
L 797 160
L 797 160
L 797 160
L 797 160
L 797 160
L 797 160
L 797 160
L 797 160
L 797 160
L 797 160
L 797 160
L 797 160
L 797 160
L 797 160
L 797 160
L 797 160
L 797 160
L 797 160
L 797 159
L 797 159
L 797 159
L 797 159
L 797 159
L 797 159
L 797 159
L 797 159
L 797 159
L 797 159
L 798 159
L 798 159
L 798 159
L 798 159
L 798 159
L 798 159
L 798 159
L 798 159
L 798 159
L 798 159
L 798 159
L 798 159
L 798 159
L 798 159
L 798 159
L 798 159
L 798 159
L 798 159
L 798 158
L 798 158
L 798 158
L 798 158
L 798 158
L 798 158
L 798 158
L 798 158
L 798 158
L 798 158
L 798 158
L 798 158
L 798 158
L 798 158
L 798 158
L 798 158
L 798 158
L 798 158
L 798 158
L 799 158
L 799 158
L 799 158
L 799 158
L 799 158
L 799 158
L 799 158
L 799 158
L 799 158
L 799 157
L 799 157
L 799 157
L 799 157
L 799 157
L 799 157
L 800 157
L 800 157
L 800 157
L 800 157
L 800 157
L 800 157
L 800 157
L 800 157
L 800 157
L 800 157
L 800 157
L 800 157
L 800 157
L 800 157
L 800 157
L 800 157
L 800 157
L 800 157
L 800 157
L 800 157
L 800 157
L 800 157
L 800 156
L 800 156
L 800 156
L 800 156
L 800 156
L 800 156
L 801 156
L 801 156
L 801 156
L 801 156
L 801 156
L 801 156
L 801 156
L 801 156
L 801 156
L 801 156
L 801 156
L 801 156
L 801 156
L 801 156
L 801 156
L 801 156
L 801 156
L 801 156
L 801 156
L 801 156
L 801 156
L 801 156
L 801 155
L 801 155
L 801 155
L 801 155
L 801 155
L 801 155
L 801 155
L 801 155
L 801 155
L 801 155
L 802 155
L 802 155
L 802 155
L 802 155
L 802 155
L 802 155
L 802 155
L 802 155
L 802 155
L 802 155
L 802 155
L 802 155
L 802 155
L 802 155
L 802 155
L 802 155
L 802 155
L 802 155
L 803 154
L 803 154
L 803 154
L 803 154
L 803 154
L 803 154
L 803 154
L 803 154
L 803 154
L 803 154
L 803 154
L 803 154
L 803 154
L 803 154
L 803 154
L 803 154
L 803 154
L 803 154
L 803 154
L 803 154
L 803 154
L 803 154
L 803 154
L 803 154
L 803 154
L 803 154
L 803 154
L 803 154
L 803 153
L 803 153
L 803 153
L 804 153
L 804 153
L 804 153
L 804 153
L 804 153
L 804 153
L 804 153
L 804 153
L 804 153
L 804 153
L 804 153
L 804 153
L 804 153
L 804 153
L 804 153
L 804 153
L 804 153
L 804 153
L 804 153
L 804 153
L 804 153
L 805 153
L 805 153
L 805 153
L 805 153
L 805 152
L 805 152
L 805 152
L 805 152
L 805 152
L 805 152
L 805 152
L 805 152
L 805 152
L 806 152
L 806 152
L 806 152
L 806 152
L 806 152
L 806 152
L 806 152
L 806 152
L 806 152
L 806 152
L 806 152
L 807 152
L 807 152
L 807 152
L 807 152
L 807 152
L 807 152
L 807 152
L 807 152
L 807 151
L 807 151
L 807 151
L 807 151
L 807 151
L 807 151
L 807 151
L 807 151
L 807 151
L 807 151
L 807 151
L 807 151
L 807 151
L 807 151
L 807 151
L 807 151
L 807 151
L 807 151
L 807 151
L 807 151
L 807 151
L 807 151
L 807 151
L 807 151
L 807 151
L 807 151
L 807 151
L 807 151
L 807 150
L 807 150
L 807 150
L 807 150
L 807 150
L 807 150
L 808 150
L 808 150
L 808 150
L 808 150
L 808 150
L 808 150
L 808 150
L 808 150
L 808 150
L 808 150
L 808 150
L 808 150
L 808 150
L 808 150
L 808 150
L 808 150
L 808 150
L 808 150
L 808 150
L 808 150
L 808 150
L 808 150
L 808 149
L 808 149
L 808 149
L 808 149
L 808 149
L 808 149
L 808 149
L 808 149
L 808 149
L 808 149
L 808 149
L 808 149
L 808 149
L 808 149
L 808 149
L 808 149
L 808 149
L 808 149
L 808 149
L 808 149
L 808 149
L 808 149
L 808 149
L 808 149
L 808 149
L 808 149
L 808 149
L 808 149
L 808 148
L 808 148
L 808 148
L 808 148
L 809 148
L 809 148
L 809 148
L 809 148
L 809 148
L 809 148
L 809 148
L 809 148
L 809 148
L 809 148
L 809 148
L 809 148
L 809 148
L 809 148
L 809 148
L 809 148
L 809 148
L 809 148
L 809 148
L 809 148
L 809 148
L 809 148
L 809 148
L 809 148
L 809 147
L 809 147
L 809 147
L 809 147
L 809 147
L 809 147
L 809 147
L 809 147
L 809 147
L 809 147
L 809 147
L 809 147
L 809 147
L 809 147
L 809 147
L 809 147
L 810 147
L 810 147
L 810 147
L 810 147
L 810 147
L 810 147
L 810 147
L 810 147
L 810 147
L 810 147
L 810 147
L 810 147
L 810 146
L 810 146
L 810 146
L 810 146
L 810 146
L 810 146
L 810 146
L 810 146
L 810 146
L 810 146
L 810 146
L 810 146
L 810 146
L 810 146
L 810 146
L 811 146
L 811 146
L 811 146
L 811 146
L 811 146
L 811 146
L 811 146
L 811 146
L 811 146
L 811 146
L 811 146
L 811 146
L 811 145
L 811 145
L 811 145
L 811 145
L 811 145
L 811 145
L 811 145
L 811 145
L 811 145
L 811 145
L 811 145
L 811 145
L 811 145
L 811 145
L 811 145
L 811 145
L 811 145
L 811 145
L 811 145
L 811 145
L 811 145
L 811 145
L 811 145
L 811 145
L 811 145
L 811 145
L 811 145
L 811 145
L 812 144
L 812 144
L 812 144
L 812 144
L 812 144
L 812 144
L 812 144
L 812 144
L 812 144
L 812 144
L 812 144
L 812 144
L 812 144
L 812 144
L 812 144
L 812 144
L 812 144
L 812 144
L 812 144
L 812 144
L 812 144
L 812 144
L 813 144
L 813 144
L 813 144
L 813 144
L 813 144
L 813 144
L 813 143
L 813 143
L 813 143
L 813 143
L 813 143
L 813 143
L 813 143
L 813 143
L 813 143
L 813 143
L 813 143
L 813 143
L 813 143
L 813 143
L 813 143
L 813 143
L 813 143
L 813 143
L 813 143
L 813 143
L 813 143
L 814 143
L 814 143
L 814 143
L 814 143
L 814 143
L 814 143
L 814 143
L 814 142
L 814 142
L 814 142
L 814 142
L 814 142
L 814 142
L 814 142
L 814 142
L 814 142
L 814 142
L 814 142
L 814 142
L 814 142
L 814 142
L 814 142
L 814 142
L 815 142
L 815 142
L 815 142
L 815 142
L 815 142
L 816 142
L 816 142
L 816 142
L 816 142
L 816 142
L 816 142
L 816 142
L 816 141
L 817 141
L 817 141
L 817 141
L 817 141
L 817 141
L 817 141
L 817 141
L 817 141
L 817 141
L 817 141
L 817 141
L 817 141
L 817 141
L 818 141
L 818 141
L 818 141
L 818 141
L 818 141
L 818 141
L 818 141
L 818 141
L 818 141
L 818 141
L 818 141
L 818 141
L 818 141
L 818 141
L 819 140
L 819 140
L 819 140
L 819 140
L 819 140
L 819 140
L 819 140
L 819 140
L 819 140
L 819 140
L 819 140
L 819 140
L 819 140
L 820 140
L 820 140
L 820 140
L 820 140
L 820 140
L 820 140
L 820 140
L 821 140
L 821 140
L 821 140
L 821 140
L 821 140
L 821 140
L 821 140
L 821 140
L 822 139
L 822 139
L 822 139
L 822 139
L 822 139
L 822 139
L 822 139
L 822 139
L 822 139
L 822 139
L 822 139
L 822 139
L 822 139
L 822 139
L 822 139
L 822 139
L 823 139
L 823 139
L 823 139
L 823 139
L 823 139
L 823 139
L 823 139
L 823 139
L 823 139
L 824 139
L 824 139
L 824 139
L 824 138
L 824 138
L 824 138
L 824 138
L 824 138
L 824 138
L 824 138
L 825 138
L 825 138
L 825 138
L 825 138
L 825 138
L 825 138
L 825 138
L 825 138
L 825 138
L 825 138
L 825 138
L 825 138
L 825 138
L 825 138
L 825 138
L 825 138
L 825 138
L 825 138
L 825 138
L 825 138
L 825 138
L 825 137
L 826 137
L 826 137
L 826 137
L 826 137
L 826 137
L 826 137
L 826 137
L 827 137
L 827 137
L 827 137
L 827 137
L 827 137
L 827 137
L 827 137
L 828 137
L 828 137
L 828 137
L 828 137
L 828 137
L 828 137
L 828 137
L 828 137
L 828 137
L 828 137
L 828 137
L 828 137
L 828 137
L 828 136
L 829 136
L 829 136
L 829 136
L 829 136
L 829 136
L 829 136
L 829 136
L 829 136
L 829 136
L 829 136
L 829 136
L 829 136
L 829 136
L 829 136
L 829 136
L 829 136
L 830 136
L 830 136
L 830 136
L 830 136
L 830 136
L 830 136
L 830 136
L 830 136
L 831 136
L 831 136
L 831 136
L 831 135
L 831 135
L 831 135
L 831 135
L 831 135
L 832 135
L 832 135
L 832 135
L 832 135
L 832 135
L 832 135
L 832 135
L 832 135
L 832 135
L 832 135
L 832 135
L 833 135
L 833 135
L 833 135
L 833 135
L 833 135
L 833 135
L 833 135
L 833 135
L 833 135
L 833 135
L 833 135
L 833 135
L 833 134
L 833 134
L 833 134
L 833 134
L 834 134
L 834 134
L 834 134
L 834 134
L 834 134
L 834 134
L 834 134
L 834 134
L 834 134
L 834 134
L 834 134
L 834 134
L 834 134
L 834 134
L 834 134
L 834 134
L 834 134
L 834 134
L 834 134
L 834 134
L 834 134
L 834 134
L 834 134
L 834 134
L 834 133
L 834 133
L 834 133
L 834 133
L 834 133
L 834 133
L 834 133
L 834 133
L 834 133
L 834 133
L 834 133
L 834 133
L 834 133
L 835 133
L 835 133
L 835 133
L 835 133
L 835 133
L 835 133
L 835 133
L 835 133
L 835 133
L 835 133
L 835 133
L 835 133
L 835 133
L 835 133
L 835 133
L 835 132
L 835 132
L 835 132
L 835 132
L 835 132
L 835 132
L 835 132
L 835 132
L 835 132
L 835 132
L 835 132
L 835 132
L 835 132
L 835 132
L 835 132
L 835 132
L 835 132
L 835 132
L 836 132
L 836 132
L 836 132
L 836 132
L 836 132
L 836 132
L 836 132
L 836 132
L 836 132
L 836 132
L 836 131
L 836 131
L 836 131
L 837 131
L 837 131
L 837 131
L 837 131
L 837 131
L 837 131
L 837 131
L 837 131
L 837 131
L 837 131
L 838 131
L 838 131
L 838 131
L 838 131
L 838 131
L 838 131
L 838 131
L 838 131
L 838 131
L 838 131
L 838 131
L 838 131
L 838 131
L 838 131
L 838 131
L 839 130
L 839 130
L 839 130
L 839 130
L 839 130
L 839 130
L 839 130
L 839 130
L 839 130
L 839 130
L 839 130
L 839 130
L 839 130
L 839 130
L 840 130
L 840 130
L 840 130
L 840 130
L 840 130
L 840 130
L 840 130
L 840 130
L 840 130
L 840 130
L 840 130
L 841 130
L 841 130
L 841 130
L 841 129
L 841 129
L 841 129
L 841 129
L 841 129
L 841 129
L 841 129
L 841 129
L 841 129
L 841 129
L 841 129
L 841 129
L 841 129
L 841 129
L 841 129
L 842 129
L 842 129
L 842 129
L 842 129
L 842 129
L 842 129
L 842 129
L 842 129
L 842 129
L 842 129
L 843 129
L 843 129
L 843 128
L 843 128
L 843 128
L 843 128
L 843 128
L 843 128
L 843 128
L 844 128
L 844 128
L 844 128
L 844 128
L 844 128
L 844 128
L 844 128
L 844 128
L 844 128
L 844 128
L 844 128
L 844 128
L 845 128
L 845 128
L 845 128
L 845 128
L 845 128
L 845 128
L 845 128
L 845 128
L 845 128
L 845 127
L 845 127
L 845 127
L 845 127
L 845 127
L 845 127
L 845 127
L 846 127
L 846 127
L 846 127
L 846 127
L 846 127
L 846 127
L 846 127
L 846 127
L 847 127
L 847 127
L 847 127
L 847 127
L 847 127
L 847 127
L 847 127
L 847 127
L 847 127
L 847 127
L 847 127
L 847 127
L 848 127
L 848 126
L 848 126
L 848 126
L 848 126
L 848 126
L 848 126
L 848 126
L 848 126
L 848 126
L 848 126
L 848 126
L 848 126
L 849 126
L 849 126
L 849 126
L 849 126
L 849 126
L 849 126
L 849 126
L 849 126
L 849 126
L 849 126
L 849 126
L 849 126
L 849 126
L 849 126
L 849 126
L 849 126
L 849 125
L 849 125
L 849 125
L 849 125
L 849 125
L 849 125
L 850 125
L 850 125
L 850 125
L 850 125
L 850 125
L 850 125
L 850 125
L 850 125
L 850 125
L 850 125
L 850 125
L 851 125
L 851 125
L 851 125
L 851 125
L 851 125
L 851 125
L 851 125
L 851 125
L 851 125
L 851 125
L 851 125
L 852 124
L 852 124
L 852 124
L 852 124
L 852 124
L 852 124
L 852 124
L 852 124
L 852 124
L 852 124
L 853 124
L 853 124
L 853 124
L 853 124
L 853 124
L 854 124
L 854 124
L 854 124
L 854 124
L 854 124
L 854 124
L 854 124
L 854 124
L 854 124
L 854 124
L 854 124
L 855 124
L 855 124
L 855 123
L 855 123
L 855 123
L 855 123
L 855 123
L 855 123
L 855 123
L 855 123
L 855 123
L 855 123
L 855 123
L 855 123
L 856 123
L 856 123
L 856 123
L 856 123
L 856 123
L 856 123
L 856 123
L 856 123
L 856 123
L 856 123
L 856 123
L 856 123
L 856 123
L 856 123
L 857 123
L 857 123
L 857 122
L 857 122
L 857 122
L 857 122
L 857 122
L 857 122
L 857 122
L 857 122
L 857 122
L 858 122
L 858 122
L 858 122
L 858 122
L 858 122
L 858 122
L 858 122
L 858 122
L 858 122
L 859 122
L 859 122
L 859 122
L 859 122
L 859 122
L 859 122
L 859 122
L 859 122
L 859 122
L 859 122
L 859 121
L 860 121
L 860 121
L 860 121
L 860 121
L 860 121
L 860 121
L 860 121
L 860 121
L 860 121
L 860 121
L 861 121
L 861 121
L 861 121
L 861 121
L 861 121
L 861 121
L 861 121
L 861 121
L 861 121
L 861 121
L 861 121
L 861 121
L 861 121
L 861 121
L 861 121
L 861 121
L 861 121
L 861 120
L 861 120
L 861 120
L 861 120
L 861 120
L 861 120
L 861 120
L 861 120
L 861 120
L 861 120
L 861 120
L 861 120
L 861 120
L 861 120
L 861 120
L 861 120
L 861 120
L 862 120
L 862 120
L 862 120
L 862 120
L 862 120
L 862 120
L 862 120
L 862 120
L 862 120
L 862 120
L 862 120
L 862 119
L 862 119
L 862 119
L 862 119
L 862 119
L 862 119
L 862 119
L 862 119
L 862 119
L 862 119
L 862 119
L 862 119
L 862 119
L 862 119
L 862 119
L 862 119
L 862 119
L 862 119
L 862 119
L 862 119
L 862 119
L 862 119
L 862 119
L 863 119
L 863 119
L 863 119
L 863 119
L 863 119
L 863 118
L 863 118
L 863 118
L 863 118
L 863 118
L 863 118
L 863 118
L 863 118
L 863 118
L 863 118
L 863 118
L 863 118
L 863 118
L 863 118
L 863 118
L 863 118
L 863 118
L 863 118
L 863 118
L 863 118
L 863 118
L 863 118
L 863 118
L 863 118
L 863 118
L 863 118
L 863 118
L 863 118
L 863 117
L 863 117
L 863 117
L 863 117
L 863 117
L 863 117
L 863 117
L 863 117
L 863 117
L 864 117
L 864 117
L 864 117
L 864 117
L 864 117
L 864 117
L 864 117
L 864 117
L 864 117
L 864 117
L 864 117
L 864 117
L 864 117
L 864 117
L 864 117
L 864 117
L 865 117
L 865 117
L 865 117
L 865 116
L 865 116
L 865 116
L 865 116
L 865 116
L 865 116
L 865 116
L 865 116
L 865 116
L 865 116
L 865 116
L 865 116
L 865 116
L 865 116
L 865 116
L 865 116
L 865 116
L 866 116
L 866 116
L 866 116
L 866 116
L 866 116
L 866 116
L 866 116
L 866 116
L 866 116
L 866 116
L 866 116
L 866 115
L 866 115
L 866 115
L 866 115
L 866 115
L 866 115
L 866 115
L 866 115
L 866 115
L 866 115
L 866 115
L 866 115
L 866 115
L 866 115
L 866 115
L 866 115
L 866 115
L 866 115
L 866 115
L 866 115
L 866 115
L 866 115
L 866 115
L 866 115
L 866 115
L 866 115
L 866 115
L 866 115
L 866 114
L 866 114
L 866 114
L 866 114
L 866 114
L 866 114
L 866 114
L 866 114
L 866 114
L 866 114
L 866 114
L 866 114
L 866 114
L 866 114
L 866 114
L 867 114
L 867 114
L 867 114
L 867 114
L 867 114
L 867 114
L 867 114
L 867 114
L 867 114
L 867 114
L 867 114
L 867 114
L 867 114
L 867 113
L 867 113
L 867 113
L 867 113
L 867 113
L 867 113
L 867 113
L 867 113
L 867 113
L 867 113
L 867 113
L 867 113
L 867 113
L 867 113
L 867 113
L 867 113
L 867 113
L 867 113
L 867 113
L 867 113
L 867 113
L 867 113
L 867 113
L 867 113
L 867 113
L 867 113
L 867 113
L 867 113
L 867 112
L 867 112
L 867 112
L 867 112
L 867 112
L 867 112
L 867 112
L 867 112
L 867 112
L 867 112
L 867 112
L 867 112
L 867 112
L 867 112
L 867 112
L 867 112
L 867 112
L 868 112
L 868 112
L 868 112
L 868 112
L 868 112
L 868 112
L 868 112
L 868 112
L 868 112
L 868 112
L 868 111
L 868 111
L 868 111
L 868 111
L 868 111
L 868 111
L 868 111
L 868 111
L 868 111
L 868 111
L 868 111
L 868 111
L 868 111
L 868 111
L 868 111
L 868 111
L 868 111
L 868 111
L 868 111
L 868 111
L 868 111
L 868 111
L 868 111
L 868 111
L 868 111
L 868 111
L 868 111
L 868 111
L 868 110
L 868 110
L 868 110
L 868 110
L 868 110
L 868 110
L 868 110
L 868 110
L 868 110
L 868 110
L 868 110
L 868 110
L 868 110
L 868 110
L 868 110
L 868 110
L 868 110
L 868 110
L 868 110
L 868 110
L 868 110
L 868 110
L 868 110
L 868 110
L 868 110
L 868 110
L 868 110
L 868 110
L 868 109
L 868 109
L 868 109
L 868 109
L 868 109
L 868 109
L 868 109
L 868 109
L 869 109
L 869 109
L 869 109
L 869 109
L 869 109
L 869 109
L 869 109
L 869 109
L 869 109
L 869 109
L 869 109
L 869 109
L 869 109
L 869 109
L 869 109
L 869 109
L 869 109
L 869 109
L 869 109
L 869 109
L 869 108
L 869 108
L 869 108
L 869 108
L 869 108
L 869 108
L 869 108
L 869 108
L 869 108
L 869 108
L 869 108
L 870 108
L 870 108
L 870 108
L 870 108
L 870 108
L 870 108
L 870 108
L 870 108
L 870 108
L 870 108
L 870 108
L 870 108
L 870 108
L 870 108
L 870 108
L 870 108
L 870 108
L 871 107
L 871 107
L 871 107
L 871 107
L 871 107
L 871 107
L 871 107
L 871 107
L 871 107
L 871 107
L 871 107
L 871 107
L 871 107
L 871 107
L 871 107
L 871 107
L 871 107
L 871 107
L 871 107
L 871 107
L 871 107
L 871 107
L 871 107
L 871 107
L 871 107
L 871 107
L 871 107
L 871 107
L 871 106
L 871 106
L 871 106
L 872 106
L 872 106
L 872 106
L 872 106
L 872 106
L 872 106
L 872 106
L 872 106
L 872 106
L 872 106
L 872 106
L 872 106
L 872 106
L 872 106
L 872 106
L 872 106
L 872 106
L 872 106
L 872 106
L 872 106
L 872 106
L 872 106
L 872 106
L 872 106
L 872 106
L 872 105
L 872 105
L 872 105
L 872 105
L 872 105
L 872 105
L 873 105
L 873 105
L 873 105
L 873 105
L 873 105
L 873 105
L 873 105
L 873 105
L 873 105
L 873 105
L 873 105
L 873 105
L 873 105
L 874 105
L 874 105
L 874 105
L 874 105
L 874 105
L 874 105
L 874 105
L 874 105
L 874 105
L 874 104
L 875 104
L 875 104
L 875 104
L 875 104
L 875 104
L 875 104
L 875 104
L 875 104
L 875 104
L 875 104
L 875 104
L 875 104
L 875 104
L 876 104
L 876 104
L 876 104
L 876 104
L 876 104
L 876 104
L 876 104
L 876 104
L 876 104
L 876 104
L 876 104
L 876 104
L 876 104
L 876 104
L 876 103
L 876 103
L 876 103
L 876 103
L 876 103
L 876 103
L 876 103
L 876 103
L 876 103
L 876 103
L 876 103
L 876 103
L 876 103
L 876 103
L 877 103
L 877 103
L 877 103
L 877 103
L 877 103
L 877 103
L 877 103
L 877 103
L 877 103
L 877 103
L 877 103
L 877 103
L 877 103
L 877 103
L 877 102
L 877 102
L 877 102
L 877 102
L 877 102
L 877 102
L 878 102
L 878 102
L 878 102
L 878 102
L 878 102
L 878 102
L 878 102
L 878 102
L 878 102
L 878 102
L 878 102
L 878 102
L 878 102
L 878 102
L 878 102
L 878 102
L 878 102
L 878 102
L 878 102
L 878 102
L 878 102
L 878 102
L 878 101
L 878 101
L 878 101
L 878 101
L 878 101
L 878 101
L 878 101
L 878 101
L 878 101
L 878 101
L 878 101
L 878 101
L 878 101
L 879 101
L 879 101
L 879 101
L 879 101
L 879 101
L 879 101
L 879 101
L 879 101
L 879 101
L 879 101
L 879 101
L 879 101
L 879 101
L 879 101
L 879 101
L 879 100
L 879 100
L 879 100
L 880 100
L 880 100
L 880 100
L 880 100
L 880 100
L 880 100
L 880 100
L 880 100
L 880 100
L 880 100
L 880 100
L 880 100
L 880 100
L 880 100
L 880 100
L 880 100
L 880 100
L 880 100
L 880 100
L 880 100
L 880 100
L 880 100
L 880 100
L 880 100
L 880 100
L 880 99
L 880 99
L 880 99
L 880 99
L 880 99
L 880 99
L 880 99
L 880 99
L 881 99
L 881 99
L 881 99
L 881 99
L 881 99
L 881 99
L 881 99
L 881 99
L 882 99
L 882 99
L 882 99
L 882 99
L 882 99
L 882 99
L 882 99
L 882 99
L 882 99
L 882 99
L 882 99
L 882 99
L 882 98
L 883 98
L 883 98
L 883 98
L 883 98
L 883 98
L 883 98
L 883 98
L 883 98
L 883 98
L 883 98
L 883 98
L 883 98
L 883 98
L 883 98
L 883 98
L 883 98
L 883 98
L 883 98
L 883 98
L 884 98
L 884 98
L 884 98
L 884 98
L 884 98
L 884 98
L 884 98
L 884 98
L 884 97
L 884 97
L 884 97
L 884 97
L 884 97
L 884 97
L 884 97
L 884 97
L 884 97
L 884 97
L 884 97
L 884 97
L 884 97
L 884 97
L 884 97
L 884 97
L 884 97
L 884 97
L 884 97
L 884 97
L 884 97
L 885 97
L 885 97
L 885 97
L 885 97
L 885 97
L 885 97
L 885 97
L 885 96
L 885 96
L 885 96
L 885 96
L 885 96
L 885 96
L 885 96
L 885 96
L 885 96
L 885 96
L 885 96
L 886 96
L 886 96
L 886 96
L 886 96
L 886 96
L 886 96
L 886 96
L 886 96
L 886 96
L 886 96
L 886 96
L 886 96
L 886 96
L 886 96
L 886 96
L 886 96
L 886 96
L 887 95
L 887 95
L 887 95
L 887 95
L 887 95
L 887 95
L 887 95
L 887 95
L 888 95
L 888 95
L 888 95
L 888 95
L 888 95
L 888 95
L 888 95
L 888 95
L 888 95
L 888 95
L 888 95
L 888 95
L 888 95
L 888 95
L 888 95
L 888 95
L 888 95
L 888 95
L 888 95
L 889 94
L 889 94
L 889 94
L 889 94
L 889 94
L 889 94
L 889 94
L 889 94
L 889 94
L 889 94
L 889 94
L 889 94
L 889 94
L 889 94
L 889 94
L 889 94
L 890 94
L 890 94
L 890 94
L 890 94
L 890 94
L 890 94
L 890 94
L 891 94
L 891 94
L 891 94
L 891 94
L 891 94
L 891 93
L 892 93
L 892 93
L 892 93
L 892 93
L 892 93
L 892 93
L 892 93
L 892 93
L 892 93
L 892 93
L 892 93
L 892 93
L 892 93
L 892 93
L 892 93
L 893 93
L 894 93
L 894 93
L 894 93
L 894 93
L 894 93
L 894 93
L 894 93
L 894 93
L 894 93
L 895 93
L 895 93
L 895 92
L 895 92
L 895 92
L 895 92
L 895 92
L 895 92
L 895 92
L 895 92
L 896 92
L 896 92
L 896 92
L 896 92
L 896 92
L 896 92
L 897 92
L 897 92
L 897 92
L 897 92
L 897 92
L 897 92
L 897 92
L 897 92
L 898 92
L 898 92
L 898 92
L 898 92
L 898 92
L 898 92
L 898 91
L 898 91
L 898 91
L 898 91
L 898 91
L 898 91
L 899 91
L 899 91
L 899 91
L 899 91
L 899 91
L 899 91
L 899 91
L 899 91
L 899 91
L 899 91
L 899 91
L 899 91
L 899 91
L 899 91
L 899 91
L 899 91
L 899 91
L 899 91
L 899 91
L 899 91
L 899 91
L 899 91
L 900 90
L 900 90
L 900 90
L 900 90
L 900 90
L 900 90
L 900 90
L 900 90
L 900 90
L 900 90
L 900 90
L 900 90
L 900 90
L 900 90
L 900 90
L 900 90
L 900 90
L 900 90
L 900 90
L 900 90
L 900 90
L 900 90
L 900 90
L 900 90
L 900 90
L 900 90
L 900 90
L 900 90
L 900 89
L 900 89
L 901 89
L 901 89
L 901 89
L 901 89
L 901 89
L 901 89
L 901 89
L 901 89
L 901 89
L 901 89
L 901 89
L 901 89
L 901 89
L 902 89
L 902 89
L 902 89
L 902 89
L 902 89
L 903 89
L 903 89
L 903 89
L 903 89
L 903 89
L 903 89
L 903 89
L 903 89
L 903 88
L 903 88
L 904 88
L 904 88
L 904 88
L 904 88
L 904 88
L 904 88
L 904 88
L 904 88
L 904 88
L 904 88
L 905 88
L 905 88
L 905 88
L 905 88
L 905 88
L 905 88
L 905 88
L 905 88
L 905 88
L 906 88
L 906 88
L 906 88
L 906 88
L 906 88
L 906 88
L 906 88
L 906 87
L 906 87
L 906 87
L 906 87
L 907 87
L 907 87
L 907 87
L 907 87
L 907 87
L 907 87
L 908 87
L 908 87
L 908 87
L 908 87
L 908 87
L 908 87
L 909 87
L 909 87
L 909 87
L 909 87
L 909 87
L 909 87
L 909 87
L 909 87
L 909 87
L 909 87
L 909 87
L 909 87
L 909 86
L 909 86
L 909 86
L 910 86
L 910 86
L 910 86
L 910 86
L 910 86
L 910 86
L 910 86
L 910 86
L 910 86
L 910 86
L 910 86
L 910 86
L 910 86
L 910 86
L 910 86
L 910 86
L 910 86
L 910 86
L 910 86
L 910 86
L 910 86
L 910 86
L 910 86
L 910 86
L 910 86
L 910 85
L 910 85
L 910 85
L 911 85
L 911 85
L 911 85
L 911 85
L 911 85
L 911 85
L 911 85
L 911 85
L 911 85
L 911 85
L 912 85
L 912 85
L 912 85
L 912 85
L 912 85
L 912 85
L 912 85
L 912 85
L 912 85
L 912 85
L 912 85
L 912 85
L 912 85
L 913 85
L 913 85
L 913 84
L 913 84
L 913 84
L 913 84
L 913 84
L 913 84
L 913 84
L 913 84
L 913 84
L 914 84
L 914 84
L 914 84
L 914 84
L 914 84
L 914 84
L 914 84
L 914 84
L 914 84
L 914 84
L 914 84
L 914 84
L 914 84
L 914 84
L 914 84
L 915 84
L 915 84
L 915 84
L 915 84
L 915 83
L 915 83
L 915 83
L 915 83
L 915 83
L 915 83
L 915 83
L 915 83
L 916 83
L 916 83
L 916 83
L 916 83
L 916 83
L 916 83
L 916 83
L 916 83
L 916 83
L 916 83
L 916 83
L 916 83
L 917 83
L 917 83
L 917 83
L 917 83
L 917 83
L 917 83
L 917 83
L 917 83
L 917 82
L 917 82
L 917 82
L 917 82
L 917 82
L 917 82
L 917 82
L 917 82
L 918 82
L 918 82
L 918 82
L 918 82
L 918 82
L 918 82
L 919 82
L 919 82
L 919 82
L 919 82
L 919 82
L 919 82
L 919 82
L 919 82
L 919 82
L 919 82
L 919 82
L 919 82
L 920 82
L 920 82
L 920 81
L 920 81
L 920 81
L 921 81
L 921 81
L 921 81
L 921 81
L 921 81
L 921 81
L 921 81
L 921 81
L 922 81
L 922 81
L 922 81
L 922 81
L 922 81
L 922 81
L 922 81
L 922 81
L 922 81
L 922 81
L 922 81
L 923 81
L 923 81
L 923 81
L 923 81
L 924 81
L 924 81
L 924 80
L 924 80
L 924 80
L 925 80
L 925 80
L 925 80
L 925 80
L 925 80
L 926 80
L 926 80
L 926 80
L 926 80
L 926 80
L 926 80
L 926 80
L 926 80
L 926 80
L 926 80
L 926 80
L 926 80
L 926 80
L 926 80
L 926 80
L 926 80
L 927 80
L 927 80
L 927 80
L 927 80
L 927 79
L 927 79
L 927 79
L 927 79
L 927 79
L 927 79
L 927 79
L 927 79
L 927 79
L 927 79
L 927 79
L 927 79
L 927 79
L 927 79
L 927 79
L 927 79
L 928 79
L 928 79
L 928 79
L 928 79
L 928 79
L 928 79
L 928 79
L 928 79
L 928 79
L 929 79
L 929 79
L 929 79
L 929 78
L 929 78
L 929 78
L 929 78
L 929 78
L 929 78
L 929 78
L 929 78
L 930 78
L 930 78
L 930 78
L 930 78
L 930 78
L 930 78
L 930 78
L 930 78
L 930 78
L 930 78
L 930 78
L 930 78
L 931 78
L 931 78
L 931 78
L 931 78
L 931 78
L 931 78
L 931 78
L 931 77
L 931 77
L 931 77
L 931 77
L 932 77
L 932 77
L 932 77
L 932 77
L 932 77
L 932 77
L 932 77
L 932 77
L 933 77
L 933 77
L 933 77
L 933 77
L 934 77
L 934 77
L 934 77
L 934 77
L 934 77
L 935 77
L 935 77
L 936 77
L 936 77
L 936 77
L 936 77
L 936 77
L 936 76
L 936 76
L 936 76
L 936 76
L 936 76
L 936 76
L 936 76
L 936 76
L 937 76
L 937 76
L 937 76
L 937 76
L 937 76
L 937 76
L 937 76
L 937 76
L 937 76
L 937 76
L 937 76
L 937 76
L 938 76
L 938 76
L 938 76
L 938 76
L 938 76
L 938 76
L 938 76
L 938 76
L 938 75
L 938 75
L 938 75
L 938 75
L 938 75
L 938 75
L 938 75
L 938 75
L 938 75
L 938 75
L 938 75
L 938 75
L 938 75
L 938 75
L 938 75
L 938 75
L 938 75
L 938 75
L 938 75
L 938 75
L 939 75
L 939 75
L 939 75
L 939 75
L 939 75
L 939 75
L 939 75
L 939 75
L 939 74
L 939 74
L 939 74
L 939 74
L 939 74
L 939 74
L 939 74
L 939 74
L 939 74
L 939 74
L 939 74
L 940 74
L 940 74
L 940 74
L 940 74
L 940 74
L 940 74
L 940 74
L 940 74
L 940 74
L 940 74
L 940 74
L 940 74
L 940 74
L 940 74
L 940 74
L 940 74
L 940 74
L 940 73
L 940 73
L 940 73
L 940 73
L 940 73
L 940 73
L 940 73
L 940 73
L 940 73
L 941 73
L 941 73
L 941 73
L 941 73
L 941 73
L 941 73
L 941 73
L 941 73
L 941 73
L 941 73
L 941 73
L 941 73
L 941 73
L 941 73
L 941 73
L 941 73
L 941 73
L 941 73
L 941 73
L 941 72
L 941 72
L 941 72
L 941 72
L 941 72
L 941 72
L 941 72
L 941 72
L 941 72
L 941 72
L 941 72
L 941 72
L 941 72
L 941 72
L 941 72
L 941 72
L 941 72
L 941 72
L 941 72
L 941 72
L 941 72
L 941 72
L 941 72
L 941 72
L 941 72
L 941 72
L 941 72
L 941 72
L 941 71
L 941 71
L 941 71
L 941 71
L 941 71
L 941 71
L 941 71
L 941 71
L 941 71
L 941 71
L 941 71
L 941 71
L 941 71
L 941 71
L 941 71
L 941 71
L 941 71
L 941 71
L 941 71
L 941 71
L 941 71
L 941 71
L 941 71
L 941 71
L 941 71
L 941 71
L 941 71
L 941 71
L 941 70
L 941 70
L 941 70
L 941 70
L 941 70
L 941 70
L 941 70
L 941 70
L 941 70
L 941 70
L 941 70
L 941 70
L 941 70
L 941 70
L 941 70
L 941 70
L 941 70
L 941 70
L 941 70
L 941 70
L 941 70
L 941 70
L 941 70
L 941 70
L 941 70
L 941 70
L 941 70
L 941 70
L 941 69
L 941 69
L 941 69
L 941 69
L 941 69
L 941 69
L 941 69
L 941 69
L 941 69
L 941 69
L 941 69
L 941 69
L 941 69
L 941 69
L 941 69
L 941 69
L 942 69
L 942 69
L 942 69
L 942 69
L 942 69
L 942 69
L 942 69
L 942 69
L 942 69
L 942 69
L 942 69
L 942 69
L 942 68
L 942 68
L 942 68
L 942 68
L 942 68
L 942 68
L 942 68
L 942 68
L 942 68
L 942 68
L 942 68
L 942 68
L 942 68
L 942 68
L 942 68
L 942 68
L 942 68
L 942 68
L 942 68
L 942 68
L 942 68
L 942 68
L 942 68
L 942 68
L 942 68
L 942 68
L 942 68
L 942 68
L 942 67
L 942 67
L 942 67
L 942 67
L 942 67
L 942 67
L 942 67
L 942 67
L 942 67
L 942 67
L 942 67
L 942 67
L 942 67
L 942 67
L 942 67
L 942 67
L 942 67
L 942 67
L 942 67
L 942 67
L 942 67
L 942 67
L 942 67
L 942 67
L 942 67
L 942 67
L 942 67
L 942 67
L 942 66
L 942 66
L 942 66
L 942 66
L 942 66
L 942 66
L 942 66
L 942 66
L 942 66
L 942 66
L 942 66
L 942 66
L 942 66
L 942 66
L 942 66
L 942 66
L 942 66
L 942 66
L 942 66
L 942 66
L 942 66
L 942 66
L 942 66
L 942 66
L 942 66
L 942 66
L 942 66
L 942 66
L 942 65
L 942 65
L 942 65
L 942 65
L 942 65
L 942 65
L 942 65
L 942 65
L 942 65
L 942 65
L 942 65
L 942 65
L 942 65
L 942 65
L 942 65
L 942 65
L 942 65
L 942 65
L 942 65
L 942 65
L 942 65
L 942 65
L 942 65
L 942 65
L 942 65
L 942 65
L 942 65
L 942 65
L 942 64
L 942 64
L 942 64
L 942 64
L 942 64
L 942 64
L 942 64
L 942 64
L 942 64
L 942 64
L 942 64
L 942 64
L 942 64
L 942 64
L 942 64
L 942 64
L 942 64
L 942 64
L 942 64
L 942 64
L 942 64
L 942 64
L 942 64
L 942 64
L 942 64
L 942 64
L 942 64
L 942 64
L 942 63
L 942 63
L 942 63
L 942 63
L 942 63
L 942 63
L 942 63
L 942 63
L 942 63
L 942 63
L 942 63
L 942 63
L 942 63
L 942 63
L 943 63
L 943 63
L 943 63
L 943 63
L 943 63
L 943 63
L 943 63
L 943 63
L 943 63
L 943 63
L 943 63
L 943 63
L 943 63
L 943 63
L 943 62
L 943 62
L 943 62
L 943 62
L 943 62
L 943 62
L 943 62
L 943 62
L 943 62
L 943 62
L 943 62
L 943 62
L 943 62
L 943 62
L 943 62
L 943 62
L 943 62
L 943 62
L 943 62
L 943 62
L 943 62
L 943 62
L 943 62
L 943 62
L 943 62
L 943 62
L 943 62
L 943 62
L 943 61
L 943 61
L 943 61
L 943 61
L 943 61
L 943 61
L 943 61
L 943 61
L 943 61
L 943 61
L 943 61
L 943 61
L 943 61
L 943 61
L 943 61
L 943 61
L 943 61
L 943 61
L 943 61
L 943 61
L 943 61
L 943 61
L 943 61
L 943 61
L 943 61
L 943 61
L 943 61
L 943 60
L 943 60
L 943 60
L 943 60
L 943 60
L 943 60
L 943 60
L 943 60
L 943 60
L 943 60
L 943 60
L 943 60
L 943 60
L 943 60
L 943 60
L 943 60
L 943 60
L 943 60
L 943 60
L 943 60
L 943 60
L 943 60
L 943 60
L 943 60
L 943 60
L 943 60
L 943 60
L 943 60
L 943 59
L 943 59
L 943 59
L 943 59
L 943 59
L 943 59
L 943 59
L 943 59
L 943 59
L 943 59
L 943 59
L 943 59
L 943 59
L 943 59
L 943 59
L 943 59
L 943 59
L 943 59
L 943 59
L 943 59
L 943 59
L 943 59
L 943 59
L 943 59
L 943 59
L 943 59
L 943 59
L 943 59
L 943 58
L 943 58
L 943 58
L 943 58
L 943 58
L 943 58
L 943 58
L 943 58
L 943 58
L 943 58
L 943 58
L 943 58
L 943 58
L 943 58
L 943 58
L 943 58
L 943 58
L 943 58
L 943 58
L 943 58
L 943 58
L 943 58
L 943 58
L 943 58
L 943 58
L 943 58
L 943 58
L 943 58
L 943 57
L 943 57
L 943 57
L 943 57
L 943 57
L 943 57
L 943 57
L 943 57
L 943 57
L 943 57
L 943 57
L 943 57
L 943 57
L 943 57
L 943 57
L 943 57
L 943 57
L 943 57
L 943 57
L 943 57
L 943 57
L 943 57
L 943 57
L 943 57
L 943 57
L 943 57
L 943 57
L 943 57
L 943 56
L 943 56
L 943 56
L 943 56
L 943 56
L 943 56
L 943 56
L 943 56
L 943 56
L 943 56
L 943 56
L 943 56
L 943 56
L 943 56
L 943 56
L 943 56
L 943 56
L 943 56
L 943 56
L 943 56
L 943 56
L 943 56
L 943 56
L 943 56
L 943 56
L 943 56
L 943 56
L 943 56
L 943 55
L 943 55
L 943 55
L 943 55
L 943 55
L 943 55
L 943 55
L 943 55
L 943 55
L 943 55
L 943 55
L 943 55
L 943 55
L 943 55
L 943 55
L 943 55
L 943 55
L 943 55
L 943 55
L 943 55
L 943 55
L 943 55
L 943 55
L 943 55
L 943 55
L 943 55
L 943 55
L 943 55
L 943 54
L 943 54
L 943 54
L 943 54
L 943 54
L 943 54
L 943 54
L 943 54
L 943 54
L 943 54
L 943 54
L 943 54
L 943 54
L 943 54
L 943 54
L 943 54
L 943 54
L 943 54
L 943 54
L 943 54
L 943 54
L 943 54
L 943 54
L 943 54
L 943 54
L 943 54
L 943 54
L 943 54
L 943 53
L 943 53
L 943 53
L 943 53
L 943 53
L 943 53
L 943 53
L 943 53
L 944 53
L 944 53
L 944 53
L 944 53
L 944 53
L 944 53
L 944 53
L 944 53
L 944 53
L 944 53
L 944 53
L 944 53
L 944 53
L 944 53
L 944 53
L 944 53
L 944 53
L 944 53
L 944 53
L 944 53
L 944 52
L 944 52
L 944 52
L 944 52
L 944 52
L 944 52
L 944 52
L 944 52
L 944 52
L 944 52
L 944 52
L 944 52
L 944 52
L 944 52
L 944 52
L 944 52
L 944 52
L 944 52
L 944 52
L 944 52
L 944 52
L 944 52
L 944 52
L 944 52
L 944 52
L 944 52
L 944 52
L 944 52
L 944 51
L 944 51
L 944 51
L 944 51
L 944 51
L 944 51
L 944 51
L 944 51
L 944 51
L 944 51
L 944 51
L 944 51
L 944 51
L 944 51
L 944 51
L 944 51
L 944 51
L 944 51
L 944 51
L 944 51
L 944 51
L 944 51
L 944 51
L 944 51
L 944 51
L 944 51
L 944 51
L 944 51
L 944 50
L 944 50
L 944 50
L 944 50
L 944 50
L 944 50
L 944 50
L 944 50
L 944 50
L 944 50
L 944 50
L 944 50
L 944 50
L 944 50
L 944 50
L 944 50
L 944 50
L 944 50
L 944 50
L 944 50
L 944 50
L 944 50
L 944 50
L 944 50
L 944 50
L 944 50
L 944 50
L 944 50
L 944 49
L 944 49
L 944 49
L 944 49
L 944 49
L 944 49
L 944 49
L 944 49
L 944 49
L 944 49
L 944 49
L 944 49
L 944 49
L 944 49
L 944 49
L 944 49
L 944 49
L 944 49
L 944 49
L 944 49
L 944 49
L 944 49
L 944 49
L 944 49
L 944 49
L 944 49
L 944 49
L 944 49
L 944 48
L 944 48
L 944 48
L 944 48
L 944 48
L 944 48
L 944 48
L 944 48
L 944 48
L 944 48
L 944 48
L 944 48
L 944 48
L 944 48
L 944 48
L 944 48
L 944 48
L 944 48
L 944 48
L 944 48
L 944 48
L 944 48
L 944 48
L 944 48
L 944 48
L 944 48
L 944 48
L 944 48
L 944 47
L 944 47
L 944 47
L 944 47
L 944 47
L 944 47
L 944 47
L 944 47
L 944 47
L 944 47
L 944 47
L 944 47
L 944 47
L 944 47
L 944 47
L 944 47
L 944 47
L 944 47
L 944 47
L 944 47
L 944 47
L 944 47
L 944 47
L 944 47
L 944 47
L 944 47
L 944 47
L 944 47
L 944 46
L 944 46
L 944 46
L 944 46
L 944 46
L 944 46
L 944 46
L 944 46
L 944 46
L 944 46
L 944 46
L 944 46
L 944 46
L 944 46
L 944 46
L 944 46
L 944 46
L 944 46
L 944 46
L 944 46
L 944 46
L 944 46
L 944 46
L 944 46
L 944 46
L 944 46
L 944 46
L 944 46
L 944 45
L 944 45
L 944 45
L 944 45
L 944 45
L 944 45
L 944 45
L 944 45
L 944 45
L 944 45
L 944 45
L 944 45
L 944 45
L 944 45
L 944 45
L 944 45
L 944 45
L 944 45
L 944 45
L 944 45
L 944 45
L 944 45
L 944 45
L 944 45
L 944 45
L 944 45
L 944 45
L 944 45
L 944 44
L 944 44
L 944 44
L 944 44
L 944 44
L 944 44
L 944 44
L 944 44
L 944 44
L 944 44
L 944 44
L 944 44
L 944 44
L 944 44
L 944 44
L 944 44
L 944 44
L 944 44
L 944 44
L 944 44
L 944 44
L 944 44
L 944 44
L 944 44
L 944 44
L 944 44
L 944 44
L 944 43
L 944 43
L 944 43
L 944 43
L 944 43
L 944 43
L 944 43
L 944 43
L 944 43
L 944 43
L 944 43
L 944 43
L 944 43
L 944 43
L 944 43
L 944 43
L 944 43
L 944 43
L 945 43
L 945 43
L 945 43
L 945 43
L 945 43
L 945 43
L 945 43
L 945 43
L 945 43
L 945 43
L 945 42
L 945 42
L 945 42
L 945 42
L 945 42
L 945 42
L 945 42
L 945 42
L 945 42
L 945 42
L 945 42
L 945 42
L 945 42
L 945 42
L 945 42
L 945 42
L 945 42
L 945 42
L 945 42
L 945 42
L 945 42
L 945 42
L 945 42
L 945 42
L 945 42
L 945 42
L 945 42
L 945 42
L 945 41
L 945 41
L 945 41
L 945 41
L 945 41
L 945 41
L 945 41
L 945 41
L 945 41
L 945 41
L 945 41
L 945 41
L 945 41
L 945 41
L 945 41
L 945 41
L 945 41
L 945 41
L 945 41
L 945 41
L 945 41
L 945 41
L 945 41
L 945 41
L 945 41
L 945 41
L 945 41
L 945 41
L 945 40
L 945 40
L 945 40
L 945 40
L 945 40
L 945 40
L 945 40
L 945 40
L 945 40
L 945 40
L 945 40
L 945 40
L 945 40
L 945 40
L 945 40
L 945 40
L 945 40
L 945 40
L 945 40
L 945 40
L 945 40
L 945 40
L 945 40
L 945 40
L 945 40
L 945 40
L 945 40
L 945 40
L 945 39
L 945 39
L 945 39
L 945 39
L 945 39
L 945 39
L 945 39
L 945 39
L 945 39
L 945 39
L 945 39
L 945 39
L 945 39
L 945 39
L 945 39
L 945 39
L 945 39
L 945 39
L 945 39
L 945 39
L 945 39
L 945 39
L 945 39
L 945 39
L 945 39
L 945 39
L 945 39
L 945 39
L 945 38
L 945 38
L 945 38
L 945 38
L 945 38
L 945 38
L 945 38
L 945 38
L 945 38
L 945 38
L 945 38
L 945 38
L 945 38
L 945 38
L 945 38
L 945 38
L 945 38
L 945 38
L 945 38
L 945 38
L 945 38
L 945 38
L 945 38
L 945 38
L 945 38
L 945 38
L 945 38
L 945 38
L 945 37
L 945 37
L 945 37
L 945 37
L 945 37
L 945 37
L 945 37
L 945 37
L 945 37
L 945 37
L 945 37
L 945 37
L 945 37
L 945 37
L 945 37
L 945 37
L 945 37
L 945 37
L 945 37
L 945 37
L 945 37
L 945 37
L 945 37
L 945 37
L 945 37
L 945 37
L 945 37
L 945 37
L 945 36
L 945 36
L 945 36
L 945 36
L 945 36
L 945 36
L 945 36
L 945 36
L 945 36
L 945 36
L 945 36
L 945 36
L 945 36
L 945 36
L 945 36
L 945 36
L 945 36
L 945 36
L 945 36
L 945 36
L 945 36
L 945 36
L 945 36
L 945 36
L 945 36
L 945 36
L 945 36
L 945 36
L 946 35
L 946 35
L 946 35
L 946 35
L 946 35
L 946 35
L 946 35
L 946 35
L 946 35
L 946 35
L 946 35
L 946 35
L 946 35
L 946 35
L 946 35
L 946 35
L 946 35
L 946 35
L 946 35
L 946 35
L 946 35
L 946 35
L 946 35
L 946 35
L 946 35
L 946 35
L 946 35
L 946 35
L 946 34
L 946 34
L 946 34
L 946 34
L 946 34
L 946 34
L 946 34
L 946 34
L 946 34
L 946 34
L 946 34
L 946 34
L 946 34
L 946 34
L 946 34
L 946 34
L 946 34
L 946 34
L 946 34
L 946 34
L 946 34
L 946 34
L 946 34
L 946 34
L 946 34
L 946 34
L 946 34
L 946 34
L 946 33
L 946 33
L 946 33
L 946 33
L 946 33
L 946 33
L 946 33
L 946 33
L 946 33
L 946 33
L 946 33
L 946 33
L 946 33
L 946 33
L 946 33
L 946 33
L 946 33
L 946 33
L 946 33
L 946 33
L 946 33
L 946 33
L 946 33
L 946 33
L 946 33
L 946 33
L 946 33
L 946 33
L 946 32
L 946 32
L 946 32
L 946 32
L 946 32
L 946 32
L 946 32
L 946 32
L 946 32
L 946 32
L 946 32
L 946 32
L 946 32
L 946 32
L 946 32
L 946 32
L 946 32
L 946 32
L 946 32
L 946 32
L 946 32
L 946 32
L 946 32
L 946 32
L 946 32
L 946 32
L 946 32
L 946 32
L 946 31
L 946 31
L 946 31
L 946 31
L 946 31
L 946 31
L 946 31
L 946 31
L 946 31
L 946 31
L 946 31
L 946 31
L 946 31
L 946 31
L 946 31
L 946 31
L 946 31
L 946 31
L 946 31
L 946 31
L 946 31
L 946 31
L 946 31
L 946 31
L 946 31
L 946 31
L 946 31
L 946 31
L 946 30
L 946 30
L 946 30
L 946 30
L 946 30
L 946 30
L 946 30
L 946 30
L 946 30
L 946 30
L 946 30
L 946 30
L 946 30
L 946 30
L 946 30
L 946 30
L 946 30
L 946 30
L 946 30
L 946 30
L 946 30
L 946 30
L 946 30
L 946 30
L 946 30
L 946 30
L 946 30
L 946 30
L 946 29
L 946 29
L 946 29
L 946 29
L 946 29
L 946 29
L 946 29
L 946 29
L 946 29
L 946 29
L 946 29
L 946 29
L 946 29
L 946 29
L 946 29
L 946 29
L 946 29
L 946 29
L 946 29
L 946 29
L 946 29
L 946 29
L 946 29
L 946 29
L 946 29
L 946 29
L 946 29
L 946 29
L 946 28
L 946 28
L 946 28
L 946 28
L 946 28
L 946 28
L 946 28
L 946 28
L 946 28
L 946 28
L 946 28
L 946 28
L 946 28
L 946 28
L 946 28
L 946 28
L 946 28
L 946 28
L 946 28
L 946 28
L 946 28
L 946 28
L 946 28
L 946 28
L 946 28
L 946 28
L 946 28
L 946 28
L 946 27
L 946 27
L 946 27
L 946 27
L 946 27
L 946 27
L 946 27
L 946 27
L 946 27
L 946 27
L 946 27
L 946 27
L 946 27
L 946 27
L 946 27
L 946 27
L 946 27
L 946 27
L 946 27
L 946 27
L 946 27
L 946 27
L 946 27
L 946 27
L 946 27
L 946 27
L 946 27
L 946 26
L 946 26
L 946 26
L 946 26
L 946 26
L 946 26
L 946 26
L 946 26
L 946 26
L 946 26
L 946 26
L 946 26
L 946 26
L 946 26
L 946 26
L 946 26
L 946 26
L 946 26
L 946 26
L 946 26
L 946 26
L 946 26
L 946 26
L 946 26
L 946 26
L 946 26
L 946 26
L 946 26
L 947 25
L 947 25
L 947 25
L 947 25
L 947 25
L 947 25
L 947 25
L 947 25
L 947 25
L 947 25
L 947 25
L 947 25
L 947 25
L 947 25
L 947 25
L 947 25
L 947 25
L 947 25
L 947 25
L 947 25
L 947 25
L 947 25
L 947 25
L 947 25
L 947 25
L 947 25
L 947 25
L 947 25
L 947 24
L 947 24
L 947 24
L 947 24
L 947 24
L 947 24
L 947 24
L 947 24
L 947 24
L 947 24
L 947 24
L 947 24
L 947 24
L 947 24
L 947 24
L 947 24
L 947 24
L 947 24
L 947 24
L 947 24
L 947 24
L 947 24
L 947 24
L 947 24
L 947 24
L 947 24
L 947 24
L 947 24
L 947 23
L 947 23
L 947 23
L 947 23
L 947 23
L 947 23
L 947 23
L 947 23
L 947 23
L 947 23
L 947 23
L 947 23
L 947 23
L 947 23
L 947 23
L 947 23
L 947 23
L 947 23
L 947 23
L 947 23
L 947 23
L 947 23
L 947 23
L 947 23
L 947 23
L 947 23
L 947 23
L 947 23
L 947 22
L 947 22
L 947 22
L 947 22
L 947 22
L 947 22
L 947 22
L 947 22
L 947 22
L 947 22
L 947 22
L 947 22
L 947 22
L 947 22
L 947 22
L 947 22
L 947 22
L 947 22
L 947 22
L 947 22
L 947 22
L 947 22
L 947 22
L 947 22
L 947 22
L 947 22
L 947 22
L 947 22
L 947 21
L 947 21
L 947 21
L 947 21
L 947 21
L 947 21
L 947 21
L 947 21
L 947 21
L 947 21
L 947 21
L 947 21
L 947 21
L 947 21
L 947 21
L 947 21
L 947 21
L 947 21
L 947 21
L 947 21
L 947 21
L 947 21
L 947 21
L 947 21
L 947 21
L 947 21
L 947 21
L 947 21
L 947 20
L 947 20
L 947 20
L 947 20
L 947 20
L 947 20
L 947 20
L 947 20
L 947 20
L 947 20
L 947 20
L 947 20
L 947 20
L 947 20
L 947 20
L 947 20
L 947 20
L 947 20
L 947 20
L 947 20
L 947 20
L 947 20
L 947 20
L 947 20
L 947 20
L 947 20
L 947 20
L 947 20
L 947 19
L 947 19
L 947 19
L 947 19
L 947 19
L 947 19
L 947 19
L 948 19
L 948 19
L 948 19
L 948 19
L 948 19
L 948 19
L 948 19
L 948 19
L 948 19
L 948 19
L 948 19
L 948 19
L 948 19
L 948 19
L 948 19
L 948 19
L 948 19
L 948 19
L 948 19
L 948 19
L 948 19
L 948 18
L 948 18
L 948 18
L 948 18
L 948 18
L 948 18
L 948 18
L 948 18
L 948 18
L 948 18
L 948 18
L 948 18
L 948 18
L 948 18
L 948 18
L 948 18
L 948 18
L 948 18
L 948 18
L 948 18
L 948 18
L 948 18
L 949 18
L 949 18
L 949 18
L 949 18
L 949 18
L 949 18
L 949 17
L 949 17
L 949 17
L 949 17
L 949 17
L 949 17
L 949 17
L 949 17
L 949 17
L 949 17
L 949 17
L 949 17
L 949 17
L 949 17
L 949 17
L 949 17
L 949 17
L 949 17
L 949 17
L 949 17
L 949 17
L 949 17
L 949 17
L 949 17
L 949 17
L 949 17
L 949 17
L 949 17
L 949 16
L 949 16
L 949 16
L 949 16
L 949 16
L 950 16
L 950 16
L 950 16
L 950 16
L 950 16
L 950 16
L 950 16
L 950 16
L 950 16
L 950 16
L 950 16
L 950 16
L 950 16
L 950 16
L 950 16
L 950 16
L 950 16
L 950 16
L 950 16
L 950 16
L 950 16
L 950 16
L 950 16
L 950 15
L 950 15
L 950 15
L 951 15
L 951 15
L 951 15
L 951 15
L 951 15
L 951 15
L 951 15
L 951 15
L 951 15
L 951 15
L 951 15
L 951 15
L 951 15
L 951 15
L 951 15
L 951 15
L 951 15
L 951 15
L 951 15
L 951 15
L 951 15
L 951 15
L 951 15
L 951 15
L 951 15
L 951 14
L 952 14
L 952 14
L 952 14
L 952 14
L 952 14
L 952 14
L 952 14
L 952 14
L 952 14
L 952 14
L 952 14
L 952 14
L 952 14
L 952 14
L 952 14
L 952 14
L 952 14
L 952 14
L 952 14
L 953 14
L 953 14
L 953 14
L 953 14
L 953 14
L 953 14
L 953 14
L 953 14
L 953 13
L 953 13
L 953 13
L 953 13
L 953 13
L 953 13
L 953 13
L 953 13
L 953 13
L 953 13
L 953 13
L 953 13
L 953 13
L 953 13
L 953 13
L 954 13
L 954 13
L 954 13
L 954 13
L 954 13
L 954 13
L 954 13
L 954 13
L 954 13
L 954 13
L 954 13
L 954 13
L 954 13
L 954 12
L 955 12
L 955 12
L 955 12
L 955 12
L 955 12
L 955 12
L 955 12
L 955 12
L 955 12
L 955 12
L 955 12
L 956 12
L 956 12
L 956 12
L 956 12
L 956 12
L 956 12
L 956 12
L 956 12
L 956 12
L 957 12
L 957 12
L 957 12
L 957 12
L 957 12
L 957 12
L 957 12
L 957 11
L 957 11
L 957 11
L 957 11
L 957 11
L 957 11
L 957 11
L 957 11
L 957 11
L 957 11
L 957 11
L 957 11
L 957 11
L 957 11" style="stroke-width:2;stroke:rgba(129,199,239,1.0);fill:none"/></svg>