<!-- stars: 7453 -->
<svg xmlns="http://www.w3.org/2000/svg" xmlns:xlink="http://www.w3.org/1999/xlink" width="1024" height="400">\n<path  d="M 0 0
L 1024 0
L 1024 400
L 0 400
L 0 0" style="stroke-width:0;stroke:rgba(255,255,255,1.0);fill:rgba(255,255,255,1.0)"/><path  d="M 38 11
L 957 11
L 957 351
L 38 351
L 38 11" style="stroke-width:0;stroke:rgba(255,255,255,1.0);fill:rgba(255,255,255,1.0)"/><path  d="M 38 351
L 957 351" style="stroke-width:2;stroke:rgba(85,85,85,1.0);fill:none"/><path  d="M 38 351
L 38 356" style="stroke-width:2;stroke:rgba(85,85,85,1.0);fill:none"/><text x="5" y="373" style="stroke-width:0;stroke:none;fill:rgba(51,51,51,1.0);font-size:12.8px;font-family:'Roboto Medium',sans-serif">2018-09-25</text><path  d="M 153 351
L 153 356" style="stroke-width:2;stroke:rgba(85,85,85,1.0);fill:none"/><text x="120" y="373" style="stroke-width:0;stroke:none;fill:rgba(51,51,51,1.0);font-size:12.8px;font-family:'Roboto Medium',sans-serif">2019-02-13</text><path  d="M 268 351
L 268 356" style="stroke-width:2;stroke:rgba(85,85,85,1.0);fill:none"/><text x="235" y="373" style="stroke-width:0;stroke:none;fill:rgba(51,51,51,1.0);font-size:12.8px;font-family:'Roboto Medium',sans-serif">2019-07-04</text><path  d="M 383 351
L 383 356" style="stroke-width:2;stroke:rgba(85,85,85,1.0);fill:none"/><text x="350" y="373" style="stroke-width:0;stroke:none;fill:rgba(51,51,51,1.0);font-size:12.8px;font-family:'Roboto Medium',sans-serif">2019-11-21</text><path  d="M 498 351
L 498 356" style="stroke-width:2;stroke:rgba(85,85,85,1.0);fill:none"/><text x="465" y="373" style="stroke-width:0;stroke:none;fill:rgba(51,51,51,1.0);font-size:12.8px;font-family:'Roboto Medium',sans-serif">2020-04-10</text><path  d="M 613 351
L 613 356" style="stroke-width:2;stroke:rgba(85,85,85,1.0);fill:none"/><text x="580" y="373" style="stroke-width:0;stroke:none;fill:rgba(51,51,51,1.0);font-size:12.8px;font-family:'Roboto Medium',sans-serif">2020-08-29</text><path  d="M 728 351
L 728 356" style="stroke-width:2;stroke:rgba(85,85,85,1.0);fill:none"/><text x="695" y="373" style="stroke-width:0;stroke:none;fill:rgba(51,51,51,1.0);font-size:12.8px;font-family:'Roboto Medium',sans-serif">2021-01-17</text><path  d="M 843 351
L 843 356" style="stroke-width:2;stroke:rgba(85,85,85,1.0);fill:none"/><text x="810" y="373" style="stroke-width:0;stroke:none;fill:rgba(51,51,51,1.0);font-size:12.8px;font-family:'Roboto Medium',sans-serif">2021-06-07</text><path  d="M 957 351
L 957 356" style="stroke-width:2;stroke:rgba(85,85,85,1.0);fill:none"/><text x="924" y="373" style="stroke-width:0;stroke:none;fill:rgba(51,51,51,1.0);font-size:12.8px;font-family:'Roboto Medium',sans-serif">2021-10-26</text><text x="483" y="395" style="stroke-width:0;stroke:none;fill:rgba(51,51,51,1.0);font-size:12.8px;font-family:'Roboto Medium',sans-serif">Time</text><path  d="M 959 351
L 959 11" style="stroke-width:2;stroke:rgba(85,85,85,1.0);fill:none"/><path  d="M 959 351
L 964 351" style="stroke-width:2;stroke:rgba(85,85,85,1.0);fill:none"/><text x="969" y="357" style="stroke-width:0;stroke:none;fill:rgba(51,51,51,1.0);font-size:12.8px;font-family:'Roboto Medium',sans-serif">0</text><path  d="M 959 308
L 964 308" style="stroke-width:2;stroke:rgba(85,85,85,1.0);fill:none"/><text x="969" y="314" style="stroke-width:0;stroke:none;fill:rgba(51,51,51,1.0);font-size:12.8px;font-family:'Roboto Medium',sans-serif">940</text><path  d="M 959 265
L 964 265" style="stroke-width:2;stroke:rgba(85,85,85,1.0);fill:none"/><text x="969" y="271" style="stroke-width:0;stroke:none;fill:rgba(51,51,51,1.0);font-size:12.8px;font-family:'Roboto Medium',sans-serif">1880</text><path  d="M 959 223
L 964 223" style="stroke-width:2;stroke:rgba(85,85,85,1.0);fill:none"/><text x="969" y="229" style="stroke-width:0;stroke:none;fill:rgba(51,51,51,1.0);font-size:12.8px;font-family:'Roboto Medium',sans-serif">2820</text><path  d="M 959 181
L 964 181" style="stroke-width:2;stroke:rgba(85,85,85,1.0);fill:none"/><text x="969" y="187" style="stroke-width:0;stroke:none;fill:rgba(51,51,51,1.0);font-size:12.8px;font-family:'Roboto Medium',sans-serif">3750</text><path  d="M 959 138
L 964 138" style="stroke-width:2;stroke:rgba(85,85,85,1.0);fill:none"/><text x="969" y="144" style="stroke-width:0;stroke:none;fill:rgba(51,51,51,1.0);font-size:12.8px;font-family:'Roboto Medium',sans-serif">4690</text><path  d="M 959 95
L 964 95" style="stroke-width:2;stroke:rgba(85,85,85,1.0);fill:none"/><text x="969" y="101" style="stroke-width:0;stroke:none;fill:rgba(51,51,51,1.0);font-size:12.8px;font-family:'Roboto Medium',sans-serif">5630</text><path  d="M 959 53
L 964 53" style="stroke-width:2;stroke:rgba(85,85,85,1.0);fill:none"/><text x="969" y="59" style="stroke-width:0;stroke:none;fill:rgba(51,51,51,1.0);font-size:12.8px;font-family:'Roboto Medium',sans-serif">6570</text><path  d="M 959 11
L 964 11" style="stroke-width:2;stroke:rgba(85,85,85,1.0);fill:none"/><text x="969" y="17" style="stroke-width:0;stroke:none;fill:rgba(51,51,51,1.0);font-size:12.8px;font-family:'Roboto Medium',sans-serif">7500</text><text x="1009" y="150" style="stroke-width:0;stroke:none;fill:rgba(51,51,51,1.0);font-size:12.8px;font-family:'Roboto Medium',sans-serif" transform="rotate(90.00,1009,150)">Stargazers</text><path  d="M 38 351
L 40 350
L 51 350
L 51 350
L 51 350
L 52 350
L 52 350
L 54 350
L 55 350
L 56 350
L 58 350
L 58 350
L 59 350
L 59 350
L 59 350
L 59 350
L 62 350
L 68 350
L 68 350
L 70 350
L 71 350
L 71 350
L 73 350
L 74 349
L 75 349
L 75 349
L 80 349
L 84 349
L 90 349
L 90 349
L 96 349
L 96 349
L 96 349
L 96 349
L 96 349
L 96 349
L 96 349
L 97 349
L 97 349
L 97 349
L 98 349
L 99 349
L 101 349
L 101 349
L 101 349
L 102 348
L 102 348
L 102 348
L 103 348
L 104 348
L 105 348
L 106 348
L 106 348
L 108 348
L 110 348
L 111 348
L 111 348
L 112 348
L 113 348
L 113 348
L 113 348
L 114 348
L 114 348
L 114 348
L 114 348
L 115 348
L 115 348
L 115 347
L 115 347
L 115 347
L 116 347
L 116 347
L 116 347
L 118 347
L 118 347
L 118 347
L 119 347
L 119 347
L 120 347
L 121 347
L 121 347
L 123 347
L 123 347
L 123 347
L 123 347
L 123 347
L 124 347
L 125 347
L 125 347
L 126 346
L 126 346
L 126 346
L 127 346
L 128 346
L 130 346
L 130 346
L 130 346
L 131 346
L 131 346
L 132 346
L 135 346
L 137 346
L 137 346
L 137 346
L 138 346
L 138 346
L 145 346
L 149 346
L 153 346
L 153 346
L 154 346
L 154 345
L 155 345
L 156 345
L 156 345
L 158 345
L 158 345
L 158 345
L 159 345
L 159 345
L 159 345
L 159 345
L 160 345
L 160 345
L 161 345
L 163 345
L 163 345
L 166 345
L 166 345
L 169 345
L 169 345
L 170 345
L 171 345
L 172 344
L 172 344
L 172 344
L 172 344
L 174 344
L 174 344
L 175 344
L 176 344
L 177 344
L 178 344
L 180 344
L 180 344
L 181 344
L 182 344
L 182 344
L 182 344
L 183 344
L 184 344
L 187 344
L 188 344
L 188 344
L 188 344
L 189 343
L 189 343
L 189 343
L 189 343
L 190 343
L 190 343
L 190 343
L 192 343
L 192 343
L 192 343
L 192 343
L 193 343
L 193 343
L 193 343
L 193 343
L 193 343
L 193 343
L 193 343
L 193 343
L 193 343
L 194 343
L 194 343
L 194 342
L 194 342
L 194 342
L 195 342
L 197 342
L 197 342
L 198 342
L 198 342
L 199 342
L 199 342
L 199 342
L 199 342
L 200 342
L 200 342
L 200 342
L 200 342
L 201 342
L 202 342
L 204 342
L 204 342
L 204 342
L 206 342
L 207 341
L 209 341
L 210 341
L 210 341
L 211 341
L 211 341
L 211 341
L 211 341
L 211 341
L 212 341
L 213 341
L 213 341
L 214 341
L 215 341
L 215 341
L 215 341
L 216 341
L 216 341
L 216 341
L 217 341
L 217 341
L 218 341
L 219 340
L 220 340
L 220 340
L 221 340
L 223 340
L 223 340
L 223 340
L 224 340
L 224 340
L 224 340
L 225 340
L 228 340
L 229 340
L 232 340
L 233 340
L 234 340
L 236 340
L 237 340
L 237 340
L 237 340
L 239 340
L 244 340
L 244 339
L 244 339
L 245 339
L 245 339
L 245 339
L 246 339
L 246 339
L 246 339
L 246 339
L 252 339
L 255 339
L 256 339
L 256 339
L 256 339
L 256 339
L 256 339
L 256 339
L 256 339
L 256 339
L 257 339
L 258 339
L 258 339
L 260 338
L 261 338
L 261 338
L 263 338
L 263 338
L 264 338
L 265 338
L 265 338
L 266 338
L 266 338
L 267 338
L 267 338
L 267 338
L 267 338
L 267 338
L 268 338
L 268 338
L 268 338
L 269 338
L 269 338
L 269 338
L 269 338
L 270 337
L 270 337
L 271 337
L 271 337
L 271 337
L 272 337
L 273 337
L 274 337
L 275 337
L 275 337
L 276 337
L 277 337
L 277 337
L 278 337
L 278 337
L 281 337
L 282 337
L 283 337
L 284 337
L 286 337
L 287 337
L 288 337
L 290 336
L 290 336
L 290 336
L 291 336
L 295 336
L 299 336
L 300 336
L 301 336
L 303 336
L 304 336
L 306 336
L 308 336
L 311 336
L 311 336
L 311 336
L 312 336
L 315 336
L 320 336
L 320 336
L 320 336
L 321 336
L 321 336
L 332 335
L 332 335
L 333 335
L 334 335
L 334 335
L 334 335
L 334 335
L 334 335
L 334 335
L 334 335
L 334 335
L 335 335
L 335 335
L 335 335
L 337 335
L 340 335
L 340 335
L 340 335
L 346 335
L 347 335
L 348 335
L 349 335
L 349 334
L 350 334
L 351 334
L 352 334
L 352 334
L 353 334
L 353 334
L 354 334
L 354 334
L 355 334
L 357 334
L 358 334
L 358 334
L 359 334
L 363 334
L 375 334
L 376 334
L 379 334
L 382 334
L 382 334
L 384 334
L 386 334
L 387 334
L 387 333
L 387 333
L 388 333
L 388 333
L 389 333
L 392 333
L 392 333
L 395 333
L 396 333
L 400 333
L 400 333
L 400 333
L 406 333
L 408 333
L 409 333
L 410 333
L 410 333
L 411 333
L 411 333
L 411 333
L 411 333
L 412 333
L 412 332
L 412 332
L 412 332
L 414 332
L 415 332
L 419 332
L 420 332
L 422 332
L 425 332
L 425 332
L 426 332
L 427 332
L 427 332
L 428 332
L 429 332
L 431 332
L 431 332
L 436 332
L 436 332
L 438 332
L 438 332
L 440 332
L 442 331
L 444 331
L 446 331
L 450 331
L 452 331
L 452 331
L 453 331
L 456 331
L 463 331
L 465 331
L 467 331
L 468 331
L 469 331
L 469 331
L 470 331
L 471 331
L 471 331
L 471 331
L 473 331
L 473 331
L 473 331
L 474 331
L 474 330
L 474 330
L 475 330
L 476 330
L 477 330
L 477 330
L 478 330
L 479 330
L 479 330
L 479 330
L 479 330
L 479 330
L 479 330
L 479 330
L 480 330
L 480 330
L 480 330
L 480 330
L 480 330
L 482 330
L 482 330
L 484 330
L 484 329
L 485 329
L 485 329
L 485 329
L 486 329
L 486 329
L 487 329
L 487 329
L 487 329
L 488 329
L 488 329
L 488 329
L 489 329
L 489 329
L 489 329
L 489 329
L 491 329
L 492 329
L 494 329
L 494 329
L 494 329
L 494 329
L 494 328
L 495 328
L 495 328
L 496 328
L 496 328
L 496 328
L 497 328
L 497 328
L 497 328
L 497 328
L 497 328
L 497 328
L 497 328
L 497 328
L 497 328
L 497 328
L 497 328
L 498 328
L 498 328
L 498 328
L 498 328
L 499 328
L 499 327
L 499 327
L 500 327
L 500 327
L 500 327
L 501 327
L 502 327
L 502 327
L 503 327
L 503 327
L 503 327
L 504 327
L 506 327
L 506 327
L 506 327
L 506 327
L 506 327
L 506 327
L 506 327
L 506 327
L 506 327
L 506 327
L 506 326
L 506 326
L 506 326
L 506 326
L 506 326
L 506 326
L 506 326
L 506 326
L 506 326
L 506 326
L 506 326
L 506 326
L 506 326
L 506 326
L 506 326
L 507 326
L 507 326
L 507 326
L 507 326
L 507 326
L 507 326
L 507 326
L 508 325
L 508 325
L 508 325
L 508 325
L 508 325
L 509 325
L 509 325
L 509 325
L 510 325
L 510 325
L 510 325
L 511 325
L 511 325
L 512 325
L 512 325
L 512 325
L 512 325
L 512 325
L 513 325
L 513 325
L 513 325
L 513 325
L 513 324
L 514 324
L 515 324
L 515 324
L 516 324
L 516 324
L 517 324
L 518 324
L 519 324
L 519 324
L 519 324
L 519 324
L 520 324
L 520 324
L 520 324
L 520 324
L 520 324
L 520 324
L 521 324
L 522 324
L 522 324
L 523 324
L 523 323
L 523 323
L 524 323
L 524 323
L 525 323
L 525 323
L 525 323
L 525 323
L 526 323
L 526 323
L 526 323
L 527 323
L 527 323
L 527 323
L 527 323
L 527 323
L 528 323
L 529 323
L 529 323
L 530 323
L 531 323
L 531 323
L 531 322
L 532 322
L 532 322
L 532 322
L 533 322
L 533 322
L 533 322
L 534 322
L 534 322
L 535 322
L 535 322
L 535 322
L 536 322
L 536 322
L 536 322
L 536 322
L 536 322
L 536 322
L 537 322
L 537 322
L 537 322
L 537 322
L 537 321
L 537 321
L 537 321
L 538 321
L 538 321
L 539 321
L 539 321
L 541 321
L 541 321
L 541 321
L 541 321
L 542 321
L 542 321
L 542 321
L 542 321
L 544 321
L 544 321
L 544 321
L 544 321
L 544 321
L 544 321
L 544 321
L 544 320
L 544 320
L 544 320
L 544 320
L 544 320
L 544 320
L 545 320
L 545 320
L 545 320
L 545 320
L 545 320
L 545 320
L 545 320
L 545 320
L 546 320
L 546 320
L 546 320
L 546 320
L 546 320
L 547 320
L 548 320
L 549 320
L 549 319
L 549 319
L 550 319
L 550 319
L 550 319
L 550 319
L 551 319
L 551 319
L 551 319
L 551 319
L 551 319
L 551 319
L 551 319
L 551 319
L 552 319
L 552 319
L 552 319
L 552 319
L 552 319
L 552 319
L 552 319
L 552 319
L 552 318
L 552 318
L 553 318
L 553 318
L 553 318
L 553 318
L 553 318
L 553 318
L 554 318
L 554 318
L 554 318
L 554 318
L 554 318
L 555 318
L 555 318
L 555 318
L 555 318
L 555 318
L 555 318
L 556 318
L 556 318
L 556 318
L 557 317
L 557 317
L 557 317
L 558 317
L 558 317
L 559 317
L 559 317
L 559 317
L 561 317
L 561 317
L 561 317
L 561 317
L 561 317
L 561 317
L 562 317
L 562 317
L 562 317
L 563 317
L 563 317
L 563 317
L 563 317
L 563 317
L 564 317
L 564 316
L 564 316
L 564 316
L 564 316
L 565 316
L 565 316
L 565 316
L 565 316
L 566 316
L 566 316
L 566 316
L 566 316
L 567 316
L 567 316
L 567 316
L 568 316
L 568 316
L 568 316
L 569 316
L 569 316
L 569 316
L 570 316
L 571 315
L 571 315
L 571 315
L 572 315
L 572 315
L 572 315
L 573 315
L 573 315
L 574 315
L 575 315
L 575 315
L 575 315
L 576 315
L 576 315
L 576 315
L 576 315
L 576 315
L 577 315
L 577 315
L 577 315
L 577 315
L 577 315
L 578 314
L 578 314
L 578 314
L 578 314
L 579 314
L 579 314
L 579 314
L 579 314
L 580 314
L 580 314
L 580 314
L 580 314
L 580 314
L 580 314
L 580 314
L 581 314
L 581 314
L 581 314
L 581 314
L 582 314
L 582 314
L 583 314
L 583 313
L 583 313
L 584 313
L 584 313
L 584 313
L 585 313
L 585 313
L 585 313
L 585 313
L 586 313
L 586 313
L 586 313
L 586 313
L 586 313
L 586 313
L 586 313
L 586 313
L 587 313
L 587 313
L 587 313
L 587 313
L 587 313
L 587 312
L 587 312
L 588 312
L 588 312
L 588 312
L 588 312
L 588 312
L 589 312
L 589 312
L 589 312
L 589 312
L 589 312
L 589 312
L 590 312
L 590 312
L 590 312
L 591 312
L 591 312
L 591 312
L 591 312
L 591 312
L 593 312
L 593 311
L 593 311
L 593 311
L 594 311
L 594 311
L 594 311
L 594 311
L 594 311
L 594 311
L 594 311
L 595 311
L 596 311
L 596 311
L 597 311
L 597 311
L 597 311
L 597 311
L 597 311
L 598 311
L 598 311
L 598 311
L 598 311
L 598 310
L 599 310
L 599 310
L 599 310
L 599 310
L 599 310
L 599 310
L 600 310
L 600 310
L 600 310
L 600 310
L 600 310
L 602 310
L 602 310
L 602 310
L 603 310
L 603 310
L 603 310
L 603 310
L 603 310
L 603 310
L 604 310
L 604 309
L 604 309
L 605 309
L 605 309
L 605 309
L 605 309
L 605 309
L 606 309
L 606 309
L 606 309
L 607 309
L 607 309
L 608 309
L 608 309
L 609 309
L 609 309
L 610 309
L 611 309
L 611 309
L 613 309
L 613 309
L 614 309
L 614 308
L 614 308
L 615 308
L 616 308
L 616 308
L 616 308
L 616 308
L 617 308
L 617 308
L 617 308
L 618 308
L 618 308
L 618 308
L 619 308
L 619 308
L 620 308
L 620 308
L 620 308
L 620 308
L 621 308
L 621 308
L 622 308
L 622 307
L 622 307
L 622 307
L 622 307
L 622 307
L 622 307
L 622 307
L 623 307
L 623 307
L 623 307
L 623 307
L 623 307
L 623 307
L 624 307
L 624 307
L 624 307
L 624 307
L 625 307
L 625 307
L 625 307
L 626 307
L 626 307
L 626 306
L 628 306
L 628 306
L 628 306
L 629 306
L 629 306
L 630 306
L 631 306
L 632 306
L 632 306
L 632 306
L 633 306
L 633 306
L 633 306
L 633 306
L 634 306
L 636 306
L 636 306
L 636 306
L 636 306
L 636 306
L 636 306
L 637 305
L 637 305
L 637 305
L 638 305
L 638 305
L 638 305
L 638 305
L 638 305
L 638 305
L 639 305
L 639 305
L 640 305
L 642 305
L 643 305
L 643 305
L 645 305
L 645 305
L 645 305
L 646 305
L 646 305
L 646 305
L 647 305
L 648 304
L 648 304
L 648 304
L 648 304
L 648 304
L 648 304
L 648 304
L 649 304
L 649 304
L 649 304
L 649 304
L 649 304
L 649 304
L 649 304
L 649 304
L 650 304
L 650 304
L 650 304
L 650 304
L 651 304
L 651 304
L 651 304
L 651 303
L 651 303
L 651 303
L 651 303
L 652 303
L 652 303
L 652 303
L 652 303
L 652 303
L 654 303
L 654 303
L 654 303
L 654 303
L 655 303
L 655 303
L 655 303
L 655 303
L 656 303
L 656 303
L 656 303
L 656 303
L 657 303
L 657 302
L 657 302
L 657 302
L 657 302
L 657 302
L 658 302
L 659 302
L 659 302
L 660 302
L 660 302
L 660 302
L 660 302
L 660 302
L 660 302
L 660 302
L 660 302
L 660 302
L 660 302
L 660 302
L 661 302
L 661 302
L 661 302
L 661 301
L 661 301
L 661 301
L 661 301
L 661 301
L 661 301
L 661 301
L 661 301
L 662 301
L 662 301
L 662 301
L 662 301
L 662 301
L 662 301
L 662 301
L 662 301
L 662 301
L 663 301
L 663 301
L 663 301
L 663 301
L 663 301
L 663 300
L 663 300
L 663 300
L 664 300
L 664 300
L 664 300
L 664 300
L 664 300
L 665 300
L 665 300
L 665 300
L 665 300
L 665 300
L 665 300
L 666 300
L 666 300
L 666 300
L 666 300
L 666 300
L 666 300
L 666 300
L 667 300
L 667 300
L 667 299
L 667 299
L 667 299
L 667 299
L 667 299
L 667 299
L 668 299
L 668 299
L 668 299
L 668 299
L 669 299
L 669 299
L 669 299
L 669 299
L 670 299
L 670 299
L 671 299
L 671 299
L 671 299
L 671 299
L 671 299
L 671 299
L 671 298
L 671 298
L 672 298
L 672 298
L 672 298
L 673 298
L 673 298
L 673 298
L 673 298
L 673 298
L 673 298
L 673 298
L 674 298
L 674 298
L 674 298
L 674 298
L 675 298
L 675 298
L 675 298
L 675 298
L 676 298
L 676 298
L 676 297
L 677 297
L 677 297
L 677 297
L 677 297
L 677 297
L 678 297
L 678 297
L 678 297
L 678 297
L 678 297
L 678 297
L 679 297
L 679 297
L 679 297
L 679 297
L 679 297
L 680 297
L 680 297
L 680 297
L 680 297
L 681 297
L 681 296
L 681 296
L 681 296
L 681 296
L 682 296
L 682 296
L 682 296
L 682 296
L 682 296
L 682 296
L 683 296
L 683 296
L 684 296
L 684 296
L 685 296
L 685 296
L 685 296
L 685 296
L 686 296
L 686 296
L 686 296
L 686 296
L 686 295
L 686 295
L 686 295
L 687 295
L 688 295
L 688 295
L 688 295
L 688 295
L 688 295
L 688 295
L 688 295
L 689 295
L 689 295
L 689 295
L 689 295
L 689 295
L 690 295
L 690 295
L 690 295
L 690 295
L 690 295
L 690 295
L 691 294
L 691 294
L 691 294
L 691 294
L 691 294
L 691 294
L 693 294
L 694 294
L 694 294
L 694 294
L 694 294
L 694 294
L 695 294
L 695 294
L 695 294
L 695 294
L 695 294
L 695 294
L 695 294
L 696 294
L 696 294
L 696 294
L 696 293
L 696 293
L 696 293
L 696 293
L 697 293
L 697 293
L 697 293
L 697 293
L 697 293
L 698 293
L 699 293
L 699 293
L 699 293
L 699 293
L 699 293
L 699 293
L 700 293
L 700 293
L 700 293
L 700 293
L 700 293
L 701 293
L 701 292
L 701 292
L 701 292
L 701 292
L 702 292
L 702 292
L 703 292
L 703 292
L 703 292
L 703 292
L 705 292
L 705 292
L 705 292
L 705 292
L 705 292
L 705 292
L 705 292
L 705 292
L 706 292
L 706 292
L 706 292
L 706 292
L 706 291
L 706 291
L 706 291
L 706 291
L 706 291
L 706 291
L 707 291
L 707 291
L 707 291
L 707 291
L 707 291
L 707 291
L 707 291
L 707 291
L 708 291
L 708 291
L 708 291
L 708 291
L 708 291
L 708 291
L 708 291
L 709 291
L 709 290
L 709 290
L 709 290
L 710 290
L 710 290
L 710 290
L 710 290
L 710 290
L 711 290
L 711 290
L 711 290
L 711 290
L 711 290
L 712 290
L 712 290
L 712 290
L 712 290
L 712 290
L 712 290
L 712 290
L 712 290
L 713 290
L 713 289
L 713 289
L 713 289
L 713 289
L 713 289
L 714 289
L 715 289
L 716 289
L 716 289
L 716 289
L 716 289
L 717 289
L 717 289
L 717 289
L 717 289
L 717 289
L 717 289
L 718 289
L 718 289
L 718 289
L 718 289
L 718 289
L 718 288
L 718 288
L 718 288
L 718 288
L 718 288
L 719 288
L 719 288
L 719 288
L 719 288
L 719 288
L 719 288
L 719 288
L 719 288
L 720 288
L 720 288
L 720 288
L 721 288
L 721 288
L 721 288
L 722 288
L 722 288
L 723 288
L 723 287
L 723 287
L 723 287
L 723 287
L 723 287
L 723 287
L 723 287
L 723 287
L 723 287
L 723 287
L 723 287
L 724 287
L 724 287
L 724 287
L 725 287
L 725 287
L 725 287
L 726 287
L 726 287
L 726 287
L 726 287
L 726 287
L 726 286
L 726 286
L 727 286
L 727 286
L 728 286
L 728 286
L 728 286
L 728 286
L 728 286
L 729 286
L 729 286
L 729 286
L 729 286
L 730 286
L 730 286
L 730 286
L 731 286
L 731 286
L 731 286
L 731 286
L 731 286
L 731 286
L 731 285
L 731 285
L 731 285
L 731 285
L 732 285
L 732 285
L 732 285
L 732 285
L 732 285
L 733 285
L 733 285
L 733 285
L 733 285
L 733 285
L 733 285
L 734 285
L 734 285
L 734 285
L 734 285
L 734 285
L 734 285
L 734 285
L 735 284
L 735 284
L 735 284
L 735 284
L 735 284
L 735 284
L 735 284
L 735 284
L 736 284
L 736 284
L 736 284
L 736 284
L 736 284
L 737 284
L 738 284
L 738 284
L 738 284
L 738 284
L 739 284
L 739 284
L 739 284
L 739 284
L 739 283
L 739 283
L 739 283
L 739 283
L 740 283
L 740 283
L 740 283
L 740 283
L 741 283
L 741 283
L 741 283
L 741 283
L 742 283
L 742 283
L 742 283
L 742 283
L 742 283
L 742 283
L 742 283
L 743 283
L 743 283
L 743 283
L 743 283
L 743 282
L 744 282
L 744 282
L 744 282
L 744 282
L 744 282
L 744 282
L 744 282
L 744 282
L 744 282
L 744 282
L 745 282
L 745 282
L 745 282
L 746 282
L 746 282
L 746 282
L 747 282
L 747 282
L 748 282
L 749 282
L 749 282
L 749 281
L 749 281
L 749 281
L 749 281
L 751 281
L 751 281
L 751 281
L 752 281
L 752 281
L 752 281
L 753 281
L 753 281
L 753 281
L 753 281
L 753 281
L 754 281
L 754 281
L 754 281
L 754 281
L 754 281
L 754 281
L 754 281
L 754 280
L 754 280
L 754 280
L 755 280
L 755 280
L 755 280
L 755 280
L 755 280
L 755 280
L 755 280
L 755 280
L 755 280
L 756 280
L 756 280
L 756 280
L 756 280
L 756 280
L 757 280
L 757 280
L 757 280
L 757 280
L 757 280
L 757 279
L 757 279
L 758 279
L 758 279
L 758 279
L 758 279
L 758 279
L 758 279
L 758 279
L 758 279
L 758 279
L 758 279
L 758 279
L 759 279
L 759 279
L 759 279
L 759 279
L 759 279
L 759 279
L 759 279
L 759 279
L 760 279
L 760 278
L 760 278
L 760 278
L 760 278
L 760 278
L 760 278
L 761 278
L 761 278
L 762 278
L 762 278
L 762 278
L 762 278
L 762 278
L 762 278
L 763 278
L 763 278
L 763 278
L 763 278
L 763 278
L 763 278
L 763 278
L 763 278
L 763 277
L 763 277
L 763 277
L 763 277
L 763 277
L 763 277
L 763 277
L 763 277
L 764 277
L 764 277
L 764 277
L 764 277
L 764 277
L 764 277
L 764 277
L 764 277
L 764 277
L 765 277
L 765 277
L 765 277
L 765 277
L 765 277
L 765 276
L 765 276
L 765 276
L 766 276
L 766 276
L 766 276
L 767 276
L 767 276
L 767 276
L 767 276
L 767 276
L 767 276
L 768 276
L 768 276
L 768 276
L 768 276
L 768 276
L 768 276
L 768 276
L 768 276
L 768 276
L 768 276
L 769 275
L 769 275
L 769 275
L 769 275
L 769 275
L 770 275
L 770 275
L 770 275
L 770 275
L 770 275
L 770 275
L 770 275
L 770 275
L 771 275
L 771 275
L 771 275
L 771 275
L 771 275
L 771 275
L 771 275
L 771 275
L 771 275
L 771 274
L 771 274
L 771 274
L 771 274
L 772 274
L 772 274
L 772 274
L 772 274
L 772 274
L 773 274
L 773 274
L 773 274
L 773 274
L 773 274
L 773 274
L 773 274
L 773 274
L 773 274
L 773 274
L 773 274
L 773 274
L 773 274
L 773 273
L 773 273
L 773 273
L 773 273
L 773 273
L 773 273
L 773 273
L 773 273
L 773 273
L 773 273
L 773 273
L 773 273
L 773 273
L 773 273
L 773 273
L 773 273
L 773 273
L 773 273
L 773 273
L 773 273
L 773 273
L 773 273
L 773 272
L 773 272
L 773 272
L 773 272
L 773 272
L 773 272
L 773 272
L 773 272
L 773 272
L 773 272
L 773 272
L 773 272
L 773 272
L 773 272
L 773 272
L 773 272
L 773 272
L 773 272
L 773 272
L 773 272
L 773 272
L 773 272
L 773 271
L 773 271
L 773 271
L 773 271
L 773 271
L 773 271
L 773 271
L 773 271
L 773 271
L 773 271
L 773 271
L 773 271
L 773 271
L 773 271
L 773 271
L 773 271
L 773 271
L 774 271
L 774 271
L 774 271
L 774 271
L 774 271
L 774 270
L 774 270
L 774 270
L 774 270
L 774 270
L 774 270
L 774 270
L 774 270
L 774 270
L 774 270
L 774 270
L 774 270
L 774 270
L 774 270
L 774 270
L 774 270
L 774 270
L 774 270
L 774 270
L 774 270
L 774 270
L 774 270
L 774 269
L 774 269
L 774 269
L 774 269
L 774 269
L 774 269
L 774 269
L 774 269
L 774 269
L 774 269
L 774 269
L 774 269
L 774 269
L 774 269
L 774 269
L 774 269
L 774 269
L 774 269
L 774 269
L 774 269
L 774 269
L 774 269
L 774 268
L 775 268
L 775 268
L 775 268
L 775 268
L 775 268
L 775 268
L 775 268
L 775 268
L 775 268
L 775 268
L 775 268
L 775 268
L 775 268
L 775 268
L 775 268
L 775 268
L 775 268
L 775 268
L 775 268
L 775 268
L 775 268
L 775 267
L 775 267
L 775 267
L 775 267
L 775 267
L 775 267
L 775 267
L 775 267
L 775 267
L 775 267
L 775 267
L 775 267
L 775 267
L 775 267
L 775 267
L 775 267
L 775 267
L 775 267
L 775 267
L 775 267
L 775 267
L 775 267
L 775 266
L 775 266
L 775 266
L 775 266
L 775 266
L 775 266
L 775 266
L 775 266
L 775 266
L 775 266
L 775 266
L 775 266
L 775 266
L 775 266
L 775 266
L 775 266
L 775 266
L 775 266
L 775 266
L 775 266
L 775 266
L 775 266
L 775 266
L 775 265
L 775 265
L 775 265
L 775 265
L 775 265
L 775 265
L 775 265
L 775 265
L 775 265
L 775 265
L 775 265
L 775 265
L 775 265
L 775 265
L 775 265
L 775 265
L 775 265
L 775 265
L 775 265
L 775 265
L 775 265
L 775 265
L 775 264
L 775 264
L 775 264
L 775 264
L 775 264
L 775 264
L 775 264
L 775 264
L 775 264
L 775 264
L 775 264
L 775 264
L 776 264
L 776 264
L 776 264
L 776 264
L 776 264
L 776 264
L 776 264
L 776 264
L 776 264
L 776 264
L 776 263
L 776 263
L 776 263
L 776 263
L 776 263
L 776 263
L 776 263
L 776 263
L 776 263
L 776 263
L 776 263
L 776 263
L 776 263
L 776 263
L 776 263
L 776 263
L 776 263
L 776 263
L 776 263
L 776 263
L 776 263
L 776 263
L 776 262
L 776 262
L 776 262
L 776 262
L 776 262
L 776 262
L 776 262
L 776 262
L 776 262
L 776 262
L 776 262
L 776 262
L 776 262
L 776 262
L 776 262
L 776 262
L 776 262
L 776 262
L 776 262
L 776 262
L 776 262
L 776 262
L 777 261
L 777 261
L 777 261
L 777 261
L 777 261
L 777 261
L 777 261
L 777 261
L 777 261
L 777 261
L 777 261
L 777 261
L 777 261
L 777 261
L 777 261
L 777 261
L 777 261
L 777 261
L 777 261
L 777 261
L 777 261
L 777 261
L 777 260
L 777 260
L 777 260
L 777 260
L 777 260
L 777 260
L 777 260
L 777 260
L 777 260
L 777 260
L 777 260
L 777 260
L 777 260
L 777 260
L 777 260
L 777 260
L 777 260
L 777 260
L 777 260
L 777 260
L 777 260
L 777 260
L 777 259
L 777 259
L 777 259
L 778 259
L 778 259
L 778 259
L 778 259
L 778 259
L 778 259
L 778 259
L 778 259
L 778 259
L 778 259
L 778 259
L 778 259
L 779 259
L 779 259
L 779 259
L 779 259
L 779 259
L 779 259
L 779 259
L 779 258
L 779 258
L 779 258
L 779 258
L 780 258
L 780 258
L 780 258
L 780 258
L 780 258
L 780 258
L 780 258
L 780 258
L 780 258
L 780 258
L 781 258
L 781 258
L 781 258
L 781 258
L 781 258
L 781 258
L 781 258
L 781 258
L 781 257
L 781 257
L 781 257
L 781 257
L 781 257
L 781 257
L 781 257
L 781 257
L 782 257
L 782 257
L 782 257
L 782 257
L 782 257
L 782 257
L 782 257
L 783 257
L 783 257
L 783 257
L 783 257
L 783 257
L 783 257
L 783 257
L 783 256
L 783 256
L 783 256
L 783 256
L 783 256
L 783 256
L 784 256
L 784 256
L 784 256
L 784 256
L 784 256
L 784 256
L 785 256
L 785 256
L 785 256
L 785 256
L 785 256
L 785 256
L 785 256
L 785 256
L 785 256
L 785 256
L 785 255
L 785 255
L 785 255
L 785 255
L 785 255
L 785 255
L 785 255
L 785 255
L 785 255
L 785 255
L 785 255
L 785 255
L 785 255
L 786 255
L 786 255
L 786 255
L 786 255
L 786 255
L 786 255
L 786 255
L 786 255
L 786 255
L 786 254
L 786 254
L 786 254
L 786 254
L 786 254
L 786 254
L 786 254
L 786 254
L 786 254
L 786 254
L 786 254
L 786 254
L 786 254
L 786 254
L 786 254
L 786 254
L 786 254
L 786 254
L 786 254
L 786 254
L 786 254
L 786 254
L 786 253
L 786 253
L 786 253
L 786 253
L 786 253
L 786 253
L 786 253
L 786 253
L 786 253
L 786 253
L 786 253
L 787 253
L 787 253
L 787 253
L 787 253
L 787 253
L 787 253
L 787 253
L 787 253
L 787 253
L 787 253
L 787 253
L 787 252
L 787 252
L 787 252
L 787 252
L 787 252
L 787 252
L 787 252
L 787 252
L 787 252
L 787 252
L 787 252
L 787 252
L 787 252
L 787 252
L 787 252
L 787 252
L 787 252
L 787 252
L 787 252
L 787 252
L 787 252
L 787 252
L 787 251
L 787 251
L 787 251
L 787 251
L 787 251
L 787 251
L 787 251
L 787 251
L 787 251
L 787 251
L 787 251
L 787 251
L 787 251
L 787 251
L 787 251
L 787 251
L 787 251
L 787 251
L 787 251
L 787 251
L 787 251
L 787 251
L 787 250
L 787 250
L 787 250
L 787 250
L 787 250
L 787 250
L 787 250
L 787 250
L 787 250
L 787 250
L 787 250
L 787 250
L 787 250
L 788 250
L 788 250
L 788 250
L 788 250
L 788 250
L 788 250
L 788 250
L 788 250
L 788 250
L 788 249
L 788 249
L 788 249
L 788 249
L 788 249
L 788 249
L 788 249
L 788 249
L 788 249
L 788 249
L 788 249
L 788 249
L 788 249
L 788 249
L 788 249
L 788 249
L 788 249
L 788 249
L 788 249
L 788 249
L 788 249
L 788 249
L 788 249
L 788 248
L 788 248
L 788 248
L 788 248
L 788 248
L 788 248
L 788 248
L 788 248
L 788 248
L 788 248
L 788 248
L 788 248
L 788 248
L 788 248
L 788 248
L 788 248
L 788 248
L 788 248
L 788 248
L 788 248
L 788 248
L 788 248
L 788 247
L 788 247
L 788 247
L 788 247
L 788 247
L 788 247
L 788 247
L 788 247
L 789 247
L 789 247
L 789 247
L 789 247
L 789 247
L 789 247
L 789 247
L 789 247
L 789 247
L 789 247
L 789 247
L 789 247
L 789 247
L 789 247
L 789 246
L 789 246
L 789 246
L 789 246
L 789 246
L 789 246
L 789 246
L 789 246
L 789 246
L 789 246
L 789 246
L 789 246
L 789 246
L 789 246
L 789 246
L 789 246
L 789 246
L 789 246
L 789 246
L 789 246
L 790 246
L 790 246
L 790 245
L 790 245
L 790 245
L 790 245
L 790 245
L 790 245
L 790 245
L 790 245
L 790 245
L 790 245
L 790 245
L 790 245
L 790 245
L 790 245
L 790 245
L 790 245
L 790 245
L 790 245
L 790 245
L 790 245
L 790 245
L 790 245
L 790 244
L 790 244
L 790 244
L 790 244
L 790 244
L 790 244
L 790 244
L 790 244
L 790 244
L 791 244
L 791 244
L 791 244
L 791 244
L 791 244
L 791 244
L 791 244
L 791 244
L 791 244
L 791 244
L 791 244
L 791 244
L 791 244
L 791 243
L 791 243
L 791 243
L 791 243
L 791 243
L 791 243
L 791 243
L 791 243
L 792 243
L 792 243
L 792 243
L 792 243
L 792 243
L 792 243
L 792 243
L 792 243
L 792 243
L 792 243
L 792 243
L 792 243
L 792 243
L 792 243
L 792 242
L 792 242
L 792 242
L 792 242
L 792 242
L 792 242
L 792 242
L 792 242
L 792 242
L 792 242
L 792 242
L 792 242
L 792 242
L 792 242
L 792 242
L 792 242
L 792 242
L 792 242
L 793 242
L 793 242
L 793 242
L 793 242
L 793 241
L 793 241
L 793 241
L 793 241
L 793 241
L 793 241
L 793 241
L 793 241
L 793 241
L 793 241
L 793 241
L 793 241
L 793 241
L 794 241
L 794 241
L 794 241
L 794 241
L 794 241
L 794 241
L 794 241
L 794 241
L 794 241
L 794 240
L 794 240
L 795 240
L 795 240
L 795 240
L 795 240
L 795 240
L 795 240
L 795 240
L 795 240
L 795 240
L 795 240
L 796 240
L 796 240
L 796 240
L 796 240
L 796 240
L 796 240
L 796 240
L 796 240
L 797 240
L 797 240
L 797 239
L 797 239
L 797 239
L 797 239
L 797 239
L 797 239
L 797 239
L 797 239
L 797 239
L 798 239
L 798 239
L 798 239
L 798 239
L 798 239
L 798 239
L 798 239
L 798 239
L 798 239
L 798 239
L 798 239
L 798 239
L 798 239
L 798 238
L 798 238
L 798 238
L 798 238
L 798 238
L 798 238
L 798 238
L 798 238
L 798 238
L 798 238
L 799 238
L 799 238
L 799 238
L 799 238
L 799 238
L 799 238
L 799 238
L 799 238
L 799 238
L 799 238
L 800 238
L 800 238
L 800 237
L 800 237
L 800 237
L 800 237
L 800 237
L 800 237
L 801 237
L 801 237
L 801 237
L 801 237
L 801 237
L 801 237
L 801 237
L 801 237
L 801 237
L 801 237
L 801 237
L 801 237
L 801 237
L 801 237
L 801 237
L 801 237
L 801 236
L 801 236
L 801 236
L 802 236
L 802 236
L 802 236
L 802 236
L 802 236
L 802 236
L 802 236
L 802 236
L 802 236
L 802 236
L 802 236
L 802 236
L 802 236
L 802 236
L 802 236
L 802 236
L 802 236
L 802 236
L 802 236
L 803 235
L 803 235
L 803 235
L 803 235
L 803 235
L 803 235
L 803 235
L 803 235
L 803 235
L 803 235
L 803 235
L 803 235
L 803 235
L 803 235
L 803 235
L 803 235
L 803 235
L 803 235
L 803 235
L 803 235
L 803 235
L 804 235
L 804 234
L 804 234
L 804 234
L 804 234
L 804 234
L 804 234
L 805 234
L 805 234
L 805 234
L 805 234
L 805 234
L 805 234
L 805 234
L 805 234
L 805 234
L 805 234
L 806 234
L 806 234
L 806 234
L 806 234
L 806 234
L 806 234
L 806 233
L 806 233
L 806 233
L 806 233
L 806 233
L 806 233
L 806 233
L 806 233
L 806 233
L 806 233
L 806 233
L 806 233
L 806 233
L 806 233
L 806 233
L 806 233
L 806 233
L 806 233
L 806 233
L 806 233
L 806 233
L 807 233
L 807 232
L 807 232
L 807 232
L 807 232
L 807 232
L 807 232
L 807 232
L 807 232
L 807 232
L 807 232
L 807 232
L 807 232
L 807 232
L 807 232
L 807 232
L 807 232
L 807 232
L 807 232
L 807 232
L 807 232
L 807 232
L 807 232
L 807 232
L 807 231
L 807 231
L 807 231
L 807 231
L 807 231
L 807 231
L 807 231
L 807 231
L 807 231
L 807 231
L 808 231
L 808 231
L 808 231
L 808 231
L 808 231
L 808 231
L 808 231
L 808 231
L 808 231
L 808 231
L 808 231
L 808 231
L 808 230
L 808 230
L 808 230
L 808 230
L 808 230
L 808 230
L 808 230
L 808 230
L 808 230
L 808 230
L 808 230
L 808 230
L 808 230
L 808 230
L 808 230
L 808 230
L 808 230
L 808 230
L 808 230
L 808 230
L 808 230
L 808 230
L 808 229
L 808 229
L 808 229
L 808 229
L 808 229
L 808 229
L 808 229
L 808 229
L 808 229
L 808 229
L 808 229
L 808 229
L 808 229
L 808 229
L 808 229
L 808 229
L 808 229
L 808 229
L 808 229
L 808 229
L 808 229
L 808 229
L 808 228
L 808 228
L 808 228
L 808 228
L 808 228
L 808 228
L 808 228
L 808 228
L 808 228
L 808 228
L 809 228
L 809 228
L 809 228
L 809 228
L 809 228
L 809 228
L 809 228
L 809 228
L 809 228
L 809 228
L 809 228
L 809 228
L 809 227
L 809 227
L 809 227
L 809 227
L 809 227
L 809 227
L 809 227
L 809 227
L 809 227
L 809 227
L 809 227
L 809 227
L 809 227
L 809 227
L 809 227
L 809 227
L 809 227
L 809 227
L 809 227
L 809 227
L 809 227
L 809 227
L 809 226
L 809 226
L 809 226
L 809 226
L 809 226
L 809 226
L 809 226
L 809 226
L 809 226
L 809 226
L 809 226
L 809 226
L 809 226
L 809 226
L 809 226
L 809 226
L 809 226
L 809 226
L 809 226
L 809 226
L 809 226
L 809 226
L 809 225
L 809 225
L 809 225
L 809 225
L 809 225
L 809 225
L 809 225
L 809 225
L 809 225
L 809 225
L 809 225
L 809 225
L 809 225
L 809 225
L 809 225
L 809 225
L 810 225
L 810 225
L 810 225
L 810 225
L 810 225
L 810 225
L 810 224
L 810 224
L 810 224
L 810 224
L 810 224
L 810 224
L 810 224
L 810 224
L 810 224
L 810 224
L 810 224
L 810 224
L 810 224
L 810 224
L 810 224
L 810 224
L 810 224
L 810 224
L 810 224
L 810 224
L 810 224
L 810 224
L 810 223
L 810 223
L 810 223
L 810 223
L 810 223
L 810 223
L 810 223
L 810 223
L 810 223
L 810 223
L 810 223
L 810 223
L 810 223
L 810 223
L 810 223
L 810 223
L 810 223
L 810 223
L 810 223
L 810 223
L 810 223
L 810 223
L 810 222
L 810 222
L 810 222
L 810 222
L 810 222
L 810 222
L 810 222
L 810 222
L 810 222
L 810 222
L 810 222
L 810 222
L 810 222
L 810 222
L 810 222
L 810 222
L 810 222
L 810 222
L 810 222
L 810 222
L 810 222
L 810 222
L 810 221
L 810 221
L 810 221
L 810 221
L 810 221
L 810 221
L 810 221
L 810 221
L 810 221
L 810 221
L 810 221
L 810 221
L 810 221
L 810 221
L 810 221
L 810 221
L 810 221
L 810 221
L 810 221
L 810 221
L 810 221
L 810 221
L 810 220
L 810 220
L 810 220
L 810 220
L 810 220
L 810 220
L 810 220
L 810 220
L 810 220
L 810 220
L 810 220
L 810 220
L 810 220
L 810 220
L 810 220
L 810 220
L 810 220
L 810 220
L 810 220
L 810 220
L 810 220
L 810 220
L 810 219
L 810 219
L 810 219
L 810 219
L 810 219
L 810 219
L 810 219
L 810 219
L 810 219
L 810 219
L 810 219
L 810 219
L 810 219
L 810 219
L 810 219
L 810 219
L 810 219
L 810 219
L 810 219
L 810 219
L 810 219
L 810 219
L 810 218
L 810 218
L 810 218
L 810 218
L 810 218
L 810 218
L 810 218
L 810 218
L 810 218
L 810 218
L 810 218
L 810 218
L 810 218
L 810 218
L 810 218
L 810 218
L 810 218
L 810 218
L 810 218
L 810 218
L 810 218
L 810 218
L 810 217
L 810 217
L 810 217
L 810 217
L 810 217
L 810 217
L 810 217
L 810 217
L 810 217
L 810 217
L 810 217
L 810 217
L 810 217
L 810 217
L 810 217
L 810 217
L 810 217
L 810 217
L 810 217
L 810 217
L 810 217
L 810 217
L 810 216
L 810 216
L 810 216
L 810 216
L 810 216
L 810 216
L 810 216
L 810 216
L 810 216
L 810 216
L 810 216
L 810 216
L 810 216
L 810 216
L 810 216
L 810 216
L 810 216
L 810 216
L 810 216
L 810 216
L 810 216
L 810 216
L 810 215
L 810 215
L 810 215
L 810 215
L 810 215
L 810 215
L 810 215
L 810 215
L 810 215
L 810 215
L 810 215
L 810 215
L 810 215
L 810 215
L 810 215
L 810 215
L 810 215
L 810 215
L 810 215
L 810 215
L 810 215
L 810 215
L 810 215
L 810 214
L 810 214
L 810 214
L 810 214
L 810 214
L 810 214
L 810 214
L 810 214
L 810 214
L 810 214
L 810 214
L 810 214
L 810 214
L 810 214
L 810 214
L 810 214
L 810 214
L 810 214
L 810 214
L 810 214
L 810 214
L 810 214
L 810 213
L 810 213
L 810 213
L 810 213
L 810 213
L 810 213
L 810 213
L 810 213
L 810 213
L 810 213
L 810 213
L 810 213
L 810 213
L 810 213
L 810 213
L 810 213
L 810 213
L 810 213
L 810 213
L 810 213
L 810 213
L 810 213
L 810 212
L 810 212
L 810 212
L 810 212
L 810 212
L 810 212
L 810 212
L 810 212
L 810 212
L 810 212
L 810 212
L 810 212
L 810 212
L 810 212
L 810 212
L 810 212
L 810 212
L 810 212
L 810 212
L 810 212
L 810 212
L 810 212
L 810 211
L 810 211
L 810 211
L 810 211
L 810 211
L 810 211
L 810 211
L 811 211
L 811 211
L 811 211
L 811 211
L 811 211
L 811 211
L 811 211
L 811 211
L 811 211
L 811 211
L 811 211
L 811 211
L 811 211
L 811 211
L 811 211
L 811 210
L 811 210
L 811 210
L 811 210
L 811 210
L 811 210
L 811 210
L 811 210
L 811 210
L 811 210
L 811 210
L 811 210
L 811 210
L 811 210
L 811 210
L 811 210
L 811 210
L 811 210
L 811 210
L 811 210
L 811 210
L 811 210
L 811 209
L 811 209
L 811 209
L 811 209
L 811 209
L 811 209
L 811 209
L 811 209
L 811 209
L 811 209
L 811 209
L 811 209
L 811 209
L 811 209
L 811 209
L 811 209
L 811 209
L 811 209
L 811 209
L 811 209
L 811 209
L 811 209
L 811 208
L 811 208
L 811 208
L 811 208
L 811 208
L 811 208
L 811 208
L 811 208
L 811 208
L 811 208
L 811 208
L 811 208
L 811 208
L 811 208
L 811 208
L 811 208
L 811 208
L 811 208
L 811 208
L 811 208
L 811 208
L 811 208
L 811 207
L 811 207
L 811 207
L 811 207
L 811 207
L 811 207
L 811 207
L 811 207
L 811 207
L 811 207
L 811 207
L 811 207
L 811 207
L 811 207
L 811 207
L 811 207
L 811 207
L 811 207
L 811 207
L 811 207
L 811 207
L 811 207
L 811 206
L 811 206
L 811 206
L 811 206
L 811 206
L 811 206
L 811 206
L 811 206
L 811 206
L 811 206
L 811 206
L 811 206
L 811 206
L 811 206
L 811 206
L 811 206
L 811 206
L 811 206
L 811 206
L 811 206
L 811 206
L 811 206
L 811 205
L 811 205
L 811 205
L 811 205
L 811 205
L 811 205
L 811 205
L 811 205
L 811 205
L 811 205
L 811 205
L 811 205
L 811 205
L 811 205
L 811 205
L 811 205
L 811 205
L 811 205
L 811 205
L 811 205
L 811 205
L 811 205
L 811 204
L 811 204
L 811 204
L 811 204
L 811 204
L 811 204
L 811 204
L 811 204
L 811 204
L 811 204
L 811 204
L 811 204
L 811 204
L 811 204
L 811 204
L 811 204
L 811 204
L 811 204
L 811 204
L 811 204
L 811 204
L 811 204
L 811 203
L 811 203
L 811 203
L 811 203
L 811 203
L 811 203
L 811 203
L 811 203
L 811 203
L 811 203
L 811 203
L 811 203
L 811 203
L 811 203
L 811 203
L 811 203
L 811 203
L 811 203
L 811 203
L 811 203
L 811 203
L 811 203
L 811 202
L 811 202
L 811 202
L 811 202
L 811 202
L 811 202
L 811 202
L 811 202
L 811 202
L 811 202
L 811 202
L 811 202
L 811 202
L 811 202
L 811 202
L 811 202
L 811 202
L 811 202
L 811 202
L 811 202
L 811 202
L 811 202
L 811 201
L 811 201
L 811 201
L 811 201
L 811 201
L 811 201
L 811 201
L 811 201
L 811 201
L 811 201
L 811 201
L 811 201
L 811 201
L 811 201
L 811 201
L 811 201
L 811 201
L 811 201
L 811 201
L 811 201
L 811 201
L 811 201
L 811 200
L 811 200
L 811 200
L 811 200
L 811 200
L 811 200
L 811 200
L 811 200
L 811 200
L 811 200
L 811 200
L 811 200
L 811 200
L 811 200
L 811 200
L 811 200
L 811 200
L 811 200
L 811 200
L 811 200
L 811 200
L 811 200
L 811 199
L 811 199
L 811 199
L 811 199
L 811 199
L 811 199
L 811 199
L 811 199
L 811 199
L 811 199
L 811 199
L 811 199
L 811 199
L 811 199
L 811 199
L 811 199
L 811 199
L 811 199
L 811 199
L 811 199
L 811 199
L 811 199
L 811 198
L 811 198
L 811 198
L 811 198
L 811 198
L 811 198
L 811 198
L 811 198
L 811 198
L 811 198
L 811 198
L 811 198
L 811 198
L 811 198
L 811 198
L 811 198
L 811 198
L 811 198
L 811 198
L 811 198
L 811 198
L 811 198
L 811 198
L 811 197
L 811 197
L 811 197
L 811 197
L 811 197
L 811 197
L 811 197
L 811 197
L 811 197
L 811 197
L 811 197
L 811 197
L 811 197
L 811 197
L 811 197
L 811 197
L 811 197
L 811 197
L 811 197
L 811 197
L 811 197
L 811 197
L 811 196
L 811 196
L 811 196
L 811 196
L 811 196
L 811 196
L 811 196
L 811 196
L 811 196
L 811 196
L 811 196
L 811 196
L 811 196
L 811 196
L 811 196
L 811 196
L 811 196
L 811 196
L 811 196
L 811 196
L 811 196
L 811 196
L 811 195
L 812 195
L 812 195
L 812 195
L 812 195
L 812 195
L 812 195
L 812 195
L 812 195
L 812 195
L 812 195
L 812 195
L 812 195
L 812 195
L 812 195
L 812 195
L 812 195
L 812 195
L 812 195
L 812 195
L 812 195
L 812 195
L 812 194
L 812 194
L 812 194
L 812 194
L 812 194
L 812 194
L 812 194
L 812 194
L 812 194
L 812 194
L 812 194
L 812 194
L 812 194
L 812 194
L 812 194
L 812 194
L 812 194
L 812 194
L 812 194
L 812 194
L 812 194
L 812 194
L 812 193
L 812 193
L 812 193
L 812 193
L 812 193
L 812 193
L 812 193
L 812 193
L 812 193
L 812 193
L 812 193
L 812 193
L 812 193
L 812 193
L 812 193
L 812 193
L 812 193
L 812 193
L 812 193
L 812 193
L 812 193
L 812 193
L 812 192
L 812 192
L 812 192
L 812 192
L 812 192
L 812 192
L 812 192
L 812 192
L 812 192
L 812 192
L 812 192
L 812 192
L 812 192
L 812 192
L 812 192
L 812 192
L 812 192
L 812 192
L 812 192
L 812 192
L 812 192
L 812 192
L 812 191
L 812 191
L 812 191
L 812 191
L 812 191
L 812 191
L 812 191
L 812 191
L 812 191
L 812 191
L 812 191
L 812 191
L 812 191
L 812 191
L 812 191
L 812 191
L 812 191
L 812 191
L 812 191
L 812 191
L 812 191
L 812 191
L 812 190
L 812 190
L 812 190
L 812 190
L 812 190
L 812 190
L 812 190
L 812 190
L 812 190
L 812 190
L 812 190
L 812 190
L 812 190
L 812 190
L 812 190
L 812 190
L 812 190
L 812 190
L 812 190
L 812 190
L 812 190
L 812 190
L 812 189
L 812 189
L 812 189
L 812 189
L 812 189
L 812 189
L 812 189
L 812 189
L 812 189
L 812 189
L 812 189
L 812 189
L 812 189
L 812 189
L 812 189
L 812 189
L 812 189
L 812 189
L 812 189
L 812 189
L 812 189
L 812 189
L 812 188
L 812 188
L 812 188
L 812 188
L 812 188
L 812 188
L 812 188
L 812 188
L 812 188
L 812 188
L 812 188
L 812 188
L 812 188
L 812 188
L 812 188
L 812 188
L 812 188
L 812 188
L 812 188
L 812 188
L 812 188
L 813 188
L 813 187
L 813 187
L 813 187
L 813 187
L 813 187
L 813 187
L 813 187
L 813 187
L 813 187
L 813 187
L 813 187
L 813 187
L 813 187
L 813 187
L 813 187
L 813 187
L 813 187
L 813 187
L 813 187
L 813 187
L 813 187
L 813 187
L 813 186
L 813 186
L 813 186
L 813 186
L 813 186
L 813 186
L 813 186
L 813 186
L 813 186
L 813 186
L 813 186
L 813 186
L 813 186
L 813 186
L 813 186
L 813 186
L 813 186
L 813 186
L 813 186
L 813 186
L 813 186
L 813 186
L 813 185
L 813 185
L 813 185
L 813 185
L 813 185
L 813 185
L 813 185
L 813 185
L 813 185
L 813 185
L 813 185
L 813 185
L 813 185
L 813 185
L 813 185
L 813 185
L 813 185
L 813 185
L 813 185
L 813 185
L 813 185
L 813 185
L 813 184
L 813 184
L 813 184
L 813 184
L 813 184
L 813 184
L 813 184
L 813 184
L 813 184
L 813 184
L 813 184
L 813 184
L 813 184
L 813 184
L 813 184
L 814 184
L 814 184
L 814 184
L 814 184
L 814 184
L 814 184
L 814 184
L 814 183
L 814 183
L 814 183
L 814 183
L 815 183
L 815 183
L 815 183
L 815 183
L 815 183
L 815 183
L 815 183
L 815 183
L 815 183
L 815 183
L 815 183
L 815 183
L 815 183
L 815 183
L 815 183
L 815 183
L 815 183
L 815 183
L 815 182
L 815 182
L 815 182
L 816 182
L 816 182
L 816 182
L 816 182
L 816 182
L 816 182
L 816 182
L 816 182
L 816 182
L 816 182
L 816 182
L 816 182
L 816 182
L 816 182
L 816 182
L 816 182
L 816 182
L 816 182
L 816 182
L 816 181
L 816 181
L 816 181
L 816 181
L 816 181
L 816 181
L 816 181
L 816 181
L 816 181
L 816 181
L 816 181
L 816 181
L 816 181
L 816 181
L 816 181
L 817 181
L 817 181
L 817 181
L 817 181
L 817 181
L 817 181
L 817 181
L 817 181
L 817 180
L 817 180
L 817 180
L 817 180
L 817 180
L 817 180
L 817 180
L 817 180
L 817 180
L 817 180
L 817 180
L 817 180
L 817 180
L 817 180
L 817 180
L 817 180
L 818 180
L 818 180
L 818 180
L 818 180
L 818 180
L 818 180
L 818 179
L 818 179
L 818 179
L 818 179
L 818 179
L 818 179
L 818 179
L 818 179
L 818 179
L 818 179
L 818 179
L 818 179
L 818 179
L 818 179
L 819 179
L 819 179
L 819 179
L 819 179
L 819 179
L 819 179
L 819 179
L 819 179
L 819 178
L 819 178
L 819 178
L 819 178
L 819 178
L 819 178
L 819 178
L 819 178
L 819 178
L 819 178
L 819 178
L 819 178
L 819 178
L 819 178
L 819 178
L 819 178
L 819 178
L 819 178
L 819 178
L 819 178
L 819 178
L 820 178
L 820 177
L 820 177
L 820 177
L 820 177
L 820 177
L 820 177
L 820 177
L 820 177
L 820 177
L 820 177
L 820 177
L 820 177
L 820 177
L 820 177
L 820 177
L 820 177
L 820 177
L 820 177
L 820 177
L 820 177
L 820 177
L 820 177
L 820 176
L 820 176
L 820 176
L 820 176
L 820 176
L 821 176
L 821 176
L 821 176
L 821 176
L 821 176
L 821 176
L 821 176
L 821 176
L 821 176
L 821 176
L 821 176
L 821 176
L 822 176
L 822 176
L 822 176
L 822 176
L 822 176
L 822 175
L 822 175
L 822 175
L 822 175
L 822 175
L 822 175
L 822 175
L 822 175
L 822 175
L 822 175
L 822 175
L 822 175
L 822 175
L 822 175
L 822 175
L 822 175
L 822 175
L 823 175
L 823 175
L 823 175
L 823 175
L 823 175
L 823 174
L 823 174
L 823 174
L 823 174
L 823 174
L 823 174
L 823 174
L 823 174
L 823 174
L 823 174
L 823 174
L 823 174
L 824 174
L 824 174
L 824 174
L 824 174
L 824 174
L 824 174
L 824 174
L 824 174
L 824 174
L 824 174
L 824 173
L 825 173
L 825 173
L 825 173
L 825 173
L 825 173
L 825 173
L 825 173
L 825 173
L 825 173
L 825 173
L 825 173
L 825 173
L 825 173
L 825 173
L 825 173
L 825 173
L 825 173
L 826 173
L 826 173
L 826 173
L 826 173
L 826 172
L 826 172
L 826 172
L 826 172
L 826 172
L 826 172
L 826 172
L 826 172
L 826 172
L 826 172
L 826 172
L 826 172
L 826 172
L 826 172
L 826 172
L 827 172
L 827 172
L 827 172
L 827 172
L 827 172
L 827 172
L 827 172
L 827 171
L 827 171
L 827 171
L 827 171
L 827 171
L 827 171
L 827 171
L 827 171
L 827 171
L 827 171
L 827 171
L 827 171
L 827 171
L 827 171
L 828 171
L 828 171
L 828 171
L 828 171
L 828 171
L 828 171
L 828 171
L 828 171
L 828 170
L 828 170
L 828 170
L 828 170
L 828 170
L 828 170
L 828 170
L 829 170
L 829 170
L 829 170
L 829 170
L 829 170
L 829 170
L 829 170
L 829 170
L 829 170
L 830 170
L 830 170
L 830 170
L 830 170
L 830 170
L 830 170
L 831 169
L 831 169
L 831 169
L 831 169
L 831 169
L 831 169
L 831 169
L 831 169
L 831 169
L 831 169
L 831 169
L 831 169
L 831 169
L 831 169
L 831 169
L 831 169
L 831 169
L 831 169
L 831 169
L 831 169
L 831 169
L 831 169
L 831 168
L 831 168
L 831 168
L 831 168
L 831 168
L 831 168
L 831 168
L 831 168
L 831 168
L 831 168
L 831 168
L 831 168
L 831 168
L 831 168
L 831 168
L 831 168
L 831 168
L 831 168
L 831 168
L 831 168
L 831 168
L 831 168
L 831 167
L 831 167
L 832 167
L 832 167
L 832 167
L 832 167
L 832 167
L 832 167
L 832 167
L 832 167
L 832 167
L 832 167
L 832 167
L 832 167
L 832 167
L 832 167
L 832 167
L 832 167
L 832 167
L 832 167
L 832 167
L 832 167
L 832 166
L 832 166
L 832 166
L 832 166
L 832 166
L 832 166
L 832 166
L 832 166
L 832 166
L 832 166
L 832 166
L 832 166
L 832 166
L 832 166
L 832 166
L 832 166
L 832 166
L 832 166
L 832 166
L 832 166
L 832 166
L 832 166
L 832 165
L 832 165
L 832 165
L 832 165
L 832 165
L 832 165
L 832 165
L 832 165
L 832 165
L 832 165
L 832 165
L 832 165
L 832 165
L 832 165
L 832 165
L 832 165
L 832 165
L 832 165
L 832 165
L 832 165
L 832 165
L 832 165
L 832 164
L 832 164
L 832 164
L 832 164
L 832 164
L 832 164
L 832 164
L 832 164
L 832 164
L 832 164
L 832 164
L 832 164
L 832 164
L 832 164
L 832 164
L 832 164
L 832 164
L 832 164
L 832 164
L 832 164
L 832 164
L 832 164
L 832 163
L 832 163
L 832 163
L 832 163
L 832 163
L 832 163
L 832 163
L 832 163
L 832 163
L 832 163
L 832 163
L 832 163
L 832 163
L 832 163
L 832 163
L 832 163
L 832 163
L 832 163
L 832 163
L 832 163
L 832 163
L 832 163
L 832 163
L 832 162
L 832 162
L 832 162
L 832 162
L 832 162
L 832 162
L 832 162
L 832 162
L 832 162
L 832 162
L 832 162
L 832 162
L 832 162
L 832 162
L 832 162
L 832 162
L 832 162
L 832 162
L 832 162
L 832 162
L 832 162
L 832 162
L 832 161
L 832 161
L 832 161
L 832 161
L 832 161
L 832 161
L 832 161
L 832 161
L 832 161
L 832 161
L 832 161
L 832 161
L 832 161
L 832 161
L 832 161
L 832 161
L 832 161
L 832 161
L 832 161
L 832 161
L 832 161
L 832 161
L 832 160
L 832 160
L 832 160
L 832 160
L 832 160
L 832 160
L 832 160
L 832 160
L 832 160
L 832 160
L 832 160
L 832 160
L 832 160
L 832 160
L 832 160
L 832 160
L 832 160
L 832 160
L 832 160
L 832 160
L 832 160
L 832 160
L 832 159
L 832 159
L 832 159
L 832 159
L 832 159
L 832 159
L 832 159
L 832 159
L 832 159
L 832 159
L 832 159
L 832 159
L 832 159
L 832 159
L 832 159
L 832 159
L 832 159
L 832 159
L 832 159
L 832 159
L 832 159
L 832 159
L 832 158
L 832 158
L 832 158
L 832 158
L 832 158
L 832 158
L 832 158
L 832 158
L 832 158
L 832 158
L 832 158
L 832 158
L 832 158
L 832 158
L 832 158
L 832 158
L 832 158
L 832 158
L 832 158
L 832 158
L 832 158
L 832 158
L 832 157
L 832 157
L 832 157
L 833 157
L 833 157
L 833 157
L 833 157
L 833 157
L 833 157
L 833 157
L 833 157
L 833 157
L 833 157
L 833 157
L 833 157
L 833 157
L 833 157
L 833 157
L 833 157
L 833 157
L 833 157
L 833 157
L 833 156
L 833 156
L 833 156
L 833 156
L 833 156
L 833 156
L 833 156
L 833 156
L 833 156
L 833 156
L 833 156
L 833 156
L 833 156
L 833 156
L 833 156
L 833 156
L 833 156
L 833 156
L 833 156
L 833 156
L 833 156
L 833 156
L 833 155
L 833 155
L 833 155
L 833 155
L 833 155
L 833 155
L 833 155
L 833 155
L 833 155
L 833 155
L 833 155
L 833 155
L 833 155
L 833 155
L 833 155
L 833 155
L 833 155
L 833 155
L 833 155
L 833 155
L 833 155
L 833 155
L 833 154
L 833 154
L 833 154
L 833 154
L 833 154
L 833 154
L 833 154
L 833 154
L 833 154
L 833 154
L 833 154
L 833 154
L 833 154
L 833 154
L 833 154
L 833 154
L 833 154
L 833 154
L 833 154
L 833 154
L 833 154
L 833 154
L 833 153
L 833 153
L 833 153
L 833 153
L 833 153
L 833 153
L 833 153
L 833 153
L 833 153
L 833 153
L 833 153
L 833 153
L 833 153
L 833 153
L 833 153
L 833 153
L 833 153
L 833 153
L 833 153
L 833 153
L 833 153
L 833 153
L 833 152
L 833 152
L 833 152
L 833 152
L 833 152
L 833 152
L 833 152
L 833 152
L 833 152
L 833 152
L 833 152
L 833 152
L 833 152
L 833 152
L 833 152
L 833 152
L 833 152
L 833 152
L 833 152
L 833 152
L 833 152
L 833 152
L 833 151
L 833 151
L 833 151
L 833 151
L 833 151
L 833 151
L 833 151
L 833 151
L 833 151
L 833 151
L 833 151
L 833 151
L 833 151
L 833 151
L 833 151
L 833 151
L 833 151
L 833 151
L 833 151
L 833 151
L 833 151
L 833 151
L 833 150
L 833 150
L 833 150
L 833 150
L 833 150
L 833 150
L 833 150
L 833 150
L 833 150
L 833 150
L 833 150
L 833 150
L 833 150
L 833 150
L 833 150
L 833 150
L 833 150
L 833 150
L 833 150
L 833 150
L 833 150
L 833 150
L 833 149
L 833 149
L 833 149
L 833 149
L 833 149
L 833 149
L 833 149
L 833 149
L 833 149
L 833 149
L 833 149
L 833 149
L 833 149
L 833 149
L 833 149
L 833 149
L 833 149
L 833 149
L 833 149
L 833 149
L 833 149
L 833 149
L 833 148
L 833 148
L 833 148
L 833 148
L 833 148
L 833 148
L 833 148
L 833 148
L 833 148
L 833 148
L 833 148
L 833 148
L 833 148
L 833 148
L 833 148
L 833 148
L 833 148
L 833 148
L 833 148
L 833 148
L 833 148
L 833 148
L 833 147
L 833 147
L 833 147
L 833 147
L 833 147
L 833 147
L 833 147
L 833 147
L 833 147
L 833 147
L 833 147
L 833 147
L 833 147
L 833 147
L 833 147
L 833 147
L 833 147
L 833 147
L 833 147
L 833 147
L 833 147
L 833 147
L 833 147
L 833 146
L 833 146
L 833 146
L 833 146
L 833 146
L 833 146
L 833 146
L 833 146
L 833 146
L 833 146
L 833 146
L 833 146
L 833 146
L 833 146
L 833 146
L 833 146
L 833 146
L 833 146
L 833 146
L 833 146
L 833 146
L 833 146
L 833 145
L 833 145
L 833 145
L 833 145
L 833 145
L 833 145
L 833 145
L 833 145
L 833 145
L 833 145
L 833 145
L 833 145
L 833 145
L 833 145
L 833 145
L 833 145
L 833 145
L 833 145
L 833 145
L 833 145
L 833 145
L 833 145
L 833 144
L 833 144
L 833 144
L 833 144
L 833 144
L 833 144
L 833 144
L 833 144
L 833 144
L 833 144
L 833 144
L 833 144
L 833 144
L 833 144
L 833 144
L 833 144
L 833 144
L 833 144
L 833 144
L 833 144
L 833 144
L 833 144
L 833 143
L 833 143
L 833 143
L 833 143
L 833 143
L 833 143
L 833 143
L 833 143
L 833 143
L 833 143
L 833 143
L 833 143
L 833 143
L 833 143
L 833 143
L 833 143
L 833 143
L 833 143
L 833 143
L 833 143
L 833 143
L 833 143
L 833 142
L 833 142
L 833 142
L 833 142
L 833 142
L 833 142
L 833 142
L 833 142
L 833 142
L 833 142
L 833 142
L 833 142
L 833 142
L 833 142
L 833 142
L 833 142
L 833 142
L 833 142
L 833 142
L 833 142
L 833 142
L 833 142
L 833 141
L 833 141
L 833 141
L 833 141
L 833 141
L 834 141
L 834 141
L 834 141
L 834 141
L 834 141
L 834 141
L 834 141
L 834 141
L 834 141
L 834 141
L 834 141
L 834 141
L 834 141
L 834 141
L 834 141
L 834 141
L 834 141
L 834 140
L 834 140
L 834 140
L 834 140
L 834 140
L 834 140
L 834 140
L 834 140
L 834 140
L 834 140
L 834 140
L 834 140
L 834 140
L 834 140
L 834 140
L 834 140
L 834 140
L 834 140
L 834 140
L 834 140
L 834 140
L 834 140
L 834 139
L 834 139
L 834 139
L 834 139
L 834 139
L 834 139
L 834 139
L 834 139
L 834 139
L 834 139
L 834 139
L 834 139
L 834 139
L 834 139
L 834 139
L 834 139
L 834 139
L 834 139
L 834 139
L 834 139
L 834 139
L 834 139
L 834 138
L 834 138
L 834 138
L 834 138
L 834 138
L 834 138
L 834 138
L 834 138
L 834 138
L 834 138
L 834 138
L 834 138
L 834 138
L 834 138
L 834 138
L 834 138
L 834 138
L 834 138
L 834 138
L 834 138
L 834 138
L 834 138
L 834 137
L 834 137
L 834 137
L 834 137
L 834 137
L 834 137
L 834 137
L 834 137
L 834 137
L 834 137
L 834 137
L 834 137
L 834 137
L 834 137
L 834 137
L 834 137
L 834 137
L 834 137
L 834 137
L 834 137
L 834 137
L 834 137
L 834 136
L 834 136
L 834 136
L 834 136
L 834 136
L 834 136
L 834 136
L 834 136
L 834 136
L 834 136
L 834 136
L 834 136
L 834 136
L 834 136
L 834 136
L 834 136
L 834 136
L 834 136
L 834 136
L 834 136
L 834 136
L 834 136
L 834 135
L 834 135
L 834 135
L 834 135
L 834 135
L 834 135
L 834 135
L 834 135
L 834 135
L 834 135
L 834 135
L 834 135
L 834 135
L 834 135
L 834 135
L 834 135
L 834 135
L 834 135
L 834 135
L 834 135
L 834 135
L 834 135
L 834 134
L 834 134
L 834 134
L 834 134
L 834 134
L 834 134
L 834 134
L 834 134
L 834 134
L 834 134
L 834 134
L 834 134
L 834 134
L 834 134
L 834 134
L 834 134
L 834 134
L 834 134
L 834 134
L 834 134
L 834 134
L 834 134
L 834 133
L 834 133
L 834 133
L 834 133
L 834 133
L 834 133
L 834 133
L 834 133
L 834 133
L 834 133
L 834 133
L 834 133
L 834 133
L 834 133
L 834 133
L 834 133
L 834 133
L 834 133
L 834 133
L 834 133
L 834 133
L 834 133
L 834 132
L 834 132
L 834 132
L 834 132
L 834 132
L 834 132
L 834 132
L 834 132
L 834 132
L 834 132
L 834 132
L 834 132
L 834 132
L 834 132
L 834 132
L 834 132
L 834 132
L 834 132
L 834 132
L 834 132
L 834 132
L 834 132
L 834 131
L 834 131
L 834 131
L 834 131
L 834 131
L 834 131
L 834 131
L 834 131
L 834 131
L 834 131
L 834 131
L 834 131
L 834 131
L 834 131
L 834 131
L 834 131
L 834 131
L 834 131
L 834 131
L 834 131
L 834 131
L 834 131
L 834 130
L 834 130
L 834 130
L 834 130
L 834 130
L 834 130
L 834 130
L 834 130
L 834 130
L 834 130
L 834 130
L 834 130
L 834 130
L 834 130
L 834 130
L 834 130
L 834 130
L 834 130
L 834 130
L 834 130
L 834 130
L 834 130
L 834 130
L 834 129
L 834 129
L 834 129
L 834 129
L 834 129
L 834 129
L 834 129
L 834 129
L 834 129
L 834 129
L 834 129
L 834 129
L 834 129
L 834 129
L 834 129
L 834 129
L 834 129
L 834 129
L 834 129
L 834 129
L 834 129
L 834 129
L 834 128
L 834 128
L 834 128
L 834 128
L 834 128
L 834 128
L 834 128
L 834 128
L 834 128
L 834 128
L 834 128
L 834 128
L 834 128
L 834 128
L 834 128
L 834 128
L 834 128
L 834 128
L 834 128
L 834 128
L 834 128
L 834 128
L 834 127
L 834 127
L 834 127
L 834 127
L 834 127
L 834 127
L 834 127
L 834 127
L 834 127
L 834 127
L 834 127
L 834 127
L 834 127
L 834 127
L 834 127
L 834 127
L 834 127
L 834 127
L 834 127
L 834 127
L 834 127
L 834 127
L 834 126
L 835 126
L 835 126
L 835 126
L 835 126
L 835 126
L 835 126
L 835 126
L 835 126
L 835 126
L 835 126
L 835 126
L 835 126
L 835 126
L 835 126
L 835 126
L 835 126
L 835 126
L 835 126
L 835 126
L 835 126
L 835 126
L 835 125
L 835 125
L 835 125
L 835 125
L 835 125
L 835 125
L 835 125
L 835 125
L 835 125
L 835 125
L 835 125
L 835 125
L 835 125
L 835 125
L 835 125
L 835 125
L 835 125
L 835 125
L 835 125
L 835 125
L 835 125
L 835 125
L 835 124
L 835 124
L 835 124
L 835 124
L 835 124
L 835 124
L 835 124
L 835 124
L 835 124
L 835 124
L 835 124
L 835 124
L 835 124
L 835 124
L 835 124
L 835 124
L 835 124
L 835 124
L 835 124
L 835 124
L 835 124
L 835 124
L 835 123
L 835 123
L 835 123
L 835 123
L 835 123
L 835 123
L 835 123
L 835 123
L 835 123
L 835 123
L 835 123
L 835 123
L 835 123
L 835 123
L 835 123
L 835 123
L 835 123
L 835 123
L 835 123
L 835 123
L 835 123
L 835 123
L 835 122
L 835 122
L 835 122
L 835 122
L 835 122
L 835 122
L 835 122
L 835 122
L 835 122
L 835 122
L 835 122
L 835 122
L 835 122
L 835 122
L 835 122
L 835 122
L 835 122
L 835 122
L 835 122
L 835 122
L 835 122
L 835 122
L 835 121
L 835 121
L 835 121
L 835 121
L 835 121
L 835 121
L 835 121
L 835 121
L 835 121
L 835 121
L 835 121
L 835 121
L 835 121
L 835 121
L 835 121
L 835 121
L 835 121
L 835 121
L 835 121
L 835 121
L 835 121
L 835 121
L 835 120
L 835 120
L 835 120
L 835 120
L 835 120
L 835 120
L 835 120
L 835 120
L 835 120
L 835 120
L 835 120
L 835 120
L 835 120
L 835 120
L 835 120
L 835 120
L 835 120
L 835 120
L 835 120
L 835 120
L 835 120
L 835 120
L 835 119
L 835 119
L 835 119
L 835 119
L 835 119
L 835 119
L 835 119
L 835 119
L 835 119
L 835 119
L 835 119
L 835 119
L 835 119
L 835 119
L 835 119
L 835 119
L 835 119
L 835 119
L 835 119
L 835 119
L 835 119
L 835 119
L 835 118
L 835 118
L 835 118
L 835 118
L 835 118
L 835 118
L 835 118
L 835 118
L 835 118
L 835 118
L 835 118
L 836 118
L 836 118
L 836 118
L 836 118
L 836 118
L 836 118
L 836 118
L 836 118
L 836 118
L 836 118
L 836 118
L 836 117
L 836 117
L 836 117
L 836 117
L 836 117
L 836 117
L 836 117
L 836 117
L 836 117
L 836 117
L 836 117
L 836 117
L 836 117
L 836 117
L 836 117
L 836 117
L 836 117
L 836 117
L 836 117
L 836 117
L 836 117
L 836 117
L 836 116
L 836 116
L 836 116
L 836 116
L 836 116
L 836 116
L 836 116
L 836 116
L 836 116
L 836 116
L 836 116
L 836 116
L 836 116
L 836 116
L 836 116
L 836 116
L 836 116
L 836 116
L 836 116
L 836 116
L 836 116
L 836 116
L 836 115
L 836 115
L 836 115
L 836 115
L 836 115
L 836 115
L 836 115
L 836 115
L 836 115
L 836 115
L 836 115
L 836 115
L 836 115
L 836 115
L 836 115
L 836 115
L 836 115
L 836 115
L 836 115
L 836 115
L 836 115
L 836 115
L 836 114
L 836 114
L 836 114
L 836 114
L 836 114
L 836 114
L 836 114
L 836 114
L 836 114
L 836 114
L 836 114
L 836 114
L 836 114
L 836 114
L 836 114
L 837 114
L 837 114
L 837 114
L 837 114
L 837 114
L 837 114
L 837 114
L 837 113
L 837 113
L 837 113
L 837 113
L 837 113
L 837 113
L 837 113
L 837 113
L 837 113
L 837 113
L 837 113
L 837 113
L 837 113
L 837 113
L 837 113
L 837 113
L 837 113
L 837 113
L 837 113
L 837 113
L 837 113
L 837 113
L 837 113
L 837 112
L 837 112
L 837 112
L 837 112
L 837 112
L 837 112
L 837 112
L 837 112
L 837 112
L 837 112
L 837 112
L 837 112
L 837 112
L 837 112
L 837 112
L 837 112
L 837 112
L 837 112
L 837 112
L 837 112
L 837 112
L 837 112
L 837 111
L 837 111
L 837 111
L 837 111
L 837 111
L 837 111
L 837 111
L 837 111
L 837 111
L 837 111
L 837 111
L 837 111
L 837 111
L 837 111
L 837 111
L 837 111
L 837 111
L 837 111
L 837 111
L 837 111
L 837 111
L 837 111
L 837 110
L 837 110
L 837 110
L 837 110
L 837 110
L 837 110
L 838 110
L 838 110
L 838 110
L 838 110
L 838 110
L 838 110
L 838 110
L 838 110
L 838 110
L 838 110
L 838 110
L 838 110
L 838 110
L 838 110
L 838 110
L 838 110
L 838 109
L 838 109
L 838 109
L 838 109
L 838 109
L 838 109
L 838 109
L 838 109
L 838 109
L 838 109
L 838 109
L 838 109
L 838 109
L 838 109
L 838 109
L 838 109
L 838 109
L 838 109
L 838 109
L 838 109
L 838 109
L 838 109
L 838 108
L 838 108
L 838 108
L 838 108
L 838 108
L 838 108
L 838 108
L 838 108
L 838 108
L 838 108
L 838 108
L 838 108
L 838 108
L 838 108
L 838 108
L 838 108
L 838 108
L 838 108
L 838 108
L 838 108
L 838 108
L 838 108
L 838 107
L 838 107
L 838 107
L 838 107
L 838 107
L 838 107
L 839 107
L 839 107
L 839 107
L 839 107
L 839 107
L 839 107
L 839 107
L 839 107
L 839 107
L 839 107
L 839 107
L 839 107
L 839 107
L 839 107
L 839 107
L 839 107
L 839 106
L 839 106
L 839 106
L 839 106
L 839 106
L 839 106
L 839 106
L 839 106
L 839 106
L 839 106
L 839 106
L 839 106
L 839 106
L 839 106
L 839 106
L 839 106
L 839 106
L 839 106
L 839 106
L 840 106
L 840 106
L 840 106
L 840 105
L 840 105
L 840 105
L 840 105
L 840 105
L 840 105
L 840 105
L 840 105
L 840 105
L 840 105
L 840 105
L 840 105
L 840 105
L 840 105
L 840 105
L 840 105
L 840 105
L 840 105
L 840 105
L 840 105
L 840 105
L 840 105
L 840 104
L 840 104
L 840 104
L 840 104
L 840 104
L 840 104
L 840 104
L 840 104
L 841 104
L 841 104
L 841 104
L 841 104
L 841 104
L 841 104
L 841 104
L 841 104
L 841 104
L 841 104
L 841 104
L 841 104
L 841 104
L 841 104
L 841 103
L 842 103
L 842 103
L 842 103
L 842 103
L 842 103
L 842 103
L 842 103
L 842 103
L 842 103
L 842 103
L 842 103
L 842 103
L 842 103
L 842 103
L 842 103
L 842 103
L 842 103
L 842 103
L 842 103
L 842 103
L 842 103
L 842 102
L 842 102
L 842 102
L 842 102
L 842 102
L 842 102
L 842 102
L 842 102
L 842 102
L 842 102
L 843 102
L 843 102
L 843 102
L 843 102
L 843 102
L 843 102
L 843 102
L 843 102
L 843 102
L 843 102
L 843 102
L 843 102
L 843 101
L 843 101
L 843 101
L 843 101
L 843 101
L 843 101
L 843 101
L 843 101
L 843 101
L 843 101
L 843 101
L 843 101
L 843 101
L 843 101
L 844 101
L 844 101
L 844 101
L 844 101
L 844 101
L 844 101
L 844 101
L 844 101
L 844 100
L 844 100
L 844 100
L 844 100
L 844 100
L 844 100
L 844 100
L 844 100
L 844 100
L 844 100
L 845 100
L 845 100
L 845 100
L 845 100
L 845 100
L 845 100
L 845 100
L 845 100
L 845 100
L 845 100
L 845 100
L 845 100
L 845 99
L 845 99
L 845 99
L 845 99
L 845 99
L 845 99
L 845 99
L 845 99
L 845 99
L 845 99
L 845 99
L 845 99
L 845 99
L 845 99
L 845 99
L 845 99
L 845 99
L 845 99
L 845 99
L 845 99
L 845 99
L 846 99
L 846 98
L 846 98
L 846 98
L 846 98
L 846 98
L 846 98
L 846 98
L 846 98
L 846 98
L 846 98
L 846 98
L 846 98
L 846 98
L 846 98
L 846 98
L 846 98
L 847 98
L 847 98
L 847 98
L 847 98
L 847 98
L 847 98
L 847 97
L 847 97
L 847 97
L 847 97
L 847 97
L 847 97
L 847 97
L 848 97
L 848 97
L 848 97
L 848 97
L 848 97
L 848 97
L 848 97
L 848 97
L 848 97
L 848 97
L 849 97
L 849 97
L 849 97
L 849 97
L 849 97
L 849 96
L 849 96
L 849 96
L 849 96
L 849 96
L 849 96
L 849 96
L 849 96
L 849 96
L 849 96
L 849 96
L 849 96
L 849 96
L 849 96
L 849 96
L 849 96
L 849 96
L 849 96
L 849 96
L 849 96
L 849 96
L 849 96
L 849 96
L 849 95
L 849 95
L 849 95
L 849 95
L 849 95
L 849 95
L 849 95
L 849 95
L 850 95
L 850 95
L 850 95
L 850 95
L 850 95
L 850 95
L 850 95
L 850 95
L 850 95
L 850 95
L 850 95
L 850 95
L 850 95
L 850 95
L 850 94
L 850 94
L 850 94
L 850 94
L 850 94
L 850 94
L 850 94
L 850 94
L 850 94
L 850 94
L 850 94
L 850 94
L 850 94
L 850 94
L 850 94
L 850 94
L 850 94
L 850 94
L 850 94
L 850 94
L 850 94
L 850 94
L 850 93
L 850 93
L 850 93
L 850 93
L 850 93
L 850 93
L 850 93
L 850 93
L 850 93
L 850 93
L 850 93
L 850 93
L 850 93
L 850 93
L 850 93
L 850 93
L 850 93
L 851 93
L 851 93
L 851 93
L 851 93
L 851 93
L 851 92
L 851 92
L 851 92
L 851 92
L 851 92
L 851 92
L 851 92
L 851 92
L 851 92
L 851 92
L 851 92
L 851 92
L 851 92
L 851 92
L 851 92
L 851 92
L 851 92
L 851 92
L 851 92
L 851 92
L 851 92
L 851 92
L 851 91
L 851 91
L 851 91
L 851 91
L 851 91
L 851 91
L 851 91
L 851 91
L 851 91
L 851 91
L 851 91
L 851 91
L 851 91
L 851 91
L 851 91
L 851 91
L 851 91
L 851 91
L 851 91
L 851 91
L 851 91
L 852 91
L 852 90
L 852 90
L 852 90
L 852 90
L 852 90
L 852 90
L 852 90
L 852 90
L 852 90
L 852 90
L 852 90
L 852 90
L 852 90
L 852 90
L 852 90
L 852 90
L 852 90
L 852 90
L 852 90
L 852 90
L 852 90
L 852 90
L 852 89
L 853 89
L 853 89
L 853 89
L 853 89
L 853 89
L 853 89
L 853 89
L 853 89
L 853 89
L 853 89
L 853 89
L 853 89
L 853 89
L 853 89
L 853 89
L 853 89
L 853 89
L 853 89
L 853 89
L 853 89
L 853 89
L 853 88
L 853 88
L 853 88
L 853 88
L 853 88
L 853 88
L 854 88
L 854 88
L 854 88
L 854 88
L 854 88
L 854 88
L 854 88
L 854 88
L 854 88
L 854 88
L 854 88
L 854 88
L 854 88
L 854 88
L 854 88
L 854 88
L 854 87
L 854 87
L 854 87
L 854 87
L 854 87
L 854 87
L 854 87
L 854 87
L 854 87
L 854 87
L 854 87
L 854 87
L 854 87
L 855 87
L 855 87
L 855 87
L 855 87
L 855 87
L 855 87
L 855 87
L 855 87
L 855 87
L 855 86
L 855 86
L 855 86
L 855 86
L 855 86
L 855 86
L 855 86
L 855 86
L 855 86
L 855 86
L 855 86
L 855 86
L 855 86
L 855 86
L 855 86
L 855 86
L 855 86
L 855 86
L 855 86
L 855 86
L 855 86
L 855 86
L 855 85
L 855 85
L 855 85
L 856 85
L 856 85
L 856 85
L 856 85
L 856 85
L 856 85
L 856 85
L 856 85
L 856 85
L 856 85
L 856 85
L 856 85
L 856 85
L 856 85
L 856 85
L 856 85
L 856 85
L 857 85
L 857 85
L 857 84
L 857 84
L 857 84
L 857 84
L 857 84
L 857 84
L 857 84
L 857 84
L 857 84
L 857 84
L 858 84
L 858 84
L 858 84
L 858 84
L 858 84
L 858 84
L 859 84
L 859 84
L 859 84
L 859 84
L 859 84
L 859 84
L 859 83
L 859 83
L 860 83
L 860 83
L 860 83
L 860 83
L 860 83
L 860 83
L 860 83
L 860 83
L 860 83
L 860 83
L 860 83
L 860 83
L 860 83
L 860 83
L 860 83
L 861 83
L 861 83
L 861 83
L 861 83
L 861 83
L 861 82
L 861 82
L 861 82
L 861 82
L 861 82
L 861 82
L 861 82
L 862 82
L 862 82
L 862 82
L 862 82
L 862 82
L 862 82
L 862 82
L 862 82
L 862 82
L 862 82
L 862 82
L 862 82
L 862 82
L 863 82
L 863 82
L 863 81
L 863 81
L 863 81
L 863 81
L 863 81
L 863 81
L 863 81
L 864 81
L 864 81
L 864 81
L 864 81
L 864 81
L 864 81
L 864 81
L 864 81
L 865 81
L 865 81
L 865 81
L 865 81
L 865 81
L 865 81
L 865 81
L 865 80
L 865 80
L 865 80
L 865 80
L 865 80
L 866 80
L 866 80
L 866 80
L 866 80
L 866 80
L 866 80
L 866 80
L 866 80
L 866 80
L 867 80
L 867 80
L 867 80
L 867 80
L 867 80
L 867 80
L 867 80
L 867 80
L 867 79
L 867 79
L 868 79
L 868 79
L 868 79
L 868 79
L 868 79
L 868 79
L 868 79
L 868 79
L 868 79
L 868 79
L 868 79
L 868 79
L 868 79
L 868 79
L 868 79
L 868 79
L 868 79
L 868 79
L 868 79
L 868 79
L 868 79
L 868 78
L 869 78
L 869 78
L 869 78
L 869 78
L 869 78
L 869 78
L 869 78
L 870 78
L 870 78
L 870 78
L 870 78
L 870 78
L 870 78
L 871 78
L 871 78
L 871 78
L 871 78
L 871 78
L 871 78
L 871 78
L 871 78
L 871 77
L 871 77
L 871 77
L 872 77
L 872 77
L 872 77
L 872 77
L 872 77
L 872 77
L 872 77
L 872 77
L 872 77
L 872 77
L 872 77
L 872 77
L 872 77
L 872 77
L 872 77
L 872 77
L 872 77
L 872 77
L 872 77
L 873 76
L 873 76
L 873 76
L 873 76
L 873 76
L 873 76
L 873 76
L 873 76
L 873 76
L 873 76
L 874 76
L 874 76
L 874 76
L 874 76
L 874 76
L 874 76
L 875 76
L 875 76
L 875 76
L 875 76
L 875 76
L 876 76
L 876 75
L 876 75
L 876 75
L 876 75
L 876 75
L 876 75
L 876 75
L 876 75
L 876 75
L 876 75
L 877 75
L 877 75
L 877 75
L 877 75
L 877 75
L 877 75
L 877 75
L 877 75
L 877 75
L 877 75
L 877 75
L 877 75
L 877 74
L 877 74
L 877 74
L 877 74
L 877 74
L 877 74
L 877 74
L 877 74
L 877 74
L 877 74
L 877 74
L 877 74
L 877 74
L 877 74
L 877 74
L 877 74
L 877 74
L 877 74
L 877 74
L 877 74
L 877 74
L 877 74
L 877 73
L 877 73
L 877 73
L 878 73
L 878 73
L 878 73
L 878 73
L 878 73
L 878 73
L 878 73
L 878 73
L 878 73
L 878 73
L 878 73
L 878 73
L 878 73
L 878 73
L 878 73
L 878 73
L 878 73
L 878 73
L 878 73
L 878 72
L 878 72
L 879 72
L 879 72
L 879 72
L 879 72
L 879 72
L 879 72
L 879 72
L 879 72
L 879 72
L 879 72
L 879 72
L 879 72
L 879 72
L 879 72
L 879 72
L 879 72
L 879 72
L 879 72
L 879 72
L 879 72
L 879 71
L 879 71
L 879 71
L 879 71
L 879 71
L 879 71
L 879 71
L 880 71
L 880 71
L 880 71
L 880 71
L 880 71
L 880 71
L 880 71
L 880 71
L 880 71
L 880 71
L 880 71
L 880 71
L 880 71
L 881 71
L 881 71
L 881 70
L 881 70
L 881 70
L 881 70
L 881 70
L 881 70
L 881 70
L 881 70
L 881 70
L 881 70
L 881 70
L 882 70
L 882 70
L 882 70
L 882 70
L 882 70
L 882 70
L 882 70
L 882 70
L 882 70
L 882 70
L 882 70
L 883 69
L 883 69
L 883 69
L 883 69
L 883 69
L 883 69
L 883 69
L 883 69
L 883 69
L 883 69
L 883 69
L 883 69
L 883 69
L 883 69
L 884 69
L 884 69
L 884 69
L 884 69
L 884 69
L 884 69
L 884 69
L 884 69
L 884 68
L 884 68
L 884 68
L 884 68
L 884 68
L 884 68
L 884 68
L 885 68
L 885 68
L 885 68
L 885 68
L 885 68
L 885 68
L 885 68
L 885 68
L 885 68
L 885 68
L 885 68
L 885 68
L 885 68
L 885 68
L 885 68
L 886 67
L 886 67
L 886 67
L 886 67
L 886 67
L 886 67
L 886 67
L 886 67
L 886 67
L 887 67
L 887 67
L 887 67
L 887 67
L 887 67
L 887 67
L 887 67
L 887 67
L 887 67
L 888 67
L 888 67
L 888 67
L 888 67
L 888 66
L 888 66
L 888 66
L 888 66
L 889 66
L 889 66
L 889 66
L 889 66
L 889 66
L 889 66
L 889 66
L 889 66
L 889 66
L 889 66
L 889 66
L 889 66
L 889 66
L 889 66
L 889 66
L 889 66
L 890 66
L 890 66
L 890 65
L 890 65
L 890 65
L 890 65
L 890 65
L 890 65
L 890 65
L 891 65
L 891 65
L 891 65
L 891 65
L 891 65
L 891 65
L 891 65
L 891 65
L 891 65
L 891 65
L 891 65
L 891 65
L 891 65
L 892 65
L 892 65
L 892 64
L 892 64
L 892 64
L 892 64
L 892 64
L 893 64
L 893 64
L 893 64
L 893 64
L 893 64
L 893 64
L 893 64
L 893 64
L 893 64
L 893 64
L 893 64
L 893 64
L 893 64
L 893 64
L 894 64
L 894 64
L 894 64
L 894 63
L 894 63
L 894 63
L 894 63
L 894 63
L 894 63
L 894 63
L 894 63
L 894 63
L 894 63
L 894 63
L 894 63
L 894 63
L 894 63
L 894 63
L 894 63
L 894 63
L 894 63
L 894 63
L 894 63
L 894 63
L 895 63
L 895 62
L 895 62
L 895 62
L 895 62
L 895 62
L 895 62
L 895 62
L 895 62
L 896 62
L 896 62
L 896 62
L 896 62
L 896 62
L 896 62
L 896 62
L 896 62
L 896 62
L 897 62
L 897 62
L 897 62
L 897 62
L 897 62
L 897 62
L 897 61
L 898 61
L 898 61
L 898 61
L 898 61
L 898 61
L 898 61
L 898 61
L 898 61
L 898 61
L 898 61
L 899 61
L 899 61
L 899 61
L 899 61
L 899 61
L 899 61
L 899 61
L 899 61
L 899 61
L 899 61
L 899 61
L 900 60
L 900 60
L 900 60
L 900 60
L 900 60
L 900 60
L 900 60
L 900 60
L 900 60
L 900 60
L 900 60
L 901 60
L 901 60
L 901 60
L 901 60
L 901 60
L 901 60
L 901 60
L 901 60
L 901 60
L 901 60
L 901 60
L 901 59
L 901 59
L 902 59
L 902 59
L 902 59
L 902 59
L 902 59
L 902 59
L 902 59
L 902 59
L 902 59
L 902 59
L 902 59
L 902 59
L 903 59
L 903 59
L 903 59
L 903 59
L 903 59
L 903 59
L 903 59
L 904 59
L 904 58
L 904 58
L 904 58
L 904 58
L 904 58
L 904 58
L 904 58
L 904 58
L 904 58
L 904 58
L 904 58
L 905 58
L 905 58
L 905 58
L 905 58
L 905 58
L 905 58
L 905 58
L 905 58
L 905 58
L 906 58
L 906 58
L 906 57
L 906 57
L 906 57
L 906 57
L 906 57
L 906 57
L 906 57
L 906 57
L 906 57
L 906 57
L 906 57
L 906 57
L 906 57
L 906 57
L 906 57
L 906 57
L 906 57
L 906 57
L 906 57
L 906 57
L 906 57
L 906 57
L 906 56
L 906 56
L 906 56
L 906 56
L 906 56
L 906 56
L 907 56
L 907 56
L 907 56
L 907 56
L 907 56
L 907 56
L 907 56
L 907 56
L 907 56
L 907 56
L 907 56
L 907 56
L 907 56
L 907 56
L 907 56
L 907 56
L 907 55
L 907 55
L 907 55
L 907 55
L 907 55
L 907 55
L 907 55
L 907 55
L 907 55
L 907 55
L 907 55
L 907 55
L 907 55
L 907 55
L 907 55
L 907 55
L 907 55
L 907 55
L 908 55
L 908 55
L 908 55
L 908 55
L 908 54
L 908 54
L 908 54
L 908 54
L 908 54
L 908 54
L 908 54
L 908 54
L 908 54
L 908 54
L 908 54
L 908 54
L 908 54
L 908 54
L 908 54
L 908 54
L 908 54
L 908 54
L 908 54
L 908 54
L 908 54
L 908 54
L 908 53
L 908 53
L 908 53
L 908 53
L 908 53
L 908 53
L 908 53
L 908 53
L 908 53
L 908 53
L 908 53
L 908 53
L 908 53
L 908 53
L 908 53
L 908 53
L 908 53
L 908 53
L 908 53
L 908 53
L 909 53
L 909 53
L 909 52
L 909 52
L 909 52
L 909 52
L 909 52
L 909 52
L 909 52
L 909 52
L 909 52
L 909 52
L 909 52
L 909 52
L 909 52
L 910 52
L 910 52
L 910 52
L 910 52
L 910 52
L 910 52
L 910 52
L 910 52
L 910 52
L 910 51
L 910 51
L 910 51
L 910 51
L 911 51
L 911 51
L 911 51
L 911 51
L 911 51
L 911 51
L 911 51
L 911 51
L 911 51
L 911 51
L 911 51
L 911 51
L 911 51
L 911 51
L 911 51
L 911 51
L 911 51
L 911 51
L 911 50
L 911 50
L 911 50
L 911 50
L 911 50
L 911 50
L 911 50
L 911 50
L 911 50
L 911 50
L 911 50
L 911 50
L 911 50
L 911 50
L 911 50
L 911 50
L 911 50
L 911 50
L 911 50
L 911 50
L 911 50
L 911 50
L 911 49
L 911 49
L 911 49
L 911 49
L 911 49
L 912 49
L 912 49
L 912 49
L 912 49
L 912 49
L 912 49
L 912 49
L 912 49
L 912 49
L 912 49
L 912 49
L 912 49
L 912 49
L 912 49
L 912 49
L 912 49
L 912 49
L 912 48
L 912 48
L 912 48
L 912 48
L 912 48
L 912 48
L 912 48
L 912 48
L 912 48
L 912 48
L 912 48
L 912 48
L 912 48
L 912 48
L 912 48
L 912 48
L 912 48
L 912 48
L 912 48
L 912 48
L 912 48
L 912 48
L 912 47
L 912 47
L 912 47
L 912 47
L 912 47
L 912 47
L 912 47
L 912 47
L 912 47
L 912 47
L 912 47
L 912 47
L 912 47
L 912 47
L 912 47
L 912 47
L 912 47
L 912 47
L 912 47
L 912 47
L 912 47
L 912 47
L 912 46
L 912 46
L 912 46
L 912 46
L 912 46
L 912 46
L 912 46
L 912 46
L 912 46
L 913 46
L 913 46
L 913 46
L 913 46
L 913 46
L 913 46
L 913 46
L 913 46
L 913 46
L 913 46
L 913 46
L 913 46
L 913 46
L 913 45
L 913 45
L 913 45
L 913 45
L 913 45
L 913 45
L 913 45
L 913 45
L 913 45
L 913 45
L 913 45
L 913 45
L 913 45
L 913 45
L 913 45
L 913 45
L 913 45
L 913 45
L 913 45
L 913 45
L 913 45
L 913 45
L 913 45
L 913 44
L 913 44
L 913 44
L 913 44
L 913 44
L 913 44
L 913 44
L 913 44
L 913 44
L 913 44
L 913 44
L 913 44
L 913 44
L 913 44
L 913 44
L 913 44
L 914 44
L 914 44
L 914 44
L 914 44
L 914 44
L 914 44
L 914 43
L 914 43
L 914 43
L 914 43
L 914 43
L 914 43
L 914 43
L 914 43
L 914 43
L 914 43
L 914 43
L 914 43
L 914 43
L 914 43
L 914 43
L 914 43
L 914 43
L 914 43
L 914 43
L 914 43
L 914 43
L 914 43
L 914 42
L 914 42
L 914 42
L 914 42
L 914 42
L 914 42
L 914 42
L 914 42
L 914 42
L 914 42
L 914 42
L 914 42
L 914 42
L 914 42
L 914 42
L 914 42
L 914 42
L 914 42
L 915 42
L 915 42
L 915 42
L 915 42
L 915 41
L 915 41
L 915 41
L 915 41
L 915 41
L 915 41
L 915 41
L 915 41
L 915 41
L 915 41
L 915 41
L 915 41
L 915 41
L 915 41
L 915 41
L 915 41
L 915 41
L 915 41
L 916 41
L 916 41
L 916 41
L 916 41
L 916 40
L 916 40
L 916 40
L 916 40
L 916 40
L 916 40
L 916 40
L 916 40
L 916 40
L 916 40
L 916 40
L 916 40
L 916 40
L 916 40
L 916 40
L 916 40
L 916 40
L 916 40
L 916 40
L 916 40
L 916 40
L 916 40
L 916 39
L 916 39
L 916 39
L 916 39
L 916 39
L 916 39
L 916 39
L 916 39
L 916 39
L 917 39
L 917 39
L 917 39
L 917 39
L 917 39
L 917 39
L 917 39
L 917 39
L 917 39
L 917 39
L 917 39
L 917 39
L 917 39
L 917 38
L 917 38
L 917 38
L 917 38
L 917 38
L 917 38
L 917 38
L 917 38
L 917 38
L 917 38
L 917 38
L 917 38
L 917 38
L 918 38
L 918 38
L 918 38
L 918 38
L 918 38
L 918 38
L 918 38
L 918 38
L 918 38
L 918 37
L 918 37
L 918 37
L 918 37
L 918 37
L 918 37
L 918 37
L 919 37
L 919 37
L 919 37
L 919 37
L 919 37
L 919 37
L 919 37
L 919 37
L 919 37
L 919 37
L 919 37
L 920 37
L 920 37
L 920 37
L 920 37
L 920 36
L 920 36
L 920 36
L 920 36
L 920 36
L 920 36
L 920 36
L 920 36
L 920 36
L 920 36
L 921 36
L 921 36
L 921 36
L 921 36
L 921 36
L 921 36
L 921 36
L 921 36
L 921 36
L 922 36
L 922 36
L 922 36
L 922 35
L 922 35
L 922 35
L 922 35
L 922 35
L 922 35
L 922 35
L 922 35
L 922 35
L 922 35
L 922 35
L 922 35
L 922 35
L 922 35
L 922 35
L 922 35
L 922 35
L 922 35
L 922 35
L 922 35
L 922 35
L 922 35
L 922 34
L 922 34
L 922 34
L 922 34
L 923 34
L 923 34
L 923 34
L 923 34
L 923 34
L 923 34
L 923 34
L 923 34
L 923 34
L 923 34
L 923 34
L 923 34
L 923 34
L 923 34
L 923 34
L 923 34
L 923 34
L 923 34
L 923 33
L 924 33
L 924 33
L 924 33
L 924 33
L 924 33
L 924 33
L 924 33
L 924 33
L 924 33
L 924 33
L 924 33
L 924 33
L 924 33
L 924 33
L 924 33
L 924 33
L 924 33
L 924 33
L 924 33
L 924 33
L 924 33
L 924 32
L 924 32
L 924 32
L 924 32
L 924 32
L 924 32
L 924 32
L 924 32
L 924 32
L 924 32
L 924 32
L 924 32
L 924 32
L 925 32
L 925 32
L 925 32
L 925 32
L 925 32
L 925 32
L 925 32
L 925 32
L 925 32
L 925 31
L 925 31
L 925 31
L 925 31
L 925 31
L 925 31
L 925 31
L 925 31
L 926 31
L 926 31
L 926 31
L 926 31
L 926 31
L 926 31
L 926 31
L 926 31
L 926 31
L 926 31
L 926 31
L 926 31
L 926 31
L 926 31
L 926 30
L 926 30
L 926 30
L 926 30
L 926 30
L 926 30
L 926 30
L 926 30
L 926 30
L 926 30
L 926 30
L 926 30
L 926 30
L 926 30
L 926 30
L 926 30
L 926 30
L 926 30
L 926 30
L 926 30
L 927 30
L 927 30
L 927 29
L 927 29
L 927 29
L 927 29
L 928 29
L 928 29
L 928 29
L 928 29
L 928 29
L 928 29
L 928 29
L 928 29
L 928 29
L 928 29
L 928 29
L 928 29
L 929 29
L 929 29
L 929 29
L 929 29
L 929 29
L 929 29
L 929 28
L 929 28
L 929 28
L 929 28
L 929 28
L 929 28
L 929 28
L 929 28
L 929 28
L 929 28
L 929 28
L 929 28
L 929 28
L 929 28
L 930 28
L 930 28
L 930 28
L 930 28
L 930 28
L 930 28
L 930 28
L 930 28
L 930 28
L 930 27
L 930 27
L 930 27
L 930 27
L 930 27
L 930 27
L 930 27
L 930 27
L 930 27
L 930 27
L 930 27
L 930 27
L 930 27
L 930 27
L 930 27
L 930 27
L 930 27
L 930 27
L 931 27
L 931 27
L 931 27
L 931 27
L 931 26
L 931 26
L 931 26
L 931 26
L 931 26
L 931 26
L 931 26
L 931 26
L 931 26
L 931 26
L 931 26
L 931 26
L 931 26
L 931 26
L 931 26
L 931 26
L 932 26
L 932 26
L 932 26
L 932 26
L 932 26
L 932 26
L 932 25
L 932 25
L 932 25
L 932 25
L 932 25
L 932 25
L 932 25
L 933 25
L 933 25
L 933 25
L 933 25
L 933 25
L 933 25
L 933 25
L 933 25
L 933 25
L 933 25
L 933 25
L 933 25
L 934 25
L 934 25
L 934 25
L 934 24
L 934 24
L 934 24
L 934 24
L 934 24
L 934 24
L 934 24
L 934 24
L 934 24
L 934 24
L 934 24
L 934 24
L 934 24
L 934 24
L 934 24
L 934 24
L 934 24
L 935 24
L 935 24
L 935 24
L 935 24
L 935 24
L 935 23
L 935 23
L 935 23
L 935 23
L 935 23
L 935 23
L 935 23
L 936 23
L 936 23
L 936 23
L 936 23
L 936 23
L 936 23
L 936 23
L 936 23
L 936 23
L 936 23
L 937 23
L 937 23
L 937 23
L 937 23
L 937 23
L 937 22
L 937 22
L 938 22
L 938 22
L 938 22
L 938 22
L 938 22
L 938 22
L 938 22
L 938 22
L 938 22
L 938 22
L 938 22
L 939 22
L 939 22
L 939 22
L 939 22
L 939 22
L 939 22
L 939 22
L 939 22
L 939 22
L 940 21
L 941 21
L 941 21
L 941 21
L 941 21
L 941 21
L 941 21
L 941 21
L 941 21
L 941 21
L 942 21
L 942 21
L 942 21
L 942 21
L 942 21
L 942 21
L 942 21
L 942 21
L 942 21
L 942 21
L 942 21
L 943 21
L 943 20
L 943 20
L 943 20
L 943 20
L 944 20
L 944 20
L 944 20
L 944 20
L 944 20
L 944 20
L 944 20
L 944 20
L 945 20
L 945 20
L 945 20
L 945 20
L 945 20
L 945 20
L 945 20
L 945 20
L 945 20
L 946 20
L 946 19
L 946 19
L 946 19
L 946 19
L 946 19
L 946 19
L 946 19
L 946 19
L 946 19
L 946 19
L 946 19
L 946 19
L 946 19
L 946 19
L 946 19
L 946 19
L 946 19
L 946 19
L 946 19
L 946 19
L 946 19
L 946 19
L 947 18
L 947 18
L 947 18
L 947 18
L 947 18
L 947 18
L 947 18
L 947 18
L 947 18
L 947 18
L 947 18
L 947 18
L 947 18
L 947 18
L 947 18
L 947 18
L 947 18
L 947 18
L 947 18
L 947 18
L 947 18
L 947 18
L 947 17
L 947 17
L 947 17
L 947 17
L 947 17
L 947 17
L 948 17
L 948 17
L 948 17
L 948 17
L 948 17
L 948 17
L 948 17
L 948 17
L 948 17
L 948 17
L 948 17
L 948 17
L 948 17
L 948 17
L 948 17
L 948 17
L 948 16
L 948 16
L 949 16
L 949 16
L 949 16
L 949 16
L 950 16
L 950 16
L 950 16
L 950 16
L 950 16
L 950 16
L 950 16
L 950 16
L 951 16
L 951 16
L 951 16
L 951 16
L 951 16
L 951 16
L 951 16
L 951 16
L 951 15
L 951 15
L 952 15
L 952 15
L 952 15
L 952 15
L 952 15
L 952 15
L 952 15
L 952 15
L 952 15
L 952 15
L 953 15
L 953 15
L 953 15
L 953 15
L 953 15
L 953 15
L 953 15
L 953 15
L 953 15
L 954 15
L 954 14
L 954 14
L 954 14
L 954 14
L 954 14
L 954 14
L 955 14
L 955 14
L 955 14
L 955 14
L 955 14
L 955 14
L 955 14
L 956 14
L 956 14
L 956 14
L 956 14
L 956 14
L 956 14
L 956 14
L 956 14
L 957 14
L 957 13
L 957 13
L 957 13
L 957 13
L 957 13
L 957 13
L 957 13
L 957 13
L 957 13
L 957 13
L 957 13
L 957 13
L 957 13
L 957 13
L 957 13
L 957 13
L 957 13
L 957 13
L 957 13" style="stroke-width:2;stroke:rgba(129,199,239,1.0);fill:none"/></svg>