<!-- stars: 9656 -->
<svg xmlns="http://www.w3.org/2000/svg" xmlns:xlink="http://www.w3.org/1999/xlink" width="1024" height="400">\n<path  d="M 0 0
L 1024 0
L 1024 400
L 0 400
L 0 0" style="stroke-width:0;stroke:rgba(255,255,255,1.0);fill:rgba(255,255,255,1.0)"/><path  d="M 38 11
L 957 11
L 957 351
L 38 351
L 38 11" style="stroke-width:0;stroke:rgba(255,255,255,1.0);fill:rgba(255,255,255,1.0)"/><path  d="M 38 351
L 957 351" style="stroke-width:2;stroke:rgba(85,85,85,1.0);fill:none"/><path  d="M 38 351
L 38 356" style="stroke-width:2;stroke:rgba(85,85,85,1.0);fill:none"/><text x="5" y="373" style="stroke-width:0;stroke:none;fill:rgba(51,51,51,1.0);font-size:12.8px;font-family:'Roboto Medium',sans-serif">2018-09-25</text><path  d="M 153 351
L 153 356" style="stroke-width:2;stroke:rgba(85,85,85,1.0);fill:none"/><text x="120" y="373" style="stroke-width:0;stroke:none;fill:rgba(51,51,51,1.0);font-size:12.8px;font-family:'Roboto Medium',sans-serif">2019-02-22</text><path  d="M 268 351
L 268 356" style="stroke-width:2;stroke:rgba(85,85,85,1.0);fill:none"/><text x="235" y="373" style="stroke-width:0;stroke:none;fill:rgba(51,51,51,1.0);font-size:12.8px;font-family:'Roboto Medium',sans-serif">2019-07-22</text><path  d="M 383 351
L 383 356" style="stroke-width:2;stroke:rgba(85,85,85,1.0);fill:none"/><text x="350" y="373" style="stroke-width:0;stroke:none;fill:rgba(51,51,51,1.0);font-size:12.8px;font-family:'Roboto Medium',sans-serif">2019-12-19</text><path  d="M 498 351
L 498 356" style="stroke-width:2;stroke:rgba(85,85,85,1.0);fill:none"/><text x="465" y="373" style="stroke-width:0;stroke:none;fill:rgba(51,51,51,1.0);font-size:12.8px;font-family:'Roboto Medium',sans-serif">2020-05-17</text><path  d="M 613 351
L 613 356" style="stroke-width:2;stroke:rgba(85,85,85,1.0);fill:none"/><text x="580" y="373" style="stroke-width:0;stroke:none;fill:rgba(51,51,51,1.0);font-size:12.8px;font-family:'Roboto Medium',sans-serif">2020-10-14</text><path  d="M 728 351
L 728 356" style="stroke-width:2;stroke:rgba(85,85,85,1.0);fill:none"/><text x="695" y="373" style="stroke-width:0;stroke:none;fill:rgba(51,51,51,1.0);font-size:12.8px;font-family:'Roboto Medium',sans-serif">2021-03-13</text><path  d="M 843 351
L 843 356" style="stroke-width:2;stroke:rgba(85,85,85,1.0);fill:none"/><text x="810" y="373" style="stroke-width:0;stroke:none;fill:rgba(51,51,51,1.0);font-size:12.8px;font-family:'Roboto Medium',sans-serif">2021-08-10</text><path  d="M 957 351
L 957 356" style="stroke-width:2;stroke:rgba(85,85,85,1.0);fill:none"/><text x="924" y="373" style="stroke-width:0;stroke:none;fill:rgba(51,51,51,1.0);font-size:12.8px;font-family:'Roboto Medium',sans-serif">2022-01-07</text><text x="483" y="395" style="stroke-width:0;stroke:none;fill:rgba(51,51,51,1.0);font-size:12.8px;font-family:'Roboto Medium',sans-serif">Time</text><path  d="M 959 351
L 959 11" style="stroke-width:2;stroke:rgba(85,85,85,1.0);fill:none"/><path  d="M 959 351
L 964 351" style="stroke-width:2;stroke:rgba(85,85,85,1.0);fill:none"/><text x="969" y="357" style="stroke-width:0;stroke:none;fill:rgba(51,51,51,1.0);font-size:12.8px;font-family:'Roboto Medium',sans-serif">0</text><path  d="M 959 308
L 964 308" style="stroke-width:2;stroke:rgba(85,85,85,1.0);fill:none"/><text x="969" y="314" style="stroke-width:0;stroke:none;fill:rgba(51,51,51,1.0);font-size:12.8px;font-family:'Roboto Medium',sans-serif">1220</text><path  d="M 959 265
L 964 265" style="stroke-width:2;stroke:rgba(85,85,85,1.0);fill:none"/><text x="969" y="271" style="stroke-width:0;stroke:none;fill:rgba(51,51,51,1.0);font-size:12.8px;font-family:'Roboto Medium',sans-serif">2430</text><path  d="M 959 223
L 964 223" style="stroke-width:2;stroke:rgba(85,85,85,1.0);fill:none"/><text x="969" y="229" style="stroke-width:0;stroke:none;fill:rgba(51,51,51,1.0);font-size:12.8px;font-family:'Roboto Medium',sans-serif">3640</text><path  d="M 959 181
L 964 181" style="stroke-width:2;stroke:rgba(85,85,85,1.0);fill:none"/><text x="969" y="187" style="stroke-width:0;stroke:none;fill:rgba(51,51,51,1.0);font-size:12.8px;font-family:'Roboto Medium',sans-serif">4850</text><path  d="M 959 138
L 964 138" style="stroke-width:2;stroke:rgba(85,85,85,1.0);fill:none"/><text x="969" y="144" style="stroke-width:0;stroke:none;fill:rgba(51,51,51,1.0);font-size:12.8px;font-family:'Roboto Medium',sans-serif">6070</text><path  d="M 959 95
L 964 95" style="stroke-width:2;stroke:rgba(85,85,85,1.0);fill:none"/><text x="969" y="101" style="stroke-width:0;stroke:none;fill:rgba(51,51,51,1.0);font-size:12.8px;font-family:'Roboto Medium',sans-serif">7280</text><path  d="M 959 53
L 964 53" style="stroke-width:2;stroke:rgba(85,85,85,1.0);fill:none"/><text x="969" y="59" style="stroke-width:0;stroke:none;fill:rgba(51,51,51,1.0);font-size:12.8px;font-family:'Roboto Medium',sans-serif">8490</text><path  d="M 959 11
L 964 11" style="stroke-width:2;stroke:rgba(85,85,85,1.0);fill:none"/><text x="969" y="17" style="stroke-width:0;stroke:none;fill:rgba(51,51,51,1.0);font-size:12.8px;font-family:'Roboto Medium',sans-serif">9700</text><text x="1009" y="150" style="stroke-width:0;stroke:none;fill:rgba(51,51,51,1.0);font-size:12.8px;font-family:'Roboto Medium',sans-serif" transform="rotate(90.00,1009,150)">Stargazers</text><path  d="M 38 351
L 40 350
L 50 350
L 50 350
L 50 350
L 51 350
L 51 350
L 53 350
L 54 350
L 55 350
L 56 350
L 57 350
L 57 350
L 58 350
L 58 350
L 58 350
L 60 350
L 66 350
L 66 350
L 69 350
L 69 350
L 69 350
L 71 350
L 72 350
L 73 350
L 73 350
L 78 350
L 82 350
L 87 350
L 87 349
L 92 349
L 92 349
L 92 349
L 92 349
L 93 349
L 93 349
L 93 349
L 93 349
L 94 349
L 94 349
L 94 349
L 95 349
L 97 349
L 97 349
L 98 349
L 98 349
L 98 349
L 99 349
L 99 349
L 100 349
L 101 349
L 102 349
L 102 349
L 104 349
L 105 349
L 106 349
L 106 349
L 107 349
L 108 348
L 109 348
L 109 348
L 109 348
L 109 348
L 110 348
L 110 348
L 110 348
L 110 348
L 111 348
L 111 348
L 111 348
L 111 348
L 111 348
L 112 348
L 113 348
L 113 348
L 113 348
L 115 348
L 115 348
L 116 348
L 116 348
L 118 348
L 118 348
L 118 348
L 118 348
L 118 348
L 118 348
L 120 347
L 120 347
L 120 347
L 120 347
L 121 347
L 121 347
L 123 347
L 124 347
L 124 347
L 124 347
L 125 347
L 125 347
L 127 347
L 129 347
L 131 347
L 131 347
L 131 347
L 132 347
L 132 347
L 139 347
L 142 347
L 146 347
L 146 347
L 147 347
L 147 347
L 148 347
L 148 347
L 149 347
L 150 347
L 151 346
L 151 346
L 151 346
L 152 346
L 152 346
L 152 346
L 153 346
L 153 346
L 156 346
L 156 346
L 158 346
L 159 346
L 161 346
L 161 346
L 162 346
L 163 346
L 163 346
L 164 346
L 164 346
L 164 346
L 165 346
L 166 346
L 167 346
L 168 346
L 169 346
L 170 346
L 171 346
L 172 346
L 173 345
L 173 345
L 173 345
L 173 345
L 174 345
L 175 345
L 178 345
L 179 345
L 179 345
L 179 345
L 179 345
L 180 345
L 180 345
L 180 345
L 181 345
L 181 345
L 181 345
L 182 345
L 182 345
L 183 345
L 183 345
L 183 345
L 183 345
L 183 345
L 184 345
L 184 345
L 184 345
L 184 345
L 184 345
L 184 344
L 184 344
L 184 344
L 185 344
L 185 344
L 185 344
L 186 344
L 187 344
L 188 344
L 188 344
L 189 344
L 189 344
L 189 344
L 189 344
L 190 344
L 190 344
L 190 344
L 190 344
L 190 344
L 191 344
L 192 344
L 194 344
L 194 344
L 194 344
L 196 344
L 196 344
L 199 344
L 199 344
L 200 343
L 200 343
L 200 343
L 200 343
L 200 343
L 201 343
L 201 343
L 203 343
L 203 343
L 203 343
L 204 343
L 204 343
L 204 343
L 205 343
L 205 343
L 205 343
L 206 343
L 206 343
L 207 343
L 208 343
L 209 343
L 209 343
L 210 343
L 211 343
L 212 343
L 212 343
L 212 343
L 212 343
L 213 343
L 214 342
L 216 342
L 217 342
L 220 342
L 221 342
L 222 342
L 224 342
L 225 342
L 225 342
L 225 342
L 227 342
L 231 342
L 231 342
L 232 342
L 232 342
L 232 342
L 233 342
L 233 342
L 233 342
L 234 342
L 234 342
L 239 342
L 242 342
L 243 342
L 243 342
L 243 342
L 243 342
L 243 342
L 243 341
L 243 341
L 243 341
L 243 341
L 244 341
L 245 341
L 247 341
L 248 341
L 248 341
L 249 341
L 250 341
L 250 341
L 251 341
L 252 341
L 252 341
L 253 341
L 253 341
L 253 341
L 253 341
L 253 341
L 254 341
L 254 341
L 254 341
L 255 341
L 255 341
L 255 341
L 255 341
L 255 341
L 256 341
L 256 340
L 257 340
L 257 340
L 257 340
L 257 340
L 259 340
L 260 340
L 261 340
L 261 340
L 262 340
L 263 340
L 263 340
L 264 340
L 264 340
L 266 340
L 267 340
L 268 340
L 269 340
L 271 340
L 272 340
L 273 340
L 274 340
L 274 340
L 274 340
L 275 340
L 280 340
L 284 340
L 284 340
L 285 339
L 287 339
L 288 339
L 289 339
L 292 339
L 294 339
L 294 339
L 295 339
L 295 339
L 298 339
L 303 339
L 303 339
L 303 339
L 303 339
L 304 339
L 314 339
L 314 339
L 315 339
L 316 339
L 316 339
L 316 339
L 316 339
L 316 339
L 316 339
L 316 339
L 316 339
L 317 339
L 317 339
L 317 339
L 319 338
L 321 338
L 321 338
L 322 338
L 327 338
L 329 338
L 330 338
L 330 338
L 331 338
L 331 338
L 332 338
L 333 338
L 333 338
L 334 338
L 334 338
L 335 338
L 335 338
L 336 338
L 338 338
L 339 338
L 339 338
L 339 338
L 344 338
L 355 338
L 356 338
L 359 338
L 361 338
L 362 338
L 363 337
L 365 337
L 365 337
L 366 337
L 366 337
L 366 337
L 367 337
L 367 337
L 371 337
L 371 337
L 373 337
L 374 337
L 378 337
L 378 337
L 379 337
L 384 337
L 386 337
L 386 337
L 388 337
L 388 337
L 388 337
L 389 337
L 389 337
L 389 337
L 389 337
L 389 337
L 389 337
L 390 337
L 392 337
L 392 336
L 396 336
L 397 336
L 398 336
L 402 336
L 402 336
L 402 336
L 403 336
L 403 336
L 404 336
L 405 336
L 408 336
L 408 336
L 412 336
L 412 336
L 413 336
L 414 336
L 416 336
L 417 336
L 419 336
L 421 336
L 425 336
L 427 336
L 427 336
L 428 336
L 431 336
L 437 336
L 439 336
L 441 335
L 442 335
L 443 335
L 443 335
L 444 335
L 445 335
L 445 335
L 445 335
L 447 335
L 447 335
L 447 335
L 447 335
L 448 335
L 448 335
L 449 335
L 449 335
L 450 335
L 450 335
L 451 335
L 452 335
L 452 335
L 452 335
L 452 335
L 452 335
L 453 335
L 453 335
L 453 335
L 453 335
L 453 335
L 453 334
L 454 334
L 455 334
L 455 334
L 457 334
L 457 334
L 458 334
L 458 334
L 458 334
L 458 334
L 459 334
L 460 334
L 460 334
L 460 334
L 460 334
L 461 334
L 461 334
L 461 334
L 462 334
L 462 334
L 462 334
L 464 334
L 464 334
L 466 334
L 466 334
L 467 334
L 467 334
L 467 334
L 467 334
L 468 333
L 468 333
L 469 333
L 469 333
L 469 333
L 469 333
L 469 333
L 469 333
L 469 333
L 469 333
L 469 333
L 469 333
L 469 333
L 469 333
L 469 333
L 470 333
L 470 333
L 470 333
L 471 333
L 471 333
L 471 333
L 471 333
L 472 333
L 472 333
L 472 333
L 473 333
L 474 333
L 474 333
L 475 332
L 475 332
L 475 332
L 476 332
L 477 332
L 477 332
L 477 332
L 477 332
L 477 332
L 477 332
L 477 332
L 477 332
L 477 332
L 477 332
L 477 332
L 477 332
L 477 332
L 477 332
L 478 332
L 478 332
L 478 332
L 478 332
L 478 332
L 478 332
L 478 332
L 478 332
L 478 332
L 478 332
L 478 332
L 478 331
L 478 331
L 478 331
L 479 331
L 479 331
L 479 331
L 479 331
L 479 331
L 480 331
L 480 331
L 480 331
L 480 331
L 480 331
L 480 331
L 480 331
L 481 331
L 481 331
L 482 331
L 482 331
L 483 331
L 483 331
L 483 331
L 483 331
L 484 331
L 484 331
L 484 331
L 484 331
L 484 331
L 484 330
L 484 330
L 485 330
L 486 330
L 486 330
L 487 330
L 487 330
L 488 330
L 489 330
L 490 330
L 490 330
L 490 330
L 490 330
L 490 330
L 490 330
L 490 330
L 491 330
L 491 330
L 491 330
L 492 330
L 493 330
L 493 330
L 493 330
L 494 330
L 494 330
L 494 330
L 495 330
L 495 330
L 496 330
L 496 329
L 496 329
L 496 329
L 497 329
L 497 329
L 497 329
L 497 329
L 497 329
L 497 329
L 498 329
L 498 329
L 499 329
L 499 329
L 500 329
L 501 329
L 501 329
L 501 329
L 502 329
L 502 329
L 503 329
L 503 329
L 503 329
L 503 329
L 504 329
L 504 329
L 505 329
L 505 329
L 505 329
L 506 328
L 506 328
L 506 328
L 506 328
L 506 328
L 506 328
L 506 328
L 507 328
L 507 328
L 507 328
L 507 328
L 507 328
L 507 328
L 508 328
L 508 328
L 509 328
L 509 328
L 510 328
L 510 328
L 511 328
L 511 328
L 511 328
L 512 328
L 512 328
L 512 328
L 513 328
L 513 328
L 513 328
L 513 328
L 513 327
L 513 327
L 513 327
L 514 327
L 514 327
L 514 327
L 514 327
L 514 327
L 514 327
L 514 327
L 514 327
L 514 327
L 514 327
L 514 327
L 514 327
L 514 327
L 515 327
L 515 327
L 515 327
L 515 327
L 515 327
L 516 327
L 517 327
L 517 327
L 518 327
L 518 327
L 518 327
L 519 327
L 519 326
L 519 326
L 519 326
L 520 326
L 520 326
L 520 326
L 520 326
L 520 326
L 520 326
L 520 326
L 520 326
L 520 326
L 521 326
L 521 326
L 521 326
L 521 326
L 521 326
L 521 326
L 521 326
L 521 326
L 521 326
L 522 326
L 522 326
L 522 326
L 522 326
L 522 326
L 522 326
L 523 326
L 523 326
L 523 325
L 523 325
L 523 325
L 523 325
L 524 325
L 524 325
L 524 325
L 524 325
L 524 325
L 524 325
L 524 325
L 525 325
L 525 325
L 526 325
L 526 325
L 526 325
L 526 325
L 527 325
L 527 325
L 528 325
L 529 325
L 529 325
L 529 325
L 529 325
L 529 325
L 530 325
L 530 325
L 530 325
L 531 324
L 531 324
L 531 324
L 531 324
L 531 324
L 532 324
L 532 324
L 533 324
L 533 324
L 533 324
L 533 324
L 533 324
L 533 324
L 533 324
L 534 324
L 534 324
L 534 324
L 534 324
L 535 324
L 535 324
L 535 324
L 536 324
L 536 324
L 536 324
L 536 324
L 536 324
L 537 324
L 538 324
L 538 324
L 538 323
L 539 323
L 539 323
L 539 323
L 540 323
L 540 323
L 540 323
L 542 323
L 542 323
L 542 323
L 542 323
L 543 323
L 543 323
L 544 323
L 544 323
L 544 323
L 544 323
L 545 323
L 545 323
L 545 323
L 545 323
L 545 323
L 545 323
L 546 323
L 546 323
L 546 323
L 546 323
L 547 323
L 547 322
L 547 322
L 547 322
L 547 322
L 547 322
L 548 322
L 548 322
L 548 322
L 548 322
L 549 322
L 549 322
L 549 322
L 550 322
L 550 322
L 550 322
L 551 322
L 551 322
L 551 322
L 551 322
L 552 322
L 552 322
L 552 322
L 552 322
L 553 322
L 553 322
L 553 322
L 553 322
L 553 322
L 553 322
L 553 321
L 554 321
L 554 321
L 554 321
L 554 321
L 554 321
L 554 321
L 554 321
L 554 321
L 555 321
L 555 321
L 555 321
L 555 321
L 555 321
L 555 321
L 555 321
L 556 321
L 556 321
L 556 321
L 556 321
L 557 321
L 557 321
L 558 321
L 558 321
L 558 321
L 558 321
L 558 321
L 559 321
L 559 320
L 559 320
L 560 320
L 560 320
L 560 320
L 560 320
L 560 320
L 560 320
L 561 320
L 561 320
L 561 320
L 562 320
L 562 320
L 563 320
L 563 320
L 563 320
L 563 320
L 563 320
L 564 320
L 564 320
L 564 320
L 564 320
L 564 320
L 565 320
L 565 320
L 565 320
L 565 320
L 565 320
L 565 320
L 566 319
L 566 319
L 566 319
L 566 319
L 566 319
L 568 319
L 568 319
L 568 319
L 569 319
L 569 319
L 569 319
L 569 319
L 569 319
L 569 319
L 569 319
L 570 319
L 570 319
L 571 319
L 571 319
L 571 319
L 571 319
L 571 319
L 571 319
L 571 319
L 572 319
L 572 319
L 573 319
L 574 319
L 574 318
L 575 318
L 575 318
L 576 318
L 576 318
L 577 318
L 578 318
L 579 318
L 579 318
L 579 318
L 579 318
L 580 318
L 581 318
L 581 318
L 581 318
L 581 318
L 582 318
L 582 318
L 582 318
L 583 318
L 583 318
L 583 318
L 584 318
L 584 318
L 584 318
L 584 318
L 585 318
L 585 318
L 585 318
L 585 317
L 586 317
L 587 317
L 587 317
L 587 317
L 587 317
L 587 317
L 587 317
L 587 317
L 587 317
L 587 317
L 587 317
L 588 317
L 588 317
L 588 317
L 588 317
L 589 317
L 589 317
L 589 317
L 589 317
L 589 317
L 590 317
L 590 317
L 590 317
L 590 317
L 592 317
L 592 317
L 592 317
L 594 317
L 594 316
L 594 316
L 595 316
L 596 316
L 596 316
L 596 316
L 597 316
L 597 316
L 597 316
L 597 316
L 598 316
L 600 316
L 600 316
L 600 316
L 600 316
L 600 316
L 600 316
L 600 316
L 601 316
L 601 316
L 601 316
L 601 316
L 601 316
L 602 316
L 602 316
L 602 316
L 602 316
L 602 316
L 604 315
L 605 315
L 606 315
L 607 315
L 608 315
L 608 315
L 608 315
L 609 315
L 609 315
L 610 315
L 610 315
L 611 315
L 611 315
L 611 315
L 611 315
L 611 315
L 611 315
L 611 315
L 612 315
L 612 315
L 612 315
L 612 315
L 612 315
L 612 315
L 612 315
L 612 315
L 613 315
L 613 315
L 613 315
L 613 314
L 613 314
L 614 314
L 614 314
L 614 314
L 614 314
L 614 314
L 614 314
L 614 314
L 615 314
L 615 314
L 615 314
L 615 314
L 617 314
L 617 314
L 617 314
L 617 314
L 617 314
L 617 314
L 618 314
L 618 314
L 618 314
L 619 314
L 619 314
L 619 314
L 619 314
L 620 314
L 620 314
L 620 313
L 620 313
L 620 313
L 620 313
L 622 313
L 622 313
L 622 313
L 623 313
L 623 313
L 623 313
L 623 313
L 623 313
L 623 313
L 623 313
L 623 313
L 623 313
L 623 313
L 623 313
L 623 313
L 623 313
L 623 313
L 624 313
L 624 313
L 624 313
L 624 313
L 624 313
L 624 313
L 624 313
L 624 313
L 624 312
L 624 312
L 624 312
L 624 312
L 624 312
L 624 312
L 624 312
L 624 312
L 625 312
L 625 312
L 625 312
L 625 312
L 625 312
L 625 312
L 625 312
L 625 312
L 626 312
L 626 312
L 626 312
L 626 312
L 626 312
L 627 312
L 627 312
L 627 312
L 627 312
L 627 312
L 627 312
L 628 312
L 628 311
L 628 311
L 628 311
L 628 311
L 628 311
L 628 311
L 629 311
L 629 311
L 629 311
L 629 311
L 629 311
L 629 311
L 629 311
L 629 311
L 630 311
L 630 311
L 630 311
L 630 311
L 630 311
L 631 311
L 631 311
L 631 311
L 631 311
L 632 311
L 632 311
L 632 311
L 633 311
L 633 311
L 633 311
L 633 310
L 633 310
L 633 310
L 633 310
L 633 310
L 634 310
L 634 310
L 634 310
L 634 310
L 635 310
L 635 310
L 635 310
L 635 310
L 636 310
L 636 310
L 636 310
L 636 310
L 636 310
L 637 310
L 637 310
L 637 310
L 637 310
L 637 310
L 638 310
L 638 310
L 638 310
L 638 310
L 638 310
L 638 309
L 639 309
L 639 309
L 640 309
L 640 309
L 640 309
L 640 309
L 640 309
L 640 309
L 640 309
L 640 309
L 641 309
L 641 309
L 641 309
L 641 309
L 641 309
L 642 309
L 642 309
L 642 309
L 642 309
L 643 309
L 643 309
L 643 309
L 643 309
L 643 309
L 643 309
L 643 309
L 643 309
L 644 309
L 645 308
L 645 308
L 646 308
L 646 308
L 646 308
L 646 308
L 646 308
L 646 308
L 646 308
L 646 308
L 647 308
L 647 308
L 647 308
L 648 308
L 648 308
L 648 308
L 649 308
L 649 308
L 649 308
L 649 308
L 649 308
L 650 308
L 650 308
L 650 308
L 650 308
L 650 308
L 650 308
L 650 308
L 650 307
L 650 307
L 651 307
L 651 307
L 651 307
L 651 307
L 651 307
L 651 307
L 651 307
L 652 307
L 653 307
L 654 307
L 654 307
L 654 307
L 654 307
L 655 307
L 655 307
L 655 307
L 655 307
L 655 307
L 655 307
L 656 307
L 656 307
L 656 307
L 656 307
L 656 307
L 656 307
L 656 307
L 656 307
L 656 306
L 657 306
L 657 306
L 657 306
L 657 306
L 657 306
L 659 306
L 659 306
L 659 306
L 659 306
L 659 306
L 659 306
L 660 306
L 660 306
L 660 306
L 660 306
L 660 306
L 660 306
L 661 306
L 661 306
L 661 306
L 661 306
L 662 306
L 662 306
L 662 306
L 663 306
L 663 306
L 664 306
L 664 305
L 664 305
L 664 305
L 665 305
L 665 305
L 665 305
L 665 305
L 666 305
L 666 305
L 666 305
L 666 305
L 666 305
L 666 305
L 666 305
L 666 305
L 666 305
L 666 305
L 666 305
L 666 305
L 666 305
L 666 305
L 667 305
L 667 305
L 667 305
L 667 305
L 667 305
L 667 305
L 667 305
L 667 305
L 668 304
L 668 304
L 668 304
L 668 304
L 668 304
L 669 304
L 669 304
L 669 304
L 669 304
L 669 304
L 670 304
L 670 304
L 670 304
L 670 304
L 671 304
L 671 304
L 671 304
L 671 304
L 671 304
L 671 304
L 671 304
L 671 304
L 671 304
L 671 304
L 671 304
L 672 304
L 672 304
L 672 304
L 672 303
L 672 303
L 672 303
L 673 303
L 674 303
L 675 303
L 675 303
L 675 303
L 675 303
L 676 303
L 676 303
L 676 303
L 676 303
L 676 303
L 676 303
L 676 303
L 676 303
L 677 303
L 677 303
L 677 303
L 677 303
L 677 303
L 677 303
L 677 303
L 677 303
L 677 303
L 677 303
L 677 303
L 678 303
L 678 302
L 678 302
L 678 302
L 678 302
L 679 302
L 679 302
L 679 302
L 679 302
L 679 302
L 680 302
L 680 302
L 681 302
L 681 302
L 681 302
L 681 302
L 681 302
L 682 302
L 682 302
L 682 302
L 682 302
L 682 302
L 682 302
L 682 302
L 682 302
L 682 302
L 683 302
L 683 302
L 683 302
L 683 301
L 683 301
L 684 301
L 684 301
L 684 301
L 684 301
L 685 301
L 685 301
L 685 301
L 685 301
L 686 301
L 686 301
L 686 301
L 686 301
L 686 301
L 687 301
L 687 301
L 687 301
L 687 301
L 687 301
L 688 301
L 688 301
L 689 301
L 689 301
L 689 301
L 689 301
L 689 301
L 689 301
L 689 301
L 689 300
L 689 300
L 689 300
L 690 300
L 690 300
L 690 300
L 690 300
L 690 300
L 691 300
L 691 300
L 691 300
L 691 300
L 691 300
L 691 300
L 691 300
L 692 300
L 692 300
L 692 300
L 692 300
L 692 300
L 692 300
L 692 300
L 692 300
L 692 300
L 692 300
L 693 300
L 693 300
L 693 300
L 693 300
L 693 299
L 694 299
L 694 299
L 694 299
L 694 299
L 696 299
L 696 299
L 696 299
L 696 299
L 696 299
L 696 299
L 696 299
L 696 299
L 696 299
L 697 299
L 697 299
L 697 299
L 697 299
L 697 299
L 697 299
L 698 299
L 698 299
L 699 299
L 699 299
L 699 299
L 699 299
L 699 299
L 699 299
L 699 298
L 700 298
L 700 298
L 700 298
L 700 298
L 700 298
L 700 298
L 700 298
L 700 298
L 701 298
L 701 298
L 701 298
L 701 298
L 701 298
L 701 298
L 701 298
L 702 298
L 702 298
L 702 298
L 702 298
L 702 298
L 702 298
L 703 298
L 703 298
L 703 298
L 704 298
L 704 298
L 705 298
L 706 298
L 706 297
L 706 297
L 706 297
L 706 297
L 706 297
L 708 297
L 708 297
L 708 297
L 709 297
L 709 297
L 709 297
L 709 297
L 709 297
L 710 297
L 710 297
L 710 297
L 710 297
L 710 297
L 710 297
L 711 297
L 711 297
L 711 297
L 711 297
L 711 297
L 711 297
L 711 297
L 711 297
L 711 297
L 711 296
L 712 296
L 712 296
L 712 296
L 712 296
L 712 296
L 712 296
L 712 296
L 712 296
L 713 296
L 713 296
L 713 296
L 713 296
L 713 296
L 713 296
L 714 296
L 714 296
L 714 296
L 714 296
L 714 296
L 714 296
L 714 296
L 714 296
L 714 296
L 714 296
L 715 296
L 715 296
L 715 296
L 715 296
L 715 295
L 715 295
L 715 295
L 715 295
L 716 295
L 716 295
L 716 295
L 716 295
L 716 295
L 716 295
L 716 295
L 716 295
L 716 295
L 716 295
L 716 295
L 717 295
L 718 295
L 718 295
L 718 295
L 718 295
L 718 295
L 718 295
L 718 295
L 719 295
L 719 295
L 719 295
L 719 295
L 719 295
L 719 294
L 719 294
L 719 294
L 719 294
L 719 294
L 719 294
L 719 294
L 719 294
L 719 294
L 719 294
L 719 294
L 720 294
L 720 294
L 720 294
L 720 294
L 720 294
L 720 294
L 720 294
L 720 294
L 720 294
L 721 294
L 721 294
L 721 294
L 721 294
L 721 294
L 721 294
L 721 294
L 721 294
L 722 294
L 722 293
L 722 293
L 722 293
L 722 293
L 723 293
L 723 293
L 723 293
L 723 293
L 724 293
L 724 293
L 724 293
L 724 293
L 724 293
L 724 293
L 724 293
L 724 293
L 724 293
L 724 293
L 725 293
L 725 293
L 725 293
L 725 293
L 725 293
L 725 293
L 725 293
L 726 293
L 726 293
L 726 293
L 726 292
L 726 292
L 726 292
L 726 292
L 726 292
L 726 292
L 726 292
L 726 292
L 726 292
L 726 292
L 727 292
L 727 292
L 727 292
L 727 292
L 727 292
L 727 292
L 728 292
L 728 292
L 728 292
L 728 292
L 728 292
L 728 292
L 728 292
L 728 292
L 728 292
L 728 292
L 728 292
L 728 292
L 728 292
L 728 291
L 728 291
L 728 291
L 728 291
L 728 291
L 728 291
L 728 291
L 728 291
L 728 291
L 728 291
L 728 291
L 728 291
L 728 291
L 728 291
L 728 291
L 728 291
L 728 291
L 728 291
L 728 291
L 728 291
L 728 291
L 728 291
L 728 291
L 728 291
L 728 291
L 728 291
L 728 291
L 728 291
L 728 290
L 728 290
L 728 290
L 728 290
L 728 290
L 728 290
L 728 290
L 728 290
L 728 290
L 728 290
L 728 290
L 728 290
L 728 290
L 728 290
L 728 290
L 728 290
L 728 290
L 729 290
L 729 290
L 729 290
L 729 290
L 729 290
L 729 290
L 729 290
L 729 290
L 729 290
L 729 290
L 729 290
L 729 290
L 729 289
L 729 289
L 729 289
L 729 289
L 729 289
L 729 289
L 729 289
L 729 289
L 729 289
L 729 289
L 729 289
L 729 289
L 729 289
L 729 289
L 729 289
L 729 289
L 729 289
L 729 289
L 729 289
L 729 289
L 729 289
L 729 289
L 729 289
L 729 289
L 729 289
L 729 289
L 729 289
L 729 289
L 729 288
L 729 288
L 729 288
L 729 288
L 729 288
L 729 288
L 729 288
L 729 288
L 729 288
L 729 288
L 729 288
L 729 288
L 729 288
L 729 288
L 729 288
L 729 288
L 730 288
L 730 288
L 730 288
L 730 288
L 730 288
L 730 288
L 730 288
L 730 288
L 730 288
L 730 288
L 730 288
L 730 288
L 730 288
L 730 287
L 730 287
L 730 287
L 730 287
L 730 287
L 730 287
L 730 287
L 730 287
L 730 287
L 730 287
L 730 287
L 730 287
L 730 287
L 730 287
L 730 287
L 730 287
L 730 287
L 730 287
L 730 287
L 730 287
L 730 287
L 730 287
L 730 287
L 730 287
L 730 287
L 730 287
L 730 287
L 730 287
L 730 286
L 730 286
L 730 286
L 730 286
L 730 286
L 730 286
L 730 286
L 730 286
L 730 286
L 730 286
L 730 286
L 730 286
L 730 286
L 730 286
L 730 286
L 730 286
L 730 286
L 730 286
L 731 286
L 731 286
L 731 286
L 731 286
L 731 286
L 731 286
L 731 286
L 731 286
L 731 286
L 731 286
L 731 286
L 731 285
L 731 285
L 731 285
L 731 285
L 731 285
L 731 285
L 731 285
L 731 285
L 731 285
L 731 285
L 731 285
L 731 285
L 731 285
L 731 285
L 731 285
L 731 285
L 731 285
L 731 285
L 731 285
L 731 285
L 731 285
L 731 285
L 731 285
L 731 285
L 731 285
L 731 285
L 731 285
L 731 285
L 731 284
L 731 284
L 731 284
L 731 284
L 731 284
L 731 284
L 731 284
L 731 284
L 731 284
L 731 284
L 731 284
L 731 284
L 731 284
L 731 284
L 731 284
L 731 284
L 731 284
L 731 284
L 731 284
L 731 284
L 731 284
L 731 284
L 731 284
L 731 284
L 731 284
L 731 284
L 731 284
L 731 284
L 731 284
L 731 283
L 731 283
L 731 283
L 731 283
L 731 283
L 731 283
L 731 283
L 731 283
L 731 283
L 731 283
L 731 283
L 731 283
L 731 283
L 731 283
L 731 283
L 731 283
L 731 283
L 731 283
L 731 283
L 731 283
L 731 283
L 731 283
L 731 283
L 731 283
L 731 283
L 731 283
L 731 283
L 731 283
L 732 283
L 732 282
L 732 282
L 732 282
L 732 282
L 732 282
L 732 282
L 732 282
L 732 282
L 732 282
L 732 282
L 732 282
L 732 282
L 732 282
L 732 282
L 732 282
L 732 282
L 732 282
L 732 282
L 732 282
L 732 282
L 732 282
L 732 282
L 732 282
L 732 282
L 732 282
L 732 282
L 732 282
L 732 282
L 732 281
L 732 281
L 732 281
L 732 281
L 732 281
L 732 281
L 732 281
L 732 281
L 732 281
L 732 281
L 732 281
L 732 281
L 732 281
L 732 281
L 732 281
L 732 281
L 732 281
L 732 281
L 732 281
L 732 281
L 732 281
L 732 281
L 732 281
L 732 281
L 732 281
L 732 281
L 732 281
L 733 281
L 733 281
L 733 280
L 733 280
L 733 280
L 733 280
L 733 280
L 733 280
L 733 280
L 733 280
L 733 280
L 733 280
L 733 280
L 733 280
L 733 280
L 734 280
L 734 280
L 734 280
L 734 280
L 734 280
L 734 280
L 734 280
L 734 280
L 734 280
L 735 280
L 735 280
L 735 280
L 735 280
L 735 280
L 735 280
L 735 279
L 735 279
L 735 279
L 735 279
L 735 279
L 736 279
L 736 279
L 736 279
L 736 279
L 736 279
L 736 279
L 736 279
L 736 279
L 736 279
L 736 279
L 736 279
L 736 279
L 736 279
L 736 279
L 736 279
L 736 279
L 736 279
L 737 279
L 737 279
L 737 279
L 737 279
L 737 279
L 737 279
L 737 279
L 737 278
L 738 278
L 738 278
L 738 278
L 738 278
L 738 278
L 738 278
L 738 278
L 738 278
L 738 278
L 738 278
L 738 278
L 738 278
L 738 278
L 739 278
L 739 278
L 739 278
L 739 278
L 739 278
L 739 278
L 739 278
L 739 278
L 739 278
L 739 278
L 740 278
L 740 278
L 740 278
L 740 278
L 740 277
L 740 277
L 740 277
L 740 277
L 740 277
L 740 277
L 740 277
L 740 277
L 740 277
L 740 277
L 740 277
L 740 277
L 740 277
L 740 277
L 740 277
L 740 277
L 741 277
L 741 277
L 741 277
L 741 277
L 741 277
L 741 277
L 741 277
L 741 277
L 741 277
L 741 277
L 741 277
L 741 277
L 741 277
L 741 276
L 741 276
L 741 276
L 741 276
L 741 276
L 741 276
L 741 276
L 741 276
L 741 276
L 741 276
L 741 276
L 741 276
L 741 276
L 741 276
L 741 276
L 741 276
L 741 276
L 741 276
L 741 276
L 741 276
L 741 276
L 741 276
L 741 276
L 741 276
L 741 276
L 741 276
L 741 276
L 741 276
L 741 275
L 741 275
L 741 275
L 741 275
L 741 275
L 741 275
L 741 275
L 741 275
L 741 275
L 741 275
L 741 275
L 741 275
L 741 275
L 742 275
L 742 275
L 742 275
L 742 275
L 742 275
L 742 275
L 742 275
L 742 275
L 742 275
L 742 275
L 742 275
L 742 275
L 742 275
L 742 275
L 742 275
L 742 275
L 742 274
L 742 274
L 742 274
L 742 274
L 742 274
L 742 274
L 742 274
L 742 274
L 742 274
L 742 274
L 742 274
L 742 274
L 742 274
L 742 274
L 742 274
L 742 274
L 742 274
L 742 274
L 742 274
L 742 274
L 742 274
L 742 274
L 742 274
L 742 274
L 742 274
L 742 274
L 742 274
L 742 274
L 742 273
L 742 273
L 742 273
L 742 273
L 742 273
L 742 273
L 742 273
L 742 273
L 742 273
L 742 273
L 742 273
L 742 273
L 742 273
L 742 273
L 742 273
L 742 273
L 742 273
L 742 273
L 742 273
L 742 273
L 742 273
L 742 273
L 742 273
L 742 273
L 742 273
L 742 273
L 742 273
L 742 273
L 742 273
L 742 272
L 742 272
L 742 272
L 742 272
L 742 272
L 742 272
L 742 272
L 742 272
L 742 272
L 742 272
L 742 272
L 742 272
L 742 272
L 742 272
L 742 272
L 742 272
L 742 272
L 742 272
L 742 272
L 742 272
L 742 272
L 742 272
L 743 272
L 743 272
L 743 272
L 743 272
L 743 272
L 743 272
L 743 271
L 743 271
L 743 271
L 743 271
L 743 271
L 743 271
L 743 271
L 743 271
L 743 271
L 743 271
L 743 271
L 743 271
L 743 271
L 743 271
L 743 271
L 743 271
L 743 271
L 743 271
L 743 271
L 743 271
L 743 271
L 743 271
L 743 271
L 743 271
L 743 271
L 743 271
L 743 271
L 743 271
L 743 271
L 743 270
L 743 270
L 744 270
L 744 270
L 744 270
L 744 270
L 744 270
L 744 270
L 744 270
L 744 270
L 744 270
L 744 270
L 744 270
L 744 270
L 744 270
L 744 270
L 744 270
L 744 270
L 744 270
L 744 270
L 744 270
L 744 270
L 744 270
L 744 270
L 744 270
L 744 270
L 744 270
L 744 270
L 744 269
L 745 269
L 745 269
L 745 269
L 745 269
L 745 269
L 745 269
L 745 269
L 745 269
L 745 269
L 745 269
L 745 269
L 745 269
L 745 269
L 745 269
L 745 269
L 745 269
L 745 269
L 745 269
L 745 269
L 745 269
L 745 269
L 745 269
L 745 269
L 745 269
L 745 269
L 745 269
L 745 269
L 745 269
L 745 268
L 746 268
L 746 268
L 746 268
L 746 268
L 746 268
L 746 268
L 746 268
L 746 268
L 746 268
L 746 268
L 746 268
L 746 268
L 746 268
L 746 268
L 746 268
L 746 268
L 746 268
L 746 268
L 746 268
L 746 268
L 746 268
L 746 268
L 746 268
L 746 268
L 746 268
L 746 268
L 746 268
L 746 267
L 746 267
L 746 267
L 747 267
L 747 267
L 747 267
L 747 267
L 747 267
L 747 267
L 747 267
L 747 267
L 747 267
L 747 267
L 747 267
L 747 267
L 747 267
L 747 267
L 747 267
L 747 267
L 747 267
L 747 267
L 747 267
L 747 267
L 747 267
L 747 267
L 747 267
L 747 267
L 748 267
L 748 267
L 748 266
L 748 266
L 748 266
L 748 266
L 748 266
L 748 266
L 748 266
L 748 266
L 748 266
L 748 266
L 748 266
L 749 266
L 749 266
L 749 266
L 749 266
L 749 266
L 749 266
L 749 266
L 749 266
L 749 266
L 749 266
L 749 266
L 749 266
L 750 266
L 750 266
L 750 266
L 750 266
L 750 266
L 750 266
L 750 265
L 750 265
L 751 265
L 751 265
L 751 265
L 751 265
L 751 265
L 751 265
L 751 265
L 751 265
L 751 265
L 751 265
L 751 265
L 752 265
L 752 265
L 752 265
L 752 265
L 752 265
L 752 265
L 752 265
L 752 265
L 752 265
L 752 265
L 752 265
L 752 265
L 752 265
L 752 265
L 752 265
L 752 264
L 752 264
L 752 264
L 752 264
L 752 264
L 752 264
L 752 264
L 752 264
L 753 264
L 753 264
L 753 264
L 753 264
L 753 264
L 753 264
L 753 264
L 753 264
L 753 264
L 753 264
L 754 264
L 754 264
L 754 264
L 754 264
L 754 264
L 754 264
L 754 264
L 754 264
L 754 264
L 754 264
L 754 264
L 754 263
L 754 263
L 754 263
L 755 263
L 755 263
L 755 263
L 755 263
L 755 263
L 755 263
L 755 263
L 755 263
L 755 263
L 755 263
L 755 263
L 755 263
L 755 263
L 755 263
L 755 263
L 755 263
L 755 263
L 755 263
L 755 263
L 755 263
L 756 263
L 756 263
L 756 263
L 756 263
L 756 263
L 756 262
L 756 262
L 756 262
L 756 262
L 756 262
L 756 262
L 756 262
L 756 262
L 757 262
L 757 262
L 757 262
L 757 262
L 757 262
L 757 262
L 757 262
L 757 262
L 757 262
L 757 262
L 757 262
L 757 262
L 757 262
L 757 262
L 757 262
L 757 262
L 757 262
L 757 262
L 757 262
L 757 262
L 758 262
L 758 261
L 758 261
L 758 261
L 758 261
L 758 261
L 758 261
L 758 261
L 758 261
L 758 261
L 758 261
L 759 261
L 759 261
L 759 261
L 759 261
L 759 261
L 759 261
L 759 261
L 760 261
L 760 261
L 760 261
L 760 261
L 760 261
L 760 261
L 760 261
L 760 261
L 760 261
L 760 261
L 760 261
L 760 260
L 760 260
L 760 260
L 760 260
L 760 260
L 760 260
L 760 260
L 760 260
L 760 260
L 760 260
L 760 260
L 760 260
L 760 260
L 760 260
L 760 260
L 760 260
L 760 260
L 760 260
L 760 260
L 760 260
L 760 260
L 760 260
L 760 260
L 760 260
L 760 260
L 760 260
L 760 260
L 760 260
L 761 260
L 761 259
L 761 259
L 761 259
L 761 259
L 761 259
L 761 259
L 761 259
L 761 259
L 761 259
L 761 259
L 761 259
L 761 259
L 761 259
L 761 259
L 761 259
L 761 259
L 761 259
L 761 259
L 761 259
L 761 259
L 761 259
L 761 259
L 761 259
L 761 259
L 761 259
L 761 259
L 761 259
L 761 259
L 761 258
L 761 258
L 761 258
L 761 258
L 761 258
L 761 258
L 761 258
L 761 258
L 761 258
L 761 258
L 761 258
L 761 258
L 761 258
L 761 258
L 761 258
L 761 258
L 761 258
L 761 258
L 761 258
L 761 258
L 761 258
L 761 258
L 761 258
L 761 258
L 761 258
L 761 258
L 761 258
L 761 258
L 761 258
L 761 257
L 761 257
L 761 257
L 761 257
L 761 257
L 761 257
L 761 257
L 761 257
L 761 257
L 761 257
L 761 257
L 761 257
L 761 257
L 761 257
L 761 257
L 761 257
L 762 257
L 762 257
L 762 257
L 762 257
L 762 257
L 762 257
L 762 257
L 762 257
L 762 257
L 762 257
L 762 257
L 762 257
L 762 256
L 762 256
L 762 256
L 762 256
L 762 256
L 762 256
L 762 256
L 762 256
L 762 256
L 762 256
L 762 256
L 762 256
L 762 256
L 762 256
L 762 256
L 762 256
L 762 256
L 762 256
L 762 256
L 762 256
L 762 256
L 762 256
L 762 256
L 762 256
L 762 256
L 762 256
L 762 256
L 762 256
L 762 256
L 762 255
L 762 255
L 762 255
L 762 255
L 762 255
L 762 255
L 762 255
L 762 255
L 762 255
L 762 255
L 762 255
L 762 255
L 762 255
L 762 255
L 762 255
L 762 255
L 762 255
L 762 255
L 762 255
L 762 255
L 762 255
L 762 255
L 763 255
L 763 255
L 763 255
L 763 255
L 763 255
L 763 255
L 763 254
L 763 254
L 763 254
L 763 254
L 763 254
L 763 254
L 763 254
L 763 254
L 763 254
L 763 254
L 763 254
L 763 254
L 763 254
L 763 254
L 763 254
L 763 254
L 763 254
L 763 254
L 763 254
L 763 254
L 763 254
L 763 254
L 763 254
L 763 254
L 763 254
L 763 254
L 763 254
L 763 254
L 763 254
L 763 253
L 763 253
L 763 253
L 763 253
L 763 253
L 763 253
L 763 253
L 763 253
L 763 253
L 763 253
L 763 253
L 763 253
L 763 253
L 763 253
L 763 253
L 763 253
L 763 253
L 763 253
L 763 253
L 763 253
L 763 253
L 763 253
L 763 253
L 763 253
L 763 253
L 763 253
L 763 253
L 763 253
L 763 252
L 763 252
L 763 252
L 763 252
L 763 252
L 763 252
L 763 252
L 763 252
L 763 252
L 763 252
L 763 252
L 763 252
L 763 252
L 763 252
L 763 252
L 763 252
L 763 252
L 763 252
L 763 252
L 763 252
L 763 252
L 763 252
L 763 252
L 763 252
L 763 252
L 763 252
L 763 252
L 763 252
L 763 252
L 763 251
L 763 251
L 763 251
L 763 251
L 763 251
L 763 251
L 763 251
L 763 251
L 763 251
L 763 251
L 763 251
L 763 251
L 763 251
L 763 251
L 763 251
L 763 251
L 763 251
L 763 251
L 763 251
L 763 251
L 763 251
L 763 251
L 763 251
L 763 251
L 763 251
L 763 251
L 763 251
L 763 251
L 763 250
L 763 250
L 763 250
L 763 250
L 763 250
L 763 250
L 763 250
L 763 250
L 763 250
L 763 250
L 763 250
L 763 250
L 763 250
L 763 250
L 763 250
L 763 250
L 763 250
L 763 250
L 763 250
L 763 250
L 763 250
L 763 250
L 763 250
L 763 250
L 763 250
L 763 250
L 763 250
L 763 250
L 763 250
L 763 249
L 763 249
L 763 249
L 763 249
L 763 249
L 763 249
L 763 249
L 763 249
L 763 249
L 763 249
L 763 249
L 763 249
L 763 249
L 763 249
L 763 249
L 763 249
L 763 249
L 763 249
L 763 249
L 763 249
L 763 249
L 763 249
L 763 249
L 763 249
L 763 249
L 763 249
L 763 249
L 763 249
L 763 249
L 763 248
L 763 248
L 763 248
L 763 248
L 763 248
L 763 248
L 763 248
L 763 248
L 763 248
L 763 248
L 763 248
L 763 248
L 763 248
L 763 248
L 763 248
L 763 248
L 763 248
L 763 248
L 763 248
L 763 248
L 763 248
L 763 248
L 764 248
L 764 248
L 764 248
L 764 248
L 764 248
L 764 248
L 764 247
L 764 247
L 764 247
L 764 247
L 764 247
L 764 247
L 764 247
L 764 247
L 764 247
L 764 247
L 764 247
L 764 247
L 764 247
L 764 247
L 764 247
L 764 247
L 764 247
L 764 247
L 764 247
L 764 247
L 764 247
L 764 247
L 764 247
L 764 247
L 764 247
L 764 247
L 764 247
L 764 247
L 764 247
L 764 246
L 764 246
L 764 246
L 764 246
L 764 246
L 764 246
L 764 246
L 764 246
L 764 246
L 764 246
L 764 246
L 764 246
L 764 246
L 764 246
L 764 246
L 764 246
L 764 246
L 764 246
L 764 246
L 764 246
L 764 246
L 764 246
L 764 246
L 764 246
L 764 246
L 764 246
L 764 246
L 764 246
L 764 245
L 764 245
L 764 245
L 764 245
L 764 245
L 764 245
L 764 245
L 764 245
L 764 245
L 764 245
L 764 245
L 764 245
L 764 245
L 764 245
L 764 245
L 764 245
L 764 245
L 764 245
L 764 245
L 764 245
L 764 245
L 764 245
L 764 245
L 764 245
L 764 245
L 764 245
L 764 245
L 764 245
L 764 245
L 764 244
L 764 244
L 764 244
L 764 244
L 764 244
L 764 244
L 764 244
L 764 244
L 764 244
L 764 244
L 764 244
L 764 244
L 764 244
L 764 244
L 764 244
L 764 244
L 764 244
L 764 244
L 764 244
L 764 244
L 764 244
L 764 244
L 764 244
L 764 244
L 764 244
L 764 244
L 764 244
L 764 244
L 764 243
L 764 243
L 764 243
L 764 243
L 764 243
L 764 243
L 764 243
L 764 243
L 764 243
L 764 243
L 764 243
L 764 243
L 764 243
L 764 243
L 764 243
L 764 243
L 764 243
L 764 243
L 764 243
L 764 243
L 764 243
L 764 243
L 764 243
L 764 243
L 764 243
L 764 243
L 764 243
L 764 243
L 764 243
L 764 242
L 764 242
L 764 242
L 764 242
L 764 242
L 764 242
L 764 242
L 764 242
L 764 242
L 764 242
L 764 242
L 764 242
L 764 242
L 764 242
L 764 242
L 764 242
L 764 242
L 764 242
L 764 242
L 764 242
L 764 242
L 764 242
L 764 242
L 764 242
L 764 242
L 764 242
L 764 242
L 764 242
L 764 241
L 764 241
L 764 241
L 764 241
L 764 241
L 764 241
L 764 241
L 764 241
L 764 241
L 764 241
L 764 241
L 764 241
L 764 241
L 764 241
L 764 241
L 764 241
L 764 241
L 764 241
L 764 241
L 764 241
L 764 241
L 764 241
L 764 241
L 764 241
L 764 241
L 764 241
L 764 241
L 764 241
L 764 241
L 764 240
L 764 240
L 764 240
L 764 240
L 764 240
L 764 240
L 764 240
L 764 240
L 764 240
L 764 240
L 764 240
L 764 240
L 764 240
L 764 240
L 764 240
L 764 240
L 764 240
L 764 240
L 764 240
L 764 240
L 764 240
L 764 240
L 764 240
L 764 240
L 764 240
L 764 240
L 764 240
L 764 240
L 764 239
L 764 239
L 764 239
L 764 239
L 764 239
L 764 239
L 764 239
L 764 239
L 764 239
L 764 239
L 764 239
L 764 239
L 764 239
L 764 239
L 764 239
L 764 239
L 764 239
L 764 239
L 764 239
L 764 239
L 764 239
L 764 239
L 764 239
L 764 239
L 764 239
L 764 239
L 764 239
L 764 239
L 764 239
L 764 238
L 764 238
L 764 238
L 764 238
L 764 238
L 764 238
L 764 238
L 764 238
L 764 238
L 764 238
L 764 238
L 764 238
L 764 238
L 764 238
L 764 238
L 764 238
L 764 238
L 764 238
L 764 238
L 764 238
L 764 238
L 764 238
L 764 238
L 764 238
L 764 238
L 764 238
L 764 238
L 764 238
L 764 237
L 764 237
L 764 237
L 764 237
L 764 237
L 764 237
L 764 237
L 764 237
L 764 237
L 764 237
L 764 237
L 764 237
L 764 237
L 764 237
L 764 237
L 764 237
L 764 237
L 764 237
L 764 237
L 764 237
L 764 237
L 764 237
L 764 237
L 764 237
L 764 237
L 764 237
L 764 237
L 764 237
L 764 237
L 764 236
L 764 236
L 764 236
L 764 236
L 764 236
L 764 236
L 764 236
L 764 236
L 764 236
L 764 236
L 764 236
L 764 236
L 764 236
L 764 236
L 764 236
L 764 236
L 764 236
L 764 236
L 764 236
L 764 236
L 764 236
L 764 236
L 764 236
L 764 236
L 764 236
L 764 236
L 764 236
L 764 236
L 764 235
L 764 235
L 764 235
L 764 235
L 764 235
L 764 235
L 764 235
L 764 235
L 764 235
L 764 235
L 764 235
L 764 235
L 764 235
L 764 235
L 764 235
L 764 235
L 764 235
L 764 235
L 764 235
L 764 235
L 764 235
L 764 235
L 764 235
L 764 235
L 764 235
L 764 235
L 764 235
L 764 235
L 764 235
L 764 234
L 764 234
L 764 234
L 764 234
L 764 234
L 764 234
L 764 234
L 764 234
L 764 234
L 764 234
L 764 234
L 764 234
L 764 234
L 764 234
L 764 234
L 764 234
L 764 234
L 764 234
L 764 234
L 764 234
L 764 234
L 764 234
L 764 234
L 764 234
L 764 234
L 764 234
L 764 234
L 764 234
L 764 233
L 764 233
L 764 233
L 765 233
L 765 233
L 765 233
L 765 233
L 765 233
L 765 233
L 765 233
L 765 233
L 765 233
L 765 233
L 765 233
L 765 233
L 765 233
L 765 233
L 765 233
L 765 233
L 765 233
L 765 233
L 765 233
L 765 233
L 765 233
L 765 233
L 765 233
L 765 233
L 765 233
L 765 233
L 765 232
L 765 232
L 765 232
L 765 232
L 765 232
L 765 232
L 765 232
L 765 232
L 765 232
L 765 232
L 765 232
L 765 232
L 765 232
L 765 232
L 765 232
L 765 232
L 765 232
L 765 232
L 765 232
L 765 232
L 765 232
L 765 232
L 765 232
L 765 232
L 765 232
L 765 232
L 765 232
L 765 232
L 765 232
L 765 231
L 765 231
L 765 231
L 765 231
L 765 231
L 765 231
L 765 231
L 765 231
L 765 231
L 765 231
L 765 231
L 765 231
L 765 231
L 765 231
L 765 231
L 765 231
L 765 231
L 765 231
L 765 231
L 765 231
L 765 231
L 765 231
L 765 231
L 765 231
L 765 231
L 765 231
L 765 231
L 765 231
L 765 230
L 765 230
L 765 230
L 765 230
L 765 230
L 765 230
L 765 230
L 765 230
L 765 230
L 765 230
L 765 230
L 765 230
L 765 230
L 765 230
L 765 230
L 765 230
L 765 230
L 765 230
L 765 230
L 765 230
L 765 230
L 765 230
L 765 230
L 765 230
L 765 230
L 765 230
L 765 230
L 765 230
L 765 230
L 765 229
L 765 229
L 765 229
L 765 229
L 765 229
L 765 229
L 765 229
L 765 229
L 765 229
L 765 229
L 765 229
L 765 229
L 765 229
L 765 229
L 765 229
L 765 229
L 765 229
L 765 229
L 765 229
L 765 229
L 765 229
L 765 229
L 765 229
L 765 229
L 765 229
L 765 229
L 765 229
L 765 229
L 765 228
L 765 228
L 765 228
L 765 228
L 765 228
L 765 228
L 765 228
L 765 228
L 765 228
L 765 228
L 765 228
L 765 228
L 765 228
L 765 228
L 765 228
L 765 228
L 765 228
L 765 228
L 765 228
L 765 228
L 765 228
L 765 228
L 765 228
L 765 228
L 765 228
L 765 228
L 765 228
L 765 228
L 765 228
L 765 227
L 765 227
L 765 227
L 765 227
L 765 227
L 765 227
L 765 227
L 765 227
L 765 227
L 765 227
L 765 227
L 765 227
L 765 227
L 765 227
L 765 227
L 765 227
L 765 227
L 765 227
L 765 227
L 765 227
L 765 227
L 765 227
L 765 227
L 765 227
L 765 227
L 765 227
L 765 227
L 765 227
L 765 226
L 765 226
L 765 226
L 765 226
L 765 226
L 765 226
L 765 226
L 765 226
L 765 226
L 765 226
L 765 226
L 765 226
L 766 226
L 766 226
L 766 226
L 766 226
L 766 226
L 766 226
L 766 226
L 766 226
L 766 226
L 766 226
L 766 226
L 766 226
L 766 226
L 766 226
L 766 226
L 766 226
L 766 226
L 766 225
L 766 225
L 766 225
L 766 225
L 766 225
L 766 225
L 766 225
L 766 225
L 766 225
L 766 225
L 766 225
L 766 225
L 766 225
L 766 225
L 766 225
L 766 225
L 766 225
L 766 225
L 766 225
L 766 225
L 766 225
L 766 225
L 766 225
L 766 225
L 766 225
L 766 225
L 766 225
L 766 225
L 766 224
L 766 224
L 766 224
L 766 224
L 766 224
L 766 224
L 766 224
L 766 224
L 766 224
L 766 224
L 766 224
L 766 224
L 766 224
L 766 224
L 766 224
L 766 224
L 766 224
L 766 224
L 766 224
L 766 224
L 766 224
L 766 224
L 766 224
L 766 224
L 766 224
L 766 224
L 766 224
L 766 224
L 766 224
L 766 223
L 766 223
L 766 223
L 766 223
L 766 223
L 766 223
L 766 223
L 766 223
L 766 223
L 766 223
L 766 223
L 766 223
L 766 223
L 766 223
L 766 223
L 766 223
L 766 223
L 766 223
L 766 223
L 766 223
L 766 223
L 766 223
L 766 223
L 767 223
L 767 223
L 767 223
L 767 223
L 767 223
L 767 222
L 767 222
L 767 222
L 767 222
L 767 222
L 767 222
L 767 222
L 767 222
L 768 222
L 768 222
L 768 222
L 768 222
L 768 222
L 768 222
L 768 222
L 768 222
L 768 222
L 768 222
L 768 222
L 768 222
L 768 222
L 768 222
L 768 222
L 768 222
L 768 222
L 768 222
L 768 222
L 768 222
L 768 222
L 768 221
L 768 221
L 768 221
L 769 221
L 769 221
L 769 221
L 769 221
L 769 221
L 769 221
L 769 221
L 769 221
L 769 221
L 769 221
L 769 221
L 769 221
L 769 221
L 769 221
L 769 221
L 769 221
L 769 221
L 769 221
L 769 221
L 769 221
L 769 221
L 769 221
L 769 221
L 769 221
L 769 221
L 769 220
L 769 220
L 769 220
L 769 220
L 770 220
L 770 220
L 770 220
L 770 220
L 770 220
L 770 220
L 770 220
L 770 220
L 770 220
L 770 220
L 770 220
L 770 220
L 770 220
L 770 220
L 770 220
L 770 220
L 770 220
L 770 220
L 770 220
L 770 220
L 770 220
L 770 220
L 770 220
L 770 220
L 770 220
L 770 219
L 770 219
L 770 219
L 770 219
L 770 219
L 771 219
L 771 219
L 771 219
L 771 219
L 771 219
L 771 219
L 771 219
L 771 219
L 771 219
L 771 219
L 771 219
L 771 219
L 771 219
L 771 219
L 771 219
L 771 219
L 771 219
L 771 219
L 771 219
L 771 219
L 771 219
L 772 219
L 772 219
L 772 218
L 772 218
L 772 218
L 772 218
L 772 218
L 772 218
L 772 218
L 772 218
L 772 218
L 772 218
L 772 218
L 772 218
L 772 218
L 772 218
L 772 218
L 772 218
L 772 218
L 772 218
L 772 218
L 772 218
L 772 218
L 772 218
L 772 218
L 772 218
L 772 218
L 772 218
L 772 218
L 772 218
L 773 218
L 773 217
L 773 217
L 773 217
L 773 217
L 773 217
L 773 217
L 773 217
L 773 217
L 773 217
L 773 217
L 773 217
L 773 217
L 773 217
L 773 217
L 773 217
L 773 217
L 773 217
L 773 217
L 773 217
L 773 217
L 773 217
L 773 217
L 773 217
L 773 217
L 773 217
L 773 217
L 774 217
L 774 217
L 774 216
L 774 216
L 774 216
L 774 216
L 774 216
L 774 216
L 774 216
L 774 216
L 774 216
L 774 216
L 774 216
L 774 216
L 774 216
L 774 216
L 774 216
L 774 216
L 774 216
L 775 216
L 775 216
L 775 216
L 775 216
L 775 216
L 775 216
L 775 216
L 775 216
L 775 216
L 775 216
L 775 216
L 775 216
L 775 215
L 775 215
L 775 215
L 775 215
L 775 215
L 775 215
L 775 215
L 776 215
L 776 215
L 776 215
L 776 215
L 776 215
L 776 215
L 776 215
L 776 215
L 776 215
L 777 215
L 777 215
L 777 215
L 777 215
L 777 215
L 777 215
L 777 215
L 777 215
L 777 215
L 777 215
L 777 215
L 777 215
L 777 215
L 777 214
L 777 214
L 777 214
L 777 214
L 778 214
L 778 214
L 778 214
L 778 214
L 778 214
L 778 214
L 778 214
L 778 214
L 778 214
L 778 214
L 778 214
L 778 214
L 778 214
L 778 214
L 778 214
L 778 214
L 778 214
L 778 214
L 778 214
L 778 214
L 778 214
L 778 214
L 778 214
L 778 214
L 778 213
L 779 213
L 779 213
L 779 213
L 779 213
L 779 213
L 779 213
L 779 213
L 779 213
L 779 213
L 779 213
L 779 213
L 779 213
L 779 213
L 779 213
L 779 213
L 779 213
L 779 213
L 779 213
L 779 213
L 779 213
L 780 213
L 780 213
L 780 213
L 780 213
L 780 213
L 780 213
L 780 213
L 780 213
L 780 212
L 780 212
L 780 212
L 780 212
L 780 212
L 780 212
L 780 212
L 780 212
L 781 212
L 781 212
L 781 212
L 781 212
L 781 212
L 781 212
L 781 212
L 781 212
L 782 212
L 782 212
L 782 212
L 782 212
L 782 212
L 782 212
L 782 212
L 782 212
L 783 212
L 783 212
L 783 212
L 783 212
L 783 211
L 783 211
L 783 211
L 783 211
L 783 211
L 783 211
L 783 211
L 783 211
L 783 211
L 783 211
L 783 211
L 783 211
L 783 211
L 783 211
L 783 211
L 783 211
L 783 211
L 783 211
L 783 211
L 783 211
L 783 211
L 783 211
L 783 211
L 783 211
L 783 211
L 783 211
L 783 211
L 783 211
L 783 211
L 783 210
L 783 210
L 783 210
L 783 210
L 783 210
L 783 210
L 783 210
L 783 210
L 783 210
L 783 210
L 783 210
L 783 210
L 783 210
L 784 210
L 784 210
L 784 210
L 784 210
L 784 210
L 784 210
L 784 210
L 784 210
L 784 210
L 784 210
L 784 210
L 784 210
L 784 210
L 784 210
L 784 210
L 784 209
L 784 209
L 784 209
L 784 209
L 784 209
L 784 209
L 784 209
L 784 209
L 784 209
L 784 209
L 784 209
L 784 209
L 784 209
L 784 209
L 784 209
L 784 209
L 784 209
L 784 209
L 784 209
L 784 209
L 784 209
L 784 209
L 784 209
L 784 209
L 784 209
L 784 209
L 784 209
L 784 209
L 784 209
L 784 208
L 784 208
L 784 208
L 784 208
L 784 208
L 784 208
L 784 208
L 784 208
L 784 208
L 784 208
L 784 208
L 784 208
L 784 208
L 784 208
L 784 208
L 784 208
L 784 208
L 784 208
L 784 208
L 784 208
L 784 208
L 784 208
L 784 208
L 784 208
L 784 208
L 784 208
L 784 208
L 784 208
L 784 207
L 784 207
L 784 207
L 784 207
L 784 207
L 784 207
L 784 207
L 784 207
L 784 207
L 784 207
L 784 207
L 784 207
L 784 207
L 784 207
L 784 207
L 784 207
L 784 207
L 784 207
L 784 207
L 784 207
L 784 207
L 784 207
L 784 207
L 784 207
L 784 207
L 784 207
L 784 207
L 784 207
L 784 207
L 784 206
L 784 206
L 784 206
L 784 206
L 784 206
L 784 206
L 784 206
L 784 206
L 784 206
L 784 206
L 784 206
L 784 206
L 784 206
L 784 206
L 784 206
L 784 206
L 784 206
L 784 206
L 784 206
L 784 206
L 784 206
L 784 206
L 784 206
L 784 206
L 784 206
L 784 206
L 784 206
L 784 206
L 784 205
L 784 205
L 784 205
L 784 205
L 784 205
L 784 205
L 784 205
L 784 205
L 784 205
L 784 205
L 784 205
L 784 205
L 784 205
L 784 205
L 784 205
L 784 205
L 784 205
L 784 205
L 784 205
L 784 205
L 784 205
L 784 205
L 784 205
L 784 205
L 784 205
L 784 205
L 784 205
L 784 205
L 784 205
L 784 204
L 784 204
L 784 204
L 784 204
L 784 204
L 784 204
L 784 204
L 784 204
L 784 204
L 784 204
L 784 204
L 784 204
L 784 204
L 784 204
L 784 204
L 784 204
L 784 204
L 784 204
L 784 204
L 784 204
L 784 204
L 784 204
L 784 204
L 784 204
L 784 204
L 784 204
L 784 204
L 784 204
L 784 203
L 784 203
L 784 203
L 784 203
L 784 203
L 784 203
L 784 203
L 784 203
L 784 203
L 784 203
L 784 203
L 784 203
L 784 203
L 784 203
L 784 203
L 784 203
L 784 203
L 784 203
L 784 203
L 784 203
L 784 203
L 784 203
L 784 203
L 784 203
L 784 203
L 784 203
L 784 203
L 784 203
L 784 203
L 784 202
L 784 202
L 784 202
L 784 202
L 784 202
L 784 202
L 784 202
L 784 202
L 784 202
L 784 202
L 784 202
L 784 202
L 784 202
L 784 202
L 784 202
L 784 202
L 784 202
L 784 202
L 784 202
L 784 202
L 784 202
L 784 202
L 784 202
L 784 202
L 784 202
L 784 202
L 784 202
L 784 202
L 784 201
L 784 201
L 784 201
L 784 201
L 784 201
L 784 201
L 784 201
L 784 201
L 784 201
L 784 201
L 784 201
L 784 201
L 784 201
L 784 201
L 784 201
L 784 201
L 784 201
L 784 201
L 784 201
L 784 201
L 784 201
L 784 201
L 784 201
L 784 201
L 784 201
L 785 201
L 785 201
L 785 201
L 785 201
L 785 200
L 785 200
L 785 200
L 785 200
L 785 200
L 785 200
L 785 200
L 785 200
L 785 200
L 785 200
L 785 200
L 785 200
L 785 200
L 785 200
L 785 200
L 785 200
L 785 200
L 785 200
L 785 200
L 785 200
L 785 200
L 785 200
L 785 200
L 785 200
L 785 200
L 785 200
L 785 200
L 785 200
L 785 199
L 785 199
L 785 199
L 785 199
L 785 199
L 785 199
L 785 199
L 785 199
L 785 199
L 785 199
L 785 199
L 785 199
L 785 199
L 785 199
L 785 199
L 785 199
L 785 199
L 785 199
L 785 199
L 785 199
L 785 199
L 785 199
L 785 199
L 785 199
L 785 199
L 785 199
L 785 199
L 785 199
L 785 199
L 785 198
L 785 198
L 785 198
L 785 198
L 785 198
L 785 198
L 785 198
L 785 198
L 785 198
L 785 198
L 785 198
L 785 198
L 785 198
L 785 198
L 785 198
L 785 198
L 785 198
L 785 198
L 785 198
L 785 198
L 785 198
L 785 198
L 785 198
L 785 198
L 785 198
L 785 198
L 785 198
L 785 198
L 785 198
L 785 197
L 785 197
L 785 197
L 785 197
L 785 197
L 785 197
L 785 197
L 785 197
L 785 197
L 785 197
L 785 197
L 785 197
L 785 197
L 785 197
L 785 197
L 785 197
L 785 197
L 785 197
L 785 197
L 785 197
L 785 197
L 785 197
L 785 197
L 785 197
L 785 197
L 785 197
L 785 197
L 785 197
L 785 196
L 785 196
L 785 196
L 785 196
L 785 196
L 785 196
L 785 196
L 785 196
L 785 196
L 785 196
L 785 196
L 785 196
L 785 196
L 785 196
L 785 196
L 785 196
L 785 196
L 785 196
L 785 196
L 785 196
L 785 196
L 785 196
L 785 196
L 785 196
L 785 196
L 785 196
L 785 196
L 785 196
L 785 196
L 785 195
L 785 195
L 785 195
L 785 195
L 785 195
L 785 195
L 785 195
L 785 195
L 785 195
L 785 195
L 785 195
L 785 195
L 785 195
L 785 195
L 785 195
L 785 195
L 785 195
L 785 195
L 785 195
L 785 195
L 785 195
L 785 195
L 785 195
L 785 195
L 785 195
L 785 195
L 785 195
L 785 195
L 785 194
L 785 194
L 785 194
L 785 194
L 785 194
L 785 194
L 785 194
L 785 194
L 785 194
L 785 194
L 785 194
L 785 194
L 785 194
L 785 194
L 785 194
L 785 194
L 785 194
L 785 194
L 785 194
L 785 194
L 785 194
L 785 194
L 785 194
L 785 194
L 785 194
L 785 194
L 785 194
L 785 194
L 785 194
L 785 193
L 785 193
L 785 193
L 785 193
L 785 193
L 785 193
L 785 193
L 785 193
L 785 193
L 785 193
L 785 193
L 785 193
L 785 193
L 785 193
L 785 193
L 785 193
L 785 193
L 785 193
L 785 193
L 785 193
L 785 193
L 785 193
L 785 193
L 785 193
L 785 193
L 785 193
L 785 193
L 785 193
L 785 192
L 785 192
L 785 192
L 785 192
L 785 192
L 785 192
L 785 192
L 785 192
L 785 192
L 785 192
L 785 192
L 785 192
L 785 192
L 785 192
L 785 192
L 785 192
L 785 192
L 785 192
L 785 192
L 785 192
L 785 192
L 785 192
L 785 192
L 785 192
L 785 192
L 785 192
L 785 192
L 785 192
L 785 192
L 785 191
L 785 191
L 785 191
L 785 191
L 785 191
L 785 191
L 785 191
L 785 191
L 785 191
L 785 191
L 785 191
L 785 191
L 785 191
L 785 191
L 785 191
L 785 191
L 785 191
L 785 191
L 785 191
L 785 191
L 785 191
L 785 191
L 785 191
L 785 191
L 785 191
L 785 191
L 785 191
L 785 191
L 785 190
L 785 190
L 785 190
L 785 190
L 785 190
L 785 190
L 785 190
L 785 190
L 785 190
L 785 190
L 785 190
L 785 190
L 785 190
L 785 190
L 785 190
L 785 190
L 785 190
L 785 190
L 785 190
L 785 190
L 785 190
L 785 190
L 785 190
L 785 190
L 785 190
L 785 190
L 785 190
L 785 190
L 785 190
L 785 189
L 785 189
L 785 189
L 785 189
L 785 189
L 785 189
L 785 189
L 785 189
L 785 189
L 785 189
L 785 189
L 785 189
L 785 189
L 785 189
L 785 189
L 785 189
L 785 189
L 785 189
L 785 189
L 785 189
L 785 189
L 785 189
L 785 189
L 785 189
L 785 189
L 785 189
L 785 189
L 785 189
L 785 188
L 785 188
L 785 188
L 785 188
L 785 188
L 785 188
L 785 188
L 785 188
L 785 188
L 785 188
L 785 188
L 785 188
L 785 188
L 785 188
L 785 188
L 786 188
L 786 188
L 786 188
L 786 188
L 786 188
L 786 188
L 786 188
L 786 188
L 786 188
L 786 188
L 786 188
L 786 188
L 786 188
L 786 188
L 786 187
L 786 187
L 786 187
L 786 187
L 786 187
L 786 187
L 786 187
L 786 187
L 786 187
L 786 187
L 786 187
L 786 187
L 786 187
L 786 187
L 786 187
L 786 187
L 786 187
L 786 187
L 786 187
L 786 187
L 786 187
L 786 187
L 786 187
L 786 187
L 786 187
L 786 187
L 786 187
L 786 187
L 786 186
L 786 186
L 786 186
L 786 186
L 786 186
L 786 186
L 786 186
L 786 186
L 786 186
L 786 186
L 786 186
L 786 186
L 786 186
L 786 186
L 786 186
L 786 186
L 786 186
L 786 186
L 786 186
L 786 186
L 786 186
L 786 186
L 786 186
L 786 186
L 786 186
L 786 186
L 786 186
L 786 186
L 786 186
L 786 185
L 786 185
L 786 185
L 786 185
L 786 185
L 786 185
L 786 185
L 786 185
L 786 185
L 786 185
L 786 185
L 786 185
L 786 185
L 786 185
L 786 185
L 786 185
L 786 185
L 786 185
L 786 185
L 786 185
L 786 185
L 786 185
L 786 185
L 786 185
L 786 185
L 786 185
L 786 185
L 786 185
L 786 184
L 786 184
L 786 184
L 786 184
L 786 184
L 786 184
L 786 184
L 786 184
L 786 184
L 786 184
L 786 184
L 786 184
L 786 184
L 786 184
L 786 184
L 786 184
L 786 184
L 786 184
L 786 184
L 786 184
L 786 184
L 786 184
L 786 184
L 786 184
L 786 184
L 786 184
L 786 184
L 786 184
L 786 184
L 786 183
L 786 183
L 786 183
L 786 183
L 786 183
L 786 183
L 786 183
L 786 183
L 786 183
L 786 183
L 786 183
L 786 183
L 786 183
L 786 183
L 786 183
L 786 183
L 786 183
L 786 183
L 786 183
L 786 183
L 786 183
L 786 183
L 786 183
L 786 183
L 786 183
L 786 183
L 786 183
L 786 183
L 786 182
L 786 182
L 786 182
L 786 182
L 786 182
L 786 182
L 786 182
L 786 182
L 786 182
L 786 182
L 786 182
L 786 182
L 786 182
L 786 182
L 786 182
L 786 182
L 786 182
L 786 182
L 786 182
L 786 182
L 786 182
L 786 182
L 786 182
L 786 182
L 786 182
L 786 182
L 786 182
L 786 182
L 786 182
L 786 181
L 786 181
L 786 181
L 786 181
L 786 181
L 786 181
L 786 181
L 786 181
L 786 181
L 786 181
L 786 181
L 786 181
L 786 181
L 786 181
L 786 181
L 786 181
L 786 181
L 786 181
L 786 181
L 786 181
L 786 181
L 786 181
L 786 181
L 786 181
L 786 181
L 786 181
L 786 181
L 786 181
L 786 181
L 786 180
L 786 180
L 786 180
L 786 180
L 786 180
L 786 180
L 786 180
L 786 180
L 786 180
L 786 180
L 786 180
L 786 180
L 786 180
L 786 180
L 786 180
L 786 180
L 786 180
L 786 180
L 786 180
L 786 180
L 786 180
L 786 180
L 786 180
L 786 180
L 786 180
L 786 180
L 786 180
L 786 180
L 786 179
L 786 179
L 786 179
L 786 179
L 786 179
L 786 179
L 786 179
L 786 179
L 786 179
L 786 179
L 786 179
L 786 179
L 786 179
L 786 179
L 786 179
L 786 179
L 786 179
L 786 179
L 786 179
L 786 179
L 786 179
L 786 179
L 786 179
L 786 179
L 786 179
L 786 179
L 786 179
L 786 179
L 786 179
L 786 178
L 786 178
L 786 178
L 786 178
L 786 178
L 786 178
L 786 178
L 786 178
L 786 178
L 786 178
L 786 178
L 786 178
L 786 178
L 786 178
L 786 178
L 786 178
L 786 178
L 786 178
L 786 178
L 786 178
L 786 178
L 786 178
L 786 178
L 786 178
L 786 178
L 786 178
L 786 178
L 786 178
L 786 177
L 786 177
L 786 177
L 786 177
L 786 177
L 787 177
L 787 177
L 787 177
L 787 177
L 787 177
L 787 177
L 787 177
L 787 177
L 787 177
L 787 177
L 787 177
L 787 177
L 787 177
L 787 177
L 787 177
L 787 177
L 787 177
L 787 177
L 787 177
L 787 177
L 787 177
L 787 177
L 787 177
L 787 177
L 787 176
L 787 176
L 787 176
L 787 176
L 787 176
L 787 176
L 787 176
L 787 176
L 787 176
L 787 176
L 787 176
L 787 176
L 787 176
L 787 176
L 787 176
L 787 176
L 787 176
L 787 176
L 787 176
L 787 176
L 787 176
L 787 176
L 787 176
L 787 176
L 787 176
L 787 176
L 787 176
L 787 176
L 787 175
L 787 175
L 787 175
L 787 175
L 787 175
L 787 175
L 787 175
L 787 175
L 787 175
L 787 175
L 787 175
L 787 175
L 787 175
L 787 175
L 787 175
L 787 175
L 787 175
L 787 175
L 787 175
L 787 175
L 787 175
L 787 175
L 787 175
L 787 175
L 787 175
L 787 175
L 787 175
L 787 175
L 787 175
L 787 174
L 787 174
L 787 174
L 787 174
L 787 174
L 787 174
L 787 174
L 787 174
L 787 174
L 787 174
L 787 174
L 787 174
L 787 174
L 787 174
L 787 174
L 787 174
L 787 174
L 787 174
L 787 174
L 787 174
L 787 174
L 787 174
L 787 174
L 787 174
L 787 174
L 787 174
L 787 174
L 787 174
L 787 173
L 787 173
L 787 173
L 787 173
L 787 173
L 787 173
L 787 173
L 787 173
L 787 173
L 787 173
L 787 173
L 787 173
L 787 173
L 787 173
L 787 173
L 787 173
L 787 173
L 787 173
L 787 173
L 787 173
L 787 173
L 787 173
L 787 173
L 787 173
L 787 173
L 787 173
L 787 173
L 787 173
L 787 173
L 787 172
L 787 172
L 787 172
L 787 172
L 787 172
L 787 172
L 787 172
L 787 172
L 787 172
L 787 172
L 787 172
L 787 172
L 787 172
L 787 172
L 787 172
L 787 172
L 787 172
L 787 172
L 787 172
L 787 172
L 787 172
L 787 172
L 787 172
L 787 172
L 787 172
L 787 172
L 787 172
L 787 172
L 787 171
L 787 171
L 787 171
L 787 171
L 787 171
L 787 171
L 787 171
L 787 171
L 787 171
L 787 171
L 787 171
L 787 171
L 787 171
L 787 171
L 787 171
L 787 171
L 787 171
L 787 171
L 787 171
L 787 171
L 787 171
L 787 171
L 787 171
L 787 171
L 787 171
L 787 171
L 787 171
L 787 171
L 787 171
L 787 170
L 787 170
L 787 170
L 787 170
L 787 170
L 787 170
L 787 170
L 787 170
L 787 170
L 787 170
L 787 170
L 787 170
L 787 170
L 787 170
L 787 170
L 787 170
L 787 170
L 787 170
L 787 170
L 787 170
L 787 170
L 787 170
L 788 170
L 788 170
L 788 170
L 788 170
L 788 170
L 788 170
L 788 169
L 788 169
L 788 169
L 788 169
L 788 169
L 788 169
L 788 169
L 788 169
L 788 169
L 788 169
L 788 169
L 788 169
L 788 169
L 788 169
L 788 169
L 788 169
L 788 169
L 788 169
L 788 169
L 788 169
L 788 169
L 788 169
L 788 169
L 788 169
L 788 169
L 788 169
L 788 169
L 789 169
L 789 169
L 789 168
L 789 168
L 789 168
L 789 168
L 789 168
L 789 168
L 789 168
L 789 168
L 789 168
L 789 168
L 789 168
L 789 168
L 789 168
L 789 168
L 789 168
L 789 168
L 789 168
L 789 168
L 789 168
L 789 168
L 789 168
L 789 168
L 789 168
L 789 168
L 789 168
L 789 168
L 789 168
L 789 168
L 789 167
L 789 167
L 789 167
L 789 167
L 789 167
L 789 167
L 789 167
L 789 167
L 789 167
L 789 167
L 789 167
L 789 167
L 789 167
L 789 167
L 789 167
L 789 167
L 789 167
L 789 167
L 789 167
L 789 167
L 789 167
L 789 167
L 789 167
L 789 167
L 789 167
L 789 167
L 789 167
L 789 167
L 789 167
L 789 166
L 789 166
L 789 166
L 789 166
L 789 166
L 789 166
L 789 166
L 789 166
L 789 166
L 789 166
L 789 166
L 789 166
L 789 166
L 789 166
L 789 166
L 789 166
L 789 166
L 789 166
L 789 166
L 789 166
L 789 166
L 789 166
L 789 166
L 789 166
L 789 166
L 789 166
L 789 166
L 789 166
L 790 165
L 790 165
L 790 165
L 790 165
L 790 165
L 790 165
L 790 165
L 790 165
L 790 165
L 790 165
L 790 165
L 790 165
L 790 165
L 790 165
L 790 165
L 790 165
L 790 165
L 790 165
L 790 165
L 790 165
L 790 165
L 790 165
L 790 165
L 790 165
L 790 165
L 790 165
L 790 165
L 790 165
L 790 165
L 790 164
L 790 164
L 790 164
L 790 164
L 790 164
L 790 164
L 790 164
L 790 164
L 790 164
L 790 164
L 790 164
L 790 164
L 790 164
L 790 164
L 790 164
L 790 164
L 790 164
L 790 164
L 790 164
L 790 164
L 790 164
L 790 164
L 790 164
L 790 164
L 790 164
L 790 164
L 790 164
L 790 164
L 790 163
L 790 163
L 790 163
L 790 163
L 790 163
L 790 163
L 791 163
L 791 163
L 791 163
L 791 163
L 791 163
L 791 163
L 791 163
L 791 163
L 791 163
L 791 163
L 791 163
L 791 163
L 791 163
L 791 163
L 791 163
L 791 163
L 791 163
L 791 163
L 791 163
L 791 163
L 791 163
L 791 163
L 791 163
L 791 162
L 791 162
L 791 162
L 791 162
L 791 162
L 791 162
L 791 162
L 791 162
L 791 162
L 791 162
L 791 162
L 791 162
L 791 162
L 791 162
L 791 162
L 791 162
L 791 162
L 792 162
L 792 162
L 792 162
L 792 162
L 792 162
L 792 162
L 792 162
L 792 162
L 792 162
L 792 162
L 792 162
L 792 162
L 792 161
L 792 161
L 792 161
L 793 161
L 793 161
L 793 161
L 793 161
L 793 161
L 793 161
L 793 161
L 793 161
L 793 161
L 793 161
L 793 161
L 793 161
L 793 161
L 793 161
L 793 161
L 793 161
L 793 161
L 793 161
L 793 161
L 793 161
L 793 161
L 793 161
L 793 161
L 793 161
L 793 161
L 793 160
L 793 160
L 794 160
L 794 160
L 794 160
L 794 160
L 794 160
L 794 160
L 794 160
L 794 160
L 794 160
L 794 160
L 794 160
L 794 160
L 794 160
L 794 160
L 794 160
L 794 160
L 794 160
L 794 160
L 794 160
L 794 160
L 794 160
L 794 160
L 794 160
L 794 160
L 794 160
L 794 160
L 794 160
L 794 159
L 794 159
L 794 159
L 794 159
L 794 159
L 795 159
L 795 159
L 795 159
L 795 159
L 795 159
L 795 159
L 795 159
L 795 159
L 795 159
L 795 159
L 795 159
L 795 159
L 795 159
L 795 159
L 795 159
L 795 159
L 795 159
L 795 159
L 795 159
L 796 159
L 796 159
L 796 159
L 796 159
L 796 158
L 796 158
L 796 158
L 796 158
L 796 158
L 796 158
L 796 158
L 796 158
L 796 158
L 796 158
L 796 158
L 796 158
L 796 158
L 796 158
L 796 158
L 796 158
L 796 158
L 796 158
L 796 158
L 796 158
L 796 158
L 796 158
L 796 158
L 796 158
L 796 158
L 796 158
L 796 158
L 797 158
L 797 158
L 797 157
L 797 157
L 797 157
L 797 157
L 797 157
L 797 157
L 797 157
L 797 157
L 797 157
L 797 157
L 797 157
L 797 157
L 797 157
L 797 157
L 797 157
L 797 157
L 797 157
L 797 157
L 797 157
L 798 157
L 798 157
L 798 157
L 798 157
L 798 157
L 798 157
L 798 157
L 798 157
L 798 157
L 798 156
L 798 156
L 798 156
L 798 156
L 799 156
L 799 156
L 799 156
L 799 156
L 799 156
L 799 156
L 799 156
L 799 156
L 799 156
L 799 156
L 799 156
L 799 156
L 800 156
L 800 156
L 800 156
L 800 156
L 800 156
L 800 156
L 800 156
L 800 156
L 800 156
L 800 156
L 800 156
L 800 156
L 800 156
L 800 155
L 800 155
L 800 155
L 800 155
L 800 155
L 800 155
L 800 155
L 800 155
L 800 155
L 800 155
L 800 155
L 800 155
L 800 155
L 800 155
L 800 155
L 800 155
L 800 155
L 800 155
L 800 155
L 800 155
L 800 155
L 800 155
L 800 155
L 800 155
L 800 155
L 800 155
L 800 155
L 800 155
L 800 154
L 800 154
L 800 154
L 801 154
L 801 154
L 801 154
L 801 154
L 801 154
L 801 154
L 801 154
L 801 154
L 801 154
L 801 154
L 801 154
L 801 154
L 801 154
L 801 154
L 801 154
L 801 154
L 801 154
L 801 154
L 801 154
L 801 154
L 801 154
L 801 154
L 801 154
L 801 154
L 801 154
L 801 154
L 801 153
L 801 153
L 801 153
L 801 153
L 801 153
L 801 153
L 801 153
L 801 153
L 801 153
L 801 153
L 801 153
L 801 153
L 801 153
L 801 153
L 801 153
L 801 153
L 801 153
L 801 153
L 801 153
L 801 153
L 801 153
L 801 153
L 801 153
L 801 153
L 802 153
L 802 153
L 802 153
L 802 153
L 802 152
L 802 152
L 802 152
L 802 152
L 802 152
L 802 152
L 802 152
L 802 152
L 802 152
L 802 152
L 802 152
L 802 152
L 802 152
L 802 152
L 802 152
L 802 152
L 802 152
L 802 152
L 802 152
L 802 152
L 802 152
L 802 152
L 802 152
L 802 152
L 802 152
L 802 152
L 802 152
L 802 152
L 802 152
L 802 151
L 802 151
L 802 151
L 802 151
L 802 151
L 802 151
L 802 151
L 803 151
L 803 151
L 803 151
L 803 151
L 803 151
L 803 151
L 803 151
L 803 151
L 803 151
L 803 151
L 803 151
L 803 151
L 803 151
L 803 151
L 803 151
L 803 151
L 803 151
L 803 151
L 803 151
L 803 151
L 803 151
L 803 150
L 803 150
L 803 150
L 803 150
L 803 150
L 803 150
L 803 150
L 804 150
L 804 150
L 804 150
L 804 150
L 804 150
L 804 150
L 804 150
L 804 150
L 804 150
L 804 150
L 804 150
L 804 150
L 804 150
L 804 150
L 804 150
L 804 150
L 804 150
L 804 150
L 804 150
L 804 150
L 804 150
L 804 150
L 804 149
L 804 149
L 804 149
L 804 149
L 804 149
L 804 149
L 804 149
L 804 149
L 804 149
L 804 149
L 804 149
L 804 149
L 804 149
L 804 149
L 804 149
L 804 149
L 804 149
L 804 149
L 805 149
L 805 149
L 805 149
L 805 149
L 805 149
L 805 149
L 805 149
L 805 149
L 805 149
L 805 149
L 805 148
L 805 148
L 805 148
L 805 148
L 805 148
L 805 148
L 805 148
L 805 148
L 805 148
L 805 148
L 805 148
L 806 148
L 806 148
L 806 148
L 806 148
L 806 148
L 806 148
L 806 148
L 806 148
L 806 148
L 806 148
L 806 148
L 806 148
L 806 148
L 806 148
L 806 148
L 806 148
L 806 148
L 806 148
L 806 147
L 806 147
L 806 147
L 806 147
L 806 147
L 806 147
L 806 147
L 806 147
L 806 147
L 806 147
L 806 147
L 806 147
L 806 147
L 806 147
L 807 147
L 807 147
L 807 147
L 807 147
L 807 147
L 807 147
L 807 147
L 807 147
L 807 147
L 807 147
L 807 147
L 807 147
L 807 147
L 807 147
L 807 147
L 807 146
L 807 146
L 807 146
L 807 146
L 808 146
L 808 146
L 808 146
L 808 146
L 809 146
L 809 146
L 809 146
L 809 146
L 809 146
L 809 146
L 809 146
L 809 146
L 809 146
L 809 146
L 810 146
L 810 146
L 810 146
L 810 146
L 810 146
L 810 146
L 810 146
L 810 146
L 810 146
L 810 146
L 810 145
L 810 145
L 810 145
L 810 145
L 810 145
L 811 145
L 811 145
L 811 145
L 811 145
L 811 145
L 811 145
L 811 145
L 811 145
L 811 145
L 811 145
L 811 145
L 812 145
L 812 145
L 812 145
L 812 145
L 812 145
L 812 145
L 812 145
L 812 145
L 812 145
L 812 145
L 812 145
L 812 145
L 813 145
L 813 144
L 813 144
L 813 144
L 813 144
L 813 144
L 813 144
L 813 144
L 813 144
L 813 144
L 813 144
L 814 144
L 814 144
L 814 144
L 814 144
L 814 144
L 814 144
L 814 144
L 814 144
L 814 144
L 815 144
L 815 144
L 815 144
L 815 144
L 815 144
L 815 144
L 815 144
L 815 144
L 815 144
L 815 143
L 815 143
L 816 143
L 816 143
L 816 143
L 816 143
L 816 143
L 816 143
L 816 143
L 816 143
L 816 143
L 816 143
L 816 143
L 817 143
L 817 143
L 817 143
L 817 143
L 817 143
L 817 143
L 817 143
L 817 143
L 817 143
L 817 143
L 817 143
L 817 143
L 817 143
L 817 143
L 818 143
L 818 143
L 818 142
L 818 142
L 818 142
L 818 142
L 818 142
L 818 142
L 818 142
L 818 142
L 818 142
L 818 142
L 818 142
L 818 142
L 818 142
L 818 142
L 819 142
L 819 142
L 819 142
L 819 142
L 819 142
L 819 142
L 819 142
L 820 142
L 820 142
L 820 142
L 820 142
L 820 142
L 820 142
L 820 142
L 820 141
L 820 141
L 820 141
L 821 141
L 821 141
L 821 141
L 821 141
L 821 141
L 821 141
L 821 141
L 821 141
L 821 141
L 821 141
L 821 141
L 821 141
L 821 141
L 821 141
L 821 141
L 821 141
L 822 141
L 822 141
L 822 141
L 822 141
L 822 141
L 822 141
L 822 141
L 822 141
L 822 141
L 822 141
L 822 140
L 822 140
L 822 140
L 823 140
L 823 140
L 823 140
L 823 140
L 823 140
L 823 140
L 823 140
L 823 140
L 823 140
L 823 140
L 823 140
L 824 140
L 824 140
L 824 140
L 824 140
L 824 140
L 824 140
L 825 140
L 825 140
L 825 140
L 825 140
L 825 140
L 825 140
L 825 140
L 825 140
L 826 139
L 826 139
L 826 139
L 826 139
L 826 139
L 826 139
L 826 139
L 826 139
L 826 139
L 826 139
L 826 139
L 826 139
L 826 139
L 826 139
L 826 139
L 826 139
L 826 139
L 826 139
L 826 139
L 826 139
L 826 139
L 826 139
L 826 139
L 826 139
L 826 139
L 826 139
L 826 139
L 826 139
L 826 139
L 826 138
L 826 138
L 826 138
L 826 138
L 826 138
L 826 138
L 826 138
L 826 138
L 826 138
L 827 138
L 827 138
L 827 138
L 827 138
L 827 138
L 827 138
L 827 138
L 827 138
L 827 138
L 827 138
L 827 138
L 827 138
L 827 138
L 827 138
L 827 138
L 827 138
L 827 138
L 827 138
L 827 138
L 827 137
L 827 137
L 827 137
L 828 137
L 828 137
L 828 137
L 828 137
L 828 137
L 828 137
L 828 137
L 828 137
L 828 137
L 828 137
L 828 137
L 828 137
L 828 137
L 828 137
L 828 137
L 828 137
L 828 137
L 828 137
L 828 137
L 828 137
L 828 137
L 828 137
L 828 137
L 828 137
L 828 137
L 828 137
L 829 136
L 829 136
L 829 136
L 829 136
L 829 136
L 829 136
L 829 136
L 829 136
L 829 136
L 829 136
L 829 136
L 829 136
L 829 136
L 829 136
L 829 136
L 830 136
L 830 136
L 830 136
L 830 136
L 830 136
L 830 136
L 830 136
L 830 136
L 830 136
L 830 136
L 830 136
L 830 136
L 830 136
L 830 135
L 831 135
L 831 135
L 831 135
L 831 135
L 831 135
L 831 135
L 831 135
L 831 135
L 831 135
L 831 135
L 831 135
L 832 135
L 832 135
L 832 135
L 832 135
L 832 135
L 832 135
L 832 135
L 832 135
L 832 135
L 832 135
L 832 135
L 832 135
L 832 135
L 832 135
L 832 135
L 833 135
L 833 135
L 833 134
L 833 134
L 833 134
L 833 134
L 833 134
L 833 134
L 833 134
L 833 134
L 833 134
L 833 134
L 833 134
L 833 134
L 833 134
L 833 134
L 833 134
L 833 134
L 834 134
L 834 134
L 834 134
L 834 134
L 834 134
L 834 134
L 834 134
L 834 134
L 834 134
L 834 134
L 835 134
L 835 134
L 835 133
L 835 133
L 835 133
L 835 133
L 835 133
L 835 133
L 835 133
L 836 133
L 836 133
L 836 133
L 836 133
L 836 133
L 836 133
L 836 133
L 836 133
L 836 133
L 836 133
L 836 133
L 836 133
L 837 133
L 837 133
L 837 133
L 837 133
L 837 133
L 837 133
L 837 133
L 837 133
L 837 133
L 837 133
L 838 132
L 838 132
L 838 132
L 838 132
L 838 132
L 838 132
L 838 132
L 838 132
L 838 132
L 838 132
L 838 132
L 838 132
L 838 132
L 838 132
L 838 132
L 839 132
L 839 132
L 839 132
L 839 132
L 839 132
L 839 132
L 839 132
L 839 132
L 839 132
L 839 132
L 839 132
L 839 132
L 839 132
L 839 131
L 839 131
L 840 131
L 840 131
L 840 131
L 840 131
L 840 131
L 840 131
L 840 131
L 840 131
L 840 131
L 841 131
L 841 131
L 841 131
L 841 131
L 841 131
L 841 131
L 841 131
L 841 131
L 841 131
L 841 131
L 841 131
L 842 131
L 842 131
L 842 131
L 842 131
L 842 131
L 842 131
L 842 131
L 842 130
L 842 130
L 842 130
L 842 130
L 842 130
L 842 130
L 842 130
L 842 130
L 842 130
L 842 130
L 842 130
L 842 130
L 842 130
L 843 130
L 843 130
L 843 130
L 843 130
L 843 130
L 843 130
L 843 130
L 843 130
L 843 130
L 843 130
L 843 130
L 843 130
L 843 130
L 843 130
L 843 130
L 843 130
L 844 129
L 844 129
L 844 129
L 844 129
L 844 129
L 844 129
L 844 129
L 844 129
L 844 129
L 845 129
L 845 129
L 845 129
L 845 129
L 845 129
L 845 129
L 845 129
L 845 129
L 845 129
L 846 129
L 846 129
L 846 129
L 846 129
L 846 129
L 846 129
L 846 129
L 846 129
L 846 129
L 846 129
L 846 128
L 847 128
L 847 128
L 847 128
L 847 128
L 847 128
L 847 128
L 847 128
L 848 128
L 848 128
L 848 128
L 848 128
L 848 128
L 848 128
L 848 128
L 848 128
L 848 128
L 848 128
L 848 128
L 848 128
L 848 128
L 848 128
L 848 128
L 849 128
L 849 128
L 849 128
L 849 128
L 849 128
L 849 128
L 849 127
L 849 127
L 849 127
L 849 127
L 849 127
L 849 127
L 849 127
L 849 127
L 849 127
L 849 127
L 850 127
L 850 127
L 850 127
L 850 127
L 850 127
L 850 127
L 850 127
L 850 127
L 850 127
L 851 127
L 851 127
L 851 127
L 851 127
L 851 127
L 851 127
L 852 127
L 852 127
L 852 127
L 852 126
L 852 126
L 852 126
L 852 126
L 852 126
L 852 126
L 852 126
L 852 126
L 852 126
L 852 126
L 852 126
L 852 126
L 853 126
L 853 126
L 853 126
L 853 126
L 853 126
L 853 126
L 853 126
L 853 126
L 853 126
L 853 126
L 853 126
L 853 126
L 854 126
L 854 126
L 854 126
L 854 126
L 854 126
L 854 125
L 854 125
L 854 125
L 854 125
L 854 125
L 854 125
L 854 125
L 854 125
L 854 125
L 854 125
L 854 125
L 854 125
L 854 125
L 854 125
L 854 125
L 854 125
L 854 125
L 854 125
L 854 125
L 854 125
L 854 125
L 854 125
L 854 125
L 854 125
L 854 125
L 854 125
L 854 125
L 854 125
L 854 124
L 854 124
L 854 124
L 854 124
L 854 124
L 854 124
L 854 124
L 854 124
L 854 124
L 854 124
L 854 124
L 854 124
L 854 124
L 854 124
L 854 124
L 855 124
L 855 124
L 855 124
L 855 124
L 855 124
L 855 124
L 855 124
L 855 124
L 855 124
L 855 124
L 855 124
L 855 124
L 855 124
L 855 124
L 855 123
L 855 123
L 855 123
L 855 123
L 855 123
L 855 123
L 855 123
L 855 123
L 855 123
L 855 123
L 855 123
L 855 123
L 855 123
L 855 123
L 855 123
L 855 123
L 855 123
L 855 123
L 855 123
L 855 123
L 855 123
L 855 123
L 856 123
L 856 123
L 856 123
L 856 123
L 856 123
L 856 123
L 856 122
L 856 122
L 856 122
L 856 122
L 856 122
L 856 122
L 856 122
L 856 122
L 856 122
L 856 122
L 856 122
L 856 122
L 856 122
L 856 122
L 856 122
L 856 122
L 856 122
L 856 122
L 856 122
L 856 122
L 857 122
L 857 122
L 857 122
L 857 122
L 857 122
L 857 122
L 857 122
L 857 122
L 857 122
L 857 121
L 857 121
L 857 121
L 857 121
L 857 121
L 858 121
L 858 121
L 858 121
L 858 121
L 858 121
L 858 121
L 858 121
L 858 121
L 858 121
L 858 121
L 858 121
L 858 121
L 858 121
L 858 121
L 858 121
L 858 121
L 858 121
L 858 121
L 858 121
L 858 121
L 858 121
L 858 121
L 858 121
L 858 120
L 858 120
L 858 120
L 858 120
L 858 120
L 858 120
L 858 120
L 858 120
L 858 120
L 858 120
L 858 120
L 858 120
L 858 120
L 858 120
L 858 120
L 858 120
L 858 120
L 858 120
L 858 120
L 858 120
L 859 120
L 859 120
L 859 120
L 859 120
L 859 120
L 859 120
L 859 120
L 859 120
L 859 120
L 859 119
L 859 119
L 859 119
L 859 119
L 859 119
L 859 119
L 859 119
L 859 119
L 859 119
L 859 119
L 859 119
L 859 119
L 859 119
L 859 119
L 859 119
L 859 119
L 859 119
L 859 119
L 859 119
L 859 119
L 859 119
L 859 119
L 859 119
L 859 119
L 859 119
L 859 119
L 859 119
L 859 119
L 859 118
L 859 118
L 859 118
L 859 118
L 859 118
L 859 118
L 859 118
L 859 118
L 859 118
L 859 118
L 859 118
L 859 118
L 859 118
L 859 118
L 859 118
L 859 118
L 859 118
L 859 118
L 859 118
L 859 118
L 859 118
L 859 118
L 859 118
L 859 118
L 859 118
L 859 118
L 859 118
L 859 118
L 859 118
L 859 117
L 859 117
L 859 117
L 859 117
L 859 117
L 859 117
L 859 117
L 859 117
L 859 117
L 860 117
L 860 117
L 860 117
L 860 117
L 860 117
L 860 117
L 860 117
L 860 117
L 860 117
L 860 117
L 860 117
L 860 117
L 860 117
L 860 117
L 860 117
L 860 117
L 860 117
L 860 117
L 860 117
L 860 116
L 860 116
L 860 116
L 860 116
L 860 116
L 860 116
L 860 116
L 860 116
L 860 116
L 860 116
L 860 116
L 860 116
L 860 116
L 860 116
L 860 116
L 860 116
L 860 116
L 860 116
L 860 116
L 860 116
L 860 116
L 860 116
L 860 116
L 860 116
L 860 116
L 860 116
L 860 116
L 860 116
L 860 116
L 860 115
L 860 115
L 860 115
L 860 115
L 861 115
L 861 115
L 861 115
L 861 115
L 861 115
L 861 115
L 861 115
L 861 115
L 861 115
L 861 115
L 861 115
L 861 115
L 861 115
L 861 115
L 861 115
L 861 115
L 861 115
L 861 115
L 861 115
L 861 115
L 861 115
L 861 115
L 861 115
L 861 115
L 861 114
L 861 114
L 861 114
L 861 114
L 861 114
L 861 114
L 861 114
L 861 114
L 861 114
L 861 114
L 861 114
L 861 114
L 861 114
L 861 114
L 861 114
L 861 114
L 861 114
L 861 114
L 861 114
L 861 114
L 861 114
L 861 114
L 861 114
L 861 114
L 861 114
L 862 114
L 862 114
L 862 114
L 862 114
L 862 113
L 862 113
L 862 113
L 862 113
L 862 113
L 862 113
L 862 113
L 862 113
L 862 113
L 862 113
L 862 113
L 862 113
L 862 113
L 862 113
L 862 113
L 862 113
L 862 113
L 862 113
L 863 113
L 863 113
L 863 113
L 863 113
L 863 113
L 863 113
L 863 113
L 863 113
L 863 113
L 863 113
L 863 113
L 863 112
L 863 112
L 863 112
L 863 112
L 863 112
L 863 112
L 863 112
L 863 112
L 863 112
L 863 112
L 863 112
L 863 112
L 863 112
L 863 112
L 863 112
L 863 112
L 863 112
L 863 112
L 863 112
L 863 112
L 863 112
L 863 112
L 864 112
L 864 112
L 864 112
L 864 112
L 864 112
L 864 112
L 864 111
L 864 111
L 864 111
L 864 111
L 864 111
L 864 111
L 864 111
L 864 111
L 864 111
L 864 111
L 864 111
L 864 111
L 864 111
L 864 111
L 864 111
L 864 111
L 865 111
L 865 111
L 865 111
L 865 111
L 865 111
L 865 111
L 865 111
L 865 111
L 865 111
L 865 111
L 865 111
L 865 111
L 865 111
L 865 110
L 865 110
L 865 110
L 865 110
L 865 110
L 865 110
L 866 110
L 866 110
L 866 110
L 866 110
L 866 110
L 866 110
L 866 110
L 866 110
L 866 110
L 866 110
L 866 110
L 866 110
L 866 110
L 867 110
L 867 110
L 867 110
L 867 110
L 867 110
L 867 110
L 867 110
L 867 110
L 867 110
L 867 109
L 867 109
L 867 109
L 867 109
L 867 109
L 868 109
L 868 109
L 868 109
L 868 109
L 868 109
L 868 109
L 868 109
L 868 109
L 868 109
L 868 109
L 868 109
L 868 109
L 868 109
L 868 109
L 868 109
L 868 109
L 868 109
L 868 109
L 868 109
L 868 109
L 868 109
L 869 109
L 869 109
L 869 109
L 869 108
L 869 108
L 869 108
L 869 108
L 869 108
L 869 108
L 869 108
L 869 108
L 869 108
L 869 108
L 869 108
L 869 108
L 869 108
L 869 108
L 869 108
L 869 108
L 869 108
L 869 108
L 869 108
L 869 108
L 869 108
L 869 108
L 870 108
L 870 108
L 870 108
L 870 108
L 870 108
L 870 108
L 870 107
L 870 107
L 870 107
L 870 107
L 870 107
L 870 107
L 870 107
L 870 107
L 870 107
L 870 107
L 870 107
L 870 107
L 870 107
L 870 107
L 870 107
L 870 107
L 870 107
L 870 107
L 870 107
L 870 107
L 870 107
L 870 107
L 870 107
L 870 107
L 871 107
L 871 107
L 871 107
L 871 107
L 871 107
L 871 106
L 871 106
L 871 106
L 871 106
L 871 106
L 871 106
L 871 106
L 871 106
L 871 106
L 871 106
L 871 106
L 871 106
L 871 106
L 871 106
L 871 106
L 871 106
L 871 106
L 872 106
L 872 106
L 872 106
L 872 106
L 872 106
L 872 106
L 872 106
L 872 106
L 872 106
L 872 106
L 872 106
L 872 105
L 872 105
L 872 105
L 872 105
L 872 105
L 872 105
L 872 105
L 872 105
L 872 105
L 872 105
L 872 105
L 872 105
L 872 105
L 872 105
L 872 105
L 872 105
L 872 105
L 872 105
L 872 105
L 872 105
L 872 105
L 872 105
L 873 105
L 873 105
L 873 105
L 873 105
L 873 105
L 873 105
L 873 105
L 873 104
L 873 104
L 873 104
L 873 104
L 874 104
L 874 104
L 874 104
L 874 104
L 874 104
L 874 104
L 874 104
L 874 104
L 874 104
L 874 104
L 874 104
L 874 104
L 874 104
L 875 104
L 875 104
L 875 104
L 875 104
L 875 104
L 875 104
L 875 104
L 875 104
L 875 104
L 875 104
L 875 104
L 875 103
L 875 103
L 875 103
L 875 103
L 875 103
L 875 103
L 875 103
L 875 103
L 876 103
L 876 103
L 876 103
L 876 103
L 876 103
L 876 103
L 876 103
L 876 103
L 876 103
L 876 103
L 876 103
L 876 103
L 876 103
L 876 103
L 876 103
L 876 103
L 876 103
L 876 103
L 876 103
L 876 103
L 876 103
L 876 102
L 876 102
L 876 102
L 876 102
L 876 102
L 876 102
L 876 102
L 877 102
L 877 102
L 877 102
L 877 102
L 877 102
L 877 102
L 877 102
L 877 102
L 877 102
L 877 102
L 877 102
L 877 102
L 877 102
L 877 102
L 877 102
L 877 102
L 877 102
L 877 102
L 877 102
L 878 102
L 878 102
L 878 101
L 878 101
L 878 101
L 878 101
L 878 101
L 878 101
L 878 101
L 878 101
L 878 101
L 878 101
L 878 101
L 878 101
L 878 101
L 878 101
L 878 101
L 878 101
L 878 101
L 879 101
L 879 101
L 879 101
L 879 101
L 879 101
L 879 101
L 879 101
L 879 101
L 879 101
L 880 101
L 880 101
L 880 101
L 880 100
L 880 100
L 880 100
L 880 100
L 880 100
L 880 100
L 880 100
L 880 100
L 880 100
L 880 100
L 880 100
L 880 100
L 881 100
L 881 100
L 881 100
L 881 100
L 881 100
L 881 100
L 881 100
L 881 100
L 881 100
L 881 100
L 881 100
L 881 100
L 881 100
L 881 100
L 881 100
L 882 100
L 882 99
L 882 99
L 882 99
L 882 99
L 882 99
L 882 99
L 882 99
L 882 99
L 882 99
L 883 99
L 883 99
L 883 99
L 883 99
L 883 99
L 883 99
L 883 99
L 883 99
L 884 99
L 884 99
L 884 99
L 884 99
L 884 99
L 884 99
L 884 99
L 884 99
L 884 99
L 884 99
L 884 99
L 884 99
L 885 98
L 885 98
L 885 98
L 885 98
L 886 98
L 886 98
L 886 98
L 886 98
L 886 98
L 886 98
L 886 98
L 886 98
L 887 98
L 887 98
L 887 98
L 887 98
L 887 98
L 887 98
L 887 98
L 887 98
L 887 98
L 888 98
L 888 98
L 888 98
L 888 98
L 888 98
L 888 98
L 889 98
L 889 97
L 889 97
L 889 97
L 889 97
L 889 97
L 889 97
L 889 97
L 889 97
L 889 97
L 890 97
L 890 97
L 890 97
L 890 97
L 890 97
L 890 97
L 890 97
L 891 97
L 891 97
L 891 97
L 891 97
L 891 97
L 891 97
L 891 97
L 891 97
L 891 97
L 891 97
L 891 97
L 891 97
L 891 97
L 891 96
L 891 96
L 891 96
L 891 96
L 891 96
L 891 96
L 891 96
L 891 96
L 891 96
L 891 96
L 891 96
L 891 96
L 892 96
L 892 96
L 892 96
L 892 96
L 892 96
L 892 96
L 892 96
L 892 96
L 892 96
L 892 96
L 892 96
L 892 96
L 892 96
L 892 96
L 892 96
L 892 96
L 892 96
L 892 95
L 892 95
L 892 95
L 892 95
L 892 95
L 892 95
L 892 95
L 892 95
L 892 95
L 892 95
L 892 95
L 892 95
L 892 95
L 892 95
L 893 95
L 893 95
L 893 95
L 893 95
L 893 95
L 893 95
L 893 95
L 893 95
L 893 95
L 893 95
L 893 95
L 893 95
L 893 95
L 894 95
L 894 94
L 894 94
L 895 94
L 895 94
L 895 94
L 895 94
L 895 94
L 895 94
L 895 94
L 895 94
L 895 94
L 895 94
L 896 94
L 896 94
L 896 94
L 896 94
L 896 94
L 896 94
L 896 94
L 896 94
L 896 94
L 896 94
L 896 94
L 896 94
L 897 94
L 897 94
L 897 94
L 897 94
L 897 94
L 897 93
L 897 93
L 897 93
L 898 93
L 898 93
L 898 93
L 898 93
L 898 93
L 898 93
L 898 93
L 898 93
L 898 93
L 898 93
L 898 93
L 899 93
L 899 93
L 899 93
L 899 93
L 899 93
L 899 93
L 899 93
L 900 93
L 900 93
L 900 93
L 900 93
L 900 93
L 900 93
L 901 93
L 901 92
L 901 92
L 901 92
L 901 92
L 901 92
L 901 92
L 901 92
L 901 92
L 901 92
L 901 92
L 901 92
L 901 92
L 901 92
L 901 92
L 902 92
L 902 92
L 902 92
L 902 92
L 902 92
L 902 92
L 902 92
L 902 92
L 902 92
L 902 92
L 902 92
L 902 92
L 902 92
L 902 92
L 902 92
L 902 91
L 902 91
L 902 91
L 902 91
L 902 91
L 902 91
L 902 91
L 902 91
L 902 91
L 902 91
L 902 91
L 902 91
L 902 91
L 903 91
L 903 91
L 903 91
L 903 91
L 903 91
L 903 91
L 903 91
L 903 91
L 903 91
L 903 91
L 904 91
L 904 91
L 904 91
L 904 91
L 904 91
L 904 90
L 904 90
L 904 90
L 904 90
L 904 90
L 904 90
L 904 90
L 904 90
L 905 90
L 905 90
L 905 90
L 905 90
L 905 90
L 905 90
L 905 90
L 905 90
L 905 90
L 905 90
L 905 90
L 906 90
L 906 90
L 906 90
L 906 90
L 906 90
L 906 90
L 906 90
L 906 90
L 906 90
L 906 90
L 906 89
L 906 89
L 906 89
L 906 89
L 906 89
L 907 89
L 907 89
L 907 89
L 907 89
L 907 89
L 907 89
L 907 89
L 907 89
L 907 89
L 907 89
L 907 89
L 907 89
L 907 89
L 908 89
L 908 89
L 908 89
L 908 89
L 908 89
L 908 89
L 908 89
L 908 89
L 908 89
L 908 89
L 908 88
L 909 88
L 909 88
L 909 88
L 909 88
L 909 88
L 909 88
L 909 88
L 909 88
L 909 88
L 909 88
L 909 88
L 909 88
L 909 88
L 909 88
L 909 88
L 909 88
L 910 88
L 910 88
L 910 88
L 910 88
L 910 88
L 910 88
L 911 88
L 911 88
L 911 88
L 911 88
L 911 88
L 911 88
L 911 87
L 911 87
L 911 87
L 911 87
L 911 87
L 911 87
L 912 87
L 912 87
L 912 87
L 912 87
L 912 87
L 913 87
L 913 87
L 913 87
L 913 87
L 913 87
L 913 87
L 913 87
L 913 87
L 914 87
L 914 87
L 914 87
L 914 87
L 914 87
L 914 87
L 914 87
L 914 87
L 914 87
L 914 86
L 914 86
L 915 86
L 915 86
L 915 86
L 915 86
L 916 86
L 916 86
L 916 86
L 916 86
L 916 86
L 917 86
L 917 86
L 917 86
L 917 86
L 917 86
L 917 86
L 917 86
L 918 86
L 918 86
L 918 86
L 918 86
L 918 86
L 918 86
L 918 86
L 918 86
L 918 86
L 918 86
L 918 86
L 918 85
L 918 85
L 918 85
L 918 85
L 918 85
L 918 85
L 919 85
L 919 85
L 919 85
L 919 85
L 919 85
L 919 85
L 919 85
L 919 85
L 919 85
L 919 85
L 919 85
L 919 85
L 919 85
L 919 85
L 919 85
L 919 85
L 919 85
L 920 85
L 920 85
L 920 85
L 920 85
L 920 85
L 920 84
L 920 84
L 920 84
L 920 84
L 920 84
L 920 84
L 920 84
L 921 84
L 921 84
L 921 84
L 921 84
L 921 84
L 921 84
L 921 84
L 921 84
L 921 84
L 921 84
L 922 84
L 922 84
L 922 84
L 922 84
L 922 84
L 922 84
L 922 84
L 922 84
L 922 84
L 922 84
L 922 84
L 922 84
L 922 83
L 923 83
L 923 83
L 923 83
L 923 83
L 923 83
L 923 83
L 923 83
L 923 83
L 923 83
L 923 83
L 923 83
L 924 83
L 924 83
L 924 83
L 924 83
L 924 83
L 924 83
L 925 83
L 925 83
L 925 83
L 925 83
L 925 83
L 926 83
L 926 83
L 926 83
L 927 83
L 927 83
L 927 82
L 927 82
L 927 82
L 927 82
L 927 82
L 928 82
L 928 82
L 928 82
L 928 82
L 928 82
L 928 82
L 928 82
L 928 82
L 928 82
L 928 82
L 928 82
L 928 82
L 929 82
L 929 82
L 929 82
L 929 82
L 929 82
L 929 82
L 929 82
L 929 82
L 929 82
L 929 82
L 929 82
L 929 82
L 930 81
L 930 81
L 930 81
L 930 81
L 930 81
L 930 81
L 930 81
L 930 81
L 930 81
L 930 81
L 930 81
L 930 81
L 930 81
L 930 81
L 930 81
L 930 81
L 930 81
L 930 81
L 930 81
L 930 81
L 930 81
L 930 81
L 930 81
L 930 81
L 930 81
L 930 81
L 930 81
L 930 81
L 930 80
L 930 80
L 930 80
L 931 80
L 931 80
L 931 80
L 931 80
L 931 80
L 931 80
L 931 80
L 931 80
L 931 80
L 931 80
L 931 80
L 931 80
L 931 80
L 931 80
L 931 80
L 931 80
L 931 80
L 931 80
L 931 80
L 931 80
L 931 80
L 932 80
L 932 80
L 932 80
L 932 80
L 932 80
L 932 79
L 932 79
L 932 79
L 932 79
L 932 79
L 932 79
L 932 79
L 932 79
L 932 79
L 932 79
L 932 79
L 932 79
L 932 79
L 932 79
L 932 79
L 932 79
L 932 79
L 932 79
L 932 79
L 932 79
L 933 79
L 933 79
L 933 79
L 933 79
L 933 79
L 933 79
L 933 79
L 933 79
L 933 79
L 933 78
L 933 78
L 933 78
L 933 78
L 933 78
L 933 78
L 933 78
L 933 78
L 933 78
L 933 78
L 933 78
L 933 78
L 933 78
L 933 78
L 933 78
L 933 78
L 933 78
L 933 78
L 933 78
L 933 78
L 933 78
L 933 78
L 933 78
L 933 78
L 933 78
L 933 78
L 933 78
L 933 78
L 933 77
L 933 77
L 933 77
L 933 77
L 933 77
L 933 77
L 933 77
L 933 77
L 933 77
L 933 77
L 933 77
L 933 77
L 933 77
L 933 77
L 933 77
L 933 77
L 933 77
L 933 77
L 933 77
L 933 77
L 933 77
L 933 77
L 933 77
L 933 77
L 933 77
L 933 77
L 933 77
L 933 77
L 933 77
L 933 76
L 933 76
L 933 76
L 933 76
L 933 76
L 933 76
L 933 76
L 933 76
L 933 76
L 933 76
L 933 76
L 933 76
L 933 76
L 933 76
L 933 76
L 933 76
L 933 76
L 933 76
L 933 76
L 933 76
L 933 76
L 933 76
L 933 76
L 933 76
L 933 76
L 933 76
L 933 76
L 933 76
L 933 75
L 933 75
L 933 75
L 933 75
L 933 75
L 933 75
L 933 75
L 933 75
L 933 75
L 933 75
L 933 75
L 933 75
L 933 75
L 933 75
L 933 75
L 933 75
L 933 75
L 933 75
L 933 75
L 933 75
L 933 75
L 933 75
L 933 75
L 933 75
L 933 75
L 933 75
L 933 75
L 933 75
L 933 75
L 933 74
L 933 74
L 933 74
L 933 74
L 933 74
L 933 74
L 933 74
L 933 74
L 933 74
L 933 74
L 933 74
L 933 74
L 933 74
L 933 74
L 933 74
L 933 74
L 933 74
L 933 74
L 933 74
L 933 74
L 933 74
L 933 74
L 933 74
L 933 74
L 933 74
L 933 74
L 933 74
L 933 74
L 933 73
L 933 73
L 933 73
L 933 73
L 933 73
L 933 73
L 933 73
L 933 73
L 933 73
L 933 73
L 933 73
L 933 73
L 933 73
L 933 73
L 933 73
L 933 73
L 933 73
L 933 73
L 933 73
L 933 73
L 933 73
L 933 73
L 933 73
L 933 73
L 933 73
L 933 73
L 933 73
L 933 73
L 934 73
L 934 72
L 934 72
L 934 72
L 934 72
L 934 72
L 934 72
L 934 72
L 934 72
L 934 72
L 934 72
L 934 72
L 934 72
L 934 72
L 934 72
L 934 72
L 934 72
L 934 72
L 934 72
L 934 72
L 934 72
L 934 72
L 934 72
L 934 72
L 934 72
L 934 72
L 934 72
L 934 72
L 934 72
L 934 71
L 934 71
L 934 71
L 934 71
L 934 71
L 934 71
L 934 71
L 934 71
L 934 71
L 934 71
L 934 71
L 934 71
L 934 71
L 934 71
L 934 71
L 934 71
L 934 71
L 934 71
L 934 71
L 934 71
L 934 71
L 934 71
L 934 71
L 934 71
L 934 71
L 934 71
L 934 71
L 934 71
L 934 71
L 934 70
L 934 70
L 934 70
L 934 70
L 934 70
L 934 70
L 934 70
L 934 70
L 934 70
L 934 70
L 934 70
L 934 70
L 934 70
L 934 70
L 934 70
L 934 70
L 934 70
L 934 70
L 934 70
L 934 70
L 934 70
L 934 70
L 934 70
L 934 70
L 934 70
L 934 70
L 934 70
L 934 70
L 934 69
L 934 69
L 934 69
L 934 69
L 934 69
L 934 69
L 934 69
L 934 69
L 934 69
L 934 69
L 934 69
L 934 69
L 934 69
L 934 69
L 934 69
L 934 69
L 934 69
L 934 69
L 934 69
L 934 69
L 934 69
L 934 69
L 934 69
L 934 69
L 934 69
L 934 69
L 934 69
L 934 69
L 934 69
L 934 68
L 934 68
L 934 68
L 934 68
L 934 68
L 934 68
L 934 68
L 934 68
L 934 68
L 934 68
L 934 68
L 934 68
L 934 68
L 934 68
L 934 68
L 934 68
L 934 68
L 935 68
L 935 68
L 935 68
L 935 68
L 935 68
L 935 68
L 935 68
L 935 68
L 935 68
L 935 68
L 935 68
L 935 67
L 935 67
L 935 67
L 935 67
L 935 67
L 935 67
L 935 67
L 935 67
L 935 67
L 935 67
L 935 67
L 935 67
L 935 67
L 935 67
L 935 67
L 935 67
L 935 67
L 935 67
L 935 67
L 935 67
L 935 67
L 935 67
L 935 67
L 935 67
L 935 67
L 935 67
L 935 67
L 935 67
L 935 67
L 935 66
L 935 66
L 935 66
L 935 66
L 935 66
L 935 66
L 935 66
L 935 66
L 935 66
L 935 66
L 935 66
L 935 66
L 935 66
L 935 66
L 935 66
L 935 66
L 935 66
L 935 66
L 935 66
L 935 66
L 935 66
L 935 66
L 935 66
L 935 66
L 935 66
L 935 66
L 935 66
L 935 66
L 935 65
L 935 65
L 935 65
L 935 65
L 935 65
L 935 65
L 935 65
L 935 65
L 935 65
L 935 65
L 935 65
L 935 65
L 935 65
L 935 65
L 935 65
L 935 65
L 935 65
L 935 65
L 935 65
L 935 65
L 935 65
L 935 65
L 935 65
L 935 65
L 935 65
L 935 65
L 935 65
L 935 65
L 935 65
L 935 64
L 935 64
L 935 64
L 935 64
L 935 64
L 935 64
L 935 64
L 935 64
L 935 64
L 935 64
L 935 64
L 935 64
L 935 64
L 935 64
L 935 64
L 935 64
L 935 64
L 935 64
L 935 64
L 935 64
L 935 64
L 935 64
L 935 64
L 935 64
L 935 64
L 935 64
L 935 64
L 935 64
L 935 63
L 935 63
L 935 63
L 935 63
L 935 63
L 935 63
L 935 63
L 935 63
L 935 63
L 935 63
L 935 63
L 935 63
L 935 63
L 935 63
L 935 63
L 935 63
L 935 63
L 935 63
L 935 63
L 935 63
L 935 63
L 935 63
L 935 63
L 935 63
L 935 63
L 935 63
L 935 63
L 935 63
L 935 63
L 935 62
L 935 62
L 935 62
L 935 62
L 935 62
L 935 62
L 935 62
L 935 62
L 935 62
L 935 62
L 935 62
L 935 62
L 935 62
L 935 62
L 935 62
L 935 62
L 935 62
L 935 62
L 935 62
L 935 62
L 935 62
L 935 62
L 935 62
L 935 62
L 935 62
L 935 62
L 935 62
L 935 62
L 935 62
L 935 61
L 935 61
L 935 61
L 935 61
L 935 61
L 935 61
L 935 61
L 935 61
L 935 61
L 935 61
L 935 61
L 935 61
L 935 61
L 935 61
L 935 61
L 935 61
L 935 61
L 935 61
L 935 61
L 935 61
L 935 61
L 935 61
L 935 61
L 935 61
L 935 61
L 935 61
L 935 61
L 935 61
L 935 60
L 935 60
L 935 60
L 935 60
L 935 60
L 935 60
L 935 60
L 935 60
L 935 60
L 935 60
L 935 60
L 935 60
L 935 60
L 935 60
L 935 60
L 935 60
L 935 60
L 935 60
L 935 60
L 935 60
L 935 60
L 935 60
L 935 60
L 935 60
L 935 60
L 935 60
L 935 60
L 935 60
L 935 60
L 935 59
L 935 59
L 935 59
L 935 59
L 935 59
L 935 59
L 935 59
L 935 59
L 935 59
L 935 59
L 935 59
L 935 59
L 935 59
L 935 59
L 935 59
L 935 59
L 935 59
L 935 59
L 935 59
L 935 59
L 935 59
L 935 59
L 935 59
L 935 59
L 935 59
L 935 59
L 935 59
L 935 59
L 935 58
L 935 58
L 935 58
L 935 58
L 935 58
L 935 58
L 935 58
L 935 58
L 935 58
L 935 58
L 935 58
L 935 58
L 935 58
L 935 58
L 935 58
L 935 58
L 935 58
L 935 58
L 935 58
L 935 58
L 935 58
L 935 58
L 935 58
L 935 58
L 935 58
L 935 58
L 935 58
L 935 58
L 935 58
L 935 57
L 935 57
L 935 57
L 935 57
L 935 57
L 935 57
L 935 57
L 935 57
L 935 57
L 935 57
L 935 57
L 935 57
L 935 57
L 935 57
L 935 57
L 935 57
L 935 57
L 935 57
L 935 57
L 935 57
L 935 57
L 935 57
L 935 57
L 935 57
L 935 57
L 935 57
L 935 57
L 935 57
L 935 56
L 935 56
L 935 56
L 935 56
L 936 56
L 936 56
L 936 56
L 936 56
L 936 56
L 936 56
L 936 56
L 936 56
L 936 56
L 936 56
L 936 56
L 936 56
L 936 56
L 936 56
L 936 56
L 936 56
L 936 56
L 936 56
L 936 56
L 936 56
L 936 56
L 936 56
L 936 56
L 936 56
L 936 56
L 936 55
L 936 55
L 936 55
L 936 55
L 936 55
L 936 55
L 936 55
L 936 55
L 936 55
L 936 55
L 936 55
L 936 55
L 936 55
L 936 55
L 936 55
L 936 55
L 936 55
L 936 55
L 936 55
L 936 55
L 936 55
L 936 55
L 936 55
L 936 55
L 936 55
L 936 55
L 936 55
L 936 55
L 936 54
L 936 54
L 936 54
L 936 54
L 936 54
L 936 54
L 936 54
L 936 54
L 936 54
L 936 54
L 936 54
L 936 54
L 936 54
L 936 54
L 936 54
L 936 54
L 936 54
L 936 54
L 936 54
L 936 54
L 936 54
L 936 54
L 936 54
L 936 54
L 936 54
L 936 54
L 936 54
L 936 54
L 936 54
L 936 53
L 936 53
L 936 53
L 936 53
L 936 53
L 936 53
L 936 53
L 936 53
L 936 53
L 936 53
L 936 53
L 936 53
L 936 53
L 936 53
L 936 53
L 936 53
L 936 53
L 936 53
L 936 53
L 936 53
L 936 53
L 936 53
L 936 53
L 936 53
L 936 53
L 936 53
L 936 53
L 936 53
L 936 52
L 936 52
L 936 52
L 936 52
L 936 52
L 936 52
L 936 52
L 936 52
L 936 52
L 936 52
L 936 52
L 936 52
L 936 52
L 936 52
L 936 52
L 936 52
L 936 52
L 936 52
L 936 52
L 936 52
L 936 52
L 936 52
L 936 52
L 936 52
L 936 52
L 936 52
L 936 52
L 936 52
L 936 52
L 936 51
L 936 51
L 936 51
L 936 51
L 936 51
L 936 51
L 936 51
L 936 51
L 936 51
L 936 51
L 936 51
L 936 51
L 936 51
L 936 51
L 936 51
L 936 51
L 936 51
L 936 51
L 936 51
L 936 51
L 936 51
L 936 51
L 936 51
L 936 51
L 936 51
L 936 51
L 936 51
L 936 51
L 936 50
L 936 50
L 936 50
L 936 50
L 936 50
L 936 50
L 936 50
L 936 50
L 936 50
L 936 50
L 936 50
L 936 50
L 936 50
L 936 50
L 936 50
L 936 50
L 936 50
L 936 50
L 936 50
L 936 50
L 936 50
L 936 50
L 936 50
L 936 50
L 936 50
L 936 50
L 936 50
L 936 50
L 936 50
L 936 49
L 936 49
L 936 49
L 936 49
L 936 49
L 936 49
L 936 49
L 936 49
L 936 49
L 936 49
L 936 49
L 936 49
L 936 49
L 936 49
L 936 49
L 936 49
L 936 49
L 936 49
L 936 49
L 936 49
L 936 49
L 936 49
L 936 49
L 936 49
L 936 49
L 936 49
L 936 49
L 936 49
L 936 48
L 936 48
L 936 48
L 936 48
L 936 48
L 936 48
L 936 48
L 936 48
L 936 48
L 936 48
L 937 48
L 937 48
L 937 48
L 937 48
L 937 48
L 937 48
L 937 48
L 937 48
L 937 48
L 937 48
L 937 48
L 937 48
L 937 48
L 937 48
L 937 48
L 937 48
L 937 48
L 937 48
L 937 48
L 937 47
L 937 47
L 937 47
L 937 47
L 937 47
L 937 47
L 937 47
L 937 47
L 937 47
L 937 47
L 937 47
L 937 47
L 937 47
L 937 47
L 937 47
L 937 47
L 937 47
L 937 47
L 937 47
L 937 47
L 937 47
L 937 47
L 937 47
L 937 47
L 937 47
L 937 47
L 937 47
L 937 47
L 937 46
L 937 46
L 937 46
L 937 46
L 937 46
L 937 46
L 937 46
L 937 46
L 937 46
L 937 46
L 937 46
L 937 46
L 937 46
L 937 46
L 937 46
L 937 46
L 937 46
L 937 46
L 937 46
L 937 46
L 937 46
L 937 46
L 937 46
L 937 46
L 937 46
L 937 46
L 937 46
L 937 46
L 937 46
L 937 45
L 937 45
L 937 45
L 937 45
L 937 45
L 937 45
L 937 45
L 937 45
L 937 45
L 937 45
L 937 45
L 937 45
L 937 45
L 937 45
L 937 45
L 937 45
L 937 45
L 937 45
L 937 45
L 937 45
L 937 45
L 937 45
L 937 45
L 937 45
L 937 45
L 937 45
L 937 45
L 937 45
L 937 45
L 937 44
L 937 44
L 937 44
L 937 44
L 937 44
L 937 44
L 937 44
L 937 44
L 937 44
L 937 44
L 937 44
L 937 44
L 937 44
L 937 44
L 937 44
L 937 44
L 937 44
L 937 44
L 937 44
L 937 44
L 937 44
L 937 44
L 937 44
L 937 44
L 937 44
L 937 44
L 937 44
L 937 44
L 937 43
L 937 43
L 937 43
L 937 43
L 937 43
L 937 43
L 937 43
L 937 43
L 937 43
L 937 43
L 937 43
L 937 43
L 937 43
L 937 43
L 937 43
L 937 43
L 937 43
L 937 43
L 937 43
L 937 43
L 937 43
L 937 43
L 937 43
L 937 43
L 937 43
L 937 43
L 937 43
L 937 43
L 937 43
L 937 42
L 937 42
L 937 42
L 937 42
L 937 42
L 937 42
L 937 42
L 937 42
L 937 42
L 937 42
L 937 42
L 937 42
L 937 42
L 937 42
L 937 42
L 937 42
L 937 42
L 937 42
L 937 42
L 937 42
L 937 42
L 937 42
L 937 42
L 937 42
L 937 42
L 937 42
L 937 42
L 937 42
L 937 41
L 937 41
L 937 41
L 937 41
L 937 41
L 937 41
L 937 41
L 937 41
L 937 41
L 937 41
L 937 41
L 937 41
L 937 41
L 937 41
L 937 41
L 937 41
L 937 41
L 937 41
L 937 41
L 937 41
L 937 41
L 937 41
L 937 41
L 937 41
L 937 41
L 937 41
L 937 41
L 937 41
L 937 41
L 937 40
L 937 40
L 937 40
L 937 40
L 937 40
L 937 40
L 937 40
L 937 40
L 937 40
L 937 40
L 937 40
L 938 40
L 938 40
L 938 40
L 938 40
L 938 40
L 938 40
L 938 40
L 938 40
L 938 40
L 938 40
L 938 40
L 938 40
L 938 40
L 938 40
L 938 40
L 938 40
L 938 40
L 938 39
L 938 39
L 938 39
L 938 39
L 938 39
L 938 39
L 938 39
L 938 39
L 938 39
L 938 39
L 938 39
L 938 39
L 938 39
L 938 39
L 938 39
L 938 39
L 938 39
L 938 39
L 938 39
L 938 39
L 938 39
L 938 39
L 938 39
L 938 39
L 938 39
L 938 39
L 938 39
L 938 39
L 938 39
L 938 38
L 938 38
L 938 38
L 938 38
L 938 38
L 938 38
L 938 38
L 938 38
L 938 38
L 938 38
L 938 38
L 938 38
L 938 38
L 938 38
L 938 38
L 938 38
L 938 38
L 938 38
L 938 38
L 938 38
L 938 38
L 938 38
L 938 38
L 938 38
L 938 38
L 938 38
L 938 38
L 938 38
L 938 37
L 938 37
L 938 37
L 938 37
L 938 37
L 938 37
L 938 37
L 938 37
L 938 37
L 938 37
L 938 37
L 938 37
L 938 37
L 938 37
L 938 37
L 938 37
L 938 37
L 938 37
L 938 37
L 938 37
L 938 37
L 938 37
L 938 37
L 938 37
L 938 37
L 938 37
L 938 37
L 938 37
L 938 37
L 938 36
L 938 36
L 938 36
L 938 36
L 938 36
L 938 36
L 938 36
L 938 36
L 938 36
L 938 36
L 938 36
L 938 36
L 938 36
L 938 36
L 938 36
L 938 36
L 938 36
L 938 36
L 938 36
L 938 36
L 938 36
L 938 36
L 938 36
L 938 36
L 938 36
L 938 36
L 938 36
L 938 36
L 938 35
L 938 35
L 938 35
L 938 35
L 938 35
L 938 35
L 938 35
L 938 35
L 938 35
L 938 35
L 938 35
L 938 35
L 938 35
L 938 35
L 938 35
L 938 35
L 938 35
L 938 35
L 938 35
L 938 35
L 938 35
L 938 35
L 938 35
L 938 35
L 938 35
L 938 35
L 938 35
L 938 35
L 938 35
L 938 34
L 938 34
L 938 34
L 938 34
L 938 34
L 938 34
L 938 34
L 938 34
L 938 34
L 938 34
L 938 34
L 938 34
L 938 34
L 938 34
L 938 34
L 938 34
L 938 34
L 938 34
L 938 34
L 938 34
L 938 34
L 938 34
L 938 34
L 938 34
L 938 34
L 938 34
L 938 34
L 938 34
L 938 33
L 938 33
L 938 33
L 938 33
L 938 33
L 938 33
L 938 33
L 938 33
L 938 33
L 938 33
L 938 33
L 938 33
L 938 33
L 938 33
L 938 33
L 938 33
L 938 33
L 938 33
L 938 33
L 938 33
L 938 33
L 938 33
L 938 33
L 938 33
L 938 33
L 938 33
L 938 33
L 938 33
L 938 33
L 938 32
L 938 32
L 938 32
L 938 32
L 938 32
L 938 32
L 938 32
L 938 32
L 938 32
L 938 32
L 938 32
L 938 32
L 938 32
L 938 32
L 938 32
L 938 32
L 938 32
L 938 32
L 938 32
L 938 32
L 938 32
L 938 32
L 938 32
L 938 32
L 938 32
L 938 32
L 938 32
L 938 32
L 938 31
L 938 31
L 938 31
L 938 31
L 938 31
L 938 31
L 938 31
L 938 31
L 938 31
L 938 31
L 938 31
L 938 31
L 938 31
L 938 31
L 938 31
L 938 31
L 938 31
L 938 31
L 938 31
L 938 31
L 938 31
L 938 31
L 938 31
L 938 31
L 938 31
L 938 31
L 938 31
L 938 31
L 938 31
L 938 30
L 938 30
L 938 30
L 938 30
L 938 30
L 938 30
L 938 30
L 938 30
L 938 30
L 938 30
L 938 30
L 938 30
L 938 30
L 938 30
L 938 30
L 938 30
L 938 30
L 938 30
L 938 30
L 938 30
L 938 30
L 938 30
L 938 30
L 938 30
L 938 30
L 938 30
L 938 30
L 938 30
L 938 29
L 938 29
L 938 29
L 938 29
L 938 29
L 938 29
L 938 29
L 938 29
L 938 29
L 938 29
L 938 29
L 938 29
L 938 29
L 938 29
L 938 29
L 938 29
L 938 29
L 938 29
L 938 29
L 938 29
L 938 29
L 938 29
L 939 29
L 939 29
L 939 29
L 939 29
L 939 29
L 939 29
L 939 29
L 939 28
L 939 28
L 939 28
L 939 28
L 939 28
L 939 28
L 939 28
L 939 28
L 939 28
L 939 28
L 939 28
L 939 28
L 939 28
L 939 28
L 939 28
L 939 28
L 939 28
L 939 28
L 939 28
L 939 28
L 939 28
L 939 28
L 939 28
L 939 28
L 939 28
L 939 28
L 939 28
L 939 28
L 939 28
L 939 27
L 939 27
L 939 27
L 939 27
L 939 27
L 939 27
L 939 27
L 939 27
L 939 27
L 939 27
L 939 27
L 939 27
L 939 27
L 939 27
L 939 27
L 939 27
L 939 27
L 939 27
L 939 27
L 939 27
L 939 27
L 939 27
L 939 27
L 939 27
L 939 27
L 939 27
L 939 27
L 939 27
L 939 26
L 939 26
L 939 26
L 939 26
L 940 26
L 940 26
L 940 26
L 940 26
L 940 26
L 940 26
L 940 26
L 940 26
L 940 26
L 940 26
L 940 26
L 940 26
L 940 26
L 940 26
L 940 26
L 940 26
L 940 26
L 940 26
L 940 26
L 940 26
L 940 26
L 940 26
L 940 26
L 940 26
L 940 26
L 940 25
L 940 25
L 940 25
L 940 25
L 940 25
L 940 25
L 940 25
L 940 25
L 940 25
L 940 25
L 940 25
L 940 25
L 940 25
L 940 25
L 940 25
L 940 25
L 940 25
L 940 25
L 940 25
L 940 25
L 940 25
L 940 25
L 940 25
L 941 25
L 941 25
L 941 25
L 941 25
L 941 25
L 941 24
L 941 24
L 941 24
L 941 24
L 941 24
L 941 24
L 941 24
L 941 24
L 941 24
L 941 24
L 941 24
L 941 24
L 941 24
L 941 24
L 941 24
L 941 24
L 941 24
L 941 24
L 941 24
L 941 24
L 941 24
L 941 24
L 941 24
L 941 24
L 941 24
L 941 24
L 941 24
L 941 24
L 941 24
L 941 23
L 941 23
L 941 23
L 941 23
L 941 23
L 941 23
L 941 23
L 941 23
L 941 23
L 941 23
L 942 23
L 942 23
L 942 23
L 942 23
L 942 23
L 942 23
L 942 23
L 942 23
L 942 23
L 942 23
L 942 23
L 942 23
L 942 23
L 942 23
L 942 23
L 942 23
L 942 23
L 942 23
L 942 22
L 942 22
L 943 22
L 943 22
L 943 22
L 943 22
L 943 22
L 943 22
L 943 22
L 943 22
L 943 22
L 943 22
L 943 22
L 943 22
L 943 22
L 943 22
L 943 22
L 943 22
L 943 22
L 943 22
L 943 22
L 943 22
L 944 22
L 944 22
L 944 22
L 944 22
L 944 22
L 944 22
L 944 22
L 944 21
L 944 21
L 944 21
L 944 21
L 944 21
L 944 21
L 944 21
L 944 21
L 944 21
L 944 21
L 944 21
L 944 21
L 944 21
L 944 21
L 945 21
L 945 21
L 945 21
L 945 21
L 945 21
L 945 21
L 945 21
L 945 21
L 945 21
L 945 21
L 945 21
L 945 21
L 945 21
L 945 21
L 945 20
L 945 20
L 945 20
L 945 20
L 945 20
L 945 20
L 945 20
L 945 20
L 945 20
L 946 20
L 946 20
L 946 20
L 946 20
L 946 20
L 946 20
L 946 20
L 946 20
L 947 20
L 947 20
L 947 20
L 947 20
L 947 20
L 947 20
L 947 20
L 947 20
L 947 20
L 947 20
L 947 20
L 947 20
L 948 19
L 948 19
L 948 19
L 948 19
L 948 19
L 948 19
L 948 19
L 948 19
L 948 19
L 948 19
L 948 19
L 949 19
L 949 19
L 949 19
L 949 19
L 949 19
L 949 19
L 949 19
L 949 19
L 949 19
L 949 19
L 949 19
L 949 19
L 949 19
L 949 19
L 949 19
L 949 19
L 949 19
L 949 18
L 950 18
L 950 18
L 950 18
L 950 18
L 950 18
L 950 18
L 950 18
L 950 18
L 950 18
L 950 18
L 950 18
L 950 18
L 950 18
L 950 18
L 950 18
L 950 18
L 950 18
L 950 18
L 950 18
L 950 18
L 950 18
L 950 18
L 950 18
L 950 18
L 951 18
L 951 18
L 951 18
L 951 18
L 951 17
L 951 17
L 951 17
L 951 17
L 951 17
L 951 17
L 951 17
L 951 17
L 951 17
L 952 17
L 952 17
L 952 17
L 952 17
L 952 17
L 952 17
L 952 17
L 952 17
L 952 17
L 952 17
L 952 17
L 952 17
L 953 17
L 953 17
L 953 17
L 953 17
L 953 17
L 953 17
L 953 17
L 954 16
L 954 16
L 954 16
L 954 16
L 954 16
L 954 16
L 954 16
L 954 16
L 954 16
L 954 16
L 954 16
L 954 16
L 954 16
L 954 16
L 954 16
L 954 16
L 954 16
L 954 16
L 954 16
L 954 16
L 954 16
L 954 16
L 955 16
L 955 16
L 955 16
L 955 16
L 955 16
L 955 16
L 955 16
L 955 15
L 955 15
L 955 15
L 955 15
L 955 15
L 955 15
L 955 15
L 955 15
L 955 15
L 955 15
L 955 15
L 955 15
L 955 15
L 955 15
L 955 15
L 955 15
L 955 15
L 955 15
L 955 15
L 955 15
L 955 15
L 955 15
L 955 15
L 955 15
L 955 15
L 955 15
L 955 15
L 955 15
L 956 14
L 956 14
L 956 14
L 956 14
L 956 14
L 956 14
L 956 14
L 956 14
L 956 14
L 956 14
L 956 14
L 956 14
L 956 14
L 956 14
L 956 14
L 956 14
L 956 14
L 956 14
L 956 14
L 956 14
L 956 14
L 956 14
L 956 14
L 956 14
L 956 14
L 956 14
L 956 14
L 956 14
L 956 14
L 957 13
L 957 13
L 957 13
L 957 13
L 957 13
L 957 13
L 957 13
L 957 13
L 957 13
L 957 13
L 957 13
L 957 13
L 957 13
L 957 13
L 957 13
L 957 13
L 957 13
L 957 13
L 957 13
L 957 13
L 957 13
L 957 13
L 957 13
L 957 13
L 957 13
L 957 13
L 957 13
L 957 13
L 957 12
L 957 12
L 957 12
L 957 12
L 957 12
L 957 12
L 957 12
L 957 12
L 957 12
L 957 12
L 957 12
L 957 12
L 957 12" style="stroke-width:2;stroke:rgba(129,199,239,1.0);fill:none"/></svg>