<!-- stars: 9250 -->
<svg xmlns="http://www.w3.org/2000/svg" xmlns:xlink="http://www.w3.org/1999/xlink" width="1024" height="400">\n<path  d="M 0 0
L 1024 0
L 1024 400
L 0 400
L 0 0" style="stroke-width:0;stroke:rgba(255,255,255,1.0);fill:rgba(255,255,255,1.0)"/><path  d="M 38 11
L 957 11
L 957 351
L 38 351
L 38 11" style="stroke-width:0;stroke:rgba(255,255,255,1.0);fill:rgba(255,255,255,1.0)"/><path  d="M 38 351
L 957 351" style="stroke-width:2;stroke:rgba(85,85,85,1.0);fill:none"/><path  d="M 38 351
L 38 356" style="stroke-width:2;stroke:rgba(85,85,85,1.0);fill:none"/><text x="5" y="373" style="stroke-width:0;stroke:none;fill:rgba(51,51,51,1.0);font-size:12.8px;font-family:'Roboto Medium',sans-serif">2018-09-25</text><path  d="M 153 351
L 153 356" style="stroke-width:2;stroke:rgba(85,85,85,1.0);fill:none"/><text x="120" y="373" style="stroke-width:0;stroke:none;fill:rgba(51,51,51,1.0);font-size:12.8px;font-family:'Roboto Medium',sans-serif">2019-02-19</text><path  d="M 268 351
L 268 356" style="stroke-width:2;stroke:rgba(85,85,85,1.0);fill:none"/><text x="235" y="373" style="stroke-width:0;stroke:none;fill:rgba(51,51,51,1.0);font-size:12.8px;font-family:'Roboto Medium',sans-serif">2019-07-16</text><path  d="M 383 351
L 383 356" style="stroke-width:2;stroke:rgba(85,85,85,1.0);fill:none"/><text x="350" y="373" style="stroke-width:0;stroke:none;fill:rgba(51,51,51,1.0);font-size:12.8px;font-family:'Roboto Medium',sans-serif">2019-12-10</text><path  d="M 498 351
L 498 356" style="stroke-width:2;stroke:rgba(85,85,85,1.0);fill:none"/><text x="465" y="373" style="stroke-width:0;stroke:none;fill:rgba(51,51,51,1.0);font-size:12.8px;font-family:'Roboto Medium',sans-serif">2020-05-04</text><path  d="M 613 351
L 613 356" style="stroke-width:2;stroke:rgba(85,85,85,1.0);fill:none"/><text x="580" y="373" style="stroke-width:0;stroke:none;fill:rgba(51,51,51,1.0);font-size:12.8px;font-family:'Roboto Medium',sans-serif">2020-09-28</text><path  d="M 728 351
L 728 356" style="stroke-width:2;stroke:rgba(85,85,85,1.0);fill:none"/><text x="695" y="373" style="stroke-width:0;stroke:none;fill:rgba(51,51,51,1.0);font-size:12.8px;font-family:'Roboto Medium',sans-serif">2021-02-22</text><path  d="M 843 351
L 843 356" style="stroke-width:2;stroke:rgba(85,85,85,1.0);fill:none"/><text x="810" y="373" style="stroke-width:0;stroke:none;fill:rgba(51,51,51,1.0);font-size:12.8px;font-family:'Roboto Medium',sans-serif">2021-07-19</text><path  d="M 957 351
L 957 356" style="stroke-width:2;stroke:rgba(85,85,85,1.0);fill:none"/><text x="924" y="373" style="stroke-width:0;stroke:none;fill:rgba(51,51,51,1.0);font-size:12.8px;font-family:'Roboto Medium',sans-serif">2021-12-13</text><text x="483" y="395" style="stroke-width:0;stroke:none;fill:rgba(51,51,51,1.0);font-size:12.8px;font-family:'Roboto Medium',sans-serif">Time</text><path  d="M 959 351
L 959 11" style="stroke-width:2;stroke:rgba(85,85,85,1.0);fill:none"/><path  d="M 959 351
L 964 351" style="stroke-width:2;stroke:rgba(85,85,85,1.0);fill:none"/><text x="969" y="357" style="stroke-width:0;stroke:none;fill:rgba(51,51,51,1.0);font-size:12.8px;font-family:'Roboto Medium',sans-serif">0</text><path  d="M 959 308
L 964 308" style="stroke-width:2;stroke:rgba(85,85,85,1.0);fill:none"/><text x="969" y="314" style="stroke-width:0;stroke:none;fill:rgba(51,51,51,1.0);font-size:12.8px;font-family:'Roboto Medium',sans-serif">1170</text><path  d="M 959 265
L 964 265" style="stroke-width:2;stroke:rgba(85,85,85,1.0);fill:none"/><text x="969" y="271" style="stroke-width:0;stroke:none;fill:rgba(51,51,51,1.0);font-size:12.8px;font-family:'Roboto Medium',sans-serif">2330</text><path  d="M 959 223
L 964 223" style="stroke-width:2;stroke:rgba(85,85,85,1.0);fill:none"/><text x="969" y="229" style="stroke-width:0;stroke:none;fill:rgba(51,51,51,1.0);font-size:12.8px;font-family:'Roboto Medium',sans-serif">3490</text><path  d="M 959 181
L 964 181" style="stroke-width:2;stroke:rgba(85,85,85,1.0);fill:none"/><text x="969" y="187" style="stroke-width:0;stroke:none;fill:rgba(51,51,51,1.0);font-size:12.8px;font-family:'Roboto Medium',sans-serif">4650</text><path  d="M 959 138
L 964 138" style="stroke-width:2;stroke:rgba(85,85,85,1.0);fill:none"/><text x="969" y="144" style="stroke-width:0;stroke:none;fill:rgba(51,51,51,1.0);font-size:12.8px;font-family:'Roboto Medium',sans-serif">5820</text><path  d="M 959 95
L 964 95" style="stroke-width:2;stroke:rgba(85,85,85,1.0);fill:none"/><text x="969" y="101" style="stroke-width:0;stroke:none;fill:rgba(51,51,51,1.0);font-size:12.8px;font-family:'Roboto Medium',sans-serif">6980</text><path  d="M 959 53
L 964 53" style="stroke-width:2;stroke:rgba(85,85,85,1.0);fill:none"/><text x="969" y="59" style="stroke-width:0;stroke:none;fill:rgba(51,51,51,1.0);font-size:12.8px;font-family:'Roboto Medium',sans-serif">8140</text><path  d="M 959 11
L 964 11" style="stroke-width:2;stroke:rgba(85,85,85,1.0);fill:none"/><text x="969" y="17" style="stroke-width:0;stroke:none;fill:rgba(51,51,51,1.0);font-size:12.8px;font-family:'Roboto Medium',sans-serif">9300</text><text x="1009" y="150" style="stroke-width:0;stroke:none;fill:rgba(51,51,51,1.0);font-size:12.8px;font-family:'Roboto Medium',sans-serif" transform="rotate(90.00,1009,150)">Stargazers</text><path  d="M 38 351
L 40 350
L 50 350
L 51 350
L 51 350
L 51 350
L 51 350
L 54 350
L 54 350
L 55 350
L 57 350
L 57 350
L 58 350
L 58 350
L 58 350
L 58 350
L 61 350
L 67 350
L 67 350
L 69 350
L 69 350
L 70 350
L 72 350
L 72 350
L 74 350
L 74 350
L 79 350
L 83 350
L 88 349
L 88 349
L 93 349
L 94 349
L 94 349
L 94 349
L 94 349
L 94 349
L 94 349
L 94 349
L 95 349
L 95 349
L 95 349
L 97 349
L 98 349
L 98 349
L 99 349
L 99 349
L 99 349
L 100 349
L 100 349
L 101 349
L 103 349
L 103 349
L 104 349
L 105 349
L 107 349
L 108 348
L 108 348
L 109 348
L 110 348
L 110 348
L 110 348
L 110 348
L 111 348
L 111 348
L 111 348
L 112 348
L 112 348
L 112 348
L 112 348
L 112 348
L 112 348
L 113 348
L 113 348
L 114 348
L 115 348
L 115 348
L 116 348
L 116 348
L 117 348
L 118 348
L 120 348
L 120 348
L 120 348
L 120 347
L 120 347
L 120 347
L 121 347
L 122 347
L 122 347
L 122 347
L 123 347
L 123 347
L 125 347
L 126 347
L 126 347
L 126 347
L 127 347
L 127 347
L 129 347
L 131 347
L 133 347
L 133 347
L 133 347
L 134 347
L 134 347
L 141 347
L 144 347
L 148 347
L 148 347
L 150 347
L 150 346
L 150 346
L 151 346
L 151 346
L 153 346
L 153 346
L 154 346
L 154 346
L 154 346
L 154 346
L 155 346
L 155 346
L 156 346
L 158 346
L 158 346
L 161 346
L 161 346
L 164 346
L 164 346
L 165 346
L 165 346
L 166 346
L 166 346
L 167 346
L 167 346
L 168 346
L 169 346
L 169 345
L 171 345
L 172 345
L 172 345
L 174 345
L 174 345
L 175 345
L 176 345
L 176 345
L 176 345
L 177 345
L 178 345
L 181 345
L 182 345
L 182 345
L 182 345
L 182 345
L 183 345
L 183 345
L 183 345
L 184 345
L 184 345
L 184 345
L 185 345
L 185 345
L 186 345
L 186 345
L 186 345
L 186 344
L 186 344
L 187 344
L 187 344
L 187 344
L 187 344
L 187 344
L 187 344
L 187 344
L 187 344
L 188 344
L 188 344
L 188 344
L 189 344
L 191 344
L 191 344
L 191 344
L 192 344
L 192 344
L 193 344
L 193 344
L 193 344
L 193 344
L 193 344
L 193 344
L 194 344
L 194 344
L 195 343
L 197 343
L 197 343
L 198 343
L 200 343
L 200 343
L 202 343
L 203 343
L 203 343
L 203 343
L 204 343
L 204 343
L 204 343
L 204 343
L 204 343
L 206 343
L 206 343
L 207 343
L 207 343
L 208 343
L 208 343
L 208 343
L 209 343
L 209 343
L 210 343
L 210 343
L 211 343
L 211 342
L 212 342
L 213 342
L 214 342
L 215 342
L 216 342
L 216 342
L 216 342
L 216 342
L 217 342
L 217 342
L 220 342
L 221 342
L 224 342
L 225 342
L 226 342
L 228 342
L 229 342
L 229 342
L 229 342
L 231 342
L 235 342
L 235 342
L 236 342
L 236 342
L 236 342
L 237 342
L 237 342
L 237 341
L 238 341
L 238 341
L 244 341
L 246 341
L 247 341
L 247 341
L 247 341
L 247 341
L 247 341
L 247 341
L 247 341
L 248 341
L 248 341
L 249 341
L 249 341
L 251 341
L 252 341
L 252 341
L 254 341
L 254 341
L 254 341
L 255 341
L 256 341
L 257 341
L 257 341
L 258 341
L 258 340
L 258 340
L 258 340
L 258 340
L 258 340
L 259 340
L 259 340
L 259 340
L 259 340
L 260 340
L 260 340
L 260 340
L 261 340
L 261 340
L 261 340
L 262 340
L 262 340
L 263 340
L 264 340
L 266 340
L 266 340
L 267 340
L 267 340
L 267 340
L 268 340
L 268 340
L 271 340
L 272 339
L 273 339
L 274 339
L 276 339
L 277 339
L 278 339
L 279 339
L 279 339
L 279 339
L 280 339
L 285 339
L 289 339
L 289 339
L 290 339
L 292 339
L 293 339
L 295 339
L 297 339
L 300 339
L 300 339
L 300 339
L 301 339
L 303 339
L 308 339
L 308 339
L 308 339
L 309 339
L 309 339
L 320 338
L 320 338
L 321 338
L 321 338
L 321 338
L 322 338
L 322 338
L 322 338
L 322 338
L 322 338
L 322 338
L 322 338
L 323 338
L 323 338
L 324 338
L 327 338
L 327 338
L 328 338
L 333 338
L 335 338
L 336 338
L 336 338
L 337 338
L 337 338
L 338 338
L 340 338
L 340 338
L 340 337
L 340 337
L 341 337
L 341 337
L 342 337
L 344 337
L 345 337
L 345 337
L 346 337
L 350 337
L 361 337
L 362 337
L 365 337
L 368 337
L 368 337
L 370 337
L 372 337
L 372 337
L 372 337
L 373 337
L 373 337
L 374 337
L 374 337
L 378 337
L 378 337
L 380 337
L 381 337
L 386 336
L 386 336
L 386 336
L 391 336
L 393 336
L 394 336
L 395 336
L 395 336
L 395 336
L 396 336
L 396 336
L 396 336
L 396 336
L 397 336
L 397 336
L 397 336
L 399 336
L 400 336
L 403 336
L 404 336
L 406 336
L 409 336
L 410 336
L 410 336
L 411 336
L 411 336
L 412 336
L 413 336
L 415 335
L 415 335
L 420 335
L 420 335
L 421 335
L 422 335
L 423 335
L 425 335
L 427 335
L 430 335
L 433 335
L 435 335
L 435 335
L 436 335
L 439 335
L 445 335
L 447 335
L 449 335
L 451 335
L 451 335
L 451 335
L 452 335
L 453 335
L 453 335
L 454 335
L 455 335
L 455 335
L 456 334
L 456 334
L 456 334
L 456 334
L 458 334
L 458 334
L 459 334
L 459 334
L 460 334
L 461 334
L 461 334
L 461 334
L 461 334
L 461 334
L 461 334
L 461 334
L 462 334
L 462 334
L 462 334
L 462 334
L 462 334
L 464 334
L 464 334
L 465 334
L 466 334
L 467 334
L 467 334
L 467 334
L 467 333
L 468 333
L 469 333
L 469 333
L 469 333
L 469 333
L 470 333
L 470 333
L 470 333
L 470 333
L 471 333
L 471 333
L 472 333
L 473 333
L 475 333
L 475 333
L 476 333
L 476 333
L 476 333
L 476 333
L 477 333
L 477 333
L 478 333
L 478 333
L 478 333
L 478 333
L 478 333
L 478 332
L 478 332
L 478 332
L 478 332
L 478 332
L 478 332
L 478 332
L 479 332
L 479 332
L 479 332
L 479 332
L 480 332
L 480 332
L 480 332
L 480 332
L 481 332
L 481 332
L 481 332
L 482 332
L 483 332
L 483 332
L 484 332
L 484 332
L 484 332
L 485 332
L 486 332
L 486 332
L 486 331
L 486 331
L 486 331
L 487 331
L 487 331
L 487 331
L 487 331
L 487 331
L 487 331
L 487 331
L 487 331
L 487 331
L 487 331
L 487 331
L 487 331
L 487 331
L 487 331
L 487 331
L 487 331
L 487 331
L 487 331
L 487 331
L 487 331
L 487 331
L 487 331
L 488 331
L 488 331
L 488 331
L 488 330
L 488 330
L 489 330
L 489 330
L 489 330
L 489 330
L 489 330
L 489 330
L 490 330
L 490 330
L 490 330
L 490 330
L 491 330
L 491 330
L 492 330
L 492 330
L 493 330
L 493 330
L 493 330
L 493 330
L 493 330
L 493 330
L 494 330
L 494 330
L 494 330
L 494 330
L 495 330
L 496 329
L 497 329
L 497 329
L 497 329
L 499 329
L 499 329
L 500 329
L 500 329
L 500 329
L 500 329
L 500 329
L 500 329
L 500 329
L 500 329
L 501 329
L 501 329
L 502 329
L 502 329
L 503 329
L 503 329
L 504 329
L 504 329
L 504 329
L 505 329
L 505 329
L 505 329
L 505 329
L 506 328
L 506 328
L 506 328
L 507 328
L 507 328
L 507 328
L 507 328
L 507 328
L 508 328
L 509 328
L 509 328
L 510 328
L 511 328
L 511 328
L 511 328
L 511 328
L 512 328
L 512 328
L 513 328
L 513 328
L 513 328
L 513 328
L 514 328
L 514 328
L 515 328
L 515 328
L 515 328
L 516 328
L 516 327
L 516 327
L 516 327
L 516 327
L 516 327
L 517 327
L 517 327
L 517 327
L 517 327
L 517 327
L 517 327
L 518 327
L 518 327
L 518 327
L 519 327
L 520 327
L 520 327
L 520 327
L 520 327
L 521 327
L 521 327
L 522 327
L 522 327
L 523 327
L 523 327
L 523 327
L 523 327
L 523 326
L 523 326
L 523 326
L 523 326
L 524 326
L 524 326
L 524 326
L 524 326
L 524 326
L 524 326
L 524 326
L 524 326
L 524 326
L 524 326
L 524 326
L 524 326
L 525 326
L 525 326
L 525 326
L 525 326
L 525 326
L 526 326
L 527 326
L 527 326
L 528 326
L 528 326
L 529 326
L 529 325
L 529 325
L 529 325
L 529 325
L 530 325
L 530 325
L 530 325
L 530 325
L 530 325
L 530 325
L 530 325
L 530 325
L 531 325
L 531 325
L 531 325
L 531 325
L 531 325
L 531 325
L 531 325
L 531 325
L 531 325
L 531 325
L 532 325
L 532 325
L 532 325
L 532 325
L 532 325
L 532 325
L 533 324
L 533 324
L 533 324
L 533 324
L 533 324
L 534 324
L 534 324
L 534 324
L 534 324
L 534 324
L 534 324
L 534 324
L 535 324
L 535 324
L 535 324
L 536 324
L 536 324
L 536 324
L 537 324
L 537 324
L 537 324
L 538 324
L 539 324
L 540 324
L 540 324
L 540 324
L 540 324
L 540 323
L 540 323
L 541 323
L 541 323
L 541 323
L 541 323
L 541 323
L 541 323
L 542 323
L 543 323
L 543 323
L 543 323
L 543 323
L 543 323
L 544 323
L 544 323
L 544 323
L 544 323
L 544 323
L 544 323
L 545 323
L 545 323
L 545 323
L 546 323
L 546 323
L 547 323
L 547 323
L 547 322
L 547 322
L 547 322
L 548 322
L 549 322
L 549 322
L 549 322
L 550 322
L 550 322
L 550 322
L 551 322
L 551 322
L 552 322
L 553 322
L 553 322
L 553 322
L 554 322
L 554 322
L 554 322
L 554 322
L 555 322
L 555 322
L 555 322
L 555 322
L 555 322
L 556 322
L 556 322
L 556 322
L 556 321
L 557 321
L 557 321
L 557 321
L 557 321
L 558 321
L 558 321
L 558 321
L 558 321
L 558 321
L 558 321
L 558 321
L 558 321
L 559 321
L 559 321
L 559 321
L 560 321
L 560 321
L 561 321
L 561 321
L 561 321
L 561 321
L 562 321
L 562 321
L 562 321
L 562 321
L 563 321
L 563 320
L 563 320
L 563 320
L 563 320
L 564 320
L 564 320
L 564 320
L 564 320
L 564 320
L 565 320
L 565 320
L 565 320
L 565 320
L 565 320
L 565 320
L 565 320
L 565 320
L 565 320
L 565 320
L 566 320
L 566 320
L 566 320
L 566 320
L 566 320
L 566 320
L 567 320
L 567 320
L 567 319
L 568 319
L 568 319
L 568 319
L 569 319
L 569 319
L 569 319
L 569 319
L 570 319
L 570 319
L 570 319
L 571 319
L 571 319
L 571 319
L 571 319
L 571 319
L 571 319
L 572 319
L 572 319
L 572 319
L 573 319
L 573 319
L 574 319
L 574 319
L 574 319
L 574 319
L 574 319
L 575 319
L 575 318
L 575 318
L 575 318
L 575 318
L 576 318
L 576 318
L 576 318
L 576 318
L 576 318
L 576 318
L 577 318
L 577 318
L 577 318
L 577 318
L 577 318
L 579 318
L 579 318
L 579 318
L 580 318
L 580 318
L 580 318
L 580 318
L 580 318
L 580 318
L 581 318
L 581 318
L 581 318
L 582 317
L 582 317
L 582 317
L 582 317
L 582 317
L 582 317
L 583 317
L 583 317
L 584 317
L 584 317
L 585 317
L 585 317
L 586 317
L 586 317
L 587 317
L 587 317
L 588 317
L 589 317
L 590 317
L 590 317
L 590 317
L 590 317
L 591 317
L 592 317
L 592 317
L 593 317
L 593 317
L 594 317
L 594 316
L 594 316
L 594 316
L 594 316
L 595 316
L 595 316
L 596 316
L 596 316
L 596 316
L 596 316
L 596 316
L 597 316
L 597 316
L 598 316
L 598 316
L 598 316
L 598 316
L 598 316
L 598 316
L 598 316
L 599 316
L 599 316
L 599 316
L 599 316
L 599 316
L 599 316
L 599 316
L 600 315
L 600 315
L 600 315
L 600 315
L 601 315
L 601 315
L 601 315
L 602 315
L 602 315
L 602 315
L 604 315
L 604 315
L 604 315
L 605 315
L 605 315
L 606 315
L 607 315
L 608 315
L 608 315
L 608 315
L 608 315
L 608 315
L 609 315
L 609 315
L 609 315
L 611 315
L 612 315
L 612 314
L 612 314
L 612 314
L 612 314
L 612 314
L 613 314
L 613 314
L 613 314
L 613 314
L 613 314
L 614 314
L 614 314
L 614 314
L 614 314
L 614 314
L 616 314
L 617 314
L 618 314
L 619 314
L 620 314
L 620 314
L 620 314
L 621 314
L 621 314
L 622 314
L 622 314
L 623 314
L 623 314
L 623 313
L 623 313
L 623 313
L 623 313
L 623 313
L 624 313
L 624 313
L 624 313
L 624 313
L 624 313
L 624 313
L 624 313
L 624 313
L 625 313
L 625 313
L 625 313
L 625 313
L 625 313
L 626 313
L 626 313
L 626 313
L 626 313
L 626 313
L 626 313
L 626 313
L 627 313
L 627 313
L 627 312
L 627 312
L 629 312
L 629 312
L 629 312
L 629 312
L 629 312
L 630 312
L 630 312
L 630 312
L 631 312
L 631 312
L 631 312
L 631 312
L 631 312
L 632 312
L 632 312
L 632 312
L 632 312
L 632 312
L 632 312
L 634 312
L 634 312
L 634 312
L 635 312
L 635 312
L 635 312
L 635 311
L 635 311
L 635 311
L 635 311
L 635 311
L 635 311
L 635 311
L 635 311
L 635 311
L 636 311
L 636 311
L 636 311
L 636 311
L 636 311
L 636 311
L 636 311
L 636 311
L 636 311
L 636 311
L 637 311
L 637 311
L 637 311
L 637 311
L 637 311
L 637 311
L 637 311
L 637 311
L 637 311
L 637 310
L 637 310
L 637 310
L 637 310
L 637 310
L 637 310
L 638 310
L 638 310
L 638 310
L 639 310
L 639 310
L 639 310
L 639 310
L 639 310
L 640 310
L 640 310
L 640 310
L 640 310
L 640 310
L 640 310
L 640 310
L 640 310
L 641 310
L 641 310
L 641 310
L 641 310
L 641 310
L 641 309
L 641 309
L 641 309
L 641 309
L 641 309
L 641 309
L 642 309
L 642 309
L 642 309
L 642 309
L 643 309
L 643 309
L 643 309
L 644 309
L 644 309
L 645 309
L 645 309
L 645 309
L 645 309
L 645 309
L 645 309
L 645 309
L 645 309
L 645 309
L 646 309
L 646 309
L 646 309
L 647 308
L 647 308
L 647 308
L 647 308
L 647 308
L 647 308
L 647 308
L 648 308
L 648 308
L 648 308
L 648 308
L 649 308
L 649 308
L 649 308
L 649 308
L 650 308
L 650 308
L 650 308
L 651 308
L 651 308
L 651 308
L 651 308
L 651 308
L 652 308
L 652 308
L 652 308
L 652 308
L 652 308
L 652 307
L 652 307
L 653 307
L 653 307
L 653 307
L 653 307
L 653 307
L 654 307
L 654 307
L 654 307
L 655 307
L 655 307
L 655 307
L 655 307
L 655 307
L 655 307
L 656 307
L 656 307
L 656 307
L 656 307
L 656 307
L 656 307
L 656 307
L 657 307
L 658 307
L 658 307
L 658 307
L 659 306
L 659 306
L 659 306
L 659 306
L 659 306
L 659 306
L 659 306
L 659 306
L 660 306
L 661 306
L 661 306
L 661 306
L 661 306
L 662 306
L 662 306
L 662 306
L 662 306
L 662 306
L 662 306
L 662 306
L 663 306
L 663 306
L 663 306
L 663 306
L 663 306
L 663 306
L 663 306
L 663 305
L 664 305
L 664 305
L 664 305
L 664 305
L 664 305
L 664 305
L 666 305
L 667 305
L 667 305
L 667 305
L 667 305
L 668 305
L 668 305
L 668 305
L 668 305
L 668 305
L 668 305
L 668 305
L 669 305
L 669 305
L 669 305
L 669 305
L 669 305
L 669 305
L 669 305
L 669 305
L 670 305
L 670 304
L 670 304
L 670 304
L 670 304
L 672 304
L 672 304
L 672 304
L 672 304
L 672 304
L 672 304
L 673 304
L 673 304
L 673 304
L 673 304
L 673 304
L 673 304
L 674 304
L 674 304
L 674 304
L 674 304
L 675 304
L 675 304
L 675 304
L 676 304
L 676 304
L 676 304
L 677 304
L 677 303
L 677 303
L 678 303
L 678 303
L 678 303
L 678 303
L 678 303
L 679 303
L 679 303
L 679 303
L 679 303
L 679 303
L 679 303
L 679 303
L 679 303
L 679 303
L 679 303
L 679 303
L 679 303
L 679 303
L 680 303
L 680 303
L 680 303
L 680 303
L 680 303
L 680 303
L 680 303
L 680 302
L 680 302
L 681 302
L 681 302
L 681 302
L 681 302
L 681 302
L 682 302
L 682 302
L 682 302
L 682 302
L 683 302
L 683 302
L 683 302
L 683 302
L 684 302
L 684 302
L 684 302
L 684 302
L 684 302
L 684 302
L 684 302
L 684 302
L 684 302
L 684 302
L 684 302
L 685 302
L 685 302
L 685 301
L 685 301
L 686 301
L 686 301
L 686 301
L 687 301
L 687 301
L 688 301
L 688 301
L 688 301
L 688 301
L 689 301
L 689 301
L 689 301
L 689 301
L 689 301
L 690 301
L 690 301
L 690 301
L 690 301
L 690 301
L 690 301
L 691 301
L 691 301
L 691 301
L 691 301
L 691 301
L 691 300
L 691 300
L 691 300
L 691 300
L 691 300
L 691 300
L 691 300
L 691 300
L 692 300
L 692 300
L 692 300
L 693 300
L 693 300
L 693 300
L 694 300
L 694 300
L 695 300
L 695 300
L 695 300
L 695 300
L 695 300
L 695 300
L 695 300
L 695 300
L 695 300
L 695 300
L 695 300
L 695 300
L 696 299
L 696 299
L 696 299
L 697 299
L 697 299
L 697 299
L 697 299
L 698 299
L 698 299
L 698 299
L 698 299
L 698 299
L 698 299
L 698 299
L 699 299
L 700 299
L 700 299
L 700 299
L 700 299
L 700 299
L 701 299
L 701 299
L 701 299
L 701 299
L 702 299
L 702 299
L 702 299
L 702 298
L 702 298
L 702 298
L 702 298
L 703 298
L 703 298
L 703 298
L 703 298
L 703 298
L 703 298
L 704 298
L 704 298
L 704 298
L 704 298
L 704 298
L 704 298
L 704 298
L 705 298
L 705 298
L 705 298
L 705 298
L 705 298
L 705 298
L 705 298
L 705 298
L 705 298
L 706 298
L 706 297
L 706 297
L 706 297
L 706 297
L 706 297
L 706 297
L 707 297
L 707 297
L 707 297
L 707 297
L 708 297
L 708 297
L 708 297
L 709 297
L 709 297
L 710 297
L 710 297
L 710 297
L 710 297
L 710 297
L 710 297
L 710 297
L 710 297
L 710 297
L 711 297
L 711 297
L 711 297
L 711 297
L 712 296
L 712 296
L 712 296
L 713 296
L 713 296
L 713 296
L 713 296
L 713 296
L 713 296
L 713 296
L 713 296
L 713 296
L 714 296
L 714 296
L 714 296
L 714 296
L 714 296
L 715 296
L 715 296
L 715 296
L 715 296
L 715 296
L 715 296
L 715 296
L 715 296
L 715 296
L 716 296
L 716 295
L 716 295
L 716 295
L 717 295
L 717 295
L 717 295
L 718 295
L 718 295
L 719 295
L 720 295
L 720 295
L 720 295
L 720 295
L 720 295
L 720 295
L 722 295
L 722 295
L 722 295
L 723 295
L 723 295
L 723 295
L 723 295
L 723 295
L 724 295
L 724 295
L 724 295
L 724 295
L 724 294
L 724 294
L 725 294
L 725 294
L 725 294
L 725 294
L 725 294
L 725 294
L 725 294
L 726 294
L 726 294
L 726 294
L 726 294
L 726 294
L 726 294
L 726 294
L 726 294
L 726 294
L 726 294
L 727 294
L 727 294
L 727 294
L 727 294
L 727 294
L 727 294
L 728 294
L 728 294
L 728 294
L 728 293
L 728 293
L 728 293
L 728 293
L 728 293
L 728 293
L 728 293
L 729 293
L 729 293
L 729 293
L 729 293
L 729 293
L 729 293
L 730 293
L 730 293
L 730 293
L 730 293
L 730 293
L 730 293
L 730 293
L 730 293
L 730 293
L 730 293
L 730 293
L 730 293
L 730 293
L 730 293
L 731 292
L 731 292
L 732 292
L 732 292
L 732 292
L 732 292
L 732 292
L 733 292
L 733 292
L 733 292
L 733 292
L 733 292
L 733 292
L 733 292
L 733 292
L 733 292
L 733 292
L 733 292
L 733 292
L 733 292
L 733 292
L 734 292
L 734 292
L 734 292
L 734 292
L 734 292
L 734 292
L 734 291
L 734 291
L 734 291
L 734 291
L 734 291
L 734 291
L 735 291
L 735 291
L 735 291
L 735 291
L 735 291
L 735 291
L 735 291
L 735 291
L 736 291
L 736 291
L 737 291
L 737 291
L 737 291
L 737 291
L 737 291
L 737 291
L 737 291
L 738 291
L 738 291
L 738 291
L 738 291
L 738 291
L 738 290
L 738 290
L 738 290
L 738 290
L 738 290
L 739 290
L 739 290
L 739 290
L 739 290
L 739 290
L 740 290
L 740 290
L 740 290
L 740 290
L 740 290
L 740 290
L 740 290
L 741 290
L 741 290
L 741 290
L 741 290
L 741 290
L 741 290
L 741 290
L 741 290
L 741 290
L 741 290
L 741 289
L 741 289
L 741 289
L 741 289
L 742 289
L 742 289
L 742 289
L 742 289
L 742 289
L 743 289
L 743 289
L 743 289
L 743 289
L 743 289
L 743 289
L 743 289
L 743 289
L 743 289
L 743 289
L 743 289
L 743 289
L 743 289
L 743 289
L 743 289
L 743 289
L 743 289
L 743 289
L 743 288
L 743 288
L 743 288
L 743 288
L 743 288
L 743 288
L 743 288
L 743 288
L 743 288
L 743 288
L 743 288
L 743 288
L 743 288
L 743 288
L 743 288
L 743 288
L 743 288
L 743 288
L 743 288
L 743 288
L 743 288
L 743 288
L 743 288
L 743 288
L 743 288
L 743 288
L 743 288
L 743 288
L 743 287
L 743 287
L 743 287
L 743 287
L 743 287
L 743 287
L 743 287
L 743 287
L 743 287
L 743 287
L 743 287
L 743 287
L 743 287
L 743 287
L 743 287
L 743 287
L 743 287
L 743 287
L 743 287
L 743 287
L 743 287
L 743 287
L 743 287
L 743 287
L 743 287
L 743 287
L 743 287
L 743 286
L 743 286
L 743 286
L 743 286
L 743 286
L 743 286
L 744 286
L 744 286
L 744 286
L 744 286
L 744 286
L 744 286
L 744 286
L 744 286
L 744 286
L 744 286
L 744 286
L 744 286
L 744 286
L 744 286
L 744 286
L 744 286
L 744 286
L 744 286
L 744 286
L 744 286
L 744 286
L 744 285
L 744 285
L 744 285
L 744 285
L 744 285
L 744 285
L 744 285
L 744 285
L 744 285
L 744 285
L 744 285
L 744 285
L 744 285
L 744 285
L 744 285
L 744 285
L 744 285
L 744 285
L 744 285
L 744 285
L 744 285
L 744 285
L 744 285
L 744 285
L 744 285
L 744 285
L 744 285
L 744 285
L 744 284
L 744 284
L 744 284
L 744 284
L 744 284
L 744 284
L 745 284
L 745 284
L 745 284
L 745 284
L 745 284
L 745 284
L 745 284
L 745 284
L 745 284
L 745 284
L 745 284
L 745 284
L 745 284
L 745 284
L 745 284
L 745 284
L 745 284
L 745 284
L 745 284
L 745 284
L 745 284
L 745 283
L 745 283
L 745 283
L 745 283
L 745 283
L 745 283
L 745 283
L 745 283
L 745 283
L 745 283
L 745 283
L 745 283
L 745 283
L 745 283
L 745 283
L 745 283
L 745 283
L 745 283
L 745 283
L 745 283
L 745 283
L 745 283
L 745 283
L 745 283
L 745 283
L 745 283
L 745 283
L 745 283
L 745 282
L 745 282
L 745 282
L 745 282
L 745 282
L 745 282
L 745 282
L 745 282
L 745 282
L 745 282
L 745 282
L 745 282
L 745 282
L 745 282
L 745 282
L 745 282
L 745 282
L 745 282
L 745 282
L 745 282
L 745 282
L 745 282
L 745 282
L 745 282
L 745 282
L 745 282
L 745 282
L 745 281
L 745 281
L 745 281
L 745 281
L 745 281
L 745 281
L 745 281
L 745 281
L 745 281
L 745 281
L 745 281
L 745 281
L 745 281
L 745 281
L 745 281
L 745 281
L 745 281
L 745 281
L 745 281
L 745 281
L 745 281
L 745 281
L 745 281
L 745 281
L 745 281
L 745 281
L 746 281
L 746 280
L 746 280
L 746 280
L 746 280
L 746 280
L 746 280
L 746 280
L 746 280
L 746 280
L 746 280
L 746 280
L 746 280
L 746 280
L 746 280
L 746 280
L 746 280
L 746 280
L 746 280
L 746 280
L 746 280
L 746 280
L 746 280
L 746 280
L 746 280
L 746 280
L 746 280
L 746 280
L 746 280
L 746 279
L 746 279
L 746 279
L 746 279
L 746 279
L 746 279
L 746 279
L 746 279
L 746 279
L 746 279
L 746 279
L 746 279
L 746 279
L 746 279
L 746 279
L 746 279
L 746 279
L 747 279
L 747 279
L 747 279
L 747 279
L 747 279
L 747 279
L 747 279
L 747 279
L 747 279
L 747 279
L 747 278
L 747 278
L 747 278
L 747 278
L 747 278
L 747 278
L 747 278
L 747 278
L 747 278
L 747 278
L 747 278
L 747 278
L 747 278
L 747 278
L 747 278
L 747 278
L 747 278
L 747 278
L 747 278
L 747 278
L 747 278
L 747 278
L 747 278
L 747 278
L 747 278
L 747 278
L 747 278
L 747 277
L 747 277
L 747 277
L 747 277
L 747 277
L 747 277
L 747 277
L 748 277
L 748 277
L 748 277
L 748 277
L 748 277
L 748 277
L 748 277
L 748 277
L 748 277
L 748 277
L 748 277
L 748 277
L 748 277
L 748 277
L 748 277
L 749 277
L 749 277
L 749 277
L 749 277
L 749 277
L 749 277
L 749 276
L 749 276
L 749 276
L 750 276
L 750 276
L 750 276
L 750 276
L 750 276
L 750 276
L 750 276
L 750 276
L 750 276
L 750 276
L 751 276
L 751 276
L 751 276
L 751 276
L 751 276
L 751 276
L 751 276
L 751 276
L 751 276
L 751 276
L 751 276
L 751 276
L 751 276
L 751 276
L 751 275
L 751 275
L 751 275
L 752 275
L 752 275
L 752 275
L 752 275
L 752 275
L 752 275
L 752 275
L 752 275
L 752 275
L 752 275
L 752 275
L 752 275
L 752 275
L 752 275
L 753 275
L 753 275
L 753 275
L 753 275
L 753 275
L 753 275
L 754 275
L 754 275
L 754 275
L 754 275
L 754 274
L 754 274
L 754 274
L 754 274
L 754 274
L 754 274
L 755 274
L 755 274
L 755 274
L 755 274
L 755 274
L 755 274
L 755 274
L 755 274
L 755 274
L 755 274
L 755 274
L 755 274
L 755 274
L 755 274
L 755 274
L 755 274
L 755 274
L 755 274
L 755 274
L 755 274
L 755 274
L 755 274
L 755 273
L 755 273
L 755 273
L 755 273
L 755 273
L 755 273
L 755 273
L 755 273
L 755 273
L 755 273
L 755 273
L 755 273
L 755 273
L 755 273
L 755 273
L 755 273
L 755 273
L 755 273
L 755 273
L 755 273
L 755 273
L 755 273
L 755 273
L 755 273
L 755 273
L 756 273
L 756 273
L 756 272
L 756 272
L 756 272
L 756 272
L 756 272
L 756 272
L 756 272
L 756 272
L 756 272
L 756 272
L 756 272
L 756 272
L 756 272
L 756 272
L 756 272
L 756 272
L 756 272
L 756 272
L 756 272
L 756 272
L 756 272
L 756 272
L 756 272
L 756 272
L 756 272
L 756 272
L 756 272
L 756 271
L 756 271
L 756 271
L 756 271
L 757 271
L 757 271
L 757 271
L 757 271
L 757 271
L 757 271
L 757 271
L 757 271
L 757 271
L 757 271
L 757 271
L 757 271
L 757 271
L 757 271
L 757 271
L 757 271
L 757 271
L 757 271
L 757 271
L 757 271
L 757 271
L 757 271
L 757 271
L 757 271
L 757 270
L 757 270
L 757 270
L 757 270
L 757 270
L 757 270
L 757 270
L 757 270
L 757 270
L 757 270
L 757 270
L 757 270
L 757 270
L 757 270
L 757 270
L 757 270
L 757 270
L 757 270
L 757 270
L 757 270
L 757 270
L 757 270
L 757 270
L 757 270
L 757 270
L 757 270
L 757 270
L 757 269
L 757 269
L 757 269
L 757 269
L 757 269
L 757 269
L 757 269
L 757 269
L 757 269
L 757 269
L 757 269
L 757 269
L 757 269
L 757 269
L 757 269
L 757 269
L 757 269
L 757 269
L 757 269
L 757 269
L 757 269
L 757 269
L 757 269
L 757 269
L 757 269
L 757 269
L 757 269
L 757 268
L 757 268
L 757 268
L 757 268
L 757 268
L 757 268
L 757 268
L 757 268
L 757 268
L 757 268
L 758 268
L 758 268
L 758 268
L 758 268
L 758 268
L 758 268
L 758 268
L 758 268
L 758 268
L 758 268
L 758 268
L 758 268
L 758 268
L 758 268
L 758 268
L 758 268
L 758 268
L 758 268
L 758 267
L 758 267
L 758 267
L 758 267
L 758 267
L 758 267
L 758 267
L 758 267
L 758 267
L 758 267
L 758 267
L 758 267
L 758 267
L 758 267
L 758 267
L 758 267
L 758 267
L 758 267
L 758 267
L 758 267
L 758 267
L 758 267
L 758 267
L 758 267
L 758 267
L 758 267
L 759 267
L 759 266
L 759 266
L 759 266
L 759 266
L 759 266
L 759 266
L 759 266
L 759 266
L 759 266
L 759 266
L 759 266
L 759 266
L 759 266
L 759 266
L 759 266
L 759 266
L 759 266
L 759 266
L 759 266
L 759 266
L 759 266
L 759 266
L 759 266
L 759 266
L 759 266
L 759 266
L 759 266
L 759 266
L 759 265
L 759 265
L 760 265
L 760 265
L 760 265
L 760 265
L 760 265
L 760 265
L 760 265
L 760 265
L 760 265
L 760 265
L 760 265
L 760 265
L 760 265
L 760 265
L 760 265
L 760 265
L 760 265
L 760 265
L 760 265
L 760 265
L 760 265
L 760 265
L 760 265
L 760 265
L 760 265
L 760 264
L 760 264
L 761 264
L 761 264
L 761 264
L 761 264
L 761 264
L 761 264
L 761 264
L 761 264
L 761 264
L 761 264
L 761 264
L 761 264
L 761 264
L 761 264
L 761 264
L 761 264
L 761 264
L 761 264
L 761 264
L 761 264
L 761 264
L 761 264
L 761 264
L 761 264
L 761 264
L 761 263
L 761 263
L 761 263
L 762 263
L 762 263
L 762 263
L 762 263
L 762 263
L 762 263
L 762 263
L 762 263
L 762 263
L 762 263
L 762 263
L 762 263
L 762 263
L 762 263
L 762 263
L 762 263
L 762 263
L 762 263
L 762 263
L 762 263
L 762 263
L 763 263
L 763 263
L 763 263
L 763 263
L 763 262
L 763 262
L 763 262
L 763 262
L 763 262
L 763 262
L 763 262
L 763 262
L 763 262
L 764 262
L 764 262
L 764 262
L 764 262
L 764 262
L 764 262
L 764 262
L 764 262
L 764 262
L 764 262
L 765 262
L 765 262
L 765 262
L 765 262
L 765 262
L 765 262
L 765 262
L 765 262
L 766 261
L 766 261
L 766 261
L 766 261
L 766 261
L 766 261
L 766 261
L 766 261
L 766 261
L 766 261
L 766 261
L 767 261
L 767 261
L 767 261
L 767 261
L 767 261
L 767 261
L 767 261
L 767 261
L 767 261
L 767 261
L 767 261
L 767 261
L 767 261
L 767 261
L 767 261
L 767 261
L 767 260
L 767 260
L 767 260
L 767 260
L 767 260
L 767 260
L 767 260
L 768 260
L 768 260
L 768 260
L 768 260
L 768 260
L 768 260
L 768 260
L 768 260
L 768 260
L 768 260
L 769 260
L 769 260
L 769 260
L 769 260
L 769 260
L 769 260
L 769 260
L 769 260
L 769 260
L 769 260
L 769 260
L 769 259
L 769 259
L 769 259
L 770 259
L 770 259
L 770 259
L 770 259
L 770 259
L 770 259
L 770 259
L 770 259
L 770 259
L 770 259
L 770 259
L 770 259
L 770 259
L 770 259
L 770 259
L 770 259
L 770 259
L 770 259
L 770 259
L 771 259
L 771 259
L 771 259
L 771 259
L 771 259
L 771 258
L 771 258
L 771 258
L 771 258
L 771 258
L 771 258
L 771 258
L 771 258
L 771 258
L 772 258
L 772 258
L 772 258
L 772 258
L 772 258
L 772 258
L 772 258
L 772 258
L 772 258
L 772 258
L 772 258
L 772 258
L 772 258
L 772 258
L 772 258
L 772 258
L 772 258
L 772 258
L 772 257
L 772 257
L 773 257
L 773 257
L 773 257
L 773 257
L 773 257
L 773 257
L 773 257
L 773 257
L 773 257
L 773 257
L 773 257
L 773 257
L 774 257
L 774 257
L 774 257
L 774 257
L 774 257
L 774 257
L 774 257
L 775 257
L 775 257
L 775 257
L 775 257
L 775 257
L 775 257
L 775 257
L 775 256
L 775 256
L 775 256
L 775 256
L 775 256
L 775 256
L 775 256
L 775 256
L 775 256
L 775 256
L 775 256
L 775 256
L 775 256
L 775 256
L 775 256
L 775 256
L 775 256
L 775 256
L 775 256
L 775 256
L 775 256
L 775 256
L 775 256
L 775 256
L 775 256
L 775 256
L 775 256
L 775 255
L 775 255
L 776 255
L 776 255
L 776 255
L 776 255
L 776 255
L 776 255
L 776 255
L 776 255
L 776 255
L 776 255
L 776 255
L 776 255
L 776 255
L 776 255
L 776 255
L 776 255
L 776 255
L 776 255
L 776 255
L 776 255
L 776 255
L 776 255
L 776 255
L 776 255
L 776 255
L 776 254
L 776 254
L 776 254
L 776 254
L 776 254
L 776 254
L 776 254
L 776 254
L 776 254
L 776 254
L 776 254
L 776 254
L 776 254
L 776 254
L 776 254
L 776 254
L 776 254
L 776 254
L 776 254
L 776 254
L 776 254
L 776 254
L 776 254
L 776 254
L 776 254
L 776 254
L 776 254
L 776 254
L 776 253
L 776 253
L 776 253
L 776 253
L 776 253
L 776 253
L 776 253
L 776 253
L 776 253
L 777 253
L 777 253
L 777 253
L 777 253
L 777 253
L 777 253
L 777 253
L 777 253
L 777 253
L 777 253
L 777 253
L 777 253
L 777 253
L 777 253
L 777 253
L 777 253
L 777 253
L 777 253
L 777 252
L 777 252
L 777 252
L 777 252
L 777 252
L 777 252
L 777 252
L 777 252
L 777 252
L 777 252
L 777 252
L 777 252
L 777 252
L 777 252
L 777 252
L 777 252
L 777 252
L 777 252
L 777 252
L 777 252
L 777 252
L 777 252
L 777 252
L 777 252
L 777 252
L 777 252
L 777 252
L 777 251
L 777 251
L 777 251
L 777 251
L 777 251
L 777 251
L 777 251
L 777 251
L 777 251
L 777 251
L 777 251
L 777 251
L 777 251
L 777 251
L 777 251
L 777 251
L 777 251
L 777 251
L 777 251
L 777 251
L 777 251
L 777 251
L 777 251
L 777 251
L 777 251
L 778 251
L 778 251
L 778 251
L 778 250
L 778 250
L 778 250
L 778 250
L 778 250
L 778 250
L 778 250
L 778 250
L 778 250
L 778 250
L 778 250
L 778 250
L 778 250
L 778 250
L 778 250
L 778 250
L 778 250
L 778 250
L 778 250
L 778 250
L 778 250
L 778 250
L 778 250
L 778 250
L 778 250
L 778 250
L 778 250
L 778 249
L 778 249
L 778 249
L 778 249
L 778 249
L 778 249
L 778 249
L 778 249
L 778 249
L 778 249
L 778 249
L 778 249
L 778 249
L 778 249
L 778 249
L 778 249
L 778 249
L 778 249
L 778 249
L 778 249
L 778 249
L 778 249
L 778 249
L 778 249
L 778 249
L 778 249
L 778 249
L 778 249
L 778 248
L 778 248
L 778 248
L 778 248
L 778 248
L 778 248
L 778 248
L 778 248
L 778 248
L 778 248
L 778 248
L 778 248
L 778 248
L 778 248
L 778 248
L 778 248
L 778 248
L 778 248
L 778 248
L 778 248
L 778 248
L 778 248
L 778 248
L 778 248
L 778 248
L 778 248
L 778 248
L 778 247
L 778 247
L 778 247
L 778 247
L 778 247
L 778 247
L 778 247
L 778 247
L 778 247
L 778 247
L 778 247
L 778 247
L 778 247
L 778 247
L 778 247
L 778 247
L 778 247
L 778 247
L 778 247
L 778 247
L 778 247
L 778 247
L 778 247
L 778 247
L 778 247
L 778 247
L 778 247
L 778 246
L 778 246
L 778 246
L 778 246
L 778 246
L 778 246
L 778 246
L 778 246
L 778 246
L 778 246
L 778 246
L 778 246
L 778 246
L 778 246
L 778 246
L 778 246
L 778 246
L 778 246
L 778 246
L 778 246
L 778 246
L 778 246
L 778 246
L 778 246
L 778 246
L 778 246
L 778 246
L 778 246
L 778 245
L 778 245
L 778 245
L 778 245
L 778 245
L 778 245
L 778 245
L 778 245
L 778 245
L 778 245
L 778 245
L 778 245
L 778 245
L 779 245
L 779 245
L 779 245
L 779 245
L 779 245
L 779 245
L 779 245
L 779 245
L 779 245
L 779 245
L 779 245
L 779 245
L 779 245
L 779 245
L 779 244
L 779 244
L 779 244
L 779 244
L 779 244
L 779 244
L 779 244
L 779 244
L 779 244
L 779 244
L 779 244
L 779 244
L 779 244
L 779 244
L 779 244
L 779 244
L 779 244
L 779 244
L 779 244
L 779 244
L 779 244
L 779 244
L 779 244
L 779 244
L 779 244
L 779 244
L 779 244
L 779 243
L 779 243
L 779 243
L 779 243
L 779 243
L 779 243
L 779 243
L 779 243
L 779 243
L 779 243
L 779 243
L 779 243
L 779 243
L 779 243
L 779 243
L 779 243
L 779 243
L 779 243
L 779 243
L 779 243
L 779 243
L 779 243
L 779 243
L 779 243
L 779 243
L 779 243
L 779 243
L 779 243
L 779 242
L 779 242
L 779 242
L 779 242
L 779 242
L 779 242
L 779 242
L 779 242
L 779 242
L 779 242
L 779 242
L 779 242
L 779 242
L 779 242
L 779 242
L 779 242
L 779 242
L 779 242
L 779 242
L 779 242
L 779 242
L 779 242
L 779 242
L 779 242
L 779 242
L 779 242
L 779 242
L 779 241
L 779 241
L 779 241
L 779 241
L 779 241
L 779 241
L 779 241
L 779 241
L 779 241
L 779 241
L 779 241
L 779 241
L 779 241
L 779 241
L 779 241
L 779 241
L 779 241
L 779 241
L 779 241
L 779 241
L 779 241
L 779 241
L 779 241
L 779 241
L 779 241
L 779 241
L 779 241
L 779 240
L 779 240
L 779 240
L 779 240
L 779 240
L 779 240
L 779 240
L 779 240
L 779 240
L 779 240
L 779 240
L 779 240
L 779 240
L 779 240
L 779 240
L 779 240
L 779 240
L 779 240
L 779 240
L 779 240
L 779 240
L 779 240
L 779 240
L 779 240
L 779 240
L 779 240
L 779 240
L 779 240
L 779 239
L 779 239
L 779 239
L 779 239
L 779 239
L 779 239
L 779 239
L 779 239
L 779 239
L 779 239
L 779 239
L 779 239
L 779 239
L 779 239
L 779 239
L 779 239
L 779 239
L 779 239
L 779 239
L 779 239
L 779 239
L 779 239
L 779 239
L 779 239
L 779 239
L 779 239
L 779 239
L 779 238
L 779 238
L 779 238
L 779 238
L 779 238
L 779 238
L 779 238
L 779 238
L 779 238
L 779 238
L 779 238
L 779 238
L 779 238
L 779 238
L 779 238
L 779 238
L 779 238
L 779 238
L 779 238
L 779 238
L 779 238
L 779 238
L 779 238
L 779 238
L 779 238
L 779 238
L 779 238
L 779 237
L 779 237
L 779 237
L 779 237
L 779 237
L 779 237
L 779 237
L 779 237
L 779 237
L 779 237
L 779 237
L 779 237
L 779 237
L 779 237
L 779 237
L 779 237
L 779 237
L 779 237
L 779 237
L 779 237
L 779 237
L 779 237
L 779 237
L 779 237
L 779 237
L 779 237
L 779 237
L 779 237
L 779 236
L 779 236
L 779 236
L 779 236
L 779 236
L 779 236
L 779 236
L 779 236
L 779 236
L 779 236
L 779 236
L 779 236
L 779 236
L 779 236
L 779 236
L 779 236
L 779 236
L 779 236
L 779 236
L 779 236
L 779 236
L 779 236
L 779 236
L 779 236
L 779 236
L 779 236
L 779 236
L 779 235
L 779 235
L 779 235
L 779 235
L 779 235
L 779 235
L 779 235
L 779 235
L 779 235
L 779 235
L 779 235
L 779 235
L 779 235
L 779 235
L 779 235
L 779 235
L 779 235
L 779 235
L 779 235
L 779 235
L 779 235
L 779 235
L 779 235
L 779 235
L 779 235
L 779 235
L 779 235
L 779 234
L 779 234
L 779 234
L 779 234
L 779 234
L 779 234
L 779 234
L 779 234
L 779 234
L 779 234
L 779 234
L 779 234
L 779 234
L 779 234
L 779 234
L 779 234
L 779 234
L 779 234
L 779 234
L 779 234
L 779 234
L 779 234
L 779 234
L 779 234
L 779 234
L 779 234
L 779 234
L 779 234
L 779 233
L 779 233
L 779 233
L 779 233
L 779 233
L 779 233
L 779 233
L 779 233
L 779 233
L 779 233
L 779 233
L 779 233
L 779 233
L 779 233
L 779 233
L 779 233
L 779 233
L 779 233
L 779 233
L 779 233
L 779 233
L 779 233
L 779 233
L 779 233
L 779 233
L 779 233
L 779 233
L 779 232
L 779 232
L 779 232
L 779 232
L 779 232
L 779 232
L 779 232
L 779 232
L 779 232
L 779 232
L 779 232
L 779 232
L 779 232
L 779 232
L 779 232
L 779 232
L 779 232
L 779 232
L 779 232
L 779 232
L 779 232
L 779 232
L 779 232
L 779 232
L 779 232
L 780 232
L 780 232
L 780 232
L 780 231
L 780 231
L 780 231
L 780 231
L 780 231
L 780 231
L 780 231
L 780 231
L 780 231
L 780 231
L 780 231
L 780 231
L 780 231
L 780 231
L 780 231
L 780 231
L 780 231
L 780 231
L 780 231
L 780 231
L 780 231
L 780 231
L 780 231
L 780 231
L 780 231
L 780 231
L 780 231
L 780 230
L 780 230
L 780 230
L 780 230
L 780 230
L 780 230
L 780 230
L 780 230
L 780 230
L 780 230
L 780 230
L 780 230
L 780 230
L 780 230
L 780 230
L 780 230
L 780 230
L 780 230
L 780 230
L 780 230
L 780 230
L 780 230
L 780 230
L 780 230
L 780 230
L 780 230
L 780 230
L 780 229
L 780 229
L 780 229
L 780 229
L 780 229
L 780 229
L 780 229
L 780 229
L 780 229
L 780 229
L 780 229
L 780 229
L 780 229
L 780 229
L 780 229
L 780 229
L 780 229
L 780 229
L 780 229
L 780 229
L 780 229
L 780 229
L 780 229
L 780 229
L 780 229
L 780 229
L 780 229
L 780 229
L 780 228
L 780 228
L 780 228
L 780 228
L 780 228
L 780 228
L 780 228
L 780 228
L 780 228
L 780 228
L 780 228
L 780 228
L 780 228
L 780 228
L 780 228
L 780 228
L 780 228
L 780 228
L 780 228
L 780 228
L 780 228
L 780 228
L 780 228
L 780 228
L 780 228
L 780 228
L 780 228
L 780 227
L 780 227
L 780 227
L 780 227
L 780 227
L 780 227
L 780 227
L 780 227
L 780 227
L 780 227
L 780 227
L 780 227
L 780 227
L 780 227
L 780 227
L 780 227
L 780 227
L 780 227
L 780 227
L 780 227
L 780 227
L 780 227
L 780 227
L 780 227
L 780 227
L 780 227
L 780 227
L 780 226
L 780 226
L 780 226
L 780 226
L 780 226
L 780 226
L 780 226
L 780 226
L 780 226
L 780 226
L 780 226
L 780 226
L 780 226
L 780 226
L 780 226
L 780 226
L 780 226
L 780 226
L 780 226
L 780 226
L 780 226
L 780 226
L 780 226
L 780 226
L 780 226
L 780 226
L 780 226
L 780 226
L 780 225
L 780 225
L 780 225
L 780 225
L 780 225
L 780 225
L 780 225
L 780 225
L 780 225
L 780 225
L 780 225
L 780 225
L 780 225
L 780 225
L 780 225
L 780 225
L 780 225
L 780 225
L 780 225
L 780 225
L 780 225
L 780 225
L 780 225
L 780 225
L 780 225
L 780 225
L 780 225
L 780 224
L 780 224
L 780 224
L 780 224
L 780 224
L 780 224
L 780 224
L 780 224
L 780 224
L 780 224
L 780 224
L 780 224
L 780 224
L 780 224
L 780 224
L 780 224
L 780 224
L 780 224
L 780 224
L 780 224
L 780 224
L 780 224
L 780 224
L 780 224
L 780 224
L 780 224
L 780 224
L 780 223
L 780 223
L 780 223
L 780 223
L 780 223
L 780 223
L 780 223
L 780 223
L 780 223
L 780 223
L 780 223
L 780 223
L 780 223
L 780 223
L 780 223
L 780 223
L 780 223
L 780 223
L 780 223
L 780 223
L 780 223
L 780 223
L 780 223
L 780 223
L 780 223
L 780 223
L 780 223
L 780 223
L 780 222
L 780 222
L 780 222
L 780 222
L 780 222
L 780 222
L 780 222
L 780 222
L 780 222
L 780 222
L 780 222
L 780 222
L 780 222
L 780 222
L 780 222
L 780 222
L 780 222
L 780 222
L 780 222
L 780 222
L 781 222
L 781 222
L 781 222
L 781 222
L 781 222
L 781 222
L 781 222
L 781 221
L 781 221
L 781 221
L 781 221
L 781 221
L 781 221
L 781 221
L 781 221
L 781 221
L 781 221
L 781 221
L 781 221
L 781 221
L 781 221
L 781 221
L 781 221
L 781 221
L 781 221
L 781 221
L 781 221
L 781 221
L 781 221
L 781 221
L 781 221
L 781 221
L 781 221
L 781 221
L 781 220
L 781 220
L 781 220
L 781 220
L 781 220
L 781 220
L 781 220
L 781 220
L 781 220
L 781 220
L 781 220
L 781 220
L 781 220
L 781 220
L 781 220
L 781 220
L 781 220
L 781 220
L 781 220
L 781 220
L 781 220
L 781 220
L 781 220
L 781 220
L 781 220
L 781 220
L 781 220
L 781 220
L 781 219
L 781 219
L 781 219
L 781 219
L 781 219
L 781 219
L 781 219
L 781 219
L 781 219
L 781 219
L 781 219
L 781 219
L 781 219
L 781 219
L 781 219
L 781 219
L 781 219
L 781 219
L 781 219
L 781 219
L 781 219
L 781 219
L 781 219
L 781 219
L 781 219
L 781 219
L 781 219
L 781 218
L 781 218
L 781 218
L 781 218
L 781 218
L 781 218
L 781 218
L 781 218
L 781 218
L 781 218
L 781 218
L 781 218
L 781 218
L 781 218
L 781 218
L 781 218
L 781 218
L 781 218
L 781 218
L 781 218
L 781 218
L 781 218
L 781 218
L 781 218
L 781 218
L 781 218
L 781 218
L 781 217
L 781 217
L 781 217
L 781 217
L 781 217
L 781 217
L 781 217
L 781 217
L 781 217
L 781 217
L 781 217
L 781 217
L 781 217
L 781 217
L 781 217
L 781 217
L 781 217
L 782 217
L 782 217
L 782 217
L 782 217
L 782 217
L 782 217
L 782 217
L 782 217
L 783 217
L 783 217
L 783 217
L 783 216
L 783 216
L 783 216
L 783 216
L 783 216
L 783 216
L 783 216
L 783 216
L 783 216
L 783 216
L 783 216
L 783 216
L 783 216
L 783 216
L 784 216
L 784 216
L 784 216
L 784 216
L 784 216
L 784 216
L 784 216
L 784 216
L 784 216
L 784 216
L 784 216
L 784 216
L 784 216
L 784 215
L 784 215
L 784 215
L 784 215
L 784 215
L 784 215
L 784 215
L 784 215
L 784 215
L 784 215
L 784 215
L 784 215
L 784 215
L 784 215
L 784 215
L 784 215
L 784 215
L 784 215
L 784 215
L 784 215
L 784 215
L 784 215
L 784 215
L 784 215
L 784 215
L 785 215
L 785 215
L 785 215
L 785 214
L 785 214
L 785 214
L 785 214
L 785 214
L 785 214
L 785 214
L 785 214
L 785 214
L 785 214
L 785 214
L 785 214
L 785 214
L 785 214
L 785 214
L 785 214
L 785 214
L 785 214
L 785 214
L 785 214
L 785 214
L 785 214
L 785 214
L 785 214
L 786 214
L 786 214
L 786 214
L 786 213
L 786 213
L 786 213
L 786 213
L 786 213
L 786 213
L 786 213
L 786 213
L 786 213
L 786 213
L 786 213
L 786 213
L 786 213
L 786 213
L 786 213
L 786 213
L 787 213
L 787 213
L 787 213
L 787 213
L 787 213
L 787 213
L 787 213
L 787 213
L 787 213
L 787 213
L 787 213
L 787 212
L 787 212
L 787 212
L 787 212
L 787 212
L 787 212
L 787 212
L 787 212
L 787 212
L 787 212
L 787 212
L 787 212
L 787 212
L 787 212
L 787 212
L 787 212
L 787 212
L 787 212
L 787 212
L 787 212
L 788 212
L 788 212
L 788 212
L 788 212
L 788 212
L 788 212
L 788 212
L 788 212
L 788 211
L 788 211
L 788 211
L 788 211
L 788 211
L 788 211
L 788 211
L 788 211
L 788 211
L 788 211
L 788 211
L 788 211
L 788 211
L 788 211
L 788 211
L 788 211
L 788 211
L 788 211
L 788 211
L 789 211
L 789 211
L 789 211
L 789 211
L 789 211
L 789 211
L 789 211
L 789 211
L 789 210
L 789 210
L 789 210
L 789 210
L 789 210
L 790 210
L 790 210
L 790 210
L 790 210
L 790 210
L 790 210
L 790 210
L 790 210
L 790 210
L 790 210
L 790 210
L 790 210
L 790 210
L 790 210
L 790 210
L 790 210
L 790 210
L 790 210
L 790 210
L 790 210
L 790 210
L 790 210
L 790 209
L 790 209
L 791 209
L 791 209
L 791 209
L 791 209
L 791 209
L 791 209
L 791 209
L 791 209
L 791 209
L 791 209
L 791 209
L 791 209
L 791 209
L 791 209
L 791 209
L 791 209
L 791 209
L 792 209
L 792 209
L 792 209
L 792 209
L 792 209
L 792 209
L 792 209
L 792 209
L 792 209
L 792 208
L 793 208
L 793 208
L 793 208
L 793 208
L 793 208
L 793 208
L 793 208
L 793 208
L 793 208
L 793 208
L 793 208
L 793 208
L 793 208
L 793 208
L 793 208
L 793 208
L 793 208
L 793 208
L 793 208
L 794 208
L 794 208
L 794 208
L 794 208
L 794 208
L 794 208
L 794 208
L 794 207
L 794 207
L 794 207
L 794 207
L 794 207
L 794 207
L 794 207
L 794 207
L 794 207
L 794 207
L 794 207
L 794 207
L 794 207
L 794 207
L 794 207
L 794 207
L 794 207
L 794 207
L 795 207
L 795 207
L 795 207
L 795 207
L 795 207
L 795 207
L 795 207
L 795 207
L 795 207
L 795 206
L 795 206
L 795 206
L 795 206
L 795 206
L 795 206
L 796 206
L 796 206
L 796 206
L 796 206
L 796 206
L 796 206
L 796 206
L 796 206
L 796 206
L 796 206
L 796 206
L 796 206
L 796 206
L 797 206
L 797 206
L 797 206
L 797 206
L 797 206
L 797 206
L 797 206
L 798 206
L 798 206
L 798 205
L 798 205
L 798 205
L 798 205
L 798 205
L 798 205
L 798 205
L 798 205
L 798 205
L 798 205
L 798 205
L 798 205
L 798 205
L 798 205
L 798 205
L 798 205
L 798 205
L 798 205
L 798 205
L 798 205
L 798 205
L 798 205
L 798 205
L 798 205
L 798 205
L 798 205
L 798 205
L 798 204
L 798 204
L 798 204
L 799 204
L 799 204
L 799 204
L 799 204
L 799 204
L 799 204
L 799 204
L 799 204
L 799 204
L 799 204
L 799 204
L 799 204
L 799 204
L 799 204
L 799 204
L 799 204
L 799 204
L 799 204
L 799 204
L 799 204
L 799 204
L 799 204
L 799 204
L 799 204
L 799 203
L 799 203
L 799 203
L 799 203
L 799 203
L 799 203
L 799 203
L 799 203
L 799 203
L 799 203
L 799 203
L 799 203
L 799 203
L 799 203
L 799 203
L 799 203
L 799 203
L 799 203
L 799 203
L 799 203
L 799 203
L 799 203
L 799 203
L 799 203
L 799 203
L 799 203
L 799 203
L 799 203
L 799 202
L 799 202
L 799 202
L 799 202
L 799 202
L 799 202
L 799 202
L 799 202
L 799 202
L 799 202
L 799 202
L 799 202
L 799 202
L 799 202
L 799 202
L 799 202
L 799 202
L 799 202
L 799 202
L 799 202
L 799 202
L 799 202
L 799 202
L 799 202
L 799 202
L 799 202
L 799 202
L 799 201
L 799 201
L 799 201
L 799 201
L 799 201
L 799 201
L 799 201
L 799 201
L 799 201
L 799 201
L 799 201
L 799 201
L 799 201
L 799 201
L 800 201
L 800 201
L 800 201
L 800 201
L 800 201
L 800 201
L 800 201
L 800 201
L 800 201
L 800 201
L 800 201
L 800 201
L 800 201
L 800 200
L 800 200
L 800 200
L 800 200
L 800 200
L 800 200
L 800 200
L 800 200
L 800 200
L 800 200
L 800 200
L 800 200
L 800 200
L 800 200
L 800 200
L 800 200
L 800 200
L 800 200
L 800 200
L 800 200
L 800 200
L 800 200
L 800 200
L 800 200
L 800 200
L 800 200
L 800 200
L 800 200
L 800 199
L 800 199
L 800 199
L 800 199
L 800 199
L 800 199
L 800 199
L 800 199
L 800 199
L 800 199
L 800 199
L 800 199
L 800 199
L 800 199
L 800 199
L 800 199
L 800 199
L 800 199
L 800 199
L 800 199
L 800 199
L 800 199
L 800 199
L 800 199
L 800 199
L 800 199
L 800 199
L 800 198
L 800 198
L 800 198
L 800 198
L 800 198
L 800 198
L 800 198
L 800 198
L 800 198
L 800 198
L 800 198
L 800 198
L 800 198
L 800 198
L 800 198
L 800 198
L 800 198
L 800 198
L 800 198
L 800 198
L 800 198
L 800 198
L 800 198
L 800 198
L 800 198
L 800 198
L 800 198
L 800 198
L 800 197
L 800 197
L 800 197
L 800 197
L 800 197
L 800 197
L 800 197
L 800 197
L 800 197
L 800 197
L 800 197
L 800 197
L 800 197
L 800 197
L 800 197
L 800 197
L 800 197
L 800 197
L 800 197
L 800 197
L 800 197
L 800 197
L 800 197
L 800 197
L 800 197
L 800 197
L 800 197
L 800 196
L 800 196
L 800 196
L 800 196
L 800 196
L 800 196
L 800 196
L 800 196
L 800 196
L 800 196
L 800 196
L 800 196
L 800 196
L 800 196
L 800 196
L 800 196
L 800 196
L 800 196
L 800 196
L 800 196
L 800 196
L 800 196
L 800 196
L 800 196
L 800 196
L 800 196
L 800 196
L 800 195
L 800 195
L 800 195
L 800 195
L 800 195
L 800 195
L 800 195
L 800 195
L 800 195
L 800 195
L 800 195
L 800 195
L 800 195
L 800 195
L 800 195
L 800 195
L 800 195
L 800 195
L 800 195
L 800 195
L 800 195
L 800 195
L 800 195
L 800 195
L 800 195
L 800 195
L 800 195
L 800 195
L 800 194
L 800 194
L 800 194
L 800 194
L 800 194
L 800 194
L 800 194
L 800 194
L 800 194
L 800 194
L 800 194
L 800 194
L 800 194
L 800 194
L 800 194
L 800 194
L 800 194
L 800 194
L 800 194
L 800 194
L 800 194
L 800 194
L 800 194
L 800 194
L 800 194
L 800 194
L 800 194
L 800 193
L 800 193
L 800 193
L 800 193
L 800 193
L 800 193
L 800 193
L 800 193
L 800 193
L 800 193
L 800 193
L 800 193
L 800 193
L 800 193
L 800 193
L 800 193
L 800 193
L 800 193
L 800 193
L 800 193
L 800 193
L 800 193
L 800 193
L 800 193
L 800 193
L 800 193
L 800 193
L 800 192
L 800 192
L 800 192
L 800 192
L 800 192
L 800 192
L 800 192
L 800 192
L 800 192
L 800 192
L 800 192
L 800 192
L 800 192
L 800 192
L 800 192
L 800 192
L 800 192
L 800 192
L 800 192
L 800 192
L 800 192
L 800 192
L 800 192
L 800 192
L 800 192
L 800 192
L 800 192
L 800 192
L 800 191
L 800 191
L 800 191
L 800 191
L 800 191
L 800 191
L 800 191
L 800 191
L 800 191
L 800 191
L 800 191
L 800 191
L 801 191
L 801 191
L 801 191
L 801 191
L 801 191
L 801 191
L 801 191
L 801 191
L 801 191
L 801 191
L 801 191
L 801 191
L 801 191
L 801 191
L 801 191
L 801 190
L 801 190
L 801 190
L 801 190
L 801 190
L 801 190
L 801 190
L 801 190
L 801 190
L 801 190
L 801 190
L 801 190
L 801 190
L 801 190
L 801 190
L 801 190
L 801 190
L 801 190
L 801 190
L 801 190
L 801 190
L 801 190
L 801 190
L 801 190
L 801 190
L 801 190
L 801 190
L 801 189
L 801 189
L 801 189
L 801 189
L 801 189
L 801 189
L 801 189
L 801 189
L 801 189
L 801 189
L 801 189
L 801 189
L 801 189
L 801 189
L 801 189
L 801 189
L 801 189
L 801 189
L 801 189
L 801 189
L 801 189
L 801 189
L 801 189
L 801 189
L 801 189
L 801 189
L 801 189
L 801 189
L 801 188
L 801 188
L 801 188
L 801 188
L 801 188
L 801 188
L 801 188
L 801 188
L 801 188
L 801 188
L 801 188
L 801 188
L 801 188
L 801 188
L 801 188
L 801 188
L 801 188
L 801 188
L 801 188
L 801 188
L 801 188
L 801 188
L 801 188
L 801 188
L 801 188
L 801 188
L 801 188
L 801 187
L 801 187
L 801 187
L 801 187
L 801 187
L 801 187
L 801 187
L 801 187
L 801 187
L 801 187
L 801 187
L 801 187
L 801 187
L 801 187
L 801 187
L 801 187
L 801 187
L 801 187
L 801 187
L 801 187
L 801 187
L 801 187
L 801 187
L 801 187
L 801 187
L 801 187
L 801 187
L 801 186
L 801 186
L 801 186
L 801 186
L 801 186
L 801 186
L 801 186
L 801 186
L 801 186
L 801 186
L 801 186
L 801 186
L 801 186
L 801 186
L 801 186
L 801 186
L 801 186
L 801 186
L 801 186
L 801 186
L 801 186
L 801 186
L 801 186
L 801 186
L 801 186
L 801 186
L 801 186
L 801 186
L 801 185
L 801 185
L 801 185
L 801 185
L 801 185
L 801 185
L 801 185
L 801 185
L 801 185
L 801 185
L 801 185
L 801 185
L 801 185
L 801 185
L 801 185
L 801 185
L 801 185
L 801 185
L 801 185
L 801 185
L 801 185
L 801 185
L 801 185
L 801 185
L 801 185
L 801 185
L 801 185
L 801 184
L 801 184
L 801 184
L 801 184
L 801 184
L 801 184
L 801 184
L 801 184
L 801 184
L 801 184
L 801 184
L 801 184
L 801 184
L 801 184
L 801 184
L 801 184
L 801 184
L 801 184
L 801 184
L 801 184
L 801 184
L 801 184
L 801 184
L 801 184
L 801 184
L 801 184
L 801 184
L 801 183
L 801 183
L 801 183
L 801 183
L 801 183
L 801 183
L 801 183
L 801 183
L 801 183
L 801 183
L 801 183
L 801 183
L 801 183
L 801 183
L 801 183
L 801 183
L 801 183
L 801 183
L 801 183
L 801 183
L 801 183
L 801 183
L 801 183
L 801 183
L 801 183
L 801 183
L 801 183
L 801 183
L 801 182
L 801 182
L 801 182
L 801 182
L 801 182
L 801 182
L 801 182
L 801 182
L 801 182
L 801 182
L 801 182
L 801 182
L 801 182
L 801 182
L 801 182
L 801 182
L 801 182
L 801 182
L 801 182
L 801 182
L 801 182
L 801 182
L 801 182
L 801 182
L 801 182
L 801 182
L 801 182
L 801 181
L 801 181
L 801 181
L 801 181
L 801 181
L 801 181
L 801 181
L 801 181
L 801 181
L 801 181
L 801 181
L 801 181
L 801 181
L 801 181
L 801 181
L 801 181
L 801 181
L 801 181
L 801 181
L 801 181
L 801 181
L 801 181
L 801 181
L 801 181
L 801 181
L 801 181
L 801 181
L 801 181
L 801 180
L 801 180
L 801 180
L 801 180
L 801 180
L 801 180
L 801 180
L 801 180
L 801 180
L 801 180
L 801 180
L 801 180
L 801 180
L 801 180
L 801 180
L 801 180
L 801 180
L 801 180
L 801 180
L 801 180
L 801 180
L 801 180
L 801 180
L 801 180
L 801 180
L 801 180
L 801 180
L 801 179
L 801 179
L 801 179
L 801 179
L 801 179
L 801 179
L 801 179
L 801 179
L 801 179
L 801 179
L 801 179
L 801 179
L 801 179
L 801 179
L 801 179
L 801 179
L 801 179
L 801 179
L 801 179
L 801 179
L 801 179
L 801 179
L 801 179
L 801 179
L 801 179
L 801 179
L 801 179
L 801 178
L 801 178
L 801 178
L 801 178
L 801 178
L 801 178
L 801 178
L 801 178
L 801 178
L 801 178
L 801 178
L 801 178
L 801 178
L 801 178
L 801 178
L 801 178
L 801 178
L 801 178
L 801 178
L 801 178
L 801 178
L 801 178
L 801 178
L 801 178
L 801 178
L 801 178
L 801 178
L 801 178
L 801 177
L 801 177
L 801 177
L 801 177
L 801 177
L 801 177
L 801 177
L 801 177
L 801 177
L 801 177
L 801 177
L 801 177
L 801 177
L 801 177
L 801 177
L 801 177
L 801 177
L 801 177
L 801 177
L 801 177
L 801 177
L 801 177
L 801 177
L 801 177
L 801 177
L 801 177
L 801 177
L 801 176
L 801 176
L 801 176
L 801 176
L 801 176
L 801 176
L 801 176
L 801 176
L 801 176
L 801 176
L 801 176
L 802 176
L 802 176
L 802 176
L 802 176
L 802 176
L 802 176
L 802 176
L 802 176
L 802 176
L 802 176
L 802 176
L 802 176
L 802 176
L 802 176
L 802 176
L 802 176
L 802 175
L 802 175
L 802 175
L 802 175
L 802 175
L 802 175
L 802 175
L 802 175
L 802 175
L 802 175
L 802 175
L 802 175
L 802 175
L 802 175
L 802 175
L 802 175
L 802 175
L 802 175
L 802 175
L 802 175
L 802 175
L 802 175
L 802 175
L 802 175
L 802 175
L 802 175
L 802 175
L 802 175
L 802 174
L 802 174
L 802 174
L 802 174
L 802 174
L 802 174
L 802 174
L 802 174
L 802 174
L 802 174
L 802 174
L 802 174
L 802 174
L 802 174
L 802 174
L 802 174
L 802 174
L 802 174
L 802 174
L 802 174
L 802 174
L 802 174
L 802 174
L 802 174
L 802 174
L 802 174
L 802 174
L 802 173
L 802 173
L 802 173
L 802 173
L 802 173
L 802 173
L 802 173
L 802 173
L 802 173
L 802 173
L 802 173
L 802 173
L 802 173
L 802 173
L 802 173
L 802 173
L 802 173
L 802 173
L 802 173
L 802 173
L 802 173
L 802 173
L 802 173
L 802 173
L 802 173
L 802 173
L 802 173
L 802 172
L 802 172
L 802 172
L 802 172
L 802 172
L 802 172
L 802 172
L 802 172
L 802 172
L 802 172
L 802 172
L 802 172
L 802 172
L 802 172
L 802 172
L 802 172
L 802 172
L 802 172
L 802 172
L 802 172
L 802 172
L 802 172
L 802 172
L 802 172
L 802 172
L 802 172
L 802 172
L 802 172
L 802 171
L 802 171
L 802 171
L 802 171
L 802 171
L 802 171
L 802 171
L 802 171
L 802 171
L 802 171
L 802 171
L 802 171
L 802 171
L 802 171
L 802 171
L 802 171
L 802 171
L 802 171
L 802 171
L 802 171
L 802 171
L 802 171
L 802 171
L 802 171
L 802 171
L 802 171
L 802 171
L 802 170
L 802 170
L 802 170
L 802 170
L 802 170
L 802 170
L 802 170
L 802 170
L 802 170
L 802 170
L 802 170
L 802 170
L 802 170
L 802 170
L 802 170
L 802 170
L 802 170
L 802 170
L 802 170
L 802 170
L 802 170
L 802 170
L 802 170
L 802 170
L 802 170
L 802 170
L 802 170
L 802 169
L 802 169
L 802 169
L 802 169
L 802 169
L 802 169
L 802 169
L 802 169
L 802 169
L 802 169
L 802 169
L 802 169
L 802 169
L 802 169
L 802 169
L 802 169
L 802 169
L 802 169
L 802 169
L 802 169
L 802 169
L 802 169
L 802 169
L 802 169
L 802 169
L 802 169
L 802 169
L 802 169
L 802 168
L 802 168
L 802 168
L 802 168
L 802 168
L 802 168
L 802 168
L 802 168
L 802 168
L 802 168
L 802 168
L 802 168
L 802 168
L 802 168
L 802 168
L 802 168
L 802 168
L 802 168
L 802 168
L 802 168
L 802 168
L 802 168
L 802 168
L 802 168
L 802 168
L 802 168
L 802 168
L 802 167
L 802 167
L 802 167
L 802 167
L 802 167
L 802 167
L 802 167
L 802 167
L 802 167
L 802 167
L 802 167
L 802 167
L 802 167
L 802 167
L 802 167
L 802 167
L 802 167
L 802 167
L 802 167
L 802 167
L 802 167
L 802 167
L 803 167
L 803 167
L 803 167
L 803 167
L 803 167
L 803 166
L 803 166
L 803 166
L 803 166
L 803 166
L 803 166
L 803 166
L 803 166
L 803 166
L 803 166
L 803 166
L 803 166
L 803 166
L 803 166
L 803 166
L 803 166
L 803 166
L 803 166
L 803 166
L 803 166
L 803 166
L 803 166
L 803 166
L 803 166
L 803 166
L 803 166
L 803 166
L 803 166
L 803 165
L 803 165
L 803 165
L 803 165
L 803 165
L 803 165
L 803 165
L 803 165
L 803 165
L 803 165
L 803 165
L 803 165
L 803 165
L 803 165
L 803 165
L 803 165
L 803 165
L 803 165
L 803 165
L 803 165
L 803 165
L 803 165
L 803 165
L 803 165
L 803 165
L 803 165
L 803 165
L 803 164
L 803 164
L 803 164
L 803 164
L 803 164
L 803 164
L 803 164
L 803 164
L 803 164
L 803 164
L 803 164
L 803 164
L 803 164
L 803 164
L 803 164
L 803 164
L 803 164
L 803 164
L 803 164
L 803 164
L 803 164
L 803 164
L 803 164
L 803 164
L 803 164
L 803 164
L 803 164
L 803 163
L 803 163
L 803 163
L 803 163
L 803 163
L 803 163
L 803 163
L 803 163
L 803 163
L 803 163
L 803 163
L 803 163
L 803 163
L 803 163
L 803 163
L 803 163
L 803 163
L 803 163
L 803 163
L 803 163
L 803 163
L 803 163
L 803 163
L 803 163
L 803 163
L 803 163
L 803 163
L 803 163
L 803 162
L 803 162
L 803 162
L 803 162
L 803 162
L 803 162
L 803 162
L 803 162
L 803 162
L 803 162
L 803 162
L 803 162
L 803 162
L 803 162
L 803 162
L 803 162
L 803 162
L 803 162
L 803 162
L 803 162
L 803 162
L 803 162
L 803 162
L 803 162
L 803 162
L 803 162
L 803 162
L 803 161
L 803 161
L 803 161
L 803 161
L 803 161
L 803 161
L 803 161
L 803 161
L 803 161
L 803 161
L 803 161
L 803 161
L 804 161
L 804 161
L 804 161
L 804 161
L 804 161
L 804 161
L 804 161
L 804 161
L 804 161
L 804 161
L 804 161
L 804 161
L 804 161
L 804 161
L 804 161
L 804 161
L 804 160
L 804 160
L 804 160
L 804 160
L 804 160
L 804 160
L 804 160
L 804 160
L 804 160
L 804 160
L 804 160
L 804 160
L 804 160
L 804 160
L 804 160
L 804 160
L 804 160
L 804 160
L 804 160
L 804 160
L 804 160
L 804 160
L 804 160
L 804 160
L 804 160
L 804 160
L 804 160
L 804 159
L 805 159
L 805 159
L 805 159
L 805 159
L 805 159
L 805 159
L 805 159
L 805 159
L 805 159
L 805 159
L 805 159
L 805 159
L 805 159
L 805 159
L 805 159
L 805 159
L 805 159
L 805 159
L 805 159
L 805 159
L 805 159
L 805 159
L 805 159
L 805 159
L 805 159
L 805 159
L 805 158
L 805 158
L 805 158
L 805 158
L 805 158
L 805 158
L 805 158
L 805 158
L 805 158
L 805 158
L 805 158
L 805 158
L 805 158
L 805 158
L 805 158
L 805 158
L 805 158
L 805 158
L 805 158
L 805 158
L 805 158
L 805 158
L 805 158
L 805 158
L 805 158
L 805 158
L 805 158
L 805 158
L 805 157
L 805 157
L 805 157
L 805 157
L 805 157
L 805 157
L 805 157
L 805 157
L 805 157
L 805 157
L 805 157
L 805 157
L 805 157
L 805 157
L 805 157
L 805 157
L 805 157
L 805 157
L 805 157
L 805 157
L 805 157
L 805 157
L 805 157
L 805 157
L 805 157
L 805 157
L 805 157
L 805 156
L 805 156
L 805 156
L 805 156
L 805 156
L 805 156
L 805 156
L 805 156
L 805 156
L 805 156
L 805 156
L 805 156
L 805 156
L 805 156
L 806 156
L 806 156
L 806 156
L 806 156
L 806 156
L 806 156
L 806 156
L 806 156
L 806 156
L 806 156
L 806 156
L 806 156
L 806 156
L 806 155
L 806 155
L 806 155
L 806 155
L 806 155
L 806 155
L 806 155
L 806 155
L 806 155
L 806 155
L 806 155
L 806 155
L 806 155
L 806 155
L 806 155
L 806 155
L 806 155
L 806 155
L 806 155
L 806 155
L 806 155
L 806 155
L 806 155
L 806 155
L 806 155
L 806 155
L 806 155
L 806 155
L 806 154
L 806 154
L 806 154
L 806 154
L 806 154
L 807 154
L 807 154
L 807 154
L 807 154
L 807 154
L 807 154
L 807 154
L 807 154
L 807 154
L 807 154
L 807 154
L 807 154
L 807 154
L 807 154
L 807 154
L 807 154
L 807 154
L 807 154
L 807 154
L 807 154
L 807 154
L 807 154
L 807 153
L 807 153
L 807 153
L 807 153
L 807 153
L 807 153
L 807 153
L 807 153
L 808 153
L 808 153
L 808 153
L 808 153
L 808 153
L 808 153
L 808 153
L 808 153
L 808 153
L 808 153
L 808 153
L 808 153
L 808 153
L 808 153
L 808 153
L 808 153
L 808 153
L 809 153
L 809 153
L 809 152
L 809 152
L 809 152
L 809 152
L 809 152
L 809 152
L 809 152
L 809 152
L 809 152
L 809 152
L 809 152
L 809 152
L 809 152
L 809 152
L 809 152
L 809 152
L 809 152
L 809 152
L 809 152
L 809 152
L 809 152
L 809 152
L 809 152
L 809 152
L 809 152
L 809 152
L 809 152
L 809 152
L 810 151
L 810 151
L 810 151
L 810 151
L 810 151
L 810 151
L 810 151
L 810 151
L 810 151
L 810 151
L 810 151
L 810 151
L 810 151
L 810 151
L 810 151
L 810 151
L 810 151
L 810 151
L 810 151
L 810 151
L 810 151
L 810 151
L 810 151
L 810 151
L 810 151
L 810 151
L 810 151
L 810 150
L 811 150
L 811 150
L 811 150
L 811 150
L 811 150
L 811 150
L 811 150
L 811 150
L 811 150
L 811 150
L 811 150
L 811 150
L 811 150
L 811 150
L 811 150
L 811 150
L 812 150
L 812 150
L 812 150
L 812 150
L 812 150
L 812 150
L 812 150
L 812 150
L 812 150
L 812 150
L 812 149
L 812 149
L 812 149
L 812 149
L 812 149
L 812 149
L 812 149
L 812 149
L 812 149
L 812 149
L 812 149
L 812 149
L 812 149
L 812 149
L 812 149
L 812 149
L 812 149
L 812 149
L 812 149
L 812 149
L 812 149
L 812 149
L 812 149
L 812 149
L 812 149
L 812 149
L 812 149
L 813 149
L 813 148
L 813 148
L 813 148
L 813 148
L 813 148
L 813 148
L 813 148
L 813 148
L 813 148
L 813 148
L 813 148
L 813 148
L 813 148
L 813 148
L 814 148
L 814 148
L 814 148
L 814 148
L 814 148
L 814 148
L 814 148
L 814 148
L 814 148
L 814 148
L 814 148
L 814 148
L 814 148
L 815 147
L 815 147
L 815 147
L 815 147
L 815 147
L 815 147
L 815 147
L 815 147
L 815 147
L 815 147
L 815 147
L 815 147
L 816 147
L 816 147
L 816 147
L 816 147
L 816 147
L 816 147
L 816 147
L 816 147
L 816 147
L 816 147
L 816 147
L 816 147
L 816 147
L 816 147
L 816 147
L 816 147
L 816 146
L 816 146
L 816 146
L 816 146
L 816 146
L 816 146
L 816 146
L 816 146
L 816 146
L 816 146
L 816 146
L 816 146
L 816 146
L 816 146
L 816 146
L 816 146
L 816 146
L 816 146
L 816 146
L 816 146
L 816 146
L 816 146
L 816 146
L 816 146
L 816 146
L 816 146
L 816 146
L 816 145
L 816 145
L 816 145
L 816 145
L 817 145
L 817 145
L 817 145
L 817 145
L 817 145
L 817 145
L 817 145
L 817 145
L 817 145
L 817 145
L 817 145
L 817 145
L 817 145
L 817 145
L 817 145
L 817 145
L 817 145
L 817 145
L 817 145
L 817 145
L 817 145
L 817 145
L 817 145
L 817 144
L 817 144
L 817 144
L 817 144
L 817 144
L 817 144
L 817 144
L 817 144
L 817 144
L 817 144
L 817 144
L 817 144
L 817 144
L 817 144
L 817 144
L 817 144
L 817 144
L 817 144
L 817 144
L 817 144
L 817 144
L 817 144
L 817 144
L 817 144
L 817 144
L 818 144
L 818 144
L 818 144
L 818 143
L 818 143
L 818 143
L 818 143
L 818 143
L 818 143
L 818 143
L 818 143
L 818 143
L 818 143
L 818 143
L 818 143
L 818 143
L 818 143
L 818 143
L 818 143
L 818 143
L 818 143
L 818 143
L 818 143
L 818 143
L 818 143
L 818 143
L 818 143
L 818 143
L 818 143
L 818 143
L 818 142
L 818 142
L 818 142
L 818 142
L 818 142
L 818 142
L 818 142
L 818 142
L 818 142
L 818 142
L 819 142
L 819 142
L 819 142
L 819 142
L 819 142
L 819 142
L 819 142
L 819 142
L 819 142
L 819 142
L 819 142
L 819 142
L 819 142
L 819 142
L 819 142
L 819 142
L 819 142
L 819 141
L 819 141
L 819 141
L 819 141
L 819 141
L 819 141
L 819 141
L 819 141
L 819 141
L 819 141
L 819 141
L 820 141
L 820 141
L 820 141
L 820 141
L 820 141
L 820 141
L 820 141
L 820 141
L 820 141
L 820 141
L 820 141
L 820 141
L 820 141
L 820 141
L 820 141
L 820 141
L 820 141
L 820 140
L 820 140
L 820 140
L 820 140
L 820 140
L 820 140
L 820 140
L 820 140
L 820 140
L 820 140
L 820 140
L 820 140
L 820 140
L 820 140
L 820 140
L 820 140
L 820 140
L 820 140
L 820 140
L 820 140
L 820 140
L 820 140
L 820 140
L 821 140
L 821 140
L 821 140
L 821 140
L 821 139
L 821 139
L 821 139
L 821 139
L 821 139
L 821 139
L 821 139
L 821 139
L 821 139
L 821 139
L 821 139
L 821 139
L 821 139
L 821 139
L 821 139
L 821 139
L 821 139
L 822 139
L 822 139
L 822 139
L 822 139
L 822 139
L 822 139
L 822 139
L 822 139
L 822 139
L 822 139
L 822 138
L 822 138
L 822 138
L 822 138
L 822 138
L 822 138
L 822 138
L 822 138
L 822 138
L 822 138
L 822 138
L 822 138
L 822 138
L 822 138
L 822 138
L 822 138
L 822 138
L 822 138
L 823 138
L 823 138
L 823 138
L 823 138
L 823 138
L 823 138
L 823 138
L 823 138
L 823 138
L 823 138
L 823 137
L 823 137
L 823 137
L 823 137
L 823 137
L 823 137
L 823 137
L 823 137
L 823 137
L 823 137
L 823 137
L 823 137
L 823 137
L 824 137
L 824 137
L 824 137
L 824 137
L 824 137
L 825 137
L 825 137
L 825 137
L 825 137
L 825 137
L 825 137
L 825 137
L 825 137
L 826 137
L 826 136
L 826 136
L 826 136
L 826 136
L 826 136
L 826 136
L 826 136
L 826 136
L 826 136
L 826 136
L 826 136
L 826 136
L 827 136
L 827 136
L 827 136
L 827 136
L 827 136
L 827 136
L 827 136
L 827 136
L 827 136
L 827 136
L 827 136
L 827 136
L 827 136
L 827 136
L 828 136
L 828 135
L 828 135
L 828 135
L 828 135
L 828 135
L 828 135
L 828 135
L 828 135
L 828 135
L 828 135
L 828 135
L 828 135
L 829 135
L 829 135
L 829 135
L 829 135
L 829 135
L 829 135
L 830 135
L 830 135
L 830 135
L 830 135
L 830 135
L 830 135
L 830 135
L 830 135
L 830 135
L 831 135
L 831 134
L 831 134
L 831 134
L 831 134
L 831 134
L 831 134
L 831 134
L 831 134
L 831 134
L 831 134
L 831 134
L 831 134
L 832 134
L 832 134
L 832 134
L 832 134
L 832 134
L 832 134
L 832 134
L 832 134
L 832 134
L 832 134
L 832 134
L 833 134
L 833 134
L 833 134
L 833 134
L 833 133
L 833 133
L 833 133
L 833 133
L 833 133
L 833 133
L 834 133
L 834 133
L 834 133
L 834 133
L 834 133
L 834 133
L 834 133
L 834 133
L 834 133
L 834 133
L 834 133
L 834 133
L 834 133
L 834 133
L 834 133
L 834 133
L 834 133
L 834 133
L 834 133
L 834 133
L 834 133
L 835 132
L 835 132
L 835 132
L 835 132
L 835 132
L 835 132
L 835 132
L 835 132
L 835 132
L 836 132
L 836 132
L 836 132
L 836 132
L 836 132
L 836 132
L 836 132
L 837 132
L 837 132
L 837 132
L 837 132
L 837 132
L 837 132
L 837 132
L 837 132
L 837 132
L 837 132
L 837 132
L 837 132
L 838 131
L 838 131
L 838 131
L 838 131
L 838 131
L 838 131
L 838 131
L 838 131
L 838 131
L 838 131
L 838 131
L 838 131
L 838 131
L 838 131
L 838 131
L 838 131
L 838 131
L 839 131
L 839 131
L 839 131
L 839 131
L 839 131
L 839 131
L 839 131
L 839 131
L 839 131
L 840 131
L 840 130
L 840 130
L 840 130
L 840 130
L 840 130
L 840 130
L 841 130
L 841 130
L 841 130
L 841 130
L 841 130
L 841 130
L 842 130
L 842 130
L 842 130
L 842 130
L 842 130
L 842 130
L 842 130
L 842 130
L 842 130
L 842 130
L 842 130
L 842 130
L 842 130
L 842 130
L 842 130
L 842 130
L 842 129
L 842 129
L 842 129
L 843 129
L 843 129
L 843 129
L 843 129
L 843 129
L 843 129
L 843 129
L 843 129
L 843 129
L 843 129
L 843 129
L 843 129
L 843 129
L 843 129
L 843 129
L 843 129
L 843 129
L 843 129
L 843 129
L 843 129
L 843 129
L 843 129
L 843 129
L 843 129
L 843 128
L 843 128
L 843 128
L 843 128
L 843 128
L 843 128
L 844 128
L 844 128
L 844 128
L 844 128
L 844 128
L 844 128
L 844 128
L 844 128
L 844 128
L 844 128
L 844 128
L 844 128
L 844 128
L 844 128
L 844 128
L 844 128
L 844 128
L 844 128
L 844 128
L 844 128
L 844 128
L 844 127
L 844 127
L 844 127
L 844 127
L 844 127
L 844 127
L 844 127
L 844 127
L 844 127
L 844 127
L 844 127
L 844 127
L 844 127
L 844 127
L 844 127
L 845 127
L 845 127
L 845 127
L 845 127
L 845 127
L 845 127
L 845 127
L 845 127
L 845 127
L 845 127
L 845 127
L 845 127
L 845 127
L 845 126
L 845 126
L 845 126
L 845 126
L 845 126
L 845 126
L 845 126
L 846 126
L 846 126
L 846 126
L 846 126
L 846 126
L 846 126
L 847 126
L 847 126
L 847 126
L 847 126
L 847 126
L 847 126
L 847 126
L 847 126
L 847 126
L 847 126
L 847 126
L 847 126
L 847 126
L 847 126
L 847 125
L 848 125
L 848 125
L 848 125
L 848 125
L 848 125
L 848 125
L 848 125
L 848 125
L 848 125
L 848 125
L 848 125
L 848 125
L 848 125
L 848 125
L 848 125
L 849 125
L 849 125
L 849 125
L 849 125
L 849 125
L 849 125
L 849 125
L 849 125
L 849 125
L 849 125
L 849 125
L 849 124
L 850 124
L 850 124
L 850 124
L 850 124
L 850 124
L 850 124
L 850 124
L 850 124
L 850 124
L 850 124
L 850 124
L 850 124
L 850 124
L 851 124
L 851 124
L 851 124
L 851 124
L 851 124
L 851 124
L 851 124
L 851 124
L 851 124
L 851 124
L 851 124
L 851 124
L 851 124
L 851 124
L 852 123
L 852 123
L 852 123
L 852 123
L 852 123
L 852 123
L 852 123
L 852 123
L 852 123
L 853 123
L 853 123
L 853 123
L 853 123
L 853 123
L 853 123
L 853 123
L 853 123
L 853 123
L 854 123
L 854 123
L 854 123
L 854 123
L 854 123
L 854 123
L 854 123
L 854 123
L 854 123
L 854 122
L 854 122
L 854 122
L 855 122
L 855 122
L 855 122
L 855 122
L 855 122
L 855 122
L 855 122
L 855 122
L 855 122
L 855 122
L 855 122
L 855 122
L 855 122
L 855 122
L 855 122
L 856 122
L 856 122
L 856 122
L 856 122
L 856 122
L 856 122
L 856 122
L 856 122
L 856 122
L 856 121
L 856 121
L 856 121
L 856 121
L 857 121
L 857 121
L 857 121
L 857 121
L 857 121
L 857 121
L 857 121
L 858 121
L 858 121
L 858 121
L 858 121
L 858 121
L 858 121
L 858 121
L 858 121
L 858 121
L 858 121
L 858 121
L 858 121
L 858 121
L 859 121
L 859 121
L 859 121
L 859 121
L 859 120
L 859 120
L 859 120
L 859 120
L 859 120
L 859 120
L 859 120
L 859 120
L 859 120
L 859 120
L 859 120
L 859 120
L 859 120
L 859 120
L 859 120
L 859 120
L 859 120
L 859 120
L 859 120
L 859 120
L 859 120
L 860 120
L 860 120
L 860 120
L 860 120
L 860 120
L 860 120
L 860 119
L 860 119
L 860 119
L 861 119
L 861 119
L 861 119
L 861 119
L 861 119
L 861 119
L 861 119
L 861 119
L 861 119
L 862 119
L 862 119
L 862 119
L 862 119
L 862 119
L 862 119
L 862 119
L 862 119
L 862 119
L 862 119
L 863 119
L 863 119
L 863 119
L 863 119
L 863 119
L 863 118
L 863 118
L 863 118
L 863 118
L 863 118
L 863 118
L 864 118
L 864 118
L 864 118
L 864 118
L 864 118
L 864 118
L 864 118
L 865 118
L 865 118
L 865 118
L 865 118
L 865 118
L 865 118
L 865 118
L 865 118
L 865 118
L 865 118
L 865 118
L 865 118
L 865 118
L 865 118
L 865 118
L 866 117
L 866 117
L 866 117
L 866 117
L 866 117
L 866 117
L 866 117
L 866 117
L 866 117
L 866 117
L 866 117
L 866 117
L 866 117
L 866 117
L 866 117
L 866 117
L 867 117
L 867 117
L 867 117
L 867 117
L 867 117
L 867 117
L 867 117
L 867 117
L 867 117
L 868 117
L 868 117
L 868 116
L 868 116
L 868 116
L 869 116
L 869 116
L 869 116
L 869 116
L 869 116
L 869 116
L 869 116
L 869 116
L 869 116
L 869 116
L 869 116
L 869 116
L 869 116
L 869 116
L 869 116
L 870 116
L 870 116
L 870 116
L 870 116
L 870 116
L 870 116
L 870 116
L 870 116
L 870 116
L 870 115
L 870 115
L 870 115
L 870 115
L 871 115
L 871 115
L 871 115
L 871 115
L 871 115
L 871 115
L 871 115
L 871 115
L 871 115
L 871 115
L 871 115
L 871 115
L 871 115
L 871 115
L 871 115
L 871 115
L 871 115
L 871 115
L 871 115
L 871 115
L 871 115
L 871 115
L 871 115
L 871 115
L 871 114
L 871 114
L 871 114
L 871 114
L 871 114
L 871 114
L 871 114
L 871 114
L 871 114
L 871 114
L 871 114
L 871 114
L 871 114
L 871 114
L 871 114
L 871 114
L 871 114
L 871 114
L 871 114
L 871 114
L 871 114
L 871 114
L 871 114
L 872 114
L 872 114
L 872 114
L 872 114
L 872 113
L 872 113
L 872 113
L 872 113
L 872 113
L 872 113
L 872 113
L 872 113
L 872 113
L 872 113
L 872 113
L 872 113
L 872 113
L 872 113
L 872 113
L 872 113
L 872 113
L 872 113
L 872 113
L 872 113
L 872 113
L 872 113
L 873 113
L 873 113
L 873 113
L 873 113
L 873 113
L 873 113
L 873 112
L 873 112
L 873 112
L 873 112
L 873 112
L 873 112
L 873 112
L 873 112
L 873 112
L 873 112
L 873 112
L 873 112
L 873 112
L 873 112
L 873 112
L 873 112
L 873 112
L 873 112
L 873 112
L 873 112
L 873 112
L 873 112
L 873 112
L 873 112
L 873 112
L 873 112
L 873 112
L 873 111
L 874 111
L 874 111
L 874 111
L 874 111
L 874 111
L 874 111
L 874 111
L 874 111
L 874 111
L 874 111
L 874 111
L 874 111
L 874 111
L 874 111
L 874 111
L 874 111
L 874 111
L 875 111
L 875 111
L 875 111
L 875 111
L 875 111
L 875 111
L 875 111
L 875 111
L 875 111
L 875 110
L 875 110
L 875 110
L 875 110
L 875 110
L 875 110
L 875 110
L 875 110
L 875 110
L 875 110
L 875 110
L 875 110
L 875 110
L 875 110
L 875 110
L 875 110
L 875 110
L 875 110
L 875 110
L 875 110
L 875 110
L 875 110
L 876 110
L 876 110
L 876 110
L 876 110
L 876 110
L 876 110
L 876 109
L 876 109
L 876 109
L 876 109
L 876 109
L 876 109
L 876 109
L 876 109
L 876 109
L 876 109
L 876 109
L 876 109
L 876 109
L 876 109
L 876 109
L 876 109
L 876 109
L 876 109
L 876 109
L 876 109
L 876 109
L 876 109
L 876 109
L 876 109
L 876 109
L 876 109
L 876 109
L 876 108
L 876 108
L 876 108
L 876 108
L 876 108
L 876 108
L 876 108
L 876 108
L 876 108
L 876 108
L 876 108
L 876 108
L 876 108
L 876 108
L 876 108
L 876 108
L 876 108
L 876 108
L 876 108
L 876 108
L 876 108
L 876 108
L 876 108
L 876 108
L 876 108
L 876 108
L 876 108
L 877 107
L 877 107
L 877 107
L 877 107
L 877 107
L 877 107
L 877 107
L 877 107
L 877 107
L 877 107
L 877 107
L 877 107
L 877 107
L 877 107
L 877 107
L 877 107
L 877 107
L 877 107
L 877 107
L 877 107
L 877 107
L 877 107
L 877 107
L 877 107
L 877 107
L 877 107
L 877 107
L 877 107
L 877 106
L 877 106
L 877 106
L 877 106
L 877 106
L 877 106
L 877 106
L 877 106
L 877 106
L 877 106
L 877 106
L 877 106
L 877 106
L 877 106
L 877 106
L 877 106
L 877 106
L 877 106
L 877 106
L 877 106
L 877 106
L 877 106
L 877 106
L 877 106
L 877 106
L 877 106
L 877 106
L 877 105
L 877 105
L 877 105
L 877 105
L 877 105
L 877 105
L 877 105
L 877 105
L 877 105
L 877 105
L 878 105
L 878 105
L 878 105
L 878 105
L 878 105
L 878 105
L 878 105
L 878 105
L 878 105
L 878 105
L 878 105
L 878 105
L 878 105
L 878 105
L 878 105
L 878 105
L 878 105
L 878 104
L 878 104
L 878 104
L 878 104
L 878 104
L 878 104
L 878 104
L 878 104
L 878 104
L 878 104
L 878 104
L 878 104
L 878 104
L 878 104
L 878 104
L 878 104
L 878 104
L 878 104
L 878 104
L 878 104
L 878 104
L 878 104
L 878 104
L 878 104
L 878 104
L 878 104
L 878 104
L 878 104
L 878 103
L 878 103
L 878 103
L 878 103
L 878 103
L 878 103
L 878 103
L 878 103
L 878 103
L 878 103
L 878 103
L 878 103
L 878 103
L 878 103
L 879 103
L 879 103
L 879 103
L 879 103
L 879 103
L 879 103
L 879 103
L 879 103
L 879 103
L 879 103
L 879 103
L 879 103
L 879 103
L 879 102
L 879 102
L 879 102
L 879 102
L 879 102
L 879 102
L 879 102
L 880 102
L 880 102
L 880 102
L 880 102
L 880 102
L 880 102
L 880 102
L 880 102
L 880 102
L 880 102
L 880 102
L 880 102
L 880 102
L 880 102
L 880 102
L 880 102
L 880 102
L 880 102
L 880 102
L 880 102
L 880 101
L 880 101
L 880 101
L 880 101
L 880 101
L 880 101
L 880 101
L 881 101
L 881 101
L 881 101
L 881 101
L 881 101
L 881 101
L 881 101
L 881 101
L 881 101
L 881 101
L 881 101
L 881 101
L 881 101
L 881 101
L 881 101
L 881 101
L 881 101
L 881 101
L 881 101
L 881 101
L 881 101
L 881 100
L 881 100
L 881 100
L 881 100
L 881 100
L 881 100
L 881 100
L 881 100
L 881 100
L 881 100
L 881 100
L 881 100
L 881 100
L 882 100
L 882 100
L 882 100
L 882 100
L 882 100
L 882 100
L 882 100
L 882 100
L 882 100
L 882 100
L 882 100
L 882 100
L 882 100
L 882 100
L 882 99
L 882 99
L 883 99
L 883 99
L 883 99
L 883 99
L 883 99
L 883 99
L 883 99
L 883 99
L 883 99
L 883 99
L 883 99
L 884 99
L 884 99
L 884 99
L 884 99
L 884 99
L 884 99
L 884 99
L 884 99
L 884 99
L 884 99
L 884 99
L 884 99
L 884 99
L 884 99
L 884 98
L 884 98
L 884 98
L 885 98
L 885 98
L 885 98
L 885 98
L 885 98
L 885 98
L 885 98
L 886 98
L 886 98
L 886 98
L 886 98
L 886 98
L 886 98
L 886 98
L 886 98
L 886 98
L 886 98
L 886 98
L 886 98
L 886 98
L 886 98
L 886 98
L 886 98
L 886 98
L 886 98
L 886 97
L 886 97
L 886 97
L 886 97
L 886 97
L 886 97
L 886 97
L 886 97
L 886 97
L 886 97
L 886 97
L 886 97
L 887 97
L 887 97
L 887 97
L 887 97
L 887 97
L 887 97
L 887 97
L 887 97
L 887 97
L 887 97
L 887 97
L 887 97
L 887 97
L 887 97
L 887 97
L 887 96
L 887 96
L 887 96
L 887 96
L 887 96
L 887 96
L 887 96
L 887 96
L 887 96
L 887 96
L 887 96
L 888 96
L 888 96
L 888 96
L 888 96
L 888 96
L 888 96
L 888 96
L 888 96
L 888 96
L 888 96
L 888 96
L 888 96
L 888 96
L 888 96
L 888 96
L 888 96
L 888 96
L 888 95
L 888 95
L 888 95
L 888 95
L 888 95
L 888 95
L 888 95
L 888 95
L 888 95
L 888 95
L 888 95
L 888 95
L 888 95
L 888 95
L 889 95
L 889 95
L 889 95
L 889 95
L 889 95
L 889 95
L 889 95
L 889 95
L 889 95
L 889 95
L 889 95
L 889 95
L 889 95
L 889 94
L 889 94
L 889 94
L 889 94
L 889 94
L 890 94
L 890 94
L 890 94
L 890 94
L 890 94
L 890 94
L 890 94
L 890 94
L 890 94
L 890 94
L 890 94
L 890 94
L 890 94
L 890 94
L 890 94
L 890 94
L 890 94
L 890 94
L 890 94
L 890 94
L 890 94
L 890 94
L 890 93
L 890 93
L 890 93
L 890 93
L 890 93
L 890 93
L 891 93
L 891 93
L 891 93
L 891 93
L 891 93
L 891 93
L 891 93
L 891 93
L 891 93
L 891 93
L 891 93
L 892 93
L 892 93
L 892 93
L 892 93
L 892 93
L 892 93
L 892 93
L 892 93
L 892 93
L 893 93
L 893 93
L 893 92
L 893 92
L 893 92
L 893 92
L 893 92
L 893 92
L 893 92
L 893 92
L 893 92
L 893 92
L 893 92
L 893 92
L 893 92
L 893 92
L 893 92
L 893 92
L 893 92
L 894 92
L 894 92
L 894 92
L 894 92
L 894 92
L 894 92
L 894 92
L 894 92
L 894 92
L 894 92
L 894 91
L 894 91
L 894 91
L 894 91
L 894 91
L 894 91
L 894 91
L 894 91
L 894 91
L 894 91
L 894 91
L 894 91
L 894 91
L 894 91
L 894 91
L 894 91
L 894 91
L 894 91
L 894 91
L 894 91
L 894 91
L 894 91
L 894 91
L 894 91
L 894 91
L 894 91
L 895 91
L 895 90
L 895 90
L 895 90
L 895 90
L 895 90
L 895 90
L 895 90
L 895 90
L 895 90
L 895 90
L 895 90
L 895 90
L 895 90
L 895 90
L 895 90
L 895 90
L 896 90
L 896 90
L 896 90
L 896 90
L 896 90
L 896 90
L 896 90
L 896 90
L 896 90
L 896 90
L 896 90
L 896 90
L 896 89
L 897 89
L 897 89
L 897 89
L 897 89
L 897 89
L 897 89
L 897 89
L 897 89
L 897 89
L 897 89
L 897 89
L 897 89
L 897 89
L 897 89
L 898 89
L 898 89
L 898 89
L 898 89
L 898 89
L 898 89
L 898 89
L 898 89
L 898 89
L 898 89
L 898 89
L 898 89
L 898 88
L 898 88
L 898 88
L 898 88
L 899 88
L 899 88
L 899 88
L 899 88
L 899 88
L 899 88
L 899 88
L 899 88
L 899 88
L 899 88
L 899 88
L 899 88
L 899 88
L 900 88
L 900 88
L 900 88
L 900 88
L 900 88
L 900 88
L 900 88
L 901 88
L 901 88
L 901 88
L 901 87
L 901 87
L 901 87
L 901 87
L 902 87
L 902 87
L 902 87
L 902 87
L 902 87
L 902 87
L 902 87
L 902 87
L 902 87
L 902 87
L 902 87
L 902 87
L 902 87
L 902 87
L 903 87
L 904 87
L 904 87
L 904 87
L 904 87
L 904 87
L 904 87
L 904 87
L 904 87
L 904 87
L 905 86
L 905 86
L 905 86
L 905 86
L 905 86
L 905 86
L 905 86
L 905 86
L 905 86
L 905 86
L 905 86
L 906 86
L 906 86
L 906 86
L 906 86
L 906 86
L 907 86
L 907 86
L 907 86
L 907 86
L 907 86
L 907 86
L 907 86
L 907 86
L 908 86
L 908 86
L 908 86
L 908 85
L 908 85
L 908 85
L 908 85
L 908 85
L 908 85
L 908 85
L 908 85
L 908 85
L 909 85
L 909 85
L 909 85
L 909 85
L 909 85
L 909 85
L 909 85
L 909 85
L 909 85
L 909 85
L 909 85
L 909 85
L 909 85
L 909 85
L 909 85
L 909 85
L 909 85
L 909 85
L 909 84
L 909 84
L 909 84
L 909 84
L 910 84
L 910 84
L 910 84
L 910 84
L 910 84
L 910 84
L 910 84
L 910 84
L 910 84
L 910 84
L 910 84
L 910 84
L 910 84
L 910 84
L 910 84
L 910 84
L 910 84
L 910 84
L 910 84
L 910 84
L 910 84
L 910 84
L 910 84
L 910 84
L 910 83
L 910 83
L 910 83
L 910 83
L 910 83
L 910 83
L 911 83
L 911 83
L 911 83
L 911 83
L 911 83
L 911 83
L 911 83
L 911 83
L 911 83
L 911 83
L 911 83
L 911 83
L 911 83
L 912 83
L 912 83
L 912 83
L 912 83
L 913 83
L 913 83
L 913 83
L 913 83
L 913 82
L 913 82
L 913 82
L 913 82
L 913 82
L 913 82
L 914 82
L 914 82
L 914 82
L 914 82
L 914 82
L 914 82
L 914 82
L 914 82
L 914 82
L 914 82
L 914 82
L 915 82
L 915 82
L 915 82
L 915 82
L 915 82
L 915 82
L 915 82
L 915 82
L 916 82
L 916 82
L 916 81
L 916 81
L 916 81
L 916 81
L 916 81
L 916 81
L 916 81
L 916 81
L 916 81
L 917 81
L 917 81
L 917 81
L 917 81
L 917 81
L 917 81
L 917 81
L 918 81
L 918 81
L 918 81
L 918 81
L 918 81
L 919 81
L 919 81
L 919 81
L 919 81
L 919 81
L 919 81
L 919 81
L 919 80
L 919 80
L 919 80
L 919 80
L 919 80
L 919 80
L 920 80
L 920 80
L 920 80
L 920 80
L 920 80
L 920 80
L 920 80
L 920 80
L 920 80
L 920 80
L 920 80
L 920 80
L 920 80
L 920 80
L 920 80
L 920 80
L 920 80
L 920 80
L 920 80
L 920 80
L 920 80
L 920 79
L 920 79
L 920 79
L 920 79
L 920 79
L 920 79
L 920 79
L 921 79
L 921 79
L 921 79
L 921 79
L 921 79
L 921 79
L 921 79
L 921 79
L 921 79
L 921 79
L 921 79
L 921 79
L 921 79
L 921 79
L 922 79
L 922 79
L 922 79
L 922 79
L 922 79
L 922 79
L 922 79
L 922 78
L 922 78
L 922 78
L 922 78
L 922 78
L 923 78
L 923 78
L 923 78
L 923 78
L 923 78
L 923 78
L 923 78
L 923 78
L 923 78
L 923 78
L 924 78
L 924 78
L 924 78
L 924 78
L 924 78
L 924 78
L 924 78
L 924 78
L 924 78
L 924 78
L 924 78
L 924 78
L 924 77
L 924 77
L 924 77
L 925 77
L 925 77
L 925 77
L 925 77
L 925 77
L 925 77
L 925 77
L 925 77
L 925 77
L 925 77
L 925 77
L 925 77
L 925 77
L 926 77
L 926 77
L 926 77
L 926 77
L 926 77
L 926 77
L 926 77
L 926 77
L 926 77
L 926 77
L 926 77
L 927 76
L 927 76
L 927 76
L 927 76
L 927 76
L 927 76
L 927 76
L 927 76
L 927 76
L 927 76
L 927 76
L 927 76
L 927 76
L 927 76
L 927 76
L 927 76
L 927 76
L 927 76
L 928 76
L 928 76
L 928 76
L 928 76
L 928 76
L 929 76
L 929 76
L 929 76
L 929 76
L 929 76
L 929 75
L 929 75
L 929 75
L 930 75
L 930 75
L 930 75
L 930 75
L 930 75
L 930 75
L 930 75
L 930 75
L 931 75
L 931 75
L 931 75
L 931 75
L 931 75
L 931 75
L 931 75
L 931 75
L 931 75
L 932 75
L 932 75
L 932 75
L 932 75
L 932 75
L 932 75
L 932 75
L 932 74
L 933 74
L 933 74
L 933 74
L 933 74
L 933 74
L 933 74
L 933 74
L 934 74
L 934 74
L 934 74
L 934 74
L 935 74
L 935 74
L 935 74
L 935 74
L 935 74
L 935 74
L 935 74
L 936 74
L 936 74
L 936 74
L 936 74
L 936 74
L 936 74
L 936 74
L 936 74
L 936 73
L 936 73
L 936 73
L 937 73
L 937 73
L 937 73
L 937 73
L 937 73
L 937 73
L 937 73
L 937 73
L 937 73
L 937 73
L 937 73
L 937 73
L 937 73
L 937 73
L 937 73
L 937 73
L 937 73
L 937 73
L 938 73
L 938 73
L 938 73
L 938 73
L 938 73
L 938 73
L 938 73
L 938 72
L 938 72
L 938 72
L 938 72
L 938 72
L 938 72
L 938 72
L 938 72
L 938 72
L 938 72
L 939 72
L 939 72
L 939 72
L 939 72
L 939 72
L 939 72
L 939 72
L 939 72
L 939 72
L 939 72
L 940 72
L 940 72
L 940 72
L 940 72
L 940 72
L 941 72
L 941 72
L 941 71
L 941 71
L 941 71
L 941 71
L 941 71
L 941 71
L 941 71
L 941 71
L 941 71
L 941 71
L 941 71
L 941 71
L 941 71
L 942 71
L 942 71
L 942 71
L 942 71
L 942 71
L 942 71
L 942 71
L 942 71
L 942 71
L 942 71
L 942 71
L 942 71
L 943 71
L 943 71
L 943 70
L 944 70
L 944 70
L 944 70
L 944 70
L 945 70
L 945 70
L 945 70
L 946 70
L 946 70
L 946 70
L 946 70
L 946 70
L 946 70
L 946 70
L 946 70
L 946 70
L 946 70
L 946 70
L 946 70
L 947 70
L 947 70
L 947 70
L 947 70
L 947 70
L 947 70
L 947 70
L 947 70
L 948 69
L 948 69
L 948 69
L 948 69
L 948 69
L 948 69
L 948 69
L 948 69
L 948 69
L 948 69
L 948 69
L 948 69
L 948 69
L 948 69
L 948 69
L 948 69
L 948 69
L 948 69
L 948 69
L 948 69
L 948 69
L 948 69
L 949 69
L 949 69
L 949 69
L 949 69
L 949 69
L 949 68
L 949 68
L 949 68
L 949 68
L 949 68
L 949 68
L 949 68
L 949 68
L 949 68
L 949 68
L 949 68
L 949 68
L 949 68
L 949 68
L 949 68
L 949 68
L 949 68
L 949 68
L 949 68
L 949 68
L 950 68
L 950 68
L 950 68
L 950 68
L 950 68
L 950 68
L 950 68
L 950 67
L 950 67
L 950 67
L 950 67
L 950 67
L 950 67
L 950 67
L 950 67
L 950 67
L 950 67
L 950 67
L 950 67
L 950 67
L 950 67
L 950 67
L 951 67
L 951 67
L 951 67
L 951 67
L 951 67
L 951 67
L 951 67
L 951 67
L 951 67
L 951 67
L 951 67
L 951 67
L 951 67
L 951 66
L 951 66
L 951 66
L 951 66
L 951 66
L 951 66
L 951 66
L 951 66
L 951 66
L 951 66
L 951 66
L 951 66
L 951 66
L 951 66
L 951 66
L 951 66
L 952 66
L 952 66
L 952 66
L 952 66
L 952 66
L 952 66
L 952 66
L 952 66
L 952 66
L 952 66
L 952 66
L 952 65
L 952 65
L 952 65
L 952 65
L 952 65
L 952 65
L 952 65
L 952 65
L 952 65
L 952 65
L 952 65
L 952 65
L 952 65
L 952 65
L 952 65
L 952 65
L 952 65
L 952 65
L 952 65
L 952 65
L 952 65
L 952 65
L 952 65
L 952 65
L 952 65
L 952 65
L 952 65
L 952 64
L 952 64
L 952 64
L 952 64
L 952 64
L 952 64
L 952 64
L 952 64
L 952 64
L 952 64
L 952 64
L 952 64
L 952 64
L 952 64
L 952 64
L 952 64
L 952 64
L 952 64
L 952 64
L 952 64
L 952 64
L 952 64
L 952 64
L 952 64
L 952 64
L 952 64
L 952 64
L 952 64
L 952 63
L 952 63
L 952 63
L 952 63
L 952 63
L 952 63
L 952 63
L 952 63
L 952 63
L 952 63
L 952 63
L 952 63
L 952 63
L 952 63
L 952 63
L 952 63
L 952 63
L 952 63
L 952 63
L 952 63
L 952 63
L 952 63
L 952 63
L 952 63
L 952 63
L 952 63
L 952 63
L 952 62
L 952 62
L 952 62
L 952 62
L 952 62
L 952 62
L 952 62
L 952 62
L 952 62
L 952 62
L 952 62
L 952 62
L 952 62
L 952 62
L 952 62
L 952 62
L 952 62
L 952 62
L 952 62
L 952 62
L 952 62
L 952 62
L 952 62
L 952 62
L 952 62
L 952 62
L 952 62
L 952 62
L 952 61
L 952 61
L 952 61
L 952 61
L 952 61
L 952 61
L 952 61
L 952 61
L 952 61
L 952 61
L 952 61
L 952 61
L 952 61
L 952 61
L 952 61
L 952 61
L 952 61
L 952 61
L 952 61
L 952 61
L 952 61
L 952 61
L 952 61
L 952 61
L 952 61
L 952 61
L 952 61
L 952 60
L 952 60
L 952 60
L 952 60
L 952 60
L 952 60
L 952 60
L 952 60
L 952 60
L 952 60
L 952 60
L 952 60
L 952 60
L 952 60
L 952 60
L 952 60
L 952 60
L 952 60
L 952 60
L 952 60
L 952 60
L 952 60
L 952 60
L 952 60
L 952 60
L 952 60
L 952 60
L 952 59
L 952 59
L 952 59
L 952 59
L 952 59
L 952 59
L 952 59
L 952 59
L 952 59
L 952 59
L 952 59
L 952 59
L 952 59
L 952 59
L 952 59
L 952 59
L 952 59
L 952 59
L 952 59
L 952 59
L 952 59
L 952 59
L 952 59
L 952 59
L 952 59
L 952 59
L 952 59
L 952 59
L 952 58
L 952 58
L 952 58
L 952 58
L 952 58
L 952 58
L 952 58
L 952 58
L 952 58
L 952 58
L 952 58
L 952 58
L 952 58
L 952 58
L 952 58
L 952 58
L 952 58
L 952 58
L 952 58
L 952 58
L 952 58
L 952 58
L 952 58
L 952 58
L 952 58
L 952 58
L 952 58
L 952 57
L 952 57
L 952 57
L 952 57
L 952 57
L 952 57
L 952 57
L 952 57
L 952 57
L 952 57
L 952 57
L 952 57
L 952 57
L 952 57
L 952 57
L 952 57
L 953 57
L 953 57
L 953 57
L 953 57
L 953 57
L 953 57
L 953 57
L 953 57
L 953 57
L 953 57
L 953 57
L 953 56
L 953 56
L 953 56
L 953 56
L 953 56
L 953 56
L 953 56
L 953 56
L 953 56
L 953 56
L 953 56
L 953 56
L 953 56
L 953 56
L 953 56
L 953 56
L 953 56
L 953 56
L 953 56
L 953 56
L 953 56
L 953 56
L 953 56
L 953 56
L 953 56
L 953 56
L 953 56
L 953 56
L 953 55
L 953 55
L 953 55
L 953 55
L 953 55
L 953 55
L 953 55
L 953 55
L 953 55
L 953 55
L 953 55
L 953 55
L 953 55
L 953 55
L 953 55
L 953 55
L 953 55
L 953 55
L 953 55
L 953 55
L 953 55
L 953 55
L 953 55
L 953 55
L 953 55
L 953 55
L 953 55
L 953 54
L 953 54
L 953 54
L 953 54
L 953 54
L 953 54
L 953 54
L 953 54
L 953 54
L 953 54
L 953 54
L 953 54
L 953 54
L 953 54
L 953 54
L 953 54
L 953 54
L 953 54
L 953 54
L 953 54
L 953 54
L 953 54
L 953 54
L 953 54
L 953 54
L 953 54
L 953 54
L 953 53
L 953 53
L 953 53
L 953 53
L 953 53
L 953 53
L 953 53
L 953 53
L 953 53
L 953 53
L 953 53
L 953 53
L 953 53
L 953 53
L 953 53
L 953 53
L 953 53
L 953 53
L 953 53
L 953 53
L 953 53
L 953 53
L 953 53
L 953 53
L 953 53
L 953 53
L 953 53
L 953 53
L 953 52
L 953 52
L 953 52
L 953 52
L 953 52
L 953 52
L 954 52
L 954 52
L 954 52
L 954 52
L 954 52
L 954 52
L 954 52
L 954 52
L 954 52
L 954 52
L 954 52
L 954 52
L 954 52
L 954 52
L 954 52
L 954 52
L 954 52
L 954 52
L 954 52
L 954 52
L 954 52
L 954 51
L 954 51
L 954 51
L 954 51
L 954 51
L 954 51
L 954 51
L 954 51
L 954 51
L 954 51
L 954 51
L 954 51
L 954 51
L 954 51
L 954 51
L 954 51
L 954 51
L 954 51
L 954 51
L 954 51
L 954 51
L 954 51
L 954 51
L 954 51
L 954 51
L 954 51
L 954 51
L 954 50
L 954 50
L 954 50
L 954 50
L 954 50
L 954 50
L 954 50
L 954 50
L 954 50
L 954 50
L 954 50
L 954 50
L 954 50
L 954 50
L 954 50
L 954 50
L 954 50
L 954 50
L 954 50
L 954 50
L 954 50
L 954 50
L 954 50
L 954 50
L 954 50
L 954 50
L 954 50
L 954 50
L 954 49
L 954 49
L 954 49
L 954 49
L 954 49
L 954 49
L 954 49
L 954 49
L 954 49
L 954 49
L 954 49
L 954 49
L 954 49
L 954 49
L 954 49
L 954 49
L 954 49
L 954 49
L 954 49
L 954 49
L 954 49
L 954 49
L 954 49
L 954 49
L 954 49
L 954 49
L 954 49
L 954 48
L 954 48
L 954 48
L 954 48
L 954 48
L 954 48
L 954 48
L 954 48
L 954 48
L 954 48
L 954 48
L 954 48
L 954 48
L 954 48
L 954 48
L 954 48
L 954 48
L 954 48
L 954 48
L 954 48
L 954 48
L 954 48
L 954 48
L 954 48
L 954 48
L 954 48
L 954 48
L 954 47
L 954 47
L 954 47
L 954 47
L 954 47
L 954 47
L 954 47
L 954 47
L 954 47
L 954 47
L 954 47
L 954 47
L 954 47
L 954 47
L 954 47
L 954 47
L 954 47
L 954 47
L 954 47
L 954 47
L 954 47
L 954 47
L 954 47
L 954 47
L 954 47
L 954 47
L 954 47
L 954 47
L 954 46
L 954 46
L 954 46
L 954 46
L 954 46
L 954 46
L 954 46
L 954 46
L 954 46
L 954 46
L 954 46
L 954 46
L 954 46
L 954 46
L 954 46
L 954 46
L 954 46
L 954 46
L 954 46
L 954 46
L 954 46
L 954 46
L 954 46
L 954 46
L 954 46
L 954 46
L 954 46
L 954 45
L 954 45
L 954 45
L 954 45
L 954 45
L 954 45
L 954 45
L 954 45
L 954 45
L 954 45
L 954 45
L 954 45
L 954 45
L 954 45
L 954 45
L 954 45
L 954 45
L 954 45
L 954 45
L 954 45
L 954 45
L 954 45
L 954 45
L 954 45
L 954 45
L 954 45
L 954 45
L 954 45
L 954 44
L 954 44
L 954 44
L 954 44
L 954 44
L 954 44
L 954 44
L 954 44
L 954 44
L 954 44
L 954 44
L 954 44
L 954 44
L 954 44
L 954 44
L 954 44
L 954 44
L 954 44
L 954 44
L 954 44
L 954 44
L 954 44
L 954 44
L 954 44
L 954 44
L 954 44
L 954 44
L 954 43
L 954 43
L 954 43
L 954 43
L 954 43
L 954 43
L 954 43
L 954 43
L 954 43
L 954 43
L 954 43
L 954 43
L 954 43
L 954 43
L 954 43
L 954 43
L 954 43
L 954 43
L 954 43
L 954 43
L 954 43
L 954 43
L 954 43
L 954 43
L 954 43
L 954 43
L 954 43
L 954 42
L 954 42
L 954 42
L 954 42
L 954 42
L 954 42
L 954 42
L 954 42
L 954 42
L 954 42
L 954 42
L 954 42
L 954 42
L 954 42
L 954 42
L 954 42
L 954 42
L 954 42
L 954 42
L 954 42
L 954 42
L 954 42
L 955 42
L 955 42
L 955 42
L 955 42
L 955 42
L 955 42
L 955 41
L 955 41
L 955 41
L 955 41
L 955 41
L 955 41
L 955 41
L 955 41
L 955 41
L 955 41
L 955 41
L 955 41
L 955 41
L 955 41
L 955 41
L 955 41
L 955 41
L 955 41
L 955 41
L 955 41
L 955 41
L 955 41
L 955 41
L 955 41
L 955 41
L 955 41
L 955 41
L 955 40
L 955 40
L 955 40
L 955 40
L 955 40
L 955 40
L 955 40
L 955 40
L 955 40
L 955 40
L 955 40
L 955 40
L 955 40
L 955 40
L 955 40
L 955 40
L 955 40
L 955 40
L 955 40
L 955 40
L 955 40
L 955 40
L 955 40
L 955 40
L 955 40
L 955 40
L 955 40
L 955 39
L 955 39
L 955 39
L 955 39
L 955 39
L 955 39
L 955 39
L 955 39
L 955 39
L 955 39
L 955 39
L 955 39
L 955 39
L 955 39
L 955 39
L 955 39
L 955 39
L 955 39
L 955 39
L 955 39
L 955 39
L 955 39
L 955 39
L 955 39
L 955 39
L 955 39
L 955 39
L 955 39
L 955 38
L 955 38
L 955 38
L 955 38
L 955 38
L 955 38
L 955 38
L 955 38
L 955 38
L 955 38
L 955 38
L 955 38
L 955 38
L 955 38
L 955 38
L 955 38
L 955 38
L 955 38
L 955 38
L 955 38
L 955 38
L 955 38
L 955 38
L 955 38
L 955 38
L 955 38
L 955 38
L 955 37
L 955 37
L 955 37
L 955 37
L 955 37
L 955 37
L 955 37
L 955 37
L 955 37
L 955 37
L 955 37
L 955 37
L 955 37
L 955 37
L 955 37
L 955 37
L 955 37
L 955 37
L 955 37
L 955 37
L 955 37
L 955 37
L 955 37
L 955 37
L 955 37
L 955 37
L 955 37
L 955 36
L 955 36
L 955 36
L 955 36
L 955 36
L 955 36
L 955 36
L 955 36
L 955 36
L 955 36
L 955 36
L 955 36
L 955 36
L 955 36
L 955 36
L 955 36
L 955 36
L 955 36
L 955 36
L 955 36
L 955 36
L 955 36
L 955 36
L 955 36
L 955 36
L 955 36
L 955 36
L 955 36
L 955 35
L 955 35
L 955 35
L 955 35
L 955 35
L 955 35
L 955 35
L 955 35
L 955 35
L 955 35
L 955 35
L 955 35
L 955 35
L 955 35
L 955 35
L 955 35
L 955 35
L 955 35
L 955 35
L 955 35
L 955 35
L 955 35
L 955 35
L 955 35
L 955 35
L 955 35
L 955 35
L 955 34
L 955 34
L 955 34
L 955 34
L 955 34
L 955 34
L 955 34
L 955 34
L 955 34
L 955 34
L 955 34
L 955 34
L 955 34
L 955 34
L 955 34
L 955 34
L 955 34
L 955 34
L 955 34
L 955 34
L 955 34
L 955 34
L 955 34
L 955 34
L 955 34
L 955 34
L 955 34
L 955 33
L 955 33
L 955 33
L 955 33
L 955 33
L 955 33
L 955 33
L 955 33
L 955 33
L 955 33
L 955 33
L 955 33
L 955 33
L 955 33
L 955 33
L 955 33
L 955 33
L 955 33
L 955 33
L 955 33
L 955 33
L 955 33
L 955 33
L 955 33
L 955 33
L 955 33
L 955 33
L 955 33
L 955 32
L 955 32
L 955 32
L 955 32
L 955 32
L 955 32
L 955 32
L 955 32
L 955 32
L 955 32
L 955 32
L 955 32
L 955 32
L 956 32
L 956 32
L 956 32
L 956 32
L 956 32
L 956 32
L 956 32
L 956 32
L 956 32
L 956 32
L 956 32
L 956 32
L 956 32
L 956 32
L 956 31
L 956 31
L 956 31
L 956 31
L 956 31
L 956 31
L 956 31
L 956 31
L 956 31
L 956 31
L 956 31
L 956 31
L 956 31
L 956 31
L 956 31
L 956 31
L 956 31
L 956 31
L 956 31
L 956 31
L 956 31
L 956 31
L 956 31
L 956 31
L 956 31
L 956 31
L 956 31
L 956 30
L 956 30
L 956 30
L 956 30
L 956 30
L 956 30
L 956 30
L 956 30
L 956 30
L 956 30
L 956 30
L 956 30
L 956 30
L 956 30
L 956 30
L 956 30
L 956 30
L 956 30
L 956 30
L 956 30
L 956 30
L 956 30
L 956 30
L 956 30
L 956 30
L 956 30
L 956 30
L 956 30
L 956 29
L 956 29
L 956 29
L 956 29
L 956 29
L 956 29
L 956 29
L 956 29
L 956 29
L 956 29
L 956 29
L 956 29
L 956 29
L 956 29
L 956 29
L 956 29
L 956 29
L 956 29
L 956 29
L 956 29
L 956 29
L 956 29
L 956 29
L 956 29
L 956 29
L 956 29
L 956 29
L 956 28
L 956 28
L 956 28
L 956 28
L 956 28
L 956 28
L 956 28
L 956 28
L 956 28
L 956 28
L 956 28
L 956 28
L 956 28
L 956 28
L 956 28
L 956 28
L 956 28
L 956 28
L 956 28
L 956 28
L 956 28
L 956 28
L 956 28
L 956 28
L 956 28
L 956 28
L 956 28
L 956 28
L 956 27
L 956 27
L 956 27
L 956 27
L 956 27
L 956 27
L 956 27
L 956 27
L 956 27
L 956 27
L 956 27
L 956 27
L 956 27
L 956 27
L 956 27
L 956 27
L 956 27
L 956 27
L 956 27
L 956 27
L 956 27
L 956 27
L 956 27
L 956 27
L 956 27
L 956 27
L 956 27
L 956 26
L 956 26
L 956 26
L 956 26
L 956 26
L 956 26
L 956 26
L 956 26
L 956 26
L 956 26
L 956 26
L 956 26
L 956 26
L 956 26
L 956 26
L 956 26
L 956 26
L 956 26
L 956 26
L 956 26
L 956 26
L 956 26
L 956 26
L 956 26
L 956 26
L 956 26
L 956 26
L 956 25
L 956 25
L 956 25
L 956 25
L 956 25
L 956 25
L 956 25
L 956 25
L 956 25
L 956 25
L 956 25
L 956 25
L 956 25
L 956 25
L 956 25
L 956 25
L 956 25
L 956 25
L 956 25
L 956 25
L 956 25
L 956 25
L 956 25
L 956 25
L 956 25
L 956 25
L 956 25
L 956 25
L 956 24
L 956 24
L 956 24
L 956 24
L 956 24
L 956 24
L 956 24
L 956 24
L 956 24
L 956 24
L 956 24
L 956 24
L 956 24
L 956 24
L 956 24
L 956 24
L 956 24
L 956 24
L 956 24
L 956 24
L 956 24
L 956 24
L 956 24
L 957 24
L 957 24
L 957 24
L 957 24
L 957 23
L 957 23
L 957 23
L 957 23
L 957 23
L 957 23
L 957 23
L 957 23
L 957 23
L 957 23
L 957 23
L 957 23
L 957 23
L 957 23
L 957 23
L 957 23
L 957 23
L 957 23
L 957 23
L 957 23
L 957 23
L 957 23
L 957 23
L 957 23
L 957 23
L 957 23
L 957 23
L 957 22
L 957 22
L 957 22
L 957 22
L 957 22
L 957 22
L 957 22
L 957 22
L 957 22
L 957 22
L 957 22
L 957 22
L 957 22
L 957 22
L 957 22
L 957 22
L 957 22
L 957 22
L 957 22
L 957 22
L 957 22
L 957 22
L 957 22
L 957 22
L 957 22
L 957 22
L 957 22
L 957 22
L 957 21
L 957 21
L 957 21
L 957 21
L 957 21
L 957 21
L 957 21
L 957 21
L 957 21
L 957 21
L 957 21
L 957 21
L 957 21
L 957 21
L 957 21
L 957 21
L 957 21
L 957 21
L 957 21
L 957 21
L 957 21
L 957 21
L 957 21
L 957 21
L 957 21
L 957 21
L 957 21
L 957 20
L 957 20
L 957 20
L 957 20
L 957 20
L 957 20
L 957 20
L 957 20
L 957 20
L 957 20
L 957 20
L 957 20
L 957 20
L 957 20
L 957 20
L 957 20
L 957 20
L 957 20
L 957 20
L 957 20
L 957 20
L 957 20
L 957 20
L 957 20
L 957 20
L 957 20
L 957 20
L 957 19
L 957 19
L 957 19
L 957 19
L 957 19
L 957 19
L 957 19
L 957 19
L 957 19
L 957 19
L 957 19
L 957 19
L 957 19
L 957 19
L 957 19
L 957 19
L 957 19
L 957 19
L 957 19
L 957 19
L 957 19
L 957 19
L 957 19
L 957 19
L 957 19
L 957 19
L 957 19
L 957 19
L 957 18
L 957 18
L 957 18
L 957 18
L 957 18
L 957 18
L 957 18
L 957 18
L 957 18
L 957 18
L 957 18
L 957 18
L 957 18
L 957 18
L 957 18
L 957 18
L 957 18
L 957 18
L 957 18
L 957 18
L 957 18
L 957 18
L 957 18
L 957 18
L 957 18
L 957 18
L 957 18
L 957 17
L 957 17
L 957 17
L 957 17
L 957 17
L 957 17
L 957 17
L 957 17
L 957 17
L 957 17
L 957 17
L 957 17
L 957 17
L 957 17
L 957 17
L 957 17
L 957 17
L 957 17
L 957 17
L 957 17
L 957 17
L 957 17
L 957 17
L 957 17
L 957 17
L 957 17
L 957 17
L 957 16
L 957 16
L 957 16
L 957 16
L 957 16
L 957 16
L 957 16
L 957 16
L 957 16
L 957 16
L 957 16
L 957 16
L 957 16
L 957 16
L 957 16
L 957 16
L 957 16
L 957 16
L 957 16
L 957 16
L 957 16
L 957 16
L 957 16
L 957 16
L 957 16
L 957 16
L 957 16
L 957 16
L 957 15
L 957 15
L 957 15
L 957 15
L 957 15
L 957 15
L 957 15
L 957 15
L 957 15
L 957 15
L 957 15
L 957 15
L 957 15
L 957 15
L 957 15
L 957 15
L 957 15
L 957 15
L 957 15
L 957 15
L 957 15
L 957 15
L 957 15
L 957 15
L 957 15
L 957 15
L 957 15
L 957 14
L 957 14
L 957 14
L 957 14
L 957 14
L 957 14
L 957 14
L 957 14
L 957 14
L 957 14
L 957 14
L 957 14
L 957 14
L 957 14
L 957 14
L 957 14
L 957 14
L 957 14
L 957 14
L 957 14
L 957 14
L 957 14
L 957 14
L 957 14
L 957 14
L 957 14
L 957 14
L 957 13
L 957 13
L 957 13
L 957 13
L 957 13
L 957 13
L 957 13
L 957 13
L 957 13
L 957 13
L 957 13
L 957 13
L 957 13
L 957 13
L 957 13
L 957 13
L 957 13
L 957 13
L 957 13
L 957 13
L 957 13
L 957 13
L 957 13
L 957 13
L 957 13
L 957 13
L 957 13
L 957 13
L 957 12
L 957 12
L 957 12
L 957 12" style="stroke-width:2;stroke:rgba(129,199,239,1.0);fill:none"/></svg>