<!-- stars: 8937 -->
<svg xmlns="http://www.w3.org/2000/svg" xmlns:xlink="http://www.w3.org/1999/xlink" width="1024" height="400">\n<path  d="M 0 0
L 1024 0
L 1024 400
L 0 400
L 0 0" style="stroke-width:0;stroke:rgba(255,255,255,1.0);fill:rgba(255,255,255,1.0)"/><path  d="M 38 11
L 957 11
L 957 351
L 38 351
L 38 11" style="stroke-width:0;stroke:rgba(255,255,255,1.0);fill:rgba(255,255,255,1.0)"/><path  d="M 38 351
L 957 351" style="stroke-width:2;stroke:rgba(85,85,85,1.0);fill:none"/><path  d="M 38 351
L 38 356" style="stroke-width:2;stroke:rgba(85,85,85,1.0);fill:none"/><text x="5" y="373" style="stroke-width:0;stroke:none;fill:rgba(51,51,51,1.0);font-size:12.8px;font-family:'Roboto Medium',sans-serif">2018-09-25</text><path  d="M 153 351
L 153 356" style="stroke-width:2;stroke:rgba(85,85,85,1.0);fill:none"/><text x="120" y="373" style="stroke-width:0;stroke:none;fill:rgba(51,51,51,1.0);font-size:12.8px;font-family:'Roboto Medium',sans-serif">2019-02-18</text><path  d="M 268 351
L 268 356" style="stroke-width:2;stroke:rgba(85,85,85,1.0);fill:none"/><text x="235" y="373" style="stroke-width:0;stroke:none;fill:rgba(51,51,51,1.0);font-size:12.8px;font-family:'Roboto Medium',sans-serif">2019-07-15</text><path  d="M 383 351
L 383 356" style="stroke-width:2;stroke:rgba(85,85,85,1.0);fill:none"/><text x="350" y="373" style="stroke-width:0;stroke:none;fill:rgba(51,51,51,1.0);font-size:12.8px;font-family:'Roboto Medium',sans-serif">2019-12-09</text><path  d="M 498 351
L 498 356" style="stroke-width:2;stroke:rgba(85,85,85,1.0);fill:none"/><text x="465" y="373" style="stroke-width:0;stroke:none;fill:rgba(51,51,51,1.0);font-size:12.8px;font-family:'Roboto Medium',sans-serif">2020-05-04</text><path  d="M 613 351
L 613 356" style="stroke-width:2;stroke:rgba(85,85,85,1.0);fill:none"/><text x="580" y="373" style="stroke-width:0;stroke:none;fill:rgba(51,51,51,1.0);font-size:12.8px;font-family:'Roboto Medium',sans-serif">2020-09-28</text><path  d="M 728 351
L 728 356" style="stroke-width:2;stroke:rgba(85,85,85,1.0);fill:none"/><text x="695" y="373" style="stroke-width:0;stroke:none;fill:rgba(51,51,51,1.0);font-size:12.8px;font-family:'Roboto Medium',sans-serif">2021-02-21</text><path  d="M 843 351
L 843 356" style="stroke-width:2;stroke:rgba(85,85,85,1.0);fill:none"/><text x="810" y="373" style="stroke-width:0;stroke:none;fill:rgba(51,51,51,1.0);font-size:12.8px;font-family:'Roboto Medium',sans-serif">2021-07-18</text><path  d="M 957 351
L 957 356" style="stroke-width:2;stroke:rgba(85,85,85,1.0);fill:none"/><text x="924" y="373" style="stroke-width:0;stroke:none;fill:rgba(51,51,51,1.0);font-size:12.8px;font-family:'Roboto Medium',sans-serif">2021-12-12</text><text x="483" y="395" style="stroke-width:0;stroke:none;fill:rgba(51,51,51,1.0);font-size:12.8px;font-family:'Roboto Medium',sans-serif">Time</text><path  d="M 959 351
L 959 11" style="stroke-width:2;stroke:rgba(85,85,85,1.0);fill:none"/><path  d="M 959 351
L 964 351" style="stroke-width:2;stroke:rgba(85,85,85,1.0);fill:none"/><text x="969" y="357" style="stroke-width:0;stroke:none;fill:rgba(51,51,51,1.0);font-size:12.8px;font-family:'Roboto Medium',sans-serif">0</text><path  d="M 959 308
L 964 308" style="stroke-width:2;stroke:rgba(85,85,85,1.0);fill:none"/><text x="969" y="314" style="stroke-width:0;stroke:none;fill:rgba(51,51,51,1.0);font-size:12.8px;font-family:'Roboto Medium',sans-serif">1130</text><path  d="M 959 266
L 964 266" style="stroke-width:2;stroke:rgba(85,85,85,1.0);fill:none"/><text x="969" y="272" style="stroke-width:0;stroke:none;fill:rgba(51,51,51,1.0);font-size:12.8px;font-family:'Roboto Medium',sans-serif">2250</text><path  d="M 959 223
L 964 223" style="stroke-width:2;stroke:rgba(85,85,85,1.0);fill:none"/><text x="969" y="229" style="stroke-width:0;stroke:none;fill:rgba(51,51,51,1.0);font-size:12.8px;font-family:'Roboto Medium',sans-serif">3380</text><path  d="M 959 181
L 964 181" style="stroke-width:2;stroke:rgba(85,85,85,1.0);fill:none"/><text x="969" y="187" style="stroke-width:0;stroke:none;fill:rgba(51,51,51,1.0);font-size:12.8px;font-family:'Roboto Medium',sans-serif">4500</text><path  d="M 959 138
L 964 138" style="stroke-width:2;stroke:rgba(85,85,85,1.0);fill:none"/><text x="969" y="144" style="stroke-width:0;stroke:none;fill:rgba(51,51,51,1.0);font-size:12.8px;font-family:'Roboto Medium',sans-serif">5630</text><path  d="M 959 96
L 964 96" style="stroke-width:2;stroke:rgba(85,85,85,1.0);fill:none"/><text x="969" y="102" style="stroke-width:0;stroke:none;fill:rgba(51,51,51,1.0);font-size:12.8px;font-family:'Roboto Medium',sans-serif">6750</text><path  d="M 959 53
L 964 53" style="stroke-width:2;stroke:rgba(85,85,85,1.0);fill:none"/><text x="969" y="59" style="stroke-width:0;stroke:none;fill:rgba(51,51,51,1.0);font-size:12.8px;font-family:'Roboto Medium',sans-serif">7880</text><path  d="M 959 11
L 964 11" style="stroke-width:2;stroke:rgba(85,85,85,1.0);fill:none"/><text x="969" y="17" style="stroke-width:0;stroke:none;fill:rgba(51,51,51,1.0);font-size:12.8px;font-family:'Roboto Medium',sans-serif">9000</text><text x="1009" y="150" style="stroke-width:0;stroke:none;fill:rgba(51,51,51,1.0);font-size:12.8px;font-family:'Roboto Medium',sans-serif" transform="rotate(90.00,1009,150)">Stargazers</text><path  d="M 38 351
L 40 350
L 50 350
L 51 350
L 51 350
L 51 350
L 51 350
L 54 350
L 55 350
L 55 350
L 57 350
L 57 350
L 58 350
L 58 350
L 58 350
L 58 350
L 61 350
L 67 350
L 67 350
L 69 350
L 69 350
L 70 350
L 72 350
L 72 350
L 74 350
L 74 350
L 79 350
L 83 349
L 88 349
L 88 349
L 93 349
L 94 349
L 94 349
L 94 349
L 94 349
L 94 349
L 94 349
L 94 349
L 95 349
L 95 349
L 95 349
L 97 349
L 98 349
L 98 349
L 99 349
L 99 349
L 99 349
L 100 349
L 100 349
L 101 349
L 103 349
L 103 349
L 104 349
L 105 348
L 107 348
L 108 348
L 108 348
L 109 348
L 110 348
L 110 348
L 110 348
L 111 348
L 111 348
L 111 348
L 111 348
L 112 348
L 112 348
L 112 348
L 112 348
L 112 348
L 113 348
L 113 348
L 113 348
L 114 348
L 115 348
L 115 348
L 116 348
L 116 348
L 118 348
L 118 348
L 120 347
L 120 347
L 120 347
L 120 347
L 120 347
L 120 347
L 122 347
L 122 347
L 122 347
L 122 347
L 123 347
L 123 347
L 125 347
L 126 347
L 126 347
L 126 347
L 127 347
L 127 347
L 129 347
L 131 347
L 133 347
L 133 347
L 133 347
L 134 347
L 134 347
L 141 347
L 144 346
L 148 346
L 148 346
L 150 346
L 150 346
L 150 346
L 151 346
L 151 346
L 153 346
L 154 346
L 154 346
L 154 346
L 154 346
L 154 346
L 155 346
L 155 346
L 156 346
L 158 346
L 158 346
L 161 346
L 161 346
L 164 346
L 164 346
L 165 346
L 165 346
L 166 346
L 166 346
L 167 345
L 167 345
L 168 345
L 169 345
L 169 345
L 171 345
L 172 345
L 173 345
L 174 345
L 175 345
L 176 345
L 176 345
L 176 345
L 176 345
L 177 345
L 178 345
L 181 345
L 182 345
L 182 345
L 182 345
L 183 345
L 183 345
L 183 345
L 183 345
L 184 345
L 184 345
L 184 344
L 186 344
L 186 344
L 186 344
L 186 344
L 186 344
L 186 344
L 186 344
L 187 344
L 187 344
L 187 344
L 187 344
L 187 344
L 187 344
L 187 344
L 187 344
L 188 344
L 188 344
L 188 344
L 189 344
L 191 344
L 191 344
L 191 344
L 192 344
L 192 344
L 193 344
L 193 344
L 193 343
L 193 343
L 193 343
L 193 343
L 194 343
L 194 343
L 195 343
L 197 343
L 197 343
L 198 343
L 200 343
L 200 343
L 203 343
L 203 343
L 203 343
L 204 343
L 204 343
L 204 343
L 204 343
L 205 343
L 205 343
L 206 343
L 206 343
L 207 343
L 208 343
L 208 343
L 208 342
L 209 342
L 209 342
L 209 342
L 210 342
L 210 342
L 211 342
L 212 342
L 213 342
L 213 342
L 214 342
L 215 342
L 216 342
L 216 342
L 216 342
L 216 342
L 217 342
L 218 342
L 220 342
L 221 342
L 224 342
L 225 342
L 226 342
L 228 342
L 229 342
L 229 342
L 230 342
L 231 341
L 236 341
L 236 341
L 236 341
L 236 341
L 237 341
L 237 341
L 237 341
L 238 341
L 238 341
L 238 341
L 244 341
L 246 341
L 247 341
L 247 341
L 247 341
L 247 341
L 248 341
L 248 341
L 248 341
L 248 341
L 248 341
L 249 341
L 249 341
L 252 341
L 252 341
L 252 340
L 254 340
L 255 340
L 255 340
L 256 340
L 256 340
L 257 340
L 257 340
L 258 340
L 258 340
L 258 340
L 258 340
L 258 340
L 259 340
L 259 340
L 259 340
L 259 340
L 260 340
L 260 340
L 260 340
L 260 340
L 261 340
L 262 340
L 262 340
L 262 340
L 262 340
L 263 340
L 265 339
L 266 339
L 266 339
L 267 339
L 268 339
L 268 339
L 269 339
L 269 339
L 271 339
L 272 339
L 273 339
L 274 339
L 277 339
L 277 339
L 278 339
L 280 339
L 280 339
L 280 339
L 281 339
L 285 339
L 289 339
L 289 339
L 290 339
L 292 339
L 294 339
L 295 339
L 298 338
L 300 338
L 300 338
L 300 338
L 301 338
L 304 338
L 309 338
L 309 338
L 309 338
L 309 338
L 310 338
L 320 338
L 320 338
L 321 338
L 322 338
L 322 338
L 322 338
L 322 338
L 322 338
L 322 338
L 322 338
L 322 338
L 323 338
L 323 338
L 323 338
L 325 338
L 328 338
L 328 337
L 328 337
L 334 337
L 335 337
L 336 337
L 337 337
L 337 337
L 338 337
L 339 337
L 340 337
L 340 337
L 340 337
L 341 337
L 342 337
L 342 337
L 342 337
L 345 337
L 345 337
L 345 337
L 346 337
L 350 337
L 362 337
L 363 337
L 366 337
L 368 337
L 369 337
L 370 336
L 373 336
L 373 336
L 373 336
L 374 336
L 374 336
L 374 336
L 375 336
L 378 336
L 378 336
L 381 336
L 382 336
L 386 336
L 386 336
L 386 336
L 391 336
L 394 336
L 394 336
L 396 336
L 396 336
L 396 336
L 396 336
L 396 336
L 397 336
L 397 336
L 397 336
L 397 336
L 397 335
L 399 335
L 400 335
L 404 335
L 405 335
L 406 335
L 410 335
L 410 335
L 410 335
L 411 335
L 411 335
L 412 335
L 413 335
L 416 335
L 416 335
L 420 335
L 421 335
L 422 335
L 422 335
L 424 335
L 426 335
L 428 335
L 430 335
L 434 335
L 435 335
L 436 335
L 436 334
L 439 334
L 446 334
L 448 334
L 450 334
L 451 334
L 452 334
L 452 334
L 453 334
L 454 334
L 454 334
L 454 334
L 456 334
L 456 334
L 456 334
L 456 334
L 457 334
L 457 334
L 458 334
L 458 334
L 459 334
L 459 334
L 461 334
L 461 334
L 461 334
L 461 334
L 461 334
L 462 333
L 462 333
L 462 333
L 462 333
L 462 333
L 462 333
L 463 333
L 463 333
L 464 333
L 465 333
L 466 333
L 466 333
L 467 333
L 468 333
L 468 333
L 468 333
L 468 333
L 469 333
L 469 333
L 469 333
L 470 333
L 470 333
L 470 333
L 471 333
L 471 333
L 471 333
L 472 332
L 473 332
L 474 332
L 475 332
L 476 332
L 476 332
L 476 332
L 476 332
L 477 332
L 477 332
L 478 332
L 478 332
L 478 332
L 478 332
L 478 332
L 478 332
L 478 332
L 478 332
L 479 332
L 479 332
L 479 332
L 479 332
L 479 332
L 479 332
L 479 332
L 479 332
L 480 331
L 480 331
L 481 331
L 481 331
L 481 331
L 481 331
L 482 331
L 482 331
L 482 331
L 484 331
L 484 331
L 485 331
L 485 331
L 485 331
L 485 331
L 487 331
L 487 331
L 487 331
L 487 331
L 487 331
L 487 331
L 487 331
L 487 331
L 487 331
L 487 331
L 487 331
L 487 331
L 487 330
L 487 330
L 487 330
L 487 330
L 487 330
L 488 330
L 488 330
L 488 330
L 488 330
L 488 330
L 488 330
L 488 330
L 488 330
L 488 330
L 488 330
L 488 330
L 488 330
L 489 330
L 489 330
L 489 330
L 489 330
L 489 330
L 489 330
L 490 330
L 490 330
L 490 330
L 490 329
L 490 329
L 491 329
L 491 329
L 492 329
L 492 329
L 492 329
L 493 329
L 493 329
L 493 329
L 493 329
L 494 329
L 494 329
L 494 329
L 494 329
L 494 329
L 494 329
L 495 329
L 496 329
L 496 329
L 497 329
L 497 329
L 498 329
L 499 329
L 500 329
L 500 329
L 500 329
L 500 328
L 500 328
L 500 328
L 500 328
L 501 328
L 501 328
L 501 328
L 502 328
L 503 328
L 503 328
L 503 328
L 504 328
L 504 328
L 504 328
L 505 328
L 505 328
L 506 328
L 506 328
L 506 328
L 506 328
L 507 328
L 507 328
L 507 328
L 507 328
L 507 328
L 508 328
L 508 327
L 508 327
L 509 327
L 510 327
L 510 327
L 511 327
L 511 327
L 511 327
L 512 327
L 512 327
L 513 327
L 513 327
L 514 327
L 514 327
L 514 327
L 515 327
L 515 327
L 515 327
L 515 327
L 516 327
L 516 327
L 516 327
L 516 327
L 517 327
L 517 327
L 517 327
L 517 327
L 517 326
L 518 326
L 518 326
L 518 326
L 518 326
L 518 326
L 518 326
L 519 326
L 519 326
L 521 326
L 521 326
L 521 326
L 521 326
L 522 326
L 522 326
L 522 326
L 522 326
L 523 326
L 524 326
L 524 326
L 524 326
L 524 326
L 524 326
L 524 326
L 524 326
L 524 326
L 524 325
L 524 325
L 524 325
L 524 325
L 524 325
L 525 325
L 525 325
L 525 325
L 525 325
L 525 325
L 525 325
L 525 325
L 525 325
L 526 325
L 526 325
L 526 325
L 526 325
L 527 325
L 528 325
L 528 325
L 529 325
L 529 325
L 529 325
L 529 325
L 529 325
L 530 325
L 530 325
L 530 324
L 531 324
L 531 324
L 531 324
L 531 324
L 531 324
L 531 324
L 531 324
L 531 324
L 531 324
L 531 324
L 532 324
L 532 324
L 532 324
L 532 324
L 532 324
L 532 324
L 532 324
L 532 324
L 532 324
L 533 324
L 533 324
L 533 324
L 533 324
L 533 324
L 534 324
L 534 323
L 534 323
L 534 323
L 535 323
L 535 323
L 535 323
L 535 323
L 535 323
L 535 323
L 535 323
L 536 323
L 536 323
L 536 323
L 536 323
L 537 323
L 537 323
L 538 323
L 538 323
L 539 323
L 540 323
L 540 323
L 540 323
L 540 323
L 540 323
L 540 323
L 541 323
L 541 323
L 542 322
L 542 322
L 542 322
L 542 322
L 542 322
L 543 322
L 543 322
L 543 322
L 543 322
L 544 322
L 544 322
L 544 322
L 544 322
L 544 322
L 545 322
L 545 322
L 545 322
L 545 322
L 546 322
L 546 322
L 546 322
L 547 322
L 547 322
L 547 322
L 547 322
L 547 322
L 548 321
L 549 321
L 549 321
L 550 321
L 550 321
L 550 321
L 550 321
L 551 321
L 551 321
L 551 321
L 553 321
L 553 321
L 553 321
L 554 321
L 554 321
L 554 321
L 554 321
L 555 321
L 555 321
L 555 321
L 555 321
L 555 321
L 556 321
L 556 321
L 556 321
L 556 321
L 556 321
L 557 320
L 557 320
L 557 320
L 558 320
L 558 320
L 558 320
L 558 320
L 558 320
L 558 320
L 559 320
L 559 320
L 559 320
L 559 320
L 559 320
L 560 320
L 560 320
L 561 320
L 561 320
L 561 320
L 561 320
L 562 320
L 562 320
L 562 320
L 562 320
L 563 320
L 563 320
L 563 319
L 564 319
L 564 319
L 564 319
L 564 319
L 564 319
L 564 319
L 565 319
L 565 319
L 565 319
L 565 319
L 565 319
L 565 319
L 565 319
L 565 319
L 565 319
L 566 319
L 566 319
L 566 319
L 566 319
L 566 319
L 566 319
L 567 319
L 567 319
L 567 319
L 567 319
L 567 319
L 567 318
L 568 318
L 568 318
L 568 318
L 569 318
L 569 318
L 569 318
L 569 318
L 569 318
L 571 318
L 571 318
L 571 318
L 571 318
L 571 318
L 572 318
L 572 318
L 572 318
L 572 318
L 572 318
L 572 318
L 572 318
L 574 318
L 574 318
L 574 318
L 575 318
L 575 318
L 575 317
L 575 317
L 575 317
L 575 317
L 576 317
L 576 317
L 576 317
L 576 317
L 576 317
L 576 317
L 577 317
L 577 317
L 577 317
L 578 317
L 578 317
L 578 317
L 578 317
L 578 317
L 579 317
L 580 317
L 580 317
L 580 317
L 580 317
L 580 317
L 580 317
L 581 317
L 581 317
L 581 316
L 582 316
L 582 316
L 582 316
L 582 316
L 582 316
L 583 316
L 583 316
L 583 316
L 583 316
L 583 316
L 584 316
L 584 316
L 585 316
L 586 316
L 587 316
L 587 316
L 588 316
L 588 316
L 589 316
L 590 316
L 591 316
L 591 316
L 591 316
L 591 316
L 592 316
L 593 315
L 593 315
L 593 315
L 593 315
L 594 315
L 594 315
L 594 315
L 595 315
L 595 315
L 595 315
L 596 315
L 596 315
L 596 315
L 596 315
L 597 315
L 597 315
L 597 315
L 598 315
L 598 315
L 599 315
L 599 315
L 599 315
L 599 315
L 599 315
L 599 315
L 599 315
L 600 314
L 600 314
L 600 314
L 600 314
L 600 314
L 600 314
L 601 314
L 601 314
L 601 314
L 601 314
L 601 314
L 601 314
L 602 314
L 603 314
L 603 314
L 603 314
L 604 314
L 604 314
L 604 314
L 606 314
L 606 314
L 607 314
L 608 314
L 608 314
L 608 314
L 609 314
L 609 314
L 609 313
L 609 313
L 609 313
L 610 313
L 612 313
L 612 313
L 612 313
L 612 313
L 613 313
L 613 313
L 613 313
L 613 313
L 614 313
L 614 313
L 614 313
L 614 313
L 615 313
L 615 313
L 615 313
L 615 313
L 615 313
L 616 313
L 618 313
L 619 313
L 619 313
L 621 313
L 621 312
L 621 312
L 622 312
L 622 312
L 622 312
L 623 312
L 623 312
L 624 312
L 624 312
L 624 312
L 624 312
L 624 312
L 624 312
L 624 312
L 625 312
L 625 312
L 625 312
L 625 312
L 625 312
L 625 312
L 625 312
L 625 312
L 626 312
L 626 312
L 626 312
L 626 312
L 626 312
L 626 311
L 626 311
L 627 311
L 627 311
L 627 311
L 627 311
L 627 311
L 627 311
L 628 311
L 628 311
L 629 311
L 629 311
L 629 311
L 630 311
L 630 311
L 630 311
L 630 311
L 631 311
L 631 311
L 631 311
L 632 311
L 632 311
L 632 311
L 632 311
L 632 311
L 633 311
L 633 310
L 633 310
L 633 310
L 634 310
L 635 310
L 635 310
L 636 310
L 636 310
L 636 310
L 636 310
L 636 310
L 636 310
L 636 310
L 636 310
L 636 310
L 636 310
L 636 310
L 636 310
L 636 310
L 636 310
L 637 310
L 637 310
L 637 310
L 637 310
L 637 310
L 637 310
L 637 310
L 637 309
L 637 309
L 637 309
L 637 309
L 637 309
L 637 309
L 637 309
L 637 309
L 637 309
L 638 309
L 638 309
L 638 309
L 638 309
L 638 309
L 638 309
L 638 309
L 638 309
L 639 309
L 639 309
L 639 309
L 640 309
L 640 309
L 640 309
L 640 309
L 640 309
L 640 309
L 640 308
L 640 308
L 641 308
L 641 308
L 641 308
L 641 308
L 641 308
L 641 308
L 641 308
L 642 308
L 642 308
L 642 308
L 642 308
L 642 308
L 642 308
L 642 308
L 642 308
L 643 308
L 643 308
L 643 308
L 643 308
L 644 308
L 644 308
L 644 308
L 644 308
L 645 308
L 645 308
L 646 307
L 646 307
L 646 307
L 646 307
L 646 307
L 646 307
L 646 307
L 646 307
L 646 307
L 647 307
L 647 307
L 648 307
L 648 307
L 648 307
L 648 307
L 648 307
L 648 307
L 648 307
L 649 307
L 649 307
L 649 307
L 649 307
L 649 307
L 650 307
L 650 307
L 650 307
L 650 306
L 651 306
L 651 306
L 651 306
L 651 306
L 651 306
L 651 306
L 652 306
L 652 306
L 652 306
L 653 306
L 653 306
L 653 306
L 653 306
L 653 306
L 654 306
L 654 306
L 654 306
L 654 306
L 654 306
L 654 306
L 654 306
L 654 306
L 655 306
L 655 306
L 656 306
L 656 306
L 656 305
L 656 305
L 656 305
L 657 305
L 657 305
L 657 305
L 657 305
L 657 305
L 657 305
L 658 305
L 658 305
L 659 305
L 659 305
L 659 305
L 660 305
L 660 305
L 660 305
L 660 305
L 660 305
L 660 305
L 660 305
L 660 305
L 662 305
L 662 305
L 662 305
L 662 305
L 662 304
L 662 304
L 662 304
L 663 304
L 663 304
L 663 304
L 663 304
L 663 304
L 663 304
L 664 304
L 664 304
L 664 304
L 664 304
L 664 304
L 664 304
L 665 304
L 665 304
L 665 304
L 665 304
L 665 304
L 665 304
L 667 304
L 668 304
L 668 304
L 668 304
L 668 304
L 668 304
L 669 303
L 669 303
L 669 303
L 669 303
L 669 303
L 669 303
L 669 303
L 669 303
L 669 303
L 670 303
L 670 303
L 670 303
L 670 303
L 670 303
L 670 303
L 670 303
L 671 303
L 671 303
L 671 303
L 672 303
L 672 303
L 673 303
L 673 303
L 673 303
L 673 303
L 673 303
L 673 302
L 673 302
L 674 302
L 674 302
L 674 302
L 675 302
L 675 302
L 675 302
L 675 302
L 675 302
L 676 302
L 676 302
L 676 302
L 677 302
L 677 302
L 678 302
L 678 302
L 678 302
L 678 302
L 679 302
L 679 302
L 679 302
L 679 302
L 679 302
L 679 302
L 680 302
L 680 302
L 680 301
L 680 301
L 680 301
L 680 301
L 680 301
L 680 301
L 680 301
L 680 301
L 680 301
L 680 301
L 680 301
L 680 301
L 681 301
L 681 301
L 681 301
L 681 301
L 681 301
L 681 301
L 682 301
L 682 301
L 682 301
L 682 301
L 682 301
L 683 301
L 683 301
L 683 301
L 683 300
L 683 300
L 683 300
L 684 300
L 684 300
L 684 300
L 685 300
L 685 300
L 685 300
L 685 300
L 685 300
L 685 300
L 685 300
L 685 300
L 685 300
L 685 300
L 685 300
L 686 300
L 686 300
L 686 300
L 686 300
L 686 300
L 686 300
L 687 300
L 688 300
L 689 300
L 689 300
L 689 299
L 689 299
L 690 299
L 690 299
L 690 299
L 690 299
L 690 299
L 690 299
L 691 299
L 691 299
L 691 299
L 691 299
L 691 299
L 691 299
L 691 299
L 691 299
L 691 299
L 691 299
L 691 299
L 691 299
L 692 299
L 692 299
L 692 299
L 692 299
L 692 299
L 692 299
L 693 298
L 693 298
L 693 298
L 693 298
L 694 298
L 694 298
L 694 298
L 695 298
L 695 298
L 695 298
L 695 298
L 695 298
L 696 298
L 696 298
L 696 298
L 696 298
L 696 298
L 696 298
L 696 298
L 696 298
L 697 298
L 697 298
L 697 298
L 697 298
L 698 298
L 698 298
L 698 297
L 698 297
L 698 297
L 699 297
L 699 297
L 699 297
L 699 297
L 699 297
L 700 297
L 701 297
L 701 297
L 701 297
L 701 297
L 701 297
L 701 297
L 702 297
L 702 297
L 702 297
L 702 297
L 702 297
L 703 297
L 703 297
L 703 297
L 703 297
L 703 297
L 704 297
L 704 297
L 704 296
L 704 296
L 704 296
L 704 296
L 704 296
L 705 296
L 705 296
L 705 296
L 705 296
L 705 296
L 705 296
L 705 296
L 706 296
L 706 296
L 706 296
L 706 296
L 706 296
L 706 296
L 706 296
L 706 296
L 706 296
L 707 296
L 707 296
L 707 296
L 707 296
L 707 296
L 707 295
L 708 295
L 708 295
L 708 295
L 708 295
L 708 295
L 708 295
L 709 295
L 709 295
L 710 295
L 710 295
L 710 295
L 710 295
L 711 295
L 711 295
L 711 295
L 711 295
L 711 295
L 711 295
L 711 295
L 711 295
L 712 295
L 712 295
L 712 295
L 712 295
L 713 295
L 713 295
L 713 294
L 713 294
L 714 294
L 714 294
L 714 294
L 714 294
L 714 294
L 714 294
L 714 294
L 715 294
L 715 294
L 715 294
L 715 294
L 715 294
L 715 294
L 716 294
L 716 294
L 716 294
L 716 294
L 716 294
L 716 294
L 716 294
L 716 294
L 716 294
L 717 294
L 717 294
L 717 293
L 718 293
L 718 293
L 718 293
L 719 293
L 719 293
L 719 293
L 721 293
L 721 293
L 721 293
L 721 293
L 721 293
L 721 293
L 723 293
L 723 293
L 723 293
L 723 293
L 723 293
L 724 293
L 724 293
L 724 293
L 725 293
L 725 293
L 725 293
L 725 293
L 725 293
L 725 293
L 726 292
L 726 292
L 726 292
L 726 292
L 726 292
L 726 292
L 726 292
L 726 292
L 726 292
L 726 292
L 726 292
L 726 292
L 727 292
L 727 292
L 727 292
L 727 292
L 727 292
L 727 292
L 727 292
L 728 292
L 728 292
L 728 292
L 728 292
L 728 292
L 729 292
L 729 292
L 729 291
L 729 291
L 729 291
L 729 291
L 729 291
L 729 291
L 729 291
L 729 291
L 729 291
L 730 291
L 730 291
L 730 291
L 730 291
L 730 291
L 730 291
L 730 291
L 730 291
L 731 291
L 731 291
L 731 291
L 731 291
L 731 291
L 731 291
L 731 291
L 731 291
L 731 291
L 731 291
L 731 290
L 732 290
L 733 290
L 733 290
L 733 290
L 733 290
L 733 290
L 733 290
L 733 290
L 734 290
L 734 290
L 734 290
L 734 290
L 734 290
L 734 290
L 734 290
L 734 290
L 734 290
L 734 290
L 734 290
L 734 290
L 734 290
L 734 290
L 735 290
L 735 290
L 735 290
L 735 289
L 735 289
L 735 289
L 735 289
L 735 289
L 735 289
L 735 289
L 736 289
L 736 289
L 736 289
L 736 289
L 736 289
L 736 289
L 736 289
L 736 289
L 737 289
L 737 289
L 737 289
L 737 289
L 738 289
L 738 289
L 738 289
L 738 289
L 738 289
L 738 289
L 739 289
L 739 289
L 739 288
L 739 288
L 739 288
L 739 288
L 739 288
L 739 288
L 739 288
L 740 288
L 740 288
L 740 288
L 740 288
L 740 288
L 740 288
L 740 288
L 740 288
L 741 288
L 741 288
L 741 288
L 741 288
L 741 288
L 741 288
L 741 288
L 741 288
L 741 288
L 741 288
L 742 288
L 742 287
L 742 287
L 742 287
L 742 287
L 742 287
L 742 287
L 742 287
L 742 287
L 743 287
L 743 287
L 743 287
L 743 287
L 744 287
L 744 287
L 744 287
L 744 287
L 744 287
L 744 287
L 744 287
L 744 287
L 744 287
L 744 287
L 744 287
L 744 287
L 744 287
L 744 287
L 744 287
L 744 286
L 744 286
L 744 286
L 744 286
L 744 286
L 744 286
L 744 286
L 744 286
L 744 286
L 744 286
L 744 286
L 744 286
L 744 286
L 744 286
L 744 286
L 744 286
L 744 286
L 744 286
L 744 286
L 744 286
L 744 286
L 744 286
L 744 286
L 744 286
L 744 286
L 744 286
L 744 285
L 744 285
L 744 285
L 744 285
L 744 285
L 744 285
L 744 285
L 744 285
L 744 285
L 744 285
L 744 285
L 744 285
L 744 285
L 744 285
L 744 285
L 744 285
L 744 285
L 744 285
L 744 285
L 744 285
L 744 285
L 744 285
L 744 285
L 744 285
L 744 285
L 744 285
L 744 285
L 744 284
L 744 284
L 744 284
L 744 284
L 744 284
L 744 284
L 744 284
L 744 284
L 744 284
L 744 284
L 744 284
L 744 284
L 744 284
L 744 284
L 744 284
L 744 284
L 744 284
L 744 284
L 744 284
L 744 284
L 744 284
L 744 284
L 744 284
L 744 284
L 744 284
L 744 284
L 744 283
L 744 283
L 745 283
L 745 283
L 745 283
L 745 283
L 745 283
L 745 283
L 745 283
L 745 283
L 745 283
L 745 283
L 745 283
L 745 283
L 745 283
L 745 283
L 745 283
L 745 283
L 745 283
L 745 283
L 745 283
L 745 283
L 745 283
L 745 283
L 745 283
L 745 283
L 745 283
L 745 282
L 745 282
L 745 282
L 745 282
L 745 282
L 745 282
L 745 282
L 745 282
L 745 282
L 745 282
L 745 282
L 745 282
L 745 282
L 745 282
L 745 282
L 745 282
L 745 282
L 745 282
L 745 282
L 745 282
L 746 282
L 746 282
L 746 282
L 746 282
L 746 282
L 746 282
L 746 281
L 746 281
L 746 281
L 746 281
L 746 281
L 746 281
L 746 281
L 746 281
L 746 281
L 746 281
L 746 281
L 746 281
L 746 281
L 746 281
L 746 281
L 746 281
L 746 281
L 746 281
L 746 281
L 746 281
L 746 281
L 746 281
L 746 281
L 746 281
L 746 281
L 746 281
L 746 280
L 746 280
L 746 280
L 746 280
L 746 280
L 746 280
L 746 280
L 746 280
L 746 280
L 746 280
L 746 280
L 746 280
L 746 280
L 746 280
L 746 280
L 746 280
L 746 280
L 746 280
L 746 280
L 746 280
L 746 280
L 746 280
L 746 280
L 746 280
L 746 280
L 746 280
L 746 280
L 746 279
L 746 279
L 746 279
L 746 279
L 746 279
L 746 279
L 746 279
L 746 279
L 746 279
L 746 279
L 746 279
L 746 279
L 746 279
L 746 279
L 746 279
L 746 279
L 746 279
L 746 279
L 746 279
L 746 279
L 746 279
L 746 279
L 746 279
L 746 279
L 746 279
L 746 279
L 746 278
L 746 278
L 746 278
L 746 278
L 746 278
L 746 278
L 746 278
L 746 278
L 746 278
L 746 278
L 746 278
L 746 278
L 746 278
L 746 278
L 746 278
L 746 278
L 747 278
L 747 278
L 747 278
L 747 278
L 747 278
L 747 278
L 747 278
L 747 278
L 747 278
L 747 278
L 747 278
L 747 277
L 747 277
L 747 277
L 747 277
L 747 277
L 747 277
L 747 277
L 747 277
L 747 277
L 747 277
L 747 277
L 747 277
L 747 277
L 747 277
L 747 277
L 747 277
L 747 277
L 747 277
L 747 277
L 747 277
L 747 277
L 747 277
L 747 277
L 747 277
L 747 277
L 747 277
L 747 276
L 747 276
L 747 276
L 747 276
L 747 276
L 747 276
L 747 276
L 747 276
L 747 276
L 747 276
L 747 276
L 747 276
L 747 276
L 747 276
L 747 276
L 748 276
L 748 276
L 748 276
L 748 276
L 748 276
L 748 276
L 748 276
L 748 276
L 748 276
L 748 276
L 748 276
L 748 276
L 748 275
L 748 275
L 748 275
L 748 275
L 748 275
L 748 275
L 748 275
L 748 275
L 748 275
L 748 275
L 748 275
L 748 275
L 748 275
L 748 275
L 748 275
L 748 275
L 748 275
L 748 275
L 748 275
L 748 275
L 748 275
L 748 275
L 748 275
L 748 275
L 748 275
L 749 275
L 749 274
L 749 274
L 749 274
L 749 274
L 749 274
L 749 274
L 749 274
L 749 274
L 749 274
L 749 274
L 750 274
L 750 274
L 750 274
L 750 274
L 750 274
L 750 274
L 750 274
L 750 274
L 750 274
L 751 274
L 751 274
L 751 274
L 751 274
L 751 274
L 751 274
L 751 274
L 751 274
L 751 273
L 751 273
L 751 273
L 751 273
L 751 273
L 752 273
L 752 273
L 752 273
L 752 273
L 752 273
L 752 273
L 752 273
L 752 273
L 752 273
L 752 273
L 752 273
L 752 273
L 752 273
L 752 273
L 752 273
L 752 273
L 752 273
L 753 273
L 753 273
L 753 273
L 753 273
L 753 272
L 753 272
L 753 272
L 753 272
L 753 272
L 753 272
L 754 272
L 754 272
L 754 272
L 754 272
L 754 272
L 754 272
L 754 272
L 755 272
L 755 272
L 755 272
L 755 272
L 755 272
L 755 272
L 755 272
L 755 272
L 755 272
L 755 272
L 755 272
L 756 272
L 756 272
L 756 272
L 756 271
L 756 271
L 756 271
L 756 271
L 756 271
L 756 271
L 756 271
L 756 271
L 756 271
L 756 271
L 756 271
L 756 271
L 756 271
L 756 271
L 756 271
L 756 271
L 756 271
L 756 271
L 756 271
L 756 271
L 756 271
L 756 271
L 756 271
L 756 271
L 756 271
L 756 271
L 756 270
L 756 270
L 756 270
L 756 270
L 756 270
L 756 270
L 756 270
L 756 270
L 756 270
L 756 270
L 756 270
L 756 270
L 756 270
L 756 270
L 756 270
L 756 270
L 756 270
L 756 270
L 756 270
L 756 270
L 756 270
L 756 270
L 756 270
L 756 270
L 757 270
L 757 270
L 757 270
L 757 269
L 757 269
L 757 269
L 757 269
L 757 269
L 757 269
L 757 269
L 757 269
L 757 269
L 757 269
L 757 269
L 757 269
L 757 269
L 757 269
L 757 269
L 757 269
L 757 269
L 757 269
L 757 269
L 757 269
L 757 269
L 757 269
L 757 269
L 758 269
L 758 269
L 758 269
L 758 268
L 758 268
L 758 268
L 758 268
L 758 268
L 758 268
L 758 268
L 758 268
L 758 268
L 758 268
L 758 268
L 758 268
L 758 268
L 758 268
L 758 268
L 758 268
L 758 268
L 758 268
L 758 268
L 758 268
L 758 268
L 758 268
L 758 268
L 758 268
L 758 268
L 758 268
L 758 268
L 758 267
L 758 267
L 758 267
L 758 267
L 758 267
L 758 267
L 758 267
L 758 267
L 758 267
L 758 267
L 758 267
L 758 267
L 758 267
L 758 267
L 758 267
L 758 267
L 758 267
L 758 267
L 758 267
L 758 267
L 758 267
L 758 267
L 758 267
L 758 267
L 758 267
L 758 267
L 758 266
L 758 266
L 758 266
L 758 266
L 758 266
L 758 266
L 758 266
L 758 266
L 758 266
L 758 266
L 758 266
L 758 266
L 758 266
L 758 266
L 758 266
L 758 266
L 758 266
L 758 266
L 758 266
L 758 266
L 758 266
L 758 266
L 758 266
L 758 266
L 758 266
L 758 266
L 758 266
L 758 265
L 758 265
L 758 265
L 758 265
L 758 265
L 758 265
L 758 265
L 758 265
L 758 265
L 758 265
L 758 265
L 758 265
L 758 265
L 759 265
L 759 265
L 759 265
L 759 265
L 759 265
L 759 265
L 759 265
L 759 265
L 759 265
L 759 265
L 759 265
L 759 265
L 759 265
L 759 264
L 759 264
L 759 264
L 759 264
L 759 264
L 759 264
L 759 264
L 759 264
L 759 264
L 759 264
L 759 264
L 759 264
L 759 264
L 759 264
L 759 264
L 759 264
L 759 264
L 759 264
L 759 264
L 759 264
L 759 264
L 759 264
L 759 264
L 759 264
L 759 264
L 759 264
L 760 263
L 760 263
L 760 263
L 760 263
L 760 263
L 760 263
L 760 263
L 760 263
L 760 263
L 760 263
L 760 263
L 760 263
L 760 263
L 760 263
L 760 263
L 760 263
L 760 263
L 760 263
L 760 263
L 760 263
L 760 263
L 760 263
L 760 263
L 760 263
L 760 263
L 760 263
L 760 263
L 760 262
L 760 262
L 760 262
L 760 262
L 760 262
L 760 262
L 760 262
L 761 262
L 761 262
L 761 262
L 761 262
L 761 262
L 761 262
L 761 262
L 761 262
L 761 262
L 761 262
L 761 262
L 761 262
L 761 262
L 761 262
L 761 262
L 761 262
L 761 262
L 761 262
L 761 262
L 761 261
L 762 261
L 762 261
L 762 261
L 762 261
L 762 261
L 762 261
L 762 261
L 762 261
L 762 261
L 762 261
L 762 261
L 762 261
L 762 261
L 762 261
L 762 261
L 762 261
L 762 261
L 762 261
L 762 261
L 762 261
L 762 261
L 762 261
L 762 261
L 762 261
L 762 261
L 762 261
L 762 260
L 762 260
L 762 260
L 762 260
L 762 260
L 762 260
L 762 260
L 762 260
L 762 260
L 763 260
L 763 260
L 763 260
L 763 260
L 763 260
L 763 260
L 763 260
L 763 260
L 763 260
L 763 260
L 763 260
L 763 260
L 763 260
L 763 260
L 763 260
L 763 260
L 764 260
L 764 259
L 764 259
L 764 259
L 764 259
L 764 259
L 764 259
L 764 259
L 764 259
L 764 259
L 764 259
L 764 259
L 765 259
L 765 259
L 765 259
L 765 259
L 765 259
L 765 259
L 765 259
L 765 259
L 765 259
L 765 259
L 766 259
L 766 259
L 766 259
L 766 259
L 766 259
L 766 259
L 766 258
L 766 258
L 766 258
L 766 258
L 767 258
L 767 258
L 767 258
L 767 258
L 767 258
L 767 258
L 767 258
L 767 258
L 767 258
L 767 258
L 767 258
L 767 258
L 768 258
L 768 258
L 768 258
L 768 258
L 768 258
L 768 258
L 768 258
L 768 258
L 768 258
L 768 258
L 768 257
L 768 257
L 768 257
L 768 257
L 768 257
L 768 257
L 768 257
L 768 257
L 768 257
L 769 257
L 769 257
L 769 257
L 769 257
L 769 257
L 769 257
L 769 257
L 769 257
L 769 257
L 769 257
L 769 257
L 769 257
L 770 257
L 770 257
L 770 257
L 770 257
L 770 257
L 770 257
L 770 256
L 770 256
L 770 256
L 770 256
L 770 256
L 770 256
L 770 256
L 770 256
L 770 256
L 770 256
L 770 256
L 771 256
L 771 256
L 771 256
L 771 256
L 771 256
L 771 256
L 771 256
L 771 256
L 771 256
L 771 256
L 771 256
L 771 256
L 771 256
L 771 256
L 771 256
L 772 255
L 772 255
L 772 255
L 772 255
L 772 255
L 772 255
L 772 255
L 772 255
L 772 255
L 772 255
L 772 255
L 772 255
L 772 255
L 772 255
L 772 255
L 773 255
L 773 255
L 773 255
L 773 255
L 773 255
L 773 255
L 773 255
L 773 255
L 773 255
L 773 255
L 773 255
L 773 255
L 773 254
L 773 254
L 773 254
L 773 254
L 773 254
L 773 254
L 773 254
L 774 254
L 774 254
L 774 254
L 774 254
L 774 254
L 774 254
L 774 254
L 774 254
L 774 254
L 774 254
L 774 254
L 774 254
L 775 254
L 775 254
L 775 254
L 775 254
L 775 254
L 775 254
L 776 254
L 776 253
L 776 253
L 776 253
L 776 253
L 776 253
L 776 253
L 776 253
L 776 253
L 776 253
L 776 253
L 776 253
L 776 253
L 776 253
L 776 253
L 776 253
L 776 253
L 776 253
L 776 253
L 776 253
L 776 253
L 776 253
L 776 253
L 776 253
L 776 253
L 776 253
L 776 253
L 776 253
L 776 252
L 776 252
L 776 252
L 776 252
L 776 252
L 776 252
L 776 252
L 776 252
L 776 252
L 776 252
L 776 252
L 777 252
L 777 252
L 777 252
L 777 252
L 777 252
L 777 252
L 777 252
L 777 252
L 777 252
L 777 252
L 777 252
L 777 252
L 777 252
L 777 252
L 777 252
L 777 251
L 777 251
L 777 251
L 777 251
L 777 251
L 777 251
L 777 251
L 777 251
L 777 251
L 777 251
L 777 251
L 777 251
L 777 251
L 777 251
L 777 251
L 777 251
L 777 251
L 777 251
L 777 251
L 777 251
L 777 251
L 777 251
L 777 251
L 777 251
L 777 251
L 777 251
L 777 251
L 777 250
L 777 250
L 777 250
L 777 250
L 777 250
L 777 250
L 777 250
L 777 250
L 777 250
L 777 250
L 777 250
L 777 250
L 777 250
L 777 250
L 777 250
L 777 250
L 777 250
L 777 250
L 777 250
L 777 250
L 777 250
L 777 250
L 777 250
L 777 250
L 777 250
L 777 250
L 777 249
L 777 249
L 777 249
L 777 249
L 778 249
L 778 249
L 778 249
L 778 249
L 778 249
L 778 249
L 778 249
L 778 249
L 778 249
L 778 249
L 778 249
L 778 249
L 778 249
L 778 249
L 778 249
L 778 249
L 778 249
L 778 249
L 778 249
L 778 249
L 778 249
L 778 249
L 778 249
L 778 248
L 778 248
L 778 248
L 778 248
L 778 248
L 778 248
L 778 248
L 778 248
L 778 248
L 778 248
L 778 248
L 778 248
L 778 248
L 778 248
L 778 248
L 778 248
L 778 248
L 778 248
L 778 248
L 778 248
L 778 248
L 778 248
L 778 248
L 778 248
L 778 248
L 778 248
L 778 247
L 778 247
L 778 247
L 778 247
L 778 247
L 778 247
L 778 247
L 778 247
L 778 247
L 778 247
L 778 247
L 778 247
L 778 247
L 778 247
L 778 247
L 778 247
L 778 247
L 779 247
L 779 247
L 779 247
L 779 247
L 779 247
L 779 247
L 779 247
L 779 247
L 779 247
L 779 246
L 779 246
L 779 246
L 779 246
L 779 246
L 779 246
L 779 246
L 779 246
L 779 246
L 779 246
L 779 246
L 779 246
L 779 246
L 779 246
L 779 246
L 779 246
L 779 246
L 779 246
L 779 246
L 779 246
L 779 246
L 779 246
L 779 246
L 779 246
L 779 246
L 779 246
L 779 246
L 779 245
L 779 245
L 779 245
L 779 245
L 779 245
L 779 245
L 779 245
L 779 245
L 779 245
L 779 245
L 779 245
L 779 245
L 779 245
L 779 245
L 779 245
L 779 245
L 779 245
L 779 245
L 779 245
L 779 245
L 779 245
L 779 245
L 779 245
L 779 245
L 779 245
L 779 245
L 779 244
L 779 244
L 779 244
L 779 244
L 779 244
L 779 244
L 779 244
L 779 244
L 779 244
L 779 244
L 779 244
L 779 244
L 779 244
L 779 244
L 779 244
L 779 244
L 779 244
L 779 244
L 779 244
L 779 244
L 779 244
L 779 244
L 779 244
L 779 244
L 779 244
L 779 244
L 779 244
L 779 243
L 779 243
L 779 243
L 779 243
L 779 243
L 779 243
L 779 243
L 779 243
L 779 243
L 779 243
L 779 243
L 779 243
L 779 243
L 779 243
L 779 243
L 779 243
L 779 243
L 779 243
L 779 243
L 779 243
L 779 243
L 779 243
L 779 243
L 779 243
L 779 243
L 779 243
L 779 242
L 779 242
L 779 242
L 779 242
L 779 242
L 779 242
L 779 242
L 779 242
L 779 242
L 779 242
L 779 242
L 779 242
L 779 242
L 779 242
L 779 242
L 779 242
L 779 242
L 779 242
L 779 242
L 779 242
L 779 242
L 779 242
L 779 242
L 779 242
L 779 242
L 779 242
L 779 242
L 779 241
L 779 241
L 779 241
L 779 241
L 779 241
L 779 241
L 779 241
L 779 241
L 779 241
L 779 241
L 779 241
L 779 241
L 779 241
L 779 241
L 779 241
L 779 241
L 779 241
L 779 241
L 779 241
L 779 241
L 779 241
L 779 241
L 779 241
L 779 241
L 779 241
L 779 241
L 779 240
L 779 240
L 779 240
L 779 240
L 779 240
L 779 240
L 779 240
L 780 240
L 780 240
L 780 240
L 780 240
L 780 240
L 780 240
L 780 240
L 780 240
L 780 240
L 780 240
L 780 240
L 780 240
L 780 240
L 780 240
L 780 240
L 780 240
L 780 240
L 780 240
L 780 240
L 780 240
L 780 239
L 780 239
L 780 239
L 780 239
L 780 239
L 780 239
L 780 239
L 780 239
L 780 239
L 780 239
L 780 239
L 780 239
L 780 239
L 780 239
L 780 239
L 780 239
L 780 239
L 780 239
L 780 239
L 780 239
L 780 239
L 780 239
L 780 239
L 780 239
L 780 239
L 780 239
L 780 238
L 780 238
L 780 238
L 780 238
L 780 238
L 780 238
L 780 238
L 780 238
L 780 238
L 780 238
L 780 238
L 780 238
L 780 238
L 780 238
L 780 238
L 780 238
L 780 238
L 780 238
L 780 238
L 780 238
L 780 238
L 780 238
L 780 238
L 780 238
L 780 238
L 780 238
L 780 238
L 780 237
L 780 237
L 780 237
L 780 237
L 780 237
L 780 237
L 780 237
L 780 237
L 780 237
L 780 237
L 780 237
L 780 237
L 780 237
L 780 237
L 780 237
L 780 237
L 780 237
L 780 237
L 780 237
L 780 237
L 780 237
L 780 237
L 780 237
L 780 237
L 780 237
L 780 237
L 780 236
L 780 236
L 780 236
L 780 236
L 780 236
L 780 236
L 780 236
L 780 236
L 780 236
L 780 236
L 780 236
L 780 236
L 780 236
L 780 236
L 780 236
L 780 236
L 780 236
L 780 236
L 780 236
L 780 236
L 780 236
L 780 236
L 780 236
L 780 236
L 780 236
L 780 236
L 780 236
L 780 235
L 780 235
L 780 235
L 780 235
L 780 235
L 780 235
L 780 235
L 780 235
L 780 235
L 780 235
L 780 235
L 780 235
L 780 235
L 780 235
L 780 235
L 780 235
L 780 235
L 780 235
L 780 235
L 780 235
L 780 235
L 780 235
L 780 235
L 780 235
L 780 235
L 780 235
L 780 234
L 780 234
L 780 234
L 780 234
L 780 234
L 780 234
L 780 234
L 780 234
L 780 234
L 780 234
L 780 234
L 780 234
L 780 234
L 780 234
L 780 234
L 780 234
L 780 234
L 780 234
L 780 234
L 780 234
L 780 234
L 780 234
L 780 234
L 780 234
L 780 234
L 780 234
L 780 234
L 780 233
L 780 233
L 780 233
L 780 233
L 780 233
L 780 233
L 780 233
L 780 233
L 780 233
L 780 233
L 780 233
L 780 233
L 780 233
L 780 233
L 780 233
L 780 233
L 780 233
L 780 233
L 780 233
L 780 233
L 780 233
L 780 233
L 780 233
L 780 233
L 780 233
L 780 233
L 780 232
L 780 232
L 780 232
L 780 232
L 780 232
L 780 232
L 780 232
L 780 232
L 780 232
L 780 232
L 780 232
L 780 232
L 780 232
L 780 232
L 780 232
L 780 232
L 780 232
L 780 232
L 780 232
L 780 232
L 780 232
L 780 232
L 780 232
L 780 232
L 780 232
L 780 232
L 780 232
L 780 231
L 780 231
L 780 231
L 780 231
L 780 231
L 780 231
L 780 231
L 780 231
L 780 231
L 780 231
L 780 231
L 780 231
L 780 231
L 780 231
L 780 231
L 780 231
L 780 231
L 780 231
L 780 231
L 780 231
L 780 231
L 780 231
L 780 231
L 780 231
L 780 231
L 780 231
L 780 230
L 780 230
L 780 230
L 780 230
L 780 230
L 780 230
L 780 230
L 780 230
L 780 230
L 780 230
L 780 230
L 780 230
L 780 230
L 780 230
L 780 230
L 780 230
L 780 230
L 780 230
L 780 230
L 780 230
L 780 230
L 780 230
L 780 230
L 780 230
L 780 230
L 780 230
L 780 229
L 780 229
L 780 229
L 780 229
L 780 229
L 780 229
L 780 229
L 780 229
L 780 229
L 780 229
L 780 229
L 780 229
L 780 229
L 780 229
L 780 229
L 780 229
L 780 229
L 780 229
L 780 229
L 780 229
L 780 229
L 780 229
L 780 229
L 780 229
L 780 229
L 780 229
L 780 229
L 780 228
L 780 228
L 780 228
L 780 228
L 780 228
L 780 228
L 780 228
L 780 228
L 780 228
L 780 228
L 780 228
L 780 228
L 780 228
L 780 228
L 780 228
L 780 228
L 780 228
L 780 228
L 780 228
L 780 228
L 780 228
L 780 228
L 780 228
L 780 228
L 780 228
L 780 228
L 780 227
L 780 227
L 780 227
L 780 227
L 780 227
L 780 227
L 780 227
L 780 227
L 780 227
L 780 227
L 780 227
L 780 227
L 780 227
L 780 227
L 780 227
L 780 227
L 780 227
L 780 227
L 780 227
L 780 227
L 780 227
L 780 227
L 780 227
L 780 227
L 780 227
L 780 227
L 780 227
L 780 226
L 780 226
L 780 226
L 780 226
L 780 226
L 780 226
L 780 226
L 780 226
L 780 226
L 780 226
L 780 226
L 780 226
L 780 226
L 780 226
L 780 226
L 780 226
L 780 226
L 780 226
L 780 226
L 780 226
L 780 226
L 780 226
L 780 226
L 780 226
L 780 226
L 780 226
L 780 225
L 780 225
L 780 225
L 780 225
L 780 225
L 781 225
L 781 225
L 781 225
L 781 225
L 781 225
L 781 225
L 781 225
L 781 225
L 781 225
L 781 225
L 781 225
L 781 225
L 781 225
L 781 225
L 781 225
L 781 225
L 781 225
L 781 225
L 781 225
L 781 225
L 781 225
L 781 225
L 781 224
L 781 224
L 781 224
L 781 224
L 781 224
L 781 224
L 781 224
L 781 224
L 781 224
L 781 224
L 781 224
L 781 224
L 781 224
L 781 224
L 781 224
L 781 224
L 781 224
L 781 224
L 781 224
L 781 224
L 781 224
L 781 224
L 781 224
L 781 224
L 781 224
L 781 224
L 781 223
L 781 223
L 781 223
L 781 223
L 781 223
L 781 223
L 781 223
L 781 223
L 781 223
L 781 223
L 781 223
L 781 223
L 781 223
L 781 223
L 781 223
L 781 223
L 781 223
L 781 223
L 781 223
L 781 223
L 781 223
L 781 223
L 781 223
L 781 223
L 781 223
L 781 223
L 781 223
L 781 222
L 781 222
L 781 222
L 781 222
L 781 222
L 781 222
L 781 222
L 781 222
L 781 222
L 781 222
L 781 222
L 781 222
L 781 222
L 781 222
L 781 222
L 781 222
L 781 222
L 781 222
L 781 222
L 781 222
L 781 222
L 781 222
L 781 222
L 781 222
L 781 222
L 781 222
L 781 221
L 781 221
L 781 221
L 781 221
L 781 221
L 781 221
L 781 221
L 781 221
L 781 221
L 781 221
L 781 221
L 781 221
L 781 221
L 781 221
L 781 221
L 781 221
L 781 221
L 781 221
L 781 221
L 781 221
L 781 221
L 781 221
L 781 221
L 781 221
L 781 221
L 781 221
L 781 221
L 781 220
L 781 220
L 781 220
L 781 220
L 781 220
L 781 220
L 781 220
L 781 220
L 781 220
L 781 220
L 781 220
L 781 220
L 781 220
L 781 220
L 781 220
L 781 220
L 781 220
L 781 220
L 781 220
L 781 220
L 781 220
L 781 220
L 781 220
L 781 220
L 781 220
L 781 220
L 781 219
L 781 219
L 781 219
L 781 219
L 781 219
L 781 219
L 781 219
L 781 219
L 781 219
L 781 219
L 781 219
L 781 219
L 781 219
L 781 219
L 781 219
L 781 219
L 781 219
L 781 219
L 781 219
L 781 219
L 781 219
L 781 219
L 781 219
L 781 219
L 781 219
L 781 219
L 781 219
L 781 218
L 781 218
L 781 218
L 781 218
L 781 218
L 781 218
L 781 218
L 781 218
L 781 218
L 781 218
L 781 218
L 781 218
L 781 218
L 781 218
L 781 218
L 781 218
L 781 218
L 781 218
L 781 218
L 781 218
L 781 218
L 781 218
L 781 218
L 781 218
L 781 218
L 781 218
L 781 217
L 781 217
L 781 217
L 781 217
L 781 217
L 781 217
L 781 217
L 781 217
L 781 217
L 781 217
L 781 217
L 781 217
L 781 217
L 781 217
L 781 217
L 781 217
L 781 217
L 781 217
L 781 217
L 781 217
L 782 217
L 782 217
L 782 217
L 782 217
L 782 217
L 782 217
L 782 217
L 782 216
L 782 216
L 782 216
L 782 216
L 782 216
L 782 216
L 782 216
L 782 216
L 782 216
L 782 216
L 782 216
L 782 216
L 782 216
L 782 216
L 782 216
L 782 216
L 782 216
L 782 216
L 782 216
L 782 216
L 782 216
L 782 216
L 782 216
L 782 216
L 782 216
L 782 216
L 782 215
L 782 215
L 782 215
L 782 215
L 782 215
L 782 215
L 782 215
L 782 215
L 782 215
L 782 215
L 782 215
L 782 215
L 782 215
L 782 215
L 782 215
L 782 215
L 782 215
L 782 215
L 782 215
L 782 215
L 782 215
L 782 215
L 782 215
L 782 215
L 782 215
L 782 215
L 782 215
L 782 214
L 782 214
L 782 214
L 782 214
L 782 214
L 782 214
L 782 214
L 782 214
L 782 214
L 782 214
L 782 214
L 782 214
L 782 214
L 782 214
L 782 214
L 782 214
L 782 214
L 782 214
L 782 214
L 782 214
L 782 214
L 782 214
L 782 214
L 782 214
L 782 214
L 782 214
L 782 213
L 782 213
L 782 213
L 782 213
L 782 213
L 782 213
L 782 213
L 782 213
L 782 213
L 782 213
L 782 213
L 782 213
L 782 213
L 782 213
L 782 213
L 782 213
L 782 213
L 782 213
L 782 213
L 782 213
L 782 213
L 782 213
L 782 213
L 782 213
L 782 213
L 782 213
L 782 212
L 782 212
L 782 212
L 782 212
L 782 212
L 782 212
L 783 212
L 783 212
L 783 212
L 783 212
L 783 212
L 783 212
L 783 212
L 783 212
L 783 212
L 783 212
L 784 212
L 784 212
L 784 212
L 784 212
L 784 212
L 784 212
L 784 212
L 784 212
L 784 212
L 784 212
L 784 212
L 784 211
L 784 211
L 784 211
L 784 211
L 784 211
L 784 211
L 784 211
L 784 211
L 785 211
L 785 211
L 785 211
L 785 211
L 785 211
L 785 211
L 785 211
L 785 211
L 785 211
L 785 211
L 785 211
L 785 211
L 785 211
L 785 211
L 785 211
L 785 211
L 785 211
L 785 211
L 785 210
L 785 210
L 785 210
L 785 210
L 785 210
L 785 210
L 785 210
L 785 210
L 785 210
L 785 210
L 785 210
L 785 210
L 785 210
L 785 210
L 785 210
L 785 210
L 785 210
L 785 210
L 786 210
L 786 210
L 786 210
L 786 210
L 786 210
L 786 210
L 786 210
L 786 210
L 786 210
L 786 209
L 786 209
L 786 209
L 786 209
L 786 209
L 786 209
L 786 209
L 786 209
L 786 209
L 786 209
L 786 209
L 786 209
L 786 209
L 786 209
L 786 209
L 786 209
L 787 209
L 787 209
L 787 209
L 787 209
L 787 209
L 787 209
L 787 209
L 787 209
L 787 209
L 787 209
L 787 208
L 787 208
L 787 208
L 787 208
L 787 208
L 787 208
L 787 208
L 787 208
L 787 208
L 787 208
L 787 208
L 788 208
L 788 208
L 788 208
L 788 208
L 788 208
L 788 208
L 788 208
L 788 208
L 788 208
L 788 208
L 788 208
L 788 208
L 788 208
L 788 208
L 788 208
L 788 208
L 788 207
L 788 207
L 788 207
L 788 207
L 788 207
L 788 207
L 788 207
L 788 207
L 788 207
L 788 207
L 788 207
L 788 207
L 788 207
L 788 207
L 788 207
L 788 207
L 789 207
L 789 207
L 789 207
L 789 207
L 789 207
L 789 207
L 789 207
L 789 207
L 789 207
L 789 207
L 789 206
L 789 206
L 789 206
L 789 206
L 789 206
L 789 206
L 789 206
L 789 206
L 789 206
L 789 206
L 789 206
L 789 206
L 789 206
L 789 206
L 789 206
L 789 206
L 790 206
L 790 206
L 790 206
L 790 206
L 790 206
L 790 206
L 790 206
L 790 206
L 790 206
L 790 206
L 790 206
L 790 205
L 790 205
L 791 205
L 791 205
L 791 205
L 791 205
L 791 205
L 791 205
L 791 205
L 791 205
L 791 205
L 791 205
L 791 205
L 791 205
L 791 205
L 791 205
L 791 205
L 791 205
L 791 205
L 791 205
L 791 205
L 791 205
L 791 205
L 791 205
L 791 205
L 791 205
L 791 204
L 792 204
L 792 204
L 792 204
L 792 204
L 792 204
L 792 204
L 792 204
L 792 204
L 792 204
L 792 204
L 792 204
L 792 204
L 792 204
L 792 204
L 793 204
L 793 204
L 793 204
L 793 204
L 793 204
L 793 204
L 793 204
L 793 204
L 793 204
L 793 204
L 793 204
L 794 204
L 794 203
L 794 203
L 794 203
L 794 203
L 794 203
L 794 203
L 794 203
L 794 203
L 794 203
L 794 203
L 794 203
L 794 203
L 794 203
L 794 203
L 794 203
L 794 203
L 794 203
L 794 203
L 794 203
L 794 203
L 794 203
L 795 203
L 795 203
L 795 203
L 795 203
L 795 203
L 795 202
L 795 202
L 795 202
L 795 202
L 795 202
L 795 202
L 795 202
L 795 202
L 795 202
L 795 202
L 795 202
L 795 202
L 795 202
L 795 202
L 795 202
L 795 202
L 795 202
L 795 202
L 795 202
L 796 202
L 796 202
L 796 202
L 796 202
L 796 202
L 796 202
L 796 202
L 796 202
L 796 201
L 796 201
L 796 201
L 796 201
L 797 201
L 797 201
L 797 201
L 797 201
L 797 201
L 797 201
L 797 201
L 797 201
L 797 201
L 797 201
L 797 201
L 797 201
L 798 201
L 798 201
L 798 201
L 798 201
L 798 201
L 798 201
L 798 201
L 798 201
L 798 201
L 798 201
L 799 200
L 799 200
L 799 200
L 799 200
L 799 200
L 799 200
L 799 200
L 799 200
L 799 200
L 799 200
L 799 200
L 799 200
L 799 200
L 799 200
L 799 200
L 799 200
L 799 200
L 799 200
L 799 200
L 799 200
L 799 200
L 799 200
L 799 200
L 799 200
L 799 200
L 799 200
L 799 200
L 799 199
L 799 199
L 799 199
L 799 199
L 799 199
L 799 199
L 799 199
L 799 199
L 799 199
L 799 199
L 799 199
L 800 199
L 800 199
L 800 199
L 800 199
L 800 199
L 800 199
L 800 199
L 800 199
L 800 199
L 800 199
L 800 199
L 800 199
L 800 199
L 800 199
L 800 199
L 800 198
L 800 198
L 800 198
L 800 198
L 800 198
L 800 198
L 800 198
L 800 198
L 800 198
L 800 198
L 800 198
L 800 198
L 800 198
L 800 198
L 800 198
L 800 198
L 800 198
L 800 198
L 800 198
L 800 198
L 800 198
L 800 198
L 800 198
L 800 198
L 800 198
L 800 198
L 800 198
L 800 197
L 800 197
L 800 197
L 800 197
L 800 197
L 800 197
L 800 197
L 800 197
L 800 197
L 800 197
L 800 197
L 800 197
L 800 197
L 800 197
L 800 197
L 800 197
L 800 197
L 800 197
L 800 197
L 800 197
L 800 197
L 800 197
L 800 197
L 800 197
L 800 197
L 800 197
L 800 196
L 800 196
L 800 196
L 800 196
L 800 196
L 800 196
L 800 196
L 800 196
L 800 196
L 800 196
L 800 196
L 800 196
L 800 196
L 800 196
L 800 196
L 800 196
L 800 196
L 800 196
L 800 196
L 800 196
L 800 196
L 800 196
L 800 196
L 800 196
L 800 196
L 800 196
L 800 195
L 801 195
L 801 195
L 801 195
L 801 195
L 801 195
L 801 195
L 801 195
L 801 195
L 801 195
L 801 195
L 801 195
L 801 195
L 801 195
L 801 195
L 801 195
L 801 195
L 801 195
L 801 195
L 801 195
L 801 195
L 801 195
L 801 195
L 801 195
L 801 195
L 801 195
L 801 195
L 801 194
L 801 194
L 801 194
L 801 194
L 801 194
L 801 194
L 801 194
L 801 194
L 801 194
L 801 194
L 801 194
L 801 194
L 801 194
L 801 194
L 801 194
L 801 194
L 801 194
L 801 194
L 801 194
L 801 194
L 801 194
L 801 194
L 801 194
L 801 194
L 801 194
L 801 194
L 801 193
L 801 193
L 801 193
L 801 193
L 801 193
L 801 193
L 801 193
L 801 193
L 801 193
L 801 193
L 801 193
L 801 193
L 801 193
L 801 193
L 801 193
L 801 193
L 801 193
L 801 193
L 801 193
L 801 193
L 801 193
L 801 193
L 801 193
L 801 193
L 801 193
L 801 193
L 801 193
L 801 192
L 801 192
L 801 192
L 801 192
L 801 192
L 801 192
L 801 192
L 801 192
L 801 192
L 801 192
L 801 192
L 801 192
L 801 192
L 801 192
L 801 192
L 801 192
L 801 192
L 801 192
L 801 192
L 801 192
L 801 192
L 801 192
L 801 192
L 801 192
L 801 192
L 801 192
L 801 191
L 801 191
L 801 191
L 801 191
L 801 191
L 801 191
L 801 191
L 801 191
L 801 191
L 801 191
L 801 191
L 801 191
L 801 191
L 801 191
L 801 191
L 801 191
L 801 191
L 801 191
L 801 191
L 801 191
L 801 191
L 801 191
L 801 191
L 801 191
L 801 191
L 801 191
L 801 191
L 801 190
L 801 190
L 801 190
L 801 190
L 801 190
L 801 190
L 801 190
L 801 190
L 801 190
L 801 190
L 801 190
L 801 190
L 801 190
L 801 190
L 801 190
L 801 190
L 801 190
L 801 190
L 801 190
L 801 190
L 801 190
L 801 190
L 801 190
L 801 190
L 801 190
L 801 190
L 801 189
L 801 189
L 801 189
L 801 189
L 801 189
L 801 189
L 801 189
L 801 189
L 801 189
L 801 189
L 801 189
L 801 189
L 801 189
L 801 189
L 801 189
L 801 189
L 801 189
L 801 189
L 801 189
L 801 189
L 801 189
L 801 189
L 801 189
L 801 189
L 801 189
L 801 189
L 801 189
L 801 188
L 801 188
L 801 188
L 801 188
L 801 188
L 801 188
L 801 188
L 801 188
L 801 188
L 801 188
L 801 188
L 801 188
L 801 188
L 801 188
L 801 188
L 801 188
L 801 188
L 801 188
L 801 188
L 801 188
L 801 188
L 801 188
L 801 188
L 801 188
L 801 188
L 801 188
L 801 187
L 801 187
L 801 187
L 801 187
L 801 187
L 801 187
L 801 187
L 801 187
L 801 187
L 801 187
L 801 187
L 801 187
L 801 187
L 801 187
L 801 187
L 801 187
L 801 187
L 801 187
L 801 187
L 801 187
L 801 187
L 801 187
L 801 187
L 801 187
L 801 187
L 801 187
L 801 187
L 801 186
L 801 186
L 801 186
L 801 186
L 801 186
L 801 186
L 801 186
L 801 186
L 801 186
L 801 186
L 801 186
L 801 186
L 801 186
L 801 186
L 801 186
L 801 186
L 801 186
L 801 186
L 801 186
L 801 186
L 801 186
L 801 186
L 801 186
L 801 186
L 801 186
L 801 186
L 801 185
L 801 185
L 801 185
L 801 185
L 801 185
L 801 185
L 801 185
L 801 185
L 801 185
L 801 185
L 801 185
L 801 185
L 801 185
L 801 185
L 801 185
L 801 185
L 801 185
L 801 185
L 801 185
L 801 185
L 801 185
L 801 185
L 801 185
L 801 185
L 801 185
L 801 185
L 801 185
L 801 184
L 801 184
L 801 184
L 801 184
L 801 184
L 801 184
L 801 184
L 801 184
L 801 184
L 801 184
L 801 184
L 801 184
L 801 184
L 801 184
L 801 184
L 801 184
L 801 184
L 801 184
L 801 184
L 801 184
L 801 184
L 801 184
L 801 184
L 801 184
L 801 184
L 801 184
L 801 183
L 801 183
L 801 183
L 801 183
L 801 183
L 801 183
L 801 183
L 801 183
L 801 183
L 801 183
L 801 183
L 801 183
L 801 183
L 801 183
L 801 183
L 801 183
L 801 183
L 801 183
L 801 183
L 801 183
L 801 183
L 801 183
L 801 183
L 801 183
L 801 183
L 801 183
L 801 183
L 801 182
L 801 182
L 801 182
L 801 182
L 802 182
L 802 182
L 802 182
L 802 182
L 802 182
L 802 182
L 802 182
L 802 182
L 802 182
L 802 182
L 802 182
L 802 182
L 802 182
L 802 182
L 802 182
L 802 182
L 802 182
L 802 182
L 802 182
L 802 182
L 802 182
L 802 182
L 802 181
L 802 181
L 802 181
L 802 181
L 802 181
L 802 181
L 802 181
L 802 181
L 802 181
L 802 181
L 802 181
L 802 181
L 802 181
L 802 181
L 802 181
L 802 181
L 802 181
L 802 181
L 802 181
L 802 181
L 802 181
L 802 181
L 802 181
L 802 181
L 802 181
L 802 181
L 802 181
L 802 180
L 802 180
L 802 180
L 802 180
L 802 180
L 802 180
L 802 180
L 802 180
L 802 180
L 802 180
L 802 180
L 802 180
L 802 180
L 802 180
L 802 180
L 802 180
L 802 180
L 802 180
L 802 180
L 802 180
L 802 180
L 802 180
L 802 180
L 802 180
L 802 180
L 802 180
L 802 179
L 802 179
L 802 179
L 802 179
L 802 179
L 802 179
L 802 179
L 802 179
L 802 179
L 802 179
L 802 179
L 802 179
L 802 179
L 802 179
L 802 179
L 802 179
L 802 179
L 802 179
L 802 179
L 802 179
L 802 179
L 802 179
L 802 179
L 802 179
L 802 179
L 802 179
L 802 178
L 802 178
L 802 178
L 802 178
L 802 178
L 802 178
L 802 178
L 802 178
L 802 178
L 802 178
L 802 178
L 802 178
L 802 178
L 802 178
L 802 178
L 802 178
L 802 178
L 802 178
L 802 178
L 802 178
L 802 178
L 802 178
L 802 178
L 802 178
L 802 178
L 802 178
L 802 178
L 802 177
L 802 177
L 802 177
L 802 177
L 802 177
L 802 177
L 802 177
L 802 177
L 802 177
L 802 177
L 802 177
L 802 177
L 802 177
L 802 177
L 802 177
L 802 177
L 802 177
L 802 177
L 802 177
L 802 177
L 802 177
L 802 177
L 802 177
L 802 177
L 802 177
L 802 177
L 802 176
L 802 176
L 802 176
L 802 176
L 802 176
L 802 176
L 802 176
L 802 176
L 802 176
L 802 176
L 802 176
L 802 176
L 802 176
L 802 176
L 802 176
L 802 176
L 802 176
L 802 176
L 802 176
L 802 176
L 802 176
L 802 176
L 802 176
L 802 176
L 802 176
L 802 176
L 802 176
L 802 175
L 802 175
L 802 175
L 802 175
L 802 175
L 802 175
L 802 175
L 802 175
L 802 175
L 802 175
L 802 175
L 802 175
L 802 175
L 802 175
L 802 175
L 802 175
L 802 175
L 802 175
L 802 175
L 802 175
L 802 175
L 802 175
L 802 175
L 802 175
L 802 175
L 802 175
L 802 174
L 802 174
L 802 174
L 802 174
L 802 174
L 802 174
L 802 174
L 802 174
L 802 174
L 802 174
L 802 174
L 802 174
L 802 174
L 802 174
L 802 174
L 802 174
L 802 174
L 802 174
L 802 174
L 802 174
L 802 174
L 802 174
L 802 174
L 802 174
L 802 174
L 802 174
L 802 174
L 802 173
L 802 173
L 802 173
L 802 173
L 802 173
L 802 173
L 802 173
L 802 173
L 802 173
L 802 173
L 802 173
L 802 173
L 802 173
L 802 173
L 802 173
L 802 173
L 802 173
L 802 173
L 802 173
L 802 173
L 802 173
L 802 173
L 802 173
L 802 173
L 802 173
L 802 173
L 802 172
L 802 172
L 802 172
L 802 172
L 802 172
L 802 172
L 802 172
L 802 172
L 802 172
L 802 172
L 802 172
L 802 172
L 802 172
L 802 172
L 802 172
L 802 172
L 802 172
L 802 172
L 802 172
L 802 172
L 802 172
L 802 172
L 802 172
L 802 172
L 802 172
L 802 172
L 802 172
L 802 171
L 802 171
L 802 171
L 802 171
L 802 171
L 802 171
L 802 171
L 802 171
L 802 171
L 802 171
L 802 171
L 802 171
L 802 171
L 802 171
L 802 171
L 802 171
L 802 171
L 802 171
L 802 171
L 802 171
L 802 171
L 802 171
L 802 171
L 802 171
L 802 171
L 802 171
L 802 170
L 802 170
L 802 170
L 802 170
L 802 170
L 802 170
L 802 170
L 802 170
L 802 170
L 802 170
L 802 170
L 802 170
L 802 170
L 802 170
L 802 170
L 802 170
L 802 170
L 802 170
L 802 170
L 802 170
L 802 170
L 802 170
L 802 170
L 802 170
L 802 170
L 802 170
L 802 170
L 802 169
L 802 169
L 802 169
L 802 169
L 802 169
L 802 169
L 802 169
L 802 169
L 802 169
L 802 169
L 802 169
L 802 169
L 802 169
L 802 169
L 802 169
L 802 169
L 802 169
L 802 169
L 802 169
L 802 169
L 802 169
L 802 169
L 802 169
L 802 169
L 802 169
L 802 169
L 802 168
L 802 168
L 802 168
L 802 168
L 802 168
L 802 168
L 802 168
L 802 168
L 802 168
L 802 168
L 802 168
L 802 168
L 802 168
L 802 168
L 802 168
L 803 168
L 803 168
L 803 168
L 803 168
L 803 168
L 803 168
L 803 168
L 803 168
L 803 168
L 803 168
L 803 168
L 803 168
L 803 167
L 803 167
L 803 167
L 803 167
L 803 167
L 803 167
L 803 167
L 803 167
L 803 167
L 803 167
L 803 167
L 803 167
L 803 167
L 803 167
L 803 167
L 803 167
L 803 167
L 803 167
L 803 167
L 803 167
L 803 167
L 803 167
L 803 167
L 803 167
L 803 167
L 803 167
L 803 166
L 803 166
L 803 166
L 803 166
L 803 166
L 803 166
L 803 166
L 803 166
L 803 166
L 803 166
L 803 166
L 803 166
L 803 166
L 803 166
L 803 166
L 803 166
L 803 166
L 803 166
L 803 166
L 803 166
L 803 166
L 803 166
L 803 166
L 803 166
L 803 166
L 803 166
L 803 166
L 803 165
L 803 165
L 803 165
L 803 165
L 803 165
L 803 165
L 803 165
L 803 165
L 803 165
L 803 165
L 803 165
L 803 165
L 803 165
L 803 165
L 803 165
L 803 165
L 803 165
L 803 165
L 803 165
L 803 165
L 803 165
L 803 165
L 803 165
L 803 165
L 803 165
L 803 165
L 803 164
L 803 164
L 803 164
L 803 164
L 803 164
L 803 164
L 803 164
L 803 164
L 803 164
L 803 164
L 803 164
L 803 164
L 803 164
L 803 164
L 803 164
L 803 164
L 803 164
L 803 164
L 803 164
L 803 164
L 803 164
L 803 164
L 803 164
L 803 164
L 803 164
L 803 164
L 803 163
L 803 163
L 803 163
L 803 163
L 803 163
L 803 163
L 803 163
L 803 163
L 803 163
L 803 163
L 803 163
L 803 163
L 803 163
L 803 163
L 803 163
L 803 163
L 803 163
L 803 163
L 803 163
L 803 163
L 803 163
L 803 163
L 803 163
L 803 163
L 803 163
L 803 163
L 803 163
L 803 162
L 803 162
L 803 162
L 803 162
L 803 162
L 803 162
L 803 162
L 803 162
L 803 162
L 803 162
L 803 162
L 803 162
L 803 162
L 803 162
L 803 162
L 803 162
L 803 162
L 803 162
L 803 162
L 803 162
L 803 162
L 803 162
L 803 162
L 803 162
L 803 162
L 803 162
L 803 161
L 803 161
L 803 161
L 803 161
L 803 161
L 803 161
L 803 161
L 803 161
L 803 161
L 803 161
L 803 161
L 803 161
L 803 161
L 803 161
L 803 161
L 803 161
L 803 161
L 803 161
L 803 161
L 803 161
L 803 161
L 803 161
L 803 161
L 803 161
L 803 161
L 803 161
L 803 161
L 803 160
L 803 160
L 803 160
L 803 160
L 803 160
L 803 160
L 803 160
L 803 160
L 803 160
L 803 160
L 803 160
L 803 160
L 803 160
L 803 160
L 803 160
L 803 160
L 803 160
L 803 160
L 803 160
L 803 160
L 803 160
L 803 160
L 803 160
L 803 160
L 803 160
L 803 160
L 803 159
L 803 159
L 803 159
L 803 159
L 803 159
L 803 159
L 803 159
L 803 159
L 804 159
L 804 159
L 804 159
L 804 159
L 804 159
L 804 159
L 804 159
L 804 159
L 804 159
L 804 159
L 804 159
L 804 159
L 804 159
L 804 159
L 804 159
L 804 159
L 804 159
L 804 159
L 804 159
L 804 158
L 804 158
L 804 158
L 804 158
L 804 158
L 804 158
L 804 158
L 804 158
L 804 158
L 804 158
L 804 158
L 804 158
L 804 158
L 804 158
L 804 158
L 804 158
L 804 158
L 804 158
L 804 158
L 804 158
L 804 158
L 804 158
L 804 158
L 804 158
L 804 158
L 804 158
L 804 157
L 804 157
L 804 157
L 804 157
L 804 157
L 804 157
L 804 157
L 804 157
L 804 157
L 804 157
L 804 157
L 804 157
L 804 157
L 804 157
L 804 157
L 804 157
L 804 157
L 804 157
L 804 157
L 804 157
L 804 157
L 804 157
L 804 157
L 804 157
L 804 157
L 804 157
L 804 157
L 804 156
L 804 156
L 804 156
L 804 156
L 804 156
L 804 156
L 804 156
L 804 156
L 804 156
L 804 156
L 804 156
L 804 156
L 804 156
L 804 156
L 804 156
L 804 156
L 804 156
L 804 156
L 804 156
L 804 156
L 804 156
L 804 156
L 804 156
L 804 156
L 804 156
L 804 156
L 804 155
L 804 155
L 804 155
L 804 155
L 804 155
L 804 155
L 804 155
L 804 155
L 804 155
L 804 155
L 804 155
L 804 155
L 804 155
L 804 155
L 804 155
L 804 155
L 804 155
L 804 155
L 804 155
L 804 155
L 804 155
L 804 155
L 804 155
L 804 155
L 804 155
L 804 155
L 805 155
L 805 154
L 805 154
L 805 154
L 805 154
L 805 154
L 805 154
L 805 154
L 805 154
L 805 154
L 805 154
L 805 154
L 805 154
L 805 154
L 805 154
L 805 154
L 805 154
L 805 154
L 805 154
L 805 154
L 805 154
L 805 154
L 805 154
L 805 154
L 805 154
L 805 154
L 805 154
L 805 153
L 805 153
L 805 153
L 805 153
L 805 153
L 805 153
L 805 153
L 805 153
L 805 153
L 805 153
L 805 153
L 805 153
L 805 153
L 805 153
L 805 153
L 805 153
L 805 153
L 805 153
L 805 153
L 805 153
L 805 153
L 805 153
L 805 153
L 805 153
L 805 153
L 805 153
L 805 153
L 805 152
L 805 152
L 805 152
L 805 152
L 805 152
L 805 152
L 805 152
L 806 152
L 806 152
L 806 152
L 806 152
L 806 152
L 806 152
L 806 152
L 806 152
L 806 152
L 806 152
L 806 152
L 806 152
L 806 152
L 806 152
L 806 152
L 806 152
L 806 152
L 806 152
L 806 152
L 806 151
L 806 151
L 806 151
L 806 151
L 806 151
L 806 151
L 806 151
L 806 151
L 806 151
L 806 151
L 806 151
L 806 151
L 806 151
L 806 151
L 806 151
L 806 151
L 806 151
L 806 151
L 806 151
L 806 151
L 806 151
L 806 151
L 806 151
L 806 151
L 806 151
L 806 151
L 806 151
L 806 150
L 806 150
L 806 150
L 806 150
L 806 150
L 806 150
L 806 150
L 806 150
L 806 150
L 806 150
L 806 150
L 806 150
L 806 150
L 806 150
L 806 150
L 806 150
L 806 150
L 806 150
L 806 150
L 806 150
L 806 150
L 806 150
L 806 150
L 806 150
L 806 150
L 806 150
L 806 149
L 806 149
L 806 149
L 806 149
L 806 149
L 806 149
L 806 149
L 806 149
L 806 149
L 806 149
L 806 149
L 806 149
L 807 149
L 807 149
L 807 149
L 807 149
L 807 149
L 807 149
L 807 149
L 807 149
L 807 149
L 807 149
L 807 149
L 807 149
L 807 149
L 807 149
L 807 149
L 807 148
L 807 148
L 807 148
L 807 148
L 807 148
L 807 148
L 807 148
L 807 148
L 807 148
L 807 148
L 807 148
L 807 148
L 807 148
L 807 148
L 807 148
L 807 148
L 807 148
L 807 148
L 807 148
L 807 148
L 807 148
L 807 148
L 807 148
L 807 148
L 807 148
L 808 148
L 808 147
L 808 147
L 808 147
L 808 147
L 808 147
L 808 147
L 808 147
L 808 147
L 808 147
L 808 147
L 808 147
L 808 147
L 808 147
L 808 147
L 808 147
L 808 147
L 808 147
L 808 147
L 808 147
L 808 147
L 808 147
L 808 147
L 808 147
L 808 147
L 808 147
L 808 147
L 808 147
L 808 146
L 808 146
L 809 146
L 809 146
L 809 146
L 809 146
L 809 146
L 809 146
L 809 146
L 809 146
L 809 146
L 809 146
L 809 146
L 809 146
L 809 146
L 809 146
L 809 146
L 809 146
L 809 146
L 809 146
L 810 146
L 810 146
L 810 146
L 810 146
L 810 146
L 810 146
L 810 145
L 810 145
L 810 145
L 810 145
L 810 145
L 810 145
L 810 145
L 810 145
L 810 145
L 810 145
L 810 145
L 810 145
L 810 145
L 810 145
L 810 145
L 810 145
L 810 145
L 810 145
L 810 145
L 810 145
L 810 145
L 810 145
L 810 145
L 810 145
L 810 145
L 810 145
L 811 144
L 811 144
L 811 144
L 811 144
L 811 144
L 811 144
L 811 144
L 811 144
L 811 144
L 811 144
L 811 144
L 811 144
L 811 144
L 811 144
L 811 144
L 811 144
L 811 144
L 811 144
L 811 144
L 811 144
L 811 144
L 811 144
L 811 144
L 811 144
L 811 144
L 812 144
L 812 144
L 812 143
L 812 143
L 812 143
L 812 143
L 812 143
L 812 143
L 812 143
L 812 143
L 812 143
L 812 143
L 812 143
L 812 143
L 812 143
L 812 143
L 812 143
L 812 143
L 812 143
L 812 143
L 812 143
L 812 143
L 813 143
L 813 143
L 813 143
L 813 143
L 813 143
L 813 143
L 813 142
L 813 142
L 813 142
L 813 142
L 813 142
L 813 142
L 813 142
L 813 142
L 813 142
L 813 142
L 813 142
L 813 142
L 813 142
L 813 142
L 813 142
L 813 142
L 813 142
L 813 142
L 813 142
L 813 142
L 813 142
L 813 142
L 813 142
L 813 142
L 813 142
L 813 142
L 813 142
L 813 141
L 814 141
L 814 141
L 814 141
L 814 141
L 814 141
L 814 141
L 814 141
L 814 141
L 814 141
L 814 141
L 814 141
L 814 141
L 814 141
L 814 141
L 815 141
L 815 141
L 815 141
L 815 141
L 815 141
L 815 141
L 815 141
L 815 141
L 815 141
L 815 141
L 815 141
L 815 140
L 816 140
L 816 140
L 816 140
L 816 140
L 816 140
L 816 140
L 816 140
L 816 140
L 816 140
L 816 140
L 816 140
L 816 140
L 816 140
L 816 140
L 816 140
L 816 140
L 816 140
L 816 140
L 816 140
L 816 140
L 817 140
L 817 140
L 817 140
L 817 140
L 817 140
L 817 140
L 817 139
L 817 139
L 817 139
L 817 139
L 817 139
L 817 139
L 817 139
L 817 139
L 817 139
L 817 139
L 817 139
L 817 139
L 817 139
L 817 139
L 817 139
L 817 139
L 817 139
L 817 139
L 817 139
L 817 139
L 817 139
L 817 139
L 817 139
L 817 139
L 817 139
L 817 139
L 817 138
L 817 138
L 817 138
L 817 138
L 817 138
L 817 138
L 817 138
L 817 138
L 817 138
L 818 138
L 818 138
L 818 138
L 818 138
L 818 138
L 818 138
L 818 138
L 818 138
L 818 138
L 818 138
L 818 138
L 818 138
L 818 138
L 818 138
L 818 138
L 818 138
L 818 138
L 818 138
L 818 137
L 818 137
L 818 137
L 818 137
L 818 137
L 818 137
L 818 137
L 818 137
L 818 137
L 818 137
L 818 137
L 818 137
L 818 137
L 818 137
L 818 137
L 818 137
L 818 137
L 818 137
L 818 137
L 818 137
L 818 137
L 818 137
L 818 137
L 818 137
L 818 137
L 818 137
L 818 136
L 819 136
L 819 136
L 819 136
L 819 136
L 819 136
L 819 136
L 819 136
L 819 136
L 819 136
L 819 136
L 819 136
L 819 136
L 819 136
L 819 136
L 819 136
L 819 136
L 819 136
L 819 136
L 819 136
L 819 136
L 819 136
L 819 136
L 819 136
L 819 136
L 819 136
L 819 136
L 819 135
L 819 135
L 819 135
L 819 135
L 819 135
L 819 135
L 819 135
L 819 135
L 819 135
L 819 135
L 819 135
L 819 135
L 819 135
L 819 135
L 819 135
L 819 135
L 819 135
L 819 135
L 819 135
L 819 135
L 819 135
L 820 135
L 820 135
L 820 135
L 820 135
L 820 135
L 820 134
L 820 134
L 820 134
L 820 134
L 820 134
L 820 134
L 820 134
L 820 134
L 820 134
L 820 134
L 820 134
L 820 134
L 820 134
L 820 134
L 820 134
L 820 134
L 820 134
L 821 134
L 821 134
L 821 134
L 821 134
L 821 134
L 821 134
L 821 134
L 821 134
L 821 134
L 821 134
L 821 133
L 821 133
L 821 133
L 821 133
L 821 133
L 821 133
L 821 133
L 821 133
L 821 133
L 821 133
L 821 133
L 821 133
L 821 133
L 821 133
L 821 133
L 821 133
L 821 133
L 821 133
L 821 133
L 821 133
L 821 133
L 821 133
L 821 133
L 821 133
L 821 133
L 821 133
L 821 132
L 821 132
L 821 132
L 822 132
L 822 132
L 822 132
L 822 132
L 822 132
L 822 132
L 822 132
L 822 132
L 822 132
L 822 132
L 822 132
L 822 132
L 822 132
L 822 132
L 822 132
L 822 132
L 822 132
L 822 132
L 822 132
L 822 132
L 822 132
L 823 132
L 823 132
L 823 132
L 823 131
L 823 131
L 823 131
L 823 131
L 823 131
L 823 131
L 823 131
L 823 131
L 823 131
L 823 131
L 823 131
L 823 131
L 823 131
L 823 131
L 823 131
L 823 131
L 823 131
L 823 131
L 823 131
L 823 131
L 823 131
L 823 131
L 823 131
L 823 131
L 823 131
L 823 131
L 823 130
L 823 130
L 823 130
L 823 130
L 824 130
L 824 130
L 824 130
L 824 130
L 824 130
L 824 130
L 824 130
L 824 130
L 824 130
L 824 130
L 824 130
L 824 130
L 824 130
L 824 130
L 824 130
L 824 130
L 824 130
L 824 130
L 824 130
L 825 130
L 825 130
L 825 130
L 825 130
L 826 129
L 826 129
L 826 129
L 826 129
L 826 129
L 826 129
L 826 129
L 826 129
L 826 129
L 826 129
L 827 129
L 827 129
L 827 129
L 827 129
L 827 129
L 827 129
L 827 129
L 827 129
L 827 129
L 827 129
L 827 129
L 827 129
L 828 129
L 828 129
L 828 129
L 828 129
L 828 128
L 828 128
L 828 128
L 828 128
L 828 128
L 828 128
L 828 128
L 828 128
L 828 128
L 829 128
L 829 128
L 829 128
L 829 128
L 829 128
L 829 128
L 829 128
L 829 128
L 829 128
L 829 128
L 829 128
L 829 128
L 829 128
L 830 128
L 830 128
L 830 128
L 830 128
L 830 127
L 830 127
L 830 127
L 831 127
L 831 127
L 831 127
L 831 127
L 831 127
L 831 127
L 831 127
L 831 127
L 832 127
L 832 127
L 832 127
L 832 127
L 832 127
L 832 127
L 832 127
L 832 127
L 832 127
L 832 127
L 832 127
L 832 127
L 832 127
L 832 127
L 832 127
L 833 127
L 833 126
L 833 126
L 833 126
L 833 126
L 833 126
L 833 126
L 833 126
L 833 126
L 833 126
L 834 126
L 834 126
L 834 126
L 834 126
L 834 126
L 834 126
L 834 126
L 834 126
L 834 126
L 834 126
L 835 126
L 835 126
L 835 126
L 835 126
L 835 126
L 835 126
L 835 126
L 835 125
L 835 125
L 835 125
L 835 125
L 835 125
L 835 125
L 835 125
L 835 125
L 835 125
L 835 125
L 835 125
L 835 125
L 835 125
L 835 125
L 835 125
L 836 125
L 836 125
L 836 125
L 836 125
L 836 125
L 836 125
L 836 125
L 837 125
L 837 125
L 837 125
L 837 125
L 837 125
L 837 124
L 837 124
L 838 124
L 838 124
L 838 124
L 838 124
L 838 124
L 838 124
L 838 124
L 838 124
L 838 124
L 838 124
L 838 124
L 838 124
L 838 124
L 839 124
L 839 124
L 839 124
L 839 124
L 839 124
L 839 124
L 839 124
L 839 124
L 839 124
L 839 124
L 839 124
L 839 123
L 839 123
L 839 123
L 839 123
L 839 123
L 839 123
L 839 123
L 840 123
L 840 123
L 840 123
L 840 123
L 840 123
L 840 123
L 840 123
L 840 123
L 841 123
L 841 123
L 841 123
L 841 123
L 841 123
L 841 123
L 841 123
L 841 123
L 842 123
L 842 123
L 842 123
L 842 123
L 842 122
L 842 122
L 843 122
L 843 122
L 843 122
L 843 122
L 843 122
L 843 122
L 843 122
L 843 122
L 843 122
L 843 122
L 843 122
L 843 122
L 843 122
L 843 122
L 843 122
L 843 122
L 843 122
L 843 122
L 844 122
L 844 122
L 844 122
L 844 122
L 844 122
L 844 122
L 844 121
L 844 121
L 844 121
L 844 121
L 844 121
L 844 121
L 844 121
L 844 121
L 844 121
L 844 121
L 844 121
L 844 121
L 844 121
L 844 121
L 844 121
L 844 121
L 844 121
L 844 121
L 844 121
L 844 121
L 844 121
L 844 121
L 844 121
L 844 121
L 844 121
L 844 121
L 844 121
L 845 120
L 845 120
L 845 120
L 845 120
L 845 120
L 845 120
L 845 120
L 845 120
L 845 120
L 845 120
L 845 120
L 845 120
L 845 120
L 845 120
L 845 120
L 845 120
L 845 120
L 845 120
L 845 120
L 845 120
L 845 120
L 845 120
L 845 120
L 845 120
L 845 120
L 845 120
L 845 119
L 845 119
L 845 119
L 845 119
L 845 119
L 845 119
L 845 119
L 845 119
L 845 119
L 845 119
L 845 119
L 846 119
L 846 119
L 846 119
L 846 119
L 846 119
L 846 119
L 846 119
L 846 119
L 846 119
L 846 119
L 846 119
L 846 119
L 846 119
L 846 119
L 846 119
L 846 119
L 847 118
L 847 118
L 847 118
L 847 118
L 847 118
L 847 118
L 848 118
L 848 118
L 848 118
L 848 118
L 848 118
L 848 118
L 848 118
L 848 118
L 848 118
L 848 118
L 848 118
L 848 118
L 848 118
L 848 118
L 848 118
L 849 118
L 849 118
L 849 118
L 849 118
L 849 118
L 849 117
L 849 117
L 849 117
L 849 117
L 849 117
L 849 117
L 849 117
L 849 117
L 849 117
L 849 117
L 849 117
L 850 117
L 850 117
L 850 117
L 850 117
L 850 117
L 850 117
L 850 117
L 850 117
L 850 117
L 850 117
L 850 117
L 851 117
L 851 117
L 851 117
L 851 117
L 851 117
L 851 116
L 851 116
L 851 116
L 851 116
L 851 116
L 851 116
L 851 116
L 851 116
L 851 116
L 852 116
L 852 116
L 852 116
L 852 116
L 852 116
L 852 116
L 852 116
L 852 116
L 852 116
L 852 116
L 852 116
L 852 116
L 852 116
L 852 116
L 853 116
L 853 116
L 853 116
L 853 115
L 853 115
L 853 115
L 853 115
L 853 115
L 854 115
L 854 115
L 854 115
L 854 115
L 854 115
L 854 115
L 854 115
L 854 115
L 854 115
L 854 115
L 855 115
L 855 115
L 855 115
L 855 115
L 855 115
L 855 115
L 855 115
L 855 115
L 855 115
L 855 115
L 855 115
L 856 115
L 856 114
L 856 114
L 856 114
L 856 114
L 856 114
L 856 114
L 856 114
L 856 114
L 856 114
L 856 114
L 856 114
L 856 114
L 856 114
L 856 114
L 857 114
L 857 114
L 857 114
L 857 114
L 857 114
L 857 114
L 857 114
L 857 114
L 857 114
L 857 114
L 857 114
L 857 114
L 857 113
L 858 113
L 858 113
L 858 113
L 858 113
L 858 113
L 858 113
L 858 113
L 859 113
L 859 113
L 859 113
L 859 113
L 859 113
L 859 113
L 859 113
L 859 113
L 859 113
L 859 113
L 859 113
L 859 113
L 859 113
L 859 113
L 859 113
L 860 113
L 860 113
L 860 113
L 860 113
L 860 112
L 860 112
L 860 112
L 860 112
L 860 112
L 860 112
L 860 112
L 860 112
L 860 112
L 860 112
L 860 112
L 860 112
L 860 112
L 860 112
L 860 112
L 860 112
L 860 112
L 860 112
L 860 112
L 861 112
L 861 112
L 861 112
L 861 112
L 861 112
L 861 112
L 861 112
L 861 111
L 861 111
L 862 111
L 862 111
L 862 111
L 862 111
L 862 111
L 862 111
L 862 111
L 862 111
L 862 111
L 862 111
L 863 111
L 863 111
L 863 111
L 863 111
L 863 111
L 863 111
L 863 111
L 863 111
L 863 111
L 864 111
L 864 111
L 864 111
L 864 111
L 864 111
L 864 110
L 864 110
L 864 110
L 864 110
L 864 110
L 864 110
L 865 110
L 865 110
L 865 110
L 865 110
L 865 110
L 865 110
L 865 110
L 866 110
L 866 110
L 866 110
L 866 110
L 866 110
L 866 110
L 866 110
L 866 110
L 866 110
L 866 110
L 866 110
L 866 110
L 866 110
L 866 110
L 866 109
L 867 109
L 867 109
L 867 109
L 867 109
L 867 109
L 867 109
L 867 109
L 867 109
L 867 109
L 867 109
L 867 109
L 867 109
L 867 109
L 867 109
L 867 109
L 867 109
L 867 109
L 868 109
L 868 109
L 868 109
L 868 109
L 868 109
L 868 109
L 868 109
L 868 109
L 869 108
L 869 108
L 869 108
L 869 108
L 869 108
L 869 108
L 870 108
L 870 108
L 870 108
L 870 108
L 870 108
L 870 108
L 870 108
L 870 108
L 870 108
L 870 108
L 870 108
L 870 108
L 870 108
L 870 108
L 871 108
L 871 108
L 871 108
L 871 108
L 871 108
L 871 108
L 871 108
L 871 107
L 871 107
L 871 107
L 871 107
L 871 107
L 871 107
L 872 107
L 872 107
L 872 107
L 872 107
L 872 107
L 872 107
L 872 107
L 872 107
L 872 107
L 872 107
L 872 107
L 872 107
L 872 107
L 872 107
L 872 107
L 872 107
L 872 107
L 872 107
L 872 107
L 872 107
L 872 106
L 872 106
L 872 106
L 872 106
L 872 106
L 872 106
L 872 106
L 872 106
L 872 106
L 872 106
L 872 106
L 872 106
L 872 106
L 872 106
L 872 106
L 872 106
L 872 106
L 872 106
L 872 106
L 872 106
L 872 106
L 872 106
L 872 106
L 872 106
L 872 106
L 872 106
L 872 106
L 872 105
L 873 105
L 873 105
L 873 105
L 873 105
L 873 105
L 873 105
L 873 105
L 873 105
L 873 105
L 873 105
L 873 105
L 873 105
L 873 105
L 873 105
L 873 105
L 873 105
L 873 105
L 873 105
L 873 105
L 873 105
L 873 105
L 873 105
L 873 105
L 873 105
L 873 105
L 873 104
L 873 104
L 873 104
L 873 104
L 873 104
L 873 104
L 873 104
L 874 104
L 874 104
L 874 104
L 874 104
L 874 104
L 874 104
L 874 104
L 874 104
L 874 104
L 874 104
L 874 104
L 874 104
L 874 104
L 874 104
L 874 104
L 874 104
L 874 104
L 874 104
L 874 104
L 874 104
L 874 103
L 874 103
L 874 103
L 874 103
L 874 103
L 874 103
L 874 103
L 875 103
L 875 103
L 875 103
L 875 103
L 875 103
L 875 103
L 875 103
L 875 103
L 875 103
L 875 103
L 875 103
L 875 103
L 875 103
L 875 103
L 875 103
L 875 103
L 875 103
L 876 103
L 876 103
L 876 102
L 876 102
L 876 102
L 876 102
L 876 102
L 876 102
L 876 102
L 876 102
L 876 102
L 876 102
L 876 102
L 876 102
L 876 102
L 876 102
L 876 102
L 876 102
L 876 102
L 876 102
L 876 102
L 876 102
L 876 102
L 876 102
L 876 102
L 876 102
L 876 102
L 876 102
L 876 102
L 876 101
L 876 101
L 876 101
L 877 101
L 877 101
L 877 101
L 877 101
L 877 101
L 877 101
L 877 101
L 877 101
L 877 101
L 877 101
L 877 101
L 877 101
L 877 101
L 877 101
L 877 101
L 877 101
L 877 101
L 877 101
L 877 101
L 877 101
L 877 101
L 877 101
L 877 101
L 877 100
L 877 100
L 877 100
L 877 100
L 877 100
L 877 100
L 877 100
L 877 100
L 877 100
L 877 100
L 877 100
L 877 100
L 877 100
L 877 100
L 877 100
L 877 100
L 877 100
L 877 100
L 877 100
L 877 100
L 877 100
L 877 100
L 877 100
L 877 100
L 877 100
L 877 100
L 877 100
L 877 99
L 877 99
L 877 99
L 877 99
L 877 99
L 877 99
L 877 99
L 877 99
L 877 99
L 877 99
L 877 99
L 877 99
L 877 99
L 877 99
L 878 99
L 878 99
L 878 99
L 878 99
L 878 99
L 878 99
L 878 99
L 878 99
L 878 99
L 878 99
L 878 99
L 878 99
L 878 98
L 878 98
L 878 98
L 878 98
L 878 98
L 878 98
L 878 98
L 878 98
L 878 98
L 878 98
L 878 98
L 878 98
L 878 98
L 878 98
L 878 98
L 878 98
L 878 98
L 878 98
L 878 98
L 878 98
L 878 98
L 878 98
L 878 98
L 878 98
L 878 98
L 878 98
L 878 98
L 878 97
L 878 97
L 878 97
L 878 97
L 878 97
L 878 97
L 878 97
L 878 97
L 878 97
L 878 97
L 878 97
L 878 97
L 878 97
L 878 97
L 878 97
L 878 97
L 878 97
L 878 97
L 878 97
L 878 97
L 878 97
L 879 97
L 879 97
L 879 97
L 879 97
L 879 97
L 879 96
L 879 96
L 879 96
L 879 96
L 879 96
L 879 96
L 879 96
L 879 96
L 879 96
L 879 96
L 879 96
L 879 96
L 879 96
L 879 96
L 879 96
L 879 96
L 879 96
L 879 96
L 879 96
L 879 96
L 879 96
L 879 96
L 879 96
L 879 96
L 879 96
L 879 96
L 879 96
L 879 95
L 879 95
L 879 95
L 879 95
L 879 95
L 879 95
L 879 95
L 879 95
L 879 95
L 879 95
L 879 95
L 879 95
L 879 95
L 879 95
L 879 95
L 879 95
L 879 95
L 879 95
L 879 95
L 879 95
L 879 95
L 879 95
L 879 95
L 879 95
L 879 95
L 879 95
L 879 94
L 880 94
L 880 94
L 880 94
L 880 94
L 880 94
L 880 94
L 880 94
L 880 94
L 880 94
L 880 94
L 880 94
L 880 94
L 880 94
L 880 94
L 880 94
L 880 94
L 880 94
L 880 94
L 880 94
L 880 94
L 880 94
L 881 94
L 881 94
L 881 94
L 881 94
L 881 93
L 881 93
L 881 93
L 881 93
L 881 93
L 881 93
L 881 93
L 881 93
L 881 93
L 881 93
L 881 93
L 881 93
L 881 93
L 881 93
L 881 93
L 881 93
L 881 93
L 881 93
L 881 93
L 881 93
L 881 93
L 881 93
L 881 93
L 881 93
L 881 93
L 881 93
L 882 93
L 882 92
L 882 92
L 882 92
L 882 92
L 882 92
L 882 92
L 882 92
L 882 92
L 882 92
L 882 92
L 882 92
L 882 92
L 882 92
L 882 92
L 882 92
L 882 92
L 882 92
L 882 92
L 882 92
L 882 92
L 882 92
L 882 92
L 882 92
L 882 92
L 882 92
L 882 92
L 882 91
L 882 91
L 882 91
L 883 91
L 883 91
L 883 91
L 883 91
L 883 91
L 883 91
L 883 91
L 883 91
L 883 91
L 883 91
L 883 91
L 883 91
L 883 91
L 883 91
L 883 91
L 883 91
L 884 91
L 884 91
L 884 91
L 884 91
L 884 91
L 884 91
L 884 91
L 884 91
L 884 90
L 884 90
L 884 90
L 885 90
L 885 90
L 885 90
L 885 90
L 885 90
L 885 90
L 885 90
L 885 90
L 885 90
L 885 90
L 885 90
L 885 90
L 885 90
L 885 90
L 885 90
L 885 90
L 885 90
L 886 90
L 886 90
L 886 90
L 886 90
L 886 90
L 886 90
L 886 89
L 887 89
L 887 89
L 887 89
L 887 89
L 887 89
L 887 89
L 887 89
L 887 89
L 887 89
L 887 89
L 887 89
L 887 89
L 887 89
L 887 89
L 887 89
L 887 89
L 887 89
L 887 89
L 887 89
L 887 89
L 887 89
L 887 89
L 887 89
L 887 89
L 887 89
L 887 89
L 887 88
L 887 88
L 887 88
L 887 88
L 888 88
L 888 88
L 888 88
L 888 88
L 888 88
L 888 88
L 888 88
L 888 88
L 888 88
L 888 88
L 888 88
L 888 88
L 888 88
L 888 88
L 888 88
L 888 88
L 888 88
L 888 88
L 888 88
L 888 88
L 888 88
L 888 88
L 888 87
L 888 87
L 888 87
L 888 87
L 889 87
L 889 87
L 889 87
L 889 87
L 889 87
L 889 87
L 889 87
L 889 87
L 889 87
L 889 87
L 889 87
L 889 87
L 889 87
L 889 87
L 889 87
L 889 87
L 889 87
L 889 87
L 889 87
L 889 87
L 889 87
L 889 87
L 889 87
L 889 86
L 889 86
L 889 86
L 889 86
L 889 86
L 889 86
L 889 86
L 889 86
L 890 86
L 890 86
L 890 86
L 890 86
L 890 86
L 890 86
L 890 86
L 890 86
L 890 86
L 890 86
L 890 86
L 890 86
L 890 86
L 890 86
L 890 86
L 890 86
L 890 86
L 890 86
L 891 85
L 891 85
L 891 85
L 891 85
L 891 85
L 891 85
L 891 85
L 891 85
L 891 85
L 891 85
L 891 85
L 891 85
L 891 85
L 891 85
L 891 85
L 891 85
L 891 85
L 891 85
L 891 85
L 891 85
L 891 85
L 891 85
L 891 85
L 891 85
L 891 85
L 891 85
L 891 85
L 891 84
L 892 84
L 892 84
L 892 84
L 892 84
L 892 84
L 892 84
L 892 84
L 892 84
L 892 84
L 892 84
L 892 84
L 893 84
L 893 84
L 893 84
L 893 84
L 893 84
L 893 84
L 893 84
L 893 84
L 893 84
L 894 84
L 894 84
L 894 84
L 894 84
L 894 84
L 894 83
L 894 83
L 894 83
L 894 83
L 894 83
L 894 83
L 894 83
L 894 83
L 894 83
L 894 83
L 894 83
L 894 83
L 894 83
L 894 83
L 895 83
L 895 83
L 895 83
L 895 83
L 895 83
L 895 83
L 895 83
L 895 83
L 895 83
L 895 83
L 895 83
L 895 83
L 895 83
L 895 82
L 895 82
L 895 82
L 895 82
L 895 82
L 895 82
L 895 82
L 895 82
L 895 82
L 895 82
L 895 82
L 895 82
L 895 82
L 895 82
L 895 82
L 895 82
L 895 82
L 895 82
L 895 82
L 895 82
L 895 82
L 895 82
L 895 82
L 896 82
L 896 82
L 896 82
L 896 81
L 896 81
L 896 81
L 896 81
L 896 81
L 896 81
L 896 81
L 896 81
L 896 81
L 896 81
L 896 81
L 896 81
L 896 81
L 896 81
L 897 81
L 897 81
L 897 81
L 897 81
L 897 81
L 897 81
L 897 81
L 897 81
L 897 81
L 897 81
L 897 81
L 897 81
L 897 81
L 898 80
L 898 80
L 898 80
L 898 80
L 898 80
L 898 80
L 898 80
L 898 80
L 898 80
L 898 80
L 898 80
L 898 80
L 898 80
L 899 80
L 899 80
L 899 80
L 899 80
L 899 80
L 899 80
L 899 80
L 899 80
L 899 80
L 899 80
L 899 80
L 899 80
L 899 80
L 899 79
L 899 79
L 899 79
L 899 79
L 900 79
L 900 79
L 900 79
L 900 79
L 900 79
L 900 79
L 900 79
L 900 79
L 900 79
L 900 79
L 900 79
L 900 79
L 900 79
L 901 79
L 901 79
L 901 79
L 901 79
L 901 79
L 901 79
L 901 79
L 902 79
L 902 79
L 902 79
L 902 78
L 902 78
L 902 78
L 902 78
L 903 78
L 903 78
L 903 78
L 903 78
L 903 78
L 903 78
L 903 78
L 903 78
L 903 78
L 903 78
L 903 78
L 903 78
L 903 78
L 903 78
L 904 78
L 905 78
L 905 78
L 905 78
L 905 78
L 905 78
L 905 78
L 905 78
L 905 77
L 905 77
L 906 77
L 906 77
L 906 77
L 906 77
L 906 77
L 906 77
L 906 77
L 906 77
L 906 77
L 906 77
L 906 77
L 907 77
L 907 77
L 907 77
L 907 77
L 907 77
L 908 77
L 908 77
L 908 77
L 908 77
L 908 77
L 908 77
L 908 77
L 908 77
L 909 76
L 909 76
L 909 76
L 909 76
L 909 76
L 909 76
L 909 76
L 909 76
L 909 76
L 909 76
L 909 76
L 909 76
L 910 76
L 910 76
L 910 76
L 910 76
L 910 76
L 910 76
L 910 76
L 910 76
L 910 76
L 910 76
L 910 76
L 910 76
L 910 76
L 910 76
L 910 76
L 910 75
L 910 75
L 910 75
L 910 75
L 910 75
L 910 75
L 910 75
L 911 75
L 911 75
L 911 75
L 911 75
L 911 75
L 911 75
L 911 75
L 911 75
L 911 75
L 911 75
L 911 75
L 911 75
L 911 75
L 911 75
L 911 75
L 911 75
L 911 75
L 911 75
L 911 75
L 911 74
L 911 74
L 911 74
L 911 74
L 911 74
L 911 74
L 911 74
L 911 74
L 911 74
L 911 74
L 911 74
L 912 74
L 912 74
L 912 74
L 912 74
L 912 74
L 912 74
L 912 74
L 912 74
L 912 74
L 912 74
L 912 74
L 912 74
L 912 74
L 913 74
L 913 74
L 913 74
L 913 73
L 914 73
L 914 73
L 914 73
L 914 73
L 914 73
L 914 73
L 914 73
L 914 73
L 914 73
L 914 73
L 915 73
L 915 73
L 915 73
L 915 73
L 915 73
L 915 73
L 915 73
L 915 73
L 915 73
L 915 73
L 915 73
L 916 73
L 916 73
L 916 73
L 916 73
L 916 72
L 916 72
L 916 72
L 917 72
L 917 72
L 917 72
L 917 72
L 917 72
L 917 72
L 917 72
L 917 72
L 917 72
L 917 72
L 917 72
L 918 72
L 918 72
L 918 72
L 918 72
L 918 72
L 918 72
L 918 72
L 918 72
L 919 72
L 919 72
L 919 72
L 919 72
L 919 72
L 920 71
L 920 71
L 920 71
L 920 71
L 920 71
L 920 71
L 920 71
L 920 71
L 920 71
L 920 71
L 920 71
L 920 71
L 921 71
L 921 71
L 921 71
L 921 71
L 921 71
L 921 71
L 921 71
L 921 71
L 921 71
L 921 71
L 921 71
L 921 71
L 921 71
L 921 71
L 921 70
L 921 70
L 921 70
L 921 70
L 921 70
L 921 70
L 921 70
L 921 70
L 921 70
L 921 70
L 921 70
L 921 70
L 921 70
L 921 70
L 922 70
L 922 70
L 922 70
L 922 70
L 922 70
L 922 70
L 922 70
L 922 70
L 922 70
L 922 70
L 922 70
L 922 70
L 922 70
L 922 69
L 922 69
L 923 69
L 923 69
L 923 69
L 923 69
L 923 69
L 923 69
L 923 69
L 923 69
L 923 69
L 923 69
L 923 69
L 923 69
L 924 69
L 924 69
L 924 69
L 924 69
L 924 69
L 924 69
L 924 69
L 924 69
L 924 69
L 924 69
L 925 69
L 925 69
L 925 68
L 925 68
L 925 68
L 925 68
L 925 68
L 925 68
L 925 68
L 925 68
L 925 68
L 925 68
L 925 68
L 925 68
L 925 68
L 926 68
L 926 68
L 926 68
L 926 68
L 926 68
L 926 68
L 926 68
L 926 68
L 926 68
L 926 68
L 926 68
L 926 68
L 926 68
L 927 68
L 927 67
L 927 67
L 927 67
L 927 67
L 927 67
L 927 67
L 927 67
L 927 67
L 927 67
L 927 67
L 928 67
L 928 67
L 928 67
L 928 67
L 928 67
L 928 67
L 928 67
L 928 67
L 928 67
L 928 67
L 928 67
L 928 67
L 928 67
L 928 67
L 928 67
L 928 67
L 928 66
L 928 66
L 929 66
L 929 66
L 929 66
L 929 66
L 929 66
L 930 66
L 930 66
L 930 66
L 930 66
L 930 66
L 930 66
L 930 66
L 931 66
L 931 66
L 931 66
L 931 66
L 931 66
L 931 66
L 931 66
L 931 66
L 931 66
L 932 66
L 932 66
L 932 66
L 932 66
L 932 65
L 932 65
L 932 65
L 932 65
L 932 65
L 933 65
L 933 65
L 933 65
L 933 65
L 933 65
L 933 65
L 933 65
L 933 65
L 934 65
L 934 65
L 934 65
L 934 65
L 934 65
L 934 65
L 935 65
L 935 65
L 935 65
L 935 65
L 935 65
L 936 65
L 936 65
L 936 64
L 936 64
L 936 64
L 936 64
L 936 64
L 937 64
L 937 64
L 937 64
L 937 64
L 937 64
L 937 64
L 937 64
L 937 64
L 937 64
L 937 64
L 937 64
L 938 64
L 938 64
L 938 64
L 938 64
L 938 64
L 938 64
L 938 64
L 938 64
L 938 64
L 938 64
L 938 64
L 938 63
L 938 63
L 938 63
L 938 63
L 938 63
L 939 63
L 939 63
L 939 63
L 939 63
L 939 63
L 939 63
L 939 63
L 939 63
L 939 63
L 939 63
L 939 63
L 939 63
L 939 63
L 939 63
L 939 63
L 939 63
L 939 63
L 939 63
L 939 63
L 940 63
L 940 63
L 940 62
L 940 62
L 940 62
L 940 62
L 940 62
L 940 62
L 940 62
L 940 62
L 941 62
L 941 62
L 941 62
L 941 62
L 942 62
L 942 62
L 942 62
L 942 62
L 942 62
L 942 62
L 942 62
L 942 62
L 942 62
L 942 62
L 942 62
L 942 62
L 942 62
L 942 62
L 942 62
L 942 61
L 943 61
L 943 61
L 943 61
L 943 61
L 943 61
L 943 61
L 943 61
L 943 61
L 943 61
L 943 61
L 943 61
L 944 61
L 944 61
L 944 61
L 944 61
L 945 61
L 945 61
L 945 61
L 945 61
L 946 61
L 946 61
L 946 61
L 947 61
L 947 61
L 947 61
L 947 60
L 947 60
L 947 60
L 947 60
L 947 60
L 947 60
L 947 60
L 947 60
L 947 60
L 948 60
L 948 60
L 948 60
L 948 60
L 948 60
L 948 60
L 948 60
L 948 60
L 949 60
L 949 60
L 949 60
L 949 60
L 949 60
L 949 60
L 949 60
L 949 60
L 949 60
L 949 59
L 949 59
L 949 59
L 949 59
L 949 59
L 949 59
L 949 59
L 949 59
L 949 59
L 949 59
L 949 59
L 949 59
L 949 59
L 950 59
L 950 59
L 950 59
L 950 59
L 950 59
L 950 59
L 950 59
L 950 59
L 950 59
L 950 59
L 950 59
L 950 59
L 950 59
L 950 59
L 950 58
L 950 58
L 950 58
L 950 58
L 950 58
L 950 58
L 950 58
L 950 58
L 950 58
L 951 58
L 951 58
L 951 58
L 951 58
L 951 58
L 951 58
L 951 58
L 951 58
L 951 58
L 951 58
L 951 58
L 951 58
L 951 58
L 951 58
L 951 58
L 951 58
L 951 58
L 951 57
L 951 57
L 951 57
L 951 57
L 951 57
L 951 57
L 952 57
L 952 57
L 952 57
L 952 57
L 952 57
L 952 57
L 952 57
L 952 57
L 952 57
L 952 57
L 952 57
L 952 57
L 952 57
L 952 57
L 952 57
L 952 57
L 952 57
L 952 57
L 952 57
L 952 57
L 952 57
L 952 56
L 952 56
L 952 56
L 952 56
L 952 56
L 953 56
L 953 56
L 953 56
L 953 56
L 953 56
L 953 56
L 953 56
L 953 56
L 953 56
L 953 56
L 953 56
L 953 56
L 953 56
L 953 56
L 953 56
L 953 56
L 953 56
L 953 56
L 953 56
L 953 56
L 953 56
L 953 55
L 953 55
L 953 55
L 953 55
L 953 55
L 953 55
L 953 55
L 953 55
L 953 55
L 953 55
L 953 55
L 953 55
L 953 55
L 953 55
L 953 55
L 953 55
L 953 55
L 953 55
L 953 55
L 953 55
L 953 55
L 953 55
L 953 55
L 953 55
L 953 55
L 953 55
L 953 55
L 953 54
L 953 54
L 953 54
L 953 54
L 953 54
L 953 54
L 953 54
L 953 54
L 953 54
L 953 54
L 953 54
L 953 54
L 953 54
L 953 54
L 953 54
L 953 54
L 953 54
L 953 54
L 953 54
L 953 54
L 953 54
L 953 54
L 953 54
L 953 54
L 953 54
L 953 54
L 953 53
L 953 53
L 953 53
L 953 53
L 953 53
L 953 53
L 953 53
L 953 53
L 953 53
L 953 53
L 953 53
L 953 53
L 953 53
L 953 53
L 953 53
L 953 53
L 953 53
L 953 53
L 953 53
L 953 53
L 953 53
L 953 53
L 953 53
L 953 53
L 953 53
L 953 53
L 953 53
L 953 52
L 953 52
L 953 52
L 953 52
L 953 52
L 953 52
L 953 52
L 953 52
L 953 52
L 953 52
L 953 52
L 953 52
L 953 52
L 953 52
L 953 52
L 953 52
L 953 52
L 953 52
L 953 52
L 953 52
L 953 52
L 953 52
L 953 52
L 953 52
L 953 52
L 953 52
L 953 51
L 953 51
L 953 51
L 953 51
L 953 51
L 953 51
L 953 51
L 953 51
L 953 51
L 953 51
L 953 51
L 953 51
L 953 51
L 953 51
L 953 51
L 953 51
L 953 51
L 953 51
L 953 51
L 953 51
L 953 51
L 953 51
L 953 51
L 953 51
L 953 51
L 953 51
L 953 51
L 953 50
L 953 50
L 953 50
L 953 50
L 953 50
L 953 50
L 953 50
L 953 50
L 953 50
L 953 50
L 953 50
L 953 50
L 953 50
L 953 50
L 953 50
L 953 50
L 953 50
L 953 50
L 953 50
L 953 50
L 953 50
L 953 50
L 953 50
L 953 50
L 953 50
L 953 50
L 953 49
L 953 49
L 953 49
L 953 49
L 953 49
L 953 49
L 953 49
L 953 49
L 953 49
L 953 49
L 953 49
L 953 49
L 953 49
L 953 49
L 953 49
L 953 49
L 953 49
L 953 49
L 953 49
L 953 49
L 953 49
L 953 49
L 953 49
L 953 49
L 953 49
L 953 49
L 953 49
L 953 48
L 953 48
L 953 48
L 953 48
L 953 48
L 953 48
L 953 48
L 953 48
L 953 48
L 953 48
L 953 48
L 953 48
L 953 48
L 953 48
L 953 48
L 953 48
L 953 48
L 953 48
L 953 48
L 953 48
L 953 48
L 953 48
L 953 48
L 953 48
L 953 48
L 953 48
L 953 47
L 953 47
L 953 47
L 953 47
L 953 47
L 953 47
L 953 47
L 953 47
L 954 47
L 954 47
L 954 47
L 954 47
L 954 47
L 954 47
L 954 47
L 954 47
L 954 47
L 954 47
L 954 47
L 954 47
L 954 47
L 954 47
L 954 47
L 954 47
L 954 47
L 954 47
L 954 47
L 954 46
L 954 46
L 954 46
L 954 46
L 954 46
L 954 46
L 954 46
L 954 46
L 954 46
L 954 46
L 954 46
L 954 46
L 954 46
L 954 46
L 954 46
L 954 46
L 954 46
L 954 46
L 954 46
L 954 46
L 954 46
L 954 46
L 954 46
L 954 46
L 954 46
L 954 46
L 954 45
L 954 45
L 954 45
L 954 45
L 954 45
L 954 45
L 954 45
L 954 45
L 954 45
L 954 45
L 954 45
L 954 45
L 954 45
L 954 45
L 954 45
L 954 45
L 954 45
L 954 45
L 954 45
L 954 45
L 954 45
L 954 45
L 954 45
L 954 45
L 954 45
L 954 45
L 954 45
L 954 44
L 954 44
L 954 44
L 954 44
L 954 44
L 954 44
L 954 44
L 954 44
L 954 44
L 954 44
L 954 44
L 954 44
L 954 44
L 954 44
L 954 44
L 954 44
L 954 44
L 954 44
L 954 44
L 954 44
L 954 44
L 954 44
L 954 44
L 954 44
L 954 44
L 954 44
L 954 43
L 954 43
L 954 43
L 954 43
L 954 43
L 954 43
L 954 43
L 954 43
L 954 43
L 954 43
L 954 43
L 954 43
L 954 43
L 954 43
L 954 43
L 954 43
L 954 43
L 954 43
L 954 43
L 954 43
L 954 43
L 954 43
L 955 43
L 955 43
L 955 43
L 955 43
L 955 42
L 955 42
L 955 42
L 955 42
L 955 42
L 955 42
L 955 42
L 955 42
L 955 42
L 955 42
L 955 42
L 955 42
L 955 42
L 955 42
L 955 42
L 955 42
L 955 42
L 955 42
L 955 42
L 955 42
L 955 42
L 955 42
L 955 42
L 955 42
L 955 42
L 955 42
L 955 42
L 955 41
L 955 41
L 955 41
L 955 41
L 955 41
L 955 41
L 955 41
L 955 41
L 955 41
L 955 41
L 955 41
L 955 41
L 955 41
L 955 41
L 955 41
L 955 41
L 955 41
L 955 41
L 955 41
L 955 41
L 955 41
L 955 41
L 955 41
L 955 41
L 955 41
L 955 41
L 955 40
L 955 40
L 955 40
L 955 40
L 955 40
L 955 40
L 955 40
L 955 40
L 955 40
L 955 40
L 955 40
L 955 40
L 955 40
L 955 40
L 955 40
L 955 40
L 955 40
L 955 40
L 955 40
L 955 40
L 955 40
L 955 40
L 955 40
L 955 40
L 955 40
L 955 40
L 955 40
L 955 39
L 955 39
L 955 39
L 955 39
L 955 39
L 955 39
L 955 39
L 955 39
L 955 39
L 955 39
L 955 39
L 955 39
L 955 39
L 955 39
L 955 39
L 955 39
L 955 39
L 955 39
L 955 39
L 955 39
L 955 39
L 955 39
L 955 39
L 955 39
L 955 39
L 955 39
L 955 38
L 955 38
L 955 38
L 955 38
L 955 38
L 955 38
L 955 38
L 955 38
L 955 38
L 955 38
L 955 38
L 955 38
L 955 38
L 955 38
L 955 38
L 955 38
L 955 38
L 955 38
L 955 38
L 955 38
L 955 38
L 955 38
L 955 38
L 955 38
L 955 38
L 955 38
L 955 38
L 955 37
L 955 37
L 955 37
L 955 37
L 955 37
L 955 37
L 955 37
L 955 37
L 955 37
L 955 37
L 955 37
L 955 37
L 955 37
L 955 37
L 955 37
L 955 37
L 955 37
L 955 37
L 955 37
L 955 37
L 955 37
L 955 37
L 955 37
L 955 37
L 955 37
L 955 37
L 955 36
L 955 36
L 955 36
L 955 36
L 955 36
L 955 36
L 955 36
L 955 36
L 955 36
L 955 36
L 955 36
L 955 36
L 955 36
L 955 36
L 955 36
L 955 36
L 955 36
L 955 36
L 955 36
L 955 36
L 955 36
L 955 36
L 955 36
L 955 36
L 955 36
L 955 36
L 955 36
L 955 35
L 955 35
L 955 35
L 955 35
L 955 35
L 955 35
L 955 35
L 955 35
L 955 35
L 955 35
L 955 35
L 955 35
L 955 35
L 955 35
L 955 35
L 955 35
L 955 35
L 955 35
L 955 35
L 955 35
L 955 35
L 955 35
L 955 35
L 955 35
L 955 35
L 955 35
L 955 34
L 955 34
L 955 34
L 955 34
L 955 34
L 955 34
L 955 34
L 955 34
L 955 34
L 955 34
L 955 34
L 955 34
L 955 34
L 955 34
L 955 34
L 955 34
L 955 34
L 955 34
L 955 34
L 955 34
L 955 34
L 955 34
L 955 34
L 955 34
L 955 34
L 955 34
L 955 34
L 955 33
L 955 33
L 955 33
L 955 33
L 955 33
L 955 33
L 955 33
L 955 33
L 955 33
L 955 33
L 955 33
L 955 33
L 955 33
L 955 33
L 955 33
L 955 33
L 955 33
L 955 33
L 955 33
L 955 33
L 955 33
L 955 33
L 955 33
L 955 33
L 955 33
L 955 33
L 955 32
L 955 32
L 955 32
L 955 32
L 955 32
L 955 32
L 955 32
L 955 32
L 955 32
L 955 32
L 955 32
L 955 32
L 955 32
L 955 32
L 955 32
L 955 32
L 955 32
L 955 32
L 955 32
L 955 32
L 955 32
L 955 32
L 955 32
L 955 32
L 955 32
L 955 32
L 955 32
L 955 31
L 955 31
L 955 31
L 955 31
L 956 31
L 956 31
L 956 31
L 956 31
L 956 31
L 956 31
L 956 31
L 956 31
L 956 31
L 956 31
L 956 31
L 956 31
L 956 31
L 956 31
L 956 31
L 956 31
L 956 31
L 956 31
L 956 31
L 956 31
L 956 31
L 956 31
L 956 30
L 956 30
L 956 30
L 956 30
L 956 30
L 956 30
L 956 30
L 956 30
L 956 30
L 956 30
L 956 30
L 956 30
L 956 30
L 956 30
L 956 30
L 956 30
L 956 30
L 956 30
L 956 30
L 956 30
L 956 30
L 956 30
L 956 30
L 956 30
L 956 30
L 956 30
L 956 30
L 956 29
L 956 29
L 956 29
L 956 29
L 956 29
L 956 29
L 956 29
L 956 29
L 956 29
L 956 29
L 956 29
L 956 29
L 956 29
L 956 29
L 956 29
L 956 29
L 956 29
L 956 29
L 956 29
L 956 29
L 956 29
L 956 29
L 956 29
L 956 29
L 956 29
L 956 29
L 956 28
L 956 28
L 956 28
L 956 28
L 956 28
L 956 28
L 956 28
L 956 28
L 956 28
L 956 28
L 956 28
L 956 28
L 956 28
L 956 28
L 956 28
L 956 28
L 956 28
L 956 28
L 956 28
L 956 28
L 956 28
L 956 28
L 956 28
L 956 28
L 956 28
L 956 28
L 956 28
L 956 27
L 956 27
L 956 27
L 956 27
L 956 27
L 956 27
L 956 27
L 956 27
L 956 27
L 956 27
L 956 27
L 956 27
L 956 27
L 956 27
L 956 27
L 956 27
L 956 27
L 956 27
L 956 27
L 956 27
L 956 27
L 956 27
L 956 27
L 956 27
L 956 27
L 956 27
L 956 26
L 956 26
L 956 26
L 956 26
L 956 26
L 956 26
L 956 26
L 956 26
L 956 26
L 956 26
L 956 26
L 956 26
L 956 26
L 956 26
L 956 26
L 956 26
L 956 26
L 956 26
L 956 26
L 956 26
L 956 26
L 956 26
L 956 26
L 956 26
L 956 26
L 956 26
L 956 25
L 956 25
L 956 25
L 956 25
L 956 25
L 956 25
L 956 25
L 956 25
L 956 25
L 956 25
L 956 25
L 956 25
L 956 25
L 956 25
L 956 25
L 956 25
L 956 25
L 956 25
L 956 25
L 956 25
L 956 25
L 956 25
L 956 25
L 956 25
L 956 25
L 956 25
L 956 25
L 956 24
L 956 24
L 956 24
L 956 24
L 956 24
L 956 24
L 956 24
L 956 24
L 956 24
L 956 24
L 956 24
L 956 24
L 956 24
L 956 24
L 956 24
L 956 24
L 956 24
L 956 24
L 956 24
L 956 24
L 956 24
L 956 24
L 956 24
L 956 24
L 956 24
L 956 24
L 956 23
L 956 23
L 956 23
L 956 23
L 956 23
L 956 23
L 956 23
L 956 23
L 956 23
L 956 23
L 956 23
L 956 23
L 956 23
L 956 23
L 956 23
L 956 23
L 956 23
L 956 23
L 956 23
L 956 23
L 956 23
L 956 23
L 956 23
L 956 23
L 956 23
L 956 23
L 956 23
L 956 22
L 956 22
L 956 22
L 956 22
L 956 22
L 956 22
L 956 22
L 956 22
L 956 22
L 956 22
L 956 22
L 956 22
L 956 22
L 956 22
L 956 22
L 956 22
L 956 22
L 956 22
L 956 22
L 957 22
L 957 22
L 957 22
L 957 22
L 957 22
L 957 22
L 957 22
L 957 21
L 957 21
L 957 21
L 957 21
L 957 21
L 957 21
L 957 21
L 957 21
L 957 21
L 957 21
L 957 21
L 957 21
L 957 21
L 957 21
L 957 21
L 957 21
L 957 21
L 957 21
L 957 21
L 957 21
L 957 21
L 957 21
L 957 21
L 957 21
L 957 21
L 957 21
L 957 21
L 957 20
L 957 20
L 957 20
L 957 20
L 957 20
L 957 20
L 957 20
L 957 20
L 957 20
L 957 20
L 957 20
L 957 20
L 957 20
L 957 20
L 957 20
L 957 20
L 957 20
L 957 20
L 957 20
L 957 20
L 957 20
L 957 20
L 957 20
L 957 20
L 957 20
L 957 20
L 957 19
L 957 19
L 957 19
L 957 19
L 957 19
L 957 19
L 957 19
L 957 19
L 957 19
L 957 19
L 957 19
L 957 19
L 957 19
L 957 19
L 957 19
L 957 19
L 957 19
L 957 19
L 957 19
L 957 19
L 957 19
L 957 19
L 957 19
L 957 19
L 957 19
L 957 19
L 957 19
L 957 18
L 957 18
L 957 18
L 957 18
L 957 18
L 957 18
L 957 18
L 957 18
L 957 18
L 957 18
L 957 18
L 957 18
L 957 18
L 957 18
L 957 18
L 957 18
L 957 18
L 957 18
L 957 18
L 957 18
L 957 18
L 957 18
L 957 18
L 957 18
L 957 18
L 957 18
L 957 17
L 957 17
L 957 17
L 957 17
L 957 17
L 957 17
L 957 17
L 957 17
L 957 17
L 957 17
L 957 17
L 957 17
L 957 17
L 957 17
L 957 17
L 957 17
L 957 17
L 957 17
L 957 17
L 957 17
L 957 17
L 957 17
L 957 17
L 957 17
L 957 17
L 957 17
L 957 17
L 957 16
L 957 16
L 957 16
L 957 16
L 957 16
L 957 16
L 957 16
L 957 16
L 957 16
L 957 16
L 957 16
L 957 16
L 957 16
L 957 16
L 957 16
L 957 16
L 957 16
L 957 16
L 957 16
L 957 16
L 957 16
L 957 16
L 957 16
L 957 16
L 957 16
L 957 16
L 957 15
L 957 15
L 957 15
L 957 15
L 957 15
L 957 15
L 957 15
L 957 15
L 957 15
L 957 15
L 957 15
L 957 15
L 957 15
L 957 15
L 957 15
L 957 15
L 957 15
L 957 15
L 957 15
L 957 15
L 957 15
L 957 15
L 957 15
L 957 15
L 957 15
L 957 15
L 957 15
L 957 14
L 957 14
L 957 14
L 957 14
L 957 14
L 957 14
L 957 14
L 957 14
L 957 14
L 957 14
L 957 14
L 957 14
L 957 14
L 957 14
L 957 14
L 957 14
L 957 14
L 957 14
L 957 14
L 957 14
L 957 14
L 957 14
L 957 14
L 957 14
L 957 14
L 957 14
L 957 13
L 957 13
L 957 13
L 957 13
L 957 13
L 957 13
L 957 13
L 957 13
L 957 13
L 957 13
L 957 13
L 957 13
L 957 13
L 957 13
L 957 13
L 957 13" style="stroke-width:2;stroke:rgba(129,199,239,1.0);fill:none"/></svg>