<!-- stars: 8129 -->
<svg xmlns="http://www.w3.org/2000/svg" xmlns:xlink="http://www.w3.org/1999/xlink" width="1024" height="400">\n<path  d="M 0 0
L 1024 0
L 1024 400
L 0 400
L 0 0" style="stroke-width:0;stroke:rgba(255,255,255,1.0);fill:rgba(255,255,255,1.0)"/><path  d="M 38 11
L 957 11
L 957 351
L 38 351
L 38 11" style="stroke-width:0;stroke:rgba(255,255,255,1.0);fill:rgba(255,255,255,1.0)"/><path  d="M 38 351
L 957 351" style="stroke-width:2;stroke:rgba(85,85,85,1.0);fill:none"/><path  d="M 38 351
L 38 356" style="stroke-width:2;stroke:rgba(85,85,85,1.0);fill:none"/><text x="5" y="373" style="stroke-width:0;stroke:none;fill:rgba(51,51,51,1.0);font-size:12.8px;font-family:'Roboto Medium',sans-serif">2018-09-25</text><path  d="M 153 351
L 153 356" style="stroke-width:2;stroke:rgba(85,85,85,1.0);fill:none"/><text x="120" y="373" style="stroke-width:0;stroke:none;fill:rgba(51,51,51,1.0);font-size:12.8px;font-family:'Roboto Medium',sans-serif">2019-02-18</text><path  d="M 268 351
L 268 356" style="stroke-width:2;stroke:rgba(85,85,85,1.0);fill:none"/><text x="235" y="373" style="stroke-width:0;stroke:none;fill:rgba(51,51,51,1.0);font-size:12.8px;font-family:'Roboto Medium',sans-serif">2019-07-14</text><path  d="M 383 351
L 383 356" style="stroke-width:2;stroke:rgba(85,85,85,1.0);fill:none"/><text x="350" y="373" style="stroke-width:0;stroke:none;fill:rgba(51,51,51,1.0);font-size:12.8px;font-family:'Roboto Medium',sans-serif">2019-12-07</text><path  d="M 498 351
L 498 356" style="stroke-width:2;stroke:rgba(85,85,85,1.0);fill:none"/><text x="465" y="373" style="stroke-width:0;stroke:none;fill:rgba(51,51,51,1.0);font-size:12.8px;font-family:'Roboto Medium',sans-serif">2020-05-02</text><path  d="M 613 351
L 613 356" style="stroke-width:2;stroke:rgba(85,85,85,1.0);fill:none"/><text x="580" y="373" style="stroke-width:0;stroke:none;fill:rgba(51,51,51,1.0);font-size:12.8px;font-family:'Roboto Medium',sans-serif">2020-09-25</text><path  d="M 728 351
L 728 356" style="stroke-width:2;stroke:rgba(85,85,85,1.0);fill:none"/><text x="695" y="373" style="stroke-width:0;stroke:none;fill:rgba(51,51,51,1.0);font-size:12.8px;font-family:'Roboto Medium',sans-serif">2021-02-18</text><path  d="M 843 351
L 843 356" style="stroke-width:2;stroke:rgba(85,85,85,1.0);fill:none"/><text x="810" y="373" style="stroke-width:0;stroke:none;fill:rgba(51,51,51,1.0);font-size:12.8px;font-family:'Roboto Medium',sans-serif">2021-07-15</text><path  d="M 957 351
L 957 356" style="stroke-width:2;stroke:rgba(85,85,85,1.0);fill:none"/><text x="924" y="373" style="stroke-width:0;stroke:none;fill:rgba(51,51,51,1.0);font-size:12.8px;font-family:'Roboto Medium',sans-serif">2021-12-08</text><text x="483" y="395" style="stroke-width:0;stroke:none;fill:rgba(51,51,51,1.0);font-size:12.8px;font-family:'Roboto Medium',sans-serif">Time</text><path  d="M 959 351
L 959 11" style="stroke-width:2;stroke:rgba(85,85,85,1.0);fill:none"/><path  d="M 959 351
L 964 351" style="stroke-width:2;stroke:rgba(85,85,85,1.0);fill:none"/><text x="969" y="357" style="stroke-width:0;stroke:none;fill:rgba(51,51,51,1.0);font-size:12.8px;font-family:'Roboto Medium',sans-serif">0</text><path  d="M 959 308
L 964 308" style="stroke-width:2;stroke:rgba(85,85,85,1.0);fill:none"/><text x="969" y="314" style="stroke-width:0;stroke:none;fill:rgba(51,51,51,1.0);font-size:12.8px;font-family:'Roboto Medium',sans-serif">1030</text><path  d="M 959 266
L 964 266" style="stroke-width:2;stroke:rgba(85,85,85,1.0);fill:none"/><text x="969" y="272" style="stroke-width:0;stroke:none;fill:rgba(51,51,51,1.0);font-size:12.8px;font-family:'Roboto Medium',sans-serif">2050</text><path  d="M 959 223
L 964 223" style="stroke-width:2;stroke:rgba(85,85,85,1.0);fill:none"/><text x="969" y="229" style="stroke-width:0;stroke:none;fill:rgba(51,51,51,1.0);font-size:12.8px;font-family:'Roboto Medium',sans-serif">3080</text><path  d="M 959 181
L 964 181" style="stroke-width:2;stroke:rgba(85,85,85,1.0);fill:none"/><text x="969" y="187" style="stroke-width:0;stroke:none;fill:rgba(51,51,51,1.0);font-size:12.8px;font-family:'Roboto Medium',sans-serif">4100</text><path  d="M 959 138
L 964 138" style="stroke-width:2;stroke:rgba(85,85,85,1.0);fill:none"/><text x="969" y="144" style="stroke-width:0;stroke:none;fill:rgba(51,51,51,1.0);font-size:12.8px;font-family:'Roboto Medium',sans-serif">5130</text><path  d="M 959 96
L 964 96" style="stroke-width:2;stroke:rgba(85,85,85,1.0);fill:none"/><text x="969" y="102" style="stroke-width:0;stroke:none;fill:rgba(51,51,51,1.0);font-size:12.8px;font-family:'Roboto Medium',sans-serif">6150</text><path  d="M 959 53
L 964 53" style="stroke-width:2;stroke:rgba(85,85,85,1.0);fill:none"/><text x="969" y="59" style="stroke-width:0;stroke:none;fill:rgba(51,51,51,1.0);font-size:12.8px;font-family:'Roboto Medium',sans-serif">7180</text><path  d="M 959 11
L 964 11" style="stroke-width:2;stroke:rgba(85,85,85,1.0);fill:none"/><text x="969" y="17" style="stroke-width:0;stroke:none;fill:rgba(51,51,51,1.0);font-size:12.8px;font-family:'Roboto Medium',sans-serif">8200</text><text x="1009" y="150" style="stroke-width:0;stroke:none;fill:rgba(51,51,51,1.0);font-size:12.8px;font-family:'Roboto Medium',sans-serif" transform="rotate(90.00,1009,150)">Stargazers</text><path  d="M 38 351
L 40 350
L 50 350
L 51 350
L 51 350
L 51 350
L 51 350
L 54 350
L 55 350
L 55 350
L 57 350
L 57 350
L 58 350
L 58 350
L 58 350
L 58 350
L 61 350
L 67 350
L 67 350
L 69 350
L 70 350
L 70 350
L 72 350
L 72 350
L 74 350
L 74 349
L 79 349
L 83 349
L 88 349
L 88 349
L 94 349
L 94 349
L 94 349
L 94 349
L 94 349
L 94 349
L 94 349
L 95 349
L 95 349
L 95 349
L 95 349
L 97 349
L 99 349
L 99 349
L 99 349
L 99 349
L 99 349
L 100 349
L 100 349
L 101 348
L 103 348
L 103 348
L 104 348
L 105 348
L 107 348
L 108 348
L 108 348
L 109 348
L 110 348
L 110 348
L 110 348
L 111 348
L 111 348
L 111 348
L 112 348
L 112 348
L 112 348
L 112 348
L 112 348
L 113 348
L 113 348
L 113 348
L 113 348
L 115 347
L 115 347
L 115 347
L 116 347
L 116 347
L 117 347
L 118 347
L 118 347
L 120 347
L 120 347
L 120 347
L 120 347
L 120 347
L 120 347
L 122 347
L 122 347
L 122 347
L 123 347
L 123 347
L 123 347
L 125 347
L 127 347
L 127 347
L 127 347
L 127 346
L 127 346
L 129 346
L 131 346
L 133 346
L 134 346
L 134 346
L 134 346
L 134 346
L 142 346
L 145 346
L 149 346
L 149 346
L 150 346
L 150 346
L 151 346
L 151 346
L 152 346
L 153 346
L 154 346
L 154 346
L 154 346
L 155 346
L 155 346
L 155 345
L 156 345
L 156 345
L 156 345
L 159 345
L 159 345
L 161 345
L 162 345
L 164 345
L 164 345
L 165 345
L 166 345
L 167 345
L 167 345
L 167 345
L 167 345
L 169 345
L 169 345
L 170 345
L 171 345
L 172 345
L 173 345
L 175 345
L 175 345
L 176 344
L 177 344
L 177 344
L 177 344
L 178 344
L 178 344
L 181 344
L 182 344
L 182 344
L 182 344
L 183 344
L 184 344
L 184 344
L 184 344
L 185 344
L 185 344
L 185 344
L 186 344
L 186 344
L 186 344
L 187 344
L 187 344
L 187 344
L 187 344
L 187 343
L 187 343
L 187 343
L 188 343
L 188 343
L 188 343
L 188 343
L 188 343
L 188 343
L 188 343
L 189 343
L 190 343
L 191 343
L 192 343
L 192 343
L 193 343
L 193 343
L 193 343
L 193 343
L 193 343
L 194 343
L 194 343
L 194 343
L 194 343
L 195 342
L 196 342
L 198 342
L 198 342
L 198 342
L 200 342
L 201 342
L 203 342
L 204 342
L 204 342
L 204 342
L 204 342
L 204 342
L 205 342
L 205 342
L 205 342
L 207 342
L 207 342
L 207 342
L 208 342
L 208 342
L 209 342
L 209 342
L 210 342
L 210 342
L 211 341
L 211 341
L 212 341
L 212 341
L 213 341
L 214 341
L 215 341
L 216 341
L 216 341
L 217 341
L 217 341
L 217 341
L 218 341
L 218 341
L 221 341
L 222 341
L 225 341
L 226 341
L 227 341
L 229 341
L 230 341
L 230 341
L 230 341
L 232 341
L 236 340
L 236 340
L 237 340
L 237 340
L 237 340
L 238 340
L 238 340
L 238 340
L 239 340
L 239 340
L 244 340
L 247 340
L 248 340
L 248 340
L 248 340
L 248 340
L 248 340
L 248 340
L 248 340
L 248 340
L 249 340
L 250 340
L 250 340
L 252 340
L 253 339
L 253 339
L 254 339
L 255 339
L 255 339
L 256 339
L 257 339
L 258 339
L 258 339
L 259 339
L 259 339
L 259 339
L 259 339
L 259 339
L 259 339
L 260 339
L 260 339
L 260 339
L 260 339
L 261 339
L 261 339
L 261 339
L 262 339
L 262 339
L 262 338
L 263 338
L 263 338
L 264 338
L 265 338
L 267 338
L 267 338
L 268 338
L 268 338
L 268 338
L 270 338
L 270 338
L 272 338
L 273 338
L 274 338
L 275 338
L 277 338
L 278 338
L 279 338
L 280 338
L 280 338
L 281 338
L 282 338
L 286 338
L 290 337
L 290 337
L 291 337
L 293 337
L 295 337
L 296 337
L 298 337
L 301 337
L 301 337
L 301 337
L 302 337
L 305 337
L 310 337
L 310 337
L 310 337
L 310 337
L 311 337
L 321 337
L 321 337
L 322 337
L 323 337
L 323 337
L 323 337
L 323 337
L 323 336
L 323 336
L 323 336
L 323 336
L 324 336
L 324 336
L 324 336
L 326 336
L 329 336
L 329 336
L 329 336
L 335 336
L 336 336
L 337 336
L 338 336
L 338 336
L 339 336
L 340 336
L 341 336
L 341 336
L 341 336
L 342 336
L 343 336
L 343 336
L 343 335
L 346 335
L 346 335
L 346 335
L 347 335
L 351 335
L 363 335
L 364 335
L 367 335
L 369 335
L 370 335
L 371 335
L 374 335
L 374 335
L 374 335
L 375 335
L 375 335
L 376 335
L 376 335
L 379 335
L 379 335
L 382 335
L 383 335
L 387 335
L 387 334
L 387 334
L 393 334
L 395 334
L 395 334
L 397 334
L 397 334
L 397 334
L 398 334
L 398 334
L 398 334
L 398 334
L 398 334
L 398 334
L 399 334
L 401 334
L 401 334
L 405 334
L 406 334
L 408 334
L 411 334
L 411 334
L 412 334
L 412 334
L 412 334
L 413 333
L 415 333
L 417 333
L 417 333
L 422 333
L 422 333
L 423 333
L 424 333
L 425 333
L 427 333
L 429 333
L 431 333
L 435 333
L 437 333
L 437 333
L 438 333
L 441 333
L 447 333
L 449 333
L 451 333
L 452 333
L 453 333
L 453 333
L 454 333
L 455 332
L 455 332
L 455 332
L 457 332
L 457 332
L 457 332
L 458 332
L 458 332
L 458 332
L 459 332
L 460 332
L 461 332
L 461 332
L 462 332
L 462 332
L 463 332
L 463 332
L 463 332
L 463 332
L 463 332
L 463 332
L 464 332
L 464 332
L 464 332
L 464 331
L 464 331
L 466 331
L 466 331
L 467 331
L 468 331
L 469 331
L 469 331
L 469 331
L 469 331
L 470 331
L 471 331
L 471 331
L 471 331
L 471 331
L 472 331
L 472 331
L 472 331
L 472 331
L 473 331
L 473 331
L 474 331
L 475 331
L 477 331
L 477 330
L 478 330
L 478 330
L 478 330
L 478 330
L 479 330
L 479 330
L 480 330
L 480 330
L 480 330
L 480 330
L 480 330
L 480 330
L 480 330
L 480 330
L 480 330
L 480 330
L 480 330
L 480 330
L 481 330
L 481 330
L 481 330
L 481 330
L 482 330
L 482 329
L 482 329
L 482 329
L 483 329
L 483 329
L 483 329
L 484 329
L 485 329
L 485 329
L 486 329
L 486 329
L 486 329
L 487 329
L 488 329
L 489 329
L 489 329
L 489 329
L 489 329
L 489 329
L 489 329
L 489 329
L 489 329
L 489 329
L 489 329
L 489 328
L 489 328
L 489 328
L 489 328
L 489 328
L 489 328
L 489 328
L 489 328
L 489 328
L 489 328
L 489 328
L 489 328
L 489 328
L 489 328
L 489 328
L 490 328
L 490 328
L 490 328
L 490 328
L 490 328
L 490 328
L 491 328
L 491 328
L 491 328
L 491 327
L 491 327
L 492 327
L 492 327
L 492 327
L 492 327
L 493 327
L 493 327
L 494 327
L 494 327
L 494 327
L 495 327
L 495 327
L 495 327
L 495 327
L 495 327
L 495 327
L 496 327
L 496 327
L 496 327
L 496 327
L 497 327
L 498 327
L 499 327
L 499 326
L 500 326
L 501 326
L 501 326
L 502 326
L 502 326
L 502 326
L 502 326
L 502 326
L 502 326
L 502 326
L 503 326
L 503 326
L 503 326
L 504 326
L 505 326
L 505 326
L 505 326
L 506 326
L 506 326
L 507 326
L 507 326
L 507 326
L 507 326
L 507 325
L 508 325
L 508 325
L 508 325
L 509 325
L 509 325
L 509 325
L 509 325
L 510 325
L 510 325
L 511 325
L 511 325
L 512 325
L 513 325
L 513 325
L 513 325
L 514 325
L 514 325
L 514 325
L 515 325
L 515 325
L 515 325
L 516 325
L 516 325
L 517 325
L 517 324
L 517 324
L 517 324
L 518 324
L 518 324
L 518 324
L 518 324
L 518 324
L 518 324
L 519 324
L 519 324
L 519 324
L 519 324
L 519 324
L 519 324
L 520 324
L 520 324
L 521 324
L 521 324
L 522 324
L 523 324
L 523 324
L 523 324
L 523 324
L 524 323
L 524 323
L 524 323
L 525 323
L 525 323
L 525 323
L 525 323
L 526 323
L 526 323
L 526 323
L 526 323
L 526 323
L 526 323
L 526 323
L 526 323
L 526 323
L 526 323
L 526 323
L 526 323
L 526 323
L 526 323
L 527 323
L 527 323
L 527 323
L 527 322
L 528 322
L 528 322
L 528 322
L 528 322
L 529 322
L 529 322
L 530 322
L 530 322
L 531 322
L 531 322
L 531 322
L 531 322
L 532 322
L 532 322
L 532 322
L 532 322
L 533 322
L 533 322
L 533 322
L 533 322
L 533 322
L 533 322
L 533 322
L 533 321
L 533 321
L 533 321
L 533 321
L 533 321
L 533 321
L 533 321
L 533 321
L 534 321
L 534 321
L 534 321
L 534 321
L 534 321
L 534 321
L 535 321
L 535 321
L 536 321
L 536 321
L 536 321
L 536 321
L 536 321
L 537 321
L 537 321
L 537 321
L 537 320
L 537 320
L 537 320
L 537 320
L 538 320
L 538 320
L 538 320
L 539 320
L 539 320
L 540 320
L 540 320
L 540 320
L 542 320
L 542 320
L 542 320
L 542 320
L 542 320
L 542 320
L 543 320
L 543 320
L 543 320
L 543 320
L 544 320
L 544 320
L 544 319
L 544 319
L 544 319
L 545 319
L 545 319
L 545 319
L 545 319
L 546 319
L 546 319
L 546 319
L 546 319
L 546 319
L 547 319
L 547 319
L 547 319
L 547 319
L 548 319
L 548 319
L 549 319
L 549 319
L 549 319
L 549 319
L 549 319
L 550 319
L 551 318
L 551 318
L 551 318
L 551 318
L 552 318
L 552 318
L 552 318
L 553 318
L 553 318
L 555 318
L 555 318
L 555 318
L 555 318
L 556 318
L 556 318
L 556 318
L 557 318
L 557 318
L 557 318
L 557 318
L 557 318
L 558 318
L 558 318
L 558 318
L 558 317
L 558 317
L 558 317
L 559 317
L 559 317
L 559 317
L 559 317
L 560 317
L 560 317
L 560 317
L 560 317
L 560 317
L 560 317
L 561 317
L 561 317
L 561 317
L 562 317
L 562 317
L 563 317
L 563 317
L 563 317
L 563 317
L 563 317
L 564 317
L 564 317
L 564 316
L 565 316
L 565 316
L 565 316
L 565 316
L 566 316
L 566 316
L 566 316
L 566 316
L 566 316
L 566 316
L 566 316
L 566 316
L 567 316
L 567 316
L 567 316
L 567 316
L 567 316
L 567 316
L 567 316
L 568 316
L 568 316
L 568 316
L 568 316
L 568 315
L 569 315
L 569 315
L 569 315
L 569 315
L 569 315
L 569 315
L 569 315
L 570 315
L 570 315
L 571 315
L 571 315
L 571 315
L 571 315
L 571 315
L 572 315
L 572 315
L 572 315
L 573 315
L 573 315
L 573 315
L 573 315
L 573 315
L 574 315
L 574 314
L 574 314
L 574 314
L 576 314
L 576 314
L 576 314
L 576 314
L 576 314
L 576 314
L 577 314
L 577 314
L 577 314
L 577 314
L 577 314
L 578 314
L 578 314
L 578 314
L 578 314
L 579 314
L 579 314
L 579 314
L 579 314
L 580 314
L 580 314
L 580 313
L 580 313
L 581 313
L 581 313
L 582 313
L 582 313
L 582 313
L 582 313
L 582 313
L 583 313
L 583 313
L 583 313
L 583 313
L 584 313
L 584 313
L 584 313
L 584 313
L 585 313
L 585 313
L 585 313
L 585 313
L 585 313
L 586 313
L 586 313
L 587 312
L 588 312
L 588 312
L 589 312
L 589 312
L 590 312
L 591 312
L 592 312
L 592 312
L 593 312
L 593 312
L 593 312
L 594 312
L 594 312
L 594 312
L 595 312
L 595 312
L 596 312
L 596 312
L 596 312
L 597 312
L 597 312
L 597 312
L 598 312
L 598 311
L 598 311
L 598 311
L 599 311
L 599 311
L 599 311
L 599 311
L 600 311
L 601 311
L 601 311
L 601 311
L 601 311
L 601 311
L 601 311
L 601 311
L 601 311
L 601 311
L 602 311
L 602 311
L 602 311
L 602 311
L 602 311
L 603 311
L 603 311
L 603 310
L 603 310
L 603 310
L 604 310
L 605 310
L 605 310
L 605 310
L 606 310
L 606 310
L 606 310
L 608 310
L 608 310
L 609 310
L 610 310
L 610 310
L 610 310
L 610 310
L 611 310
L 611 310
L 611 310
L 611 310
L 612 310
L 614 310
L 614 310
L 614 309
L 614 309
L 615 309
L 615 309
L 615 309
L 615 309
L 616 309
L 616 309
L 616 309
L 616 309
L 616 309
L 617 309
L 617 309
L 617 309
L 617 309
L 618 309
L 620 309
L 621 309
L 621 309
L 623 309
L 623 309
L 623 309
L 624 309
L 624 309
L 624 308
L 625 308
L 625 308
L 626 308
L 626 308
L 626 308
L 626 308
L 626 308
L 626 308
L 626 308
L 627 308
L 627 308
L 627 308
L 627 308
L 627 308
L 627 308
L 627 308
L 627 308
L 628 308
L 628 308
L 628 308
L 628 308
L 628 308
L 628 308
L 629 308
L 629 307
L 629 307
L 629 307
L 629 307
L 629 307
L 629 307
L 630 307
L 630 307
L 631 307
L 631 307
L 631 307
L 632 307
L 632 307
L 632 307
L 632 307
L 633 307
L 633 307
L 633 307
L 634 307
L 634 307
L 634 307
L 634 307
L 634 307
L 635 307
L 635 306
L 635 306
L 635 306
L 636 306
L 637 306
L 637 306
L 638 306
L 638 306
L 638 306
L 638 306
L 638 306
L 638 306
L 638 306
L 638 306
L 638 306
L 638 306
L 638 306
L 638 306
L 638 306
L 638 306
L 639 306
L 639 306
L 639 306
L 639 306
L 639 305
L 639 305
L 639 305
L 639 305
L 639 305
L 639 305
L 639 305
L 639 305
L 639 305
L 639 305
L 639 305
L 639 305
L 640 305
L 640 305
L 640 305
L 640 305
L 640 305
L 640 305
L 640 305
L 640 305
L 641 305
L 641 305
L 641 305
L 642 305
L 642 304
L 642 304
L 642 304
L 642 304
L 642 304
L 642 304
L 642 304
L 643 304
L 643 304
L 643 304
L 643 304
L 643 304
L 643 304
L 644 304
L 644 304
L 644 304
L 644 304
L 644 304
L 644 304
L 644 304
L 644 304
L 644 304
L 645 304
L 645 304
L 645 303
L 645 303
L 646 303
L 646 303
L 646 303
L 646 303
L 647 303
L 647 303
L 648 303
L 648 303
L 648 303
L 648 303
L 648 303
L 648 303
L 648 303
L 648 303
L 649 303
L 649 303
L 649 303
L 650 303
L 650 303
L 650 303
L 650 303
L 650 303
L 650 302
L 650 302
L 651 302
L 651 302
L 651 302
L 651 302
L 651 302
L 652 302
L 652 302
L 652 302
L 653 302
L 653 302
L 653 302
L 653 302
L 653 302
L 653 302
L 654 302
L 654 302
L 654 302
L 655 302
L 655 302
L 655 302
L 655 302
L 655 302
L 655 301
L 656 301
L 656 301
L 656 301
L 656 301
L 656 301
L 656 301
L 656 301
L 657 301
L 657 301
L 657 301
L 658 301
L 658 301
L 658 301
L 658 301
L 658 301
L 659 301
L 659 301
L 659 301
L 659 301
L 659 301
L 659 301
L 660 301
L 660 301
L 661 300
L 661 300
L 662 300
L 662 300
L 662 300
L 662 300
L 662 300
L 662 300
L 662 300
L 662 300
L 662 300
L 664 300
L 664 300
L 664 300
L 664 300
L 664 300
L 665 300
L 665 300
L 665 300
L 665 300
L 665 300
L 665 300
L 665 300
L 665 300
L 666 300
L 666 299
L 666 299
L 666 299
L 666 299
L 666 299
L 667 299
L 667 299
L 667 299
L 667 299
L 667 299
L 667 299
L 669 299
L 670 299
L 670 299
L 670 299
L 670 299
L 671 299
L 671 299
L 671 299
L 671 299
L 671 299
L 671 299
L 671 299
L 671 299
L 672 298
L 672 298
L 672 298
L 672 298
L 672 298
L 672 298
L 672 298
L 672 298
L 673 298
L 673 298
L 673 298
L 673 298
L 675 298
L 675 298
L 675 298
L 675 298
L 675 298
L 675 298
L 676 298
L 676 298
L 676 298
L 676 298
L 676 298
L 676 298
L 677 297
L 677 297
L 677 297
L 677 297
L 678 297
L 678 297
L 678 297
L 679 297
L 679 297
L 679 297
L 680 297
L 680 297
L 680 297
L 681 297
L 681 297
L 681 297
L 681 297
L 681 297
L 682 297
L 682 297
L 682 297
L 682 297
L 682 297
L 682 297
L 682 296
L 682 296
L 682 296
L 682 296
L 682 296
L 682 296
L 682 296
L 683 296
L 683 296
L 683 296
L 683 296
L 683 296
L 683 296
L 683 296
L 683 296
L 683 296
L 684 296
L 684 296
L 684 296
L 684 296
L 684 296
L 685 296
L 685 296
L 685 296
L 685 295
L 686 295
L 686 295
L 686 295
L 686 295
L 687 295
L 687 295
L 687 295
L 687 295
L 687 295
L 687 295
L 687 295
L 687 295
L 687 295
L 687 295
L 687 295
L 688 295
L 688 295
L 688 295
L 688 295
L 689 295
L 689 295
L 689 295
L 689 295
L 690 294
L 691 294
L 691 294
L 691 294
L 691 294
L 692 294
L 692 294
L 692 294
L 692 294
L 692 294
L 693 294
L 693 294
L 693 294
L 693 294
L 693 294
L 693 294
L 694 294
L 694 294
L 694 294
L 694 294
L 694 294
L 694 294
L 694 294
L 694 294
L 694 293
L 694 293
L 694 293
L 694 293
L 694 293
L 695 293
L 695 293
L 695 293
L 696 293
L 696 293
L 696 293
L 697 293
L 697 293
L 698 293
L 698 293
L 698 293
L 698 293
L 698 293
L 698 293
L 698 293
L 698 293
L 698 293
L 698 293
L 698 293
L 698 292
L 699 292
L 699 292
L 699 292
L 700 292
L 700 292
L 700 292
L 701 292
L 701 292
L 701 292
L 701 292
L 701 292
L 701 292
L 701 292
L 701 292
L 702 292
L 703 292
L 703 292
L 703 292
L 703 292
L 703 292
L 704 292
L 704 292
L 704 292
L 704 291
L 705 291
L 705 291
L 705 291
L 705 291
L 705 291
L 705 291
L 706 291
L 706 291
L 706 291
L 706 291
L 706 291
L 706 291
L 706 291
L 707 291
L 707 291
L 707 291
L 707 291
L 708 291
L 708 291
L 708 291
L 708 291
L 708 291
L 708 291
L 708 291
L 708 290
L 708 290
L 708 290
L 708 290
L 709 290
L 709 290
L 709 290
L 709 290
L 709 290
L 709 290
L 709 290
L 709 290
L 710 290
L 710 290
L 710 290
L 710 290
L 711 290
L 711 290
L 711 290
L 711 290
L 712 290
L 712 290
L 713 290
L 713 290
L 713 289
L 713 289
L 713 289
L 713 289
L 713 289
L 713 289
L 713 289
L 714 289
L 714 289
L 714 289
L 714 289
L 715 289
L 715 289
L 716 289
L 716 289
L 716 289
L 716 289
L 716 289
L 716 289
L 716 289
L 716 289
L 717 289
L 717 289
L 717 289
L 717 288
L 717 288
L 717 288
L 717 288
L 718 288
L 718 288
L 718 288
L 718 288
L 718 288
L 718 288
L 718 288
L 719 288
L 719 288
L 719 288
L 719 288
L 719 288
L 719 288
L 720 288
L 720 288
L 720 288
L 721 288
L 721 288
L 722 288
L 723 288
L 723 287
L 723 287
L 723 287
L 723 287
L 724 287
L 725 287
L 725 287
L 725 287
L 726 287
L 726 287
L 726 287
L 726 287
L 726 287
L 727 287
L 727 287
L 727 287
L 727 287
L 727 287
L 728 287
L 728 287
L 728 287
L 728 287
L 728 287
L 728 287
L 728 286
L 728 286
L 729 286
L 729 286
L 729 286
L 729 286
L 729 286
L 729 286
L 729 286
L 729 286
L 729 286
L 730 286
L 730 286
L 730 286
L 730 286
L 730 286
L 730 286
L 731 286
L 731 286
L 731 286
L 731 286
L 731 286
L 731 286
L 731 286
L 731 285
L 731 285
L 731 285
L 731 285
L 732 285
L 732 285
L 732 285
L 732 285
L 732 285
L 732 285
L 733 285
L 733 285
L 733 285
L 733 285
L 733 285
L 733 285
L 733 285
L 733 285
L 733 285
L 734 285
L 734 285
L 734 285
L 734 285
L 734 285
L 734 284
L 734 284
L 735 284
L 735 284
L 735 284
L 735 284
L 735 284
L 736 284
L 736 284
L 736 284
L 736 284
L 736 284
L 736 284
L 736 284
L 737 284
L 737 284
L 737 284
L 737 284
L 737 284
L 737 284
L 737 284
L 737 284
L 737 284
L 737 284
L 737 283
L 737 283
L 737 283
L 737 283
L 737 283
L 737 283
L 737 283
L 738 283
L 738 283
L 738 283
L 738 283
L 738 283
L 738 283
L 738 283
L 738 283
L 739 283
L 739 283
L 739 283
L 739 283
L 740 283
L 740 283
L 740 283
L 740 283
L 740 283
L 740 283
L 741 282
L 741 282
L 741 282
L 741 282
L 741 282
L 742 282
L 742 282
L 742 282
L 742 282
L 742 282
L 742 282
L 742 282
L 742 282
L 742 282
L 742 282
L 742 282
L 743 282
L 743 282
L 743 282
L 743 282
L 744 282
L 744 282
L 744 282
L 744 282
L 744 281
L 744 281
L 744 281
L 744 281
L 744 281
L 744 281
L 744 281
L 744 281
L 744 281
L 744 281
L 745 281
L 745 281
L 745 281
L 745 281
L 745 281
L 745 281
L 745 281
L 745 281
L 746 281
L 746 281
L 746 281
L 746 281
L 746 281
L 746 281
L 746 280
L 746 280
L 746 280
L 746 280
L 746 280
L 746 280
L 746 280
L 746 280
L 746 280
L 746 280
L 746 280
L 746 280
L 746 280
L 746 280
L 746 280
L 746 280
L 746 280
L 746 280
L 746 280
L 746 280
L 746 280
L 746 280
L 746 280
L 746 280
L 746 279
L 746 279
L 746 279
L 746 279
L 746 279
L 746 279
L 746 279
L 746 279
L 746 279
L 746 279
L 746 279
L 746 279
L 746 279
L 746 279
L 746 279
L 746 279
L 746 279
L 746 279
L 746 279
L 746 279
L 746 279
L 746 279
L 746 279
L 746 279
L 746 278
L 746 278
L 746 278
L 746 278
L 746 278
L 746 278
L 746 278
L 746 278
L 746 278
L 746 278
L 746 278
L 746 278
L 746 278
L 746 278
L 746 278
L 746 278
L 746 278
L 746 278
L 746 278
L 746 278
L 747 278
L 747 278
L 747 278
L 747 278
L 747 277
L 747 277
L 747 277
L 747 277
L 747 277
L 747 277
L 747 277
L 747 277
L 747 277
L 747 277
L 747 277
L 747 277
L 747 277
L 747 277
L 747 277
L 747 277
L 747 277
L 747 277
L 747 277
L 747 277
L 747 277
L 747 277
L 747 277
L 747 277
L 747 276
L 747 276
L 747 276
L 747 276
L 747 276
L 747 276
L 747 276
L 747 276
L 747 276
L 747 276
L 747 276
L 747 276
L 747 276
L 747 276
L 747 276
L 747 276
L 748 276
L 748 276
L 748 276
L 748 276
L 748 276
L 748 276
L 748 276
L 748 276
L 748 275
L 748 275
L 748 275
L 748 275
L 748 275
L 748 275
L 748 275
L 748 275
L 748 275
L 748 275
L 748 275
L 748 275
L 748 275
L 748 275
L 748 275
L 748 275
L 748 275
L 748 275
L 748 275
L 748 275
L 748 275
L 748 275
L 748 275
L 748 275
L 748 274
L 748 274
L 748 274
L 748 274
L 748 274
L 748 274
L 748 274
L 748 274
L 748 274
L 748 274
L 748 274
L 748 274
L 748 274
L 748 274
L 748 274
L 748 274
L 748 274
L 748 274
L 748 274
L 748 274
L 748 274
L 748 274
L 748 274
L 748 274
L 748 274
L 748 273
L 748 273
L 748 273
L 748 273
L 748 273
L 748 273
L 748 273
L 748 273
L 748 273
L 748 273
L 748 273
L 748 273
L 748 273
L 748 273
L 748 273
L 748 273
L 748 273
L 748 273
L 748 273
L 748 273
L 748 273
L 748 273
L 748 273
L 748 273
L 748 272
L 748 272
L 748 272
L 748 272
L 748 272
L 748 272
L 748 272
L 748 272
L 748 272
L 748 272
L 748 272
L 749 272
L 749 272
L 749 272
L 749 272
L 749 272
L 749 272
L 749 272
L 749 272
L 749 272
L 749 272
L 749 272
L 749 272
L 749 272
L 749 271
L 749 271
L 749 271
L 749 271
L 749 271
L 749 271
L 749 271
L 749 271
L 749 271
L 749 271
L 749 271
L 749 271
L 749 271
L 749 271
L 749 271
L 749 271
L 749 271
L 749 271
L 749 271
L 749 271
L 749 271
L 749 271
L 749 271
L 749 271
L 749 270
L 749 270
L 749 270
L 749 270
L 749 270
L 749 270
L 749 270
L 749 270
L 749 270
L 749 270
L 749 270
L 749 270
L 749 270
L 749 270
L 749 270
L 749 270
L 749 270
L 749 270
L 749 270
L 749 270
L 749 270
L 749 270
L 749 270
L 749 270
L 749 269
L 749 269
L 749 269
L 749 269
L 750 269
L 750 269
L 750 269
L 750 269
L 750 269
L 750 269
L 750 269
L 750 269
L 750 269
L 750 269
L 750 269
L 750 269
L 750 269
L 750 269
L 750 269
L 750 269
L 750 269
L 750 269
L 750 269
L 750 269
L 750 268
L 750 268
L 750 268
L 750 268
L 750 268
L 750 268
L 750 268
L 750 268
L 750 268
L 750 268
L 750 268
L 750 268
L 750 268
L 750 268
L 750 268
L 750 268
L 750 268
L 750 268
L 750 268
L 750 268
L 750 268
L 750 268
L 750 268
L 750 268
L 750 267
L 750 267
L 750 267
L 750 267
L 750 267
L 750 267
L 751 267
L 751 267
L 751 267
L 751 267
L 751 267
L 751 267
L 751 267
L 751 267
L 751 267
L 751 267
L 751 267
L 751 267
L 751 267
L 752 267
L 752 267
L 752 267
L 752 267
L 752 267
L 752 266
L 752 266
L 752 266
L 752 266
L 752 266
L 753 266
L 753 266
L 753 266
L 753 266
L 753 266
L 753 266
L 753 266
L 753 266
L 753 266
L 753 266
L 753 266
L 753 266
L 754 266
L 754 266
L 754 266
L 754 266
L 754 266
L 754 266
L 754 266
L 754 266
L 754 265
L 754 265
L 754 265
L 754 265
L 754 265
L 754 265
L 755 265
L 755 265
L 755 265
L 755 265
L 755 265
L 755 265
L 755 265
L 755 265
L 755 265
L 756 265
L 756 265
L 756 265
L 756 265
L 756 265
L 756 265
L 756 265
L 756 265
L 756 265
L 756 264
L 756 264
L 756 264
L 757 264
L 757 264
L 757 264
L 757 264
L 757 264
L 757 264
L 757 264
L 757 264
L 757 264
L 757 264
L 757 264
L 758 264
L 758 264
L 758 264
L 758 264
L 758 264
L 758 264
L 758 264
L 758 264
L 758 264
L 758 264
L 758 263
L 758 263
L 758 263
L 758 263
L 758 263
L 758 263
L 758 263
L 758 263
L 758 263
L 758 263
L 758 263
L 758 263
L 759 263
L 759 263
L 759 263
L 759 263
L 759 263
L 759 263
L 759 263
L 759 263
L 759 263
L 759 263
L 759 263
L 759 263
L 759 262
L 759 262
L 759 262
L 759 262
L 759 262
L 759 262
L 759 262
L 759 262
L 759 262
L 759 262
L 759 262
L 759 262
L 759 262
L 759 262
L 759 262
L 759 262
L 759 262
L 759 262
L 759 262
L 759 262
L 759 262
L 759 262
L 759 262
L 759 262
L 759 261
L 759 261
L 759 261
L 759 261
L 759 261
L 759 261
L 759 261
L 759 261
L 759 261
L 759 261
L 759 261
L 759 261
L 759 261
L 759 261
L 759 261
L 760 261
L 760 261
L 760 261
L 760 261
L 760 261
L 760 261
L 760 261
L 760 261
L 760 261
L 760 260
L 760 260
L 760 260
L 760 260
L 760 260
L 760 260
L 760 260
L 760 260
L 760 260
L 760 260
L 760 260
L 760 260
L 760 260
L 760 260
L 760 260
L 760 260
L 760 260
L 760 260
L 760 260
L 760 260
L 760 260
L 760 260
L 760 260
L 760 260
L 760 259
L 760 259
L 760 259
L 760 259
L 760 259
L 760 259
L 760 259
L 760 259
L 760 259
L 760 259
L 760 259
L 760 259
L 760 259
L 760 259
L 760 259
L 760 259
L 760 259
L 760 259
L 760 259
L 760 259
L 760 259
L 760 259
L 760 259
L 760 259
L 760 258
L 760 258
L 760 258
L 760 258
L 760 258
L 760 258
L 760 258
L 760 258
L 760 258
L 760 258
L 760 258
L 760 258
L 760 258
L 760 258
L 760 258
L 760 258
L 760 258
L 760 258
L 760 258
L 760 258
L 760 258
L 760 258
L 760 258
L 760 258
L 760 257
L 760 257
L 760 257
L 760 257
L 760 257
L 760 257
L 760 257
L 760 257
L 760 257
L 760 257
L 760 257
L 761 257
L 761 257
L 761 257
L 761 257
L 761 257
L 761 257
L 761 257
L 761 257
L 761 257
L 761 257
L 761 257
L 761 257
L 761 257
L 761 257
L 761 256
L 761 256
L 761 256
L 761 256
L 761 256
L 761 256
L 761 256
L 761 256
L 761 256
L 761 256
L 761 256
L 761 256
L 761 256
L 761 256
L 761 256
L 761 256
L 761 256
L 761 256
L 761 256
L 761 256
L 761 256
L 761 256
L 761 256
L 761 256
L 761 255
L 761 255
L 761 255
L 761 255
L 762 255
L 762 255
L 762 255
L 762 255
L 762 255
L 762 255
L 762 255
L 762 255
L 762 255
L 762 255
L 762 255
L 762 255
L 762 255
L 762 255
L 762 255
L 762 255
L 762 255
L 762 255
L 762 255
L 762 255
L 762 254
L 762 254
L 762 254
L 762 254
L 763 254
L 763 254
L 763 254
L 763 254
L 763 254
L 763 254
L 763 254
L 763 254
L 763 254
L 763 254
L 763 254
L 763 254
L 763 254
L 763 254
L 763 254
L 763 254
L 763 254
L 763 254
L 763 254
L 763 254
L 763 253
L 763 253
L 763 253
L 763 253
L 763 253
L 763 253
L 763 253
L 763 253
L 763 253
L 763 253
L 763 253
L 763 253
L 764 253
L 764 253
L 764 253
L 764 253
L 764 253
L 764 253
L 764 253
L 764 253
L 764 253
L 764 253
L 764 253
L 764 253
L 764 252
L 764 252
L 764 252
L 764 252
L 764 252
L 764 252
L 764 252
L 764 252
L 764 252
L 764 252
L 764 252
L 764 252
L 764 252
L 764 252
L 764 252
L 764 252
L 764 252
L 764 252
L 765 252
L 765 252
L 765 252
L 765 252
L 765 252
L 765 252
L 765 251
L 765 251
L 765 251
L 765 251
L 765 251
L 765 251
L 765 251
L 765 251
L 765 251
L 765 251
L 765 251
L 765 251
L 765 251
L 765 251
L 765 251
L 765 251
L 766 251
L 766 251
L 766 251
L 766 251
L 766 251
L 766 251
L 766 251
L 766 251
L 766 250
L 766 250
L 766 250
L 766 250
L 767 250
L 767 250
L 767 250
L 767 250
L 767 250
L 767 250
L 767 250
L 767 250
L 767 250
L 767 250
L 767 250
L 767 250
L 767 250
L 767 250
L 767 250
L 767 250
L 767 250
L 768 250
L 768 250
L 768 250
L 768 249
L 768 249
L 768 249
L 768 249
L 769 249
L 769 249
L 769 249
L 769 249
L 769 249
L 769 249
L 769 249
L 769 249
L 769 249
L 769 249
L 770 249
L 770 249
L 770 249
L 770 249
L 770 249
L 770 249
L 770 249
L 770 249
L 770 249
L 770 249
L 770 249
L 770 248
L 770 248
L 770 248
L 770 248
L 770 248
L 770 248
L 770 248
L 771 248
L 771 248
L 771 248
L 771 248
L 771 248
L 771 248
L 771 248
L 771 248
L 771 248
L 771 248
L 771 248
L 771 248
L 771 248
L 771 248
L 771 248
L 771 248
L 772 248
L 772 247
L 772 247
L 772 247
L 772 247
L 772 247
L 772 247
L 772 247
L 773 247
L 773 247
L 773 247
L 773 247
L 773 247
L 773 247
L 773 247
L 773 247
L 773 247
L 773 247
L 773 247
L 773 247
L 773 247
L 773 247
L 773 247
L 774 247
L 774 247
L 774 246
L 774 246
L 774 246
L 774 246
L 774 246
L 774 246
L 774 246
L 774 246
L 774 246
L 774 246
L 774 246
L 774 246
L 774 246
L 774 246
L 774 246
L 774 246
L 774 246
L 774 246
L 774 246
L 774 246
L 774 246
L 774 246
L 775 246
L 775 246
L 775 245
L 775 245
L 775 245
L 775 245
L 775 245
L 775 245
L 775 245
L 775 245
L 775 245
L 775 245
L 775 245
L 775 245
L 775 245
L 775 245
L 775 245
L 775 245
L 775 245
L 775 245
L 775 245
L 776 245
L 776 245
L 776 245
L 776 245
L 776 245
L 776 244
L 776 244
L 777 244
L 777 244
L 777 244
L 777 244
L 777 244
L 777 244
L 777 244
L 777 244
L 777 244
L 777 244
L 778 244
L 778 244
L 778 244
L 778 244
L 778 244
L 778 244
L 778 244
L 778 244
L 778 244
L 778 244
L 778 244
L 778 244
L 778 243
L 778 243
L 778 243
L 778 243
L 778 243
L 778 243
L 778 243
L 778 243
L 778 243
L 778 243
L 778 243
L 778 243
L 778 243
L 778 243
L 778 243
L 778 243
L 778 243
L 778 243
L 779 243
L 779 243
L 779 243
L 779 243
L 779 243
L 779 243
L 779 242
L 779 242
L 779 242
L 779 242
L 779 242
L 779 242
L 779 242
L 779 242
L 779 242
L 779 242
L 779 242
L 779 242
L 779 242
L 779 242
L 779 242
L 779 242
L 779 242
L 779 242
L 779 242
L 779 242
L 779 242
L 779 242
L 779 242
L 779 242
L 779 241
L 780 241
L 780 241
L 780 241
L 780 241
L 780 241
L 780 241
L 780 241
L 780 241
L 780 241
L 780 241
L 780 241
L 780 241
L 780 241
L 780 241
L 780 241
L 780 241
L 780 241
L 780 241
L 780 241
L 780 241
L 780 241
L 780 241
L 780 241
L 780 240
L 780 240
L 780 240
L 780 240
L 780 240
L 780 240
L 780 240
L 780 240
L 780 240
L 780 240
L 780 240
L 780 240
L 780 240
L 780 240
L 780 240
L 780 240
L 780 240
L 780 240
L 780 240
L 780 240
L 780 240
L 780 240
L 780 240
L 780 240
L 780 240
L 780 239
L 780 239
L 780 239
L 780 239
L 780 239
L 780 239
L 780 239
L 780 239
L 780 239
L 780 239
L 780 239
L 780 239
L 780 239
L 780 239
L 780 239
L 780 239
L 780 239
L 780 239
L 780 239
L 780 239
L 780 239
L 780 239
L 781 239
L 781 239
L 781 238
L 781 238
L 781 238
L 781 238
L 781 238
L 781 238
L 781 238
L 781 238
L 781 238
L 781 238
L 781 238
L 781 238
L 781 238
L 781 238
L 781 238
L 781 238
L 781 238
L 781 238
L 781 238
L 781 238
L 781 238
L 781 238
L 781 238
L 781 238
L 781 237
L 781 237
L 781 237
L 781 237
L 781 237
L 781 237
L 781 237
L 781 237
L 781 237
L 781 237
L 781 237
L 781 237
L 781 237
L 781 237
L 781 237
L 781 237
L 781 237
L 781 237
L 781 237
L 781 237
L 781 237
L 781 237
L 781 237
L 781 237
L 781 236
L 781 236
L 781 236
L 781 236
L 781 236
L 781 236
L 781 236
L 781 236
L 781 236
L 781 236
L 781 236
L 781 236
L 781 236
L 781 236
L 781 236
L 781 236
L 781 236
L 781 236
L 781 236
L 781 236
L 781 236
L 781 236
L 781 236
L 781 236
L 781 235
L 781 235
L 781 235
L 781 235
L 781 235
L 781 235
L 781 235
L 782 235
L 782 235
L 782 235
L 782 235
L 782 235
L 782 235
L 782 235
L 782 235
L 782 235
L 782 235
L 782 235
L 782 235
L 782 235
L 782 235
L 782 235
L 782 235
L 782 235
L 782 234
L 782 234
L 782 234
L 782 234
L 782 234
L 782 234
L 782 234
L 782 234
L 782 234
L 782 234
L 782 234
L 782 234
L 782 234
L 782 234
L 782 234
L 782 234
L 782 234
L 782 234
L 782 234
L 782 234
L 782 234
L 782 234
L 782 234
L 782 234
L 782 233
L 782 233
L 782 233
L 782 233
L 782 233
L 782 233
L 782 233
L 782 233
L 782 233
L 782 233
L 782 233
L 782 233
L 782 233
L 782 233
L 782 233
L 782 233
L 782 233
L 782 233
L 782 233
L 782 233
L 782 233
L 782 233
L 782 233
L 782 233
L 782 232
L 782 232
L 782 232
L 782 232
L 782 232
L 782 232
L 782 232
L 782 232
L 782 232
L 782 232
L 782 232
L 782 232
L 782 232
L 782 232
L 782 232
L 782 232
L 782 232
L 782 232
L 782 232
L 782 232
L 782 232
L 782 232
L 782 232
L 782 232
L 782 232
L 782 231
L 782 231
L 782 231
L 782 231
L 782 231
L 782 231
L 782 231
L 782 231
L 782 231
L 782 231
L 782 231
L 782 231
L 782 231
L 782 231
L 782 231
L 782 231
L 782 231
L 782 231
L 782 231
L 782 231
L 782 231
L 782 231
L 782 231
L 782 231
L 782 230
L 782 230
L 782 230
L 782 230
L 782 230
L 782 230
L 782 230
L 782 230
L 782 230
L 782 230
L 782 230
L 782 230
L 782 230
L 782 230
L 782 230
L 782 230
L 782 230
L 782 230
L 782 230
L 782 230
L 782 230
L 782 230
L 782 230
L 782 230
L 782 229
L 782 229
L 782 229
L 782 229
L 782 229
L 782 229
L 782 229
L 782 229
L 782 229
L 782 229
L 782 229
L 782 229
L 782 229
L 782 229
L 782 229
L 782 229
L 782 229
L 782 229
L 782 229
L 782 229
L 782 229
L 782 229
L 782 229
L 782 229
L 782 228
L 782 228
L 782 228
L 782 228
L 782 228
L 782 228
L 782 228
L 782 228
L 782 228
L 782 228
L 782 228
L 782 228
L 782 228
L 782 228
L 782 228
L 782 228
L 782 228
L 782 228
L 782 228
L 782 228
L 782 228
L 782 228
L 782 228
L 782 228
L 782 227
L 782 227
L 782 227
L 782 227
L 782 227
L 782 227
L 782 227
L 782 227
L 782 227
L 782 227
L 782 227
L 782 227
L 782 227
L 782 227
L 782 227
L 782 227
L 782 227
L 782 227
L 782 227
L 782 227
L 782 227
L 782 227
L 782 227
L 782 227
L 782 226
L 782 226
L 782 226
L 782 226
L 782 226
L 782 226
L 782 226
L 782 226
L 782 226
L 782 226
L 782 226
L 782 226
L 782 226
L 782 226
L 782 226
L 782 226
L 782 226
L 782 226
L 782 226
L 782 226
L 782 226
L 782 226
L 782 226
L 782 226
L 782 225
L 782 225
L 782 225
L 782 225
L 782 225
L 782 225
L 782 225
L 782 225
L 782 225
L 782 225
L 782 225
L 782 225
L 782 225
L 782 225
L 782 225
L 782 225
L 782 225
L 782 225
L 782 225
L 782 225
L 782 225
L 782 225
L 782 225
L 782 225
L 782 224
L 782 224
L 782 224
L 782 224
L 782 224
L 782 224
L 782 224
L 782 224
L 782 224
L 782 224
L 782 224
L 782 224
L 782 224
L 782 224
L 782 224
L 782 224
L 782 224
L 782 224
L 782 224
L 782 224
L 782 224
L 782 224
L 782 224
L 782 224
L 782 223
L 782 223
L 782 223
L 782 223
L 782 223
L 782 223
L 782 223
L 782 223
L 782 223
L 782 223
L 782 223
L 782 223
L 782 223
L 782 223
L 782 223
L 782 223
L 782 223
L 782 223
L 782 223
L 782 223
L 782 223
L 782 223
L 782 223
L 782 223
L 782 223
L 782 222
L 782 222
L 782 222
L 782 222
L 782 222
L 782 222
L 782 222
L 782 222
L 782 222
L 782 222
L 782 222
L 782 222
L 782 222
L 782 222
L 782 222
L 782 222
L 782 222
L 782 222
L 782 222
L 782 222
L 782 222
L 782 222
L 782 222
L 782 222
L 782 221
L 782 221
L 782 221
L 782 221
L 782 221
L 782 221
L 782 221
L 782 221
L 782 221
L 782 221
L 782 221
L 782 221
L 782 221
L 782 221
L 782 221
L 782 221
L 782 221
L 782 221
L 782 221
L 782 221
L 782 221
L 782 221
L 782 221
L 782 221
L 782 220
L 782 220
L 782 220
L 783 220
L 783 220
L 783 220
L 783 220
L 783 220
L 783 220
L 783 220
L 783 220
L 783 220
L 783 220
L 783 220
L 783 220
L 783 220
L 783 220
L 783 220
L 783 220
L 783 220
L 783 220
L 783 220
L 783 220
L 783 220
L 783 219
L 783 219
L 783 219
L 783 219
L 783 219
L 783 219
L 783 219
L 783 219
L 783 219
L 783 219
L 783 219
L 783 219
L 783 219
L 783 219
L 783 219
L 783 219
L 783 219
L 783 219
L 783 219
L 783 219
L 783 219
L 783 219
L 783 219
L 783 219
L 783 218
L 783 218
L 783 218
L 783 218
L 783 218
L 783 218
L 783 218
L 783 218
L 783 218
L 783 218
L 783 218
L 783 218
L 783 218
L 783 218
L 783 218
L 783 218
L 783 218
L 783 218
L 783 218
L 783 218
L 783 218
L 783 218
L 783 218
L 783 218
L 783 217
L 783 217
L 783 217
L 783 217
L 783 217
L 783 217
L 783 217
L 783 217
L 783 217
L 783 217
L 783 217
L 783 217
L 783 217
L 783 217
L 783 217
L 783 217
L 783 217
L 783 217
L 783 217
L 783 217
L 783 217
L 783 217
L 783 217
L 783 217
L 783 216
L 783 216
L 783 216
L 783 216
L 783 216
L 783 216
L 783 216
L 783 216
L 783 216
L 783 216
L 783 216
L 783 216
L 783 216
L 783 216
L 783 216
L 783 216
L 783 216
L 783 216
L 783 216
L 783 216
L 783 216
L 783 216
L 783 216
L 783 216
L 783 215
L 783 215
L 783 215
L 783 215
L 783 215
L 783 215
L 783 215
L 783 215
L 783 215
L 783 215
L 783 215
L 783 215
L 783 215
L 783 215
L 783 215
L 783 215
L 783 215
L 783 215
L 783 215
L 783 215
L 783 215
L 783 215
L 783 215
L 783 215
L 783 215
L 783 214
L 783 214
L 783 214
L 783 214
L 783 214
L 783 214
L 783 214
L 783 214
L 783 214
L 783 214
L 783 214
L 783 214
L 783 214
L 783 214
L 783 214
L 783 214
L 783 214
L 783 214
L 783 214
L 783 214
L 783 214
L 783 214
L 783 214
L 783 214
L 783 213
L 783 213
L 783 213
L 783 213
L 783 213
L 783 213
L 783 213
L 783 213
L 783 213
L 783 213
L 783 213
L 783 213
L 783 213
L 783 213
L 783 213
L 783 213
L 783 213
L 783 213
L 783 213
L 783 213
L 783 213
L 783 213
L 783 213
L 783 213
L 783 212
L 783 212
L 783 212
L 783 212
L 783 212
L 783 212
L 783 212
L 783 212
L 783 212
L 783 212
L 783 212
L 783 212
L 783 212
L 783 212
L 783 212
L 783 212
L 783 212
L 783 212
L 783 212
L 783 212
L 783 212
L 783 212
L 783 212
L 783 212
L 783 211
L 783 211
L 783 211
L 783 211
L 783 211
L 783 211
L 783 211
L 783 211
L 783 211
L 783 211
L 783 211
L 783 211
L 783 211
L 783 211
L 783 211
L 783 211
L 783 211
L 783 211
L 783 211
L 783 211
L 783 211
L 783 211
L 783 211
L 783 211
L 783 210
L 783 210
L 783 210
L 783 210
L 783 210
L 783 210
L 783 210
L 783 210
L 783 210
L 783 210
L 783 210
L 783 210
L 783 210
L 783 210
L 783 210
L 783 210
L 783 210
L 783 210
L 783 210
L 783 210
L 783 210
L 783 210
L 783 210
L 783 210
L 783 209
L 783 209
L 783 209
L 783 209
L 783 209
L 783 209
L 783 209
L 783 209
L 783 209
L 783 209
L 783 209
L 783 209
L 783 209
L 783 209
L 783 209
L 783 209
L 783 209
L 783 209
L 783 209
L 783 209
L 783 209
L 783 209
L 783 209
L 783 209
L 783 208
L 783 208
L 783 208
L 783 208
L 783 208
L 783 208
L 783 208
L 783 208
L 783 208
L 783 208
L 783 208
L 783 208
L 783 208
L 783 208
L 783 208
L 783 208
L 783 208
L 783 208
L 783 208
L 783 208
L 783 208
L 783 208
L 783 208
L 783 208
L 783 207
L 783 207
L 783 207
L 783 207
L 783 207
L 783 207
L 783 207
L 783 207
L 783 207
L 783 207
L 783 207
L 783 207
L 783 207
L 783 207
L 783 207
L 784 207
L 784 207
L 784 207
L 784 207
L 784 207
L 784 207
L 784 207
L 784 207
L 784 207
L 784 206
L 784 206
L 784 206
L 784 206
L 784 206
L 784 206
L 784 206
L 784 206
L 784 206
L 784 206
L 784 206
L 784 206
L 784 206
L 784 206
L 784 206
L 784 206
L 784 206
L 784 206
L 784 206
L 784 206
L 784 206
L 784 206
L 784 206
L 784 206
L 784 206
L 784 205
L 784 205
L 784 205
L 784 205
L 784 205
L 784 205
L 784 205
L 784 205
L 784 205
L 784 205
L 784 205
L 784 205
L 784 205
L 784 205
L 784 205
L 784 205
L 784 205
L 784 205
L 784 205
L 784 205
L 784 205
L 784 205
L 784 205
L 784 205
L 784 204
L 784 204
L 784 204
L 784 204
L 784 204
L 784 204
L 784 204
L 784 204
L 784 204
L 784 204
L 784 204
L 784 204
L 784 204
L 784 204
L 784 204
L 784 204
L 784 204
L 784 204
L 784 204
L 784 204
L 784 204
L 784 204
L 784 204
L 784 204
L 784 203
L 784 203
L 784 203
L 784 203
L 784 203
L 784 203
L 784 203
L 784 203
L 784 203
L 784 203
L 784 203
L 784 203
L 784 203
L 784 203
L 784 203
L 784 203
L 784 203
L 784 203
L 784 203
L 784 203
L 784 203
L 784 203
L 784 203
L 784 203
L 784 202
L 784 202
L 784 202
L 784 202
L 784 202
L 784 202
L 784 202
L 784 202
L 784 202
L 784 202
L 784 202
L 784 202
L 784 202
L 784 202
L 784 202
L 784 202
L 784 202
L 784 202
L 784 202
L 784 202
L 784 202
L 784 202
L 784 202
L 784 202
L 784 201
L 784 201
L 784 201
L 784 201
L 784 201
L 784 201
L 784 201
L 784 201
L 784 201
L 784 201
L 784 201
L 784 201
L 784 201
L 784 201
L 784 201
L 784 201
L 784 201
L 784 201
L 784 201
L 784 201
L 784 201
L 784 201
L 784 201
L 784 201
L 784 200
L 784 200
L 784 200
L 784 200
L 784 200
L 784 200
L 784 200
L 784 200
L 784 200
L 784 200
L 784 200
L 784 200
L 784 200
L 785 200
L 785 200
L 785 200
L 785 200
L 785 200
L 785 200
L 785 200
L 785 200
L 785 200
L 785 200
L 785 200
L 785 199
L 785 199
L 785 199
L 785 199
L 785 199
L 785 199
L 785 199
L 785 199
L 785 199
L 785 199
L 785 199
L 785 199
L 785 199
L 785 199
L 785 199
L 785 199
L 785 199
L 785 199
L 785 199
L 785 199
L 785 199
L 785 199
L 785 199
L 785 199
L 785 198
L 785 198
L 785 198
L 785 198
L 785 198
L 785 198
L 785 198
L 785 198
L 785 198
L 785 198
L 786 198
L 786 198
L 786 198
L 786 198
L 786 198
L 786 198
L 786 198
L 786 198
L 786 198
L 786 198
L 786 198
L 787 198
L 787 198
L 787 198
L 787 198
L 787 197
L 787 197
L 787 197
L 787 197
L 787 197
L 787 197
L 787 197
L 787 197
L 787 197
L 787 197
L 787 197
L 787 197
L 787 197
L 787 197
L 787 197
L 787 197
L 787 197
L 787 197
L 787 197
L 788 197
L 788 197
L 788 197
L 788 197
L 788 197
L 788 196
L 788 196
L 788 196
L 788 196
L 788 196
L 788 196
L 788 196
L 788 196
L 788 196
L 788 196
L 788 196
L 788 196
L 788 196
L 788 196
L 788 196
L 788 196
L 788 196
L 788 196
L 788 196
L 788 196
L 788 196
L 788 196
L 788 196
L 788 196
L 788 195
L 788 195
L 788 195
L 788 195
L 788 195
L 788 195
L 788 195
L 788 195
L 788 195
L 788 195
L 789 195
L 789 195
L 789 195
L 789 195
L 789 195
L 789 195
L 789 195
L 789 195
L 789 195
L 789 195
L 789 195
L 789 195
L 789 195
L 789 195
L 789 194
L 789 194
L 789 194
L 789 194
L 789 194
L 789 194
L 789 194
L 789 194
L 789 194
L 789 194
L 789 194
L 789 194
L 789 194
L 790 194
L 790 194
L 790 194
L 790 194
L 790 194
L 790 194
L 790 194
L 790 194
L 790 194
L 790 194
L 790 194
L 790 193
L 790 193
L 791 193
L 791 193
L 791 193
L 791 193
L 791 193
L 791 193
L 791 193
L 791 193
L 791 193
L 791 193
L 791 193
L 791 193
L 791 193
L 791 193
L 791 193
L 791 193
L 791 193
L 791 193
L 791 193
L 791 193
L 791 193
L 791 193
L 791 192
L 791 192
L 791 192
L 791 192
L 791 192
L 791 192
L 791 192
L 791 192
L 791 192
L 791 192
L 791 192
L 792 192
L 792 192
L 792 192
L 792 192
L 792 192
L 792 192
L 792 192
L 792 192
L 792 192
L 792 192
L 792 192
L 792 192
L 792 192
L 792 191
L 792 191
L 792 191
L 792 191
L 792 191
L 792 191
L 792 191
L 792 191
L 792 191
L 792 191
L 792 191
L 792 191
L 793 191
L 793 191
L 793 191
L 793 191
L 793 191
L 793 191
L 793 191
L 793 191
L 793 191
L 793 191
L 793 191
L 793 191
L 793 190
L 793 190
L 793 190
L 793 190
L 793 190
L 793 190
L 793 190
L 794 190
L 794 190
L 794 190
L 794 190
L 794 190
L 794 190
L 794 190
L 794 190
L 794 190
L 794 190
L 794 190
L 794 190
L 794 190
L 794 190
L 794 190
L 794 190
L 795 190
L 795 189
L 795 189
L 795 189
L 795 189
L 795 189
L 795 189
L 795 189
L 795 189
L 795 189
L 795 189
L 796 189
L 796 189
L 796 189
L 796 189
L 796 189
L 796 189
L 796 189
L 796 189
L 796 189
L 796 189
L 796 189
L 796 189
L 796 189
L 796 189
L 796 189
L 796 188
L 796 188
L 796 188
L 797 188
L 797 188
L 797 188
L 797 188
L 797 188
L 797 188
L 797 188
L 797 188
L 797 188
L 797 188
L 797 188
L 797 188
L 797 188
L 797 188
L 797 188
L 797 188
L 797 188
L 797 188
L 797 188
L 797 188
L 797 188
L 797 187
L 798 187
L 798 187
L 798 187
L 798 187
L 798 187
L 798 187
L 798 187
L 798 187
L 798 187
L 798 187
L 798 187
L 798 187
L 798 187
L 798 187
L 798 187
L 798 187
L 798 187
L 798 187
L 798 187
L 798 187
L 799 187
L 799 187
L 799 187
L 799 186
L 799 186
L 799 186
L 799 186
L 799 186
L 799 186
L 799 186
L 799 186
L 799 186
L 799 186
L 799 186
L 799 186
L 799 186
L 800 186
L 800 186
L 800 186
L 800 186
L 800 186
L 800 186
L 800 186
L 801 186
L 801 186
L 801 186
L 801 186
L 801 185
L 801 185
L 801 185
L 801 185
L 801 185
L 802 185
L 802 185
L 802 185
L 802 185
L 802 185
L 802 185
L 802 185
L 802 185
L 802 185
L 802 185
L 802 185
L 802 185
L 802 185
L 802 185
L 802 185
L 802 185
L 802 185
L 802 185
L 802 185
L 802 184
L 802 184
L 802 184
L 802 184
L 802 184
L 802 184
L 802 184
L 802 184
L 802 184
L 802 184
L 802 184
L 802 184
L 802 184
L 802 184
L 802 184
L 802 184
L 802 184
L 802 184
L 802 184
L 802 184
L 802 184
L 802 184
L 802 184
L 802 184
L 803 183
L 803 183
L 803 183
L 803 183
L 803 183
L 803 183
L 803 183
L 803 183
L 803 183
L 803 183
L 803 183
L 803 183
L 803 183
L 803 183
L 803 183
L 803 183
L 803 183
L 803 183
L 803 183
L 803 183
L 803 183
L 803 183
L 803 183
L 803 183
L 803 182
L 803 182
L 803 182
L 803 182
L 803 182
L 803 182
L 803 182
L 803 182
L 803 182
L 803 182
L 803 182
L 803 182
L 803 182
L 803 182
L 803 182
L 803 182
L 803 182
L 803 182
L 803 182
L 803 182
L 803 182
L 803 182
L 803 182
L 803 182
L 803 181
L 803 181
L 803 181
L 803 181
L 803 181
L 803 181
L 803 181
L 803 181
L 803 181
L 803 181
L 803 181
L 803 181
L 803 181
L 803 181
L 803 181
L 803 181
L 803 181
L 803 181
L 803 181
L 803 181
L 803 181
L 803 181
L 803 181
L 803 181
L 803 181
L 803 180
L 803 180
L 803 180
L 803 180
L 803 180
L 803 180
L 803 180
L 803 180
L 803 180
L 803 180
L 803 180
L 803 180
L 803 180
L 803 180
L 803 180
L 803 180
L 803 180
L 803 180
L 803 180
L 803 180
L 803 180
L 803 180
L 803 180
L 803 180
L 803 179
L 803 179
L 803 179
L 803 179
L 803 179
L 803 179
L 803 179
L 803 179
L 803 179
L 803 179
L 803 179
L 803 179
L 803 179
L 803 179
L 803 179
L 803 179
L 803 179
L 803 179
L 803 179
L 803 179
L 803 179
L 803 179
L 803 179
L 803 179
L 803 178
L 803 178
L 803 178
L 803 178
L 803 178
L 803 178
L 803 178
L 803 178
L 803 178
L 803 178
L 803 178
L 803 178
L 803 178
L 803 178
L 803 178
L 803 178
L 803 178
L 803 178
L 803 178
L 803 178
L 803 178
L 803 178
L 803 178
L 803 178
L 803 177
L 803 177
L 803 177
L 803 177
L 803 177
L 803 177
L 803 177
L 803 177
L 803 177
L 803 177
L 803 177
L 803 177
L 803 177
L 803 177
L 803 177
L 803 177
L 803 177
L 803 177
L 803 177
L 803 177
L 803 177
L 803 177
L 803 177
L 803 177
L 803 176
L 803 176
L 803 176
L 803 176
L 803 176
L 803 176
L 803 176
L 803 176
L 803 176
L 803 176
L 803 176
L 803 176
L 803 176
L 803 176
L 803 176
L 803 176
L 803 176
L 803 176
L 803 176
L 803 176
L 803 176
L 803 176
L 803 176
L 803 176
L 803 175
L 803 175
L 803 175
L 803 175
L 803 175
L 803 175
L 803 175
L 803 175
L 803 175
L 803 175
L 803 175
L 803 175
L 803 175
L 803 175
L 803 175
L 803 175
L 803 175
L 803 175
L 803 175
L 803 175
L 803 175
L 803 175
L 803 175
L 803 175
L 803 174
L 803 174
L 803 174
L 803 174
L 803 174
L 803 174
L 803 174
L 803 174
L 804 174
L 804 174
L 804 174
L 804 174
L 804 174
L 804 174
L 804 174
L 804 174
L 804 174
L 804 174
L 804 174
L 804 174
L 804 174
L 804 174
L 804 174
L 804 174
L 804 173
L 804 173
L 804 173
L 804 173
L 804 173
L 804 173
L 804 173
L 804 173
L 804 173
L 804 173
L 804 173
L 804 173
L 804 173
L 804 173
L 804 173
L 804 173
L 804 173
L 804 173
L 804 173
L 804 173
L 804 173
L 804 173
L 804 173
L 804 173
L 804 172
L 804 172
L 804 172
L 804 172
L 804 172
L 804 172
L 804 172
L 804 172
L 804 172
L 804 172
L 804 172
L 804 172
L 804 172
L 804 172
L 804 172
L 804 172
L 804 172
L 804 172
L 804 172
L 804 172
L 804 172
L 804 172
L 804 172
L 804 172
L 804 172
L 804 171
L 804 171
L 804 171
L 804 171
L 804 171
L 804 171
L 804 171
L 804 171
L 804 171
L 804 171
L 804 171
L 804 171
L 804 171
L 804 171
L 804 171
L 804 171
L 804 171
L 804 171
L 804 171
L 804 171
L 804 171
L 804 171
L 804 171
L 804 171
L 804 170
L 804 170
L 804 170
L 804 170
L 804 170
L 804 170
L 804 170
L 804 170
L 804 170
L 804 170
L 804 170
L 804 170
L 804 170
L 804 170
L 804 170
L 804 170
L 804 170
L 804 170
L 804 170
L 804 170
L 804 170
L 804 170
L 804 170
L 804 170
L 804 169
L 804 169
L 804 169
L 804 169
L 804 169
L 804 169
L 804 169
L 804 169
L 804 169
L 804 169
L 804 169
L 804 169
L 804 169
L 804 169
L 804 169
L 804 169
L 804 169
L 804 169
L 804 169
L 804 169
L 804 169
L 804 169
L 804 169
L 804 169
L 804 168
L 804 168
L 804 168
L 804 168
L 804 168
L 804 168
L 804 168
L 804 168
L 804 168
L 804 168
L 804 168
L 804 168
L 804 168
L 804 168
L 804 168
L 804 168
L 804 168
L 804 168
L 804 168
L 804 168
L 804 168
L 804 168
L 804 168
L 804 168
L 804 167
L 804 167
L 804 167
L 804 167
L 804 167
L 804 167
L 804 167
L 804 167
L 804 167
L 804 167
L 804 167
L 804 167
L 804 167
L 804 167
L 804 167
L 804 167
L 804 167
L 804 167
L 804 167
L 804 167
L 804 167
L 804 167
L 804 167
L 804 167
L 804 166
L 804 166
L 804 166
L 804 166
L 804 166
L 804 166
L 804 166
L 804 166
L 804 166
L 804 166
L 804 166
L 804 166
L 804 166
L 804 166
L 804 166
L 804 166
L 804 166
L 804 166
L 804 166
L 804 166
L 804 166
L 804 166
L 804 166
L 804 166
L 804 165
L 804 165
L 804 165
L 804 165
L 804 165
L 804 165
L 804 165
L 804 165
L 804 165
L 804 165
L 804 165
L 804 165
L 804 165
L 804 165
L 804 165
L 804 165
L 804 165
L 804 165
L 804 165
L 804 165
L 804 165
L 804 165
L 804 165
L 804 165
L 804 164
L 804 164
L 804 164
L 804 164
L 804 164
L 804 164
L 804 164
L 804 164
L 804 164
L 804 164
L 804 164
L 804 164
L 804 164
L 804 164
L 804 164
L 804 164
L 804 164
L 804 164
L 804 164
L 804 164
L 804 164
L 804 164
L 804 164
L 804 164
L 804 163
L 804 163
L 804 163
L 804 163
L 804 163
L 804 163
L 804 163
L 804 163
L 804 163
L 804 163
L 804 163
L 804 163
L 804 163
L 804 163
L 804 163
L 804 163
L 804 163
L 804 163
L 804 163
L 804 163
L 804 163
L 804 163
L 804 163
L 804 163
L 804 163
L 804 162
L 804 162
L 804 162
L 804 162
L 804 162
L 804 162
L 804 162
L 804 162
L 804 162
L 804 162
L 804 162
L 804 162
L 804 162
L 804 162
L 804 162
L 804 162
L 804 162
L 804 162
L 804 162
L 804 162
L 804 162
L 804 162
L 804 162
L 804 162
L 804 161
L 804 161
L 804 161
L 804 161
L 804 161
L 804 161
L 804 161
L 804 161
L 804 161
L 804 161
L 804 161
L 804 161
L 804 161
L 804 161
L 804 161
L 804 161
L 804 161
L 804 161
L 804 161
L 804 161
L 804 161
L 804 161
L 804 161
L 804 161
L 804 160
L 804 160
L 804 160
L 804 160
L 804 160
L 804 160
L 804 160
L 804 160
L 804 160
L 804 160
L 804 160
L 804 160
L 804 160
L 804 160
L 804 160
L 804 160
L 804 160
L 804 160
L 804 160
L 804 160
L 804 160
L 804 160
L 804 160
L 804 160
L 804 159
L 804 159
L 804 159
L 804 159
L 804 159
L 804 159
L 804 159
L 804 159
L 804 159
L 804 159
L 804 159
L 804 159
L 804 159
L 804 159
L 805 159
L 805 159
L 805 159
L 805 159
L 805 159
L 805 159
L 805 159
L 805 159
L 805 159
L 805 159
L 805 158
L 805 158
L 805 158
L 805 158
L 805 158
L 805 158
L 805 158
L 805 158
L 805 158
L 805 158
L 805 158
L 805 158
L 805 158
L 805 158
L 805 158
L 805 158
L 805 158
L 805 158
L 805 158
L 805 158
L 805 158
L 805 158
L 805 158
L 805 158
L 805 157
L 805 157
L 805 157
L 805 157
L 805 157
L 805 157
L 805 157
L 805 157
L 805 157
L 805 157
L 805 157
L 805 157
L 805 157
L 805 157
L 805 157
L 805 157
L 805 157
L 805 157
L 805 157
L 805 157
L 805 157
L 805 157
L 805 157
L 805 157
L 805 156
L 805 156
L 805 156
L 805 156
L 805 156
L 805 156
L 805 156
L 805 156
L 805 156
L 805 156
L 805 156
L 805 156
L 805 156
L 805 156
L 805 156
L 805 156
L 805 156
L 805 156
L 805 156
L 805 156
L 805 156
L 805 156
L 805 156
L 805 156
L 805 155
L 805 155
L 805 155
L 805 155
L 805 155
L 805 155
L 805 155
L 805 155
L 805 155
L 805 155
L 805 155
L 805 155
L 805 155
L 805 155
L 805 155
L 805 155
L 805 155
L 805 155
L 805 155
L 805 155
L 805 155
L 805 155
L 805 155
L 805 155
L 805 155
L 805 154
L 805 154
L 805 154
L 805 154
L 805 154
L 805 154
L 805 154
L 805 154
L 805 154
L 805 154
L 805 154
L 805 154
L 805 154
L 805 154
L 805 154
L 805 154
L 805 154
L 805 154
L 805 154
L 805 154
L 805 154
L 805 154
L 805 154
L 805 154
L 805 153
L 805 153
L 805 153
L 805 153
L 805 153
L 805 153
L 805 153
L 805 153
L 805 153
L 805 153
L 805 153
L 805 153
L 805 153
L 805 153
L 805 153
L 805 153
L 805 153
L 805 153
L 805 153
L 805 153
L 805 153
L 805 153
L 805 153
L 805 153
L 805 152
L 805 152
L 805 152
L 805 152
L 805 152
L 805 152
L 805 152
L 805 152
L 805 152
L 805 152
L 805 152
L 805 152
L 805 152
L 805 152
L 805 152
L 805 152
L 805 152
L 805 152
L 805 152
L 805 152
L 805 152
L 805 152
L 805 152
L 805 152
L 805 151
L 805 151
L 805 151
L 805 151
L 805 151
L 805 151
L 805 151
L 805 151
L 805 151
L 805 151
L 805 151
L 805 151
L 805 151
L 805 151
L 805 151
L 805 151
L 805 151
L 805 151
L 805 151
L 805 151
L 805 151
L 805 151
L 805 151
L 805 151
L 805 150
L 805 150
L 805 150
L 805 150
L 805 150
L 805 150
L 805 150
L 805 150
L 805 150
L 805 150
L 805 150
L 805 150
L 805 150
L 805 150
L 805 150
L 805 150
L 805 150
L 805 150
L 805 150
L 805 150
L 805 150
L 805 150
L 805 150
L 805 150
L 805 149
L 805 149
L 805 149
L 805 149
L 805 149
L 805 149
L 805 149
L 805 149
L 805 149
L 805 149
L 805 149
L 805 149
L 805 149
L 805 149
L 805 149
L 805 149
L 805 149
L 805 149
L 805 149
L 805 149
L 805 149
L 805 149
L 805 149
L 805 149
L 805 148
L 805 148
L 805 148
L 805 148
L 805 148
L 805 148
L 805 148
L 805 148
L 805 148
L 805 148
L 805 148
L 805 148
L 805 148
L 805 148
L 805 148
L 805 148
L 805 148
L 805 148
L 805 148
L 805 148
L 805 148
L 805 148
L 805 148
L 805 148
L 805 147
L 805 147
L 805 147
L 805 147
L 805 147
L 805 147
L 805 147
L 805 147
L 805 147
L 805 147
L 805 147
L 805 147
L 805 147
L 805 147
L 805 147
L 805 147
L 805 147
L 805 147
L 805 147
L 805 147
L 805 147
L 805 147
L 805 147
L 805 147
L 805 147
L 805 146
L 805 146
L 805 146
L 805 146
L 805 146
L 805 146
L 805 146
L 805 146
L 805 146
L 805 146
L 805 146
L 805 146
L 805 146
L 805 146
L 805 146
L 805 146
L 805 146
L 805 146
L 805 146
L 806 146
L 806 146
L 806 146
L 806 146
L 806 146
L 806 145
L 806 145
L 806 145
L 806 145
L 806 145
L 806 145
L 806 145
L 806 145
L 806 145
L 806 145
L 806 145
L 806 145
L 806 145
L 806 145
L 806 145
L 806 145
L 806 145
L 806 145
L 806 145
L 806 145
L 806 145
L 806 145
L 806 145
L 806 145
L 806 144
L 806 144
L 806 144
L 806 144
L 806 144
L 806 144
L 806 144
L 806 144
L 806 144
L 806 144
L 806 144
L 806 144
L 806 144
L 806 144
L 806 144
L 806 144
L 806 144
L 806 144
L 806 144
L 806 144
L 806 144
L 806 144
L 806 144
L 806 144
L 806 143
L 806 143
L 806 143
L 806 143
L 806 143
L 806 143
L 806 143
L 806 143
L 806 143
L 806 143
L 806 143
L 806 143
L 806 143
L 806 143
L 806 143
L 806 143
L 806 143
L 806 143
L 806 143
L 806 143
L 806 143
L 806 143
L 806 143
L 806 143
L 806 142
L 806 142
L 806 142
L 806 142
L 806 142
L 806 142
L 806 142
L 806 142
L 806 142
L 806 142
L 806 142
L 806 142
L 806 142
L 806 142
L 806 142
L 806 142
L 806 142
L 806 142
L 806 142
L 806 142
L 806 142
L 806 142
L 806 142
L 806 142
L 806 141
L 806 141
L 806 141
L 806 141
L 806 141
L 806 141
L 806 141
L 806 141
L 806 141
L 806 141
L 806 141
L 806 141
L 806 141
L 806 141
L 806 141
L 806 141
L 806 141
L 806 141
L 806 141
L 806 141
L 806 141
L 806 141
L 806 141
L 806 141
L 806 140
L 806 140
L 806 140
L 806 140
L 806 140
L 806 140
L 806 140
L 806 140
L 806 140
L 806 140
L 806 140
L 806 140
L 806 140
L 806 140
L 806 140
L 806 140
L 806 140
L 806 140
L 806 140
L 806 140
L 806 140
L 806 140
L 806 140
L 806 140
L 806 139
L 806 139
L 806 139
L 806 139
L 806 139
L 806 139
L 806 139
L 806 139
L 806 139
L 806 139
L 806 139
L 806 139
L 806 139
L 806 139
L 806 139
L 806 139
L 806 139
L 806 139
L 806 139
L 806 139
L 806 139
L 806 139
L 806 139
L 806 139
L 806 138
L 806 138
L 806 138
L 806 138
L 806 138
L 806 138
L 806 138
L 806 138
L 806 138
L 806 138
L 806 138
L 806 138
L 806 138
L 806 138
L 806 138
L 806 138
L 806 138
L 806 138
L 806 138
L 806 138
L 806 138
L 806 138
L 806 138
L 806 138
L 807 138
L 807 137
L 807 137
L 807 137
L 807 137
L 807 137
L 807 137
L 807 137
L 807 137
L 807 137
L 807 137
L 807 137
L 807 137
L 807 137
L 807 137
L 807 137
L 807 137
L 807 137
L 807 137
L 807 137
L 807 137
L 807 137
L 807 137
L 807 137
L 807 137
L 807 136
L 807 136
L 807 136
L 807 136
L 807 136
L 807 136
L 807 136
L 807 136
L 807 136
L 807 136
L 807 136
L 807 136
L 807 136
L 807 136
L 807 136
L 807 136
L 807 136
L 807 136
L 807 136
L 807 136
L 807 136
L 807 136
L 807 136
L 807 136
L 807 135
L 807 135
L 807 135
L 807 135
L 807 135
L 807 135
L 807 135
L 807 135
L 807 135
L 807 135
L 807 135
L 807 135
L 807 135
L 807 135
L 807 135
L 807 135
L 807 135
L 807 135
L 807 135
L 807 135
L 807 135
L 807 135
L 807 135
L 807 135
L 807 134
L 807 134
L 807 134
L 807 134
L 807 134
L 807 134
L 807 134
L 807 134
L 807 134
L 808 134
L 808 134
L 808 134
L 808 134
L 808 134
L 808 134
L 808 134
L 808 134
L 808 134
L 808 134
L 808 134
L 808 134
L 808 134
L 808 134
L 808 134
L 808 133
L 808 133
L 808 133
L 808 133
L 808 133
L 808 133
L 808 133
L 808 133
L 808 133
L 808 133
L 808 133
L 808 133
L 808 133
L 808 133
L 808 133
L 808 133
L 808 133
L 808 133
L 808 133
L 808 133
L 808 133
L 808 133
L 808 133
L 808 133
L 808 132
L 808 132
L 808 132
L 808 132
L 808 132
L 808 132
L 808 132
L 808 132
L 808 132
L 808 132
L 808 132
L 808 132
L 808 132
L 808 132
L 808 132
L 808 132
L 808 132
L 808 132
L 808 132
L 808 132
L 808 132
L 808 132
L 808 132
L 808 132
L 808 131
L 808 131
L 808 131
L 808 131
L 808 131
L 808 131
L 808 131
L 808 131
L 808 131
L 808 131
L 808 131
L 808 131
L 808 131
L 808 131
L 808 131
L 808 131
L 808 131
L 808 131
L 808 131
L 808 131
L 808 131
L 808 131
L 808 131
L 808 131
L 808 130
L 808 130
L 808 130
L 809 130
L 809 130
L 809 130
L 809 130
L 809 130
L 809 130
L 809 130
L 809 130
L 809 130
L 809 130
L 809 130
L 809 130
L 809 130
L 809 130
L 809 130
L 809 130
L 809 130
L 809 130
L 809 130
L 809 130
L 809 130
L 809 130
L 809 129
L 809 129
L 809 129
L 809 129
L 809 129
L 809 129
L 809 129
L 809 129
L 809 129
L 809 129
L 809 129
L 809 129
L 809 129
L 809 129
L 809 129
L 809 129
L 809 129
L 809 129
L 809 129
L 809 129
L 809 129
L 809 129
L 809 129
L 809 129
L 809 128
L 809 128
L 810 128
L 810 128
L 810 128
L 810 128
L 810 128
L 810 128
L 810 128
L 810 128
L 810 128
L 810 128
L 810 128
L 810 128
L 810 128
L 810 128
L 810 128
L 810 128
L 810 128
L 810 128
L 810 128
L 810 128
L 810 128
L 810 128
L 810 127
L 810 127
L 810 127
L 810 127
L 810 127
L 810 127
L 810 127
L 810 127
L 810 127
L 810 127
L 810 127
L 810 127
L 810 127
L 810 127
L 810 127
L 810 127
L 810 127
L 810 127
L 810 127
L 810 127
L 810 127
L 810 127
L 810 127
L 810 127
L 810 126
L 811 126
L 811 126
L 811 126
L 811 126
L 811 126
L 811 126
L 811 126
L 811 126
L 811 126
L 811 126
L 811 126
L 811 126
L 811 126
L 811 126
L 811 126
L 811 126
L 811 126
L 811 126
L 811 126
L 811 126
L 811 126
L 811 126
L 811 126
L 811 125
L 812 125
L 812 125
L 812 125
L 812 125
L 812 125
L 812 125
L 812 125
L 812 125
L 812 125
L 812 125
L 812 125
L 812 125
L 812 125
L 812 125
L 812 125
L 812 125
L 812 125
L 812 125
L 812 125
L 813 125
L 813 125
L 813 125
L 813 125
L 813 124
L 813 124
L 813 124
L 813 124
L 813 124
L 813 124
L 813 124
L 813 124
L 813 124
L 813 124
L 813 124
L 813 124
L 813 124
L 813 124
L 813 124
L 813 124
L 813 124
L 813 124
L 813 124
L 813 124
L 813 124
L 813 124
L 813 124
L 813 124
L 813 123
L 813 123
L 813 123
L 813 123
L 814 123
L 814 123
L 814 123
L 814 123
L 814 123
L 814 123
L 814 123
L 814 123
L 814 123
L 814 123
L 814 123
L 814 123
L 814 123
L 814 123
L 814 123
L 814 123
L 814 123
L 814 123
L 814 123
L 814 123
L 814 122
L 814 122
L 814 122
L 814 122
L 814 122
L 814 122
L 815 122
L 815 122
L 815 122
L 815 122
L 815 122
L 815 122
L 815 122
L 815 122
L 815 122
L 815 122
L 815 122
L 815 122
L 815 122
L 815 122
L 815 122
L 815 122
L 815 122
L 815 122
L 815 121
L 815 121
L 815 121
L 815 121
L 815 121
L 815 121
L 815 121
L 816 121
L 816 121
L 816 121
L 816 121
L 816 121
L 816 121
L 816 121
L 816 121
L 816 121
L 816 121
L 816 121
L 816 121
L 816 121
L 816 121
L 816 121
L 816 121
L 816 121
L 816 121
L 816 120
L 816 120
L 816 120
L 816 120
L 816 120
L 816 120
L 817 120
L 817 120
L 817 120
L 817 120
L 817 120
L 817 120
L 817 120
L 817 120
L 817 120
L 817 120
L 817 120
L 817 120
L 818 120
L 818 120
L 818 120
L 818 120
L 818 120
L 818 120
L 818 119
L 818 119
L 818 119
L 818 119
L 818 119
L 818 119
L 818 119
L 818 119
L 818 119
L 818 119
L 819 119
L 819 119
L 819 119
L 819 119
L 819 119
L 819 119
L 819 119
L 819 119
L 819 119
L 819 119
L 819 119
L 819 119
L 819 119
L 819 119
L 819 118
L 819 118
L 819 118
L 819 118
L 819 118
L 819 118
L 819 118
L 819 118
L 819 118
L 819 118
L 819 118
L 819 118
L 819 118
L 819 118
L 820 118
L 820 118
L 820 118
L 820 118
L 820 118
L 820 118
L 820 118
L 820 118
L 820 118
L 820 118
L 820 117
L 820 117
L 820 117
L 820 117
L 820 117
L 820 117
L 820 117
L 820 117
L 820 117
L 820 117
L 820 117
L 820 117
L 820 117
L 820 117
L 820 117
L 820 117
L 820 117
L 820 117
L 820 117
L 820 117
L 820 117
L 820 117
L 820 117
L 820 117
L 821 116
L 821 116
L 821 116
L 821 116
L 821 116
L 821 116
L 821 116
L 821 116
L 821 116
L 821 116
L 821 116
L 821 116
L 821 116
L 821 116
L 821 116
L 821 116
L 821 116
L 821 116
L 821 116
L 821 116
L 821 116
L 821 116
L 821 116
L 821 116
L 821 115
L 821 115
L 821 115
L 821 115
L 821 115
L 821 115
L 821 115
L 821 115
L 821 115
L 821 115
L 821 115
L 821 115
L 821 115
L 821 115
L 821 115
L 821 115
L 821 115
L 821 115
L 821 115
L 821 115
L 821 115
L 821 115
L 821 115
L 821 115
L 821 114
L 821 114
L 821 114
L 821 114
L 821 114
L 821 114
L 821 114
L 821 114
L 821 114
L 821 114
L 821 114
L 821 114
L 821 114
L 822 114
L 822 114
L 822 114
L 822 114
L 822 114
L 822 114
L 822 114
L 822 114
L 822 114
L 822 114
L 822 114
L 822 113
L 822 113
L 822 113
L 822 113
L 822 113
L 822 113
L 822 113
L 822 113
L 822 113
L 822 113
L 822 113
L 822 113
L 822 113
L 822 113
L 822 113
L 822 113
L 822 113
L 822 113
L 822 113
L 822 113
L 822 113
L 822 113
L 822 113
L 822 113
L 822 113
L 822 112
L 823 112
L 823 112
L 823 112
L 823 112
L 823 112
L 823 112
L 823 112
L 823 112
L 823 112
L 823 112
L 823 112
L 823 112
L 823 112
L 823 112
L 824 112
L 824 112
L 824 112
L 824 112
L 824 112
L 824 112
L 824 112
L 824 112
L 824 112
L 824 111
L 824 111
L 824 111
L 824 111
L 824 111
L 824 111
L 824 111
L 824 111
L 824 111
L 824 111
L 824 111
L 824 111
L 824 111
L 824 111
L 824 111
L 824 111
L 824 111
L 824 111
L 824 111
L 824 111
L 824 111
L 824 111
L 824 111
L 824 111
L 824 110
L 824 110
L 824 110
L 824 110
L 824 110
L 824 110
L 824 110
L 825 110
L 825 110
L 825 110
L 825 110
L 825 110
L 825 110
L 825 110
L 825 110
L 825 110
L 825 110
L 825 110
L 825 110
L 825 110
L 825 110
L 825 110
L 825 110
L 825 110
L 825 109
L 825 109
L 825 109
L 825 109
L 825 109
L 825 109
L 825 109
L 825 109
L 825 109
L 825 109
L 825 109
L 825 109
L 825 109
L 825 109
L 825 109
L 825 109
L 825 109
L 825 109
L 826 109
L 826 109
L 826 109
L 826 109
L 826 109
L 826 109
L 826 108
L 826 108
L 826 108
L 826 108
L 826 108
L 826 108
L 826 108
L 826 108
L 826 108
L 826 108
L 826 108
L 826 108
L 826 108
L 826 108
L 827 108
L 827 108
L 827 108
L 827 108
L 827 108
L 827 108
L 827 108
L 827 108
L 827 108
L 827 108
L 827 107
L 827 107
L 827 107
L 828 107
L 828 107
L 828 107
L 828 107
L 828 107
L 828 107
L 829 107
L 829 107
L 829 107
L 829 107
L 829 107
L 829 107
L 829 107
L 829 107
L 830 107
L 830 107
L 830 107
L 830 107
L 830 107
L 830 107
L 830 107
L 830 106
L 830 106
L 830 106
L 830 106
L 830 106
L 830 106
L 830 106
L 830 106
L 831 106
L 831 106
L 831 106
L 831 106
L 831 106
L 831 106
L 831 106
L 831 106
L 831 106
L 831 106
L 831 106
L 832 106
L 832 106
L 832 106
L 832 106
L 832 106
L 832 105
L 832 105
L 832 105
L 832 105
L 832 105
L 832 105
L 832 105
L 832 105
L 832 105
L 832 105
L 833 105
L 833 105
L 833 105
L 833 105
L 833 105
L 833 105
L 833 105
L 833 105
L 834 105
L 834 105
L 834 105
L 834 105
L 834 105
L 834 105
L 834 104
L 834 104
L 835 104
L 835 104
L 835 104
L 835 104
L 835 104
L 835 104
L 835 104
L 835 104
L 835 104
L 835 104
L 835 104
L 836 104
L 836 104
L 836 104
L 836 104
L 836 104
L 836 104
L 836 104
L 836 104
L 836 104
L 836 104
L 836 104
L 836 104
L 836 103
L 837 103
L 837 103
L 837 103
L 837 103
L 837 103
L 837 103
L 837 103
L 837 103
L 837 103
L 837 103
L 837 103
L 837 103
L 838 103
L 838 103
L 838 103
L 838 103
L 838 103
L 838 103
L 838 103
L 838 103
L 838 103
L 838 103
L 838 103
L 838 102
L 838 102
L 838 102
L 838 102
L 838 102
L 839 102
L 839 102
L 839 102
L 839 102
L 839 102
L 839 102
L 839 102
L 840 102
L 840 102
L 840 102
L 840 102
L 840 102
L 840 102
L 840 102
L 840 102
L 840 102
L 840 102
L 841 102
L 841 102
L 841 101
L 841 101
L 841 101
L 841 101
L 841 101
L 841 101
L 841 101
L 841 101
L 841 101
L 841 101
L 841 101
L 841 101
L 841 101
L 841 101
L 841 101
L 842 101
L 842 101
L 842 101
L 842 101
L 842 101
L 842 101
L 842 101
L 842 101
L 842 101
L 842 100
L 842 100
L 842 100
L 843 100
L 843 100
L 843 100
L 843 100
L 843 100
L 843 100
L 843 100
L 843 100
L 843 100
L 844 100
L 844 100
L 844 100
L 844 100
L 844 100
L 844 100
L 844 100
L 844 100
L 844 100
L 845 100
L 845 100
L 845 100
L 845 99
L 845 99
L 845 99
L 845 99
L 845 99
L 846 99
L 846 99
L 846 99
L 846 99
L 846 99
L 846 99
L 846 99
L 846 99
L 846 99
L 846 99
L 846 99
L 846 99
L 846 99
L 846 99
L 846 99
L 846 99
L 846 99
L 846 99
L 846 99
L 846 98
L 846 98
L 846 98
L 846 98
L 846 98
L 847 98
L 847 98
L 847 98
L 847 98
L 847 98
L 847 98
L 847 98
L 847 98
L 847 98
L 847 98
L 847 98
L 847 98
L 847 98
L 847 98
L 847 98
L 847 98
L 847 98
L 847 98
L 847 98
L 847 97
L 847 97
L 847 97
L 847 97
L 847 97
L 847 97
L 847 97
L 847 97
L 847 97
L 847 97
L 847 97
L 847 97
L 848 97
L 848 97
L 848 97
L 848 97
L 848 97
L 848 97
L 848 97
L 848 97
L 848 97
L 848 97
L 848 97
L 848 97
L 848 96
L 848 96
L 848 96
L 848 96
L 848 96
L 848 96
L 848 96
L 848 96
L 848 96
L 848 96
L 848 96
L 848 96
L 848 96
L 848 96
L 848 96
L 848 96
L 848 96
L 848 96
L 848 96
L 849 96
L 849 96
L 849 96
L 849 96
L 849 96
L 849 96
L 849 95
L 849 95
L 849 95
L 849 95
L 849 95
L 849 95
L 849 95
L 850 95
L 850 95
L 850 95
L 850 95
L 850 95
L 850 95
L 850 95
L 850 95
L 850 95
L 850 95
L 851 95
L 851 95
L 851 95
L 851 95
L 851 95
L 851 95
L 851 95
L 851 94
L 851 94
L 851 94
L 851 94
L 851 94
L 851 94
L 851 94
L 851 94
L 852 94
L 852 94
L 852 94
L 852 94
L 852 94
L 852 94
L 852 94
L 852 94
L 852 94
L 852 94
L 852 94
L 852 94
L 852 94
L 852 94
L 853 94
L 853 94
L 853 93
L 853 93
L 853 93
L 853 93
L 853 93
L 853 93
L 853 93
L 854 93
L 854 93
L 854 93
L 854 93
L 854 93
L 854 93
L 854 93
L 854 93
L 854 93
L 854 93
L 854 93
L 854 93
L 854 93
L 854 93
L 854 93
L 854 93
L 854 93
L 854 92
L 854 92
L 854 92
L 855 92
L 855 92
L 855 92
L 855 92
L 855 92
L 855 92
L 855 92
L 855 92
L 855 92
L 855 92
L 856 92
L 856 92
L 856 92
L 856 92
L 856 92
L 856 92
L 856 92
L 856 92
L 856 92
L 857 92
L 857 92
L 857 91
L 857 91
L 857 91
L 857 91
L 857 91
L 857 91
L 857 91
L 857 91
L 857 91
L 857 91
L 858 91
L 858 91
L 858 91
L 858 91
L 858 91
L 858 91
L 858 91
L 858 91
L 858 91
L 858 91
L 858 91
L 858 91
L 858 91
L 858 91
L 858 90
L 858 90
L 859 90
L 859 90
L 859 90
L 859 90
L 859 90
L 859 90
L 859 90
L 859 90
L 860 90
L 860 90
L 860 90
L 860 90
L 860 90
L 860 90
L 860 90
L 860 90
L 860 90
L 860 90
L 861 90
L 861 90
L 861 90
L 861 90
L 861 89
L 861 89
L 861 89
L 861 89
L 861 89
L 861 89
L 862 89
L 862 89
L 862 89
L 862 89
L 862 89
L 862 89
L 862 89
L 862 89
L 862 89
L 862 89
L 862 89
L 862 89
L 862 89
L 862 89
L 862 89
L 862 89
L 862 89
L 862 89
L 862 88
L 862 88
L 862 88
L 863 88
L 863 88
L 863 88
L 863 88
L 863 88
L 863 88
L 863 88
L 863 88
L 863 88
L 863 88
L 863 88
L 863 88
L 863 88
L 863 88
L 863 88
L 864 88
L 864 88
L 864 88
L 864 88
L 864 88
L 864 88
L 864 87
L 864 87
L 865 87
L 865 87
L 865 87
L 865 87
L 865 87
L 865 87
L 865 87
L 865 87
L 865 87
L 865 87
L 865 87
L 865 87
L 866 87
L 866 87
L 866 87
L 866 87
L 866 87
L 866 87
L 866 87
L 866 87
L 867 87
L 867 87
L 867 87
L 867 86
L 867 86
L 867 86
L 867 86
L 867 86
L 867 86
L 867 86
L 868 86
L 868 86
L 868 86
L 868 86
L 868 86
L 868 86
L 868 86
L 868 86
L 868 86
L 868 86
L 868 86
L 868 86
L 868 86
L 869 86
L 869 86
L 869 86
L 869 86
L 869 85
L 869 85
L 869 85
L 869 85
L 869 85
L 869 85
L 869 85
L 869 85
L 869 85
L 869 85
L 870 85
L 870 85
L 870 85
L 870 85
L 870 85
L 870 85
L 870 85
L 870 85
L 870 85
L 870 85
L 870 85
L 870 85
L 870 85
L 870 85
L 871 84
L 871 84
L 871 84
L 871 84
L 871 84
L 871 84
L 872 84
L 872 84
L 872 84
L 872 84
L 872 84
L 872 84
L 872 84
L 873 84
L 873 84
L 873 84
L 873 84
L 873 84
L 873 84
L 873 84
L 873 84
L 873 84
L 873 84
L 873 84
L 873 83
L 873 83
L 873 83
L 873 83
L 873 83
L 873 83
L 874 83
L 874 83
L 874 83
L 874 83
L 874 83
L 874 83
L 874 83
L 874 83
L 874 83
L 874 83
L 875 83
L 875 83
L 875 83
L 875 83
L 875 83
L 875 83
L 875 83
L 875 83
L 875 82
L 875 82
L 875 82
L 875 82
L 875 82
L 875 82
L 875 82
L 875 82
L 875 82
L 875 82
L 875 82
L 875 82
L 875 82
L 875 82
L 875 82
L 875 82
L 875 82
L 875 82
L 875 82
L 875 82
L 875 82
L 875 82
L 875 82
L 875 82
L 875 81
L 875 81
L 875 81
L 875 81
L 875 81
L 875 81
L 875 81
L 875 81
L 875 81
L 875 81
L 875 81
L 875 81
L 875 81
L 875 81
L 875 81
L 875 81
L 876 81
L 876 81
L 876 81
L 876 81
L 876 81
L 876 81
L 876 81
L 876 81
L 876 80
L 876 80
L 876 80
L 876 80
L 876 80
L 876 80
L 876 80
L 876 80
L 876 80
L 876 80
L 876 80
L 876 80
L 876 80
L 876 80
L 876 80
L 876 80
L 876 80
L 876 80
L 876 80
L 876 80
L 876 80
L 876 80
L 876 80
L 876 80
L 876 79
L 876 79
L 876 79
L 876 79
L 876 79
L 876 79
L 876 79
L 876 79
L 876 79
L 876 79
L 877 79
L 877 79
L 877 79
L 877 79
L 877 79
L 877 79
L 877 79
L 877 79
L 877 79
L 877 79
L 877 79
L 877 79
L 877 79
L 877 79
L 877 79
L 877 78
L 877 78
L 877 78
L 877 78
L 877 78
L 877 78
L 878 78
L 878 78
L 878 78
L 878 78
L 878 78
L 878 78
L 878 78
L 878 78
L 878 78
L 878 78
L 878 78
L 878 78
L 878 78
L 878 78
L 879 78
L 879 78
L 879 78
L 879 78
L 879 77
L 879 77
L 879 77
L 879 77
L 879 77
L 879 77
L 879 77
L 879 77
L 879 77
L 879 77
L 879 77
L 879 77
L 879 77
L 879 77
L 879 77
L 879 77
L 879 77
L 879 77
L 879 77
L 879 77
L 879 77
L 879 77
L 879 77
L 879 77
L 879 76
L 879 76
L 879 76
L 879 76
L 879 76
L 879 76
L 879 76
L 879 76
L 879 76
L 879 76
L 879 76
L 879 76
L 879 76
L 879 76
L 880 76
L 880 76
L 880 76
L 880 76
L 880 76
L 880 76
L 880 76
L 880 76
L 880 76
L 880 76
L 880 75
L 880 75
L 880 75
L 880 75
L 880 75
L 880 75
L 880 75
L 880 75
L 880 75
L 880 75
L 880 75
L 880 75
L 880 75
L 880 75
L 880 75
L 880 75
L 880 75
L 880 75
L 880 75
L 880 75
L 880 75
L 880 75
L 880 75
L 880 75
L 880 74
L 880 74
L 880 74
L 880 74
L 880 74
L 880 74
L 880 74
L 880 74
L 880 74
L 880 74
L 880 74
L 880 74
L 880 74
L 880 74
L 880 74
L 880 74
L 880 74
L 880 74
L 880 74
L 880 74
L 880 74
L 880 74
L 880 74
L 880 74
L 880 73
L 880 73
L 880 73
L 880 73
L 880 73
L 880 73
L 880 73
L 880 73
L 880 73
L 880 73
L 880 73
L 880 73
L 880 73
L 880 73
L 880 73
L 881 73
L 881 73
L 881 73
L 881 73
L 881 73
L 881 73
L 881 73
L 881 73
L 881 73
L 881 72
L 881 72
L 881 72
L 881 72
L 881 72
L 881 72
L 881 72
L 881 72
L 881 72
L 881 72
L 881 72
L 881 72
L 881 72
L 881 72
L 881 72
L 881 72
L 881 72
L 881 72
L 881 72
L 881 72
L 881 72
L 881 72
L 881 72
L 881 72
L 881 71
L 881 71
L 881 71
L 881 71
L 881 71
L 881 71
L 881 71
L 881 71
L 881 71
L 881 71
L 881 71
L 881 71
L 881 71
L 881 71
L 881 71
L 881 71
L 881 71
L 881 71
L 881 71
L 881 71
L 881 71
L 882 71
L 882 71
L 882 71
L 882 70
L 882 70
L 882 70
L 882 70
L 882 70
L 882 70
L 882 70
L 882 70
L 882 70
L 882 70
L 882 70
L 882 70
L 882 70
L 882 70
L 882 70
L 882 70
L 882 70
L 882 70
L 882 70
L 882 70
L 882 70
L 882 70
L 882 70
L 882 70
L 882 70
L 882 69
L 882 69
L 882 69
L 882 69
L 882 69
L 882 69
L 882 69
L 882 69
L 882 69
L 882 69
L 882 69
L 882 69
L 882 69
L 882 69
L 882 69
L 882 69
L 882 69
L 882 69
L 883 69
L 883 69
L 883 69
L 883 69
L 883 69
L 883 69
L 883 68
L 883 68
L 883 68
L 883 68
L 883 68
L 883 68
L 883 68
L 883 68
L 883 68
L 883 68
L 883 68
L 883 68
L 883 68
L 883 68
L 883 68
L 883 68
L 884 68
L 884 68
L 884 68
L 884 68
L 884 68
L 884 68
L 884 68
L 884 68
L 884 67
L 884 67
L 884 67
L 884 67
L 884 67
L 884 67
L 884 67
L 884 67
L 884 67
L 884 67
L 884 67
L 884 67
L 884 67
L 884 67
L 884 67
L 884 67
L 884 67
L 884 67
L 884 67
L 884 67
L 884 67
L 884 67
L 884 67
L 884 67
L 884 66
L 884 66
L 885 66
L 885 66
L 885 66
L 885 66
L 885 66
L 885 66
L 885 66
L 885 66
L 885 66
L 885 66
L 885 66
L 885 66
L 885 66
L 885 66
L 885 66
L 885 66
L 885 66
L 885 66
L 885 66
L 885 66
L 885 66
L 885 66
L 885 65
L 885 65
L 885 65
L 885 65
L 886 65
L 886 65
L 886 65
L 886 65
L 886 65
L 886 65
L 886 65
L 886 65
L 886 65
L 886 65
L 886 65
L 886 65
L 886 65
L 886 65
L 886 65
L 886 65
L 887 65
L 887 65
L 887 65
L 887 65
L 887 64
L 887 64
L 887 64
L 887 64
L 887 64
L 887 64
L 887 64
L 887 64
L 887 64
L 887 64
L 888 64
L 888 64
L 888 64
L 888 64
L 888 64
L 888 64
L 888 64
L 888 64
L 888 64
L 888 64
L 888 64
L 888 64
L 888 64
L 888 64
L 888 63
L 889 63
L 889 63
L 889 63
L 889 63
L 889 63
L 889 63
L 889 63
L 889 63
L 890 63
L 890 63
L 890 63
L 890 63
L 890 63
L 890 63
L 890 63
L 890 63
L 890 63
L 890 63
L 890 63
L 890 63
L 890 63
L 890 63
L 890 63
L 890 62
L 890 62
L 890 62
L 890 62
L 890 62
L 890 62
L 890 62
L 890 62
L 890 62
L 890 62
L 890 62
L 890 62
L 890 62
L 890 62
L 890 62
L 890 62
L 890 62
L 891 62
L 891 62
L 891 62
L 891 62
L 891 62
L 891 62
L 891 62
L 891 62
L 891 61
L 891 61
L 891 61
L 891 61
L 891 61
L 891 61
L 891 61
L 891 61
L 891 61
L 891 61
L 891 61
L 891 61
L 891 61
L 891 61
L 891 61
L 891 61
L 891 61
L 891 61
L 891 61
L 891 61
L 891 61
L 891 61
L 892 61
L 892 61
L 892 60
L 892 60
L 892 60
L 892 60
L 892 60
L 892 60
L 892 60
L 892 60
L 892 60
L 892 60
L 892 60
L 892 60
L 892 60
L 892 60
L 892 60
L 892 60
L 892 60
L 892 60
L 892 60
L 892 60
L 892 60
L 892 60
L 892 60
L 893 60
L 893 59
L 893 59
L 893 59
L 893 59
L 893 59
L 893 59
L 893 59
L 893 59
L 893 59
L 893 59
L 893 59
L 893 59
L 893 59
L 893 59
L 893 59
L 894 59
L 894 59
L 894 59
L 894 59
L 894 59
L 894 59
L 894 59
L 894 59
L 894 59
L 894 58
L 894 58
L 894 58
L 894 58
L 894 58
L 894 58
L 894 58
L 894 58
L 894 58
L 894 58
L 894 58
L 894 58
L 894 58
L 894 58
L 894 58
L 894 58
L 894 58
L 894 58
L 894 58
L 895 58
L 895 58
L 895 58
L 895 58
L 895 58
L 895 57
L 895 57
L 895 57
L 895 57
L 895 57
L 895 57
L 895 57
L 896 57
L 896 57
L 896 57
L 896 57
L 896 57
L 896 57
L 896 57
L 896 57
L 897 57
L 897 57
L 897 57
L 897 57
L 897 57
L 897 57
L 897 57
L 897 57
L 897 57
L 897 56
L 897 56
L 897 56
L 897 56
L 897 56
L 897 56
L 897 56
L 897 56
L 897 56
L 897 56
L 897 56
L 897 56
L 897 56
L 898 56
L 898 56
L 898 56
L 898 56
L 898 56
L 898 56
L 898 56
L 898 56
L 898 56
L 898 56
L 898 56
L 898 55
L 898 55
L 898 55
L 898 55
L 898 55
L 898 55
L 898 55
L 898 55
L 898 55
L 898 55
L 898 55
L 898 55
L 898 55
L 898 55
L 898 55
L 898 55
L 898 55
L 898 55
L 898 55
L 898 55
L 898 55
L 898 55
L 898 55
L 898 55
L 898 54
L 898 54
L 898 54
L 899 54
L 899 54
L 899 54
L 899 54
L 899 54
L 899 54
L 899 54
L 899 54
L 899 54
L 899 54
L 899 54
L 899 54
L 899 54
L 900 54
L 900 54
L 900 54
L 900 54
L 900 54
L 900 54
L 900 54
L 900 54
L 900 53
L 900 53
L 900 53
L 900 53
L 901 53
L 901 53
L 901 53
L 901 53
L 901 53
L 901 53
L 901 53
L 901 53
L 901 53
L 901 53
L 901 53
L 901 53
L 901 53
L 901 53
L 901 53
L 901 53
L 901 53
L 901 53
L 901 53
L 902 53
L 902 53
L 902 52
L 902 52
L 902 52
L 902 52
L 902 52
L 902 52
L 902 52
L 902 52
L 902 52
L 902 52
L 902 52
L 903 52
L 903 52
L 903 52
L 903 52
L 903 52
L 903 52
L 903 52
L 903 52
L 903 52
L 903 52
L 903 52
L 903 52
L 904 52
L 904 51
L 904 51
L 904 51
L 904 51
L 904 51
L 905 51
L 905 51
L 905 51
L 905 51
L 905 51
L 905 51
L 905 51
L 906 51
L 906 51
L 906 51
L 906 51
L 906 51
L 906 51
L 906 51
L 906 51
L 906 51
L 906 51
L 906 51
L 906 51
L 906 50
L 906 50
L 907 50
L 908 50
L 908 50
L 908 50
L 908 50
L 908 50
L 908 50
L 908 50
L 908 50
L 908 50
L 909 50
L 909 50
L 909 50
L 909 50
L 909 50
L 909 50
L 909 50
L 909 50
L 909 50
L 909 50
L 909 50
L 910 50
L 910 49
L 910 49
L 910 49
L 910 49
L 910 49
L 911 49
L 911 49
L 911 49
L 911 49
L 911 49
L 911 49
L 911 49
L 912 49
L 912 49
L 912 49
L 912 49
L 912 49
L 912 49
L 912 49
L 912 49
L 912 49
L 912 49
L 912 49
L 912 49
L 913 48
L 913 48
L 913 48
L 913 48
L 913 48
L 913 48
L 913 48
L 913 48
L 913 48
L 913 48
L 913 48
L 913 48
L 913 48
L 913 48
L 913 48
L 913 48
L 913 48
L 913 48
L 913 48
L 913 48
L 913 48
L 913 48
L 914 48
L 914 48
L 914 47
L 914 47
L 914 47
L 914 47
L 914 47
L 914 47
L 914 47
L 914 47
L 914 47
L 914 47
L 914 47
L 914 47
L 914 47
L 914 47
L 914 47
L 914 47
L 914 47
L 914 47
L 914 47
L 914 47
L 914 47
L 914 47
L 914 47
L 914 47
L 914 46
L 914 46
L 914 46
L 914 46
L 915 46
L 915 46
L 915 46
L 915 46
L 915 46
L 915 46
L 915 46
L 915 46
L 915 46
L 915 46
L 915 46
L 915 46
L 915 46
L 916 46
L 916 46
L 916 46
L 916 46
L 917 46
L 917 46
L 917 46
L 917 45
L 917 45
L 917 45
L 917 45
L 917 45
L 917 45
L 917 45
L 918 45
L 918 45
L 918 45
L 918 45
L 918 45
L 918 45
L 918 45
L 918 45
L 918 45
L 918 45
L 918 45
L 919 45
L 919 45
L 919 45
L 919 45
L 919 45
L 919 45
L 919 45
L 920 44
L 920 44
L 920 44
L 920 44
L 920 44
L 920 44
L 920 44
L 920 44
L 920 44
L 920 44
L 920 44
L 921 44
L 921 44
L 921 44
L 921 44
L 921 44
L 921 44
L 921 44
L 921 44
L 922 44
L 922 44
L 922 44
L 922 44
L 922 44
L 923 43
L 923 43
L 923 43
L 923 43
L 923 43
L 923 43
L 923 43
L 923 43
L 923 43
L 923 43
L 923 43
L 923 43
L 924 43
L 924 43
L 924 43
L 924 43
L 924 43
L 924 43
L 924 43
L 924 43
L 924 43
L 924 43
L 924 43
L 924 43
L 924 42
L 924 42
L 924 42
L 924 42
L 924 42
L 924 42
L 924 42
L 924 42
L 924 42
L 924 42
L 924 42
L 924 42
L 924 42
L 924 42
L 924 42
L 925 42
L 925 42
L 925 42
L 925 42
L 925 42
L 925 42
L 925 42
L 925 42
L 925 42
L 925 41
L 925 41
L 925 41
L 925 41
L 925 41
L 925 41
L 925 41
L 926 41
L 926 41
L 926 41
L 926 41
L 926 41
L 926 41
L 926 41
L 926 41
L 926 41
L 926 41
L 926 41
L 927 41
L 927 41
L 927 41
L 927 41
L 927 41
L 927 41
L 927 40
L 927 40
L 927 40
L 927 40
L 927 40
L 928 40
L 928 40
L 928 40
L 928 40
L 928 40
L 928 40
L 928 40
L 928 40
L 928 40
L 928 40
L 928 40
L 928 40
L 928 40
L 928 40
L 929 40
L 929 40
L 929 40
L 929 40
L 929 40
L 929 39
L 929 39
L 929 39
L 929 39
L 929 39
L 929 39
L 929 39
L 929 39
L 929 39
L 930 39
L 930 39
L 930 39
L 930 39
L 930 39
L 930 39
L 930 39
L 930 39
L 930 39
L 930 39
L 930 39
L 931 39
L 931 39
L 931 39
L 931 39
L 931 38
L 931 38
L 931 38
L 931 38
L 931 38
L 931 38
L 931 38
L 931 38
L 931 38
L 931 38
L 931 38
L 931 38
L 932 38
L 932 38
L 932 38
L 932 38
L 932 38
L 932 38
L 932 38
L 933 38
L 933 38
L 933 38
L 933 38
L 933 38
L 933 37
L 933 37
L 934 37
L 934 37
L 934 37
L 934 37
L 934 37
L 934 37
L 934 37
L 934 37
L 934 37
L 935 37
L 935 37
L 935 37
L 935 37
L 935 37
L 935 37
L 935 37
L 935 37
L 935 37
L 936 37
L 936 37
L 936 37
L 936 37
L 936 36
L 936 36
L 936 36
L 936 36
L 937 36
L 937 36
L 937 36
L 937 36
L 937 36
L 937 36
L 938 36
L 938 36
L 938 36
L 938 36
L 939 36
L 939 36
L 939 36
L 939 36
L 939 36
L 939 36
L 939 36
L 939 36
L 940 36
L 940 36
L 940 36
L 940 35
L 940 35
L 940 35
L 940 35
L 940 35
L 940 35
L 940 35
L 940 35
L 941 35
L 941 35
L 941 35
L 941 35
L 941 35
L 941 35
L 941 35
L 941 35
L 941 35
L 941 35
L 941 35
L 941 35
L 941 35
L 941 35
L 941 35
L 942 35
L 942 34
L 942 34
L 942 34
L 942 34
L 942 34
L 942 34
L 942 34
L 942 34
L 942 34
L 942 34
L 942 34
L 942 34
L 942 34
L 942 34
L 942 34
L 942 34
L 942 34
L 942 34
L 942 34
L 943 34
L 943 34
L 943 34
L 943 34
L 943 34
L 943 33
L 943 33
L 944 33
L 944 33
L 944 33
L 944 33
L 944 33
L 944 33
L 944 33
L 945 33
L 945 33
L 945 33
L 945 33
L 945 33
L 945 33
L 945 33
L 945 33
L 945 33
L 945 33
L 945 33
L 945 33
L 945 33
L 945 33
L 945 33
L 946 32
L 946 32
L 946 32
L 946 32
L 946 32
L 946 32
L 946 32
L 946 32
L 946 32
L 946 32
L 946 32
L 946 32
L 947 32
L 947 32
L 947 32
L 947 32
L 948 32
L 948 32
L 948 32
L 949 32
L 949 32
L 949 32
L 949 32
L 950 32
L 950 31
L 950 31
L 950 31
L 950 31
L 950 31
L 950 31
L 950 31
L 950 31
L 950 31
L 951 31
L 951 31
L 951 31
L 951 31
L 951 31
L 951 31
L 951 31
L 951 31
L 951 31
L 951 31
L 952 31
L 952 31
L 952 31
L 952 31
L 952 31
L 952 30
L 952 30
L 952 30
L 952 30
L 952 30
L 952 30
L 952 30
L 952 30
L 952 30
L 952 30
L 952 30
L 952 30
L 952 30
L 952 30
L 953 30
L 953 30
L 953 30
L 953 30
L 953 30
L 953 30
L 953 30
L 953 30
L 953 30
L 953 30
L 953 29
L 953 29
L 953 29
L 953 29
L 953 29
L 953 29
L 953 29
L 953 29
L 953 29
L 953 29
L 953 29
L 953 29
L 953 29
L 953 29
L 953 29
L 954 29
L 954 29
L 954 29
L 954 29
L 954 29
L 954 29
L 954 29
L 954 29
L 954 29
L 954 28
L 954 28
L 954 28
L 954 28
L 954 28
L 954 28
L 954 28
L 954 28
L 954 28
L 954 28
L 954 28
L 954 28
L 954 28
L 955 28
L 955 28
L 955 28
L 955 28
L 955 28
L 955 28
L 955 28
L 955 28
L 955 28
L 955 28
L 955 28
L 955 28
L 955 27
L 955 27
L 955 27
L 955 27
L 955 27
L 955 27
L 955 27
L 955 27
L 955 27
L 955 27
L 955 27
L 956 27
L 956 27
L 956 27
L 956 27
L 956 27
L 956 27
L 956 27
L 956 27
L 956 27
L 956 27
L 956 27
L 956 27
L 956 27
L 956 26
L 956 26
L 956 26
L 956 26
L 956 26
L 956 26
L 956 26
L 956 26
L 956 26
L 956 26
L 956 26
L 956 26
L 956 26
L 956 26
L 956 26
L 956 26
L 956 26
L 956 26
L 956 26
L 956 26
L 956 26
L 956 26
L 956 26
L 956 26
L 956 25
L 956 25
L 956 25
L 956 25
L 956 25
L 956 25
L 956 25
L 956 25
L 956 25
L 956 25
L 956 25
L 956 25
L 956 25
L 956 25
L 956 25
L 956 25
L 956 25
L 956 25
L 956 25
L 956 25
L 956 25
L 956 25
L 956 25
L 956 25
L 956 24
L 956 24
L 956 24
L 956 24
L 956 24
L 956 24
L 956 24
L 956 24
L 956 24
L 956 24
L 956 24
L 956 24
L 956 24
L 956 24
L 956 24
L 956 24
L 956 24
L 956 24
L 956 24
L 956 24
L 956 24
L 956 24
L 956 24
L 956 24
L 956 23
L 956 23
L 956 23
L 956 23
L 956 23
L 956 23
L 956 23
L 956 23
L 956 23
L 956 23
L 956 23
L 956 23
L 956 23
L 956 23
L 956 23
L 956 23
L 956 23
L 956 23
L 956 23
L 956 23
L 956 23
L 956 23
L 956 23
L 956 23
L 956 22
L 956 22
L 956 22
L 956 22
L 956 22
L 956 22
L 956 22
L 956 22
L 956 22
L 956 22
L 956 22
L 956 22
L 956 22
L 956 22
L 956 22
L 956 22
L 956 22
L 956 22
L 956 22
L 956 22
L 956 22
L 956 22
L 956 22
L 956 22
L 956 21
L 956 21
L 956 21
L 956 21
L 956 21
L 956 21
L 956 21
L 956 21
L 956 21
L 956 21
L 956 21
L 956 21
L 956 21
L 956 21
L 956 21
L 956 21
L 956 21
L 956 21
L 956 21
L 956 21
L 956 21
L 956 21
L 956 21
L 956 21
L 956 20
L 956 20
L 956 20
L 956 20
L 956 20
L 956 20
L 956 20
L 956 20
L 956 20
L 956 20
L 956 20
L 956 20
L 956 20
L 956 20
L 956 20
L 956 20
L 956 20
L 956 20
L 956 20
L 956 20
L 956 20
L 956 20
L 956 20
L 956 20
L 956 19
L 956 19
L 956 19
L 956 19
L 956 19
L 956 19
L 956 19
L 956 19
L 956 19
L 956 19
L 956 19
L 956 19
L 956 19
L 956 19
L 956 19
L 956 19
L 956 19
L 956 19
L 956 19
L 956 19
L 956 19
L 956 19
L 957 19
L 957 19
L 957 19
L 957 18
L 957 18
L 957 18
L 957 18
L 957 18
L 957 18
L 957 18
L 957 18
L 957 18
L 957 18
L 957 18
L 957 18
L 957 18
L 957 18
L 957 18
L 957 18
L 957 18
L 957 18
L 957 18
L 957 18
L 957 18
L 957 18
L 957 18
L 957 18
L 957 17
L 957 17
L 957 17
L 957 17
L 957 17
L 957 17
L 957 17
L 957 17
L 957 17
L 957 17
L 957 17
L 957 17
L 957 17
L 957 17
L 957 17
L 957 17
L 957 17
L 957 17
L 957 17
L 957 17
L 957 17
L 957 17
L 957 17
L 957 17
L 957 16
L 957 16
L 957 16
L 957 16
L 957 16
L 957 16
L 957 16
L 957 16
L 957 16
L 957 16
L 957 16
L 957 16
L 957 16
L 957 16
L 957 16
L 957 16
L 957 16
L 957 16
L 957 16
L 957 16
L 957 16
L 957 16
L 957 16
L 957 16
L 957 15
L 957 15
L 957 15
L 957 15
L 957 15
L 957 15
L 957 15
L 957 15
L 957 15
L 957 15
L 957 15
L 957 15
L 957 15
L 957 15
L 957 15
L 957 15
L 957 15
L 957 15
L 957 15
L 957 15
L 957 15
L 957 15
L 957 15
L 957 15
L 957 14
L 957 14
L 957 14
L 957 14
L 957 14
L 957 14
L 957 14
L 957 14
L 957 14
L 957 14
L 957 14
L 957 14
L 957 14
L 957 14
L 957 14
L 957 14
L 957 14
L 957 14
L 957 14
L 957 14
L 957 14
L 957 14
L 957 14
L 957 14
L 957 13" style="stroke-width:2;stroke:rgba(129,199,239,1.0);fill:none"/></svg>