<!-- stars: 8220 -->
<svg xmlns="http://www.w3.org/2000/svg" xmlns:xlink="http://www.w3.org/1999/xlink" width="1024" height="400">\n<path  d="M 0 0
L 1024 0
L 1024 400
L 0 400
L 0 0" style="stroke-width:0;stroke:rgba(255,255,255,1.0);fill:rgba(255,255,255,1.0)"/><path  d="M 38 11
L 957 11
L 957 351
L 38 351
L 38 11" style="stroke-width:0;stroke:rgba(255,255,255,1.0);fill:rgba(255,255,255,1.0)"/><path  d="M 38 351
L 957 351" style="stroke-width:2;stroke:rgba(85,85,85,1.0);fill:none"/><path  d="M 38 351
L 38 356" style="stroke-width:2;stroke:rgba(85,85,85,1.0);fill:none"/><text x="5" y="373" style="stroke-width:0;stroke:none;fill:rgba(51,51,51,1.0);font-size:12.8px;font-family:'Roboto Medium',sans-serif">2018-09-25</text><path  d="M 153 351
L 153 356" style="stroke-width:2;stroke:rgba(85,85,85,1.0);fill:none"/><text x="120" y="373" style="stroke-width:0;stroke:none;fill:rgba(51,51,51,1.0);font-size:12.8px;font-family:'Roboto Medium',sans-serif">2019-02-18</text><path  d="M 268 351
L 268 356" style="stroke-width:2;stroke:rgba(85,85,85,1.0);fill:none"/><text x="235" y="373" style="stroke-width:0;stroke:none;fill:rgba(51,51,51,1.0);font-size:12.8px;font-family:'Roboto Medium',sans-serif">2019-07-14</text><path  d="M 383 351
L 383 356" style="stroke-width:2;stroke:rgba(85,85,85,1.0);fill:none"/><text x="350" y="373" style="stroke-width:0;stroke:none;fill:rgba(51,51,51,1.0);font-size:12.8px;font-family:'Roboto Medium',sans-serif">2019-12-08</text><path  d="M 498 351
L 498 356" style="stroke-width:2;stroke:rgba(85,85,85,1.0);fill:none"/><text x="465" y="373" style="stroke-width:0;stroke:none;fill:rgba(51,51,51,1.0);font-size:12.8px;font-family:'Roboto Medium',sans-serif">2020-05-02</text><path  d="M 613 351
L 613 356" style="stroke-width:2;stroke:rgba(85,85,85,1.0);fill:none"/><text x="580" y="373" style="stroke-width:0;stroke:none;fill:rgba(51,51,51,1.0);font-size:12.8px;font-family:'Roboto Medium',sans-serif">2020-09-25</text><path  d="M 728 351
L 728 356" style="stroke-width:2;stroke:rgba(85,85,85,1.0);fill:none"/><text x="695" y="373" style="stroke-width:0;stroke:none;fill:rgba(51,51,51,1.0);font-size:12.8px;font-family:'Roboto Medium',sans-serif">2021-02-19</text><path  d="M 843 351
L 843 356" style="stroke-width:2;stroke:rgba(85,85,85,1.0);fill:none"/><text x="810" y="373" style="stroke-width:0;stroke:none;fill:rgba(51,51,51,1.0);font-size:12.8px;font-family:'Roboto Medium',sans-serif">2021-07-15</text><path  d="M 957 351
L 957 356" style="stroke-width:2;stroke:rgba(85,85,85,1.0);fill:none"/><text x="924" y="373" style="stroke-width:0;stroke:none;fill:rgba(51,51,51,1.0);font-size:12.8px;font-family:'Roboto Medium',sans-serif">2021-12-09</text><text x="483" y="395" style="stroke-width:0;stroke:none;fill:rgba(51,51,51,1.0);font-size:12.8px;font-family:'Roboto Medium',sans-serif">Time</text><path  d="M 959 351
L 959 11" style="stroke-width:2;stroke:rgba(85,85,85,1.0);fill:none"/><path  d="M 959 351
L 964 351" style="stroke-width:2;stroke:rgba(85,85,85,1.0);fill:none"/><text x="969" y="357" style="stroke-width:0;stroke:none;fill:rgba(51,51,51,1.0);font-size:12.8px;font-family:'Roboto Medium',sans-serif">0</text><path  d="M 959 308
L 964 308" style="stroke-width:2;stroke:rgba(85,85,85,1.0);fill:none"/><text x="969" y="314" style="stroke-width:0;stroke:none;fill:rgba(51,51,51,1.0);font-size:12.8px;font-family:'Roboto Medium',sans-serif">1040</text><path  d="M 959 265
L 964 265" style="stroke-width:2;stroke:rgba(85,85,85,1.0);fill:none"/><text x="969" y="271" style="stroke-width:0;stroke:none;fill:rgba(51,51,51,1.0);font-size:12.8px;font-family:'Roboto Medium',sans-serif">2080</text><path  d="M 959 223
L 964 223" style="stroke-width:2;stroke:rgba(85,85,85,1.0);fill:none"/><text x="969" y="229" style="stroke-width:0;stroke:none;fill:rgba(51,51,51,1.0);font-size:12.8px;font-family:'Roboto Medium',sans-serif">3120</text><path  d="M 959 181
L 964 181" style="stroke-width:2;stroke:rgba(85,85,85,1.0);fill:none"/><text x="969" y="187" style="stroke-width:0;stroke:none;fill:rgba(51,51,51,1.0);font-size:12.8px;font-family:'Roboto Medium',sans-serif">4150</text><path  d="M 959 138
L 964 138" style="stroke-width:2;stroke:rgba(85,85,85,1.0);fill:none"/><text x="969" y="144" style="stroke-width:0;stroke:none;fill:rgba(51,51,51,1.0);font-size:12.8px;font-family:'Roboto Medium',sans-serif">5190</text><path  d="M 959 95
L 964 95" style="stroke-width:2;stroke:rgba(85,85,85,1.0);fill:none"/><text x="969" y="101" style="stroke-width:0;stroke:none;fill:rgba(51,51,51,1.0);font-size:12.8px;font-family:'Roboto Medium',sans-serif">6230</text><path  d="M 959 53
L 964 53" style="stroke-width:2;stroke:rgba(85,85,85,1.0);fill:none"/><text x="969" y="59" style="stroke-width:0;stroke:none;fill:rgba(51,51,51,1.0);font-size:12.8px;font-family:'Roboto Medium',sans-serif">7270</text><path  d="M 959 11
L 964 11" style="stroke-width:2;stroke:rgba(85,85,85,1.0);fill:none"/><text x="969" y="17" style="stroke-width:0;stroke:none;fill:rgba(51,51,51,1.0);font-size:12.8px;font-family:'Roboto Medium',sans-serif">8300</text><text x="1009" y="150" style="stroke-width:0;stroke:none;fill:rgba(51,51,51,1.0);font-size:12.8px;font-family:'Roboto Medium',sans-serif" transform="rotate(90.00,1009,150)">Stargazers</text><path  d="M 38 351
L 40 350
L 50 350
L 51 350
L 51 350
L 51 350
L 51 350
L 54 350
L 55 350
L 55 350
L 57 350
L 57 350
L 58 350
L 58 350
L 58 350
L 58 350
L 61 350
L 67 350
L 67 350
L 69 350
L 70 350
L 70 350
L 72 350
L 72 350
L 74 350
L 74 349
L 79 349
L 83 349
L 88 349
L 88 349
L 94 349
L 94 349
L 94 349
L 94 349
L 94 349
L 94 349
L 94 349
L 95 349
L 95 349
L 95 349
L 95 349
L 97 349
L 99 349
L 99 349
L 99 349
L 99 349
L 99 349
L 100 349
L 100 349
L 101 348
L 103 348
L 103 348
L 104 348
L 105 348
L 107 348
L 108 348
L 108 348
L 109 348
L 110 348
L 110 348
L 110 348
L 111 348
L 111 348
L 111 348
L 112 348
L 112 348
L 112 348
L 112 348
L 112 348
L 113 348
L 113 348
L 113 348
L 113 348
L 115 348
L 115 347
L 115 347
L 116 347
L 116 347
L 117 347
L 118 347
L 118 347
L 120 347
L 120 347
L 120 347
L 120 347
L 120 347
L 120 347
L 122 347
L 122 347
L 122 347
L 123 347
L 123 347
L 123 347
L 125 347
L 127 347
L 127 347
L 127 347
L 127 347
L 127 346
L 129 346
L 131 346
L 133 346
L 133 346
L 134 346
L 134 346
L 134 346
L 141 346
L 145 346
L 149 346
L 149 346
L 150 346
L 150 346
L 151 346
L 151 346
L 152 346
L 153 346
L 154 346
L 154 346
L 154 346
L 155 346
L 155 346
L 155 346
L 156 346
L 156 345
L 156 345
L 159 345
L 159 345
L 161 345
L 162 345
L 164 345
L 164 345
L 165 345
L 166 345
L 167 345
L 167 345
L 167 345
L 167 345
L 169 345
L 169 345
L 170 345
L 171 345
L 172 345
L 173 345
L 175 345
L 175 345
L 176 345
L 177 345
L 177 344
L 177 344
L 178 344
L 178 344
L 181 344
L 182 344
L 182 344
L 182 344
L 183 344
L 184 344
L 184 344
L 184 344
L 185 344
L 185 344
L 185 344
L 186 344
L 186 344
L 186 344
L 187 344
L 187 344
L 187 344
L 187 344
L 187 344
L 187 344
L 187 343
L 188 343
L 188 343
L 188 343
L 188 343
L 188 343
L 188 343
L 188 343
L 189 343
L 189 343
L 191 343
L 192 343
L 192 343
L 192 343
L 193 343
L 193 343
L 193 343
L 193 343
L 194 343
L 194 343
L 194 343
L 194 343
L 195 343
L 196 343
L 198 343
L 198 342
L 198 342
L 200 342
L 200 342
L 203 342
L 203 342
L 204 342
L 204 342
L 204 342
L 204 342
L 204 342
L 205 342
L 205 342
L 207 342
L 207 342
L 207 342
L 208 342
L 208 342
L 208 342
L 209 342
L 209 342
L 210 342
L 210 342
L 211 342
L 212 341
L 212 341
L 213 341
L 214 341
L 214 341
L 216 341
L 216 341
L 217 341
L 217 341
L 217 341
L 218 341
L 218 341
L 221 341
L 222 341
L 225 341
L 226 341
L 227 341
L 228 341
L 230 341
L 230 341
L 230 341
L 232 341
L 236 341
L 236 341
L 236 341
L 237 340
L 237 340
L 238 340
L 238 340
L 238 340
L 239 340
L 239 340
L 244 340
L 247 340
L 248 340
L 248 340
L 248 340
L 248 340
L 248 340
L 248 340
L 248 340
L 248 340
L 248 340
L 250 340
L 250 340
L 252 340
L 253 340
L 253 340
L 254 340
L 255 339
L 255 339
L 256 339
L 257 339
L 258 339
L 258 339
L 258 339
L 259 339
L 259 339
L 259 339
L 259 339
L 259 339
L 260 339
L 260 339
L 260 339
L 260 339
L 261 339
L 261 339
L 261 339
L 262 339
L 262 339
L 262 339
L 262 339
L 263 339
L 264 338
L 265 338
L 267 338
L 267 338
L 268 338
L 268 338
L 268 338
L 269 338
L 269 338
L 272 338
L 273 338
L 274 338
L 275 338
L 277 338
L 278 338
L 279 338
L 280 338
L 280 338
L 280 338
L 281 338
L 286 338
L 290 338
L 290 338
L 291 338
L 293 338
L 294 337
L 296 337
L 298 337
L 301 337
L 301 337
L 301 337
L 302 337
L 305 337
L 309 337
L 309 337
L 309 337
L 310 337
L 311 337
L 321 337
L 321 337
L 322 337
L 323 337
L 323 337
L 323 337
L 323 337
L 323 337
L 323 337
L 323 337
L 323 337
L 324 336
L 324 336
L 324 336
L 326 336
L 328 336
L 328 336
L 329 336
L 335 336
L 336 336
L 337 336
L 338 336
L 338 336
L 339 336
L 340 336
L 341 336
L 341 336
L 341 336
L 341 336
L 343 336
L 343 336
L 343 336
L 346 336
L 346 336
L 346 336
L 347 336
L 351 335
L 363 335
L 364 335
L 367 335
L 369 335
L 370 335
L 371 335
L 374 335
L 374 335
L 374 335
L 375 335
L 375 335
L 375 335
L 376 335
L 379 335
L 379 335
L 382 335
L 383 335
L 387 335
L 387 335
L 387 335
L 393 335
L 395 335
L 395 335
L 397 334
L 397 334
L 397 334
L 397 334
L 397 334
L 398 334
L 398 334
L 398 334
L 398 334
L 399 334
L 400 334
L 401 334
L 405 334
L 406 334
L 407 334
L 411 334
L 411 334
L 411 334
L 412 334
L 412 334
L 413 334
L 414 334
L 417 334
L 417 334
L 422 334
L 422 333
L 423 333
L 423 333
L 425 333
L 427 333
L 429 333
L 431 333
L 435 333
L 437 333
L 437 333
L 438 333
L 441 333
L 447 333
L 449 333
L 451 333
L 452 333
L 453 333
L 453 333
L 454 333
L 455 333
L 455 333
L 455 333
L 457 333
L 457 333
L 457 332
L 458 332
L 458 332
L 458 332
L 459 332
L 460 332
L 460 332
L 460 332
L 462 332
L 462 332
L 462 332
L 463 332
L 463 332
L 463 332
L 463 332
L 463 332
L 463 332
L 463 332
L 464 332
L 464 332
L 464 332
L 465 332
L 466 332
L 467 332
L 467 331
L 469 331
L 469 331
L 469 331
L 469 331
L 469 331
L 470 331
L 471 331
L 471 331
L 471 331
L 471 331
L 472 331
L 472 331
L 472 331
L 473 331
L 473 331
L 474 331
L 475 331
L 477 331
L 477 331
L 477 331
L 478 331
L 478 331
L 478 331
L 478 331
L 479 330
L 479 330
L 480 330
L 480 330
L 480 330
L 480 330
L 480 330
L 480 330
L 480 330
L 480 330
L 480 330
L 480 330
L 480 330
L 480 330
L 481 330
L 481 330
L 481 330
L 481 330
L 482 330
L 482 330
L 482 330
L 483 330
L 483 330
L 483 330
L 484 329
L 485 329
L 485 329
L 486 329
L 486 329
L 486 329
L 487 329
L 488 329
L 488 329
L 488 329
L 488 329
L 488 329
L 488 329
L 488 329
L 488 329
L 488 329
L 488 329
L 488 329
L 489 329
L 489 329
L 489 329
L 489 329
L 489 329
L 489 329
L 489 329
L 489 328
L 489 328
L 489 328
L 489 328
L 489 328
L 489 328
L 489 328
L 489 328
L 489 328
L 489 328
L 490 328
L 490 328
L 490 328
L 490 328
L 491 328
L 491 328
L 491 328
L 491 328
L 491 328
L 491 328
L 491 328
L 492 328
L 492 328
L 492 328
L 493 327
L 493 327
L 494 327
L 494 327
L 495 327
L 495 327
L 495 327
L 495 327
L 495 327
L 495 327
L 495 327
L 496 327
L 496 327
L 496 327
L 497 327
L 498 327
L 499 327
L 499 327
L 499 327
L 501 327
L 501 327
L 502 327
L 502 327
L 502 327
L 502 326
L 502 326
L 502 326
L 502 326
L 502 326
L 503 326
L 503 326
L 504 326
L 504 326
L 505 326
L 505 326
L 505 326
L 506 326
L 506 326
L 507 326
L 507 326
L 507 326
L 507 326
L 508 326
L 508 326
L 508 326
L 509 326
L 509 326
L 509 326
L 509 326
L 509 325
L 509 325
L 511 325
L 511 325
L 512 325
L 513 325
L 513 325
L 513 325
L 513 325
L 513 325
L 514 325
L 515 325
L 515 325
L 515 325
L 515 325
L 516 325
L 516 325
L 517 325
L 517 325
L 517 325
L 518 325
L 518 325
L 518 325
L 518 325
L 518 324
L 518 324
L 519 324
L 519 324
L 519 324
L 519 324
L 519 324
L 519 324
L 520 324
L 520 324
L 520 324
L 521 324
L 522 324
L 522 324
L 522 324
L 522 324
L 523 324
L 523 324
L 524 324
L 524 324
L 525 324
L 525 324
L 525 324
L 525 324
L 525 324
L 525 323
L 525 323
L 526 323
L 526 323
L 526 323
L 526 323
L 526 323
L 526 323
L 526 323
L 526 323
L 526 323
L 526 323
L 526 323
L 526 323
L 526 323
L 527 323
L 527 323
L 527 323
L 527 323
L 528 323
L 528 323
L 529 323
L 529 323
L 530 323
L 530 322
L 531 322
L 531 322
L 531 322
L 531 322
L 531 322
L 532 322
L 532 322
L 532 322
L 532 322
L 532 322
L 532 322
L 532 322
L 533 322
L 533 322
L 533 322
L 533 322
L 533 322
L 533 322
L 533 322
L 533 322
L 533 322
L 533 322
L 533 322
L 534 321
L 534 321
L 534 321
L 534 321
L 534 321
L 534 321
L 535 321
L 535 321
L 535 321
L 535 321
L 535 321
L 536 321
L 536 321
L 536 321
L 536 321
L 536 321
L 536 321
L 536 321
L 537 321
L 537 321
L 537 321
L 538 321
L 538 321
L 538 321
L 539 321
L 539 320
L 539 320
L 540 320
L 542 320
L 542 320
L 542 320
L 542 320
L 542 320
L 542 320
L 542 320
L 543 320
L 543 320
L 543 320
L 543 320
L 543 320
L 544 320
L 544 320
L 544 320
L 545 320
L 545 320
L 545 320
L 545 320
L 546 320
L 546 320
L 546 319
L 546 319
L 546 319
L 546 319
L 547 319
L 547 319
L 547 319
L 548 319
L 548 319
L 548 319
L 549 319
L 549 319
L 549 319
L 549 319
L 549 319
L 551 319
L 551 319
L 551 319
L 551 319
L 552 319
L 552 319
L 552 319
L 553 319
L 553 319
L 554 319
L 555 318
L 555 318
L 555 318
L 556 318
L 556 318
L 556 318
L 557 318
L 557 318
L 557 318
L 557 318
L 557 318
L 557 318
L 557 318
L 558 318
L 558 318
L 558 318
L 558 318
L 559 318
L 559 318
L 559 318
L 559 318
L 560 318
L 560 318
L 560 318
L 560 317
L 560 317
L 560 317
L 560 317
L 561 317
L 561 317
L 561 317
L 561 317
L 562 317
L 562 317
L 563 317
L 563 317
L 563 317
L 564 317
L 564 317
L 564 317
L 564 317
L 565 317
L 565 317
L 565 317
L 565 317
L 566 317
L 566 317
L 566 317
L 566 317
L 566 316
L 566 316
L 566 316
L 567 316
L 567 316
L 567 316
L 567 316
L 567 316
L 567 316
L 567 316
L 567 316
L 568 316
L 568 316
L 568 316
L 568 316
L 568 316
L 568 316
L 568 316
L 569 316
L 569 316
L 569 316
L 569 316
L 570 316
L 570 316
L 571 315
L 571 315
L 571 315
L 571 315
L 571 315
L 572 315
L 572 315
L 572 315
L 573 315
L 573 315
L 573 315
L 573 315
L 573 315
L 573 315
L 574 315
L 574 315
L 574 315
L 575 315
L 575 315
L 576 315
L 576 315
L 576 315
L 576 315
L 576 315
L 577 314
L 577 314
L 577 314
L 577 314
L 577 314
L 578 314
L 578 314
L 578 314
L 578 314
L 579 314
L 579 314
L 579 314
L 579 314
L 579 314
L 579 314
L 580 314
L 581 314
L 581 314
L 582 314
L 582 314
L 582 314
L 582 314
L 582 314
L 582 314
L 582 314
L 583 313
L 583 313
L 584 313
L 584 313
L 584 313
L 584 313
L 584 313
L 584 313
L 585 313
L 585 313
L 585 313
L 586 313
L 586 313
L 587 313
L 587 313
L 588 313
L 588 313
L 589 313
L 589 313
L 590 313
L 591 313
L 592 313
L 593 313
L 593 313
L 593 312
L 594 312
L 594 312
L 594 312
L 595 312
L 595 312
L 596 312
L 596 312
L 596 312
L 597 312
L 597 312
L 597 312
L 597 312
L 598 312
L 598 312
L 598 312
L 598 312
L 599 312
L 599 312
L 599 312
L 600 312
L 600 312
L 600 312
L 601 312
L 601 312
L 601 311
L 601 311
L 601 311
L 601 311
L 601 311
L 601 311
L 601 311
L 601 311
L 602 311
L 602 311
L 603 311
L 603 311
L 603 311
L 603 311
L 603 311
L 604 311
L 604 311
L 604 311
L 604 311
L 606 311
L 606 311
L 606 311
L 607 311
L 607 311
L 608 310
L 609 310
L 610 310
L 610 310
L 610 310
L 611 310
L 611 310
L 611 310
L 611 310
L 612 310
L 614 310
L 614 310
L 614 310
L 614 310
L 614 310
L 614 310
L 615 310
L 615 310
L 615 310
L 616 310
L 616 310
L 616 310
L 616 310
L 616 310
L 616 309
L 616 309
L 616 309
L 618 309
L 620 309
L 620 309
L 621 309
L 623 309
L 623 309
L 623 309
L 624 309
L 624 309
L 624 309
L 624 309
L 625 309
L 626 309
L 626 309
L 626 309
L 626 309
L 626 309
L 626 309
L 626 309
L 626 309
L 627 309
L 627 309
L 627 308
L 627 308
L 627 308
L 627 308
L 627 308
L 627 308
L 627 308
L 628 308
L 628 308
L 628 308
L 628 308
L 628 308
L 628 308
L 629 308
L 629 308
L 629 308
L 629 308
L 629 308
L 630 308
L 630 308
L 631 308
L 631 308
L 631 308
L 631 308
L 632 307
L 632 307
L 632 307
L 632 307
L 633 307
L 633 307
L 633 307
L 634 307
L 634 307
L 634 307
L 634 307
L 634 307
L 635 307
L 635 307
L 635 307
L 636 307
L 637 307
L 637 307
L 637 307
L 637 307
L 637 307
L 637 307
L 637 307
L 637 307
L 637 307
L 637 306
L 638 306
L 638 306
L 638 306
L 638 306
L 638 306
L 638 306
L 638 306
L 638 306
L 638 306
L 638 306
L 638 306
L 638 306
L 638 306
L 639 306
L 639 306
L 639 306
L 639 306
L 639 306
L 639 306
L 639 306
L 639 306
L 639 306
L 640 306
L 640 305
L 640 305
L 640 305
L 640 305
L 640 305
L 640 305
L 640 305
L 640 305
L 641 305
L 641 305
L 641 305
L 641 305
L 641 305
L 642 305
L 642 305
L 642 305
L 642 305
L 642 305
L 643 305
L 643 305
L 643 305
L 643 305
L 643 305
L 643 305
L 643 304
L 643 304
L 644 304
L 644 304
L 644 304
L 644 304
L 644 304
L 644 304
L 644 304
L 644 304
L 644 304
L 645 304
L 645 304
L 645 304
L 646 304
L 646 304
L 646 304
L 646 304
L 647 304
L 647 304
L 647 304
L 648 304
L 648 304
L 648 304
L 648 304
L 648 303
L 648 303
L 648 303
L 648 303
L 649 303
L 649 303
L 649 303
L 649 303
L 650 303
L 650 303
L 650 303
L 650 303
L 651 303
L 651 303
L 651 303
L 651 303
L 651 303
L 652 303
L 652 303
L 652 303
L 652 303
L 652 303
L 653 303
L 653 303
L 653 302
L 653 302
L 653 302
L 653 302
L 654 302
L 654 302
L 655 302
L 655 302
L 655 302
L 655 302
L 655 302
L 655 302
L 655 302
L 656 302
L 656 302
L 656 302
L 656 302
L 656 302
L 656 302
L 657 302
L 657 302
L 657 302
L 658 302
L 658 302
L 658 302
L 658 301
L 658 301
L 658 301
L 659 301
L 659 301
L 659 301
L 659 301
L 660 301
L 660 301
L 661 301
L 661 301
L 661 301
L 661 301
L 662 301
L 662 301
L 662 301
L 662 301
L 662 301
L 662 301
L 662 301
L 663 301
L 664 301
L 664 301
L 664 301
L 664 300
L 664 300
L 664 300
L 664 300
L 665 300
L 665 300
L 665 300
L 665 300
L 665 300
L 666 300
L 666 300
L 666 300
L 666 300
L 666 300
L 666 300
L 666 300
L 667 300
L 667 300
L 667 300
L 667 300
L 667 300
L 668 300
L 670 300
L 670 300
L 670 300
L 670 299
L 670 299
L 670 299
L 671 299
L 671 299
L 671 299
L 671 299
L 671 299
L 671 299
L 671 299
L 671 299
L 672 299
L 672 299
L 672 299
L 672 299
L 672 299
L 672 299
L 672 299
L 673 299
L 673 299
L 673 299
L 674 299
L 674 299
L 675 299
L 675 298
L 675 298
L 675 298
L 675 298
L 675 298
L 675 298
L 676 298
L 676 298
L 676 298
L 677 298
L 677 298
L 677 298
L 677 298
L 677 298
L 678 298
L 678 298
L 678 298
L 678 298
L 679 298
L 680 298
L 680 298
L 680 298
L 680 298
L 680 298
L 681 297
L 681 297
L 681 297
L 681 297
L 681 297
L 681 297
L 681 297
L 681 297
L 681 297
L 682 297
L 682 297
L 682 297
L 682 297
L 682 297
L 682 297
L 682 297
L 682 297
L 682 297
L 682 297
L 683 297
L 683 297
L 683 297
L 683 297
L 683 297
L 683 297
L 684 296
L 684 296
L 684 296
L 684 296
L 684 296
L 684 296
L 685 296
L 685 296
L 685 296
L 685 296
L 685 296
L 686 296
L 686 296
L 686 296
L 686 296
L 686 296
L 686 296
L 687 296
L 687 296
L 687 296
L 687 296
L 687 296
L 687 296
L 687 296
L 687 295
L 688 295
L 688 295
L 688 295
L 688 295
L 688 295
L 688 295
L 689 295
L 690 295
L 691 295
L 691 295
L 691 295
L 691 295
L 692 295
L 692 295
L 692 295
L 692 295
L 692 295
L 692 295
L 692 295
L 693 295
L 693 295
L 693 295
L 693 295
L 693 295
L 693 294
L 693 294
L 693 294
L 693 294
L 693 294
L 693 294
L 693 294
L 694 294
L 694 294
L 694 294
L 694 294
L 694 294
L 695 294
L 695 294
L 695 294
L 695 294
L 696 294
L 696 294
L 696 294
L 697 294
L 697 294
L 697 294
L 697 294
L 697 294
L 698 293
L 698 293
L 698 293
L 698 293
L 698 293
L 698 293
L 698 293
L 698 293
L 699 293
L 699 293
L 699 293
L 699 293
L 700 293
L 700 293
L 700 293
L 700 293
L 700 293
L 701 293
L 701 293
L 701 293
L 701 293
L 701 293
L 702 293
L 703 293
L 703 292
L 703 292
L 703 292
L 703 292
L 703 292
L 703 292
L 704 292
L 704 292
L 704 292
L 704 292
L 705 292
L 705 292
L 705 292
L 705 292
L 705 292
L 706 292
L 706 292
L 706 292
L 706 292
L 706 292
L 706 292
L 706 292
L 707 292
L 707 292
L 707 292
L 707 291
L 707 291
L 707 291
L 707 291
L 708 291
L 708 291
L 708 291
L 708 291
L 708 291
L 708 291
L 708 291
L 708 291
L 708 291
L 709 291
L 709 291
L 709 291
L 709 291
L 709 291
L 709 291
L 710 291
L 710 291
L 710 291
L 710 291
L 710 291
L 710 290
L 711 290
L 711 290
L 712 290
L 712 290
L 712 290
L 712 290
L 713 290
L 713 290
L 713 290
L 713 290
L 713 290
L 713 290
L 713 290
L 713 290
L 714 290
L 714 290
L 714 290
L 714 290
L 715 290
L 715 290
L 715 290
L 715 290
L 716 290
L 716 290
L 716 289
L 716 289
L 716 289
L 716 289
L 716 289
L 717 289
L 717 289
L 717 289
L 717 289
L 717 289
L 717 289
L 718 289
L 718 289
L 718 289
L 718 289
L 718 289
L 718 289
L 718 289
L 718 289
L 718 289
L 719 289
L 719 289
L 719 289
L 720 289
L 720 288
L 720 288
L 721 288
L 721 288
L 721 288
L 723 288
L 723 288
L 723 288
L 723 288
L 723 288
L 723 288
L 725 288
L 725 288
L 725 288
L 725 288
L 726 288
L 726 288
L 726 288
L 726 288
L 727 288
L 727 288
L 727 288
L 727 288
L 727 288
L 727 287
L 728 287
L 728 287
L 728 287
L 728 287
L 728 287
L 728 287
L 728 287
L 728 287
L 728 287
L 728 287
L 729 287
L 729 287
L 729 287
L 729 287
L 729 287
L 729 287
L 729 287
L 729 287
L 730 287
L 730 287
L 730 287
L 730 287
L 730 287
L 730 287
L 731 286
L 731 286
L 731 286
L 731 286
L 731 286
L 731 286
L 731 286
L 731 286
L 731 286
L 731 286
L 732 286
L 732 286
L 732 286
L 732 286
L 732 286
L 732 286
L 732 286
L 733 286
L 733 286
L 733 286
L 733 286
L 733 286
L 733 286
L 733 286
L 733 285
L 733 285
L 733 285
L 733 285
L 733 285
L 733 285
L 734 285
L 735 285
L 735 285
L 735 285
L 735 285
L 735 285
L 735 285
L 735 285
L 736 285
L 736 285
L 736 285
L 736 285
L 736 285
L 736 285
L 736 285
L 736 285
L 736 285
L 736 285
L 736 285
L 736 284
L 736 284
L 736 284
L 737 284
L 737 284
L 737 284
L 737 284
L 737 284
L 737 284
L 737 284
L 737 284
L 737 284
L 737 284
L 738 284
L 738 284
L 738 284
L 738 284
L 738 284
L 738 284
L 738 284
L 738 284
L 739 284
L 739 284
L 739 284
L 739 283
L 740 283
L 740 283
L 740 283
L 740 283
L 740 283
L 740 283
L 741 283
L 741 283
L 741 283
L 741 283
L 741 283
L 741 283
L 741 283
L 741 283
L 741 283
L 742 283
L 742 283
L 742 283
L 742 283
L 742 283
L 743 283
L 743 283
L 743 283
L 743 283
L 743 282
L 743 282
L 743 282
L 743 282
L 743 282
L 743 282
L 744 282
L 744 282
L 744 282
L 744 282
L 744 282
L 744 282
L 744 282
L 744 282
L 744 282
L 744 282
L 744 282
L 744 282
L 745 282
L 745 282
L 745 282
L 745 282
L 746 282
L 746 282
L 746 281
L 746 281
L 746 281
L 746 281
L 746 281
L 746 281
L 746 281
L 746 281
L 746 281
L 746 281
L 746 281
L 746 281
L 746 281
L 746 281
L 746 281
L 746 281
L 746 281
L 746 281
L 746 281
L 746 281
L 746 281
L 746 281
L 746 281
L 746 281
L 746 280
L 746 280
L 746 280
L 746 280
L 746 280
L 746 280
L 746 280
L 746 280
L 746 280
L 746 280
L 746 280
L 746 280
L 746 280
L 746 280
L 746 280
L 746 280
L 746 280
L 746 280
L 746 280
L 746 280
L 746 280
L 746 280
L 746 280
L 746 280
L 746 280
L 746 279
L 746 279
L 746 279
L 746 279
L 746 279
L 746 279
L 746 279
L 746 279
L 746 279
L 746 279
L 746 279
L 746 279
L 746 279
L 746 279
L 746 279
L 746 279
L 746 279
L 746 279
L 746 279
L 746 279
L 746 279
L 746 279
L 746 279
L 746 279
L 746 278
L 746 278
L 746 278
L 746 278
L 746 278
L 746 278
L 746 278
L 746 278
L 746 278
L 746 278
L 746 278
L 746 278
L 746 278
L 746 278
L 746 278
L 746 278
L 747 278
L 747 278
L 747 278
L 747 278
L 747 278
L 747 278
L 747 278
L 747 278
L 747 278
L 747 277
L 747 277
L 747 277
L 747 277
L 747 277
L 747 277
L 747 277
L 747 277
L 747 277
L 747 277
L 747 277
L 747 277
L 747 277
L 747 277
L 747 277
L 747 277
L 747 277
L 747 277
L 747 277
L 747 277
L 747 277
L 747 277
L 747 277
L 747 277
L 747 276
L 747 276
L 747 276
L 747 276
L 747 276
L 747 276
L 747 276
L 747 276
L 747 276
L 747 276
L 747 276
L 747 276
L 747 276
L 748 276
L 748 276
L 748 276
L 748 276
L 748 276
L 748 276
L 748 276
L 748 276
L 748 276
L 748 276
L 748 276
L 748 275
L 748 275
L 748 275
L 748 275
L 748 275
L 748 275
L 748 275
L 748 275
L 748 275
L 748 275
L 748 275
L 748 275
L 748 275
L 748 275
L 748 275
L 748 275
L 748 275
L 748 275
L 748 275
L 748 275
L 748 275
L 748 275
L 748 275
L 748 275
L 748 275
L 748 274
L 748 274
L 748 274
L 748 274
L 748 274
L 748 274
L 748 274
L 748 274
L 748 274
L 748 274
L 748 274
L 748 274
L 748 274
L 748 274
L 748 274
L 748 274
L 748 274
L 748 274
L 748 274
L 748 274
L 748 274
L 748 274
L 748 274
L 748 274
L 748 273
L 748 273
L 748 273
L 748 273
L 748 273
L 748 273
L 748 273
L 748 273
L 748 273
L 748 273
L 748 273
L 748 273
L 748 273
L 748 273
L 748 273
L 748 273
L 748 273
L 748 273
L 748 273
L 748 273
L 748 273
L 748 273
L 748 273
L 748 273
L 748 273
L 748 272
L 748 272
L 748 272
L 748 272
L 748 272
L 748 272
L 748 272
L 748 272
L 748 272
L 748 272
L 748 272
L 748 272
L 748 272
L 748 272
L 748 272
L 748 272
L 748 272
L 748 272
L 748 272
L 749 272
L 749 272
L 749 272
L 749 272
L 749 272
L 749 271
L 749 271
L 749 271
L 749 271
L 749 271
L 749 271
L 749 271
L 749 271
L 749 271
L 749 271
L 749 271
L 749 271
L 749 271
L 749 271
L 749 271
L 749 271
L 749 271
L 749 271
L 749 271
L 749 271
L 749 271
L 749 271
L 749 271
L 749 271
L 749 270
L 749 270
L 749 270
L 749 270
L 749 270
L 749 270
L 749 270
L 749 270
L 749 270
L 749 270
L 749 270
L 749 270
L 750 270
L 750 270
L 750 270
L 750 270
L 750 270
L 750 270
L 750 270
L 750 270
L 750 270
L 750 270
L 750 270
L 750 270
L 750 270
L 750 269
L 750 269
L 750 269
L 750 269
L 750 269
L 750 269
L 750 269
L 750 269
L 750 269
L 750 269
L 750 269
L 750 269
L 750 269
L 750 269
L 750 269
L 750 269
L 750 269
L 750 269
L 750 269
L 750 269
L 750 269
L 750 269
L 750 269
L 750 269
L 750 268
L 750 268
L 750 268
L 750 268
L 750 268
L 750 268
L 750 268
L 751 268
L 751 268
L 751 268
L 751 268
L 751 268
L 751 268
L 751 268
L 751 268
L 751 268
L 751 268
L 751 268
L 751 268
L 751 268
L 751 268
L 751 268
L 752 268
L 752 268
L 752 268
L 752 267
L 752 267
L 752 267
L 752 267
L 752 267
L 752 267
L 753 267
L 753 267
L 753 267
L 753 267
L 753 267
L 753 267
L 753 267
L 753 267
L 753 267
L 753 267
L 753 267
L 754 267
L 754 267
L 754 267
L 754 267
L 754 267
L 754 267
L 754 267
L 754 266
L 754 266
L 754 266
L 754 266
L 754 266
L 754 266
L 754 266
L 754 266
L 754 266
L 754 266
L 754 266
L 755 266
L 755 266
L 755 266
L 755 266
L 755 266
L 755 266
L 755 266
L 755 266
L 755 266
L 755 266
L 755 266
L 755 266
L 756 266
L 756 266
L 756 265
L 756 265
L 756 265
L 756 265
L 757 265
L 757 265
L 757 265
L 757 265
L 757 265
L 757 265
L 757 265
L 757 265
L 757 265
L 757 265
L 757 265
L 758 265
L 758 265
L 758 265
L 758 265
L 758 265
L 758 265
L 758 265
L 758 265
L 758 265
L 758 264
L 758 264
L 758 264
L 758 264
L 758 264
L 758 264
L 758 264
L 758 264
L 758 264
L 758 264
L 758 264
L 758 264
L 758 264
L 758 264
L 758 264
L 758 264
L 758 264
L 758 264
L 758 264
L 758 264
L 758 264
L 758 264
L 758 264
L 758 264
L 758 263
L 758 263
L 758 263
L 758 263
L 758 263
L 758 263
L 758 263
L 758 263
L 758 263
L 758 263
L 758 263
L 758 263
L 758 263
L 758 263
L 758 263
L 759 263
L 759 263
L 759 263
L 759 263
L 759 263
L 759 263
L 759 263
L 759 263
L 759 263
L 759 263
L 759 262
L 759 262
L 759 262
L 759 262
L 759 262
L 759 262
L 759 262
L 759 262
L 759 262
L 759 262
L 759 262
L 759 262
L 759 262
L 759 262
L 759 262
L 759 262
L 759 262
L 759 262
L 759 262
L 759 262
L 759 262
L 759 262
L 760 262
L 760 262
L 760 261
L 760 261
L 760 261
L 760 261
L 760 261
L 760 261
L 760 261
L 760 261
L 760 261
L 760 261
L 760 261
L 760 261
L 760 261
L 760 261
L 760 261
L 760 261
L 760 261
L 760 261
L 760 261
L 760 261
L 760 261
L 760 261
L 760 261
L 760 261
L 760 261
L 760 260
L 760 260
L 760 260
L 760 260
L 760 260
L 760 260
L 760 260
L 760 260
L 760 260
L 760 260
L 760 260
L 760 260
L 760 260
L 760 260
L 760 260
L 760 260
L 760 260
L 760 260
L 760 260
L 760 260
L 760 260
L 760 260
L 760 260
L 760 260
L 760 259
L 760 259
L 760 259
L 760 259
L 760 259
L 760 259
L 760 259
L 760 259
L 760 259
L 760 259
L 760 259
L 760 259
L 760 259
L 760 259
L 760 259
L 760 259
L 760 259
L 760 259
L 760 259
L 760 259
L 760 259
L 760 259
L 760 259
L 760 259
L 760 258
L 760 258
L 760 258
L 760 258
L 760 258
L 760 258
L 760 258
L 760 258
L 760 258
L 760 258
L 760 258
L 760 258
L 760 258
L 760 258
L 761 258
L 761 258
L 761 258
L 761 258
L 761 258
L 761 258
L 761 258
L 761 258
L 761 258
L 761 258
L 761 258
L 761 257
L 761 257
L 761 257
L 761 257
L 761 257
L 761 257
L 761 257
L 761 257
L 761 257
L 761 257
L 761 257
L 761 257
L 761 257
L 761 257
L 761 257
L 761 257
L 761 257
L 761 257
L 761 257
L 761 257
L 761 257
L 761 257
L 761 257
L 761 257
L 761 256
L 761 256
L 761 256
L 761 256
L 761 256
L 761 256
L 761 256
L 761 256
L 761 256
L 761 256
L 761 256
L 762 256
L 762 256
L 762 256
L 762 256
L 762 256
L 762 256
L 762 256
L 762 256
L 762 256
L 762 256
L 762 256
L 762 256
L 762 256
L 762 256
L 762 255
L 762 255
L 762 255
L 762 255
L 762 255
L 762 255
L 762 255
L 762 255
L 762 255
L 762 255
L 762 255
L 762 255
L 762 255
L 762 255
L 762 255
L 763 255
L 763 255
L 763 255
L 763 255
L 763 255
L 763 255
L 763 255
L 763 255
L 763 255
L 763 254
L 763 254
L 763 254
L 763 254
L 763 254
L 763 254
L 763 254
L 763 254
L 763 254
L 763 254
L 763 254
L 763 254
L 763 254
L 763 254
L 763 254
L 763 254
L 763 254
L 763 254
L 764 254
L 764 254
L 764 254
L 764 254
L 764 254
L 764 254
L 764 253
L 764 253
L 764 253
L 764 253
L 764 253
L 764 253
L 764 253
L 764 253
L 764 253
L 764 253
L 764 253
L 764 253
L 764 253
L 764 253
L 764 253
L 764 253
L 764 253
L 764 253
L 764 253
L 764 253
L 764 253
L 764 253
L 765 253
L 765 253
L 765 253
L 765 252
L 765 252
L 765 252
L 765 252
L 765 252
L 765 252
L 765 252
L 765 252
L 765 252
L 765 252
L 765 252
L 765 252
L 765 252
L 765 252
L 765 252
L 765 252
L 765 252
L 766 252
L 766 252
L 766 252
L 766 252
L 766 252
L 766 252
L 766 252
L 766 251
L 766 251
L 766 251
L 766 251
L 766 251
L 766 251
L 766 251
L 767 251
L 767 251
L 767 251
L 767 251
L 767 251
L 767 251
L 767 251
L 767 251
L 767 251
L 767 251
L 768 251
L 768 251
L 768 251
L 768 251
L 768 251
L 768 251
L 768 251
L 768 251
L 769 250
L 769 250
L 769 250
L 769 250
L 769 250
L 769 250
L 769 250
L 769 250
L 769 250
L 769 250
L 769 250
L 770 250
L 770 250
L 770 250
L 770 250
L 770 250
L 770 250
L 770 250
L 770 250
L 770 250
L 770 250
L 770 250
L 770 250
L 770 250
L 770 249
L 770 249
L 770 249
L 770 249
L 770 249
L 770 249
L 770 249
L 770 249
L 770 249
L 770 249
L 771 249
L 771 249
L 771 249
L 771 249
L 771 249
L 771 249
L 771 249
L 771 249
L 771 249
L 771 249
L 772 249
L 772 249
L 772 249
L 772 249
L 772 249
L 772 248
L 772 248
L 772 248
L 772 248
L 772 248
L 772 248
L 772 248
L 773 248
L 773 248
L 773 248
L 773 248
L 773 248
L 773 248
L 773 248
L 773 248
L 773 248
L 773 248
L 773 248
L 773 248
L 773 248
L 773 248
L 773 248
L 773 248
L 773 248
L 773 247
L 774 247
L 774 247
L 774 247
L 774 247
L 774 247
L 774 247
L 774 247
L 774 247
L 774 247
L 774 247
L 774 247
L 774 247
L 774 247
L 774 247
L 774 247
L 774 247
L 774 247
L 775 247
L 775 247
L 775 247
L 775 247
L 775 247
L 775 247
L 775 246
L 775 246
L 775 246
L 775 246
L 775 246
L 775 246
L 775 246
L 775 246
L 775 246
L 775 246
L 775 246
L 775 246
L 775 246
L 776 246
L 776 246
L 776 246
L 776 246
L 776 246
L 776 246
L 776 246
L 776 246
L 776 246
L 776 246
L 776 246
L 776 246
L 777 245
L 777 245
L 777 245
L 777 245
L 777 245
L 777 245
L 777 245
L 777 245
L 778 245
L 778 245
L 778 245
L 778 245
L 778 245
L 778 245
L 778 245
L 778 245
L 778 245
L 778 245
L 778 245
L 778 245
L 778 245
L 778 245
L 778 245
L 778 245
L 778 244
L 778 244
L 778 244
L 778 244
L 778 244
L 778 244
L 778 244
L 778 244
L 778 244
L 778 244
L 778 244
L 778 244
L 778 244
L 778 244
L 778 244
L 778 244
L 778 244
L 778 244
L 778 244
L 779 244
L 779 244
L 779 244
L 779 244
L 779 244
L 779 244
L 779 243
L 779 243
L 779 243
L 779 243
L 779 243
L 779 243
L 779 243
L 779 243
L 779 243
L 779 243
L 779 243
L 779 243
L 779 243
L 779 243
L 779 243
L 779 243
L 779 243
L 779 243
L 779 243
L 779 243
L 779 243
L 779 243
L 779 243
L 779 243
L 779 242
L 779 242
L 779 242
L 779 242
L 779 242
L 779 242
L 779 242
L 779 242
L 779 242
L 779 242
L 779 242
L 779 242
L 779 242
L 779 242
L 779 242
L 779 242
L 779 242
L 779 242
L 779 242
L 779 242
L 779 242
L 779 242
L 779 242
L 779 242
L 780 241
L 780 241
L 780 241
L 780 241
L 780 241
L 780 241
L 780 241
L 780 241
L 780 241
L 780 241
L 780 241
L 780 241
L 780 241
L 780 241
L 780 241
L 780 241
L 780 241
L 780 241
L 780 241
L 780 241
L 780 241
L 780 241
L 780 241
L 780 241
L 780 241
L 780 240
L 780 240
L 780 240
L 780 240
L 780 240
L 780 240
L 780 240
L 780 240
L 780 240
L 780 240
L 780 240
L 780 240
L 780 240
L 780 240
L 780 240
L 780 240
L 780 240
L 780 240
L 780 240
L 780 240
L 780 240
L 780 240
L 780 240
L 780 240
L 780 239
L 780 239
L 780 239
L 780 239
L 780 239
L 780 239
L 780 239
L 780 239
L 780 239
L 780 239
L 780 239
L 780 239
L 780 239
L 780 239
L 780 239
L 780 239
L 780 239
L 780 239
L 780 239
L 780 239
L 780 239
L 781 239
L 781 239
L 781 239
L 781 239
L 781 238
L 781 238
L 781 238
L 781 238
L 781 238
L 781 238
L 781 238
L 781 238
L 781 238
L 781 238
L 781 238
L 781 238
L 781 238
L 781 238
L 781 238
L 781 238
L 781 238
L 781 238
L 781 238
L 781 238
L 781 238
L 781 238
L 781 238
L 781 238
L 781 237
L 781 237
L 781 237
L 781 237
L 781 237
L 781 237
L 781 237
L 781 237
L 781 237
L 781 237
L 781 237
L 781 237
L 781 237
L 781 237
L 781 237
L 781 237
L 781 237
L 781 237
L 781 237
L 781 237
L 781 237
L 781 237
L 781 237
L 781 237
L 781 236
L 781 236
L 781 236
L 781 236
L 781 236
L 781 236
L 781 236
L 781 236
L 781 236
L 781 236
L 781 236
L 781 236
L 781 236
L 781 236
L 781 236
L 781 236
L 781 236
L 781 236
L 781 236
L 781 236
L 781 236
L 781 236
L 781 236
L 781 236
L 781 236
L 781 235
L 781 235
L 781 235
L 781 235
L 781 235
L 781 235
L 781 235
L 781 235
L 781 235
L 781 235
L 781 235
L 781 235
L 781 235
L 781 235
L 781 235
L 781 235
L 781 235
L 781 235
L 781 235
L 781 235
L 781 235
L 781 235
L 781 235
L 781 235
L 781 234
L 781 234
L 781 234
L 781 234
L 781 234
L 781 234
L 781 234
L 781 234
L 781 234
L 781 234
L 781 234
L 781 234
L 781 234
L 781 234
L 781 234
L 781 234
L 781 234
L 781 234
L 781 234
L 781 234
L 781 234
L 781 234
L 781 234
L 781 234
L 781 234
L 781 233
L 781 233
L 781 233
L 781 233
L 781 233
L 781 233
L 781 233
L 781 233
L 781 233
L 781 233
L 781 233
L 781 233
L 781 233
L 781 233
L 781 233
L 781 233
L 781 233
L 781 233
L 781 233
L 781 233
L 781 233
L 782 233
L 782 233
L 782 233
L 782 232
L 782 232
L 782 232
L 782 232
L 782 232
L 782 232
L 782 232
L 782 232
L 782 232
L 782 232
L 782 232
L 782 232
L 782 232
L 782 232
L 782 232
L 782 232
L 782 232
L 782 232
L 782 232
L 782 232
L 782 232
L 782 232
L 782 232
L 782 232
L 782 232
L 782 231
L 782 231
L 782 231
L 782 231
L 782 231
L 782 231
L 782 231
L 782 231
L 782 231
L 782 231
L 782 231
L 782 231
L 782 231
L 782 231
L 782 231
L 782 231
L 782 231
L 782 231
L 782 231
L 782 231
L 782 231
L 782 231
L 782 231
L 782 231
L 782 230
L 782 230
L 782 230
L 782 230
L 782 230
L 782 230
L 782 230
L 782 230
L 782 230
L 782 230
L 782 230
L 782 230
L 782 230
L 782 230
L 782 230
L 782 230
L 782 230
L 782 230
L 782 230
L 782 230
L 782 230
L 782 230
L 782 230
L 782 230
L 782 229
L 782 229
L 782 229
L 782 229
L 782 229
L 782 229
L 782 229
L 782 229
L 782 229
L 782 229
L 782 229
L 782 229
L 782 229
L 782 229
L 782 229
L 782 229
L 782 229
L 782 229
L 782 229
L 782 229
L 782 229
L 782 229
L 782 229
L 782 229
L 782 229
L 782 228
L 782 228
L 782 228
L 782 228
L 782 228
L 782 228
L 782 228
L 782 228
L 782 228
L 782 228
L 782 228
L 782 228
L 782 228
L 782 228
L 782 228
L 782 228
L 782 228
L 782 228
L 782 228
L 782 228
L 782 228
L 782 228
L 782 228
L 782 228
L 782 227
L 782 227
L 782 227
L 782 227
L 782 227
L 782 227
L 782 227
L 782 227
L 782 227
L 782 227
L 782 227
L 782 227
L 782 227
L 782 227
L 782 227
L 782 227
L 782 227
L 782 227
L 782 227
L 782 227
L 782 227
L 782 227
L 782 227
L 782 227
L 782 227
L 782 226
L 782 226
L 782 226
L 782 226
L 782 226
L 782 226
L 782 226
L 782 226
L 782 226
L 782 226
L 782 226
L 782 226
L 782 226
L 782 226
L 782 226
L 782 226
L 782 226
L 782 226
L 782 226
L 782 226
L 782 226
L 782 226
L 782 226
L 782 226
L 782 225
L 782 225
L 782 225
L 782 225
L 782 225
L 782 225
L 782 225
L 782 225
L 782 225
L 782 225
L 782 225
L 782 225
L 782 225
L 782 225
L 782 225
L 782 225
L 782 225
L 782 225
L 782 225
L 782 225
L 782 225
L 782 225
L 782 225
L 782 225
L 782 224
L 782 224
L 782 224
L 782 224
L 782 224
L 782 224
L 782 224
L 782 224
L 782 224
L 782 224
L 782 224
L 782 224
L 782 224
L 782 224
L 782 224
L 782 224
L 782 224
L 782 224
L 782 224
L 782 224
L 782 224
L 782 224
L 782 224
L 782 224
L 782 224
L 782 223
L 782 223
L 782 223
L 782 223
L 782 223
L 782 223
L 782 223
L 782 223
L 782 223
L 782 223
L 782 223
L 782 223
L 782 223
L 782 223
L 782 223
L 782 223
L 782 223
L 782 223
L 782 223
L 782 223
L 782 223
L 782 223
L 782 223
L 782 223
L 782 222
L 782 222
L 782 222
L 782 222
L 782 222
L 782 222
L 782 222
L 782 222
L 782 222
L 782 222
L 782 222
L 782 222
L 782 222
L 782 222
L 782 222
L 782 222
L 782 222
L 782 222
L 782 222
L 782 222
L 782 222
L 782 222
L 782 222
L 782 222
L 782 222
L 782 221
L 782 221
L 782 221
L 782 221
L 782 221
L 782 221
L 782 221
L 782 221
L 782 221
L 782 221
L 782 221
L 782 221
L 782 221
L 782 221
L 782 221
L 782 221
L 782 221
L 782 221
L 782 221
L 782 221
L 782 221
L 782 221
L 782 221
L 782 221
L 782 220
L 782 220
L 782 220
L 782 220
L 782 220
L 782 220
L 782 220
L 782 220
L 782 220
L 782 220
L 782 220
L 782 220
L 782 220
L 782 220
L 782 220
L 782 220
L 782 220
L 782 220
L 782 220
L 782 220
L 782 220
L 782 220
L 782 220
L 782 220
L 782 219
L 782 219
L 782 219
L 782 219
L 782 219
L 782 219
L 782 219
L 782 219
L 782 219
L 782 219
L 782 219
L 783 219
L 783 219
L 783 219
L 783 219
L 783 219
L 783 219
L 783 219
L 783 219
L 783 219
L 783 219
L 783 219
L 783 219
L 783 219
L 783 219
L 783 218
L 783 218
L 783 218
L 783 218
L 783 218
L 783 218
L 783 218
L 783 218
L 783 218
L 783 218
L 783 218
L 783 218
L 783 218
L 783 218
L 783 218
L 783 218
L 783 218
L 783 218
L 783 218
L 783 218
L 783 218
L 783 218
L 783 218
L 783 218
L 783 217
L 783 217
L 783 217
L 783 217
L 783 217
L 783 217
L 783 217
L 783 217
L 783 217
L 783 217
L 783 217
L 783 217
L 783 217
L 783 217
L 783 217
L 783 217
L 783 217
L 783 217
L 783 217
L 783 217
L 783 217
L 783 217
L 783 217
L 783 217
L 783 217
L 783 216
L 783 216
L 783 216
L 783 216
L 783 216
L 783 216
L 783 216
L 783 216
L 783 216
L 783 216
L 783 216
L 783 216
L 783 216
L 783 216
L 783 216
L 783 216
L 783 216
L 783 216
L 783 216
L 783 216
L 783 216
L 783 216
L 783 216
L 783 216
L 783 215
L 783 215
L 783 215
L 783 215
L 783 215
L 783 215
L 783 215
L 783 215
L 783 215
L 783 215
L 783 215
L 783 215
L 783 215
L 783 215
L 783 215
L 783 215
L 783 215
L 783 215
L 783 215
L 783 215
L 783 215
L 783 215
L 783 215
L 783 215
L 783 215
L 783 214
L 783 214
L 783 214
L 783 214
L 783 214
L 783 214
L 783 214
L 783 214
L 783 214
L 783 214
L 783 214
L 783 214
L 783 214
L 783 214
L 783 214
L 783 214
L 783 214
L 783 214
L 783 214
L 783 214
L 783 214
L 783 214
L 783 214
L 783 214
L 783 213
L 783 213
L 783 213
L 783 213
L 783 213
L 783 213
L 783 213
L 783 213
L 783 213
L 783 213
L 783 213
L 783 213
L 783 213
L 783 213
L 783 213
L 783 213
L 783 213
L 783 213
L 783 213
L 783 213
L 783 213
L 783 213
L 783 213
L 783 213
L 783 212
L 783 212
L 783 212
L 783 212
L 783 212
L 783 212
L 783 212
L 783 212
L 783 212
L 783 212
L 783 212
L 783 212
L 783 212
L 783 212
L 783 212
L 783 212
L 783 212
L 783 212
L 783 212
L 783 212
L 783 212
L 783 212
L 783 212
L 783 212
L 783 212
L 783 211
L 783 211
L 783 211
L 783 211
L 783 211
L 783 211
L 783 211
L 783 211
L 783 211
L 783 211
L 783 211
L 783 211
L 783 211
L 783 211
L 783 211
L 783 211
L 783 211
L 783 211
L 783 211
L 783 211
L 783 211
L 783 211
L 783 211
L 783 211
L 783 210
L 783 210
L 783 210
L 783 210
L 783 210
L 783 210
L 783 210
L 783 210
L 783 210
L 783 210
L 783 210
L 783 210
L 783 210
L 783 210
L 783 210
L 783 210
L 783 210
L 783 210
L 783 210
L 783 210
L 783 210
L 783 210
L 783 210
L 783 210
L 783 210
L 783 209
L 783 209
L 783 209
L 783 209
L 783 209
L 783 209
L 783 209
L 783 209
L 783 209
L 783 209
L 783 209
L 783 209
L 783 209
L 783 209
L 783 209
L 783 209
L 783 209
L 783 209
L 783 209
L 783 209
L 783 209
L 783 209
L 783 209
L 783 209
L 783 208
L 783 208
L 783 208
L 783 208
L 783 208
L 783 208
L 783 208
L 783 208
L 783 208
L 783 208
L 783 208
L 783 208
L 783 208
L 783 208
L 783 208
L 783 208
L 783 208
L 783 208
L 783 208
L 783 208
L 783 208
L 783 208
L 783 208
L 783 208
L 783 207
L 783 207
L 783 207
L 783 207
L 783 207
L 783 207
L 783 207
L 783 207
L 783 207
L 783 207
L 783 207
L 783 207
L 783 207
L 783 207
L 783 207
L 783 207
L 783 207
L 783 207
L 783 207
L 783 207
L 783 207
L 783 207
L 783 207
L 783 207
L 783 207
L 783 206
L 783 206
L 784 206
L 784 206
L 784 206
L 784 206
L 784 206
L 784 206
L 784 206
L 784 206
L 784 206
L 784 206
L 784 206
L 784 206
L 784 206
L 784 206
L 784 206
L 784 206
L 784 206
L 784 206
L 784 206
L 784 206
L 784 206
L 784 206
L 784 205
L 784 205
L 784 205
L 784 205
L 784 205
L 784 205
L 784 205
L 784 205
L 784 205
L 784 205
L 784 205
L 784 205
L 784 205
L 784 205
L 784 205
L 784 205
L 784 205
L 784 205
L 784 205
L 784 205
L 784 205
L 784 205
L 784 205
L 784 205
L 784 205
L 784 204
L 784 204
L 784 204
L 784 204
L 784 204
L 784 204
L 784 204
L 784 204
L 784 204
L 784 204
L 784 204
L 784 204
L 784 204
L 784 204
L 784 204
L 784 204
L 784 204
L 784 204
L 784 204
L 784 204
L 784 204
L 784 204
L 784 204
L 784 204
L 784 203
L 784 203
L 784 203
L 784 203
L 784 203
L 784 203
L 784 203
L 784 203
L 784 203
L 784 203
L 784 203
L 784 203
L 784 203
L 784 203
L 784 203
L 784 203
L 784 203
L 784 203
L 784 203
L 784 203
L 784 203
L 784 203
L 784 203
L 784 203
L 784 202
L 784 202
L 784 202
L 784 202
L 784 202
L 784 202
L 784 202
L 784 202
L 784 202
L 784 202
L 784 202
L 784 202
L 784 202
L 784 202
L 784 202
L 784 202
L 784 202
L 784 202
L 784 202
L 784 202
L 784 202
L 784 202
L 784 202
L 784 202
L 784 202
L 784 201
L 784 201
L 784 201
L 784 201
L 784 201
L 784 201
L 784 201
L 784 201
L 784 201
L 784 201
L 784 201
L 784 201
L 784 201
L 784 201
L 784 201
L 784 201
L 784 201
L 784 201
L 784 201
L 784 201
L 784 201
L 784 201
L 784 201
L 784 201
L 784 200
L 784 200
L 784 200
L 784 200
L 784 200
L 785 200
L 785 200
L 785 200
L 785 200
L 785 200
L 785 200
L 785 200
L 785 200
L 785 200
L 785 200
L 786 200
L 786 200
L 786 200
L 786 200
L 786 200
L 786 200
L 786 200
L 786 200
L 786 200
L 786 200
L 786 199
L 786 199
L 786 199
L 786 199
L 786 199
L 786 199
L 787 199
L 787 199
L 787 199
L 787 199
L 787 199
L 787 199
L 787 199
L 787 199
L 787 199
L 787 199
L 787 199
L 787 199
L 787 199
L 787 199
L 787 199
L 787 199
L 787 199
L 787 199
L 787 198
L 787 198
L 787 198
L 787 198
L 787 198
L 787 198
L 787 198
L 787 198
L 787 198
L 787 198
L 787 198
L 787 198
L 787 198
L 787 198
L 787 198
L 787 198
L 787 198
L 787 198
L 787 198
L 787 198
L 788 198
L 788 198
L 788 198
L 788 198
L 788 198
L 788 197
L 788 197
L 788 197
L 788 197
L 788 197
L 788 197
L 788 197
L 788 197
L 788 197
L 788 197
L 788 197
L 788 197
L 788 197
L 788 197
L 788 197
L 788 197
L 788 197
L 788 197
L 788 197
L 788 197
L 788 197
L 789 197
L 789 197
L 789 197
L 789 196
L 789 196
L 789 196
L 789 196
L 789 196
L 789 196
L 789 196
L 789 196
L 789 196
L 789 196
L 789 196
L 789 196
L 789 196
L 789 196
L 789 196
L 789 196
L 789 196
L 789 196
L 790 196
L 790 196
L 790 196
L 790 196
L 790 196
L 790 196
L 790 195
L 790 195
L 790 195
L 790 195
L 790 195
L 790 195
L 790 195
L 790 195
L 790 195
L 790 195
L 790 195
L 790 195
L 790 195
L 790 195
L 790 195
L 790 195
L 790 195
L 790 195
L 790 195
L 791 195
L 791 195
L 791 195
L 791 195
L 791 195
L 791 195
L 791 194
L 791 194
L 791 194
L 791 194
L 791 194
L 791 194
L 791 194
L 791 194
L 791 194
L 791 194
L 791 194
L 791 194
L 791 194
L 791 194
L 791 194
L 791 194
L 791 194
L 791 194
L 791 194
L 791 194
L 791 194
L 791 194
L 791 194
L 791 194
L 791 193
L 792 193
L 792 193
L 792 193
L 792 193
L 792 193
L 792 193
L 792 193
L 792 193
L 792 193
L 792 193
L 792 193
L 792 193
L 792 193
L 792 193
L 792 193
L 793 193
L 793 193
L 793 193
L 793 193
L 793 193
L 793 193
L 793 193
L 793 193
L 793 193
L 793 192
L 793 192
L 793 192
L 793 192
L 793 192
L 793 192
L 793 192
L 793 192
L 793 192
L 793 192
L 794 192
L 794 192
L 794 192
L 794 192
L 794 192
L 794 192
L 794 192
L 794 192
L 794 192
L 794 192
L 794 192
L 794 192
L 794 192
L 794 192
L 794 191
L 794 191
L 794 191
L 794 191
L 794 191
L 794 191
L 795 191
L 795 191
L 795 191
L 795 191
L 795 191
L 795 191
L 795 191
L 795 191
L 795 191
L 795 191
L 796 191
L 796 191
L 796 191
L 796 191
L 796 191
L 796 191
L 796 191
L 796 191
L 796 190
L 796 190
L 796 190
L 796 190
L 796 190
L 796 190
L 796 190
L 796 190
L 796 190
L 797 190
L 797 190
L 797 190
L 797 190
L 797 190
L 797 190
L 797 190
L 797 190
L 797 190
L 797 190
L 797 190
L 797 190
L 797 190
L 797 190
L 797 190
L 797 190
L 797 189
L 797 189
L 797 189
L 797 189
L 797 189
L 797 189
L 797 189
L 797 189
L 798 189
L 798 189
L 798 189
L 798 189
L 798 189
L 798 189
L 798 189
L 798 189
L 798 189
L 798 189
L 798 189
L 798 189
L 798 189
L 798 189
L 798 189
L 798 189
L 798 188
L 798 188
L 799 188
L 799 188
L 799 188
L 799 188
L 799 188
L 799 188
L 799 188
L 799 188
L 799 188
L 799 188
L 799 188
L 799 188
L 799 188
L 799 188
L 799 188
L 800 188
L 800 188
L 800 188
L 800 188
L 800 188
L 800 188
L 800 188
L 801 188
L 801 187
L 801 187
L 801 187
L 801 187
L 801 187
L 801 187
L 801 187
L 801 187
L 801 187
L 801 187
L 801 187
L 801 187
L 801 187
L 802 187
L 802 187
L 802 187
L 802 187
L 802 187
L 802 187
L 802 187
L 802 187
L 802 187
L 802 187
L 802 187
L 802 186
L 802 186
L 802 186
L 802 186
L 802 186
L 802 186
L 802 186
L 802 186
L 802 186
L 802 186
L 802 186
L 802 186
L 802 186
L 802 186
L 802 186
L 802 186
L 802 186
L 802 186
L 802 186
L 802 186
L 802 186
L 802 186
L 802 186
L 802 186
L 802 185
L 802 185
L 802 185
L 802 185
L 802 185
L 802 185
L 802 185
L 802 185
L 802 185
L 802 185
L 802 185
L 802 185
L 802 185
L 802 185
L 802 185
L 802 185
L 802 185
L 802 185
L 802 185
L 802 185
L 802 185
L 802 185
L 802 185
L 802 185
L 802 185
L 802 184
L 802 184
L 802 184
L 802 184
L 802 184
L 802 184
L 803 184
L 803 184
L 803 184
L 803 184
L 803 184
L 803 184
L 803 184
L 803 184
L 803 184
L 803 184
L 803 184
L 803 184
L 803 184
L 803 184
L 803 184
L 803 184
L 803 184
L 803 184
L 803 183
L 803 183
L 803 183
L 803 183
L 803 183
L 803 183
L 803 183
L 803 183
L 803 183
L 803 183
L 803 183
L 803 183
L 803 183
L 803 183
L 803 183
L 803 183
L 803 183
L 803 183
L 803 183
L 803 183
L 803 183
L 803 183
L 803 183
L 803 183
L 803 183
L 803 182
L 803 182
L 803 182
L 803 182
L 803 182
L 803 182
L 803 182
L 803 182
L 803 182
L 803 182
L 803 182
L 803 182
L 803 182
L 803 182
L 803 182
L 803 182
L 803 182
L 803 182
L 803 182
L 803 182
L 803 182
L 803 182
L 803 182
L 803 182
L 803 181
L 803 181
L 803 181
L 803 181
L 803 181
L 803 181
L 803 181
L 803 181
L 803 181
L 803 181
L 803 181
L 803 181
L 803 181
L 803 181
L 803 181
L 803 181
L 803 181
L 803 181
L 803 181
L 803 181
L 803 181
L 803 181
L 803 181
L 803 181
L 803 181
L 803 180
L 803 180
L 803 180
L 803 180
L 803 180
L 803 180
L 803 180
L 803 180
L 803 180
L 803 180
L 803 180
L 803 180
L 803 180
L 803 180
L 803 180
L 803 180
L 803 180
L 803 180
L 803 180
L 803 180
L 803 180
L 803 180
L 803 180
L 803 180
L 803 179
L 803 179
L 803 179
L 803 179
L 803 179
L 803 179
L 803 179
L 803 179
L 803 179
L 803 179
L 803 179
L 803 179
L 803 179
L 803 179
L 803 179
L 803 179
L 803 179
L 803 179
L 803 179
L 803 179
L 803 179
L 803 179
L 803 179
L 803 179
L 803 178
L 803 178
L 803 178
L 803 178
L 803 178
L 803 178
L 803 178
L 803 178
L 803 178
L 803 178
L 803 178
L 803 178
L 803 178
L 803 178
L 803 178
L 803 178
L 803 178
L 803 178
L 803 178
L 803 178
L 803 178
L 803 178
L 803 178
L 803 178
L 803 178
L 803 177
L 803 177
L 803 177
L 803 177
L 803 177
L 803 177
L 803 177
L 803 177
L 803 177
L 803 177
L 803 177
L 803 177
L 803 177
L 803 177
L 803 177
L 803 177
L 803 177
L 803 177
L 803 177
L 803 177
L 803 177
L 803 177
L 803 177
L 803 177
L 803 176
L 803 176
L 803 176
L 803 176
L 803 176
L 803 176
L 803 176
L 803 176
L 803 176
L 803 176
L 803 176
L 803 176
L 803 176
L 803 176
L 803 176
L 803 176
L 803 176
L 803 176
L 803 176
L 803 176
L 803 176
L 803 176
L 803 176
L 803 176
L 803 176
L 803 175
L 803 175
L 803 175
L 803 175
L 803 175
L 803 175
L 803 175
L 803 175
L 803 175
L 803 175
L 803 175
L 803 175
L 803 175
L 803 175
L 803 175
L 803 175
L 803 175
L 803 175
L 803 175
L 803 175
L 803 175
L 803 175
L 803 175
L 803 175
L 803 174
L 803 174
L 803 174
L 803 174
L 803 174
L 803 174
L 803 174
L 803 174
L 803 174
L 803 174
L 803 174
L 803 174
L 803 174
L 803 174
L 803 174
L 803 174
L 803 174
L 803 174
L 803 174
L 803 174
L 803 174
L 803 174
L 803 174
L 803 174
L 803 173
L 803 173
L 803 173
L 803 173
L 803 173
L 803 173
L 803 173
L 803 173
L 803 173
L 803 173
L 803 173
L 803 173
L 803 173
L 803 173
L 803 173
L 803 173
L 803 173
L 803 173
L 803 173
L 803 173
L 803 173
L 803 173
L 803 173
L 803 173
L 803 173
L 803 172
L 803 172
L 803 172
L 803 172
L 803 172
L 803 172
L 803 172
L 803 172
L 803 172
L 803 172
L 803 172
L 804 172
L 804 172
L 804 172
L 804 172
L 804 172
L 804 172
L 804 172
L 804 172
L 804 172
L 804 172
L 804 172
L 804 172
L 804 172
L 804 171
L 804 171
L 804 171
L 804 171
L 804 171
L 804 171
L 804 171
L 804 171
L 804 171
L 804 171
L 804 171
L 804 171
L 804 171
L 804 171
L 804 171
L 804 171
L 804 171
L 804 171
L 804 171
L 804 171
L 804 171
L 804 171
L 804 171
L 804 171
L 804 171
L 804 170
L 804 170
L 804 170
L 804 170
L 804 170
L 804 170
L 804 170
L 804 170
L 804 170
L 804 170
L 804 170
L 804 170
L 804 170
L 804 170
L 804 170
L 804 170
L 804 170
L 804 170
L 804 170
L 804 170
L 804 170
L 804 170
L 804 170
L 804 170
L 804 169
L 804 169
L 804 169
L 804 169
L 804 169
L 804 169
L 804 169
L 804 169
L 804 169
L 804 169
L 804 169
L 804 169
L 804 169
L 804 169
L 804 169
L 804 169
L 804 169
L 804 169
L 804 169
L 804 169
L 804 169
L 804 169
L 804 169
L 804 169
L 804 168
L 804 168
L 804 168
L 804 168
L 804 168
L 804 168
L 804 168
L 804 168
L 804 168
L 804 168
L 804 168
L 804 168
L 804 168
L 804 168
L 804 168
L 804 168
L 804 168
L 804 168
L 804 168
L 804 168
L 804 168
L 804 168
L 804 168
L 804 168
L 804 168
L 804 167
L 804 167
L 804 167
L 804 167
L 804 167
L 804 167
L 804 167
L 804 167
L 804 167
L 804 167
L 804 167
L 804 167
L 804 167
L 804 167
L 804 167
L 804 167
L 804 167
L 804 167
L 804 167
L 804 167
L 804 167
L 804 167
L 804 167
L 804 167
L 804 166
L 804 166
L 804 166
L 804 166
L 804 166
L 804 166
L 804 166
L 804 166
L 804 166
L 804 166
L 804 166
L 804 166
L 804 166
L 804 166
L 804 166
L 804 166
L 804 166
L 804 166
L 804 166
L 804 166
L 804 166
L 804 166
L 804 166
L 804 166
L 804 166
L 804 165
L 804 165
L 804 165
L 804 165
L 804 165
L 804 165
L 804 165
L 804 165
L 804 165
L 804 165
L 804 165
L 804 165
L 804 165
L 804 165
L 804 165
L 804 165
L 804 165
L 804 165
L 804 165
L 804 165
L 804 165
L 804 165
L 804 165
L 804 165
L 804 164
L 804 164
L 804 164
L 804 164
L 804 164
L 804 164
L 804 164
L 804 164
L 804 164
L 804 164
L 804 164
L 804 164
L 804 164
L 804 164
L 804 164
L 804 164
L 804 164
L 804 164
L 804 164
L 804 164
L 804 164
L 804 164
L 804 164
L 804 164
L 804 163
L 804 163
L 804 163
L 804 163
L 804 163
L 804 163
L 804 163
L 804 163
L 804 163
L 804 163
L 804 163
L 804 163
L 804 163
L 804 163
L 804 163
L 804 163
L 804 163
L 804 163
L 804 163
L 804 163
L 804 163
L 804 163
L 804 163
L 804 163
L 804 163
L 804 162
L 804 162
L 804 162
L 804 162
L 804 162
L 804 162
L 804 162
L 804 162
L 804 162
L 804 162
L 804 162
L 804 162
L 804 162
L 804 162
L 804 162
L 804 162
L 804 162
L 804 162
L 804 162
L 804 162
L 804 162
L 804 162
L 804 162
L 804 162
L 804 161
L 804 161
L 804 161
L 804 161
L 804 161
L 804 161
L 804 161
L 804 161
L 804 161
L 804 161
L 804 161
L 804 161
L 804 161
L 804 161
L 804 161
L 804 161
L 804 161
L 804 161
L 804 161
L 804 161
L 804 161
L 804 161
L 804 161
L 804 161
L 804 161
L 804 160
L 804 160
L 804 160
L 804 160
L 804 160
L 804 160
L 804 160
L 804 160
L 804 160
L 804 160
L 804 160
L 804 160
L 804 160
L 804 160
L 804 160
L 804 160
L 804 160
L 804 160
L 804 160
L 804 160
L 804 160
L 804 160
L 804 160
L 804 160
L 804 159
L 804 159
L 804 159
L 804 159
L 804 159
L 804 159
L 804 159
L 804 159
L 804 159
L 804 159
L 804 159
L 804 159
L 804 159
L 804 159
L 804 159
L 804 159
L 804 159
L 804 159
L 804 159
L 804 159
L 804 159
L 804 159
L 804 159
L 804 159
L 804 159
L 804 158
L 804 158
L 804 158
L 804 158
L 804 158
L 804 158
L 804 158
L 804 158
L 804 158
L 804 158
L 804 158
L 804 158
L 805 158
L 805 158
L 805 158
L 805 158
L 805 158
L 805 158
L 805 158
L 805 158
L 805 158
L 805 158
L 805 158
L 805 158
L 805 157
L 805 157
L 805 157
L 805 157
L 805 157
L 805 157
L 805 157
L 805 157
L 805 157
L 805 157
L 805 157
L 805 157
L 805 157
L 805 157
L 805 157
L 805 157
L 805 157
L 805 157
L 805 157
L 805 157
L 805 157
L 805 157
L 805 157
L 805 157
L 805 156
L 805 156
L 805 156
L 805 156
L 805 156
L 805 156
L 805 156
L 805 156
L 805 156
L 805 156
L 805 156
L 805 156
L 805 156
L 805 156
L 805 156
L 805 156
L 805 156
L 805 156
L 805 156
L 805 156
L 805 156
L 805 156
L 805 156
L 805 156
L 805 156
L 805 155
L 805 155
L 805 155
L 805 155
L 805 155
L 805 155
L 805 155
L 805 155
L 805 155
L 805 155
L 805 155
L 805 155
L 805 155
L 805 155
L 805 155
L 805 155
L 805 155
L 805 155
L 805 155
L 805 155
L 805 155
L 805 155
L 805 155
L 805 155
L 805 154
L 805 154
L 805 154
L 805 154
L 805 154
L 805 154
L 805 154
L 805 154
L 805 154
L 805 154
L 805 154
L 805 154
L 805 154
L 805 154
L 805 154
L 805 154
L 805 154
L 805 154
L 805 154
L 805 154
L 805 154
L 805 154
L 805 154
L 805 154
L 805 154
L 805 153
L 805 153
L 805 153
L 805 153
L 805 153
L 805 153
L 805 153
L 805 153
L 805 153
L 805 153
L 805 153
L 805 153
L 805 153
L 805 153
L 805 153
L 805 153
L 805 153
L 805 153
L 805 153
L 805 153
L 805 153
L 805 153
L 805 153
L 805 153
L 805 152
L 805 152
L 805 152
L 805 152
L 805 152
L 805 152
L 805 152
L 805 152
L 805 152
L 805 152
L 805 152
L 805 152
L 805 152
L 805 152
L 805 152
L 805 152
L 805 152
L 805 152
L 805 152
L 805 152
L 805 152
L 805 152
L 805 152
L 805 152
L 805 151
L 805 151
L 805 151
L 805 151
L 805 151
L 805 151
L 805 151
L 805 151
L 805 151
L 805 151
L 805 151
L 805 151
L 805 151
L 805 151
L 805 151
L 805 151
L 805 151
L 805 151
L 805 151
L 805 151
L 805 151
L 805 151
L 805 151
L 805 151
L 805 151
L 805 150
L 805 150
L 805 150
L 805 150
L 805 150
L 805 150
L 805 150
L 805 150
L 805 150
L 805 150
L 805 150
L 805 150
L 805 150
L 805 150
L 805 150
L 805 150
L 805 150
L 805 150
L 805 150
L 805 150
L 805 150
L 805 150
L 805 150
L 805 150
L 805 149
L 805 149
L 805 149
L 805 149
L 805 149
L 805 149
L 805 149
L 805 149
L 805 149
L 805 149
L 805 149
L 805 149
L 805 149
L 805 149
L 805 149
L 805 149
L 805 149
L 805 149
L 805 149
L 805 149
L 805 149
L 805 149
L 805 149
L 805 149
L 805 149
L 805 148
L 805 148
L 805 148
L 805 148
L 805 148
L 805 148
L 805 148
L 805 148
L 805 148
L 805 148
L 805 148
L 805 148
L 805 148
L 805 148
L 805 148
L 805 148
L 805 148
L 805 148
L 805 148
L 805 148
L 805 148
L 805 148
L 805 148
L 805 148
L 805 147
L 805 147
L 805 147
L 805 147
L 805 147
L 805 147
L 805 147
L 805 147
L 805 147
L 805 147
L 805 147
L 805 147
L 805 147
L 805 147
L 805 147
L 805 147
L 805 147
L 805 147
L 805 147
L 805 147
L 805 147
L 805 147
L 805 147
L 805 147
L 805 147
L 805 146
L 805 146
L 805 146
L 805 146
L 805 146
L 805 146
L 805 146
L 805 146
L 805 146
L 805 146
L 805 146
L 805 146
L 805 146
L 805 146
L 805 146
L 805 146
L 805 146
L 805 146
L 805 146
L 805 146
L 805 146
L 805 146
L 805 146
L 805 146
L 805 145
L 805 145
L 805 145
L 805 145
L 805 145
L 805 145
L 805 145
L 805 145
L 806 145
L 806 145
L 806 145
L 806 145
L 806 145
L 806 145
L 806 145
L 806 145
L 806 145
L 806 145
L 806 145
L 806 145
L 806 145
L 806 145
L 806 145
L 806 145
L 806 144
L 806 144
L 806 144
L 806 144
L 806 144
L 806 144
L 806 144
L 806 144
L 806 144
L 806 144
L 806 144
L 806 144
L 806 144
L 806 144
L 806 144
L 806 144
L 806 144
L 806 144
L 806 144
L 806 144
L 806 144
L 806 144
L 806 144
L 806 144
L 806 144
L 806 143
L 806 143
L 806 143
L 806 143
L 806 143
L 806 143
L 806 143
L 806 143
L 806 143
L 806 143
L 806 143
L 806 143
L 806 143
L 806 143
L 806 143
L 806 143
L 806 143
L 806 143
L 806 143
L 806 143
L 806 143
L 806 143
L 806 143
L 806 143
L 806 142
L 806 142
L 806 142
L 806 142
L 806 142
L 806 142
L 806 142
L 806 142
L 806 142
L 806 142
L 806 142
L 806 142
L 806 142
L 806 142
L 806 142
L 806 142
L 806 142
L 806 142
L 806 142
L 806 142
L 806 142
L 806 142
L 806 142
L 806 142
L 806 142
L 806 141
L 806 141
L 806 141
L 806 141
L 806 141
L 806 141
L 806 141
L 806 141
L 806 141
L 806 141
L 806 141
L 806 141
L 806 141
L 806 141
L 806 141
L 806 141
L 806 141
L 806 141
L 806 141
L 806 141
L 806 141
L 806 141
L 806 141
L 806 141
L 806 140
L 806 140
L 806 140
L 806 140
L 806 140
L 806 140
L 806 140
L 806 140
L 806 140
L 806 140
L 806 140
L 806 140
L 806 140
L 806 140
L 806 140
L 806 140
L 806 140
L 806 140
L 806 140
L 806 140
L 806 140
L 806 140
L 806 140
L 806 140
L 806 139
L 806 139
L 806 139
L 806 139
L 806 139
L 806 139
L 806 139
L 806 139
L 806 139
L 806 139
L 806 139
L 806 139
L 806 139
L 806 139
L 806 139
L 806 139
L 806 139
L 806 139
L 806 139
L 806 139
L 806 139
L 806 139
L 806 139
L 806 139
L 806 139
L 806 138
L 806 138
L 806 138
L 806 138
L 806 138
L 806 138
L 806 138
L 806 138
L 806 138
L 806 138
L 806 138
L 806 138
L 806 138
L 806 138
L 806 138
L 806 138
L 806 138
L 806 138
L 806 138
L 806 138
L 806 138
L 806 138
L 807 138
L 807 138
L 807 137
L 807 137
L 807 137
L 807 137
L 807 137
L 807 137
L 807 137
L 807 137
L 807 137
L 807 137
L 807 137
L 807 137
L 807 137
L 807 137
L 807 137
L 807 137
L 807 137
L 807 137
L 807 137
L 807 137
L 807 137
L 807 137
L 807 137
L 807 137
L 807 137
L 807 136
L 807 136
L 808 136
L 808 136
L 808 136
L 808 136
L 808 136
L 808 136
L 808 136
L 808 136
L 808 136
L 808 136
L 808 136
L 808 136
L 808 136
L 808 136
L 808 136
L 808 136
L 808 136
L 808 136
L 808 136
L 808 136
L 808 136
L 808 136
L 808 135
L 808 135
L 808 135
L 808 135
L 808 135
L 808 135
L 808 135
L 808 135
L 808 135
L 808 135
L 808 135
L 808 135
L 808 135
L 808 135
L 808 135
L 808 135
L 808 135
L 808 135
L 808 135
L 808 135
L 808 135
L 808 135
L 808 135
L 808 135
L 808 134
L 808 134
L 808 134
L 808 134
L 808 134
L 808 134
L 808 134
L 808 134
L 808 134
L 808 134
L 808 134
L 808 134
L 808 134
L 808 134
L 808 134
L 808 134
L 808 134
L 808 134
L 808 134
L 808 134
L 808 134
L 808 134
L 808 134
L 808 134
L 808 134
L 808 133
L 808 133
L 808 133
L 808 133
L 808 133
L 808 133
L 808 133
L 808 133
L 808 133
L 808 133
L 808 133
L 808 133
L 808 133
L 808 133
L 808 133
L 808 133
L 808 133
L 808 133
L 808 133
L 808 133
L 808 133
L 808 133
L 808 133
L 808 133
L 808 132
L 808 132
L 808 132
L 808 132
L 808 132
L 809 132
L 809 132
L 809 132
L 809 132
L 809 132
L 809 132
L 809 132
L 809 132
L 809 132
L 809 132
L 809 132
L 809 132
L 809 132
L 809 132
L 809 132
L 809 132
L 809 132
L 809 132
L 809 132
L 809 132
L 809 131
L 809 131
L 809 131
L 809 131
L 809 131
L 809 131
L 809 131
L 809 131
L 809 131
L 809 131
L 809 131
L 809 131
L 809 131
L 809 131
L 809 131
L 809 131
L 809 131
L 809 131
L 809 131
L 809 131
L 809 131
L 809 131
L 809 131
L 809 131
L 809 130
L 809 130
L 809 130
L 809 130
L 809 130
L 809 130
L 809 130
L 809 130
L 809 130
L 809 130
L 809 130
L 810 130
L 810 130
L 810 130
L 810 130
L 810 130
L 810 130
L 810 130
L 810 130
L 810 130
L 810 130
L 810 130
L 810 130
L 810 130
L 810 130
L 810 129
L 810 129
L 810 129
L 810 129
L 810 129
L 810 129
L 810 129
L 810 129
L 810 129
L 810 129
L 810 129
L 810 129
L 810 129
L 810 129
L 810 129
L 810 129
L 810 129
L 810 129
L 810 129
L 810 129
L 810 129
L 811 129
L 811 129
L 811 129
L 811 128
L 811 128
L 811 128
L 811 128
L 811 128
L 811 128
L 811 128
L 811 128
L 811 128
L 811 128
L 811 128
L 811 128
L 812 128
L 812 128
L 812 128
L 812 128
L 812 128
L 812 128
L 812 128
L 812 128
L 812 128
L 812 128
L 812 128
L 812 128
L 812 127
L 812 127
L 812 127
L 812 127
L 812 127
L 812 127
L 812 127
L 812 127
L 812 127
L 812 127
L 812 127
L 812 127
L 812 127
L 812 127
L 813 127
L 813 127
L 813 127
L 813 127
L 813 127
L 813 127
L 813 127
L 813 127
L 813 127
L 813 127
L 813 127
L 813 126
L 813 126
L 813 126
L 813 126
L 813 126
L 813 126
L 813 126
L 813 126
L 813 126
L 813 126
L 813 126
L 813 126
L 813 126
L 813 126
L 813 126
L 813 126
L 813 126
L 813 126
L 813 126
L 813 126
L 813 126
L 813 126
L 814 126
L 814 126
L 814 125
L 814 125
L 814 125
L 814 125
L 814 125
L 814 125
L 814 125
L 814 125
L 814 125
L 814 125
L 814 125
L 814 125
L 814 125
L 814 125
L 814 125
L 814 125
L 814 125
L 815 125
L 815 125
L 815 125
L 815 125
L 815 125
L 815 125
L 815 125
L 815 125
L 815 124
L 815 124
L 815 124
L 815 124
L 815 124
L 815 124
L 815 124
L 815 124
L 815 124
L 815 124
L 815 124
L 815 124
L 815 124
L 816 124
L 816 124
L 816 124
L 816 124
L 816 124
L 816 124
L 816 124
L 816 124
L 816 124
L 816 124
L 816 124
L 816 123
L 816 123
L 816 123
L 816 123
L 816 123
L 816 123
L 816 123
L 816 123
L 816 123
L 816 123
L 816 123
L 816 123
L 816 123
L 816 123
L 816 123
L 816 123
L 816 123
L 816 123
L 816 123
L 817 123
L 817 123
L 817 123
L 817 123
L 817 123
L 817 122
L 817 122
L 817 122
L 817 122
L 817 122
L 817 122
L 817 122
L 817 122
L 817 122
L 818 122
L 818 122
L 818 122
L 818 122
L 818 122
L 818 122
L 818 122
L 818 122
L 818 122
L 818 122
L 819 122
L 819 122
L 819 122
L 819 122
L 819 122
L 819 122
L 819 121
L 819 121
L 819 121
L 819 121
L 819 121
L 819 121
L 819 121
L 819 121
L 819 121
L 819 121
L 819 121
L 819 121
L 819 121
L 819 121
L 819 121
L 819 121
L 819 121
L 819 121
L 819 121
L 819 121
L 819 121
L 819 121
L 819 121
L 819 121
L 819 120
L 819 120
L 819 120
L 819 120
L 819 120
L 819 120
L 820 120
L 820 120
L 820 120
L 820 120
L 820 120
L 820 120
L 820 120
L 820 120
L 820 120
L 820 120
L 820 120
L 820 120
L 820 120
L 820 120
L 820 120
L 820 120
L 820 120
L 820 120
L 820 120
L 820 119
L 820 119
L 820 119
L 820 119
L 820 119
L 820 119
L 820 119
L 820 119
L 820 119
L 820 119
L 820 119
L 820 119
L 820 119
L 820 119
L 820 119
L 820 119
L 820 119
L 820 119
L 820 119
L 820 119
L 820 119
L 820 119
L 820 119
L 820 119
L 820 118
L 820 118
L 820 118
L 820 118
L 820 118
L 820 118
L 820 118
L 820 118
L 820 118
L 820 118
L 821 118
L 821 118
L 821 118
L 821 118
L 821 118
L 821 118
L 821 118
L 821 118
L 821 118
L 821 118
L 821 118
L 821 118
L 821 118
L 821 118
L 821 117
L 821 117
L 821 117
L 821 117
L 821 117
L 821 117
L 821 117
L 821 117
L 821 117
L 821 117
L 821 117
L 821 117
L 821 117
L 821 117
L 821 117
L 821 117
L 821 117
L 821 117
L 821 117
L 821 117
L 821 117
L 821 117
L 821 117
L 821 117
L 821 117
L 821 116
L 821 116
L 821 116
L 821 116
L 821 116
L 821 116
L 821 116
L 821 116
L 821 116
L 822 116
L 822 116
L 822 116
L 822 116
L 822 116
L 822 116
L 822 116
L 822 116
L 822 116
L 822 116
L 822 116
L 822 116
L 822 116
L 822 116
L 822 116
L 822 115
L 822 115
L 822 115
L 822 115
L 822 115
L 822 115
L 822 115
L 822 115
L 822 115
L 823 115
L 823 115
L 823 115
L 823 115
L 823 115
L 823 115
L 823 115
L 823 115
L 823 115
L 823 115
L 823 115
L 823 115
L 823 115
L 823 115
L 823 115
L 823 115
L 823 114
L 823 114
L 823 114
L 823 114
L 823 114
L 823 114
L 823 114
L 823 114
L 823 114
L 823 114
L 823 114
L 823 114
L 823 114
L 823 114
L 823 114
L 823 114
L 823 114
L 823 114
L 823 114
L 824 114
L 824 114
L 824 114
L 824 114
L 824 114
L 824 113
L 824 113
L 824 113
L 824 113
L 824 113
L 824 113
L 824 113
L 824 113
L 824 113
L 824 113
L 824 113
L 824 113
L 824 113
L 824 113
L 824 113
L 824 113
L 824 113
L 824 113
L 824 113
L 824 113
L 824 113
L 824 113
L 825 113
L 825 113
L 825 113
L 825 112
L 825 112
L 825 112
L 825 112
L 825 112
L 825 112
L 825 112
L 825 112
L 825 112
L 825 112
L 825 112
L 825 112
L 825 112
L 825 112
L 825 112
L 825 112
L 825 112
L 825 112
L 825 112
L 825 112
L 825 112
L 825 112
L 825 112
L 825 112
L 825 111
L 825 111
L 826 111
L 826 111
L 826 111
L 826 111
L 826 111
L 826 111
L 826 111
L 826 111
L 826 111
L 826 111
L 826 111
L 826 111
L 826 111
L 826 111
L 826 111
L 826 111
L 826 111
L 826 111
L 826 111
L 827 111
L 827 111
L 827 111
L 827 110
L 827 110
L 827 110
L 827 110
L 827 110
L 827 110
L 827 110
L 827 110
L 828 110
L 828 110
L 828 110
L 828 110
L 828 110
L 828 110
L 828 110
L 828 110
L 829 110
L 829 110
L 829 110
L 829 110
L 829 110
L 830 110
L 830 110
L 830 110
L 830 110
L 830 109
L 830 109
L 830 109
L 830 109
L 830 109
L 830 109
L 830 109
L 830 109
L 830 109
L 830 109
L 830 109
L 830 109
L 831 109
L 831 109
L 831 109
L 831 109
L 831 109
L 831 109
L 831 109
L 831 109
L 831 109
L 831 109
L 831 109
L 831 109
L 831 108
L 831 108
L 831 108
L 832 108
L 832 108
L 832 108
L 832 108
L 832 108
L 832 108
L 832 108
L 832 108
L 832 108
L 833 108
L 833 108
L 833 108
L 833 108
L 833 108
L 833 108
L 833 108
L 833 108
L 833 108
L 834 108
L 834 108
L 834 108
L 834 108
L 834 107
L 834 107
L 834 107
L 834 107
L 834 107
L 835 107
L 835 107
L 835 107
L 835 107
L 835 107
L 835 107
L 835 107
L 835 107
L 835 107
L 835 107
L 835 107
L 835 107
L 835 107
L 835 107
L 836 107
L 836 107
L 836 107
L 836 107
L 836 107
L 836 106
L 836 106
L 836 106
L 836 106
L 836 106
L 837 106
L 837 106
L 837 106
L 837 106
L 837 106
L 837 106
L 837 106
L 837 106
L 837 106
L 837 106
L 837 106
L 837 106
L 838 106
L 838 106
L 838 106
L 838 106
L 838 106
L 838 106
L 838 106
L 838 105
L 838 105
L 838 105
L 838 105
L 838 105
L 838 105
L 838 105
L 838 105
L 838 105
L 839 105
L 839 105
L 839 105
L 839 105
L 839 105
L 839 105
L 839 105
L 840 105
L 840 105
L 840 105
L 840 105
L 840 105
L 840 105
L 840 105
L 840 105
L 840 105
L 840 104
L 841 104
L 841 104
L 841 104
L 841 104
L 841 104
L 841 104
L 841 104
L 841 104
L 841 104
L 841 104
L 841 104
L 841 104
L 841 104
L 841 104
L 841 104
L 841 104
L 841 104
L 841 104
L 841 104
L 841 104
L 842 104
L 842 104
L 842 104
L 842 103
L 842 103
L 842 103
L 842 103
L 842 103
L 842 103
L 842 103
L 842 103
L 843 103
L 843 103
L 843 103
L 843 103
L 843 103
L 843 103
L 843 103
L 844 103
L 844 103
L 844 103
L 844 103
L 844 103
L 844 103
L 845 103
L 845 103
L 845 103
L 845 103
L 845 102
L 845 102
L 845 102
L 845 102
L 845 102
L 845 102
L 845 102
L 846 102
L 846 102
L 846 102
L 846 102
L 846 102
L 846 102
L 846 102
L 846 102
L 846 102
L 846 102
L 846 102
L 846 102
L 846 102
L 846 102
L 846 102
L 846 102
L 846 102
L 846 101
L 846 101
L 846 101
L 846 101
L 846 101
L 846 101
L 846 101
L 846 101
L 846 101
L 846 101
L 846 101
L 846 101
L 846 101
L 846 101
L 846 101
L 846 101
L 846 101
L 846 101
L 846 101
L 847 101
L 847 101
L 847 101
L 847 101
L 847 101
L 847 100
L 847 100
L 847 100
L 847 100
L 847 100
L 847 100
L 847 100
L 847 100
L 847 100
L 847 100
L 847 100
L 847 100
L 847 100
L 847 100
L 847 100
L 847 100
L 848 100
L 848 100
L 848 100
L 848 100
L 848 100
L 848 100
L 848 100
L 848 100
L 848 100
L 848 99
L 848 99
L 848 99
L 848 99
L 848 99
L 848 99
L 848 99
L 848 99
L 848 99
L 848 99
L 848 99
L 848 99
L 848 99
L 848 99
L 848 99
L 848 99
L 848 99
L 848 99
L 848 99
L 848 99
L 849 99
L 849 99
L 849 99
L 849 99
L 849 98
L 849 98
L 849 98
L 849 98
L 849 98
L 849 98
L 849 98
L 849 98
L 849 98
L 850 98
L 850 98
L 850 98
L 850 98
L 850 98
L 850 98
L 850 98
L 850 98
L 850 98
L 850 98
L 850 98
L 850 98
L 850 98
L 851 98
L 851 98
L 851 98
L 851 97
L 851 97
L 851 97
L 851 97
L 851 97
L 851 97
L 851 97
L 851 97
L 852 97
L 852 97
L 852 97
L 852 97
L 852 97
L 852 97
L 852 97
L 852 97
L 852 97
L 852 97
L 852 97
L 852 97
L 852 97
L 852 97
L 852 97
L 853 97
L 853 96
L 853 96
L 853 96
L 853 96
L 853 96
L 853 96
L 853 96
L 853 96
L 853 96
L 853 96
L 853 96
L 853 96
L 853 96
L 853 96
L 853 96
L 853 96
L 854 96
L 854 96
L 854 96
L 854 96
L 854 96
L 854 96
L 854 96
L 854 96
L 854 96
L 854 95
L 854 95
L 855 95
L 855 95
L 855 95
L 855 95
L 855 95
L 855 95
L 855 95
L 855 95
L 856 95
L 856 95
L 856 95
L 856 95
L 856 95
L 856 95
L 856 95
L 856 95
L 856 95
L 856 95
L 856 95
L 856 95
L 857 95
L 857 95
L 857 94
L 857 94
L 857 94
L 857 94
L 857 94
L 857 94
L 857 94
L 858 94
L 858 94
L 858 94
L 858 94
L 858 94
L 858 94
L 858 94
L 858 94
L 858 94
L 858 94
L 858 94
L 858 94
L 858 94
L 858 94
L 858 94
L 858 94
L 859 94
L 859 93
L 859 93
L 859 93
L 859 93
L 859 93
L 859 93
L 859 93
L 859 93
L 859 93
L 859 93
L 860 93
L 860 93
L 860 93
L 860 93
L 860 93
L 860 93
L 860 93
L 860 93
L 860 93
L 860 93
L 860 93
L 861 93
L 861 93
L 861 93
L 861 93
L 861 92
L 861 92
L 861 92
L 861 92
L 861 92
L 861 92
L 861 92
L 861 92
L 861 92
L 861 92
L 862 92
L 862 92
L 862 92
L 862 92
L 862 92
L 862 92
L 862 92
L 862 92
L 862 92
L 862 92
L 862 92
L 862 92
L 862 92
L 862 92
L 862 91
L 862 91
L 862 91
L 862 91
L 862 91
L 863 91
L 863 91
L 863 91
L 863 91
L 863 91
L 863 91
L 863 91
L 863 91
L 863 91
L 863 91
L 863 91
L 864 91
L 864 91
L 864 91
L 864 91
L 864 91
L 864 91
L 864 91
L 864 91
L 864 91
L 864 90
L 864 90
L 864 90
L 864 90
L 865 90
L 865 90
L 865 90
L 865 90
L 865 90
L 865 90
L 865 90
L 865 90
L 866 90
L 866 90
L 866 90
L 866 90
L 866 90
L 866 90
L 867 90
L 867 90
L 867 90
L 867 90
L 867 90
L 867 90
L 867 89
L 867 89
L 867 89
L 867 89
L 867 89
L 867 89
L 867 89
L 867 89
L 868 89
L 868 89
L 868 89
L 868 89
L 868 89
L 868 89
L 868 89
L 868 89
L 868 89
L 868 89
L 868 89
L 868 89
L 869 89
L 869 89
L 869 89
L 869 89
L 869 88
L 869 88
L 869 88
L 869 88
L 869 88
L 869 88
L 869 88
L 869 88
L 869 88
L 869 88
L 870 88
L 870 88
L 870 88
L 870 88
L 870 88
L 870 88
L 870 88
L 870 88
L 870 88
L 870 88
L 870 88
L 870 88
L 871 88
L 871 88
L 871 88
L 871 87
L 871 87
L 871 87
L 871 87
L 872 87
L 872 87
L 872 87
L 872 87
L 872 87
L 872 87
L 872 87
L 872 87
L 872 87
L 872 87
L 872 87
L 873 87
L 873 87
L 873 87
L 873 87
L 873 87
L 873 87
L 873 87
L 873 87
L 873 87
L 873 86
L 874 86
L 874 86
L 874 86
L 874 86
L 874 86
L 874 86
L 874 86
L 874 86
L 874 86
L 874 86
L 874 86
L 874 86
L 874 86
L 874 86
L 874 86
L 874 86
L 874 86
L 874 86
L 874 86
L 874 86
L 874 86
L 874 86
L 874 86
L 874 86
L 874 85
L 874 85
L 874 85
L 874 85
L 874 85
L 874 85
L 874 85
L 874 85
L 874 85
L 874 85
L 875 85
L 875 85
L 875 85
L 875 85
L 875 85
L 875 85
L 875 85
L 875 85
L 875 85
L 875 85
L 875 85
L 875 85
L 875 85
L 875 85
L 875 84
L 875 84
L 875 84
L 875 84
L 875 84
L 875 84
L 875 84
L 875 84
L 875 84
L 875 84
L 875 84
L 875 84
L 875 84
L 875 84
L 875 84
L 875 84
L 875 84
L 875 84
L 875 84
L 876 84
L 876 84
L 876 84
L 876 84
L 876 84
L 876 83
L 876 83
L 876 83
L 876 83
L 876 83
L 876 83
L 876 83
L 876 83
L 876 83
L 876 83
L 876 83
L 876 83
L 876 83
L 876 83
L 876 83
L 876 83
L 876 83
L 876 83
L 876 83
L 876 83
L 876 83
L 876 83
L 876 83
L 876 83
L 876 83
L 876 82
L 876 82
L 876 82
L 876 82
L 876 82
L 876 82
L 876 82
L 876 82
L 876 82
L 876 82
L 876 82
L 876 82
L 876 82
L 876 82
L 877 82
L 877 82
L 877 82
L 877 82
L 877 82
L 877 82
L 877 82
L 877 82
L 877 82
L 877 82
L 877 81
L 877 81
L 877 81
L 877 81
L 877 81
L 877 81
L 878 81
L 878 81
L 878 81
L 878 81
L 878 81
L 878 81
L 878 81
L 878 81
L 878 81
L 878 81
L 878 81
L 878 81
L 878 81
L 878 81
L 878 81
L 878 81
L 878 81
L 878 81
L 878 81
L 879 80
L 879 80
L 879 80
L 879 80
L 879 80
L 879 80
L 879 80
L 879 80
L 879 80
L 879 80
L 879 80
L 879 80
L 879 80
L 879 80
L 879 80
L 879 80
L 879 80
L 879 80
L 879 80
L 879 80
L 879 80
L 879 80
L 879 80
L 879 80
L 879 79
L 879 79
L 879 79
L 879 79
L 879 79
L 879 79
L 879 79
L 879 79
L 879 79
L 879 79
L 879 79
L 879 79
L 879 79
L 879 79
L 879 79
L 879 79
L 879 79
L 879 79
L 879 79
L 879 79
L 879 79
L 879 79
L 879 79
L 879 79
L 879 79
L 879 78
L 879 78
L 879 78
L 879 78
L 880 78
L 880 78
L 880 78
L 880 78
L 880 78
L 880 78
L 880 78
L 880 78
L 880 78
L 880 78
L 880 78
L 880 78
L 880 78
L 880 78
L 880 78
L 880 78
L 880 78
L 880 78
L 880 78
L 880 78
L 880 77
L 880 77
L 880 77
L 880 77
L 880 77
L 880 77
L 880 77
L 880 77
L 880 77
L 880 77
L 880 77
L 880 77
L 880 77
L 880 77
L 880 77
L 880 77
L 880 77
L 880 77
L 880 77
L 880 77
L 880 77
L 880 77
L 880 77
L 880 77
L 880 76
L 880 76
L 880 76
L 880 76
L 880 76
L 880 76
L 880 76
L 880 76
L 880 76
L 880 76
L 880 76
L 880 76
L 880 76
L 880 76
L 880 76
L 880 76
L 881 76
L 881 76
L 881 76
L 881 76
L 881 76
L 881 76
L 881 76
L 881 76
L 881 76
L 881 75
L 881 75
L 881 75
L 881 75
L 881 75
L 881 75
L 881 75
L 881 75
L 881 75
L 881 75
L 881 75
L 881 75
L 881 75
L 881 75
L 881 75
L 881 75
L 881 75
L 881 75
L 881 75
L 881 75
L 881 75
L 881 75
L 881 75
L 881 75
L 881 74
L 881 74
L 881 74
L 881 74
L 881 74
L 881 74
L 881 74
L 881 74
L 881 74
L 881 74
L 881 74
L 881 74
L 881 74
L 881 74
L 881 74
L 881 74
L 881 74
L 881 74
L 881 74
L 881 74
L 881 74
L 881 74
L 881 74
L 881 74
L 881 74
L 881 73
L 882 73
L 882 73
L 882 73
L 882 73
L 882 73
L 882 73
L 882 73
L 882 73
L 882 73
L 882 73
L 882 73
L 882 73
L 882 73
L 882 73
L 882 73
L 882 73
L 882 73
L 882 73
L 882 73
L 882 73
L 882 73
L 882 73
L 882 73
L 882 72
L 882 72
L 882 72
L 882 72
L 882 72
L 882 72
L 882 72
L 882 72
L 882 72
L 882 72
L 882 72
L 882 72
L 882 72
L 882 72
L 882 72
L 882 72
L 882 72
L 882 72
L 882 72
L 883 72
L 883 72
L 883 72
L 883 72
L 883 72
L 883 71
L 883 71
L 883 71
L 883 71
L 883 71
L 883 71
L 883 71
L 883 71
L 883 71
L 883 71
L 883 71
L 883 71
L 883 71
L 883 71
L 883 71
L 883 71
L 884 71
L 884 71
L 884 71
L 884 71
L 884 71
L 884 71
L 884 71
L 884 71
L 884 71
L 884 70
L 884 70
L 884 70
L 884 70
L 884 70
L 884 70
L 884 70
L 884 70
L 884 70
L 884 70
L 884 70
L 884 70
L 884 70
L 884 70
L 884 70
L 884 70
L 884 70
L 884 70
L 884 70
L 885 70
L 885 70
L 885 70
L 885 70
L 885 70
L 885 69
L 885 69
L 885 69
L 885 69
L 885 69
L 885 69
L 885 69
L 885 69
L 885 69
L 885 69
L 885 69
L 885 69
L 885 69
L 885 69
L 885 69
L 885 69
L 885 69
L 885 69
L 885 69
L 885 69
L 885 69
L 885 69
L 885 69
L 886 69
L 886 69
L 886 68
L 886 68
L 886 68
L 886 68
L 886 68
L 886 68
L 886 68
L 886 68
L 886 68
L 886 68
L 886 68
L 886 68
L 886 68
L 886 68
L 886 68
L 886 68
L 887 68
L 887 68
L 887 68
L 887 68
L 887 68
L 887 68
L 887 68
L 887 68
L 887 67
L 888 67
L 888 67
L 888 67
L 888 67
L 888 67
L 888 67
L 888 67
L 888 67
L 888 67
L 888 67
L 888 67
L 888 67
L 888 67
L 888 67
L 888 67
L 889 67
L 889 67
L 889 67
L 889 67
L 889 67
L 889 67
L 889 67
L 889 67
L 889 66
L 889 66
L 889 66
L 889 66
L 889 66
L 889 66
L 889 66
L 889 66
L 889 66
L 889 66
L 889 66
L 889 66
L 889 66
L 889 66
L 889 66
L 889 66
L 890 66
L 890 66
L 890 66
L 890 66
L 890 66
L 890 66
L 890 66
L 890 66
L 890 66
L 890 65
L 890 65
L 890 65
L 890 65
L 890 65
L 890 65
L 890 65
L 890 65
L 890 65
L 890 65
L 890 65
L 890 65
L 890 65
L 890 65
L 891 65
L 891 65
L 891 65
L 891 65
L 891 65
L 891 65
L 891 65
L 891 65
L 891 65
L 891 65
L 891 64
L 891 64
L 891 64
L 891 64
L 891 64
L 891 64
L 891 64
L 891 64
L 891 64
L 891 64
L 891 64
L 891 64
L 891 64
L 891 64
L 891 64
L 891 64
L 891 64
L 892 64
L 892 64
L 892 64
L 892 64
L 892 64
L 892 64
L 892 64
L 892 64
L 892 63
L 892 63
L 892 63
L 892 63
L 892 63
L 892 63
L 892 63
L 892 63
L 892 63
L 892 63
L 892 63
L 892 63
L 892 63
L 892 63
L 893 63
L 893 63
L 893 63
L 893 63
L 893 63
L 893 63
L 893 63
L 893 63
L 893 63
L 893 63
L 893 62
L 893 62
L 893 62
L 893 62
L 893 62
L 893 62
L 893 62
L 893 62
L 893 62
L 893 62
L 893 62
L 893 62
L 893 62
L 893 62
L 893 62
L 893 62
L 893 62
L 893 62
L 893 62
L 893 62
L 893 62
L 893 62
L 893 62
L 894 62
L 894 62
L 894 61
L 894 61
L 894 61
L 894 61
L 894 61
L 894 61
L 894 61
L 894 61
L 894 61
L 895 61
L 895 61
L 895 61
L 895 61
L 895 61
L 895 61
L 895 61
L 895 61
L 895 61
L 895 61
L 895 61
L 895 61
L 896 61
L 896 61
L 896 61
L 896 60
L 896 60
L 896 60
L 896 60
L 896 60
L 896 60
L 896 60
L 896 60
L 896 60
L 896 60
L 896 60
L 897 60
L 897 60
L 897 60
L 897 60
L 897 60
L 897 60
L 897 60
L 897 60
L 897 60
L 897 60
L 897 60
L 897 60
L 897 60
L 897 59
L 897 59
L 897 59
L 897 59
L 897 59
L 897 59
L 897 59
L 897 59
L 897 59
L 897 59
L 897 59
L 897 59
L 897 59
L 897 59
L 897 59
L 897 59
L 897 59
L 897 59
L 897 59
L 898 59
L 898 59
L 898 59
L 898 59
L 898 59
L 898 59
L 898 58
L 898 58
L 898 58
L 898 58
L 898 58
L 898 58
L 898 58
L 898 58
L 898 58
L 898 58
L 898 58
L 898 58
L 898 58
L 898 58
L 898 58
L 898 58
L 899 58
L 899 58
L 899 58
L 899 58
L 899 58
L 899 58
L 899 58
L 899 58
L 899 57
L 899 57
L 899 57
L 899 57
L 899 57
L 899 57
L 900 57
L 900 57
L 900 57
L 900 57
L 900 57
L 900 57
L 900 57
L 900 57
L 900 57
L 900 57
L 900 57
L 901 57
L 901 57
L 901 57
L 901 57
L 901 57
L 901 57
L 901 57
L 901 57
L 901 56
L 901 56
L 901 56
L 901 56
L 901 56
L 901 56
L 901 56
L 901 56
L 901 56
L 901 56
L 901 56
L 902 56
L 902 56
L 902 56
L 902 56
L 902 56
L 902 56
L 902 56
L 902 56
L 902 56
L 902 56
L 902 56
L 903 56
L 903 56
L 903 55
L 903 55
L 903 55
L 903 55
L 903 55
L 903 55
L 903 55
L 903 55
L 904 55
L 904 55
L 904 55
L 904 55
L 904 55
L 904 55
L 904 55
L 904 55
L 904 55
L 904 55
L 905 55
L 905 55
L 905 55
L 905 55
L 905 55
L 905 55
L 905 54
L 905 54
L 905 54
L 905 54
L 905 54
L 906 54
L 906 54
L 906 54
L 906 54
L 906 54
L 906 54
L 906 54
L 907 54
L 907 54
L 907 54
L 907 54
L 908 54
L 908 54
L 908 54
L 908 54
L 908 54
L 908 54
L 908 54
L 909 54
L 909 54
L 909 53
L 909 53
L 909 53
L 909 53
L 909 53
L 909 53
L 909 53
L 909 53
L 910 53
L 910 53
L 910 53
L 910 53
L 910 53
L 910 53
L 910 53
L 911 53
L 911 53
L 911 53
L 911 53
L 911 53
L 911 53
L 911 53
L 911 53
L 911 53
L 911 52
L 911 52
L 912 52
L 912 52
L 912 52
L 912 52
L 912 52
L 912 52
L 912 52
L 912 52
L 912 52
L 912 52
L 912 52
L 912 52
L 912 52
L 912 52
L 912 52
L 912 52
L 913 52
L 913 52
L 913 52
L 913 52
L 913 52
L 913 52
L 913 52
L 913 51
L 913 51
L 913 51
L 913 51
L 913 51
L 913 51
L 913 51
L 913 51
L 913 51
L 913 51
L 913 51
L 913 51
L 913 51
L 913 51
L 913 51
L 913 51
L 914 51
L 914 51
L 914 51
L 914 51
L 914 51
L 914 51
L 914 51
L 914 51
L 914 50
L 914 50
L 914 50
L 914 50
L 914 50
L 914 50
L 914 50
L 914 50
L 914 50
L 914 50
L 914 50
L 914 50
L 914 50
L 914 50
L 914 50
L 915 50
L 915 50
L 915 50
L 915 50
L 915 50
L 915 50
L 915 50
L 915 50
L 915 50
L 915 49
L 915 49
L 915 49
L 916 49
L 916 49
L 916 49
L 916 49
L 916 49
L 916 49
L 917 49
L 917 49
L 917 49
L 917 49
L 917 49
L 917 49
L 917 49
L 917 49
L 918 49
L 918 49
L 918 49
L 918 49
L 918 49
L 918 49
L 918 49
L 918 49
L 918 48
L 918 48
L 918 48
L 918 48
L 918 48
L 919 48
L 919 48
L 919 48
L 919 48
L 919 48
L 919 48
L 919 48
L 919 48
L 919 48
L 920 48
L 920 48
L 920 48
L 920 48
L 920 48
L 920 48
L 920 48
L 920 48
L 921 48
L 921 48
L 921 47
L 921 47
L 921 47
L 921 47
L 921 47
L 922 47
L 922 47
L 922 47
L 922 47
L 922 47
L 922 47
L 922 47
L 923 47
L 923 47
L 923 47
L 923 47
L 923 47
L 923 47
L 923 47
L 923 47
L 923 47
L 923 47
L 923 47
L 923 47
L 923 47
L 923 46
L 923 46
L 923 46
L 923 46
L 924 46
L 924 46
L 924 46
L 924 46
L 924 46
L 924 46
L 924 46
L 924 46
L 924 46
L 924 46
L 924 46
L 924 46
L 924 46
L 924 46
L 924 46
L 924 46
L 924 46
L 924 46
L 924 46
L 924 46
L 924 45
L 924 45
L 924 45
L 925 45
L 925 45
L 925 45
L 925 45
L 925 45
L 925 45
L 925 45
L 925 45
L 925 45
L 925 45
L 925 45
L 925 45
L 926 45
L 926 45
L 926 45
L 926 45
L 926 45
L 926 45
L 926 45
L 926 45
L 926 45
L 926 45
L 926 44
L 926 44
L 926 44
L 926 44
L 927 44
L 927 44
L 927 44
L 927 44
L 927 44
L 927 44
L 927 44
L 927 44
L 927 44
L 927 44
L 927 44
L 928 44
L 928 44
L 928 44
L 928 44
L 928 44
L 928 44
L 928 44
L 928 44
L 928 44
L 928 43
L 928 43
L 928 43
L 929 43
L 929 43
L 929 43
L 929 43
L 929 43
L 929 43
L 929 43
L 929 43
L 929 43
L 929 43
L 929 43
L 929 43
L 929 43
L 929 43
L 929 43
L 930 43
L 930 43
L 930 43
L 930 43
L 930 43
L 930 43
L 930 42
L 930 42
L 930 42
L 931 42
L 931 42
L 931 42
L 931 42
L 931 42
L 931 42
L 931 42
L 931 42
L 931 42
L 931 42
L 931 42
L 931 42
L 931 42
L 931 42
L 931 42
L 931 42
L 931 42
L 932 42
L 932 42
L 932 42
L 932 42
L 932 42
L 933 41
L 933 41
L 933 41
L 933 41
L 933 41
L 933 41
L 933 41
L 933 41
L 933 41
L 933 41
L 933 41
L 933 41
L 934 41
L 934 41
L 934 41
L 934 41
L 934 41
L 935 41
L 935 41
L 935 41
L 935 41
L 935 41
L 935 41
L 935 41
L 935 40
L 936 40
L 936 40
L 936 40
L 936 40
L 936 40
L 936 40
L 936 40
L 936 40
L 936 40
L 936 40
L 936 40
L 937 40
L 937 40
L 937 40
L 937 40
L 938 40
L 938 40
L 938 40
L 938 40
L 938 40
L 939 40
L 939 40
L 939 40
L 939 40
L 939 39
L 939 39
L 940 39
L 940 39
L 940 39
L 940 39
L 940 39
L 940 39
L 940 39
L 940 39
L 940 39
L 940 39
L 940 39
L 940 39
L 940 39
L 940 39
L 940 39
L 940 39
L 941 39
L 941 39
L 941 39
L 941 39
L 941 39
L 941 39
L 941 38
L 941 38
L 941 38
L 941 38
L 941 38
L 941 38
L 941 38
L 941 38
L 941 38
L 941 38
L 941 38
L 941 38
L 942 38
L 942 38
L 942 38
L 942 38
L 942 38
L 942 38
L 942 38
L 942 38
L 942 38
L 942 38
L 942 38
L 943 38
L 943 37
L 943 37
L 943 37
L 943 37
L 943 37
L 943 37
L 943 37
L 943 37
L 943 37
L 943 37
L 944 37
L 944 37
L 944 37
L 944 37
L 944 37
L 944 37
L 944 37
L 944 37
L 944 37
L 944 37
L 944 37
L 945 37
L 945 37
L 945 37
L 945 37
L 945 36
L 945 36
L 945 36
L 945 36
L 945 36
L 945 36
L 945 36
L 945 36
L 946 36
L 946 36
L 946 36
L 946 36
L 946 36
L 946 36
L 946 36
L 946 36
L 947 36
L 947 36
L 947 36
L 947 36
L 948 36
L 948 36
L 948 36
L 948 36
L 949 35
L 949 35
L 949 35
L 950 35
L 950 35
L 950 35
L 950 35
L 950 35
L 950 35
L 950 35
L 950 35
L 950 35
L 950 35
L 950 35
L 951 35
L 951 35
L 951 35
L 951 35
L 951 35
L 951 35
L 951 35
L 951 35
L 951 35
L 951 35
L 951 35
L 951 34
L 952 34
L 952 34
L 952 34
L 952 34
L 952 34
L 952 34
L 952 34
L 952 34
L 952 34
L 952 34
L 952 34
L 952 34
L 952 34
L 952 34
L 952 34
L 952 34
L 952 34
L 952 34
L 952 34
L 952 34
L 952 34
L 952 34
L 952 34
L 952 33
L 952 33
L 952 33
L 952 33
L 952 33
L 953 33
L 953 33
L 953 33
L 953 33
L 953 33
L 953 33
L 953 33
L 953 33
L 953 33
L 953 33
L 953 33
L 953 33
L 953 33
L 953 33
L 953 33
L 953 33
L 953 33
L 954 33
L 954 33
L 954 32
L 954 32
L 954 32
L 954 32
L 954 32
L 954 32
L 954 32
L 954 32
L 954 32
L 954 32
L 954 32
L 954 32
L 954 32
L 954 32
L 954 32
L 954 32
L 954 32
L 954 32
L 954 32
L 954 32
L 954 32
L 954 32
L 954 32
L 954 32
L 955 32
L 955 31
L 955 31
L 955 31
L 955 31
L 955 31
L 955 31
L 955 31
L 955 31
L 955 31
L 955 31
L 955 31
L 955 31
L 955 31
L 955 31
L 955 31
L 955 31
L 955 31
L 955 31
L 955 31
L 955 31
L 955 31
L 955 31
L 955 31
L 955 31
L 955 30
L 955 30
L 955 30
L 955 30
L 955 30
L 955 30
L 955 30
L 955 30
L 955 30
L 955 30
L 955 30
L 955 30
L 955 30
L 955 30
L 955 30
L 955 30
L 955 30
L 955 30
L 955 30
L 955 30
L 955 30
L 955 30
L 955 30
L 955 30
L 955 30
L 955 29
L 955 29
L 955 29
L 955 29
L 955 29
L 955 29
L 955 29
L 956 29
L 956 29
L 956 29
L 956 29
L 956 29
L 956 29
L 956 29
L 956 29
L 956 29
L 956 29
L 956 29
L 956 29
L 956 29
L 956 29
L 956 29
L 956 29
L 956 29
L 956 28
L 956 28
L 956 28
L 956 28
L 956 28
L 956 28
L 956 28
L 956 28
L 956 28
L 956 28
L 956 28
L 956 28
L 956 28
L 956 28
L 956 28
L 956 28
L 956 28
L 956 28
L 956 28
L 956 28
L 956 28
L 956 28
L 956 28
L 956 28
L 956 28
L 956 27
L 956 27
L 956 27
L 956 27
L 956 27
L 956 27
L 956 27
L 956 27
L 956 27
L 956 27
L 956 27
L 956 27
L 956 27
L 956 27
L 956 27
L 956 27
L 956 27
L 956 27
L 956 27
L 956 27
L 956 27
L 956 27
L 956 27
L 956 27
L 956 26
L 956 26
L 956 26
L 956 26
L 956 26
L 956 26
L 956 26
L 956 26
L 956 26
L 956 26
L 956 26
L 956 26
L 956 26
L 956 26
L 956 26
L 956 26
L 956 26
L 956 26
L 956 26
L 956 26
L 956 26
L 956 26
L 956 26
L 956 26
L 956 25
L 956 25
L 956 25
L 956 25
L 956 25
L 956 25
L 956 25
L 956 25
L 956 25
L 956 25
L 956 25
L 956 25
L 956 25
L 956 25
L 956 25
L 956 25
L 956 25
L 956 25
L 956 25
L 956 25
L 956 25
L 956 25
L 956 25
L 956 25
L 956 25
L 956 24
L 956 24
L 956 24
L 956 24
L 956 24
L 956 24
L 956 24
L 956 24
L 956 24
L 956 24
L 956 24
L 956 24
L 956 24
L 956 24
L 956 24
L 956 24
L 956 24
L 956 24
L 956 24
L 956 24
L 956 24
L 956 24
L 956 24
L 956 24
L 956 23
L 956 23
L 956 23
L 956 23
L 956 23
L 956 23
L 956 23
L 956 23
L 956 23
L 956 23
L 956 23
L 956 23
L 956 23
L 956 23
L 956 23
L 956 23
L 956 23
L 956 23
L 956 23
L 956 23
L 956 23
L 956 23
L 956 23
L 956 23
L 956 23
L 956 22
L 956 22
L 956 22
L 956 22
L 956 22
L 956 22
L 956 22
L 956 22
L 956 22
L 956 22
L 956 22
L 956 22
L 956 22
L 956 22
L 956 22
L 956 22
L 956 22
L 956 22
L 956 22
L 956 22
L 956 22
L 956 22
L 956 22
L 956 22
L 956 21
L 956 21
L 956 21
L 956 21
L 956 21
L 956 21
L 956 21
L 956 21
L 956 21
L 956 21
L 956 21
L 956 21
L 956 21
L 956 21
L 956 21
L 956 21
L 956 21
L 956 21
L 956 21
L 956 21
L 956 21
L 956 21
L 956 21
L 956 21
L 956 20
L 956 20
L 956 20
L 956 20
L 956 20
L 956 20
L 956 20
L 956 20
L 956 20
L 956 20
L 956 20
L 956 20
L 956 20
L 956 20
L 956 20
L 956 20
L 956 20
L 956 20
L 957 20
L 957 20
L 957 20
L 957 20
L 957 20
L 957 20
L 957 20
L 957 19
L 957 19
L 957 19
L 957 19
L 957 19
L 957 19
L 957 19
L 957 19
L 957 19
L 957 19
L 957 19
L 957 19
L 957 19
L 957 19
L 957 19
L 957 19
L 957 19
L 957 19
L 957 19
L 957 19
L 957 19
L 957 19
L 957 19
L 957 19
L 957 18
L 957 18
L 957 18
L 957 18
L 957 18
L 957 18
L 957 18
L 957 18
L 957 18
L 957 18
L 957 18
L 957 18
L 957 18
L 957 18
L 957 18
L 957 18
L 957 18
L 957 18
L 957 18
L 957 18
L 957 18
L 957 18
L 957 18
L 957 18
L 957 18
L 957 17
L 957 17
L 957 17
L 957 17
L 957 17
L 957 17
L 957 17
L 957 17
L 957 17
L 957 17
L 957 17
L 957 17
L 957 17
L 957 17
L 957 17
L 957 17
L 957 17
L 957 17
L 957 17
L 957 17
L 957 17
L 957 17
L 957 17
L 957 17
L 957 16
L 957 16
L 957 16
L 957 16
L 957 16
L 957 16
L 957 16
L 957 16
L 957 16
L 957 16
L 957 16
L 957 16
L 957 16
L 957 16
L 957 16
L 957 16
L 957 16
L 957 16
L 957 16
L 957 16
L 957 16
L 957 16
L 957 16
L 957 16
L 957 15
L 957 15
L 957 15
L 957 15
L 957 15
L 957 15
L 957 15
L 957 15
L 957 15
L 957 15
L 957 15
L 957 15
L 957 15
L 957 15
L 957 15
L 957 15
L 957 15
L 957 15
L 957 15
L 957 15
L 957 15
L 957 15
L 957 15
L 957 15
L 957 15
L 957 14
L 957 14
L 957 14
L 957 14
L 957 14
L 957 14
L 957 14
L 957 14
L 957 14
L 957 14
L 957 14
L 957 14
L 957 14
L 957 14
L 957 14
L 957 14
L 957 14" style="stroke-width:2;stroke:rgba(129,199,239,1.0);fill:none"/></svg>