<!-- stars: 8066 -->
<svg xmlns="http://www.w3.org/2000/svg" xmlns:xlink="http://www.w3.org/1999/xlink" width="1024" height="400">\n<path  d="M 0 0
L 1024 0
L 1024 400
L 0 400
L 0 0" style="stroke-width:0;stroke:rgba(255,255,255,1.0);fill:rgba(255,255,255,1.0)"/><path  d="M 38 11
L 957 11
L 957 351
L 38 351
L 38 11" style="stroke-width:0;stroke:rgba(255,255,255,1.0);fill:rgba(255,255,255,1.0)"/><path  d="M 38 351
L 957 351" style="stroke-width:2;stroke:rgba(85,85,85,1.0);fill:none"/><path  d="M 38 351
L 38 356" style="stroke-width:2;stroke:rgba(85,85,85,1.0);fill:none"/><text x="5" y="373" style="stroke-width:0;stroke:none;fill:rgba(51,51,51,1.0);font-size:12.8px;font-family:'Roboto Medium',sans-serif">2018-09-25</text><path  d="M 153 351
L 153 356" style="stroke-width:2;stroke:rgba(85,85,85,1.0);fill:none"/><text x="120" y="373" style="stroke-width:0;stroke:none;fill:rgba(51,51,51,1.0);font-size:12.8px;font-family:'Roboto Medium',sans-serif">2019-02-18</text><path  d="M 268 351
L 268 356" style="stroke-width:2;stroke:rgba(85,85,85,1.0);fill:none"/><text x="235" y="373" style="stroke-width:0;stroke:none;fill:rgba(51,51,51,1.0);font-size:12.8px;font-family:'Roboto Medium',sans-serif">2019-07-14</text><path  d="M 383 351
L 383 356" style="stroke-width:2;stroke:rgba(85,85,85,1.0);fill:none"/><text x="350" y="373" style="stroke-width:0;stroke:none;fill:rgba(51,51,51,1.0);font-size:12.8px;font-family:'Roboto Medium',sans-serif">2019-12-07</text><path  d="M 498 351
L 498 356" style="stroke-width:2;stroke:rgba(85,85,85,1.0);fill:none"/><text x="465" y="373" style="stroke-width:0;stroke:none;fill:rgba(51,51,51,1.0);font-size:12.8px;font-family:'Roboto Medium',sans-serif">2020-05-01</text><path  d="M 613 351
L 613 356" style="stroke-width:2;stroke:rgba(85,85,85,1.0);fill:none"/><text x="580" y="373" style="stroke-width:0;stroke:none;fill:rgba(51,51,51,1.0);font-size:12.8px;font-family:'Roboto Medium',sans-serif">2020-09-24</text><path  d="M 728 351
L 728 356" style="stroke-width:2;stroke:rgba(85,85,85,1.0);fill:none"/><text x="695" y="373" style="stroke-width:0;stroke:none;fill:rgba(51,51,51,1.0);font-size:12.8px;font-family:'Roboto Medium',sans-serif">2021-02-18</text><path  d="M 843 351
L 843 356" style="stroke-width:2;stroke:rgba(85,85,85,1.0);fill:none"/><text x="810" y="373" style="stroke-width:0;stroke:none;fill:rgba(51,51,51,1.0);font-size:12.8px;font-family:'Roboto Medium',sans-serif">2021-07-14</text><path  d="M 957 351
L 957 356" style="stroke-width:2;stroke:rgba(85,85,85,1.0);fill:none"/><text x="924" y="373" style="stroke-width:0;stroke:none;fill:rgba(51,51,51,1.0);font-size:12.8px;font-family:'Roboto Medium',sans-serif">2021-12-07</text><text x="483" y="395" style="stroke-width:0;stroke:none;fill:rgba(51,51,51,1.0);font-size:12.8px;font-family:'Roboto Medium',sans-serif">Time</text><path  d="M 959 351
L 959 11" style="stroke-width:2;stroke:rgba(85,85,85,1.0);fill:none"/><path  d="M 959 351
L 964 351" style="stroke-width:2;stroke:rgba(85,85,85,1.0);fill:none"/><text x="969" y="357" style="stroke-width:0;stroke:none;fill:rgba(51,51,51,1.0);font-size:12.8px;font-family:'Roboto Medium',sans-serif">0</text><path  d="M 959 308
L 964 308" style="stroke-width:2;stroke:rgba(85,85,85,1.0);fill:none"/><text x="969" y="314" style="stroke-width:0;stroke:none;fill:rgba(51,51,51,1.0);font-size:12.8px;font-family:'Roboto Medium',sans-serif">1020</text><path  d="M 959 265
L 964 265" style="stroke-width:2;stroke:rgba(85,85,85,1.0);fill:none"/><text x="969" y="271" style="stroke-width:0;stroke:none;fill:rgba(51,51,51,1.0);font-size:12.8px;font-family:'Roboto Medium',sans-serif">2030</text><path  d="M 959 223
L 964 223" style="stroke-width:2;stroke:rgba(85,85,85,1.0);fill:none"/><text x="969" y="229" style="stroke-width:0;stroke:none;fill:rgba(51,51,51,1.0);font-size:12.8px;font-family:'Roboto Medium',sans-serif">3040</text><path  d="M 959 181
L 964 181" style="stroke-width:2;stroke:rgba(85,85,85,1.0);fill:none"/><text x="969" y="187" style="stroke-width:0;stroke:none;fill:rgba(51,51,51,1.0);font-size:12.8px;font-family:'Roboto Medium',sans-serif">4050</text><path  d="M 959 138
L 964 138" style="stroke-width:2;stroke:rgba(85,85,85,1.0);fill:none"/><text x="969" y="144" style="stroke-width:0;stroke:none;fill:rgba(51,51,51,1.0);font-size:12.8px;font-family:'Roboto Medium',sans-serif">5070</text><path  d="M 959 95
L 964 95" style="stroke-width:2;stroke:rgba(85,85,85,1.0);fill:none"/><text x="969" y="101" style="stroke-width:0;stroke:none;fill:rgba(51,51,51,1.0);font-size:12.8px;font-family:'Roboto Medium',sans-serif">6080</text><path  d="M 959 53
L 964 53" style="stroke-width:2;stroke:rgba(85,85,85,1.0);fill:none"/><text x="969" y="59" style="stroke-width:0;stroke:none;fill:rgba(51,51,51,1.0);font-size:12.8px;font-family:'Roboto Medium',sans-serif">7090</text><path  d="M 959 11
L 964 11" style="stroke-width:2;stroke:rgba(85,85,85,1.0);fill:none"/><text x="969" y="17" style="stroke-width:0;stroke:none;fill:rgba(51,51,51,1.0);font-size:12.8px;font-family:'Roboto Medium',sans-serif">8100</text><text x="1009" y="150" style="stroke-width:0;stroke:none;fill:rgba(51,51,51,1.0);font-size:12.8px;font-family:'Roboto Medium',sans-serif" transform="rotate(90.00,1009,150)">Stargazers</text><path  d="M 38 351
L 40 350
L 50 350
L 51 350
L 51 350
L 51 350
L 51 350
L 54 350
L 55 350
L 55 350
L 57 350
L 57 350
L 58 350
L 58 350
L 58 350
L 58 350
L 61 350
L 67 350
L 67 350
L 69 350
L 70 350
L 70 350
L 72 350
L 72 350
L 74 349
L 74 349
L 79 349
L 83 349
L 88 349
L 88 349
L 94 349
L 94 349
L 94 349
L 94 349
L 94 349
L 94 349
L 94 349
L 95 349
L 95 349
L 95 349
L 95 349
L 97 349
L 99 349
L 99 349
L 99 349
L 99 349
L 99 349
L 100 349
L 100 348
L 101 348
L 103 348
L 103 348
L 104 348
L 105 348
L 107 348
L 108 348
L 108 348
L 109 348
L 110 348
L 110 348
L 110 348
L 111 348
L 111 348
L 112 348
L 112 348
L 112 348
L 112 348
L 112 348
L 113 348
L 113 348
L 113 348
L 113 348
L 114 347
L 115 347
L 115 347
L 115 347
L 116 347
L 117 347
L 117 347
L 118 347
L 118 347
L 120 347
L 120 347
L 120 347
L 120 347
L 120 347
L 120 347
L 122 347
L 122 347
L 123 347
L 123 347
L 123 347
L 123 347
L 125 347
L 127 347
L 127 347
L 127 346
L 127 346
L 127 346
L 129 346
L 131 346
L 133 346
L 134 346
L 134 346
L 134 346
L 134 346
L 142 346
L 145 346
L 149 346
L 149 346
L 150 346
L 150 346
L 151 346
L 151 346
L 152 346
L 153 346
L 154 346
L 154 346
L 154 346
L 155 346
L 155 345
L 155 345
L 156 345
L 156 345
L 156 345
L 159 345
L 159 345
L 161 345
L 162 345
L 164 345
L 164 345
L 165 345
L 166 345
L 167 345
L 167 345
L 167 345
L 167 345
L 169 345
L 169 345
L 170 345
L 171 345
L 172 345
L 173 345
L 175 344
L 175 344
L 176 344
L 177 344
L 177 344
L 177 344
L 178 344
L 178 344
L 182 344
L 182 344
L 183 344
L 183 344
L 183 344
L 184 344
L 184 344
L 184 344
L 185 344
L 185 344
L 185 344
L 186 344
L 186 344
L 186 344
L 187 344
L 187 344
L 187 343
L 187 343
L 187 343
L 188 343
L 188 343
L 188 343
L 188 343
L 188 343
L 188 343
L 188 343
L 189 343
L 189 343
L 189 343
L 190 343
L 191 343
L 192 343
L 192 343
L 193 343
L 193 343
L 193 343
L 193 343
L 194 343
L 194 343
L 194 343
L 194 342
L 194 342
L 195 342
L 196 342
L 198 342
L 198 342
L 199 342
L 200 342
L 201 342
L 203 342
L 204 342
L 204 342
L 204 342
L 205 342
L 205 342
L 205 342
L 205 342
L 205 342
L 207 342
L 207 342
L 208 342
L 208 342
L 209 342
L 209 342
L 209 341
L 210 341
L 210 341
L 211 341
L 211 341
L 212 341
L 212 341
L 213 341
L 214 341
L 215 341
L 216 341
L 217 341
L 217 341
L 217 341
L 217 341
L 218 341
L 218 341
L 221 341
L 222 341
L 225 341
L 226 341
L 227 341
L 229 341
L 230 341
L 230 340
L 230 340
L 232 340
L 236 340
L 237 340
L 237 340
L 237 340
L 237 340
L 238 340
L 238 340
L 239 340
L 239 340
L 239 340
L 245 340
L 247 340
L 248 340
L 248 340
L 248 340
L 248 340
L 248 340
L 249 340
L 249 340
L 249 340
L 249 340
L 250 339
L 250 339
L 252 339
L 253 339
L 253 339
L 255 339
L 255 339
L 256 339
L 257 339
L 257 339
L 258 339
L 258 339
L 259 339
L 259 339
L 259 339
L 259 339
L 259 339
L 260 339
L 260 339
L 260 339
L 260 339
L 260 339
L 261 339
L 261 338
L 261 338
L 262 338
L 262 338
L 263 338
L 263 338
L 263 338
L 264 338
L 266 338
L 267 338
L 267 338
L 268 338
L 269 338
L 269 338
L 270 338
L 270 338
L 272 338
L 273 338
L 274 338
L 275 338
L 278 338
L 278 338
L 279 338
L 281 338
L 281 337
L 281 337
L 282 337
L 286 337
L 290 337
L 290 337
L 292 337
L 293 337
L 295 337
L 296 337
L 299 337
L 301 337
L 301 337
L 301 337
L 302 337
L 305 337
L 310 337
L 310 337
L 310 337
L 310 337
L 311 337
L 321 337
L 322 337
L 323 337
L 323 336
L 323 336
L 323 336
L 323 336
L 323 336
L 323 336
L 323 336
L 323 336
L 324 336
L 324 336
L 324 336
L 326 336
L 329 336
L 329 336
L 329 336
L 335 336
L 336 336
L 337 336
L 338 336
L 338 336
L 339 336
L 340 336
L 341 336
L 341 336
L 341 335
L 342 335
L 343 335
L 343 335
L 344 335
L 346 335
L 347 335
L 347 335
L 347 335
L 352 335
L 363 335
L 364 335
L 367 335
L 369 335
L 370 335
L 371 335
L 374 335
L 374 335
L 374 335
L 375 335
L 375 335
L 376 335
L 376 335
L 380 335
L 380 334
L 382 334
L 383 334
L 387 334
L 387 334
L 388 334
L 393 334
L 395 334
L 396 334
L 397 334
L 397 334
L 397 334
L 398 334
L 398 334
L 398 334
L 398 334
L 398 334
L 399 334
L 399 334
L 401 334
L 402 334
L 405 334
L 406 334
L 408 334
L 411 333
L 412 333
L 412 333
L 413 333
L 413 333
L 414 333
L 415 333
L 417 333
L 417 333
L 422 333
L 422 333
L 423 333
L 424 333
L 426 333
L 427 333
L 429 333
L 432 333
L 435 333
L 437 333
L 437 333
L 438 333
L 441 333
L 447 333
L 450 332
L 452 332
L 453 332
L 454 332
L 454 332
L 455 332
L 455 332
L 455 332
L 456 332
L 458 332
L 458 332
L 458 332
L 458 332
L 458 332
L 458 332
L 460 332
L 460 332
L 461 332
L 461 332
L 462 332
L 463 332
L 463 332
L 463 332
L 463 332
L 463 331
L 464 331
L 464 331
L 464 331
L 464 331
L 464 331
L 464 331
L 465 331
L 466 331
L 466 331
L 468 331
L 468 331
L 469 331
L 469 331
L 470 331
L 470 331
L 470 331
L 471 331
L 471 331
L 471 331
L 472 331
L 472 331
L 472 331
L 472 331
L 473 330
L 473 330
L 473 330
L 475 330
L 476 330
L 477 330
L 478 330
L 478 330
L 478 330
L 478 330
L 479 330
L 479 330
L 480 330
L 480 330
L 480 330
L 480 330
L 480 330
L 480 330
L 480 330
L 480 330
L 480 330
L 480 330
L 480 330
L 481 330
L 481 329
L 481 329
L 481 329
L 481 329
L 482 329
L 482 329
L 483 329
L 483 329
L 483 329
L 483 329
L 483 329
L 484 329
L 484 329
L 486 329
L 486 329
L 487 329
L 487 329
L 487 329
L 487 329
L 489 329
L 489 329
L 489 329
L 489 329
L 489 329
L 489 328
L 489 328
L 489 328
L 489 328
L 489 328
L 489 328
L 489 328
L 489 328
L 489 328
L 489 328
L 489 328
L 489 328
L 490 328
L 490 328
L 490 328
L 490 328
L 490 328
L 490 328
L 490 328
L 490 328
L 490 328
L 490 328
L 490 328
L 490 327
L 491 327
L 491 327
L 491 327
L 491 327
L 491 327
L 491 327
L 492 327
L 492 327
L 492 327
L 492 327
L 492 327
L 493 327
L 493 327
L 494 327
L 494 327
L 494 327
L 495 327
L 495 327
L 495 327
L 495 327
L 495 327
L 496 327
L 496 327
L 496 326
L 496 326
L 496 326
L 497 326
L 498 326
L 498 326
L 499 326
L 499 326
L 500 326
L 501 326
L 502 326
L 502 326
L 502 326
L 502 326
L 502 326
L 502 326
L 502 326
L 503 326
L 503 326
L 503 326
L 504 326
L 505 326
L 505 326
L 505 326
L 506 325
L 506 325
L 506 325
L 507 325
L 507 325
L 508 325
L 508 325
L 508 325
L 508 325
L 509 325
L 509 325
L 509 325
L 509 325
L 509 325
L 510 325
L 510 325
L 510 325
L 511 325
L 512 325
L 512 325
L 513 325
L 513 325
L 513 325
L 514 325
L 514 324
L 515 324
L 516 324
L 516 324
L 516 324
L 516 324
L 517 324
L 517 324
L 517 324
L 517 324
L 518 324
L 519 324
L 519 324
L 519 324
L 519 324
L 519 324
L 519 324
L 519 324
L 519 324
L 520 324
L 520 324
L 520 324
L 520 324
L 520 324
L 521 323
L 521 323
L 521 323
L 523 323
L 523 323
L 523 323
L 523 323
L 524 323
L 524 323
L 524 323
L 524 323
L 525 323
L 526 323
L 526 323
L 526 323
L 526 323
L 526 323
L 526 323
L 526 323
L 526 323
L 526 323
L 526 323
L 526 323
L 526 323
L 526 322
L 527 322
L 527 322
L 527 322
L 527 322
L 527 322
L 527 322
L 527 322
L 528 322
L 528 322
L 528 322
L 528 322
L 528 322
L 529 322
L 530 322
L 530 322
L 531 322
L 531 322
L 531 322
L 532 322
L 532 322
L 532 322
L 532 322
L 532 321
L 533 321
L 533 321
L 533 321
L 533 321
L 533 321
L 533 321
L 533 321
L 534 321
L 534 321
L 534 321
L 534 321
L 534 321
L 534 321
L 534 321
L 534 321
L 534 321
L 534 321
L 534 321
L 534 321
L 535 321
L 535 321
L 535 321
L 535 321
L 535 320
L 536 320
L 536 320
L 536 320
L 536 320
L 537 320
L 537 320
L 537 320
L 537 320
L 537 320
L 537 320
L 537 320
L 538 320
L 538 320
L 538 320
L 538 320
L 539 320
L 539 320
L 540 320
L 540 320
L 541 320
L 542 320
L 542 320
L 542 320
L 542 319
L 542 319
L 543 319
L 543 319
L 543 319
L 544 319
L 544 319
L 544 319
L 544 319
L 544 319
L 544 319
L 545 319
L 546 319
L 546 319
L 546 319
L 546 319
L 546 319
L 546 319
L 546 319
L 547 319
L 547 319
L 547 319
L 547 319
L 547 319
L 548 318
L 548 318
L 549 318
L 549 318
L 549 318
L 550 318
L 550 318
L 550 318
L 550 318
L 551 318
L 552 318
L 552 318
L 552 318
L 553 318
L 553 318
L 553 318
L 554 318
L 554 318
L 555 318
L 556 318
L 556 318
L 556 318
L 556 318
L 556 318
L 557 317
L 557 317
L 557 317
L 557 317
L 557 317
L 557 317
L 558 317
L 558 317
L 558 317
L 558 317
L 558 317
L 559 317
L 560 317
L 560 317
L 560 317
L 560 317
L 560 317
L 560 317
L 561 317
L 561 317
L 561 317
L 561 317
L 561 317
L 561 317
L 562 316
L 562 316
L 562 316
L 563 316
L 563 316
L 564 316
L 564 316
L 564 316
L 564 316
L 564 316
L 565 316
L 565 316
L 565 316
L 565 316
L 566 316
L 566 316
L 566 316
L 566 316
L 567 316
L 567 316
L 567 316
L 567 316
L 567 316
L 567 315
L 567 315
L 568 315
L 568 315
L 568 315
L 568 315
L 568 315
L 568 315
L 568 315
L 568 315
L 568 315
L 568 315
L 569 315
L 569 315
L 569 315
L 569 315
L 569 315
L 569 315
L 570 315
L 571 315
L 571 315
L 571 315
L 571 315
L 572 315
L 572 314
L 572 314
L 573 314
L 573 314
L 573 314
L 574 314
L 574 314
L 574 314
L 574 314
L 574 314
L 574 314
L 574 314
L 575 314
L 575 314
L 576 314
L 576 314
L 577 314
L 577 314
L 577 314
L 577 314
L 577 314
L 578 314
L 578 314
L 578 314
L 578 313
L 578 313
L 579 313
L 579 313
L 579 313
L 579 313
L 579 313
L 579 313
L 580 313
L 580 313
L 580 313
L 580 313
L 580 313
L 582 313
L 582 313
L 582 313
L 583 313
L 583 313
L 583 313
L 583 313
L 583 313
L 583 313
L 583 313
L 584 313
L 584 312
L 585 312
L 585 312
L 585 312
L 585 312
L 585 312
L 585 312
L 585 312
L 586 312
L 587 312
L 587 312
L 588 312
L 588 312
L 589 312
L 589 312
L 590 312
L 590 312
L 591 312
L 592 312
L 593 312
L 593 312
L 593 312
L 593 312
L 594 312
L 595 311
L 595 311
L 596 311
L 596 311
L 597 311
L 597 311
L 597 311
L 597 311
L 598 311
L 598 311
L 598 311
L 599 311
L 599 311
L 599 311
L 599 311
L 599 311
L 600 311
L 600 311
L 601 311
L 601 311
L 601 311
L 601 311
L 601 311
L 601 310
L 601 310
L 602 310
L 602 310
L 602 310
L 602 310
L 602 310
L 602 310
L 602 310
L 603 310
L 604 310
L 604 310
L 604 310
L 604 310
L 604 310
L 604 310
L 605 310
L 605 310
L 605 310
L 607 310
L 607 310
L 607 310
L 608 310
L 608 310
L 609 309
L 610 309
L 611 309
L 611 309
L 611 309
L 611 309
L 612 309
L 612 309
L 612 309
L 612 309
L 615 309
L 615 309
L 615 309
L 615 309
L 615 309
L 615 309
L 615 309
L 616 309
L 616 309
L 616 309
L 616 309
L 616 309
L 617 309
L 617 309
L 617 308
L 617 308
L 617 308
L 619 308
L 620 308
L 621 308
L 622 308
L 623 308
L 624 308
L 624 308
L 624 308
L 624 308
L 625 308
L 625 308
L 626 308
L 626 308
L 626 308
L 626 308
L 626 308
L 627 308
L 627 308
L 627 308
L 627 308
L 627 308
L 627 307
L 627 307
L 627 307
L 627 307
L 628 307
L 628 307
L 628 307
L 628 307
L 629 307
L 629 307
L 629 307
L 629 307
L 629 307
L 629 307
L 629 307
L 629 307
L 630 307
L 630 307
L 630 307
L 630 307
L 630 307
L 632 307
L 632 307
L 632 307
L 632 306
L 633 306
L 633 306
L 633 306
L 633 306
L 634 306
L 634 306
L 634 306
L 634 306
L 634 306
L 635 306
L 635 306
L 635 306
L 635 306
L 635 306
L 636 306
L 637 306
L 637 306
L 637 306
L 638 306
L 638 306
L 638 306
L 638 306
L 638 306
L 638 305
L 638 305
L 638 305
L 638 305
L 638 305
L 638 305
L 639 305
L 639 305
L 639 305
L 639 305
L 639 305
L 639 305
L 639 305
L 639 305
L 639 305
L 639 305
L 640 305
L 640 305
L 640 305
L 640 305
L 640 305
L 640 305
L 640 305
L 640 304
L 640 304
L 641 304
L 641 304
L 641 304
L 641 304
L 641 304
L 641 304
L 641 304
L 641 304
L 641 304
L 642 304
L 642 304
L 642 304
L 642 304
L 642 304
L 642 304
L 643 304
L 643 304
L 643 304
L 643 304
L 644 304
L 644 304
L 644 304
L 644 303
L 644 303
L 644 303
L 644 303
L 644 303
L 644 303
L 645 303
L 645 303
L 645 303
L 645 303
L 645 303
L 645 303
L 645 303
L 645 303
L 645 303
L 645 303
L 646 303
L 647 303
L 647 303
L 647 303
L 647 303
L 648 303
L 648 303
L 648 303
L 648 302
L 648 302
L 649 302
L 649 302
L 649 302
L 649 302
L 649 302
L 649 302
L 649 302
L 650 302
L 650 302
L 650 302
L 650 302
L 651 302
L 651 302
L 651 302
L 652 302
L 652 302
L 652 302
L 652 302
L 652 302
L 652 302
L 653 302
L 653 302
L 653 301
L 653 301
L 653 301
L 654 301
L 654 301
L 654 301
L 654 301
L 654 301
L 655 301
L 655 301
L 655 301
L 656 301
L 656 301
L 656 301
L 656 301
L 656 301
L 656 301
L 656 301
L 656 301
L 657 301
L 657 301
L 657 301
L 657 301
L 658 301
L 658 300
L 658 300
L 658 300
L 659 300
L 659 300
L 659 300
L 659 300
L 659 300
L 659 300
L 659 300
L 660 300
L 660 300
L 661 300
L 661 300
L 662 300
L 662 300
L 662 300
L 662 300
L 662 300
L 663 300
L 663 300
L 663 300
L 663 300
L 663 300
L 663 299
L 664 299
L 664 299
L 664 299
L 665 299
L 665 299
L 665 299
L 665 299
L 665 299
L 666 299
L 666 299
L 666 299
L 666 299
L 666 299
L 666 299
L 666 299
L 666 299
L 666 299
L 667 299
L 667 299
L 667 299
L 667 299
L 667 299
L 667 298
L 668 298
L 668 298
L 669 298
L 670 298
L 670 298
L 671 298
L 671 298
L 671 298
L 671 298
L 671 298
L 671 298
L 671 298
L 671 298
L 672 298
L 672 298
L 672 298
L 672 298
L 672 298
L 673 298
L 673 298
L 673 298
L 673 298
L 673 298
L 673 297
L 674 297
L 674 297
L 674 297
L 675 297
L 675 297
L 675 297
L 675 297
L 676 297
L 676 297
L 676 297
L 676 297
L 676 297
L 677 297
L 677 297
L 677 297
L 677 297
L 677 297
L 678 297
L 678 297
L 678 297
L 678 297
L 679 297
L 679 297
L 679 296
L 679 296
L 681 296
L 681 296
L 681 296
L 681 296
L 681 296
L 682 296
L 682 296
L 682 296
L 682 296
L 682 296
L 682 296
L 682 296
L 682 296
L 682 296
L 682 296
L 683 296
L 683 296
L 683 296
L 683 296
L 683 296
L 683 296
L 683 296
L 683 295
L 683 295
L 683 295
L 683 295
L 684 295
L 684 295
L 684 295
L 684 295
L 684 295
L 684 295
L 685 295
L 685 295
L 685 295
L 685 295
L 685 295
L 686 295
L 686 295
L 686 295
L 686 295
L 686 295
L 687 295
L 687 295
L 687 295
L 687 295
L 687 294
L 688 294
L 688 294
L 688 294
L 688 294
L 688 294
L 688 294
L 688 294
L 688 294
L 688 294
L 689 294
L 689 294
L 689 294
L 689 294
L 689 294
L 690 294
L 691 294
L 691 294
L 692 294
L 692 294
L 692 294
L 692 294
L 693 294
L 693 293
L 693 293
L 693 293
L 693 293
L 693 293
L 693 293
L 694 293
L 694 293
L 694 293
L 694 293
L 694 293
L 694 293
L 694 293
L 694 293
L 694 293
L 694 293
L 694 293
L 695 293
L 695 293
L 695 293
L 695 293
L 695 293
L 696 293
L 696 293
L 696 292
L 696 292
L 696 292
L 697 292
L 697 292
L 698 292
L 698 292
L 698 292
L 698 292
L 698 292
L 699 292
L 699 292
L 699 292
L 699 292
L 699 292
L 699 292
L 699 292
L 699 292
L 700 292
L 700 292
L 700 292
L 700 292
L 700 292
L 701 292
L 701 291
L 701 291
L 701 291
L 701 291
L 702 291
L 702 291
L 702 291
L 702 291
L 703 291
L 703 291
L 703 291
L 704 291
L 704 291
L 704 291
L 704 291
L 704 291
L 704 291
L 705 291
L 705 291
L 705 291
L 706 291
L 706 291
L 706 291
L 706 291
L 706 290
L 707 290
L 707 290
L 707 290
L 707 290
L 707 290
L 707 290
L 707 290
L 707 290
L 708 290
L 708 290
L 708 290
L 708 290
L 708 290
L 708 290
L 708 290
L 709 290
L 709 290
L 709 290
L 709 290
L 709 290
L 709 290
L 709 290
L 709 290
L 710 289
L 710 289
L 710 289
L 710 289
L 710 289
L 710 289
L 710 289
L 711 289
L 711 289
L 711 289
L 711 289
L 711 289
L 712 289
L 712 289
L 713 289
L 713 289
L 713 289
L 713 289
L 714 289
L 714 289
L 714 289
L 714 289
L 714 289
L 714 289
L 714 288
L 714 288
L 715 288
L 715 288
L 715 288
L 715 288
L 716 288
L 716 288
L 716 288
L 716 288
L 717 288
L 717 288
L 717 288
L 717 288
L 717 288
L 717 288
L 717 288
L 717 288
L 718 288
L 718 288
L 718 288
L 718 288
L 718 288
L 718 287
L 719 287
L 719 287
L 719 287
L 719 287
L 719 287
L 719 287
L 719 287
L 719 287
L 719 287
L 720 287
L 720 287
L 721 287
L 721 287
L 721 287
L 722 287
L 722 287
L 722 287
L 724 287
L 724 287
L 724 287
L 724 287
L 724 287
L 724 287
L 725 286
L 725 286
L 726 286
L 726 286
L 726 286
L 727 286
L 727 286
L 727 286
L 728 286
L 728 286
L 728 286
L 728 286
L 728 286
L 728 286
L 728 286
L 729 286
L 729 286
L 729 286
L 729 286
L 729 286
L 729 286
L 729 286
L 729 286
L 729 286
L 729 285
L 729 285
L 729 285
L 730 285
L 730 285
L 730 285
L 730 285
L 730 285
L 730 285
L 731 285
L 731 285
L 731 285
L 731 285
L 731 285
L 732 285
L 732 285
L 732 285
L 732 285
L 732 285
L 732 285
L 732 285
L 732 285
L 732 285
L 732 285
L 732 284
L 732 284
L 733 284
L 733 284
L 733 284
L 733 284
L 733 284
L 733 284
L 733 284
L 733 284
L 734 284
L 734 284
L 734 284
L 734 284
L 734 284
L 734 284
L 734 284
L 734 284
L 734 284
L 734 284
L 735 284
L 736 284
L 736 284
L 736 284
L 736 283
L 736 283
L 736 283
L 736 283
L 737 283
L 737 283
L 737 283
L 737 283
L 737 283
L 737 283
L 737 283
L 737 283
L 737 283
L 737 283
L 737 283
L 737 283
L 737 283
L 737 283
L 738 283
L 738 283
L 738 283
L 738 283
L 738 283
L 738 283
L 738 282
L 738 282
L 738 282
L 738 282
L 739 282
L 739 282
L 739 282
L 739 282
L 739 282
L 739 282
L 739 282
L 739 282
L 739 282
L 740 282
L 740 282
L 740 282
L 741 282
L 741 282
L 741 282
L 741 282
L 741 282
L 741 282
L 742 282
L 742 281
L 742 281
L 742 281
L 742 281
L 742 281
L 742 281
L 742 281
L 742 281
L 743 281
L 743 281
L 743 281
L 743 281
L 743 281
L 743 281
L 743 281
L 743 281
L 744 281
L 744 281
L 744 281
L 744 281
L 744 281
L 744 281
L 744 281
L 744 281
L 744 280
L 744 280
L 745 280
L 745 280
L 745 280
L 745 280
L 745 280
L 745 280
L 745 280
L 745 280
L 745 280
L 746 280
L 746 280
L 746 280
L 746 280
L 747 280
L 747 280
L 747 280
L 747 280
L 747 280
L 747 280
L 747 280
L 747 280
L 747 280
L 747 279
L 747 279
L 747 279
L 747 279
L 747 279
L 747 279
L 747 279
L 747 279
L 747 279
L 747 279
L 747 279
L 747 279
L 747 279
L 747 279
L 747 279
L 747 279
L 747 279
L 747 279
L 747 279
L 747 279
L 747 279
L 747 279
L 747 279
L 747 279
L 747 278
L 747 278
L 747 278
L 747 278
L 747 278
L 747 278
L 747 278
L 747 278
L 747 278
L 747 278
L 747 278
L 747 278
L 747 278
L 747 278
L 747 278
L 747 278
L 747 278
L 747 278
L 747 278
L 747 278
L 747 278
L 747 278
L 747 278
L 747 278
L 747 277
L 747 277
L 747 277
L 747 277
L 747 277
L 747 277
L 747 277
L 747 277
L 747 277
L 747 277
L 747 277
L 747 277
L 747 277
L 747 277
L 747 277
L 747 277
L 747 277
L 747 277
L 747 277
L 747 277
L 747 277
L 747 277
L 747 277
L 747 276
L 747 276
L 747 276
L 747 276
L 747 276
L 747 276
L 747 276
L 747 276
L 747 276
L 747 276
L 747 276
L 747 276
L 747 276
L 747 276
L 747 276
L 747 276
L 748 276
L 748 276
L 748 276
L 748 276
L 748 276
L 748 276
L 748 276
L 748 276
L 748 275
L 748 275
L 748 275
L 748 275
L 748 275
L 748 275
L 748 275
L 748 275
L 748 275
L 748 275
L 748 275
L 748 275
L 748 275
L 748 275
L 748 275
L 748 275
L 748 275
L 748 275
L 748 275
L 748 275
L 748 275
L 748 275
L 748 275
L 748 275
L 748 274
L 748 274
L 748 274
L 748 274
L 748 274
L 748 274
L 748 274
L 748 274
L 748 274
L 748 274
L 748 274
L 748 274
L 748 274
L 749 274
L 749 274
L 749 274
L 749 274
L 749 274
L 749 274
L 749 274
L 749 274
L 749 274
L 749 274
L 749 274
L 749 273
L 749 273
L 749 273
L 749 273
L 749 273
L 749 273
L 749 273
L 749 273
L 749 273
L 749 273
L 749 273
L 749 273
L 749 273
L 749 273
L 749 273
L 749 273
L 749 273
L 749 273
L 749 273
L 749 273
L 749 273
L 749 273
L 749 273
L 749 273
L 749 272
L 749 272
L 749 272
L 749 272
L 749 272
L 749 272
L 749 272
L 749 272
L 749 272
L 749 272
L 749 272
L 749 272
L 749 272
L 749 272
L 749 272
L 749 272
L 749 272
L 749 272
L 749 272
L 749 272
L 749 272
L 749 272
L 749 272
L 749 272
L 749 271
L 749 271
L 749 271
L 749 271
L 749 271
L 749 271
L 749 271
L 749 271
L 749 271
L 749 271
L 749 271
L 749 271
L 749 271
L 749 271
L 749 271
L 749 271
L 749 271
L 749 271
L 749 271
L 749 271
L 749 271
L 749 271
L 749 271
L 749 270
L 749 270
L 749 270
L 749 270
L 749 270
L 749 270
L 749 270
L 749 270
L 749 270
L 749 270
L 749 270
L 749 270
L 749 270
L 749 270
L 749 270
L 749 270
L 749 270
L 749 270
L 749 270
L 750 270
L 750 270
L 750 270
L 750 270
L 750 270
L 750 269
L 750 269
L 750 269
L 750 269
L 750 269
L 750 269
L 750 269
L 750 269
L 750 269
L 750 269
L 750 269
L 750 269
L 750 269
L 750 269
L 750 269
L 750 269
L 750 269
L 750 269
L 750 269
L 750 269
L 750 269
L 750 269
L 750 269
L 750 269
L 750 268
L 750 268
L 750 268
L 750 268
L 750 268
L 750 268
L 750 268
L 750 268
L 750 268
L 750 268
L 750 268
L 750 268
L 750 268
L 750 268
L 750 268
L 750 268
L 750 268
L 750 268
L 750 268
L 751 268
L 751 268
L 751 268
L 751 268
L 751 268
L 751 267
L 751 267
L 751 267
L 751 267
L 751 267
L 751 267
L 751 267
L 751 267
L 751 267
L 751 267
L 751 267
L 751 267
L 751 267
L 751 267
L 751 267
L 751 267
L 751 267
L 751 267
L 751 267
L 751 267
L 751 267
L 751 267
L 751 267
L 751 267
L 751 266
L 751 266
L 751 266
L 751 266
L 751 266
L 751 266
L 751 266
L 751 266
L 751 266
L 751 266
L 751 266
L 752 266
L 752 266
L 752 266
L 752 266
L 752 266
L 752 266
L 752 266
L 752 266
L 752 266
L 752 266
L 752 266
L 752 266
L 753 266
L 753 265
L 753 265
L 753 265
L 753 265
L 753 265
L 753 265
L 753 265
L 753 265
L 754 265
L 754 265
L 754 265
L 754 265
L 754 265
L 754 265
L 754 265
L 754 265
L 754 265
L 754 265
L 754 265
L 754 265
L 754 265
L 755 265
L 755 265
L 755 264
L 755 264
L 755 264
L 755 264
L 755 264
L 755 264
L 755 264
L 755 264
L 755 264
L 755 264
L 755 264
L 755 264
L 755 264
L 755 264
L 755 264
L 756 264
L 756 264
L 756 264
L 756 264
L 756 264
L 756 264
L 756 264
L 756 264
L 756 264
L 756 263
L 757 263
L 757 263
L 757 263
L 757 263
L 757 263
L 757 263
L 757 263
L 758 263
L 758 263
L 758 263
L 758 263
L 758 263
L 758 263
L 758 263
L 758 263
L 758 263
L 758 263
L 758 263
L 759 263
L 759 263
L 759 263
L 759 263
L 759 263
L 759 262
L 759 262
L 759 262
L 759 262
L 759 262
L 759 262
L 759 262
L 759 262
L 759 262
L 759 262
L 759 262
L 759 262
L 759 262
L 759 262
L 759 262
L 759 262
L 759 262
L 759 262
L 759 262
L 759 262
L 759 262
L 759 262
L 759 262
L 759 262
L 759 261
L 759 261
L 759 261
L 759 261
L 759 261
L 759 261
L 759 261
L 759 261
L 759 261
L 759 261
L 759 261
L 759 261
L 759 261
L 759 261
L 759 261
L 759 261
L 759 261
L 759 261
L 759 261
L 759 261
L 759 261
L 759 261
L 759 261
L 760 261
L 760 260
L 760 260
L 760 260
L 760 260
L 760 260
L 760 260
L 760 260
L 760 260
L 760 260
L 760 260
L 760 260
L 760 260
L 760 260
L 760 260
L 760 260
L 760 260
L 760 260
L 760 260
L 760 260
L 760 260
L 760 260
L 760 260
L 760 260
L 760 259
L 760 259
L 760 259
L 760 259
L 761 259
L 761 259
L 761 259
L 761 259
L 761 259
L 761 259
L 761 259
L 761 259
L 761 259
L 761 259
L 761 259
L 761 259
L 761 259
L 761 259
L 761 259
L 761 259
L 761 259
L 761 259
L 761 259
L 761 259
L 761 258
L 761 258
L 761 258
L 761 258
L 761 258
L 761 258
L 761 258
L 761 258
L 761 258
L 761 258
L 761 258
L 761 258
L 761 258
L 761 258
L 761 258
L 761 258
L 761 258
L 761 258
L 761 258
L 761 258
L 761 258
L 761 258
L 761 258
L 761 258
L 761 257
L 761 257
L 761 257
L 761 257
L 761 257
L 761 257
L 761 257
L 761 257
L 761 257
L 761 257
L 761 257
L 761 257
L 761 257
L 761 257
L 761 257
L 761 257
L 761 257
L 761 257
L 761 257
L 761 257
L 761 257
L 761 257
L 761 257
L 761 257
L 761 256
L 761 256
L 761 256
L 761 256
L 761 256
L 761 256
L 761 256
L 761 256
L 761 256
L 761 256
L 761 256
L 761 256
L 761 256
L 761 256
L 761 256
L 761 256
L 761 256
L 761 256
L 761 256
L 761 256
L 761 256
L 761 256
L 761 256
L 761 256
L 761 255
L 761 255
L 761 255
L 762 255
L 762 255
L 762 255
L 762 255
L 762 255
L 762 255
L 762 255
L 762 255
L 762 255
L 762 255
L 762 255
L 762 255
L 762 255
L 762 255
L 762 255
L 762 255
L 762 255
L 762 255
L 762 255
L 762 255
L 762 255
L 762 254
L 762 254
L 762 254
L 762 254
L 762 254
L 762 254
L 762 254
L 762 254
L 762 254
L 762 254
L 762 254
L 762 254
L 762 254
L 762 254
L 762 254
L 762 254
L 762 254
L 762 254
L 763 254
L 763 254
L 763 254
L 763 254
L 763 254
L 763 253
L 763 253
L 763 253
L 763 253
L 763 253
L 763 253
L 763 253
L 763 253
L 763 253
L 763 253
L 763 253
L 763 253
L 763 253
L 763 253
L 763 253
L 763 253
L 763 253
L 763 253
L 763 253
L 763 253
L 763 253
L 763 253
L 763 253
L 763 253
L 763 252
L 763 252
L 763 252
L 763 252
L 764 252
L 764 252
L 764 252
L 764 252
L 764 252
L 764 252
L 764 252
L 764 252
L 764 252
L 764 252
L 764 252
L 764 252
L 764 252
L 764 252
L 764 252
L 764 252
L 764 252
L 764 252
L 764 252
L 764 252
L 764 251
L 764 251
L 764 251
L 765 251
L 765 251
L 765 251
L 765 251
L 765 251
L 765 251
L 765 251
L 765 251
L 765 251
L 765 251
L 765 251
L 765 251
L 765 251
L 765 251
L 765 251
L 765 251
L 765 251
L 765 251
L 765 251
L 765 251
L 765 251
L 765 250
L 765 250
L 765 250
L 765 250
L 765 250
L 765 250
L 765 250
L 765 250
L 765 250
L 765 250
L 766 250
L 766 250
L 766 250
L 766 250
L 766 250
L 766 250
L 766 250
L 766 250
L 766 250
L 766 250
L 766 250
L 766 250
L 766 250
L 766 250
L 766 249
L 766 249
L 766 249
L 766 249
L 766 249
L 767 249
L 767 249
L 767 249
L 767 249
L 767 249
L 767 249
L 767 249
L 767 249
L 767 249
L 767 249
L 767 249
L 767 249
L 768 249
L 768 249
L 768 249
L 768 249
L 768 249
L 768 249
L 768 249
L 768 248
L 768 248
L 768 248
L 769 248
L 769 248
L 769 248
L 769 248
L 769 248
L 769 248
L 769 248
L 769 248
L 770 248
L 770 248
L 770 248
L 770 248
L 770 248
L 770 248
L 770 248
L 770 248
L 770 248
L 770 248
L 770 248
L 770 248
L 771 247
L 771 247
L 771 247
L 771 247
L 771 247
L 771 247
L 771 247
L 771 247
L 771 247
L 771 247
L 771 247
L 771 247
L 771 247
L 771 247
L 771 247
L 771 247
L 771 247
L 771 247
L 771 247
L 771 247
L 771 247
L 771 247
L 772 247
L 772 247
L 772 246
L 772 246
L 772 246
L 772 246
L 772 246
L 772 246
L 772 246
L 772 246
L 773 246
L 773 246
L 773 246
L 773 246
L 773 246
L 773 246
L 773 246
L 773 246
L 773 246
L 773 246
L 773 246
L 773 246
L 773 246
L 773 246
L 773 246
L 774 246
L 774 245
L 774 245
L 774 245
L 774 245
L 774 245
L 774 245
L 774 245
L 774 245
L 774 245
L 774 245
L 774 245
L 774 245
L 774 245
L 774 245
L 774 245
L 774 245
L 774 245
L 774 245
L 775 245
L 775 245
L 775 245
L 775 245
L 775 245
L 775 245
L 775 244
L 775 244
L 775 244
L 775 244
L 775 244
L 775 244
L 775 244
L 776 244
L 776 244
L 776 244
L 776 244
L 776 244
L 776 244
L 776 244
L 776 244
L 776 244
L 776 244
L 776 244
L 776 244
L 776 244
L 776 244
L 776 244
L 776 244
L 776 244
L 776 243
L 776 243
L 776 243
L 777 243
L 777 243
L 777 243
L 777 243
L 777 243
L 777 243
L 777 243
L 777 243
L 777 243
L 777 243
L 777 243
L 777 243
L 778 243
L 778 243
L 778 243
L 778 243
L 778 243
L 778 243
L 778 243
L 779 243
L 779 242
L 779 242
L 779 242
L 779 242
L 779 242
L 779 242
L 779 242
L 779 242
L 779 242
L 779 242
L 779 242
L 779 242
L 779 242
L 779 242
L 779 242
L 779 242
L 779 242
L 779 242
L 779 242
L 779 242
L 779 242
L 779 242
L 779 242
L 779 242
L 779 241
L 779 241
L 779 241
L 779 241
L 779 241
L 779 241
L 779 241
L 779 241
L 779 241
L 779 241
L 779 241
L 780 241
L 780 241
L 780 241
L 780 241
L 780 241
L 780 241
L 780 241
L 780 241
L 780 241
L 780 241
L 780 241
L 780 241
L 780 241
L 780 240
L 780 240
L 780 240
L 780 240
L 780 240
L 780 240
L 780 240
L 780 240
L 780 240
L 780 240
L 780 240
L 780 240
L 780 240
L 780 240
L 780 240
L 780 240
L 780 240
L 780 240
L 780 240
L 780 240
L 780 240
L 780 240
L 780 240
L 780 240
L 780 239
L 780 239
L 780 239
L 780 239
L 780 239
L 780 239
L 780 239
L 780 239
L 780 239
L 780 239
L 780 239
L 780 239
L 780 239
L 780 239
L 780 239
L 780 239
L 780 239
L 780 239
L 780 239
L 780 239
L 780 239
L 780 239
L 780 239
L 781 239
L 781 238
L 781 238
L 781 238
L 781 238
L 781 238
L 781 238
L 781 238
L 781 238
L 781 238
L 781 238
L 781 238
L 781 238
L 781 238
L 781 238
L 781 238
L 781 238
L 781 238
L 781 238
L 781 238
L 781 238
L 781 238
L 781 238
L 781 238
L 781 238
L 781 237
L 781 237
L 781 237
L 781 237
L 781 237
L 781 237
L 781 237
L 781 237
L 781 237
L 781 237
L 781 237
L 781 237
L 781 237
L 781 237
L 781 237
L 781 237
L 781 237
L 781 237
L 781 237
L 781 237
L 781 237
L 781 237
L 781 237
L 781 236
L 781 236
L 781 236
L 781 236
L 781 236
L 781 236
L 781 236
L 781 236
L 781 236
L 781 236
L 781 236
L 781 236
L 781 236
L 781 236
L 781 236
L 781 236
L 781 236
L 781 236
L 781 236
L 781 236
L 781 236
L 781 236
L 781 236
L 782 236
L 782 235
L 782 235
L 782 235
L 782 235
L 782 235
L 782 235
L 782 235
L 782 235
L 782 235
L 782 235
L 782 235
L 782 235
L 782 235
L 782 235
L 782 235
L 782 235
L 782 235
L 782 235
L 782 235
L 782 235
L 782 235
L 782 235
L 782 235
L 782 235
L 782 234
L 782 234
L 782 234
L 782 234
L 782 234
L 782 234
L 782 234
L 782 234
L 782 234
L 782 234
L 782 234
L 782 234
L 782 234
L 782 234
L 782 234
L 782 234
L 782 234
L 782 234
L 782 234
L 782 234
L 782 234
L 782 234
L 782 234
L 782 234
L 782 233
L 782 233
L 782 233
L 782 233
L 782 233
L 782 233
L 782 233
L 782 233
L 782 233
L 782 233
L 782 233
L 782 233
L 782 233
L 782 233
L 782 233
L 782 233
L 782 233
L 782 233
L 782 233
L 782 233
L 782 233
L 782 233
L 782 233
L 782 233
L 782 232
L 782 232
L 782 232
L 782 232
L 782 232
L 782 232
L 782 232
L 782 232
L 782 232
L 782 232
L 782 232
L 782 232
L 782 232
L 782 232
L 782 232
L 782 232
L 782 232
L 782 232
L 782 232
L 782 232
L 782 232
L 782 232
L 782 232
L 782 232
L 782 231
L 782 231
L 782 231
L 782 231
L 782 231
L 782 231
L 782 231
L 782 231
L 782 231
L 782 231
L 782 231
L 782 231
L 782 231
L 782 231
L 782 231
L 782 231
L 782 231
L 782 231
L 782 231
L 782 231
L 782 231
L 782 231
L 782 231
L 782 230
L 782 230
L 782 230
L 782 230
L 782 230
L 782 230
L 782 230
L 782 230
L 782 230
L 782 230
L 782 230
L 782 230
L 782 230
L 782 230
L 782 230
L 782 230
L 782 230
L 782 230
L 782 230
L 782 230
L 782 230
L 782 230
L 782 230
L 782 230
L 782 229
L 782 229
L 782 229
L 783 229
L 783 229
L 783 229
L 783 229
L 783 229
L 783 229
L 783 229
L 783 229
L 783 229
L 783 229
L 783 229
L 783 229
L 783 229
L 783 229
L 783 229
L 783 229
L 783 229
L 783 229
L 783 229
L 783 229
L 783 229
L 783 228
L 783 228
L 783 228
L 783 228
L 783 228
L 783 228
L 783 228
L 783 228
L 783 228
L 783 228
L 783 228
L 783 228
L 783 228
L 783 228
L 783 228
L 783 228
L 783 228
L 783 228
L 783 228
L 783 228
L 783 228
L 783 228
L 783 228
L 783 228
L 783 227
L 783 227
L 783 227
L 783 227
L 783 227
L 783 227
L 783 227
L 783 227
L 783 227
L 783 227
L 783 227
L 783 227
L 783 227
L 783 227
L 783 227
L 783 227
L 783 227
L 783 227
L 783 227
L 783 227
L 783 227
L 783 227
L 783 227
L 783 227
L 783 226
L 783 226
L 783 226
L 783 226
L 783 226
L 783 226
L 783 226
L 783 226
L 783 226
L 783 226
L 783 226
L 783 226
L 783 226
L 783 226
L 783 226
L 783 226
L 783 226
L 783 226
L 783 226
L 783 226
L 783 226
L 783 226
L 783 226
L 783 225
L 783 225
L 783 225
L 783 225
L 783 225
L 783 225
L 783 225
L 783 225
L 783 225
L 783 225
L 783 225
L 783 225
L 783 225
L 783 225
L 783 225
L 783 225
L 783 225
L 783 225
L 783 225
L 783 225
L 783 225
L 783 225
L 783 225
L 783 225
L 783 224
L 783 224
L 783 224
L 783 224
L 783 224
L 783 224
L 783 224
L 783 224
L 783 224
L 783 224
L 783 224
L 783 224
L 783 224
L 783 224
L 783 224
L 783 224
L 783 224
L 783 224
L 783 224
L 783 224
L 783 224
L 783 224
L 783 224
L 783 224
L 783 223
L 783 223
L 783 223
L 783 223
L 783 223
L 783 223
L 783 223
L 783 223
L 783 223
L 783 223
L 783 223
L 783 223
L 783 223
L 783 223
L 783 223
L 783 223
L 783 223
L 783 223
L 783 223
L 783 223
L 783 223
L 783 223
L 783 223
L 783 223
L 783 222
L 783 222
L 783 222
L 783 222
L 783 222
L 783 222
L 783 222
L 783 222
L 783 222
L 783 222
L 783 222
L 783 222
L 783 222
L 783 222
L 783 222
L 783 222
L 783 222
L 783 222
L 783 222
L 783 222
L 783 222
L 783 222
L 783 222
L 783 222
L 783 221
L 783 221
L 783 221
L 783 221
L 783 221
L 783 221
L 783 221
L 783 221
L 783 221
L 783 221
L 783 221
L 783 221
L 783 221
L 783 221
L 783 221
L 783 221
L 783 221
L 783 221
L 783 221
L 783 221
L 783 221
L 783 221
L 783 221
L 783 221
L 783 220
L 783 220
L 783 220
L 783 220
L 783 220
L 783 220
L 783 220
L 783 220
L 783 220
L 783 220
L 783 220
L 783 220
L 783 220
L 783 220
L 783 220
L 783 220
L 783 220
L 783 220
L 783 220
L 783 220
L 783 220
L 783 220
L 783 220
L 783 219
L 783 219
L 783 219
L 783 219
L 783 219
L 783 219
L 783 219
L 783 219
L 783 219
L 783 219
L 783 219
L 783 219
L 783 219
L 783 219
L 783 219
L 783 219
L 783 219
L 783 219
L 783 219
L 783 219
L 783 219
L 783 219
L 783 219
L 783 219
L 783 218
L 783 218
L 783 218
L 783 218
L 783 218
L 783 218
L 783 218
L 783 218
L 783 218
L 783 218
L 783 218
L 783 218
L 783 218
L 783 218
L 783 218
L 783 218
L 783 218
L 783 218
L 783 218
L 783 218
L 783 218
L 783 218
L 783 218
L 783 218
L 783 217
L 783 217
L 783 217
L 783 217
L 783 217
L 783 217
L 783 217
L 783 217
L 783 217
L 783 217
L 783 217
L 783 217
L 783 217
L 783 217
L 783 217
L 783 217
L 783 217
L 783 217
L 783 217
L 783 217
L 783 217
L 783 217
L 783 217
L 783 217
L 783 216
L 783 216
L 783 216
L 783 216
L 783 216
L 783 216
L 783 216
L 783 216
L 783 216
L 783 216
L 783 216
L 783 216
L 783 216
L 783 216
L 783 216
L 783 216
L 783 216
L 783 216
L 783 216
L 783 216
L 783 216
L 783 216
L 783 216
L 783 216
L 783 215
L 783 215
L 783 215
L 783 215
L 783 215
L 783 215
L 783 215
L 783 215
L 783 215
L 783 215
L 783 215
L 783 215
L 783 215
L 783 215
L 783 215
L 783 215
L 783 215
L 784 215
L 784 215
L 784 215
L 784 215
L 784 215
L 784 215
L 784 215
L 784 214
L 784 214
L 784 214
L 784 214
L 784 214
L 784 214
L 784 214
L 784 214
L 784 214
L 784 214
L 784 214
L 784 214
L 784 214
L 784 214
L 784 214
L 784 214
L 784 214
L 784 214
L 784 214
L 784 214
L 784 214
L 784 214
L 784 214
L 784 213
L 784 213
L 784 213
L 784 213
L 784 213
L 784 213
L 784 213
L 784 213
L 784 213
L 784 213
L 784 213
L 784 213
L 784 213
L 784 213
L 784 213
L 784 213
L 784 213
L 784 213
L 784 213
L 784 213
L 784 213
L 784 213
L 784 213
L 784 213
L 784 212
L 784 212
L 784 212
L 784 212
L 784 212
L 784 212
L 784 212
L 784 212
L 784 212
L 784 212
L 784 212
L 784 212
L 784 212
L 784 212
L 784 212
L 784 212
L 784 212
L 784 212
L 784 212
L 784 212
L 784 212
L 784 212
L 784 212
L 784 212
L 784 211
L 784 211
L 784 211
L 784 211
L 784 211
L 784 211
L 784 211
L 784 211
L 784 211
L 784 211
L 784 211
L 784 211
L 784 211
L 784 211
L 784 211
L 784 211
L 784 211
L 784 211
L 784 211
L 784 211
L 784 211
L 784 211
L 784 211
L 784 211
L 784 210
L 784 210
L 784 210
L 784 210
L 784 210
L 784 210
L 784 210
L 784 210
L 784 210
L 784 210
L 784 210
L 784 210
L 784 210
L 784 210
L 784 210
L 784 210
L 784 210
L 784 210
L 784 210
L 784 210
L 784 210
L 784 210
L 784 210
L 784 210
L 784 209
L 784 209
L 784 209
L 784 209
L 784 209
L 784 209
L 784 209
L 784 209
L 784 209
L 784 209
L 784 209
L 784 209
L 784 209
L 784 209
L 784 209
L 784 209
L 784 209
L 784 209
L 784 209
L 784 209
L 784 209
L 784 209
L 784 209
L 784 208
L 784 208
L 784 208
L 784 208
L 784 208
L 784 208
L 784 208
L 784 208
L 784 208
L 784 208
L 784 208
L 784 208
L 784 208
L 784 208
L 784 208
L 784 208
L 784 208
L 784 208
L 784 208
L 784 208
L 784 208
L 784 208
L 784 208
L 784 208
L 784 207
L 784 207
L 784 207
L 784 207
L 784 207
L 784 207
L 784 207
L 784 207
L 784 207
L 784 207
L 784 207
L 784 207
L 784 207
L 784 207
L 784 207
L 784 207
L 784 207
L 784 207
L 784 207
L 784 207
L 784 207
L 784 207
L 784 207
L 784 207
L 784 206
L 784 206
L 784 206
L 784 206
L 784 206
L 784 206
L 784 206
L 784 206
L 784 206
L 784 206
L 784 206
L 784 206
L 784 206
L 784 206
L 784 206
L 784 206
L 784 206
L 784 206
L 784 206
L 784 206
L 784 206
L 784 206
L 784 206
L 784 206
L 784 205
L 784 205
L 784 205
L 784 205
L 784 205
L 784 205
L 784 205
L 784 205
L 784 205
L 784 205
L 784 205
L 784 205
L 784 205
L 784 205
L 784 205
L 784 205
L 784 205
L 784 205
L 784 205
L 784 205
L 784 205
L 784 205
L 784 205
L 784 205
L 784 204
L 784 204
L 784 204
L 784 204
L 784 204
L 784 204
L 784 204
L 784 204
L 784 204
L 784 204
L 784 204
L 784 204
L 784 204
L 784 204
L 784 204
L 784 204
L 784 204
L 784 204
L 784 204
L 784 204
L 784 204
L 784 204
L 784 204
L 784 204
L 784 203
L 784 203
L 784 203
L 784 203
L 784 203
L 784 203
L 784 203
L 784 203
L 784 203
L 784 203
L 784 203
L 784 203
L 784 203
L 784 203
L 784 203
L 784 203
L 784 203
L 784 203
L 784 203
L 784 203
L 784 203
L 784 203
L 784 203
L 784 202
L 784 202
L 784 202
L 784 202
L 784 202
L 785 202
L 785 202
L 785 202
L 785 202
L 785 202
L 785 202
L 785 202
L 785 202
L 785 202
L 785 202
L 785 202
L 785 202
L 785 202
L 785 202
L 785 202
L 785 202
L 785 202
L 785 202
L 785 202
L 785 201
L 785 201
L 785 201
L 785 201
L 785 201
L 785 201
L 785 201
L 785 201
L 785 201
L 785 201
L 785 201
L 785 201
L 785 201
L 785 201
L 785 201
L 785 201
L 785 201
L 785 201
L 785 201
L 785 201
L 785 201
L 785 201
L 785 201
L 785 201
L 785 200
L 785 200
L 785 200
L 785 200
L 785 200
L 785 200
L 785 200
L 785 200
L 785 200
L 785 200
L 785 200
L 785 200
L 785 200
L 785 200
L 785 200
L 785 200
L 785 200
L 785 200
L 785 200
L 785 200
L 785 200
L 785 200
L 785 200
L 785 200
L 785 199
L 785 199
L 785 199
L 785 199
L 785 199
L 785 199
L 785 199
L 785 199
L 785 199
L 785 199
L 785 199
L 785 199
L 785 199
L 785 199
L 785 199
L 785 199
L 785 199
L 785 199
L 785 199
L 785 199
L 785 199
L 785 199
L 785 199
L 785 199
L 785 198
L 785 198
L 785 198
L 785 198
L 785 198
L 785 198
L 785 198
L 785 198
L 785 198
L 785 198
L 785 198
L 785 198
L 785 198
L 785 198
L 785 198
L 785 198
L 785 198
L 785 198
L 785 198
L 785 198
L 785 198
L 785 198
L 785 198
L 785 198
L 785 197
L 785 197
L 785 197
L 785 197
L 785 197
L 785 197
L 785 197
L 785 197
L 785 197
L 785 197
L 785 197
L 785 197
L 785 197
L 785 197
L 785 197
L 785 197
L 785 197
L 785 197
L 785 197
L 785 197
L 785 197
L 785 197
L 786 197
L 786 196
L 786 196
L 786 196
L 786 196
L 786 196
L 786 196
L 786 196
L 786 196
L 787 196
L 787 196
L 787 196
L 787 196
L 787 196
L 787 196
L 787 196
L 787 196
L 787 196
L 787 196
L 787 196
L 787 196
L 787 196
L 787 196
L 787 196
L 787 196
L 788 195
L 788 195
L 788 195
L 788 195
L 788 195
L 788 195
L 788 195
L 788 195
L 788 195
L 788 195
L 788 195
L 788 195
L 788 195
L 788 195
L 788 195
L 788 195
L 788 195
L 788 195
L 788 195
L 788 195
L 788 195
L 788 195
L 788 195
L 788 195
L 788 194
L 788 194
L 788 194
L 788 194
L 788 194
L 788 194
L 788 194
L 788 194
L 788 194
L 788 194
L 788 194
L 788 194
L 788 194
L 788 194
L 789 194
L 789 194
L 789 194
L 789 194
L 789 194
L 789 194
L 789 194
L 789 194
L 789 194
L 789 194
L 789 193
L 789 193
L 789 193
L 789 193
L 789 193
L 789 193
L 789 193
L 789 193
L 789 193
L 789 193
L 789 193
L 789 193
L 789 193
L 789 193
L 789 193
L 789 193
L 789 193
L 790 193
L 790 193
L 790 193
L 790 193
L 790 193
L 790 193
L 790 193
L 790 192
L 790 192
L 790 192
L 790 192
L 790 192
L 790 192
L 790 192
L 790 192
L 790 192
L 790 192
L 790 192
L 790 192
L 790 192
L 791 192
L 791 192
L 791 192
L 791 192
L 791 192
L 791 192
L 791 192
L 791 192
L 791 192
L 791 192
L 791 191
L 791 191
L 791 191
L 791 191
L 791 191
L 791 191
L 791 191
L 791 191
L 791 191
L 791 191
L 791 191
L 791 191
L 791 191
L 791 191
L 791 191
L 792 191
L 792 191
L 792 191
L 792 191
L 792 191
L 792 191
L 792 191
L 792 191
L 792 191
L 792 190
L 792 190
L 792 190
L 792 190
L 792 190
L 792 190
L 792 190
L 792 190
L 792 190
L 792 190
L 792 190
L 792 190
L 792 190
L 792 190
L 792 190
L 792 190
L 792 190
L 792 190
L 792 190
L 792 190
L 792 190
L 792 190
L 793 190
L 793 190
L 793 189
L 793 189
L 793 189
L 793 189
L 793 189
L 793 189
L 793 189
L 793 189
L 793 189
L 793 189
L 793 189
L 793 189
L 793 189
L 794 189
L 794 189
L 794 189
L 794 189
L 794 189
L 794 189
L 794 189
L 794 189
L 794 189
L 794 189
L 794 189
L 794 188
L 794 188
L 794 188
L 794 188
L 794 188
L 794 188
L 794 188
L 794 188
L 795 188
L 795 188
L 795 188
L 795 188
L 795 188
L 795 188
L 795 188
L 795 188
L 795 188
L 795 188
L 795 188
L 795 188
L 795 188
L 795 188
L 795 188
L 795 188
L 795 187
L 795 187
L 795 187
L 795 187
L 795 187
L 796 187
L 796 187
L 796 187
L 796 187
L 796 187
L 796 187
L 796 187
L 796 187
L 796 187
L 796 187
L 797 187
L 797 187
L 797 187
L 797 187
L 797 187
L 797 187
L 797 187
L 797 187
L 797 187
L 797 186
L 797 186
L 797 186
L 797 186
L 797 186
L 797 186
L 797 186
L 797 186
L 798 186
L 798 186
L 798 186
L 798 186
L 798 186
L 798 186
L 798 186
L 798 186
L 798 186
L 798 186
L 798 186
L 798 186
L 798 186
L 798 186
L 798 186
L 798 185
L 798 185
L 798 185
L 798 185
L 798 185
L 798 185
L 798 185
L 798 185
L 798 185
L 798 185
L 799 185
L 799 185
L 799 185
L 799 185
L 799 185
L 799 185
L 799 185
L 799 185
L 799 185
L 799 185
L 799 185
L 799 185
L 799 185
L 799 185
L 799 184
L 799 184
L 800 184
L 800 184
L 800 184
L 800 184
L 800 184
L 800 184
L 800 184
L 800 184
L 800 184
L 800 184
L 800 184
L 800 184
L 800 184
L 800 184
L 800 184
L 801 184
L 801 184
L 801 184
L 801 184
L 801 184
L 801 184
L 801 184
L 802 183
L 802 183
L 802 183
L 802 183
L 802 183
L 802 183
L 802 183
L 802 183
L 802 183
L 802 183
L 802 183
L 802 183
L 802 183
L 802 183
L 803 183
L 803 183
L 803 183
L 803 183
L 803 183
L 803 183
L 803 183
L 803 183
L 803 183
L 803 183
L 803 182
L 803 182
L 803 182
L 803 182
L 803 182
L 803 182
L 803 182
L 803 182
L 803 182
L 803 182
L 803 182
L 803 182
L 803 182
L 803 182
L 803 182
L 803 182
L 803 182
L 803 182
L 803 182
L 803 182
L 803 182
L 803 182
L 803 182
L 803 182
L 803 181
L 803 181
L 803 181
L 803 181
L 803 181
L 803 181
L 803 181
L 803 181
L 803 181
L 803 181
L 803 181
L 803 181
L 803 181
L 803 181
L 803 181
L 803 181
L 803 181
L 803 181
L 803 181
L 803 181
L 803 181
L 803 181
L 803 181
L 803 181
L 803 180
L 803 180
L 803 180
L 803 180
L 803 180
L 803 180
L 803 180
L 803 180
L 803 180
L 803 180
L 803 180
L 803 180
L 803 180
L 803 180
L 804 180
L 804 180
L 804 180
L 804 180
L 804 180
L 804 180
L 804 180
L 804 180
L 804 180
L 804 179
L 804 179
L 804 179
L 804 179
L 804 179
L 804 179
L 804 179
L 804 179
L 804 179
L 804 179
L 804 179
L 804 179
L 804 179
L 804 179
L 804 179
L 804 179
L 804 179
L 804 179
L 804 179
L 804 179
L 804 179
L 804 179
L 804 179
L 804 179
L 804 178
L 804 178
L 804 178
L 804 178
L 804 178
L 804 178
L 804 178
L 804 178
L 804 178
L 804 178
L 804 178
L 804 178
L 804 178
L 804 178
L 804 178
L 804 178
L 804 178
L 804 178
L 804 178
L 804 178
L 804 178
L 804 178
L 804 178
L 804 178
L 804 177
L 804 177
L 804 177
L 804 177
L 804 177
L 804 177
L 804 177
L 804 177
L 804 177
L 804 177
L 804 177
L 804 177
L 804 177
L 804 177
L 804 177
L 804 177
L 804 177
L 804 177
L 804 177
L 804 177
L 804 177
L 804 177
L 804 177
L 804 177
L 804 176
L 804 176
L 804 176
L 804 176
L 804 176
L 804 176
L 804 176
L 804 176
L 804 176
L 804 176
L 804 176
L 804 176
L 804 176
L 804 176
L 804 176
L 804 176
L 804 176
L 804 176
L 804 176
L 804 176
L 804 176
L 804 176
L 804 176
L 804 176
L 804 175
L 804 175
L 804 175
L 804 175
L 804 175
L 804 175
L 804 175
L 804 175
L 804 175
L 804 175
L 804 175
L 804 175
L 804 175
L 804 175
L 804 175
L 804 175
L 804 175
L 804 175
L 804 175
L 804 175
L 804 175
L 804 175
L 804 175
L 804 174
L 804 174
L 804 174
L 804 174
L 804 174
L 804 174
L 804 174
L 804 174
L 804 174
L 804 174
L 804 174
L 804 174
L 804 174
L 804 174
L 804 174
L 804 174
L 804 174
L 804 174
L 804 174
L 804 174
L 804 174
L 804 174
L 804 174
L 804 174
L 804 173
L 804 173
L 804 173
L 804 173
L 804 173
L 804 173
L 804 173
L 804 173
L 804 173
L 804 173
L 804 173
L 804 173
L 804 173
L 804 173
L 804 173
L 804 173
L 804 173
L 804 173
L 804 173
L 804 173
L 804 173
L 804 173
L 804 173
L 804 173
L 804 172
L 804 172
L 804 172
L 804 172
L 804 172
L 804 172
L 804 172
L 804 172
L 804 172
L 804 172
L 804 172
L 804 172
L 804 172
L 804 172
L 804 172
L 804 172
L 804 172
L 804 172
L 804 172
L 804 172
L 804 172
L 804 172
L 804 172
L 804 172
L 804 171
L 804 171
L 804 171
L 804 171
L 804 171
L 804 171
L 804 171
L 804 171
L 804 171
L 804 171
L 804 171
L 804 171
L 804 171
L 804 171
L 804 171
L 804 171
L 804 171
L 804 171
L 804 171
L 804 171
L 804 171
L 804 171
L 804 171
L 804 171
L 804 170
L 804 170
L 804 170
L 804 170
L 804 170
L 804 170
L 804 170
L 804 170
L 804 170
L 804 170
L 804 170
L 804 170
L 804 170
L 804 170
L 804 170
L 804 170
L 804 170
L 804 170
L 804 170
L 804 170
L 804 170
L 804 170
L 804 170
L 804 170
L 804 169
L 804 169
L 804 169
L 804 169
L 804 169
L 804 169
L 804 169
L 804 169
L 804 169
L 804 169
L 804 169
L 804 169
L 804 169
L 804 169
L 804 169
L 804 169
L 804 169
L 804 169
L 804 169
L 804 169
L 804 169
L 804 169
L 804 169
L 804 168
L 804 168
L 804 168
L 804 168
L 804 168
L 804 168
L 804 168
L 804 168
L 804 168
L 804 168
L 804 168
L 804 168
L 804 168
L 804 168
L 804 168
L 804 168
L 804 168
L 804 168
L 804 168
L 804 168
L 804 168
L 804 168
L 804 168
L 805 168
L 805 167
L 805 167
L 805 167
L 805 167
L 805 167
L 805 167
L 805 167
L 805 167
L 805 167
L 805 167
L 805 167
L 805 167
L 805 167
L 805 167
L 805 167
L 805 167
L 805 167
L 805 167
L 805 167
L 805 167
L 805 167
L 805 167
L 805 167
L 805 167
L 805 166
L 805 166
L 805 166
L 805 166
L 805 166
L 805 166
L 805 166
L 805 166
L 805 166
L 805 166
L 805 166
L 805 166
L 805 166
L 805 166
L 805 166
L 805 166
L 805 166
L 805 166
L 805 166
L 805 166
L 805 166
L 805 166
L 805 166
L 805 166
L 805 165
L 805 165
L 805 165
L 805 165
L 805 165
L 805 165
L 805 165
L 805 165
L 805 165
L 805 165
L 805 165
L 805 165
L 805 165
L 805 165
L 805 165
L 805 165
L 805 165
L 805 165
L 805 165
L 805 165
L 805 165
L 805 165
L 805 165
L 805 165
L 805 164
L 805 164
L 805 164
L 805 164
L 805 164
L 805 164
L 805 164
L 805 164
L 805 164
L 805 164
L 805 164
L 805 164
L 805 164
L 805 164
L 805 164
L 805 164
L 805 164
L 805 164
L 805 164
L 805 164
L 805 164
L 805 164
L 805 164
L 805 163
L 805 163
L 805 163
L 805 163
L 805 163
L 805 163
L 805 163
L 805 163
L 805 163
L 805 163
L 805 163
L 805 163
L 805 163
L 805 163
L 805 163
L 805 163
L 805 163
L 805 163
L 805 163
L 805 163
L 805 163
L 805 163
L 805 163
L 805 163
L 805 162
L 805 162
L 805 162
L 805 162
L 805 162
L 805 162
L 805 162
L 805 162
L 805 162
L 805 162
L 805 162
L 805 162
L 805 162
L 805 162
L 805 162
L 805 162
L 805 162
L 805 162
L 805 162
L 805 162
L 805 162
L 805 162
L 805 162
L 805 162
L 805 161
L 805 161
L 805 161
L 805 161
L 805 161
L 805 161
L 805 161
L 805 161
L 805 161
L 805 161
L 805 161
L 805 161
L 805 161
L 805 161
L 805 161
L 805 161
L 805 161
L 805 161
L 805 161
L 805 161
L 805 161
L 805 161
L 805 161
L 805 161
L 805 160
L 805 160
L 805 160
L 805 160
L 805 160
L 805 160
L 805 160
L 805 160
L 805 160
L 805 160
L 805 160
L 805 160
L 805 160
L 805 160
L 805 160
L 805 160
L 805 160
L 805 160
L 805 160
L 805 160
L 805 160
L 805 160
L 805 160
L 805 160
L 805 159
L 805 159
L 805 159
L 805 159
L 805 159
L 805 159
L 805 159
L 805 159
L 805 159
L 805 159
L 805 159
L 805 159
L 805 159
L 805 159
L 805 159
L 805 159
L 805 159
L 805 159
L 805 159
L 805 159
L 805 159
L 805 159
L 805 159
L 805 159
L 805 158
L 805 158
L 805 158
L 805 158
L 805 158
L 805 158
L 805 158
L 805 158
L 805 158
L 805 158
L 805 158
L 805 158
L 805 158
L 805 158
L 805 158
L 805 158
L 805 158
L 805 158
L 805 158
L 805 158
L 805 158
L 805 158
L 805 158
L 805 157
L 805 157
L 805 157
L 805 157
L 805 157
L 805 157
L 805 157
L 805 157
L 805 157
L 805 157
L 805 157
L 805 157
L 805 157
L 805 157
L 805 157
L 805 157
L 805 157
L 805 157
L 805 157
L 805 157
L 805 157
L 805 157
L 805 157
L 805 157
L 805 156
L 805 156
L 805 156
L 805 156
L 805 156
L 805 156
L 805 156
L 805 156
L 805 156
L 805 156
L 805 156
L 805 156
L 805 156
L 805 156
L 805 156
L 805 156
L 805 156
L 805 156
L 805 156
L 805 156
L 805 156
L 805 156
L 805 156
L 805 156
L 805 155
L 805 155
L 805 155
L 805 155
L 805 155
L 805 155
L 805 155
L 805 155
L 805 155
L 805 155
L 805 155
L 805 155
L 805 155
L 805 155
L 805 155
L 805 155
L 805 155
L 805 155
L 805 155
L 805 155
L 805 155
L 805 155
L 805 155
L 805 155
L 805 154
L 805 154
L 805 154
L 805 154
L 805 154
L 805 154
L 805 154
L 805 154
L 805 154
L 805 154
L 805 154
L 805 154
L 805 154
L 805 154
L 805 154
L 805 154
L 805 154
L 805 154
L 805 154
L 805 154
L 805 154
L 805 154
L 805 154
L 805 154
L 805 153
L 805 153
L 805 153
L 805 153
L 805 153
L 805 153
L 805 153
L 805 153
L 805 153
L 805 153
L 805 153
L 805 153
L 805 153
L 805 153
L 805 153
L 805 153
L 805 153
L 806 153
L 806 153
L 806 153
L 806 153
L 806 153
L 806 153
L 806 153
L 806 152
L 806 152
L 806 152
L 806 152
L 806 152
L 806 152
L 806 152
L 806 152
L 806 152
L 806 152
L 806 152
L 806 152
L 806 152
L 806 152
L 806 152
L 806 152
L 806 152
L 806 152
L 806 152
L 806 152
L 806 152
L 806 152
L 806 152
L 806 151
L 806 151
L 806 151
L 806 151
L 806 151
L 806 151
L 806 151
L 806 151
L 806 151
L 806 151
L 806 151
L 806 151
L 806 151
L 806 151
L 806 151
L 806 151
L 806 151
L 806 151
L 806 151
L 806 151
L 806 151
L 806 151
L 806 151
L 806 151
L 806 150
L 806 150
L 806 150
L 806 150
L 806 150
L 806 150
L 806 150
L 806 150
L 806 150
L 806 150
L 806 150
L 806 150
L 806 150
L 806 150
L 806 150
L 806 150
L 806 150
L 806 150
L 806 150
L 806 150
L 806 150
L 806 150
L 806 150
L 806 150
L 806 149
L 806 149
L 806 149
L 806 149
L 806 149
L 806 149
L 806 149
L 806 149
L 806 149
L 806 149
L 806 149
L 806 149
L 806 149
L 806 149
L 806 149
L 806 149
L 806 149
L 806 149
L 806 149
L 806 149
L 806 149
L 806 149
L 806 149
L 806 149
L 806 148
L 806 148
L 806 148
L 806 148
L 806 148
L 806 148
L 806 148
L 806 148
L 806 148
L 806 148
L 806 148
L 806 148
L 806 148
L 806 148
L 806 148
L 806 148
L 806 148
L 806 148
L 806 148
L 806 148
L 806 148
L 806 148
L 806 148
L 806 148
L 806 147
L 806 147
L 806 147
L 806 147
L 806 147
L 806 147
L 806 147
L 806 147
L 806 147
L 806 147
L 806 147
L 806 147
L 806 147
L 806 147
L 806 147
L 806 147
L 806 147
L 806 147
L 806 147
L 806 147
L 806 147
L 806 147
L 806 147
L 806 147
L 806 146
L 806 146
L 806 146
L 806 146
L 806 146
L 806 146
L 806 146
L 806 146
L 806 146
L 806 146
L 806 146
L 806 146
L 806 146
L 806 146
L 806 146
L 806 146
L 806 146
L 806 146
L 806 146
L 806 146
L 806 146
L 806 146
L 806 146
L 806 145
L 806 145
L 806 145
L 806 145
L 806 145
L 806 145
L 806 145
L 806 145
L 806 145
L 806 145
L 806 145
L 806 145
L 806 145
L 806 145
L 806 145
L 806 145
L 806 145
L 806 145
L 806 145
L 806 145
L 806 145
L 806 145
L 806 145
L 806 145
L 806 144
L 806 144
L 806 144
L 806 144
L 806 144
L 806 144
L 806 144
L 806 144
L 806 144
L 806 144
L 806 144
L 806 144
L 806 144
L 806 144
L 806 144
L 806 144
L 806 144
L 806 144
L 806 144
L 806 144
L 806 144
L 806 144
L 806 144
L 806 144
L 806 143
L 806 143
L 806 143
L 806 143
L 806 143
L 806 143
L 806 143
L 806 143
L 806 143
L 806 143
L 806 143
L 806 143
L 806 143
L 806 143
L 806 143
L 806 143
L 806 143
L 806 143
L 806 143
L 806 143
L 806 143
L 806 143
L 806 143
L 806 143
L 806 142
L 806 142
L 806 142
L 806 142
L 806 142
L 806 142
L 806 142
L 806 142
L 806 142
L 806 142
L 806 142
L 806 142
L 806 142
L 806 142
L 806 142
L 806 142
L 806 142
L 806 142
L 806 142
L 806 142
L 806 142
L 806 142
L 806 142
L 806 142
L 806 141
L 806 141
L 806 141
L 806 141
L 806 141
L 806 141
L 806 141
L 806 141
L 806 141
L 806 141
L 806 141
L 806 141
L 806 141
L 806 141
L 806 141
L 806 141
L 806 141
L 806 141
L 806 141
L 806 141
L 806 141
L 806 141
L 806 141
L 806 140
L 806 140
L 806 140
L 806 140
L 806 140
L 806 140
L 806 140
L 806 140
L 806 140
L 806 140
L 807 140
L 807 140
L 807 140
L 807 140
L 807 140
L 807 140
L 807 140
L 807 140
L 807 140
L 807 140
L 807 140
L 807 140
L 807 140
L 807 140
L 807 139
L 807 139
L 807 139
L 807 139
L 807 139
L 807 139
L 807 139
L 807 139
L 807 139
L 807 139
L 807 139
L 807 139
L 807 139
L 807 139
L 807 139
L 807 139
L 807 139
L 807 139
L 807 139
L 807 139
L 807 139
L 807 139
L 807 139
L 807 139
L 807 138
L 807 138
L 807 138
L 807 138
L 807 138
L 807 138
L 807 138
L 807 138
L 807 138
L 807 138
L 807 138
L 807 138
L 807 138
L 807 138
L 807 138
L 807 138
L 807 138
L 807 138
L 807 138
L 807 138
L 807 138
L 807 138
L 807 138
L 807 138
L 807 137
L 807 137
L 807 137
L 807 137
L 807 137
L 807 137
L 807 137
L 807 137
L 807 137
L 807 137
L 807 137
L 807 137
L 807 137
L 807 137
L 807 137
L 807 137
L 807 137
L 807 137
L 807 137
L 807 137
L 807 137
L 807 137
L 807 137
L 807 137
L 807 136
L 807 136
L 807 136
L 807 136
L 807 136
L 807 136
L 807 136
L 807 136
L 807 136
L 807 136
L 807 136
L 807 136
L 807 136
L 807 136
L 807 136
L 807 136
L 807 136
L 807 136
L 807 136
L 807 136
L 807 136
L 807 136
L 807 136
L 807 136
L 807 135
L 807 135
L 807 135
L 807 135
L 807 135
L 807 135
L 807 135
L 807 135
L 807 135
L 807 135
L 807 135
L 807 135
L 807 135
L 807 135
L 807 135
L 807 135
L 807 135
L 807 135
L 807 135
L 807 135
L 807 135
L 807 135
L 807 135
L 807 134
L 807 134
L 807 134
L 807 134
L 807 134
L 807 134
L 807 134
L 807 134
L 807 134
L 807 134
L 807 134
L 807 134
L 807 134
L 807 134
L 807 134
L 807 134
L 807 134
L 807 134
L 807 134
L 807 134
L 807 134
L 807 134
L 807 134
L 807 134
L 807 133
L 807 133
L 807 133
L 807 133
L 807 133
L 807 133
L 807 133
L 807 133
L 807 133
L 807 133
L 807 133
L 807 133
L 807 133
L 807 133
L 807 133
L 807 133
L 807 133
L 807 133
L 807 133
L 807 133
L 807 133
L 807 133
L 807 133
L 807 133
L 807 132
L 807 132
L 807 132
L 807 132
L 808 132
L 808 132
L 808 132
L 808 132
L 808 132
L 808 132
L 808 132
L 808 132
L 808 132
L 808 132
L 808 132
L 808 132
L 808 132
L 808 132
L 808 132
L 808 132
L 808 132
L 808 132
L 808 132
L 808 132
L 808 131
L 808 131
L 808 131
L 808 131
L 808 131
L 808 131
L 808 131
L 808 131
L 808 131
L 809 131
L 809 131
L 809 131
L 809 131
L 809 131
L 809 131
L 809 131
L 809 131
L 809 131
L 809 131
L 809 131
L 809 131
L 809 131
L 809 131
L 809 131
L 809 130
L 809 130
L 809 130
L 809 130
L 809 130
L 809 130
L 809 130
L 809 130
L 809 130
L 809 130
L 809 130
L 809 130
L 809 130
L 809 130
L 809 130
L 809 130
L 809 130
L 809 130
L 809 130
L 809 130
L 809 130
L 809 130
L 809 130
L 809 130
L 809 129
L 809 129
L 809 129
L 809 129
L 809 129
L 809 129
L 809 129
L 809 129
L 809 129
L 809 129
L 809 129
L 809 129
L 809 129
L 809 129
L 809 129
L 809 129
L 809 129
L 809 129
L 809 129
L 809 129
L 809 129
L 809 129
L 809 129
L 809 128
L 809 128
L 809 128
L 809 128
L 809 128
L 809 128
L 809 128
L 809 128
L 809 128
L 809 128
L 809 128
L 809 128
L 809 128
L 809 128
L 809 128
L 809 128
L 809 128
L 809 128
L 809 128
L 809 128
L 809 128
L 809 128
L 809 128
L 809 128
L 809 127
L 809 127
L 809 127
L 809 127
L 809 127
L 809 127
L 809 127
L 809 127
L 809 127
L 809 127
L 809 127
L 809 127
L 809 127
L 809 127
L 809 127
L 810 127
L 810 127
L 810 127
L 810 127
L 810 127
L 810 127
L 810 127
L 810 127
L 810 127
L 810 126
L 810 126
L 810 126
L 810 126
L 810 126
L 810 126
L 810 126
L 810 126
L 810 126
L 810 126
L 810 126
L 810 126
L 810 126
L 810 126
L 810 126
L 810 126
L 810 126
L 810 126
L 810 126
L 810 126
L 810 126
L 810 126
L 810 126
L 810 126
L 810 125
L 810 125
L 810 125
L 810 125
L 810 125
L 810 125
L 810 125
L 810 125
L 810 125
L 810 125
L 810 125
L 810 125
L 810 125
L 810 125
L 810 125
L 810 125
L 810 125
L 810 125
L 810 125
L 810 125
L 810 125
L 810 125
L 811 125
L 811 125
L 811 124
L 811 124
L 811 124
L 811 124
L 811 124
L 811 124
L 811 124
L 811 124
L 811 124
L 811 124
L 811 124
L 811 124
L 811 124
L 811 124
L 811 124
L 811 124
L 811 124
L 811 124
L 811 124
L 811 124
L 811 124
L 811 124
L 811 124
L 811 123
L 811 123
L 811 123
L 811 123
L 811 123
L 811 123
L 811 123
L 811 123
L 811 123
L 812 123
L 812 123
L 812 123
L 812 123
L 812 123
L 812 123
L 812 123
L 812 123
L 812 123
L 812 123
L 812 123
L 812 123
L 812 123
L 812 123
L 812 123
L 813 122
L 813 122
L 813 122
L 813 122
L 813 122
L 813 122
L 813 122
L 813 122
L 813 122
L 813 122
L 813 122
L 813 122
L 813 122
L 813 122
L 813 122
L 813 122
L 813 122
L 813 122
L 813 122
L 813 122
L 813 122
L 813 122
L 813 122
L 813 122
L 813 121
L 813 121
L 814 121
L 814 121
L 814 121
L 814 121
L 814 121
L 814 121
L 814 121
L 814 121
L 814 121
L 814 121
L 814 121
L 814 121
L 814 121
L 814 121
L 814 121
L 814 121
L 814 121
L 814 121
L 814 121
L 814 121
L 814 121
L 814 121
L 814 120
L 814 120
L 814 120
L 814 120
L 814 120
L 814 120
L 814 120
L 814 120
L 814 120
L 814 120
L 814 120
L 815 120
L 815 120
L 815 120
L 815 120
L 815 120
L 815 120
L 815 120
L 815 120
L 815 120
L 815 120
L 815 120
L 815 120
L 815 120
L 815 119
L 815 119
L 815 119
L 815 119
L 815 119
L 815 119
L 816 119
L 816 119
L 816 119
L 816 119
L 816 119
L 816 119
L 816 119
L 816 119
L 816 119
L 816 119
L 816 119
L 816 119
L 816 119
L 816 119
L 816 119
L 816 119
L 816 119
L 816 119
L 816 118
L 816 118
L 816 118
L 817 118
L 817 118
L 817 118
L 817 118
L 817 118
L 817 118
L 817 118
L 817 118
L 817 118
L 817 118
L 817 118
L 817 118
L 817 118
L 817 118
L 817 118
L 817 118
L 817 118
L 817 118
L 817 118
L 817 118
L 817 117
L 817 117
L 817 117
L 817 117
L 817 117
L 817 117
L 817 117
L 817 117
L 817 117
L 817 117
L 818 117
L 818 117
L 818 117
L 818 117
L 818 117
L 818 117
L 818 117
L 818 117
L 818 117
L 818 117
L 818 117
L 818 117
L 818 117
L 818 117
L 819 116
L 819 116
L 819 116
L 819 116
L 819 116
L 819 116
L 819 116
L 819 116
L 819 116
L 819 116
L 820 116
L 820 116
L 820 116
L 820 116
L 820 116
L 820 116
L 820 116
L 820 116
L 820 116
L 820 116
L 820 116
L 820 116
L 820 116
L 820 116
L 820 115
L 820 115
L 820 115
L 820 115
L 820 115
L 820 115
L 820 115
L 820 115
L 820 115
L 820 115
L 820 115
L 820 115
L 820 115
L 820 115
L 820 115
L 820 115
L 820 115
L 820 115
L 820 115
L 820 115
L 820 115
L 820 115
L 821 115
L 821 115
L 821 114
L 821 114
L 821 114
L 821 114
L 821 114
L 821 114
L 821 114
L 821 114
L 821 114
L 821 114
L 821 114
L 821 114
L 821 114
L 821 114
L 821 114
L 821 114
L 821 114
L 821 114
L 821 114
L 821 114
L 821 114
L 821 114
L 821 114
L 821 114
L 821 113
L 821 113
L 821 113
L 821 113
L 821 113
L 821 113
L 821 113
L 821 113
L 821 113
L 821 113
L 821 113
L 821 113
L 821 113
L 821 113
L 821 113
L 821 113
L 821 113
L 821 113
L 821 113
L 821 113
L 821 113
L 821 113
L 821 113
L 821 113
L 821 112
L 821 112
L 821 112
L 822 112
L 822 112
L 822 112
L 822 112
L 822 112
L 822 112
L 822 112
L 822 112
L 822 112
L 822 112
L 822 112
L 822 112
L 822 112
L 822 112
L 822 112
L 822 112
L 822 112
L 822 112
L 822 112
L 822 112
L 822 111
L 822 111
L 822 111
L 822 111
L 822 111
L 822 111
L 822 111
L 822 111
L 822 111
L 822 111
L 822 111
L 822 111
L 822 111
L 822 111
L 822 111
L 822 111
L 822 111
L 822 111
L 822 111
L 822 111
L 822 111
L 822 111
L 822 111
L 822 111
L 822 110
L 822 110
L 822 110
L 822 110
L 823 110
L 823 110
L 823 110
L 823 110
L 823 110
L 823 110
L 823 110
L 823 110
L 823 110
L 823 110
L 823 110
L 823 110
L 823 110
L 823 110
L 823 110
L 823 110
L 823 110
L 823 110
L 823 110
L 823 110
L 823 109
L 823 109
L 823 109
L 823 109
L 824 109
L 824 109
L 824 109
L 824 109
L 824 109
L 824 109
L 824 109
L 824 109
L 824 109
L 824 109
L 824 109
L 824 109
L 824 109
L 824 109
L 824 109
L 824 109
L 824 109
L 824 109
L 824 109
L 824 109
L 824 108
L 824 108
L 824 108
L 824 108
L 824 108
L 824 108
L 824 108
L 824 108
L 824 108
L 824 108
L 824 108
L 824 108
L 824 108
L 824 108
L 825 108
L 825 108
L 825 108
L 825 108
L 825 108
L 825 108
L 825 108
L 825 108
L 825 108
L 825 108
L 825 107
L 825 107
L 825 107
L 825 107
L 825 107
L 825 107
L 825 107
L 825 107
L 825 107
L 825 107
L 825 107
L 825 107
L 825 107
L 825 107
L 825 107
L 825 107
L 825 107
L 826 107
L 826 107
L 826 107
L 826 107
L 826 107
L 826 107
L 826 106
L 826 106
L 826 106
L 826 106
L 826 106
L 826 106
L 826 106
L 826 106
L 826 106
L 826 106
L 826 106
L 826 106
L 826 106
L 826 106
L 826 106
L 826 106
L 826 106
L 826 106
L 826 106
L 826 106
L 826 106
L 826 106
L 826 106
L 826 106
L 827 105
L 827 105
L 827 105
L 827 105
L 827 105
L 827 105
L 827 105
L 827 105
L 827 105
L 827 105
L 827 105
L 827 105
L 827 105
L 827 105
L 827 105
L 827 105
L 827 105
L 828 105
L 828 105
L 828 105
L 828 105
L 828 105
L 828 105
L 828 105
L 828 104
L 828 104
L 828 104
L 828 104
L 828 104
L 828 104
L 829 104
L 829 104
L 829 104
L 829 104
L 829 104
L 829 104
L 829 104
L 829 104
L 830 104
L 830 104
L 830 104
L 830 104
L 830 104
L 831 104
L 831 104
L 831 104
L 831 104
L 831 104
L 831 103
L 831 103
L 831 103
L 831 103
L 831 103
L 831 103
L 831 103
L 831 103
L 831 103
L 831 103
L 831 103
L 832 103
L 832 103
L 832 103
L 832 103
L 832 103
L 832 103
L 832 103
L 832 103
L 832 103
L 832 103
L 832 103
L 832 103
L 832 103
L 832 102
L 832 102
L 833 102
L 833 102
L 833 102
L 833 102
L 833 102
L 833 102
L 833 102
L 833 102
L 833 102
L 834 102
L 834 102
L 834 102
L 834 102
L 834 102
L 834 102
L 834 102
L 834 102
L 835 102
L 835 102
L 835 102
L 835 102
L 835 102
L 835 101
L 835 101
L 835 101
L 835 101
L 835 101
L 836 101
L 836 101
L 836 101
L 836 101
L 836 101
L 836 101
L 836 101
L 836 101
L 836 101
L 836 101
L 836 101
L 836 101
L 836 101
L 837 101
L 837 101
L 837 101
L 837 101
L 837 101
L 837 100
L 837 100
L 837 100
L 837 100
L 837 100
L 837 100
L 838 100
L 838 100
L 838 100
L 838 100
L 838 100
L 838 100
L 838 100
L 838 100
L 838 100
L 838 100
L 838 100
L 839 100
L 839 100
L 839 100
L 839 100
L 839 100
L 839 100
L 839 100
L 839 99
L 839 99
L 839 99
L 839 99
L 839 99
L 839 99
L 839 99
L 839 99
L 839 99
L 839 99
L 840 99
L 840 99
L 840 99
L 840 99
L 840 99
L 840 99
L 840 99
L 841 99
L 841 99
L 841 99
L 841 99
L 841 99
L 841 99
L 841 99
L 841 98
L 841 98
L 841 98
L 842 98
L 842 98
L 842 98
L 842 98
L 842 98
L 842 98
L 842 98
L 842 98
L 842 98
L 842 98
L 842 98
L 842 98
L 842 98
L 842 98
L 842 98
L 842 98
L 842 98
L 842 98
L 843 98
L 843 98
L 843 98
L 843 97
L 843 97
L 843 97
L 843 97
L 843 97
L 843 97
L 843 97
L 843 97
L 843 97
L 843 97
L 844 97
L 844 97
L 844 97
L 844 97
L 844 97
L 844 97
L 844 97
L 845 97
L 845 97
L 845 97
L 845 97
L 845 97
L 845 97
L 846 97
L 846 96
L 846 96
L 846 96
L 846 96
L 846 96
L 846 96
L 846 96
L 846 96
L 846 96
L 847 96
L 847 96
L 847 96
L 847 96
L 847 96
L 847 96
L 847 96
L 847 96
L 847 96
L 847 96
L 847 96
L 847 96
L 847 96
L 847 96
L 847 96
L 847 95
L 847 95
L 847 95
L 847 95
L 847 95
L 847 95
L 847 95
L 847 95
L 847 95
L 847 95
L 847 95
L 847 95
L 847 95
L 847 95
L 847 95
L 847 95
L 847 95
L 847 95
L 847 95
L 847 95
L 847 95
L 847 95
L 848 95
L 848 94
L 848 94
L 848 94
L 848 94
L 848 94
L 848 94
L 848 94
L 848 94
L 848 94
L 848 94
L 848 94
L 848 94
L 848 94
L 848 94
L 848 94
L 848 94
L 848 94
L 848 94
L 848 94
L 848 94
L 849 94
L 849 94
L 849 94
L 849 94
L 849 93
L 849 93
L 849 93
L 849 93
L 849 93
L 849 93
L 849 93
L 849 93
L 849 93
L 849 93
L 849 93
L 849 93
L 849 93
L 849 93
L 849 93
L 849 93
L 849 93
L 849 93
L 849 93
L 849 93
L 849 93
L 849 93
L 849 93
L 850 93
L 850 92
L 850 92
L 850 92
L 850 92
L 850 92
L 850 92
L 850 92
L 850 92
L 850 92
L 850 92
L 850 92
L 850 92
L 850 92
L 850 92
L 851 92
L 851 92
L 851 92
L 851 92
L 851 92
L 851 92
L 851 92
L 851 92
L 851 92
L 851 92
L 851 91
L 851 91
L 851 91
L 852 91
L 852 91
L 852 91
L 852 91
L 852 91
L 852 91
L 852 91
L 852 91
L 852 91
L 852 91
L 852 91
L 853 91
L 853 91
L 853 91
L 853 91
L 853 91
L 853 91
L 853 91
L 853 91
L 853 91
L 853 91
L 853 90
L 853 90
L 853 90
L 853 90
L 853 90
L 854 90
L 854 90
L 854 90
L 854 90
L 854 90
L 854 90
L 854 90
L 854 90
L 854 90
L 854 90
L 854 90
L 854 90
L 854 90
L 854 90
L 854 90
L 854 90
L 855 90
L 855 90
L 855 89
L 855 89
L 855 89
L 855 89
L 855 89
L 855 89
L 855 89
L 855 89
L 855 89
L 855 89
L 856 89
L 856 89
L 856 89
L 856 89
L 856 89
L 856 89
L 856 89
L 856 89
L 857 89
L 857 89
L 857 89
L 857 89
L 857 89
L 857 89
L 857 88
L 857 88
L 857 88
L 857 88
L 857 88
L 858 88
L 858 88
L 858 88
L 858 88
L 858 88
L 858 88
L 858 88
L 858 88
L 858 88
L 858 88
L 859 88
L 859 88
L 859 88
L 859 88
L 859 88
L 859 88
L 859 88
L 859 88
L 859 88
L 859 87
L 859 87
L 859 87
L 859 87
L 859 87
L 859 87
L 859 87
L 860 87
L 860 87
L 860 87
L 860 87
L 860 87
L 860 87
L 860 87
L 860 87
L 860 87
L 860 87
L 861 87
L 861 87
L 861 87
L 861 87
L 861 87
L 861 87
L 861 87
L 861 86
L 861 86
L 861 86
L 861 86
L 862 86
L 862 86
L 862 86
L 862 86
L 862 86
L 862 86
L 862 86
L 862 86
L 862 86
L 862 86
L 862 86
L 862 86
L 862 86
L 862 86
L 862 86
L 863 86
L 863 86
L 863 86
L 863 86
L 863 86
L 863 85
L 863 85
L 863 85
L 863 85
L 863 85
L 863 85
L 863 85
L 863 85
L 863 85
L 863 85
L 863 85
L 863 85
L 863 85
L 863 85
L 864 85
L 864 85
L 864 85
L 864 85
L 864 85
L 864 85
L 864 85
L 864 85
L 864 85
L 864 85
L 864 84
L 865 84
L 865 84
L 865 84
L 865 84
L 865 84
L 865 84
L 865 84
L 865 84
L 865 84
L 865 84
L 865 84
L 866 84
L 866 84
L 866 84
L 866 84
L 866 84
L 866 84
L 866 84
L 866 84
L 866 84
L 866 84
L 867 84
L 867 83
L 867 83
L 867 83
L 867 83
L 868 83
L 868 83
L 868 83
L 868 83
L 868 83
L 868 83
L 868 83
L 868 83
L 868 83
L 868 83
L 868 83
L 868 83
L 868 83
L 869 83
L 869 83
L 869 83
L 869 83
L 869 83
L 869 83
L 869 83
L 869 82
L 869 82
L 869 82
L 869 82
L 869 82
L 869 82
L 870 82
L 870 82
L 870 82
L 870 82
L 870 82
L 870 82
L 870 82
L 870 82
L 870 82
L 870 82
L 870 82
L 870 82
L 870 82
L 870 82
L 871 82
L 871 82
L 871 82
L 871 82
L 871 81
L 871 81
L 871 81
L 871 81
L 871 81
L 871 81
L 871 81
L 872 81
L 872 81
L 872 81
L 872 81
L 872 81
L 872 81
L 872 81
L 872 81
L 872 81
L 873 81
L 873 81
L 873 81
L 873 81
L 873 81
L 873 81
L 873 81
L 873 81
L 873 80
L 873 80
L 874 80
L 874 80
L 874 80
L 874 80
L 874 80
L 874 80
L 874 80
L 874 80
L 874 80
L 874 80
L 874 80
L 875 80
L 875 80
L 875 80
L 875 80
L 875 80
L 875 80
L 875 80
L 875 80
L 875 80
L 875 80
L 875 80
L 875 79
L 875 79
L 875 79
L 875 79
L 875 79
L 875 79
L 875 79
L 875 79
L 875 79
L 875 79
L 875 79
L 875 79
L 875 79
L 875 79
L 875 79
L 876 79
L 876 79
L 876 79
L 876 79
L 876 79
L 876 79
L 876 79
L 876 79
L 876 79
L 876 78
L 876 78
L 876 78
L 876 78
L 876 78
L 876 78
L 876 78
L 876 78
L 876 78
L 876 78
L 876 78
L 876 78
L 876 78
L 876 78
L 876 78
L 876 78
L 876 78
L 876 78
L 876 78
L 876 78
L 876 78
L 876 78
L 876 78
L 876 77
L 876 77
L 876 77
L 876 77
L 876 77
L 876 77
L 877 77
L 877 77
L 877 77
L 877 77
L 877 77
L 877 77
L 877 77
L 877 77
L 877 77
L 877 77
L 877 77
L 877 77
L 877 77
L 877 77
L 877 77
L 877 77
L 877 77
L 877 77
L 877 76
L 877 76
L 877 76
L 877 76
L 877 76
L 877 76
L 877 76
L 877 76
L 877 76
L 877 76
L 877 76
L 877 76
L 877 76
L 877 76
L 877 76
L 877 76
L 877 76
L 877 76
L 877 76
L 877 76
L 877 76
L 877 76
L 877 76
L 877 76
L 877 75
L 877 75
L 877 75
L 877 75
L 877 75
L 878 75
L 878 75
L 878 75
L 878 75
L 878 75
L 878 75
L 878 75
L 878 75
L 878 75
L 878 75
L 878 75
L 878 75
L 878 75
L 878 75
L 879 75
L 879 75
L 879 75
L 879 75
L 879 75
L 879 74
L 879 74
L 879 74
L 879 74
L 879 74
L 879 74
L 879 74
L 879 74
L 879 74
L 879 74
L 880 74
L 880 74
L 880 74
L 880 74
L 880 74
L 880 74
L 880 74
L 880 74
L 880 74
L 880 74
L 880 74
L 880 74
L 880 74
L 880 74
L 880 73
L 880 73
L 880 73
L 880 73
L 880 73
L 880 73
L 880 73
L 880 73
L 880 73
L 880 73
L 880 73
L 880 73
L 880 73
L 880 73
L 880 73
L 880 73
L 880 73
L 880 73
L 880 73
L 880 73
L 880 73
L 880 73
L 880 73
L 880 72
L 880 72
L 880 72
L 880 72
L 880 72
L 880 72
L 880 72
L 880 72
L 880 72
L 880 72
L 880 72
L 880 72
L 880 72
L 880 72
L 880 72
L 880 72
L 880 72
L 880 72
L 880 72
L 880 72
L 881 72
L 881 72
L 881 72
L 881 72
L 881 71
L 881 71
L 881 71
L 881 71
L 881 71
L 881 71
L 881 71
L 881 71
L 881 71
L 881 71
L 881 71
L 881 71
L 881 71
L 881 71
L 881 71
L 881 71
L 881 71
L 881 71
L 881 71
L 881 71
L 881 71
L 881 71
L 881 71
L 881 71
L 881 70
L 881 70
L 881 70
L 881 70
L 881 70
L 881 70
L 881 70
L 881 70
L 881 70
L 881 70
L 881 70
L 881 70
L 881 70
L 881 70
L 881 70
L 881 70
L 881 70
L 881 70
L 881 70
L 881 70
L 881 70
L 881 70
L 881 70
L 881 70
L 881 69
L 881 69
L 881 69
L 881 69
L 881 69
L 881 69
L 881 69
L 881 69
L 881 69
L 881 69
L 881 69
L 882 69
L 882 69
L 882 69
L 882 69
L 882 69
L 882 69
L 882 69
L 882 69
L 882 69
L 882 69
L 882 69
L 882 69
L 882 69
L 882 68
L 882 68
L 882 68
L 882 68
L 882 68
L 882 68
L 882 68
L 882 68
L 882 68
L 882 68
L 882 68
L 882 68
L 882 68
L 882 68
L 882 68
L 882 68
L 882 68
L 882 68
L 882 68
L 882 68
L 882 68
L 882 68
L 882 68
L 882 68
L 882 67
L 882 67
L 882 67
L 882 67
L 882 67
L 882 67
L 882 67
L 882 67
L 882 67
L 882 67
L 882 67
L 882 67
L 882 67
L 882 67
L 883 67
L 883 67
L 883 67
L 883 67
L 883 67
L 883 67
L 883 67
L 883 67
L 883 67
L 883 66
L 883 66
L 883 66
L 883 66
L 883 66
L 883 66
L 883 66
L 883 66
L 883 66
L 883 66
L 883 66
L 883 66
L 883 66
L 883 66
L 883 66
L 883 66
L 883 66
L 883 66
L 883 66
L 883 66
L 883 66
L 883 66
L 883 66
L 883 66
L 883 65
L 883 65
L 883 65
L 883 65
L 883 65
L 883 65
L 883 65
L 883 65
L 883 65
L 883 65
L 883 65
L 883 65
L 883 65
L 883 65
L 883 65
L 883 65
L 884 65
L 884 65
L 884 65
L 884 65
L 884 65
L 884 65
L 884 65
L 884 65
L 884 64
L 884 64
L 884 64
L 884 64
L 884 64
L 884 64
L 884 64
L 884 64
L 884 64
L 884 64
L 885 64
L 885 64
L 885 64
L 885 64
L 885 64
L 885 64
L 885 64
L 885 64
L 885 64
L 885 64
L 885 64
L 885 64
L 885 64
L 885 64
L 885 63
L 885 63
L 885 63
L 885 63
L 885 63
L 885 63
L 885 63
L 885 63
L 885 63
L 885 63
L 885 63
L 885 63
L 885 63
L 885 63
L 885 63
L 885 63
L 885 63
L 885 63
L 886 63
L 886 63
L 886 63
L 886 63
L 886 63
L 886 63
L 886 62
L 886 62
L 886 62
L 886 62
L 886 62
L 886 62
L 886 62
L 886 62
L 886 62
L 886 62
L 886 62
L 886 62
L 886 62
L 886 62
L 886 62
L 886 62
L 886 62
L 886 62
L 886 62
L 886 62
L 887 62
L 887 62
L 887 62
L 887 62
L 887 61
L 887 61
L 887 61
L 887 61
L 887 61
L 887 61
L 887 61
L 887 61
L 887 61
L 887 61
L 887 61
L 887 61
L 887 61
L 887 61
L 888 61
L 888 61
L 888 61
L 888 61
L 888 61
L 888 61
L 888 61
L 888 61
L 888 61
L 888 60
L 888 60
L 889 60
L 889 60
L 889 60
L 889 60
L 889 60
L 889 60
L 889 60
L 889 60
L 889 60
L 889 60
L 889 60
L 889 60
L 889 60
L 890 60
L 890 60
L 890 60
L 890 60
L 890 60
L 890 60
L 890 60
L 890 60
L 890 60
L 890 59
L 890 59
L 890 59
L 890 59
L 890 59
L 890 59
L 890 59
L 890 59
L 890 59
L 890 59
L 890 59
L 890 59
L 891 59
L 891 59
L 891 59
L 891 59
L 891 59
L 891 59
L 891 59
L 891 59
L 891 59
L 891 59
L 891 59
L 891 59
L 891 58
L 891 58
L 891 58
L 891 58
L 891 58
L 891 58
L 891 58
L 891 58
L 891 58
L 892 58
L 892 58
L 892 58
L 892 58
L 892 58
L 892 58
L 892 58
L 892 58
L 892 58
L 892 58
L 892 58
L 892 58
L 892 58
L 892 58
L 892 58
L 892 57
L 892 57
L 892 57
L 892 57
L 892 57
L 892 57
L 892 57
L 892 57
L 892 57
L 892 57
L 892 57
L 892 57
L 892 57
L 892 57
L 892 57
L 892 57
L 892 57
L 892 57
L 892 57
L 893 57
L 893 57
L 893 57
L 893 57
L 893 57
L 893 56
L 893 56
L 893 56
L 893 56
L 893 56
L 893 56
L 893 56
L 893 56
L 893 56
L 893 56
L 893 56
L 893 56
L 893 56
L 893 56
L 894 56
L 894 56
L 894 56
L 894 56
L 894 56
L 894 56
L 894 56
L 894 56
L 894 56
L 894 55
L 894 55
L 894 55
L 894 55
L 894 55
L 894 55
L 894 55
L 894 55
L 894 55
L 894 55
L 894 55
L 894 55
L 894 55
L 894 55
L 894 55
L 894 55
L 894 55
L 894 55
L 894 55
L 894 55
L 894 55
L 894 55
L 895 55
L 895 55
L 895 54
L 895 54
L 895 54
L 895 54
L 895 54
L 895 54
L 895 54
L 895 54
L 895 54
L 895 54
L 895 54
L 895 54
L 895 54
L 896 54
L 896 54
L 896 54
L 896 54
L 896 54
L 896 54
L 896 54
L 896 54
L 896 54
L 896 54
L 896 54
L 896 53
L 896 53
L 897 53
L 897 53
L 897 53
L 897 53
L 897 53
L 897 53
L 897 53
L 897 53
L 897 53
L 897 53
L 898 53
L 898 53
L 898 53
L 898 53
L 898 53
L 898 53
L 898 53
L 898 53
L 898 53
L 898 53
L 898 53
L 898 53
L 898 52
L 898 52
L 898 52
L 898 52
L 898 52
L 898 52
L 898 52
L 898 52
L 898 52
L 898 52
L 898 52
L 898 52
L 898 52
L 898 52
L 898 52
L 898 52
L 898 52
L 898 52
L 898 52
L 899 52
L 899 52
L 899 52
L 899 52
L 899 52
L 899 51
L 899 51
L 899 51
L 899 51
L 899 51
L 899 51
L 899 51
L 899 51
L 899 51
L 899 51
L 899 51
L 899 51
L 899 51
L 899 51
L 899 51
L 899 51
L 899 51
L 899 51
L 899 51
L 899 51
L 899 51
L 899 51
L 900 51
L 900 51
L 900 50
L 900 50
L 900 50
L 900 50
L 900 50
L 900 50
L 900 50
L 900 50
L 900 50
L 901 50
L 901 50
L 901 50
L 901 50
L 901 50
L 901 50
L 901 50
L 901 50
L 901 50
L 901 50
L 901 50
L 901 50
L 901 50
L 902 50
L 902 49
L 902 49
L 902 49
L 902 49
L 902 49
L 902 49
L 902 49
L 902 49
L 902 49
L 902 49
L 902 49
L 902 49
L 902 49
L 902 49
L 902 49
L 902 49
L 902 49
L 902 49
L 903 49
L 903 49
L 903 49
L 903 49
L 903 49
L 903 49
L 903 48
L 903 48
L 903 48
L 903 48
L 903 48
L 903 48
L 904 48
L 904 48
L 904 48
L 904 48
L 904 48
L 904 48
L 904 48
L 904 48
L 904 48
L 904 48
L 905 48
L 905 48
L 905 48
L 905 48
L 905 48
L 905 48
L 905 48
L 905 48
L 905 47
L 906 47
L 906 47
L 906 47
L 906 47
L 906 47
L 906 47
L 906 47
L 906 47
L 906 47
L 906 47
L 906 47
L 907 47
L 907 47
L 907 47
L 907 47
L 907 47
L 907 47
L 907 47
L 907 47
L 908 47
L 908 47
L 908 47
L 909 47
L 909 46
L 909 46
L 909 46
L 909 46
L 909 46
L 909 46
L 910 46
L 910 46
L 910 46
L 910 46
L 910 46
L 910 46
L 910 46
L 910 46
L 910 46
L 910 46
L 910 46
L 911 46
L 911 46
L 911 46
L 911 46
L 911 46
L 911 46
L 912 46
L 912 45
L 912 45
L 912 45
L 912 45
L 912 45
L 912 45
L 913 45
L 913 45
L 913 45
L 913 45
L 913 45
L 913 45
L 913 45
L 913 45
L 913 45
L 913 45
L 913 45
L 913 45
L 913 45
L 913 45
L 913 45
L 913 45
L 913 45
L 913 45
L 914 44
L 914 44
L 914 44
L 914 44
L 914 44
L 914 44
L 914 44
L 914 44
L 914 44
L 914 44
L 914 44
L 914 44
L 914 44
L 914 44
L 914 44
L 914 44
L 914 44
L 914 44
L 914 44
L 914 44
L 915 44
L 915 44
L 915 44
L 915 43
L 915 43
L 915 43
L 915 43
L 915 43
L 915 43
L 915 43
L 915 43
L 915 43
L 915 43
L 915 43
L 915 43
L 915 43
L 915 43
L 915 43
L 915 43
L 915 43
L 915 43
L 915 43
L 915 43
L 915 43
L 915 43
L 915 43
L 915 43
L 915 42
L 916 42
L 916 42
L 916 42
L 916 42
L 916 42
L 916 42
L 916 42
L 916 42
L 916 42
L 916 42
L 916 42
L 917 42
L 917 42
L 917 42
L 917 42
L 917 42
L 917 42
L 917 42
L 917 42
L 918 42
L 918 42
L 918 42
L 918 42
L 918 41
L 918 41
L 918 41
L 918 41
L 919 41
L 919 41
L 919 41
L 919 41
L 919 41
L 919 41
L 919 41
L 919 41
L 919 41
L 920 41
L 920 41
L 920 41
L 920 41
L 920 41
L 920 41
L 920 41
L 920 41
L 920 41
L 920 41
L 921 41
L 921 40
L 921 40
L 921 40
L 921 40
L 921 40
L 921 40
L 921 40
L 921 40
L 922 40
L 922 40
L 922 40
L 922 40
L 922 40
L 922 40
L 922 40
L 923 40
L 923 40
L 923 40
L 923 40
L 923 40
L 923 40
L 923 40
L 923 40
L 924 40
L 924 39
L 924 39
L 924 39
L 924 39
L 924 39
L 924 39
L 924 39
L 924 39
L 924 39
L 924 39
L 924 39
L 924 39
L 924 39
L 924 39
L 925 39
L 925 39
L 925 39
L 925 39
L 925 39
L 925 39
L 925 39
L 925 39
L 925 39
L 925 38
L 925 38
L 925 38
L 925 38
L 925 38
L 925 38
L 925 38
L 925 38
L 925 38
L 925 38
L 925 38
L 925 38
L 925 38
L 925 38
L 925 38
L 925 38
L 925 38
L 926 38
L 926 38
L 926 38
L 926 38
L 926 38
L 926 38
L 926 38
L 926 37
L 926 37
L 926 37
L 926 37
L 927 37
L 927 37
L 927 37
L 927 37
L 927 37
L 927 37
L 927 37
L 927 37
L 927 37
L 927 37
L 927 37
L 927 37
L 927 37
L 928 37
L 928 37
L 928 37
L 928 37
L 928 37
L 928 37
L 928 37
L 928 36
L 928 36
L 928 36
L 929 36
L 929 36
L 929 36
L 929 36
L 929 36
L 929 36
L 929 36
L 929 36
L 929 36
L 929 36
L 929 36
L 929 36
L 929 36
L 929 36
L 929 36
L 930 36
L 930 36
L 930 36
L 930 36
L 930 36
L 930 36
L 930 35
L 930 35
L 930 35
L 930 35
L 930 35
L 930 35
L 931 35
L 931 35
L 931 35
L 931 35
L 931 35
L 931 35
L 931 35
L 931 35
L 931 35
L 931 35
L 931 35
L 931 35
L 932 35
L 932 35
L 932 35
L 932 35
L 932 35
L 932 35
L 932 34
L 932 34
L 932 34
L 932 34
L 932 34
L 932 34
L 932 34
L 932 34
L 932 34
L 932 34
L 933 34
L 933 34
L 933 34
L 933 34
L 933 34
L 933 34
L 934 34
L 934 34
L 934 34
L 934 34
L 934 34
L 934 34
L 934 34
L 934 34
L 934 33
L 934 33
L 934 33
L 935 33
L 935 33
L 935 33
L 935 33
L 936 33
L 936 33
L 936 33
L 936 33
L 936 33
L 936 33
L 936 33
L 936 33
L 936 33
L 936 33
L 937 33
L 937 33
L 937 33
L 937 33
L 937 33
L 937 33
L 937 32
L 937 32
L 938 32
L 938 32
L 938 32
L 938 32
L 938 32
L 938 32
L 939 32
L 939 32
L 939 32
L 939 32
L 939 32
L 940 32
L 940 32
L 940 32
L 940 32
L 940 32
L 940 32
L 941 32
L 941 32
L 941 32
L 941 32
L 941 32
L 941 31
L 941 31
L 941 31
L 941 31
L 941 31
L 941 31
L 941 31
L 941 31
L 942 31
L 942 31
L 942 31
L 942 31
L 942 31
L 942 31
L 942 31
L 942 31
L 942 31
L 942 31
L 942 31
L 942 31
L 942 31
L 942 31
L 942 31
L 942 31
L 942 30
L 942 30
L 942 30
L 942 30
L 943 30
L 943 30
L 943 30
L 943 30
L 943 30
L 943 30
L 943 30
L 943 30
L 943 30
L 943 30
L 943 30
L 943 30
L 943 30
L 944 30
L 944 30
L 944 30
L 944 30
L 944 30
L 944 30
L 944 30
L 944 29
L 944 29
L 944 29
L 944 29
L 945 29
L 945 29
L 945 29
L 945 29
L 945 29
L 946 29
L 946 29
L 946 29
L 946 29
L 946 29
L 946 29
L 946 29
L 946 29
L 946 29
L 946 29
L 946 29
L 946 29
L 946 29
L 946 29
L 947 29
L 947 28
L 947 28
L 947 28
L 947 28
L 947 28
L 947 28
L 947 28
L 947 28
L 947 28
L 947 28
L 947 28
L 948 28
L 948 28
L 948 28
L 949 28
L 949 28
L 949 28
L 949 28
L 950 28
L 950 28
L 950 28
L 950 28
L 951 28
L 951 28
L 951 27
L 951 27
L 951 27
L 951 27
L 951 27
L 951 27
L 951 27
L 951 27
L 951 27
L 952 27
L 952 27
L 952 27
L 952 27
L 952 27
L 952 27
L 952 27
L 952 27
L 953 27
L 953 27
L 953 27
L 953 27
L 953 27
L 953 27
L 953 26
L 953 26
L 953 26
L 953 26
L 953 26
L 953 26
L 953 26
L 953 26
L 953 26
L 953 26
L 953 26
L 953 26
L 953 26
L 953 26
L 953 26
L 953 26
L 953 26
L 953 26
L 953 26
L 954 26
L 954 26
L 954 26
L 954 26
L 954 26
L 954 25
L 954 25
L 954 25
L 954 25
L 954 25
L 954 25
L 954 25
L 954 25
L 954 25
L 954 25
L 954 25
L 954 25
L 954 25
L 954 25
L 954 25
L 954 25
L 954 25
L 954 25
L 955 25
L 955 25
L 955 25
L 955 25
L 955 25
L 955 25
L 955 24
L 955 24
L 955 24
L 955 24
L 955 24
L 955 24
L 955 24
L 955 24
L 955 24
L 955 24
L 955 24
L 955 24
L 955 24
L 955 24
L 955 24
L 955 24
L 955 24
L 956 24
L 956 24
L 956 24
L 956 24
L 956 24
L 956 24
L 956 24
L 956 23
L 956 23
L 956 23
L 956 23
L 956 23
L 956 23
L 956 23
L 956 23
L 956 23
L 956 23
L 956 23
L 956 23
L 956 23
L 956 23
L 956 23
L 956 23
L 956 23
L 956 23
L 956 23
L 956 23
L 956 23
L 956 23
L 956 23
L 957 23
L 957 22
L 957 22
L 957 22
L 957 22
L 957 22
L 957 22
L 957 22
L 957 22
L 957 22
L 957 22
L 957 22
L 957 22
L 957 22
L 957 22
L 957 22
L 957 22
L 957 22
L 957 22
L 957 22
L 957 22
L 957 22
L 957 22
L 957 22
L 957 21
L 957 21
L 957 21
L 957 21
L 957 21
L 957 21
L 957 21
L 957 21
L 957 21
L 957 21
L 957 21
L 957 21
L 957 21
L 957 21
L 957 21
L 957 21
L 957 21
L 957 21
L 957 21
L 957 21
L 957 21
L 957 21
L 957 21
L 957 21
L 957 20
L 957 20
L 957 20
L 957 20
L 957 20
L 957 20
L 957 20
L 957 20
L 957 20
L 957 20
L 957 20
L 957 20
L 957 20
L 957 20
L 957 20
L 957 20
L 957 20
L 957 20
L 957 20
L 957 20
L 957 20
L 957 20
L 957 20
L 957 20
L 957 19
L 957 19
L 957 19
L 957 19
L 957 19
L 957 19
L 957 19
L 957 19
L 957 19
L 957 19
L 957 19
L 957 19
L 957 19
L 957 19
L 957 19
L 957 19
L 957 19
L 957 19
L 957 19
L 957 19
L 957 19
L 957 19
L 957 19
L 957 19
L 957 18
L 957 18
L 957 18
L 957 18
L 957 18
L 957 18
L 957 18
L 957 18
L 957 18
L 957 18
L 957 18
L 957 18
L 957 18
L 957 18
L 957 18
L 957 18
L 957 18
L 957 18
L 957 18
L 957 18
L 957 18
L 957 18
L 957 18
L 957 18
L 957 17
L 957 17
L 957 17
L 957 17
L 957 17
L 957 17
L 957 17
L 957 17
L 957 17
L 957 17
L 957 17
L 957 17
L 957 17
L 957 17
L 957 17
L 957 17
L 957 17
L 957 17
L 957 17
L 957 17
L 957 17
L 957 17
L 957 17
L 957 17
L 957 16
L 957 16
L 957 16
L 957 16
L 957 16
L 957 16
L 957 16
L 957 16
L 957 16
L 957 16
L 957 16
L 957 16
L 957 16
L 957 16
L 957 16
L 957 16
L 957 16
L 957 16
L 957 16
L 957 16
L 957 16
L 957 16
L 957 16
L 957 15
L 957 15
L 957 15
L 957 15
L 957 15
L 957 15
L 957 15
L 957 15
L 957 15
L 957 15
L 957 15
L 957 15
L 957 15
L 957 15
L 957 15
L 957 15
L 957 15
L 957 15
L 957 15
L 957 15
L 957 15
L 957 15
L 957 15
L 957 15
L 957 14
L 957 14
L 957 14
L 957 14
L 957 14
L 957 14
L 957 14
L 957 14
L 957 14
L 957 14
L 957 14
L 957 14
L 957 14
L 957 14
L 957 14
L 957 14
L 957 14
L 957 14
L 957 14
L 957 14
L 957 14
L 957 14
L 957 14
L 957 14
L 957 13
L 957 13
L 957 13
L 957 13
L 957 13
L 957 13
L 957 13
L 957 13
L 957 13
L 957 13
L 957 13
L 957 13
L 957 13
L 957 13
L 957 13
L 957 13
L 957 13
L 957 13
L 957 13
L 957 13
L 957 13
L 957 13
L 957 13
L 957 13
L 957 12
L 957 12
L 957 12
L 957 12
L 957 12
L 957 12
L 957 12
L 957 12
L 957 12
L 957 12
L 957 12
L 957 12
L 957 12" style="stroke-width:2;stroke:rgba(129,199,239,1.0);fill:none"/></svg>