<!-- stars: 7743 -->
<svg xmlns="http://www.w3.org/2000/svg" xmlns:xlink="http://www.w3.org/1999/xlink" width="1024" height="400">\n<path  d="M 0 0
L 1024 0
L 1024 400
L 0 400
L 0 0" style="stroke-width:0;stroke:rgba(255,255,255,1.0);fill:rgba(255,255,255,1.0)"/><path  d="M 38 11
L 957 11
L 957 351
L 38 351
L 38 11" style="stroke-width:0;stroke:rgba(255,255,255,1.0);fill:rgba(255,255,255,1.0)"/><path  d="M 38 351
L 957 351" style="stroke-width:2;stroke:rgba(85,85,85,1.0);fill:none"/><path  d="M 38 351
L 38 356" style="stroke-width:2;stroke:rgba(85,85,85,1.0);fill:none"/><text x="5" y="373" style="stroke-width:0;stroke:none;fill:rgba(51,51,51,1.0);font-size:12.8px;font-family:'Roboto Medium',sans-serif">2018-09-25</text><path  d="M 153 351
L 153 356" style="stroke-width:2;stroke:rgba(85,85,85,1.0);fill:none"/><text x="120" y="373" style="stroke-width:0;stroke:none;fill:rgba(51,51,51,1.0);font-size:12.8px;font-family:'Roboto Medium',sans-serif">2019-02-17</text><path  d="M 268 351
L 268 356" style="stroke-width:2;stroke:rgba(85,85,85,1.0);fill:none"/><text x="235" y="373" style="stroke-width:0;stroke:none;fill:rgba(51,51,51,1.0);font-size:12.8px;font-family:'Roboto Medium',sans-serif">2019-07-13</text><path  d="M 383 351
L 383 356" style="stroke-width:2;stroke:rgba(85,85,85,1.0);fill:none"/><text x="350" y="373" style="stroke-width:0;stroke:none;fill:rgba(51,51,51,1.0);font-size:12.8px;font-family:'Roboto Medium',sans-serif">2019-12-05</text><path  d="M 498 351
L 498 356" style="stroke-width:2;stroke:rgba(85,85,85,1.0);fill:none"/><text x="465" y="373" style="stroke-width:0;stroke:none;fill:rgba(51,51,51,1.0);font-size:12.8px;font-family:'Roboto Medium',sans-serif">2020-04-29</text><path  d="M 613 351
L 613 356" style="stroke-width:2;stroke:rgba(85,85,85,1.0);fill:none"/><text x="580" y="373" style="stroke-width:0;stroke:none;fill:rgba(51,51,51,1.0);font-size:12.8px;font-family:'Roboto Medium',sans-serif">2020-09-21</text><path  d="M 728 351
L 728 356" style="stroke-width:2;stroke:rgba(85,85,85,1.0);fill:none"/><text x="695" y="373" style="stroke-width:0;stroke:none;fill:rgba(51,51,51,1.0);font-size:12.8px;font-family:'Roboto Medium',sans-serif">2021-02-14</text><path  d="M 843 351
L 843 356" style="stroke-width:2;stroke:rgba(85,85,85,1.0);fill:none"/><text x="810" y="373" style="stroke-width:0;stroke:none;fill:rgba(51,51,51,1.0);font-size:12.8px;font-family:'Roboto Medium',sans-serif">2021-07-09</text><path  d="M 957 351
L 957 356" style="stroke-width:2;stroke:rgba(85,85,85,1.0);fill:none"/><text x="924" y="373" style="stroke-width:0;stroke:none;fill:rgba(51,51,51,1.0);font-size:12.8px;font-family:'Roboto Medium',sans-serif">2021-12-02</text><text x="483" y="395" style="stroke-width:0;stroke:none;fill:rgba(51,51,51,1.0);font-size:12.8px;font-family:'Roboto Medium',sans-serif">Time</text><path  d="M 959 351
L 959 11" style="stroke-width:2;stroke:rgba(85,85,85,1.0);fill:none"/><path  d="M 959 351
L 964 351" style="stroke-width:2;stroke:rgba(85,85,85,1.0);fill:none"/><text x="969" y="357" style="stroke-width:0;stroke:none;fill:rgba(51,51,51,1.0);font-size:12.8px;font-family:'Roboto Medium',sans-serif">0</text><path  d="M 959 308
L 964 308" style="stroke-width:2;stroke:rgba(85,85,85,1.0);fill:none"/><text x="969" y="314" style="stroke-width:0;stroke:none;fill:rgba(51,51,51,1.0);font-size:12.8px;font-family:'Roboto Medium',sans-serif">980</text><path  d="M 959 266
L 964 266" style="stroke-width:2;stroke:rgba(85,85,85,1.0);fill:none"/><text x="969" y="272" style="stroke-width:0;stroke:none;fill:rgba(51,51,51,1.0);font-size:12.8px;font-family:'Roboto Medium',sans-serif">1950</text><path  d="M 959 223
L 964 223" style="stroke-width:2;stroke:rgba(85,85,85,1.0);fill:none"/><text x="969" y="229" style="stroke-width:0;stroke:none;fill:rgba(51,51,51,1.0);font-size:12.8px;font-family:'Roboto Medium',sans-serif">2930</text><path  d="M 959 181
L 964 181" style="stroke-width:2;stroke:rgba(85,85,85,1.0);fill:none"/><text x="969" y="187" style="stroke-width:0;stroke:none;fill:rgba(51,51,51,1.0);font-size:12.8px;font-family:'Roboto Medium',sans-serif">3900</text><path  d="M 959 138
L 964 138" style="stroke-width:2;stroke:rgba(85,85,85,1.0);fill:none"/><text x="969" y="144" style="stroke-width:0;stroke:none;fill:rgba(51,51,51,1.0);font-size:12.8px;font-family:'Roboto Medium',sans-serif">4880</text><path  d="M 959 96
L 964 96" style="stroke-width:2;stroke:rgba(85,85,85,1.0);fill:none"/><text x="969" y="102" style="stroke-width:0;stroke:none;fill:rgba(51,51,51,1.0);font-size:12.8px;font-family:'Roboto Medium',sans-serif">5850</text><path  d="M 959 53
L 964 53" style="stroke-width:2;stroke:rgba(85,85,85,1.0);fill:none"/><text x="969" y="59" style="stroke-width:0;stroke:none;fill:rgba(51,51,51,1.0);font-size:12.8px;font-family:'Roboto Medium',sans-serif">6830</text><path  d="M 959 11
L 964 11" style="stroke-width:2;stroke:rgba(85,85,85,1.0);fill:none"/><text x="969" y="17" style="stroke-width:0;stroke:none;fill:rgba(51,51,51,1.0);font-size:12.8px;font-family:'Roboto Medium',sans-serif">7800</text><text x="1009" y="150" style="stroke-width:0;stroke:none;fill:rgba(51,51,51,1.0);font-size:12.8px;font-family:'Roboto Medium',sans-serif" transform="rotate(90.00,1009,150)">Stargazers</text><path  d="M 38 351
L 40 350
L 50 350
L 51 350
L 51 350
L 51 350
L 51 350
L 54 350
L 55 350
L 55 350
L 57 350
L 57 350
L 58 350
L 58 350
L 58 350
L 58 350
L 61 350
L 67 350
L 67 350
L 69 350
L 70 350
L 70 350
L 72 350
L 73 349
L 74 349
L 74 349
L 79 349
L 83 349
L 88 349
L 88 349
L 94 349
L 94 349
L 94 349
L 94 349
L 95 349
L 95 349
L 95 349
L 95 349
L 95 349
L 95 349
L 96 349
L 97 349
L 99 349
L 99 349
L 99 349
L 100 349
L 100 348
L 100 348
L 101 348
L 102 348
L 103 348
L 104 348
L 104 348
L 106 348
L 107 348
L 108 348
L 108 348
L 110 348
L 110 348
L 111 348
L 111 348
L 111 348
L 111 348
L 112 348
L 112 348
L 112 348
L 112 348
L 113 348
L 113 348
L 113 347
L 113 347
L 113 347
L 114 347
L 115 347
L 115 347
L 115 347
L 116 347
L 117 347
L 117 347
L 118 347
L 118 347
L 121 347
L 121 347
L 121 347
L 121 347
L 121 347
L 121 347
L 122 347
L 122 347
L 123 347
L 123 347
L 124 347
L 124 346
L 126 346
L 127 346
L 127 346
L 127 346
L 128 346
L 128 346
L 130 346
L 132 346
L 133 346
L 134 346
L 134 346
L 134 346
L 135 346
L 142 346
L 145 346
L 149 346
L 149 346
L 151 346
L 151 346
L 151 346
L 152 346
L 152 346
L 154 345
L 155 345
L 155 345
L 155 345
L 155 345
L 155 345
L 156 345
L 156 345
L 156 345
L 157 345
L 159 345
L 159 345
L 162 345
L 162 345
L 165 345
L 165 345
L 166 345
L 167 345
L 167 345
L 167 345
L 168 345
L 168 345
L 169 345
L 170 344
L 170 344
L 172 344
L 173 344
L 174 344
L 175 344
L 176 344
L 177 344
L 177 344
L 177 344
L 178 344
L 179 344
L 179 344
L 182 344
L 183 344
L 183 344
L 183 344
L 184 344
L 185 344
L 185 344
L 185 344
L 185 344
L 186 344
L 186 343
L 187 343
L 187 343
L 187 343
L 188 343
L 188 343
L 188 343
L 188 343
L 188 343
L 188 343
L 188 343
L 188 343
L 188 343
L 189 343
L 189 343
L 189 343
L 189 343
L 189 343
L 189 343
L 190 343
L 192 343
L 192 343
L 193 343
L 193 342
L 193 342
L 194 342
L 194 342
L 194 342
L 195 342
L 195 342
L 195 342
L 195 342
L 196 342
L 197 342
L 199 342
L 199 342
L 199 342
L 201 342
L 201 342
L 204 342
L 204 342
L 205 342
L 205 342
L 205 342
L 205 342
L 205 342
L 206 341
L 206 341
L 208 341
L 208 341
L 208 341
L 209 341
L 209 341
L 209 341
L 210 341
L 210 341
L 211 341
L 211 341
L 212 341
L 213 341
L 213 341
L 214 341
L 215 341
L 215 341
L 217 341
L 217 341
L 218 341
L 218 341
L 218 341
L 219 340
L 219 340
L 222 340
L 223 340
L 226 340
L 227 340
L 228 340
L 230 340
L 231 340
L 231 340
L 231 340
L 233 340
L 237 340
L 237 340
L 238 340
L 238 340
L 238 340
L 239 340
L 239 340
L 239 340
L 240 340
L 240 340
L 246 340
L 248 339
L 249 339
L 249 339
L 249 339
L 249 339
L 249 339
L 249 339
L 250 339
L 250 339
L 250 339
L 251 339
L 251 339
L 253 339
L 254 339
L 254 339
L 256 339
L 256 339
L 257 339
L 257 339
L 258 339
L 259 339
L 259 339
L 260 339
L 260 338
L 260 338
L 260 338
L 260 338
L 261 338
L 261 338
L 261 338
L 261 338
L 261 338
L 262 338
L 262 338
L 262 338
L 263 338
L 263 338
L 263 338
L 264 338
L 264 338
L 265 338
L 267 338
L 268 338
L 268 338
L 269 338
L 270 338
L 270 337
L 271 337
L 271 337
L 273 337
L 274 337
L 275 337
L 276 337
L 279 337
L 279 337
L 280 337
L 282 337
L 282 337
L 282 337
L 283 337
L 287 337
L 291 337
L 291 337
L 293 337
L 294 337
L 296 337
L 297 337
L 300 337
L 302 337
L 302 336
L 303 336
L 303 336
L 306 336
L 311 336
L 311 336
L 311 336
L 312 336
L 312 336
L 323 336
L 323 336
L 324 336
L 324 336
L 324 336
L 324 336
L 324 336
L 324 336
L 324 336
L 325 336
L 325 336
L 325 336
L 325 336
L 326 336
L 327 335
L 330 335
L 330 335
L 331 335
L 336 335
L 338 335
L 339 335
L 339 335
L 340 335
L 340 335
L 341 335
L 343 335
L 343 335
L 343 335
L 343 335
L 344 335
L 344 335
L 345 335
L 347 335
L 348 335
L 348 335
L 349 335
L 353 335
L 364 334
L 365 334
L 369 334
L 371 334
L 372 334
L 373 334
L 376 334
L 376 334
L 376 334
L 376 334
L 376 334
L 377 334
L 377 334
L 381 334
L 381 334
L 384 334
L 385 334
L 389 334
L 389 334
L 389 334
L 395 334
L 397 334
L 397 334
L 399 333
L 399 333
L 399 333
L 399 333
L 399 333
L 400 333
L 400 333
L 400 333
L 400 333
L 401 333
L 402 333
L 403 333
L 407 333
L 408 333
L 410 333
L 413 333
L 413 333
L 414 333
L 414 333
L 414 333
L 415 333
L 417 333
L 419 332
L 419 332
L 424 332
L 424 332
L 425 332
L 426 332
L 427 332
L 429 332
L 431 332
L 433 332
L 437 332
L 439 332
L 439 332
L 440 332
L 443 332
L 449 332
L 451 332
L 453 332
L 455 332
L 455 332
L 455 332
L 456 332
L 457 332
L 457 331
L 458 331
L 459 331
L 459 331
L 460 331
L 460 331
L 460 331
L 460 331
L 462 331
L 462 331
L 463 331
L 463 331
L 464 331
L 465 331
L 465 331
L 465 331
L 465 331
L 465 331
L 465 331
L 466 331
L 466 331
L 466 331
L 466 331
L 466 330
L 466 330
L 468 330
L 468 330
L 470 330
L 470 330
L 471 330
L 471 330
L 471 330
L 471 330
L 472 330
L 473 330
L 473 330
L 473 330
L 473 330
L 474 330
L 474 330
L 474 330
L 475 330
L 475 330
L 475 330
L 477 330
L 478 330
L 479 329
L 480 329
L 480 329
L 480 329
L 480 329
L 481 329
L 481 329
L 481 329
L 482 329
L 482 329
L 482 329
L 482 329
L 482 329
L 482 329
L 482 329
L 482 329
L 482 329
L 482 329
L 483 329
L 483 329
L 483 329
L 483 329
L 483 329
L 483 328
L 484 328
L 485 328
L 485 328
L 485 328
L 485 328
L 485 328
L 486 328
L 486 328
L 488 328
L 488 328
L 489 328
L 489 328
L 489 328
L 489 328
L 491 328
L 491 328
L 491 328
L 491 328
L 491 328
L 491 328
L 491 328
L 491 328
L 491 327
L 491 327
L 491 327
L 491 327
L 491 327
L 491 327
L 491 327
L 491 327
L 491 327
L 491 327
L 491 327
L 491 327
L 492 327
L 492 327
L 492 327
L 492 327
L 492 327
L 492 327
L 492 327
L 492 327
L 492 327
L 492 327
L 493 327
L 493 326
L 493 326
L 493 326
L 493 326
L 494 326
L 494 326
L 494 326
L 494 326
L 494 326
L 495 326
L 495 326
L 496 326
L 496 326
L 496 326
L 497 326
L 497 326
L 497 326
L 497 326
L 497 326
L 498 326
L 498 326
L 498 326
L 498 326
L 498 325
L 499 325
L 500 325
L 500 325
L 501 325
L 501 325
L 502 325
L 503 325
L 504 325
L 504 325
L 504 325
L 504 325
L 504 325
L 504 325
L 504 325
L 505 325
L 505 325
L 505 325
L 506 325
L 507 325
L 507 325
L 507 325
L 508 325
L 508 324
L 509 324
L 509 324
L 509 324
L 510 324
L 510 324
L 510 324
L 510 324
L 511 324
L 511 324
L 511 324
L 511 324
L 511 324
L 512 324
L 512 324
L 512 324
L 513 324
L 514 324
L 514 324
L 515 324
L 515 324
L 515 324
L 516 324
L 516 323
L 517 323
L 518 323
L 518 323
L 518 323
L 518 323
L 519 323
L 519 323
L 519 323
L 519 323
L 520 323
L 521 323
L 521 323
L 521 323
L 521 323
L 521 323
L 521 323
L 522 323
L 522 323
L 522 323
L 522 323
L 522 323
L 522 323
L 523 322
L 523 322
L 523 322
L 523 322
L 525 322
L 525 322
L 525 322
L 525 322
L 526 322
L 526 322
L 526 322
L 527 322
L 528 322
L 528 322
L 528 322
L 528 322
L 528 322
L 528 322
L 528 322
L 528 322
L 528 322
L 528 322
L 528 322
L 528 321
L 528 321
L 529 321
L 529 321
L 529 321
L 529 321
L 529 321
L 529 321
L 529 321
L 529 321
L 530 321
L 530 321
L 530 321
L 530 321
L 530 321
L 531 321
L 532 321
L 533 321
L 533 321
L 533 321
L 533 321
L 534 321
L 534 321
L 534 320
L 535 320
L 535 320
L 535 320
L 535 320
L 535 320
L 535 320
L 535 320
L 535 320
L 535 320
L 536 320
L 536 320
L 536 320
L 536 320
L 536 320
L 536 320
L 536 320
L 536 320
L 536 320
L 536 320
L 537 320
L 537 320
L 537 320
L 537 319
L 537 319
L 537 319
L 538 319
L 538 319
L 538 319
L 538 319
L 538 319
L 539 319
L 539 319
L 539 319
L 539 319
L 539 319
L 539 319
L 539 319
L 540 319
L 540 319
L 541 319
L 541 319
L 541 319
L 541 319
L 542 319
L 542 319
L 543 318
L 544 318
L 544 318
L 545 318
L 545 318
L 545 318
L 545 318
L 545 318
L 546 318
L 546 318
L 546 318
L 546 318
L 546 318
L 546 318
L 546 318
L 547 318
L 548 318
L 548 318
L 548 318
L 548 318
L 548 318
L 549 318
L 549 318
L 549 317
L 549 317
L 549 317
L 549 317
L 549 317
L 550 317
L 550 317
L 551 317
L 551 317
L 552 317
L 552 317
L 552 317
L 552 317
L 552 317
L 553 317
L 554 317
L 554 317
L 554 317
L 555 317
L 555 317
L 555 317
L 556 317
L 556 317
L 557 316
L 558 316
L 558 316
L 558 316
L 559 316
L 559 316
L 559 316
L 559 316
L 559 316
L 560 316
L 560 316
L 560 316
L 560 316
L 560 316
L 561 316
L 561 316
L 561 316
L 561 316
L 562 316
L 562 316
L 562 316
L 562 316
L 563 315
L 563 315
L 563 315
L 563 315
L 563 315
L 563 315
L 563 315
L 564 315
L 564 315
L 564 315
L 564 315
L 565 315
L 565 315
L 566 315
L 566 315
L 566 315
L 567 315
L 567 315
L 567 315
L 567 315
L 568 315
L 568 315
L 568 315
L 568 314
L 568 314
L 568 314
L 569 314
L 569 314
L 569 314
L 569 314
L 569 314
L 570 314
L 570 314
L 570 314
L 570 314
L 570 314
L 570 314
L 570 314
L 570 314
L 571 314
L 571 314
L 571 314
L 571 314
L 571 314
L 571 314
L 571 314
L 571 313
L 572 313
L 572 313
L 572 313
L 573 313
L 573 313
L 574 313
L 574 313
L 574 313
L 574 313
L 574 313
L 575 313
L 575 313
L 575 313
L 576 313
L 576 313
L 576 313
L 576 313
L 576 313
L 576 313
L 577 313
L 577 313
L 577 313
L 578 312
L 578 312
L 579 312
L 579 312
L 579 312
L 579 312
L 579 312
L 580 312
L 580 312
L 580 312
L 580 312
L 580 312
L 581 312
L 581 312
L 581 312
L 581 312
L 582 312
L 582 312
L 582 312
L 582 312
L 582 312
L 582 312
L 583 312
L 584 311
L 584 311
L 585 311
L 585 311
L 585 311
L 585 311
L 585 311
L 585 311
L 585 311
L 586 311
L 586 311
L 587 311
L 587 311
L 587 311
L 587 311
L 587 311
L 587 311
L 588 311
L 588 311
L 588 311
L 589 311
L 589 311
L 590 311
L 590 310
L 591 310
L 591 310
L 592 310
L 593 310
L 593 310
L 595 310
L 595 310
L 596 310
L 596 310
L 596 310
L 597 310
L 597 310
L 597 310
L 598 310
L 598 310
L 599 310
L 599 310
L 599 310
L 600 310
L 600 310
L 600 310
L 600 310
L 601 309
L 601 309
L 601 309
L 602 309
L 602 309
L 602 309
L 602 309
L 603 309
L 604 309
L 604 309
L 604 309
L 604 309
L 604 309
L 604 309
L 604 309
L 604 309
L 604 309
L 604 309
L 605 309
L 605 309
L 605 309
L 605 309
L 606 309
L 606 308
L 606 308
L 606 308
L 606 308
L 607 308
L 608 308
L 608 308
L 608 308
L 609 308
L 609 308
L 609 308
L 611 308
L 611 308
L 612 308
L 613 308
L 613 308
L 613 308
L 613 308
L 614 308
L 614 308
L 614 308
L 614 308
L 615 308
L 617 307
L 617 307
L 617 307
L 617 307
L 618 307
L 618 307
L 618 307
L 618 307
L 619 307
L 619 307
L 619 307
L 619 307
L 619 307
L 620 307
L 620 307
L 620 307
L 620 307
L 621 307
L 623 307
L 624 307
L 624 307
L 626 307
L 626 307
L 626 306
L 627 306
L 627 306
L 627 306
L 628 306
L 628 306
L 629 306
L 629 306
L 629 306
L 629 306
L 629 306
L 629 306
L 629 306
L 630 306
L 630 306
L 630 306
L 630 306
L 630 306
L 630 306
L 630 306
L 630 306
L 631 306
L 631 306
L 631 305
L 631 305
L 631 305
L 632 305
L 632 305
L 632 305
L 632 305
L 632 305
L 632 305
L 632 305
L 632 305
L 633 305
L 633 305
L 634 305
L 634 305
L 634 305
L 635 305
L 635 305
L 635 305
L 636 305
L 636 305
L 636 305
L 636 305
L 637 304
L 637 304
L 637 304
L 638 304
L 638 304
L 638 304
L 638 304
L 638 304
L 638 304
L 640 304
L 640 304
L 640 304
L 641 304
L 641 304
L 641 304
L 641 304
L 641 304
L 641 304
L 641 304
L 641 304
L 641 304
L 641 304
L 641 304
L 641 303
L 642 303
L 642 303
L 642 303
L 642 303
L 642 303
L 642 303
L 642 303
L 642 303
L 642 303
L 642 303
L 642 303
L 642 303
L 642 303
L 642 303
L 642 303
L 642 303
L 643 303
L 643 303
L 643 303
L 643 303
L 643 303
L 643 303
L 643 302
L 643 302
L 643 302
L 644 302
L 644 302
L 644 302
L 644 302
L 645 302
L 645 302
L 645 302
L 645 302
L 645 302
L 646 302
L 646 302
L 646 302
L 646 302
L 646 302
L 646 302
L 646 302
L 646 302
L 647 302
L 647 302
L 647 302
L 647 301
L 647 301
L 647 301
L 647 301
L 647 301
L 647 301
L 647 301
L 648 301
L 648 301
L 648 301
L 648 301
L 649 301
L 649 301
L 649 301
L 650 301
L 650 301
L 650 301
L 651 301
L 651 301
L 651 301
L 651 301
L 651 301
L 651 301
L 651 300
L 651 300
L 652 300
L 652 300
L 652 300
L 653 300
L 653 300
L 653 300
L 653 300
L 653 300
L 653 300
L 653 300
L 654 300
L 654 300
L 654 300
L 654 300
L 655 300
L 655 300
L 655 300
L 655 300
L 656 300
L 656 300
L 656 300
L 657 299
L 657 299
L 657 299
L 657 299
L 657 299
L 658 299
L 658 299
L 658 299
L 658 299
L 658 299
L 658 299
L 658 299
L 659 299
L 659 299
L 659 299
L 659 299
L 659 299
L 660 299
L 660 299
L 660 299
L 661 299
L 661 299
L 661 298
L 661 298
L 661 298
L 661 298
L 662 298
L 662 298
L 662 298
L 662 298
L 662 298
L 662 298
L 663 298
L 663 298
L 664 298
L 664 298
L 664 298
L 665 298
L 665 298
L 665 298
L 665 298
L 665 298
L 665 298
L 665 298
L 665 298
L 666 297
L 667 297
L 667 297
L 667 297
L 668 297
L 668 297
L 668 297
L 668 297
L 668 297
L 668 297
L 669 297
L 669 297
L 669 297
L 669 297
L 669 297
L 669 297
L 669 297
L 669 297
L 669 297
L 669 297
L 670 297
L 670 297
L 670 297
L 670 296
L 670 296
L 670 296
L 672 296
L 673 296
L 673 296
L 673 296
L 673 296
L 674 296
L 674 296
L 674 296
L 674 296
L 674 296
L 674 296
L 675 296
L 675 296
L 675 296
L 675 296
L 675 296
L 675 296
L 675 296
L 676 296
L 676 296
L 676 295
L 676 295
L 676 295
L 676 295
L 676 295
L 678 295
L 678 295
L 678 295
L 678 295
L 678 295
L 679 295
L 679 295
L 679 295
L 679 295
L 679 295
L 680 295
L 680 295
L 680 295
L 680 295
L 680 295
L 681 295
L 681 295
L 681 295
L 682 294
L 682 294
L 682 294
L 682 294
L 684 294
L 684 294
L 684 294
L 684 294
L 684 294
L 684 294
L 684 294
L 684 294
L 685 294
L 685 294
L 685 294
L 685 294
L 685 294
L 685 294
L 685 294
L 685 294
L 685 294
L 685 294
L 686 294
L 686 293
L 686 293
L 686 293
L 686 293
L 686 293
L 686 293
L 686 293
L 687 293
L 687 293
L 687 293
L 687 293
L 687 293
L 687 293
L 687 293
L 687 293
L 687 293
L 688 293
L 688 293
L 688 293
L 689 293
L 689 293
L 689 293
L 689 293
L 690 292
L 690 292
L 690 292
L 690 292
L 690 292
L 690 292
L 690 292
L 690 292
L 691 292
L 691 292
L 691 292
L 691 292
L 691 292
L 691 292
L 692 292
L 692 292
L 692 292
L 692 292
L 692 292
L 693 292
L 694 292
L 694 292
L 695 292
L 695 291
L 695 291
L 695 291
L 695 291
L 695 291
L 695 291
L 696 291
L 696 291
L 696 291
L 696 291
L 696 291
L 697 291
L 697 291
L 697 291
L 697 291
L 697 291
L 697 291
L 697 291
L 697 291
L 697 291
L 697 291
L 697 291
L 697 291
L 698 290
L 698 290
L 698 290
L 698 290
L 699 290
L 699 290
L 699 290
L 699 290
L 699 290
L 700 290
L 701 290
L 701 290
L 701 290
L 701 290
L 701 290
L 701 290
L 702 290
L 702 290
L 702 290
L 702 290
L 702 290
L 702 290
L 702 290
L 702 289
L 703 289
L 703 289
L 703 289
L 703 289
L 703 289
L 704 289
L 704 289
L 704 289
L 704 289
L 705 289
L 705 289
L 705 289
L 705 289
L 706 289
L 706 289
L 706 289
L 706 289
L 707 289
L 707 289
L 707 289
L 707 289
L 707 289
L 707 288
L 708 288
L 708 288
L 709 288
L 709 288
L 709 288
L 709 288
L 709 288
L 709 288
L 709 288
L 709 288
L 710 288
L 710 288
L 710 288
L 710 288
L 710 288
L 710 288
L 710 288
L 711 288
L 711 288
L 711 288
L 711 288
L 711 288
L 711 287
L 712 287
L 712 287
L 712 287
L 712 287
L 712 287
L 712 287
L 712 287
L 713 287
L 713 287
L 713 287
L 713 287
L 713 287
L 713 287
L 713 287
L 713 287
L 714 287
L 714 287
L 714 287
L 714 287
L 714 287
L 715 287
L 716 287
L 716 286
L 716 286
L 716 286
L 716 286
L 717 286
L 717 286
L 717 286
L 717 286
L 717 286
L 717 286
L 717 286
L 718 286
L 718 286
L 718 286
L 718 286
L 719 286
L 719 286
L 719 286
L 719 286
L 720 286
L 720 286
L 720 286
L 720 286
L 720 285
L 720 285
L 720 285
L 720 285
L 721 285
L 721 285
L 721 285
L 721 285
L 721 285
L 721 285
L 721 285
L 721 285
L 722 285
L 722 285
L 722 285
L 722 285
L 722 285
L 722 285
L 722 285
L 723 285
L 723 285
L 724 285
L 724 285
L 724 284
L 724 284
L 725 284
L 725 284
L 727 284
L 727 284
L 727 284
L 727 284
L 727 284
L 727 284
L 728 284
L 728 284
L 729 284
L 729 284
L 729 284
L 730 284
L 730 284
L 730 284
L 731 284
L 731 284
L 731 284
L 731 284
L 731 284
L 731 283
L 731 283
L 731 283
L 731 283
L 732 283
L 732 283
L 732 283
L 732 283
L 732 283
L 732 283
L 732 283
L 732 283
L 732 283
L 732 283
L 732 283
L 732 283
L 733 283
L 733 283
L 733 283
L 733 283
L 734 283
L 734 283
L 734 283
L 734 282
L 734 282
L 735 282
L 735 282
L 735 282
L 735 282
L 735 282
L 735 282
L 735 282
L 735 282
L 735 282
L 735 282
L 735 282
L 735 282
L 736 282
L 736 282
L 736 282
L 736 282
L 736 282
L 736 282
L 736 282
L 736 282
L 737 281
L 737 281
L 737 281
L 737 281
L 737 281
L 737 281
L 737 281
L 737 281
L 737 281
L 737 281
L 738 281
L 739 281
L 739 281
L 739 281
L 739 281
L 739 281
L 739 281
L 739 281
L 740 281
L 740 281
L 740 281
L 740 281
L 740 281
L 740 280
L 740 280
L 740 280
L 740 280
L 740 280
L 740 280
L 740 280
L 740 280
L 740 280
L 741 280
L 741 280
L 741 280
L 741 280
L 741 280
L 741 280
L 741 280
L 741 280
L 741 280
L 741 280
L 742 280
L 742 280
L 742 280
L 742 280
L 742 279
L 742 279
L 742 279
L 742 279
L 743 279
L 743 279
L 743 279
L 743 279
L 744 279
L 744 279
L 744 279
L 744 279
L 744 279
L 744 279
L 745 279
L 745 279
L 745 279
L 745 279
L 745 279
L 745 279
L 745 279
L 745 279
L 745 279
L 745 278
L 746 278
L 746 278
L 746 278
L 746 278
L 746 278
L 746 278
L 746 278
L 746 278
L 747 278
L 747 278
L 747 278
L 747 278
L 747 278
L 747 278
L 747 278
L 748 278
L 748 278
L 748 278
L 748 278
L 748 278
L 748 278
L 748 278
L 748 277
L 748 277
L 748 277
L 748 277
L 748 277
L 749 277
L 749 277
L 749 277
L 749 277
L 750 277
L 750 277
L 750 277
L 750 277
L 750 277
L 750 277
L 750 277
L 750 277
L 750 277
L 750 277
L 750 277
L 750 277
L 750 277
L 750 277
L 750 276
L 750 276
L 750 276
L 750 276
L 750 276
L 750 276
L 750 276
L 750 276
L 750 276
L 750 276
L 750 276
L 750 276
L 750 276
L 750 276
L 750 276
L 750 276
L 750 276
L 750 276
L 750 276
L 750 276
L 750 276
L 750 276
L 750 276
L 750 275
L 750 275
L 750 275
L 750 275
L 750 275
L 750 275
L 750 275
L 750 275
L 750 275
L 750 275
L 750 275
L 750 275
L 750 275
L 750 275
L 750 275
L 750 275
L 750 275
L 750 275
L 750 275
L 750 275
L 750 275
L 750 275
L 750 275
L 750 274
L 750 274
L 750 274
L 750 274
L 750 274
L 750 274
L 750 274
L 750 274
L 750 274
L 750 274
L 750 274
L 750 274
L 750 274
L 750 274
L 750 274
L 750 274
L 750 274
L 750 274
L 750 274
L 750 274
L 750 274
L 750 274
L 750 274
L 750 273
L 750 273
L 750 273
L 750 273
L 750 273
L 750 273
L 750 273
L 750 273
L 750 273
L 751 273
L 751 273
L 751 273
L 751 273
L 751 273
L 751 273
L 751 273
L 751 273
L 751 273
L 751 273
L 751 273
L 751 273
L 751 273
L 751 273
L 751 272
L 751 272
L 751 272
L 751 272
L 751 272
L 751 272
L 751 272
L 751 272
L 751 272
L 751 272
L 751 272
L 751 272
L 751 272
L 751 272
L 751 272
L 751 272
L 751 272
L 751 272
L 751 272
L 751 272
L 751 272
L 751 272
L 751 272
L 751 271
L 751 271
L 751 271
L 751 271
L 751 271
L 751 271
L 751 271
L 751 271
L 751 271
L 752 271
L 752 271
L 752 271
L 752 271
L 752 271
L 752 271
L 752 271
L 752 271
L 752 271
L 752 271
L 752 271
L 752 271
L 752 271
L 752 271
L 752 270
L 752 270
L 752 270
L 752 270
L 752 270
L 752 270
L 752 270
L 752 270
L 752 270
L 752 270
L 752 270
L 752 270
L 752 270
L 752 270
L 752 270
L 752 270
L 752 270
L 752 270
L 752 270
L 752 270
L 752 270
L 752 270
L 752 270
L 752 269
L 752 269
L 752 269
L 752 269
L 752 269
L 752 269
L 752 269
L 752 269
L 752 269
L 752 269
L 752 269
L 752 269
L 752 269
L 752 269
L 752 269
L 752 269
L 752 269
L 752 269
L 752 269
L 752 269
L 752 269
L 752 269
L 752 269
L 752 268
L 752 268
L 752 268
L 752 268
L 752 268
L 752 268
L 752 268
L 752 268
L 752 268
L 752 268
L 752 268
L 752 268
L 752 268
L 752 268
L 752 268
L 752 268
L 752 268
L 752 268
L 752 268
L 752 268
L 752 268
L 752 268
L 752 268
L 752 267
L 752 267
L 752 267
L 752 267
L 752 267
L 752 267
L 752 267
L 752 267
L 752 267
L 752 267
L 752 267
L 752 267
L 752 267
L 752 267
L 752 267
L 752 267
L 752 267
L 752 267
L 752 267
L 752 267
L 752 267
L 753 267
L 753 267
L 753 266
L 753 266
L 753 266
L 753 266
L 753 266
L 753 266
L 753 266
L 753 266
L 753 266
L 753 266
L 753 266
L 753 266
L 753 266
L 753 266
L 753 266
L 753 266
L 753 266
L 753 266
L 753 266
L 753 266
L 753 266
L 753 266
L 753 266
L 753 265
L 753 265
L 753 265
L 753 265
L 753 265
L 753 265
L 753 265
L 753 265
L 753 265
L 753 265
L 753 265
L 753 265
L 753 265
L 753 265
L 753 265
L 754 265
L 754 265
L 754 265
L 754 265
L 754 265
L 754 265
L 754 265
L 754 264
L 754 264
L 754 264
L 754 264
L 754 264
L 754 264
L 754 264
L 754 264
L 754 264
L 754 264
L 754 264
L 754 264
L 754 264
L 754 264
L 754 264
L 754 264
L 754 264
L 754 264
L 754 264
L 754 264
L 754 264
L 754 264
L 754 264
L 754 263
L 754 263
L 754 263
L 754 263
L 754 263
L 754 263
L 754 263
L 754 263
L 754 263
L 754 263
L 754 263
L 754 263
L 754 263
L 754 263
L 755 263
L 755 263
L 755 263
L 755 263
L 755 263
L 755 263
L 755 263
L 755 263
L 755 263
L 755 262
L 755 262
L 755 262
L 755 262
L 755 262
L 755 262
L 756 262
L 756 262
L 756 262
L 756 262
L 756 262
L 756 262
L 756 262
L 756 262
L 756 262
L 757 262
L 757 262
L 757 262
L 757 262
L 757 262
L 757 262
L 757 262
L 757 262
L 757 261
L 757 261
L 757 261
L 758 261
L 758 261
L 758 261
L 758 261
L 758 261
L 758 261
L 758 261
L 758 261
L 758 261
L 758 261
L 758 261
L 758 261
L 758 261
L 758 261
L 758 261
L 758 261
L 758 261
L 758 261
L 759 261
L 759 261
L 759 260
L 759 260
L 759 260
L 759 260
L 759 260
L 759 260
L 759 260
L 759 260
L 759 260
L 759 260
L 760 260
L 760 260
L 760 260
L 760 260
L 760 260
L 760 260
L 761 260
L 761 260
L 761 260
L 761 260
L 761 260
L 761 260
L 761 260
L 761 259
L 761 259
L 761 259
L 761 259
L 762 259
L 762 259
L 762 259
L 762 259
L 762 259
L 762 259
L 762 259
L 762 259
L 762 259
L 762 259
L 762 259
L 762 259
L 762 259
L 762 259
L 762 259
L 762 259
L 762 259
L 762 259
L 762 259
L 762 258
L 762 258
L 762 258
L 762 258
L 762 258
L 762 258
L 762 258
L 762 258
L 762 258
L 762 258
L 762 258
L 762 258
L 762 258
L 762 258
L 762 258
L 762 258
L 762 258
L 762 258
L 762 258
L 762 258
L 762 258
L 762 258
L 762 258
L 762 257
L 762 257
L 762 257
L 762 257
L 762 257
L 763 257
L 763 257
L 763 257
L 763 257
L 763 257
L 763 257
L 763 257
L 763 257
L 763 257
L 763 257
L 763 257
L 763 257
L 763 257
L 763 257
L 763 257
L 763 257
L 763 257
L 763 257
L 763 256
L 763 256
L 763 256
L 763 256
L 763 256
L 763 256
L 763 256
L 763 256
L 763 256
L 763 256
L 763 256
L 763 256
L 763 256
L 763 256
L 763 256
L 764 256
L 764 256
L 764 256
L 764 256
L 764 256
L 764 256
L 764 256
L 764 256
L 764 255
L 764 255
L 764 255
L 764 255
L 764 255
L 764 255
L 764 255
L 764 255
L 764 255
L 764 255
L 764 255
L 764 255
L 764 255
L 764 255
L 764 255
L 764 255
L 764 255
L 764 255
L 764 255
L 764 255
L 764 255
L 764 255
L 764 255
L 764 254
L 764 254
L 764 254
L 764 254
L 764 254
L 764 254
L 764 254
L 764 254
L 764 254
L 764 254
L 764 254
L 764 254
L 764 254
L 764 254
L 764 254
L 764 254
L 764 254
L 764 254
L 764 254
L 764 254
L 764 254
L 764 254
L 764 254
L 764 253
L 764 253
L 764 253
L 764 253
L 764 253
L 764 253
L 764 253
L 764 253
L 764 253
L 764 253
L 764 253
L 764 253
L 764 253
L 764 253
L 764 253
L 764 253
L 764 253
L 764 253
L 764 253
L 764 253
L 764 253
L 764 253
L 764 253
L 764 252
L 764 252
L 764 252
L 764 252
L 764 252
L 764 252
L 764 252
L 764 252
L 764 252
L 764 252
L 764 252
L 764 252
L 765 252
L 765 252
L 765 252
L 765 252
L 765 252
L 765 252
L 765 252
L 765 252
L 765 252
L 765 252
L 765 252
L 765 251
L 765 251
L 765 251
L 765 251
L 765 251
L 765 251
L 765 251
L 765 251
L 765 251
L 765 251
L 765 251
L 765 251
L 765 251
L 765 251
L 765 251
L 765 251
L 765 251
L 765 251
L 765 251
L 765 251
L 765 251
L 765 251
L 765 251
L 765 250
L 765 250
L 765 250
L 765 250
L 765 250
L 765 250
L 765 250
L 765 250
L 765 250
L 766 250
L 766 250
L 766 250
L 766 250
L 766 250
L 766 250
L 766 250
L 766 250
L 766 250
L 766 250
L 766 250
L 766 250
L 766 250
L 766 250
L 766 249
L 766 249
L 766 249
L 766 249
L 766 249
L 766 249
L 766 249
L 766 249
L 766 249
L 766 249
L 766 249
L 766 249
L 766 249
L 766 249
L 766 249
L 766 249
L 767 249
L 767 249
L 767 249
L 767 249
L 767 249
L 767 249
L 767 249
L 767 248
L 767 248
L 767 248
L 767 248
L 767 248
L 767 248
L 767 248
L 767 248
L 767 248
L 767 248
L 767 248
L 767 248
L 767 248
L 767 248
L 767 248
L 767 248
L 767 248
L 767 248
L 767 248
L 767 248
L 767 248
L 767 248
L 768 247
L 768 247
L 768 247
L 768 247
L 768 247
L 768 247
L 768 247
L 768 247
L 768 247
L 768 247
L 768 247
L 768 247
L 768 247
L 768 247
L 768 247
L 768 247
L 768 247
L 768 247
L 768 247
L 768 247
L 768 247
L 768 247
L 769 247
L 769 246
L 769 246
L 769 246
L 769 246
L 769 246
L 769 246
L 769 246
L 769 246
L 769 246
L 769 246
L 769 246
L 769 246
L 769 246
L 769 246
L 769 246
L 769 246
L 769 246
L 769 246
L 769 246
L 769 246
L 769 246
L 769 246
L 769 246
L 770 245
L 770 245
L 770 245
L 770 245
L 770 245
L 770 245
L 770 245
L 770 245
L 770 245
L 770 245
L 770 245
L 770 245
L 770 245
L 771 245
L 771 245
L 771 245
L 771 245
L 771 245
L 771 245
L 771 245
L 771 245
L 771 245
L 771 245
L 771 244
L 771 244
L 771 244
L 772 244
L 772 244
L 772 244
L 772 244
L 772 244
L 772 244
L 772 244
L 772 244
L 773 244
L 773 244
L 773 244
L 773 244
L 773 244
L 773 244
L 773 244
L 773 244
L 773 244
L 773 244
L 773 244
L 774 244
L 774 243
L 774 243
L 774 243
L 774 243
L 774 243
L 774 243
L 774 243
L 774 243
L 774 243
L 774 243
L 774 243
L 774 243
L 774 243
L 774 243
L 774 243
L 774 243
L 774 243
L 774 243
L 774 243
L 774 243
L 775 243
L 775 243
L 775 243
L 775 242
L 775 242
L 775 242
L 775 242
L 775 242
L 775 242
L 775 242
L 775 242
L 775 242
L 776 242
L 776 242
L 776 242
L 776 242
L 776 242
L 776 242
L 776 242
L 776 242
L 776 242
L 777 242
L 777 242
L 777 242
L 777 242
L 777 242
L 777 241
L 777 241
L 777 241
L 777 241
L 777 241
L 777 241
L 777 241
L 777 241
L 777 241
L 777 241
L 777 241
L 777 241
L 777 241
L 778 241
L 778 241
L 778 241
L 778 241
L 778 241
L 778 241
L 778 241
L 778 241
L 778 241
L 778 241
L 778 240
L 778 240
L 778 240
L 778 240
L 778 240
L 778 240
L 778 240
L 778 240
L 778 240
L 778 240
L 779 240
L 779 240
L 779 240
L 779 240
L 779 240
L 779 240
L 779 240
L 779 240
L 779 240
L 779 240
L 779 240
L 779 240
L 779 240
L 779 239
L 779 239
L 779 239
L 779 239
L 779 239
L 779 239
L 780 239
L 780 239
L 780 239
L 780 239
L 780 239
L 780 239
L 780 239
L 780 239
L 780 239
L 781 239
L 781 239
L 781 239
L 781 239
L 781 239
L 781 239
L 781 239
L 781 239
L 781 238
L 781 238
L 782 238
L 782 238
L 782 238
L 782 238
L 782 238
L 782 238
L 782 238
L 782 238
L 782 238
L 782 238
L 782 238
L 782 238
L 782 238
L 782 238
L 782 238
L 782 238
L 782 238
L 782 238
L 782 238
L 782 238
L 782 238
L 782 237
L 782 237
L 782 237
L 782 237
L 782 237
L 782 237
L 782 237
L 782 237
L 782 237
L 782 237
L 782 237
L 782 237
L 782 237
L 783 237
L 783 237
L 783 237
L 783 237
L 783 237
L 783 237
L 783 237
L 783 237
L 783 237
L 783 237
L 783 236
L 783 236
L 783 236
L 783 236
L 783 236
L 783 236
L 783 236
L 783 236
L 783 236
L 783 236
L 783 236
L 783 236
L 783 236
L 783 236
L 783 236
L 783 236
L 784 236
L 784 236
L 784 236
L 784 236
L 784 236
L 784 236
L 784 236
L 784 235
L 784 235
L 784 235
L 784 235
L 784 235
L 784 235
L 784 235
L 784 235
L 784 235
L 784 235
L 784 235
L 784 235
L 784 235
L 784 235
L 784 235
L 784 235
L 784 235
L 784 235
L 784 235
L 784 235
L 784 235
L 784 235
L 784 235
L 784 234
L 784 234
L 784 234
L 784 234
L 784 234
L 784 234
L 784 234
L 784 234
L 784 234
L 784 234
L 784 234
L 784 234
L 784 234
L 784 234
L 784 234
L 784 234
L 784 234
L 784 234
L 784 234
L 784 234
L 784 234
L 784 234
L 784 234
L 784 233
L 784 233
L 784 233
L 784 233
L 784 233
L 784 233
L 784 233
L 784 233
L 784 233
L 784 233
L 784 233
L 784 233
L 784 233
L 784 233
L 784 233
L 784 233
L 784 233
L 784 233
L 784 233
L 784 233
L 784 233
L 784 233
L 784 233
L 784 232
L 784 232
L 784 232
L 784 232
L 784 232
L 784 232
L 784 232
L 784 232
L 785 232
L 785 232
L 785 232
L 785 232
L 785 232
L 785 232
L 785 232
L 785 232
L 785 232
L 785 232
L 785 232
L 785 232
L 785 232
L 785 232
L 785 232
L 785 231
L 785 231
L 785 231
L 785 231
L 785 231
L 785 231
L 785 231
L 785 231
L 785 231
L 785 231
L 785 231
L 785 231
L 785 231
L 785 231
L 785 231
L 785 231
L 785 231
L 785 231
L 785 231
L 785 231
L 785 231
L 785 231
L 785 230
L 785 230
L 785 230
L 785 230
L 785 230
L 785 230
L 785 230
L 785 230
L 785 230
L 785 230
L 785 230
L 785 230
L 785 230
L 785 230
L 785 230
L 785 230
L 785 230
L 785 230
L 785 230
L 785 230
L 785 230
L 785 230
L 785 230
L 785 229
L 785 229
L 785 229
L 785 229
L 785 229
L 785 229
L 785 229
L 785 229
L 785 229
L 785 229
L 785 229
L 785 229
L 785 229
L 785 229
L 785 229
L 785 229
L 785 229
L 785 229
L 785 229
L 785 229
L 785 229
L 785 229
L 785 229
L 785 228
L 785 228
L 785 228
L 785 228
L 785 228
L 785 228
L 785 228
L 785 228
L 785 228
L 785 228
L 785 228
L 785 228
L 785 228
L 785 228
L 785 228
L 785 228
L 785 228
L 785 228
L 785 228
L 785 228
L 785 228
L 785 228
L 785 228
L 785 227
L 785 227
L 785 227
L 785 227
L 785 227
L 786 227
L 786 227
L 786 227
L 786 227
L 786 227
L 786 227
L 786 227
L 786 227
L 786 227
L 786 227
L 786 227
L 786 227
L 786 227
L 786 227
L 786 227
L 786 227
L 786 227
L 786 227
L 786 226
L 786 226
L 786 226
L 786 226
L 786 226
L 786 226
L 786 226
L 786 226
L 786 226
L 786 226
L 786 226
L 786 226
L 786 226
L 786 226
L 786 226
L 786 226
L 786 226
L 786 226
L 786 226
L 786 226
L 786 226
L 786 226
L 786 226
L 786 225
L 786 225
L 786 225
L 786 225
L 786 225
L 786 225
L 786 225
L 786 225
L 786 225
L 786 225
L 786 225
L 786 225
L 786 225
L 786 225
L 786 225
L 786 225
L 786 225
L 786 225
L 786 225
L 786 225
L 786 225
L 786 225
L 786 225
L 786 224
L 786 224
L 786 224
L 786 224
L 786 224
L 786 224
L 786 224
L 786 224
L 786 224
L 786 224
L 786 224
L 786 224
L 786 224
L 786 224
L 786 224
L 786 224
L 786 224
L 786 224
L 786 224
L 786 224
L 786 224
L 786 224
L 786 224
L 786 223
L 786 223
L 786 223
L 786 223
L 786 223
L 786 223
L 786 223
L 786 223
L 786 223
L 786 223
L 786 223
L 786 223
L 786 223
L 786 223
L 786 223
L 786 223
L 786 223
L 786 223
L 786 223
L 786 223
L 786 223
L 786 223
L 786 223
L 786 222
L 786 222
L 786 222
L 786 222
L 786 222
L 786 222
L 786 222
L 786 222
L 786 222
L 786 222
L 786 222
L 786 222
L 786 222
L 786 222
L 786 222
L 786 222
L 786 222
L 786 222
L 786 222
L 786 222
L 786 222
L 786 222
L 786 222
L 786 221
L 786 221
L 786 221
L 786 221
L 786 221
L 786 221
L 786 221
L 786 221
L 786 221
L 786 221
L 786 221
L 786 221
L 786 221
L 786 221
L 786 221
L 786 221
L 786 221
L 786 221
L 786 221
L 786 221
L 786 221
L 786 221
L 786 221
L 786 220
L 786 220
L 786 220
L 786 220
L 786 220
L 786 220
L 786 220
L 786 220
L 786 220
L 786 220
L 786 220
L 786 220
L 786 220
L 786 220
L 786 220
L 786 220
L 786 220
L 786 220
L 786 220
L 786 220
L 786 220
L 786 220
L 786 220
L 786 219
L 786 219
L 786 219
L 786 219
L 786 219
L 786 219
L 786 219
L 786 219
L 786 219
L 786 219
L 786 219
L 786 219
L 786 219
L 786 219
L 786 219
L 786 219
L 786 219
L 786 219
L 786 219
L 786 219
L 786 219
L 786 219
L 786 219
L 786 218
L 786 218
L 786 218
L 786 218
L 786 218
L 786 218
L 786 218
L 786 218
L 786 218
L 786 218
L 786 218
L 786 218
L 786 218
L 786 218
L 786 218
L 786 218
L 786 218
L 786 218
L 786 218
L 786 218
L 786 218
L 786 218
L 786 218
L 786 217
L 786 217
L 786 217
L 786 217
L 786 217
L 786 217
L 786 217
L 786 217
L 786 217
L 786 217
L 786 217
L 786 217
L 786 217
L 786 217
L 786 217
L 786 217
L 786 217
L 786 217
L 786 217
L 786 217
L 786 217
L 786 217
L 786 217
L 786 216
L 786 216
L 786 216
L 786 216
L 786 216
L 786 216
L 786 216
L 786 216
L 786 216
L 786 216
L 786 216
L 786 216
L 786 216
L 786 216
L 786 216
L 786 216
L 786 216
L 786 216
L 786 216
L 786 216
L 786 216
L 786 216
L 786 216
L 786 215
L 786 215
L 786 215
L 786 215
L 786 215
L 786 215
L 786 215
L 786 215
L 786 215
L 786 215
L 786 215
L 786 215
L 786 215
L 786 215
L 786 215
L 786 215
L 786 215
L 786 215
L 786 215
L 786 215
L 786 215
L 786 215
L 786 215
L 786 214
L 786 214
L 786 214
L 786 214
L 786 214
L 786 214
L 786 214
L 786 214
L 786 214
L 786 214
L 786 214
L 786 214
L 786 214
L 786 214
L 786 214
L 786 214
L 786 214
L 786 214
L 786 214
L 786 214
L 786 214
L 786 214
L 786 213
L 786 213
L 786 213
L 786 213
L 786 213
L 786 213
L 786 213
L 786 213
L 786 213
L 786 213
L 786 213
L 786 213
L 786 213
L 786 213
L 786 213
L 786 213
L 786 213
L 786 213
L 786 213
L 786 213
L 786 213
L 786 213
L 786 213
L 786 212
L 786 212
L 786 212
L 786 212
L 786 212
L 786 212
L 786 212
L 786 212
L 786 212
L 786 212
L 786 212
L 786 212
L 786 212
L 786 212
L 786 212
L 786 212
L 786 212
L 786 212
L 786 212
L 787 212
L 787 212
L 787 212
L 787 212
L 787 211
L 787 211
L 787 211
L 787 211
L 787 211
L 787 211
L 787 211
L 787 211
L 787 211
L 787 211
L 787 211
L 787 211
L 787 211
L 787 211
L 787 211
L 787 211
L 787 211
L 787 211
L 787 211
L 787 211
L 787 211
L 787 211
L 787 211
L 787 210
L 787 210
L 787 210
L 787 210
L 787 210
L 787 210
L 787 210
L 787 210
L 787 210
L 787 210
L 787 210
L 787 210
L 787 210
L 787 210
L 787 210
L 787 210
L 787 210
L 787 210
L 787 210
L 787 210
L 787 210
L 787 210
L 787 210
L 787 209
L 787 209
L 787 209
L 787 209
L 787 209
L 787 209
L 787 209
L 787 209
L 787 209
L 787 209
L 787 209
L 787 209
L 787 209
L 787 209
L 787 209
L 787 209
L 787 209
L 787 209
L 787 209
L 787 209
L 787 209
L 787 209
L 787 209
L 787 208
L 787 208
L 787 208
L 787 208
L 787 208
L 787 208
L 787 208
L 787 208
L 787 208
L 787 208
L 787 208
L 787 208
L 787 208
L 787 208
L 787 208
L 787 208
L 787 208
L 787 208
L 787 208
L 787 208
L 787 208
L 787 208
L 787 208
L 787 207
L 787 207
L 787 207
L 787 207
L 787 207
L 787 207
L 787 207
L 787 207
L 787 207
L 787 207
L 787 207
L 787 207
L 787 207
L 787 207
L 787 207
L 787 207
L 787 207
L 787 207
L 787 207
L 787 207
L 787 207
L 787 207
L 787 207
L 787 206
L 787 206
L 787 206
L 787 206
L 787 206
L 787 206
L 787 206
L 787 206
L 787 206
L 787 206
L 787 206
L 787 206
L 787 206
L 787 206
L 787 206
L 787 206
L 787 206
L 787 206
L 787 206
L 787 206
L 787 206
L 787 206
L 787 206
L 787 205
L 787 205
L 787 205
L 787 205
L 787 205
L 787 205
L 787 205
L 787 205
L 787 205
L 787 205
L 787 205
L 787 205
L 787 205
L 787 205
L 787 205
L 787 205
L 787 205
L 787 205
L 787 205
L 787 205
L 787 205
L 787 205
L 787 205
L 787 204
L 787 204
L 787 204
L 787 204
L 787 204
L 787 204
L 787 204
L 787 204
L 787 204
L 787 204
L 787 204
L 787 204
L 787 204
L 787 204
L 787 204
L 787 204
L 787 204
L 787 204
L 787 204
L 787 204
L 787 204
L 787 204
L 787 204
L 787 203
L 787 203
L 787 203
L 787 203
L 787 203
L 787 203
L 787 203
L 787 203
L 787 203
L 787 203
L 787 203
L 787 203
L 787 203
L 787 203
L 787 203
L 787 203
L 787 203
L 787 203
L 787 203
L 787 203
L 787 203
L 787 203
L 787 203
L 787 202
L 787 202
L 787 202
L 787 202
L 787 202
L 787 202
L 787 202
L 787 202
L 787 202
L 787 202
L 787 202
L 787 202
L 787 202
L 787 202
L 787 202
L 787 202
L 787 202
L 787 202
L 787 202
L 787 202
L 787 202
L 787 202
L 787 202
L 787 201
L 787 201
L 787 201
L 787 201
L 787 201
L 787 201
L 787 201
L 787 201
L 787 201
L 787 201
L 787 201
L 787 201
L 787 201
L 787 201
L 787 201
L 787 201
L 787 201
L 787 201
L 787 201
L 787 201
L 787 201
L 787 201
L 787 201
L 787 200
L 787 200
L 787 200
L 787 200
L 787 200
L 787 200
L 787 200
L 787 200
L 787 200
L 787 200
L 787 200
L 787 200
L 787 200
L 787 200
L 787 200
L 787 200
L 787 200
L 787 200
L 787 200
L 787 200
L 787 200
L 787 200
L 787 200
L 787 199
L 787 199
L 787 199
L 787 199
L 787 199
L 787 199
L 787 199
L 787 199
L 787 199
L 787 199
L 787 199
L 787 199
L 787 199
L 787 199
L 787 199
L 787 199
L 787 199
L 787 199
L 787 199
L 787 199
L 787 199
L 787 199
L 787 199
L 787 198
L 788 198
L 788 198
L 788 198
L 788 198
L 788 198
L 788 198
L 788 198
L 788 198
L 788 198
L 788 198
L 788 198
L 788 198
L 788 198
L 788 198
L 788 198
L 788 198
L 788 198
L 788 198
L 788 198
L 788 198
L 788 198
L 788 198
L 788 197
L 788 197
L 788 197
L 788 197
L 788 197
L 788 197
L 788 197
L 788 197
L 788 197
L 788 197
L 788 197
L 788 197
L 788 197
L 788 197
L 788 197
L 788 197
L 788 197
L 788 197
L 788 197
L 788 197
L 788 197
L 788 197
L 788 196
L 788 196
L 788 196
L 788 196
L 788 196
L 788 196
L 788 196
L 788 196
L 788 196
L 788 196
L 788 196
L 788 196
L 788 196
L 788 196
L 788 196
L 788 196
L 788 196
L 788 196
L 788 196
L 788 196
L 788 196
L 788 196
L 788 196
L 788 195
L 788 195
L 788 195
L 788 195
L 788 195
L 788 195
L 788 195
L 788 195
L 788 195
L 788 195
L 788 195
L 788 195
L 788 195
L 788 195
L 788 195
L 788 195
L 788 195
L 788 195
L 788 195
L 788 195
L 788 195
L 788 195
L 788 195
L 788 194
L 788 194
L 788 194
L 788 194
L 788 194
L 788 194
L 788 194
L 788 194
L 788 194
L 788 194
L 788 194
L 788 194
L 788 194
L 788 194
L 788 194
L 788 194
L 788 194
L 788 194
L 788 194
L 788 194
L 788 194
L 788 194
L 788 194
L 788 193
L 788 193
L 788 193
L 788 193
L 788 193
L 788 193
L 788 193
L 788 193
L 788 193
L 788 193
L 788 193
L 788 193
L 788 193
L 788 193
L 788 193
L 788 193
L 788 193
L 788 193
L 788 193
L 788 193
L 788 193
L 788 193
L 788 193
L 788 192
L 788 192
L 788 192
L 788 192
L 788 192
L 788 192
L 788 192
L 788 192
L 788 192
L 788 192
L 788 192
L 788 192
L 788 192
L 788 192
L 788 192
L 788 192
L 788 192
L 788 192
L 788 192
L 788 192
L 788 192
L 788 192
L 788 192
L 788 191
L 788 191
L 788 191
L 788 191
L 788 191
L 788 191
L 788 191
L 788 191
L 789 191
L 789 191
L 789 191
L 789 191
L 789 191
L 789 191
L 789 191
L 789 191
L 789 191
L 789 191
L 789 191
L 789 191
L 789 191
L 789 191
L 789 191
L 789 190
L 789 190
L 789 190
L 789 190
L 789 190
L 789 190
L 790 190
L 790 190
L 790 190
L 790 190
L 790 190
L 790 190
L 790 190
L 790 190
L 790 190
L 790 190
L 790 190
L 790 190
L 790 190
L 790 190
L 791 190
L 791 190
L 791 190
L 791 189
L 791 189
L 791 189
L 791 189
L 791 189
L 791 189
L 791 189
L 791 189
L 791 189
L 791 189
L 791 189
L 791 189
L 791 189
L 791 189
L 791 189
L 791 189
L 791 189
L 791 189
L 791 189
L 791 189
L 791 189
L 791 189
L 791 189
L 791 188
L 791 188
L 791 188
L 791 188
L 791 188
L 792 188
L 792 188
L 792 188
L 792 188
L 792 188
L 792 188
L 792 188
L 792 188
L 792 188
L 792 188
L 792 188
L 792 188
L 792 188
L 792 188
L 792 188
L 792 188
L 792 188
L 792 188
L 792 187
L 792 187
L 792 187
L 792 187
L 792 187
L 792 187
L 792 187
L 792 187
L 792 187
L 792 187
L 792 187
L 792 187
L 792 187
L 793 187
L 793 187
L 793 187
L 793 187
L 793 187
L 793 187
L 793 187
L 793 187
L 793 187
L 793 187
L 793 186
L 793 186
L 793 186
L 793 186
L 793 186
L 793 186
L 793 186
L 793 186
L 793 186
L 793 186
L 793 186
L 793 186
L 793 186
L 793 186
L 793 186
L 793 186
L 794 186
L 794 186
L 794 186
L 794 186
L 794 186
L 794 186
L 794 186
L 794 185
L 794 185
L 794 185
L 794 185
L 795 185
L 795 185
L 795 185
L 795 185
L 795 185
L 795 185
L 795 185
L 795 185
L 795 185
L 795 185
L 795 185
L 795 185
L 795 185
L 795 185
L 795 185
L 795 185
L 795 185
L 795 185
L 795 185
L 795 184
L 795 184
L 795 184
L 795 184
L 795 184
L 795 184
L 795 184
L 795 184
L 795 184
L 795 184
L 795 184
L 795 184
L 795 184
L 795 184
L 795 184
L 795 184
L 796 184
L 796 184
L 796 184
L 796 184
L 796 184
L 796 184
L 796 184
L 796 183
L 796 183
L 796 183
L 796 183
L 796 183
L 796 183
L 796 183
L 796 183
L 796 183
L 796 183
L 796 183
L 796 183
L 796 183
L 796 183
L 796 183
L 796 183
L 797 183
L 797 183
L 797 183
L 797 183
L 797 183
L 797 183
L 797 183
L 797 182
L 797 182
L 797 182
L 797 182
L 797 182
L 797 182
L 797 182
L 797 182
L 797 182
L 797 182
L 797 182
L 797 182
L 797 182
L 798 182
L 798 182
L 798 182
L 798 182
L 798 182
L 798 182
L 798 182
L 798 182
L 798 182
L 798 182
L 798 181
L 798 181
L 798 181
L 798 181
L 798 181
L 799 181
L 799 181
L 799 181
L 799 181
L 799 181
L 799 181
L 799 181
L 799 181
L 799 181
L 799 181
L 799 181
L 799 181
L 800 181
L 800 181
L 800 181
L 800 181
L 800 181
L 800 181
L 800 180
L 800 180
L 800 180
L 800 180
L 800 180
L 800 180
L 800 180
L 800 180
L 800 180
L 800 180
L 800 180
L 800 180
L 801 180
L 801 180
L 801 180
L 801 180
L 801 180
L 801 180
L 801 180
L 801 180
L 801 180
L 801 180
L 801 179
L 801 179
L 801 179
L 801 179
L 801 179
L 801 179
L 801 179
L 801 179
L 801 179
L 801 179
L 801 179
L 801 179
L 802 179
L 802 179
L 802 179
L 802 179
L 802 179
L 802 179
L 802 179
L 802 179
L 802 179
L 802 179
L 802 179
L 802 178
L 802 178
L 802 178
L 802 178
L 802 178
L 802 178
L 802 178
L 802 178
L 802 178
L 803 178
L 803 178
L 803 178
L 803 178
L 803 178
L 803 178
L 803 178
L 803 178
L 803 178
L 803 178
L 803 178
L 803 178
L 803 178
L 803 178
L 803 177
L 803 177
L 804 177
L 804 177
L 804 177
L 804 177
L 804 177
L 804 177
L 804 177
L 805 177
L 805 177
L 805 177
L 805 177
L 805 177
L 805 177
L 805 177
L 805 177
L 806 177
L 806 177
L 806 177
L 806 177
L 806 177
L 806 177
L 806 176
L 806 176
L 806 176
L 806 176
L 806 176
L 806 176
L 806 176
L 806 176
L 806 176
L 806 176
L 806 176
L 806 176
L 806 176
L 806 176
L 806 176
L 806 176
L 806 176
L 806 176
L 806 176
L 806 176
L 806 176
L 806 176
L 806 176
L 806 175
L 806 175
L 806 175
L 806 175
L 806 175
L 806 175
L 806 175
L 806 175
L 806 175
L 806 175
L 806 175
L 806 175
L 806 175
L 806 175
L 806 175
L 806 175
L 806 175
L 807 175
L 807 175
L 807 175
L 807 175
L 807 175
L 807 175
L 807 174
L 807 174
L 807 174
L 807 174
L 807 174
L 807 174
L 807 174
L 807 174
L 807 174
L 807 174
L 807 174
L 807 174
L 807 174
L 807 174
L 807 174
L 807 174
L 807 174
L 807 174
L 807 174
L 807 174
L 807 174
L 807 174
L 807 174
L 807 173
L 807 173
L 807 173
L 807 173
L 807 173
L 807 173
L 807 173
L 807 173
L 807 173
L 807 173
L 807 173
L 807 173
L 807 173
L 807 173
L 807 173
L 807 173
L 807 173
L 807 173
L 807 173
L 807 173
L 807 173
L 807 173
L 807 173
L 807 172
L 807 172
L 807 172
L 807 172
L 807 172
L 807 172
L 807 172
L 807 172
L 807 172
L 807 172
L 807 172
L 807 172
L 807 172
L 807 172
L 807 172
L 807 172
L 807 172
L 807 172
L 807 172
L 807 172
L 807 172
L 807 172
L 807 172
L 807 171
L 807 171
L 807 171
L 807 171
L 807 171
L 807 171
L 807 171
L 807 171
L 807 171
L 807 171
L 807 171
L 807 171
L 807 171
L 807 171
L 807 171
L 807 171
L 807 171
L 807 171
L 807 171
L 807 171
L 807 171
L 807 171
L 807 171
L 807 170
L 807 170
L 807 170
L 807 170
L 807 170
L 807 170
L 807 170
L 807 170
L 807 170
L 807 170
L 807 170
L 807 170
L 807 170
L 807 170
L 807 170
L 807 170
L 807 170
L 807 170
L 807 170
L 807 170
L 807 170
L 807 170
L 807 170
L 807 169
L 807 169
L 807 169
L 807 169
L 807 169
L 807 169
L 807 169
L 807 169
L 807 169
L 807 169
L 807 169
L 807 169
L 807 169
L 807 169
L 807 169
L 807 169
L 807 169
L 807 169
L 807 169
L 807 169
L 807 169
L 807 169
L 807 169
L 807 168
L 807 168
L 807 168
L 807 168
L 807 168
L 807 168
L 807 168
L 807 168
L 807 168
L 807 168
L 807 168
L 807 168
L 807 168
L 807 168
L 807 168
L 807 168
L 807 168
L 807 168
L 807 168
L 807 168
L 807 168
L 807 168
L 807 168
L 807 167
L 807 167
L 807 167
L 807 167
L 807 167
L 807 167
L 807 167
L 807 167
L 807 167
L 807 167
L 807 167
L 807 167
L 807 167
L 807 167
L 807 167
L 807 167
L 807 167
L 807 167
L 807 167
L 807 167
L 807 167
L 807 167
L 807 167
L 807 166
L 807 166
L 807 166
L 807 166
L 807 166
L 807 166
L 807 166
L 807 166
L 807 166
L 807 166
L 807 166
L 807 166
L 807 166
L 807 166
L 807 166
L 807 166
L 807 166
L 807 166
L 807 166
L 807 166
L 807 166
L 807 166
L 807 166
L 807 165
L 807 165
L 807 165
L 807 165
L 807 165
L 807 165
L 807 165
L 807 165
L 807 165
L 807 165
L 807 165
L 807 165
L 807 165
L 807 165
L 807 165
L 807 165
L 807 165
L 807 165
L 807 165
L 807 165
L 807 165
L 807 165
L 807 165
L 807 164
L 807 164
L 807 164
L 807 164
L 807 164
L 807 164
L 807 164
L 808 164
L 808 164
L 808 164
L 808 164
L 808 164
L 808 164
L 808 164
L 808 164
L 808 164
L 808 164
L 808 164
L 808 164
L 808 164
L 808 164
L 808 164
L 808 163
L 808 163
L 808 163
L 808 163
L 808 163
L 808 163
L 808 163
L 808 163
L 808 163
L 808 163
L 808 163
L 808 163
L 808 163
L 808 163
L 808 163
L 808 163
L 808 163
L 808 163
L 808 163
L 808 163
L 808 163
L 808 163
L 808 163
L 808 162
L 808 162
L 808 162
L 808 162
L 808 162
L 808 162
L 808 162
L 808 162
L 808 162
L 808 162
L 808 162
L 808 162
L 808 162
L 808 162
L 808 162
L 808 162
L 808 162
L 808 162
L 808 162
L 808 162
L 808 162
L 808 162
L 808 162
L 808 161
L 808 161
L 808 161
L 808 161
L 808 161
L 808 161
L 808 161
L 808 161
L 808 161
L 808 161
L 808 161
L 808 161
L 808 161
L 808 161
L 808 161
L 808 161
L 808 161
L 808 161
L 808 161
L 808 161
L 808 161
L 808 161
L 808 161
L 808 160
L 808 160
L 808 160
L 808 160
L 808 160
L 808 160
L 808 160
L 808 160
L 808 160
L 808 160
L 808 160
L 808 160
L 808 160
L 808 160
L 808 160
L 808 160
L 808 160
L 808 160
L 808 160
L 808 160
L 808 160
L 808 160
L 808 160
L 808 159
L 808 159
L 808 159
L 808 159
L 808 159
L 808 159
L 808 159
L 808 159
L 808 159
L 808 159
L 808 159
L 808 159
L 808 159
L 808 159
L 808 159
L 808 159
L 808 159
L 808 159
L 808 159
L 808 159
L 808 159
L 808 159
L 808 159
L 808 158
L 808 158
L 808 158
L 808 158
L 808 158
L 808 158
L 808 158
L 808 158
L 808 158
L 808 158
L 808 158
L 808 158
L 808 158
L 808 158
L 808 158
L 808 158
L 808 158
L 808 158
L 808 158
L 808 158
L 808 158
L 808 158
L 808 158
L 808 157
L 808 157
L 808 157
L 808 157
L 808 157
L 808 157
L 808 157
L 808 157
L 808 157
L 808 157
L 808 157
L 808 157
L 808 157
L 808 157
L 808 157
L 808 157
L 808 157
L 808 157
L 808 157
L 808 157
L 808 157
L 808 157
L 808 157
L 808 156
L 808 156
L 808 156
L 808 156
L 808 156
L 808 156
L 808 156
L 808 156
L 808 156
L 808 156
L 808 156
L 808 156
L 808 156
L 808 156
L 808 156
L 808 156
L 808 156
L 808 156
L 808 156
L 808 156
L 808 156
L 808 156
L 808 156
L 808 155
L 808 155
L 808 155
L 808 155
L 808 155
L 808 155
L 808 155
L 808 155
L 808 155
L 808 155
L 808 155
L 808 155
L 808 155
L 808 155
L 808 155
L 808 155
L 808 155
L 808 155
L 808 155
L 808 155
L 808 155
L 808 155
L 808 155
L 808 154
L 808 154
L 808 154
L 808 154
L 808 154
L 808 154
L 808 154
L 808 154
L 808 154
L 808 154
L 808 154
L 808 154
L 808 154
L 808 154
L 808 154
L 808 154
L 808 154
L 808 154
L 808 154
L 808 154
L 808 154
L 808 154
L 808 154
L 808 153
L 808 153
L 808 153
L 808 153
L 808 153
L 808 153
L 808 153
L 808 153
L 808 153
L 808 153
L 808 153
L 808 153
L 808 153
L 808 153
L 808 153
L 808 153
L 808 153
L 808 153
L 808 153
L 808 153
L 808 153
L 808 153
L 808 153
L 808 152
L 808 152
L 808 152
L 808 152
L 808 152
L 808 152
L 808 152
L 808 152
L 808 152
L 808 152
L 808 152
L 808 152
L 808 152
L 808 152
L 808 152
L 808 152
L 808 152
L 808 152
L 808 152
L 808 152
L 808 152
L 808 152
L 808 152
L 808 151
L 808 151
L 808 151
L 808 151
L 808 151
L 808 151
L 808 151
L 808 151
L 808 151
L 808 151
L 808 151
L 808 151
L 808 151
L 808 151
L 808 151
L 808 151
L 808 151
L 808 151
L 808 151
L 808 151
L 808 151
L 808 151
L 808 151
L 808 150
L 808 150
L 808 150
L 808 150
L 808 150
L 808 150
L 808 150
L 808 150
L 808 150
L 808 150
L 808 150
L 808 150
L 808 150
L 808 150
L 808 150
L 808 150
L 808 150
L 808 150
L 808 150
L 808 150
L 808 150
L 808 150
L 808 150
L 808 149
L 808 149
L 808 149
L 808 149
L 808 149
L 808 149
L 808 149
L 808 149
L 808 149
L 808 149
L 808 149
L 808 149
L 808 149
L 808 149
L 808 149
L 808 149
L 808 149
L 808 149
L 808 149
L 808 149
L 808 149
L 808 149
L 808 149
L 808 148
L 808 148
L 808 148
L 808 148
L 809 148
L 809 148
L 809 148
L 809 148
L 809 148
L 809 148
L 809 148
L 809 148
L 809 148
L 809 148
L 809 148
L 809 148
L 809 148
L 809 148
L 809 148
L 809 148
L 809 148
L 809 148
L 809 148
L 809 147
L 809 147
L 809 147
L 809 147
L 809 147
L 809 147
L 809 147
L 809 147
L 809 147
L 809 147
L 809 147
L 809 147
L 809 147
L 809 147
L 809 147
L 809 147
L 809 147
L 809 147
L 809 147
L 809 147
L 809 147
L 809 147
L 809 147
L 809 146
L 809 146
L 809 146
L 809 146
L 809 146
L 809 146
L 809 146
L 809 146
L 809 146
L 809 146
L 809 146
L 809 146
L 809 146
L 809 146
L 809 146
L 809 146
L 809 146
L 809 146
L 809 146
L 809 146
L 809 146
L 809 146
L 809 145
L 809 145
L 809 145
L 809 145
L 809 145
L 809 145
L 809 145
L 809 145
L 809 145
L 809 145
L 809 145
L 809 145
L 809 145
L 809 145
L 809 145
L 809 145
L 809 145
L 809 145
L 809 145
L 809 145
L 809 145
L 809 145
L 809 145
L 809 144
L 809 144
L 809 144
L 809 144
L 809 144
L 809 144
L 809 144
L 809 144
L 809 144
L 809 144
L 809 144
L 809 144
L 809 144
L 809 144
L 809 144
L 809 144
L 809 144
L 809 144
L 809 144
L 809 144
L 809 144
L 809 144
L 809 144
L 809 143
L 809 143
L 809 143
L 809 143
L 809 143
L 809 143
L 809 143
L 809 143
L 809 143
L 809 143
L 809 143
L 809 143
L 809 143
L 809 143
L 809 143
L 809 143
L 809 143
L 809 143
L 809 143
L 809 143
L 809 143
L 809 143
L 809 143
L 809 142
L 809 142
L 809 142
L 809 142
L 809 142
L 809 142
L 809 142
L 809 142
L 809 142
L 809 142
L 809 142
L 809 142
L 809 142
L 809 142
L 809 142
L 809 142
L 809 142
L 809 142
L 809 142
L 809 142
L 809 142
L 809 142
L 809 142
L 809 141
L 809 141
L 809 141
L 809 141
L 809 141
L 809 141
L 809 141
L 809 141
L 809 141
L 809 141
L 809 141
L 809 141
L 809 141
L 809 141
L 809 141
L 809 141
L 809 141
L 809 141
L 809 141
L 809 141
L 809 141
L 809 141
L 809 141
L 809 140
L 809 140
L 809 140
L 809 140
L 809 140
L 809 140
L 809 140
L 809 140
L 809 140
L 809 140
L 809 140
L 809 140
L 809 140
L 809 140
L 809 140
L 809 140
L 809 140
L 809 140
L 809 140
L 809 140
L 809 140
L 809 140
L 809 140
L 809 139
L 809 139
L 809 139
L 809 139
L 809 139
L 809 139
L 809 139
L 809 139
L 809 139
L 809 139
L 809 139
L 809 139
L 809 139
L 809 139
L 809 139
L 809 139
L 809 139
L 809 139
L 809 139
L 809 139
L 809 139
L 809 139
L 809 139
L 809 138
L 809 138
L 809 138
L 809 138
L 809 138
L 809 138
L 809 138
L 809 138
L 809 138
L 809 138
L 809 138
L 809 138
L 809 138
L 809 138
L 809 138
L 809 138
L 809 138
L 809 138
L 809 138
L 809 138
L 809 138
L 809 138
L 809 138
L 809 137
L 809 137
L 809 137
L 809 137
L 809 137
L 809 137
L 809 137
L 809 137
L 809 137
L 809 137
L 809 137
L 809 137
L 809 137
L 809 137
L 809 137
L 809 137
L 809 137
L 809 137
L 809 137
L 809 137
L 809 137
L 809 137
L 809 137
L 809 136
L 809 136
L 809 136
L 809 136
L 809 136
L 809 136
L 809 136
L 809 136
L 809 136
L 809 136
L 809 136
L 809 136
L 809 136
L 809 136
L 809 136
L 809 136
L 809 136
L 809 136
L 809 136
L 809 136
L 809 136
L 809 136
L 809 136
L 809 135
L 809 135
L 809 135
L 809 135
L 809 135
L 809 135
L 809 135
L 809 135
L 809 135
L 809 135
L 809 135
L 809 135
L 809 135
L 809 135
L 809 135
L 809 135
L 809 135
L 809 135
L 809 135
L 810 135
L 810 135
L 810 135
L 810 135
L 810 134
L 810 134
L 810 134
L 810 134
L 810 134
L 810 134
L 810 134
L 810 134
L 810 134
L 810 134
L 810 134
L 810 134
L 810 134
L 810 134
L 810 134
L 810 134
L 810 134
L 810 134
L 810 134
L 810 134
L 810 134
L 810 134
L 810 134
L 810 133
L 810 133
L 810 133
L 810 133
L 810 133
L 810 133
L 810 133
L 810 133
L 810 133
L 810 133
L 810 133
L 810 133
L 810 133
L 810 133
L 810 133
L 810 133
L 810 133
L 810 133
L 810 133
L 810 133
L 810 133
L 810 133
L 810 133
L 810 132
L 810 132
L 810 132
L 810 132
L 810 132
L 810 132
L 810 132
L 810 132
L 810 132
L 810 132
L 810 132
L 810 132
L 810 132
L 810 132
L 810 132
L 810 132
L 810 132
L 810 132
L 810 132
L 810 132
L 810 132
L 810 132
L 810 132
L 810 131
L 810 131
L 810 131
L 810 131
L 810 131
L 810 131
L 810 131
L 810 131
L 810 131
L 810 131
L 810 131
L 810 131
L 810 131
L 810 131
L 810 131
L 810 131
L 810 131
L 810 131
L 810 131
L 810 131
L 810 131
L 810 131
L 810 131
L 810 130
L 810 130
L 810 130
L 810 130
L 810 130
L 810 130
L 810 130
L 810 130
L 810 130
L 810 130
L 810 130
L 810 130
L 810 130
L 810 130
L 810 130
L 810 130
L 810 130
L 810 130
L 810 130
L 810 130
L 810 130
L 810 130
L 810 130
L 810 129
L 810 129
L 810 129
L 810 129
L 810 129
L 810 129
L 810 129
L 810 129
L 810 129
L 810 129
L 810 129
L 810 129
L 810 129
L 810 129
L 810 129
L 810 129
L 810 129
L 810 129
L 810 129
L 810 129
L 810 129
L 810 129
L 810 128
L 810 128
L 810 128
L 810 128
L 810 128
L 810 128
L 810 128
L 810 128
L 810 128
L 810 128
L 810 128
L 810 128
L 810 128
L 810 128
L 810 128
L 810 128
L 810 128
L 810 128
L 810 128
L 810 128
L 810 128
L 810 128
L 810 128
L 810 127
L 810 127
L 810 127
L 810 127
L 810 127
L 810 127
L 810 127
L 810 127
L 810 127
L 810 127
L 810 127
L 810 127
L 810 127
L 810 127
L 810 127
L 810 127
L 810 127
L 810 127
L 810 127
L 810 127
L 810 127
L 810 127
L 810 127
L 810 126
L 810 126
L 810 126
L 810 126
L 810 126
L 810 126
L 810 126
L 810 126
L 811 126
L 811 126
L 811 126
L 811 126
L 811 126
L 811 126
L 811 126
L 811 126
L 811 126
L 811 126
L 811 126
L 811 126
L 811 126
L 811 126
L 811 126
L 811 125
L 811 125
L 811 125
L 811 125
L 811 125
L 811 125
L 811 125
L 811 125
L 811 125
L 811 125
L 811 125
L 811 125
L 811 125
L 811 125
L 811 125
L 811 125
L 811 125
L 811 125
L 811 125
L 811 125
L 811 125
L 811 125
L 811 125
L 811 124
L 811 124
L 811 124
L 811 124
L 811 124
L 811 124
L 811 124
L 811 124
L 811 124
L 811 124
L 811 124
L 811 124
L 811 124
L 811 124
L 811 124
L 811 124
L 811 124
L 811 124
L 811 124
L 811 124
L 811 124
L 811 124
L 811 124
L 811 123
L 811 123
L 811 123
L 811 123
L 811 123
L 811 123
L 811 123
L 811 123
L 811 123
L 811 123
L 811 123
L 811 123
L 811 123
L 812 123
L 812 123
L 812 123
L 812 123
L 812 123
L 812 123
L 812 123
L 812 123
L 812 123
L 812 123
L 812 122
L 812 122
L 812 122
L 812 122
L 812 122
L 812 122
L 812 122
L 812 122
L 812 122
L 812 122
L 812 122
L 812 122
L 812 122
L 812 122
L 812 122
L 812 122
L 812 122
L 812 122
L 812 122
L 812 122
L 812 122
L 812 122
L 812 122
L 812 121
L 812 121
L 812 121
L 812 121
L 812 121
L 812 121
L 812 121
L 812 121
L 812 121
L 812 121
L 812 121
L 812 121
L 812 121
L 812 121
L 812 121
L 812 121
L 812 121
L 812 121
L 812 121
L 812 121
L 812 121
L 812 121
L 812 121
L 812 120
L 812 120
L 812 120
L 812 120
L 812 120
L 812 120
L 812 120
L 812 120
L 812 120
L 812 120
L 812 120
L 812 120
L 812 120
L 812 120
L 812 120
L 812 120
L 812 120
L 812 120
L 812 120
L 812 120
L 812 120
L 812 120
L 812 120
L 812 119
L 812 119
L 812 119
L 812 119
L 812 119
L 812 119
L 812 119
L 812 119
L 812 119
L 812 119
L 812 119
L 813 119
L 813 119
L 813 119
L 813 119
L 813 119
L 813 119
L 813 119
L 813 119
L 813 119
L 813 119
L 813 119
L 813 119
L 813 118
L 813 118
L 813 118
L 813 118
L 813 118
L 813 118
L 813 118
L 813 118
L 813 118
L 813 118
L 813 118
L 813 118
L 813 118
L 813 118
L 813 118
L 813 118
L 813 118
L 813 118
L 813 118
L 813 118
L 813 118
L 813 118
L 813 118
L 813 117
L 813 117
L 813 117
L 813 117
L 813 117
L 813 117
L 813 117
L 813 117
L 813 117
L 813 117
L 813 117
L 813 117
L 813 117
L 814 117
L 814 117
L 814 117
L 814 117
L 814 117
L 814 117
L 814 117
L 814 117
L 814 117
L 814 117
L 814 116
L 814 116
L 814 116
L 814 116
L 814 116
L 814 116
L 814 116
L 814 116
L 814 116
L 814 116
L 814 116
L 814 116
L 814 116
L 814 116
L 814 116
L 814 116
L 814 116
L 814 116
L 814 116
L 814 116
L 814 116
L 814 116
L 814 116
L 814 115
L 814 115
L 814 115
L 814 115
L 814 115
L 814 115
L 814 115
L 814 115
L 814 115
L 814 115
L 814 115
L 814 115
L 814 115
L 814 115
L 814 115
L 814 115
L 814 115
L 814 115
L 815 115
L 815 115
L 815 115
L 815 115
L 815 115
L 815 114
L 815 114
L 815 114
L 815 114
L 815 114
L 815 114
L 815 114
L 815 114
L 815 114
L 815 114
L 815 114
L 815 114
L 815 114
L 815 114
L 815 114
L 815 114
L 815 114
L 816 114
L 816 114
L 816 114
L 816 114
L 816 114
L 816 114
L 816 113
L 816 113
L 816 113
L 816 113
L 816 113
L 816 113
L 816 113
L 816 113
L 816 113
L 816 113
L 816 113
L 816 113
L 816 113
L 817 113
L 817 113
L 817 113
L 817 113
L 817 113
L 817 113
L 817 113
L 817 113
L 817 113
L 817 113
L 817 112
L 817 112
L 817 112
L 817 112
L 817 112
L 817 112
L 817 112
L 817 112
L 817 112
L 817 112
L 817 112
L 817 112
L 817 112
L 817 112
L 817 112
L 817 112
L 817 112
L 817 112
L 817 112
L 817 112
L 817 112
L 818 112
L 818 111
L 818 111
L 818 111
L 818 111
L 818 111
L 818 111
L 818 111
L 818 111
L 818 111
L 818 111
L 818 111
L 818 111
L 818 111
L 818 111
L 818 111
L 818 111
L 818 111
L 818 111
L 818 111
L 818 111
L 818 111
L 818 111
L 818 111
L 818 110
L 818 110
L 819 110
L 819 110
L 819 110
L 819 110
L 819 110
L 819 110
L 819 110
L 819 110
L 819 110
L 819 110
L 819 110
L 819 110
L 819 110
L 819 110
L 819 110
L 819 110
L 819 110
L 819 110
L 819 110
L 819 110
L 819 110
L 819 109
L 819 109
L 819 109
L 819 109
L 820 109
L 820 109
L 820 109
L 820 109
L 820 109
L 820 109
L 820 109
L 820 109
L 820 109
L 820 109
L 820 109
L 820 109
L 820 109
L 820 109
L 820 109
L 820 109
L 820 109
L 820 109
L 820 109
L 820 108
L 820 108
L 820 108
L 820 108
L 820 108
L 821 108
L 821 108
L 821 108
L 821 108
L 821 108
L 821 108
L 821 108
L 821 108
L 821 108
L 821 108
L 821 108
L 821 108
L 822 108
L 822 108
L 822 108
L 822 108
L 822 108
L 822 108
L 822 107
L 822 107
L 822 107
L 822 107
L 822 107
L 822 107
L 822 107
L 822 107
L 822 107
L 823 107
L 823 107
L 823 107
L 823 107
L 823 107
L 823 107
L 823 107
L 823 107
L 823 107
L 823 107
L 823 107
L 823 107
L 823 107
L 823 107
L 823 106
L 823 106
L 823 106
L 823 106
L 823 106
L 823 106
L 823 106
L 823 106
L 823 106
L 823 106
L 823 106
L 823 106
L 823 106
L 823 106
L 823 106
L 824 106
L 824 106
L 824 106
L 824 106
L 824 106
L 824 106
L 824 106
L 824 106
L 824 105
L 824 105
L 824 105
L 824 105
L 824 105
L 824 105
L 824 105
L 824 105
L 824 105
L 824 105
L 824 105
L 824 105
L 824 105
L 824 105
L 824 105
L 824 105
L 824 105
L 824 105
L 824 105
L 824 105
L 824 105
L 824 105
L 824 105
L 824 104
L 824 104
L 825 104
L 825 104
L 825 104
L 825 104
L 825 104
L 825 104
L 825 104
L 825 104
L 825 104
L 825 104
L 825 104
L 825 104
L 825 104
L 825 104
L 825 104
L 825 104
L 825 104
L 825 104
L 825 104
L 825 104
L 825 104
L 825 103
L 825 103
L 825 103
L 825 103
L 825 103
L 825 103
L 825 103
L 825 103
L 825 103
L 825 103
L 825 103
L 825 103
L 825 103
L 825 103
L 825 103
L 825 103
L 825 103
L 825 103
L 825 103
L 825 103
L 825 103
L 825 103
L 825 103
L 825 102
L 825 102
L 825 102
L 825 102
L 825 102
L 825 102
L 825 102
L 825 102
L 825 102
L 825 102
L 825 102
L 826 102
L 826 102
L 826 102
L 826 102
L 826 102
L 826 102
L 826 102
L 826 102
L 826 102
L 826 102
L 826 102
L 826 102
L 826 101
L 826 101
L 826 101
L 826 101
L 826 101
L 826 101
L 826 101
L 826 101
L 826 101
L 826 101
L 826 101
L 826 101
L 826 101
L 826 101
L 826 101
L 826 101
L 826 101
L 826 101
L 826 101
L 826 101
L 826 101
L 826 101
L 826 101
L 826 100
L 826 100
L 826 100
L 826 100
L 826 100
L 826 100
L 826 100
L 826 100
L 826 100
L 827 100
L 827 100
L 827 100
L 827 100
L 827 100
L 827 100
L 827 100
L 827 100
L 827 100
L 827 100
L 827 100
L 827 100
L 827 100
L 827 100
L 828 99
L 828 99
L 828 99
L 828 99
L 828 99
L 828 99
L 828 99
L 828 99
L 828 99
L 828 99
L 828 99
L 828 99
L 828 99
L 828 99
L 828 99
L 828 99
L 828 99
L 828 99
L 828 99
L 828 99
L 828 99
L 828 99
L 828 99
L 828 98
L 828 98
L 828 98
L 828 98
L 828 98
L 828 98
L 828 98
L 828 98
L 828 98
L 828 98
L 828 98
L 828 98
L 828 98
L 828 98
L 828 98
L 829 98
L 829 98
L 829 98
L 829 98
L 829 98
L 829 98
L 829 98
L 829 98
L 829 97
L 829 97
L 829 97
L 829 97
L 829 97
L 829 97
L 829 97
L 829 97
L 829 97
L 829 97
L 829 97
L 829 97
L 829 97
L 829 97
L 829 97
L 829 97
L 829 97
L 829 97
L 829 97
L 829 97
L 829 97
L 829 97
L 829 97
L 829 96
L 829 96
L 829 96
L 830 96
L 830 96
L 830 96
L 830 96
L 830 96
L 830 96
L 830 96
L 830 96
L 830 96
L 830 96
L 830 96
L 830 96
L 830 96
L 830 96
L 830 96
L 830 96
L 830 96
L 830 96
L 830 96
L 830 96
L 831 95
L 831 95
L 831 95
L 831 95
L 831 95
L 831 95
L 831 95
L 831 95
L 831 95
L 831 95
L 831 95
L 831 95
L 831 95
L 831 95
L 831 95
L 831 95
L 832 95
L 832 95
L 832 95
L 832 95
L 833 95
L 833 95
L 833 94
L 833 94
L 833 94
L 833 94
L 833 94
L 833 94
L 833 94
L 833 94
L 834 94
L 834 94
L 834 94
L 834 94
L 834 94
L 834 94
L 834 94
L 834 94
L 834 94
L 834 94
L 834 94
L 834 94
L 834 94
L 834 94
L 834 94
L 835 93
L 835 93
L 835 93
L 835 93
L 835 93
L 835 93
L 835 93
L 835 93
L 835 93
L 835 93
L 836 93
L 836 93
L 836 93
L 836 93
L 836 93
L 836 93
L 836 93
L 836 93
L 836 93
L 836 93
L 836 93
L 836 93
L 836 93
L 836 92
L 837 92
L 837 92
L 837 92
L 837 92
L 837 92
L 837 92
L 837 92
L 837 92
L 837 92
L 838 92
L 838 92
L 838 92
L 838 92
L 838 92
L 838 92
L 838 92
L 838 92
L 838 92
L 839 92
L 839 92
L 839 92
L 839 92
L 839 91
L 839 91
L 839 91
L 839 91
L 839 91
L 839 91
L 839 91
L 840 91
L 840 91
L 840 91
L 840 91
L 840 91
L 840 91
L 840 91
L 840 91
L 840 91
L 840 91
L 840 91
L 841 91
L 841 91
L 841 91
L 841 91
L 841 91
L 841 90
L 841 90
L 841 90
L 841 90
L 841 90
L 841 90
L 842 90
L 842 90
L 842 90
L 842 90
L 842 90
L 842 90
L 842 90
L 842 90
L 842 90
L 842 90
L 842 90
L 842 90
L 842 90
L 842 90
L 842 90
L 842 90
L 842 90
L 842 89
L 842 89
L 843 89
L 843 89
L 843 89
L 843 89
L 843 89
L 843 89
L 843 89
L 844 89
L 844 89
L 844 89
L 844 89
L 844 89
L 844 89
L 844 89
L 844 89
L 844 89
L 845 89
L 845 89
L 845 89
L 845 89
L 845 89
L 845 88
L 845 88
L 845 88
L 845 88
L 845 88
L 845 88
L 845 88
L 845 88
L 846 88
L 846 88
L 846 88
L 846 88
L 846 88
L 846 88
L 846 88
L 846 88
L 846 88
L 846 88
L 846 88
L 846 88
L 846 88
L 846 88
L 846 88
L 846 87
L 847 87
L 847 87
L 847 87
L 847 87
L 847 87
L 847 87
L 847 87
L 847 87
L 848 87
L 848 87
L 848 87
L 848 87
L 848 87
L 848 87
L 848 87
L 848 87
L 849 87
L 849 87
L 849 87
L 849 87
L 849 87
L 849 87
L 849 86
L 849 86
L 849 86
L 849 86
L 850 86
L 850 86
L 850 86
L 850 86
L 850 86
L 850 86
L 850 86
L 850 86
L 850 86
L 850 86
L 850 86
L 850 86
L 850 86
L 850 86
L 850 86
L 851 86
L 851 86
L 851 86
L 851 86
L 851 85
L 851 85
L 851 85
L 851 85
L 851 85
L 851 85
L 851 85
L 851 85
L 851 85
L 851 85
L 851 85
L 851 85
L 851 85
L 851 85
L 851 85
L 851 85
L 851 85
L 851 85
L 851 85
L 851 85
L 851 85
L 851 85
L 851 85
L 851 84
L 851 84
L 851 84
L 851 84
L 851 84
L 851 84
L 851 84
L 851 84
L 851 84
L 852 84
L 852 84
L 852 84
L 852 84
L 852 84
L 852 84
L 852 84
L 852 84
L 852 84
L 852 84
L 852 84
L 852 84
L 852 84
L 852 84
L 852 83
L 852 83
L 852 83
L 852 83
L 852 83
L 852 83
L 852 83
L 852 83
L 852 83
L 852 83
L 852 83
L 852 83
L 852 83
L 852 83
L 852 83
L 852 83
L 852 83
L 852 83
L 852 83
L 852 83
L 853 83
L 853 83
L 853 83
L 853 82
L 853 82
L 853 82
L 853 82
L 853 82
L 853 82
L 853 82
L 853 82
L 853 82
L 853 82
L 853 82
L 853 82
L 854 82
L 854 82
L 854 82
L 854 82
L 854 82
L 854 82
L 855 82
L 855 82
L 855 82
L 855 82
L 855 82
L 855 81
L 855 81
L 855 81
L 855 81
L 855 81
L 855 81
L 855 81
L 855 81
L 855 81
L 855 81
L 855 81
L 856 81
L 856 81
L 856 81
L 856 81
L 856 81
L 856 81
L 856 81
L 856 81
L 856 81
L 856 81
L 856 81
L 856 81
L 856 80
L 856 80
L 856 80
L 857 80
L 857 80
L 857 80
L 857 80
L 857 80
L 857 80
L 857 80
L 857 80
L 857 80
L 857 80
L 857 80
L 858 80
L 858 80
L 858 80
L 858 80
L 858 80
L 858 80
L 858 80
L 858 80
L 858 80
L 858 79
L 858 79
L 858 79
L 858 79
L 858 79
L 859 79
L 859 79
L 859 79
L 859 79
L 859 79
L 859 79
L 859 79
L 859 79
L 859 79
L 859 79
L 859 79
L 859 79
L 859 79
L 859 79
L 860 79
L 860 79
L 860 79
L 860 79
L 860 78
L 860 78
L 860 78
L 860 78
L 861 78
L 861 78
L 861 78
L 861 78
L 861 78
L 861 78
L 861 78
L 861 78
L 861 78
L 862 78
L 862 78
L 862 78
L 862 78
L 862 78
L 862 78
L 862 78
L 862 78
L 862 78
L 862 77
L 862 77
L 862 77
L 863 77
L 863 77
L 863 77
L 863 77
L 863 77
L 863 77
L 863 77
L 863 77
L 863 77
L 863 77
L 863 77
L 863 77
L 863 77
L 863 77
L 863 77
L 864 77
L 864 77
L 864 77
L 864 77
L 864 77
L 864 76
L 864 76
L 864 76
L 864 76
L 864 76
L 864 76
L 864 76
L 864 76
L 865 76
L 865 76
L 865 76
L 865 76
L 865 76
L 865 76
L 865 76
L 866 76
L 866 76
L 866 76
L 866 76
L 866 76
L 866 76
L 866 76
L 866 76
L 866 75
L 866 75
L 866 75
L 866 75
L 866 75
L 867 75
L 867 75
L 867 75
L 867 75
L 867 75
L 867 75
L 867 75
L 867 75
L 867 75
L 867 75
L 867 75
L 867 75
L 867 75
L 867 75
L 867 75
L 867 75
L 867 75
L 867 75
L 867 74
L 867 74
L 867 74
L 867 74
L 867 74
L 867 74
L 867 74
L 868 74
L 868 74
L 868 74
L 868 74
L 868 74
L 868 74
L 868 74
L 868 74
L 868 74
L 869 74
L 869 74
L 869 74
L 869 74
L 869 74
L 869 74
L 869 74
L 869 73
L 869 73
L 870 73
L 870 73
L 870 73
L 870 73
L 870 73
L 870 73
L 870 73
L 870 73
L 870 73
L 871 73
L 871 73
L 871 73
L 871 73
L 871 73
L 871 73
L 871 73
L 871 73
L 871 73
L 871 73
L 871 73
L 871 73
L 872 72
L 872 72
L 872 72
L 872 72
L 872 72
L 872 72
L 872 72
L 873 72
L 873 72
L 873 72
L 873 72
L 873 72
L 873 72
L 873 72
L 873 72
L 873 72
L 873 72
L 873 72
L 873 72
L 874 72
L 874 72
L 874 72
L 874 72
L 874 71
L 874 71
L 874 71
L 874 71
L 874 71
L 874 71
L 874 71
L 874 71
L 874 71
L 874 71
L 874 71
L 874 71
L 874 71
L 875 71
L 875 71
L 875 71
L 875 71
L 875 71
L 875 71
L 875 71
L 875 71
L 875 71
L 875 71
L 875 70
L 876 70
L 876 70
L 876 70
L 876 70
L 876 70
L 877 70
L 877 70
L 877 70
L 877 70
L 877 70
L 877 70
L 877 70
L 877 70
L 877 70
L 877 70
L 877 70
L 877 70
L 877 70
L 877 70
L 878 70
L 878 70
L 878 70
L 878 69
L 878 69
L 878 69
L 878 69
L 878 69
L 878 69
L 878 69
L 878 69
L 878 69
L 878 69
L 879 69
L 879 69
L 879 69
L 879 69
L 879 69
L 879 69
L 879 69
L 879 69
L 879 69
L 879 69
L 879 69
L 879 69
L 879 69
L 879 68
L 879 68
L 879 68
L 879 68
L 879 68
L 879 68
L 879 68
L 879 68
L 879 68
L 879 68
L 879 68
L 879 68
L 879 68
L 879 68
L 879 68
L 879 68
L 879 68
L 879 68
L 879 68
L 879 68
L 879 68
L 879 68
L 879 68
L 879 67
L 879 67
L 879 67
L 879 67
L 879 67
L 879 67
L 879 67
L 880 67
L 880 67
L 880 67
L 880 67
L 880 67
L 880 67
L 880 67
L 880 67
L 880 67
L 880 67
L 880 67
L 880 67
L 880 67
L 880 67
L 880 67
L 880 67
L 880 66
L 880 66
L 880 66
L 880 66
L 880 66
L 881 66
L 881 66
L 881 66
L 881 66
L 881 66
L 881 66
L 881 66
L 881 66
L 881 66
L 881 66
L 881 66
L 881 66
L 881 66
L 881 66
L 881 66
L 881 66
L 881 66
L 881 66
L 881 65
L 881 65
L 881 65
L 881 65
L 881 65
L 881 65
L 881 65
L 881 65
L 881 65
L 881 65
L 881 65
L 881 65
L 881 65
L 881 65
L 881 65
L 881 65
L 881 65
L 881 65
L 881 65
L 881 65
L 881 65
L 881 65
L 881 65
L 881 64
L 882 64
L 882 64
L 882 64
L 882 64
L 882 64
L 882 64
L 882 64
L 882 64
L 882 64
L 882 64
L 882 64
L 882 64
L 882 64
L 882 64
L 882 64
L 882 64
L 882 64
L 882 64
L 883 64
L 883 64
L 883 64
L 883 64
L 883 63
L 883 63
L 883 63
L 883 63
L 883 63
L 883 63
L 883 63
L 883 63
L 883 63
L 883 63
L 883 63
L 883 63
L 883 63
L 883 63
L 883 63
L 883 63
L 883 63
L 883 63
L 883 63
L 883 63
L 883 63
L 883 63
L 883 63
L 883 62
L 883 62
L 883 62
L 883 62
L 883 62
L 883 62
L 884 62
L 884 62
L 884 62
L 884 62
L 884 62
L 884 62
L 884 62
L 884 62
L 884 62
L 884 62
L 884 62
L 884 62
L 884 62
L 884 62
L 884 62
L 884 62
L 884 62
L 884 61
L 884 61
L 884 61
L 884 61
L 884 61
L 884 61
L 884 61
L 884 61
L 884 61
L 884 61
L 884 61
L 884 61
L 884 61
L 884 61
L 884 61
L 884 61
L 884 61
L 884 61
L 884 61
L 884 61
L 884 61
L 884 61
L 885 60
L 885 60
L 885 60
L 885 60
L 885 60
L 885 60
L 885 60
L 885 60
L 885 60
L 885 60
L 885 60
L 885 60
L 885 60
L 885 60
L 885 60
L 885 60
L 885 60
L 885 60
L 885 60
L 885 60
L 885 60
L 885 60
L 885 60
L 885 59
L 885 59
L 885 59
L 885 59
L 885 59
L 885 59
L 885 59
L 885 59
L 885 59
L 885 59
L 885 59
L 885 59
L 885 59
L 885 59
L 885 59
L 885 59
L 885 59
L 885 59
L 885 59
L 885 59
L 885 59
L 885 59
L 885 59
L 885 58
L 885 58
L 885 58
L 885 58
L 885 58
L 885 58
L 885 58
L 885 58
L 885 58
L 885 58
L 885 58
L 885 58
L 885 58
L 885 58
L 885 58
L 885 58
L 885 58
L 885 58
L 885 58
L 885 58
L 885 58
L 885 58
L 886 58
L 886 57
L 886 57
L 886 57
L 886 57
L 886 57
L 886 57
L 886 57
L 886 57
L 886 57
L 886 57
L 886 57
L 886 57
L 886 57
L 886 57
L 886 57
L 886 57
L 886 57
L 886 57
L 886 57
L 886 57
L 886 57
L 886 57
L 886 57
L 886 56
L 886 56
L 886 56
L 886 56
L 886 56
L 886 56
L 886 56
L 886 56
L 886 56
L 886 56
L 886 56
L 886 56
L 886 56
L 886 56
L 886 56
L 886 56
L 886 56
L 886 56
L 886 56
L 886 56
L 886 56
L 886 56
L 886 56
L 886 55
L 886 55
L 886 55
L 886 55
L 886 55
L 886 55
L 886 55
L 886 55
L 886 55
L 886 55
L 886 55
L 886 55
L 886 55
L 886 55
L 886 55
L 886 55
L 886 55
L 886 55
L 886 55
L 886 55
L 886 55
L 886 55
L 886 55
L 886 54
L 886 54
L 887 54
L 887 54
L 887 54
L 887 54
L 887 54
L 887 54
L 887 54
L 887 54
L 887 54
L 887 54
L 887 54
L 887 54
L 887 54
L 887 54
L 887 54
L 887 54
L 887 54
L 887 54
L 887 54
L 887 54
L 887 54
L 887 53
L 887 53
L 887 53
L 887 53
L 887 53
L 888 53
L 888 53
L 888 53
L 888 53
L 888 53
L 888 53
L 888 53
L 888 53
L 888 53
L 888 53
L 888 53
L 888 53
L 888 53
L 889 53
L 889 53
L 889 53
L 889 53
L 889 53
L 889 52
L 889 52
L 889 52
L 889 52
L 889 52
L 889 52
L 889 52
L 889 52
L 889 52
L 889 52
L 889 52
L 889 52
L 889 52
L 889 52
L 889 52
L 889 52
L 889 52
L 889 52
L 889 52
L 889 52
L 889 52
L 889 52
L 889 52
L 889 51
L 889 51
L 889 51
L 889 51
L 889 51
L 889 51
L 889 51
L 889 51
L 889 51
L 889 51
L 889 51
L 889 51
L 889 51
L 889 51
L 889 51
L 889 51
L 890 51
L 890 51
L 890 51
L 890 51
L 890 51
L 890 51
L 890 51
L 890 50
L 890 50
L 890 50
L 890 50
L 890 50
L 890 50
L 890 50
L 890 50
L 890 50
L 890 50
L 890 50
L 890 50
L 890 50
L 890 50
L 891 50
L 891 50
L 891 50
L 891 50
L 891 50
L 891 50
L 891 50
L 891 50
L 891 50
L 891 49
L 891 49
L 892 49
L 892 49
L 892 49
L 892 49
L 892 49
L 892 49
L 892 49
L 892 49
L 892 49
L 892 49
L 892 49
L 893 49
L 893 49
L 893 49
L 893 49
L 893 49
L 893 49
L 893 49
L 893 49
L 893 49
L 893 49
L 893 48
L 893 48
L 894 48
L 894 48
L 894 48
L 894 48
L 894 48
L 894 48
L 894 48
L 894 48
L 894 48
L 894 48
L 894 48
L 894 48
L 894 48
L 894 48
L 894 48
L 894 48
L 894 48
L 894 48
L 894 48
L 894 48
L 894 48
L 894 47
L 894 47
L 894 47
L 894 47
L 894 47
L 894 47
L 894 47
L 895 47
L 895 47
L 895 47
L 895 47
L 895 47
L 895 47
L 895 47
L 895 47
L 895 47
L 895 47
L 895 47
L 895 47
L 895 47
L 895 47
L 895 47
L 895 47
L 895 46
L 895 46
L 895 46
L 895 46
L 896 46
L 896 46
L 896 46
L 896 46
L 896 46
L 896 46
L 896 46
L 896 46
L 896 46
L 896 46
L 896 46
L 896 46
L 896 46
L 896 46
L 896 46
L 896 46
L 896 46
L 896 46
L 896 46
L 896 45
L 896 45
L 896 45
L 896 45
L 896 45
L 896 45
L 896 45
L 896 45
L 896 45
L 896 45
L 896 45
L 896 45
L 896 45
L 896 45
L 896 45
L 897 45
L 897 45
L 897 45
L 897 45
L 897 45
L 897 45
L 897 45
L 897 45
L 897 44
L 897 44
L 897 44
L 897 44
L 897 44
L 897 44
L 897 44
L 897 44
L 897 44
L 898 44
L 898 44
L 898 44
L 898 44
L 898 44
L 898 44
L 898 44
L 898 44
L 898 44
L 898 44
L 898 44
L 898 44
L 898 44
L 898 43
L 898 43
L 898 43
L 898 43
L 898 43
L 898 43
L 898 43
L 898 43
L 898 43
L 898 43
L 898 43
L 898 43
L 898 43
L 898 43
L 898 43
L 898 43
L 898 43
L 898 43
L 898 43
L 898 43
L 898 43
L 898 43
L 899 43
L 899 42
L 899 42
L 899 42
L 899 42
L 899 42
L 900 42
L 900 42
L 900 42
L 900 42
L 900 42
L 900 42
L 900 42
L 900 42
L 900 42
L 900 42
L 900 42
L 900 42
L 901 42
L 901 42
L 901 42
L 901 42
L 901 42
L 901 42
L 901 41
L 901 41
L 901 41
L 901 41
L 901 41
L 901 41
L 901 41
L 901 41
L 901 41
L 901 41
L 901 41
L 901 41
L 901 41
L 901 41
L 901 41
L 902 41
L 902 41
L 902 41
L 902 41
L 902 41
L 902 41
L 902 41
L 902 41
L 902 40
L 902 40
L 902 40
L 902 40
L 902 40
L 902 40
L 902 40
L 902 40
L 902 40
L 902 40
L 902 40
L 902 40
L 902 40
L 902 40
L 902 40
L 902 40
L 902 40
L 902 40
L 902 40
L 902 40
L 903 40
L 903 40
L 903 40
L 903 39
L 903 39
L 903 39
L 903 39
L 903 39
L 903 39
L 903 39
L 903 39
L 903 39
L 903 39
L 903 39
L 903 39
L 903 39
L 903 39
L 903 39
L 903 39
L 904 39
L 904 39
L 904 39
L 904 39
L 904 39
L 904 39
L 904 39
L 904 38
L 904 38
L 904 38
L 904 38
L 904 38
L 904 38
L 904 38
L 904 38
L 904 38
L 904 38
L 904 38
L 904 38
L 905 38
L 905 38
L 905 38
L 905 38
L 905 38
L 905 38
L 905 38
L 905 38
L 905 38
L 906 38
L 906 38
L 906 37
L 906 37
L 906 37
L 906 37
L 906 37
L 906 37
L 906 37
L 906 37
L 906 37
L 906 37
L 906 37
L 906 37
L 906 37
L 907 37
L 907 37
L 907 37
L 907 37
L 907 37
L 907 37
L 907 37
L 907 37
L 907 37
L 907 37
L 907 36
L 907 36
L 908 36
L 908 36
L 908 36
L 908 36
L 908 36
L 908 36
L 908 36
L 908 36
L 908 36
L 908 36
L 908 36
L 908 36
L 908 36
L 909 36
L 909 36
L 909 36
L 909 36
L 909 36
L 909 36
L 909 36
L 910 36
L 910 35
L 910 35
L 910 35
L 910 35
L 910 35
L 910 35
L 910 35
L 910 35
L 910 35
L 910 35
L 911 35
L 911 35
L 911 35
L 911 35
L 911 35
L 911 35
L 912 35
L 912 35
L 912 35
L 912 35
L 912 35
L 913 35
L 913 35
L 913 34
L 913 34
L 913 34
L 913 34
L 913 34
L 913 34
L 913 34
L 914 34
L 914 34
L 914 34
L 914 34
L 914 34
L 914 34
L 914 34
L 914 34
L 915 34
L 915 34
L 915 34
L 915 34
L 915 34
L 915 34
L 916 34
L 916 34
L 916 33
L 916 33
L 916 33
L 916 33
L 916 33
L 916 33
L 916 33
L 916 33
L 916 33
L 916 33
L 917 33
L 917 33
L 917 33
L 917 33
L 917 33
L 917 33
L 917 33
L 917 33
L 917 33
L 917 33
L 917 33
L 917 33
L 917 33
L 917 32
L 917 32
L 917 32
L 917 32
L 918 32
L 918 32
L 918 32
L 918 32
L 918 32
L 918 32
L 918 32
L 918 32
L 918 32
L 918 32
L 918 32
L 918 32
L 918 32
L 918 32
L 918 32
L 918 32
L 918 32
L 918 32
L 918 32
L 918 31
L 918 31
L 918 31
L 918 31
L 918 31
L 919 31
L 919 31
L 919 31
L 919 31
L 919 31
L 919 31
L 919 31
L 919 31
L 919 31
L 919 31
L 919 31
L 919 31
L 919 31
L 919 31
L 919 31
L 919 31
L 919 31
L 919 31
L 919 30
L 919 30
L 919 30
L 919 30
L 919 30
L 919 30
L 920 30
L 920 30
L 920 30
L 920 30
L 920 30
L 920 30
L 920 30
L 920 30
L 921 30
L 921 30
L 921 30
L 921 30
L 921 30
L 921 30
L 922 30
L 922 30
L 922 30
L 922 29
L 922 29
L 922 29
L 922 29
L 922 29
L 922 29
L 922 29
L 923 29
L 923 29
L 923 29
L 923 29
L 923 29
L 923 29
L 923 29
L 923 29
L 923 29
L 923 29
L 923 29
L 924 29
L 924 29
L 924 29
L 924 29
L 924 29
L 924 28
L 924 28
L 924 28
L 924 28
L 924 28
L 925 28
L 925 28
L 925 28
L 925 28
L 925 28
L 925 28
L 925 28
L 926 28
L 926 28
L 926 28
L 926 28
L 926 28
L 926 28
L 926 28
L 927 28
L 927 28
L 927 28
L 927 28
L 927 27
L 927 27
L 927 27
L 928 27
L 928 27
L 928 27
L 928 27
L 928 27
L 928 27
L 928 27
L 928 27
L 928 27
L 928 27
L 928 27
L 928 27
L 928 27
L 928 27
L 928 27
L 928 27
L 928 27
L 929 27
L 929 27
L 929 26
L 929 26
L 929 26
L 929 26
L 929 26
L 929 26
L 929 26
L 929 26
L 929 26
L 929 26
L 929 26
L 929 26
L 929 26
L 929 26
L 929 26
L 929 26
L 929 26
L 929 26
L 929 26
L 929 26
L 929 26
L 930 26
L 930 26
L 930 25
L 930 25
L 930 25
L 930 25
L 930 25
L 930 25
L 930 25
L 930 25
L 930 25
L 930 25
L 930 25
L 931 25
L 931 25
L 931 25
L 931 25
L 931 25
L 931 25
L 931 25
L 931 25
L 931 25
L 931 25
L 931 25
L 931 25
L 931 24
L 931 24
L 932 24
L 932 24
L 932 24
L 932 24
L 932 24
L 932 24
L 932 24
L 932 24
L 932 24
L 932 24
L 932 24
L 933 24
L 933 24
L 933 24
L 933 24
L 933 24
L 933 24
L 933 24
L 933 24
L 933 24
L 933 24
L 933 23
L 934 23
L 934 23
L 934 23
L 934 23
L 934 23
L 934 23
L 934 23
L 934 23
L 934 23
L 934 23
L 934 23
L 934 23
L 934 23
L 934 23
L 934 23
L 934 23
L 935 23
L 935 23
L 935 23
L 935 23
L 935 23
L 935 23
L 935 22
L 935 22
L 936 22
L 936 22
L 936 22
L 936 22
L 936 22
L 936 22
L 936 22
L 936 22
L 936 22
L 936 22
L 936 22
L 936 22
L 936 22
L 936 22
L 936 22
L 936 22
L 936 22
L 937 22
L 937 22
L 937 22
L 937 22
L 937 21
L 938 21
L 938 21
L 938 21
L 938 21
L 938 21
L 938 21
L 938 21
L 938 21
L 938 21
L 938 21
L 938 21
L 938 21
L 939 21
L 939 21
L 939 21
L 939 21
L 939 21
L 940 21
L 940 21
L 940 21
L 940 21
L 940 21
L 940 20
L 940 20
L 940 20
L 941 20
L 941 20
L 941 20
L 941 20
L 941 20
L 941 20
L 941 20
L 941 20
L 941 20
L 941 20
L 941 20
L 942 20
L 942 20
L 942 20
L 942 20
L 943 20
L 943 20
L 943 20
L 943 20
L 943 20
L 944 19
L 944 19
L 944 19
L 944 19
L 944 19
L 944 19
L 945 19
L 945 19
L 945 19
L 945 19
L 945 19
L 945 19
L 945 19
L 945 19
L 945 19
L 945 19
L 945 19
L 945 19
L 945 19
L 945 19
L 946 19
L 946 19
L 946 19
L 946 18
L 946 18
L 946 18
L 946 18
L 946 18
L 946 18
L 946 18
L 946 18
L 946 18
L 946 18
L 946 18
L 946 18
L 946 18
L 946 18
L 946 18
L 946 18
L 946 18
L 947 18
L 947 18
L 947 18
L 947 18
L 947 18
L 947 18
L 947 17
L 947 17
L 947 17
L 947 17
L 947 17
L 948 17
L 948 17
L 948 17
L 948 17
L 948 17
L 948 17
L 948 17
L 948 17
L 948 17
L 948 17
L 948 17
L 949 17
L 949 17
L 949 17
L 949 17
L 949 17
L 949 17
L 949 17
L 949 16
L 949 16
L 949 16
L 950 16
L 950 16
L 950 16
L 950 16
L 950 16
L 950 16
L 950 16
L 950 16
L 950 16
L 950 16
L 950 16
L 951 16
L 951 16
L 951 16
L 951 16
L 951 16
L 951 16
L 951 16
L 951 16
L 951 16
L 952 15
L 952 15
L 952 15
L 952 15
L 953 15
L 953 15
L 953 15
L 953 15
L 954 15
L 954 15
L 954 15
L 955 15
L 955 15
L 955 15
L 955 15
L 955 15
L 955 15
L 955 15
L 955 15
L 955 15
L 955 15
L 955 15
L 956 15
L 956 14
L 956 14
L 956 14
L 956 14
L 956 14
L 956 14
L 956 14
L 957 14
L 957 14
L 957 14
L 957 14
L 957 14
L 957 14
L 957 14
L 957 14
L 957 14
L 957 14
L 957 14
L 957 14
L 957 14
L 957 14
L 957 14
L 957 14
L 957 13
L 957 13
L 957 13
L 957 13
L 957 13
L 957 13
L 957 13
L 957 13
L 957 13
L 957 13
L 957 13" style="stroke-width:2;stroke:rgba(129,199,239,1.0);fill:none"/></svg>