<!-- stars: 9319 -->
<svg xmlns="http://www.w3.org/2000/svg" xmlns:xlink="http://www.w3.org/1999/xlink" width="1024" height="400">\n<path  d="M 0 0
L 1024 0
L 1024 400
L 0 400
L 0 0" style="stroke-width:0;stroke:rgba(255,255,255,1.0);fill:rgba(255,255,255,1.0)"/><path  d="M 38 11
L 957 11
L 957 351
L 38 351
L 38 11" style="stroke-width:0;stroke:rgba(255,255,255,1.0);fill:rgba(255,255,255,1.0)"/><path  d="M 38 351
L 957 351" style="stroke-width:2;stroke:rgba(85,85,85,1.0);fill:none"/><path  d="M 38 351
L 38 356" style="stroke-width:2;stroke:rgba(85,85,85,1.0);fill:none"/><text x="5" y="373" style="stroke-width:0;stroke:none;fill:rgba(51,51,51,1.0);font-size:12.8px;font-family:'Roboto Medium',sans-serif">2018-09-25</text><path  d="M 153 351
L 153 356" style="stroke-width:2;stroke:rgba(85,85,85,1.0);fill:none"/><text x="120" y="373" style="stroke-width:0;stroke:none;fill:rgba(51,51,51,1.0);font-size:12.8px;font-family:'Roboto Medium',sans-serif">2019-02-19</text><path  d="M 268 351
L 268 356" style="stroke-width:2;stroke:rgba(85,85,85,1.0);fill:none"/><text x="235" y="373" style="stroke-width:0;stroke:none;fill:rgba(51,51,51,1.0);font-size:12.8px;font-family:'Roboto Medium',sans-serif">2019-07-16</text><path  d="M 383 351
L 383 356" style="stroke-width:2;stroke:rgba(85,85,85,1.0);fill:none"/><text x="350" y="373" style="stroke-width:0;stroke:none;fill:rgba(51,51,51,1.0);font-size:12.8px;font-family:'Roboto Medium',sans-serif">2019-12-10</text><path  d="M 498 351
L 498 356" style="stroke-width:2;stroke:rgba(85,85,85,1.0);fill:none"/><text x="465" y="373" style="stroke-width:0;stroke:none;fill:rgba(51,51,51,1.0);font-size:12.8px;font-family:'Roboto Medium',sans-serif">2020-05-05</text><path  d="M 613 351
L 613 356" style="stroke-width:2;stroke:rgba(85,85,85,1.0);fill:none"/><text x="580" y="373" style="stroke-width:0;stroke:none;fill:rgba(51,51,51,1.0);font-size:12.8px;font-family:'Roboto Medium',sans-serif">2020-09-29</text><path  d="M 728 351
L 728 356" style="stroke-width:2;stroke:rgba(85,85,85,1.0);fill:none"/><text x="695" y="373" style="stroke-width:0;stroke:none;fill:rgba(51,51,51,1.0);font-size:12.8px;font-family:'Roboto Medium',sans-serif">2021-02-24</text><path  d="M 843 351
L 843 356" style="stroke-width:2;stroke:rgba(85,85,85,1.0);fill:none"/><text x="810" y="373" style="stroke-width:0;stroke:none;fill:rgba(51,51,51,1.0);font-size:12.8px;font-family:'Roboto Medium',sans-serif">2021-07-21</text><path  d="M 957 351
L 957 356" style="stroke-width:2;stroke:rgba(85,85,85,1.0);fill:none"/><text x="924" y="373" style="stroke-width:0;stroke:none;fill:rgba(51,51,51,1.0);font-size:12.8px;font-family:'Roboto Medium',sans-serif">2021-12-15</text><text x="483" y="395" style="stroke-width:0;stroke:none;fill:rgba(51,51,51,1.0);font-size:12.8px;font-family:'Roboto Medium',sans-serif">Time</text><path  d="M 959 351
L 959 11" style="stroke-width:2;stroke:rgba(85,85,85,1.0);fill:none"/><path  d="M 959 351
L 964 351" style="stroke-width:2;stroke:rgba(85,85,85,1.0);fill:none"/><text x="969" y="357" style="stroke-width:0;stroke:none;fill:rgba(51,51,51,1.0);font-size:12.8px;font-family:'Roboto Medium',sans-serif">0</text><path  d="M 959 308
L 964 308" style="stroke-width:2;stroke:rgba(85,85,85,1.0);fill:none"/><text x="969" y="314" style="stroke-width:0;stroke:none;fill:rgba(51,51,51,1.0);font-size:12.8px;font-family:'Roboto Medium',sans-serif">1180</text><path  d="M 959 266
L 964 266" style="stroke-width:2;stroke:rgba(85,85,85,1.0);fill:none"/><text x="969" y="272" style="stroke-width:0;stroke:none;fill:rgba(51,51,51,1.0);font-size:12.8px;font-family:'Roboto Medium',sans-serif">2350</text><path  d="M 959 223
L 964 223" style="stroke-width:2;stroke:rgba(85,85,85,1.0);fill:none"/><text x="969" y="229" style="stroke-width:0;stroke:none;fill:rgba(51,51,51,1.0);font-size:12.8px;font-family:'Roboto Medium',sans-serif">3530</text><path  d="M 959 181
L 964 181" style="stroke-width:2;stroke:rgba(85,85,85,1.0);fill:none"/><text x="969" y="187" style="stroke-width:0;stroke:none;fill:rgba(51,51,51,1.0);font-size:12.8px;font-family:'Roboto Medium',sans-serif">4700</text><path  d="M 959 138
L 964 138" style="stroke-width:2;stroke:rgba(85,85,85,1.0);fill:none"/><text x="969" y="144" style="stroke-width:0;stroke:none;fill:rgba(51,51,51,1.0);font-size:12.8px;font-family:'Roboto Medium',sans-serif">5880</text><path  d="M 959 96
L 964 96" style="stroke-width:2;stroke:rgba(85,85,85,1.0);fill:none"/><text x="969" y="102" style="stroke-width:0;stroke:none;fill:rgba(51,51,51,1.0);font-size:12.8px;font-family:'Roboto Medium',sans-serif">7050</text><path  d="M 959 53
L 964 53" style="stroke-width:2;stroke:rgba(85,85,85,1.0);fill:none"/><text x="969" y="59" style="stroke-width:0;stroke:none;fill:rgba(51,51,51,1.0);font-size:12.8px;font-family:'Roboto Medium',sans-serif">8230</text><path  d="M 959 11
L 964 11" style="stroke-width:2;stroke:rgba(85,85,85,1.0);fill:none"/><text x="969" y="17" style="stroke-width:0;stroke:none;fill:rgba(51,51,51,1.0);font-size:12.8px;font-family:'Roboto Medium',sans-serif">9400</text><text x="1009" y="150" style="stroke-width:0;stroke:none;fill:rgba(51,51,51,1.0);font-size:12.8px;font-family:'Roboto Medium',sans-serif" transform="rotate(90.00,1009,150)">Stargazers</text><path  d="M 38 351
L 40 350
L 50 350
L 50 350
L 51 350
L 51 350
L 51 350
L 54 350
L 54 350
L 55 350
L 57 350
L 57 350
L 58 350
L 58 350
L 58 350
L 58 350
L 61 350
L 67 350
L 67 350
L 69 350
L 69 350
L 70 350
L 72 350
L 72 350
L 74 350
L 74 350
L 79 350
L 83 350
L 88 349
L 88 349
L 93 349
L 94 349
L 94 349
L 94 349
L 94 349
L 94 349
L 94 349
L 94 349
L 95 349
L 95 349
L 95 349
L 97 349
L 98 349
L 98 349
L 99 349
L 99 349
L 99 349
L 100 349
L 100 349
L 101 349
L 103 349
L 103 349
L 104 349
L 105 349
L 107 349
L 107 349
L 108 348
L 109 348
L 109 348
L 110 348
L 110 348
L 110 348
L 111 348
L 111 348
L 111 348
L 112 348
L 112 348
L 112 348
L 112 348
L 112 348
L 112 348
L 113 348
L 113 348
L 114 348
L 115 348
L 115 348
L 116 348
L 116 348
L 117 348
L 118 348
L 120 348
L 120 348
L 120 348
L 120 347
L 120 347
L 120 347
L 121 347
L 121 347
L 122 347
L 122 347
L 123 347
L 123 347
L 125 347
L 126 347
L 126 347
L 126 347
L 127 347
L 127 347
L 129 347
L 131 347
L 132 347
L 133 347
L 133 347
L 133 347
L 134 347
L 141 347
L 144 347
L 148 347
L 148 347
L 149 347
L 150 347
L 150 346
L 151 346
L 151 346
L 153 346
L 153 346
L 153 346
L 154 346
L 154 346
L 154 346
L 154 346
L 155 346
L 156 346
L 158 346
L 158 346
L 160 346
L 161 346
L 163 346
L 164 346
L 165 346
L 165 346
L 166 346
L 166 346
L 167 346
L 167 346
L 168 346
L 168 346
L 169 346
L 170 346
L 172 345
L 172 345
L 174 345
L 174 345
L 175 345
L 176 345
L 176 345
L 176 345
L 177 345
L 177 345
L 181 345
L 181 345
L 182 345
L 182 345
L 182 345
L 183 345
L 183 345
L 183 345
L 184 345
L 184 345
L 184 345
L 185 345
L 185 345
L 185 345
L 186 345
L 186 345
L 186 345
L 186 344
L 186 344
L 186 344
L 187 344
L 187 344
L 187 344
L 187 344
L 187 344
L 187 344
L 188 344
L 188 344
L 188 344
L 189 344
L 190 344
L 191 344
L 191 344
L 192 344
L 192 344
L 192 344
L 192 344
L 193 344
L 193 344
L 193 344
L 193 344
L 193 344
L 194 344
L 195 344
L 197 344
L 197 343
L 197 343
L 199 343
L 200 343
L 202 343
L 203 343
L 203 343
L 203 343
L 203 343
L 203 343
L 204 343
L 204 343
L 204 343
L 206 343
L 206 343
L 206 343
L 207 343
L 207 343
L 208 343
L 208 343
L 209 343
L 209 343
L 209 343
L 210 343
L 211 343
L 211 343
L 212 343
L 213 343
L 213 342
L 215 342
L 215 342
L 216 342
L 216 342
L 216 342
L 217 342
L 217 342
L 220 342
L 221 342
L 224 342
L 225 342
L 226 342
L 227 342
L 229 342
L 229 342
L 229 342
L 231 342
L 235 342
L 235 342
L 235 342
L 236 342
L 236 342
L 237 342
L 237 342
L 237 342
L 237 342
L 238 341
L 243 341
L 246 341
L 247 341
L 247 341
L 247 341
L 247 341
L 247 341
L 247 341
L 247 341
L 247 341
L 247 341
L 248 341
L 249 341
L 251 341
L 252 341
L 252 341
L 253 341
L 254 341
L 254 341
L 255 341
L 256 341
L 256 341
L 257 341
L 257 341
L 257 341
L 257 341
L 258 341
L 258 340
L 258 340
L 258 340
L 259 340
L 259 340
L 259 340
L 260 340
L 260 340
L 260 340
L 260 340
L 261 340
L 261 340
L 261 340
L 262 340
L 263 340
L 264 340
L 265 340
L 265 340
L 266 340
L 267 340
L 267 340
L 268 340
L 268 340
L 270 340
L 272 340
L 273 340
L 274 340
L 276 340
L 277 339
L 278 339
L 279 339
L 279 339
L 279 339
L 280 339
L 284 339
L 288 339
L 289 339
L 290 339
L 292 339
L 293 339
L 294 339
L 297 339
L 299 339
L 299 339
L 300 339
L 300 339
L 303 339
L 308 339
L 308 339
L 308 339
L 309 339
L 309 339
L 319 339
L 320 339
L 321 339
L 321 338
L 321 338
L 321 338
L 321 338
L 321 338
L 321 338
L 321 338
L 321 338
L 322 338
L 322 338
L 322 338
L 324 338
L 327 338
L 327 338
L 327 338
L 333 338
L 334 338
L 335 338
L 336 338
L 336 338
L 337 338
L 338 338
L 339 338
L 339 338
L 339 338
L 340 338
L 341 338
L 341 338
L 342 337
L 344 337
L 345 337
L 345 337
L 345 337
L 350 337
L 361 337
L 362 337
L 365 337
L 367 337
L 368 337
L 369 337
L 372 337
L 372 337
L 372 337
L 373 337
L 373 337
L 374 337
L 374 337
L 377 337
L 377 337
L 380 337
L 381 337
L 385 337
L 385 337
L 385 337
L 391 337
L 393 337
L 393 336
L 395 336
L 395 336
L 395 336
L 395 336
L 395 336
L 396 336
L 396 336
L 396 336
L 396 336
L 397 336
L 398 336
L 399 336
L 403 336
L 404 336
L 405 336
L 409 336
L 409 336
L 409 336
L 410 336
L 410 336
L 411 336
L 412 336
L 415 336
L 415 336
L 419 336
L 420 336
L 421 335
L 421 335
L 423 335
L 425 335
L 427 335
L 429 335
L 433 335
L 434 335
L 435 335
L 435 335
L 438 335
L 445 335
L 447 335
L 449 335
L 450 335
L 451 335
L 451 335
L 452 335
L 453 335
L 453 335
L 453 335
L 455 335
L 455 335
L 455 335
L 455 335
L 455 335
L 456 335
L 457 335
L 457 334
L 458 334
L 458 334
L 459 334
L 460 334
L 460 334
L 460 334
L 460 334
L 460 334
L 461 334
L 461 334
L 461 334
L 461 334
L 461 334
L 462 334
L 462 334
L 463 334
L 464 334
L 465 334
L 465 334
L 466 334
L 466 334
L 467 334
L 467 334
L 467 334
L 468 334
L 468 334
L 468 334
L 469 333
L 469 333
L 469 333
L 470 333
L 470 333
L 470 333
L 470 333
L 472 333
L 473 333
L 474 333
L 475 333
L 475 333
L 475 333
L 475 333
L 476 333
L 476 333
L 477 333
L 477 333
L 477 333
L 477 333
L 477 333
L 477 333
L 477 333
L 477 333
L 477 333
L 477 333
L 477 333
L 478 332
L 478 332
L 478 332
L 478 332
L 478 332
L 479 332
L 479 332
L 480 332
L 480 332
L 480 332
L 480 332
L 480 332
L 481 332
L 481 332
L 483 332
L 483 332
L 484 332
L 484 332
L 484 332
L 484 332
L 486 332
L 486 332
L 486 332
L 486 332
L 486 332
L 486 332
L 486 332
L 486 332
L 486 331
L 486 331
L 486 331
L 486 331
L 486 331
L 486 331
L 486 331
L 486 331
L 486 331
L 486 331
L 486 331
L 486 331
L 487 331
L 487 331
L 487 331
L 487 331
L 487 331
L 487 331
L 487 331
L 487 331
L 487 331
L 487 331
L 487 331
L 488 331
L 488 331
L 488 331
L 488 331
L 489 330
L 489 330
L 489 330
L 489 330
L 489 330
L 490 330
L 490 330
L 491 330
L 491 330
L 491 330
L 492 330
L 492 330
L 492 330
L 492 330
L 492 330
L 493 330
L 493 330
L 493 330
L 493 330
L 493 330
L 494 330
L 495 330
L 495 330
L 496 330
L 496 330
L 497 330
L 498 330
L 498 330
L 499 329
L 499 329
L 499 329
L 499 329
L 499 329
L 499 329
L 499 329
L 500 329
L 500 329
L 501 329
L 502 329
L 502 329
L 502 329
L 503 329
L 503 329
L 503 329
L 504 329
L 504 329
L 504 329
L 505 329
L 505 329
L 505 329
L 505 329
L 506 329
L 506 329
L 506 329
L 506 329
L 506 329
L 507 328
L 507 328
L 508 328
L 508 328
L 509 328
L 510 328
L 510 328
L 510 328
L 511 328
L 511 328
L 512 328
L 512 328
L 513 328
L 513 328
L 513 328
L 513 328
L 514 328
L 514 328
L 514 328
L 515 328
L 515 328
L 515 328
L 515 328
L 515 328
L 515 328
L 516 328
L 516 328
L 516 327
L 516 327
L 516 327
L 516 327
L 516 327
L 517 327
L 517 327
L 518 327
L 518 327
L 519 327
L 520 327
L 520 327
L 520 327
L 520 327
L 521 327
L 521 327
L 521 327
L 522 327
L 522 327
L 522 327
L 523 327
L 523 327
L 523 327
L 523 327
L 523 327
L 523 327
L 523 327
L 523 327
L 523 326
L 523 326
L 523 326
L 523 326
L 523 326
L 523 326
L 524 326
L 524 326
L 524 326
L 524 326
L 524 326
L 525 326
L 525 326
L 525 326
L 525 326
L 526 326
L 526 326
L 527 326
L 527 326
L 528 326
L 528 326
L 528 326
L 528 326
L 529 326
L 529 326
L 529 326
L 529 326
L 530 326
L 530 325
L 530 325
L 530 325
L 530 325
L 530 325
L 530 325
L 530 325
L 530 325
L 530 325
L 530 325
L 530 325
L 530 325
L 530 325
L 531 325
L 531 325
L 531 325
L 531 325
L 531 325
L 531 325
L 531 325
L 532 325
L 532 325
L 533 325
L 533 325
L 533 325
L 533 325
L 534 325
L 534 324
L 534 324
L 534 324
L 534 324
L 534 324
L 534 324
L 534 324
L 535 324
L 535 324
L 535 324
L 536 324
L 536 324
L 537 324
L 537 324
L 537 324
L 539 324
L 539 324
L 539 324
L 539 324
L 539 324
L 539 324
L 540 324
L 540 324
L 540 324
L 541 324
L 541 324
L 541 324
L 541 324
L 541 323
L 542 323
L 542 323
L 542 323
L 542 323
L 543 323
L 543 323
L 543 323
L 543 323
L 543 323
L 544 323
L 544 323
L 544 323
L 544 323
L 545 323
L 545 323
L 546 323
L 546 323
L 546 323
L 546 323
L 546 323
L 547 323
L 548 323
L 548 323
L 548 323
L 548 323
L 549 323
L 549 323
L 549 322
L 550 322
L 550 322
L 552 322
L 552 322
L 552 322
L 552 322
L 553 322
L 553 322
L 553 322
L 554 322
L 554 322
L 554 322
L 554 322
L 554 322
L 555 322
L 555 322
L 555 322
L 555 322
L 555 322
L 556 322
L 556 322
L 556 322
L 556 322
L 557 322
L 557 322
L 557 322
L 557 321
L 557 321
L 557 321
L 558 321
L 558 321
L 558 321
L 558 321
L 559 321
L 559 321
L 559 321
L 560 321
L 560 321
L 560 321
L 561 321
L 561 321
L 561 321
L 561 321
L 562 321
L 562 321
L 562 321
L 562 321
L 563 321
L 563 321
L 563 321
L 563 321
L 563 321
L 563 321
L 563 321
L 564 320
L 564 320
L 564 320
L 564 320
L 564 320
L 564 320
L 564 320
L 565 320
L 565 320
L 565 320
L 565 320
L 565 320
L 565 320
L 565 320
L 566 320
L 566 320
L 566 320
L 566 320
L 566 320
L 567 320
L 567 320
L 568 320
L 568 320
L 568 320
L 568 320
L 568 320
L 569 320
L 569 320
L 569 319
L 570 319
L 570 319
L 570 319
L 570 319
L 570 319
L 570 319
L 571 319
L 571 319
L 571 319
L 572 319
L 572 319
L 573 319
L 573 319
L 573 319
L 573 319
L 573 319
L 574 319
L 574 319
L 574 319
L 574 319
L 574 319
L 575 319
L 575 319
L 575 319
L 575 319
L 576 319
L 576 318
L 576 318
L 576 318
L 576 318
L 576 318
L 577 318
L 578 318
L 578 318
L 579 318
L 579 318
L 579 318
L 579 318
L 579 318
L 579 318
L 579 318
L 580 318
L 580 318
L 581 318
L 581 318
L 581 318
L 581 318
L 581 318
L 581 318
L 582 318
L 582 318
L 582 318
L 583 318
L 583 318
L 584 317
L 584 317
L 585 317
L 585 317
L 586 317
L 586 317
L 587 317
L 588 317
L 589 317
L 590 317
L 590 317
L 590 317
L 591 317
L 591 317
L 591 317
L 592 317
L 592 317
L 593 317
L 593 317
L 593 317
L 594 317
L 594 317
L 594 317
L 594 317
L 595 317
L 595 317
L 595 317
L 595 317
L 595 316
L 596 316
L 596 316
L 597 316
L 597 316
L 597 316
L 597 316
L 598 316
L 598 316
L 598 316
L 598 316
L 598 316
L 598 316
L 598 316
L 598 316
L 598 316
L 598 316
L 599 316
L 600 316
L 600 316
L 600 316
L 600 316
L 600 316
L 600 316
L 601 316
L 601 316
L 601 316
L 603 315
L 603 315
L 603 315
L 604 315
L 604 315
L 605 315
L 606 315
L 607 315
L 607 315
L 607 315
L 608 315
L 608 315
L 608 315
L 608 315
L 608 315
L 611 315
L 611 315
L 611 315
L 611 315
L 611 315
L 611 315
L 611 315
L 612 315
L 612 315
L 612 315
L 612 315
L 612 315
L 613 315
L 613 314
L 613 314
L 613 314
L 613 314
L 615 314
L 616 314
L 617 314
L 618 314
L 619 314
L 620 314
L 620 314
L 620 314
L 620 314
L 621 314
L 621 314
L 622 314
L 622 314
L 622 314
L 622 314
L 622 314
L 623 314
L 623 314
L 623 314
L 623 314
L 623 314
L 623 314
L 623 314
L 623 313
L 623 313
L 624 313
L 624 313
L 624 313
L 624 313
L 625 313
L 625 313
L 625 313
L 625 313
L 625 313
L 625 313
L 625 313
L 625 313
L 626 313
L 626 313
L 626 313
L 626 313
L 626 313
L 628 313
L 628 313
L 628 313
L 628 313
L 629 313
L 629 313
L 629 313
L 629 313
L 630 313
L 630 312
L 630 312
L 630 312
L 630 312
L 631 312
L 631 312
L 631 312
L 631 312
L 631 312
L 631 312
L 633 312
L 633 312
L 633 312
L 634 312
L 634 312
L 634 312
L 634 312
L 634 312
L 634 312
L 634 312
L 634 312
L 634 312
L 634 312
L 634 312
L 634 312
L 635 312
L 635 312
L 635 312
L 635 311
L 635 311
L 635 311
L 635 311
L 635 311
L 635 311
L 636 311
L 636 311
L 636 311
L 636 311
L 636 311
L 636 311
L 636 311
L 636 311
L 636 311
L 636 311
L 636 311
L 637 311
L 637 311
L 637 311
L 637 311
L 637 311
L 637 311
L 637 311
L 637 311
L 638 311
L 638 311
L 638 310
L 638 310
L 638 310
L 639 310
L 639 310
L 639 310
L 639 310
L 640 310
L 640 310
L 640 310
L 640 310
L 640 310
L 640 310
L 640 310
L 640 310
L 640 310
L 640 310
L 640 310
L 640 310
L 640 310
L 640 310
L 641 310
L 641 310
L 641 310
L 641 310
L 641 310
L 642 310
L 643 310
L 643 309
L 643 309
L 643 309
L 644 309
L 644 309
L 644 309
L 644 309
L 644 309
L 644 309
L 645 309
L 645 309
L 645 309
L 645 309
L 645 309
L 645 309
L 646 309
L 646 309
L 646 309
L 646 309
L 646 309
L 647 309
L 647 309
L 647 309
L 647 309
L 647 309
L 648 309
L 648 309
L 648 309
L 648 308
L 648 308
L 649 308
L 649 308
L 649 308
L 650 308
L 650 308
L 650 308
L 650 308
L 650 308
L 651 308
L 651 308
L 651 308
L 651 308
L 651 308
L 651 308
L 652 308
L 652 308
L 652 308
L 652 308
L 652 308
L 652 308
L 653 308
L 653 308
L 653 308
L 654 308
L 654 308
L 654 307
L 654 307
L 654 307
L 655 307
L 655 307
L 655 307
L 655 307
L 655 307
L 655 307
L 655 307
L 656 307
L 656 307
L 657 307
L 657 307
L 657 307
L 658 307
L 658 307
L 658 307
L 658 307
L 658 307
L 658 307
L 658 307
L 659 307
L 659 307
L 660 307
L 660 307
L 660 307
L 661 307
L 661 306
L 661 306
L 661 306
L 661 306
L 661 306
L 662 306
L 662 306
L 662 306
L 662 306
L 662 306
L 662 306
L 662 306
L 662 306
L 662 306
L 662 306
L 663 306
L 663 306
L 663 306
L 663 306
L 663 306
L 663 306
L 665 306
L 666 306
L 666 306
L 666 306
L 666 306
L 667 306
L 667 306
L 667 305
L 667 305
L 667 305
L 667 305
L 668 305
L 668 305
L 668 305
L 668 305
L 668 305
L 668 305
L 668 305
L 669 305
L 669 305
L 669 305
L 669 305
L 669 305
L 669 305
L 669 305
L 671 305
L 671 305
L 671 305
L 671 305
L 671 305
L 671 305
L 672 305
L 672 305
L 672 305
L 672 304
L 672 304
L 673 304
L 673 304
L 673 304
L 673 304
L 673 304
L 674 304
L 674 304
L 675 304
L 675 304
L 675 304
L 675 304
L 676 304
L 676 304
L 677 304
L 677 304
L 677 304
L 677 304
L 677 304
L 677 304
L 678 304
L 678 304
L 678 304
L 678 304
L 678 304
L 678 304
L 678 304
L 678 303
L 678 303
L 678 303
L 678 303
L 679 303
L 679 303
L 679 303
L 679 303
L 679 303
L 679 303
L 679 303
L 679 303
L 680 303
L 680 303
L 680 303
L 680 303
L 680 303
L 680 303
L 680 303
L 680 303
L 681 303
L 681 303
L 681 303
L 682 303
L 682 303
L 682 303
L 682 303
L 682 303
L 683 302
L 683 302
L 683 302
L 683 302
L 683 302
L 683 302
L 683 302
L 683 302
L 683 302
L 683 302
L 683 302
L 684 302
L 684 302
L 684 302
L 684 302
L 685 302
L 685 302
L 685 302
L 686 302
L 686 302
L 687 302
L 687 302
L 688 302
L 688 302
L 688 302
L 688 302
L 688 302
L 688 301
L 688 301
L 689 301
L 689 301
L 689 301
L 689 301
L 689 301
L 690 301
L 690 301
L 690 301
L 690 301
L 690 301
L 690 301
L 690 301
L 690 301
L 690 301
L 690 301
L 690 301
L 690 301
L 690 301
L 691 301
L 691 301
L 691 301
L 691 301
L 692 301
L 692 301
L 692 301
L 693 301
L 693 300
L 694 300
L 694 300
L 694 300
L 694 300
L 694 300
L 694 300
L 694 300
L 694 300
L 694 300
L 695 300
L 695 300
L 695 300
L 695 300
L 695 300
L 695 300
L 696 300
L 696 300
L 696 300
L 697 300
L 697 300
L 697 300
L 697 300
L 697 300
L 697 300
L 697 300
L 698 300
L 698 300
L 699 299
L 699 299
L 699 299
L 699 299
L 699 299
L 700 299
L 700 299
L 700 299
L 700 299
L 701 299
L 701 299
L 701 299
L 701 299
L 701 299
L 701 299
L 702 299
L 702 299
L 702 299
L 702 299
L 702 299
L 702 299
L 702 299
L 703 299
L 703 299
L 703 299
L 703 299
L 704 299
L 704 298
L 704 298
L 704 298
L 704 298
L 704 298
L 704 298
L 704 298
L 704 298
L 704 298
L 704 298
L 705 298
L 705 298
L 705 298
L 705 298
L 705 298
L 705 298
L 705 298
L 705 298
L 706 298
L 706 298
L 706 298
L 706 298
L 707 298
L 707 298
L 707 298
L 708 298
L 708 298
L 709 298
L 709 297
L 709 297
L 709 297
L 709 297
L 709 297
L 709 297
L 709 297
L 709 297
L 710 297
L 710 297
L 710 297
L 710 297
L 711 297
L 711 297
L 712 297
L 712 297
L 712 297
L 712 297
L 712 297
L 712 297
L 712 297
L 712 297
L 712 297
L 713 297
L 713 297
L 713 297
L 713 297
L 713 296
L 713 296
L 714 296
L 714 296
L 714 296
L 714 296
L 714 296
L 714 296
L 714 296
L 714 296
L 715 296
L 715 296
L 715 296
L 715 296
L 715 296
L 716 296
L 716 296
L 716 296
L 717 296
L 717 296
L 718 296
L 719 296
L 719 296
L 719 296
L 719 296
L 719 296
L 719 296
L 721 296
L 721 295
L 721 295
L 722 295
L 722 295
L 722 295
L 722 295
L 722 295
L 723 295
L 723 295
L 723 295
L 723 295
L 723 295
L 723 295
L 724 295
L 724 295
L 724 295
L 724 295
L 724 295
L 724 295
L 724 295
L 725 295
L 725 295
L 725 295
L 725 295
L 725 295
L 725 295
L 725 295
L 725 295
L 725 294
L 726 294
L 726 294
L 726 294
L 726 294
L 726 294
L 726 294
L 726 294
L 727 294
L 727 294
L 727 294
L 727 294
L 727 294
L 727 294
L 727 294
L 727 294
L 727 294
L 727 294
L 728 294
L 728 294
L 728 294
L 728 294
L 728 294
L 728 294
L 729 294
L 729 294
L 729 294
L 729 293
L 729 293
L 729 293
L 729 293
L 729 293
L 729 293
L 729 293
L 729 293
L 729 293
L 729 293
L 730 293
L 730 293
L 730 293
L 731 293
L 731 293
L 731 293
L 731 293
L 731 293
L 732 293
L 732 293
L 732 293
L 732 293
L 732 293
L 732 293
L 732 293
L 732 293
L 732 293
L 732 293
L 732 292
L 732 292
L 732 292
L 733 292
L 733 292
L 733 292
L 733 292
L 733 292
L 733 292
L 733 292
L 733 292
L 733 292
L 733 292
L 733 292
L 733 292
L 734 292
L 734 292
L 734 292
L 734 292
L 734 292
L 734 292
L 734 292
L 734 292
L 734 292
L 735 292
L 735 292
L 736 292
L 736 292
L 736 291
L 736 291
L 736 291
L 736 291
L 736 291
L 737 291
L 737 291
L 737 291
L 737 291
L 737 291
L 737 291
L 737 291
L 737 291
L 737 291
L 737 291
L 738 291
L 738 291
L 738 291
L 738 291
L 738 291
L 739 291
L 739 291
L 739 291
L 739 291
L 739 291
L 739 291
L 739 291
L 740 290
L 740 290
L 740 290
L 740 290
L 740 290
L 740 290
L 740 290
L 740 290
L 740 290
L 740 290
L 740 290
L 740 290
L 740 290
L 740 290
L 741 290
L 741 290
L 741 290
L 741 290
L 741 290
L 742 290
L 742 290
L 742 290
L 742 290
L 742 290
L 742 290
L 742 290
L 742 290
L 742 290
L 742 289
L 742 289
L 742 289
L 742 289
L 742 289
L 742 289
L 742 289
L 742 289
L 742 289
L 742 289
L 742 289
L 742 289
L 742 289
L 742 289
L 742 289
L 742 289
L 742 289
L 742 289
L 742 289
L 742 289
L 742 289
L 742 289
L 742 289
L 742 289
L 742 289
L 742 289
L 742 289
L 742 289
L 742 288
L 742 288
L 742 288
L 742 288
L 742 288
L 742 288
L 742 288
L 742 288
L 742 288
L 742 288
L 742 288
L 742 288
L 742 288
L 742 288
L 742 288
L 742 288
L 742 288
L 742 288
L 742 288
L 742 288
L 742 288
L 742 288
L 742 288
L 742 288
L 742 288
L 742 288
L 742 288
L 742 287
L 742 287
L 742 287
L 742 287
L 742 287
L 742 287
L 742 287
L 742 287
L 742 287
L 742 287
L 742 287
L 742 287
L 743 287
L 743 287
L 743 287
L 743 287
L 743 287
L 743 287
L 743 287
L 743 287
L 743 287
L 743 287
L 743 287
L 743 287
L 743 287
L 743 287
L 743 287
L 743 287
L 743 286
L 743 286
L 743 286
L 743 286
L 743 286
L 743 286
L 743 286
L 743 286
L 743 286
L 743 286
L 743 286
L 743 286
L 743 286
L 743 286
L 743 286
L 743 286
L 743 286
L 743 286
L 743 286
L 743 286
L 743 286
L 743 286
L 743 286
L 743 286
L 743 286
L 743 286
L 743 286
L 743 286
L 743 285
L 743 285
L 743 285
L 743 285
L 743 285
L 743 285
L 743 285
L 743 285
L 743 285
L 743 285
L 743 285
L 743 285
L 743 285
L 744 285
L 744 285
L 744 285
L 744 285
L 744 285
L 744 285
L 744 285
L 744 285
L 744 285
L 744 285
L 744 285
L 744 285
L 744 285
L 744 285
L 744 284
L 744 284
L 744 284
L 744 284
L 744 284
L 744 284
L 744 284
L 744 284
L 744 284
L 744 284
L 744 284
L 744 284
L 744 284
L 744 284
L 744 284
L 744 284
L 744 284
L 744 284
L 744 284
L 744 284
L 744 284
L 744 284
L 744 284
L 744 284
L 744 284
L 744 284
L 744 284
L 744 284
L 744 283
L 744 283
L 744 283
L 744 283
L 744 283
L 744 283
L 744 283
L 744 283
L 744 283
L 744 283
L 744 283
L 744 283
L 744 283
L 744 283
L 744 283
L 744 283
L 744 283
L 744 283
L 744 283
L 744 283
L 744 283
L 744 283
L 744 283
L 744 283
L 744 283
L 744 283
L 744 283
L 744 283
L 744 282
L 744 282
L 744 282
L 744 282
L 744 282
L 744 282
L 744 282
L 744 282
L 744 282
L 744 282
L 744 282
L 744 282
L 744 282
L 744 282
L 744 282
L 744 282
L 744 282
L 744 282
L 744 282
L 744 282
L 744 282
L 744 282
L 744 282
L 744 282
L 744 282
L 744 282
L 744 282
L 744 281
L 744 281
L 744 281
L 745 281
L 745 281
L 745 281
L 745 281
L 745 281
L 745 281
L 745 281
L 745 281
L 745 281
L 745 281
L 745 281
L 745 281
L 745 281
L 745 281
L 745 281
L 745 281
L 745 281
L 745 281
L 745 281
L 745 281
L 745 281
L 745 281
L 745 281
L 745 281
L 745 281
L 745 280
L 745 280
L 745 280
L 745 280
L 745 280
L 745 280
L 745 280
L 745 280
L 745 280
L 745 280
L 745 280
L 745 280
L 745 280
L 745 280
L 745 280
L 745 280
L 745 280
L 745 280
L 745 280
L 745 280
L 745 280
L 745 280
L 745 280
L 745 280
L 746 280
L 746 280
L 746 280
L 746 279
L 746 279
L 746 279
L 746 279
L 746 279
L 746 279
L 746 279
L 746 279
L 746 279
L 746 279
L 746 279
L 746 279
L 746 279
L 746 279
L 746 279
L 746 279
L 746 279
L 746 279
L 746 279
L 746 279
L 746 279
L 746 279
L 746 279
L 746 279
L 746 279
L 746 279
L 746 279
L 746 279
L 746 278
L 746 278
L 746 278
L 746 278
L 746 278
L 746 278
L 746 278
L 746 278
L 746 278
L 746 278
L 746 278
L 746 278
L 746 278
L 747 278
L 747 278
L 747 278
L 747 278
L 747 278
L 747 278
L 747 278
L 747 278
L 747 278
L 747 278
L 747 278
L 747 278
L 747 278
L 747 278
L 747 278
L 748 277
L 748 277
L 748 277
L 748 277
L 748 277
L 748 277
L 748 277
L 748 277
L 748 277
L 749 277
L 749 277
L 749 277
L 749 277
L 749 277
L 749 277
L 749 277
L 749 277
L 749 277
L 749 277
L 750 277
L 750 277
L 750 277
L 750 277
L 750 277
L 750 277
L 750 277
L 750 277
L 750 276
L 750 276
L 750 276
L 750 276
L 750 276
L 750 276
L 750 276
L 750 276
L 750 276
L 751 276
L 751 276
L 751 276
L 751 276
L 751 276
L 751 276
L 751 276
L 751 276
L 751 276
L 751 276
L 751 276
L 751 276
L 751 276
L 751 276
L 752 276
L 752 276
L 752 276
L 752 276
L 752 276
L 752 275
L 753 275
L 753 275
L 753 275
L 753 275
L 753 275
L 753 275
L 753 275
L 753 275
L 753 275
L 753 275
L 754 275
L 754 275
L 754 275
L 754 275
L 754 275
L 754 275
L 754 275
L 754 275
L 754 275
L 754 275
L 754 275
L 754 275
L 754 275
L 754 275
L 754 275
L 754 275
L 754 275
L 754 274
L 754 274
L 754 274
L 754 274
L 754 274
L 754 274
L 754 274
L 754 274
L 754 274
L 754 274
L 754 274
L 754 274
L 754 274
L 754 274
L 754 274
L 754 274
L 754 274
L 754 274
L 754 274
L 754 274
L 754 274
L 754 274
L 754 274
L 754 274
L 754 274
L 754 274
L 754 274
L 754 273
L 754 273
L 755 273
L 755 273
L 755 273
L 755 273
L 755 273
L 755 273
L 755 273
L 755 273
L 755 273
L 755 273
L 755 273
L 755 273
L 755 273
L 755 273
L 755 273
L 755 273
L 755 273
L 755 273
L 755 273
L 755 273
L 755 273
L 755 273
L 755 273
L 755 273
L 755 273
L 755 273
L 755 272
L 755 272
L 755 272
L 755 272
L 755 272
L 755 272
L 755 272
L 755 272
L 756 272
L 756 272
L 756 272
L 756 272
L 756 272
L 756 272
L 756 272
L 756 272
L 756 272
L 756 272
L 756 272
L 756 272
L 756 272
L 756 272
L 756 272
L 756 272
L 756 272
L 756 272
L 756 272
L 756 272
L 756 271
L 756 271
L 756 271
L 756 271
L 756 271
L 756 271
L 756 271
L 756 271
L 756 271
L 756 271
L 756 271
L 756 271
L 756 271
L 756 271
L 756 271
L 756 271
L 756 271
L 756 271
L 756 271
L 756 271
L 756 271
L 756 271
L 756 271
L 756 271
L 756 271
L 756 271
L 756 271
L 756 270
L 756 270
L 756 270
L 756 270
L 756 270
L 756 270
L 756 270
L 756 270
L 756 270
L 756 270
L 756 270
L 756 270
L 756 270
L 756 270
L 756 270
L 756 270
L 756 270
L 756 270
L 756 270
L 756 270
L 756 270
L 756 270
L 756 270
L 756 270
L 756 270
L 756 270
L 756 270
L 756 270
L 756 269
L 756 269
L 756 269
L 756 269
L 756 269
L 756 269
L 756 269
L 756 269
L 756 269
L 756 269
L 756 269
L 756 269
L 756 269
L 757 269
L 757 269
L 757 269
L 757 269
L 757 269
L 757 269
L 757 269
L 757 269
L 757 269
L 757 269
L 757 269
L 757 269
L 757 269
L 757 269
L 757 269
L 757 268
L 757 268
L 757 268
L 757 268
L 757 268
L 757 268
L 757 268
L 757 268
L 757 268
L 757 268
L 757 268
L 757 268
L 757 268
L 757 268
L 757 268
L 757 268
L 757 268
L 757 268
L 757 268
L 757 268
L 757 268
L 757 268
L 757 268
L 757 268
L 757 268
L 757 268
L 757 268
L 757 267
L 757 267
L 758 267
L 758 267
L 758 267
L 758 267
L 758 267
L 758 267
L 758 267
L 758 267
L 758 267
L 758 267
L 758 267
L 758 267
L 758 267
L 758 267
L 758 267
L 758 267
L 758 267
L 758 267
L 758 267
L 758 267
L 758 267
L 758 267
L 758 267
L 758 267
L 758 267
L 758 267
L 758 266
L 758 266
L 758 266
L 758 266
L 758 266
L 759 266
L 759 266
L 759 266
L 759 266
L 759 266
L 759 266
L 759 266
L 759 266
L 759 266
L 759 266
L 759 266
L 759 266
L 759 266
L 759 266
L 759 266
L 759 266
L 759 266
L 759 266
L 759 266
L 759 266
L 759 266
L 759 266
L 759 266
L 759 265
L 759 265
L 759 265
L 759 265
L 760 265
L 760 265
L 760 265
L 760 265
L 760 265
L 760 265
L 760 265
L 760 265
L 760 265
L 760 265
L 760 265
L 760 265
L 760 265
L 760 265
L 760 265
L 760 265
L 760 265
L 760 265
L 760 265
L 760 265
L 760 265
L 760 265
L 760 265
L 760 264
L 760 264
L 760 264
L 760 264
L 761 264
L 761 264
L 761 264
L 761 264
L 761 264
L 761 264
L 761 264
L 761 264
L 761 264
L 761 264
L 761 264
L 761 264
L 761 264
L 761 264
L 761 264
L 761 264
L 761 264
L 761 264
L 761 264
L 761 264
L 761 264
L 762 264
L 762 264
L 762 264
L 762 263
L 762 263
L 762 263
L 762 263
L 762 263
L 762 263
L 762 263
L 762 263
L 762 263
L 762 263
L 763 263
L 763 263
L 763 263
L 763 263
L 763 263
L 763 263
L 763 263
L 763 263
L 763 263
L 763 263
L 764 263
L 764 263
L 764 263
L 764 263
L 764 263
L 764 263
L 764 263
L 764 262
L 765 262
L 765 262
L 765 262
L 765 262
L 765 262
L 765 262
L 765 262
L 765 262
L 765 262
L 765 262
L 765 262
L 765 262
L 766 262
L 766 262
L 766 262
L 766 262
L 766 262
L 766 262
L 766 262
L 766 262
L 766 262
L 766 262
L 766 262
L 766 262
L 766 262
L 766 262
L 766 262
L 766 261
L 766 261
L 766 261
L 766 261
L 766 261
L 766 261
L 766 261
L 767 261
L 767 261
L 767 261
L 767 261
L 767 261
L 767 261
L 767 261
L 767 261
L 767 261
L 767 261
L 768 261
L 768 261
L 768 261
L 768 261
L 768 261
L 768 261
L 768 261
L 768 261
L 768 261
L 768 261
L 768 261
L 768 260
L 768 260
L 768 260
L 769 260
L 769 260
L 769 260
L 769 260
L 769 260
L 769 260
L 769 260
L 769 260
L 769 260
L 769 260
L 769 260
L 769 260
L 769 260
L 769 260
L 769 260
L 769 260
L 769 260
L 769 260
L 769 260
L 769 260
L 770 260
L 770 260
L 770 260
L 770 260
L 770 259
L 770 259
L 770 259
L 770 259
L 770 259
L 770 259
L 770 259
L 770 259
L 770 259
L 771 259
L 771 259
L 771 259
L 771 259
L 771 259
L 771 259
L 771 259
L 771 259
L 771 259
L 771 259
L 771 259
L 771 259
L 771 259
L 771 259
L 771 259
L 771 259
L 771 259
L 771 259
L 771 259
L 771 258
L 772 258
L 772 258
L 772 258
L 772 258
L 772 258
L 772 258
L 772 258
L 772 258
L 772 258
L 772 258
L 772 258
L 772 258
L 773 258
L 773 258
L 773 258
L 773 258
L 773 258
L 773 258
L 773 258
L 774 258
L 774 258
L 774 258
L 774 258
L 774 258
L 774 258
L 774 258
L 774 258
L 774 257
L 774 257
L 774 257
L 774 257
L 774 257
L 774 257
L 774 257
L 774 257
L 774 257
L 774 257
L 774 257
L 774 257
L 774 257
L 774 257
L 774 257
L 774 257
L 774 257
L 774 257
L 774 257
L 774 257
L 774 257
L 774 257
L 774 257
L 774 257
L 774 257
L 774 257
L 774 257
L 774 256
L 775 256
L 775 256
L 775 256
L 775 256
L 775 256
L 775 256
L 775 256
L 775 256
L 775 256
L 775 256
L 775 256
L 775 256
L 775 256
L 775 256
L 775 256
L 775 256
L 775 256
L 775 256
L 775 256
L 775 256
L 775 256
L 775 256
L 775 256
L 775 256
L 775 256
L 775 256
L 775 256
L 775 255
L 775 255
L 775 255
L 775 255
L 775 255
L 775 255
L 775 255
L 775 255
L 775 255
L 775 255
L 775 255
L 775 255
L 775 255
L 775 255
L 775 255
L 775 255
L 775 255
L 775 255
L 775 255
L 775 255
L 775 255
L 775 255
L 775 255
L 775 255
L 775 255
L 775 255
L 775 255
L 775 255
L 775 254
L 775 254
L 775 254
L 775 254
L 775 254
L 775 254
L 775 254
L 775 254
L 775 254
L 775 254
L 775 254
L 776 254
L 776 254
L 776 254
L 776 254
L 776 254
L 776 254
L 776 254
L 776 254
L 776 254
L 776 254
L 776 254
L 776 254
L 776 254
L 776 254
L 776 254
L 776 254
L 776 253
L 776 253
L 776 253
L 776 253
L 776 253
L 776 253
L 776 253
L 776 253
L 776 253
L 776 253
L 776 253
L 776 253
L 776 253
L 776 253
L 776 253
L 776 253
L 776 253
L 776 253
L 776 253
L 776 253
L 776 253
L 776 253
L 776 253
L 776 253
L 776 253
L 776 253
L 776 253
L 776 253
L 776 252
L 776 252
L 776 252
L 776 252
L 776 252
L 776 252
L 776 252
L 776 252
L 776 252
L 776 252
L 776 252
L 776 252
L 776 252
L 776 252
L 776 252
L 776 252
L 776 252
L 776 252
L 776 252
L 776 252
L 776 252
L 776 252
L 776 252
L 777 252
L 777 252
L 777 252
L 777 252
L 777 252
L 777 251
L 777 251
L 777 251
L 777 251
L 777 251
L 777 251
L 777 251
L 777 251
L 777 251
L 777 251
L 777 251
L 777 251
L 777 251
L 777 251
L 777 251
L 777 251
L 777 251
L 777 251
L 777 251
L 777 251
L 777 251
L 777 251
L 777 251
L 777 251
L 777 251
L 777 251
L 777 251
L 777 250
L 777 250
L 777 250
L 777 250
L 777 250
L 777 250
L 777 250
L 777 250
L 777 250
L 777 250
L 777 250
L 777 250
L 777 250
L 777 250
L 777 250
L 777 250
L 777 250
L 777 250
L 777 250
L 777 250
L 777 250
L 777 250
L 777 250
L 777 250
L 777 250
L 777 250
L 777 250
L 777 250
L 777 249
L 777 249
L 777 249
L 777 249
L 777 249
L 777 249
L 777 249
L 777 249
L 777 249
L 777 249
L 777 249
L 777 249
L 777 249
L 777 249
L 777 249
L 777 249
L 777 249
L 777 249
L 777 249
L 777 249
L 777 249
L 777 249
L 777 249
L 777 249
L 777 249
L 777 249
L 777 249
L 777 249
L 777 248
L 777 248
L 777 248
L 777 248
L 777 248
L 777 248
L 777 248
L 777 248
L 777 248
L 777 248
L 777 248
L 777 248
L 777 248
L 777 248
L 777 248
L 777 248
L 777 248
L 777 248
L 777 248
L 777 248
L 777 248
L 777 248
L 777 248
L 777 248
L 777 248
L 777 248
L 777 248
L 777 247
L 777 247
L 777 247
L 777 247
L 777 247
L 777 247
L 777 247
L 777 247
L 777 247
L 777 247
L 777 247
L 777 247
L 777 247
L 777 247
L 777 247
L 777 247
L 777 247
L 777 247
L 777 247
L 777 247
L 777 247
L 777 247
L 777 247
L 777 247
L 777 247
L 777 247
L 777 247
L 777 247
L 777 246
L 777 246
L 777 246
L 777 246
L 777 246
L 777 246
L 777 246
L 777 246
L 777 246
L 777 246
L 777 246
L 777 246
L 777 246
L 778 246
L 778 246
L 778 246
L 778 246
L 778 246
L 778 246
L 778 246
L 778 246
L 778 246
L 778 246
L 778 246
L 778 246
L 778 246
L 778 246
L 778 245
L 778 245
L 778 245
L 778 245
L 778 245
L 778 245
L 778 245
L 778 245
L 778 245
L 778 245
L 778 245
L 778 245
L 778 245
L 778 245
L 778 245
L 778 245
L 778 245
L 778 245
L 778 245
L 778 245
L 778 245
L 778 245
L 778 245
L 778 245
L 778 245
L 778 245
L 778 245
L 778 245
L 778 244
L 778 244
L 778 244
L 778 244
L 778 244
L 778 244
L 778 244
L 778 244
L 778 244
L 778 244
L 778 244
L 778 244
L 778 244
L 778 244
L 778 244
L 778 244
L 778 244
L 778 244
L 778 244
L 778 244
L 778 244
L 778 244
L 778 244
L 778 244
L 778 244
L 778 244
L 778 244
L 778 244
L 778 243
L 778 243
L 778 243
L 778 243
L 778 243
L 778 243
L 778 243
L 778 243
L 778 243
L 778 243
L 778 243
L 778 243
L 778 243
L 778 243
L 778 243
L 778 243
L 778 243
L 778 243
L 778 243
L 778 243
L 778 243
L 778 243
L 778 243
L 778 243
L 778 243
L 778 243
L 778 243
L 778 242
L 778 242
L 778 242
L 778 242
L 778 242
L 778 242
L 778 242
L 778 242
L 778 242
L 778 242
L 778 242
L 778 242
L 778 242
L 778 242
L 778 242
L 778 242
L 778 242
L 778 242
L 778 242
L 778 242
L 778 242
L 778 242
L 778 242
L 778 242
L 778 242
L 778 242
L 778 242
L 778 242
L 778 241
L 778 241
L 778 241
L 778 241
L 778 241
L 778 241
L 778 241
L 778 241
L 778 241
L 778 241
L 778 241
L 778 241
L 778 241
L 778 241
L 778 241
L 778 241
L 778 241
L 778 241
L 778 241
L 778 241
L 778 241
L 778 241
L 778 241
L 778 241
L 778 241
L 778 241
L 778 241
L 778 241
L 778 240
L 778 240
L 778 240
L 778 240
L 778 240
L 778 240
L 778 240
L 778 240
L 778 240
L 778 240
L 778 240
L 778 240
L 778 240
L 778 240
L 778 240
L 778 240
L 778 240
L 778 240
L 778 240
L 778 240
L 778 240
L 778 240
L 778 240
L 778 240
L 778 240
L 778 240
L 778 240
L 778 239
L 778 239
L 778 239
L 778 239
L 778 239
L 778 239
L 778 239
L 778 239
L 778 239
L 778 239
L 778 239
L 778 239
L 778 239
L 778 239
L 778 239
L 778 239
L 778 239
L 778 239
L 778 239
L 778 239
L 778 239
L 778 239
L 778 239
L 778 239
L 778 239
L 778 239
L 778 239
L 778 239
L 778 238
L 778 238
L 778 238
L 778 238
L 778 238
L 778 238
L 778 238
L 778 238
L 778 238
L 778 238
L 778 238
L 778 238
L 778 238
L 778 238
L 778 238
L 778 238
L 778 238
L 778 238
L 778 238
L 778 238
L 778 238
L 778 238
L 778 238
L 778 238
L 778 238
L 778 238
L 778 238
L 778 238
L 778 237
L 778 237
L 778 237
L 778 237
L 778 237
L 778 237
L 778 237
L 778 237
L 778 237
L 778 237
L 778 237
L 778 237
L 778 237
L 778 237
L 778 237
L 778 237
L 778 237
L 778 237
L 778 237
L 778 237
L 778 237
L 778 237
L 778 237
L 778 237
L 778 237
L 778 237
L 778 237
L 778 236
L 778 236
L 778 236
L 778 236
L 778 236
L 778 236
L 778 236
L 778 236
L 778 236
L 778 236
L 778 236
L 778 236
L 778 236
L 778 236
L 778 236
L 778 236
L 778 236
L 778 236
L 778 236
L 778 236
L 778 236
L 778 236
L 778 236
L 778 236
L 778 236
L 778 236
L 778 236
L 778 236
L 778 235
L 778 235
L 778 235
L 778 235
L 778 235
L 778 235
L 778 235
L 778 235
L 778 235
L 778 235
L 778 235
L 778 235
L 778 235
L 778 235
L 778 235
L 778 235
L 778 235
L 778 235
L 778 235
L 778 235
L 778 235
L 778 235
L 778 235
L 778 235
L 778 235
L 778 235
L 778 235
L 778 235
L 778 234
L 778 234
L 778 234
L 778 234
L 778 234
L 778 234
L 778 234
L 778 234
L 778 234
L 778 234
L 778 234
L 778 234
L 778 234
L 778 234
L 778 234
L 778 234
L 778 234
L 778 234
L 778 234
L 778 234
L 778 234
L 778 234
L 778 234
L 778 234
L 778 234
L 778 234
L 778 234
L 778 233
L 778 233
L 778 233
L 778 233
L 778 233
L 778 233
L 778 233
L 778 233
L 778 233
L 778 233
L 778 233
L 778 233
L 778 233
L 778 233
L 778 233
L 778 233
L 778 233
L 778 233
L 778 233
L 778 233
L 778 233
L 778 233
L 778 233
L 778 233
L 778 233
L 778 233
L 778 233
L 778 233
L 778 232
L 778 232
L 778 232
L 779 232
L 779 232
L 779 232
L 779 232
L 779 232
L 779 232
L 779 232
L 779 232
L 779 232
L 779 232
L 779 232
L 779 232
L 779 232
L 779 232
L 779 232
L 779 232
L 779 232
L 779 232
L 779 232
L 779 232
L 779 232
L 779 232
L 779 232
L 779 232
L 779 232
L 779 231
L 779 231
L 779 231
L 779 231
L 779 231
L 779 231
L 779 231
L 779 231
L 779 231
L 779 231
L 779 231
L 779 231
L 779 231
L 779 231
L 779 231
L 779 231
L 779 231
L 779 231
L 779 231
L 779 231
L 779 231
L 779 231
L 779 231
L 779 231
L 779 231
L 779 231
L 779 231
L 779 230
L 779 230
L 779 230
L 779 230
L 779 230
L 779 230
L 779 230
L 779 230
L 779 230
L 779 230
L 779 230
L 779 230
L 779 230
L 779 230
L 779 230
L 779 230
L 779 230
L 779 230
L 779 230
L 779 230
L 779 230
L 779 230
L 779 230
L 779 230
L 779 230
L 779 230
L 779 230
L 779 230
L 779 229
L 779 229
L 779 229
L 779 229
L 779 229
L 779 229
L 779 229
L 779 229
L 779 229
L 779 229
L 779 229
L 779 229
L 779 229
L 779 229
L 779 229
L 779 229
L 779 229
L 779 229
L 779 229
L 779 229
L 779 229
L 779 229
L 779 229
L 779 229
L 779 229
L 779 229
L 779 229
L 779 228
L 779 228
L 779 228
L 779 228
L 779 228
L 779 228
L 779 228
L 779 228
L 779 228
L 779 228
L 779 228
L 779 228
L 779 228
L 779 228
L 779 228
L 779 228
L 779 228
L 779 228
L 779 228
L 779 228
L 779 228
L 779 228
L 779 228
L 779 228
L 779 228
L 779 228
L 779 228
L 779 228
L 779 227
L 779 227
L 779 227
L 779 227
L 779 227
L 779 227
L 779 227
L 779 227
L 779 227
L 779 227
L 779 227
L 779 227
L 779 227
L 779 227
L 779 227
L 779 227
L 779 227
L 779 227
L 779 227
L 779 227
L 779 227
L 779 227
L 779 227
L 779 227
L 779 227
L 779 227
L 779 227
L 779 227
L 779 226
L 779 226
L 779 226
L 779 226
L 779 226
L 779 226
L 779 226
L 779 226
L 779 226
L 779 226
L 779 226
L 779 226
L 779 226
L 779 226
L 779 226
L 779 226
L 779 226
L 779 226
L 779 226
L 779 226
L 779 226
L 779 226
L 779 226
L 779 226
L 779 226
L 779 226
L 779 226
L 779 225
L 779 225
L 779 225
L 779 225
L 779 225
L 779 225
L 779 225
L 779 225
L 779 225
L 779 225
L 779 225
L 779 225
L 779 225
L 779 225
L 779 225
L 779 225
L 779 225
L 779 225
L 779 225
L 779 225
L 779 225
L 779 225
L 779 225
L 779 225
L 779 225
L 779 225
L 779 225
L 779 225
L 779 224
L 779 224
L 779 224
L 779 224
L 779 224
L 779 224
L 779 224
L 779 224
L 779 224
L 779 224
L 779 224
L 779 224
L 779 224
L 779 224
L 779 224
L 779 224
L 779 224
L 779 224
L 779 224
L 779 224
L 779 224
L 779 224
L 779 224
L 779 224
L 779 224
L 779 224
L 779 224
L 779 224
L 779 223
L 779 223
L 779 223
L 779 223
L 779 223
L 779 223
L 779 223
L 779 223
L 779 223
L 779 223
L 779 223
L 779 223
L 779 223
L 779 223
L 779 223
L 779 223
L 780 223
L 780 223
L 780 223
L 780 223
L 780 223
L 780 223
L 780 223
L 780 223
L 780 223
L 780 223
L 780 223
L 780 222
L 780 222
L 780 222
L 780 222
L 780 222
L 780 222
L 780 222
L 780 222
L 780 222
L 780 222
L 780 222
L 780 222
L 780 222
L 780 222
L 780 222
L 780 222
L 780 222
L 780 222
L 780 222
L 780 222
L 780 222
L 780 222
L 780 222
L 780 222
L 780 222
L 780 222
L 780 222
L 780 222
L 780 221
L 780 221
L 780 221
L 780 221
L 780 221
L 780 221
L 780 221
L 780 221
L 780 221
L 780 221
L 780 221
L 780 221
L 780 221
L 780 221
L 780 221
L 780 221
L 780 221
L 780 221
L 780 221
L 780 221
L 780 221
L 780 221
L 780 221
L 780 221
L 780 221
L 780 221
L 780 221
L 780 221
L 780 220
L 780 220
L 780 220
L 780 220
L 780 220
L 780 220
L 780 220
L 780 220
L 780 220
L 780 220
L 780 220
L 780 220
L 780 220
L 780 220
L 780 220
L 780 220
L 780 220
L 780 220
L 780 220
L 780 220
L 780 220
L 780 220
L 780 220
L 780 220
L 780 220
L 780 220
L 780 220
L 780 219
L 780 219
L 780 219
L 780 219
L 780 219
L 780 219
L 780 219
L 780 219
L 780 219
L 780 219
L 780 219
L 780 219
L 780 219
L 780 219
L 780 219
L 780 219
L 780 219
L 780 219
L 780 219
L 780 219
L 780 219
L 780 219
L 780 219
L 780 219
L 780 219
L 780 219
L 780 219
L 780 219
L 780 218
L 780 218
L 780 218
L 780 218
L 781 218
L 781 218
L 781 218
L 781 218
L 781 218
L 781 218
L 781 218
L 781 218
L 781 218
L 782 218
L 782 218
L 782 218
L 782 218
L 782 218
L 782 218
L 782 218
L 782 218
L 782 218
L 782 218
L 782 218
L 782 218
L 782 218
L 782 218
L 782 218
L 782 217
L 783 217
L 783 217
L 783 217
L 783 217
L 783 217
L 783 217
L 783 217
L 783 217
L 783 217
L 783 217
L 783 217
L 783 217
L 783 217
L 783 217
L 783 217
L 783 217
L 783 217
L 783 217
L 783 217
L 783 217
L 783 217
L 783 217
L 783 217
L 783 217
L 783 217
L 783 217
L 783 216
L 783 216
L 783 216
L 783 216
L 783 216
L 783 216
L 783 216
L 783 216
L 783 216
L 783 216
L 783 216
L 783 216
L 783 216
L 784 216
L 784 216
L 784 216
L 784 216
L 784 216
L 784 216
L 784 216
L 784 216
L 784 216
L 784 216
L 784 216
L 784 216
L 784 216
L 784 216
L 784 216
L 784 215
L 784 215
L 784 215
L 784 215
L 784 215
L 784 215
L 784 215
L 784 215
L 784 215
L 784 215
L 784 215
L 785 215
L 785 215
L 785 215
L 785 215
L 785 215
L 785 215
L 785 215
L 785 215
L 785 215
L 785 215
L 785 215
L 785 215
L 785 215
L 785 215
L 785 215
L 785 215
L 785 215
L 785 214
L 785 214
L 785 214
L 786 214
L 786 214
L 786 214
L 786 214
L 786 214
L 786 214
L 786 214
L 786 214
L 786 214
L 786 214
L 786 214
L 786 214
L 786 214
L 786 214
L 786 214
L 786 214
L 786 214
L 786 214
L 786 214
L 786 214
L 786 214
L 786 214
L 786 214
L 786 214
L 786 213
L 786 213
L 786 213
L 786 213
L 786 213
L 786 213
L 787 213
L 787 213
L 787 213
L 787 213
L 787 213
L 787 213
L 787 213
L 787 213
L 787 213
L 787 213
L 787 213
L 787 213
L 787 213
L 787 213
L 787 213
L 787 213
L 787 213
L 787 213
L 787 213
L 787 213
L 787 213
L 787 213
L 787 212
L 787 212
L 787 212
L 787 212
L 787 212
L 787 212
L 787 212
L 787 212
L 788 212
L 788 212
L 788 212
L 788 212
L 788 212
L 788 212
L 788 212
L 788 212
L 788 212
L 788 212
L 789 212
L 789 212
L 789 212
L 789 212
L 789 212
L 789 212
L 789 212
L 789 212
L 789 212
L 789 211
L 789 211
L 789 211
L 789 211
L 789 211
L 789 211
L 789 211
L 789 211
L 789 211
L 789 211
L 789 211
L 789 211
L 789 211
L 789 211
L 789 211
L 789 211
L 790 211
L 790 211
L 790 211
L 790 211
L 790 211
L 790 211
L 790 211
L 790 211
L 790 211
L 790 211
L 790 211
L 790 211
L 790 210
L 790 210
L 790 210
L 790 210
L 791 210
L 791 210
L 791 210
L 791 210
L 791 210
L 791 210
L 791 210
L 791 210
L 791 210
L 791 210
L 792 210
L 792 210
L 792 210
L 792 210
L 792 210
L 792 210
L 792 210
L 792 210
L 792 210
L 792 210
L 792 210
L 792 210
L 792 210
L 792 210
L 792 209
L 792 209
L 792 209
L 792 209
L 792 209
L 792 209
L 792 209
L 792 209
L 792 209
L 793 209
L 793 209
L 793 209
L 793 209
L 793 209
L 793 209
L 793 209
L 793 209
L 793 209
L 793 209
L 793 209
L 793 209
L 793 209
L 793 209
L 793 209
L 793 209
L 793 209
L 793 209
L 793 208
L 793 208
L 793 208
L 793 208
L 793 208
L 794 208
L 794 208
L 794 208
L 794 208
L 794 208
L 794 208
L 794 208
L 794 208
L 794 208
L 794 208
L 794 208
L 794 208
L 794 208
L 794 208
L 795 208
L 795 208
L 795 208
L 795 208
L 795 208
L 795 208
L 795 208
L 795 208
L 795 208
L 795 207
L 795 207
L 795 207
L 796 207
L 796 207
L 796 207
L 796 207
L 796 207
L 796 207
L 796 207
L 796 207
L 797 207
L 797 207
L 797 207
L 797 207
L 797 207
L 797 207
L 797 207
L 797 207
L 797 207
L 797 207
L 797 207
L 797 207
L 797 207
L 797 207
L 797 207
L 797 207
L 797 207
L 797 206
L 797 206
L 797 206
L 797 206
L 797 206
L 797 206
L 797 206
L 797 206
L 797 206
L 797 206
L 797 206
L 797 206
L 797 206
L 797 206
L 797 206
L 797 206
L 797 206
L 797 206
L 797 206
L 798 206
L 798 206
L 798 206
L 798 206
L 798 206
L 798 206
L 798 206
L 798 206
L 798 205
L 798 205
L 798 205
L 798 205
L 798 205
L 798 205
L 798 205
L 798 205
L 798 205
L 798 205
L 798 205
L 798 205
L 798 205
L 798 205
L 798 205
L 798 205
L 798 205
L 798 205
L 798 205
L 798 205
L 798 205
L 798 205
L 798 205
L 798 205
L 798 205
L 798 205
L 798 205
L 798 205
L 798 204
L 798 204
L 798 204
L 798 204
L 798 204
L 798 204
L 798 204
L 798 204
L 798 204
L 798 204
L 798 204
L 798 204
L 798 204
L 798 204
L 798 204
L 798 204
L 798 204
L 798 204
L 798 204
L 798 204
L 798 204
L 798 204
L 798 204
L 798 204
L 798 204
L 798 204
L 798 204
L 798 204
L 798 203
L 798 203
L 798 203
L 798 203
L 798 203
L 798 203
L 798 203
L 798 203
L 798 203
L 798 203
L 798 203
L 798 203
L 798 203
L 798 203
L 798 203
L 798 203
L 798 203
L 798 203
L 798 203
L 798 203
L 798 203
L 798 203
L 798 203
L 798 203
L 798 203
L 798 203
L 798 203
L 798 202
L 798 202
L 798 202
L 799 202
L 799 202
L 799 202
L 799 202
L 799 202
L 799 202
L 799 202
L 799 202
L 799 202
L 799 202
L 799 202
L 799 202
L 799 202
L 799 202
L 799 202
L 799 202
L 799 202
L 799 202
L 799 202
L 799 202
L 799 202
L 799 202
L 799 202
L 799 202
L 799 202
L 799 201
L 799 201
L 799 201
L 799 201
L 799 201
L 799 201
L 799 201
L 799 201
L 799 201
L 799 201
L 799 201
L 799 201
L 799 201
L 799 201
L 799 201
L 799 201
L 799 201
L 799 201
L 799 201
L 799 201
L 799 201
L 799 201
L 799 201
L 799 201
L 799 201
L 799 201
L 799 201
L 799 201
L 799 200
L 799 200
L 799 200
L 799 200
L 799 200
L 799 200
L 799 200
L 799 200
L 799 200
L 799 200
L 799 200
L 799 200
L 799 200
L 799 200
L 799 200
L 799 200
L 799 200
L 799 200
L 799 200
L 799 200
L 799 200
L 799 200
L 799 200
L 799 200
L 799 200
L 799 200
L 799 200
L 799 199
L 799 199
L 799 199
L 799 199
L 799 199
L 799 199
L 799 199
L 799 199
L 799 199
L 799 199
L 799 199
L 799 199
L 799 199
L 799 199
L 799 199
L 799 199
L 799 199
L 799 199
L 799 199
L 799 199
L 799 199
L 799 199
L 799 199
L 799 199
L 799 199
L 799 199
L 799 199
L 799 199
L 799 198
L 799 198
L 799 198
L 799 198
L 799 198
L 799 198
L 799 198
L 799 198
L 799 198
L 799 198
L 799 198
L 799 198
L 799 198
L 799 198
L 799 198
L 799 198
L 799 198
L 799 198
L 799 198
L 799 198
L 799 198
L 799 198
L 799 198
L 799 198
L 799 198
L 799 198
L 799 198
L 799 198
L 799 197
L 799 197
L 799 197
L 799 197
L 799 197
L 799 197
L 799 197
L 799 197
L 799 197
L 799 197
L 799 197
L 799 197
L 799 197
L 799 197
L 799 197
L 799 197
L 799 197
L 799 197
L 799 197
L 799 197
L 799 197
L 799 197
L 799 197
L 799 197
L 799 197
L 799 197
L 799 197
L 799 196
L 799 196
L 799 196
L 799 196
L 799 196
L 799 196
L 799 196
L 799 196
L 799 196
L 799 196
L 799 196
L 799 196
L 799 196
L 799 196
L 799 196
L 799 196
L 799 196
L 799 196
L 799 196
L 799 196
L 799 196
L 799 196
L 799 196
L 799 196
L 799 196
L 799 196
L 799 196
L 799 196
L 799 195
L 799 195
L 799 195
L 799 195
L 799 195
L 799 195
L 799 195
L 799 195
L 799 195
L 799 195
L 799 195
L 799 195
L 799 195
L 799 195
L 799 195
L 799 195
L 799 195
L 799 195
L 799 195
L 799 195
L 799 195
L 799 195
L 799 195
L 799 195
L 799 195
L 799 195
L 799 195
L 799 194
L 799 194
L 799 194
L 799 194
L 799 194
L 799 194
L 799 194
L 799 194
L 799 194
L 799 194
L 799 194
L 799 194
L 799 194
L 799 194
L 799 194
L 799 194
L 799 194
L 799 194
L 799 194
L 799 194
L 799 194
L 799 194
L 799 194
L 799 194
L 799 194
L 799 194
L 799 194
L 799 194
L 799 193
L 799 193
L 799 193
L 799 193
L 799 193
L 799 193
L 799 193
L 799 193
L 799 193
L 799 193
L 799 193
L 799 193
L 799 193
L 799 193
L 799 193
L 799 193
L 799 193
L 799 193
L 799 193
L 799 193
L 799 193
L 799 193
L 799 193
L 799 193
L 799 193
L 799 193
L 799 193
L 799 193
L 799 192
L 799 192
L 799 192
L 799 192
L 799 192
L 799 192
L 799 192
L 799 192
L 799 192
L 799 192
L 799 192
L 799 192
L 799 192
L 799 192
L 799 192
L 799 192
L 799 192
L 799 192
L 799 192
L 799 192
L 799 192
L 799 192
L 799 192
L 799 192
L 800 192
L 800 192
L 800 192
L 800 191
L 800 191
L 800 191
L 800 191
L 800 191
L 800 191
L 800 191
L 800 191
L 800 191
L 800 191
L 800 191
L 800 191
L 800 191
L 800 191
L 800 191
L 800 191
L 800 191
L 800 191
L 800 191
L 800 191
L 800 191
L 800 191
L 800 191
L 800 191
L 800 191
L 800 191
L 800 191
L 800 191
L 800 190
L 800 190
L 800 190
L 800 190
L 800 190
L 800 190
L 800 190
L 800 190
L 800 190
L 800 190
L 800 190
L 800 190
L 800 190
L 800 190
L 800 190
L 800 190
L 800 190
L 800 190
L 800 190
L 800 190
L 800 190
L 800 190
L 800 190
L 800 190
L 800 190
L 800 190
L 800 190
L 800 190
L 800 189
L 800 189
L 800 189
L 800 189
L 800 189
L 800 189
L 800 189
L 800 189
L 800 189
L 800 189
L 800 189
L 800 189
L 800 189
L 800 189
L 800 189
L 800 189
L 800 189
L 800 189
L 800 189
L 800 189
L 800 189
L 800 189
L 800 189
L 800 189
L 800 189
L 800 189
L 800 189
L 800 188
L 800 188
L 800 188
L 800 188
L 800 188
L 800 188
L 800 188
L 800 188
L 800 188
L 800 188
L 800 188
L 800 188
L 800 188
L 800 188
L 800 188
L 800 188
L 800 188
L 800 188
L 800 188
L 800 188
L 800 188
L 800 188
L 800 188
L 800 188
L 800 188
L 800 188
L 800 188
L 800 188
L 800 187
L 800 187
L 800 187
L 800 187
L 800 187
L 800 187
L 800 187
L 800 187
L 800 187
L 800 187
L 800 187
L 800 187
L 800 187
L 800 187
L 800 187
L 800 187
L 800 187
L 800 187
L 800 187
L 800 187
L 800 187
L 800 187
L 800 187
L 800 187
L 800 187
L 800 187
L 800 187
L 800 187
L 800 186
L 800 186
L 800 186
L 800 186
L 800 186
L 800 186
L 800 186
L 800 186
L 800 186
L 800 186
L 800 186
L 800 186
L 800 186
L 800 186
L 800 186
L 800 186
L 800 186
L 800 186
L 800 186
L 800 186
L 800 186
L 800 186
L 800 186
L 800 186
L 800 186
L 800 186
L 800 186
L 800 185
L 800 185
L 800 185
L 800 185
L 800 185
L 800 185
L 800 185
L 800 185
L 800 185
L 800 185
L 800 185
L 800 185
L 800 185
L 800 185
L 800 185
L 800 185
L 800 185
L 800 185
L 800 185
L 800 185
L 800 185
L 800 185
L 800 185
L 800 185
L 800 185
L 800 185
L 800 185
L 800 185
L 800 184
L 800 184
L 800 184
L 800 184
L 800 184
L 800 184
L 800 184
L 800 184
L 800 184
L 800 184
L 800 184
L 800 184
L 800 184
L 800 184
L 800 184
L 800 184
L 800 184
L 800 184
L 800 184
L 800 184
L 800 184
L 800 184
L 800 184
L 800 184
L 800 184
L 800 184
L 800 184
L 800 184
L 800 183
L 800 183
L 800 183
L 800 183
L 800 183
L 800 183
L 800 183
L 800 183
L 800 183
L 800 183
L 800 183
L 800 183
L 800 183
L 800 183
L 800 183
L 800 183
L 800 183
L 800 183
L 800 183
L 800 183
L 800 183
L 800 183
L 800 183
L 800 183
L 800 183
L 800 183
L 800 183
L 800 182
L 800 182
L 800 182
L 800 182
L 800 182
L 800 182
L 800 182
L 800 182
L 800 182
L 800 182
L 800 182
L 800 182
L 800 182
L 800 182
L 800 182
L 800 182
L 800 182
L 800 182
L 800 182
L 800 182
L 800 182
L 800 182
L 800 182
L 800 182
L 800 182
L 800 182
L 800 182
L 800 182
L 800 181
L 800 181
L 800 181
L 800 181
L 800 181
L 800 181
L 800 181
L 800 181
L 800 181
L 800 181
L 800 181
L 800 181
L 800 181
L 800 181
L 800 181
L 800 181
L 800 181
L 800 181
L 800 181
L 800 181
L 800 181
L 800 181
L 800 181
L 800 181
L 800 181
L 800 181
L 800 181
L 800 181
L 800 180
L 800 180
L 800 180
L 800 180
L 800 180
L 800 180
L 800 180
L 800 180
L 800 180
L 800 180
L 800 180
L 800 180
L 800 180
L 800 180
L 800 180
L 800 180
L 800 180
L 800 180
L 800 180
L 800 180
L 800 180
L 800 180
L 800 180
L 800 180
L 800 180
L 800 180
L 800 180
L 800 179
L 800 179
L 800 179
L 800 179
L 800 179
L 800 179
L 800 179
L 800 179
L 800 179
L 800 179
L 800 179
L 800 179
L 800 179
L 800 179
L 800 179
L 800 179
L 800 179
L 800 179
L 800 179
L 800 179
L 800 179
L 800 179
L 800 179
L 800 179
L 800 179
L 800 179
L 800 179
L 800 179
L 800 178
L 800 178
L 800 178
L 800 178
L 800 178
L 800 178
L 800 178
L 800 178
L 800 178
L 800 178
L 800 178
L 800 178
L 800 178
L 800 178
L 800 178
L 800 178
L 800 178
L 800 178
L 800 178
L 800 178
L 800 178
L 800 178
L 800 178
L 800 178
L 800 178
L 800 178
L 800 178
L 800 177
L 800 177
L 800 177
L 800 177
L 800 177
L 800 177
L 800 177
L 800 177
L 800 177
L 800 177
L 800 177
L 800 177
L 800 177
L 800 177
L 800 177
L 800 177
L 800 177
L 801 177
L 801 177
L 801 177
L 801 177
L 801 177
L 801 177
L 801 177
L 801 177
L 801 177
L 801 177
L 801 177
L 801 176
L 801 176
L 801 176
L 801 176
L 801 176
L 801 176
L 801 176
L 801 176
L 801 176
L 801 176
L 801 176
L 801 176
L 801 176
L 801 176
L 801 176
L 801 176
L 801 176
L 801 176
L 801 176
L 801 176
L 801 176
L 801 176
L 801 176
L 801 176
L 801 176
L 801 176
L 801 176
L 801 176
L 801 175
L 801 175
L 801 175
L 801 175
L 801 175
L 801 175
L 801 175
L 801 175
L 801 175
L 801 175
L 801 175
L 801 175
L 801 175
L 801 175
L 801 175
L 801 175
L 801 175
L 801 175
L 801 175
L 801 175
L 801 175
L 801 175
L 801 175
L 801 175
L 801 175
L 801 175
L 801 175
L 801 174
L 801 174
L 801 174
L 801 174
L 801 174
L 801 174
L 801 174
L 801 174
L 801 174
L 801 174
L 801 174
L 801 174
L 801 174
L 801 174
L 801 174
L 801 174
L 801 174
L 801 174
L 801 174
L 801 174
L 801 174
L 801 174
L 801 174
L 801 174
L 801 174
L 801 174
L 801 174
L 801 174
L 801 173
L 801 173
L 801 173
L 801 173
L 801 173
L 801 173
L 801 173
L 801 173
L 801 173
L 801 173
L 801 173
L 801 173
L 801 173
L 801 173
L 801 173
L 801 173
L 801 173
L 801 173
L 801 173
L 801 173
L 801 173
L 801 173
L 801 173
L 801 173
L 801 173
L 801 173
L 801 173
L 801 173
L 801 172
L 801 172
L 801 172
L 801 172
L 801 172
L 801 172
L 801 172
L 801 172
L 801 172
L 801 172
L 801 172
L 801 172
L 801 172
L 801 172
L 801 172
L 801 172
L 801 172
L 801 172
L 801 172
L 801 172
L 801 172
L 801 172
L 801 172
L 801 172
L 801 172
L 801 172
L 801 172
L 801 171
L 801 171
L 801 171
L 801 171
L 801 171
L 801 171
L 801 171
L 801 171
L 801 171
L 801 171
L 801 171
L 801 171
L 801 171
L 801 171
L 801 171
L 801 171
L 801 171
L 801 171
L 801 171
L 801 171
L 801 171
L 801 171
L 801 171
L 801 171
L 801 171
L 801 171
L 801 171
L 801 171
L 801 170
L 801 170
L 801 170
L 801 170
L 801 170
L 801 170
L 801 170
L 801 170
L 801 170
L 801 170
L 801 170
L 801 170
L 801 170
L 801 170
L 801 170
L 801 170
L 801 170
L 801 170
L 801 170
L 801 170
L 801 170
L 801 170
L 801 170
L 801 170
L 801 170
L 801 170
L 801 170
L 801 170
L 801 169
L 801 169
L 801 169
L 801 169
L 801 169
L 801 169
L 801 169
L 801 169
L 801 169
L 801 169
L 801 169
L 801 169
L 801 169
L 801 169
L 801 169
L 801 169
L 801 169
L 801 169
L 801 169
L 801 169
L 801 169
L 801 169
L 801 169
L 801 169
L 801 169
L 801 169
L 801 169
L 801 168
L 801 168
L 801 168
L 801 168
L 801 168
L 801 168
L 801 168
L 801 168
L 801 168
L 801 168
L 801 168
L 802 168
L 802 168
L 802 168
L 802 168
L 802 168
L 802 168
L 802 168
L 802 168
L 802 168
L 802 168
L 802 168
L 802 168
L 802 168
L 802 168
L 802 168
L 802 168
L 802 168
L 802 167
L 802 167
L 802 167
L 802 167
L 802 167
L 802 167
L 802 167
L 802 167
L 802 167
L 802 167
L 802 167
L 802 167
L 802 167
L 802 167
L 802 167
L 802 167
L 802 167
L 802 167
L 802 167
L 802 167
L 802 167
L 802 167
L 802 167
L 802 167
L 802 167
L 802 167
L 802 167
L 802 167
L 802 166
L 802 166
L 802 166
L 802 166
L 802 166
L 802 166
L 802 166
L 802 166
L 802 166
L 802 166
L 802 166
L 802 166
L 802 166
L 802 166
L 802 166
L 802 166
L 802 166
L 802 166
L 802 166
L 802 166
L 802 166
L 802 166
L 802 166
L 802 166
L 802 166
L 802 166
L 802 166
L 802 165
L 802 165
L 802 165
L 802 165
L 802 165
L 802 165
L 802 165
L 802 165
L 802 165
L 802 165
L 802 165
L 802 165
L 802 165
L 802 165
L 802 165
L 802 165
L 802 165
L 802 165
L 802 165
L 802 165
L 802 165
L 802 165
L 802 165
L 802 165
L 802 165
L 802 165
L 802 165
L 802 165
L 802 164
L 802 164
L 802 164
L 802 164
L 802 164
L 802 164
L 802 164
L 802 164
L 802 164
L 802 164
L 802 164
L 802 164
L 802 164
L 802 164
L 802 164
L 802 164
L 802 164
L 802 164
L 802 164
L 802 164
L 802 164
L 802 164
L 802 164
L 802 164
L 802 164
L 802 164
L 802 164
L 802 163
L 802 163
L 802 163
L 802 163
L 802 163
L 802 163
L 802 163
L 802 163
L 802 163
L 802 163
L 802 163
L 803 163
L 803 163
L 803 163
L 803 163
L 803 163
L 803 163
L 803 163
L 803 163
L 803 163
L 803 163
L 803 163
L 803 163
L 803 163
L 803 163
L 803 163
L 803 163
L 803 163
L 803 162
L 803 162
L 803 162
L 803 162
L 803 162
L 803 162
L 803 162
L 803 162
L 803 162
L 803 162
L 803 162
L 803 162
L 803 162
L 803 162
L 803 162
L 803 162
L 803 162
L 803 162
L 803 162
L 803 162
L 803 162
L 803 162
L 803 162
L 803 162
L 803 162
L 803 162
L 803 162
L 803 162
L 803 161
L 803 161
L 803 161
L 803 161
L 803 161
L 803 161
L 803 161
L 803 161
L 803 161
L 803 161
L 804 161
L 804 161
L 804 161
L 804 161
L 804 161
L 804 161
L 804 161
L 804 161
L 804 161
L 804 161
L 804 161
L 804 161
L 804 161
L 804 161
L 804 161
L 804 161
L 804 161
L 804 160
L 804 160
L 804 160
L 804 160
L 804 160
L 804 160
L 804 160
L 804 160
L 804 160
L 804 160
L 804 160
L 804 160
L 804 160
L 804 160
L 804 160
L 804 160
L 804 160
L 804 160
L 804 160
L 804 160
L 804 160
L 804 160
L 804 160
L 804 160
L 804 160
L 804 160
L 804 160
L 804 160
L 804 159
L 804 159
L 804 159
L 804 159
L 804 159
L 804 159
L 804 159
L 804 159
L 804 159
L 804 159
L 804 159
L 804 159
L 804 159
L 804 159
L 804 159
L 804 159
L 804 159
L 804 159
L 804 159
L 804 159
L 804 159
L 804 159
L 804 159
L 804 159
L 804 159
L 804 159
L 804 159
L 804 159
L 804 158
L 804 158
L 804 158
L 804 158
L 804 158
L 804 158
L 804 158
L 804 158
L 804 158
L 804 158
L 804 158
L 804 158
L 804 158
L 804 158
L 804 158
L 804 158
L 805 158
L 805 158
L 805 158
L 805 158
L 805 158
L 805 158
L 805 158
L 805 158
L 805 158
L 805 158
L 805 158
L 805 157
L 805 157
L 805 157
L 805 157
L 805 157
L 805 157
L 805 157
L 805 157
L 805 157
L 805 157
L 805 157
L 805 157
L 805 157
L 805 157
L 805 157
L 805 157
L 805 157
L 805 157
L 805 157
L 805 157
L 805 157
L 805 157
L 805 157
L 805 157
L 805 157
L 805 157
L 805 157
L 805 157
L 805 156
L 805 156
L 806 156
L 806 156
L 806 156
L 806 156
L 806 156
L 806 156
L 806 156
L 806 156
L 806 156
L 806 156
L 806 156
L 806 156
L 806 156
L 806 156
L 806 156
L 806 156
L 806 156
L 806 156
L 806 156
L 806 156
L 806 156
L 806 156
L 806 156
L 806 156
L 806 156
L 806 156
L 806 155
L 806 155
L 806 155
L 806 155
L 807 155
L 807 155
L 807 155
L 807 155
L 807 155
L 807 155
L 807 155
L 807 155
L 807 155
L 807 155
L 807 155
L 807 155
L 807 155
L 807 155
L 807 155
L 807 155
L 807 155
L 808 155
L 808 155
L 808 155
L 808 155
L 808 155
L 808 155
L 808 154
L 808 154
L 808 154
L 808 154
L 808 154
L 808 154
L 808 154
L 808 154
L 808 154
L 808 154
L 808 154
L 808 154
L 808 154
L 808 154
L 808 154
L 808 154
L 808 154
L 808 154
L 808 154
L 808 154
L 808 154
L 808 154
L 808 154
L 808 154
L 808 154
L 808 154
L 809 154
L 809 154
L 809 153
L 809 153
L 809 153
L 809 153
L 809 153
L 809 153
L 809 153
L 809 153
L 809 153
L 809 153
L 809 153
L 809 153
L 809 153
L 809 153
L 809 153
L 809 153
L 809 153
L 809 153
L 809 153
L 809 153
L 809 153
L 809 153
L 809 153
L 809 153
L 810 153
L 810 153
L 810 153
L 810 153
L 810 152
L 810 152
L 810 152
L 810 152
L 810 152
L 810 152
L 810 152
L 810 152
L 810 152
L 810 152
L 810 152
L 810 152
L 810 152
L 810 152
L 810 152
L 810 152
L 810 152
L 811 152
L 811 152
L 811 152
L 811 152
L 811 152
L 811 152
L 811 152
L 811 152
L 811 152
L 811 152
L 811 151
L 811 151
L 811 151
L 811 151
L 811 151
L 811 151
L 811 151
L 811 151
L 811 151
L 811 151
L 811 151
L 811 151
L 811 151
L 811 151
L 811 151
L 811 151
L 811 151
L 811 151
L 811 151
L 811 151
L 811 151
L 811 151
L 811 151
L 811 151
L 812 151
L 812 151
L 812 151
L 812 151
L 812 150
L 812 150
L 812 150
L 812 150
L 812 150
L 812 150
L 812 150
L 812 150
L 812 150
L 812 150
L 812 150
L 813 150
L 813 150
L 813 150
L 813 150
L 813 150
L 813 150
L 813 150
L 813 150
L 813 150
L 813 150
L 813 150
L 813 150
L 814 150
L 814 150
L 814 150
L 814 150
L 814 150
L 814 149
L 814 149
L 814 149
L 814 149
L 814 149
L 814 149
L 814 149
L 814 149
L 814 149
L 814 149
L 814 149
L 814 149
L 814 149
L 815 149
L 815 149
L 815 149
L 815 149
L 815 149
L 815 149
L 815 149
L 815 149
L 815 149
L 815 149
L 815 149
L 815 149
L 815 149
L 815 149
L 815 148
L 815 148
L 815 148
L 815 148
L 815 148
L 815 148
L 815 148
L 815 148
L 815 148
L 815 148
L 815 148
L 815 148
L 815 148
L 815 148
L 815 148
L 815 148
L 815 148
L 815 148
L 815 148
L 815 148
L 815 148
L 815 148
L 815 148
L 815 148
L 815 148
L 815 148
L 815 148
L 815 148
L 815 147
L 816 147
L 816 147
L 816 147
L 816 147
L 816 147
L 816 147
L 816 147
L 816 147
L 816 147
L 816 147
L 816 147
L 816 147
L 816 147
L 816 147
L 816 147
L 816 147
L 816 147
L 816 147
L 816 147
L 816 147
L 816 147
L 816 147
L 816 147
L 816 147
L 816 147
L 816 147
L 816 147
L 816 146
L 816 146
L 816 146
L 816 146
L 816 146
L 816 146
L 816 146
L 816 146
L 816 146
L 816 146
L 816 146
L 816 146
L 816 146
L 816 146
L 816 146
L 816 146
L 816 146
L 816 146
L 817 146
L 817 146
L 817 146
L 817 146
L 817 146
L 817 146
L 817 146
L 817 146
L 817 146
L 817 145
L 817 145
L 817 145
L 817 145
L 817 145
L 817 145
L 817 145
L 817 145
L 817 145
L 817 145
L 817 145
L 817 145
L 817 145
L 817 145
L 817 145
L 817 145
L 817 145
L 817 145
L 817 145
L 817 145
L 817 145
L 817 145
L 817 145
L 817 145
L 817 145
L 817 145
L 817 145
L 817 145
L 817 144
L 817 144
L 817 144
L 817 144
L 817 144
L 817 144
L 817 144
L 817 144
L 817 144
L 818 144
L 818 144
L 818 144
L 818 144
L 818 144
L 818 144
L 818 144
L 818 144
L 818 144
L 818 144
L 818 144
L 818 144
L 818 144
L 818 144
L 818 144
L 818 144
L 818 144
L 818 144
L 818 143
L 818 143
L 818 143
L 818 143
L 818 143
L 819 143
L 819 143
L 819 143
L 819 143
L 819 143
L 819 143
L 819 143
L 819 143
L 819 143
L 819 143
L 819 143
L 819 143
L 819 143
L 819 143
L 819 143
L 819 143
L 819 143
L 819 143
L 819 143
L 819 143
L 819 143
L 819 143
L 819 143
L 819 142
L 819 142
L 819 142
L 819 142
L 819 142
L 819 142
L 819 142
L 819 142
L 819 142
L 819 142
L 819 142
L 819 142
L 819 142
L 819 142
L 819 142
L 819 142
L 820 142
L 820 142
L 820 142
L 820 142
L 820 142
L 820 142
L 820 142
L 820 142
L 820 142
L 820 142
L 820 142
L 820 142
L 820 141
L 820 141
L 820 141
L 820 141
L 820 141
L 820 141
L 820 141
L 820 141
L 820 141
L 821 141
L 821 141
L 821 141
L 821 141
L 821 141
L 821 141
L 821 141
L 821 141
L 821 141
L 821 141
L 821 141
L 821 141
L 821 141
L 821 141
L 821 141
L 821 141
L 821 141
L 821 141
L 821 140
L 821 140
L 821 140
L 821 140
L 821 140
L 821 140
L 821 140
L 821 140
L 821 140
L 821 140
L 821 140
L 821 140
L 821 140
L 821 140
L 821 140
L 822 140
L 822 140
L 822 140
L 822 140
L 822 140
L 822 140
L 822 140
L 822 140
L 822 140
L 822 140
L 822 140
L 822 140
L 822 140
L 822 139
L 822 139
L 822 139
L 822 139
L 822 139
L 822 139
L 823 139
L 823 139
L 823 139
L 823 139
L 824 139
L 824 139
L 824 139
L 824 139
L 824 139
L 824 139
L 824 139
L 824 139
L 824 139
L 824 139
L 825 139
L 825 139
L 825 139
L 825 139
L 825 139
L 825 139
L 825 139
L 825 139
L 825 138
L 825 138
L 825 138
L 825 138
L 825 138
L 825 138
L 826 138
L 826 138
L 826 138
L 826 138
L 826 138
L 826 138
L 826 138
L 826 138
L 826 138
L 826 138
L 826 138
L 827 138
L 827 138
L 827 138
L 827 138
L 827 138
L 827 138
L 827 138
L 827 138
L 827 138
L 827 138
L 827 137
L 827 137
L 827 137
L 828 137
L 828 137
L 828 137
L 828 137
L 828 137
L 828 137
L 828 137
L 829 137
L 829 137
L 829 137
L 829 137
L 829 137
L 829 137
L 829 137
L 829 137
L 830 137
L 830 137
L 830 137
L 830 137
L 830 137
L 830 137
L 830 137
L 830 137
L 830 137
L 830 137
L 830 136
L 830 136
L 830 136
L 830 136
L 830 136
L 830 136
L 831 136
L 831 136
L 831 136
L 831 136
L 831 136
L 831 136
L 831 136
L 831 136
L 831 136
L 832 136
L 832 136
L 832 136
L 832 136
L 832 136
L 832 136
L 832 136
L 832 136
L 832 136
L 832 136
L 833 136
L 833 136
L 833 136
L 833 135
L 833 135
L 833 135
L 833 135
L 833 135
L 833 135
L 833 135
L 833 135
L 833 135
L 833 135
L 833 135
L 833 135
L 833 135
L 833 135
L 833 135
L 833 135
L 833 135
L 833 135
L 833 135
L 834 135
L 834 135
L 834 135
L 834 135
L 834 135
L 834 135
L 834 135
L 835 135
L 835 134
L 835 134
L 835 134
L 835 134
L 835 134
L 835 134
L 836 134
L 836 134
L 836 134
L 836 134
L 836 134
L 836 134
L 836 134
L 836 134
L 836 134
L 836 134
L 836 134
L 836 134
L 836 134
L 836 134
L 837 134
L 837 134
L 837 134
L 837 134
L 837 134
L 837 134
L 837 134
L 837 134
L 837 133
L 837 133
L 837 133
L 837 133
L 837 133
L 837 133
L 837 133
L 837 133
L 838 133
L 838 133
L 838 133
L 838 133
L 838 133
L 838 133
L 838 133
L 838 133
L 839 133
L 839 133
L 839 133
L 839 133
L 839 133
L 839 133
L 839 133
L 839 133
L 840 133
L 840 133
L 840 133
L 840 133
L 840 132
L 840 132
L 840 132
L 841 132
L 841 132
L 841 132
L 841 132
L 841 132
L 841 132
L 841 132
L 841 132
L 841 132
L 841 132
L 841 132
L 841 132
L 841 132
L 841 132
L 841 132
L 841 132
L 841 132
L 842 132
L 842 132
L 842 132
L 842 132
L 842 132
L 842 132
L 842 132
L 842 131
L 842 131
L 842 131
L 842 131
L 842 131
L 842 131
L 842 131
L 842 131
L 842 131
L 842 131
L 842 131
L 842 131
L 842 131
L 842 131
L 842 131
L 842 131
L 842 131
L 842 131
L 842 131
L 842 131
L 842 131
L 842 131
L 842 131
L 842 131
L 842 131
L 842 131
L 842 131
L 842 131
L 842 130
L 843 130
L 843 130
L 843 130
L 843 130
L 843 130
L 843 130
L 843 130
L 843 130
L 843 130
L 843 130
L 843 130
L 843 130
L 843 130
L 843 130
L 843 130
L 843 130
L 843 130
L 843 130
L 843 130
L 843 130
L 843 130
L 843 130
L 843 130
L 843 130
L 843 130
L 843 130
L 843 130
L 843 129
L 843 129
L 843 129
L 843 129
L 843 129
L 843 129
L 843 129
L 843 129
L 844 129
L 844 129
L 844 129
L 844 129
L 844 129
L 844 129
L 844 129
L 844 129
L 844 129
L 844 129
L 844 129
L 844 129
L 844 129
L 844 129
L 844 129
L 845 129
L 845 129
L 845 129
L 845 129
L 845 128
L 845 128
L 846 128
L 846 128
L 846 128
L 846 128
L 846 128
L 846 128
L 846 128
L 846 128
L 846 128
L 846 128
L 846 128
L 846 128
L 846 128
L 846 128
L 846 128
L 846 128
L 847 128
L 847 128
L 847 128
L 847 128
L 847 128
L 847 128
L 847 128
L 847 128
L 847 128
L 847 128
L 847 127
L 847 127
L 847 127
L 847 127
L 847 127
L 848 127
L 848 127
L 848 127
L 848 127
L 848 127
L 848 127
L 848 127
L 848 127
L 848 127
L 848 127
L 848 127
L 849 127
L 849 127
L 849 127
L 849 127
L 849 127
L 849 127
L 849 127
L 849 127
L 849 127
L 849 127
L 849 127
L 849 126
L 849 126
L 849 126
L 849 126
L 849 126
L 849 126
L 850 126
L 850 126
L 850 126
L 850 126
L 850 126
L 850 126
L 850 126
L 850 126
L 850 126
L 850 126
L 850 126
L 850 126
L 851 126
L 851 126
L 851 126
L 851 126
L 851 126
L 851 126
L 851 126
L 851 126
L 851 126
L 852 126
L 852 125
L 852 125
L 852 125
L 852 125
L 852 125
L 852 125
L 852 125
L 853 125
L 853 125
L 853 125
L 853 125
L 853 125
L 853 125
L 853 125
L 853 125
L 853 125
L 853 125
L 853 125
L 853 125
L 853 125
L 854 125
L 854 125
L 854 125
L 854 125
L 854 125
L 854 125
L 854 125
L 854 125
L 854 124
L 854 124
L 854 124
L 854 124
L 854 124
L 855 124
L 855 124
L 855 124
L 855 124
L 855 124
L 855 124
L 855 124
L 855 124
L 855 124
L 855 124
L 855 124
L 855 124
L 855 124
L 856 124
L 856 124
L 856 124
L 856 124
L 856 124
L 856 124
L 856 124
L 856 124
L 856 124
L 857 123
L 857 123
L 857 123
L 857 123
L 857 123
L 857 123
L 857 123
L 857 123
L 857 123
L 857 123
L 857 123
L 857 123
L 857 123
L 857 123
L 857 123
L 857 123
L 858 123
L 858 123
L 858 123
L 858 123
L 858 123
L 858 123
L 858 123
L 858 123
L 858 123
L 858 123
L 858 123
L 858 123
L 858 122
L 858 122
L 858 122
L 858 122
L 858 122
L 858 122
L 858 122
L 858 122
L 859 122
L 859 122
L 859 122
L 859 122
L 859 122
L 859 122
L 859 122
L 859 122
L 859 122
L 860 122
L 860 122
L 860 122
L 860 122
L 860 122
L 860 122
L 860 122
L 860 122
L 860 122
L 860 122
L 860 122
L 861 121
L 861 121
L 861 121
L 861 121
L 861 121
L 861 121
L 861 121
L 861 121
L 861 121
L 862 121
L 862 121
L 862 121
L 862 121
L 862 121
L 862 121
L 862 121
L 862 121
L 862 121
L 862 121
L 863 121
L 863 121
L 863 121
L 863 121
L 863 121
L 863 121
L 863 121
L 863 121
L 864 120
L 864 120
L 864 120
L 864 120
L 864 120
L 864 120
L 864 120
L 864 120
L 864 120
L 864 120
L 864 120
L 864 120
L 864 120
L 864 120
L 864 120
L 864 120
L 864 120
L 865 120
L 865 120
L 865 120
L 865 120
L 865 120
L 865 120
L 865 120
L 865 120
L 865 120
L 865 120
L 865 120
L 865 119
L 865 119
L 865 119
L 865 119
L 866 119
L 866 119
L 866 119
L 866 119
L 866 119
L 866 119
L 866 119
L 867 119
L 867 119
L 867 119
L 867 119
L 867 119
L 867 119
L 868 119
L 868 119
L 868 119
L 868 119
L 868 119
L 868 119
L 868 119
L 868 119
L 868 119
L 868 119
L 868 119
L 868 118
L 868 118
L 868 118
L 868 118
L 868 118
L 869 118
L 869 118
L 869 118
L 869 118
L 869 118
L 869 118
L 869 118
L 869 118
L 869 118
L 869 118
L 869 118
L 869 118
L 870 118
L 870 118
L 870 118
L 870 118
L 870 118
L 870 118
L 870 118
L 870 118
L 870 118
L 870 118
L 870 117
L 870 117
L 870 117
L 870 117
L 870 117
L 870 117
L 870 117
L 870 117
L 870 117
L 870 117
L 870 117
L 870 117
L 870 117
L 870 117
L 870 117
L 870 117
L 870 117
L 870 117
L 870 117
L 870 117
L 870 117
L 870 117
L 870 117
L 870 117
L 870 117
L 870 117
L 870 117
L 870 117
L 870 116
L 870 116
L 870 116
L 870 116
L 870 116
L 870 116
L 870 116
L 870 116
L 870 116
L 871 116
L 871 116
L 871 116
L 871 116
L 871 116
L 871 116
L 871 116
L 871 116
L 871 116
L 871 116
L 871 116
L 871 116
L 871 116
L 871 116
L 871 116
L 871 116
L 871 116
L 871 116
L 871 116
L 871 115
L 871 115
L 871 115
L 871 115
L 871 115
L 871 115
L 871 115
L 871 115
L 871 115
L 871 115
L 871 115
L 871 115
L 871 115
L 871 115
L 871 115
L 871 115
L 871 115
L 871 115
L 871 115
L 871 115
L 871 115
L 871 115
L 872 115
L 872 115
L 872 115
L 872 115
L 872 115
L 872 114
L 872 114
L 872 114
L 872 114
L 872 114
L 872 114
L 872 114
L 872 114
L 872 114
L 872 114
L 872 114
L 872 114
L 872 114
L 872 114
L 872 114
L 872 114
L 873 114
L 873 114
L 873 114
L 873 114
L 873 114
L 873 114
L 873 114
L 873 114
L 873 114
L 873 114
L 873 114
L 873 114
L 873 113
L 873 113
L 874 113
L 874 113
L 874 113
L 874 113
L 874 113
L 874 113
L 874 113
L 874 113
L 874 113
L 874 113
L 874 113
L 874 113
L 874 113
L 874 113
L 874 113
L 874 113
L 874 113
L 874 113
L 874 113
L 874 113
L 874 113
L 874 113
L 874 113
L 874 113
L 874 113
L 874 113
L 874 112
L 874 112
L 874 112
L 874 112
L 874 112
L 874 112
L 874 112
L 874 112
L 874 112
L 874 112
L 874 112
L 874 112
L 874 112
L 874 112
L 874 112
L 874 112
L 875 112
L 875 112
L 875 112
L 875 112
L 875 112
L 875 112
L 875 112
L 875 112
L 875 112
L 875 112
L 875 112
L 875 111
L 875 111
L 875 111
L 875 111
L 875 111
L 875 111
L 875 111
L 875 111
L 875 111
L 875 111
L 875 111
L 875 111
L 875 111
L 875 111
L 875 111
L 875 111
L 875 111
L 875 111
L 875 111
L 875 111
L 875 111
L 875 111
L 875 111
L 875 111
L 875 111
L 875 111
L 875 111
L 875 111
L 875 110
L 875 110
L 875 110
L 875 110
L 875 110
L 875 110
L 875 110
L 875 110
L 875 110
L 875 110
L 875 110
L 875 110
L 875 110
L 875 110
L 875 110
L 875 110
L 875 110
L 875 110
L 875 110
L 875 110
L 875 110
L 875 110
L 875 110
L 875 110
L 875 110
L 875 110
L 875 110
L 875 109
L 875 109
L 875 109
L 875 109
L 875 109
L 875 109
L 875 109
L 876 109
L 876 109
L 876 109
L 876 109
L 876 109
L 876 109
L 876 109
L 876 109
L 876 109
L 876 109
L 876 109
L 876 109
L 876 109
L 876 109
L 876 109
L 876 109
L 876 109
L 876 109
L 876 109
L 876 109
L 876 109
L 876 108
L 876 108
L 876 108
L 876 108
L 876 108
L 876 108
L 876 108
L 876 108
L 876 108
L 876 108
L 876 108
L 876 108
L 876 108
L 876 108
L 876 108
L 876 108
L 876 108
L 876 108
L 876 108
L 876 108
L 876 108
L 876 108
L 876 108
L 876 108
L 876 108
L 876 108
L 876 108
L 876 108
L 876 107
L 876 107
L 876 107
L 876 107
L 876 107
L 877 107
L 877 107
L 877 107
L 877 107
L 877 107
L 877 107
L 877 107
L 877 107
L 877 107
L 877 107
L 877 107
L 877 107
L 877 107
L 877 107
L 877 107
L 877 107
L 877 107
L 877 107
L 877 107
L 877 107
L 877 107
L 877 107
L 877 106
L 877 106
L 877 106
L 877 106
L 877 106
L 877 106
L 877 106
L 877 106
L 877 106
L 877 106
L 877 106
L 877 106
L 877 106
L 877 106
L 877 106
L 877 106
L 877 106
L 877 106
L 877 106
L 877 106
L 877 106
L 877 106
L 877 106
L 877 106
L 877 106
L 878 106
L 878 106
L 878 106
L 878 105
L 878 105
L 878 105
L 878 105
L 878 105
L 878 105
L 878 105
L 878 105
L 878 105
L 878 105
L 878 105
L 878 105
L 878 105
L 878 105
L 878 105
L 878 105
L 878 105
L 878 105
L 878 105
L 879 105
L 879 105
L 879 105
L 879 105
L 879 105
L 879 105
L 879 105
L 879 105
L 879 105
L 879 104
L 879 104
L 879 104
L 879 104
L 879 104
L 879 104
L 879 104
L 879 104
L 879 104
L 879 104
L 879 104
L 879 104
L 879 104
L 879 104
L 879 104
L 879 104
L 879 104
L 879 104
L 879 104
L 879 104
L 879 104
L 879 104
L 879 104
L 880 104
L 880 104
L 880 104
L 880 104
L 880 103
L 880 103
L 880 103
L 880 103
L 880 103
L 880 103
L 880 103
L 880 103
L 880 103
L 880 103
L 880 103
L 880 103
L 880 103
L 880 103
L 880 103
L 880 103
L 880 103
L 880 103
L 880 103
L 880 103
L 880 103
L 880 103
L 881 103
L 881 103
L 881 103
L 881 103
L 881 103
L 881 103
L 881 102
L 881 102
L 881 102
L 881 102
L 881 102
L 881 102
L 881 102
L 881 102
L 881 102
L 881 102
L 881 102
L 882 102
L 882 102
L 882 102
L 882 102
L 882 102
L 882 102
L 882 102
L 882 102
L 882 102
L 882 102
L 882 102
L 882 102
L 882 102
L 883 102
L 883 102
L 883 102
L 883 102
L 883 101
L 883 101
L 883 101
L 883 101
L 883 101
L 883 101
L 883 101
L 883 101
L 883 101
L 883 101
L 883 101
L 884 101
L 884 101
L 884 101
L 884 101
L 884 101
L 884 101
L 884 101
L 884 101
L 885 101
L 885 101
L 885 101
L 885 101
L 885 101
L 885 101
L 885 101
L 885 101
L 885 100
L 885 100
L 885 100
L 885 100
L 885 100
L 885 100
L 885 100
L 885 100
L 885 100
L 885 100
L 885 100
L 885 100
L 885 100
L 885 100
L 885 100
L 885 100
L 885 100
L 885 100
L 885 100
L 885 100
L 885 100
L 885 100
L 885 100
L 885 100
L 886 100
L 886 100
L 886 100
L 886 100
L 886 99
L 886 99
L 886 99
L 886 99
L 886 99
L 886 99
L 886 99
L 886 99
L 886 99
L 886 99
L 886 99
L 886 99
L 886 99
L 886 99
L 886 99
L 886 99
L 886 99
L 886 99
L 886 99
L 886 99
L 886 99
L 886 99
L 886 99
L 886 99
L 886 99
L 886 99
L 886 99
L 886 99
L 886 98
L 887 98
L 887 98
L 887 98
L 887 98
L 887 98
L 887 98
L 887 98
L 887 98
L 887 98
L 887 98
L 887 98
L 887 98
L 887 98
L 887 98
L 887 98
L 887 98
L 887 98
L 887 98
L 887 98
L 887 98
L 887 98
L 887 98
L 888 98
L 888 98
L 888 98
L 888 98
L 888 97
L 888 97
L 888 97
L 888 97
L 888 97
L 888 97
L 888 97
L 888 97
L 888 97
L 888 97
L 888 97
L 888 97
L 888 97
L 888 97
L 888 97
L 889 97
L 889 97
L 889 97
L 889 97
L 889 97
L 889 97
L 889 97
L 889 97
L 889 97
L 889 97
L 889 97
L 889 97
L 889 97
L 889 96
L 889 96
L 889 96
L 889 96
L 889 96
L 889 96
L 889 96
L 889 96
L 889 96
L 889 96
L 889 96
L 889 96
L 890 96
L 890 96
L 890 96
L 890 96
L 890 96
L 890 96
L 890 96
L 890 96
L 890 96
L 890 96
L 890 96
L 890 96
L 890 96
L 890 96
L 890 96
L 891 96
L 891 95
L 891 95
L 891 95
L 891 95
L 892 95
L 892 95
L 892 95
L 892 95
L 892 95
L 892 95
L 892 95
L 892 95
L 892 95
L 892 95
L 892 95
L 892 95
L 892 95
L 892 95
L 892 95
L 892 95
L 892 95
L 892 95
L 892 95
L 892 95
L 892 95
L 892 95
L 892 95
L 892 94
L 892 94
L 892 94
L 892 94
L 892 94
L 893 94
L 893 94
L 893 94
L 893 94
L 893 94
L 893 94
L 893 94
L 893 94
L 893 94
L 893 94
L 893 94
L 893 94
L 893 94
L 893 94
L 893 94
L 893 94
L 893 94
L 893 94
L 893 94
L 893 94
L 893 94
L 893 94
L 893 94
L 893 93
L 893 93
L 893 93
L 893 93
L 893 93
L 893 93
L 893 93
L 893 93
L 893 93
L 893 93
L 893 93
L 893 93
L 894 93
L 894 93
L 894 93
L 894 93
L 894 93
L 894 93
L 894 93
L 894 93
L 894 93
L 894 93
L 894 93
L 895 93
L 895 93
L 895 93
L 895 93
L 895 92
L 895 92
L 895 92
L 895 92
L 895 92
L 895 92
L 895 92
L 896 92
L 896 92
L 896 92
L 896 92
L 896 92
L 896 92
L 896 92
L 896 92
L 896 92
L 896 92
L 896 92
L 896 92
L 896 92
L 896 92
L 896 92
L 896 92
L 896 92
L 896 92
L 896 92
L 896 92
L 897 92
L 897 91
L 897 91
L 897 91
L 897 91
L 897 91
L 897 91
L 897 91
L 897 91
L 897 91
L 897 91
L 897 91
L 897 91
L 897 91
L 898 91
L 898 91
L 898 91
L 898 91
L 898 91
L 898 91
L 898 91
L 898 91
L 898 91
L 898 91
L 899 91
L 899 91
L 899 91
L 899 91
L 899 91
L 899 90
L 899 90
L 900 90
L 900 90
L 900 90
L 900 90
L 900 90
L 900 90
L 900 90
L 900 90
L 900 90
L 900 90
L 900 90
L 901 90
L 901 90
L 901 90
L 901 90
L 901 90
L 901 90
L 901 90
L 901 90
L 901 90
L 901 90
L 903 90
L 903 90
L 903 90
L 903 90
L 903 89
L 903 89
L 903 89
L 903 89
L 903 89
L 904 89
L 904 89
L 904 89
L 904 89
L 904 89
L 904 89
L 904 89
L 904 89
L 904 89
L 904 89
L 904 89
L 905 89
L 905 89
L 905 89
L 905 89
L 905 89
L 905 89
L 906 89
L 906 89
L 906 89
L 906 89
L 906 89
L 906 89
L 906 88
L 907 88
L 907 88
L 907 88
L 907 88
L 907 88
L 907 88
L 907 88
L 907 88
L 907 88
L 907 88
L 907 88
L 907 88
L 907 88
L 907 88
L 907 88
L 907 88
L 907 88
L 907 88
L 907 88
L 908 88
L 908 88
L 908 88
L 908 88
L 908 88
L 908 88
L 908 88
L 908 88
L 908 87
L 908 87
L 908 87
L 908 87
L 908 87
L 908 87
L 908 87
L 908 87
L 908 87
L 908 87
L 908 87
L 909 87
L 909 87
L 909 87
L 909 87
L 909 87
L 909 87
L 909 87
L 909 87
L 909 87
L 909 87
L 909 87
L 909 87
L 909 87
L 909 87
L 909 87
L 909 87
L 909 86
L 909 86
L 909 86
L 909 86
L 909 86
L 909 86
L 909 86
L 909 86
L 909 86
L 909 86
L 910 86
L 910 86
L 910 86
L 910 86
L 910 86
L 910 86
L 910 86
L 910 86
L 910 86
L 910 86
L 910 86
L 910 86
L 910 86
L 910 86
L 911 86
L 911 86
L 911 86
L 911 86
L 911 85
L 911 85
L 911 85
L 912 85
L 912 85
L 912 85
L 912 85
L 912 85
L 912 85
L 912 85
L 912 85
L 912 85
L 913 85
L 913 85
L 913 85
L 913 85
L 913 85
L 913 85
L 913 85
L 913 85
L 913 85
L 914 85
L 914 85
L 914 85
L 914 85
L 914 85
L 914 85
L 914 85
L 914 84
L 914 84
L 915 84
L 915 84
L 915 84
L 915 84
L 915 84
L 915 84
L 915 84
L 915 84
L 915 84
L 915 84
L 916 84
L 916 84
L 916 84
L 916 84
L 916 84
L 916 84
L 916 84
L 917 84
L 917 84
L 917 84
L 917 84
L 917 84
L 917 84
L 917 84
L 917 84
L 918 83
L 918 83
L 918 83
L 918 83
L 918 83
L 918 83
L 918 83
L 918 83
L 918 83
L 918 83
L 918 83
L 918 83
L 918 83
L 918 83
L 919 83
L 919 83
L 919 83
L 919 83
L 919 83
L 919 83
L 919 83
L 919 83
L 919 83
L 919 83
L 919 83
L 919 83
L 919 83
L 919 83
L 919 82
L 919 82
L 919 82
L 919 82
L 919 82
L 919 82
L 919 82
L 919 82
L 919 82
L 919 82
L 919 82
L 919 82
L 920 82
L 920 82
L 920 82
L 920 82
L 920 82
L 920 82
L 920 82
L 920 82
L 920 82
L 920 82
L 920 82
L 920 82
L 921 82
L 921 82
L 921 82
L 921 82
L 921 81
L 921 81
L 921 81
L 921 81
L 921 81
L 921 81
L 921 81
L 921 81
L 921 81
L 922 81
L 922 81
L 922 81
L 922 81
L 922 81
L 922 81
L 922 81
L 922 81
L 922 81
L 922 81
L 922 81
L 923 81
L 923 81
L 923 81
L 923 81
L 923 81
L 923 81
L 923 81
L 923 80
L 923 80
L 923 80
L 923 80
L 923 80
L 923 80
L 924 80
L 924 80
L 924 80
L 924 80
L 924 80
L 924 80
L 924 80
L 924 80
L 924 80
L 924 80
L 924 80
L 924 80
L 924 80
L 925 80
L 925 80
L 925 80
L 925 80
L 925 80
L 925 80
L 925 80
L 925 80
L 925 80
L 925 79
L 925 79
L 926 79
L 926 79
L 926 79
L 926 79
L 926 79
L 926 79
L 926 79
L 926 79
L 926 79
L 926 79
L 926 79
L 926 79
L 926 79
L 926 79
L 926 79
L 926 79
L 927 79
L 927 79
L 927 79
L 927 79
L 927 79
L 927 79
L 928 79
L 928 79
L 928 79
L 928 79
L 928 78
L 928 78
L 928 78
L 928 78
L 928 78
L 928 78
L 928 78
L 928 78
L 929 78
L 929 78
L 929 78
L 929 78
L 929 78
L 930 78
L 930 78
L 930 78
L 930 78
L 930 78
L 930 78
L 930 78
L 930 78
L 931 78
L 931 78
L 931 78
L 931 78
L 931 78
L 931 78
L 931 77
L 931 77
L 931 77
L 931 77
L 931 77
L 932 77
L 932 77
L 932 77
L 932 77
L 933 77
L 933 77
L 933 77
L 933 77
L 933 77
L 934 77
L 934 77
L 934 77
L 934 77
L 934 77
L 934 77
L 935 77
L 935 77
L 935 77
L 935 77
L 935 77
L 935 77
L 935 77
L 935 77
L 935 76
L 935 76
L 935 76
L 935 76
L 935 76
L 935 76
L 936 76
L 936 76
L 936 76
L 936 76
L 936 76
L 936 76
L 936 76
L 936 76
L 936 76
L 936 76
L 936 76
L 936 76
L 936 76
L 936 76
L 936 76
L 936 76
L 936 76
L 936 76
L 936 76
L 936 76
L 937 76
L 937 75
L 937 75
L 937 75
L 937 75
L 937 75
L 937 75
L 937 75
L 937 75
L 937 75
L 937 75
L 938 75
L 938 75
L 938 75
L 938 75
L 938 75
L 938 75
L 938 75
L 938 75
L 938 75
L 938 75
L 938 75
L 939 75
L 939 75
L 939 75
L 939 75
L 939 75
L 939 75
L 939 75
L 939 74
L 939 74
L 939 74
L 939 74
L 940 74
L 940 74
L 940 74
L 940 74
L 940 74
L 940 74
L 940 74
L 940 74
L 940 74
L 940 74
L 940 74
L 940 74
L 941 74
L 941 74
L 941 74
L 941 74
L 941 74
L 941 74
L 941 74
L 941 74
L 942 74
L 942 74
L 942 74
L 942 74
L 943 73
L 943 73
L 943 73
L 943 73
L 944 73
L 944 73
L 944 73
L 945 73
L 945 73
L 945 73
L 945 73
L 945 73
L 945 73
L 945 73
L 945 73
L 945 73
L 945 73
L 945 73
L 946 73
L 946 73
L 946 73
L 946 73
L 946 73
L 946 73
L 946 73
L 946 73
L 946 73
L 946 72
L 946 72
L 946 72
L 947 72
L 947 72
L 947 72
L 947 72
L 947 72
L 947 72
L 947 72
L 947 72
L 947 72
L 947 72
L 947 72
L 947 72
L 947 72
L 947 72
L 947 72
L 947 72
L 947 72
L 947 72
L 947 72
L 947 72
L 947 72
L 947 72
L 947 72
L 947 72
L 947 72
L 947 71
L 947 71
L 947 71
L 948 71
L 948 71
L 948 71
L 948 71
L 948 71
L 948 71
L 948 71
L 948 71
L 948 71
L 948 71
L 948 71
L 948 71
L 948 71
L 948 71
L 948 71
L 948 71
L 949 71
L 949 71
L 949 71
L 949 71
L 949 71
L 949 71
L 949 71
L 949 71
L 949 71
L 949 70
L 949 70
L 949 70
L 949 70
L 949 70
L 949 70
L 949 70
L 949 70
L 949 70
L 949 70
L 949 70
L 949 70
L 949 70
L 949 70
L 949 70
L 949 70
L 949 70
L 949 70
L 950 70
L 950 70
L 950 70
L 950 70
L 950 70
L 950 70
L 950 70
L 950 70
L 950 70
L 950 69
L 950 69
L 950 69
L 950 69
L 950 69
L 950 69
L 950 69
L 950 69
L 950 69
L 950 69
L 950 69
L 950 69
L 950 69
L 950 69
L 950 69
L 950 69
L 950 69
L 950 69
L 950 69
L 950 69
L 950 69
L 950 69
L 950 69
L 950 69
L 950 69
L 950 69
L 950 69
L 950 69
L 950 68
L 950 68
L 950 68
L 950 68
L 950 68
L 950 68
L 950 68
L 950 68
L 950 68
L 950 68
L 950 68
L 950 68
L 950 68
L 950 68
L 950 68
L 950 68
L 950 68
L 950 68
L 950 68
L 950 68
L 950 68
L 950 68
L 950 68
L 950 68
L 950 68
L 950 68
L 950 68
L 950 68
L 950 67
L 950 67
L 950 67
L 950 67
L 950 67
L 950 67
L 950 67
L 950 67
L 950 67
L 951 67
L 951 67
L 951 67
L 951 67
L 951 67
L 951 67
L 951 67
L 951 67
L 951 67
L 951 67
L 951 67
L 951 67
L 951 67
L 951 67
L 951 67
L 951 67
L 951 67
L 951 67
L 951 66
L 951 66
L 951 66
L 951 66
L 951 66
L 951 66
L 951 66
L 951 66
L 951 66
L 951 66
L 951 66
L 951 66
L 951 66
L 951 66
L 951 66
L 951 66
L 951 66
L 951 66
L 951 66
L 951 66
L 951 66
L 951 66
L 951 66
L 951 66
L 951 66
L 951 66
L 951 66
L 951 66
L 951 65
L 951 65
L 951 65
L 951 65
L 951 65
L 951 65
L 951 65
L 951 65
L 951 65
L 951 65
L 951 65
L 951 65
L 951 65
L 951 65
L 951 65
L 951 65
L 951 65
L 951 65
L 951 65
L 951 65
L 951 65
L 951 65
L 951 65
L 951 65
L 951 65
L 951 65
L 951 65
L 951 65
L 951 64
L 951 64
L 951 64
L 951 64
L 951 64
L 951 64
L 951 64
L 951 64
L 951 64
L 951 64
L 951 64
L 951 64
L 951 64
L 951 64
L 951 64
L 951 64
L 951 64
L 951 64
L 951 64
L 951 64
L 951 64
L 951 64
L 951 64
L 951 64
L 951 64
L 951 64
L 951 64
L 951 63
L 951 63
L 951 63
L 951 63
L 951 63
L 951 63
L 951 63
L 951 63
L 951 63
L 951 63
L 951 63
L 951 63
L 951 63
L 951 63
L 951 63
L 951 63
L 951 63
L 951 63
L 951 63
L 951 63
L 951 63
L 951 63
L 951 63
L 951 63
L 951 63
L 951 63
L 951 63
L 951 63
L 951 62
L 951 62
L 951 62
L 951 62
L 951 62
L 951 62
L 951 62
L 951 62
L 951 62
L 951 62
L 951 62
L 951 62
L 951 62
L 951 62
L 951 62
L 951 62
L 951 62
L 951 62
L 951 62
L 951 62
L 951 62
L 951 62
L 951 62
L 951 62
L 951 62
L 951 62
L 951 62
L 951 62
L 951 61
L 951 61
L 951 61
L 951 61
L 951 61
L 951 61
L 951 61
L 951 61
L 951 61
L 951 61
L 951 61
L 951 61
L 951 61
L 951 61
L 951 61
L 951 61
L 951 61
L 951 61
L 951 61
L 951 61
L 951 61
L 951 61
L 951 61
L 951 61
L 951 61
L 951 61
L 951 61
L 951 60
L 951 60
L 951 60
L 951 60
L 951 60
L 951 60
L 951 60
L 951 60
L 951 60
L 951 60
L 951 60
L 951 60
L 951 60
L 951 60
L 951 60
L 951 60
L 951 60
L 951 60
L 951 60
L 951 60
L 951 60
L 951 60
L 951 60
L 951 60
L 952 60
L 952 60
L 952 60
L 952 60
L 952 59
L 952 59
L 952 59
L 952 59
L 952 59
L 952 59
L 952 59
L 952 59
L 952 59
L 952 59
L 952 59
L 952 59
L 952 59
L 952 59
L 952 59
L 952 59
L 952 59
L 952 59
L 952 59
L 952 59
L 952 59
L 952 59
L 952 59
L 952 59
L 952 59
L 952 59
L 952 59
L 952 58
L 952 58
L 952 58
L 952 58
L 952 58
L 952 58
L 952 58
L 952 58
L 952 58
L 952 58
L 952 58
L 952 58
L 952 58
L 952 58
L 952 58
L 952 58
L 952 58
L 952 58
L 952 58
L 952 58
L 952 58
L 952 58
L 952 58
L 952 58
L 952 58
L 952 58
L 952 58
L 952 58
L 952 57
L 952 57
L 952 57
L 952 57
L 952 57
L 952 57
L 952 57
L 952 57
L 952 57
L 952 57
L 952 57
L 952 57
L 952 57
L 952 57
L 952 57
L 952 57
L 952 57
L 952 57
L 952 57
L 952 57
L 952 57
L 952 57
L 952 57
L 952 57
L 952 57
L 952 57
L 952 57
L 952 57
L 952 56
L 952 56
L 952 56
L 952 56
L 952 56
L 952 56
L 952 56
L 952 56
L 952 56
L 952 56
L 952 56
L 952 56
L 952 56
L 952 56
L 952 56
L 952 56
L 952 56
L 952 56
L 952 56
L 952 56
L 952 56
L 952 56
L 952 56
L 952 56
L 952 56
L 952 56
L 952 56
L 952 55
L 952 55
L 952 55
L 952 55
L 952 55
L 952 55
L 952 55
L 952 55
L 952 55
L 952 55
L 952 55
L 952 55
L 952 55
L 952 55
L 952 55
L 952 55
L 952 55
L 952 55
L 952 55
L 952 55
L 952 55
L 952 55
L 952 55
L 952 55
L 952 55
L 952 55
L 952 55
L 952 55
L 952 54
L 952 54
L 952 54
L 952 54
L 952 54
L 952 54
L 952 54
L 952 54
L 952 54
L 952 54
L 952 54
L 952 54
L 952 54
L 952 54
L 952 54
L 952 54
L 952 54
L 952 54
L 952 54
L 952 54
L 952 54
L 952 54
L 952 54
L 952 54
L 952 54
L 952 54
L 952 54
L 952 54
L 952 53
L 953 53
L 953 53
L 953 53
L 953 53
L 953 53
L 953 53
L 953 53
L 953 53
L 953 53
L 953 53
L 953 53
L 953 53
L 953 53
L 953 53
L 953 53
L 953 53
L 953 53
L 953 53
L 953 53
L 953 53
L 953 53
L 953 53
L 953 53
L 953 53
L 953 53
L 953 53
L 953 52
L 953 52
L 953 52
L 953 52
L 953 52
L 953 52
L 953 52
L 953 52
L 953 52
L 953 52
L 953 52
L 953 52
L 953 52
L 953 52
L 953 52
L 953 52
L 953 52
L 953 52
L 953 52
L 953 52
L 953 52
L 953 52
L 953 52
L 953 52
L 953 52
L 953 52
L 953 52
L 953 52
L 953 51
L 953 51
L 953 51
L 953 51
L 953 51
L 953 51
L 953 51
L 953 51
L 953 51
L 953 51
L 953 51
L 953 51
L 953 51
L 953 51
L 953 51
L 953 51
L 953 51
L 953 51
L 953 51
L 953 51
L 953 51
L 953 51
L 953 51
L 953 51
L 953 51
L 953 51
L 953 51
L 953 51
L 953 50
L 953 50
L 953 50
L 953 50
L 953 50
L 953 50
L 953 50
L 953 50
L 953 50
L 953 50
L 953 50
L 953 50
L 953 50
L 953 50
L 953 50
L 953 50
L 953 50
L 953 50
L 953 50
L 953 50
L 953 50
L 953 50
L 953 50
L 953 50
L 953 50
L 953 50
L 953 50
L 953 49
L 953 49
L 953 49
L 953 49
L 953 49
L 953 49
L 953 49
L 953 49
L 953 49
L 953 49
L 953 49
L 953 49
L 953 49
L 953 49
L 953 49
L 953 49
L 953 49
L 953 49
L 953 49
L 953 49
L 953 49
L 953 49
L 953 49
L 953 49
L 953 49
L 953 49
L 953 49
L 953 49
L 953 48
L 953 48
L 953 48
L 953 48
L 953 48
L 953 48
L 953 48
L 953 48
L 953 48
L 953 48
L 953 48
L 953 48
L 953 48
L 953 48
L 953 48
L 953 48
L 953 48
L 953 48
L 953 48
L 953 48
L 953 48
L 953 48
L 953 48
L 953 48
L 953 48
L 953 48
L 953 48
L 953 48
L 953 47
L 953 47
L 953 47
L 953 47
L 953 47
L 953 47
L 953 47
L 953 47
L 953 47
L 953 47
L 953 47
L 953 47
L 953 47
L 953 47
L 953 47
L 953 47
L 953 47
L 953 47
L 953 47
L 953 47
L 953 47
L 953 47
L 953 47
L 953 47
L 953 47
L 953 47
L 953 47
L 953 46
L 953 46
L 953 46
L 953 46
L 953 46
L 953 46
L 953 46
L 953 46
L 953 46
L 953 46
L 953 46
L 953 46
L 953 46
L 953 46
L 953 46
L 953 46
L 953 46
L 953 46
L 953 46
L 953 46
L 953 46
L 953 46
L 953 46
L 953 46
L 953 46
L 953 46
L 953 46
L 953 46
L 953 45
L 953 45
L 953 45
L 953 45
L 953 45
L 953 45
L 953 45
L 953 45
L 953 45
L 953 45
L 953 45
L 953 45
L 953 45
L 953 45
L 953 45
L 953 45
L 953 45
L 953 45
L 953 45
L 953 45
L 953 45
L 953 45
L 953 45
L 953 45
L 953 45
L 953 45
L 953 45
L 953 45
L 953 44
L 953 44
L 953 44
L 953 44
L 953 44
L 953 44
L 953 44
L 953 44
L 953 44
L 953 44
L 953 44
L 953 44
L 953 44
L 953 44
L 953 44
L 953 44
L 953 44
L 953 44
L 953 44
L 953 44
L 953 44
L 953 44
L 953 44
L 953 44
L 953 44
L 953 44
L 953 44
L 953 43
L 953 43
L 953 43
L 953 43
L 953 43
L 953 43
L 953 43
L 953 43
L 953 43
L 953 43
L 953 43
L 953 43
L 953 43
L 953 43
L 953 43
L 953 43
L 953 43
L 953 43
L 953 43
L 953 43
L 953 43
L 953 43
L 953 43
L 953 43
L 953 43
L 953 43
L 953 43
L 953 43
L 953 42
L 953 42
L 953 42
L 953 42
L 953 42
L 953 42
L 953 42
L 953 42
L 953 42
L 953 42
L 953 42
L 953 42
L 953 42
L 953 42
L 953 42
L 953 42
L 953 42
L 953 42
L 953 42
L 953 42
L 953 42
L 953 42
L 953 42
L 953 42
L 953 42
L 953 42
L 953 42
L 953 41
L 953 41
L 953 41
L 953 41
L 953 41
L 953 41
L 953 41
L 953 41
L 953 41
L 953 41
L 953 41
L 953 41
L 953 41
L 953 41
L 953 41
L 953 41
L 954 41
L 954 41
L 954 41
L 954 41
L 954 41
L 954 41
L 954 41
L 954 41
L 954 41
L 954 41
L 954 41
L 954 41
L 954 40
L 954 40
L 954 40
L 954 40
L 954 40
L 954 40
L 954 40
L 954 40
L 954 40
L 954 40
L 954 40
L 954 40
L 954 40
L 954 40
L 954 40
L 954 40
L 954 40
L 954 40
L 954 40
L 954 40
L 954 40
L 954 40
L 954 40
L 954 40
L 954 40
L 954 40
L 954 40
L 954 40
L 954 39
L 954 39
L 954 39
L 954 39
L 954 39
L 954 39
L 954 39
L 954 39
L 954 39
L 954 39
L 954 39
L 954 39
L 954 39
L 954 39
L 954 39
L 954 39
L 954 39
L 954 39
L 954 39
L 954 39
L 954 39
L 954 39
L 954 39
L 954 39
L 954 39
L 954 39
L 954 39
L 954 38
L 954 38
L 954 38
L 954 38
L 954 38
L 954 38
L 954 38
L 954 38
L 954 38
L 954 38
L 954 38
L 954 38
L 954 38
L 954 38
L 954 38
L 954 38
L 954 38
L 954 38
L 954 38
L 954 38
L 954 38
L 954 38
L 954 38
L 954 38
L 954 38
L 954 38
L 954 38
L 954 38
L 954 37
L 954 37
L 954 37
L 954 37
L 954 37
L 954 37
L 954 37
L 954 37
L 954 37
L 954 37
L 954 37
L 954 37
L 954 37
L 954 37
L 954 37
L 954 37
L 954 37
L 954 37
L 954 37
L 954 37
L 954 37
L 954 37
L 954 37
L 954 37
L 954 37
L 954 37
L 954 37
L 954 37
L 954 36
L 954 36
L 954 36
L 954 36
L 954 36
L 954 36
L 954 36
L 954 36
L 954 36
L 954 36
L 954 36
L 954 36
L 954 36
L 954 36
L 954 36
L 954 36
L 954 36
L 954 36
L 954 36
L 954 36
L 954 36
L 954 36
L 954 36
L 954 36
L 954 36
L 954 36
L 954 36
L 954 35
L 954 35
L 954 35
L 954 35
L 954 35
L 954 35
L 954 35
L 954 35
L 954 35
L 954 35
L 954 35
L 954 35
L 954 35
L 954 35
L 954 35
L 954 35
L 954 35
L 954 35
L 954 35
L 954 35
L 954 35
L 954 35
L 954 35
L 954 35
L 954 35
L 954 35
L 954 35
L 954 35
L 954 34
L 954 34
L 954 34
L 954 34
L 954 34
L 954 34
L 954 34
L 954 34
L 954 34
L 954 34
L 954 34
L 954 34
L 954 34
L 954 34
L 954 34
L 954 34
L 954 34
L 954 34
L 954 34
L 954 34
L 954 34
L 954 34
L 954 34
L 954 34
L 954 34
L 954 34
L 954 34
L 954 34
L 954 33
L 954 33
L 954 33
L 954 33
L 954 33
L 954 33
L 954 33
L 954 33
L 954 33
L 954 33
L 954 33
L 954 33
L 954 33
L 954 33
L 954 33
L 954 33
L 954 33
L 955 33
L 955 33
L 955 33
L 955 33
L 955 33
L 955 33
L 955 33
L 955 33
L 955 33
L 955 33
L 955 32
L 955 32
L 955 32
L 955 32
L 955 32
L 955 32
L 955 32
L 955 32
L 955 32
L 955 32
L 955 32
L 955 32
L 955 32
L 955 32
L 955 32
L 955 32
L 955 32
L 955 32
L 955 32
L 955 32
L 955 32
L 955 32
L 955 32
L 955 32
L 955 32
L 955 32
L 955 32
L 955 32
L 955 31
L 955 31
L 955 31
L 955 31
L 955 31
L 955 31
L 955 31
L 955 31
L 955 31
L 955 31
L 955 31
L 955 31
L 955 31
L 955 31
L 955 31
L 955 31
L 955 31
L 955 31
L 955 31
L 955 31
L 955 31
L 955 31
L 955 31
L 955 31
L 955 31
L 955 31
L 955 31
L 955 31
L 955 30
L 955 30
L 955 30
L 955 30
L 955 30
L 955 30
L 955 30
L 955 30
L 955 30
L 955 30
L 955 30
L 955 30
L 955 30
L 955 30
L 955 30
L 955 30
L 955 30
L 955 30
L 955 30
L 955 30
L 955 30
L 955 30
L 955 30
L 955 30
L 955 30
L 955 30
L 955 30
L 955 29
L 955 29
L 955 29
L 955 29
L 955 29
L 955 29
L 955 29
L 955 29
L 955 29
L 955 29
L 955 29
L 955 29
L 955 29
L 955 29
L 955 29
L 955 29
L 955 29
L 955 29
L 955 29
L 955 29
L 955 29
L 955 29
L 955 29
L 955 29
L 955 29
L 955 29
L 955 29
L 955 29
L 955 28
L 955 28
L 955 28
L 955 28
L 955 28
L 955 28
L 955 28
L 955 28
L 955 28
L 955 28
L 955 28
L 955 28
L 955 28
L 955 28
L 955 28
L 955 28
L 955 28
L 955 28
L 955 28
L 955 28
L 955 28
L 955 28
L 955 28
L 955 28
L 955 28
L 955 28
L 955 28
L 955 28
L 955 27
L 955 27
L 955 27
L 955 27
L 955 27
L 955 27
L 955 27
L 955 27
L 955 27
L 955 27
L 955 27
L 955 27
L 955 27
L 955 27
L 955 27
L 955 27
L 955 27
L 955 27
L 955 27
L 955 27
L 955 27
L 955 27
L 955 27
L 955 27
L 955 27
L 955 27
L 955 27
L 955 26
L 955 26
L 955 26
L 955 26
L 955 26
L 955 26
L 955 26
L 955 26
L 955 26
L 955 26
L 955 26
L 955 26
L 955 26
L 955 26
L 955 26
L 955 26
L 955 26
L 955 26
L 955 26
L 955 26
L 955 26
L 955 26
L 955 26
L 955 26
L 955 26
L 955 26
L 955 26
L 955 26
L 955 25
L 955 25
L 955 25
L 955 25
L 955 25
L 955 25
L 955 25
L 955 25
L 955 25
L 955 25
L 955 25
L 955 25
L 955 25
L 955 25
L 955 25
L 955 25
L 955 25
L 955 25
L 955 25
L 955 25
L 955 25
L 955 25
L 955 25
L 955 25
L 955 25
L 955 25
L 955 25
L 955 24
L 956 24
L 956 24
L 956 24
L 956 24
L 956 24
L 956 24
L 956 24
L 956 24
L 956 24
L 956 24
L 956 24
L 956 24
L 956 24
L 956 24
L 956 24
L 956 24
L 956 24
L 956 24
L 956 24
L 956 24
L 956 24
L 956 24
L 956 24
L 956 24
L 956 24
L 956 24
L 956 24
L 956 23
L 956 23
L 956 23
L 956 23
L 956 23
L 956 23
L 956 23
L 956 23
L 956 23
L 956 23
L 956 23
L 956 23
L 956 23
L 956 23
L 956 23
L 956 23
L 956 23
L 956 23
L 956 23
L 956 23
L 956 23
L 956 23
L 956 23
L 956 23
L 956 23
L 956 23
L 956 23
L 956 23
L 956 22
L 956 22
L 956 22
L 956 22
L 956 22
L 956 22
L 956 22
L 956 22
L 956 22
L 956 22
L 956 22
L 956 22
L 956 22
L 956 22
L 956 22
L 956 22
L 956 22
L 956 22
L 956 22
L 956 22
L 956 22
L 956 22
L 956 22
L 956 22
L 956 22
L 956 22
L 956 22
L 956 21
L 956 21
L 956 21
L 956 21
L 956 21
L 956 21
L 956 21
L 956 21
L 956 21
L 956 21
L 956 21
L 956 21
L 956 21
L 956 21
L 956 21
L 956 21
L 956 21
L 956 21
L 956 21
L 956 21
L 956 21
L 956 21
L 956 21
L 956 21
L 956 21
L 956 21
L 956 21
L 956 21
L 956 20
L 956 20
L 956 20
L 956 20
L 956 20
L 956 20
L 956 20
L 956 20
L 956 20
L 956 20
L 956 20
L 956 20
L 956 20
L 956 20
L 956 20
L 956 20
L 956 20
L 956 20
L 956 20
L 956 20
L 956 20
L 956 20
L 956 20
L 956 20
L 956 20
L 956 20
L 956 20
L 956 20
L 956 19
L 956 19
L 956 19
L 956 19
L 956 19
L 956 19
L 956 19
L 956 19
L 956 19
L 956 19
L 956 19
L 956 19
L 956 19
L 956 19
L 956 19
L 956 19
L 956 19
L 956 19
L 956 19
L 956 19
L 956 19
L 956 19
L 956 19
L 956 19
L 956 19
L 956 19
L 956 19
L 956 18
L 956 18
L 956 18
L 956 18
L 956 18
L 956 18
L 956 18
L 956 18
L 956 18
L 956 18
L 956 18
L 956 18
L 956 18
L 956 18
L 956 18
L 956 18
L 956 18
L 956 18
L 956 18
L 956 18
L 956 18
L 956 18
L 956 18
L 956 18
L 956 18
L 956 18
L 956 18
L 956 18
L 956 17
L 956 17
L 956 17
L 956 17
L 956 17
L 956 17
L 956 17
L 956 17
L 956 17
L 956 17
L 956 17
L 956 17
L 956 17
L 956 17
L 956 17
L 956 17
L 956 17
L 956 17
L 956 17
L 956 17
L 956 17
L 956 17
L 956 17
L 956 17
L 956 17
L 956 17
L 956 17
L 956 17
L 956 16
L 956 16
L 956 16
L 956 16
L 956 16
L 956 16
L 956 16
L 956 16
L 956 16
L 956 16
L 956 16
L 956 16
L 956 16
L 956 16
L 956 16
L 956 16
L 956 16
L 956 16
L 956 16
L 956 16
L 956 16
L 956 16
L 956 16
L 956 16
L 957 16
L 957 16
L 957 16
L 957 15
L 957 15
L 957 15
L 957 15
L 957 15
L 957 15
L 957 15
L 957 15
L 957 15
L 957 15
L 957 15
L 957 15
L 957 15
L 957 15
L 957 15
L 957 15
L 957 15
L 957 15
L 957 15
L 957 15
L 957 15
L 957 15
L 957 15
L 957 15
L 957 15
L 957 15
L 957 15
L 957 15
L 957 14
L 957 14
L 957 14
L 957 14
L 957 14
L 957 14
L 957 14
L 957 14
L 957 14
L 957 14
L 957 14
L 957 14
L 957 14
L 957 14
L 957 14
L 957 14
L 957 14
L 957 14
L 957 14
L 957 14
L 957 14
L 957 14
L 957 14
L 957 14
L 957 14
L 957 14
L 957 14
L 957 14
L 957 13" style="stroke-width:2;stroke:rgba(129,199,239,1.0);fill:none"/></svg>