<!-- stars: 9374 -->
<svg xmlns="http://www.w3.org/2000/svg" xmlns:xlink="http://www.w3.org/1999/xlink" width="1024" height="400">\n<path  d="M 0 0
L 1024 0
L 1024 400
L 0 400
L 0 0" style="stroke-width:0;stroke:rgba(255,255,255,1.0);fill:rgba(255,255,255,1.0)"/><path  d="M 38 11
L 957 11
L 957 351
L 38 351
L 38 11" style="stroke-width:0;stroke:rgba(255,255,255,1.0);fill:rgba(255,255,255,1.0)"/><path  d="M 38 351
L 957 351" style="stroke-width:2;stroke:rgba(85,85,85,1.0);fill:none"/><path  d="M 38 351
L 38 356" style="stroke-width:2;stroke:rgba(85,85,85,1.0);fill:none"/><text x="5" y="373" style="stroke-width:0;stroke:none;fill:rgba(51,51,51,1.0);font-size:12.8px;font-family:'Roboto Medium',sans-serif">2018-09-25</text><path  d="M 153 351
L 153 356" style="stroke-width:2;stroke:rgba(85,85,85,1.0);fill:none"/><text x="120" y="373" style="stroke-width:0;stroke:none;fill:rgba(51,51,51,1.0);font-size:12.8px;font-family:'Roboto Medium',sans-serif">2019-02-19</text><path  d="M 268 351
L 268 356" style="stroke-width:2;stroke:rgba(85,85,85,1.0);fill:none"/><text x="235" y="373" style="stroke-width:0;stroke:none;fill:rgba(51,51,51,1.0);font-size:12.8px;font-family:'Roboto Medium',sans-serif">2019-07-16</text><path  d="M 383 351
L 383 356" style="stroke-width:2;stroke:rgba(85,85,85,1.0);fill:none"/><text x="350" y="373" style="stroke-width:0;stroke:none;fill:rgba(51,51,51,1.0);font-size:12.8px;font-family:'Roboto Medium',sans-serif">2019-12-11</text><path  d="M 498 351
L 498 356" style="stroke-width:2;stroke:rgba(85,85,85,1.0);fill:none"/><text x="465" y="373" style="stroke-width:0;stroke:none;fill:rgba(51,51,51,1.0);font-size:12.8px;font-family:'Roboto Medium',sans-serif">2020-05-06</text><path  d="M 613 351
L 613 356" style="stroke-width:2;stroke:rgba(85,85,85,1.0);fill:none"/><text x="580" y="373" style="stroke-width:0;stroke:none;fill:rgba(51,51,51,1.0);font-size:12.8px;font-family:'Roboto Medium',sans-serif">2020-10-01</text><path  d="M 728 351
L 728 356" style="stroke-width:2;stroke:rgba(85,85,85,1.0);fill:none"/><text x="695" y="373" style="stroke-width:0;stroke:none;fill:rgba(51,51,51,1.0);font-size:12.8px;font-family:'Roboto Medium',sans-serif">2021-02-25</text><path  d="M 843 351
L 843 356" style="stroke-width:2;stroke:rgba(85,85,85,1.0);fill:none"/><text x="810" y="373" style="stroke-width:0;stroke:none;fill:rgba(51,51,51,1.0);font-size:12.8px;font-family:'Roboto Medium',sans-serif">2021-07-23</text><path  d="M 957 351
L 957 356" style="stroke-width:2;stroke:rgba(85,85,85,1.0);fill:none"/><text x="924" y="373" style="stroke-width:0;stroke:none;fill:rgba(51,51,51,1.0);font-size:12.8px;font-family:'Roboto Medium',sans-serif">2021-12-17</text><text x="483" y="395" style="stroke-width:0;stroke:none;fill:rgba(51,51,51,1.0);font-size:12.8px;font-family:'Roboto Medium',sans-serif">Time</text><path  d="M 959 351
L 959 11" style="stroke-width:2;stroke:rgba(85,85,85,1.0);fill:none"/><path  d="M 959 351
L 964 351" style="stroke-width:2;stroke:rgba(85,85,85,1.0);fill:none"/><text x="969" y="357" style="stroke-width:0;stroke:none;fill:rgba(51,51,51,1.0);font-size:12.8px;font-family:'Roboto Medium',sans-serif">0</text><path  d="M 959 308
L 964 308" style="stroke-width:2;stroke:rgba(85,85,85,1.0);fill:none"/><text x="969" y="314" style="stroke-width:0;stroke:none;fill:rgba(51,51,51,1.0);font-size:12.8px;font-family:'Roboto Medium',sans-serif">1180</text><path  d="M 959 266
L 964 266" style="stroke-width:2;stroke:rgba(85,85,85,1.0);fill:none"/><text x="969" y="272" style="stroke-width:0;stroke:none;fill:rgba(51,51,51,1.0);font-size:12.8px;font-family:'Roboto Medium',sans-serif">2350</text><path  d="M 959 223
L 964 223" style="stroke-width:2;stroke:rgba(85,85,85,1.0);fill:none"/><text x="969" y="229" style="stroke-width:0;stroke:none;fill:rgba(51,51,51,1.0);font-size:12.8px;font-family:'Roboto Medium',sans-serif">3530</text><path  d="M 959 181
L 964 181" style="stroke-width:2;stroke:rgba(85,85,85,1.0);fill:none"/><text x="969" y="187" style="stroke-width:0;stroke:none;fill:rgba(51,51,51,1.0);font-size:12.8px;font-family:'Roboto Medium',sans-serif">4700</text><path  d="M 959 138
L 964 138" style="stroke-width:2;stroke:rgba(85,85,85,1.0);fill:none"/><text x="969" y="144" style="stroke-width:0;stroke:none;fill:rgba(51,51,51,1.0);font-size:12.8px;font-family:'Roboto Medium',sans-serif">5880</text><path  d="M 959 96
L 964 96" style="stroke-width:2;stroke:rgba(85,85,85,1.0);fill:none"/><text x="969" y="102" style="stroke-width:0;stroke:none;fill:rgba(51,51,51,1.0);font-size:12.8px;font-family:'Roboto Medium',sans-serif">7050</text><path  d="M 959 53
L 964 53" style="stroke-width:2;stroke:rgba(85,85,85,1.0);fill:none"/><text x="969" y="59" style="stroke-width:0;stroke:none;fill:rgba(51,51,51,1.0);font-size:12.8px;font-family:'Roboto Medium',sans-serif">8230</text><path  d="M 959 11
L 964 11" style="stroke-width:2;stroke:rgba(85,85,85,1.0);fill:none"/><text x="969" y="17" style="stroke-width:0;stroke:none;fill:rgba(51,51,51,1.0);font-size:12.8px;font-family:'Roboto Medium',sans-serif">9400</text><text x="1009" y="150" style="stroke-width:0;stroke:none;fill:rgba(51,51,51,1.0);font-size:12.8px;font-family:'Roboto Medium',sans-serif" transform="rotate(90.00,1009,150)">Stargazers</text><path  d="M 38 351
L 40 350
L 50 350
L 50 350
L 51 350
L 51 350
L 51 350
L 54 350
L 54 350
L 55 350
L 57 350
L 57 350
L 58 350
L 58 350
L 58 350
L 58 350
L 61 350
L 67 350
L 67 350
L 69 350
L 69 350
L 70 350
L 72 350
L 72 350
L 74 350
L 74 350
L 78 350
L 82 350
L 88 349
L 88 349
L 93 349
L 93 349
L 93 349
L 93 349
L 94 349
L 94 349
L 94 349
L 94 349
L 95 349
L 95 349
L 95 349
L 96 349
L 98 349
L 98 349
L 99 349
L 99 349
L 99 349
L 100 349
L 100 349
L 101 349
L 102 349
L 103 349
L 104 349
L 105 349
L 106 349
L 107 349
L 107 348
L 109 348
L 109 348
L 110 348
L 110 348
L 110 348
L 110 348
L 111 348
L 111 348
L 111 348
L 111 348
L 112 348
L 112 348
L 112 348
L 112 348
L 113 348
L 113 348
L 114 348
L 114 348
L 114 348
L 116 348
L 116 348
L 117 348
L 117 348
L 120 348
L 120 348
L 120 348
L 120 347
L 120 347
L 120 347
L 121 347
L 121 347
L 122 347
L 122 347
L 123 347
L 123 347
L 125 347
L 126 347
L 126 347
L 126 347
L 127 347
L 127 347
L 128 347
L 131 347
L 132 347
L 133 347
L 133 347
L 133 347
L 134 347
L 141 347
L 144 347
L 148 347
L 148 347
L 149 347
L 149 347
L 150 346
L 150 346
L 151 346
L 152 346
L 153 346
L 153 346
L 153 346
L 154 346
L 154 346
L 154 346
L 155 346
L 155 346
L 158 346
L 158 346
L 160 346
L 161 346
L 163 346
L 163 346
L 164 346
L 165 346
L 166 346
L 166 346
L 166 346
L 166 346
L 168 346
L 168 346
L 169 346
L 170 346
L 171 345
L 172 345
L 174 345
L 174 345
L 175 345
L 176 345
L 176 345
L 176 345
L 177 345
L 177 345
L 180 345
L 181 345
L 181 345
L 181 345
L 182 345
L 183 345
L 183 345
L 183 345
L 184 345
L 184 345
L 184 345
L 185 345
L 185 345
L 185 345
L 186 345
L 186 345
L 186 345
L 186 344
L 186 344
L 186 344
L 186 344
L 187 344
L 187 344
L 187 344
L 187 344
L 187 344
L 187 344
L 187 344
L 188 344
L 188 344
L 190 344
L 190 344
L 191 344
L 191 344
L 192 344
L 192 344
L 192 344
L 192 344
L 193 344
L 193 344
L 193 344
L 193 344
L 194 344
L 195 344
L 197 344
L 197 343
L 197 343
L 199 343
L 199 343
L 202 343
L 202 343
L 202 343
L 203 343
L 203 343
L 203 343
L 203 343
L 204 343
L 204 343
L 205 343
L 206 343
L 206 343
L 207 343
L 207 343
L 207 343
L 208 343
L 208 343
L 208 343
L 209 343
L 209 343
L 210 343
L 211 343
L 212 343
L 213 343
L 213 342
L 214 342
L 215 342
L 215 342
L 216 342
L 216 342
L 216 342
L 217 342
L 220 342
L 220 342
L 223 342
L 224 342
L 225 342
L 227 342
L 228 342
L 229 342
L 229 342
L 230 342
L 235 342
L 235 342
L 235 342
L 236 342
L 236 342
L 236 342
L 237 342
L 237 342
L 237 342
L 237 341
L 243 341
L 245 341
L 246 341
L 247 341
L 247 341
L 247 341
L 247 341
L 247 341
L 247 341
L 247 341
L 247 341
L 248 341
L 248 341
L 251 341
L 251 341
L 251 341
L 253 341
L 254 341
L 254 341
L 255 341
L 255 341
L 256 341
L 256 341
L 257 341
L 257 341
L 257 341
L 257 341
L 257 340
L 258 340
L 258 340
L 258 340
L 258 340
L 259 340
L 259 340
L 259 340
L 260 340
L 260 340
L 261 340
L 261 340
L 261 340
L 261 340
L 263 340
L 264 340
L 265 340
L 265 340
L 266 340
L 267 340
L 267 340
L 268 340
L 268 340
L 270 340
L 271 340
L 272 340
L 273 340
L 276 340
L 276 339
L 277 339
L 279 339
L 279 339
L 279 339
L 280 339
L 284 339
L 288 339
L 288 339
L 289 339
L 291 339
L 293 339
L 294 339
L 296 339
L 299 339
L 299 339
L 299 339
L 300 339
L 303 339
L 307 339
L 308 339
L 308 339
L 308 339
L 309 339
L 319 339
L 319 339
L 320 339
L 321 338
L 321 338
L 321 338
L 321 338
L 321 338
L 321 338
L 321 338
L 321 338
L 322 338
L 322 338
L 322 338
L 323 338
L 326 338
L 326 338
L 327 338
L 332 338
L 334 338
L 335 338
L 336 338
L 336 338
L 337 338
L 337 338
L 339 338
L 339 338
L 339 338
L 339 338
L 340 338
L 340 338
L 341 337
L 343 337
L 344 337
L 344 337
L 345 337
L 349 337
L 360 337
L 361 337
L 364 337
L 367 337
L 367 337
L 369 337
L 371 337
L 371 337
L 371 337
L 372 337
L 372 337
L 373 337
L 373 337
L 377 337
L 377 337
L 379 337
L 380 337
L 385 337
L 385 337
L 385 337
L 390 337
L 392 337
L 392 336
L 394 336
L 394 336
L 394 336
L 395 336
L 395 336
L 395 336
L 395 336
L 395 336
L 395 336
L 396 336
L 398 336
L 398 336
L 402 336
L 403 336
L 405 336
L 408 336
L 408 336
L 409 336
L 409 336
L 410 336
L 411 336
L 412 336
L 414 336
L 414 336
L 419 336
L 419 336
L 420 335
L 421 335
L 422 335
L 424 335
L 426 335
L 428 335
L 432 335
L 434 335
L 434 335
L 435 335
L 438 335
L 444 335
L 446 335
L 448 335
L 449 335
L 450 335
L 450 335
L 451 335
L 452 335
L 452 335
L 452 335
L 454 335
L 454 335
L 454 335
L 455 335
L 455 335
L 455 335
L 456 335
L 456 334
L 457 334
L 457 334
L 459 334
L 459 334
L 459 334
L 459 334
L 460 334
L 460 334
L 460 334
L 460 334
L 460 334
L 460 334
L 461 334
L 461 334
L 461 334
L 462 334
L 463 334
L 464 334
L 464 334
L 466 334
L 466 334
L 466 334
L 466 334
L 466 334
L 467 334
L 467 334
L 468 334
L 468 333
L 468 333
L 469 333
L 469 333
L 469 333
L 469 333
L 470 333
L 471 333
L 472 333
L 474 333
L 474 333
L 474 333
L 474 333
L 474 333
L 475 333
L 475 333
L 476 333
L 476 333
L 476 333
L 477 333
L 477 333
L 477 333
L 477 333
L 477 333
L 477 333
L 477 333
L 477 333
L 477 332
L 477 332
L 477 332
L 477 332
L 478 332
L 478 332
L 478 332
L 479 332
L 479 332
L 479 332
L 480 332
L 480 332
L 480 332
L 480 332
L 482 332
L 482 332
L 483 332
L 483 332
L 483 332
L 483 332
L 485 332
L 485 332
L 485 332
L 485 332
L 485 332
L 485 332
L 485 332
L 485 332
L 485 331
L 485 331
L 485 331
L 485 331
L 485 331
L 485 331
L 485 331
L 485 331
L 485 331
L 486 331
L 486 331
L 486 331
L 486 331
L 486 331
L 486 331
L 486 331
L 486 331
L 486 331
L 486 331
L 486 331
L 487 331
L 487 331
L 487 331
L 487 331
L 487 331
L 488 331
L 488 331
L 488 330
L 488 330
L 488 330
L 488 330
L 488 330
L 489 330
L 489 330
L 490 330
L 490 330
L 491 330
L 491 330
L 491 330
L 491 330
L 491 330
L 492 330
L 492 330
L 492 330
L 492 330
L 492 330
L 492 330
L 493 330
L 494 330
L 494 330
L 495 330
L 495 330
L 496 330
L 497 330
L 498 330
L 498 329
L 498 329
L 498 329
L 498 329
L 498 329
L 498 329
L 499 329
L 499 329
L 499 329
L 500 329
L 501 329
L 501 329
L 501 329
L 502 329
L 502 329
L 503 329
L 503 329
L 503 329
L 504 329
L 504 329
L 504 329
L 504 329
L 505 329
L 505 329
L 505 329
L 505 329
L 505 329
L 506 329
L 506 328
L 506 328
L 507 328
L 508 328
L 508 328
L 509 328
L 509 328
L 509 328
L 510 328
L 510 328
L 511 328
L 511 328
L 512 328
L 512 328
L 512 328
L 513 328
L 513 328
L 513 328
L 513 328
L 514 328
L 514 328
L 514 328
L 514 328
L 514 328
L 515 328
L 515 328
L 515 328
L 515 327
L 515 327
L 516 327
L 516 327
L 516 327
L 516 327
L 516 327
L 517 327
L 517 327
L 519 327
L 519 327
L 519 327
L 519 327
L 519 327
L 520 327
L 520 327
L 520 327
L 521 327
L 522 327
L 522 327
L 522 327
L 522 327
L 522 327
L 522 327
L 522 327
L 522 327
L 522 327
L 522 327
L 522 326
L 522 326
L 522 326
L 523 326
L 523 326
L 523 326
L 523 326
L 523 326
L 523 326
L 523 326
L 523 326
L 524 326
L 524 326
L 524 326
L 524 326
L 525 326
L 526 326
L 526 326
L 527 326
L 527 326
L 527 326
L 527 326
L 527 326
L 528 326
L 528 326
L 528 326
L 529 326
L 529 326
L 529 325
L 529 325
L 529 325
L 529 325
L 529 325
L 529 325
L 529 325
L 529 325
L 529 325
L 529 325
L 530 325
L 530 325
L 530 325
L 530 325
L 530 325
L 530 325
L 530 325
L 531 325
L 531 325
L 531 325
L 531 325
L 531 325
L 532 325
L 532 325
L 532 325
L 532 325
L 533 325
L 533 324
L 533 324
L 533 324
L 533 324
L 533 324
L 533 324
L 533 324
L 534 324
L 534 324
L 534 324
L 535 324
L 535 324
L 536 324
L 536 324
L 536 324
L 538 324
L 538 324
L 538 324
L 538 324
L 538 324
L 538 324
L 539 324
L 539 324
L 539 324
L 540 324
L 540 324
L 540 324
L 540 324
L 541 323
L 541 323
L 541 323
L 541 323
L 541 323
L 542 323
L 542 323
L 542 323
L 542 323
L 543 323
L 543 323
L 543 323
L 543 323
L 544 323
L 544 323
L 544 323
L 545 323
L 545 323
L 545 323
L 545 323
L 545 323
L 546 323
L 547 323
L 547 323
L 547 323
L 547 323
L 548 323
L 548 323
L 549 322
L 549 322
L 549 322
L 551 322
L 551 322
L 551 322
L 551 322
L 552 322
L 552 322
L 553 322
L 553 322
L 553 322
L 553 322
L 554 322
L 554 322
L 554 322
L 554 322
L 554 322
L 554 322
L 555 322
L 555 322
L 555 322
L 556 322
L 556 322
L 556 322
L 556 322
L 556 322
L 556 321
L 556 321
L 557 321
L 557 321
L 557 321
L 558 321
L 558 321
L 559 321
L 559 321
L 559 321
L 559 321
L 559 321
L 560 321
L 560 321
L 560 321
L 561 321
L 561 321
L 561 321
L 561 321
L 562 321
L 562 321
L 562 321
L 562 321
L 562 321
L 562 321
L 562 321
L 562 321
L 563 321
L 563 320
L 563 320
L 563 320
L 563 320
L 563 320
L 563 320
L 564 320
L 564 320
L 564 320
L 564 320
L 564 320
L 565 320
L 565 320
L 565 320
L 565 320
L 565 320
L 565 320
L 565 320
L 566 320
L 566 320
L 567 320
L 567 320
L 567 320
L 567 320
L 567 320
L 568 320
L 568 320
L 568 320
L 569 319
L 569 319
L 569 319
L 569 319
L 569 319
L 570 319
L 570 319
L 570 319
L 570 319
L 571 319
L 572 319
L 572 319
L 572 319
L 572 319
L 572 319
L 573 319
L 573 319
L 573 319
L 573 319
L 573 319
L 573 319
L 574 319
L 574 319
L 574 319
L 575 319
L 575 319
L 575 319
L 575 318
L 575 318
L 576 318
L 576 318
L 576 318
L 577 318
L 577 318
L 578 318
L 578 318
L 578 318
L 578 318
L 578 318
L 578 318
L 579 318
L 579 318
L 579 318
L 580 318
L 580 318
L 580 318
L 580 318
L 580 318
L 580 318
L 581 318
L 581 318
L 581 318
L 582 318
L 582 318
L 583 318
L 583 317
L 584 317
L 584 317
L 585 317
L 585 317
L 586 317
L 587 317
L 588 317
L 589 317
L 589 317
L 589 317
L 590 317
L 590 317
L 590 317
L 591 317
L 591 317
L 592 317
L 592 317
L 592 317
L 593 317
L 593 317
L 593 317
L 593 317
L 594 317
L 594 317
L 594 317
L 594 317
L 594 317
L 595 316
L 595 316
L 596 316
L 596 316
L 596 316
L 597 316
L 597 316
L 597 316
L 597 316
L 597 316
L 597 316
L 597 316
L 597 316
L 597 316
L 597 316
L 598 316
L 598 316
L 599 316
L 599 316
L 599 316
L 599 316
L 599 316
L 600 316
L 600 316
L 600 316
L 600 316
L 602 316
L 602 315
L 602 315
L 603 315
L 603 315
L 604 315
L 605 315
L 606 315
L 606 315
L 606 315
L 607 315
L 607 315
L 607 315
L 607 315
L 607 315
L 610 315
L 610 315
L 610 315
L 610 315
L 610 315
L 610 315
L 610 315
L 611 315
L 611 315
L 611 315
L 611 315
L 611 315
L 612 315
L 612 315
L 612 314
L 612 314
L 612 314
L 614 314
L 615 314
L 616 314
L 617 314
L 618 314
L 619 314
L 619 314
L 619 314
L 619 314
L 620 314
L 620 314
L 621 314
L 621 314
L 621 314
L 621 314
L 621 314
L 622 314
L 622 314
L 622 314
L 622 314
L 622 314
L 622 314
L 622 314
L 622 314
L 622 313
L 623 313
L 623 313
L 623 313
L 623 313
L 624 313
L 624 313
L 624 313
L 624 313
L 624 313
L 624 313
L 624 313
L 624 313
L 625 313
L 625 313
L 625 313
L 625 313
L 625 313
L 627 313
L 627 313
L 627 313
L 627 313
L 628 313
L 628 313
L 628 313
L 628 313
L 629 313
L 629 313
L 629 312
L 629 312
L 629 312
L 630 312
L 630 312
L 630 312
L 630 312
L 630 312
L 630 312
L 632 312
L 632 312
L 632 312
L 633 312
L 633 312
L 633 312
L 633 312
L 633 312
L 633 312
L 633 312
L 633 312
L 633 312
L 633 312
L 633 312
L 633 312
L 634 312
L 634 312
L 634 312
L 634 312
L 634 311
L 634 311
L 634 311
L 634 311
L 634 311
L 635 311
L 635 311
L 635 311
L 635 311
L 635 311
L 635 311
L 635 311
L 635 311
L 635 311
L 635 311
L 635 311
L 635 311
L 636 311
L 636 311
L 636 311
L 636 311
L 636 311
L 636 311
L 636 311
L 637 311
L 637 311
L 637 311
L 637 310
L 637 310
L 638 310
L 638 310
L 638 310
L 638 310
L 639 310
L 639 310
L 639 310
L 639 310
L 639 310
L 639 310
L 639 310
L 639 310
L 639 310
L 639 310
L 639 310
L 639 310
L 639 310
L 639 310
L 640 310
L 640 310
L 640 310
L 640 310
L 640 310
L 641 310
L 642 310
L 642 310
L 642 309
L 642 309
L 643 309
L 643 309
L 643 309
L 643 309
L 643 309
L 643 309
L 644 309
L 644 309
L 644 309
L 644 309
L 644 309
L 644 309
L 645 309
L 645 309
L 645 309
L 645 309
L 645 309
L 646 309
L 646 309
L 646 309
L 646 309
L 646 309
L 647 309
L 647 309
L 647 309
L 647 309
L 647 308
L 648 308
L 648 308
L 648 308
L 649 308
L 649 308
L 649 308
L 649 308
L 649 308
L 650 308
L 650 308
L 650 308
L 650 308
L 650 308
L 650 308
L 651 308
L 651 308
L 651 308
L 651 308
L 651 308
L 651 308
L 652 308
L 652 308
L 652 308
L 653 308
L 653 308
L 653 308
L 653 307
L 653 307
L 653 307
L 654 307
L 654 307
L 654 307
L 654 307
L 654 307
L 654 307
L 655 307
L 655 307
L 656 307
L 656 307
L 656 307
L 657 307
L 657 307
L 657 307
L 657 307
L 657 307
L 657 307
L 657 307
L 657 307
L 658 307
L 659 307
L 659 307
L 659 307
L 660 307
L 660 307
L 660 306
L 660 306
L 660 306
L 660 306
L 661 306
L 661 306
L 661 306
L 661 306
L 661 306
L 661 306
L 661 306
L 661 306
L 661 306
L 661 306
L 662 306
L 662 306
L 662 306
L 662 306
L 662 306
L 662 306
L 664 306
L 665 306
L 665 306
L 665 306
L 665 306
L 666 306
L 666 306
L 666 306
L 666 305
L 666 305
L 666 305
L 667 305
L 667 305
L 667 305
L 667 305
L 667 305
L 667 305
L 667 305
L 667 305
L 667 305
L 668 305
L 668 305
L 668 305
L 668 305
L 668 305
L 670 305
L 670 305
L 670 305
L 670 305
L 670 305
L 670 305
L 671 305
L 671 305
L 671 305
L 671 305
L 671 304
L 672 304
L 672 304
L 672 304
L 672 304
L 672 304
L 673 304
L 673 304
L 674 304
L 674 304
L 674 304
L 674 304
L 675 304
L 675 304
L 675 304
L 676 304
L 676 304
L 676 304
L 676 304
L 676 304
L 677 304
L 677 304
L 677 304
L 677 304
L 677 304
L 677 304
L 677 304
L 677 304
L 677 303
L 677 303
L 677 303
L 677 303
L 678 303
L 678 303
L 678 303
L 678 303
L 678 303
L 678 303
L 678 303
L 678 303
L 678 303
L 679 303
L 679 303
L 679 303
L 679 303
L 679 303
L 679 303
L 680 303
L 680 303
L 680 303
L 681 303
L 681 303
L 681 303
L 681 303
L 681 303
L 682 303
L 682 302
L 682 302
L 682 302
L 682 302
L 682 302
L 682 302
L 682 302
L 682 302
L 682 302
L 682 302
L 683 302
L 683 302
L 683 302
L 683 302
L 684 302
L 684 302
L 684 302
L 685 302
L 685 302
L 686 302
L 686 302
L 686 302
L 686 302
L 687 302
L 687 302
L 687 302
L 687 302
L 687 301
L 688 301
L 688 301
L 688 301
L 688 301
L 688 301
L 688 301
L 689 301
L 689 301
L 689 301
L 689 301
L 689 301
L 689 301
L 689 301
L 689 301
L 689 301
L 689 301
L 689 301
L 689 301
L 689 301
L 690 301
L 690 301
L 690 301
L 691 301
L 691 301
L 691 301
L 692 301
L 692 301
L 692 300
L 692 300
L 693 300
L 693 300
L 693 300
L 693 300
L 693 300
L 693 300
L 693 300
L 693 300
L 693 300
L 693 300
L 694 300
L 694 300
L 694 300
L 694 300
L 695 300
L 695 300
L 695 300
L 696 300
L 696 300
L 696 300
L 696 300
L 696 300
L 696 300
L 696 300
L 697 300
L 698 300
L 698 299
L 698 299
L 698 299
L 698 299
L 699 299
L 699 299
L 699 299
L 699 299
L 699 299
L 699 299
L 700 299
L 700 299
L 700 299
L 700 299
L 700 299
L 701 299
L 701 299
L 701 299
L 701 299
L 701 299
L 701 299
L 702 299
L 702 299
L 702 299
L 702 299
L 702 299
L 702 299
L 702 298
L 703 298
L 703 298
L 703 298
L 703 298
L 703 298
L 703 298
L 703 298
L 703 298
L 703 298
L 704 298
L 704 298
L 704 298
L 704 298
L 704 298
L 704 298
L 704 298
L 705 298
L 705 298
L 705 298
L 705 298
L 706 298
L 706 298
L 706 298
L 707 298
L 707 298
L 707 298
L 708 298
L 708 297
L 708 297
L 708 297
L 708 297
L 708 297
L 708 297
L 708 297
L 709 297
L 709 297
L 709 297
L 709 297
L 709 297
L 710 297
L 710 297
L 710 297
L 711 297
L 711 297
L 711 297
L 711 297
L 711 297
L 711 297
L 711 297
L 711 297
L 712 297
L 712 297
L 712 297
L 712 297
L 712 296
L 713 296
L 713 296
L 713 296
L 713 296
L 713 296
L 713 296
L 713 296
L 713 296
L 713 296
L 714 296
L 714 296
L 714 296
L 714 296
L 715 296
L 715 296
L 715 296
L 716 296
L 716 296
L 717 296
L 718 296
L 718 296
L 718 296
L 718 296
L 718 296
L 718 296
L 720 296
L 720 296
L 720 295
L 720 295
L 721 295
L 721 295
L 721 295
L 721 295
L 722 295
L 722 295
L 722 295
L 722 295
L 722 295
L 722 295
L 723 295
L 723 295
L 723 295
L 723 295
L 723 295
L 723 295
L 723 295
L 723 295
L 723 295
L 723 295
L 724 295
L 724 295
L 724 295
L 724 295
L 724 295
L 724 295
L 724 294
L 724 294
L 725 294
L 725 294
L 725 294
L 725 294
L 725 294
L 725 294
L 726 294
L 726 294
L 726 294
L 726 294
L 726 294
L 726 294
L 726 294
L 726 294
L 726 294
L 726 294
L 727 294
L 727 294
L 727 294
L 727 294
L 727 294
L 727 294
L 727 294
L 728 294
L 728 294
L 728 293
L 728 293
L 728 293
L 728 293
L 728 293
L 728 293
L 728 293
L 728 293
L 728 293
L 728 293
L 728 293
L 729 293
L 730 293
L 730 293
L 730 293
L 730 293
L 730 293
L 730 293
L 730 293
L 731 293
L 731 293
L 731 293
L 731 293
L 731 293
L 731 293
L 731 293
L 731 293
L 731 293
L 731 292
L 731 292
L 731 292
L 731 292
L 731 292
L 732 292
L 732 292
L 732 292
L 732 292
L 732 292
L 732 292
L 732 292
L 732 292
L 732 292
L 732 292
L 733 292
L 733 292
L 733 292
L 733 292
L 733 292
L 733 292
L 733 292
L 733 292
L 734 292
L 734 292
L 734 292
L 734 292
L 735 292
L 735 291
L 735 291
L 735 291
L 735 291
L 735 291
L 736 291
L 736 291
L 736 291
L 736 291
L 736 291
L 736 291
L 736 291
L 736 291
L 736 291
L 737 291
L 737 291
L 737 291
L 737 291
L 737 291
L 737 291
L 737 291
L 737 291
L 738 291
L 738 291
L 738 291
L 738 291
L 738 291
L 738 290
L 738 290
L 738 290
L 739 290
L 739 290
L 739 290
L 739 290
L 739 290
L 739 290
L 739 290
L 739 290
L 739 290
L 739 290
L 739 290
L 740 290
L 740 290
L 740 290
L 740 290
L 741 290
L 741 290
L 741 290
L 741 290
L 741 290
L 741 290
L 741 290
L 741 290
L 741 290
L 741 290
L 741 289
L 741 289
L 741 289
L 741 289
L 741 289
L 741 289
L 741 289
L 741 289
L 741 289
L 741 289
L 741 289
L 741 289
L 741 289
L 741 289
L 741 289
L 741 289
L 741 289
L 741 289
L 741 289
L 741 289
L 741 289
L 741 289
L 741 289
L 741 289
L 741 289
L 741 289
L 741 289
L 741 289
L 741 288
L 741 288
L 741 288
L 741 288
L 741 288
L 741 288
L 741 288
L 741 288
L 741 288
L 741 288
L 741 288
L 741 288
L 741 288
L 741 288
L 741 288
L 741 288
L 741 288
L 741 288
L 741 288
L 741 288
L 741 288
L 741 288
L 741 288
L 741 288
L 741 288
L 741 288
L 741 288
L 741 287
L 741 287
L 741 287
L 741 287
L 741 287
L 741 287
L 741 287
L 741 287
L 741 287
L 741 287
L 741 287
L 741 287
L 741 287
L 741 287
L 741 287
L 741 287
L 741 287
L 741 287
L 741 287
L 741 287
L 741 287
L 741 287
L 741 287
L 741 287
L 741 287
L 741 287
L 741 287
L 741 287
L 741 286
L 741 286
L 741 286
L 742 286
L 742 286
L 742 286
L 742 286
L 742 286
L 742 286
L 742 286
L 742 286
L 742 286
L 742 286
L 742 286
L 742 286
L 742 286
L 742 286
L 742 286
L 742 286
L 742 286
L 742 286
L 742 286
L 742 286
L 742 286
L 742 286
L 742 286
L 742 286
L 742 286
L 742 285
L 742 285
L 742 285
L 742 285
L 742 285
L 742 285
L 742 285
L 742 285
L 742 285
L 742 285
L 742 285
L 742 285
L 742 285
L 742 285
L 742 285
L 742 285
L 742 285
L 742 285
L 742 285
L 742 285
L 743 285
L 743 285
L 743 285
L 743 285
L 743 285
L 743 285
L 743 285
L 743 284
L 743 284
L 743 284
L 743 284
L 743 284
L 743 284
L 743 284
L 743 284
L 743 284
L 743 284
L 743 284
L 743 284
L 743 284
L 743 284
L 743 284
L 743 284
L 743 284
L 743 284
L 743 284
L 743 284
L 743 284
L 743 284
L 743 284
L 743 284
L 743 284
L 743 284
L 743 284
L 743 284
L 743 283
L 743 283
L 743 283
L 743 283
L 743 283
L 743 283
L 743 283
L 743 283
L 743 283
L 743 283
L 743 283
L 743 283
L 743 283
L 743 283
L 743 283
L 743 283
L 743 283
L 743 283
L 743 283
L 743 283
L 743 283
L 743 283
L 743 283
L 743 283
L 743 283
L 743 283
L 743 283
L 743 283
L 743 282
L 743 282
L 743 282
L 743 282
L 743 282
L 743 282
L 743 282
L 743 282
L 743 282
L 743 282
L 743 282
L 743 282
L 743 282
L 743 282
L 743 282
L 743 282
L 743 282
L 743 282
L 743 282
L 743 282
L 743 282
L 743 282
L 743 282
L 743 282
L 743 282
L 743 282
L 743 282
L 743 281
L 743 281
L 743 281
L 743 281
L 743 281
L 743 281
L 743 281
L 743 281
L 743 281
L 743 281
L 743 281
L 744 281
L 744 281
L 744 281
L 744 281
L 744 281
L 744 281
L 744 281
L 744 281
L 744 281
L 744 281
L 744 281
L 744 281
L 744 281
L 744 281
L 744 281
L 744 281
L 744 281
L 744 280
L 744 280
L 744 280
L 744 280
L 744 280
L 744 280
L 744 280
L 744 280
L 744 280
L 744 280
L 744 280
L 744 280
L 744 280
L 744 280
L 744 280
L 744 280
L 744 280
L 744 280
L 744 280
L 744 280
L 744 280
L 744 280
L 744 280
L 744 280
L 744 280
L 744 280
L 744 280
L 744 279
L 744 279
L 744 279
L 744 279
L 744 279
L 744 279
L 744 279
L 744 279
L 744 279
L 745 279
L 745 279
L 745 279
L 745 279
L 745 279
L 745 279
L 745 279
L 745 279
L 745 279
L 745 279
L 745 279
L 745 279
L 745 279
L 745 279
L 745 279
L 745 279
L 745 279
L 745 279
L 745 279
L 745 278
L 745 278
L 745 278
L 745 278
L 745 278
L 745 278
L 745 278
L 745 278
L 745 278
L 745 278
L 745 278
L 745 278
L 745 278
L 745 278
L 745 278
L 745 278
L 745 278
L 745 278
L 746 278
L 746 278
L 746 278
L 746 278
L 746 278
L 746 278
L 746 278
L 746 278
L 746 278
L 746 278
L 747 277
L 747 277
L 747 277
L 747 277
L 747 277
L 747 277
L 747 277
L 747 277
L 747 277
L 748 277
L 748 277
L 748 277
L 748 277
L 748 277
L 748 277
L 748 277
L 748 277
L 748 277
L 748 277
L 748 277
L 748 277
L 748 277
L 748 277
L 748 277
L 749 277
L 749 277
L 749 277
L 749 276
L 749 276
L 749 276
L 749 276
L 749 276
L 749 276
L 749 276
L 749 276
L 749 276
L 749 276
L 749 276
L 749 276
L 750 276
L 750 276
L 750 276
L 750 276
L 750 276
L 750 276
L 750 276
L 750 276
L 750 276
L 750 276
L 751 276
L 751 276
L 751 276
L 751 276
L 751 276
L 751 276
L 751 275
L 752 275
L 752 275
L 752 275
L 752 275
L 752 275
L 752 275
L 752 275
L 752 275
L 752 275
L 752 275
L 752 275
L 753 275
L 753 275
L 753 275
L 753 275
L 753 275
L 753 275
L 753 275
L 753 275
L 753 275
L 753 275
L 753 275
L 753 275
L 753 275
L 753 275
L 753 275
L 753 275
L 753 274
L 753 274
L 753 274
L 753 274
L 753 274
L 753 274
L 753 274
L 753 274
L 753 274
L 753 274
L 753 274
L 753 274
L 753 274
L 753 274
L 753 274
L 753 274
L 753 274
L 753 274
L 753 274
L 753 274
L 753 274
L 753 274
L 753 274
L 753 274
L 753 274
L 753 274
L 753 274
L 753 273
L 753 273
L 753 273
L 753 273
L 753 273
L 753 273
L 753 273
L 753 273
L 753 273
L 753 273
L 754 273
L 754 273
L 754 273
L 754 273
L 754 273
L 754 273
L 754 273
L 754 273
L 754 273
L 754 273
L 754 273
L 754 273
L 754 273
L 754 273
L 754 273
L 754 273
L 754 273
L 754 273
L 754 272
L 754 272
L 754 272
L 754 272
L 754 272
L 754 272
L 754 272
L 754 272
L 754 272
L 755 272
L 755 272
L 755 272
L 755 272
L 755 272
L 755 272
L 755 272
L 755 272
L 755 272
L 755 272
L 755 272
L 755 272
L 755 272
L 755 272
L 755 272
L 755 272
L 755 272
L 755 272
L 755 272
L 755 271
L 755 271
L 755 271
L 755 271
L 755 271
L 755 271
L 755 271
L 755 271
L 755 271
L 755 271
L 755 271
L 755 271
L 755 271
L 755 271
L 755 271
L 755 271
L 755 271
L 755 271
L 755 271
L 755 271
L 755 271
L 755 271
L 755 271
L 755 271
L 755 271
L 755 271
L 755 271
L 755 270
L 755 270
L 755 270
L 755 270
L 755 270
L 755 270
L 755 270
L 755 270
L 755 270
L 755 270
L 755 270
L 755 270
L 755 270
L 755 270
L 755 270
L 755 270
L 755 270
L 755 270
L 755 270
L 755 270
L 755 270
L 755 270
L 755 270
L 755 270
L 755 270
L 755 270
L 755 270
L 755 270
L 755 269
L 755 269
L 755 269
L 755 269
L 755 269
L 755 269
L 755 269
L 755 269
L 755 269
L 755 269
L 755 269
L 755 269
L 755 269
L 755 269
L 755 269
L 755 269
L 755 269
L 755 269
L 755 269
L 755 269
L 755 269
L 755 269
L 755 269
L 756 269
L 756 269
L 756 269
L 756 269
L 756 269
L 756 268
L 756 268
L 756 268
L 756 268
L 756 268
L 756 268
L 756 268
L 756 268
L 756 268
L 756 268
L 756 268
L 756 268
L 756 268
L 756 268
L 756 268
L 756 268
L 756 268
L 756 268
L 756 268
L 756 268
L 756 268
L 756 268
L 756 268
L 756 268
L 756 268
L 756 268
L 756 268
L 756 267
L 756 267
L 756 267
L 756 267
L 756 267
L 756 267
L 756 267
L 757 267
L 757 267
L 757 267
L 757 267
L 757 267
L 757 267
L 757 267
L 757 267
L 757 267
L 757 267
L 757 267
L 757 267
L 757 267
L 757 267
L 757 267
L 757 267
L 757 267
L 757 267
L 757 267
L 757 267
L 757 267
L 757 266
L 757 266
L 757 266
L 757 266
L 757 266
L 757 266
L 757 266
L 757 266
L 757 266
L 757 266
L 757 266
L 757 266
L 758 266
L 758 266
L 758 266
L 758 266
L 758 266
L 758 266
L 758 266
L 758 266
L 758 266
L 758 266
L 758 266
L 758 266
L 758 266
L 758 266
L 758 266
L 758 266
L 758 265
L 758 265
L 758 265
L 758 265
L 758 265
L 758 265
L 758 265
L 759 265
L 759 265
L 759 265
L 759 265
L 759 265
L 759 265
L 759 265
L 759 265
L 759 265
L 759 265
L 759 265
L 759 265
L 759 265
L 759 265
L 759 265
L 759 265
L 759 265
L 759 265
L 759 265
L 759 265
L 759 264
L 759 264
L 759 264
L 759 264
L 759 264
L 759 264
L 759 264
L 759 264
L 759 264
L 759 264
L 759 264
L 760 264
L 760 264
L 760 264
L 760 264
L 760 264
L 760 264
L 760 264
L 760 264
L 760 264
L 760 264
L 760 264
L 760 264
L 760 264
L 760 264
L 760 264
L 761 264
L 761 264
L 761 263
L 761 263
L 761 263
L 761 263
L 761 263
L 761 263
L 761 263
L 761 263
L 761 263
L 761 263
L 762 263
L 762 263
L 762 263
L 762 263
L 762 263
L 762 263
L 762 263
L 762 263
L 762 263
L 762 263
L 762 263
L 763 263
L 763 263
L 763 263
L 763 263
L 763 263
L 763 263
L 763 262
L 763 262
L 763 262
L 763 262
L 764 262
L 764 262
L 764 262
L 764 262
L 764 262
L 764 262
L 764 262
L 764 262
L 764 262
L 764 262
L 764 262
L 764 262
L 764 262
L 765 262
L 765 262
L 765 262
L 765 262
L 765 262
L 765 262
L 765 262
L 765 262
L 765 262
L 765 262
L 765 262
L 765 261
L 765 261
L 765 261
L 765 261
L 765 261
L 765 261
L 765 261
L 766 261
L 766 261
L 766 261
L 766 261
L 766 261
L 766 261
L 766 261
L 766 261
L 766 261
L 766 261
L 766 261
L 766 261
L 767 261
L 767 261
L 767 261
L 767 261
L 767 261
L 767 261
L 767 261
L 767 261
L 767 261
L 767 260
L 767 260
L 767 260
L 767 260
L 767 260
L 767 260
L 767 260
L 767 260
L 767 260
L 768 260
L 768 260
L 768 260
L 768 260
L 768 260
L 768 260
L 768 260
L 768 260
L 768 260
L 768 260
L 768 260
L 768 260
L 768 260
L 769 260
L 769 260
L 769 260
L 769 260
L 769 260
L 769 259
L 769 259
L 769 259
L 769 259
L 769 259
L 769 259
L 769 259
L 769 259
L 769 259
L 769 259
L 769 259
L 769 259
L 769 259
L 769 259
L 769 259
L 769 259
L 769 259
L 769 259
L 769 259
L 770 259
L 770 259
L 770 259
L 770 259
L 770 259
L 770 259
L 770 259
L 770 259
L 770 259
L 770 258
L 770 258
L 770 258
L 770 258
L 771 258
L 771 258
L 771 258
L 771 258
L 771 258
L 771 258
L 771 258
L 771 258
L 771 258
L 772 258
L 772 258
L 772 258
L 772 258
L 772 258
L 772 258
L 773 258
L 773 258
L 773 258
L 773 258
L 773 258
L 773 258
L 773 258
L 773 258
L 773 258
L 773 257
L 773 257
L 773 257
L 773 257
L 773 257
L 773 257
L 773 257
L 773 257
L 773 257
L 773 257
L 773 257
L 773 257
L 773 257
L 773 257
L 773 257
L 773 257
L 773 257
L 773 257
L 773 257
L 773 257
L 773 257
L 773 257
L 773 257
L 773 257
L 773 257
L 773 257
L 773 257
L 773 256
L 773 256
L 773 256
L 773 256
L 773 256
L 773 256
L 773 256
L 773 256
L 774 256
L 774 256
L 774 256
L 774 256
L 774 256
L 774 256
L 774 256
L 774 256
L 774 256
L 774 256
L 774 256
L 774 256
L 774 256
L 774 256
L 774 256
L 774 256
L 774 256
L 774 256
L 774 256
L 774 256
L 774 255
L 774 255
L 774 255
L 774 255
L 774 255
L 774 255
L 774 255
L 774 255
L 774 255
L 774 255
L 774 255
L 774 255
L 774 255
L 774 255
L 774 255
L 774 255
L 774 255
L 774 255
L 774 255
L 774 255
L 774 255
L 774 255
L 774 255
L 774 255
L 774 255
L 774 255
L 774 255
L 774 255
L 774 254
L 774 254
L 774 254
L 774 254
L 774 254
L 774 254
L 774 254
L 774 254
L 774 254
L 774 254
L 774 254
L 774 254
L 774 254
L 774 254
L 774 254
L 774 254
L 774 254
L 774 254
L 774 254
L 774 254
L 774 254
L 774 254
L 774 254
L 774 254
L 774 254
L 774 254
L 774 254
L 774 253
L 774 253
L 774 253
L 774 253
L 775 253
L 775 253
L 775 253
L 775 253
L 775 253
L 775 253
L 775 253
L 775 253
L 775 253
L 775 253
L 775 253
L 775 253
L 775 253
L 775 253
L 775 253
L 775 253
L 775 253
L 775 253
L 775 253
L 775 253
L 775 253
L 775 253
L 775 253
L 775 253
L 775 252
L 775 252
L 775 252
L 775 252
L 775 252
L 775 252
L 775 252
L 775 252
L 775 252
L 775 252
L 775 252
L 775 252
L 775 252
L 775 252
L 775 252
L 775 252
L 775 252
L 775 252
L 775 252
L 775 252
L 775 252
L 775 252
L 775 252
L 775 252
L 775 252
L 775 252
L 775 252
L 775 252
L 775 251
L 776 251
L 776 251
L 776 251
L 776 251
L 776 251
L 776 251
L 776 251
L 776 251
L 776 251
L 776 251
L 776 251
L 776 251
L 776 251
L 776 251
L 776 251
L 776 251
L 776 251
L 776 251
L 776 251
L 776 251
L 776 251
L 776 251
L 776 251
L 776 251
L 776 251
L 776 251
L 776 250
L 776 250
L 776 250
L 776 250
L 776 250
L 776 250
L 776 250
L 776 250
L 776 250
L 776 250
L 776 250
L 776 250
L 776 250
L 776 250
L 776 250
L 776 250
L 776 250
L 776 250
L 776 250
L 776 250
L 776 250
L 776 250
L 776 250
L 776 250
L 776 250
L 776 250
L 776 250
L 776 250
L 776 249
L 776 249
L 776 249
L 776 249
L 776 249
L 776 249
L 776 249
L 776 249
L 776 249
L 776 249
L 776 249
L 776 249
L 776 249
L 776 249
L 776 249
L 776 249
L 776 249
L 776 249
L 776 249
L 776 249
L 776 249
L 776 249
L 776 249
L 776 249
L 776 249
L 776 249
L 776 249
L 776 249
L 776 248
L 776 248
L 776 248
L 776 248
L 776 248
L 776 248
L 776 248
L 776 248
L 776 248
L 776 248
L 776 248
L 776 248
L 776 248
L 776 248
L 776 248
L 776 248
L 776 248
L 776 248
L 776 248
L 776 248
L 776 248
L 776 248
L 776 248
L 776 248
L 776 248
L 776 248
L 776 248
L 776 247
L 776 247
L 776 247
L 776 247
L 776 247
L 776 247
L 776 247
L 776 247
L 776 247
L 776 247
L 776 247
L 776 247
L 776 247
L 776 247
L 776 247
L 776 247
L 776 247
L 776 247
L 776 247
L 776 247
L 776 247
L 776 247
L 776 247
L 776 247
L 776 247
L 776 247
L 776 247
L 776 247
L 776 246
L 776 246
L 776 246
L 776 246
L 776 246
L 776 246
L 776 246
L 776 246
L 776 246
L 776 246
L 776 246
L 776 246
L 776 246
L 776 246
L 776 246
L 776 246
L 776 246
L 776 246
L 776 246
L 776 246
L 776 246
L 776 246
L 776 246
L 776 246
L 776 246
L 776 246
L 776 246
L 776 245
L 776 245
L 776 245
L 776 245
L 776 245
L 776 245
L 776 245
L 776 245
L 776 245
L 776 245
L 776 245
L 776 245
L 776 245
L 776 245
L 776 245
L 776 245
L 776 245
L 776 245
L 776 245
L 776 245
L 776 245
L 776 245
L 776 245
L 776 245
L 776 245
L 776 245
L 776 245
L 776 245
L 776 244
L 776 244
L 776 244
L 776 244
L 776 244
L 776 244
L 776 244
L 776 244
L 776 244
L 776 244
L 776 244
L 776 244
L 776 244
L 776 244
L 776 244
L 776 244
L 776 244
L 776 244
L 776 244
L 776 244
L 776 244
L 776 244
L 776 244
L 776 244
L 776 244
L 776 244
L 776 244
L 776 244
L 776 243
L 776 243
L 776 243
L 776 243
L 776 243
L 776 243
L 776 243
L 776 243
L 776 243
L 776 243
L 776 243
L 776 243
L 776 243
L 776 243
L 776 243
L 776 243
L 776 243
L 776 243
L 776 243
L 776 243
L 776 243
L 776 243
L 776 243
L 776 243
L 776 243
L 776 243
L 776 243
L 776 242
L 776 242
L 776 242
L 777 242
L 777 242
L 777 242
L 777 242
L 777 242
L 777 242
L 777 242
L 777 242
L 777 242
L 777 242
L 777 242
L 777 242
L 777 242
L 777 242
L 777 242
L 777 242
L 777 242
L 777 242
L 777 242
L 777 242
L 777 242
L 777 242
L 777 242
L 777 242
L 777 242
L 777 241
L 777 241
L 777 241
L 777 241
L 777 241
L 777 241
L 777 241
L 777 241
L 777 241
L 777 241
L 777 241
L 777 241
L 777 241
L 777 241
L 777 241
L 777 241
L 777 241
L 777 241
L 777 241
L 777 241
L 777 241
L 777 241
L 777 241
L 777 241
L 777 241
L 777 241
L 777 241
L 777 241
L 777 240
L 777 240
L 777 240
L 777 240
L 777 240
L 777 240
L 777 240
L 777 240
L 777 240
L 777 240
L 777 240
L 777 240
L 777 240
L 777 240
L 777 240
L 777 240
L 777 240
L 777 240
L 777 240
L 777 240
L 777 240
L 777 240
L 777 240
L 777 240
L 777 240
L 777 240
L 777 240
L 777 239
L 777 239
L 777 239
L 777 239
L 777 239
L 777 239
L 777 239
L 777 239
L 777 239
L 777 239
L 777 239
L 777 239
L 777 239
L 777 239
L 777 239
L 777 239
L 777 239
L 777 239
L 777 239
L 777 239
L 777 239
L 777 239
L 777 239
L 777 239
L 777 239
L 777 239
L 777 239
L 777 239
L 777 238
L 777 238
L 777 238
L 777 238
L 777 238
L 777 238
L 777 238
L 777 238
L 777 238
L 777 238
L 777 238
L 777 238
L 777 238
L 777 238
L 777 238
L 777 238
L 777 238
L 777 238
L 777 238
L 777 238
L 777 238
L 777 238
L 777 238
L 777 238
L 777 238
L 777 238
L 777 238
L 777 238
L 777 237
L 777 237
L 777 237
L 777 237
L 777 237
L 777 237
L 777 237
L 777 237
L 777 237
L 777 237
L 777 237
L 777 237
L 777 237
L 777 237
L 777 237
L 777 237
L 777 237
L 777 237
L 777 237
L 777 237
L 777 237
L 777 237
L 777 237
L 777 237
L 777 237
L 777 237
L 777 237
L 777 236
L 777 236
L 777 236
L 777 236
L 777 236
L 777 236
L 777 236
L 777 236
L 777 236
L 777 236
L 777 236
L 777 236
L 777 236
L 777 236
L 777 236
L 777 236
L 777 236
L 777 236
L 777 236
L 777 236
L 777 236
L 777 236
L 777 236
L 777 236
L 777 236
L 777 236
L 777 236
L 777 236
L 777 235
L 777 235
L 777 235
L 777 235
L 777 235
L 777 235
L 777 235
L 777 235
L 777 235
L 777 235
L 777 235
L 777 235
L 777 235
L 777 235
L 777 235
L 777 235
L 777 235
L 777 235
L 777 235
L 777 235
L 777 235
L 777 235
L 777 235
L 777 235
L 777 235
L 777 235
L 777 235
L 777 235
L 777 234
L 777 234
L 777 234
L 777 234
L 777 234
L 777 234
L 777 234
L 777 234
L 777 234
L 777 234
L 777 234
L 777 234
L 777 234
L 777 234
L 777 234
L 777 234
L 777 234
L 777 234
L 777 234
L 777 234
L 777 234
L 777 234
L 777 234
L 777 234
L 777 234
L 777 234
L 777 234
L 777 233
L 777 233
L 777 233
L 777 233
L 777 233
L 777 233
L 777 233
L 777 233
L 777 233
L 777 233
L 777 233
L 777 233
L 777 233
L 777 233
L 777 233
L 777 233
L 777 233
L 777 233
L 777 233
L 777 233
L 777 233
L 777 233
L 777 233
L 777 233
L 777 233
L 777 233
L 777 233
L 777 233
L 777 232
L 777 232
L 777 232
L 777 232
L 777 232
L 777 232
L 777 232
L 777 232
L 777 232
L 777 232
L 777 232
L 777 232
L 777 232
L 777 232
L 777 232
L 777 232
L 777 232
L 777 232
L 777 232
L 777 232
L 777 232
L 777 232
L 777 232
L 777 232
L 777 232
L 777 232
L 777 232
L 777 232
L 777 231
L 777 231
L 777 231
L 777 231
L 777 231
L 777 231
L 777 231
L 777 231
L 777 231
L 777 231
L 777 231
L 777 231
L 777 231
L 777 231
L 777 231
L 777 231
L 777 231
L 777 231
L 777 231
L 777 231
L 777 231
L 777 231
L 777 231
L 777 231
L 777 231
L 777 231
L 777 231
L 777 230
L 777 230
L 777 230
L 777 230
L 777 230
L 777 230
L 777 230
L 777 230
L 777 230
L 777 230
L 777 230
L 777 230
L 777 230
L 777 230
L 777 230
L 777 230
L 777 230
L 777 230
L 777 230
L 777 230
L 777 230
L 777 230
L 777 230
L 777 230
L 777 230
L 777 230
L 777 230
L 777 230
L 777 229
L 777 229
L 777 229
L 777 229
L 777 229
L 777 229
L 777 229
L 777 229
L 777 229
L 777 229
L 777 229
L 777 229
L 777 229
L 777 229
L 777 229
L 777 229
L 777 229
L 777 229
L 777 229
L 777 229
L 777 229
L 777 229
L 777 229
L 777 229
L 777 229
L 777 229
L 777 229
L 777 228
L 777 228
L 777 228
L 778 228
L 778 228
L 778 228
L 778 228
L 778 228
L 778 228
L 778 228
L 778 228
L 778 228
L 778 228
L 778 228
L 778 228
L 778 228
L 778 228
L 778 228
L 778 228
L 778 228
L 778 228
L 778 228
L 778 228
L 778 228
L 778 228
L 778 228
L 778 228
L 778 228
L 778 227
L 778 227
L 778 227
L 778 227
L 778 227
L 778 227
L 778 227
L 778 227
L 778 227
L 778 227
L 778 227
L 778 227
L 778 227
L 778 227
L 778 227
L 778 227
L 778 227
L 778 227
L 778 227
L 778 227
L 778 227
L 778 227
L 778 227
L 778 227
L 778 227
L 778 227
L 778 227
L 778 227
L 778 226
L 778 226
L 778 226
L 778 226
L 778 226
L 778 226
L 778 226
L 778 226
L 778 226
L 778 226
L 778 226
L 778 226
L 778 226
L 778 226
L 778 226
L 778 226
L 778 226
L 778 226
L 778 226
L 778 226
L 778 226
L 778 226
L 778 226
L 778 226
L 778 226
L 778 226
L 778 226
L 778 225
L 778 225
L 778 225
L 778 225
L 778 225
L 778 225
L 778 225
L 778 225
L 778 225
L 778 225
L 778 225
L 778 225
L 778 225
L 778 225
L 778 225
L 778 225
L 778 225
L 778 225
L 778 225
L 778 225
L 778 225
L 778 225
L 778 225
L 778 225
L 778 225
L 778 225
L 778 225
L 778 225
L 778 224
L 778 224
L 778 224
L 778 224
L 778 224
L 778 224
L 778 224
L 778 224
L 778 224
L 778 224
L 778 224
L 778 224
L 778 224
L 778 224
L 778 224
L 778 224
L 778 224
L 778 224
L 778 224
L 778 224
L 778 224
L 778 224
L 778 224
L 778 224
L 778 224
L 778 224
L 778 224
L 778 224
L 778 223
L 778 223
L 778 223
L 778 223
L 778 223
L 778 223
L 778 223
L 778 223
L 778 223
L 778 223
L 778 223
L 778 223
L 778 223
L 778 223
L 778 223
L 778 223
L 778 223
L 778 223
L 778 223
L 778 223
L 778 223
L 778 223
L 778 223
L 778 223
L 778 223
L 778 223
L 778 223
L 778 222
L 778 222
L 778 222
L 778 222
L 778 222
L 778 222
L 778 222
L 778 222
L 778 222
L 778 222
L 778 222
L 778 222
L 778 222
L 778 222
L 778 222
L 778 222
L 778 222
L 778 222
L 778 222
L 778 222
L 778 222
L 778 222
L 778 222
L 778 222
L 778 222
L 778 222
L 779 222
L 779 222
L 779 221
L 779 221
L 779 221
L 779 221
L 779 221
L 779 221
L 779 221
L 779 221
L 779 221
L 779 221
L 779 221
L 779 221
L 779 221
L 779 221
L 779 221
L 779 221
L 779 221
L 779 221
L 779 221
L 779 221
L 779 221
L 779 221
L 779 221
L 779 221
L 779 221
L 779 221
L 779 221
L 779 221
L 779 220
L 779 220
L 779 220
L 779 220
L 779 220
L 779 220
L 779 220
L 779 220
L 779 220
L 779 220
L 779 220
L 779 220
L 779 220
L 779 220
L 779 220
L 779 220
L 779 220
L 779 220
L 779 220
L 779 220
L 779 220
L 779 220
L 779 220
L 779 220
L 779 220
L 779 220
L 779 220
L 779 219
L 779 219
L 779 219
L 779 219
L 779 219
L 779 219
L 779 219
L 779 219
L 779 219
L 779 219
L 779 219
L 779 219
L 779 219
L 779 219
L 779 219
L 779 219
L 779 219
L 779 219
L 779 219
L 779 219
L 779 219
L 779 219
L 779 219
L 779 219
L 779 219
L 779 219
L 779 219
L 779 219
L 779 218
L 779 218
L 779 218
L 780 218
L 780 218
L 780 218
L 780 218
L 780 218
L 780 218
L 780 218
L 780 218
L 780 218
L 780 218
L 780 218
L 780 218
L 780 218
L 780 218
L 781 218
L 781 218
L 781 218
L 781 218
L 781 218
L 781 218
L 781 218
L 781 218
L 781 218
L 781 218
L 781 218
L 781 217
L 781 217
L 781 217
L 781 217
L 781 217
L 781 217
L 781 217
L 781 217
L 781 217
L 781 217
L 781 217
L 781 217
L 782 217
L 782 217
L 782 217
L 782 217
L 782 217
L 782 217
L 782 217
L 782 217
L 782 217
L 782 217
L 782 217
L 782 217
L 782 217
L 782 217
L 782 217
L 782 216
L 782 216
L 782 216
L 782 216
L 782 216
L 782 216
L 782 216
L 782 216
L 782 216
L 782 216
L 782 216
L 782 216
L 782 216
L 782 216
L 783 216
L 783 216
L 783 216
L 783 216
L 783 216
L 783 216
L 783 216
L 783 216
L 783 216
L 783 216
L 783 216
L 783 216
L 783 216
L 783 216
L 783 215
L 783 215
L 783 215
L 783 215
L 783 215
L 783 215
L 783 215
L 783 215
L 783 215
L 783 215
L 783 215
L 783 215
L 783 215
L 783 215
L 784 215
L 784 215
L 784 215
L 784 215
L 784 215
L 784 215
L 784 215
L 784 215
L 784 215
L 784 215
L 784 215
L 784 215
L 784 215
L 784 215
L 784 214
L 784 214
L 784 214
L 784 214
L 784 214
L 784 214
L 784 214
L 785 214
L 785 214
L 785 214
L 785 214
L 785 214
L 785 214
L 785 214
L 785 214
L 785 214
L 785 214
L 785 214
L 785 214
L 785 214
L 785 214
L 785 214
L 785 214
L 785 214
L 785 214
L 785 214
L 785 214
L 785 213
L 785 213
L 785 213
L 785 213
L 785 213
L 785 213
L 785 213
L 785 213
L 785 213
L 785 213
L 785 213
L 786 213
L 786 213
L 786 213
L 786 213
L 786 213
L 786 213
L 786 213
L 786 213
L 786 213
L 786 213
L 786 213
L 786 213
L 786 213
L 786 213
L 786 213
L 786 213
L 786 213
L 786 212
L 786 212
L 786 212
L 786 212
L 786 212
L 786 212
L 786 212
L 787 212
L 787 212
L 787 212
L 787 212
L 787 212
L 787 212
L 787 212
L 787 212
L 787 212
L 787 212
L 787 212
L 787 212
L 787 212
L 787 212
L 787 212
L 788 212
L 788 212
L 788 212
L 788 212
L 788 212
L 788 211
L 788 211
L 788 211
L 788 211
L 788 211
L 788 211
L 788 211
L 788 211
L 788 211
L 788 211
L 788 211
L 788 211
L 788 211
L 788 211
L 788 211
L 788 211
L 788 211
L 788 211
L 788 211
L 788 211
L 788 211
L 789 211
L 789 211
L 789 211
L 789 211
L 789 211
L 789 211
L 789 211
L 789 210
L 789 210
L 789 210
L 790 210
L 790 210
L 790 210
L 790 210
L 790 210
L 790 210
L 790 210
L 790 210
L 790 210
L 790 210
L 790 210
L 790 210
L 790 210
L 790 210
L 790 210
L 791 210
L 791 210
L 791 210
L 791 210
L 791 210
L 791 210
L 791 210
L 791 210
L 791 210
L 791 210
L 791 209
L 791 209
L 791 209
L 791 209
L 791 209
L 791 209
L 791 209
L 791 209
L 791 209
L 791 209
L 791 209
L 791 209
L 791 209
L 791 209
L 791 209
L 792 209
L 792 209
L 792 209
L 792 209
L 792 209
L 792 209
L 792 209
L 792 209
L 792 209
L 792 209
L 792 209
L 792 209
L 792 208
L 792 208
L 792 208
L 792 208
L 792 208
L 792 208
L 792 208
L 792 208
L 792 208
L 792 208
L 793 208
L 793 208
L 793 208
L 793 208
L 793 208
L 793 208
L 793 208
L 793 208
L 794 208
L 794 208
L 794 208
L 794 208
L 794 208
L 794 208
L 794 208
L 794 208
L 794 208
L 794 208
L 794 207
L 794 207
L 794 207
L 794 207
L 795 207
L 795 207
L 795 207
L 795 207
L 795 207
L 795 207
L 795 207
L 795 207
L 795 207
L 796 207
L 796 207
L 796 207
L 796 207
L 796 207
L 796 207
L 796 207
L 796 207
L 796 207
L 796 207
L 796 207
L 796 207
L 796 207
L 796 207
L 796 207
L 796 206
L 796 206
L 796 206
L 796 206
L 796 206
L 796 206
L 796 206
L 796 206
L 796 206
L 796 206
L 796 206
L 796 206
L 796 206
L 796 206
L 796 206
L 796 206
L 796 206
L 796 206
L 796 206
L 796 206
L 796 206
L 796 206
L 796 206
L 796 206
L 796 206
L 797 206
L 797 206
L 797 205
L 797 205
L 797 205
L 797 205
L 797 205
L 797 205
L 797 205
L 797 205
L 797 205
L 797 205
L 797 205
L 797 205
L 797 205
L 797 205
L 797 205
L 797 205
L 797 205
L 797 205
L 797 205
L 797 205
L 797 205
L 797 205
L 797 205
L 797 205
L 797 205
L 797 205
L 797 205
L 797 205
L 797 204
L 797 204
L 797 204
L 797 204
L 797 204
L 797 204
L 797 204
L 797 204
L 797 204
L 797 204
L 797 204
L 797 204
L 797 204
L 797 204
L 797 204
L 797 204
L 797 204
L 797 204
L 797 204
L 797 204
L 797 204
L 797 204
L 797 204
L 797 204
L 797 204
L 797 204
L 797 204
L 797 204
L 797 203
L 797 203
L 797 203
L 797 203
L 797 203
L 797 203
L 797 203
L 797 203
L 797 203
L 797 203
L 797 203
L 797 203
L 797 203
L 797 203
L 797 203
L 797 203
L 797 203
L 797 203
L 797 203
L 797 203
L 797 203
L 797 203
L 797 203
L 797 203
L 797 203
L 797 203
L 797 203
L 797 202
L 797 202
L 797 202
L 797 202
L 797 202
L 797 202
L 797 202
L 797 202
L 797 202
L 797 202
L 797 202
L 797 202
L 797 202
L 797 202
L 797 202
L 797 202
L 797 202
L 797 202
L 797 202
L 797 202
L 797 202
L 797 202
L 797 202
L 797 202
L 797 202
L 797 202
L 797 202
L 797 202
L 797 201
L 797 201
L 797 201
L 797 201
L 797 201
L 797 201
L 797 201
L 797 201
L 797 201
L 797 201
L 797 201
L 797 201
L 797 201
L 797 201
L 797 201
L 797 201
L 797 201
L 797 201
L 797 201
L 797 201
L 797 201
L 797 201
L 797 201
L 797 201
L 797 201
L 797 201
L 797 201
L 797 201
L 797 200
L 797 200
L 797 200
L 797 200
L 797 200
L 797 200
L 797 200
L 797 200
L 797 200
L 797 200
L 797 200
L 797 200
L 797 200
L 797 200
L 797 200
L 797 200
L 797 200
L 797 200
L 797 200
L 797 200
L 797 200
L 797 200
L 797 200
L 798 200
L 798 200
L 798 200
L 798 200
L 798 199
L 798 199
L 798 199
L 798 199
L 798 199
L 798 199
L 798 199
L 798 199
L 798 199
L 798 199
L 798 199
L 798 199
L 798 199
L 798 199
L 798 199
L 798 199
L 798 199
L 798 199
L 798 199
L 798 199
L 798 199
L 798 199
L 798 199
L 798 199
L 798 199
L 798 199
L 798 199
L 798 199
L 798 198
L 798 198
L 798 198
L 798 198
L 798 198
L 798 198
L 798 198
L 798 198
L 798 198
L 798 198
L 798 198
L 798 198
L 798 198
L 798 198
L 798 198
L 798 198
L 798 198
L 798 198
L 798 198
L 798 198
L 798 198
L 798 198
L 798 198
L 798 198
L 798 198
L 798 198
L 798 198
L 798 198
L 798 197
L 798 197
L 798 197
L 798 197
L 798 197
L 798 197
L 798 197
L 798 197
L 798 197
L 798 197
L 798 197
L 798 197
L 798 197
L 798 197
L 798 197
L 798 197
L 798 197
L 798 197
L 798 197
L 798 197
L 798 197
L 798 197
L 798 197
L 798 197
L 798 197
L 798 197
L 798 197
L 798 196
L 798 196
L 798 196
L 798 196
L 798 196
L 798 196
L 798 196
L 798 196
L 798 196
L 798 196
L 798 196
L 798 196
L 798 196
L 798 196
L 798 196
L 798 196
L 798 196
L 798 196
L 798 196
L 798 196
L 798 196
L 798 196
L 798 196
L 798 196
L 798 196
L 798 196
L 798 196
L 798 196
L 798 195
L 798 195
L 798 195
L 798 195
L 798 195
L 798 195
L 798 195
L 798 195
L 798 195
L 798 195
L 798 195
L 798 195
L 798 195
L 798 195
L 798 195
L 798 195
L 798 195
L 798 195
L 798 195
L 798 195
L 798 195
L 798 195
L 798 195
L 798 195
L 798 195
L 798 195
L 798 195
L 798 194
L 798 194
L 798 194
L 798 194
L 798 194
L 798 194
L 798 194
L 798 194
L 798 194
L 798 194
L 798 194
L 798 194
L 798 194
L 798 194
L 798 194
L 798 194
L 798 194
L 798 194
L 798 194
L 798 194
L 798 194
L 798 194
L 798 194
L 798 194
L 798 194
L 798 194
L 798 194
L 798 194
L 798 193
L 798 193
L 798 193
L 798 193
L 798 193
L 798 193
L 798 193
L 798 193
L 798 193
L 798 193
L 798 193
L 798 193
L 798 193
L 798 193
L 798 193
L 798 193
L 798 193
L 798 193
L 798 193
L 798 193
L 798 193
L 798 193
L 798 193
L 798 193
L 798 193
L 798 193
L 798 193
L 798 193
L 798 192
L 798 192
L 798 192
L 798 192
L 798 192
L 798 192
L 798 192
L 798 192
L 798 192
L 798 192
L 798 192
L 798 192
L 798 192
L 798 192
L 798 192
L 798 192
L 798 192
L 798 192
L 798 192
L 798 192
L 798 192
L 798 192
L 798 192
L 798 192
L 798 192
L 798 192
L 798 192
L 798 191
L 798 191
L 798 191
L 798 191
L 798 191
L 798 191
L 798 191
L 798 191
L 798 191
L 798 191
L 798 191
L 798 191
L 798 191
L 798 191
L 798 191
L 798 191
L 798 191
L 798 191
L 798 191
L 798 191
L 798 191
L 798 191
L 798 191
L 798 191
L 798 191
L 798 191
L 798 191
L 798 191
L 798 190
L 798 190
L 798 190
L 798 190
L 798 190
L 798 190
L 798 190
L 798 190
L 798 190
L 798 190
L 798 190
L 798 190
L 798 190
L 798 190
L 798 190
L 798 190
L 798 190
L 798 190
L 798 190
L 798 190
L 798 190
L 798 190
L 798 190
L 798 190
L 798 190
L 798 190
L 798 190
L 798 190
L 798 189
L 798 189
L 798 189
L 798 189
L 798 189
L 798 189
L 798 189
L 798 189
L 798 189
L 798 189
L 798 189
L 798 189
L 798 189
L 798 189
L 798 189
L 798 189
L 798 189
L 798 189
L 798 189
L 798 189
L 798 189
L 798 189
L 798 189
L 798 189
L 798 189
L 798 189
L 798 189
L 798 188
L 798 188
L 798 188
L 798 188
L 798 188
L 798 188
L 798 188
L 798 188
L 798 188
L 798 188
L 798 188
L 798 188
L 798 188
L 798 188
L 798 188
L 798 188
L 798 188
L 798 188
L 798 188
L 798 188
L 798 188
L 798 188
L 798 188
L 798 188
L 798 188
L 798 188
L 798 188
L 798 188
L 798 187
L 798 187
L 798 187
L 798 187
L 798 187
L 798 187
L 798 187
L 798 187
L 798 187
L 798 187
L 798 187
L 798 187
L 798 187
L 798 187
L 798 187
L 798 187
L 798 187
L 798 187
L 798 187
L 798 187
L 798 187
L 798 187
L 798 187
L 798 187
L 798 187
L 798 187
L 798 187
L 798 187
L 798 186
L 798 186
L 798 186
L 798 186
L 798 186
L 798 186
L 798 186
L 798 186
L 798 186
L 798 186
L 798 186
L 798 186
L 798 186
L 798 186
L 798 186
L 799 186
L 799 186
L 799 186
L 799 186
L 799 186
L 799 186
L 799 186
L 799 186
L 799 186
L 799 186
L 799 186
L 799 186
L 799 185
L 799 185
L 799 185
L 799 185
L 799 185
L 799 185
L 799 185
L 799 185
L 799 185
L 799 185
L 799 185
L 799 185
L 799 185
L 799 185
L 799 185
L 799 185
L 799 185
L 799 185
L 799 185
L 799 185
L 799 185
L 799 185
L 799 185
L 799 185
L 799 185
L 799 185
L 799 185
L 799 185
L 799 184
L 799 184
L 799 184
L 799 184
L 799 184
L 799 184
L 799 184
L 799 184
L 799 184
L 799 184
L 799 184
L 799 184
L 799 184
L 799 184
L 799 184
L 799 184
L 799 184
L 799 184
L 799 184
L 799 184
L 799 184
L 799 184
L 799 184
L 799 184
L 799 184
L 799 184
L 799 184
L 799 184
L 799 183
L 799 183
L 799 183
L 799 183
L 799 183
L 799 183
L 799 183
L 799 183
L 799 183
L 799 183
L 799 183
L 799 183
L 799 183
L 799 183
L 799 183
L 799 183
L 799 183
L 799 183
L 799 183
L 799 183
L 799 183
L 799 183
L 799 183
L 799 183
L 799 183
L 799 183
L 799 183
L 799 182
L 799 182
L 799 182
L 799 182
L 799 182
L 799 182
L 799 182
L 799 182
L 799 182
L 799 182
L 799 182
L 799 182
L 799 182
L 799 182
L 799 182
L 799 182
L 799 182
L 799 182
L 799 182
L 799 182
L 799 182
L 799 182
L 799 182
L 799 182
L 799 182
L 799 182
L 799 182
L 799 182
L 799 181
L 799 181
L 799 181
L 799 181
L 799 181
L 799 181
L 799 181
L 799 181
L 799 181
L 799 181
L 799 181
L 799 181
L 799 181
L 799 181
L 799 181
L 799 181
L 799 181
L 799 181
L 799 181
L 799 181
L 799 181
L 799 181
L 799 181
L 799 181
L 799 181
L 799 181
L 799 181
L 799 181
L 799 180
L 799 180
L 799 180
L 799 180
L 799 180
L 799 180
L 799 180
L 799 180
L 799 180
L 799 180
L 799 180
L 799 180
L 799 180
L 799 180
L 799 180
L 799 180
L 799 180
L 799 180
L 799 180
L 799 180
L 799 180
L 799 180
L 799 180
L 799 180
L 799 180
L 799 180
L 799 180
L 799 179
L 799 179
L 799 179
L 799 179
L 799 179
L 799 179
L 799 179
L 799 179
L 799 179
L 799 179
L 799 179
L 799 179
L 799 179
L 799 179
L 799 179
L 799 179
L 799 179
L 799 179
L 799 179
L 799 179
L 799 179
L 799 179
L 799 179
L 799 179
L 799 179
L 799 179
L 799 179
L 799 179
L 799 178
L 799 178
L 799 178
L 799 178
L 799 178
L 799 178
L 799 178
L 799 178
L 799 178
L 799 178
L 799 178
L 799 178
L 799 178
L 799 178
L 799 178
L 799 178
L 799 178
L 799 178
L 799 178
L 799 178
L 799 178
L 799 178
L 799 178
L 799 178
L 799 178
L 799 178
L 799 178
L 799 177
L 799 177
L 799 177
L 799 177
L 799 177
L 799 177
L 799 177
L 799 177
L 799 177
L 799 177
L 799 177
L 799 177
L 799 177
L 799 177
L 799 177
L 799 177
L 799 177
L 799 177
L 799 177
L 799 177
L 799 177
L 799 177
L 799 177
L 799 177
L 799 177
L 799 177
L 799 177
L 799 177
L 799 176
L 799 176
L 799 176
L 799 176
L 799 176
L 799 176
L 799 176
L 799 176
L 799 176
L 799 176
L 799 176
L 799 176
L 799 176
L 799 176
L 799 176
L 799 176
L 799 176
L 799 176
L 799 176
L 799 176
L 799 176
L 799 176
L 799 176
L 799 176
L 799 176
L 799 176
L 799 176
L 799 176
L 799 175
L 799 175
L 799 175
L 799 175
L 799 175
L 799 175
L 799 175
L 799 175
L 799 175
L 799 175
L 799 175
L 799 175
L 799 175
L 799 175
L 799 175
L 799 175
L 799 175
L 799 175
L 799 175
L 799 175
L 799 175
L 799 175
L 799 175
L 799 175
L 799 175
L 799 175
L 799 175
L 799 174
L 799 174
L 799 174
L 799 174
L 799 174
L 799 174
L 799 174
L 799 174
L 799 174
L 799 174
L 799 174
L 799 174
L 799 174
L 799 174
L 799 174
L 799 174
L 799 174
L 799 174
L 799 174
L 799 174
L 799 174
L 799 174
L 799 174
L 799 174
L 799 174
L 799 174
L 799 174
L 799 174
L 799 173
L 799 173
L 799 173
L 800 173
L 800 173
L 800 173
L 800 173
L 800 173
L 800 173
L 800 173
L 800 173
L 800 173
L 800 173
L 800 173
L 800 173
L 800 173
L 800 173
L 800 173
L 800 173
L 800 173
L 800 173
L 800 173
L 800 173
L 800 173
L 800 173
L 800 173
L 800 173
L 800 173
L 800 172
L 800 172
L 800 172
L 800 172
L 800 172
L 800 172
L 800 172
L 800 172
L 800 172
L 800 172
L 800 172
L 800 172
L 800 172
L 800 172
L 800 172
L 800 172
L 800 172
L 800 172
L 800 172
L 800 172
L 800 172
L 800 172
L 800 172
L 800 172
L 800 172
L 800 172
L 800 172
L 800 171
L 800 171
L 800 171
L 800 171
L 800 171
L 800 171
L 800 171
L 800 171
L 800 171
L 800 171
L 800 171
L 800 171
L 800 171
L 800 171
L 800 171
L 800 171
L 800 171
L 800 171
L 800 171
L 800 171
L 800 171
L 800 171
L 800 171
L 800 171
L 800 171
L 800 171
L 800 171
L 800 171
L 800 170
L 800 170
L 800 170
L 800 170
L 800 170
L 800 170
L 800 170
L 800 170
L 800 170
L 800 170
L 800 170
L 800 170
L 800 170
L 800 170
L 800 170
L 800 170
L 800 170
L 800 170
L 800 170
L 800 170
L 800 170
L 800 170
L 800 170
L 800 170
L 800 170
L 800 170
L 800 170
L 800 170
L 800 169
L 800 169
L 800 169
L 800 169
L 800 169
L 800 169
L 800 169
L 800 169
L 800 169
L 800 169
L 800 169
L 800 169
L 800 169
L 800 169
L 800 169
L 800 169
L 800 169
L 800 169
L 800 169
L 800 169
L 800 169
L 800 169
L 800 169
L 800 169
L 800 169
L 800 169
L 800 169
L 800 168
L 800 168
L 800 168
L 800 168
L 800 168
L 800 168
L 800 168
L 800 168
L 800 168
L 800 168
L 800 168
L 800 168
L 800 168
L 800 168
L 800 168
L 800 168
L 800 168
L 800 168
L 800 168
L 800 168
L 800 168
L 800 168
L 800 168
L 800 168
L 800 168
L 800 168
L 800 168
L 800 168
L 800 167
L 800 167
L 800 167
L 800 167
L 800 167
L 800 167
L 800 167
L 800 167
L 800 167
L 800 167
L 800 167
L 800 167
L 800 167
L 800 167
L 800 167
L 800 167
L 800 167
L 800 167
L 800 167
L 800 167
L 800 167
L 800 167
L 800 167
L 800 167
L 800 167
L 800 167
L 800 167
L 801 167
L 801 166
L 801 166
L 801 166
L 801 166
L 801 166
L 801 166
L 801 166
L 801 166
L 801 166
L 801 166
L 801 166
L 801 166
L 801 166
L 801 166
L 801 166
L 801 166
L 801 166
L 801 166
L 801 166
L 801 166
L 801 166
L 801 166
L 801 166
L 801 166
L 801 166
L 801 166
L 801 166
L 801 165
L 801 165
L 801 165
L 801 165
L 801 165
L 801 165
L 801 165
L 801 165
L 801 165
L 801 165
L 801 165
L 801 165
L 801 165
L 801 165
L 801 165
L 801 165
L 801 165
L 801 165
L 801 165
L 801 165
L 801 165
L 801 165
L 801 165
L 801 165
L 801 165
L 801 165
L 801 165
L 801 165
L 801 164
L 801 164
L 801 164
L 801 164
L 801 164
L 801 164
L 801 164
L 801 164
L 801 164
L 801 164
L 801 164
L 801 164
L 801 164
L 801 164
L 801 164
L 801 164
L 801 164
L 801 164
L 801 164
L 801 164
L 801 164
L 801 164
L 801 164
L 801 164
L 801 164
L 801 164
L 801 164
L 801 163
L 801 163
L 801 163
L 801 163
L 801 163
L 801 163
L 801 163
L 801 163
L 801 163
L 801 163
L 801 163
L 801 163
L 801 163
L 801 163
L 801 163
L 801 163
L 802 163
L 802 163
L 802 163
L 802 163
L 802 163
L 802 163
L 802 163
L 802 163
L 802 163
L 802 163
L 802 163
L 802 163
L 802 162
L 802 162
L 802 162
L 802 162
L 802 162
L 802 162
L 802 162
L 802 162
L 802 162
L 802 162
L 802 162
L 802 162
L 802 162
L 802 162
L 802 162
L 802 162
L 802 162
L 802 162
L 802 162
L 802 162
L 802 162
L 802 162
L 802 162
L 802 162
L 802 162
L 802 162
L 802 162
L 802 162
L 802 161
L 802 161
L 802 161
L 802 161
L 802 161
L 802 161
L 802 161
L 802 161
L 802 161
L 802 161
L 802 161
L 802 161
L 802 161
L 802 161
L 802 161
L 802 161
L 802 161
L 802 161
L 802 161
L 802 161
L 802 161
L 802 161
L 802 161
L 802 161
L 802 161
L 802 161
L 802 161
L 802 160
L 802 160
L 802 160
L 802 160
L 802 160
L 802 160
L 802 160
L 802 160
L 802 160
L 802 160
L 802 160
L 802 160
L 802 160
L 802 160
L 802 160
L 802 160
L 802 160
L 803 160
L 803 160
L 803 160
L 803 160
L 803 160
L 803 160
L 803 160
L 803 160
L 803 160
L 803 160
L 803 160
L 803 159
L 803 159
L 803 159
L 803 159
L 803 159
L 803 159
L 803 159
L 803 159
L 803 159
L 803 159
L 803 159
L 803 159
L 803 159
L 803 159
L 803 159
L 803 159
L 803 159
L 803 159
L 803 159
L 803 159
L 803 159
L 803 159
L 803 159
L 803 159
L 803 159
L 803 159
L 803 159
L 803 159
L 803 158
L 803 158
L 803 158
L 803 158
L 803 158
L 803 158
L 803 158
L 803 158
L 803 158
L 803 158
L 803 158
L 803 158
L 803 158
L 803 158
L 803 158
L 803 158
L 803 158
L 803 158
L 803 158
L 803 158
L 803 158
L 803 158
L 803 158
L 804 158
L 804 158
L 804 158
L 804 158
L 804 157
L 804 157
L 804 157
L 804 157
L 804 157
L 804 157
L 804 157
L 804 157
L 804 157
L 804 157
L 804 157
L 804 157
L 804 157
L 804 157
L 804 157
L 804 157
L 804 157
L 804 157
L 804 157
L 804 157
L 804 157
L 804 157
L 804 157
L 804 157
L 804 157
L 804 157
L 804 157
L 804 157
L 804 156
L 804 156
L 804 156
L 804 156
L 804 156
L 804 156
L 804 156
L 805 156
L 805 156
L 805 156
L 805 156
L 805 156
L 805 156
L 805 156
L 805 156
L 805 156
L 805 156
L 805 156
L 805 156
L 805 156
L 805 156
L 805 156
L 805 156
L 805 156
L 805 156
L 805 156
L 805 156
L 805 156
L 805 155
L 805 155
L 805 155
L 805 155
L 805 155
L 805 155
L 805 155
L 805 155
L 805 155
L 806 155
L 806 155
L 806 155
L 806 155
L 806 155
L 806 155
L 806 155
L 806 155
L 806 155
L 806 155
L 806 155
L 806 155
L 806 155
L 806 155
L 806 155
L 806 155
L 806 155
L 806 155
L 806 154
L 806 154
L 807 154
L 807 154
L 807 154
L 807 154
L 807 154
L 807 154
L 807 154
L 807 154
L 807 154
L 807 154
L 807 154
L 807 154
L 807 154
L 807 154
L 807 154
L 807 154
L 807 154
L 807 154
L 807 154
L 807 154
L 807 154
L 807 154
L 807 154
L 807 154
L 808 154
L 808 154
L 808 153
L 808 153
L 808 153
L 808 153
L 808 153
L 808 153
L 808 153
L 808 153
L 808 153
L 808 153
L 808 153
L 808 153
L 808 153
L 808 153
L 808 153
L 808 153
L 808 153
L 808 153
L 808 153
L 808 153
L 808 153
L 808 153
L 808 153
L 808 153
L 808 153
L 808 153
L 808 153
L 808 153
L 808 152
L 808 152
L 808 152
L 809 152
L 809 152
L 809 152
L 809 152
L 809 152
L 809 152
L 809 152
L 809 152
L 809 152
L 809 152
L 809 152
L 809 152
L 809 152
L 809 152
L 809 152
L 809 152
L 809 152
L 809 152
L 809 152
L 809 152
L 809 152
L 809 152
L 809 152
L 809 152
L 810 151
L 810 151
L 810 151
L 810 151
L 810 151
L 810 151
L 810 151
L 810 151
L 810 151
L 810 151
L 810 151
L 810 151
L 810 151
L 810 151
L 810 151
L 810 151
L 810 151
L 810 151
L 810 151
L 810 151
L 810 151
L 810 151
L 810 151
L 810 151
L 810 151
L 810 151
L 810 151
L 811 151
L 811 150
L 811 150
L 811 150
L 811 150
L 811 150
L 811 150
L 811 150
L 811 150
L 811 150
L 811 150
L 812 150
L 812 150
L 812 150
L 812 150
L 812 150
L 812 150
L 812 150
L 812 150
L 812 150
L 812 150
L 812 150
L 812 150
L 812 150
L 812 150
L 813 150
L 813 150
L 813 150
L 813 150
L 813 149
L 813 149
L 813 149
L 813 149
L 813 149
L 813 149
L 813 149
L 813 149
L 813 149
L 813 149
L 813 149
L 813 149
L 813 149
L 813 149
L 813 149
L 813 149
L 813 149
L 813 149
L 813 149
L 813 149
L 813 149
L 813 149
L 813 149
L 813 149
L 813 149
L 813 149
L 813 149
L 814 148
L 814 148
L 814 148
L 814 148
L 814 148
L 814 148
L 814 148
L 814 148
L 814 148
L 814 148
L 814 148
L 814 148
L 814 148
L 814 148
L 814 148
L 814 148
L 814 148
L 814 148
L 814 148
L 814 148
L 814 148
L 814 148
L 814 148
L 814 148
L 814 148
L 814 148
L 814 148
L 814 148
L 814 147
L 814 147
L 814 147
L 814 147
L 814 147
L 815 147
L 815 147
L 815 147
L 815 147
L 815 147
L 815 147
L 815 147
L 815 147
L 815 147
L 815 147
L 815 147
L 815 147
L 815 147
L 815 147
L 815 147
L 815 147
L 815 147
L 815 147
L 815 147
L 815 147
L 815 147
L 815 147
L 815 147
L 815 146
L 815 146
L 815 146
L 815 146
L 815 146
L 815 146
L 815 146
L 815 146
L 815 146
L 815 146
L 815 146
L 815 146
L 815 146
L 815 146
L 815 146
L 815 146
L 815 146
L 815 146
L 815 146
L 815 146
L 815 146
L 815 146
L 815 146
L 815 146
L 815 146
L 815 146
L 815 146
L 815 145
L 815 145
L 815 145
L 815 145
L 815 145
L 815 145
L 815 145
L 815 145
L 815 145
L 815 145
L 816 145
L 816 145
L 816 145
L 816 145
L 816 145
L 816 145
L 816 145
L 816 145
L 816 145
L 816 145
L 816 145
L 816 145
L 816 145
L 816 145
L 816 145
L 816 145
L 816 145
L 816 145
L 816 144
L 816 144
L 816 144
L 816 144
L 816 144
L 816 144
L 816 144
L 816 144
L 816 144
L 816 144
L 816 144
L 816 144
L 816 144
L 816 144
L 816 144
L 816 144
L 816 144
L 816 144
L 816 144
L 816 144
L 816 144
L 817 144
L 817 144
L 817 144
L 817 144
L 817 144
L 817 144
L 817 143
L 817 143
L 817 143
L 817 143
L 817 143
L 817 143
L 817 143
L 817 143
L 818 143
L 818 143
L 818 143
L 818 143
L 818 143
L 818 143
L 818 143
L 818 143
L 818 143
L 818 143
L 818 143
L 818 143
L 818 143
L 818 143
L 818 143
L 818 143
L 818 143
L 818 143
L 818 143
L 818 143
L 818 142
L 818 142
L 818 142
L 818 142
L 818 142
L 818 142
L 818 142
L 818 142
L 818 142
L 818 142
L 818 142
L 818 142
L 818 142
L 818 142
L 818 142
L 818 142
L 818 142
L 818 142
L 818 142
L 818 142
L 819 142
L 819 142
L 819 142
L 819 142
L 819 142
L 819 142
L 819 142
L 819 142
L 819 141
L 819 141
L 819 141
L 819 141
L 819 141
L 819 141
L 819 141
L 819 141
L 819 141
L 819 141
L 819 141
L 819 141
L 819 141
L 819 141
L 819 141
L 819 141
L 819 141
L 819 141
L 819 141
L 819 141
L 819 141
L 819 141
L 819 141
L 819 141
L 819 141
L 819 141
L 819 141
L 820 140
L 820 140
L 820 140
L 820 140
L 820 140
L 820 140
L 820 140
L 820 140
L 820 140
L 820 140
L 820 140
L 820 140
L 820 140
L 820 140
L 820 140
L 820 140
L 820 140
L 820 140
L 820 140
L 820 140
L 821 140
L 821 140
L 821 140
L 821 140
L 821 140
L 821 140
L 821 140
L 821 140
L 821 139
L 821 139
L 821 139
L 821 139
L 821 139
L 822 139
L 822 139
L 822 139
L 822 139
L 822 139
L 822 139
L 823 139
L 823 139
L 823 139
L 823 139
L 823 139
L 823 139
L 823 139
L 823 139
L 824 139
L 824 139
L 824 139
L 824 139
L 824 139
L 824 139
L 824 139
L 824 139
L 824 139
L 824 138
L 824 138
L 824 138
L 824 138
L 824 138
L 824 138
L 825 138
L 825 138
L 825 138
L 825 138
L 825 138
L 825 138
L 825 138
L 825 138
L 825 138
L 825 138
L 825 138
L 826 138
L 826 138
L 826 138
L 826 138
L 826 138
L 826 138
L 826 138
L 826 138
L 826 138
L 826 138
L 826 137
L 826 137
L 826 137
L 826 137
L 826 137
L 826 137
L 827 137
L 827 137
L 827 137
L 827 137
L 827 137
L 827 137
L 827 137
L 828 137
L 828 137
L 828 137
L 828 137
L 828 137
L 828 137
L 828 137
L 828 137
L 829 137
L 829 137
L 829 137
L 829 137
L 829 137
L 829 137
L 829 137
L 829 136
L 829 136
L 829 136
L 829 136
L 830 136
L 830 136
L 830 136
L 830 136
L 830 136
L 830 136
L 830 136
L 830 136
L 830 136
L 830 136
L 830 136
L 830 136
L 830 136
L 830 136
L 831 136
L 831 136
L 831 136
L 831 136
L 831 136
L 831 136
L 831 136
L 831 136
L 831 136
L 831 136
L 831 135
L 832 135
L 832 135
L 832 135
L 832 135
L 832 135
L 832 135
L 832 135
L 832 135
L 832 135
L 832 135
L 832 135
L 832 135
L 832 135
L 832 135
L 832 135
L 832 135
L 832 135
L 833 135
L 833 135
L 833 135
L 833 135
L 833 135
L 833 135
L 834 135
L 834 135
L 834 135
L 834 134
L 834 134
L 834 134
L 834 134
L 834 134
L 834 134
L 834 134
L 834 134
L 834 134
L 834 134
L 835 134
L 835 134
L 835 134
L 835 134
L 835 134
L 835 134
L 835 134
L 835 134
L 835 134
L 835 134
L 835 134
L 835 134
L 835 134
L 836 134
L 836 134
L 836 134
L 836 134
L 836 134
L 836 133
L 836 133
L 836 133
L 836 133
L 836 133
L 836 133
L 836 133
L 836 133
L 837 133
L 837 133
L 837 133
L 837 133
L 837 133
L 837 133
L 837 133
L 837 133
L 837 133
L 837 133
L 837 133
L 838 133
L 838 133
L 838 133
L 838 133
L 838 133
L 838 133
L 839 133
L 839 133
L 839 133
L 839 132
L 839 132
L 839 132
L 839 132
L 839 132
L 840 132
L 840 132
L 840 132
L 840 132
L 840 132
L 840 132
L 840 132
L 840 132
L 840 132
L 840 132
L 840 132
L 840 132
L 840 132
L 840 132
L 840 132
L 840 132
L 840 132
L 840 132
L 840 132
L 840 132
L 840 132
L 840 132
L 840 131
L 840 131
L 840 131
L 840 131
L 840 131
L 840 131
L 840 131
L 840 131
L 840 131
L 840 131
L 840 131
L 840 131
L 840 131
L 840 131
L 840 131
L 841 131
L 841 131
L 841 131
L 841 131
L 841 131
L 841 131
L 841 131
L 841 131
L 841 131
L 841 131
L 841 131
L 841 131
L 841 131
L 841 130
L 841 130
L 841 130
L 841 130
L 841 130
L 841 130
L 841 130
L 841 130
L 842 130
L 842 130
L 842 130
L 842 130
L 842 130
L 842 130
L 842 130
L 842 130
L 842 130
L 842 130
L 842 130
L 842 130
L 842 130
L 842 130
L 842 130
L 842 130
L 842 130
L 842 130
L 842 130
L 842 130
L 842 129
L 842 129
L 842 129
L 842 129
L 842 129
L 842 129
L 842 129
L 842 129
L 843 129
L 843 129
L 843 129
L 843 129
L 843 129
L 843 129
L 843 129
L 843 129
L 843 129
L 843 129
L 843 129
L 843 129
L 843 129
L 843 129
L 844 129
L 844 129
L 844 129
L 844 129
L 844 129
L 844 128
L 844 128
L 844 128
L 844 128
L 844 128
L 844 128
L 844 128
L 845 128
L 845 128
L 845 128
L 845 128
L 845 128
L 845 128
L 845 128
L 845 128
L 845 128
L 845 128
L 845 128
L 845 128
L 846 128
L 846 128
L 846 128
L 846 128
L 846 128
L 846 128
L 846 128
L 846 128
L 846 128
L 846 127
L 846 127
L 846 127
L 846 127
L 846 127
L 846 127
L 847 127
L 847 127
L 847 127
L 847 127
L 847 127
L 847 127
L 847 127
L 847 127
L 847 127
L 847 127
L 847 127
L 847 127
L 847 127
L 847 127
L 847 127
L 848 127
L 848 127
L 848 127
L 848 127
L 848 127
L 848 127
L 848 126
L 848 126
L 848 126
L 848 126
L 848 126
L 848 126
L 848 126
L 848 126
L 848 126
L 849 126
L 849 126
L 849 126
L 849 126
L 849 126
L 849 126
L 849 126
L 849 126
L 850 126
L 850 126
L 850 126
L 850 126
L 850 126
L 850 126
L 850 126
L 850 126
L 850 126
L 850 126
L 850 126
L 851 125
L 851 125
L 851 125
L 851 125
L 851 125
L 851 125
L 851 125
L 851 125
L 851 125
L 851 125
L 852 125
L 852 125
L 852 125
L 852 125
L 852 125
L 852 125
L 852 125
L 852 125
L 852 125
L 852 125
L 852 125
L 852 125
L 852 125
L 852 125
L 852 125
L 852 125
L 853 125
L 853 125
L 853 124
L 853 124
L 853 124
L 853 124
L 853 124
L 853 124
L 853 124
L 854 124
L 854 124
L 854 124
L 854 124
L 854 124
L 854 124
L 854 124
L 854 124
L 854 124
L 854 124
L 854 124
L 854 124
L 855 124
L 855 124
L 855 124
L 855 124
L 855 124
L 855 124
L 855 124
L 855 124
L 855 123
L 855 123
L 855 123
L 855 123
L 855 123
L 855 123
L 856 123
L 856 123
L 856 123
L 856 123
L 856 123
L 856 123
L 856 123
L 856 123
L 856 123
L 856 123
L 856 123
L 856 123
L 856 123
L 856 123
L 856 123
L 856 123
L 856 123
L 856 123
L 856 123
L 856 123
L 857 123
L 857 123
L 857 122
L 857 122
L 857 122
L 857 122
L 857 122
L 857 122
L 857 122
L 857 122
L 857 122
L 858 122
L 858 122
L 858 122
L 858 122
L 858 122
L 858 122
L 858 122
L 858 122
L 858 122
L 858 122
L 858 122
L 859 122
L 859 122
L 859 122
L 859 122
L 859 122
L 859 122
L 859 122
L 859 122
L 859 121
L 859 121
L 860 121
L 860 121
L 860 121
L 860 121
L 860 121
L 861 121
L 861 121
L 861 121
L 861 121
L 861 121
L 861 121
L 861 121
L 861 121
L 861 121
L 861 121
L 861 121
L 861 121
L 861 121
L 861 121
L 862 121
L 862 121
L 862 121
L 862 121
L 862 121
L 862 121
L 862 120
L 862 120
L 862 120
L 862 120
L 862 120
L 862 120
L 863 120
L 863 120
L 863 120
L 863 120
L 863 120
L 863 120
L 863 120
L 863 120
L 863 120
L 863 120
L 863 120
L 863 120
L 863 120
L 863 120
L 863 120
L 864 120
L 864 120
L 864 120
L 864 120
L 864 120
L 864 120
L 864 120
L 864 119
L 864 119
L 864 119
L 864 119
L 864 119
L 865 119
L 865 119
L 865 119
L 865 119
L 865 119
L 865 119
L 865 119
L 866 119
L 866 119
L 866 119
L 866 119
L 866 119
L 866 119
L 866 119
L 866 119
L 866 119
L 866 119
L 866 119
L 866 119
L 867 119
L 867 119
L 867 119
L 867 119
L 867 118
L 867 118
L 867 118
L 867 118
L 867 118
L 868 118
L 868 118
L 868 118
L 868 118
L 868 118
L 868 118
L 868 118
L 868 118
L 868 118
L 868 118
L 868 118
L 868 118
L 868 118
L 868 118
L 868 118
L 868 118
L 868 118
L 868 118
L 868 118
L 868 118
L 868 118
L 868 118
L 868 117
L 868 117
L 868 117
L 868 117
L 868 117
L 868 117
L 868 117
L 868 117
L 868 117
L 868 117
L 868 117
L 868 117
L 868 117
L 869 117
L 869 117
L 869 117
L 869 117
L 869 117
L 869 117
L 869 117
L 869 117
L 869 117
L 869 117
L 869 117
L 869 117
L 869 117
L 869 117
L 869 117
L 869 116
L 869 116
L 869 116
L 869 116
L 869 116
L 869 116
L 869 116
L 869 116
L 869 116
L 869 116
L 869 116
L 869 116
L 869 116
L 869 116
L 869 116
L 869 116
L 869 116
L 869 116
L 870 116
L 870 116
L 870 116
L 870 116
L 870 116
L 870 116
L 870 116
L 870 116
L 870 116
L 870 116
L 870 115
L 870 115
L 870 115
L 870 115
L 870 115
L 870 115
L 870 115
L 870 115
L 870 115
L 870 115
L 870 115
L 870 115
L 870 115
L 870 115
L 870 115
L 870 115
L 870 115
L 870 115
L 870 115
L 870 115
L 870 115
L 870 115
L 870 115
L 870 115
L 870 115
L 870 115
L 870 115
L 870 114
L 870 114
L 870 114
L 870 114
L 870 114
L 871 114
L 871 114
L 871 114
L 871 114
L 871 114
L 871 114
L 871 114
L 871 114
L 871 114
L 871 114
L 871 114
L 871 114
L 871 114
L 871 114
L 871 114
L 871 114
L 872 114
L 872 114
L 872 114
L 872 114
L 872 114
L 872 114
L 872 114
L 872 113
L 872 113
L 872 113
L 872 113
L 872 113
L 872 113
L 872 113
L 872 113
L 872 113
L 872 113
L 872 113
L 872 113
L 872 113
L 873 113
L 873 113
L 873 113
L 873 113
L 873 113
L 873 113
L 873 113
L 873 113
L 873 113
L 873 113
L 873 113
L 873 113
L 873 113
L 873 113
L 873 113
L 873 112
L 873 112
L 873 112
L 873 112
L 873 112
L 873 112
L 873 112
L 873 112
L 873 112
L 873 112
L 873 112
L 873 112
L 873 112
L 873 112
L 873 112
L 873 112
L 873 112
L 873 112
L 873 112
L 873 112
L 873 112
L 873 112
L 873 112
L 873 112
L 873 112
L 873 112
L 873 112
L 873 111
L 873 111
L 873 111
L 873 111
L 873 111
L 873 111
L 873 111
L 873 111
L 873 111
L 873 111
L 873 111
L 874 111
L 874 111
L 874 111
L 874 111
L 874 111
L 874 111
L 874 111
L 874 111
L 874 111
L 874 111
L 874 111
L 874 111
L 874 111
L 874 111
L 874 111
L 874 111
L 874 111
L 874 110
L 874 110
L 874 110
L 874 110
L 874 110
L 874 110
L 874 110
L 874 110
L 874 110
L 874 110
L 874 110
L 874 110
L 874 110
L 874 110
L 874 110
L 874 110
L 874 110
L 874 110
L 874 110
L 874 110
L 874 110
L 874 110
L 874 110
L 874 110
L 874 110
L 874 110
L 874 110
L 874 109
L 874 109
L 874 109
L 874 109
L 874 109
L 874 109
L 874 109
L 874 109
L 874 109
L 874 109
L 874 109
L 874 109
L 874 109
L 874 109
L 874 109
L 875 109
L 875 109
L 875 109
L 875 109
L 875 109
L 875 109
L 875 109
L 875 109
L 875 109
L 875 109
L 875 109
L 875 109
L 875 109
L 875 108
L 875 108
L 875 108
L 875 108
L 875 108
L 875 108
L 875 108
L 875 108
L 875 108
L 875 108
L 875 108
L 875 108
L 875 108
L 875 108
L 875 108
L 875 108
L 875 108
L 875 108
L 875 108
L 875 108
L 875 108
L 875 108
L 875 108
L 875 108
L 875 108
L 875 108
L 875 108
L 875 108
L 875 107
L 875 107
L 875 107
L 875 107
L 875 107
L 875 107
L 875 107
L 875 107
L 875 107
L 875 107
L 875 107
L 875 107
L 875 107
L 875 107
L 875 107
L 875 107
L 875 107
L 875 107
L 875 107
L 875 107
L 875 107
L 875 107
L 875 107
L 875 107
L 875 107
L 875 107
L 876 107
L 876 106
L 876 106
L 876 106
L 876 106
L 876 106
L 876 106
L 876 106
L 876 106
L 876 106
L 876 106
L 876 106
L 876 106
L 876 106
L 876 106
L 876 106
L 876 106
L 876 106
L 876 106
L 876 106
L 876 106
L 876 106
L 876 106
L 876 106
L 876 106
L 876 106
L 876 106
L 876 106
L 876 106
L 876 105
L 876 105
L 876 105
L 876 105
L 876 105
L 877 105
L 877 105
L 877 105
L 877 105
L 877 105
L 877 105
L 877 105
L 877 105
L 877 105
L 877 105
L 877 105
L 877 105
L 877 105
L 877 105
L 877 105
L 877 105
L 877 105
L 877 105
L 877 105
L 877 105
L 877 105
L 878 105
L 878 105
L 878 104
L 878 104
L 878 104
L 878 104
L 878 104
L 878 104
L 878 104
L 878 104
L 878 104
L 878 104
L 878 104
L 878 104
L 878 104
L 878 104
L 878 104
L 878 104
L 878 104
L 878 104
L 878 104
L 878 104
L 878 104
L 878 104
L 878 104
L 878 104
L 878 104
L 878 104
L 878 104
L 878 103
L 878 103
L 879 103
L 879 103
L 879 103
L 879 103
L 879 103
L 879 103
L 879 103
L 879 103
L 879 103
L 879 103
L 879 103
L 879 103
L 879 103
L 879 103
L 879 103
L 879 103
L 879 103
L 879 103
L 879 103
L 879 103
L 879 103
L 879 103
L 879 103
L 879 103
L 879 103
L 879 103
L 879 102
L 879 102
L 879 102
L 880 102
L 880 102
L 880 102
L 880 102
L 880 102
L 880 102
L 880 102
L 880 102
L 880 102
L 880 102
L 880 102
L 880 102
L 880 102
L 880 102
L 880 102
L 881 102
L 881 102
L 881 102
L 881 102
L 881 102
L 881 102
L 881 102
L 882 102
L 882 102
L 882 102
L 882 101
L 882 101
L 882 101
L 882 101
L 882 101
L 882 101
L 882 101
L 882 101
L 882 101
L 882 101
L 882 101
L 882 101
L 882 101
L 883 101
L 883 101
L 883 101
L 883 101
L 883 101
L 883 101
L 883 101
L 883 101
L 883 101
L 883 101
L 883 101
L 883 101
L 883 101
L 883 101
L 883 100
L 883 100
L 883 100
L 883 100
L 883 100
L 883 100
L 883 100
L 883 100
L 883 100
L 883 100
L 883 100
L 883 100
L 884 100
L 884 100
L 884 100
L 884 100
L 884 100
L 884 100
L 884 100
L 884 100
L 884 100
L 884 100
L 884 100
L 884 100
L 884 100
L 884 100
L 884 100
L 884 100
L 884 99
L 884 99
L 884 99
L 884 99
L 885 99
L 885 99
L 885 99
L 885 99
L 885 99
L 885 99
L 885 99
L 885 99
L 885 99
L 885 99
L 885 99
L 885 99
L 885 99
L 885 99
L 885 99
L 885 99
L 885 99
L 885 99
L 885 99
L 885 99
L 885 99
L 885 99
L 885 99
L 885 99
L 885 98
L 885 98
L 885 98
L 885 98
L 885 98
L 885 98
L 886 98
L 886 98
L 886 98
L 886 98
L 886 98
L 886 98
L 886 98
L 886 98
L 886 98
L 886 98
L 886 98
L 886 98
L 886 98
L 886 98
L 886 98
L 886 98
L 886 98
L 886 98
L 886 98
L 886 98
L 886 98
L 887 97
L 887 97
L 887 97
L 887 97
L 887 97
L 887 97
L 887 97
L 887 97
L 887 97
L 887 97
L 887 97
L 887 97
L 887 97
L 887 97
L 887 97
L 887 97
L 887 97
L 887 97
L 887 97
L 887 97
L 887 97
L 887 97
L 887 97
L 887 97
L 887 97
L 887 97
L 887 97
L 887 97
L 887 96
L 887 96
L 887 96
L 887 96
L 887 96
L 887 96
L 887 96
L 887 96
L 887 96
L 888 96
L 888 96
L 888 96
L 888 96
L 888 96
L 888 96
L 889 96
L 889 96
L 889 96
L 889 96
L 889 96
L 889 96
L 889 96
L 889 96
L 889 96
L 889 96
L 889 96
L 889 96
L 890 96
L 890 95
L 890 95
L 890 95
L 890 95
L 890 95
L 890 95
L 890 95
L 890 95
L 890 95
L 890 95
L 890 95
L 890 95
L 890 95
L 890 95
L 890 95
L 890 95
L 890 95
L 890 95
L 890 95
L 890 95
L 891 95
L 891 95
L 891 95
L 891 95
L 891 95
L 891 95
L 891 95
L 891 94
L 891 94
L 891 94
L 891 94
L 891 94
L 891 94
L 891 94
L 891 94
L 891 94
L 891 94
L 891 94
L 891 94
L 891 94
L 891 94
L 891 94
L 891 94
L 891 94
L 891 94
L 891 94
L 891 94
L 891 94
L 892 94
L 892 94
L 892 94
L 892 94
L 892 94
L 892 94
L 892 94
L 892 93
L 892 93
L 892 93
L 892 93
L 892 93
L 892 93
L 892 93
L 892 93
L 892 93
L 892 93
L 892 93
L 892 93
L 893 93
L 893 93
L 893 93
L 893 93
L 893 93
L 893 93
L 893 93
L 893 93
L 893 93
L 893 93
L 893 93
L 893 93
L 893 93
L 893 93
L 893 93
L 893 92
L 893 92
L 893 92
L 893 92
L 894 92
L 894 92
L 894 92
L 894 92
L 894 92
L 894 92
L 894 92
L 894 92
L 894 92
L 895 92
L 895 92
L 895 92
L 895 92
L 895 92
L 895 92
L 895 92
L 895 92
L 895 92
L 895 92
L 895 92
L 895 92
L 895 92
L 895 92
L 895 92
L 896 91
L 896 91
L 896 91
L 896 91
L 896 91
L 896 91
L 896 91
L 896 91
L 896 91
L 896 91
L 896 91
L 896 91
L 896 91
L 896 91
L 896 91
L 897 91
L 897 91
L 897 91
L 897 91
L 897 91
L 897 91
L 897 91
L 897 91
L 897 91
L 897 91
L 898 91
L 898 91
L 898 91
L 898 90
L 898 90
L 898 90
L 898 90
L 899 90
L 899 90
L 899 90
L 899 90
L 899 90
L 899 90
L 899 90
L 899 90
L 899 90
L 899 90
L 899 90
L 899 90
L 899 90
L 900 90
L 900 90
L 900 90
L 900 90
L 901 90
L 901 90
L 901 90
L 901 90
L 901 90
L 901 90
L 901 89
L 901 89
L 902 89
L 902 89
L 902 89
L 902 89
L 902 89
L 902 89
L 902 89
L 903 89
L 903 89
L 903 89
L 903 89
L 903 89
L 903 89
L 903 89
L 903 89
L 904 89
L 904 89
L 904 89
L 904 89
L 904 89
L 904 89
L 904 89
L 904 89
L 905 89
L 905 89
L 905 89
L 905 88
L 905 88
L 905 88
L 905 88
L 905 88
L 905 88
L 906 88
L 906 88
L 906 88
L 906 88
L 906 88
L 906 88
L 906 88
L 906 88
L 906 88
L 906 88
L 906 88
L 906 88
L 906 88
L 906 88
L 906 88
L 906 88
L 906 88
L 907 88
L 907 88
L 907 88
L 907 88
L 907 88
L 907 87
L 907 87
L 907 87
L 907 87
L 907 87
L 907 87
L 907 87
L 907 87
L 907 87
L 907 87
L 907 87
L 907 87
L 907 87
L 907 87
L 907 87
L 907 87
L 907 87
L 907 87
L 907 87
L 907 87
L 907 87
L 907 87
L 907 87
L 907 87
L 907 87
L 907 87
L 908 87
L 908 86
L 908 86
L 908 86
L 908 86
L 908 86
L 908 86
L 908 86
L 908 86
L 908 86
L 908 86
L 908 86
L 908 86
L 908 86
L 908 86
L 908 86
L 908 86
L 908 86
L 908 86
L 908 86
L 908 86
L 908 86
L 909 86
L 909 86
L 909 86
L 910 86
L 910 86
L 910 86
L 910 86
L 910 85
L 910 85
L 910 85
L 910 85
L 911 85
L 911 85
L 911 85
L 911 85
L 911 85
L 911 85
L 911 85
L 911 85
L 911 85
L 911 85
L 912 85
L 912 85
L 912 85
L 912 85
L 912 85
L 912 85
L 912 85
L 912 85
L 912 85
L 912 85
L 912 85
L 913 85
L 913 85
L 913 85
L 913 84
L 913 84
L 913 84
L 913 84
L 913 84
L 913 84
L 914 84
L 914 84
L 914 84
L 914 84
L 914 84
L 914 84
L 914 84
L 914 84
L 915 84
L 915 84
L 915 84
L 915 84
L 915 84
L 915 84
L 915 84
L 916 84
L 916 84
L 916 84
L 916 84
L 916 84
L 916 84
L 916 83
L 916 83
L 916 83
L 917 83
L 917 83
L 917 83
L 917 83
L 917 83
L 917 83
L 917 83
L 917 83
L 917 83
L 917 83
L 917 83
L 917 83
L 917 83
L 917 83
L 917 83
L 917 83
L 917 83
L 917 83
L 917 83
L 917 83
L 917 83
L 918 83
L 918 83
L 918 83
L 918 83
L 918 82
L 918 82
L 918 82
L 918 82
L 918 82
L 918 82
L 918 82
L 918 82
L 918 82
L 918 82
L 918 82
L 918 82
L 918 82
L 918 82
L 918 82
L 918 82
L 919 82
L 919 82
L 919 82
L 919 82
L 919 82
L 919 82
L 919 82
L 919 82
L 919 82
L 919 82
L 919 82
L 919 82
L 919 81
L 919 81
L 919 81
L 920 81
L 920 81
L 920 81
L 920 81
L 920 81
L 920 81
L 920 81
L 920 81
L 920 81
L 921 81
L 921 81
L 921 81
L 921 81
L 921 81
L 921 81
L 921 81
L 921 81
L 921 81
L 921 81
L 921 81
L 921 81
L 922 81
L 922 81
L 922 81
L 922 80
L 922 80
L 922 80
L 922 80
L 922 80
L 922 80
L 922 80
L 922 80
L 922 80
L 922 80
L 922 80
L 922 80
L 922 80
L 922 80
L 923 80
L 923 80
L 923 80
L 923 80
L 923 80
L 923 80
L 923 80
L 923 80
L 923 80
L 923 80
L 923 80
L 924 80
L 924 80
L 924 80
L 924 79
L 924 79
L 924 79
L 924 79
L 924 79
L 924 79
L 924 79
L 925 79
L 925 79
L 925 79
L 925 79
L 925 79
L 925 79
L 925 79
L 925 79
L 925 79
L 925 79
L 925 79
L 925 79
L 925 79
L 926 79
L 926 79
L 926 79
L 926 79
L 926 79
L 926 79
L 926 79
L 926 79
L 927 78
L 927 78
L 927 78
L 927 78
L 927 78
L 927 78
L 927 78
L 928 78
L 928 78
L 928 78
L 928 78
L 928 78
L 928 78
L 928 78
L 928 78
L 929 78
L 929 78
L 929 78
L 929 78
L 929 78
L 929 78
L 929 78
L 930 78
L 930 78
L 930 78
L 930 78
L 930 78
L 930 77
L 930 77
L 930 77
L 930 77
L 931 77
L 931 77
L 931 77
L 931 77
L 931 77
L 932 77
L 932 77
L 932 77
L 932 77
L 932 77
L 932 77
L 932 77
L 933 77
L 933 77
L 933 77
L 933 77
L 933 77
L 933 77
L 933 77
L 933 77
L 933 77
L 933 77
L 933 77
L 933 77
L 934 76
L 934 76
L 934 76
L 934 76
L 934 76
L 934 76
L 934 76
L 934 76
L 934 76
L 934 76
L 934 76
L 934 76
L 934 76
L 935 76
L 935 76
L 935 76
L 935 76
L 935 76
L 935 76
L 935 76
L 935 76
L 935 76
L 935 76
L 935 76
L 935 76
L 935 76
L 935 76
L 935 75
L 935 75
L 935 75
L 935 75
L 935 75
L 935 75
L 936 75
L 936 75
L 936 75
L 936 75
L 936 75
L 936 75
L 936 75
L 937 75
L 937 75
L 937 75
L 937 75
L 937 75
L 937 75
L 937 75
L 937 75
L 937 75
L 938 75
L 938 75
L 938 75
L 938 75
L 938 75
L 938 75
L 938 74
L 938 74
L 938 74
L 938 74
L 938 74
L 938 74
L 938 74
L 938 74
L 939 74
L 939 74
L 939 74
L 939 74
L 939 74
L 939 74
L 939 74
L 939 74
L 939 74
L 939 74
L 939 74
L 939 74
L 939 74
L 940 74
L 940 74
L 940 74
L 940 74
L 941 74
L 941 74
L 941 74
L 942 73
L 942 73
L 942 73
L 942 73
L 943 73
L 943 73
L 943 73
L 943 73
L 943 73
L 943 73
L 943 73
L 943 73
L 943 73
L 944 73
L 944 73
L 944 73
L 944 73
L 944 73
L 944 73
L 944 73
L 944 73
L 944 73
L 944 73
L 944 73
L 945 73
L 945 73
L 945 73
L 945 72
L 945 72
L 945 72
L 945 72
L 945 72
L 945 72
L 945 72
L 945 72
L 945 72
L 945 72
L 945 72
L 945 72
L 945 72
L 945 72
L 945 72
L 946 72
L 946 72
L 946 72
L 946 72
L 946 72
L 946 72
L 946 72
L 946 72
L 946 72
L 946 72
L 946 72
L 946 72
L 946 72
L 946 71
L 946 71
L 946 71
L 946 71
L 946 71
L 946 71
L 946 71
L 946 71
L 946 71
L 946 71
L 946 71
L 946 71
L 947 71
L 947 71
L 947 71
L 947 71
L 947 71
L 947 71
L 947 71
L 947 71
L 947 71
L 947 71
L 947 71
L 947 71
L 947 71
L 947 71
L 947 71
L 947 71
L 947 70
L 947 70
L 947 70
L 947 70
L 947 70
L 947 70
L 948 70
L 948 70
L 948 70
L 948 70
L 948 70
L 948 70
L 948 70
L 948 70
L 948 70
L 948 70
L 948 70
L 948 70
L 948 70
L 948 70
L 948 70
L 948 70
L 948 70
L 948 70
L 948 70
L 948 70
L 948 70
L 948 69
L 948 69
L 949 69
L 949 69
L 949 69
L 949 69
L 949 69
L 949 69
L 949 69
L 949 69
L 949 69
L 949 69
L 949 69
L 949 69
L 949 69
L 949 69
L 949 69
L 949 69
L 949 69
L 949 69
L 949 69
L 949 69
L 949 69
L 949 69
L 949 69
L 949 69
L 949 69
L 949 69
L 949 68
L 949 68
L 949 68
L 949 68
L 949 68
L 949 68
L 949 68
L 949 68
L 949 68
L 949 68
L 949 68
L 949 68
L 949 68
L 949 68
L 949 68
L 949 68
L 949 68
L 949 68
L 949 68
L 949 68
L 949 68
L 949 68
L 949 68
L 949 68
L 949 68
L 949 68
L 949 68
L 949 68
L 949 67
L 949 67
L 949 67
L 949 67
L 949 67
L 949 67
L 949 67
L 949 67
L 949 67
L 949 67
L 949 67
L 949 67
L 949 67
L 949 67
L 949 67
L 949 67
L 949 67
L 949 67
L 949 67
L 949 67
L 949 67
L 949 67
L 949 67
L 949 67
L 949 67
L 949 67
L 949 67
L 949 66
L 949 66
L 949 66
L 949 66
L 949 66
L 949 66
L 949 66
L 949 66
L 949 66
L 949 66
L 949 66
L 949 66
L 949 66
L 949 66
L 949 66
L 949 66
L 949 66
L 949 66
L 949 66
L 949 66
L 949 66
L 949 66
L 949 66
L 949 66
L 949 66
L 949 66
L 949 66
L 949 66
L 949 65
L 949 65
L 949 65
L 949 65
L 949 65
L 949 65
L 949 65
L 949 65
L 949 65
L 949 65
L 949 65
L 949 65
L 949 65
L 949 65
L 949 65
L 949 65
L 949 65
L 949 65
L 949 65
L 949 65
L 949 65
L 949 65
L 949 65
L 949 65
L 949 65
L 949 65
L 949 65
L 949 65
L 949 64
L 949 64
L 949 64
L 949 64
L 949 64
L 949 64
L 949 64
L 949 64
L 949 64
L 949 64
L 949 64
L 949 64
L 949 64
L 949 64
L 949 64
L 949 64
L 949 64
L 949 64
L 949 64
L 949 64
L 949 64
L 949 64
L 949 64
L 949 64
L 949 64
L 949 64
L 949 64
L 949 63
L 949 63
L 949 63
L 949 63
L 949 63
L 949 63
L 949 63
L 949 63
L 949 63
L 949 63
L 949 63
L 949 63
L 949 63
L 949 63
L 949 63
L 949 63
L 949 63
L 949 63
L 949 63
L 949 63
L 949 63
L 949 63
L 949 63
L 949 63
L 949 63
L 949 63
L 949 63
L 949 63
L 949 62
L 949 62
L 949 62
L 949 62
L 949 62
L 950 62
L 950 62
L 950 62
L 950 62
L 950 62
L 950 62
L 950 62
L 950 62
L 950 62
L 950 62
L 950 62
L 950 62
L 950 62
L 950 62
L 950 62
L 950 62
L 950 62
L 950 62
L 950 62
L 950 62
L 950 62
L 950 62
L 950 62
L 950 61
L 950 61
L 950 61
L 950 61
L 950 61
L 950 61
L 950 61
L 950 61
L 950 61
L 950 61
L 950 61
L 950 61
L 950 61
L 950 61
L 950 61
L 950 61
L 950 61
L 950 61
L 950 61
L 950 61
L 950 61
L 950 61
L 950 61
L 950 61
L 950 61
L 950 61
L 950 61
L 950 60
L 950 60
L 950 60
L 950 60
L 950 60
L 950 60
L 950 60
L 950 60
L 950 60
L 950 60
L 950 60
L 950 60
L 950 60
L 950 60
L 950 60
L 950 60
L 950 60
L 950 60
L 950 60
L 950 60
L 950 60
L 950 60
L 950 60
L 950 60
L 950 60
L 950 60
L 950 60
L 950 60
L 950 59
L 950 59
L 950 59
L 950 59
L 950 59
L 950 59
L 950 59
L 950 59
L 950 59
L 950 59
L 950 59
L 950 59
L 950 59
L 950 59
L 950 59
L 950 59
L 950 59
L 950 59
L 950 59
L 950 59
L 950 59
L 950 59
L 950 59
L 950 59
L 950 59
L 950 59
L 950 59
L 950 58
L 950 58
L 950 58
L 950 58
L 950 58
L 950 58
L 950 58
L 950 58
L 950 58
L 950 58
L 950 58
L 950 58
L 950 58
L 950 58
L 950 58
L 950 58
L 950 58
L 950 58
L 950 58
L 950 58
L 951 58
L 951 58
L 951 58
L 951 58
L 951 58
L 951 58
L 951 58
L 951 58
L 951 57
L 951 57
L 951 57
L 951 57
L 951 57
L 951 57
L 951 57
L 951 57
L 951 57
L 951 57
L 951 57
L 951 57
L 951 57
L 951 57
L 951 57
L 951 57
L 951 57
L 951 57
L 951 57
L 951 57
L 951 57
L 951 57
L 951 57
L 951 57
L 951 57
L 951 57
L 951 57
L 951 57
L 951 56
L 951 56
L 951 56
L 951 56
L 951 56
L 951 56
L 951 56
L 951 56
L 951 56
L 951 56
L 951 56
L 951 56
L 951 56
L 951 56
L 951 56
L 951 56
L 951 56
L 951 56
L 951 56
L 951 56
L 951 56
L 951 56
L 951 56
L 951 56
L 951 56
L 951 56
L 951 56
L 951 55
L 951 55
L 951 55
L 951 55
L 951 55
L 951 55
L 951 55
L 951 55
L 951 55
L 951 55
L 951 55
L 951 55
L 951 55
L 951 55
L 951 55
L 951 55
L 951 55
L 951 55
L 951 55
L 951 55
L 951 55
L 951 55
L 951 55
L 951 55
L 951 55
L 951 55
L 951 55
L 951 55
L 951 54
L 951 54
L 951 54
L 951 54
L 951 54
L 951 54
L 951 54
L 951 54
L 951 54
L 951 54
L 951 54
L 951 54
L 951 54
L 951 54
L 951 54
L 951 54
L 951 54
L 951 54
L 951 54
L 951 54
L 951 54
L 951 54
L 951 54
L 951 54
L 951 54
L 951 54
L 951 54
L 951 54
L 951 53
L 951 53
L 951 53
L 951 53
L 951 53
L 951 53
L 951 53
L 951 53
L 951 53
L 951 53
L 951 53
L 951 53
L 951 53
L 951 53
L 951 53
L 951 53
L 951 53
L 951 53
L 951 53
L 951 53
L 951 53
L 951 53
L 951 53
L 951 53
L 951 53
L 951 53
L 951 53
L 951 52
L 951 52
L 951 52
L 951 52
L 951 52
L 951 52
L 951 52
L 951 52
L 951 52
L 951 52
L 951 52
L 951 52
L 951 52
L 951 52
L 951 52
L 951 52
L 951 52
L 951 52
L 951 52
L 951 52
L 951 52
L 951 52
L 951 52
L 951 52
L 951 52
L 951 52
L 951 52
L 951 52
L 951 51
L 951 51
L 951 51
L 951 51
L 951 51
L 951 51
L 951 51
L 951 51
L 951 51
L 951 51
L 951 51
L 951 51
L 951 51
L 951 51
L 951 51
L 951 51
L 951 51
L 951 51
L 951 51
L 951 51
L 951 51
L 951 51
L 951 51
L 951 51
L 951 51
L 951 51
L 951 51
L 951 51
L 951 50
L 951 50
L 951 50
L 951 50
L 951 50
L 951 50
L 951 50
L 951 50
L 951 50
L 951 50
L 951 50
L 951 50
L 951 50
L 951 50
L 951 50
L 951 50
L 951 50
L 951 50
L 951 50
L 951 50
L 951 50
L 951 50
L 951 50
L 951 50
L 951 50
L 951 50
L 951 50
L 951 49
L 951 49
L 951 49
L 951 49
L 951 49
L 951 49
L 951 49
L 951 49
L 951 49
L 951 49
L 951 49
L 951 49
L 951 49
L 951 49
L 951 49
L 951 49
L 951 49
L 951 49
L 951 49
L 951 49
L 951 49
L 951 49
L 951 49
L 951 49
L 951 49
L 951 49
L 951 49
L 951 49
L 951 48
L 951 48
L 951 48
L 951 48
L 951 48
L 951 48
L 951 48
L 951 48
L 951 48
L 951 48
L 951 48
L 951 48
L 951 48
L 951 48
L 951 48
L 951 48
L 951 48
L 951 48
L 951 48
L 951 48
L 951 48
L 951 48
L 951 48
L 951 48
L 951 48
L 951 48
L 951 48
L 951 48
L 951 47
L 951 47
L 951 47
L 951 47
L 951 47
L 951 47
L 951 47
L 951 47
L 951 47
L 951 47
L 951 47
L 951 47
L 951 47
L 951 47
L 951 47
L 951 47
L 951 47
L 951 47
L 951 47
L 951 47
L 951 47
L 951 47
L 951 47
L 951 47
L 951 47
L 951 47
L 951 47
L 951 46
L 951 46
L 951 46
L 951 46
L 951 46
L 951 46
L 951 46
L 951 46
L 951 46
L 951 46
L 951 46
L 951 46
L 951 46
L 951 46
L 952 46
L 952 46
L 952 46
L 952 46
L 952 46
L 952 46
L 952 46
L 952 46
L 952 46
L 952 46
L 952 46
L 952 46
L 952 46
L 952 46
L 952 45
L 952 45
L 952 45
L 952 45
L 952 45
L 952 45
L 952 45
L 952 45
L 952 45
L 952 45
L 952 45
L 952 45
L 952 45
L 952 45
L 952 45
L 952 45
L 952 45
L 952 45
L 952 45
L 952 45
L 952 45
L 952 45
L 952 45
L 952 45
L 952 45
L 952 45
L 952 45
L 952 45
L 952 44
L 952 44
L 952 44
L 952 44
L 952 44
L 952 44
L 952 44
L 952 44
L 952 44
L 952 44
L 952 44
L 952 44
L 952 44
L 952 44
L 952 44
L 952 44
L 952 44
L 952 44
L 952 44
L 952 44
L 952 44
L 952 44
L 952 44
L 952 44
L 952 44
L 952 44
L 952 44
L 952 43
L 952 43
L 952 43
L 952 43
L 952 43
L 952 43
L 952 43
L 952 43
L 952 43
L 952 43
L 952 43
L 952 43
L 952 43
L 952 43
L 952 43
L 952 43
L 952 43
L 952 43
L 952 43
L 952 43
L 952 43
L 952 43
L 952 43
L 952 43
L 952 43
L 952 43
L 952 43
L 952 43
L 952 42
L 952 42
L 952 42
L 952 42
L 952 42
L 952 42
L 952 42
L 952 42
L 952 42
L 952 42
L 952 42
L 952 42
L 952 42
L 952 42
L 952 42
L 952 42
L 952 42
L 952 42
L 952 42
L 952 42
L 952 42
L 952 42
L 952 42
L 952 42
L 952 42
L 952 42
L 952 42
L 952 41
L 952 41
L 952 41
L 952 41
L 952 41
L 952 41
L 952 41
L 952 41
L 952 41
L 952 41
L 952 41
L 952 41
L 952 41
L 952 41
L 952 41
L 952 41
L 952 41
L 952 41
L 952 41
L 952 41
L 952 41
L 952 41
L 952 41
L 952 41
L 952 41
L 952 41
L 952 41
L 952 41
L 952 40
L 952 40
L 952 40
L 952 40
L 952 40
L 952 40
L 952 40
L 952 40
L 952 40
L 952 40
L 952 40
L 952 40
L 952 40
L 952 40
L 952 40
L 952 40
L 952 40
L 952 40
L 952 40
L 952 40
L 952 40
L 952 40
L 952 40
L 952 40
L 952 40
L 952 40
L 952 40
L 952 40
L 952 39
L 952 39
L 952 39
L 952 39
L 952 39
L 952 39
L 952 39
L 952 39
L 952 39
L 952 39
L 952 39
L 952 39
L 952 39
L 952 39
L 952 39
L 952 39
L 952 39
L 952 39
L 952 39
L 952 39
L 952 39
L 952 39
L 952 39
L 952 39
L 952 39
L 952 39
L 952 39
L 952 38
L 952 38
L 952 38
L 952 38
L 952 38
L 952 38
L 952 38
L 952 38
L 952 38
L 952 38
L 952 38
L 952 38
L 952 38
L 952 38
L 952 38
L 952 38
L 952 38
L 952 38
L 952 38
L 952 38
L 952 38
L 952 38
L 952 38
L 952 38
L 952 38
L 952 38
L 952 38
L 952 38
L 952 37
L 952 37
L 952 37
L 953 37
L 953 37
L 953 37
L 953 37
L 953 37
L 953 37
L 953 37
L 953 37
L 953 37
L 953 37
L 953 37
L 953 37
L 953 37
L 953 37
L 953 37
L 953 37
L 953 37
L 953 37
L 953 37
L 953 37
L 953 37
L 953 37
L 953 37
L 953 37
L 953 37
L 953 36
L 953 36
L 953 36
L 953 36
L 953 36
L 953 36
L 953 36
L 953 36
L 953 36
L 953 36
L 953 36
L 953 36
L 953 36
L 953 36
L 953 36
L 953 36
L 953 36
L 953 36
L 953 36
L 953 36
L 953 36
L 953 36
L 953 36
L 953 36
L 953 36
L 953 36
L 953 36
L 953 35
L 953 35
L 953 35
L 953 35
L 953 35
L 953 35
L 953 35
L 953 35
L 953 35
L 953 35
L 953 35
L 953 35
L 953 35
L 953 35
L 953 35
L 953 35
L 953 35
L 953 35
L 953 35
L 953 35
L 953 35
L 953 35
L 953 35
L 953 35
L 953 35
L 953 35
L 953 35
L 953 35
L 953 34
L 953 34
L 953 34
L 953 34
L 953 34
L 953 34
L 953 34
L 953 34
L 953 34
L 953 34
L 953 34
L 953 34
L 953 34
L 953 34
L 953 34
L 953 34
L 953 34
L 953 34
L 953 34
L 953 34
L 953 34
L 953 34
L 953 34
L 953 34
L 953 34
L 953 34
L 953 34
L 953 34
L 953 33
L 953 33
L 953 33
L 953 33
L 953 33
L 953 33
L 953 33
L 953 33
L 953 33
L 953 33
L 953 33
L 953 33
L 953 33
L 953 33
L 953 33
L 953 33
L 953 33
L 953 33
L 953 33
L 953 33
L 953 33
L 953 33
L 953 33
L 953 33
L 953 33
L 953 33
L 953 33
L 953 32
L 953 32
L 953 32
L 953 32
L 953 32
L 953 32
L 953 32
L 953 32
L 953 32
L 953 32
L 953 32
L 953 32
L 953 32
L 953 32
L 953 32
L 953 32
L 953 32
L 953 32
L 953 32
L 953 32
L 953 32
L 953 32
L 953 32
L 953 32
L 953 32
L 953 32
L 953 32
L 953 32
L 953 31
L 953 31
L 953 31
L 953 31
L 953 31
L 953 31
L 953 31
L 953 31
L 953 31
L 953 31
L 953 31
L 953 31
L 953 31
L 953 31
L 953 31
L 953 31
L 953 31
L 953 31
L 953 31
L 953 31
L 953 31
L 953 31
L 953 31
L 953 31
L 953 31
L 953 31
L 953 31
L 953 31
L 953 30
L 953 30
L 953 30
L 953 30
L 953 30
L 953 30
L 953 30
L 953 30
L 953 30
L 953 30
L 953 30
L 953 30
L 953 30
L 953 30
L 953 30
L 953 30
L 953 30
L 953 30
L 953 30
L 953 30
L 953 30
L 953 30
L 953 30
L 953 30
L 953 30
L 953 30
L 953 30
L 953 29
L 953 29
L 953 29
L 953 29
L 953 29
L 953 29
L 953 29
L 953 29
L 953 29
L 953 29
L 953 29
L 953 29
L 954 29
L 954 29
L 954 29
L 954 29
L 954 29
L 954 29
L 954 29
L 954 29
L 954 29
L 954 29
L 954 29
L 954 29
L 954 29
L 954 29
L 954 29
L 954 29
L 954 28
L 954 28
L 954 28
L 954 28
L 954 28
L 954 28
L 954 28
L 954 28
L 954 28
L 954 28
L 954 28
L 954 28
L 954 28
L 954 28
L 954 28
L 954 28
L 954 28
L 954 28
L 954 28
L 954 28
L 954 28
L 954 28
L 954 28
L 954 28
L 954 28
L 954 28
L 954 28
L 954 28
L 954 27
L 954 27
L 954 27
L 954 27
L 954 27
L 954 27
L 954 27
L 954 27
L 954 27
L 954 27
L 954 27
L 954 27
L 954 27
L 954 27
L 954 27
L 954 27
L 954 27
L 954 27
L 954 27
L 954 27
L 954 27
L 954 27
L 954 27
L 954 27
L 954 27
L 954 27
L 954 27
L 954 26
L 954 26
L 954 26
L 954 26
L 954 26
L 954 26
L 954 26
L 954 26
L 954 26
L 954 26
L 954 26
L 954 26
L 954 26
L 954 26
L 954 26
L 954 26
L 954 26
L 954 26
L 954 26
L 954 26
L 954 26
L 954 26
L 954 26
L 954 26
L 954 26
L 954 26
L 954 26
L 954 26
L 954 25
L 954 25
L 954 25
L 954 25
L 954 25
L 954 25
L 954 25
L 954 25
L 954 25
L 954 25
L 954 25
L 954 25
L 954 25
L 954 25
L 954 25
L 954 25
L 954 25
L 954 25
L 954 25
L 954 25
L 954 25
L 954 25
L 954 25
L 954 25
L 954 25
L 954 25
L 954 25
L 954 24
L 954 24
L 954 24
L 954 24
L 954 24
L 954 24
L 954 24
L 954 24
L 954 24
L 954 24
L 954 24
L 954 24
L 954 24
L 954 24
L 954 24
L 954 24
L 954 24
L 954 24
L 954 24
L 954 24
L 954 24
L 954 24
L 954 24
L 954 24
L 954 24
L 954 24
L 954 24
L 954 24
L 954 23
L 954 23
L 954 23
L 954 23
L 954 23
L 954 23
L 954 23
L 954 23
L 954 23
L 954 23
L 954 23
L 954 23
L 954 23
L 954 23
L 954 23
L 954 23
L 954 23
L 954 23
L 954 23
L 954 23
L 954 23
L 954 23
L 954 23
L 954 23
L 954 23
L 954 23
L 954 23
L 954 23
L 954 22
L 954 22
L 954 22
L 954 22
L 954 22
L 954 22
L 954 22
L 954 22
L 954 22
L 954 22
L 954 22
L 954 22
L 954 22
L 954 22
L 954 22
L 954 22
L 954 22
L 954 22
L 954 22
L 954 22
L 954 22
L 954 22
L 954 22
L 954 22
L 954 22
L 954 22
L 954 22
L 954 21
L 954 21
L 954 21
L 954 21
L 954 21
L 954 21
L 954 21
L 954 21
L 954 21
L 954 21
L 954 21
L 954 21
L 954 21
L 954 21
L 954 21
L 954 21
L 954 21
L 954 21
L 954 21
L 954 21
L 954 21
L 954 21
L 954 21
L 954 21
L 954 21
L 954 21
L 954 21
L 954 21
L 954 20
L 954 20
L 954 20
L 954 20
L 954 20
L 954 20
L 954 20
L 954 20
L 954 20
L 954 20
L 954 20
L 954 20
L 954 20
L 954 20
L 954 20
L 954 20
L 954 20
L 954 20
L 954 20
L 954 20
L 954 20
L 954 20
L 954 20
L 954 20
L 954 20
L 954 20
L 954 20
L 954 20
L 954 19
L 954 19
L 954 19
L 954 19
L 954 19
L 954 19
L 954 19
L 954 19
L 954 19
L 954 19
L 954 19
L 954 19
L 954 19
L 954 19
L 954 19
L 954 19
L 954 19
L 954 19
L 954 19
L 954 19
L 954 19
L 954 19
L 954 19
L 954 19
L 954 19
L 954 19
L 954 19
L 954 18
L 954 18
L 954 18
L 954 18
L 954 18
L 954 18
L 954 18
L 954 18
L 954 18
L 954 18
L 954 18
L 954 18
L 954 18
L 954 18
L 954 18
L 954 18
L 954 18
L 954 18
L 954 18
L 954 18
L 954 18
L 954 18
L 954 18
L 954 18
L 954 18
L 954 18
L 954 18
L 955 18
L 955 17
L 955 17
L 955 17
L 955 17
L 955 17
L 955 17
L 955 17
L 955 17
L 955 17
L 955 17
L 955 17
L 955 17
L 955 17
L 955 17
L 955 17
L 955 17
L 955 17
L 955 17
L 955 17
L 955 17
L 955 17
L 955 17
L 955 17
L 955 17
L 955 17
L 955 17
L 955 17
L 955 17
L 955 16
L 955 16
L 955 16
L 955 16
L 955 16
L 955 16
L 955 16
L 955 16
L 955 16
L 955 16
L 955 16
L 955 16
L 955 16
L 955 16
L 955 16
L 955 16
L 955 16
L 955 16
L 955 16
L 955 16
L 955 16
L 955 16
L 955 16
L 955 16
L 955 16
L 955 16
L 955 16
L 955 15
L 955 15
L 955 15
L 955 15
L 955 15
L 955 15
L 955 15
L 955 15
L 955 15
L 955 15
L 955 15
L 955 15
L 955 15
L 955 15
L 955 15
L 955 15
L 955 15
L 955 15
L 955 15
L 955 15
L 955 15
L 955 15
L 955 15
L 956 15
L 956 15
L 956 15
L 956 15
L 956 15
L 956 14
L 956 14
L 956 14
L 956 14
L 956 14
L 956 14
L 956 14
L 956 14
L 956 14
L 956 14
L 956 14
L 956 14
L 956 14
L 956 14
L 956 14
L 956 14
L 956 14
L 956 14
L 956 14
L 956 14
L 956 14
L 956 14
L 956 14
L 956 14
L 956 14
L 956 14
L 956 14
L 956 14
L 956 13
L 956 13
L 956 13
L 956 13
L 956 13
L 956 13
L 956 13
L 956 13
L 956 13
L 956 13
L 956 13
L 956 13
L 957 13
L 957 13
L 957 13
L 957 13
L 957 13
L 957 13
L 957 13
L 957 13
L 957 13
L 957 13
L 957 13
L 957 13
L 957 13
L 957 13
L 957 13
L 957 12
L 957 12
L 957 12
L 957 12
L 957 12
L 957 12
L 957 12
L 957 12
L 957 12
L 957 12
L 957 12
L 957 12
L 957 12
L 957 12
L 957 12
L 957 12
L 957 12
L 957 12
L 957 12
L 957 12
L 957 12
L 957 12
L 957 12
L 957 12
L 957 12
L 957 12
L 957 12
L 957 12
L 957 11" style="stroke-width:2;stroke:rgba(129,199,239,1.0);fill:none"/></svg>