<svg xmlns="http://www.w3.org/2000/svg" xmlns:xlink="http://www.w3.org/1999/xlink" width="1024" height="400">\n<path  d="M 0 0
L 1024 0
L 1024 400
L 0 400
L 0 0" style="stroke-width:0;stroke:rgba(255,255,255,1.0);fill:rgba(255,255,255,1.0)"/><path  d="M 38 11
L 957 11
L 957 351
L 38 351
L 38 11" style="stroke-width:0;stroke:rgba(255,255,255,1.0);fill:rgba(255,255,255,1.0)"/><path  d="M 38 351
L 957 351" style="stroke-width:2;stroke:rgba(85,85,85,1.0);fill:none"/><path  d="M 38 351
L 38 356" style="stroke-width:2;stroke:rgba(85,85,85,1.0);fill:none"/><text x="5" y="373" style="stroke-width:0;stroke:none;fill:rgba(51,51,51,1.0);font-size:12.8px;font-family:'Roboto Medium',sans-serif">2018-09-25</text><path  d="M 153 351
L 153 356" style="stroke-width:2;stroke:rgba(85,85,85,1.0);fill:none"/><text x="120" y="373" style="stroke-width:0;stroke:none;fill:rgba(51,51,51,1.0);font-size:12.8px;font-family:'Roboto Medium',sans-serif">2019-02-09</text><path  d="M 268 351
L 268 356" style="stroke-width:2;stroke:rgba(85,85,85,1.0);fill:none"/><text x="235" y="373" style="stroke-width:0;stroke:none;fill:rgba(51,51,51,1.0);font-size:12.8px;font-family:'Roboto Medium',sans-serif">2019-06-27</text><path  d="M 383 351
L 383 356" style="stroke-width:2;stroke:rgba(85,85,85,1.0);fill:none"/><text x="350" y="373" style="stroke-width:0;stroke:none;fill:rgba(51,51,51,1.0);font-size:12.8px;font-family:'Roboto Medium',sans-serif">2019-11-11</text><path  d="M 498 351
L 498 356" style="stroke-width:2;stroke:rgba(85,85,85,1.0);fill:none"/><text x="465" y="373" style="stroke-width:0;stroke:none;fill:rgba(51,51,51,1.0);font-size:12.8px;font-family:'Roboto Medium',sans-serif">2020-03-28</text><path  d="M 613 351
L 613 356" style="stroke-width:2;stroke:rgba(85,85,85,1.0);fill:none"/><text x="580" y="373" style="stroke-width:0;stroke:none;fill:rgba(51,51,51,1.0);font-size:12.8px;font-family:'Roboto Medium',sans-serif">2020-08-12</text><path  d="M 728 351
L 728 356" style="stroke-width:2;stroke:rgba(85,85,85,1.0);fill:none"/><text x="695" y="373" style="stroke-width:0;stroke:none;fill:rgba(51,51,51,1.0);font-size:12.8px;font-family:'Roboto Medium',sans-serif">2020-12-28</text><path  d="M 843 351
L 843 356" style="stroke-width:2;stroke:rgba(85,85,85,1.0);fill:none"/><text x="810" y="373" style="stroke-width:0;stroke:none;fill:rgba(51,51,51,1.0);font-size:12.8px;font-family:'Roboto Medium',sans-serif">2021-05-14</text><path  d="M 957 351
L 957 356" style="stroke-width:2;stroke:rgba(85,85,85,1.0);fill:none"/><text x="924" y="373" style="stroke-width:0;stroke:none;fill:rgba(51,51,51,1.0);font-size:12.8px;font-family:'Roboto Medium',sans-serif">2021-09-29</text><text x="483" y="395" style="stroke-width:0;stroke:none;fill:rgba(51,51,51,1.0);font-size:12.8px;font-family:'Roboto Medium',sans-serif">Time</text><path  d="M 959 351
L 959 11" style="stroke-width:2;stroke:rgba(85,85,85,1.0);fill:none"/><path  d="M 959 351
L 964 351" style="stroke-width:2;stroke:rgba(85,85,85,1.0);fill:none"/><text x="969" y="357" style="stroke-width:0;stroke:none;fill:rgba(51,51,51,1.0);font-size:12.8px;font-family:'Roboto Medium',sans-serif">0</text><path  d="M 959 308
L 964 308" style="stroke-width:2;stroke:rgba(85,85,85,1.0);fill:none"/><text x="969" y="314" style="stroke-width:0;stroke:none;fill:rgba(51,51,51,1.0);font-size:12.8px;font-family:'Roboto Medium',sans-serif">920</text><path  d="M 959 265
L 964 265" style="stroke-width:2;stroke:rgba(85,85,85,1.0);fill:none"/><text x="969" y="271" style="stroke-width:0;stroke:none;fill:rgba(51,51,51,1.0);font-size:12.8px;font-family:'Roboto Medium',sans-serif">1830</text><path  d="M 959 223
L 964 223" style="stroke-width:2;stroke:rgba(85,85,85,1.0);fill:none"/><text x="969" y="229" style="stroke-width:0;stroke:none;fill:rgba(51,51,51,1.0);font-size:12.8px;font-family:'Roboto Medium',sans-serif">2740</text><path  d="M 959 181
L 964 181" style="stroke-width:2;stroke:rgba(85,85,85,1.0);fill:none"/><text x="969" y="187" style="stroke-width:0;stroke:none;fill:rgba(51,51,51,1.0);font-size:12.8px;font-family:'Roboto Medium',sans-serif">3650</text><path  d="M 959 138
L 964 138" style="stroke-width:2;stroke:rgba(85,85,85,1.0);fill:none"/><text x="969" y="144" style="stroke-width:0;stroke:none;fill:rgba(51,51,51,1.0);font-size:12.8px;font-family:'Roboto Medium',sans-serif">4570</text><path  d="M 959 95
L 964 95" style="stroke-width:2;stroke:rgba(85,85,85,1.0);fill:none"/><text x="969" y="101" style="stroke-width:0;stroke:none;fill:rgba(51,51,51,1.0);font-size:12.8px;font-family:'Roboto Medium',sans-serif">5480</text><path  d="M 959 53
L 964 53" style="stroke-width:2;stroke:rgba(85,85,85,1.0);fill:none"/><text x="969" y="59" style="stroke-width:0;stroke:none;fill:rgba(51,51,51,1.0);font-size:12.8px;font-family:'Roboto Medium',sans-serif">6390</text><path  d="M 959 11
L 964 11" style="stroke-width:2;stroke:rgba(85,85,85,1.0);fill:none"/><text x="969" y="17" style="stroke-width:0;stroke:none;fill:rgba(51,51,51,1.0);font-size:12.8px;font-family:'Roboto Medium',sans-serif">7300</text><text x="1009" y="150" style="stroke-width:0;stroke:none;fill:rgba(51,51,51,1.0);font-size:12.8px;font-family:'Roboto Medium',sans-serif" transform="rotate(90.00,1009,150)">Stargazers</text><path  d="M 38 351
L 40 350
L 51 350
L 51 350
L 52 350
L 52 350
L 52 350
L 55 350
L 56 350
L 56 350
L 58 350
L 58 350
L 59 350
L 59 350
L 59 350
L 60 350
L 62 350
L 69 350
L 69 350
L 71 350
L 72 350
L 72 350
L 74 349
L 75 349
L 76 349
L 76 349
L 81 349
L 86 349
L 91 349
L 91 349
L 97 349
L 97 349
L 97 349
L 97 349
L 98 349
L 98 349
L 98 349
L 98 349
L 99 349
L 99 349
L 99 349
L 101 349
L 102 349
L 102 348
L 103 348
L 103 348
L 103 348
L 104 348
L 104 348
L 105 348
L 107 348
L 107 348
L 108 348
L 110 348
L 111 348
L 112 348
L 112 348
L 114 348
L 114 348
L 115 348
L 115 348
L 115 348
L 116 348
L 116 348
L 116 348
L 117 347
L 117 347
L 117 347
L 117 347
L 117 347
L 118 347
L 118 347
L 118 347
L 120 347
L 120 347
L 120 347
L 121 347
L 121 347
L 122 347
L 123 347
L 123 347
L 125 347
L 125 347
L 126 347
L 126 347
L 126 347
L 126 346
L 127 346
L 127 346
L 128 346
L 128 346
L 129 346
L 129 346
L 131 346
L 132 346
L 132 346
L 132 346
L 133 346
L 133 346
L 135 346
L 137 346
L 139 346
L 140 346
L 140 346
L 140 346
L 140 346
L 148 346
L 151 346
L 156 345
L 156 345
L 157 345
L 157 345
L 158 345
L 158 345
L 159 345
L 161 345
L 161 345
L 161 345
L 162 345
L 162 345
L 162 345
L 162 345
L 163 345
L 163 345
L 164 345
L 166 345
L 167 345
L 169 345
L 170 345
L 172 344
L 172 344
L 173 344
L 174 344
L 175 344
L 175 344
L 176 344
L 176 344
L 177 344
L 178 344
L 178 344
L 180 344
L 181 344
L 182 344
L 183 344
L 184 344
L 185 344
L 185 344
L 185 344
L 186 344
L 187 344
L 187 344
L 191 343
L 191 343
L 192 343
L 192 343
L 192 343
L 193 343
L 193 343
L 193 343
L 194 343
L 194 343
L 194 343
L 196 343
L 196 343
L 196 343
L 196 343
L 196 343
L 196 343
L 196 343
L 197 343
L 197 343
L 197 343
L 197 342
L 197 342
L 197 342
L 197 342
L 197 342
L 198 342
L 198 342
L 198 342
L 199 342
L 201 342
L 201 342
L 202 342
L 202 342
L 202 342
L 203 342
L 203 342
L 203 342
L 204 342
L 204 342
L 204 342
L 204 342
L 205 342
L 206 341
L 208 341
L 208 341
L 209 341
L 211 341
L 211 341
L 214 341
L 214 341
L 214 341
L 215 341
L 215 341
L 215 341
L 215 341
L 216 341
L 216 341
L 217 341
L 218 341
L 218 341
L 219 341
L 219 341
L 219 341
L 220 340
L 220 340
L 221 340
L 221 340
L 222 340
L 223 340
L 223 340
L 224 340
L 225 340
L 226 340
L 227 340
L 228 340
L 228 340
L 228 340
L 228 340
L 229 340
L 230 340
L 233 340
L 233 340
L 236 340
L 238 340
L 239 340
L 241 339
L 242 339
L 242 339
L 242 339
L 244 339
L 249 339
L 249 339
L 249 339
L 250 339
L 250 339
L 251 339
L 251 339
L 251 339
L 251 339
L 252 339
L 258 339
L 260 339
L 261 339
L 261 339
L 261 339
L 261 339
L 262 338
L 262 338
L 262 338
L 262 338
L 262 338
L 263 338
L 263 338
L 266 338
L 267 338
L 267 338
L 268 338
L 269 338
L 269 338
L 270 338
L 271 338
L 272 338
L 272 338
L 273 338
L 273 338
L 273 338
L 273 338
L 273 338
L 273 337
L 274 337
L 274 337
L 274 337
L 274 337
L 275 337
L 275 337
L 275 337
L 276 337
L 277 337
L 277 337
L 277 337
L 277 337
L 279 337
L 280 337
L 281 337
L 281 337
L 282 337
L 283 337
L 283 337
L 284 337
L 284 336
L 287 336
L 288 336
L 289 336
L 290 336
L 293 336
L 293 336
L 294 336
L 296 336
L 296 336
L 296 336
L 297 336
L 302 336
L 306 336
L 306 336
L 307 336
L 309 336
L 311 336
L 312 336
L 315 336
L 318 336
L 318 336
L 318 335
L 319 335
L 322 335
L 327 335
L 327 335
L 327 335
L 328 335
L 328 335
L 339 335
L 339 335
L 340 335
L 341 335
L 341 335
L 341 335
L 341 335
L 341 335
L 341 335
L 341 335
L 341 335
L 342 335
L 342 335
L 342 334
L 344 334
L 347 334
L 347 334
L 348 334
L 354 334
L 355 334
L 356 334
L 357 334
L 357 334
L 358 334
L 359 334
L 360 334
L 360 334
L 360 334
L 361 334
L 362 334
L 362 334
L 363 334
L 365 334
L 366 334
L 366 334
L 367 333
L 371 333
L 383 333
L 384 333
L 388 333
L 390 333
L 391 333
L 392 333
L 395 333
L 395 333
L 395 333
L 396 333
L 396 333
L 397 333
L 397 333
L 401 333
L 401 333
L 404 333
L 405 333
L 409 333
L 409 333
L 409 332
L 415 332
L 418 332
L 418 332
L 420 332
L 420 332
L 420 332
L 420 332
L 420 332
L 421 332
L 421 332
L 421 332
L 421 332
L 422 332
L 424 332
L 424 332
L 428 332
L 429 332
L 431 332
L 435 332
L 435 332
L 435 331
L 436 331
L 436 331
L 437 331
L 439 331
L 441 331
L 441 331
L 446 331
L 446 331
L 447 331
L 448 331
L 450 331
L 452 331
L 454 331
L 456 331
L 460 331
L 462 331
L 462 331
L 463 331
L 466 331
L 473 331
L 475 331
L 478 330
L 479 330
L 480 330
L 480 330
L 481 330
L 482 330
L 482 330
L 482 330
L 484 330
L 484 330
L 484 330
L 484 330
L 485 330
L 485 330
L 486 330
L 487 330
L 487 330
L 488 330
L 489 330
L 489 330
L 490 330
L 490 329
L 490 329
L 490 329
L 490 329
L 490 329
L 491 329
L 491 329
L 491 329
L 491 329
L 491 329
L 493 329
L 493 329
L 495 329
L 495 329
L 496 329
L 496 329
L 497 329
L 497 329
L 497 329
L 498 329
L 498 329
L 498 329
L 499 328
L 499 328
L 500 328
L 500 328
L 500 328
L 500 328
L 501 328
L 502 328
L 503 328
L 505 328
L 505 328
L 506 328
L 506 328
L 506 328
L 506 328
L 507 328
L 507 328
L 508 328
L 508 328
L 508 328
L 508 328
L 508 327
L 508 327
L 508 327
L 508 327
L 508 327
L 508 327
L 508 327
L 508 327
L 509 327
L 509 327
L 509 327
L 509 327
L 510 327
L 511 327
L 511 327
L 511 327
L 511 327
L 511 327
L 512 327
L 512 327
L 514 327
L 514 327
L 515 326
L 515 326
L 515 326
L 515 326
L 517 326
L 517 326
L 517 326
L 517 326
L 517 326
L 517 326
L 517 326
L 517 326
L 517 326
L 517 326
L 517 326
L 517 326
L 517 326
L 517 326
L 517 326
L 517 326
L 518 326
L 518 325
L 518 325
L 518 325
L 518 325
L 518 325
L 518 325
L 518 325
L 518 325
L 518 325
L 518 325
L 518 325
L 519 325
L 519 325
L 519 325
L 519 325
L 520 325
L 520 325
L 520 325
L 520 325
L 520 325
L 520 325
L 521 325
L 521 324
L 521 324
L 521 324
L 522 324
L 523 324
L 523 324
L 523 324
L 524 324
L 524 324
L 524 324
L 524 324
L 525 324
L 525 324
L 525 324
L 525 324
L 525 324
L 525 324
L 526 324
L 527 324
L 528 324
L 528 324
L 529 323
L 530 323
L 531 323
L 531 323
L 531 323
L 531 323
L 531 323
L 531 323
L 532 323
L 532 323
L 532 323
L 532 323
L 533 323
L 534 323
L 534 323
L 535 323
L 535 323
L 535 323
L 536 323
L 536 323
L 537 323
L 537 323
L 537 322
L 537 322
L 538 322
L 538 322
L 538 322
L 539 322
L 539 322
L 539 322
L 539 322
L 540 322
L 540 322
L 541 322
L 541 322
L 542 322
L 543 322
L 543 322
L 543 322
L 544 322
L 544 322
L 545 322
L 545 322
L 546 321
L 546 321
L 546 321
L 547 321
L 547 321
L 547 321
L 547 321
L 548 321
L 549 321
L 549 321
L 549 321
L 549 321
L 549 321
L 549 321
L 550 321
L 550 321
L 550 321
L 550 321
L 550 321
L 550 321
L 551 321
L 551 321
L 551 320
L 552 320
L 553 320
L 553 320
L 553 320
L 553 320
L 554 320
L 555 320
L 555 320
L 555 320
L 556 320
L 556 320
L 556 320
L 556 320
L 557 320
L 557 320
L 557 320
L 557 320
L 557 320
L 557 320
L 557 320
L 557 319
L 557 319
L 557 319
L 557 319
L 557 319
L 557 319
L 558 319
L 558 319
L 558 319
L 558 319
L 558 319
L 559 319
L 559 319
L 559 319
L 559 319
L 560 319
L 561 319
L 561 319
L 562 319
L 562 319
L 562 319
L 562 319
L 563 318
L 563 318
L 563 318
L 563 318
L 564 318
L 564 318
L 564 318
L 564 318
L 564 318
L 564 318
L 564 318
L 565 318
L 565 318
L 565 318
L 565 318
L 565 318
L 565 318
L 565 318
L 565 318
L 565 318
L 565 318
L 566 317
L 566 317
L 566 317
L 566 317
L 566 317
L 567 317
L 567 317
L 567 317
L 567 317
L 567 317
L 568 317
L 568 317
L 568 317
L 568 317
L 568 317
L 568 317
L 568 317
L 569 317
L 569 317
L 569 317
L 570 317
L 570 317
L 570 316
L 571 316
L 572 316
L 572 316
L 572 316
L 574 316
L 574 316
L 574 316
L 574 316
L 574 316
L 574 316
L 575 316
L 575 316
L 575 316
L 576 316
L 576 316
L 576 316
L 576 316
L 576 316
L 577 316
L 577 316
L 577 315
L 577 315
L 578 315
L 578 315
L 578 315
L 578 315
L 578 315
L 579 315
L 579 315
L 579 315
L 579 315
L 580 315
L 580 315
L 581 315
L 581 315
L 581 315
L 582 315
L 582 315
L 582 315
L 582 315
L 583 315
L 584 314
L 584 314
L 584 314
L 585 314
L 585 314
L 585 314
L 586 314
L 586 314
L 587 314
L 588 314
L 588 314
L 588 314
L 589 314
L 589 314
L 589 314
L 590 314
L 590 314
L 590 314
L 590 314
L 590 314
L 591 314
L 591 314
L 591 313
L 591 313
L 591 313
L 591 313
L 592 313
L 592 313
L 592 313
L 593 313
L 593 313
L 593 313
L 593 313
L 593 313
L 593 313
L 594 313
L 594 313
L 594 313
L 594 313
L 594 313
L 595 313
L 595 313
L 596 313
L 596 312
L 597 312
L 597 312
L 597 312
L 597 312
L 597 312
L 598 312
L 598 312
L 598 312
L 598 312
L 599 312
L 599 312
L 599 312
L 599 312
L 600 312
L 600 312
L 600 312
L 600 312
L 600 312
L 601 312
L 601 312
L 601 312
L 601 311
L 601 311
L 601 311
L 601 311
L 601 311
L 602 311
L 602 311
L 602 311
L 602 311
L 602 311
L 602 311
L 602 311
L 603 311
L 603 311
L 603 311
L 603 311
L 604 311
L 604 311
L 605 311
L 605 311
L 605 311
L 605 310
L 605 310
L 606 310
L 606 310
L 606 310
L 607 310
L 607 310
L 607 310
L 608 310
L 608 310
L 608 310
L 608 310
L 608 310
L 608 310
L 610 310
L 610 310
L 611 310
L 611 310
L 611 310
L 611 310
L 611 310
L 611 310
L 612 309
L 612 309
L 612 309
L 612 309
L 612 309
L 612 309
L 613 309
L 613 309
L 613 309
L 613 309
L 614 309
L 614 309
L 614 309
L 614 309
L 614 309
L 616 309
L 616 309
L 616 309
L 617 309
L 617 309
L 617 309
L 617 308
L 617 308
L 617 308
L 618 308
L 618 308
L 619 308
L 619 308
L 619 308
L 619 308
L 619 308
L 619 308
L 620 308
L 620 308
L 620 308
L 621 308
L 621 308
L 622 308
L 623 308
L 623 308
L 624 308
L 624 308
L 625 308
L 626 307
L 627 307
L 628 307
L 628 307
L 628 307
L 628 307
L 629 307
L 630 307
L 630 307
L 631 307
L 631 307
L 632 307
L 632 307
L 632 307
L 632 307
L 633 307
L 633 307
L 633 307
L 634 307
L 634 307
L 634 307
L 634 306
L 634 306
L 635 306
L 635 306
L 636 306
L 636 306
L 636 306
L 637 306
L 637 306
L 637 306
L 637 306
L 637 306
L 637 306
L 637 306
L 637 306
L 637 306
L 638 306
L 638 306
L 638 306
L 639 306
L 639 306
L 639 306
L 639 305
L 639 305
L 640 305
L 641 305
L 641 305
L 641 305
L 642 305
L 642 305
L 643 305
L 644 305
L 644 305
L 645 305
L 646 305
L 647 305
L 647 305
L 647 305
L 647 305
L 647 305
L 648 305
L 648 305
L 648 305
L 651 304
L 651 304
L 651 304
L 651 304
L 651 304
L 651 304
L 651 304
L 652 304
L 652 304
L 653 304
L 653 304
L 653 304
L 653 304
L 653 304
L 653 304
L 653 304
L 653 304
L 655 304
L 657 304
L 658 304
L 658 304
L 660 304
L 660 303
L 660 303
L 661 303
L 661 303
L 662 303
L 662 303
L 663 303
L 663 303
L 663 303
L 663 303
L 663 303
L 663 303
L 664 303
L 664 303
L 664 303
L 664 303
L 664 303
L 664 303
L 664 303
L 664 303
L 665 303
L 665 302
L 665 302
L 665 302
L 666 302
L 666 302
L 666 302
L 666 302
L 666 302
L 666 302
L 667 302
L 667 302
L 667 302
L 667 302
L 667 302
L 667 302
L 668 302
L 669 302
L 669 302
L 669 302
L 669 302
L 670 302
L 670 302
L 670 301
L 670 301
L 671 301
L 671 301
L 672 301
L 672 301
L 672 301
L 672 301
L 672 301
L 673 301
L 673 301
L 673 301
L 673 301
L 675 301
L 675 301
L 675 301
L 676 301
L 676 301
L 676 301
L 676 301
L 676 301
L 676 300
L 676 300
L 676 300
L 676 300
L 676 300
L 676 300
L 676 300
L 677 300
L 677 300
L 677 300
L 677 300
L 677 300
L 677 300
L 677 300
L 677 300
L 677 300
L 677 300
L 678 300
L 678 300
L 678 300
L 678 300
L 678 300
L 678 299
L 678 299
L 678 299
L 678 299
L 678 299
L 678 299
L 678 299
L 678 299
L 678 299
L 678 299
L 679 299
L 679 299
L 679 299
L 680 299
L 680 299
L 680 299
L 680 299
L 680 299
L 681 299
L 681 299
L 681 299
L 681 298
L 682 298
L 682 298
L 682 298
L 682 298
L 682 298
L 682 298
L 682 298
L 682 298
L 682 298
L 683 298
L 683 298
L 683 298
L 683 298
L 683 298
L 683 298
L 683 298
L 683 298
L 683 298
L 683 298
L 684 298
L 685 297
L 685 297
L 685 297
L 685 297
L 686 297
L 686 297
L 686 297
L 687 297
L 687 297
L 687 297
L 687 297
L 687 297
L 687 297
L 687 297
L 687 297
L 688 297
L 688 297
L 688 297
L 689 297
L 689 297
L 689 297
L 689 297
L 689 296
L 690 296
L 690 296
L 690 296
L 690 296
L 690 296
L 691 296
L 691 296
L 691 296
L 692 296
L 692 296
L 692 296
L 692 296
L 693 296
L 693 296
L 693 296
L 693 296
L 694 296
L 694 296
L 694 296
L 694 296
L 694 295
L 694 295
L 695 295
L 695 295
L 695 295
L 695 295
L 695 295
L 695 295
L 696 295
L 696 295
L 696 295
L 697 295
L 697 295
L 697 295
L 697 295
L 697 295
L 698 295
L 698 295
L 698 295
L 698 295
L 698 295
L 698 295
L 698 294
L 699 294
L 700 294
L 700 294
L 701 294
L 701 294
L 701 294
L 701 294
L 702 294
L 702 294
L 702 294
L 702 294
L 702 294
L 702 294
L 702 294
L 703 294
L 704 294
L 704 294
L 704 294
L 704 294
L 704 294
L 704 293
L 705 293
L 705 293
L 705 293
L 705 293
L 705 293
L 705 293
L 706 293
L 706 293
L 706 293
L 706 293
L 706 293
L 706 293
L 707 293
L 707 293
L 707 293
L 707 293
L 707 293
L 707 293
L 709 293
L 710 293
L 710 293
L 710 292
L 710 292
L 711 292
L 711 292
L 711 292
L 711 292
L 711 292
L 711 292
L 712 292
L 712 292
L 712 292
L 712 292
L 712 292
L 712 292
L 712 292
L 713 292
L 713 292
L 713 292
L 713 292
L 714 292
L 714 292
L 714 291
L 715 291
L 715 291
L 715 291
L 715 291
L 715 291
L 716 291
L 716 291
L 716 291
L 716 291
L 716 291
L 717 291
L 717 291
L 717 291
L 717 291
L 718 291
L 718 291
L 718 291
L 718 291
L 719 291
L 719 291
L 719 291
L 719 290
L 720 290
L 721 290
L 721 290
L 721 290
L 721 290
L 722 290
L 722 290
L 722 290
L 722 290
L 723 290
L 723 290
L 723 290
L 723 290
L 723 290
L 723 290
L 723 290
L 723 290
L 723 290
L 723 290
L 723 290
L 723 289
L 723 289
L 724 289
L 724 289
L 724 289
L 724 289
L 724 289
L 724 289
L 724 289
L 724 289
L 725 289
L 725 289
L 725 289
L 725 289
L 725 289
L 725 289
L 726 289
L 726 289
L 726 289
L 727 289
L 727 289
L 727 289
L 727 288
L 728 288
L 728 288
L 728 288
L 728 288
L 728 288
L 728 288
L 728 288
L 728 288
L 729 288
L 729 288
L 729 288
L 729 288
L 729 288
L 729 288
L 730 288
L 730 288
L 730 288
L 730 288
L 730 288
L 731 288
L 732 287
L 732 287
L 733 287
L 733 287
L 733 287
L 733 287
L 734 287
L 734 287
L 734 287
L 734 287
L 734 287
L 734 287
L 734 287
L 735 287
L 735 287
L 735 287
L 735 287
L 735 287
L 735 287
L 735 287
L 735 287
L 735 287
L 735 286
L 735 286
L 736 286
L 736 286
L 736 286
L 736 286
L 736 286
L 737 286
L 737 286
L 737 286
L 738 286
L 738 286
L 738 286
L 739 286
L 739 286
L 739 286
L 739 286
L 740 286
L 740 286
L 740 286
L 740 286
L 740 285
L 740 285
L 740 285
L 740 285
L 740 285
L 740 285
L 741 285
L 741 285
L 742 285
L 742 285
L 742 285
L 742 285
L 743 285
L 743 285
L 743 285
L 743 285
L 744 285
L 744 285
L 744 285
L 744 285
L 745 285
L 745 285
L 745 284
L 745 284
L 745 284
L 745 284
L 746 284
L 746 284
L 746 284
L 746 284
L 747 284
L 747 284
L 747 284
L 748 284
L 748 284
L 748 284
L 748 284
L 748 284
L 748 284
L 749 284
L 749 284
L 749 284
L 749 284
L 749 283
L 749 283
L 749 283
L 750 283
L 750 283
L 750 283
L 750 283
L 750 283
L 750 283
L 751 283
L 751 283
L 751 283
L 751 283
L 751 283
L 751 283
L 751 283
L 751 283
L 751 283
L 752 283
L 752 283
L 752 283
L 752 283
L 752 282
L 752 282
L 753 282
L 753 282
L 753 282
L 753 282
L 753 282
L 753 282
L 754 282
L 754 282
L 755 282
L 755 282
L 756 282
L 756 282
L 756 282
L 756 282
L 756 282
L 756 282
L 756 282
L 756 282
L 756 282
L 757 281
L 757 281
L 757 281
L 757 281
L 758 281
L 758 281
L 759 281
L 759 281
L 759 281
L 759 281
L 759 281
L 759 281
L 759 281
L 760 281
L 760 281
L 760 281
L 760 281
L 760 281
L 760 281
L 760 281
L 761 281
L 761 280
L 761 280
L 761 280
L 761 280
L 761 280
L 761 280
L 762 280
L 762 280
L 762 280
L 762 280
L 762 280
L 763 280
L 763 280
L 763 280
L 764 280
L 764 280
L 764 280
L 765 280
L 765 280
L 767 280
L 767 280
L 767 280
L 767 279
L 767 279
L 767 279
L 769 279
L 769 279
L 769 279
L 769 279
L 770 279
L 770 279
L 770 279
L 770 279
L 771 279
L 771 279
L 771 279
L 771 279
L 771 279
L 771 279
L 772 279
L 772 279
L 772 279
L 772 279
L 772 278
L 772 278
L 772 278
L 773 278
L 773 278
L 773 278
L 773 278
L 773 278
L 773 278
L 773 278
L 773 278
L 773 278
L 774 278
L 774 278
L 774 278
L 774 278
L 774 278
L 775 278
L 775 278
L 775 278
L 775 278
L 775 278
L 775 277
L 775 277
L 775 277
L 775 277
L 775 277
L 775 277
L 775 277
L 776 277
L 776 277
L 776 277
L 776 277
L 776 277
L 776 277
L 777 277
L 777 277
L 777 277
L 777 277
L 777 277
L 777 277
L 777 277
L 777 277
L 778 276
L 778 276
L 778 276
L 778 276
L 778 276
L 778 276
L 778 276
L 779 276
L 779 276
L 780 276
L 780 276
L 780 276
L 780 276
L 780 276
L 780 276
L 781 276
L 781 276
L 781 276
L 781 276
L 781 276
L 781 276
L 781 276
L 781 275
L 781 275
L 781 275
L 781 275
L 781 275
L 781 275
L 781 275
L 781 275
L 781 275
L 781 275
L 782 275
L 782 275
L 782 275
L 782 275
L 782 275
L 782 275
L 782 275
L 782 275
L 782 275
L 783 275
L 783 275
L 783 274
L 783 274
L 783 274
L 783 274
L 783 274
L 783 274
L 784 274
L 784 274
L 784 274
L 785 274
L 785 274
L 785 274
L 785 274
L 785 274
L 786 274
L 786 274
L 786 274
L 786 274
L 786 274
L 786 274
L 786 274
L 786 274
L 786 273
L 786 273
L 786 273
L 787 273
L 787 273
L 787 273
L 787 273
L 787 273
L 788 273
L 788 273
L 788 273
L 788 273
L 789 273
L 789 273
L 789 273
L 789 273
L 789 273
L 789 273
L 789 273
L 789 273
L 789 273
L 789 272
L 789 272
L 789 272
L 789 272
L 789 272
L 789 272
L 790 272
L 790 272
L 790 272
L 790 272
L 790 272
L 790 272
L 790 272
L 791 272
L 791 272
L 791 272
L 791 272
L 791 272
L 791 272
L 791 272
L 791 272
L 791 272
L 791 271
L 791 271
L 791 271
L 791 271
L 791 271
L 791 271
L 791 271
L 791 271
L 791 271
L 791 271
L 791 271
L 791 271
L 791 271
L 791 271
L 791 271
L 791 271
L 791 271
L 791 271
L 791 271
L 791 271
L 791 271
L 791 270
L 791 270
L 791 270
L 791 270
L 791 270
L 791 270
L 791 270
L 791 270
L 791 270
L 791 270
L 791 270
L 791 270
L 791 270
L 791 270
L 791 270
L 791 270
L 791 270
L 791 270
L 791 270
L 791 270
L 791 270
L 791 270
L 791 269
L 791 269
L 791 269
L 791 269
L 791 269
L 791 269
L 791 269
L 791 269
L 791 269
L 791 269
L 791 269
L 791 269
L 791 269
L 791 269
L 791 269
L 791 269
L 791 269
L 791 269
L 791 269
L 791 269
L 791 269
L 792 268
L 792 268
L 792 268
L 792 268
L 792 268
L 792 268
L 792 268
L 792 268
L 792 268
L 792 268
L 792 268
L 792 268
L 792 268
L 792 268
L 792 268
L 792 268
L 792 268
L 792 268
L 792 268
L 792 268
L 792 268
L 792 268
L 792 267
L 792 267
L 792 267
L 792 267
L 792 267
L 792 267
L 792 267
L 792 267
L 792 267
L 792 267
L 792 267
L 792 267
L 792 267
L 792 267
L 792 267
L 792 267
L 792 267
L 792 267
L 792 267
L 793 267
L 793 267
L 793 266
L 793 266
L 793 266
L 793 266
L 793 266
L 793 266
L 793 266
L 793 266
L 793 266
L 793 266
L 793 266
L 793 266
L 793 266
L 793 266
L 793 266
L 793 266
L 793 266
L 793 266
L 793 266
L 793 266
L 793 266
L 793 266
L 793 265
L 793 265
L 793 265
L 793 265
L 793 265
L 793 265
L 793 265
L 793 265
L 793 265
L 793 265
L 793 265
L 793 265
L 793 265
L 793 265
L 793 265
L 793 265
L 793 265
L 793 265
L 793 265
L 793 265
L 793 265
L 793 264
L 793 264
L 793 264
L 793 264
L 793 264
L 793 264
L 793 264
L 793 264
L 793 264
L 793 264
L 793 264
L 793 264
L 793 264
L 793 264
L 793 264
L 794 264
L 794 264
L 794 264
L 794 264
L 794 264
L 794 264
L 794 263
L 794 263
L 794 263
L 794 263
L 794 263
L 794 263
L 794 263
L 794 263
L 794 263
L 794 263
L 794 263
L 794 263
L 794 263
L 794 263
L 794 263
L 794 263
L 794 263
L 794 263
L 794 263
L 794 263
L 794 263
L 794 263
L 794 262
L 794 262
L 794 262
L 794 262
L 794 262
L 794 262
L 794 262
L 794 262
L 794 262
L 794 262
L 794 262
L 794 262
L 794 262
L 794 262
L 794 262
L 794 262
L 794 262
L 794 262
L 794 262
L 794 262
L 794 262
L 794 261
L 794 261
L 794 261
L 794 261
L 794 261
L 794 261
L 794 261
L 794 261
L 794 261
L 794 261
L 794 261
L 794 261
L 794 261
L 794 261
L 794 261
L 794 261
L 794 261
L 794 261
L 794 261
L 794 261
L 794 261
L 794 261
L 794 260
L 794 260
L 794 260
L 794 260
L 794 260
L 794 260
L 794 260
L 794 260
L 794 260
L 794 260
L 794 260
L 794 260
L 794 260
L 794 260
L 794 260
L 794 260
L 794 260
L 794 260
L 794 260
L 794 260
L 795 260
L 795 259
L 795 259
L 795 259
L 795 259
L 795 259
L 795 259
L 795 259
L 795 259
L 795 259
L 795 259
L 795 259
L 795 259
L 795 259
L 795 259
L 795 259
L 795 259
L 795 259
L 795 259
L 795 259
L 795 259
L 795 259
L 795 259
L 795 258
L 795 258
L 795 258
L 795 258
L 795 258
L 795 258
L 795 258
L 795 258
L 795 258
L 795 258
L 795 258
L 795 258
L 795 258
L 795 258
L 795 258
L 795 258
L 795 258
L 795 258
L 795 258
L 795 258
L 795 258
L 795 257
L 795 257
L 795 257
L 795 257
L 795 257
L 795 257
L 795 257
L 795 257
L 795 257
L 795 257
L 795 257
L 796 257
L 796 257
L 796 257
L 796 257
L 796 257
L 796 257
L 796 257
L 796 257
L 796 257
L 796 257
L 796 257
L 796 256
L 796 256
L 796 256
L 796 256
L 796 256
L 796 256
L 797 256
L 797 256
L 797 256
L 797 256
L 797 256
L 797 256
L 798 256
L 798 256
L 798 256
L 798 256
L 798 256
L 798 256
L 798 256
L 798 256
L 798 256
L 799 255
L 799 255
L 799 255
L 799 255
L 799 255
L 799 255
L 799 255
L 799 255
L 799 255
L 799 255
L 799 255
L 799 255
L 799 255
L 799 255
L 800 255
L 800 255
L 800 255
L 800 255
L 800 255
L 800 255
L 800 255
L 800 255
L 800 254
L 800 254
L 800 254
L 800 254
L 800 254
L 800 254
L 800 254
L 800 254
L 801 254
L 801 254
L 801 254
L 801 254
L 801 254
L 801 254
L 801 254
L 801 254
L 801 254
L 801 254
L 802 254
L 802 254
L 802 254
L 802 253
L 802 253
L 802 253
L 803 253
L 803 253
L 803 253
L 803 253
L 803 253
L 803 253
L 803 253
L 803 253
L 803 253
L 803 253
L 804 253
L 804 253
L 804 253
L 804 253
L 804 253
L 804 253
L 804 253
L 804 253
L 804 253
L 804 252
L 804 252
L 804 252
L 804 252
L 804 252
L 804 252
L 804 252
L 804 252
L 804 252
L 804 252
L 804 252
L 804 252
L 804 252
L 804 252
L 804 252
L 804 252
L 804 252
L 804 252
L 804 252
L 804 252
L 804 252
L 804 251
L 804 251
L 804 251
L 804 251
L 804 251
L 804 251
L 805 251
L 805 251
L 805 251
L 805 251
L 805 251
L 805 251
L 805 251
L 805 251
L 805 251
L 805 251
L 805 251
L 805 251
L 805 251
L 805 251
L 805 251
L 805 251
L 805 250
L 805 250
L 805 250
L 805 250
L 805 250
L 805 250
L 805 250
L 805 250
L 805 250
L 805 250
L 805 250
L 805 250
L 805 250
L 805 250
L 805 250
L 805 250
L 805 250
L 805 250
L 805 250
L 805 250
L 805 250
L 805 249
L 805 249
L 806 249
L 806 249
L 806 249
L 806 249
L 806 249
L 806 249
L 806 249
L 806 249
L 806 249
L 806 249
L 806 249
L 806 249
L 806 249
L 806 249
L 806 249
L 806 249
L 806 249
L 806 249
L 806 249
L 806 249
L 806 248
L 806 248
L 806 248
L 806 248
L 806 248
L 806 248
L 806 248
L 806 248
L 806 248
L 806 248
L 806 248
L 806 248
L 806 248
L 806 248
L 806 248
L 806 248
L 806 248
L 806 248
L 806 248
L 806 248
L 806 248
L 806 247
L 806 247
L 806 247
L 806 247
L 806 247
L 806 247
L 806 247
L 806 247
L 806 247
L 806 247
L 806 247
L 806 247
L 806 247
L 806 247
L 806 247
L 806 247
L 806 247
L 806 247
L 806 247
L 806 247
L 806 247
L 806 246
L 806 246
L 806 246
L 806 246
L 806 246
L 806 246
L 806 246
L 806 246
L 806 246
L 806 246
L 806 246
L 806 246
L 806 246
L 806 246
L 806 246
L 806 246
L 806 246
L 806 246
L 806 246
L 806 246
L 806 246
L 806 246
L 806 245
L 806 245
L 806 245
L 806 245
L 806 245
L 806 245
L 806 245
L 806 245
L 806 245
L 806 245
L 806 245
L 806 245
L 807 245
L 807 245
L 807 245
L 807 245
L 807 245
L 807 245
L 807 245
L 807 245
L 807 245
L 807 244
L 807 244
L 807 244
L 807 244
L 807 244
L 807 244
L 807 244
L 807 244
L 807 244
L 807 244
L 807 244
L 807 244
L 807 244
L 807 244
L 807 244
L 807 244
L 807 244
L 807 244
L 807 244
L 807 244
L 807 244
L 807 244
L 807 243
L 807 243
L 807 243
L 807 243
L 807 243
L 808 243
L 808 243
L 808 243
L 808 243
L 808 243
L 808 243
L 808 243
L 808 243
L 808 243
L 808 243
L 808 243
L 808 243
L 808 243
L 808 243
L 808 243
L 808 243
L 808 242
L 808 242
L 808 242
L 808 242
L 808 242
L 809 242
L 809 242
L 809 242
L 809 242
L 809 242
L 809 242
L 809 242
L 809 242
L 809 242
L 809 242
L 809 242
L 809 242
L 809 242
L 809 242
L 809 242
L 809 242
L 809 242
L 809 241
L 809 241
L 809 241
L 809 241
L 809 241
L 809 241
L 809 241
L 809 241
L 809 241
L 809 241
L 809 241
L 809 241
L 809 241
L 809 241
L 810 241
L 810 241
L 810 241
L 810 241
L 810 241
L 810 241
L 810 241
L 810 240
L 810 240
L 810 240
L 810 240
L 810 240
L 810 240
L 810 240
L 810 240
L 810 240
L 810 240
L 810 240
L 810 240
L 810 240
L 810 240
L 810 240
L 810 240
L 810 240
L 810 240
L 810 240
L 810 240
L 810 240
L 810 240
L 810 239
L 810 239
L 810 239
L 811 239
L 811 239
L 811 239
L 811 239
L 811 239
L 811 239
L 811 239
L 811 239
L 811 239
L 811 239
L 811 239
L 811 239
L 811 239
L 811 239
L 811 239
L 811 239
L 811 239
L 811 239
L 811 238
L 811 238
L 811 238
L 811 238
L 811 238
L 811 238
L 812 238
L 812 238
L 812 238
L 812 238
L 812 238
L 812 238
L 812 238
L 812 238
L 812 238
L 812 238
L 813 238
L 813 238
L 813 238
L 813 238
L 813 238
L 813 238
L 813 237
L 813 237
L 813 237
L 813 237
L 813 237
L 813 237
L 814 237
L 814 237
L 814 237
L 814 237
L 814 237
L 814 237
L 814 237
L 814 237
L 814 237
L 814 237
L 814 237
L 815 237
L 815 237
L 815 237
L 815 237
L 815 236
L 815 236
L 815 236
L 815 236
L 815 236
L 816 236
L 816 236
L 816 236
L 816 236
L 816 236
L 816 236
L 816 236
L 816 236
L 816 236
L 816 236
L 816 236
L 816 236
L 817 236
L 817 236
L 817 236
L 817 236
L 817 236
L 817 235
L 817 235
L 817 235
L 817 235
L 817 235
L 817 235
L 817 235
L 817 235
L 817 235
L 817 235
L 817 235
L 817 235
L 817 235
L 817 235
L 818 235
L 818 235
L 818 235
L 818 235
L 818 235
L 818 235
L 818 235
L 818 234
L 818 234
L 818 234
L 819 234
L 819 234
L 819 234
L 819 234
L 819 234
L 819 234
L 819 234
L 819 234
L 819 234
L 819 234
L 820 234
L 820 234
L 820 234
L 820 234
L 820 234
L 820 234
L 820 234
L 820 234
L 820 234
L 820 233
L 820 233
L 820 233
L 820 233
L 820 233
L 820 233
L 820 233
L 820 233
L 820 233
L 821 233
L 821 233
L 821 233
L 821 233
L 821 233
L 821 233
L 821 233
L 821 233
L 821 233
L 821 233
L 821 233
L 821 233
L 821 232
L 821 232
L 821 232
L 821 232
L 821 232
L 821 232
L 821 232
L 822 232
L 822 232
L 822 232
L 822 232
L 822 232
L 822 232
L 822 232
L 822 232
L 822 232
L 822 232
L 822 232
L 822 232
L 822 232
L 822 232
L 822 232
L 822 231
L 822 231
L 822 231
L 822 231
L 822 231
L 823 231
L 823 231
L 823 231
L 823 231
L 823 231
L 823 231
L 823 231
L 824 231
L 824 231
L 824 231
L 824 231
L 824 231
L 824 231
L 824 231
L 824 231
L 824 231
L 824 230
L 825 230
L 825 230
L 825 230
L 825 230
L 825 230
L 825 230
L 825 230
L 825 230
L 825 230
L 825 230
L 825 230
L 825 230
L 825 230
L 825 230
L 825 230
L 825 230
L 825 230
L 825 230
L 825 230
L 825 230
L 825 229
L 825 229
L 825 229
L 825 229
L 826 229
L 826 229
L 826 229
L 826 229
L 826 229
L 826 229
L 826 229
L 826 229
L 826 229
L 826 229
L 826 229
L 826 229
L 826 229
L 826 229
L 826 229
L 826 229
L 826 229
L 826 229
L 826 228
L 826 228
L 826 228
L 826 228
L 826 228
L 826 228
L 826 228
L 826 228
L 826 228
L 826 228
L 826 228
L 826 228
L 826 228
L 826 228
L 827 228
L 827 228
L 827 228
L 827 228
L 827 228
L 827 228
L 827 228
L 827 227
L 827 227
L 827 227
L 827 227
L 827 227
L 827 227
L 827 227
L 827 227
L 827 227
L 827 227
L 827 227
L 827 227
L 827 227
L 827 227
L 827 227
L 827 227
L 827 227
L 827 227
L 827 227
L 827 227
L 827 227
L 827 227
L 827 226
L 827 226
L 827 226
L 827 226
L 827 226
L 827 226
L 827 226
L 827 226
L 827 226
L 827 226
L 827 226
L 827 226
L 827 226
L 827 226
L 827 226
L 827 226
L 827 226
L 827 226
L 827 226
L 827 226
L 827 226
L 827 225
L 827 225
L 827 225
L 827 225
L 827 225
L 827 225
L 827 225
L 827 225
L 827 225
L 827 225
L 827 225
L 827 225
L 827 225
L 827 225
L 827 225
L 827 225
L 827 225
L 827 225
L 827 225
L 827 225
L 827 225
L 828 225
L 828 224
L 828 224
L 828 224
L 828 224
L 828 224
L 828 224
L 828 224
L 828 224
L 828 224
L 828 224
L 828 224
L 828 224
L 828 224
L 828 224
L 828 224
L 828 224
L 828 224
L 828 224
L 828 224
L 828 224
L 828 224
L 828 223
L 828 223
L 828 223
L 828 223
L 828 223
L 828 223
L 828 223
L 828 223
L 828 223
L 828 223
L 828 223
L 828 223
L 828 223
L 828 223
L 828 223
L 828 223
L 828 223
L 828 223
L 828 223
L 828 223
L 828 223
L 828 223
L 828 222
L 828 222
L 828 222
L 828 222
L 828 222
L 828 222
L 828 222
L 828 222
L 828 222
L 828 222
L 829 222
L 829 222
L 829 222
L 829 222
L 829 222
L 829 222
L 829 222
L 829 222
L 829 222
L 829 222
L 829 222
L 829 221
L 829 221
L 829 221
L 829 221
L 829 221
L 829 221
L 829 221
L 829 221
L 829 221
L 829 221
L 829 221
L 829 221
L 829 221
L 829 221
L 829 221
L 829 221
L 829 221
L 829 221
L 829 221
L 829 221
L 829 221
L 829 221
L 829 220
L 829 220
L 829 220
L 829 220
L 829 220
L 829 220
L 829 220
L 829 220
L 829 220
L 829 220
L 829 220
L 829 220
L 829 220
L 829 220
L 829 220
L 829 220
L 829 220
L 829 220
L 829 220
L 829 220
L 829 220
L 829 219
L 829 219
L 829 219
L 829 219
L 829 219
L 829 219
L 829 219
L 829 219
L 829 219
L 829 219
L 829 219
L 829 219
L 829 219
L 829 219
L 829 219
L 829 219
L 829 219
L 829 219
L 829 219
L 829 219
L 829 219
L 829 219
L 829 218
L 829 218
L 829 218
L 829 218
L 829 218
L 829 218
L 829 218
L 829 218
L 829 218
L 829 218
L 829 218
L 829 218
L 829 218
L 829 218
L 829 218
L 829 218
L 829 218
L 829 218
L 829 218
L 829 218
L 829 218
L 829 217
L 829 217
L 829 217
L 829 217
L 829 217
L 829 217
L 829 217
L 829 217
L 829 217
L 829 217
L 829 217
L 829 217
L 829 217
L 829 217
L 829 217
L 829 217
L 829 217
L 829 217
L 829 217
L 829 217
L 829 217
L 829 217
L 829 216
L 829 216
L 829 216
L 829 216
L 829 216
L 829 216
L 829 216
L 829 216
L 829 216
L 829 216
L 829 216
L 829 216
L 829 216
L 829 216
L 829 216
L 829 216
L 829 216
L 829 216
L 829 216
L 829 216
L 829 216
L 829 215
L 829 215
L 829 215
L 829 215
L 829 215
L 829 215
L 829 215
L 829 215
L 829 215
L 829 215
L 829 215
L 829 215
L 829 215
L 829 215
L 829 215
L 829 215
L 829 215
L 829 215
L 829 215
L 829 215
L 829 215
L 829 215
L 829 214
L 829 214
L 829 214
L 829 214
L 829 214
L 829 214
L 829 214
L 829 214
L 829 214
L 829 214
L 829 214
L 829 214
L 829 214
L 829 214
L 829 214
L 829 214
L 829 214
L 829 214
L 829 214
L 829 214
L 829 214
L 829 213
L 829 213
L 829 213
L 829 213
L 829 213
L 829 213
L 829 213
L 829 213
L 829 213
L 829 213
L 829 213
L 829 213
L 829 213
L 829 213
L 829 213
L 829 213
L 829 213
L 829 213
L 829 213
L 829 213
L 829 213
L 829 212
L 829 212
L 829 212
L 829 212
L 829 212
L 829 212
L 829 212
L 829 212
L 829 212
L 829 212
L 829 212
L 829 212
L 829 212
L 829 212
L 829 212
L 829 212
L 829 212
L 829 212
L 829 212
L 829 212
L 829 212
L 829 212
L 829 211
L 829 211
L 829 211
L 829 211
L 829 211
L 829 211
L 829 211
L 829 211
L 829 211
L 829 211
L 829 211
L 829 211
L 829 211
L 829 211
L 829 211
L 829 211
L 829 211
L 829 211
L 829 211
L 830 211
L 830 211
L 830 210
L 830 210
L 830 210
L 830 210
L 830 210
L 830 210
L 830 210
L 830 210
L 830 210
L 830 210
L 830 210
L 830 210
L 830 210
L 830 210
L 830 210
L 830 210
L 830 210
L 830 210
L 830 210
L 830 210
L 830 210
L 830 210
L 830 209
L 830 209
L 830 209
L 830 209
L 830 209
L 830 209
L 830 209
L 830 209
L 830 209
L 830 209
L 830 209
L 830 209
L 830 209
L 830 209
L 830 209
L 830 209
L 830 209
L 830 209
L 830 209
L 830 209
L 830 209
L 830 208
L 830 208
L 830 208
L 830 208
L 830 208
L 830 208
L 830 208
L 830 208
L 830 208
L 830 208
L 830 208
L 830 208
L 830 208
L 830 208
L 830 208
L 830 208
L 830 208
L 830 208
L 830 208
L 830 208
L 830 208
L 830 208
L 830 207
L 830 207
L 830 207
L 830 207
L 830 207
L 830 207
L 830 207
L 830 207
L 830 207
L 830 207
L 830 207
L 830 207
L 830 207
L 830 207
L 830 207
L 830 207
L 830 207
L 830 207
L 830 207
L 830 207
L 830 207
L 830 206
L 830 206
L 830 206
L 830 206
L 830 206
L 830 206
L 830 206
L 830 206
L 830 206
L 830 206
L 830 206
L 830 206
L 830 206
L 830 206
L 830 206
L 830 206
L 830 206
L 830 206
L 830 206
L 830 206
L 830 206
L 830 206
L 830 205
L 830 205
L 830 205
L 830 205
L 830 205
L 830 205
L 830 205
L 830 205
L 830 205
L 830 205
L 830 205
L 830 205
L 830 205
L 830 205
L 830 205
L 830 205
L 830 205
L 830 205
L 830 205
L 830 205
L 830 205
L 830 204
L 830 204
L 830 204
L 830 204
L 830 204
L 830 204
L 830 204
L 830 204
L 830 204
L 830 204
L 830 204
L 830 204
L 830 204
L 830 204
L 830 204
L 830 204
L 830 204
L 830 204
L 830 204
L 830 204
L 830 204
L 830 204
L 830 203
L 830 203
L 830 203
L 830 203
L 830 203
L 830 203
L 830 203
L 830 203
L 830 203
L 830 203
L 830 203
L 830 203
L 830 203
L 830 203
L 830 203
L 830 203
L 830 203
L 830 203
L 830 203
L 830 203
L 830 203
L 830 202
L 830 202
L 830 202
L 830 202
L 830 202
L 830 202
L 830 202
L 830 202
L 830 202
L 830 202
L 830 202
L 830 202
L 830 202
L 830 202
L 830 202
L 830 202
L 830 202
L 830 202
L 830 202
L 830 202
L 830 202
L 830 202
L 830 201
L 830 201
L 830 201
L 830 201
L 830 201
L 830 201
L 830 201
L 830 201
L 830 201
L 830 201
L 830 201
L 830 201
L 830 201
L 830 201
L 830 201
L 830 201
L 830 201
L 830 201
L 830 201
L 830 201
L 830 201
L 830 200
L 830 200
L 830 200
L 830 200
L 830 200
L 830 200
L 830 200
L 830 200
L 830 200
L 830 200
L 830 200
L 830 200
L 830 200
L 830 200
L 830 200
L 830 200
L 830 200
L 830 200
L 830 200
L 830 200
L 830 200
L 830 200
L 830 199
L 830 199
L 830 199
L 830 199
L 830 199
L 830 199
L 830 199
L 830 199
L 830 199
L 830 199
L 830 199
L 830 199
L 830 199
L 830 199
L 830 199
L 830 199
L 830 199
L 830 199
L 830 199
L 830 199
L 830 199
L 830 198
L 830 198
L 830 198
L 830 198
L 830 198
L 830 198
L 830 198
L 830 198
L 830 198
L 830 198
L 830 198
L 830 198
L 830 198
L 830 198
L 830 198
L 830 198
L 830 198
L 830 198
L 830 198
L 830 198
L 830 198
L 830 198
L 830 197
L 830 197
L 830 197
L 830 197
L 830 197
L 830 197
L 830 197
L 830 197
L 830 197
L 830 197
L 830 197
L 830 197
L 830 197
L 830 197
L 830 197
L 830 197
L 830 197
L 830 197
L 830 197
L 830 197
L 830 197
L 830 196
L 830 196
L 830 196
L 830 196
L 830 196
L 830 196
L 830 196
L 830 196
L 830 196
L 830 196
L 830 196
L 830 196
L 830 196
L 830 196
L 830 196
L 830 196
L 830 196
L 830 196
L 830 196
L 830 196
L 830 196
L 830 195
L 830 195
L 830 195
L 830 195
L 830 195
L 830 195
L 830 195
L 830 195
L 830 195
L 830 195
L 830 195
L 830 195
L 830 195
L 830 195
L 830 195
L 830 195
L 830 195
L 830 195
L 830 195
L 830 195
L 830 195
L 830 195
L 830 194
L 830 194
L 830 194
L 830 194
L 830 194
L 830 194
L 830 194
L 830 194
L 830 194
L 830 194
L 830 194
L 830 194
L 830 194
L 830 194
L 830 194
L 830 194
L 830 194
L 830 194
L 830 194
L 831 194
L 831 194
L 831 193
L 831 193
L 831 193
L 831 193
L 831 193
L 831 193
L 831 193
L 831 193
L 831 193
L 831 193
L 831 193
L 831 193
L 831 193
L 831 193
L 831 193
L 831 193
L 831 193
L 831 193
L 831 193
L 831 193
L 831 193
L 831 193
L 831 192
L 831 192
L 831 192
L 831 192
L 831 192
L 831 192
L 831 192
L 831 192
L 831 192
L 831 192
L 831 192
L 831 192
L 831 192
L 831 192
L 831 192
L 831 192
L 831 192
L 831 192
L 831 192
L 831 192
L 831 192
L 831 191
L 831 191
L 831 191
L 831 191
L 831 191
L 831 191
L 831 191
L 831 191
L 831 191
L 831 191
L 831 191
L 831 191
L 831 191
L 831 191
L 831 191
L 831 191
L 831 191
L 831 191
L 831 191
L 831 191
L 831 191
L 831 191
L 831 190
L 831 190
L 831 190
L 831 190
L 831 190
L 831 190
L 831 190
L 831 190
L 831 190
L 831 190
L 831 190
L 831 190
L 831 190
L 831 190
L 831 190
L 831 190
L 831 190
L 831 190
L 831 190
L 831 190
L 831 190
L 831 189
L 831 189
L 831 189
L 831 189
L 831 189
L 831 189
L 831 189
L 831 189
L 831 189
L 831 189
L 831 189
L 831 189
L 831 189
L 831 189
L 831 189
L 831 189
L 831 189
L 831 189
L 831 189
L 831 189
L 831 189
L 831 189
L 831 188
L 831 188
L 831 188
L 831 188
L 831 188
L 831 188
L 831 188
L 831 188
L 831 188
L 831 188
L 831 188
L 831 188
L 831 188
L 831 188
L 831 188
L 831 188
L 831 188
L 831 188
L 831 188
L 831 188
L 831 188
L 831 187
L 831 187
L 831 187
L 831 187
L 831 187
L 831 187
L 831 187
L 831 187
L 831 187
L 831 187
L 831 187
L 831 187
L 831 187
L 831 187
L 831 187
L 831 187
L 831 187
L 831 187
L 831 187
L 831 187
L 831 187
L 831 187
L 831 186
L 831 186
L 831 186
L 831 186
L 831 186
L 831 186
L 831 186
L 831 186
L 831 186
L 831 186
L 831 186
L 831 186
L 831 186
L 831 186
L 831 186
L 831 186
L 831 186
L 831 186
L 831 186
L 831 186
L 831 186
L 831 185
L 831 185
L 831 185
L 831 185
L 831 185
L 831 185
L 831 185
L 831 185
L 831 185
L 831 185
L 831 185
L 831 185
L 831 185
L 831 185
L 831 185
L 831 185
L 831 185
L 831 185
L 831 185
L 831 185
L 831 185
L 831 185
L 832 184
L 832 184
L 832 184
L 832 184
L 832 184
L 832 184
L 832 184
L 832 184
L 832 184
L 832 184
L 832 184
L 832 184
L 832 184
L 832 184
L 832 184
L 832 184
L 832 184
L 832 184
L 832 184
L 832 184
L 832 184
L 832 183
L 832 183
L 832 183
L 832 183
L 832 183
L 832 183
L 832 183
L 832 183
L 832 183
L 832 183
L 832 183
L 832 183
L 832 183
L 832 183
L 832 183
L 832 183
L 832 183
L 832 183
L 832 183
L 832 183
L 832 183
L 832 183
L 832 182
L 832 182
L 832 182
L 832 182
L 832 182
L 832 182
L 832 182
L 832 182
L 832 182
L 832 182
L 832 182
L 832 182
L 832 182
L 832 182
L 832 182
L 832 182
L 832 182
L 832 182
L 832 182
L 832 182
L 832 182
L 832 181
L 832 181
L 832 181
L 832 181
L 832 181
L 832 181
L 832 181
L 832 181
L 832 181
L 832 181
L 832 181
L 832 181
L 832 181
L 832 181
L 832 181
L 832 181
L 832 181
L 832 181
L 832 181
L 832 181
L 832 181
L 832 181
L 832 180
L 832 180
L 832 180
L 832 180
L 832 180
L 832 180
L 832 180
L 832 180
L 832 180
L 832 180
L 832 180
L 832 180
L 832 180
L 832 180
L 832 180
L 832 180
L 832 180
L 832 180
L 832 180
L 832 180
L 832 180
L 832 179
L 832 179
L 832 179
L 832 179
L 832 179
L 832 179
L 832 179
L 832 179
L 832 179
L 832 179
L 832 179
L 832 179
L 833 179
L 833 179
L 833 179
L 833 179
L 833 179
L 833 179
L 833 179
L 833 179
L 833 179
L 834 178
L 834 178
L 834 178
L 834 178
L 834 178
L 834 178
L 834 178
L 834 178
L 834 178
L 834 178
L 834 178
L 834 178
L 834 178
L 834 178
L 834 178
L 834 178
L 835 178
L 835 178
L 835 178
L 835 178
L 835 178
L 835 178
L 835 177
L 835 177
L 835 177
L 835 177
L 835 177
L 835 177
L 835 177
L 835 177
L 835 177
L 835 177
L 835 177
L 835 177
L 835 177
L 835 177
L 835 177
L 835 177
L 835 177
L 835 177
L 835 177
L 835 177
L 835 177
L 835 176
L 835 176
L 835 176
L 835 176
L 835 176
L 835 176
L 836 176
L 836 176
L 836 176
L 836 176
L 836 176
L 836 176
L 836 176
L 836 176
L 836 176
L 836 176
L 836 176
L 836 176
L 836 176
L 836 176
L 836 176
L 836 176
L 836 175
L 836 175
L 836 175
L 836 175
L 836 175
L 836 175
L 836 175
L 836 175
L 836 175
L 836 175
L 836 175
L 836 175
L 836 175
L 836 175
L 836 175
L 836 175
L 837 175
L 837 175
L 837 175
L 837 175
L 837 175
L 837 174
L 837 174
L 837 174
L 837 174
L 837 174
L 837 174
L 837 174
L 837 174
L 837 174
L 837 174
L 837 174
L 837 174
L 837 174
L 837 174
L 837 174
L 837 174
L 838 174
L 838 174
L 838 174
L 838 174
L 838 174
L 838 174
L 838 173
L 838 173
L 838 173
L 838 173
L 838 173
L 839 173
L 839 173
L 839 173
L 839 173
L 839 173
L 839 173
L 839 173
L 839 173
L 839 173
L 839 173
L 839 173
L 839 173
L 839 173
L 839 173
L 839 173
L 839 173
L 839 172
L 839 172
L 839 172
L 839 172
L 839 172
L 839 172
L 839 172
L 839 172
L 839 172
L 839 172
L 839 172
L 839 172
L 839 172
L 839 172
L 839 172
L 839 172
L 839 172
L 839 172
L 840 172
L 840 172
L 840 172
L 840 172
L 840 171
L 840 171
L 840 171
L 840 171
L 840 171
L 840 171
L 840 171
L 840 171
L 840 171
L 840 171
L 840 171
L 840 171
L 840 171
L 840 171
L 840 171
L 840 171
L 840 171
L 840 171
L 840 171
L 840 171
L 841 171
L 841 170
L 841 170
L 841 170
L 841 170
L 841 170
L 841 170
L 841 170
L 841 170
L 841 170
L 841 170
L 841 170
L 841 170
L 841 170
L 841 170
L 841 170
L 841 170
L 841 170
L 841 170
L 842 170
L 842 170
L 842 170
L 842 170
L 842 169
L 842 169
L 842 169
L 842 169
L 842 169
L 842 169
L 842 169
L 842 169
L 842 169
L 842 169
L 842 169
L 842 169
L 843 169
L 843 169
L 843 169
L 843 169
L 843 169
L 843 169
L 843 169
L 843 169
L 843 169
L 844 168
L 844 168
L 844 168
L 844 168
L 844 168
L 844 168
L 844 168
L 844 168
L 844 168
L 844 168
L 844 168
L 844 168
L 844 168
L 844 168
L 844 168
L 845 168
L 845 168
L 845 168
L 845 168
L 845 168
L 845 168
L 845 168
L 845 167
L 845 167
L 845 167
L 845 167
L 845 167
L 845 167
L 845 167
L 845 167
L 845 167
L 845 167
L 845 167
L 845 167
L 845 167
L 845 167
L 845 167
L 845 167
L 846 167
L 846 167
L 846 167
L 846 167
L 846 167
L 846 166
L 846 166
L 846 166
L 846 166
L 846 166
L 846 166
L 846 166
L 846 166
L 846 166
L 846 166
L 846 166
L 846 166
L 846 166
L 846 166
L 846 166
L 846 166
L 846 166
L 846 166
L 847 166
L 847 166
L 847 166
L 847 166
L 847 165
L 847 165
L 847 165
L 847 165
L 847 165
L 847 165
L 848 165
L 848 165
L 848 165
L 848 165
L 848 165
L 848 165
L 848 165
L 848 165
L 848 165
L 848 165
L 848 165
L 848 165
L 849 165
L 849 165
L 849 165
L 849 164
L 849 164
L 849 164
L 849 164
L 850 164
L 850 164
L 850 164
L 850 164
L 850 164
L 850 164
L 850 164
L 850 164
L 850 164
L 850 164
L 850 164
L 850 164
L 850 164
L 850 164
L 850 164
L 850 164
L 850 164
L 850 163
L 850 163
L 850 163
L 850 163
L 850 163
L 850 163
L 850 163
L 850 163
L 850 163
L 851 163
L 851 163
L 851 163
L 851 163
L 851 163
L 851 163
L 851 163
L 851 163
L 851 163
L 851 163
L 851 163
L 851 163
L 851 163
L 851 162
L 851 162
L 851 162
L 851 162
L 851 162
L 851 162
L 851 162
L 851 162
L 851 162
L 851 162
L 851 162
L 851 162
L 851 162
L 851 162
L 851 162
L 851 162
L 851 162
L 851 162
L 851 162
L 851 162
L 851 162
L 851 161
L 851 161
L 851 161
L 851 161
L 851 161
L 851 161
L 851 161
L 851 161
L 851 161
L 851 161
L 851 161
L 851 161
L 851 161
L 851 161
L 851 161
L 851 161
L 851 161
L 851 161
L 851 161
L 851 161
L 851 161
L 851 161
L 852 160
L 852 160
L 852 160
L 852 160
L 852 160
L 852 160
L 852 160
L 852 160
L 852 160
L 852 160
L 852 160
L 852 160
L 852 160
L 852 160
L 852 160
L 852 160
L 852 160
L 852 160
L 852 160
L 852 160
L 852 160
L 852 159
L 852 159
L 852 159
L 852 159
L 852 159
L 852 159
L 852 159
L 852 159
L 852 159
L 852 159
L 852 159
L 852 159
L 852 159
L 852 159
L 852 159
L 852 159
L 852 159
L 852 159
L 852 159
L 852 159
L 852 159
L 852 159
L 852 158
L 852 158
L 852 158
L 852 158
L 852 158
L 852 158
L 852 158
L 852 158
L 852 158
L 852 158
L 852 158
L 852 158
L 852 158
L 852 158
L 852 158
L 852 158
L 852 158
L 852 158
L 852 158
L 852 158
L 852 158
L 852 157
L 852 157
L 852 157
L 852 157
L 852 157
L 852 157
L 852 157
L 852 157
L 852 157
L 852 157
L 852 157
L 852 157
L 852 157
L 852 157
L 852 157
L 852 157
L 852 157
L 852 157
L 852 157
L 852 157
L 852 157
L 852 157
L 852 156
L 852 156
L 852 156
L 852 156
L 852 156
L 852 156
L 852 156
L 852 156
L 852 156
L 852 156
L 852 156
L 852 156
L 852 156
L 852 156
L 852 156
L 852 156
L 852 156
L 852 156
L 852 156
L 852 156
L 852 156
L 852 155
L 852 155
L 852 155
L 852 155
L 852 155
L 852 155
L 852 155
L 852 155
L 852 155
L 852 155
L 852 155
L 852 155
L 852 155
L 852 155
L 852 155
L 852 155
L 852 155
L 852 155
L 852 155
L 852 155
L 852 155
L 852 155
L 852 154
L 852 154
L 852 154
L 852 154
L 852 154
L 852 154
L 852 154
L 852 154
L 852 154
L 852 154
L 852 154
L 852 154
L 852 154
L 852 154
L 852 154
L 852 154
L 852 154
L 852 154
L 852 154
L 852 154
L 852 154
L 852 153
L 852 153
L 852 153
L 852 153
L 852 153
L 852 153
L 852 153
L 852 153
L 852 153
L 852 153
L 852 153
L 852 153
L 852 153
L 852 153
L 852 153
L 852 153
L 852 153
L 852 153
L 852 153
L 852 153
L 852 153
L 852 153
L 852 152
L 852 152
L 852 152
L 852 152
L 852 152
L 852 152
L 852 152
L 852 152
L 852 152
L 852 152
L 852 152
L 852 152
L 852 152
L 852 152
L 852 152
L 852 152
L 852 152
L 852 152
L 852 152
L 852 152
L 852 152
L 852 151
L 852 151
L 852 151
L 852 151
L 852 151
L 852 151
L 852 151
L 852 151
L 852 151
L 852 151
L 852 151
L 852 151
L 852 151
L 852 151
L 852 151
L 852 151
L 852 151
L 852 151
L 852 151
L 852 151
L 852 151
L 852 151
L 852 150
L 852 150
L 852 150
L 852 150
L 852 150
L 852 150
L 852 150
L 852 150
L 852 150
L 852 150
L 852 150
L 852 150
L 852 150
L 852 150
L 852 150
L 852 150
L 852 150
L 852 150
L 852 150
L 852 150
L 852 150
L 852 149
L 852 149
L 852 149
L 852 149
L 852 149
L 852 149
L 852 149
L 852 149
L 852 149
L 852 149
L 852 149
L 852 149
L 852 149
L 852 149
L 852 149
L 852 149
L 852 149
L 852 149
L 852 149
L 852 149
L 852 149
L 852 149
L 852 148
L 852 148
L 852 148
L 852 148
L 852 148
L 852 148
L 852 148
L 852 148
L 852 148
L 852 148
L 852 148
L 852 148
L 852 148
L 852 148
L 852 148
L 852 148
L 852 148
L 852 148
L 852 148
L 852 148
L 852 148
L 852 147
L 852 147
L 852 147
L 852 147
L 852 147
L 852 147
L 852 147
L 852 147
L 852 147
L 852 147
L 852 147
L 853 147
L 853 147
L 853 147
L 853 147
L 853 147
L 853 147
L 853 147
L 853 147
L 853 147
L 853 147
L 853 147
L 853 146
L 853 146
L 853 146
L 853 146
L 853 146
L 853 146
L 853 146
L 853 146
L 853 146
L 853 146
L 853 146
L 853 146
L 853 146
L 853 146
L 853 146
L 853 146
L 853 146
L 853 146
L 853 146
L 853 146
L 853 146
L 853 145
L 853 145
L 853 145
L 853 145
L 853 145
L 853 145
L 853 145
L 853 145
L 853 145
L 853 145
L 853 145
L 853 145
L 853 145
L 853 145
L 853 145
L 853 145
L 853 145
L 853 145
L 853 145
L 853 145
L 853 145
L 853 144
L 853 144
L 853 144
L 853 144
L 853 144
L 853 144
L 853 144
L 853 144
L 853 144
L 853 144
L 853 144
L 853 144
L 853 144
L 853 144
L 853 144
L 853 144
L 853 144
L 853 144
L 853 144
L 853 144
L 853 144
L 853 144
L 853 143
L 853 143
L 853 143
L 853 143
L 853 143
L 853 143
L 853 143
L 853 143
L 853 143
L 853 143
L 853 143
L 853 143
L 853 143
L 853 143
L 853 143
L 853 143
L 853 143
L 853 143
L 853 143
L 853 143
L 853 143
L 853 142
L 853 142
L 853 142
L 853 142
L 853 142
L 853 142
L 853 142
L 853 142
L 853 142
L 853 142
L 853 142
L 853 142
L 853 142
L 853 142
L 853 142
L 853 142
L 853 142
L 853 142
L 853 142
L 853 142
L 853 142
L 853 142
L 853 141
L 853 141
L 853 141
L 853 141
L 853 141
L 853 141
L 853 141
L 853 141
L 853 141
L 853 141
L 853 141
L 853 141
L 853 141
L 853 141
L 853 141
L 853 141
L 853 141
L 853 141
L 853 141
L 853 141
L 853 141
L 853 140
L 853 140
L 853 140
L 853 140
L 853 140
L 853 140
L 853 140
L 853 140
L 853 140
L 853 140
L 853 140
L 853 140
L 853 140
L 853 140
L 853 140
L 853 140
L 853 140
L 853 140
L 853 140
L 853 140
L 853 140
L 853 140
L 853 139
L 853 139
L 853 139
L 853 139
L 853 139
L 853 139
L 853 139
L 853 139
L 853 139
L 853 139
L 853 139
L 853 139
L 853 139
L 853 139
L 853 139
L 853 139
L 853 139
L 853 139
L 853 139
L 853 139
L 853 139
L 853 138
L 853 138
L 853 138
L 853 138
L 853 138
L 853 138
L 853 138
L 853 138
L 853 138
L 853 138
L 853 138
L 853 138
L 853 138
L 853 138
L 853 138
L 853 138
L 853 138
L 853 138
L 853 138
L 853 138
L 853 138
L 853 138
L 853 137
L 853 137
L 853 137
L 853 137
L 853 137
L 853 137
L 853 137
L 853 137
L 853 137
L 853 137
L 853 137
L 853 137
L 853 137
L 853 137
L 853 137
L 853 137
L 853 137
L 853 137
L 853 137
L 853 137
L 853 137
L 853 136
L 853 136
L 853 136
L 853 136
L 853 136
L 853 136
L 853 136
L 853 136
L 853 136
L 853 136
L 853 136
L 853 136
L 853 136
L 853 136
L 853 136
L 853 136
L 853 136
L 853 136
L 853 136
L 853 136
L 853 136
L 853 136
L 853 135
L 853 135
L 853 135
L 853 135
L 853 135
L 853 135
L 853 135
L 853 135
L 853 135
L 853 135
L 853 135
L 853 135
L 853 135
L 853 135
L 853 135
L 853 135
L 853 135
L 853 135
L 853 135
L 853 135
L 853 135
L 853 134
L 853 134
L 853 134
L 853 134
L 853 134
L 853 134
L 853 134
L 853 134
L 853 134
L 853 134
L 853 134
L 853 134
L 853 134
L 853 134
L 853 134
L 853 134
L 853 134
L 853 134
L 853 134
L 853 134
L 853 134
L 853 134
L 853 133
L 853 133
L 853 133
L 853 133
L 853 133
L 853 133
L 853 133
L 853 133
L 853 133
L 853 133
L 853 133
L 853 133
L 853 133
L 853 133
L 853 133
L 853 133
L 853 133
L 853 133
L 853 133
L 853 133
L 853 133
L 853 132
L 853 132
L 853 132
L 853 132
L 853 132
L 853 132
L 853 132
L 853 132
L 853 132
L 853 132
L 853 132
L 853 132
L 853 132
L 853 132
L 854 132
L 854 132
L 854 132
L 854 132
L 854 132
L 854 132
L 854 132
L 854 132
L 854 131
L 854 131
L 854 131
L 854 131
L 854 131
L 854 131
L 854 131
L 854 131
L 854 131
L 854 131
L 854 131
L 854 131
L 854 131
L 854 131
L 854 131
L 854 131
L 854 131
L 854 131
L 854 131
L 854 131
L 854 131
L 854 130
L 854 130
L 854 130
L 854 130
L 854 130
L 854 130
L 854 130
L 854 130
L 854 130
L 854 130
L 854 130
L 854 130
L 854 130
L 854 130
L 854 130
L 854 130
L 854 130
L 854 130
L 854 130
L 854 130
L 854 130
L 854 130
L 854 129
L 854 129
L 854 129
L 854 129
L 854 129
L 854 129
L 854 129
L 854 129
L 854 129
L 854 129
L 854 129
L 854 129
L 854 129
L 854 129
L 854 129
L 854 129
L 854 129
L 854 129
L 854 129
L 854 129
L 854 129
L 854 128
L 854 128
L 854 128
L 854 128
L 854 128
L 854 128
L 854 128
L 854 128
L 854 128
L 854 128
L 854 128
L 854 128
L 854 128
L 854 128
L 854 128
L 854 128
L 854 128
L 854 128
L 854 128
L 854 128
L 854 128
L 854 127
L 854 127
L 854 127
L 854 127
L 854 127
L 854 127
L 854 127
L 854 127
L 854 127
L 854 127
L 854 127
L 854 127
L 854 127
L 854 127
L 854 127
L 854 127
L 854 127
L 854 127
L 854 127
L 854 127
L 854 127
L 854 127
L 854 126
L 854 126
L 854 126
L 854 126
L 854 126
L 854 126
L 854 126
L 854 126
L 854 126
L 854 126
L 854 126
L 854 126
L 854 126
L 854 126
L 854 126
L 854 126
L 854 126
L 854 126
L 854 126
L 854 126
L 854 126
L 854 125
L 854 125
L 854 125
L 854 125
L 854 125
L 854 125
L 854 125
L 854 125
L 854 125
L 854 125
L 854 125
L 854 125
L 854 125
L 854 125
L 854 125
L 854 125
L 854 125
L 854 125
L 854 125
L 854 125
L 854 125
L 854 125
L 854 124
L 854 124
L 854 124
L 854 124
L 854 124
L 854 124
L 854 124
L 854 124
L 854 124
L 854 124
L 854 124
L 854 124
L 854 124
L 854 124
L 854 124
L 854 124
L 854 124
L 854 124
L 854 124
L 854 124
L 854 124
L 854 123
L 854 123
L 854 123
L 854 123
L 854 123
L 854 123
L 854 123
L 854 123
L 854 123
L 854 123
L 854 123
L 854 123
L 854 123
L 854 123
L 854 123
L 854 123
L 854 123
L 854 123
L 854 123
L 854 123
L 854 123
L 854 123
L 854 122
L 854 122
L 854 122
L 854 122
L 854 122
L 854 122
L 854 122
L 854 122
L 854 122
L 854 122
L 854 122
L 854 122
L 854 122
L 854 122
L 854 122
L 854 122
L 854 122
L 854 122
L 854 122
L 854 122
L 854 122
L 854 121
L 854 121
L 854 121
L 854 121
L 854 121
L 854 121
L 854 121
L 854 121
L 854 121
L 854 121
L 854 121
L 854 121
L 854 121
L 854 121
L 854 121
L 854 121
L 854 121
L 854 121
L 854 121
L 854 121
L 854 121
L 854 121
L 854 120
L 854 120
L 854 120
L 854 120
L 854 120
L 854 120
L 854 120
L 854 120
L 854 120
L 854 120
L 854 120
L 854 120
L 854 120
L 854 120
L 854 120
L 854 120
L 854 120
L 854 120
L 854 120
L 854 120
L 854 120
L 854 119
L 854 119
L 854 119
L 854 119
L 854 119
L 854 119
L 854 119
L 854 119
L 854 119
L 854 119
L 854 119
L 854 119
L 854 119
L 854 119
L 854 119
L 854 119
L 854 119
L 854 119
L 854 119
L 854 119
L 854 119
L 854 119
L 854 118
L 854 118
L 854 118
L 854 118
L 854 118
L 854 118
L 854 118
L 855 118
L 855 118
L 855 118
L 855 118
L 855 118
L 855 118
L 855 118
L 855 118
L 855 118
L 855 118
L 855 118
L 855 118
L 855 118
L 855 118
L 855 117
L 855 117
L 855 117
L 855 117
L 855 117
L 855 117
L 855 117
L 855 117
L 855 117
L 855 117
L 855 117
L 855 117
L 855 117
L 855 117
L 855 117
L 855 117
L 855 117
L 855 117
L 855 117
L 855 117
L 855 117
L 855 117
L 855 116
L 855 116
L 855 116
L 855 116
L 855 116
L 855 116
L 855 116
L 855 116
L 855 116
L 855 116
L 855 116
L 855 116
L 855 116
L 855 116
L 855 116
L 855 116
L 855 116
L 855 116
L 855 116
L 855 116
L 855 116
L 855 115
L 855 115
L 855 115
L 855 115
L 855 115
L 855 115
L 855 115
L 855 115
L 855 115
L 855 115
L 855 115
L 855 115
L 855 115
L 855 115
L 855 115
L 855 115
L 855 115
L 855 115
L 855 115
L 855 115
L 855 115
L 855 115
L 855 114
L 855 114
L 855 114
L 855 114
L 855 114
L 855 114
L 855 114
L 855 114
L 855 114
L 855 114
L 855 114
L 855 114
L 855 114
L 855 114
L 855 114
L 855 114
L 855 114
L 855 114
L 855 114
L 855 114
L 855 114
L 855 113
L 855 113
L 855 113
L 855 113
L 855 113
L 855 113
L 855 113
L 855 113
L 855 113
L 855 113
L 855 113
L 855 113
L 855 113
L 855 113
L 855 113
L 855 113
L 855 113
L 855 113
L 855 113
L 855 113
L 855 113
L 855 113
L 855 112
L 855 112
L 855 112
L 855 112
L 855 112
L 855 112
L 855 112
L 855 112
L 855 112
L 855 112
L 855 112
L 855 112
L 855 112
L 855 112
L 855 112
L 855 112
L 855 112
L 855 112
L 855 112
L 855 112
L 855 112
L 855 111
L 855 111
L 855 111
L 855 111
L 855 111
L 855 111
L 855 111
L 855 111
L 855 111
L 855 111
L 855 111
L 855 111
L 855 111
L 855 111
L 855 111
L 855 111
L 855 111
L 855 111
L 855 111
L 855 111
L 855 111
L 855 110
L 855 110
L 855 110
L 855 110
L 855 110
L 855 110
L 855 110
L 855 110
L 855 110
L 855 110
L 855 110
L 855 110
L 855 110
L 855 110
L 855 110
L 855 110
L 855 110
L 855 110
L 855 110
L 855 110
L 855 110
L 855 110
L 855 109
L 855 109
L 855 109
L 855 109
L 855 109
L 855 109
L 855 109
L 855 109
L 855 109
L 855 109
L 855 109
L 855 109
L 855 109
L 856 109
L 856 109
L 856 109
L 856 109
L 856 109
L 856 109
L 856 109
L 856 109
L 856 108
L 856 108
L 856 108
L 856 108
L 856 108
L 856 108
L 856 108
L 856 108
L 856 108
L 856 108
L 856 108
L 856 108
L 856 108
L 856 108
L 856 108
L 856 108
L 856 108
L 856 108
L 856 108
L 856 108
L 856 108
L 856 108
L 856 107
L 856 107
L 856 107
L 856 107
L 856 107
L 856 107
L 856 107
L 856 107
L 856 107
L 856 107
L 856 107
L 856 107
L 856 107
L 856 107
L 856 107
L 856 107
L 856 107
L 856 107
L 856 107
L 856 107
L 856 107
L 856 106
L 856 106
L 856 106
L 856 106
L 857 106
L 857 106
L 857 106
L 857 106
L 857 106
L 857 106
L 857 106
L 857 106
L 857 106
L 857 106
L 857 106
L 857 106
L 857 106
L 857 106
L 857 106
L 857 106
L 857 106
L 857 106
L 857 105
L 857 105
L 857 105
L 857 105
L 857 105
L 857 105
L 857 105
L 857 105
L 857 105
L 857 105
L 857 105
L 857 105
L 857 105
L 857 105
L 857 105
L 857 105
L 857 105
L 857 105
L 857 105
L 857 105
L 857 105
L 857 104
L 857 104
L 857 104
L 857 104
L 857 104
L 857 104
L 857 104
L 857 104
L 857 104
L 857 104
L 857 104
L 857 104
L 857 104
L 857 104
L 857 104
L 857 104
L 857 104
L 857 104
L 857 104
L 857 104
L 857 104
L 857 104
L 857 103
L 857 103
L 857 103
L 857 103
L 857 103
L 857 103
L 857 103
L 857 103
L 857 103
L 857 103
L 857 103
L 857 103
L 857 103
L 857 103
L 857 103
L 857 103
L 857 103
L 857 103
L 857 103
L 857 103
L 857 103
L 857 102
L 857 102
L 857 102
L 857 102
L 858 102
L 858 102
L 858 102
L 858 102
L 858 102
L 858 102
L 858 102
L 858 102
L 858 102
L 858 102
L 858 102
L 858 102
L 858 102
L 858 102
L 858 102
L 858 102
L 858 102
L 858 102
L 858 101
L 858 101
L 858 101
L 858 101
L 858 101
L 858 101
L 858 101
L 858 101
L 858 101
L 858 101
L 858 101
L 858 101
L 858 101
L 858 101
L 858 101
L 858 101
L 858 101
L 858 101
L 858 101
L 858 101
L 858 101
L 858 100
L 858 100
L 858 100
L 858 100
L 858 100
L 858 100
L 858 100
L 858 100
L 858 100
L 858 100
L 858 100
L 858 100
L 858 100
L 859 100
L 859 100
L 859 100
L 859 100
L 859 100
L 859 100
L 859 100
L 859 100
L 859 100
L 859 99
L 859 99
L 859 99
L 859 99
L 859 99
L 859 99
L 859 99
L 859 99
L 859 99
L 859 99
L 859 99
L 859 99
L 859 99
L 859 99
L 859 99
L 859 99
L 859 99
L 859 99
L 859 99
L 859 99
L 859 99
L 859 98
L 859 98
L 859 98
L 859 98
L 859 98
L 859 98
L 859 98
L 860 98
L 860 98
L 860 98
L 860 98
L 860 98
L 860 98
L 860 98
L 860 98
L 860 98
L 860 98
L 860 98
L 860 98
L 860 98
L 860 98
L 860 98
L 860 97
L 860 97
L 860 97
L 860 97
L 860 97
L 860 97
L 860 97
L 860 97
L 860 97
L 860 97
L 860 97
L 860 97
L 860 97
L 860 97
L 860 97
L 860 97
L 861 97
L 861 97
L 861 97
L 861 97
L 861 97
L 861 96
L 861 96
L 861 96
L 861 96
L 861 96
L 861 96
L 861 96
L 861 96
L 861 96
L 861 96
L 862 96
L 862 96
L 862 96
L 862 96
L 862 96
L 862 96
L 862 96
L 862 96
L 862 96
L 862 96
L 862 96
L 862 96
L 862 95
L 862 95
L 862 95
L 862 95
L 862 95
L 862 95
L 862 95
L 862 95
L 862 95
L 862 95
L 862 95
L 862 95
L 862 95
L 862 95
L 862 95
L 862 95
L 862 95
L 862 95
L 862 95
L 863 95
L 863 95
L 863 94
L 863 94
L 863 94
L 863 94
L 863 94
L 863 94
L 863 94
L 863 94
L 863 94
L 863 94
L 863 94
L 863 94
L 863 94
L 863 94
L 863 94
L 863 94
L 863 94
L 863 94
L 863 94
L 863 94
L 863 94
L 863 93
L 863 93
L 864 93
L 864 93
L 864 93
L 864 93
L 864 93
L 864 93
L 864 93
L 864 93
L 864 93
L 864 93
L 864 93
L 864 93
L 864 93
L 864 93
L 864 93
L 864 93
L 864 93
L 865 93
L 865 93
L 865 93
L 865 92
L 865 92
L 865 92
L 865 92
L 865 92
L 865 92
L 865 92
L 865 92
L 865 92
L 865 92
L 865 92
L 865 92
L 865 92
L 865 92
L 865 92
L 865 92
L 865 92
L 865 92
L 865 92
L 865 92
L 865 92
L 865 91
L 865 91
L 865 91
L 865 91
L 865 91
L 865 91
L 865 91
L 865 91
L 865 91
L 865 91
L 866 91
L 866 91
L 866 91
L 866 91
L 866 91
L 866 91
L 866 91
L 866 91
L 866 91
L 866 91
L 866 91
L 866 91
L 866 90
L 866 90
L 866 90
L 866 90
L 866 90
L 867 90
L 867 90
L 867 90
L 867 90
L 867 90
L 867 90
L 867 90
L 867 90
L 867 90
L 867 90
L 867 90
L 867 90
L 867 90
L 868 90
L 868 90
L 868 90
L 868 89
L 868 89
L 868 89
L 868 89
L 868 89
L 868 89
L 868 89
L 869 89
L 869 89
L 869 89
L 869 89
L 869 89
L 869 89
L 869 89
L 869 89
L 869 89
L 869 89
L 869 89
L 869 89
L 869 89
L 869 89
L 869 89
L 869 88
L 869 88
L 869 88
L 869 88
L 869 88
L 869 88
L 869 88
L 869 88
L 869 88
L 869 88
L 869 88
L 869 88
L 869 88
L 869 88
L 869 88
L 870 88
L 870 88
L 870 88
L 870 88
L 870 88
L 870 88
L 870 87
L 870 87
L 870 87
L 870 87
L 870 87
L 870 87
L 870 87
L 870 87
L 870 87
L 870 87
L 870 87
L 870 87
L 870 87
L 870 87
L 870 87
L 870 87
L 870 87
L 870 87
L 870 87
L 870 87
L 870 87
L 870 87
L 870 86
L 870 86
L 870 86
L 870 86
L 870 86
L 870 86
L 870 86
L 870 86
L 870 86
L 870 86
L 870 86
L 870 86
L 870 86
L 870 86
L 870 86
L 870 86
L 870 86
L 870 86
L 870 86
L 870 86
L 870 86
L 870 85
L 871 85
L 871 85
L 871 85
L 871 85
L 871 85
L 871 85
L 871 85
L 871 85
L 871 85
L 871 85
L 871 85
L 871 85
L 871 85
L 871 85
L 871 85
L 871 85
L 871 85
L 871 85
L 871 85
L 871 85
L 871 85
L 871 84
L 871 84
L 871 84
L 871 84
L 871 84
L 871 84
L 871 84
L 871 84
L 871 84
L 871 84
L 871 84
L 871 84
L 871 84
L 871 84
L 871 84
L 871 84
L 871 84
L 871 84
L 871 84
L 871 84
L 871 84
L 871 83
L 871 83
L 871 83
L 871 83
L 871 83
L 871 83
L 871 83
L 871 83
L 871 83
L 871 83
L 872 83
L 872 83
L 872 83
L 872 83
L 872 83
L 872 83
L 872 83
L 872 83
L 872 83
L 872 83
L 872 83
L 872 83
L 872 82
L 872 82
L 872 82
L 872 82
L 872 82
L 872 82
L 872 82
L 872 82
L 872 82
L 872 82
L 872 82
L 872 82
L 872 82
L 872 82
L 872 82
L 873 82
L 873 82
L 873 82
L 873 82
L 873 82
L 873 82
L 873 81
L 873 81
L 873 81
L 873 81
L 873 81
L 873 81
L 873 81
L 873 81
L 874 81
L 874 81
L 874 81
L 874 81
L 874 81
L 874 81
L 874 81
L 874 81
L 874 81
L 874 81
L 874 81
L 874 81
L 874 81
L 874 81
L 874 80
L 874 80
L 874 80
L 874 80
L 874 80
L 874 80
L 874 80
L 874 80
L 874 80
L 874 80
L 874 80
L 874 80
L 874 80
L 874 80
L 874 80
L 874 80
L 874 80
L 874 80
L 874 80
L 874 80
L 874 80
L 874 79
L 874 79
L 874 79
L 874 79
L 875 79
L 875 79
L 875 79
L 875 79
L 875 79
L 875 79
L 875 79
L 875 79
L 875 79
L 875 79
L 875 79
L 875 79
L 875 79
L 875 79
L 875 79
L 875 79
L 875 79
L 875 79
L 875 78
L 875 78
L 875 78
L 875 78
L 875 78
L 875 78
L 875 78
L 875 78
L 875 78
L 876 78
L 876 78
L 876 78
L 876 78
L 876 78
L 876 78
L 876 78
L 876 78
L 876 78
L 876 78
L 876 78
L 876 78
L 876 77
L 876 77
L 876 77
L 876 77
L 876 77
L 876 77
L 876 77
L 876 77
L 876 77
L 876 77
L 876 77
L 876 77
L 876 77
L 877 77
L 877 77
L 877 77
L 877 77
L 877 77
L 877 77
L 877 77
L 877 77
L 877 76
L 877 76
L 877 76
L 877 76
L 877 76
L 877 76
L 877 76
L 877 76
L 877 76
L 877 76
L 878 76
L 878 76
L 878 76
L 879 76
L 879 76
L 879 76
L 879 76
L 879 76
L 879 76
L 879 76
L 879 76
L 880 76
L 880 75
L 880 75
L 880 75
L 880 75
L 880 75
L 880 75
L 880 75
L 880 75
L 880 75
L 880 75
L 880 75
L 881 75
L 881 75
L 881 75
L 881 75
L 881 75
L 881 75
L 881 75
L 881 75
L 881 75
L 881 75
L 881 74
L 881 74
L 881 74
L 881 74
L 882 74
L 882 74
L 882 74
L 882 74
L 882 74
L 882 74
L 882 74
L 882 74
L 882 74
L 882 74
L 882 74
L 882 74
L 882 74
L 882 74
L 883 74
L 883 74
L 883 74
L 883 74
L 883 73
L 883 73
L 884 73
L 884 73
L 884 73
L 884 73
L 884 73
L 884 73
L 884 73
L 884 73
L 884 73
L 885 73
L 885 73
L 885 73
L 885 73
L 885 73
L 885 73
L 885 73
L 885 73
L 885 73
L 886 73
L 886 72
L 886 72
L 886 72
L 886 72
L 886 72
L 886 72
L 886 72
L 886 72
L 886 72
L 886 72
L 886 72
L 887 72
L 887 72
L 887 72
L 887 72
L 887 72
L 887 72
L 887 72
L 887 72
L 887 72
L 887 72
L 888 72
L 888 71
L 888 71
L 888 71
L 888 71
L 888 71
L 888 71
L 888 71
L 888 71
L 888 71
L 888 71
L 889 71
L 889 71
L 889 71
L 889 71
L 889 71
L 889 71
L 889 71
L 889 71
L 889 71
L 889 71
L 889 71
L 889 70
L 889 70
L 889 70
L 889 70
L 889 70
L 889 70
L 890 70
L 890 70
L 890 70
L 890 70
L 890 70
L 890 70
L 891 70
L 891 70
L 891 70
L 891 70
L 891 70
L 891 70
L 891 70
L 891 70
L 891 70
L 891 70
L 892 69
L 892 69
L 892 69
L 892 69
L 892 69
L 892 69
L 892 69
L 892 69
L 892 69
L 892 69
L 892 69
L 892 69
L 892 69
L 892 69
L 893 69
L 893 69
L 893 69
L 893 69
L 893 69
L 893 69
L 893 69
L 893 68
L 893 68
L 893 68
L 893 68
L 893 68
L 893 68
L 893 68
L 894 68
L 894 68
L 894 68
L 894 68
L 894 68
L 894 68
L 894 68
L 894 68
L 895 68
L 895 68
L 895 68
L 895 68
L 895 68
L 895 68
L 895 68
L 896 67
L 896 67
L 896 67
L 896 67
L 896 67
L 896 67
L 897 67
L 897 67
L 897 67
L 897 67
L 897 67
L 897 67
L 897 67
L 897 67
L 897 67
L 897 67
L 897 67
L 897 67
L 897 67
L 897 67
L 897 67
L 897 66
L 898 66
L 898 66
L 898 66
L 898 66
L 898 66
L 898 66
L 898 66
L 898 66
L 898 66
L 898 66
L 898 66
L 898 66
L 898 66
L 898 66
L 898 66
L 898 66
L 898 66
L 898 66
L 898 66
L 898 66
L 898 66
L 898 65
L 898 65
L 898 65
L 898 65
L 898 65
L 898 65
L 898 65
L 898 65
L 898 65
L 898 65
L 898 65
L 898 65
L 898 65
L 899 65
L 899 65
L 899 65
L 899 65
L 899 65
L 899 65
L 899 65
L 899 65
L 899 64
L 899 64
L 899 64
L 899 64
L 899 64
L 899 64
L 899 64
L 899 64
L 899 64
L 900 64
L 900 64
L 900 64
L 900 64
L 900 64
L 900 64
L 900 64
L 900 64
L 900 64
L 900 64
L 900 64
L 900 64
L 900 64
L 900 63
L 900 63
L 900 63
L 900 63
L 900 63
L 900 63
L 900 63
L 900 63
L 900 63
L 900 63
L 900 63
L 900 63
L 900 63
L 900 63
L 900 63
L 900 63
L 900 63
L 901 63
L 901 63
L 901 63
L 901 63
L 901 62
L 901 62
L 901 62
L 901 62
L 901 62
L 901 62
L 901 62
L 901 62
L 902 62
L 902 62
L 902 62
L 902 62
L 902 62
L 902 62
L 902 62
L 902 62
L 902 62
L 902 62
L 902 62
L 902 62
L 902 62
L 903 62
L 903 61
L 903 61
L 903 61
L 903 61
L 903 61
L 903 61
L 903 61
L 903 61
L 903 61
L 904 61
L 904 61
L 904 61
L 904 61
L 904 61
L 904 61
L 904 61
L 904 61
L 904 61
L 904 61
L 904 61
L 904 61
L 904 60
L 904 60
L 905 60
L 905 60
L 905 60
L 905 60
L 905 60
L 905 60
L 905 60
L 905 60
L 905 60
L 905 60
L 905 60
L 905 60
L 905 60
L 905 60
L 905 60
L 906 60
L 906 60
L 906 60
L 906 60
L 906 59
L 906 59
L 906 59
L 906 59
L 906 59
L 906 59
L 906 59
L 906 59
L 906 59
L 906 59
L 907 59
L 907 59
L 907 59
L 907 59
L 907 59
L 907 59
L 907 59
L 907 59
L 907 59
L 907 59
L 908 59
L 908 59
L 908 58
L 908 58
L 908 58
L 908 58
L 908 58
L 908 58
L 909 58
L 909 58
L 909 58
L 909 58
L 909 58
L 909 58
L 909 58
L 909 58
L 910 58
L 910 58
L 910 58
L 910 58
L 910 58
L 910 58
L 910 58
L 910 57
L 910 57
L 910 57
L 910 57
L 910 57
L 910 57
L 911 57
L 911 57
L 911 57
L 911 57
L 911 57
L 911 57
L 911 57
L 911 57
L 911 57
L 911 57
L 911 57
L 911 57
L 911 57
L 912 57
L 912 57
L 912 57
L 912 56
L 912 56
L 912 56
L 912 56
L 912 56
L 912 56
L 912 56
L 912 56
L 912 56
L 912 56
L 913 56
L 913 56
L 913 56
L 913 56
L 913 56
L 913 56
L 913 56
L 914 56
L 914 56
L 914 56
L 914 56
L 914 55
L 914 55
L 914 55
L 914 55
L 914 55
L 914 55
L 914 55
L 915 55
L 915 55
L 915 55
L 915 55
L 915 55
L 915 55
L 915 55
L 915 55
L 915 55
L 915 55
L 915 55
L 915 55
L 915 55
L 915 55
L 915 55
L 915 54
L 915 54
L 915 54
L 915 54
L 916 54
L 916 54
L 916 54
L 916 54
L 916 54
L 916 54
L 916 54
L 916 54
L 916 54
L 916 54
L 916 54
L 916 54
L 917 54
L 917 54
L 917 54
L 917 54
L 917 54
L 917 53
L 917 53
L 917 53
L 917 53
L 917 53
L 917 53
L 917 53
L 918 53
L 918 53
L 918 53
L 918 53
L 918 53
L 918 53
L 918 53
L 918 53
L 919 53
L 919 53
L 919 53
L 919 53
L 919 53
L 920 53
L 920 53
L 920 52
L 920 52
L 920 52
L 920 52
L 920 52
L 920 52
L 920 52
L 920 52
L 920 52
L 920 52
L 921 52
L 921 52
L 921 52
L 921 52
L 921 52
L 921 52
L 921 52
L 921 52
L 921 52
L 921 52
L 921 52
L 921 51
L 922 51
L 922 51
L 922 51
L 922 51
L 922 51
L 922 51
L 922 51
L 922 51
L 922 51
L 922 51
L 922 51
L 922 51
L 922 51
L 922 51
L 922 51
L 923 51
L 923 51
L 923 51
L 923 51
L 923 51
L 923 51
L 923 50
L 923 50
L 923 50
L 923 50
L 923 50
L 923 50
L 924 50
L 924 50
L 924 50
L 924 50
L 924 50
L 924 50
L 925 50
L 925 50
L 925 50
L 925 50
L 925 50
L 925 50
L 926 50
L 926 50
L 926 50
L 926 49
L 926 49
L 926 49
L 926 49
L 926 49
L 926 49
L 926 49
L 926 49
L 926 49
L 926 49
L 926 49
L 926 49
L 927 49
L 927 49
L 927 49
L 927 49
L 927 49
L 927 49
L 927 49
L 927 49
L 927 49
L 927 49
L 927 48
L 928 48
L 928 48
L 928 48
L 928 48
L 928 48
L 928 48
L 928 48
L 928 48
L 928 48
L 928 48
L 928 48
L 928 48
L 928 48
L 928 48
L 928 48
L 928 48
L 928 48
L 928 48
L 928 48
L 928 48
L 928 47
L 928 47
L 928 47
L 928 47
L 928 47
L 928 47
L 928 47
L 928 47
L 928 47
L 928 47
L 928 47
L 928 47
L 928 47
L 928 47
L 928 47
L 928 47
L 928 47
L 928 47
L 928 47
L 928 47
L 928 47
L 928 47
L 928 46
L 928 46
L 928 46
L 928 46
L 928 46
L 929 46
L 929 46
L 929 46
L 929 46
L 929 46
L 929 46
L 929 46
L 929 46
L 929 46
L 929 46
L 929 46
L 929 46
L 929 46
L 929 46
L 929 46
L 929 46
L 929 45
L 930 45
L 930 45
L 930 45
L 930 45
L 930 45
L 930 45
L 930 45
L 930 45
L 930 45
L 930 45
L 930 45
L 930 45
L 930 45
L 930 45
L 930 45
L 930 45
L 930 45
L 930 45
L 930 45
L 930 45
L 930 45
L 930 44
L 930 44
L 930 44
L 930 44
L 930 44
L 930 44
L 930 44
L 930 44
L 930 44
L 930 44
L 930 44
L 930 44
L 930 44
L 930 44
L 930 44
L 930 44
L 930 44
L 930 44
L 930 44
L 931 44
L 931 44
L 931 43
L 931 43
L 931 43
L 931 43
L 931 43
L 931 43
L 931 43
L 931 43
L 931 43
L 931 43
L 931 43
L 931 43
L 931 43
L 931 43
L 932 43
L 932 43
L 932 43
L 932 43
L 932 43
L 932 43
L 932 43
L 932 42
L 932 42
L 932 42
L 932 42
L 932 42
L 932 42
L 932 42
L 932 42
L 932 42
L 932 42
L 932 42
L 932 42
L 932 42
L 932 42
L 932 42
L 932 42
L 932 42
L 932 42
L 932 42
L 933 42
L 933 42
L 933 42
L 933 41
L 933 41
L 933 41
L 933 41
L 933 41
L 933 41
L 933 41
L 933 41
L 933 41
L 933 41
L 933 41
L 933 41
L 933 41
L 933 41
L 933 41
L 933 41
L 933 41
L 933 41
L 933 41
L 933 41
L 933 41
L 933 40
L 933 40
L 933 40
L 933 40
L 933 40
L 933 40
L 933 40
L 933 40
L 933 40
L 933 40
L 933 40
L 933 40
L 933 40
L 933 40
L 933 40
L 933 40
L 933 40
L 933 40
L 933 40
L 933 40
L 933 40
L 933 40
L 933 39
L 934 39
L 934 39
L 934 39
L 934 39
L 934 39
L 934 39
L 934 39
L 934 39
L 934 39
L 934 39
L 934 39
L 934 39
L 934 39
L 934 39
L 934 39
L 934 39
L 934 39
L 934 39
L 934 39
L 934 39
L 934 38
L 934 38
L 934 38
L 934 38
L 934 38
L 934 38
L 934 38
L 934 38
L 934 38
L 934 38
L 934 38
L 934 38
L 934 38
L 934 38
L 934 38
L 934 38
L 934 38
L 934 38
L 934 38
L 934 38
L 934 38
L 934 38
L 934 37
L 934 37
L 934 37
L 934 37
L 934 37
L 934 37
L 934 37
L 934 37
L 934 37
L 934 37
L 934 37
L 934 37
L 934 37
L 934 37
L 934 37
L 934 37
L 934 37
L 935 37
L 935 37
L 935 37
L 935 37
L 935 36
L 935 36
L 935 36
L 935 36
L 935 36
L 935 36
L 935 36
L 935 36
L 935 36
L 935 36
L 935 36
L 935 36
L 935 36
L 935 36
L 935 36
L 935 36
L 935 36
L 935 36
L 935 36
L 935 36
L 935 36
L 935 36
L 935 35
L 935 35
L 935 35
L 935 35
L 935 35
L 935 35
L 935 35
L 935 35
L 935 35
L 935 35
L 935 35
L 935 35
L 935 35
L 935 35
L 935 35
L 935 35
L 935 35
L 935 35
L 935 35
L 935 35
L 935 35
L 935 34
L 935 34
L 935 34
L 935 34
L 935 34
L 935 34
L 936 34
L 936 34
L 936 34
L 936 34
L 936 34
L 936 34
L 936 34
L 936 34
L 936 34
L 936 34
L 936 34
L 936 34
L 936 34
L 936 34
L 936 34
L 936 34
L 936 33
L 936 33
L 936 33
L 936 33
L 936 33
L 936 33
L 936 33
L 936 33
L 936 33
L 936 33
L 936 33
L 936 33
L 936 33
L 936 33
L 936 33
L 936 33
L 936 33
L 936 33
L 936 33
L 936 33
L 936 33
L 936 32
L 936 32
L 936 32
L 936 32
L 936 32
L 936 32
L 936 32
L 936 32
L 936 32
L 937 32
L 937 32
L 937 32
L 937 32
L 937 32
L 937 32
L 937 32
L 937 32
L 937 32
L 937 32
L 937 32
L 937 32
L 937 32
L 937 31
L 937 31
L 937 31
L 937 31
L 937 31
L 937 31
L 937 31
L 938 31
L 938 31
L 938 31
L 938 31
L 938 31
L 938 31
L 938 31
L 938 31
L 938 31
L 938 31
L 938 31
L 938 31
L 938 31
L 938 31
L 938 30
L 938 30
L 938 30
L 938 30
L 938 30
L 938 30
L 938 30
L 938 30
L 938 30
L 938 30
L 938 30
L 938 30
L 938 30
L 938 30
L 938 30
L 938 30
L 938 30
L 938 30
L 938 30
L 939 30
L 939 30
L 939 30
L 939 29
L 939 29
L 939 29
L 939 29
L 939 29
L 939 29
L 939 29
L 939 29
L 939 29
L 939 29
L 939 29
L 939 29
L 939 29
L 939 29
L 939 29
L 939 29
L 939 29
L 939 29
L 939 29
L 940 29
L 940 29
L 940 28
L 940 28
L 940 28
L 940 28
L 940 28
L 940 28
L 940 28
L 940 28
L 940 28
L 940 28
L 940 28
L 940 28
L 940 28
L 940 28
L 941 28
L 941 28
L 941 28
L 941 28
L 941 28
L 941 28
L 941 28
L 941 28
L 941 27
L 941 27
L 941 27
L 941 27
L 941 27
L 942 27
L 942 27
L 942 27
L 942 27
L 942 27
L 942 27
L 942 27
L 942 27
L 942 27
L 942 27
L 942 27
L 942 27
L 942 27
L 942 27
L 942 27
L 943 27
L 943 26
L 943 26
L 943 26
L 943 26
L 943 26
L 943 26
L 944 26
L 944 26
L 944 26
L 944 26
L 944 26
L 944 26
L 944 26
L 944 26
L 944 26
L 944 26
L 944 26
L 944 26
L 944 26
L 944 26
L 944 26
L 944 25
L 944 25
L 944 25
L 944 25
L 944 25
L 944 25
L 944 25
L 944 25
L 944 25
L 944 25
L 944 25
L 944 25
L 944 25
L 944 25
L 945 25
L 945 25
L 945 25
L 945 25
L 945 25
L 945 25
L 945 25
L 945 25
L 945 24
L 945 24
L 945 24
L 945 24
L 945 24
L 945 24
L 945 24
L 945 24
L 945 24
L 945 24
L 946 24
L 946 24
L 946 24
L 946 24
L 946 24
L 946 24
L 946 24
L 946 24
L 946 24
L 946 24
L 946 24
L 946 23
L 946 23
L 946 23
L 946 23
L 946 23
L 946 23
L 946 23
L 946 23
L 946 23
L 946 23
L 946 23
L 946 23
L 946 23
L 946 23
L 946 23
L 946 23
L 946 23
L 946 23
L 946 23
L 946 23
L 946 23
L 946 23
L 946 22
L 947 22
L 947 22
L 947 22
L 947 22
L 947 22
L 947 22
L 947 22
L 947 22
L 947 22
L 947 22
L 947 22
L 947 22
L 947 22
L 947 22
L 947 22
L 947 22
L 948 22
L 948 22
L 948 22
L 948 22
L 948 21
L 948 21
L 948 21
L 948 21
L 948 21
L 948 21
L 948 21
L 948 21
L 948 21
L 948 21
L 948 21
L 948 21
L 948 21
L 948 21
L 948 21
L 948 21
L 948 21
L 948 21
L 948 21
L 948 21
L 948 21
L 948 21
L 948 20
L 948 20
L 948 20
L 948 20
L 948 20
L 948 20
L 948 20
L 948 20
L 948 20
L 949 20
L 949 20
L 949 20
L 949 20
L 949 20
L 949 20
L 950 20
L 950 20
L 950 20
L 950 20
L 950 20
L 950 20
L 950 19
L 950 19
L 950 19
L 950 19
L 950 19
L 951 19
L 951 19
L 951 19
L 951 19
L 951 19
L 951 19
L 951 19
L 951 19
L 951 19
L 951 19
L 951 19
L 952 19
L 952 19
L 952 19
L 952 19
L 952 19
L 952 19
L 952 18
L 952 18
L 952 18
L 952 18
L 952 18
L 952 18
L 952 18
L 952 18
L 952 18
L 952 18
L 952 18
L 952 18
L 952 18
L 952 18
L 952 18
L 952 18
L 952 18
L 952 18
L 952 18
L 952 18
L 952 18
L 952 17
L 952 17
L 952 17
L 952 17
L 952 17
L 953 17
L 953 17
L 953 17
L 953 17
L 953 17
L 953 17
L 953 17
L 953 17
L 953 17
L 953 17
L 953 17
L 953 17
L 953 17
L 953 17
L 953 17
L 953 17
L 953 17
L 953 16
L 953 16
L 953 16
L 953 16
L 953 16
L 953 16
L 953 16
L 953 16
L 954 16
L 954 16
L 954 16
L 954 16
L 954 16
L 954 16
L 954 16
L 954 16
L 954 16
L 954 16
L 955 16
L 955 16
L 955 16
L 955 15
L 955 15
L 955 15
L 955 15
L 955 15
L 955 15
L 955 15
L 955 15
L 955 15
L 956 15
L 956 15
L 956 15
L 956 15
L 956 15
L 956 15
L 956 15
L 956 15
L 956 15
L 956 15
L 956 15
L 956 15
L 956 15
L 956 14
L 956 14
L 956 14
L 956 14
L 956 14
L 956 14
L 957 14
L 957 14
L 957 14
L 957 14
L 957 14
L 957 14
L 957 14
L 957 14
L 957 14
L 957 14
L 957 14
L 957 14
L 957 14
L 957 14" style="stroke-width:2;stroke:rgba(129,199,239,1.0);fill:none"/></svg>