<!-- stars: 7861 -->
<svg xmlns="http://www.w3.org/2000/svg" xmlns:xlink="http://www.w3.org/1999/xlink" width="1024" height="400">\n<path  d="M 0 0
L 1024 0
L 1024 400
L 0 400
L 0 0" style="stroke-width:0;stroke:rgba(255,255,255,1.0);fill:rgba(255,255,255,1.0)"/><path  d="M 38 11
L 957 11
L 957 351
L 38 351
L 38 11" style="stroke-width:0;stroke:rgba(255,255,255,1.0);fill:rgba(255,255,255,1.0)"/><path  d="M 38 351
L 957 351" style="stroke-width:2;stroke:rgba(85,85,85,1.0);fill:none"/><path  d="M 38 351
L 38 356" style="stroke-width:2;stroke:rgba(85,85,85,1.0);fill:none"/><text x="5" y="373" style="stroke-width:0;stroke:none;fill:rgba(51,51,51,1.0);font-size:12.8px;font-family:'Roboto Medium',sans-serif">2018-09-25</text><path  d="M 153 351
L 153 356" style="stroke-width:2;stroke:rgba(85,85,85,1.0);fill:none"/><text x="120" y="373" style="stroke-width:0;stroke:none;fill:rgba(51,51,51,1.0);font-size:12.8px;font-family:'Roboto Medium',sans-serif">2019-02-18</text><path  d="M 268 351
L 268 356" style="stroke-width:2;stroke:rgba(85,85,85,1.0);fill:none"/><text x="235" y="373" style="stroke-width:0;stroke:none;fill:rgba(51,51,51,1.0);font-size:12.8px;font-family:'Roboto Medium',sans-serif">2019-07-14</text><path  d="M 383 351
L 383 356" style="stroke-width:2;stroke:rgba(85,85,85,1.0);fill:none"/><text x="350" y="373" style="stroke-width:0;stroke:none;fill:rgba(51,51,51,1.0);font-size:12.8px;font-family:'Roboto Medium',sans-serif">2019-12-07</text><path  d="M 498 351
L 498 356" style="stroke-width:2;stroke:rgba(85,85,85,1.0);fill:none"/><text x="465" y="373" style="stroke-width:0;stroke:none;fill:rgba(51,51,51,1.0);font-size:12.8px;font-family:'Roboto Medium',sans-serif">2020-05-01</text><path  d="M 613 351
L 613 356" style="stroke-width:2;stroke:rgba(85,85,85,1.0);fill:none"/><text x="580" y="373" style="stroke-width:0;stroke:none;fill:rgba(51,51,51,1.0);font-size:12.8px;font-family:'Roboto Medium',sans-serif">2020-09-24</text><path  d="M 728 351
L 728 356" style="stroke-width:2;stroke:rgba(85,85,85,1.0);fill:none"/><text x="695" y="373" style="stroke-width:0;stroke:none;fill:rgba(51,51,51,1.0);font-size:12.8px;font-family:'Roboto Medium',sans-serif">2021-02-17</text><path  d="M 843 351
L 843 356" style="stroke-width:2;stroke:rgba(85,85,85,1.0);fill:none"/><text x="810" y="373" style="stroke-width:0;stroke:none;fill:rgba(51,51,51,1.0);font-size:12.8px;font-family:'Roboto Medium',sans-serif">2021-07-13</text><path  d="M 957 351
L 957 356" style="stroke-width:2;stroke:rgba(85,85,85,1.0);fill:none"/><text x="924" y="373" style="stroke-width:0;stroke:none;fill:rgba(51,51,51,1.0);font-size:12.8px;font-family:'Roboto Medium',sans-serif">2021-12-06</text><text x="483" y="395" style="stroke-width:0;stroke:none;fill:rgba(51,51,51,1.0);font-size:12.8px;font-family:'Roboto Medium',sans-serif">Time</text><path  d="M 959 351
L 959 11" style="stroke-width:2;stroke:rgba(85,85,85,1.0);fill:none"/><path  d="M 959 351
L 964 351" style="stroke-width:2;stroke:rgba(85,85,85,1.0);fill:none"/><text x="969" y="357" style="stroke-width:0;stroke:none;fill:rgba(51,51,51,1.0);font-size:12.8px;font-family:'Roboto Medium',sans-serif">0</text><path  d="M 959 308
L 964 308" style="stroke-width:2;stroke:rgba(85,85,85,1.0);fill:none"/><text x="969" y="314" style="stroke-width:0;stroke:none;fill:rgba(51,51,51,1.0);font-size:12.8px;font-family:'Roboto Medium',sans-serif">990</text><path  d="M 959 265
L 964 265" style="stroke-width:2;stroke:rgba(85,85,85,1.0);fill:none"/><text x="969" y="271" style="stroke-width:0;stroke:none;fill:rgba(51,51,51,1.0);font-size:12.8px;font-family:'Roboto Medium',sans-serif">1980</text><path  d="M 959 223
L 964 223" style="stroke-width:2;stroke:rgba(85,85,85,1.0);fill:none"/><text x="969" y="229" style="stroke-width:0;stroke:none;fill:rgba(51,51,51,1.0);font-size:12.8px;font-family:'Roboto Medium',sans-serif">2970</text><path  d="M 959 181
L 964 181" style="stroke-width:2;stroke:rgba(85,85,85,1.0);fill:none"/><text x="969" y="187" style="stroke-width:0;stroke:none;fill:rgba(51,51,51,1.0);font-size:12.8px;font-family:'Roboto Medium',sans-serif">3950</text><path  d="M 959 138
L 964 138" style="stroke-width:2;stroke:rgba(85,85,85,1.0);fill:none"/><text x="969" y="144" style="stroke-width:0;stroke:none;fill:rgba(51,51,51,1.0);font-size:12.8px;font-family:'Roboto Medium',sans-serif">4940</text><path  d="M 959 95
L 964 95" style="stroke-width:2;stroke:rgba(85,85,85,1.0);fill:none"/><text x="969" y="101" style="stroke-width:0;stroke:none;fill:rgba(51,51,51,1.0);font-size:12.8px;font-family:'Roboto Medium',sans-serif">5930</text><path  d="M 959 53
L 964 53" style="stroke-width:2;stroke:rgba(85,85,85,1.0);fill:none"/><text x="969" y="59" style="stroke-width:0;stroke:none;fill:rgba(51,51,51,1.0);font-size:12.8px;font-family:'Roboto Medium',sans-serif">6920</text><path  d="M 959 11
L 964 11" style="stroke-width:2;stroke:rgba(85,85,85,1.0);fill:none"/><text x="969" y="17" style="stroke-width:0;stroke:none;fill:rgba(51,51,51,1.0);font-size:12.8px;font-family:'Roboto Medium',sans-serif">7900</text><text x="1009" y="150" style="stroke-width:0;stroke:none;fill:rgba(51,51,51,1.0);font-size:12.8px;font-family:'Roboto Medium',sans-serif" transform="rotate(90.00,1009,150)">Stargazers</text><path  d="M 38 351
L 40 350
L 50 350
L 51 350
L 51 350
L 51 350
L 51 350
L 54 350
L 55 350
L 55 350
L 57 350
L 57 350
L 58 350
L 58 350
L 58 350
L 58 350
L 61 350
L 67 350
L 67 350
L 69 350
L 70 350
L 70 350
L 72 350
L 72 350
L 74 349
L 74 349
L 79 349
L 83 349
L 88 349
L 88 349
L 94 349
L 94 349
L 94 349
L 94 349
L 94 349
L 94 349
L 94 349
L 95 349
L 95 349
L 95 349
L 95 349
L 97 349
L 99 349
L 99 349
L 99 349
L 99 349
L 99 349
L 100 348
L 100 348
L 101 348
L 103 348
L 103 348
L 104 348
L 105 348
L 107 348
L 108 348
L 108 348
L 109 348
L 110 348
L 110 348
L 110 348
L 111 348
L 111 348
L 112 348
L 112 348
L 112 348
L 112 348
L 113 348
L 113 348
L 113 348
L 113 347
L 113 347
L 114 347
L 115 347
L 115 347
L 115 347
L 116 347
L 117 347
L 117 347
L 118 347
L 118 347
L 120 347
L 120 347
L 121 347
L 121 347
L 121 347
L 121 347
L 122 347
L 122 347
L 123 347
L 123 347
L 123 347
L 124 347
L 125 346
L 127 346
L 127 346
L 127 346
L 127 346
L 127 346
L 129 346
L 131 346
L 133 346
L 134 346
L 134 346
L 134 346
L 134 346
L 142 346
L 145 346
L 149 346
L 149 346
L 150 346
L 150 346
L 151 346
L 151 346
L 152 346
L 154 346
L 154 346
L 154 345
L 154 345
L 155 345
L 155 345
L 155 345
L 156 345
L 156 345
L 157 345
L 159 345
L 159 345
L 161 345
L 162 345
L 164 345
L 165 345
L 166 345
L 166 345
L 167 345
L 167 345
L 168 345
L 168 345
L 169 345
L 169 345
L 170 345
L 171 344
L 173 344
L 173 344
L 175 344
L 175 344
L 176 344
L 177 344
L 177 344
L 177 344
L 178 344
L 179 344
L 182 344
L 182 344
L 183 344
L 183 344
L 183 344
L 184 344
L 184 344
L 184 344
L 185 344
L 185 344
L 185 344
L 186 344
L 186 343
L 187 343
L 187 343
L 187 343
L 187 343
L 187 343
L 187 343
L 188 343
L 188 343
L 188 343
L 188 343
L 188 343
L 188 343
L 188 343
L 189 343
L 189 343
L 189 343
L 190 343
L 191 343
L 192 343
L 192 343
L 193 343
L 193 343
L 193 342
L 194 342
L 194 342
L 194 342
L 194 342
L 194 342
L 195 342
L 195 342
L 196 342
L 198 342
L 198 342
L 199 342
L 201 342
L 201 342
L 203 342
L 204 342
L 204 342
L 205 342
L 205 342
L 205 342
L 205 342
L 205 342
L 205 342
L 207 342
L 207 341
L 208 341
L 208 341
L 209 341
L 209 341
L 209 341
L 210 341
L 210 341
L 211 341
L 211 341
L 212 341
L 212 341
L 213 341
L 214 341
L 215 341
L 216 341
L 217 341
L 217 341
L 217 341
L 217 341
L 218 341
L 219 341
L 221 341
L 222 340
L 225 340
L 226 340
L 227 340
L 229 340
L 230 340
L 230 340
L 231 340
L 232 340
L 237 340
L 237 340
L 237 340
L 237 340
L 238 340
L 238 340
L 238 340
L 239 340
L 239 340
L 239 340
L 245 340
L 247 340
L 248 340
L 248 340
L 248 339
L 248 339
L 249 339
L 249 339
L 249 339
L 249 339
L 249 339
L 250 339
L 250 339
L 253 339
L 253 339
L 253 339
L 255 339
L 256 339
L 256 339
L 257 339
L 257 339
L 258 339
L 258 339
L 259 339
L 259 339
L 259 339
L 259 339
L 260 338
L 260 338
L 260 338
L 260 338
L 261 338
L 261 338
L 261 338
L 261 338
L 262 338
L 262 338
L 263 338
L 263 338
L 263 338
L 263 338
L 265 338
L 266 338
L 267 338
L 267 338
L 268 338
L 269 338
L 269 338
L 270 338
L 270 338
L 272 338
L 274 337
L 275 337
L 275 337
L 278 337
L 279 337
L 279 337
L 281 337
L 281 337
L 281 337
L 282 337
L 286 337
L 290 337
L 291 337
L 292 337
L 293 337
L 295 337
L 296 337
L 299 337
L 301 337
L 301 337
L 302 337
L 302 337
L 305 337
L 310 336
L 310 336
L 310 336
L 311 336
L 311 336
L 322 336
L 322 336
L 323 336
L 323 336
L 323 336
L 323 336
L 323 336
L 323 336
L 323 336
L 324 336
L 324 336
L 324 336
L 324 336
L 325 336
L 326 336
L 329 336
L 329 336
L 330 336
L 335 335
L 337 335
L 338 335
L 338 335
L 339 335
L 339 335
L 340 335
L 341 335
L 342 335
L 342 335
L 342 335
L 343 335
L 343 335
L 344 335
L 346 335
L 347 335
L 347 335
L 348 335
L 352 335
L 363 335
L 364 335
L 368 335
L 370 335
L 370 334
L 372 334
L 374 334
L 374 334
L 375 334
L 375 334
L 375 334
L 376 334
L 376 334
L 380 334
L 380 334
L 383 334
L 384 334
L 388 334
L 388 334
L 388 334
L 393 334
L 396 334
L 396 334
L 397 334
L 397 334
L 398 334
L 398 334
L 398 334
L 398 333
L 399 333
L 399 333
L 399 333
L 399 333
L 401 333
L 402 333
L 405 333
L 407 333
L 408 333
L 412 333
L 412 333
L 412 333
L 413 333
L 413 333
L 414 333
L 415 333
L 418 333
L 418 333
L 422 333
L 422 333
L 424 333
L 424 333
L 426 332
L 428 332
L 430 332
L 432 332
L 436 332
L 438 332
L 438 332
L 438 332
L 441 332
L 448 332
L 450 332
L 452 332
L 453 332
L 454 332
L 454 332
L 455 332
L 456 332
L 456 332
L 456 332
L 458 332
L 458 332
L 458 332
L 459 332
L 459 331
L 459 331
L 460 331
L 460 331
L 461 331
L 461 331
L 463 331
L 463 331
L 463 331
L 463 331
L 464 331
L 464 331
L 464 331
L 464 331
L 464 331
L 464 331
L 464 331
L 465 331
L 465 331
L 466 331
L 467 331
L 468 331
L 468 331
L 470 330
L 470 330
L 470 330
L 470 330
L 470 330
L 471 330
L 472 330
L 472 330
L 472 330
L 472 330
L 473 330
L 473 330
L 473 330
L 473 330
L 474 330
L 475 330
L 476 330
L 478 330
L 478 330
L 478 330
L 478 330
L 478 330
L 479 330
L 479 329
L 480 329
L 480 329
L 481 329
L 481 329
L 481 329
L 481 329
L 481 329
L 481 329
L 481 329
L 481 329
L 481 329
L 481 329
L 481 329
L 481 329
L 482 329
L 482 329
L 482 329
L 482 329
L 483 329
L 483 329
L 483 329
L 484 329
L 484 329
L 484 328
L 485 328
L 486 328
L 486 328
L 487 328
L 487 328
L 487 328
L 488 328
L 489 328
L 489 328
L 489 328
L 489 328
L 489 328
L 489 328
L 489 328
L 489 328
L 489 328
L 489 328
L 489 328
L 489 328
L 489 328
L 490 328
L 490 328
L 490 327
L 490 327
L 490 327
L 490 327
L 490 327
L 490 327
L 490 327
L 490 327
L 490 327
L 490 327
L 490 327
L 490 327
L 490 327
L 491 327
L 491 327
L 491 327
L 491 327
L 492 327
L 492 327
L 492 327
L 492 327
L 492 327
L 492 327
L 492 326
L 492 326
L 493 326
L 493 326
L 494 326
L 494 326
L 495 326
L 495 326
L 495 326
L 496 326
L 496 326
L 496 326
L 496 326
L 496 326
L 496 326
L 497 326
L 497 326
L 497 326
L 498 326
L 499 326
L 500 326
L 500 326
L 500 326
L 502 325
L 502 325
L 503 325
L 503 325
L 503 325
L 503 325
L 503 325
L 503 325
L 503 325
L 503 325
L 504 325
L 504 325
L 505 325
L 505 325
L 506 325
L 506 325
L 506 325
L 507 325
L 507 325
L 508 325
L 508 325
L 508 325
L 508 325
L 509 325
L 509 324
L 509 324
L 510 324
L 510 324
L 510 324
L 510 324
L 510 324
L 510 324
L 512 324
L 512 324
L 513 324
L 514 324
L 514 324
L 514 324
L 514 324
L 515 324
L 515 324
L 516 324
L 516 324
L 516 324
L 516 324
L 517 324
L 517 324
L 518 323
L 518 323
L 518 323
L 519 323
L 519 323
L 519 323
L 519 323
L 519 323
L 519 323
L 520 323
L 520 323
L 520 323
L 520 323
L 520 323
L 520 323
L 521 323
L 521 323
L 521 323
L 522 323
L 523 323
L 523 323
L 523 323
L 523 323
L 524 322
L 525 322
L 525 322
L 525 322
L 526 322
L 526 322
L 526 322
L 526 322
L 526 322
L 526 322
L 526 322
L 527 322
L 527 322
L 527 322
L 527 322
L 527 322
L 527 322
L 527 322
L 527 322
L 527 322
L 527 322
L 527 322
L 527 322
L 527 321
L 528 321
L 528 321
L 529 321
L 529 321
L 529 321
L 529 321
L 530 321
L 530 321
L 531 321
L 531 321
L 532 321
L 532 321
L 532 321
L 532 321
L 533 321
L 533 321
L 533 321
L 533 321
L 533 321
L 533 321
L 533 321
L 533 321
L 534 321
L 534 320
L 534 320
L 534 320
L 534 320
L 534 320
L 534 320
L 534 320
L 534 320
L 534 320
L 534 320
L 535 320
L 535 320
L 535 320
L 535 320
L 535 320
L 535 320
L 536 320
L 536 320
L 536 320
L 536 320
L 536 320
L 537 320
L 537 320
L 537 319
L 537 319
L 537 319
L 537 319
L 538 319
L 538 319
L 538 319
L 539 319
L 539 319
L 539 319
L 540 319
L 540 319
L 540 319
L 541 319
L 541 319
L 543 319
L 543 319
L 543 319
L 543 319
L 543 319
L 543 319
L 543 319
L 544 319
L 544 318
L 544 318
L 544 318
L 544 318
L 545 318
L 545 318
L 545 318
L 546 318
L 546 318
L 546 318
L 546 318
L 547 318
L 547 318
L 547 318
L 547 318
L 547 318
L 548 318
L 548 318
L 548 318
L 548 318
L 549 318
L 549 318
L 549 318
L 550 317
L 550 317
L 550 317
L 550 317
L 551 317
L 552 317
L 552 317
L 552 317
L 552 317
L 553 317
L 553 317
L 553 317
L 554 317
L 554 317
L 555 317
L 556 317
L 556 317
L 556 317
L 557 317
L 557 317
L 557 317
L 558 317
L 558 317
L 558 317
L 558 316
L 558 316
L 558 316
L 559 316
L 559 316
L 559 316
L 559 316
L 559 316
L 560 316
L 560 316
L 560 316
L 560 316
L 561 316
L 561 316
L 561 316
L 561 316
L 561 316
L 561 316
L 562 316
L 562 316
L 562 316
L 562 316
L 563 316
L 563 315
L 563 315
L 564 315
L 564 315
L 564 315
L 565 315
L 565 315
L 565 315
L 565 315
L 566 315
L 566 315
L 566 315
L 566 315
L 567 315
L 567 315
L 567 315
L 567 315
L 567 315
L 567 315
L 567 315
L 568 315
L 568 315
L 568 315
L 568 314
L 568 314
L 568 314
L 568 314
L 569 314
L 569 314
L 569 314
L 569 314
L 569 314
L 569 314
L 570 314
L 570 314
L 570 314
L 570 314
L 570 314
L 570 314
L 571 314
L 571 314
L 572 314
L 572 314
L 572 314
L 572 314
L 572 314
L 573 313
L 573 313
L 573 313
L 574 313
L 574 313
L 574 313
L 574 313
L 574 313
L 574 313
L 575 313
L 575 313
L 575 313
L 576 313
L 577 313
L 577 313
L 577 313
L 577 313
L 577 313
L 578 313
L 578 313
L 578 313
L 578 313
L 578 313
L 578 312
L 579 312
L 579 312
L 579 312
L 580 312
L 580 312
L 580 312
L 580 312
L 580 312
L 581 312
L 581 312
L 581 312
L 582 312
L 582 312
L 583 312
L 583 312
L 583 312
L 583 312
L 583 312
L 584 312
L 584 312
L 584 312
L 584 312
L 585 312
L 585 311
L 585 311
L 585 311
L 585 311
L 586 311
L 586 311
L 586 311
L 586 311
L 587 311
L 587 311
L 588 311
L 589 311
L 589 311
L 589 311
L 590 311
L 591 311
L 591 311
L 593 311
L 593 311
L 594 311
L 594 311
L 594 311
L 595 311
L 595 310
L 595 310
L 596 310
L 596 310
L 597 310
L 597 310
L 597 310
L 598 310
L 598 310
L 598 310
L 598 310
L 599 310
L 599 310
L 599 310
L 600 310
L 600 310
L 600 310
L 600 310
L 601 310
L 602 310
L 602 310
L 602 310
L 602 310
L 602 309
L 602 309
L 602 309
L 602 309
L 602 309
L 602 309
L 603 309
L 603 309
L 603 309
L 603 309
L 604 309
L 604 309
L 604 309
L 604 309
L 604 309
L 605 309
L 606 309
L 606 309
L 606 309
L 607 309
L 607 309
L 607 309
L 609 309
L 609 308
L 610 308
L 611 308
L 611 308
L 611 308
L 611 308
L 612 308
L 612 308
L 612 308
L 612 308
L 613 308
L 615 308
L 615 308
L 615 308
L 615 308
L 616 308
L 616 308
L 616 308
L 616 308
L 617 308
L 617 308
L 617 308
L 617 308
L 617 308
L 618 307
L 618 307
L 618 307
L 618 307
L 619 307
L 621 307
L 622 307
L 622 307
L 624 307
L 624 307
L 624 307
L 625 307
L 625 307
L 625 307
L 626 307
L 626 307
L 627 307
L 627 307
L 627 307
L 627 307
L 627 307
L 627 307
L 627 307
L 628 306
L 628 306
L 628 306
L 628 306
L 628 306
L 628 306
L 628 306
L 628 306
L 629 306
L 629 306
L 629 306
L 629 306
L 629 306
L 629 306
L 630 306
L 630 306
L 630 306
L 630 306
L 630 306
L 630 306
L 630 306
L 631 306
L 631 306
L 632 305
L 632 305
L 632 305
L 633 305
L 633 305
L 633 305
L 633 305
L 634 305
L 634 305
L 634 305
L 635 305
L 635 305
L 635 305
L 635 305
L 635 305
L 636 305
L 636 305
L 636 305
L 636 305
L 637 305
L 638 305
L 638 305
L 639 305
L 639 304
L 639 304
L 639 304
L 639 304
L 639 304
L 639 304
L 639 304
L 639 304
L 639 304
L 639 304
L 639 304
L 639 304
L 639 304
L 640 304
L 640 304
L 640 304
L 640 304
L 640 304
L 640 304
L 640 304
L 640 304
L 640 304
L 640 304
L 640 304
L 640 303
L 640 303
L 640 303
L 640 303
L 640 303
L 641 303
L 641 303
L 641 303
L 641 303
L 641 303
L 641 303
L 641 303
L 641 303
L 642 303
L 642 303
L 642 303
L 643 303
L 643 303
L 643 303
L 643 303
L 643 303
L 643 303
L 643 303
L 644 302
L 644 302
L 644 302
L 644 302
L 644 302
L 644 302
L 644 302
L 645 302
L 645 302
L 645 302
L 645 302
L 645 302
L 645 302
L 645 302
L 645 302
L 645 302
L 646 302
L 646 302
L 646 302
L 646 302
L 647 302
L 647 302
L 647 302
L 647 301
L 648 301
L 648 301
L 649 301
L 649 301
L 649 301
L 649 301
L 649 301
L 649 301
L 649 301
L 649 301
L 650 301
L 650 301
L 650 301
L 651 301
L 651 301
L 651 301
L 651 301
L 651 301
L 651 301
L 651 301
L 652 301
L 652 301
L 652 300
L 652 300
L 652 300
L 653 300
L 653 300
L 653 300
L 654 300
L 654 300
L 654 300
L 654 300
L 654 300
L 654 300
L 655 300
L 655 300
L 655 300
L 656 300
L 656 300
L 656 300
L 656 300
L 656 300
L 656 300
L 657 300
L 657 300
L 657 300
L 657 299
L 657 299
L 657 299
L 658 299
L 658 299
L 658 299
L 658 299
L 659 299
L 659 299
L 659 299
L 659 299
L 660 299
L 660 299
L 660 299
L 660 299
L 660 299
L 660 299
L 660 299
L 661 299
L 661 299
L 662 299
L 662 299
L 663 299
L 663 298
L 663 298
L 663 298
L 663 298
L 663 298
L 663 298
L 663 298
L 663 298
L 665 298
L 665 298
L 665 298
L 665 298
L 666 298
L 666 298
L 666 298
L 666 298
L 666 298
L 666 298
L 666 298
L 666 298
L 667 298
L 667 298
L 667 298
L 667 297
L 667 297
L 667 297
L 667 297
L 668 297
L 668 297
L 668 297
L 668 297
L 668 297
L 668 297
L 670 297
L 671 297
L 671 297
L 671 297
L 671 297
L 672 297
L 672 297
L 672 297
L 672 297
L 672 297
L 672 297
L 672 297
L 673 297
L 673 296
L 673 296
L 673 296
L 673 296
L 673 296
L 673 296
L 673 296
L 674 296
L 674 296
L 674 296
L 674 296
L 674 296
L 676 296
L 676 296
L 676 296
L 676 296
L 676 296
L 676 296
L 677 296
L 677 296
L 677 296
L 677 296
L 677 296
L 677 295
L 678 295
L 678 295
L 678 295
L 678 295
L 679 295
L 679 295
L 679 295
L 680 295
L 680 295
L 680 295
L 681 295
L 681 295
L 681 295
L 682 295
L 682 295
L 682 295
L 682 295
L 682 295
L 683 295
L 683 295
L 683 295
L 683 295
L 683 295
L 683 294
L 683 294
L 683 294
L 683 294
L 683 294
L 683 294
L 683 294
L 684 294
L 684 294
L 684 294
L 684 294
L 684 294
L 684 294
L 684 294
L 684 294
L 684 294
L 685 294
L 685 294
L 685 294
L 685 294
L 685 294
L 685 294
L 686 294
L 686 293
L 686 293
L 687 293
L 687 293
L 687 293
L 687 293
L 687 293
L 688 293
L 688 293
L 688 293
L 688 293
L 688 293
L 688 293
L 688 293
L 688 293
L 688 293
L 688 293
L 688 293
L 689 293
L 689 293
L 689 293
L 689 293
L 690 293
L 690 292
L 690 292
L 691 292
L 691 292
L 692 292
L 692 292
L 693 292
L 693 292
L 693 292
L 693 292
L 693 292
L 693 292
L 693 292
L 694 292
L 694 292
L 694 292
L 694 292
L 694 292
L 695 292
L 695 292
L 695 292
L 695 292
L 695 292
L 695 291
L 695 291
L 695 291
L 695 291
L 695 291
L 695 291
L 695 291
L 695 291
L 696 291
L 696 291
L 696 291
L 696 291
L 697 291
L 697 291
L 697 291
L 698 291
L 698 291
L 699 291
L 699 291
L 699 291
L 699 291
L 699 291
L 699 291
L 699 291
L 699 290
L 699 290
L 700 290
L 700 290
L 700 290
L 700 290
L 700 290
L 701 290
L 701 290
L 701 290
L 701 290
L 702 290
L 702 290
L 702 290
L 702 290
L 702 290
L 702 290
L 702 290
L 703 290
L 703 290
L 704 290
L 704 290
L 704 290
L 704 289
L 704 289
L 705 289
L 705 289
L 705 289
L 705 289
L 706 289
L 706 289
L 706 289
L 706 289
L 706 289
L 707 289
L 707 289
L 707 289
L 707 289
L 707 289
L 707 289
L 707 289
L 707 289
L 708 289
L 708 289
L 708 289
L 708 289
L 709 288
L 709 288
L 709 288
L 709 288
L 709 288
L 709 288
L 709 288
L 709 288
L 709 288
L 709 288
L 709 288
L 710 288
L 710 288
L 710 288
L 710 288
L 710 288
L 710 288
L 710 288
L 711 288
L 711 288
L 711 288
L 711 288
L 711 288
L 712 287
L 712 287
L 712 287
L 712 287
L 714 287
L 714 287
L 714 287
L 714 287
L 714 287
L 714 287
L 714 287
L 714 287
L 714 287
L 715 287
L 715 287
L 715 287
L 715 287
L 715 287
L 715 287
L 716 287
L 716 287
L 717 287
L 717 287
L 717 287
L 717 286
L 717 286
L 717 286
L 717 286
L 718 286
L 718 286
L 718 286
L 718 286
L 718 286
L 718 286
L 718 286
L 718 286
L 719 286
L 719 286
L 719 286
L 719 286
L 719 286
L 719 286
L 719 286
L 720 286
L 720 286
L 720 286
L 720 286
L 721 285
L 721 285
L 721 285
L 721 285
L 721 285
L 722 285
L 722 285
L 723 285
L 724 285
L 724 285
L 725 285
L 725 285
L 725 285
L 725 285
L 726 285
L 726 285
L 726 285
L 727 285
L 727 285
L 727 285
L 728 285
L 728 285
L 728 285
L 728 284
L 729 284
L 729 284
L 729 284
L 729 284
L 729 284
L 729 284
L 729 284
L 729 284
L 729 284
L 729 284
L 729 284
L 730 284
L 730 284
L 730 284
L 730 284
L 730 284
L 730 284
L 730 284
L 730 284
L 730 284
L 731 284
L 731 284
L 731 283
L 731 283
L 731 283
L 732 283
L 732 283
L 732 283
L 732 283
L 732 283
L 732 283
L 732 283
L 732 283
L 732 283
L 732 283
L 733 283
L 733 283
L 733 283
L 733 283
L 733 283
L 733 283
L 733 283
L 733 283
L 734 283
L 734 283
L 734 283
L 734 282
L 734 282
L 734 282
L 734 282
L 734 282
L 735 282
L 735 282
L 735 282
L 735 282
L 735 282
L 735 282
L 735 282
L 736 282
L 736 282
L 736 282
L 736 282
L 736 282
L 736 282
L 737 282
L 737 282
L 737 282
L 737 282
L 737 282
L 737 281
L 737 281
L 738 281
L 738 281
L 738 281
L 738 281
L 738 281
L 738 281
L 738 281
L 738 281
L 738 281
L 738 281
L 738 281
L 738 281
L 739 281
L 739 281
L 739 281
L 739 281
L 739 281
L 739 281
L 739 281
L 739 281
L 739 281
L 739 280
L 740 280
L 740 280
L 740 280
L 740 280
L 740 280
L 740 280
L 740 280
L 741 280
L 741 280
L 741 280
L 741 280
L 741 280
L 742 280
L 742 280
L 742 280
L 742 280
L 742 280
L 743 280
L 743 280
L 743 280
L 743 280
L 743 280
L 743 279
L 743 279
L 743 279
L 743 279
L 743 279
L 743 279
L 744 279
L 744 279
L 744 279
L 744 279
L 744 279
L 745 279
L 745 279
L 745 279
L 745 279
L 745 279
L 745 279
L 745 279
L 745 279
L 745 279
L 745 279
L 745 279
L 745 279
L 745 278
L 745 278
L 746 278
L 746 278
L 746 278
L 746 278
L 747 278
L 747 278
L 747 278
L 747 278
L 747 278
L 747 278
L 747 278
L 747 278
L 747 278
L 747 278
L 747 278
L 747 278
L 747 278
L 747 278
L 747 278
L 747 278
L 747 278
L 747 278
L 747 277
L 747 277
L 747 277
L 747 277
L 747 277
L 747 277
L 747 277
L 747 277
L 747 277
L 747 277
L 747 277
L 747 277
L 747 277
L 747 277
L 747 277
L 747 277
L 747 277
L 747 277
L 747 277
L 747 277
L 747 277
L 747 277
L 747 277
L 747 276
L 747 276
L 747 276
L 747 276
L 747 276
L 747 276
L 747 276
L 747 276
L 747 276
L 747 276
L 747 276
L 747 276
L 747 276
L 747 276
L 747 276
L 747 276
L 747 276
L 747 276
L 747 276
L 747 276
L 747 276
L 747 276
L 747 276
L 747 275
L 748 275
L 748 275
L 748 275
L 748 275
L 748 275
L 748 275
L 748 275
L 748 275
L 748 275
L 748 275
L 748 275
L 748 275
L 748 275
L 748 275
L 748 275
L 748 275
L 748 275
L 748 275
L 748 275
L 748 275
L 748 275
L 748 275
L 748 274
L 748 274
L 748 274
L 748 274
L 748 274
L 748 274
L 748 274
L 748 274
L 748 274
L 748 274
L 748 274
L 748 274
L 748 274
L 748 274
L 748 274
L 748 274
L 748 274
L 748 274
L 748 274
L 748 274
L 748 274
L 748 274
L 748 274
L 748 274
L 748 273
L 748 273
L 748 273
L 748 273
L 748 273
L 748 273
L 748 273
L 749 273
L 749 273
L 749 273
L 749 273
L 749 273
L 749 273
L 749 273
L 749 273
L 749 273
L 749 273
L 749 273
L 749 273
L 749 273
L 749 273
L 749 273
L 749 273
L 749 272
L 749 272
L 749 272
L 749 272
L 749 272
L 749 272
L 749 272
L 749 272
L 749 272
L 749 272
L 749 272
L 749 272
L 749 272
L 749 272
L 749 272
L 749 272
L 749 272
L 749 272
L 749 272
L 749 272
L 749 272
L 749 272
L 749 272
L 749 271
L 749 271
L 749 271
L 749 271
L 749 271
L 749 271
L 749 271
L 749 271
L 749 271
L 749 271
L 749 271
L 749 271
L 749 271
L 749 271
L 749 271
L 749 271
L 749 271
L 749 271
L 750 271
L 750 271
L 750 271
L 750 271
L 750 271
L 750 270
L 750 270
L 750 270
L 750 270
L 750 270
L 750 270
L 750 270
L 750 270
L 750 270
L 750 270
L 750 270
L 750 270
L 750 270
L 750 270
L 750 270
L 750 270
L 750 270
L 750 270
L 750 270
L 750 270
L 750 270
L 750 270
L 750 270
L 750 270
L 750 269
L 750 269
L 750 269
L 750 269
L 750 269
L 750 269
L 750 269
L 750 269
L 750 269
L 750 269
L 750 269
L 750 269
L 750 269
L 750 269
L 750 269
L 750 269
L 750 269
L 750 269
L 750 269
L 750 269
L 750 269
L 750 269
L 750 269
L 750 268
L 750 268
L 750 268
L 750 268
L 750 268
L 750 268
L 750 268
L 750 268
L 750 268
L 750 268
L 750 268
L 750 268
L 750 268
L 750 268
L 750 268
L 750 268
L 750 268
L 750 268
L 750 268
L 750 268
L 750 268
L 750 268
L 750 268
L 750 267
L 750 267
L 750 267
L 750 267
L 750 267
L 750 267
L 750 267
L 750 267
L 750 267
L 750 267
L 750 267
L 750 267
L 750 267
L 750 267
L 750 267
L 750 267
L 750 267
L 750 267
L 750 267
L 750 267
L 751 267
L 751 267
L 751 267
L 751 266
L 751 266
L 751 266
L 751 266
L 751 266
L 751 266
L 751 266
L 751 266
L 751 266
L 751 266
L 751 266
L 751 266
L 751 266
L 751 266
L 751 266
L 751 266
L 751 266
L 751 266
L 751 266
L 751 266
L 751 266
L 751 266
L 751 266
L 751 266
L 751 265
L 751 265
L 751 265
L 751 265
L 751 265
L 751 265
L 751 265
L 751 265
L 751 265
L 751 265
L 751 265
L 751 265
L 751 265
L 751 265
L 751 265
L 751 265
L 751 265
L 751 265
L 751 265
L 751 265
L 751 265
L 751 265
L 751 265
L 751 264
L 751 264
L 751 264
L 751 264
L 751 264
L 751 264
L 752 264
L 752 264
L 752 264
L 752 264
L 752 264
L 752 264
L 752 264
L 752 264
L 752 264
L 752 264
L 752 264
L 752 264
L 752 264
L 752 264
L 752 264
L 753 264
L 753 264
L 753 263
L 753 263
L 753 263
L 753 263
L 753 263
L 753 263
L 754 263
L 754 263
L 754 263
L 754 263
L 754 263
L 754 263
L 754 263
L 754 263
L 754 263
L 754 263
L 754 263
L 754 263
L 755 263
L 755 263
L 755 263
L 755 263
L 755 263
L 755 262
L 755 262
L 755 262
L 755 262
L 755 262
L 755 262
L 755 262
L 755 262
L 755 262
L 755 262
L 755 262
L 755 262
L 756 262
L 756 262
L 756 262
L 756 262
L 756 262
L 756 262
L 756 262
L 757 262
L 757 262
L 757 262
L 757 262
L 757 261
L 757 261
L 757 261
L 757 261
L 757 261
L 757 261
L 757 261
L 757 261
L 757 261
L 758 261
L 758 261
L 758 261
L 758 261
L 758 261
L 758 261
L 759 261
L 759 261
L 759 261
L 759 261
L 759 261
L 759 261
L 759 261
L 759 261
L 759 261
L 759 260
L 759 260
L 759 260
L 759 260
L 759 260
L 759 260
L 759 260
L 759 260
L 759 260
L 759 260
L 759 260
L 759 260
L 759 260
L 759 260
L 760 260
L 760 260
L 760 260
L 760 260
L 760 260
L 760 260
L 760 260
L 760 260
L 760 260
L 760 259
L 760 259
L 760 259
L 760 259
L 760 259
L 760 259
L 760 259
L 760 259
L 760 259
L 760 259
L 760 259
L 760 259
L 760 259
L 760 259
L 760 259
L 760 259
L 760 259
L 760 259
L 760 259
L 760 259
L 760 259
L 760 259
L 760 259
L 760 258
L 760 258
L 760 258
L 760 258
L 760 258
L 760 258
L 760 258
L 760 258
L 760 258
L 760 258
L 760 258
L 760 258
L 760 258
L 761 258
L 761 258
L 761 258
L 761 258
L 761 258
L 761 258
L 761 258
L 761 258
L 761 258
L 761 258
L 761 257
L 761 257
L 761 257
L 761 257
L 761 257
L 761 257
L 761 257
L 761 257
L 761 257
L 761 257
L 761 257
L 761 257
L 761 257
L 761 257
L 761 257
L 761 257
L 761 257
L 761 257
L 761 257
L 761 257
L 761 257
L 761 257
L 761 257
L 761 257
L 761 256
L 761 256
L 761 256
L 761 256
L 761 256
L 761 256
L 761 256
L 761 256
L 761 256
L 761 256
L 761 256
L 761 256
L 761 256
L 761 256
L 761 256
L 761 256
L 761 256
L 761 256
L 761 256
L 761 256
L 761 256
L 761 256
L 761 256
L 761 255
L 761 255
L 761 255
L 761 255
L 761 255
L 761 255
L 761 255
L 761 255
L 761 255
L 761 255
L 761 255
L 761 255
L 761 255
L 761 255
L 761 255
L 761 255
L 761 255
L 761 255
L 761 255
L 761 255
L 761 255
L 761 255
L 761 255
L 761 254
L 761 254
L 761 254
L 762 254
L 762 254
L 762 254
L 762 254
L 762 254
L 762 254
L 762 254
L 762 254
L 762 254
L 762 254
L 762 254
L 762 254
L 762 254
L 762 254
L 762 254
L 762 254
L 762 254
L 762 254
L 762 254
L 762 254
L 762 253
L 762 253
L 762 253
L 762 253
L 762 253
L 762 253
L 762 253
L 762 253
L 762 253
L 762 253
L 762 253
L 762 253
L 762 253
L 762 253
L 762 253
L 762 253
L 762 253
L 762 253
L 762 253
L 762 253
L 762 253
L 762 253
L 762 253
L 762 253
L 762 252
L 762 252
L 762 252
L 762 252
L 762 252
L 762 252
L 762 252
L 762 252
L 762 252
L 762 252
L 763 252
L 763 252
L 763 252
L 763 252
L 763 252
L 763 252
L 763 252
L 763 252
L 763 252
L 763 252
L 763 252
L 763 252
L 763 252
L 763 251
L 763 251
L 763 251
L 763 251
L 763 251
L 763 251
L 763 251
L 763 251
L 763 251
L 763 251
L 763 251
L 763 251
L 763 251
L 763 251
L 764 251
L 764 251
L 764 251
L 764 251
L 764 251
L 764 251
L 764 251
L 764 251
L 764 251
L 764 250
L 764 250
L 764 250
L 764 250
L 764 250
L 764 250
L 764 250
L 764 250
L 764 250
L 764 250
L 764 250
L 764 250
L 764 250
L 764 250
L 764 250
L 764 250
L 764 250
L 764 250
L 764 250
L 764 250
L 764 250
L 764 250
L 765 250
L 765 249
L 765 249
L 765 249
L 765 249
L 765 249
L 765 249
L 765 249
L 765 249
L 765 249
L 765 249
L 765 249
L 765 249
L 765 249
L 765 249
L 765 249
L 765 249
L 765 249
L 765 249
L 765 249
L 765 249
L 765 249
L 765 249
L 765 249
L 765 249
L 765 248
L 765 248
L 765 248
L 765 248
L 765 248
L 765 248
L 766 248
L 766 248
L 766 248
L 766 248
L 766 248
L 766 248
L 766 248
L 766 248
L 766 248
L 766 248
L 766 248
L 766 248
L 766 248
L 766 248
L 766 248
L 766 248
L 766 248
L 766 247
L 766 247
L 766 247
L 766 247
L 766 247
L 766 247
L 766 247
L 766 247
L 766 247
L 767 247
L 767 247
L 767 247
L 767 247
L 767 247
L 767 247
L 767 247
L 767 247
L 767 247
L 767 247
L 768 247
L 768 247
L 768 247
L 768 247
L 768 246
L 768 246
L 768 246
L 768 246
L 768 246
L 768 246
L 768 246
L 768 246
L 768 246
L 768 246
L 768 246
L 768 246
L 769 246
L 769 246
L 769 246
L 769 246
L 769 246
L 769 246
L 769 246
L 769 246
L 770 246
L 770 246
L 770 246
L 770 245
L 770 245
L 770 245
L 770 245
L 770 245
L 770 245
L 770 245
L 770 245
L 771 245
L 771 245
L 771 245
L 771 245
L 771 245
L 771 245
L 771 245
L 771 245
L 771 245
L 771 245
L 771 245
L 771 245
L 772 245
L 772 245
L 772 245
L 772 244
L 772 244
L 772 244
L 772 244
L 772 244
L 772 244
L 772 244
L 772 244
L 772 244
L 772 244
L 772 244
L 772 244
L 772 244
L 772 244
L 772 244
L 772 244
L 773 244
L 773 244
L 773 244
L 773 244
L 773 244
L 773 244
L 773 244
L 773 244
L 773 243
L 773 243
L 773 243
L 773 243
L 773 243
L 774 243
L 774 243
L 774 243
L 774 243
L 774 243
L 774 243
L 774 243
L 774 243
L 774 243
L 774 243
L 774 243
L 774 243
L 774 243
L 774 243
L 774 243
L 775 243
L 775 243
L 775 243
L 775 242
L 775 242
L 775 242
L 775 242
L 775 242
L 775 242
L 775 242
L 775 242
L 775 242
L 775 242
L 775 242
L 775 242
L 776 242
L 776 242
L 776 242
L 776 242
L 776 242
L 776 242
L 776 242
L 776 242
L 776 242
L 776 242
L 776 242
L 776 241
L 776 241
L 776 241
L 776 241
L 776 241
L 776 241
L 776 241
L 776 241
L 776 241
L 776 241
L 776 241
L 776 241
L 776 241
L 776 241
L 776 241
L 777 241
L 777 241
L 777 241
L 777 241
L 777 241
L 777 241
L 777 241
L 777 241
L 777 240
L 777 240
L 778 240
L 778 240
L 778 240
L 778 240
L 778 240
L 778 240
L 778 240
L 778 240
L 779 240
L 779 240
L 779 240
L 779 240
L 779 240
L 779 240
L 779 240
L 779 240
L 779 240
L 779 240
L 779 240
L 779 240
L 779 240
L 780 240
L 780 239
L 780 239
L 780 239
L 780 239
L 780 239
L 780 239
L 780 239
L 780 239
L 780 239
L 780 239
L 780 239
L 780 239
L 780 239
L 780 239
L 780 239
L 780 239
L 780 239
L 780 239
L 780 239
L 780 239
L 780 239
L 780 239
L 780 239
L 780 238
L 780 238
L 780 238
L 780 238
L 780 238
L 780 238
L 780 238
L 780 238
L 780 238
L 780 238
L 780 238
L 780 238
L 780 238
L 780 238
L 780 238
L 780 238
L 780 238
L 781 238
L 781 238
L 781 238
L 781 238
L 781 238
L 781 238
L 781 237
L 781 237
L 781 237
L 781 237
L 781 237
L 781 237
L 781 237
L 781 237
L 781 237
L 781 237
L 781 237
L 781 237
L 781 237
L 781 237
L 781 237
L 781 237
L 781 237
L 781 237
L 781 237
L 781 237
L 781 237
L 781 237
L 781 237
L 781 236
L 781 236
L 781 236
L 781 236
L 781 236
L 781 236
L 781 236
L 781 236
L 781 236
L 781 236
L 781 236
L 781 236
L 781 236
L 781 236
L 781 236
L 781 236
L 781 236
L 781 236
L 781 236
L 781 236
L 781 236
L 781 236
L 781 236
L 781 236
L 781 235
L 781 235
L 781 235
L 781 235
L 781 235
L 781 235
L 781 235
L 781 235
L 781 235
L 781 235
L 781 235
L 781 235
L 781 235
L 781 235
L 781 235
L 781 235
L 781 235
L 781 235
L 781 235
L 781 235
L 781 235
L 781 235
L 781 235
L 782 234
L 782 234
L 782 234
L 782 234
L 782 234
L 782 234
L 782 234
L 782 234
L 782 234
L 782 234
L 782 234
L 782 234
L 782 234
L 782 234
L 782 234
L 782 234
L 782 234
L 782 234
L 782 234
L 782 234
L 782 234
L 782 234
L 782 234
L 782 233
L 782 233
L 782 233
L 782 233
L 782 233
L 782 233
L 782 233
L 782 233
L 782 233
L 782 233
L 782 233
L 782 233
L 782 233
L 782 233
L 782 233
L 782 233
L 782 233
L 782 233
L 782 233
L 782 233
L 782 233
L 782 233
L 782 233
L 782 232
L 782 232
L 782 232
L 782 232
L 782 232
L 782 232
L 782 232
L 782 232
L 783 232
L 783 232
L 783 232
L 783 232
L 783 232
L 783 232
L 783 232
L 783 232
L 783 232
L 783 232
L 783 232
L 783 232
L 783 232
L 783 232
L 783 232
L 783 232
L 783 231
L 783 231
L 783 231
L 783 231
L 783 231
L 783 231
L 783 231
L 783 231
L 783 231
L 783 231
L 783 231
L 783 231
L 783 231
L 783 231
L 783 231
L 783 231
L 783 231
L 783 231
L 783 231
L 783 231
L 783 231
L 783 231
L 783 231
L 783 230
L 783 230
L 783 230
L 783 230
L 783 230
L 783 230
L 783 230
L 783 230
L 783 230
L 783 230
L 783 230
L 783 230
L 783 230
L 783 230
L 783 230
L 783 230
L 783 230
L 783 230
L 783 230
L 783 230
L 783 230
L 783 230
L 783 230
L 783 229
L 783 229
L 783 229
L 783 229
L 783 229
L 783 229
L 783 229
L 783 229
L 783 229
L 783 229
L 783 229
L 783 229
L 783 229
L 783 229
L 783 229
L 783 229
L 783 229
L 783 229
L 783 229
L 783 229
L 783 229
L 783 229
L 783 229
L 783 228
L 783 228
L 783 228
L 783 228
L 783 228
L 783 228
L 783 228
L 783 228
L 783 228
L 783 228
L 783 228
L 783 228
L 783 228
L 783 228
L 783 228
L 783 228
L 783 228
L 783 228
L 783 228
L 783 228
L 783 228
L 783 228
L 783 228
L 783 227
L 783 227
L 783 227
L 783 227
L 783 227
L 783 227
L 783 227
L 783 227
L 783 227
L 783 227
L 783 227
L 783 227
L 783 227
L 783 227
L 783 227
L 783 227
L 783 227
L 783 227
L 783 227
L 783 227
L 783 227
L 783 227
L 783 227
L 783 227
L 783 226
L 783 226
L 783 226
L 783 226
L 783 226
L 783 226
L 783 226
L 783 226
L 783 226
L 783 226
L 783 226
L 783 226
L 783 226
L 783 226
L 783 226
L 783 226
L 783 226
L 783 226
L 783 226
L 783 226
L 783 226
L 783 226
L 783 226
L 783 225
L 783 225
L 783 225
L 783 225
L 783 225
L 783 225
L 783 225
L 783 225
L 783 225
L 783 225
L 783 225
L 783 225
L 783 225
L 783 225
L 783 225
L 783 225
L 783 225
L 783 225
L 783 225
L 783 225
L 783 225
L 783 225
L 783 225
L 783 224
L 783 224
L 783 224
L 783 224
L 783 224
L 783 224
L 783 224
L 783 224
L 783 224
L 783 224
L 783 224
L 783 224
L 783 224
L 783 224
L 783 224
L 783 224
L 783 224
L 783 224
L 783 224
L 783 224
L 783 224
L 783 224
L 783 224
L 783 223
L 783 223
L 783 223
L 783 223
L 783 223
L 783 223
L 783 223
L 783 223
L 783 223
L 783 223
L 783 223
L 783 223
L 783 223
L 783 223
L 783 223
L 783 223
L 783 223
L 783 223
L 783 223
L 783 223
L 783 223
L 783 223
L 783 223
L 783 223
L 783 222
L 783 222
L 783 222
L 783 222
L 783 222
L 783 222
L 783 222
L 783 222
L 783 222
L 783 222
L 783 222
L 783 222
L 783 222
L 783 222
L 783 222
L 783 222
L 783 222
L 783 222
L 783 222
L 783 222
L 783 222
L 783 222
L 783 222
L 783 221
L 783 221
L 783 221
L 783 221
L 783 221
L 783 221
L 783 221
L 783 221
L 783 221
L 783 221
L 783 221
L 783 221
L 783 221
L 783 221
L 783 221
L 783 221
L 783 221
L 783 221
L 783 221
L 783 221
L 783 221
L 783 221
L 783 221
L 783 220
L 783 220
L 783 220
L 783 220
L 783 220
L 783 220
L 783 220
L 783 220
L 783 220
L 784 220
L 784 220
L 784 220
L 784 220
L 784 220
L 784 220
L 784 220
L 784 220
L 784 220
L 784 220
L 784 220
L 784 220
L 784 220
L 784 220
L 784 219
L 784 219
L 784 219
L 784 219
L 784 219
L 784 219
L 784 219
L 784 219
L 784 219
L 784 219
L 784 219
L 784 219
L 784 219
L 784 219
L 784 219
L 784 219
L 784 219
L 784 219
L 784 219
L 784 219
L 784 219
L 784 219
L 784 219
L 784 219
L 784 218
L 784 218
L 784 218
L 784 218
L 784 218
L 784 218
L 784 218
L 784 218
L 784 218
L 784 218
L 784 218
L 784 218
L 784 218
L 784 218
L 784 218
L 784 218
L 784 218
L 784 218
L 784 218
L 784 218
L 784 218
L 784 218
L 784 218
L 784 217
L 784 217
L 784 217
L 784 217
L 784 217
L 784 217
L 784 217
L 784 217
L 784 217
L 784 217
L 784 217
L 784 217
L 784 217
L 784 217
L 784 217
L 784 217
L 784 217
L 784 217
L 784 217
L 784 217
L 784 217
L 784 217
L 784 217
L 784 216
L 784 216
L 784 216
L 784 216
L 784 216
L 784 216
L 784 216
L 784 216
L 784 216
L 784 216
L 784 216
L 784 216
L 784 216
L 784 216
L 784 216
L 784 216
L 784 216
L 784 216
L 784 216
L 784 216
L 784 216
L 784 216
L 784 216
L 784 215
L 784 215
L 784 215
L 784 215
L 784 215
L 784 215
L 784 215
L 784 215
L 784 215
L 784 215
L 784 215
L 784 215
L 784 215
L 784 215
L 784 215
L 784 215
L 784 215
L 784 215
L 784 215
L 784 215
L 784 215
L 784 215
L 784 215
L 784 215
L 784 214
L 784 214
L 784 214
L 784 214
L 784 214
L 784 214
L 784 214
L 784 214
L 784 214
L 784 214
L 784 214
L 784 214
L 784 214
L 784 214
L 784 214
L 784 214
L 784 214
L 784 214
L 784 214
L 784 214
L 784 214
L 784 214
L 784 214
L 784 213
L 784 213
L 784 213
L 784 213
L 784 213
L 784 213
L 784 213
L 784 213
L 784 213
L 784 213
L 784 213
L 784 213
L 784 213
L 784 213
L 784 213
L 784 213
L 784 213
L 784 213
L 784 213
L 784 213
L 784 213
L 784 213
L 784 213
L 784 212
L 784 212
L 784 212
L 784 212
L 784 212
L 784 212
L 784 212
L 784 212
L 784 212
L 784 212
L 784 212
L 784 212
L 784 212
L 784 212
L 784 212
L 784 212
L 784 212
L 784 212
L 784 212
L 784 212
L 784 212
L 784 212
L 784 212
L 784 211
L 784 211
L 784 211
L 784 211
L 784 211
L 784 211
L 784 211
L 784 211
L 784 211
L 784 211
L 784 211
L 784 211
L 784 211
L 784 211
L 784 211
L 784 211
L 784 211
L 784 211
L 784 211
L 784 211
L 784 211
L 784 211
L 784 211
L 784 210
L 784 210
L 784 210
L 784 210
L 784 210
L 784 210
L 784 210
L 784 210
L 784 210
L 784 210
L 784 210
L 784 210
L 784 210
L 784 210
L 784 210
L 784 210
L 784 210
L 784 210
L 784 210
L 784 210
L 784 210
L 784 210
L 784 210
L 784 210
L 784 209
L 784 209
L 784 209
L 784 209
L 784 209
L 784 209
L 784 209
L 784 209
L 784 209
L 784 209
L 784 209
L 784 209
L 784 209
L 784 209
L 784 209
L 784 209
L 784 209
L 784 209
L 784 209
L 784 209
L 784 209
L 784 209
L 784 209
L 784 208
L 784 208
L 784 208
L 784 208
L 784 208
L 784 208
L 784 208
L 784 208
L 784 208
L 784 208
L 784 208
L 784 208
L 784 208
L 784 208
L 784 208
L 784 208
L 784 208
L 784 208
L 784 208
L 784 208
L 784 208
L 784 208
L 784 208
L 784 207
L 784 207
L 784 207
L 784 207
L 784 207
L 784 207
L 784 207
L 784 207
L 784 207
L 784 207
L 784 207
L 784 207
L 784 207
L 784 207
L 784 207
L 784 207
L 784 207
L 784 207
L 784 207
L 784 207
L 784 207
L 784 207
L 784 207
L 784 206
L 784 206
L 784 206
L 784 206
L 784 206
L 784 206
L 784 206
L 784 206
L 784 206
L 784 206
L 784 206
L 784 206
L 784 206
L 784 206
L 784 206
L 784 206
L 784 206
L 784 206
L 784 206
L 784 206
L 784 206
L 784 206
L 784 206
L 784 206
L 784 205
L 784 205
L 784 205
L 784 205
L 784 205
L 784 205
L 784 205
L 784 205
L 784 205
L 784 205
L 784 205
L 784 205
L 784 205
L 784 205
L 784 205
L 784 205
L 784 205
L 784 205
L 784 205
L 784 205
L 784 205
L 784 205
L 784 205
L 784 204
L 784 204
L 784 204
L 784 204
L 784 204
L 784 204
L 784 204
L 784 204
L 785 204
L 785 204
L 785 204
L 785 204
L 785 204
L 785 204
L 785 204
L 785 204
L 785 204
L 785 204
L 785 204
L 785 204
L 785 204
L 785 204
L 785 204
L 785 203
L 785 203
L 785 203
L 785 203
L 785 203
L 785 203
L 785 203
L 785 203
L 785 203
L 785 203
L 785 203
L 785 203
L 785 203
L 785 203
L 785 203
L 785 203
L 785 203
L 785 203
L 785 203
L 785 203
L 785 203
L 785 203
L 785 203
L 785 202
L 785 202
L 785 202
L 785 202
L 785 202
L 785 202
L 785 202
L 785 202
L 785 202
L 785 202
L 785 202
L 785 202
L 785 202
L 785 202
L 785 202
L 785 202
L 785 202
L 785 202
L 785 202
L 785 202
L 785 202
L 785 202
L 785 202
L 785 202
L 785 201
L 785 201
L 785 201
L 785 201
L 785 201
L 785 201
L 785 201
L 785 201
L 785 201
L 785 201
L 785 201
L 785 201
L 785 201
L 785 201
L 785 201
L 785 201
L 785 201
L 785 201
L 785 201
L 785 201
L 785 201
L 785 201
L 785 201
L 785 200
L 785 200
L 785 200
L 785 200
L 785 200
L 785 200
L 785 200
L 785 200
L 785 200
L 785 200
L 785 200
L 785 200
L 785 200
L 785 200
L 785 200
L 785 200
L 785 200
L 785 200
L 785 200
L 785 200
L 785 200
L 785 200
L 785 200
L 785 199
L 785 199
L 785 199
L 785 199
L 785 199
L 785 199
L 785 199
L 785 199
L 785 199
L 785 199
L 785 199
L 785 199
L 785 199
L 785 199
L 785 199
L 785 199
L 785 199
L 785 199
L 785 199
L 785 199
L 785 199
L 785 199
L 785 199
L 785 198
L 785 198
L 785 198
L 785 198
L 785 198
L 785 198
L 785 198
L 785 198
L 785 198
L 785 198
L 785 198
L 785 198
L 785 198
L 785 198
L 785 198
L 785 198
L 785 198
L 785 198
L 785 198
L 785 198
L 785 198
L 785 198
L 785 198
L 785 198
L 785 197
L 785 197
L 785 197
L 785 197
L 785 197
L 785 197
L 785 197
L 785 197
L 785 197
L 785 197
L 785 197
L 785 197
L 785 197
L 785 197
L 785 197
L 785 197
L 785 197
L 785 197
L 785 197
L 785 197
L 785 197
L 785 197
L 785 197
L 785 196
L 785 196
L 785 196
L 785 196
L 785 196
L 785 196
L 786 196
L 786 196
L 786 196
L 786 196
L 786 196
L 786 196
L 786 196
L 786 196
L 786 196
L 786 196
L 786 196
L 786 196
L 786 196
L 786 196
L 786 196
L 786 196
L 786 196
L 786 195
L 786 195
L 786 195
L 786 195
L 786 195
L 786 195
L 786 195
L 786 195
L 786 195
L 786 195
L 786 195
L 786 195
L 786 195
L 786 195
L 786 195
L 786 195
L 786 195
L 786 195
L 786 195
L 786 195
L 786 195
L 786 195
L 786 195
L 786 194
L 786 194
L 786 194
L 786 194
L 786 194
L 786 194
L 786 194
L 786 194
L 786 194
L 786 194
L 786 194
L 786 194
L 786 194
L 786 194
L 786 194
L 786 194
L 786 194
L 786 194
L 786 194
L 786 194
L 786 194
L 786 194
L 786 194
L 786 193
L 786 193
L 786 193
L 786 193
L 786 193
L 786 193
L 786 193
L 786 193
L 786 193
L 786 193
L 786 193
L 786 193
L 786 193
L 786 193
L 786 193
L 786 193
L 786 193
L 786 193
L 786 193
L 786 193
L 786 193
L 786 193
L 787 193
L 787 193
L 787 192
L 787 192
L 787 192
L 787 192
L 787 192
L 787 192
L 787 192
L 787 192
L 787 192
L 787 192
L 787 192
L 787 192
L 788 192
L 788 192
L 788 192
L 788 192
L 788 192
L 788 192
L 788 192
L 788 192
L 788 192
L 788 192
L 788 192
L 788 191
L 788 191
L 788 191
L 788 191
L 788 191
L 788 191
L 788 191
L 788 191
L 788 191
L 788 191
L 788 191
L 788 191
L 788 191
L 788 191
L 789 191
L 789 191
L 789 191
L 789 191
L 789 191
L 789 191
L 789 191
L 789 191
L 789 191
L 789 190
L 789 190
L 789 190
L 789 190
L 789 190
L 789 190
L 789 190
L 789 190
L 789 190
L 789 190
L 789 190
L 789 190
L 789 190
L 789 190
L 789 190
L 789 190
L 789 190
L 789 190
L 790 190
L 790 190
L 790 190
L 790 190
L 790 190
L 790 189
L 790 189
L 790 189
L 790 189
L 790 189
L 790 189
L 790 189
L 790 189
L 790 189
L 790 189
L 790 189
L 790 189
L 790 189
L 790 189
L 790 189
L 790 189
L 790 189
L 790 189
L 790 189
L 790 189
L 790 189
L 790 189
L 790 189
L 791 189
L 791 188
L 791 188
L 791 188
L 791 188
L 791 188
L 791 188
L 791 188
L 791 188
L 791 188
L 791 188
L 791 188
L 791 188
L 791 188
L 791 188
L 791 188
L 791 188
L 791 188
L 791 188
L 791 188
L 791 188
L 792 188
L 792 188
L 792 188
L 792 187
L 792 187
L 792 187
L 792 187
L 792 187
L 792 187
L 792 187
L 792 187
L 792 187
L 792 187
L 792 187
L 792 187
L 792 187
L 792 187
L 792 187
L 792 187
L 792 187
L 792 187
L 792 187
L 792 187
L 792 187
L 792 187
L 792 187
L 792 186
L 792 186
L 792 186
L 792 186
L 793 186
L 793 186
L 793 186
L 793 186
L 793 186
L 793 186
L 793 186
L 793 186
L 793 186
L 793 186
L 793 186
L 793 186
L 793 186
L 793 186
L 793 186
L 793 186
L 793 186
L 793 186
L 793 186
L 793 185
L 793 185
L 793 185
L 793 185
L 793 185
L 794 185
L 794 185
L 794 185
L 794 185
L 794 185
L 794 185
L 794 185
L 794 185
L 794 185
L 794 185
L 794 185
L 794 185
L 794 185
L 794 185
L 794 185
L 795 185
L 795 185
L 795 185
L 795 185
L 795 184
L 795 184
L 795 184
L 795 184
L 795 184
L 795 184
L 795 184
L 795 184
L 795 184
L 795 184
L 795 184
L 795 184
L 795 184
L 795 184
L 795 184
L 795 184
L 795 184
L 795 184
L 795 184
L 795 184
L 795 184
L 795 184
L 795 184
L 796 183
L 796 183
L 796 183
L 796 183
L 796 183
L 796 183
L 796 183
L 796 183
L 796 183
L 796 183
L 797 183
L 797 183
L 797 183
L 797 183
L 797 183
L 797 183
L 797 183
L 797 183
L 797 183
L 797 183
L 797 183
L 797 183
L 797 183
L 797 182
L 798 182
L 798 182
L 798 182
L 798 182
L 798 182
L 798 182
L 798 182
L 798 182
L 798 182
L 798 182
L 798 182
L 798 182
L 798 182
L 798 182
L 798 182
L 798 182
L 798 182
L 798 182
L 798 182
L 798 182
L 798 182
L 798 182
L 798 181
L 799 181
L 799 181
L 799 181
L 799 181
L 799 181
L 799 181
L 799 181
L 799 181
L 799 181
L 799 181
L 799 181
L 799 181
L 799 181
L 799 181
L 799 181
L 799 181
L 799 181
L 799 181
L 799 181
L 799 181
L 799 181
L 799 181
L 799 181
L 799 180
L 800 180
L 800 180
L 800 180
L 800 180
L 800 180
L 800 180
L 800 180
L 800 180
L 801 180
L 801 180
L 801 180
L 801 180
L 801 180
L 801 180
L 801 180
L 801 180
L 801 180
L 801 180
L 801 180
L 801 180
L 802 180
L 802 180
L 802 179
L 802 179
L 802 179
L 802 179
L 802 179
L 802 179
L 802 179
L 802 179
L 803 179
L 803 179
L 803 179
L 803 179
L 803 179
L 803 179
L 803 179
L 803 179
L 803 179
L 803 179
L 803 179
L 803 179
L 803 179
L 803 179
L 803 179
L 803 178
L 803 178
L 803 178
L 803 178
L 803 178
L 803 178
L 803 178
L 803 178
L 803 178
L 803 178
L 803 178
L 803 178
L 803 178
L 803 178
L 803 178
L 803 178
L 803 178
L 803 178
L 803 178
L 803 178
L 803 178
L 803 178
L 803 178
L 803 177
L 803 177
L 803 177
L 804 177
L 804 177
L 804 177
L 804 177
L 804 177
L 804 177
L 804 177
L 804 177
L 804 177
L 804 177
L 804 177
L 804 177
L 804 177
L 804 177
L 804 177
L 804 177
L 804 177
L 804 177
L 804 177
L 804 177
L 804 176
L 804 176
L 804 176
L 804 176
L 804 176
L 804 176
L 804 176
L 804 176
L 804 176
L 804 176
L 804 176
L 804 176
L 804 176
L 804 176
L 804 176
L 804 176
L 804 176
L 804 176
L 804 176
L 804 176
L 804 176
L 804 176
L 804 176
L 804 176
L 804 175
L 804 175
L 804 175
L 804 175
L 804 175
L 804 175
L 804 175
L 804 175
L 804 175
L 804 175
L 804 175
L 804 175
L 804 175
L 804 175
L 804 175
L 804 175
L 804 175
L 804 175
L 804 175
L 804 175
L 804 175
L 804 175
L 804 175
L 804 174
L 804 174
L 804 174
L 804 174
L 804 174
L 804 174
L 804 174
L 804 174
L 804 174
L 804 174
L 804 174
L 804 174
L 804 174
L 804 174
L 804 174
L 804 174
L 804 174
L 804 174
L 804 174
L 804 174
L 804 174
L 804 174
L 804 174
L 804 173
L 804 173
L 804 173
L 804 173
L 804 173
L 804 173
L 804 173
L 804 173
L 804 173
L 804 173
L 805 173
L 805 173
L 805 173
L 805 173
L 805 173
L 805 173
L 805 173
L 805 173
L 805 173
L 805 173
L 805 173
L 805 173
L 805 173
L 805 172
L 805 172
L 805 172
L 805 172
L 805 172
L 805 172
L 805 172
L 805 172
L 805 172
L 805 172
L 805 172
L 805 172
L 805 172
L 805 172
L 805 172
L 805 172
L 805 172
L 805 172
L 805 172
L 805 172
L 805 172
L 805 172
L 805 172
L 805 172
L 805 171
L 805 171
L 805 171
L 805 171
L 805 171
L 805 171
L 805 171
L 805 171
L 805 171
L 805 171
L 805 171
L 805 171
L 805 171
L 805 171
L 805 171
L 805 171
L 805 171
L 805 171
L 805 171
L 805 171
L 805 171
L 805 171
L 805 171
L 805 170
L 805 170
L 805 170
L 805 170
L 805 170
L 805 170
L 805 170
L 805 170
L 805 170
L 805 170
L 805 170
L 805 170
L 805 170
L 805 170
L 805 170
L 805 170
L 805 170
L 805 170
L 805 170
L 805 170
L 805 170
L 805 170
L 805 170
L 805 169
L 805 169
L 805 169
L 805 169
L 805 169
L 805 169
L 805 169
L 805 169
L 805 169
L 805 169
L 805 169
L 805 169
L 805 169
L 805 169
L 805 169
L 805 169
L 805 169
L 805 169
L 805 169
L 805 169
L 805 169
L 805 169
L 805 169
L 805 168
L 805 168
L 805 168
L 805 168
L 805 168
L 805 168
L 805 168
L 805 168
L 805 168
L 805 168
L 805 168
L 805 168
L 805 168
L 805 168
L 805 168
L 805 168
L 805 168
L 805 168
L 805 168
L 805 168
L 805 168
L 805 168
L 805 168
L 805 168
L 805 167
L 805 167
L 805 167
L 805 167
L 805 167
L 805 167
L 805 167
L 805 167
L 805 167
L 805 167
L 805 167
L 805 167
L 805 167
L 805 167
L 805 167
L 805 167
L 805 167
L 805 167
L 805 167
L 805 167
L 805 167
L 805 167
L 805 167
L 805 166
L 805 166
L 805 166
L 805 166
L 805 166
L 805 166
L 805 166
L 805 166
L 805 166
L 805 166
L 805 166
L 805 166
L 805 166
L 805 166
L 805 166
L 805 166
L 805 166
L 805 166
L 805 166
L 805 166
L 805 166
L 805 166
L 805 166
L 805 165
L 805 165
L 805 165
L 805 165
L 805 165
L 805 165
L 805 165
L 805 165
L 805 165
L 805 165
L 805 165
L 805 165
L 805 165
L 805 165
L 805 165
L 805 165
L 805 165
L 805 165
L 805 165
L 805 165
L 805 165
L 805 165
L 805 165
L 805 164
L 805 164
L 805 164
L 805 164
L 805 164
L 805 164
L 805 164
L 805 164
L 805 164
L 805 164
L 805 164
L 805 164
L 805 164
L 805 164
L 805 164
L 805 164
L 805 164
L 805 164
L 805 164
L 805 164
L 805 164
L 805 164
L 805 164
L 805 163
L 805 163
L 805 163
L 805 163
L 805 163
L 805 163
L 805 163
L 805 163
L 805 163
L 805 163
L 805 163
L 805 163
L 805 163
L 805 163
L 805 163
L 805 163
L 805 163
L 805 163
L 805 163
L 805 163
L 805 163
L 805 163
L 805 163
L 805 163
L 805 162
L 805 162
L 805 162
L 805 162
L 805 162
L 805 162
L 805 162
L 805 162
L 805 162
L 805 162
L 805 162
L 805 162
L 805 162
L 805 162
L 805 162
L 805 162
L 805 162
L 805 162
L 805 162
L 805 162
L 805 162
L 805 162
L 805 162
L 805 161
L 805 161
L 805 161
L 805 161
L 805 161
L 805 161
L 805 161
L 805 161
L 805 161
L 805 161
L 805 161
L 805 161
L 805 161
L 805 161
L 805 161
L 805 161
L 805 161
L 805 161
L 805 161
L 805 161
L 805 161
L 805 161
L 805 161
L 805 160
L 805 160
L 805 160
L 805 160
L 805 160
L 805 160
L 805 160
L 805 160
L 805 160
L 805 160
L 805 160
L 805 160
L 805 160
L 805 160
L 805 160
L 805 160
L 805 160
L 805 160
L 805 160
L 805 160
L 805 160
L 805 160
L 805 160
L 805 159
L 805 159
L 805 159
L 805 159
L 805 159
L 805 159
L 805 159
L 805 159
L 805 159
L 805 159
L 805 159
L 805 159
L 805 159
L 805 159
L 805 159
L 805 159
L 805 159
L 805 159
L 805 159
L 805 159
L 805 159
L 805 159
L 805 159
L 805 159
L 805 158
L 805 158
L 805 158
L 805 158
L 805 158
L 805 158
L 805 158
L 805 158
L 805 158
L 805 158
L 805 158
L 805 158
L 805 158
L 805 158
L 805 158
L 805 158
L 805 158
L 805 158
L 805 158
L 805 158
L 805 158
L 805 158
L 805 158
L 805 157
L 805 157
L 805 157
L 805 157
L 805 157
L 805 157
L 805 157
L 805 157
L 805 157
L 805 157
L 805 157
L 805 157
L 805 157
L 805 157
L 805 157
L 805 157
L 805 157
L 805 157
L 805 157
L 805 157
L 805 157
L 806 157
L 806 157
L 806 156
L 806 156
L 806 156
L 806 156
L 806 156
L 806 156
L 806 156
L 806 156
L 806 156
L 806 156
L 806 156
L 806 156
L 806 156
L 806 156
L 806 156
L 806 156
L 806 156
L 806 156
L 806 156
L 806 156
L 806 156
L 806 156
L 806 156
L 806 155
L 806 155
L 806 155
L 806 155
L 806 155
L 806 155
L 806 155
L 806 155
L 806 155
L 806 155
L 806 155
L 806 155
L 806 155
L 806 155
L 806 155
L 806 155
L 806 155
L 806 155
L 806 155
L 806 155
L 806 155
L 806 155
L 806 155
L 806 155
L 806 154
L 806 154
L 806 154
L 806 154
L 806 154
L 806 154
L 806 154
L 806 154
L 806 154
L 806 154
L 806 154
L 806 154
L 806 154
L 806 154
L 806 154
L 806 154
L 806 154
L 806 154
L 806 154
L 806 154
L 806 154
L 806 154
L 806 154
L 806 153
L 806 153
L 806 153
L 806 153
L 806 153
L 806 153
L 806 153
L 806 153
L 806 153
L 806 153
L 806 153
L 806 153
L 806 153
L 806 153
L 806 153
L 806 153
L 806 153
L 806 153
L 806 153
L 806 153
L 806 153
L 806 153
L 806 153
L 806 152
L 806 152
L 806 152
L 806 152
L 806 152
L 806 152
L 806 152
L 806 152
L 806 152
L 806 152
L 806 152
L 806 152
L 806 152
L 806 152
L 806 152
L 806 152
L 806 152
L 806 152
L 806 152
L 806 152
L 806 152
L 806 152
L 806 152
L 806 151
L 806 151
L 806 151
L 806 151
L 806 151
L 806 151
L 806 151
L 806 151
L 806 151
L 806 151
L 806 151
L 806 151
L 806 151
L 806 151
L 806 151
L 806 151
L 806 151
L 806 151
L 806 151
L 806 151
L 806 151
L 806 151
L 806 151
L 806 151
L 806 150
L 806 150
L 806 150
L 806 150
L 806 150
L 806 150
L 806 150
L 806 150
L 806 150
L 806 150
L 806 150
L 806 150
L 806 150
L 806 150
L 806 150
L 806 150
L 806 150
L 806 150
L 806 150
L 806 150
L 806 150
L 806 150
L 806 150
L 806 149
L 806 149
L 806 149
L 806 149
L 806 149
L 806 149
L 806 149
L 806 149
L 806 149
L 806 149
L 806 149
L 806 149
L 806 149
L 806 149
L 806 149
L 806 149
L 806 149
L 806 149
L 806 149
L 806 149
L 806 149
L 806 149
L 806 149
L 806 148
L 806 148
L 806 148
L 806 148
L 806 148
L 806 148
L 806 148
L 806 148
L 806 148
L 806 148
L 806 148
L 806 148
L 806 148
L 806 148
L 806 148
L 806 148
L 806 148
L 806 148
L 806 148
L 806 148
L 806 148
L 806 148
L 806 148
L 806 147
L 806 147
L 806 147
L 806 147
L 806 147
L 806 147
L 806 147
L 806 147
L 806 147
L 806 147
L 806 147
L 806 147
L 806 147
L 806 147
L 806 147
L 806 147
L 806 147
L 806 147
L 806 147
L 806 147
L 806 147
L 806 147
L 806 147
L 806 147
L 806 146
L 806 146
L 806 146
L 806 146
L 806 146
L 806 146
L 806 146
L 806 146
L 806 146
L 806 146
L 806 146
L 806 146
L 806 146
L 806 146
L 806 146
L 806 146
L 806 146
L 806 146
L 806 146
L 806 146
L 806 146
L 806 146
L 806 146
L 806 145
L 806 145
L 806 145
L 806 145
L 806 145
L 806 145
L 806 145
L 806 145
L 806 145
L 806 145
L 806 145
L 806 145
L 806 145
L 806 145
L 806 145
L 806 145
L 806 145
L 806 145
L 806 145
L 806 145
L 806 145
L 806 145
L 806 145
L 806 144
L 806 144
L 806 144
L 806 144
L 806 144
L 806 144
L 806 144
L 806 144
L 806 144
L 806 144
L 806 144
L 806 144
L 806 144
L 806 144
L 806 144
L 806 144
L 806 144
L 806 144
L 806 144
L 806 144
L 806 144
L 806 144
L 806 144
L 806 143
L 806 143
L 806 143
L 806 143
L 806 143
L 806 143
L 806 143
L 806 143
L 806 143
L 806 143
L 806 143
L 806 143
L 806 143
L 806 143
L 806 143
L 806 143
L 806 143
L 806 143
L 806 143
L 806 143
L 806 143
L 806 143
L 806 143
L 806 142
L 806 142
L 806 142
L 806 142
L 806 142
L 806 142
L 806 142
L 806 142
L 806 142
L 806 142
L 806 142
L 806 142
L 806 142
L 806 142
L 806 142
L 806 142
L 806 142
L 806 142
L 806 142
L 806 142
L 806 142
L 806 142
L 806 142
L 806 142
L 806 141
L 806 141
L 806 141
L 806 141
L 806 141
L 806 141
L 806 141
L 806 141
L 806 141
L 806 141
L 806 141
L 806 141
L 806 141
L 806 141
L 806 141
L 806 141
L 806 141
L 806 141
L 806 141
L 807 141
L 807 141
L 807 141
L 807 141
L 807 140
L 807 140
L 807 140
L 807 140
L 807 140
L 807 140
L 807 140
L 807 140
L 807 140
L 807 140
L 807 140
L 807 140
L 807 140
L 807 140
L 807 140
L 807 140
L 807 140
L 807 140
L 807 140
L 807 140
L 807 140
L 807 140
L 807 140
L 807 139
L 807 139
L 807 139
L 807 139
L 807 139
L 807 139
L 807 139
L 807 139
L 807 139
L 807 139
L 807 139
L 807 139
L 807 139
L 807 139
L 807 139
L 807 139
L 807 139
L 807 139
L 807 139
L 807 139
L 807 139
L 807 139
L 807 139
L 807 138
L 807 138
L 807 138
L 807 138
L 807 138
L 807 138
L 807 138
L 807 138
L 807 138
L 807 138
L 807 138
L 807 138
L 807 138
L 807 138
L 807 138
L 807 138
L 807 138
L 807 138
L 807 138
L 807 138
L 807 138
L 807 138
L 807 138
L 807 138
L 807 137
L 807 137
L 807 137
L 807 137
L 807 137
L 807 137
L 807 137
L 807 137
L 807 137
L 807 137
L 807 137
L 807 137
L 807 137
L 807 137
L 807 137
L 807 137
L 807 137
L 807 137
L 807 137
L 807 137
L 807 137
L 807 137
L 807 137
L 807 136
L 807 136
L 807 136
L 807 136
L 807 136
L 807 136
L 807 136
L 807 136
L 807 136
L 807 136
L 807 136
L 807 136
L 807 136
L 807 136
L 807 136
L 807 136
L 807 136
L 807 136
L 807 136
L 807 136
L 807 136
L 807 136
L 807 136
L 807 135
L 807 135
L 807 135
L 807 135
L 807 135
L 807 135
L 807 135
L 807 135
L 807 135
L 807 135
L 807 135
L 807 135
L 807 135
L 807 135
L 807 135
L 807 135
L 807 135
L 807 135
L 807 135
L 807 135
L 807 135
L 807 135
L 807 135
L 807 134
L 807 134
L 807 134
L 807 134
L 807 134
L 807 134
L 807 134
L 807 134
L 807 134
L 807 134
L 807 134
L 807 134
L 807 134
L 807 134
L 807 134
L 807 134
L 807 134
L 807 134
L 807 134
L 807 134
L 807 134
L 807 134
L 807 134
L 807 134
L 807 133
L 807 133
L 807 133
L 807 133
L 807 133
L 807 133
L 807 133
L 807 133
L 807 133
L 807 133
L 807 133
L 807 133
L 807 133
L 807 133
L 807 133
L 807 133
L 807 133
L 807 133
L 807 133
L 807 133
L 807 133
L 807 133
L 807 133
L 807 132
L 807 132
L 807 132
L 807 132
L 807 132
L 807 132
L 807 132
L 807 132
L 807 132
L 807 132
L 807 132
L 807 132
L 807 132
L 807 132
L 807 132
L 807 132
L 807 132
L 807 132
L 807 132
L 807 132
L 807 132
L 807 132
L 807 132
L 808 131
L 808 131
L 808 131
L 808 131
L 808 131
L 808 131
L 808 131
L 808 131
L 808 131
L 808 131
L 808 131
L 808 131
L 808 131
L 808 131
L 808 131
L 808 131
L 808 131
L 808 131
L 808 131
L 808 131
L 808 131
L 808 131
L 808 131
L 808 130
L 808 130
L 808 130
L 808 130
L 808 130
L 808 130
L 808 130
L 808 130
L 808 130
L 808 130
L 808 130
L 808 130
L 808 130
L 808 130
L 808 130
L 808 130
L 808 130
L 808 130
L 808 130
L 808 130
L 808 130
L 808 130
L 808 130
L 808 130
L 808 129
L 808 129
L 808 129
L 808 129
L 808 129
L 808 129
L 808 129
L 808 129
L 808 129
L 808 129
L 808 129
L 808 129
L 808 129
L 808 129
L 808 129
L 808 129
L 808 129
L 808 129
L 808 129
L 808 129
L 808 129
L 808 129
L 808 129
L 808 128
L 808 128
L 808 128
L 808 128
L 808 128
L 808 128
L 808 128
L 808 128
L 808 128
L 808 128
L 808 128
L 808 128
L 808 128
L 808 128
L 808 128
L 808 128
L 808 128
L 808 128
L 808 128
L 808 128
L 808 128
L 808 128
L 808 128
L 808 127
L 808 127
L 808 127
L 808 127
L 808 127
L 808 127
L 808 127
L 808 127
L 808 127
L 808 127
L 808 127
L 808 127
L 808 127
L 808 127
L 808 127
L 808 127
L 808 127
L 808 127
L 808 127
L 808 127
L 808 127
L 808 127
L 808 127
L 808 126
L 808 126
L 808 126
L 809 126
L 809 126
L 809 126
L 809 126
L 809 126
L 809 126
L 809 126
L 809 126
L 809 126
L 809 126
L 809 126
L 809 126
L 809 126
L 809 126
L 809 126
L 809 126
L 809 126
L 809 126
L 809 126
L 809 126
L 809 125
L 809 125
L 809 125
L 809 125
L 809 125
L 809 125
L 809 125
L 809 125
L 809 125
L 809 125
L 809 125
L 809 125
L 809 125
L 809 125
L 809 125
L 809 125
L 809 125
L 809 125
L 809 125
L 809 125
L 809 125
L 809 125
L 809 125
L 809 125
L 809 124
L 809 124
L 809 124
L 809 124
L 809 124
L 809 124
L 809 124
L 809 124
L 809 124
L 809 124
L 809 124
L 809 124
L 809 124
L 809 124
L 809 124
L 809 124
L 809 124
L 809 124
L 809 124
L 809 124
L 809 124
L 809 124
L 809 124
L 809 123
L 809 123
L 809 123
L 810 123
L 810 123
L 810 123
L 810 123
L 810 123
L 810 123
L 810 123
L 810 123
L 810 123
L 810 123
L 810 123
L 810 123
L 810 123
L 810 123
L 810 123
L 810 123
L 810 123
L 810 123
L 810 123
L 810 123
L 810 122
L 810 122
L 810 122
L 810 122
L 810 122
L 810 122
L 810 122
L 810 122
L 810 122
L 810 122
L 810 122
L 810 122
L 810 122
L 810 122
L 810 122
L 810 122
L 810 122
L 810 122
L 810 122
L 810 122
L 810 122
L 810 122
L 810 122
L 810 121
L 810 121
L 810 121
L 810 121
L 810 121
L 810 121
L 810 121
L 810 121
L 810 121
L 810 121
L 810 121
L 810 121
L 810 121
L 810 121
L 810 121
L 810 121
L 810 121
L 810 121
L 810 121
L 810 121
L 810 121
L 810 121
L 810 121
L 810 121
L 810 120
L 810 120
L 810 120
L 810 120
L 810 120
L 810 120
L 810 120
L 810 120
L 810 120
L 811 120
L 811 120
L 811 120
L 811 120
L 811 120
L 811 120
L 811 120
L 811 120
L 811 120
L 811 120
L 811 120
L 811 120
L 811 120
L 811 120
L 811 119
L 811 119
L 811 119
L 811 119
L 811 119
L 811 119
L 811 119
L 811 119
L 811 119
L 811 119
L 811 119
L 811 119
L 811 119
L 811 119
L 811 119
L 811 119
L 811 119
L 811 119
L 811 119
L 811 119
L 811 119
L 811 119
L 811 119
L 812 118
L 812 118
L 812 118
L 812 118
L 812 118
L 812 118
L 812 118
L 812 118
L 812 118
L 812 118
L 812 118
L 812 118
L 812 118
L 812 118
L 812 118
L 812 118
L 812 118
L 812 118
L 812 118
L 812 118
L 812 118
L 812 118
L 812 118
L 812 117
L 812 117
L 812 117
L 812 117
L 812 117
L 812 117
L 812 117
L 812 117
L 812 117
L 812 117
L 813 117
L 813 117
L 813 117
L 813 117
L 813 117
L 813 117
L 813 117
L 813 117
L 813 117
L 813 117
L 813 117
L 813 117
L 813 117
L 813 117
L 813 116
L 813 116
L 814 116
L 814 116
L 814 116
L 814 116
L 814 116
L 814 116
L 814 116
L 814 116
L 814 116
L 814 116
L 814 116
L 814 116
L 814 116
L 814 116
L 814 116
L 814 116
L 814 116
L 814 116
L 814 116
L 814 116
L 814 116
L 814 115
L 814 115
L 814 115
L 814 115
L 814 115
L 814 115
L 814 115
L 814 115
L 814 115
L 814 115
L 814 115
L 815 115
L 815 115
L 815 115
L 815 115
L 815 115
L 815 115
L 815 115
L 815 115
L 815 115
L 815 115
L 815 115
L 815 115
L 815 114
L 815 114
L 815 114
L 815 114
L 815 114
L 815 114
L 815 114
L 815 114
L 815 114
L 815 114
L 815 114
L 815 114
L 816 114
L 816 114
L 816 114
L 816 114
L 816 114
L 816 114
L 816 114
L 816 114
L 816 114
L 816 114
L 816 114
L 816 113
L 816 113
L 816 113
L 816 113
L 816 113
L 816 113
L 816 113
L 816 113
L 816 113
L 816 113
L 816 113
L 816 113
L 816 113
L 816 113
L 817 113
L 817 113
L 817 113
L 817 113
L 817 113
L 817 113
L 817 113
L 817 113
L 817 113
L 817 113
L 817 112
L 817 112
L 817 112
L 817 112
L 817 112
L 817 112
L 817 112
L 817 112
L 817 112
L 817 112
L 817 112
L 817 112
L 817 112
L 817 112
L 817 112
L 817 112
L 817 112
L 817 112
L 817 112
L 817 112
L 817 112
L 818 112
L 818 112
L 818 111
L 818 111
L 818 111
L 818 111
L 818 111
L 818 111
L 818 111
L 818 111
L 818 111
L 818 111
L 818 111
L 818 111
L 819 111
L 819 111
L 819 111
L 819 111
L 819 111
L 819 111
L 819 111
L 819 111
L 819 111
L 819 111
L 819 111
L 819 110
L 820 110
L 820 110
L 820 110
L 820 110
L 820 110
L 820 110
L 820 110
L 820 110
L 820 110
L 820 110
L 820 110
L 820 110
L 820 110
L 820 110
L 820 110
L 820 110
L 820 110
L 820 110
L 820 110
L 820 110
L 820 110
L 820 110
L 821 109
L 821 109
L 821 109
L 821 109
L 821 109
L 821 109
L 821 109
L 821 109
L 821 109
L 821 109
L 821 109
L 821 109
L 821 109
L 821 109
L 821 109
L 821 109
L 821 109
L 821 109
L 821 109
L 821 109
L 821 109
L 821 109
L 821 109
L 821 108
L 821 108
L 821 108
L 821 108
L 821 108
L 821 108
L 821 108
L 821 108
L 821 108
L 821 108
L 821 108
L 821 108
L 821 108
L 821 108
L 821 108
L 821 108
L 822 108
L 822 108
L 822 108
L 822 108
L 822 108
L 822 108
L 822 108
L 822 108
L 822 107
L 822 107
L 822 107
L 822 107
L 822 107
L 822 107
L 822 107
L 822 107
L 822 107
L 822 107
L 822 107
L 822 107
L 822 107
L 822 107
L 822 107
L 822 107
L 822 107
L 822 107
L 822 107
L 822 107
L 822 107
L 822 107
L 822 107
L 822 106
L 822 106
L 822 106
L 822 106
L 822 106
L 822 106
L 822 106
L 822 106
L 822 106
L 822 106
L 822 106
L 822 106
L 822 106
L 822 106
L 823 106
L 823 106
L 823 106
L 823 106
L 823 106
L 823 106
L 823 106
L 823 106
L 823 106
L 823 105
L 823 105
L 823 105
L 823 105
L 823 105
L 823 105
L 823 105
L 823 105
L 823 105
L 823 105
L 823 105
L 823 105
L 823 105
L 823 105
L 823 105
L 823 105
L 823 105
L 823 105
L 823 105
L 823 105
L 823 105
L 823 105
L 823 105
L 823 104
L 823 104
L 823 104
L 823 104
L 823 104
L 823 104
L 823 104
L 823 104
L 823 104
L 823 104
L 823 104
L 823 104
L 823 104
L 823 104
L 823 104
L 824 104
L 824 104
L 824 104
L 824 104
L 824 104
L 824 104
L 824 104
L 824 104
L 824 104
L 824 103
L 824 103
L 824 103
L 824 103
L 824 103
L 824 103
L 824 103
L 824 103
L 824 103
L 824 103
L 824 103
L 824 103
L 824 103
L 825 103
L 825 103
L 825 103
L 825 103
L 825 103
L 825 103
L 825 103
L 825 103
L 825 103
L 825 103
L 825 102
L 825 102
L 825 102
L 825 102
L 825 102
L 825 102
L 825 102
L 825 102
L 825 102
L 825 102
L 825 102
L 825 102
L 825 102
L 825 102
L 825 102
L 825 102
L 825 102
L 825 102
L 825 102
L 825 102
L 825 102
L 825 102
L 825 102
L 825 101
L 825 101
L 825 101
L 825 101
L 825 101
L 825 101
L 826 101
L 826 101
L 826 101
L 826 101
L 826 101
L 826 101
L 826 101
L 826 101
L 826 101
L 826 101
L 826 101
L 826 101
L 826 101
L 826 101
L 826 101
L 826 101
L 826 101
L 826 100
L 826 100
L 826 100
L 826 100
L 827 100
L 827 100
L 827 100
L 827 100
L 827 100
L 827 100
L 827 100
L 827 100
L 827 100
L 827 100
L 827 100
L 827 100
L 827 100
L 827 100
L 827 100
L 827 100
L 827 100
L 827 100
L 827 100
L 827 100
L 827 99
L 827 99
L 827 99
L 827 99
L 827 99
L 827 99
L 827 99
L 827 99
L 827 99
L 827 99
L 827 99
L 827 99
L 828 99
L 828 99
L 828 99
L 828 99
L 828 99
L 828 99
L 828 99
L 828 99
L 828 99
L 828 99
L 828 99
L 828 98
L 828 98
L 828 98
L 828 98
L 828 98
L 828 98
L 828 98
L 828 98
L 829 98
L 829 98
L 829 98
L 829 98
L 829 98
L 830 98
L 830 98
L 830 98
L 830 98
L 830 98
L 830 98
L 830 98
L 830 98
L 831 98
L 831 98
L 831 97
L 831 97
L 831 97
L 831 97
L 831 97
L 831 97
L 831 97
L 831 97
L 831 97
L 831 97
L 831 97
L 832 97
L 832 97
L 832 97
L 832 97
L 832 97
L 832 97
L 832 97
L 832 97
L 832 97
L 832 97
L 832 97
L 832 97
L 832 96
L 832 96
L 833 96
L 833 96
L 833 96
L 833 96
L 833 96
L 833 96
L 833 96
L 833 96
L 833 96
L 833 96
L 833 96
L 833 96
L 833 96
L 834 96
L 834 96
L 834 96
L 834 96
L 834 96
L 834 96
L 835 96
L 835 96
L 835 96
L 835 95
L 835 95
L 835 95
L 835 95
L 835 95
L 835 95
L 836 95
L 836 95
L 836 95
L 836 95
L 836 95
L 836 95
L 836 95
L 836 95
L 836 95
L 836 95
L 836 95
L 836 95
L 836 95
L 837 95
L 837 95
L 837 95
L 837 95
L 837 94
L 837 94
L 837 94
L 837 94
L 837 94
L 837 94
L 837 94
L 838 94
L 838 94
L 838 94
L 838 94
L 838 94
L 838 94
L 838 94
L 838 94
L 838 94
L 838 94
L 839 94
L 839 94
L 839 94
L 839 94
L 839 94
L 839 94
L 839 93
L 839 93
L 839 93
L 839 93
L 839 93
L 839 93
L 839 93
L 839 93
L 839 93
L 839 93
L 839 93
L 839 93
L 839 93
L 839 93
L 839 93
L 840 93
L 840 93
L 840 93
L 840 93
L 840 93
L 840 93
L 840 93
L 840 93
L 840 92
L 841 92
L 841 92
L 841 92
L 841 92
L 841 92
L 841 92
L 842 92
L 842 92
L 842 92
L 842 92
L 842 92
L 842 92
L 842 92
L 842 92
L 842 92
L 842 92
L 842 92
L 842 92
L 843 92
L 843 92
L 843 92
L 843 92
L 843 91
L 843 91
L 843 91
L 843 91
L 843 91
L 843 91
L 843 91
L 843 91
L 843 91
L 843 91
L 843 91
L 843 91
L 843 91
L 843 91
L 844 91
L 844 91
L 844 91
L 844 91
L 844 91
L 844 91
L 844 91
L 844 91
L 844 91
L 844 91
L 845 90
L 845 90
L 845 90
L 845 90
L 845 90
L 845 90
L 845 90
L 846 90
L 846 90
L 846 90
L 846 90
L 846 90
L 846 90
L 847 90
L 847 90
L 847 90
L 847 90
L 847 90
L 847 90
L 847 90
L 847 90
L 847 90
L 847 90
L 847 89
L 847 89
L 847 89
L 847 89
L 847 89
L 847 89
L 847 89
L 847 89
L 847 89
L 848 89
L 848 89
L 848 89
L 848 89
L 848 89
L 848 89
L 848 89
L 848 89
L 848 89
L 848 89
L 848 89
L 848 89
L 848 89
L 848 89
L 848 88
L 848 88
L 848 88
L 848 88
L 848 88
L 848 88
L 848 88
L 848 88
L 848 88
L 848 88
L 848 88
L 848 88
L 848 88
L 848 88
L 848 88
L 848 88
L 849 88
L 849 88
L 849 88
L 849 88
L 849 88
L 849 88
L 849 88
L 849 87
L 849 87
L 849 87
L 849 87
L 849 87
L 849 87
L 849 87
L 849 87
L 849 87
L 849 87
L 849 87
L 849 87
L 849 87
L 849 87
L 849 87
L 849 87
L 849 87
L 849 87
L 849 87
L 849 87
L 849 87
L 849 87
L 849 87
L 849 87
L 849 86
L 849 86
L 850 86
L 850 86
L 850 86
L 850 86
L 850 86
L 850 86
L 850 86
L 850 86
L 850 86
L 850 86
L 850 86
L 850 86
L 850 86
L 850 86
L 850 86
L 850 86
L 850 86
L 850 86
L 850 86
L 850 86
L 850 86
L 850 85
L 851 85
L 851 85
L 851 85
L 851 85
L 851 85
L 851 85
L 851 85
L 852 85
L 852 85
L 852 85
L 852 85
L 852 85
L 852 85
L 852 85
L 852 85
L 852 85
L 852 85
L 852 85
L 853 85
L 853 85
L 853 85
L 853 85
L 853 84
L 853 84
L 853 84
L 853 84
L 853 84
L 853 84
L 853 84
L 853 84
L 853 84
L 853 84
L 853 84
L 853 84
L 854 84
L 854 84
L 854 84
L 854 84
L 854 84
L 854 84
L 854 84
L 854 84
L 854 84
L 854 84
L 854 84
L 854 83
L 854 83
L 854 83
L 855 83
L 855 83
L 855 83
L 855 83
L 855 83
L 855 83
L 855 83
L 855 83
L 855 83
L 855 83
L 855 83
L 855 83
L 855 83
L 855 83
L 856 83
L 856 83
L 856 83
L 856 83
L 856 83
L 856 83
L 856 83
L 856 82
L 856 82
L 856 82
L 856 82
L 857 82
L 857 82
L 857 82
L 857 82
L 857 82
L 857 82
L 857 82
L 857 82
L 857 82
L 857 82
L 857 82
L 858 82
L 858 82
L 858 82
L 858 82
L 858 82
L 858 82
L 858 82
L 858 82
L 858 81
L 859 81
L 859 81
L 859 81
L 859 81
L 859 81
L 859 81
L 859 81
L 859 81
L 859 81
L 859 81
L 860 81
L 860 81
L 860 81
L 860 81
L 860 81
L 860 81
L 860 81
L 860 81
L 860 81
L 860 81
L 860 81
L 860 81
L 860 80
L 860 80
L 860 80
L 860 80
L 861 80
L 861 80
L 861 80
L 861 80
L 861 80
L 861 80
L 861 80
L 861 80
L 861 80
L 861 80
L 861 80
L 861 80
L 861 80
L 861 80
L 862 80
L 862 80
L 862 80
L 862 80
L 862 80
L 862 79
L 862 79
L 862 79
L 863 79
L 863 79
L 863 79
L 863 79
L 863 79
L 863 79
L 863 79
L 863 79
L 863 79
L 863 79
L 863 79
L 864 79
L 864 79
L 864 79
L 864 79
L 864 79
L 864 79
L 864 79
L 864 79
L 864 79
L 864 79
L 864 78
L 864 78
L 864 78
L 864 78
L 864 78
L 864 78
L 864 78
L 864 78
L 864 78
L 865 78
L 865 78
L 865 78
L 865 78
L 865 78
L 865 78
L 865 78
L 865 78
L 865 78
L 865 78
L 865 78
L 865 78
L 865 78
L 865 78
L 865 77
L 866 77
L 866 77
L 866 77
L 866 77
L 866 77
L 866 77
L 866 77
L 866 77
L 866 77
L 866 77
L 866 77
L 867 77
L 867 77
L 867 77
L 867 77
L 867 77
L 867 77
L 867 77
L 868 77
L 868 77
L 868 77
L 868 77
L 868 76
L 868 76
L 868 76
L 868 76
L 868 76
L 868 76
L 869 76
L 869 76
L 869 76
L 869 76
L 869 76
L 869 76
L 869 76
L 869 76
L 869 76
L 869 76
L 869 76
L 870 76
L 870 76
L 870 76
L 870 76
L 870 76
L 870 76
L 870 75
L 870 75
L 870 75
L 870 75
L 870 75
L 871 75
L 871 75
L 871 75
L 871 75
L 871 75
L 871 75
L 871 75
L 871 75
L 871 75
L 871 75
L 871 75
L 871 75
L 871 75
L 871 75
L 872 75
L 872 75
L 872 75
L 872 75
L 872 74
L 872 74
L 872 74
L 872 74
L 872 74
L 872 74
L 872 74
L 872 74
L 872 74
L 872 74
L 873 74
L 873 74
L 873 74
L 873 74
L 873 74
L 873 74
L 874 74
L 874 74
L 874 74
L 874 74
L 874 74
L 874 74
L 874 74
L 874 74
L 874 73
L 874 73
L 875 73
L 875 73
L 875 73
L 875 73
L 875 73
L 875 73
L 875 73
L 875 73
L 875 73
L 875 73
L 875 73
L 875 73
L 875 73
L 875 73
L 875 73
L 876 73
L 876 73
L 876 73
L 876 73
L 876 73
L 876 73
L 876 72
L 876 72
L 876 72
L 876 72
L 876 72
L 876 72
L 876 72
L 876 72
L 876 72
L 876 72
L 876 72
L 876 72
L 876 72
L 876 72
L 876 72
L 876 72
L 876 72
L 876 72
L 876 72
L 876 72
L 876 72
L 876 72
L 876 72
L 876 71
L 876 71
L 876 71
L 876 71
L 876 71
L 876 71
L 876 71
L 876 71
L 876 71
L 876 71
L 876 71
L 876 71
L 877 71
L 877 71
L 877 71
L 877 71
L 877 71
L 877 71
L 877 71
L 877 71
L 877 71
L 877 71
L 877 71
L 877 70
L 877 70
L 877 70
L 877 70
L 877 70
L 877 70
L 877 70
L 877 70
L 877 70
L 877 70
L 877 70
L 877 70
L 877 70
L 877 70
L 878 70
L 878 70
L 878 70
L 878 70
L 878 70
L 878 70
L 878 70
L 878 70
L 878 70
L 878 70
L 878 69
L 878 69
L 878 69
L 878 69
L 878 69
L 878 69
L 878 69
L 878 69
L 878 69
L 878 69
L 878 69
L 878 69
L 878 69
L 878 69
L 878 69
L 878 69
L 878 69
L 878 69
L 878 69
L 878 69
L 878 69
L 878 69
L 878 69
L 878 68
L 878 68
L 878 68
L 878 68
L 878 68
L 878 68
L 878 68
L 879 68
L 879 68
L 879 68
L 879 68
L 879 68
L 879 68
L 879 68
L 879 68
L 879 68
L 879 68
L 879 68
L 879 68
L 879 68
L 879 68
L 879 68
L 879 68
L 879 67
L 880 67
L 880 67
L 880 67
L 880 67
L 880 67
L 880 67
L 880 67
L 880 67
L 880 67
L 880 67
L 880 67
L 880 67
L 880 67
L 880 67
L 880 67
L 880 67
L 880 67
L 880 67
L 880 67
L 880 67
L 880 67
L 880 67
L 880 66
L 880 66
L 880 66
L 880 66
L 880 66
L 880 66
L 880 66
L 880 66
L 880 66
L 880 66
L 881 66
L 881 66
L 881 66
L 881 66
L 881 66
L 881 66
L 881 66
L 881 66
L 881 66
L 881 66
L 881 66
L 881 66
L 881 66
L 881 66
L 881 65
L 881 65
L 881 65
L 881 65
L 881 65
L 881 65
L 881 65
L 881 65
L 881 65
L 881 65
L 881 65
L 881 65
L 881 65
L 881 65
L 881 65
L 881 65
L 881 65
L 881 65
L 881 65
L 881 65
L 881 65
L 881 65
L 881 65
L 881 64
L 881 64
L 881 64
L 881 64
L 881 64
L 882 64
L 882 64
L 882 64
L 882 64
L 882 64
L 882 64
L 882 64
L 882 64
L 882 64
L 882 64
L 882 64
L 882 64
L 882 64
L 882 64
L 882 64
L 882 64
L 882 64
L 882 64
L 882 63
L 882 63
L 882 63
L 882 63
L 882 63
L 882 63
L 882 63
L 882 63
L 882 63
L 882 63
L 882 63
L 882 63
L 882 63
L 882 63
L 882 63
L 882 63
L 882 63
L 882 63
L 882 63
L 882 63
L 882 63
L 882 63
L 882 63
L 882 62
L 882 62
L 882 62
L 882 62
L 882 62
L 882 62
L 882 62
L 882 62
L 882 62
L 882 62
L 882 62
L 882 62
L 882 62
L 882 62
L 882 62
L 882 62
L 882 62
L 882 62
L 882 62
L 882 62
L 882 62
L 882 62
L 882 62
L 882 62
L 883 61
L 883 61
L 883 61
L 883 61
L 883 61
L 883 61
L 883 61
L 883 61
L 883 61
L 883 61
L 883 61
L 883 61
L 883 61
L 883 61
L 883 61
L 883 61
L 883 61
L 883 61
L 883 61
L 883 61
L 883 61
L 883 61
L 883 61
L 883 60
L 883 60
L 883 60
L 883 60
L 883 60
L 883 60
L 883 60
L 883 60
L 883 60
L 883 60
L 883 60
L 883 60
L 883 60
L 883 60
L 883 60
L 883 60
L 883 60
L 883 60
L 883 60
L 883 60
L 883 60
L 883 60
L 883 60
L 883 59
L 883 59
L 883 59
L 883 59
L 883 59
L 883 59
L 883 59
L 883 59
L 883 59
L 883 59
L 883 59
L 883 59
L 883 59
L 883 59
L 883 59
L 883 59
L 883 59
L 883 59
L 883 59
L 883 59
L 883 59
L 883 59
L 883 59
L 883 58
L 883 58
L 883 58
L 883 58
L 884 58
L 884 58
L 884 58
L 884 58
L 884 58
L 884 58
L 884 58
L 884 58
L 884 58
L 884 58
L 884 58
L 884 58
L 884 58
L 884 58
L 884 58
L 884 58
L 884 58
L 884 58
L 884 58
L 884 57
L 884 57
L 884 57
L 884 57
L 884 57
L 884 57
L 884 57
L 884 57
L 884 57
L 885 57
L 885 57
L 885 57
L 885 57
L 885 57
L 885 57
L 885 57
L 885 57
L 885 57
L 885 57
L 885 57
L 885 57
L 885 57
L 885 57
L 886 57
L 886 56
L 886 56
L 886 56
L 886 56
L 886 56
L 886 56
L 886 56
L 886 56
L 886 56
L 886 56
L 886 56
L 886 56
L 886 56
L 886 56
L 886 56
L 886 56
L 886 56
L 886 56
L 886 56
L 886 56
L 886 56
L 886 56
L 886 56
L 886 55
L 886 55
L 886 55
L 886 55
L 886 55
L 886 55
L 886 55
L 886 55
L 887 55
L 887 55
L 887 55
L 887 55
L 887 55
L 887 55
L 887 55
L 887 55
L 887 55
L 887 55
L 887 55
L 887 55
L 887 55
L 887 55
L 887 55
L 887 54
L 887 54
L 887 54
L 887 54
L 887 54
L 887 54
L 887 54
L 887 54
L 887 54
L 887 54
L 887 54
L 887 54
L 887 54
L 887 54
L 887 54
L 887 54
L 888 54
L 888 54
L 888 54
L 888 54
L 888 54
L 888 54
L 888 54
L 888 53
L 888 53
L 888 53
L 888 53
L 888 53
L 888 53
L 889 53
L 889 53
L 889 53
L 889 53
L 889 53
L 889 53
L 889 53
L 889 53
L 890 53
L 890 53
L 890 53
L 890 53
L 890 53
L 890 53
L 890 53
L 890 53
L 890 53
L 890 53
L 890 52
L 890 52
L 890 52
L 890 52
L 890 52
L 891 52
L 891 52
L 891 52
L 891 52
L 891 52
L 891 52
L 891 52
L 891 52
L 891 52
L 891 52
L 891 52
L 891 52
L 891 52
L 891 52
L 891 52
L 891 52
L 891 52
L 891 52
L 891 51
L 891 51
L 891 51
L 891 51
L 891 51
L 891 51
L 891 51
L 891 51
L 892 51
L 892 51
L 892 51
L 892 51
L 892 51
L 892 51
L 892 51
L 892 51
L 892 51
L 892 51
L 892 51
L 892 51
L 892 51
L 892 51
L 892 51
L 892 50
L 892 50
L 892 50
L 892 50
L 892 50
L 892 50
L 892 50
L 893 50
L 893 50
L 893 50
L 893 50
L 893 50
L 893 50
L 893 50
L 893 50
L 893 50
L 893 50
L 893 50
L 893 50
L 893 50
L 893 50
L 893 50
L 893 50
L 893 49
L 893 49
L 893 49
L 893 49
L 893 49
L 893 49
L 893 49
L 893 49
L 893 49
L 893 49
L 893 49
L 893 49
L 893 49
L 893 49
L 894 49
L 894 49
L 894 49
L 894 49
L 894 49
L 894 49
L 894 49
L 894 49
L 894 49
L 894 49
L 894 48
L 894 48
L 894 48
L 894 48
L 894 48
L 894 48
L 894 48
L 894 48
L 894 48
L 895 48
L 895 48
L 895 48
L 895 48
L 895 48
L 895 48
L 895 48
L 895 48
L 895 48
L 895 48
L 895 48
L 895 48
L 895 48
L 895 48
L 895 47
L 895 47
L 895 47
L 895 47
L 895 47
L 895 47
L 895 47
L 895 47
L 895 47
L 895 47
L 895 47
L 895 47
L 895 47
L 895 47
L 895 47
L 895 47
L 895 47
L 895 47
L 895 47
L 895 47
L 895 47
L 895 47
L 895 47
L 896 46
L 896 46
L 896 46
L 896 46
L 896 46
L 896 46
L 897 46
L 897 46
L 897 46
L 897 46
L 897 46
L 897 46
L 897 46
L 897 46
L 897 46
L 897 46
L 897 46
L 897 46
L 898 46
L 898 46
L 898 46
L 898 46
L 898 46
L 898 45
L 898 45
L 898 45
L 898 45
L 898 45
L 898 45
L 898 45
L 898 45
L 898 45
L 898 45
L 898 45
L 898 45
L 898 45
L 898 45
L 898 45
L 898 45
L 899 45
L 899 45
L 899 45
L 899 45
L 899 45
L 899 45
L 899 45
L 899 45
L 899 44
L 899 44
L 899 44
L 899 44
L 899 44
L 899 44
L 899 44
L 899 44
L 899 44
L 899 44
L 899 44
L 899 44
L 899 44
L 899 44
L 899 44
L 899 44
L 899 44
L 899 44
L 899 44
L 899 44
L 900 44
L 900 44
L 900 44
L 900 43
L 900 43
L 900 43
L 900 43
L 900 43
L 900 43
L 900 43
L 900 43
L 900 43
L 900 43
L 900 43
L 900 43
L 900 43
L 900 43
L 900 43
L 900 43
L 901 43
L 901 43
L 901 43
L 901 43
L 901 43
L 901 43
L 901 43
L 901 42
L 901 42
L 901 42
L 901 42
L 901 42
L 901 42
L 901 42
L 901 42
L 901 42
L 901 42
L 901 42
L 901 42
L 902 42
L 902 42
L 902 42
L 902 42
L 902 42
L 902 42
L 902 42
L 902 42
L 902 42
L 903 42
L 903 42
L 903 41
L 903 41
L 903 41
L 903 41
L 903 41
L 903 41
L 903 41
L 903 41
L 903 41
L 903 41
L 903 41
L 903 41
L 903 41
L 904 41
L 904 41
L 904 41
L 904 41
L 904 41
L 904 41
L 904 41
L 904 41
L 904 41
L 904 41
L 904 40
L 905 40
L 905 40
L 905 40
L 905 40
L 905 40
L 905 40
L 905 40
L 905 40
L 905 40
L 905 40
L 905 40
L 905 40
L 905 40
L 906 40
L 906 40
L 906 40
L 906 40
L 906 40
L 906 40
L 906 40
L 906 40
L 907 40
L 907 40
L 907 39
L 907 39
L 907 39
L 907 39
L 907 39
L 907 39
L 907 39
L 907 39
L 907 39
L 908 39
L 908 39
L 908 39
L 908 39
L 908 39
L 908 39
L 909 39
L 909 39
L 909 39
L 909 39
L 909 39
L 910 39
L 910 39
L 910 39
L 910 38
L 910 38
L 910 38
L 910 38
L 910 38
L 910 38
L 911 38
L 911 38
L 911 38
L 911 38
L 911 38
L 911 38
L 911 38
L 911 38
L 912 38
L 912 38
L 912 38
L 912 38
L 912 38
L 912 38
L 913 38
L 913 38
L 913 38
L 913 37
L 913 37
L 913 37
L 913 37
L 913 37
L 913 37
L 913 37
L 913 37
L 913 37
L 914 37
L 914 37
L 914 37
L 914 37
L 914 37
L 914 37
L 914 37
L 914 37
L 914 37
L 914 37
L 914 37
L 914 37
L 914 37
L 914 37
L 914 36
L 914 36
L 914 36
L 915 36
L 915 36
L 915 36
L 915 36
L 915 36
L 915 36
L 915 36
L 915 36
L 915 36
L 915 36
L 915 36
L 915 36
L 915 36
L 915 36
L 915 36
L 915 36
L 915 36
L 915 36
L 915 36
L 915 36
L 915 36
L 915 35
L 915 35
L 915 35
L 915 35
L 915 35
L 916 35
L 916 35
L 916 35
L 916 35
L 916 35
L 916 35
L 916 35
L 916 35
L 916 35
L 916 35
L 916 35
L 916 35
L 916 35
L 916 35
L 916 35
L 916 35
L 916 35
L 916 35
L 916 34
L 916 34
L 916 34
L 916 34
L 917 34
L 917 34
L 917 34
L 917 34
L 917 34
L 917 34
L 917 34
L 917 34
L 918 34
L 918 34
L 918 34
L 918 34
L 918 34
L 918 34
L 919 34
L 919 34
L 919 34
L 919 34
L 919 34
L 919 33
L 919 33
L 919 33
L 919 33
L 919 33
L 920 33
L 920 33
L 920 33
L 920 33
L 920 33
L 920 33
L 920 33
L 920 33
L 920 33
L 920 33
L 920 33
L 921 33
L 921 33
L 921 33
L 921 33
L 921 33
L 921 33
L 921 33
L 921 32
L 921 32
L 921 32
L 922 32
L 922 32
L 922 32
L 922 32
L 922 32
L 922 32
L 922 32
L 923 32
L 923 32
L 923 32
L 923 32
L 923 32
L 923 32
L 923 32
L 924 32
L 924 32
L 924 32
L 924 32
L 924 32
L 924 32
L 924 32
L 925 31
L 925 31
L 925 31
L 925 31
L 925 31
L 925 31
L 925 31
L 925 31
L 925 31
L 925 31
L 925 31
L 925 31
L 925 31
L 925 31
L 925 31
L 925 31
L 925 31
L 925 31
L 926 31
L 926 31
L 926 31
L 926 31
L 926 31
L 926 30
L 926 30
L 926 30
L 926 30
L 926 30
L 926 30
L 926 30
L 926 30
L 926 30
L 926 30
L 926 30
L 926 30
L 926 30
L 926 30
L 926 30
L 926 30
L 926 30
L 926 30
L 926 30
L 927 30
L 927 30
L 927 30
L 927 30
L 927 29
L 927 29
L 927 29
L 927 29
L 927 29
L 927 29
L 927 29
L 927 29
L 928 29
L 928 29
L 928 29
L 928 29
L 928 29
L 928 29
L 928 29
L 928 29
L 928 29
L 928 29
L 928 29
L 928 29
L 928 29
L 928 29
L 928 29
L 928 28
L 929 28
L 929 28
L 929 28
L 929 28
L 929 28
L 929 28
L 929 28
L 929 28
L 930 28
L 930 28
L 930 28
L 930 28
L 930 28
L 930 28
L 930 28
L 930 28
L 930 28
L 930 28
L 930 28
L 930 28
L 930 28
L 930 28
L 930 28
L 931 27
L 931 27
L 931 27
L 931 27
L 931 27
L 931 27
L 931 27
L 931 27
L 931 27
L 931 27
L 931 27
L 931 27
L 932 27
L 932 27
L 932 27
L 932 27
L 932 27
L 932 27
L 932 27
L 932 27
L 932 27
L 932 27
L 933 27
L 933 26
L 933 26
L 933 26
L 933 26
L 933 26
L 933 26
L 933 26
L 933 26
L 933 26
L 933 26
L 933 26
L 933 26
L 933 26
L 933 26
L 934 26
L 934 26
L 934 26
L 934 26
L 934 26
L 935 26
L 935 26
L 935 26
L 935 26
L 935 25
L 935 25
L 935 25
L 935 25
L 935 25
L 935 25
L 935 25
L 935 25
L 935 25
L 936 25
L 936 25
L 936 25
L 936 25
L 937 25
L 937 25
L 937 25
L 937 25
L 937 25
L 937 25
L 937 25
L 937 25
L 938 25
L 938 25
L 938 24
L 938 24
L 938 24
L 938 24
L 938 24
L 938 24
L 938 24
L 938 24
L 938 24
L 939 24
L 939 24
L 939 24
L 939 24
L 940 24
L 940 24
L 940 24
L 940 24
L 940 24
L 941 24
L 941 24
L 941 24
L 941 24
L 941 24
L 941 23
L 941 23
L 941 23
L 942 23
L 942 23
L 942 23
L 942 23
L 942 23
L 942 23
L 942 23
L 942 23
L 942 23
L 942 23
L 942 23
L 942 23
L 942 23
L 942 23
L 943 23
L 943 23
L 943 23
L 943 23
L 943 23
L 943 23
L 943 23
L 943 22
L 943 22
L 943 22
L 943 22
L 943 22
L 943 22
L 943 22
L 943 22
L 943 22
L 943 22
L 943 22
L 943 22
L 943 22
L 944 22
L 944 22
L 944 22
L 944 22
L 944 22
L 944 22
L 944 22
L 944 22
L 944 22
L 945 22
L 945 21
L 945 21
L 945 21
L 945 21
L 945 21
L 945 21
L 945 21
L 945 21
L 945 21
L 945 21
L 946 21
L 946 21
L 946 21
L 946 21
L 946 21
L 946 21
L 946 21
L 946 21
L 946 21
L 946 21
L 946 21
L 946 21
L 947 21
L 947 20
L 947 20
L 947 20
L 947 20
L 947 20
L 947 20
L 947 20
L 947 20
L 947 20
L 947 20
L 948 20
L 948 20
L 948 20
L 948 20
L 948 20
L 948 20
L 948 20
L 948 20
L 949 20
L 949 20
L 949 20
L 949 20
L 950 20
L 950 19
L 950 19
L 950 19
L 951 19
L 951 19
L 951 19
L 952 19
L 952 19
L 952 19
L 952 19
L 952 19
L 952 19
L 952 19
L 952 19
L 952 19
L 952 19
L 952 19
L 953 19
L 953 19
L 953 19
L 953 19
L 953 19
L 953 19
L 953 19
L 953 18
L 953 18
L 953 18
L 953 18
L 953 18
L 954 18
L 954 18
L 954 18
L 954 18
L 954 18
L 954 18
L 954 18
L 954 18
L 954 18
L 954 18
L 954 18
L 954 18
L 954 18
L 954 18
L 954 18
L 954 18
L 954 18
L 954 18
L 954 17
L 954 17
L 954 17
L 954 17
L 954 17
L 954 17
L 954 17
L 954 17
L 954 17
L 954 17
L 954 17
L 955 17
L 955 17
L 955 17
L 955 17
L 955 17
L 955 17
L 955 17
L 955 17
L 955 17
L 955 17
L 955 17
L 955 17
L 955 16
L 955 16
L 955 16
L 955 16
L 956 16
L 956 16
L 956 16
L 956 16
L 956 16
L 956 16
L 956 16
L 956 16
L 956 16
L 956 16
L 956 16
L 956 16
L 956 16
L 956 16
L 956 16
L 956 16
L 956 16
L 956 16
L 956 16
L 956 15
L 956 15
L 956 15
L 956 15
L 956 15
L 956 15
L 956 15
L 956 15
L 957 15
L 957 15
L 957 15
L 957 15
L 957 15
L 957 15
L 957 15
L 957 15
L 957 15
L 957 15
L 957 15
L 957 15
L 957 15
L 957 15
L 957 15
L 957 15
L 957 14
L 957 14
L 957 14
L 957 14
L 957 14
L 957 14
L 957 14
L 957 14
L 957 14
L 957 14
L 957 14
L 957 14
L 957 14
L 957 14
L 957 14
L 957 14
L 957 14
L 957 14
L 957 14
L 957 14
L 957 14
L 957 14
L 957 14
L 957 13
L 957 13
L 957 13
L 957 13
L 957 13
L 957 13
L 957 13
L 957 13
L 957 13
L 957 13
L 957 13
L 957 13
L 957 13
L 957 13
L 957 13
L 957 13
L 957 13
L 957 13
L 957 13
L 957 13
L 957 13
L 957 13
L 957 13
L 957 12
L 957 12
L 957 12
L 957 12
L 957 12
L 957 12
L 957 12" style="stroke-width:2;stroke:rgba(129,199,239,1.0);fill:none"/></svg>