<!-- stars: 7797 -->
<svg xmlns="http://www.w3.org/2000/svg" xmlns:xlink="http://www.w3.org/1999/xlink" width="1024" height="400">\n<path  d="M 0 0
L 1024 0
L 1024 400
L 0 400
L 0 0" style="stroke-width:0;stroke:rgba(255,255,255,1.0);fill:rgba(255,255,255,1.0)"/><path  d="M 38 11
L 957 11
L 957 351
L 38 351
L 38 11" style="stroke-width:0;stroke:rgba(255,255,255,1.0);fill:rgba(255,255,255,1.0)"/><path  d="M 38 351
L 957 351" style="stroke-width:2;stroke:rgba(85,85,85,1.0);fill:none"/><path  d="M 38 351
L 38 356" style="stroke-width:2;stroke:rgba(85,85,85,1.0);fill:none"/><text x="5" y="373" style="stroke-width:0;stroke:none;fill:rgba(51,51,51,1.0);font-size:12.8px;font-family:'Roboto Medium',sans-serif">2018-09-25</text><path  d="M 153 351
L 153 356" style="stroke-width:2;stroke:rgba(85,85,85,1.0);fill:none"/><text x="120" y="373" style="stroke-width:0;stroke:none;fill:rgba(51,51,51,1.0);font-size:12.8px;font-family:'Roboto Medium',sans-serif">2019-02-18</text><path  d="M 268 351
L 268 356" style="stroke-width:2;stroke:rgba(85,85,85,1.0);fill:none"/><text x="235" y="373" style="stroke-width:0;stroke:none;fill:rgba(51,51,51,1.0);font-size:12.8px;font-family:'Roboto Medium',sans-serif">2019-07-13</text><path  d="M 383 351
L 383 356" style="stroke-width:2;stroke:rgba(85,85,85,1.0);fill:none"/><text x="350" y="373" style="stroke-width:0;stroke:none;fill:rgba(51,51,51,1.0);font-size:12.8px;font-family:'Roboto Medium',sans-serif">2019-12-06</text><path  d="M 498 351
L 498 356" style="stroke-width:2;stroke:rgba(85,85,85,1.0);fill:none"/><text x="465" y="373" style="stroke-width:0;stroke:none;fill:rgba(51,51,51,1.0);font-size:12.8px;font-family:'Roboto Medium',sans-serif">2020-04-30</text><path  d="M 613 351
L 613 356" style="stroke-width:2;stroke:rgba(85,85,85,1.0);fill:none"/><text x="580" y="373" style="stroke-width:0;stroke:none;fill:rgba(51,51,51,1.0);font-size:12.8px;font-family:'Roboto Medium',sans-serif">2020-09-23</text><path  d="M 728 351
L 728 356" style="stroke-width:2;stroke:rgba(85,85,85,1.0);fill:none"/><text x="695" y="373" style="stroke-width:0;stroke:none;fill:rgba(51,51,51,1.0);font-size:12.8px;font-family:'Roboto Medium',sans-serif">2021-02-16</text><path  d="M 843 351
L 843 356" style="stroke-width:2;stroke:rgba(85,85,85,1.0);fill:none"/><text x="810" y="373" style="stroke-width:0;stroke:none;fill:rgba(51,51,51,1.0);font-size:12.8px;font-family:'Roboto Medium',sans-serif">2021-07-12</text><path  d="M 957 351
L 957 356" style="stroke-width:2;stroke:rgba(85,85,85,1.0);fill:none"/><text x="924" y="373" style="stroke-width:0;stroke:none;fill:rgba(51,51,51,1.0);font-size:12.8px;font-family:'Roboto Medium',sans-serif">2021-12-05</text><text x="483" y="395" style="stroke-width:0;stroke:none;fill:rgba(51,51,51,1.0);font-size:12.8px;font-family:'Roboto Medium',sans-serif">Time</text><path  d="M 959 351
L 959 11" style="stroke-width:2;stroke:rgba(85,85,85,1.0);fill:none"/><path  d="M 959 351
L 964 351" style="stroke-width:2;stroke:rgba(85,85,85,1.0);fill:none"/><text x="969" y="357" style="stroke-width:0;stroke:none;fill:rgba(51,51,51,1.0);font-size:12.8px;font-family:'Roboto Medium',sans-serif">0</text><path  d="M 959 308
L 964 308" style="stroke-width:2;stroke:rgba(85,85,85,1.0);fill:none"/><text x="969" y="314" style="stroke-width:0;stroke:none;fill:rgba(51,51,51,1.0);font-size:12.8px;font-family:'Roboto Medium',sans-serif">980</text><path  d="M 959 266
L 964 266" style="stroke-width:2;stroke:rgba(85,85,85,1.0);fill:none"/><text x="969" y="272" style="stroke-width:0;stroke:none;fill:rgba(51,51,51,1.0);font-size:12.8px;font-family:'Roboto Medium',sans-serif">1950</text><path  d="M 959 223
L 964 223" style="stroke-width:2;stroke:rgba(85,85,85,1.0);fill:none"/><text x="969" y="229" style="stroke-width:0;stroke:none;fill:rgba(51,51,51,1.0);font-size:12.8px;font-family:'Roboto Medium',sans-serif">2930</text><path  d="M 959 181
L 964 181" style="stroke-width:2;stroke:rgba(85,85,85,1.0);fill:none"/><text x="969" y="187" style="stroke-width:0;stroke:none;fill:rgba(51,51,51,1.0);font-size:12.8px;font-family:'Roboto Medium',sans-serif">3900</text><path  d="M 959 138
L 964 138" style="stroke-width:2;stroke:rgba(85,85,85,1.0);fill:none"/><text x="969" y="144" style="stroke-width:0;stroke:none;fill:rgba(51,51,51,1.0);font-size:12.8px;font-family:'Roboto Medium',sans-serif">4880</text><path  d="M 959 96
L 964 96" style="stroke-width:2;stroke:rgba(85,85,85,1.0);fill:none"/><text x="969" y="102" style="stroke-width:0;stroke:none;fill:rgba(51,51,51,1.0);font-size:12.8px;font-family:'Roboto Medium',sans-serif">5850</text><path  d="M 959 53
L 964 53" style="stroke-width:2;stroke:rgba(85,85,85,1.0);fill:none"/><text x="969" y="59" style="stroke-width:0;stroke:none;fill:rgba(51,51,51,1.0);font-size:12.8px;font-family:'Roboto Medium',sans-serif">6830</text><path  d="M 959 11
L 964 11" style="stroke-width:2;stroke:rgba(85,85,85,1.0);fill:none"/><text x="969" y="17" style="stroke-width:0;stroke:none;fill:rgba(51,51,51,1.0);font-size:12.8px;font-family:'Roboto Medium',sans-serif">7800</text><text x="1009" y="150" style="stroke-width:0;stroke:none;fill:rgba(51,51,51,1.0);font-size:12.8px;font-family:'Roboto Medium',sans-serif" transform="rotate(90.00,1009,150)">Stargazers</text><path  d="M 38 351
L 40 350
L 50 350
L 51 350
L 51 350
L 51 350
L 51 350
L 54 350
L 55 350
L 55 350
L 57 350
L 57 350
L 58 350
L 58 350
L 58 350
L 58 350
L 61 350
L 67 350
L 67 350
L 69 350
L 70 350
L 70 350
L 72 350
L 73 349
L 74 349
L 74 349
L 79 349
L 83 349
L 88 349
L 88 349
L 94 349
L 94 349
L 94 349
L 94 349
L 94 349
L 94 349
L 94 349
L 95 349
L 95 349
L 95 349
L 96 349
L 97 349
L 99 349
L 99 349
L 99 349
L 99 349
L 99 348
L 100 348
L 100 348
L 101 348
L 103 348
L 103 348
L 104 348
L 105 348
L 107 348
L 108 348
L 108 348
L 109 348
L 110 348
L 110 348
L 110 348
L 111 348
L 111 348
L 112 348
L 112 348
L 112 348
L 112 348
L 113 348
L 113 348
L 113 347
L 113 347
L 113 347
L 114 347
L 115 347
L 115 347
L 115 347
L 116 347
L 117 347
L 117 347
L 118 347
L 118 347
L 120 347
L 120 347
L 121 347
L 121 347
L 121 347
L 121 347
L 122 347
L 122 347
L 123 347
L 123 347
L 123 347
L 124 346
L 125 346
L 127 346
L 127 346
L 127 346
L 127 346
L 127 346
L 129 346
L 131 346
L 133 346
L 134 346
L 134 346
L 134 346
L 135 346
L 142 346
L 145 346
L 149 346
L 149 346
L 150 346
L 151 346
L 151 346
L 152 346
L 152 346
L 154 345
L 154 345
L 154 345
L 155 345
L 155 345
L 155 345
L 155 345
L 156 345
L 156 345
L 157 345
L 159 345
L 159 345
L 162 345
L 162 345
L 165 345
L 165 345
L 166 345
L 166 345
L 167 345
L 167 345
L 168 345
L 168 345
L 169 345
L 170 344
L 170 344
L 171 344
L 173 344
L 173 344
L 175 344
L 175 344
L 176 344
L 177 344
L 177 344
L 177 344
L 178 344
L 179 344
L 182 344
L 183 344
L 183 344
L 183 344
L 183 344
L 184 344
L 184 344
L 184 344
L 185 344
L 185 344
L 185 343
L 187 343
L 187 343
L 187 343
L 187 343
L 187 343
L 187 343
L 187 343
L 188 343
L 188 343
L 188 343
L 188 343
L 188 343
L 188 343
L 188 343
L 188 343
L 189 343
L 189 343
L 189 343
L 190 343
L 192 343
L 192 343
L 192 343
L 193 342
L 193 342
L 194 342
L 194 342
L 194 342
L 194 342
L 194 342
L 194 342
L 195 342
L 195 342
L 196 342
L 198 342
L 198 342
L 199 342
L 201 342
L 201 342
L 203 342
L 204 342
L 204 342
L 205 342
L 205 342
L 205 342
L 205 342
L 206 341
L 206 341
L 207 341
L 207 341
L 208 341
L 209 341
L 209 341
L 209 341
L 210 341
L 210 341
L 210 341
L 211 341
L 211 341
L 212 341
L 213 341
L 214 341
L 214 341
L 215 341
L 216 341
L 217 341
L 217 341
L 217 341
L 217 341
L 218 340
L 219 340
L 221 340
L 222 340
L 225 340
L 226 340
L 227 340
L 229 340
L 230 340
L 231 340
L 231 340
L 232 340
L 237 340
L 237 340
L 237 340
L 238 340
L 238 340
L 238 340
L 239 340
L 239 340
L 239 340
L 239 340
L 245 340
L 247 339
L 248 339
L 249 339
L 249 339
L 249 339
L 249 339
L 249 339
L 249 339
L 249 339
L 249 339
L 250 339
L 250 339
L 253 339
L 254 339
L 254 339
L 255 339
L 256 339
L 256 339
L 257 339
L 258 339
L 258 339
L 259 339
L 259 339
L 259 338
L 259 338
L 259 338
L 260 338
L 260 338
L 260 338
L 261 338
L 261 338
L 261 338
L 262 338
L 262 338
L 262 338
L 262 338
L 263 338
L 263 338
L 263 338
L 264 338
L 265 338
L 266 338
L 267 338
L 267 338
L 268 338
L 269 338
L 269 337
L 270 337
L 270 337
L 272 337
L 274 337
L 275 337
L 276 337
L 278 337
L 279 337
L 280 337
L 281 337
L 281 337
L 281 337
L 282 337
L 286 337
L 290 337
L 291 337
L 292 337
L 294 337
L 295 337
L 296 337
L 299 337
L 302 337
L 302 336
L 302 336
L 303 336
L 305 336
L 310 336
L 310 336
L 310 336
L 311 336
L 311 336
L 322 336
L 322 336
L 323 336
L 324 336
L 324 336
L 324 336
L 324 336
L 324 336
L 324 336
L 324 336
L 324 336
L 324 336
L 325 336
L 325 336
L 326 335
L 329 335
L 329 335
L 330 335
L 335 335
L 337 335
L 338 335
L 339 335
L 339 335
L 340 335
L 340 335
L 342 335
L 342 335
L 342 335
L 342 335
L 344 335
L 344 335
L 344 335
L 346 335
L 347 335
L 347 335
L 348 335
L 352 335
L 364 334
L 365 334
L 368 334
L 370 334
L 371 334
L 372 334
L 375 334
L 375 334
L 375 334
L 376 334
L 376 334
L 376 334
L 377 334
L 380 334
L 380 334
L 383 334
L 384 334
L 388 334
L 388 334
L 388 334
L 394 334
L 396 334
L 396 334
L 398 333
L 398 333
L 398 333
L 398 333
L 398 333
L 399 333
L 399 333
L 399 333
L 399 333
L 400 333
L 402 333
L 402 333
L 406 333
L 407 333
L 409 333
L 412 333
L 412 333
L 413 333
L 413 333
L 413 333
L 414 333
L 416 333
L 418 332
L 418 332
L 423 332
L 423 332
L 424 332
L 425 332
L 426 332
L 428 332
L 430 332
L 432 332
L 436 332
L 438 332
L 438 332
L 439 332
L 442 332
L 448 332
L 450 332
L 452 332
L 454 332
L 454 332
L 454 332
L 455 332
L 456 332
L 456 331
L 457 331
L 458 331
L 458 331
L 459 331
L 459 331
L 459 331
L 459 331
L 461 331
L 461 331
L 462 331
L 462 331
L 463 331
L 464 331
L 464 331
L 464 331
L 464 331
L 464 331
L 464 331
L 464 331
L 465 331
L 465 331
L 465 331
L 465 330
L 465 330
L 467 330
L 467 330
L 469 330
L 469 330
L 470 330
L 470 330
L 470 330
L 470 330
L 471 330
L 472 330
L 472 330
L 472 330
L 472 330
L 473 330
L 473 330
L 473 330
L 473 330
L 474 330
L 474 330
L 476 330
L 476 330
L 478 329
L 479 329
L 479 329
L 479 329
L 479 329
L 479 329
L 480 329
L 480 329
L 481 329
L 481 329
L 481 329
L 481 329
L 481 329
L 481 329
L 481 329
L 481 329
L 481 329
L 481 329
L 481 329
L 481 329
L 482 329
L 482 329
L 482 329
L 482 328
L 483 328
L 483 328
L 484 328
L 484 328
L 484 328
L 484 328
L 484 328
L 485 328
L 486 328
L 487 328
L 487 328
L 488 328
L 488 328
L 488 328
L 490 328
L 490 328
L 490 328
L 490 328
L 490 328
L 490 328
L 490 328
L 490 328
L 490 327
L 490 327
L 490 327
L 490 327
L 490 327
L 490 327
L 490 327
L 490 327
L 490 327
L 490 327
L 490 327
L 490 327
L 490 327
L 490 327
L 490 327
L 490 327
L 491 327
L 491 327
L 491 327
L 491 327
L 491 327
L 491 327
L 491 327
L 491 326
L 492 326
L 492 326
L 492 326
L 492 326
L 492 326
L 493 326
L 493 326
L 493 326
L 494 326
L 494 326
L 494 326
L 495 326
L 495 326
L 496 326
L 496 326
L 496 326
L 496 326
L 496 326
L 497 326
L 497 326
L 497 326
L 497 326
L 497 325
L 497 325
L 498 325
L 499 325
L 500 325
L 500 325
L 501 325
L 502 325
L 502 325
L 503 325
L 503 325
L 503 325
L 503 325
L 503 325
L 503 325
L 503 325
L 504 325
L 504 325
L 505 325
L 506 325
L 506 325
L 506 325
L 507 325
L 507 324
L 507 324
L 508 324
L 508 324
L 508 324
L 509 324
L 509 324
L 509 324
L 509 324
L 510 324
L 510 324
L 510 324
L 510 324
L 510 324
L 511 324
L 511 324
L 512 324
L 513 324
L 513 324
L 514 324
L 514 324
L 514 324
L 515 324
L 515 323
L 516 323
L 516 323
L 517 323
L 517 323
L 517 323
L 517 323
L 518 323
L 518 323
L 518 323
L 519 323
L 519 323
L 519 323
L 519 323
L 519 323
L 520 323
L 520 323
L 520 323
L 520 323
L 520 323
L 520 323
L 520 323
L 520 323
L 521 322
L 521 322
L 522 322
L 522 322
L 523 322
L 524 322
L 524 322
L 524 322
L 524 322
L 525 322
L 525 322
L 525 322
L 526 322
L 527 322
L 527 322
L 527 322
L 527 322
L 527 322
L 527 322
L 527 322
L 527 322
L 527 322
L 527 322
L 527 321
L 527 321
L 527 321
L 528 321
L 528 321
L 528 321
L 528 321
L 528 321
L 528 321
L 528 321
L 528 321
L 529 321
L 529 321
L 529 321
L 529 321
L 530 321
L 531 321
L 531 321
L 532 321
L 532 321
L 532 321
L 532 321
L 532 321
L 533 320
L 533 320
L 533 320
L 534 320
L 534 320
L 534 320
L 534 320
L 534 320
L 534 320
L 534 320
L 534 320
L 534 320
L 534 320
L 534 320
L 534 320
L 535 320
L 535 320
L 535 320
L 535 320
L 535 320
L 535 320
L 535 320
L 536 320
L 536 319
L 536 319
L 536 319
L 536 319
L 537 319
L 537 319
L 537 319
L 537 319
L 538 319
L 538 319
L 538 319
L 538 319
L 538 319
L 538 319
L 538 319
L 539 319
L 539 319
L 539 319
L 539 319
L 540 319
L 540 319
L 541 319
L 541 319
L 542 318
L 543 318
L 543 318
L 543 318
L 543 318
L 543 318
L 544 318
L 544 318
L 544 318
L 545 318
L 545 318
L 545 318
L 545 318
L 545 318
L 545 318
L 546 318
L 546 318
L 547 318
L 547 318
L 547 318
L 547 318
L 547 318
L 547 318
L 547 317
L 548 317
L 548 317
L 548 317
L 548 317
L 549 317
L 549 317
L 549 317
L 550 317
L 550 317
L 550 317
L 550 317
L 551 317
L 551 317
L 552 317
L 552 317
L 553 317
L 553 317
L 553 317
L 554 317
L 554 317
L 554 317
L 555 317
L 556 316
L 556 316
L 557 316
L 557 316
L 557 316
L 557 316
L 557 316
L 558 316
L 558 316
L 558 316
L 558 316
L 558 316
L 559 316
L 559 316
L 559 316
L 559 316
L 559 316
L 560 316
L 560 316
L 561 316
L 561 316
L 561 316
L 561 315
L 561 315
L 561 315
L 561 315
L 562 315
L 562 315
L 562 315
L 562 315
L 562 315
L 563 315
L 563 315
L 564 315
L 564 315
L 565 315
L 565 315
L 565 315
L 565 315
L 565 315
L 565 315
L 566 315
L 566 315
L 566 315
L 567 315
L 567 314
L 567 314
L 567 314
L 567 314
L 567 314
L 568 314
L 568 314
L 568 314
L 568 314
L 568 314
L 568 314
L 568 314
L 569 314
L 569 314
L 569 314
L 569 314
L 569 314
L 569 314
L 569 314
L 569 314
L 570 314
L 570 314
L 570 314
L 570 313
L 570 313
L 570 313
L 571 313
L 571 313
L 571 313
L 572 313
L 572 313
L 573 313
L 573 313
L 573 313
L 574 313
L 574 313
L 574 313
L 575 313
L 575 313
L 575 313
L 575 313
L 575 313
L 575 313
L 575 313
L 575 313
L 576 313
L 577 312
L 577 312
L 578 312
L 578 312
L 578 312
L 578 312
L 578 312
L 579 312
L 579 312
L 579 312
L 579 312
L 579 312
L 579 312
L 580 312
L 580 312
L 580 312
L 580 312
L 580 312
L 581 312
L 581 312
L 581 312
L 581 312
L 581 312
L 583 311
L 583 311
L 583 311
L 584 311
L 584 311
L 584 311
L 584 311
L 584 311
L 584 311
L 584 311
L 585 311
L 585 311
L 586 311
L 586 311
L 586 311
L 586 311
L 586 311
L 586 311
L 586 311
L 587 311
L 588 311
L 588 311
L 589 311
L 589 310
L 590 310
L 590 310
L 591 310
L 591 310
L 592 310
L 593 310
L 594 310
L 594 310
L 594 310
L 594 310
L 595 310
L 596 310
L 596 310
L 597 310
L 597 310
L 598 310
L 598 310
L 598 310
L 598 310
L 598 310
L 599 310
L 599 310
L 600 309
L 600 309
L 600 309
L 600 309
L 600 309
L 601 309
L 601 309
L 602 309
L 602 309
L 602 309
L 602 309
L 602 309
L 602 309
L 602 309
L 603 309
L 603 309
L 603 309
L 603 309
L 603 309
L 603 309
L 603 309
L 604 309
L 604 309
L 605 308
L 605 308
L 605 308
L 605 308
L 605 308
L 606 308
L 606 308
L 606 308
L 608 308
L 608 308
L 608 308
L 609 308
L 609 308
L 610 308
L 611 308
L 612 308
L 612 308
L 612 308
L 612 308
L 612 308
L 613 308
L 613 308
L 613 308
L 616 307
L 616 307
L 616 307
L 616 307
L 616 307
L 616 307
L 616 307
L 617 307
L 617 307
L 617 307
L 617 307
L 617 307
L 618 307
L 618 307
L 618 307
L 618 307
L 618 307
L 620 307
L 621 307
L 622 307
L 623 307
L 624 307
L 625 307
L 625 306
L 625 306
L 625 306
L 626 306
L 626 306
L 627 306
L 627 306
L 627 306
L 627 306
L 627 306
L 628 306
L 628 306
L 628 306
L 628 306
L 628 306
L 628 306
L 628 306
L 628 306
L 628 306
L 629 306
L 629 306
L 629 306
L 629 306
L 630 305
L 630 305
L 630 305
L 630 305
L 630 305
L 630 305
L 630 305
L 631 305
L 631 305
L 631 305
L 631 305
L 631 305
L 631 305
L 633 305
L 633 305
L 633 305
L 633 305
L 634 305
L 634 305
L 634 305
L 634 305
L 635 305
L 635 305
L 635 304
L 635 304
L 636 304
L 636 304
L 636 304
L 636 304
L 636 304
L 636 304
L 637 304
L 638 304
L 638 304
L 639 304
L 639 304
L 639 304
L 639 304
L 639 304
L 639 304
L 639 304
L 639 304
L 639 304
L 639 304
L 639 304
L 639 304
L 640 303
L 640 303
L 640 303
L 640 303
L 640 303
L 640 303
L 640 303
L 640 303
L 640 303
L 640 303
L 641 303
L 641 303
L 641 303
L 641 303
L 641 303
L 641 303
L 641 303
L 641 303
L 641 303
L 642 303
L 642 303
L 642 303
L 642 303
L 642 302
L 642 302
L 642 302
L 642 302
L 642 302
L 643 302
L 643 302
L 643 302
L 643 302
L 643 302
L 643 302
L 644 302
L 644 302
L 644 302
L 644 302
L 645 302
L 645 302
L 645 302
L 645 302
L 645 302
L 645 302
L 645 302
L 645 302
L 645 301
L 646 301
L 646 301
L 646 301
L 646 301
L 646 301
L 646 301
L 646 301
L 646 301
L 646 301
L 646 301
L 647 301
L 648 301
L 648 301
L 648 301
L 648 301
L 649 301
L 649 301
L 649 301
L 649 301
L 649 301
L 650 301
L 650 301
L 650 300
L 650 300
L 650 300
L 650 300
L 650 300
L 651 300
L 651 300
L 651 300
L 651 300
L 652 300
L 652 300
L 652 300
L 653 300
L 653 300
L 653 300
L 653 300
L 653 300
L 653 300
L 654 300
L 654 300
L 654 300
L 654 300
L 655 300
L 655 299
L 655 299
L 655 299
L 655 299
L 655 299
L 656 299
L 656 299
L 657 299
L 657 299
L 657 299
L 657 299
L 657 299
L 657 299
L 657 299
L 657 299
L 658 299
L 658 299
L 658 299
L 658 299
L 658 299
L 659 299
L 659 299
L 659 298
L 660 298
L 660 298
L 660 298
L 660 298
L 660 298
L 660 298
L 660 298
L 660 298
L 661 298
L 661 298
L 662 298
L 662 298
L 663 298
L 663 298
L 663 298
L 663 298
L 664 298
L 664 298
L 664 298
L 664 298
L 664 298
L 664 298
L 664 297
L 665 297
L 665 297
L 665 297
L 666 297
L 666 297
L 666 297
L 666 297
L 666 297
L 667 297
L 667 297
L 667 297
L 667 297
L 667 297
L 667 297
L 668 297
L 668 297
L 668 297
L 668 297
L 668 297
L 668 297
L 668 297
L 668 297
L 668 296
L 669 296
L 669 296
L 670 296
L 671 296
L 671 296
L 672 296
L 672 296
L 672 296
L 672 296
L 672 296
L 673 296
L 673 296
L 673 296
L 673 296
L 673 296
L 673 296
L 673 296
L 673 296
L 674 296
L 674 296
L 674 296
L 674 296
L 674 295
L 674 295
L 675 295
L 675 295
L 675 295
L 676 295
L 676 295
L 676 295
L 677 295
L 677 295
L 677 295
L 677 295
L 677 295
L 677 295
L 678 295
L 678 295
L 678 295
L 678 295
L 679 295
L 679 295
L 679 295
L 679 295
L 679 295
L 680 294
L 680 294
L 680 294
L 681 294
L 682 294
L 682 294
L 682 294
L 682 294
L 682 294
L 683 294
L 683 294
L 683 294
L 683 294
L 683 294
L 683 294
L 683 294
L 683 294
L 683 294
L 683 294
L 684 294
L 684 294
L 684 294
L 684 294
L 684 293
L 684 293
L 684 293
L 684 293
L 684 293
L 684 293
L 685 293
L 685 293
L 685 293
L 685 293
L 685 293
L 686 293
L 686 293
L 686 293
L 686 293
L 686 293
L 686 293
L 687 293
L 687 293
L 687 293
L 687 293
L 687 293
L 688 293
L 688 292
L 688 292
L 688 292
L 688 292
L 688 292
L 689 292
L 689 292
L 689 292
L 689 292
L 689 292
L 689 292
L 689 292
L 689 292
L 690 292
L 690 292
L 690 292
L 690 292
L 690 292
L 690 292
L 691 292
L 692 292
L 693 292
L 693 292
L 693 291
L 693 291
L 694 291
L 694 291
L 694 291
L 694 291
L 694 291
L 694 291
L 694 291
L 695 291
L 695 291
L 695 291
L 695 291
L 695 291
L 695 291
L 695 291
L 695 291
L 695 291
L 695 291
L 695 291
L 695 291
L 696 291
L 696 291
L 696 290
L 696 290
L 696 290
L 697 290
L 697 290
L 697 290
L 697 290
L 698 290
L 698 290
L 698 290
L 699 290
L 699 290
L 699 290
L 699 290
L 699 290
L 700 290
L 700 290
L 700 290
L 700 290
L 700 290
L 700 290
L 700 290
L 700 290
L 701 289
L 701 289
L 701 289
L 701 289
L 702 289
L 702 289
L 702 289
L 702 289
L 702 289
L 703 289
L 703 289
L 703 289
L 703 289
L 703 289
L 704 289
L 705 289
L 705 289
L 705 289
L 705 289
L 705 289
L 705 289
L 705 289
L 706 289
L 706 288
L 706 288
L 706 288
L 707 288
L 707 288
L 707 288
L 707 288
L 707 288
L 708 288
L 708 288
L 708 288
L 708 288
L 708 288
L 708 288
L 708 288
L 709 288
L 709 288
L 709 288
L 709 288
L 709 288
L 709 288
L 709 288
L 710 288
L 710 287
L 710 287
L 710 287
L 710 287
L 710 287
L 710 287
L 710 287
L 710 287
L 711 287
L 711 287
L 711 287
L 711 287
L 711 287
L 711 287
L 712 287
L 712 287
L 712 287
L 712 287
L 712 287
L 712 287
L 713 287
L 713 287
L 714 287
L 714 286
L 714 286
L 714 286
L 715 286
L 715 286
L 715 286
L 715 286
L 715 286
L 715 286
L 715 286
L 716 286
L 716 286
L 716 286
L 716 286
L 716 286
L 717 286
L 717 286
L 717 286
L 717 286
L 718 286
L 718 286
L 718 286
L 718 286
L 718 285
L 718 285
L 718 285
L 719 285
L 719 285
L 719 285
L 719 285
L 719 285
L 720 285
L 720 285
L 720 285
L 720 285
L 720 285
L 720 285
L 720 285
L 720 285
L 720 285
L 720 285
L 721 285
L 721 285
L 721 285
L 722 285
L 722 285
L 722 284
L 723 284
L 723 284
L 724 284
L 725 284
L 725 284
L 725 284
L 725 284
L 725 284
L 725 284
L 727 284
L 727 284
L 727 284
L 728 284
L 728 284
L 728 284
L 728 284
L 728 284
L 729 284
L 729 284
L 729 284
L 729 284
L 729 284
L 729 283
L 730 283
L 730 283
L 730 283
L 730 283
L 730 283
L 730 283
L 730 283
L 730 283
L 730 283
L 731 283
L 731 283
L 731 283
L 731 283
L 731 283
L 731 283
L 731 283
L 731 283
L 731 283
L 732 283
L 732 283
L 732 283
L 732 283
L 732 282
L 732 282
L 733 282
L 733 282
L 733 282
L 733 282
L 733 282
L 733 282
L 733 282
L 733 282
L 733 282
L 734 282
L 734 282
L 734 282
L 734 282
L 734 282
L 734 282
L 735 282
L 735 282
L 735 282
L 735 282
L 735 282
L 735 281
L 735 281
L 735 281
L 735 281
L 735 281
L 735 281
L 735 281
L 735 281
L 735 281
L 736 281
L 736 281
L 737 281
L 737 281
L 737 281
L 737 281
L 737 281
L 737 281
L 738 281
L 738 281
L 738 281
L 738 281
L 738 281
L 738 281
L 738 280
L 738 280
L 738 280
L 738 280
L 738 280
L 738 280
L 738 280
L 739 280
L 739 280
L 739 280
L 739 280
L 739 280
L 739 280
L 739 280
L 739 280
L 739 280
L 739 280
L 739 280
L 739 280
L 740 280
L 740 280
L 740 280
L 740 280
L 740 279
L 740 279
L 740 279
L 740 279
L 741 279
L 741 279
L 742 279
L 742 279
L 742 279
L 742 279
L 742 279
L 742 279
L 742 279
L 743 279
L 743 279
L 743 279
L 743 279
L 743 279
L 743 279
L 743 279
L 743 279
L 743 279
L 743 279
L 743 278
L 744 278
L 744 278
L 744 278
L 744 278
L 744 278
L 745 278
L 745 278
L 745 278
L 745 278
L 745 278
L 745 278
L 745 278
L 746 278
L 746 278
L 746 278
L 746 278
L 746 278
L 746 278
L 746 278
L 746 278
L 746 278
L 746 278
L 746 277
L 746 277
L 746 277
L 746 277
L 747 277
L 747 277
L 747 277
L 747 277
L 747 277
L 748 277
L 748 277
L 748 277
L 748 277
L 748 277
L 748 277
L 748 277
L 748 277
L 748 277
L 748 277
L 748 277
L 748 277
L 748 277
L 748 277
L 748 276
L 748 276
L 748 276
L 748 276
L 748 276
L 748 276
L 748 276
L 748 276
L 748 276
L 748 276
L 748 276
L 748 276
L 748 276
L 748 276
L 748 276
L 748 276
L 748 276
L 748 276
L 748 276
L 748 276
L 748 276
L 748 276
L 748 276
L 748 275
L 748 275
L 748 275
L 748 275
L 748 275
L 748 275
L 748 275
L 748 275
L 748 275
L 748 275
L 748 275
L 748 275
L 748 275
L 748 275
L 748 275
L 748 275
L 748 275
L 748 275
L 748 275
L 748 275
L 748 275
L 748 275
L 748 275
L 748 274
L 748 274
L 748 274
L 748 274
L 748 274
L 748 274
L 748 274
L 748 274
L 748 274
L 748 274
L 748 274
L 748 274
L 748 274
L 748 274
L 748 274
L 749 274
L 749 274
L 749 274
L 749 274
L 749 274
L 749 274
L 749 274
L 749 274
L 749 273
L 749 273
L 749 273
L 749 273
L 749 273
L 749 273
L 749 273
L 749 273
L 749 273
L 749 273
L 749 273
L 749 273
L 749 273
L 749 273
L 749 273
L 749 273
L 749 273
L 749 273
L 749 273
L 749 273
L 749 273
L 749 273
L 749 273
L 749 272
L 749 272
L 749 272
L 749 272
L 749 272
L 749 272
L 749 272
L 749 272
L 749 272
L 749 272
L 749 272
L 749 272
L 749 272
L 749 272
L 749 272
L 749 272
L 749 272
L 749 272
L 749 272
L 749 272
L 749 272
L 749 272
L 749 272
L 749 271
L 749 271
L 750 271
L 750 271
L 750 271
L 750 271
L 750 271
L 750 271
L 750 271
L 750 271
L 750 271
L 750 271
L 750 271
L 750 271
L 750 271
L 750 271
L 750 271
L 750 271
L 750 271
L 750 271
L 750 271
L 750 271
L 750 271
L 750 270
L 750 270
L 750 270
L 750 270
L 750 270
L 750 270
L 750 270
L 750 270
L 750 270
L 750 270
L 750 270
L 750 270
L 750 270
L 750 270
L 750 270
L 750 270
L 750 270
L 750 270
L 750 270
L 750 270
L 750 270
L 750 270
L 750 270
L 750 269
L 750 269
L 750 269
L 750 269
L 750 269
L 750 269
L 750 269
L 750 269
L 750 269
L 750 269
L 750 269
L 750 269
L 750 269
L 750 269
L 750 269
L 750 269
L 750 269
L 750 269
L 750 269
L 750 269
L 750 269
L 750 269
L 750 269
L 750 268
L 750 268
L 750 268
L 750 268
L 750 268
L 750 268
L 750 268
L 750 268
L 750 268
L 750 268
L 750 268
L 750 268
L 750 268
L 750 268
L 750 268
L 750 268
L 750 268
L 750 268
L 750 268
L 750 268
L 750 268
L 750 268
L 750 268
L 750 267
L 750 267
L 750 267
L 750 267
L 750 267
L 750 267
L 750 267
L 750 267
L 750 267
L 751 267
L 751 267
L 751 267
L 751 267
L 751 267
L 751 267
L 751 267
L 751 267
L 751 267
L 751 267
L 751 267
L 751 267
L 751 267
L 751 267
L 751 266
L 751 266
L 751 266
L 751 266
L 751 266
L 751 266
L 751 266
L 751 266
L 751 266
L 751 266
L 751 266
L 751 266
L 751 266
L 751 266
L 751 266
L 751 266
L 751 266
L 751 266
L 751 266
L 751 266
L 751 266
L 751 266
L 751 266
L 751 265
L 751 265
L 751 265
L 751 265
L 751 265
L 751 265
L 751 265
L 751 265
L 751 265
L 751 265
L 751 265
L 751 265
L 751 265
L 751 265
L 751 265
L 752 265
L 752 265
L 752 265
L 752 265
L 752 265
L 752 265
L 752 265
L 752 264
L 752 264
L 752 264
L 752 264
L 752 264
L 752 264
L 752 264
L 752 264
L 752 264
L 752 264
L 752 264
L 752 264
L 752 264
L 752 264
L 752 264
L 752 264
L 752 264
L 752 264
L 752 264
L 752 264
L 752 264
L 752 264
L 752 264
L 752 263
L 752 263
L 752 263
L 752 263
L 752 263
L 752 263
L 752 263
L 752 263
L 752 263
L 752 263
L 752 263
L 752 263
L 752 263
L 753 263
L 753 263
L 753 263
L 753 263
L 753 263
L 753 263
L 753 263
L 753 263
L 753 263
L 753 263
L 753 262
L 753 262
L 753 262
L 753 262
L 754 262
L 754 262
L 754 262
L 754 262
L 754 262
L 754 262
L 754 262
L 754 262
L 754 262
L 754 262
L 755 262
L 755 262
L 755 262
L 755 262
L 755 262
L 755 262
L 755 262
L 755 262
L 755 262
L 755 261
L 755 261
L 756 261
L 756 261
L 756 261
L 756 261
L 756 261
L 756 261
L 756 261
L 756 261
L 756 261
L 756 261
L 756 261
L 756 261
L 756 261
L 756 261
L 756 261
L 756 261
L 756 261
L 757 261
L 757 261
L 757 261
L 757 261
L 757 260
L 757 260
L 757 260
L 757 260
L 757 260
L 757 260
L 757 260
L 758 260
L 758 260
L 758 260
L 758 260
L 758 260
L 758 260
L 758 260
L 758 260
L 759 260
L 759 260
L 759 260
L 759 260
L 759 260
L 759 260
L 759 260
L 759 260
L 759 259
L 759 259
L 760 259
L 760 259
L 760 259
L 760 259
L 760 259
L 760 259
L 760 259
L 760 259
L 760 259
L 760 259
L 760 259
L 760 259
L 760 259
L 760 259
L 760 259
L 760 259
L 760 259
L 760 259
L 760 259
L 760 259
L 760 259
L 760 258
L 760 258
L 760 258
L 760 258
L 760 258
L 760 258
L 760 258
L 760 258
L 760 258
L 760 258
L 760 258
L 760 258
L 760 258
L 760 258
L 760 258
L 760 258
L 761 258
L 761 258
L 761 258
L 761 258
L 761 258
L 761 258
L 761 258
L 761 257
L 761 257
L 761 257
L 761 257
L 761 257
L 761 257
L 761 257
L 761 257
L 761 257
L 761 257
L 761 257
L 761 257
L 761 257
L 761 257
L 761 257
L 761 257
L 761 257
L 761 257
L 761 257
L 761 257
L 761 257
L 761 257
L 761 257
L 761 256
L 761 256
L 761 256
L 761 256
L 761 256
L 761 256
L 761 256
L 761 256
L 761 256
L 761 256
L 761 256
L 761 256
L 762 256
L 762 256
L 762 256
L 762 256
L 762 256
L 762 256
L 762 256
L 762 256
L 762 256
L 762 256
L 762 256
L 762 255
L 762 255
L 762 255
L 762 255
L 762 255
L 762 255
L 762 255
L 762 255
L 762 255
L 762 255
L 762 255
L 762 255
L 762 255
L 762 255
L 762 255
L 762 255
L 762 255
L 762 255
L 762 255
L 762 255
L 762 255
L 762 255
L 762 255
L 762 254
L 762 254
L 762 254
L 762 254
L 762 254
L 762 254
L 762 254
L 762 254
L 762 254
L 762 254
L 762 254
L 762 254
L 762 254
L 762 254
L 762 254
L 762 254
L 762 254
L 762 254
L 762 254
L 762 254
L 762 254
L 762 254
L 762 254
L 762 253
L 762 253
L 762 253
L 762 253
L 762 253
L 762 253
L 762 253
L 762 253
L 762 253
L 762 253
L 762 253
L 762 253
L 762 253
L 762 253
L 762 253
L 762 253
L 762 253
L 762 253
L 762 253
L 762 253
L 762 253
L 762 253
L 762 253
L 762 252
L 762 252
L 762 252
L 762 252
L 762 252
L 762 252
L 762 252
L 762 252
L 762 252
L 762 252
L 762 252
L 763 252
L 763 252
L 763 252
L 763 252
L 763 252
L 763 252
L 763 252
L 763 252
L 763 252
L 763 252
L 763 252
L 763 252
L 763 251
L 763 251
L 763 251
L 763 251
L 763 251
L 763 251
L 763 251
L 763 251
L 763 251
L 763 251
L 763 251
L 763 251
L 763 251
L 763 251
L 763 251
L 763 251
L 763 251
L 763 251
L 763 251
L 763 251
L 763 251
L 763 251
L 763 251
L 763 250
L 763 250
L 763 250
L 764 250
L 764 250
L 764 250
L 764 250
L 764 250
L 764 250
L 764 250
L 764 250
L 764 250
L 764 250
L 764 250
L 764 250
L 764 250
L 764 250
L 764 250
L 764 250
L 764 250
L 764 250
L 764 250
L 764 250
L 764 249
L 764 249
L 764 249
L 764 249
L 764 249
L 764 249
L 764 249
L 764 249
L 765 249
L 765 249
L 765 249
L 765 249
L 765 249
L 765 249
L 765 249
L 765 249
L 765 249
L 765 249
L 765 249
L 765 249
L 765 249
L 765 249
L 765 249
L 765 248
L 765 248
L 765 248
L 765 248
L 765 248
L 765 248
L 765 248
L 765 248
L 765 248
L 765 248
L 765 248
L 765 248
L 765 248
L 766 248
L 766 248
L 766 248
L 766 248
L 766 248
L 766 248
L 766 248
L 766 248
L 766 248
L 766 247
L 766 247
L 766 247
L 766 247
L 766 247
L 766 247
L 766 247
L 766 247
L 766 247
L 766 247
L 766 247
L 766 247
L 766 247
L 766 247
L 766 247
L 766 247
L 766 247
L 766 247
L 766 247
L 766 247
L 766 247
L 767 247
L 767 247
L 767 246
L 767 246
L 767 246
L 767 246
L 767 246
L 767 246
L 767 246
L 767 246
L 767 246
L 767 246
L 767 246
L 767 246
L 767 246
L 767 246
L 767 246
L 767 246
L 767 246
L 767 246
L 767 246
L 767 246
L 767 246
L 768 246
L 768 246
L 768 245
L 768 245
L 768 245
L 768 245
L 768 245
L 768 245
L 768 245
L 768 245
L 768 245
L 768 245
L 768 245
L 768 245
L 768 245
L 769 245
L 769 245
L 769 245
L 769 245
L 769 245
L 769 245
L 769 245
L 769 245
L 769 245
L 769 245
L 769 244
L 769 244
L 769 244
L 770 244
L 770 244
L 770 244
L 770 244
L 770 244
L 770 244
L 771 244
L 771 244
L 771 244
L 771 244
L 771 244
L 771 244
L 771 244
L 771 244
L 771 244
L 771 244
L 771 244
L 771 244
L 772 244
L 772 244
L 772 243
L 772 243
L 772 243
L 772 243
L 772 243
L 772 243
L 772 243
L 772 243
L 772 243
L 772 243
L 772 243
L 772 243
L 772 243
L 772 243
L 772 243
L 772 243
L 773 243
L 773 243
L 773 243
L 773 243
L 773 243
L 773 243
L 773 243
L 773 242
L 773 242
L 773 242
L 773 242
L 773 242
L 773 242
L 773 242
L 773 242
L 774 242
L 774 242
L 774 242
L 774 242
L 774 242
L 774 242
L 774 242
L 775 242
L 775 242
L 775 242
L 775 242
L 775 242
L 775 242
L 775 242
L 775 242
L 775 241
L 775 241
L 775 241
L 775 241
L 775 241
L 775 241
L 775 241
L 775 241
L 775 241
L 775 241
L 776 241
L 776 241
L 776 241
L 776 241
L 776 241
L 776 241
L 776 241
L 776 241
L 776 241
L 776 241
L 776 241
L 776 241
L 776 241
L 776 240
L 776 240
L 776 240
L 776 240
L 776 240
L 776 240
L 776 240
L 776 240
L 777 240
L 777 240
L 777 240
L 777 240
L 777 240
L 777 240
L 777 240
L 777 240
L 777 240
L 777 240
L 777 240
L 777 240
L 777 240
L 777 240
L 777 240
L 777 239
L 777 239
L 777 239
L 777 239
L 777 239
L 777 239
L 778 239
L 778 239
L 778 239
L 778 239
L 778 239
L 778 239
L 778 239
L 778 239
L 778 239
L 779 239
L 779 239
L 779 239
L 779 239
L 779 239
L 779 239
L 779 239
L 779 239
L 779 238
L 780 238
L 780 238
L 780 238
L 780 238
L 780 238
L 780 238
L 780 238
L 780 238
L 780 238
L 780 238
L 780 238
L 780 238
L 780 238
L 780 238
L 780 238
L 780 238
L 780 238
L 780 238
L 780 238
L 780 238
L 780 238
L 780 238
L 780 237
L 780 237
L 780 237
L 780 237
L 780 237
L 780 237
L 780 237
L 780 237
L 780 237
L 780 237
L 780 237
L 780 237
L 780 237
L 781 237
L 781 237
L 781 237
L 781 237
L 781 237
L 781 237
L 781 237
L 781 237
L 781 237
L 781 237
L 781 236
L 781 236
L 781 236
L 781 236
L 781 236
L 781 236
L 781 236
L 781 236
L 781 236
L 781 236
L 781 236
L 781 236
L 781 236
L 781 236
L 781 236
L 782 236
L 782 236
L 782 236
L 782 236
L 782 236
L 782 236
L 782 236
L 782 236
L 782 235
L 782 235
L 782 235
L 782 235
L 782 235
L 782 235
L 782 235
L 782 235
L 782 235
L 782 235
L 782 235
L 782 235
L 782 235
L 782 235
L 782 235
L 782 235
L 782 235
L 782 235
L 782 235
L 782 235
L 782 235
L 782 235
L 782 235
L 782 234
L 782 234
L 782 234
L 782 234
L 782 234
L 782 234
L 782 234
L 782 234
L 782 234
L 782 234
L 782 234
L 782 234
L 782 234
L 782 234
L 782 234
L 782 234
L 782 234
L 782 234
L 782 234
L 782 234
L 782 234
L 782 234
L 782 234
L 782 233
L 782 233
L 782 233
L 782 233
L 782 233
L 782 233
L 782 233
L 782 233
L 782 233
L 782 233
L 782 233
L 782 233
L 782 233
L 782 233
L 782 233
L 782 233
L 782 233
L 782 233
L 782 233
L 782 233
L 782 233
L 782 233
L 782 233
L 782 232
L 782 232
L 782 232
L 782 232
L 782 232
L 782 232
L 782 232
L 783 232
L 783 232
L 783 232
L 783 232
L 783 232
L 783 232
L 783 232
L 783 232
L 783 232
L 783 232
L 783 232
L 783 232
L 783 232
L 783 232
L 783 232
L 783 232
L 783 231
L 783 231
L 783 231
L 783 231
L 783 231
L 783 231
L 783 231
L 783 231
L 783 231
L 783 231
L 783 231
L 783 231
L 783 231
L 783 231
L 783 231
L 783 231
L 783 231
L 783 231
L 783 231
L 783 231
L 783 231
L 783 231
L 783 230
L 783 230
L 783 230
L 783 230
L 783 230
L 783 230
L 783 230
L 783 230
L 783 230
L 783 230
L 783 230
L 783 230
L 783 230
L 783 230
L 783 230
L 783 230
L 783 230
L 783 230
L 783 230
L 783 230
L 783 230
L 783 230
L 783 230
L 783 229
L 783 229
L 783 229
L 783 229
L 783 229
L 783 229
L 783 229
L 783 229
L 783 229
L 783 229
L 783 229
L 783 229
L 783 229
L 783 229
L 783 229
L 783 229
L 783 229
L 783 229
L 783 229
L 783 229
L 783 229
L 783 229
L 783 229
L 783 228
L 784 228
L 784 228
L 784 228
L 784 228
L 784 228
L 784 228
L 784 228
L 784 228
L 784 228
L 784 228
L 784 228
L 784 228
L 784 228
L 784 228
L 784 228
L 784 228
L 784 228
L 784 228
L 784 228
L 784 228
L 784 228
L 784 228
L 784 227
L 784 227
L 784 227
L 784 227
L 784 227
L 784 227
L 784 227
L 784 227
L 784 227
L 784 227
L 784 227
L 784 227
L 784 227
L 784 227
L 784 227
L 784 227
L 784 227
L 784 227
L 784 227
L 784 227
L 784 227
L 784 227
L 784 227
L 784 226
L 784 226
L 784 226
L 784 226
L 784 226
L 784 226
L 784 226
L 784 226
L 784 226
L 784 226
L 784 226
L 784 226
L 784 226
L 784 226
L 784 226
L 784 226
L 784 226
L 784 226
L 784 226
L 784 226
L 784 226
L 784 226
L 784 226
L 784 225
L 784 225
L 784 225
L 784 225
L 784 225
L 784 225
L 784 225
L 784 225
L 784 225
L 784 225
L 784 225
L 784 225
L 784 225
L 784 225
L 784 225
L 784 225
L 784 225
L 784 225
L 784 225
L 784 225
L 784 225
L 784 225
L 784 225
L 784 224
L 784 224
L 784 224
L 784 224
L 784 224
L 784 224
L 784 224
L 784 224
L 784 224
L 784 224
L 784 224
L 784 224
L 784 224
L 784 224
L 784 224
L 784 224
L 784 224
L 784 224
L 784 224
L 784 224
L 784 224
L 784 224
L 784 224
L 784 223
L 784 223
L 784 223
L 784 223
L 784 223
L 784 223
L 784 223
L 784 223
L 784 223
L 784 223
L 784 223
L 784 223
L 784 223
L 784 223
L 784 223
L 784 223
L 784 223
L 784 223
L 784 223
L 784 223
L 784 223
L 784 223
L 784 223
L 784 222
L 784 222
L 784 222
L 784 222
L 784 222
L 784 222
L 784 222
L 784 222
L 784 222
L 784 222
L 784 222
L 784 222
L 784 222
L 784 222
L 784 222
L 784 222
L 784 222
L 784 222
L 784 222
L 784 222
L 784 222
L 784 222
L 784 222
L 784 221
L 784 221
L 784 221
L 784 221
L 784 221
L 784 221
L 784 221
L 784 221
L 784 221
L 784 221
L 784 221
L 784 221
L 784 221
L 784 221
L 784 221
L 784 221
L 784 221
L 784 221
L 784 221
L 784 221
L 784 221
L 784 221
L 784 221
L 784 220
L 784 220
L 784 220
L 784 220
L 784 220
L 784 220
L 784 220
L 784 220
L 784 220
L 784 220
L 784 220
L 784 220
L 784 220
L 784 220
L 784 220
L 784 220
L 784 220
L 784 220
L 784 220
L 784 220
L 784 220
L 784 220
L 784 220
L 784 219
L 784 219
L 784 219
L 784 219
L 784 219
L 784 219
L 784 219
L 784 219
L 784 219
L 784 219
L 784 219
L 784 219
L 784 219
L 784 219
L 784 219
L 784 219
L 784 219
L 784 219
L 784 219
L 784 219
L 784 219
L 784 219
L 784 219
L 784 218
L 784 218
L 784 218
L 784 218
L 784 218
L 784 218
L 784 218
L 784 218
L 784 218
L 784 218
L 784 218
L 784 218
L 784 218
L 784 218
L 784 218
L 784 218
L 784 218
L 784 218
L 784 218
L 784 218
L 784 218
L 784 218
L 784 218
L 784 217
L 784 217
L 784 217
L 784 217
L 784 217
L 784 217
L 784 217
L 784 217
L 784 217
L 784 217
L 784 217
L 784 217
L 784 217
L 784 217
L 784 217
L 784 217
L 784 217
L 784 217
L 784 217
L 784 217
L 784 217
L 784 217
L 784 217
L 784 216
L 784 216
L 784 216
L 784 216
L 784 216
L 784 216
L 784 216
L 784 216
L 784 216
L 784 216
L 784 216
L 784 216
L 784 216
L 784 216
L 784 216
L 784 216
L 784 216
L 784 216
L 784 216
L 784 216
L 784 216
L 784 216
L 784 216
L 784 215
L 784 215
L 784 215
L 784 215
L 784 215
L 784 215
L 784 215
L 784 215
L 784 215
L 784 215
L 784 215
L 784 215
L 784 215
L 784 215
L 784 215
L 784 215
L 784 215
L 784 215
L 784 215
L 784 215
L 784 215
L 784 215
L 784 215
L 784 214
L 784 214
L 784 214
L 784 214
L 784 214
L 784 214
L 784 214
L 784 214
L 784 214
L 784 214
L 784 214
L 784 214
L 784 214
L 784 214
L 784 214
L 784 214
L 784 214
L 784 214
L 784 214
L 784 214
L 784 214
L 784 214
L 784 213
L 784 213
L 784 213
L 784 213
L 784 213
L 784 213
L 784 213
L 784 213
L 784 213
L 784 213
L 784 213
L 784 213
L 784 213
L 784 213
L 784 213
L 784 213
L 784 213
L 784 213
L 784 213
L 784 213
L 784 213
L 784 213
L 784 213
L 784 212
L 784 212
L 784 212
L 784 212
L 784 212
L 785 212
L 785 212
L 785 212
L 785 212
L 785 212
L 785 212
L 785 212
L 785 212
L 785 212
L 785 212
L 785 212
L 785 212
L 785 212
L 785 212
L 785 212
L 785 212
L 785 212
L 785 212
L 785 211
L 785 211
L 785 211
L 785 211
L 785 211
L 785 211
L 785 211
L 785 211
L 785 211
L 785 211
L 785 211
L 785 211
L 785 211
L 785 211
L 785 211
L 785 211
L 785 211
L 785 211
L 785 211
L 785 211
L 785 211
L 785 211
L 785 211
L 785 210
L 785 210
L 785 210
L 785 210
L 785 210
L 785 210
L 785 210
L 785 210
L 785 210
L 785 210
L 785 210
L 785 210
L 785 210
L 785 210
L 785 210
L 785 210
L 785 210
L 785 210
L 785 210
L 785 210
L 785 210
L 785 210
L 785 210
L 785 209
L 785 209
L 785 209
L 785 209
L 785 209
L 785 209
L 785 209
L 785 209
L 785 209
L 785 209
L 785 209
L 785 209
L 785 209
L 785 209
L 785 209
L 785 209
L 785 209
L 785 209
L 785 209
L 785 209
L 785 209
L 785 209
L 785 209
L 785 208
L 785 208
L 785 208
L 785 208
L 785 208
L 785 208
L 785 208
L 785 208
L 785 208
L 785 208
L 785 208
L 785 208
L 785 208
L 785 208
L 785 208
L 785 208
L 785 208
L 785 208
L 785 208
L 785 208
L 785 208
L 785 208
L 785 208
L 785 207
L 785 207
L 785 207
L 785 207
L 785 207
L 785 207
L 785 207
L 785 207
L 785 207
L 785 207
L 785 207
L 785 207
L 785 207
L 785 207
L 785 207
L 785 207
L 785 207
L 785 207
L 785 207
L 785 207
L 785 207
L 785 207
L 785 207
L 785 206
L 785 206
L 785 206
L 785 206
L 785 206
L 785 206
L 785 206
L 785 206
L 785 206
L 785 206
L 785 206
L 785 206
L 785 206
L 785 206
L 785 206
L 785 206
L 785 206
L 785 206
L 785 206
L 785 206
L 785 206
L 785 206
L 785 206
L 785 205
L 785 205
L 785 205
L 785 205
L 785 205
L 785 205
L 785 205
L 785 205
L 785 205
L 785 205
L 785 205
L 785 205
L 785 205
L 785 205
L 785 205
L 785 205
L 785 205
L 785 205
L 785 205
L 785 205
L 785 205
L 785 205
L 785 205
L 785 204
L 785 204
L 785 204
L 785 204
L 785 204
L 785 204
L 785 204
L 785 204
L 785 204
L 785 204
L 785 204
L 785 204
L 785 204
L 785 204
L 785 204
L 785 204
L 785 204
L 785 204
L 785 204
L 785 204
L 785 204
L 785 204
L 785 204
L 785 203
L 785 203
L 785 203
L 785 203
L 785 203
L 785 203
L 785 203
L 785 203
L 785 203
L 785 203
L 785 203
L 785 203
L 785 203
L 785 203
L 785 203
L 785 203
L 785 203
L 785 203
L 785 203
L 785 203
L 785 203
L 785 203
L 785 203
L 785 202
L 785 202
L 785 202
L 785 202
L 785 202
L 785 202
L 785 202
L 785 202
L 785 202
L 785 202
L 785 202
L 785 202
L 785 202
L 785 202
L 785 202
L 785 202
L 785 202
L 785 202
L 785 202
L 785 202
L 785 202
L 785 202
L 785 202
L 785 201
L 785 201
L 785 201
L 785 201
L 785 201
L 785 201
L 785 201
L 785 201
L 785 201
L 785 201
L 785 201
L 785 201
L 785 201
L 785 201
L 785 201
L 785 201
L 785 201
L 785 201
L 785 201
L 785 201
L 785 201
L 785 201
L 785 201
L 785 200
L 785 200
L 785 200
L 785 200
L 785 200
L 785 200
L 785 200
L 785 200
L 785 200
L 785 200
L 785 200
L 785 200
L 785 200
L 785 200
L 785 200
L 785 200
L 785 200
L 785 200
L 785 200
L 785 200
L 785 200
L 785 200
L 785 200
L 785 199
L 785 199
L 785 199
L 785 199
L 785 199
L 785 199
L 785 199
L 785 199
L 785 199
L 786 199
L 786 199
L 786 199
L 786 199
L 786 199
L 786 199
L 786 199
L 786 199
L 786 199
L 786 199
L 786 199
L 786 199
L 786 199
L 786 199
L 786 198
L 786 198
L 786 198
L 786 198
L 786 198
L 786 198
L 786 198
L 786 198
L 786 198
L 786 198
L 786 198
L 786 198
L 786 198
L 786 198
L 786 198
L 786 198
L 786 198
L 786 198
L 786 198
L 786 198
L 786 198
L 786 198
L 786 198
L 786 197
L 786 197
L 786 197
L 786 197
L 786 197
L 786 197
L 786 197
L 786 197
L 786 197
L 786 197
L 786 197
L 786 197
L 786 197
L 786 197
L 786 197
L 786 197
L 786 197
L 786 197
L 786 197
L 786 197
L 786 197
L 786 197
L 786 196
L 786 196
L 786 196
L 786 196
L 786 196
L 786 196
L 786 196
L 786 196
L 786 196
L 786 196
L 786 196
L 786 196
L 786 196
L 786 196
L 786 196
L 786 196
L 786 196
L 786 196
L 786 196
L 786 196
L 786 196
L 786 196
L 786 196
L 786 195
L 786 195
L 786 195
L 786 195
L 786 195
L 786 195
L 786 195
L 786 195
L 786 195
L 786 195
L 786 195
L 786 195
L 786 195
L 786 195
L 786 195
L 786 195
L 786 195
L 786 195
L 786 195
L 786 195
L 786 195
L 786 195
L 786 195
L 786 194
L 786 194
L 786 194
L 786 194
L 786 194
L 786 194
L 786 194
L 786 194
L 786 194
L 786 194
L 786 194
L 786 194
L 786 194
L 786 194
L 786 194
L 786 194
L 786 194
L 786 194
L 786 194
L 786 194
L 786 194
L 786 194
L 786 194
L 786 193
L 786 193
L 786 193
L 786 193
L 786 193
L 786 193
L 786 193
L 786 193
L 786 193
L 786 193
L 786 193
L 786 193
L 786 193
L 786 193
L 786 193
L 786 193
L 786 193
L 786 193
L 786 193
L 786 193
L 786 193
L 786 193
L 786 193
L 786 192
L 786 192
L 786 192
L 786 192
L 786 192
L 786 192
L 786 192
L 786 192
L 786 192
L 786 192
L 786 192
L 786 192
L 786 192
L 786 192
L 786 192
L 786 192
L 786 192
L 786 192
L 786 192
L 786 192
L 787 192
L 787 192
L 787 192
L 787 191
L 787 191
L 787 191
L 787 191
L 787 191
L 787 191
L 787 191
L 787 191
L 787 191
L 787 191
L 787 191
L 787 191
L 787 191
L 787 191
L 787 191
L 787 191
L 787 191
L 787 191
L 787 191
L 787 191
L 787 191
L 787 191
L 787 191
L 787 190
L 787 190
L 787 190
L 787 190
L 787 190
L 787 190
L 788 190
L 788 190
L 788 190
L 788 190
L 788 190
L 788 190
L 788 190
L 788 190
L 788 190
L 788 190
L 788 190
L 788 190
L 789 190
L 789 190
L 789 190
L 789 190
L 789 190
L 789 189
L 789 189
L 789 189
L 789 189
L 789 189
L 789 189
L 789 189
L 789 189
L 789 189
L 789 189
L 789 189
L 789 189
L 789 189
L 789 189
L 789 189
L 789 189
L 789 189
L 789 189
L 789 189
L 789 189
L 790 189
L 790 189
L 790 189
L 790 188
L 790 188
L 790 188
L 790 188
L 790 188
L 790 188
L 790 188
L 790 188
L 790 188
L 790 188
L 790 188
L 790 188
L 790 188
L 790 188
L 790 188
L 790 188
L 790 188
L 790 188
L 790 188
L 790 188
L 790 188
L 790 188
L 790 188
L 790 187
L 790 187
L 790 187
L 790 187
L 790 187
L 790 187
L 790 187
L 790 187
L 790 187
L 790 187
L 790 187
L 791 187
L 791 187
L 791 187
L 791 187
L 791 187
L 791 187
L 791 187
L 791 187
L 791 187
L 791 187
L 791 187
L 791 187
L 791 186
L 791 186
L 791 186
L 791 186
L 791 186
L 791 186
L 791 186
L 791 186
L 791 186
L 791 186
L 791 186
L 791 186
L 791 186
L 791 186
L 791 186
L 792 186
L 792 186
L 792 186
L 792 186
L 792 186
L 792 186
L 792 186
L 792 186
L 792 185
L 792 185
L 792 185
L 792 185
L 793 185
L 793 185
L 793 185
L 793 185
L 793 185
L 793 185
L 793 185
L 793 185
L 793 185
L 793 185
L 793 185
L 793 185
L 793 185
L 793 185
L 793 185
L 793 185
L 793 185
L 793 185
L 793 185
L 793 184
L 793 184
L 793 184
L 793 184
L 793 184
L 793 184
L 793 184
L 793 184
L 793 184
L 793 184
L 793 184
L 793 184
L 793 184
L 793 184
L 793 184
L 793 184
L 794 184
L 794 184
L 794 184
L 794 184
L 794 184
L 794 184
L 794 184
L 794 183
L 794 183
L 794 183
L 794 183
L 794 183
L 794 183
L 794 183
L 794 183
L 794 183
L 794 183
L 794 183
L 794 183
L 794 183
L 794 183
L 794 183
L 794 183
L 795 183
L 795 183
L 795 183
L 795 183
L 795 183
L 795 183
L 795 183
L 795 182
L 795 182
L 795 182
L 795 182
L 795 182
L 795 182
L 795 182
L 795 182
L 795 182
L 795 182
L 795 182
L 795 182
L 795 182
L 796 182
L 796 182
L 796 182
L 796 182
L 796 182
L 796 182
L 796 182
L 796 182
L 796 182
L 796 182
L 796 181
L 796 181
L 796 181
L 796 181
L 796 181
L 797 181
L 797 181
L 797 181
L 797 181
L 797 181
L 797 181
L 797 181
L 797 181
L 797 181
L 797 181
L 797 181
L 797 181
L 798 181
L 798 181
L 798 181
L 798 181
L 798 181
L 798 181
L 798 180
L 798 180
L 798 180
L 798 180
L 798 180
L 798 180
L 798 180
L 798 180
L 798 180
L 798 180
L 798 180
L 798 180
L 799 180
L 799 180
L 799 180
L 799 180
L 799 180
L 799 180
L 799 180
L 799 180
L 799 180
L 799 180
L 799 179
L 799 179
L 799 179
L 799 179
L 799 179
L 799 179
L 799 179
L 799 179
L 799 179
L 799 179
L 799 179
L 799 179
L 800 179
L 800 179
L 800 179
L 800 179
L 800 179
L 800 179
L 800 179
L 800 179
L 800 179
L 800 179
L 800 179
L 800 178
L 800 178
L 800 178
L 800 178
L 800 178
L 800 178
L 800 178
L 800 178
L 801 178
L 801 178
L 801 178
L 801 178
L 801 178
L 801 178
L 801 178
L 801 178
L 801 178
L 801 178
L 801 178
L 801 178
L 801 178
L 801 178
L 801 178
L 801 177
L 801 177
L 802 177
L 802 177
L 802 177
L 802 177
L 802 177
L 802 177
L 802 177
L 803 177
L 803 177
L 803 177
L 803 177
L 803 177
L 803 177
L 803 177
L 803 177
L 804 177
L 804 177
L 804 177
L 804 177
L 804 177
L 804 177
L 804 176
L 804 176
L 804 176
L 804 176
L 804 176
L 804 176
L 804 176
L 804 176
L 804 176
L 804 176
L 804 176
L 804 176
L 804 176
L 804 176
L 804 176
L 804 176
L 804 176
L 804 176
L 804 176
L 804 176
L 804 176
L 804 176
L 804 176
L 804 175
L 804 175
L 804 175
L 804 175
L 804 175
L 804 175
L 804 175
L 804 175
L 804 175
L 804 175
L 804 175
L 804 175
L 804 175
L 804 175
L 804 175
L 804 175
L 804 175
L 805 175
L 805 175
L 805 175
L 805 175
L 805 175
L 805 175
L 805 174
L 805 174
L 805 174
L 805 174
L 805 174
L 805 174
L 805 174
L 805 174
L 805 174
L 805 174
L 805 174
L 805 174
L 805 174
L 805 174
L 805 174
L 805 174
L 805 174
L 805 174
L 805 174
L 805 174
L 805 174
L 805 174
L 805 174
L 805 173
L 805 173
L 805 173
L 805 173
L 805 173
L 805 173
L 805 173
L 805 173
L 805 173
L 805 173
L 805 173
L 805 173
L 805 173
L 805 173
L 805 173
L 805 173
L 805 173
L 805 173
L 805 173
L 805 173
L 805 173
L 805 173
L 805 173
L 805 172
L 805 172
L 805 172
L 805 172
L 805 172
L 805 172
L 805 172
L 805 172
L 805 172
L 805 172
L 805 172
L 805 172
L 805 172
L 805 172
L 805 172
L 805 172
L 805 172
L 805 172
L 805 172
L 805 172
L 805 172
L 805 172
L 805 172
L 805 171
L 805 171
L 805 171
L 805 171
L 805 171
L 805 171
L 805 171
L 805 171
L 805 171
L 805 171
L 805 171
L 805 171
L 805 171
L 805 171
L 805 171
L 805 171
L 805 171
L 805 171
L 805 171
L 805 171
L 805 171
L 805 171
L 805 171
L 805 170
L 805 170
L 805 170
L 805 170
L 805 170
L 805 170
L 805 170
L 805 170
L 805 170
L 805 170
L 805 170
L 805 170
L 805 170
L 805 170
L 805 170
L 805 170
L 805 170
L 805 170
L 805 170
L 805 170
L 805 170
L 805 170
L 805 170
L 805 169
L 805 169
L 805 169
L 805 169
L 805 169
L 805 169
L 805 169
L 805 169
L 805 169
L 805 169
L 805 169
L 805 169
L 805 169
L 805 169
L 805 169
L 805 169
L 805 169
L 805 169
L 805 169
L 805 169
L 805 169
L 805 169
L 805 169
L 805 168
L 805 168
L 805 168
L 805 168
L 805 168
L 805 168
L 805 168
L 805 168
L 805 168
L 805 168
L 805 168
L 805 168
L 805 168
L 805 168
L 805 168
L 805 168
L 805 168
L 805 168
L 805 168
L 805 168
L 805 168
L 805 168
L 805 168
L 805 167
L 805 167
L 805 167
L 805 167
L 805 167
L 805 167
L 805 167
L 805 167
L 805 167
L 805 167
L 805 167
L 805 167
L 805 167
L 805 167
L 805 167
L 805 167
L 805 167
L 805 167
L 805 167
L 805 167
L 805 167
L 805 167
L 805 167
L 805 166
L 805 166
L 805 166
L 805 166
L 805 166
L 805 166
L 805 166
L 805 166
L 805 166
L 805 166
L 805 166
L 805 166
L 805 166
L 805 166
L 805 166
L 805 166
L 805 166
L 805 166
L 805 166
L 805 166
L 805 166
L 805 166
L 805 166
L 805 165
L 805 165
L 805 165
L 805 165
L 805 165
L 805 165
L 805 165
L 805 165
L 805 165
L 805 165
L 805 165
L 805 165
L 805 165
L 805 165
L 805 165
L 805 165
L 805 165
L 805 165
L 806 165
L 806 165
L 806 165
L 806 165
L 806 165
L 806 164
L 806 164
L 806 164
L 806 164
L 806 164
L 806 164
L 806 164
L 806 164
L 806 164
L 806 164
L 806 164
L 806 164
L 806 164
L 806 164
L 806 164
L 806 164
L 806 164
L 806 164
L 806 164
L 806 164
L 806 164
L 806 164
L 806 163
L 806 163
L 806 163
L 806 163
L 806 163
L 806 163
L 806 163
L 806 163
L 806 163
L 806 163
L 806 163
L 806 163
L 806 163
L 806 163
L 806 163
L 806 163
L 806 163
L 806 163
L 806 163
L 806 163
L 806 163
L 806 163
L 806 163
L 806 162
L 806 162
L 806 162
L 806 162
L 806 162
L 806 162
L 806 162
L 806 162
L 806 162
L 806 162
L 806 162
L 806 162
L 806 162
L 806 162
L 806 162
L 806 162
L 806 162
L 806 162
L 806 162
L 806 162
L 806 162
L 806 162
L 806 162
L 806 161
L 806 161
L 806 161
L 806 161
L 806 161
L 806 161
L 806 161
L 806 161
L 806 161
L 806 161
L 806 161
L 806 161
L 806 161
L 806 161
L 806 161
L 806 161
L 806 161
L 806 161
L 806 161
L 806 161
L 806 161
L 806 161
L 806 161
L 806 160
L 806 160
L 806 160
L 806 160
L 806 160
L 806 160
L 806 160
L 806 160
L 806 160
L 806 160
L 806 160
L 806 160
L 806 160
L 806 160
L 806 160
L 806 160
L 806 160
L 806 160
L 806 160
L 806 160
L 806 160
L 806 160
L 806 160
L 806 159
L 806 159
L 806 159
L 806 159
L 806 159
L 806 159
L 806 159
L 806 159
L 806 159
L 806 159
L 806 159
L 806 159
L 806 159
L 806 159
L 806 159
L 806 159
L 806 159
L 806 159
L 806 159
L 806 159
L 806 159
L 806 159
L 806 159
L 806 158
L 806 158
L 806 158
L 806 158
L 806 158
L 806 158
L 806 158
L 806 158
L 806 158
L 806 158
L 806 158
L 806 158
L 806 158
L 806 158
L 806 158
L 806 158
L 806 158
L 806 158
L 806 158
L 806 158
L 806 158
L 806 158
L 806 158
L 806 157
L 806 157
L 806 157
L 806 157
L 806 157
L 806 157
L 806 157
L 806 157
L 806 157
L 806 157
L 806 157
L 806 157
L 806 157
L 806 157
L 806 157
L 806 157
L 806 157
L 806 157
L 806 157
L 806 157
L 806 157
L 806 157
L 806 157
L 806 156
L 806 156
L 806 156
L 806 156
L 806 156
L 806 156
L 806 156
L 806 156
L 806 156
L 806 156
L 806 156
L 806 156
L 806 156
L 806 156
L 806 156
L 806 156
L 806 156
L 806 156
L 806 156
L 806 156
L 806 156
L 806 156
L 806 156
L 806 155
L 806 155
L 806 155
L 806 155
L 806 155
L 806 155
L 806 155
L 806 155
L 806 155
L 806 155
L 806 155
L 806 155
L 806 155
L 806 155
L 806 155
L 806 155
L 806 155
L 806 155
L 806 155
L 806 155
L 806 155
L 806 155
L 806 155
L 806 154
L 806 154
L 806 154
L 806 154
L 806 154
L 806 154
L 806 154
L 806 154
L 806 154
L 806 154
L 806 154
L 806 154
L 806 154
L 806 154
L 806 154
L 806 154
L 806 154
L 806 154
L 806 154
L 806 154
L 806 154
L 806 154
L 806 154
L 806 153
L 806 153
L 806 153
L 806 153
L 806 153
L 806 153
L 806 153
L 806 153
L 806 153
L 806 153
L 806 153
L 806 153
L 806 153
L 806 153
L 806 153
L 806 153
L 806 153
L 806 153
L 806 153
L 806 153
L 806 153
L 806 153
L 806 153
L 806 152
L 806 152
L 806 152
L 806 152
L 806 152
L 806 152
L 806 152
L 806 152
L 806 152
L 806 152
L 806 152
L 806 152
L 806 152
L 806 152
L 806 152
L 806 152
L 806 152
L 806 152
L 806 152
L 806 152
L 806 152
L 806 152
L 806 152
L 806 151
L 806 151
L 806 151
L 806 151
L 806 151
L 806 151
L 806 151
L 806 151
L 806 151
L 806 151
L 806 151
L 806 151
L 806 151
L 806 151
L 806 151
L 806 151
L 806 151
L 806 151
L 806 151
L 806 151
L 806 151
L 806 151
L 806 151
L 806 150
L 806 150
L 806 150
L 806 150
L 806 150
L 806 150
L 806 150
L 806 150
L 806 150
L 806 150
L 806 150
L 806 150
L 806 150
L 806 150
L 806 150
L 806 150
L 806 150
L 806 150
L 806 150
L 806 150
L 806 150
L 806 150
L 806 150
L 806 149
L 806 149
L 806 149
L 806 149
L 806 149
L 806 149
L 806 149
L 806 149
L 806 149
L 806 149
L 806 149
L 806 149
L 806 149
L 806 149
L 806 149
L 806 149
L 806 149
L 806 149
L 806 149
L 806 149
L 806 149
L 806 149
L 806 149
L 806 148
L 807 148
L 807 148
L 807 148
L 807 148
L 807 148
L 807 148
L 807 148
L 807 148
L 807 148
L 807 148
L 807 148
L 807 148
L 807 148
L 807 148
L 807 148
L 807 148
L 807 148
L 807 148
L 807 148
L 807 148
L 807 148
L 807 148
L 807 147
L 807 147
L 807 147
L 807 147
L 807 147
L 807 147
L 807 147
L 807 147
L 807 147
L 807 147
L 807 147
L 807 147
L 807 147
L 807 147
L 807 147
L 807 147
L 807 147
L 807 147
L 807 147
L 807 147
L 807 147
L 807 147
L 807 147
L 807 146
L 807 146
L 807 146
L 807 146
L 807 146
L 807 146
L 807 146
L 807 146
L 807 146
L 807 146
L 807 146
L 807 146
L 807 146
L 807 146
L 807 146
L 807 146
L 807 146
L 807 146
L 807 146
L 807 146
L 807 146
L 807 146
L 807 145
L 807 145
L 807 145
L 807 145
L 807 145
L 807 145
L 807 145
L 807 145
L 807 145
L 807 145
L 807 145
L 807 145
L 807 145
L 807 145
L 807 145
L 807 145
L 807 145
L 807 145
L 807 145
L 807 145
L 807 145
L 807 145
L 807 145
L 807 144
L 807 144
L 807 144
L 807 144
L 807 144
L 807 144
L 807 144
L 807 144
L 807 144
L 807 144
L 807 144
L 807 144
L 807 144
L 807 144
L 807 144
L 807 144
L 807 144
L 807 144
L 807 144
L 807 144
L 807 144
L 807 144
L 807 144
L 807 143
L 807 143
L 807 143
L 807 143
L 807 143
L 807 143
L 807 143
L 807 143
L 807 143
L 807 143
L 807 143
L 807 143
L 807 143
L 807 143
L 807 143
L 807 143
L 807 143
L 807 143
L 807 143
L 807 143
L 807 143
L 807 143
L 807 143
L 807 142
L 807 142
L 807 142
L 807 142
L 807 142
L 807 142
L 807 142
L 807 142
L 807 142
L 807 142
L 807 142
L 807 142
L 807 142
L 807 142
L 807 142
L 807 142
L 807 142
L 807 142
L 807 142
L 807 142
L 807 142
L 807 142
L 807 142
L 807 141
L 807 141
L 807 141
L 807 141
L 807 141
L 807 141
L 807 141
L 807 141
L 807 141
L 807 141
L 807 141
L 807 141
L 807 141
L 807 141
L 807 141
L 807 141
L 807 141
L 807 141
L 807 141
L 807 141
L 807 141
L 807 141
L 807 141
L 807 140
L 807 140
L 807 140
L 807 140
L 807 140
L 807 140
L 807 140
L 807 140
L 807 140
L 807 140
L 807 140
L 807 140
L 807 140
L 807 140
L 807 140
L 807 140
L 807 140
L 807 140
L 807 140
L 807 140
L 807 140
L 807 140
L 807 140
L 807 139
L 807 139
L 807 139
L 807 139
L 807 139
L 807 139
L 807 139
L 807 139
L 807 139
L 807 139
L 807 139
L 807 139
L 807 139
L 807 139
L 807 139
L 807 139
L 807 139
L 807 139
L 807 139
L 807 139
L 807 139
L 807 139
L 807 139
L 807 138
L 807 138
L 807 138
L 807 138
L 807 138
L 807 138
L 807 138
L 807 138
L 807 138
L 807 138
L 807 138
L 807 138
L 807 138
L 807 138
L 807 138
L 807 138
L 807 138
L 807 138
L 807 138
L 807 138
L 807 138
L 807 138
L 807 138
L 807 137
L 807 137
L 807 137
L 807 137
L 807 137
L 807 137
L 807 137
L 807 137
L 807 137
L 807 137
L 807 137
L 807 137
L 807 137
L 807 137
L 807 137
L 807 137
L 807 137
L 807 137
L 807 137
L 807 137
L 807 137
L 807 137
L 807 137
L 807 136
L 807 136
L 807 136
L 807 136
L 807 136
L 807 136
L 807 136
L 807 136
L 807 136
L 807 136
L 807 136
L 807 136
L 807 136
L 807 136
L 807 136
L 807 136
L 807 136
L 807 136
L 807 136
L 807 136
L 807 136
L 807 136
L 807 136
L 807 135
L 807 135
L 807 135
L 807 135
L 807 135
L 807 135
L 807 135
L 807 135
L 807 135
L 807 135
L 807 135
L 807 135
L 807 135
L 807 135
L 808 135
L 808 135
L 808 135
L 808 135
L 808 135
L 808 135
L 808 135
L 808 135
L 808 135
L 808 134
L 808 134
L 808 134
L 808 134
L 808 134
L 808 134
L 808 134
L 808 134
L 808 134
L 808 134
L 808 134
L 808 134
L 808 134
L 808 134
L 808 134
L 808 134
L 808 134
L 808 134
L 808 134
L 808 134
L 808 134
L 808 134
L 808 134
L 808 133
L 808 133
L 808 133
L 808 133
L 808 133
L 808 133
L 808 133
L 808 133
L 808 133
L 808 133
L 808 133
L 808 133
L 808 133
L 808 133
L 808 133
L 808 133
L 808 133
L 808 133
L 808 133
L 808 133
L 808 133
L 808 133
L 808 133
L 808 132
L 808 132
L 808 132
L 808 132
L 808 132
L 808 132
L 808 132
L 808 132
L 808 132
L 808 132
L 808 132
L 808 132
L 808 132
L 808 132
L 808 132
L 808 132
L 808 132
L 808 132
L 808 132
L 808 132
L 808 132
L 808 132
L 808 132
L 808 131
L 808 131
L 808 131
L 808 131
L 808 131
L 808 131
L 808 131
L 808 131
L 808 131
L 808 131
L 808 131
L 808 131
L 808 131
L 808 131
L 808 131
L 808 131
L 808 131
L 808 131
L 808 131
L 808 131
L 808 131
L 808 131
L 808 131
L 808 130
L 808 130
L 808 130
L 808 130
L 808 130
L 808 130
L 808 130
L 808 130
L 808 130
L 808 130
L 808 130
L 808 130
L 808 130
L 808 130
L 808 130
L 808 130
L 808 130
L 808 130
L 808 130
L 808 130
L 808 130
L 808 130
L 808 130
L 808 129
L 808 129
L 808 129
L 808 129
L 808 129
L 808 129
L 808 129
L 808 129
L 808 129
L 808 129
L 808 129
L 808 129
L 808 129
L 808 129
L 808 129
L 808 129
L 808 129
L 808 129
L 808 129
L 808 129
L 808 129
L 808 129
L 808 128
L 808 128
L 808 128
L 808 128
L 808 128
L 808 128
L 808 128
L 808 128
L 808 128
L 808 128
L 808 128
L 808 128
L 808 128
L 808 128
L 808 128
L 808 128
L 808 128
L 808 128
L 808 128
L 808 128
L 808 128
L 808 128
L 808 128
L 808 127
L 808 127
L 808 127
L 808 127
L 808 127
L 808 127
L 808 127
L 808 127
L 808 127
L 808 127
L 808 127
L 808 127
L 808 127
L 808 127
L 808 127
L 808 127
L 808 127
L 808 127
L 808 127
L 808 127
L 808 127
L 808 127
L 808 127
L 808 126
L 808 126
L 808 126
L 808 126
L 808 126
L 808 126
L 809 126
L 809 126
L 809 126
L 809 126
L 809 126
L 809 126
L 809 126
L 809 126
L 809 126
L 809 126
L 809 126
L 809 126
L 809 126
L 809 126
L 809 126
L 809 126
L 809 126
L 809 125
L 809 125
L 809 125
L 809 125
L 809 125
L 809 125
L 809 125
L 809 125
L 809 125
L 809 125
L 809 125
L 809 125
L 809 125
L 809 125
L 809 125
L 809 125
L 809 125
L 809 125
L 809 125
L 809 125
L 809 125
L 809 125
L 809 125
L 809 124
L 809 124
L 809 124
L 809 124
L 809 124
L 809 124
L 809 124
L 809 124
L 809 124
L 809 124
L 809 124
L 809 124
L 809 124
L 809 124
L 809 124
L 809 124
L 809 124
L 809 124
L 809 124
L 809 124
L 809 124
L 809 124
L 809 124
L 809 123
L 809 123
L 809 123
L 809 123
L 809 123
L 809 123
L 809 123
L 809 123
L 809 123
L 809 123
L 809 123
L 809 123
L 809 123
L 810 123
L 810 123
L 810 123
L 810 123
L 810 123
L 810 123
L 810 123
L 810 123
L 810 123
L 810 123
L 810 122
L 810 122
L 810 122
L 810 122
L 810 122
L 810 122
L 810 122
L 810 122
L 810 122
L 810 122
L 810 122
L 810 122
L 810 122
L 810 122
L 810 122
L 810 122
L 810 122
L 810 122
L 810 122
L 810 122
L 810 122
L 810 122
L 810 122
L 810 121
L 810 121
L 810 121
L 810 121
L 810 121
L 810 121
L 810 121
L 810 121
L 810 121
L 810 121
L 810 121
L 810 121
L 810 121
L 810 121
L 810 121
L 810 121
L 810 121
L 810 121
L 810 121
L 810 121
L 810 121
L 810 121
L 810 121
L 810 120
L 810 120
L 810 120
L 810 120
L 810 120
L 810 120
L 810 120
L 810 120
L 810 120
L 810 120
L 810 120
L 810 120
L 810 120
L 810 120
L 810 120
L 810 120
L 810 120
L 810 120
L 810 120
L 810 120
L 810 120
L 810 120
L 810 120
L 810 119
L 810 119
L 810 119
L 810 119
L 810 119
L 810 119
L 810 119
L 810 119
L 810 119
L 810 119
L 810 119
L 811 119
L 811 119
L 811 119
L 811 119
L 811 119
L 811 119
L 811 119
L 811 119
L 811 119
L 811 119
L 811 119
L 811 119
L 811 118
L 811 118
L 811 118
L 811 118
L 811 118
L 811 118
L 811 118
L 811 118
L 811 118
L 811 118
L 811 118
L 811 118
L 811 118
L 811 118
L 811 118
L 811 118
L 811 118
L 811 118
L 811 118
L 811 118
L 811 118
L 811 118
L 811 118
L 811 117
L 811 117
L 811 117
L 811 117
L 811 117
L 811 117
L 811 117
L 811 117
L 811 117
L 811 117
L 811 117
L 811 117
L 811 117
L 812 117
L 812 117
L 812 117
L 812 117
L 812 117
L 812 117
L 812 117
L 812 117
L 812 117
L 812 117
L 812 116
L 812 116
L 812 116
L 812 116
L 812 116
L 812 116
L 812 116
L 812 116
L 812 116
L 812 116
L 812 116
L 812 116
L 812 116
L 812 116
L 812 116
L 812 116
L 812 116
L 812 116
L 812 116
L 812 116
L 812 116
L 812 116
L 812 116
L 812 115
L 812 115
L 812 115
L 812 115
L 812 115
L 812 115
L 812 115
L 812 115
L 812 115
L 812 115
L 812 115
L 812 115
L 812 115
L 812 115
L 812 115
L 812 115
L 812 115
L 813 115
L 813 115
L 813 115
L 813 115
L 813 115
L 813 115
L 813 114
L 813 114
L 813 114
L 813 114
L 813 114
L 813 114
L 813 114
L 813 114
L 813 114
L 813 114
L 813 114
L 813 114
L 813 114
L 813 114
L 813 114
L 813 114
L 813 114
L 814 114
L 814 114
L 814 114
L 814 114
L 814 114
L 814 114
L 814 113
L 814 113
L 814 113
L 814 113
L 814 113
L 814 113
L 814 113
L 814 113
L 814 113
L 814 113
L 814 113
L 814 113
L 814 113
L 815 113
L 815 113
L 815 113
L 815 113
L 815 113
L 815 113
L 815 113
L 815 113
L 815 113
L 815 113
L 815 112
L 815 112
L 815 112
L 815 112
L 815 112
L 815 112
L 815 112
L 815 112
L 815 112
L 815 112
L 815 112
L 815 112
L 815 112
L 815 112
L 815 112
L 815 112
L 815 112
L 815 112
L 815 112
L 815 112
L 815 112
L 815 112
L 816 111
L 816 111
L 816 111
L 816 111
L 816 111
L 816 111
L 816 111
L 816 111
L 816 111
L 816 111
L 816 111
L 816 111
L 816 111
L 816 111
L 816 111
L 816 111
L 816 111
L 816 111
L 816 111
L 816 111
L 816 111
L 816 111
L 816 111
L 816 110
L 816 110
L 817 110
L 817 110
L 817 110
L 817 110
L 817 110
L 817 110
L 817 110
L 817 110
L 817 110
L 817 110
L 817 110
L 817 110
L 817 110
L 817 110
L 817 110
L 817 110
L 817 110
L 817 110
L 817 110
L 817 110
L 817 110
L 817 109
L 817 109
L 817 109
L 817 109
L 818 109
L 818 109
L 818 109
L 818 109
L 818 109
L 818 109
L 818 109
L 818 109
L 818 109
L 818 109
L 818 109
L 818 109
L 818 109
L 818 109
L 818 109
L 818 109
L 818 109
L 818 109
L 818 109
L 818 108
L 818 108
L 818 108
L 818 108
L 818 108
L 819 108
L 819 108
L 819 108
L 819 108
L 819 108
L 819 108
L 819 108
L 819 108
L 819 108
L 819 108
L 819 108
L 819 108
L 820 108
L 820 108
L 820 108
L 820 108
L 820 108
L 820 108
L 820 107
L 820 107
L 820 107
L 820 107
L 820 107
L 820 107
L 820 107
L 820 107
L 820 107
L 820 107
L 821 107
L 821 107
L 821 107
L 821 107
L 821 107
L 821 107
L 821 107
L 821 107
L 821 107
L 821 107
L 821 107
L 821 107
L 821 107
L 821 106
L 821 106
L 821 106
L 821 106
L 821 106
L 821 106
L 821 106
L 821 106
L 821 106
L 821 106
L 821 106
L 821 106
L 821 106
L 821 106
L 821 106
L 822 106
L 822 106
L 822 106
L 822 106
L 822 106
L 822 106
L 822 106
L 822 106
L 822 105
L 822 105
L 822 105
L 822 105
L 822 105
L 822 105
L 822 105
L 822 105
L 822 105
L 822 105
L 822 105
L 822 105
L 822 105
L 822 105
L 822 105
L 822 105
L 822 105
L 822 105
L 822 105
L 822 105
L 822 105
L 822 105
L 822 105
L 822 104
L 822 104
L 823 104
L 823 104
L 823 104
L 823 104
L 823 104
L 823 104
L 823 104
L 823 104
L 823 104
L 823 104
L 823 104
L 823 104
L 823 104
L 823 104
L 823 104
L 823 104
L 823 104
L 823 104
L 823 104
L 823 104
L 823 104
L 823 103
L 823 103
L 823 103
L 823 103
L 823 103
L 823 103
L 823 103
L 823 103
L 823 103
L 823 103
L 823 103
L 823 103
L 823 103
L 823 103
L 823 103
L 823 103
L 823 103
L 823 103
L 823 103
L 823 103
L 823 103
L 823 103
L 823 103
L 823 102
L 823 102
L 823 102
L 823 102
L 823 102
L 823 102
L 823 102
L 823 102
L 823 102
L 823 102
L 823 102
L 823 102
L 823 102
L 823 102
L 823 102
L 823 102
L 823 102
L 824 102
L 824 102
L 824 102
L 824 102
L 824 102
L 824 102
L 824 101
L 824 101
L 824 101
L 824 101
L 824 101
L 824 101
L 824 101
L 824 101
L 824 101
L 824 101
L 824 101
L 824 101
L 824 101
L 824 101
L 824 101
L 824 101
L 824 101
L 824 101
L 824 101
L 824 101
L 824 101
L 824 101
L 824 101
L 824 100
L 824 100
L 824 100
L 824 100
L 824 100
L 824 100
L 824 100
L 824 100
L 824 100
L 825 100
L 825 100
L 825 100
L 825 100
L 825 100
L 825 100
L 825 100
L 825 100
L 825 100
L 825 100
L 825 100
L 825 100
L 825 100
L 825 100
L 826 99
L 826 99
L 826 99
L 826 99
L 826 99
L 826 99
L 826 99
L 826 99
L 826 99
L 826 99
L 826 99
L 826 99
L 826 99
L 826 99
L 826 99
L 826 99
L 826 99
L 826 99
L 826 99
L 826 99
L 826 99
L 826 99
L 826 99
L 826 98
L 826 98
L 826 98
L 826 98
L 826 98
L 826 98
L 826 98
L 826 98
L 826 98
L 826 98
L 826 98
L 826 98
L 826 98
L 826 98
L 826 98
L 826 98
L 826 98
L 827 98
L 827 98
L 827 98
L 827 98
L 827 98
L 827 98
L 827 97
L 827 97
L 827 97
L 827 97
L 827 97
L 827 97
L 827 97
L 827 97
L 827 97
L 827 97
L 827 97
L 827 97
L 827 97
L 827 97
L 827 97
L 827 97
L 827 97
L 827 97
L 827 97
L 827 97
L 827 97
L 827 97
L 827 97
L 827 96
L 827 96
L 827 96
L 827 96
L 827 96
L 828 96
L 828 96
L 828 96
L 828 96
L 828 96
L 828 96
L 828 96
L 828 96
L 828 96
L 828 96
L 828 96
L 828 96
L 828 96
L 828 96
L 828 96
L 828 96
L 828 96
L 828 96
L 828 95
L 828 95
L 828 95
L 829 95
L 829 95
L 829 95
L 829 95
L 829 95
L 829 95
L 829 95
L 829 95
L 829 95
L 829 95
L 829 95
L 829 95
L 829 95
L 830 95
L 830 95
L 830 95
L 830 95
L 830 95
L 830 95
L 831 94
L 831 94
L 831 94
L 831 94
L 831 94
L 831 94
L 831 94
L 831 94
L 832 94
L 832 94
L 832 94
L 832 94
L 832 94
L 832 94
L 832 94
L 832 94
L 832 94
L 832 94
L 832 94
L 832 94
L 832 94
L 832 94
L 832 94
L 833 93
L 833 93
L 833 93
L 833 93
L 833 93
L 833 93
L 833 93
L 833 93
L 833 93
L 833 93
L 833 93
L 834 93
L 834 93
L 834 93
L 834 93
L 834 93
L 834 93
L 834 93
L 834 93
L 834 93
L 834 93
L 834 93
L 834 93
L 834 92
L 835 92
L 835 92
L 835 92
L 835 92
L 835 92
L 835 92
L 835 92
L 835 92
L 835 92
L 836 92
L 836 92
L 836 92
L 836 92
L 836 92
L 836 92
L 836 92
L 836 92
L 836 92
L 837 92
L 837 92
L 837 92
L 837 92
L 837 91
L 837 91
L 837 91
L 837 91
L 837 91
L 837 91
L 837 91
L 838 91
L 838 91
L 838 91
L 838 91
L 838 91
L 838 91
L 838 91
L 838 91
L 838 91
L 838 91
L 838 91
L 839 91
L 839 91
L 839 91
L 839 91
L 839 91
L 839 90
L 839 90
L 839 90
L 839 90
L 839 90
L 839 90
L 839 90
L 839 90
L 840 90
L 840 90
L 840 90
L 840 90
L 840 90
L 840 90
L 840 90
L 840 90
L 840 90
L 840 90
L 840 90
L 840 90
L 840 90
L 840 90
L 840 90
L 840 89
L 840 89
L 841 89
L 841 89
L 841 89
L 841 89
L 841 89
L 841 89
L 841 89
L 842 89
L 842 89
L 842 89
L 842 89
L 842 89
L 842 89
L 842 89
L 842 89
L 842 89
L 842 89
L 843 89
L 843 89
L 843 89
L 843 89
L 843 88
L 843 88
L 843 88
L 843 88
L 843 88
L 843 88
L 843 88
L 843 88
L 843 88
L 843 88
L 843 88
L 843 88
L 843 88
L 844 88
L 844 88
L 844 88
L 844 88
L 844 88
L 844 88
L 844 88
L 844 88
L 844 88
L 844 88
L 844 87
L 845 87
L 845 87
L 845 87
L 845 87
L 845 87
L 845 87
L 845 87
L 845 87
L 845 87
L 846 87
L 846 87
L 846 87
L 846 87
L 846 87
L 846 87
L 846 87
L 846 87
L 846 87
L 847 87
L 847 87
L 847 87
L 847 87
L 847 86
L 847 86
L 847 86
L 847 86
L 847 86
L 848 86
L 848 86
L 848 86
L 848 86
L 848 86
L 848 86
L 848 86
L 848 86
L 848 86
L 848 86
L 848 86
L 848 86
L 848 86
L 848 86
L 848 86
L 848 86
L 849 86
L 849 86
L 849 85
L 849 85
L 849 85
L 849 85
L 849 85
L 849 85
L 849 85
L 849 85
L 849 85
L 849 85
L 849 85
L 849 85
L 849 85
L 849 85
L 849 85
L 849 85
L 849 85
L 849 85
L 849 85
L 849 85
L 849 85
L 849 85
L 849 85
L 849 84
L 849 84
L 849 84
L 849 84
L 849 84
L 849 84
L 849 84
L 849 84
L 849 84
L 849 84
L 849 84
L 849 84
L 850 84
L 850 84
L 850 84
L 850 84
L 850 84
L 850 84
L 850 84
L 850 84
L 850 84
L 850 84
L 850 84
L 850 83
L 850 83
L 850 83
L 850 83
L 850 83
L 850 83
L 850 83
L 850 83
L 850 83
L 850 83
L 850 83
L 850 83
L 850 83
L 850 83
L 850 83
L 850 83
L 850 83
L 850 83
L 850 83
L 850 83
L 850 83
L 850 83
L 851 83
L 851 82
L 851 82
L 851 82
L 851 82
L 851 82
L 851 82
L 851 82
L 851 82
L 851 82
L 851 82
L 851 82
L 851 82
L 852 82
L 852 82
L 852 82
L 852 82
L 852 82
L 852 82
L 852 82
L 853 82
L 853 82
L 853 82
L 853 82
L 853 81
L 853 81
L 853 81
L 853 81
L 853 81
L 853 81
L 853 81
L 853 81
L 853 81
L 853 81
L 853 81
L 853 81
L 853 81
L 854 81
L 854 81
L 854 81
L 854 81
L 854 81
L 854 81
L 854 81
L 854 81
L 854 81
L 854 81
L 854 80
L 854 80
L 854 80
L 854 80
L 854 80
L 855 80
L 855 80
L 855 80
L 855 80
L 855 80
L 855 80
L 855 80
L 855 80
L 855 80
L 856 80
L 856 80
L 856 80
L 856 80
L 856 80
L 856 80
L 856 80
L 856 80
L 856 80
L 856 79
L 856 79
L 856 79
L 856 79
L 856 79
L 856 79
L 856 79
L 856 79
L 856 79
L 857 79
L 857 79
L 857 79
L 857 79
L 857 79
L 857 79
L 857 79
L 857 79
L 857 79
L 857 79
L 857 79
L 858 79
L 858 79
L 858 79
L 858 78
L 858 78
L 858 78
L 858 78
L 858 78
L 858 78
L 859 78
L 859 78
L 859 78
L 859 78
L 859 78
L 859 78
L 859 78
L 859 78
L 860 78
L 860 78
L 860 78
L 860 78
L 860 78
L 860 78
L 860 78
L 860 78
L 860 77
L 860 77
L 860 77
L 860 77
L 860 77
L 860 77
L 860 77
L 861 77
L 861 77
L 861 77
L 861 77
L 861 77
L 861 77
L 861 77
L 861 77
L 861 77
L 861 77
L 861 77
L 862 77
L 862 77
L 862 77
L 862 77
L 862 77
L 862 76
L 862 76
L 862 76
L 862 76
L 862 76
L 862 76
L 862 76
L 862 76
L 863 76
L 863 76
L 863 76
L 863 76
L 863 76
L 863 76
L 863 76
L 863 76
L 863 76
L 864 76
L 864 76
L 864 76
L 864 76
L 864 76
L 864 76
L 864 75
L 864 75
L 864 75
L 864 75
L 864 75
L 864 75
L 864 75
L 864 75
L 864 75
L 864 75
L 865 75
L 865 75
L 865 75
L 865 75
L 865 75
L 865 75
L 865 75
L 865 75
L 865 75
L 865 75
L 865 75
L 865 75
L 865 75
L 865 74
L 865 74
L 865 74
L 865 74
L 865 74
L 865 74
L 865 74
L 866 74
L 866 74
L 866 74
L 866 74
L 866 74
L 866 74
L 866 74
L 866 74
L 866 74
L 867 74
L 867 74
L 867 74
L 867 74
L 867 74
L 867 74
L 867 74
L 867 73
L 867 73
L 867 73
L 867 73
L 868 73
L 868 73
L 868 73
L 868 73
L 868 73
L 868 73
L 868 73
L 868 73
L 869 73
L 869 73
L 869 73
L 869 73
L 869 73
L 869 73
L 869 73
L 869 73
L 869 73
L 869 73
L 869 73
L 870 72
L 870 72
L 870 72
L 870 72
L 870 72
L 870 72
L 870 72
L 871 72
L 871 72
L 871 72
L 871 72
L 871 72
L 871 72
L 871 72
L 871 72
L 871 72
L 871 72
L 871 72
L 871 72
L 871 72
L 871 72
L 871 72
L 871 72
L 872 71
L 872 71
L 872 71
L 872 71
L 872 71
L 872 71
L 872 71
L 872 71
L 872 71
L 872 71
L 872 71
L 872 71
L 872 71
L 872 71
L 872 71
L 872 71
L 872 71
L 873 71
L 873 71
L 873 71
L 873 71
L 873 71
L 873 71
L 873 70
L 874 70
L 874 70
L 874 70
L 874 70
L 874 70
L 874 70
L 875 70
L 875 70
L 875 70
L 875 70
L 875 70
L 875 70
L 875 70
L 875 70
L 875 70
L 875 70
L 875 70
L 875 70
L 875 70
L 875 70
L 875 70
L 876 70
L 876 69
L 876 69
L 876 69
L 876 69
L 876 69
L 876 69
L 876 69
L 876 69
L 876 69
L 876 69
L 876 69
L 877 69
L 877 69
L 877 69
L 877 69
L 877 69
L 877 69
L 877 69
L 877 69
L 877 69
L 877 69
L 877 69
L 877 69
L 877 68
L 877 68
L 877 68
L 877 68
L 877 68
L 877 68
L 877 68
L 877 68
L 877 68
L 877 68
L 877 68
L 877 68
L 877 68
L 877 68
L 877 68
L 877 68
L 877 68
L 877 68
L 877 68
L 877 68
L 877 68
L 877 68
L 877 68
L 877 67
L 877 67
L 877 67
L 877 67
L 877 67
L 877 67
L 877 67
L 877 67
L 877 67
L 877 67
L 877 67
L 877 67
L 877 67
L 878 67
L 878 67
L 878 67
L 878 67
L 878 67
L 878 67
L 878 67
L 878 67
L 878 67
L 878 67
L 878 66
L 878 66
L 878 66
L 878 66
L 878 66
L 878 66
L 878 66
L 878 66
L 878 66
L 878 66
L 878 66
L 878 66
L 878 66
L 878 66
L 878 66
L 878 66
L 878 66
L 878 66
L 878 66
L 878 66
L 879 66
L 879 66
L 879 66
L 879 65
L 879 65
L 879 65
L 879 65
L 879 65
L 879 65
L 879 65
L 879 65
L 879 65
L 879 65
L 879 65
L 879 65
L 879 65
L 879 65
L 879 65
L 879 65
L 879 65
L 879 65
L 879 65
L 879 65
L 879 65
L 879 65
L 879 65
L 879 64
L 879 64
L 879 64
L 879 64
L 880 64
L 880 64
L 880 64
L 880 64
L 880 64
L 880 64
L 880 64
L 880 64
L 880 64
L 880 64
L 880 64
L 880 64
L 880 64
L 880 64
L 880 64
L 880 64
L 880 64
L 880 64
L 881 64
L 881 63
L 881 63
L 881 63
L 881 63
L 881 63
L 881 63
L 881 63
L 881 63
L 881 63
L 881 63
L 881 63
L 881 63
L 881 63
L 881 63
L 881 63
L 881 63
L 881 63
L 881 63
L 881 63
L 881 63
L 881 63
L 881 63
L 881 63
L 881 62
L 881 62
L 881 62
L 881 62
L 881 62
L 881 62
L 881 62
L 882 62
L 882 62
L 882 62
L 882 62
L 882 62
L 882 62
L 882 62
L 882 62
L 882 62
L 882 62
L 882 62
L 882 62
L 882 62
L 882 62
L 882 62
L 882 62
L 882 61
L 882 61
L 882 61
L 882 61
L 882 61
L 882 61
L 882 61
L 882 61
L 882 61
L 882 61
L 882 61
L 882 61
L 882 61
L 882 61
L 882 61
L 882 61
L 882 61
L 882 61
L 882 61
L 882 61
L 882 61
L 882 61
L 882 60
L 882 60
L 882 60
L 882 60
L 882 60
L 882 60
L 882 60
L 882 60
L 882 60
L 882 60
L 882 60
L 882 60
L 882 60
L 882 60
L 882 60
L 882 60
L 882 60
L 882 60
L 882 60
L 882 60
L 882 60
L 883 60
L 883 60
L 883 59
L 883 59
L 883 59
L 883 59
L 883 59
L 883 59
L 883 59
L 883 59
L 883 59
L 883 59
L 883 59
L 883 59
L 883 59
L 883 59
L 883 59
L 883 59
L 883 59
L 883 59
L 883 59
L 883 59
L 883 59
L 883 59
L 883 59
L 883 58
L 883 58
L 883 58
L 883 58
L 883 58
L 883 58
L 883 58
L 883 58
L 883 58
L 883 58
L 883 58
L 883 58
L 883 58
L 883 58
L 883 58
L 883 58
L 883 58
L 883 58
L 883 58
L 883 58
L 883 58
L 883 58
L 883 58
L 883 57
L 883 57
L 883 57
L 883 57
L 883 57
L 883 57
L 883 57
L 883 57
L 883 57
L 883 57
L 883 57
L 883 57
L 883 57
L 883 57
L 883 57
L 883 57
L 884 57
L 884 57
L 884 57
L 884 57
L 884 57
L 884 57
L 884 57
L 884 56
L 884 56
L 884 56
L 884 56
L 884 56
L 884 56
L 884 56
L 884 56
L 884 56
L 884 56
L 884 56
L 884 56
L 884 56
L 884 56
L 884 56
L 884 56
L 884 56
L 884 56
L 884 56
L 884 56
L 884 56
L 884 56
L 884 56
L 884 55
L 884 55
L 884 55
L 884 55
L 884 55
L 884 55
L 884 55
L 884 55
L 884 55
L 884 55
L 884 55
L 884 55
L 884 55
L 884 55
L 884 55
L 884 55
L 884 55
L 884 55
L 884 55
L 884 55
L 884 55
L 884 55
L 884 55
L 884 54
L 884 54
L 884 54
L 884 54
L 884 54
L 884 54
L 884 54
L 885 54
L 885 54
L 885 54
L 885 54
L 885 54
L 885 54
L 885 54
L 885 54
L 885 54
L 885 54
L 885 54
L 885 54
L 885 54
L 885 54
L 885 54
L 885 54
L 885 53
L 885 53
L 885 53
L 885 53
L 885 53
L 885 53
L 886 53
L 886 53
L 886 53
L 886 53
L 886 53
L 886 53
L 886 53
L 886 53
L 886 53
L 886 53
L 886 53
L 886 53
L 886 53
L 886 53
L 886 53
L 886 53
L 886 53
L 886 52
L 886 52
L 886 52
L 886 52
L 886 52
L 886 52
L 887 52
L 887 52
L 887 52
L 887 52
L 887 52
L 887 52
L 887 52
L 887 52
L 887 52
L 887 52
L 887 52
L 887 52
L 887 52
L 887 52
L 887 52
L 887 52
L 887 52
L 887 51
L 887 51
L 887 51
L 887 51
L 887 51
L 887 51
L 887 51
L 887 51
L 887 51
L 887 51
L 887 51
L 887 51
L 887 51
L 887 51
L 887 51
L 887 51
L 887 51
L 887 51
L 887 51
L 887 51
L 887 51
L 887 51
L 888 51
L 888 50
L 888 50
L 888 50
L 888 50
L 888 50
L 888 50
L 888 50
L 888 50
L 888 50
L 888 50
L 888 50
L 888 50
L 888 50
L 888 50
L 888 50
L 889 50
L 889 50
L 889 50
L 889 50
L 889 50
L 889 50
L 889 50
L 889 50
L 889 49
L 889 49
L 889 49
L 890 49
L 890 49
L 890 49
L 890 49
L 890 49
L 890 49
L 890 49
L 890 49
L 890 49
L 890 49
L 890 49
L 890 49
L 890 49
L 890 49
L 891 49
L 891 49
L 891 49
L 891 49
L 891 49
L 891 49
L 891 48
L 891 48
L 891 48
L 892 48
L 892 48
L 892 48
L 892 48
L 892 48
L 892 48
L 892 48
L 892 48
L 892 48
L 892 48
L 892 48
L 892 48
L 892 48
L 892 48
L 892 48
L 892 48
L 892 48
L 892 48
L 892 48
L 892 48
L 892 47
L 892 47
L 892 47
L 892 47
L 892 47
L 892 47
L 892 47
L 892 47
L 892 47
L 892 47
L 893 47
L 893 47
L 893 47
L 893 47
L 893 47
L 893 47
L 893 47
L 893 47
L 893 47
L 893 47
L 893 47
L 893 47
L 893 47
L 893 46
L 893 46
L 893 46
L 893 46
L 893 46
L 893 46
L 893 46
L 893 46
L 893 46
L 894 46
L 894 46
L 894 46
L 894 46
L 894 46
L 894 46
L 894 46
L 894 46
L 894 46
L 894 46
L 894 46
L 894 46
L 894 46
L 894 46
L 894 45
L 894 45
L 894 45
L 894 45
L 894 45
L 894 45
L 894 45
L 894 45
L 894 45
L 894 45
L 894 45
L 894 45
L 894 45
L 894 45
L 894 45
L 894 45
L 894 45
L 894 45
L 894 45
L 894 45
L 894 45
L 894 45
L 895 45
L 895 44
L 895 44
L 895 44
L 895 44
L 895 44
L 895 44
L 895 44
L 895 44
L 895 44
L 895 44
L 895 44
L 895 44
L 895 44
L 895 44
L 895 44
L 895 44
L 895 44
L 896 44
L 896 44
L 896 44
L 896 44
L 896 44
L 896 43
L 896 43
L 896 43
L 896 43
L 896 43
L 896 43
L 896 43
L 896 43
L 896 43
L 896 43
L 896 43
L 896 43
L 896 43
L 896 43
L 896 43
L 896 43
L 896 43
L 896 43
L 896 43
L 896 43
L 896 43
L 896 43
L 896 43
L 897 42
L 897 42
L 897 42
L 897 42
L 897 42
L 897 42
L 897 42
L 897 42
L 897 42
L 897 42
L 898 42
L 898 42
L 898 42
L 898 42
L 898 42
L 898 42
L 898 42
L 898 42
L 898 42
L 898 42
L 899 42
L 899 42
L 899 42
L 899 41
L 899 41
L 899 41
L 899 41
L 899 41
L 899 41
L 899 41
L 899 41
L 899 41
L 899 41
L 899 41
L 899 41
L 899 41
L 899 41
L 899 41
L 899 41
L 900 41
L 900 41
L 900 41
L 900 41
L 900 41
L 900 41
L 900 41
L 900 40
L 900 40
L 900 40
L 900 40
L 900 40
L 900 40
L 900 40
L 900 40
L 900 40
L 900 40
L 900 40
L 900 40
L 900 40
L 900 40
L 900 40
L 900 40
L 900 40
L 900 40
L 900 40
L 900 40
L 900 40
L 900 40
L 900 40
L 900 39
L 900 39
L 900 39
L 901 39
L 901 39
L 901 39
L 901 39
L 901 39
L 901 39
L 901 39
L 901 39
L 901 39
L 901 39
L 901 39
L 901 39
L 901 39
L 901 39
L 901 39
L 901 39
L 902 39
L 902 39
L 902 39
L 902 39
L 902 38
L 902 38
L 902 38
L 902 38
L 902 38
L 902 38
L 902 38
L 902 38
L 902 38
L 902 38
L 902 38
L 902 38
L 902 38
L 903 38
L 903 38
L 903 38
L 903 38
L 903 38
L 903 38
L 903 38
L 903 38
L 904 38
L 904 38
L 904 37
L 904 37
L 904 37
L 904 37
L 904 37
L 904 37
L 904 37
L 904 37
L 904 37
L 904 37
L 904 37
L 904 37
L 904 37
L 904 37
L 904 37
L 904 37
L 904 37
L 905 37
L 905 37
L 905 37
L 905 37
L 905 37
L 905 37
L 905 36
L 905 36
L 905 36
L 905 36
L 905 36
L 905 36
L 905 36
L 905 36
L 905 36
L 906 36
L 906 36
L 906 36
L 906 36
L 906 36
L 906 36
L 906 36
L 906 36
L 907 36
L 907 36
L 907 36
L 907 36
L 907 36
L 907 36
L 908 35
L 908 35
L 908 35
L 908 35
L 908 35
L 908 35
L 908 35
L 908 35
L 908 35
L 908 35
L 908 35
L 908 35
L 908 35
L 909 35
L 909 35
L 909 35
L 910 35
L 910 35
L 910 35
L 910 35
L 910 35
L 910 35
L 910 35
L 910 34
L 911 34
L 911 34
L 911 34
L 911 34
L 911 34
L 911 34
L 911 34
L 911 34
L 912 34
L 912 34
L 912 34
L 912 34
L 912 34
L 912 34
L 912 34
L 913 34
L 913 34
L 913 34
L 913 34
L 913 34
L 913 34
L 913 34
L 913 33
L 913 33
L 913 33
L 914 33
L 914 33
L 914 33
L 914 33
L 914 33
L 914 33
L 914 33
L 915 33
L 915 33
L 915 33
L 915 33
L 915 33
L 915 33
L 915 33
L 915 33
L 915 33
L 915 33
L 915 33
L 915 33
L 915 33
L 915 32
L 915 32
L 915 32
L 915 32
L 915 32
L 915 32
L 915 32
L 915 32
L 915 32
L 916 32
L 916 32
L 916 32
L 916 32
L 916 32
L 916 32
L 916 32
L 916 32
L 916 32
L 916 32
L 916 32
L 916 32
L 916 32
L 916 32
L 916 31
L 916 31
L 916 31
L 916 31
L 916 31
L 916 31
L 916 31
L 916 31
L 916 31
L 916 31
L 916 31
L 916 31
L 916 31
L 916 31
L 916 31
L 917 31
L 917 31
L 917 31
L 917 31
L 917 31
L 917 31
L 917 31
L 917 31
L 917 30
L 917 30
L 917 30
L 917 30
L 917 30
L 917 30
L 917 30
L 917 30
L 917 30
L 917 30
L 917 30
L 918 30
L 918 30
L 918 30
L 919 30
L 919 30
L 919 30
L 919 30
L 919 30
L 919 30
L 919 30
L 919 30
L 920 30
L 920 29
L 920 29
L 920 29
L 920 29
L 920 29
L 920 29
L 920 29
L 920 29
L 920 29
L 920 29
L 921 29
L 921 29
L 921 29
L 921 29
L 921 29
L 921 29
L 921 29
L 921 29
L 921 29
L 921 29
L 922 29
L 922 29
L 922 29
L 922 28
L 922 28
L 922 28
L 922 28
L 922 28
L 922 28
L 923 28
L 923 28
L 923 28
L 923 28
L 923 28
L 923 28
L 923 28
L 923 28
L 924 28
L 924 28
L 924 28
L 924 28
L 924 28
L 924 28
L 924 28
L 925 28
L 925 28
L 925 27
L 925 27
L 925 27
L 925 27
L 925 27
L 925 27
L 925 27
L 926 27
L 926 27
L 926 27
L 926 27
L 926 27
L 926 27
L 926 27
L 926 27
L 926 27
L 926 27
L 926 27
L 926 27
L 926 27
L 926 27
L 926 27
L 926 26
L 926 26
L 926 26
L 926 26
L 926 26
L 926 26
L 927 26
L 927 26
L 927 26
L 927 26
L 927 26
L 927 26
L 927 26
L 927 26
L 927 26
L 927 26
L 927 26
L 927 26
L 927 26
L 927 26
L 927 26
L 927 26
L 927 26
L 927 25
L 927 25
L 927 25
L 928 25
L 928 25
L 928 25
L 928 25
L 928 25
L 928 25
L 928 25
L 928 25
L 928 25
L 928 25
L 928 25
L 928 25
L 928 25
L 928 25
L 928 25
L 929 25
L 929 25
L 929 25
L 929 25
L 929 25
L 929 24
L 929 24
L 929 24
L 929 24
L 929 24
L 930 24
L 930 24
L 930 24
L 930 24
L 930 24
L 930 24
L 930 24
L 930 24
L 930 24
L 930 24
L 930 24
L 931 24
L 931 24
L 931 24
L 931 24
L 931 24
L 931 24
L 931 24
L 931 23
L 931 23
L 931 23
L 931 23
L 931 23
L 931 23
L 931 23
L 931 23
L 932 23
L 932 23
L 932 23
L 932 23
L 932 23
L 932 23
L 932 23
L 932 23
L 932 23
L 932 23
L 932 23
L 932 23
L 932 23
L 933 23
L 933 23
L 933 22
L 933 22
L 933 22
L 933 22
L 933 22
L 934 22
L 934 22
L 934 22
L 934 22
L 934 22
L 934 22
L 934 22
L 934 22
L 934 22
L 934 22
L 934 22
L 934 22
L 934 22
L 934 22
L 934 22
L 934 22
L 935 22
L 935 22
L 935 21
L 935 21
L 935 21
L 935 21
L 935 21
L 935 21
L 936 21
L 936 21
L 936 21
L 936 21
L 936 21
L 936 21
L 936 21
L 936 21
L 937 21
L 937 21
L 937 21
L 937 21
L 937 21
L 937 21
L 938 21
L 938 21
L 938 21
L 938 20
L 938 20
L 938 20
L 938 20
L 939 20
L 939 20
L 939 20
L 939 20
L 939 20
L 939 20
L 939 20
L 939 20
L 939 20
L 939 20
L 939 20
L 940 20
L 940 20
L 940 20
L 940 20
L 941 20
L 941 20
L 941 20
L 941 20
L 941 19
L 941 19
L 941 19
L 942 19
L 942 19
L 942 19
L 942 19
L 942 19
L 942 19
L 942 19
L 942 19
L 942 19
L 942 19
L 943 19
L 943 19
L 943 19
L 943 19
L 943 19
L 943 19
L 943 19
L 943 19
L 943 19
L 943 19
L 943 18
L 943 18
L 943 18
L 943 18
L 943 18
L 944 18
L 944 18
L 944 18
L 944 18
L 944 18
L 944 18
L 944 18
L 944 18
L 944 18
L 944 18
L 944 18
L 944 18
L 944 18
L 944 18
L 945 18
L 945 18
L 945 18
L 945 18
L 945 17
L 945 17
L 945 17
L 945 17
L 945 17
L 945 17
L 945 17
L 945 17
L 946 17
L 946 17
L 946 17
L 946 17
L 946 17
L 946 17
L 946 17
L 946 17
L 946 17
L 946 17
L 946 17
L 947 17
L 947 17
L 947 17
L 947 17
L 947 16
L 947 16
L 947 16
L 947 16
L 947 16
L 947 16
L 947 16
L 947 16
L 948 16
L 948 16
L 948 16
L 948 16
L 948 16
L 948 16
L 948 16
L 948 16
L 948 16
L 949 16
L 949 16
L 949 16
L 949 16
L 949 16
L 949 16
L 949 15
L 949 15
L 950 15
L 950 15
L 950 15
L 950 15
L 950 15
L 951 15
L 951 15
L 951 15
L 952 15
L 952 15
L 952 15
L 953 15
L 953 15
L 953 15
L 953 15
L 953 15
L 953 15
L 953 15
L 953 15
L 953 15
L 953 15
L 953 14
L 953 14
L 953 14
L 953 14
L 954 14
L 954 14
L 954 14
L 954 14
L 954 14
L 954 14
L 954 14
L 954 14
L 954 14
L 954 14
L 954 14
L 954 14
L 955 14
L 955 14
L 955 14
L 955 14
L 955 14
L 955 14
L 955 14
L 955 13
L 955 13
L 955 13
L 955 13
L 955 13
L 955 13
L 955 13
L 955 13
L 955 13
L 955 13
L 955 13
L 955 13
L 955 13
L 955 13
L 955 13
L 955 13
L 955 13
L 955 13
L 955 13
L 955 13
L 956 13
L 956 13
L 956 13
L 956 12
L 956 12
L 956 12
L 956 12
L 956 12
L 956 12
L 956 12
L 956 12
L 956 12
L 956 12
L 956 12
L 956 12
L 956 12
L 956 12
L 956 12
L 956 12
L 957 12
L 957 12
L 957 12
L 957 12
L 957 12
L 957 12
L 957 12
L 957 11
L 957 11
L 957 11
L 957 11
L 957 11
L 957 11
L 957 11
L 957 11
L 957 11
L 957 11
L 957 11
L 957 11
L 957 11
L 957 11
L 957 11
L 957 11
L 957 11
L 957 11
L 957 11" style="stroke-width:2;stroke:rgba(129,199,239,1.0);fill:none"/></svg>