<!-- stars: 9594 -->
<svg xmlns="http://www.w3.org/2000/svg" xmlns:xlink="http://www.w3.org/1999/xlink" width="1024" height="400">\n<path  d="M 0 0
L 1024 0
L 1024 400
L 0 400
L 0 0" style="stroke-width:0;stroke:rgba(255,255,255,1.0);fill:rgba(255,255,255,1.0)"/><path  d="M 38 11
L 957 11
L 957 351
L 38 351
L 38 11" style="stroke-width:0;stroke:rgba(255,255,255,1.0);fill:rgba(255,255,255,1.0)"/><path  d="M 38 351
L 957 351" style="stroke-width:2;stroke:rgba(85,85,85,1.0);fill:none"/><path  d="M 38 351
L 38 356" style="stroke-width:2;stroke:rgba(85,85,85,1.0);fill:none"/><text x="5" y="373" style="stroke-width:0;stroke:none;fill:rgba(51,51,51,1.0);font-size:12.8px;font-family:'Roboto Medium',sans-serif">2018-09-25</text><path  d="M 153 351
L 153 356" style="stroke-width:2;stroke:rgba(85,85,85,1.0);fill:none"/><text x="120" y="373" style="stroke-width:0;stroke:none;fill:rgba(51,51,51,1.0);font-size:12.8px;font-family:'Roboto Medium',sans-serif">2019-02-21</text><path  d="M 268 351
L 268 356" style="stroke-width:2;stroke:rgba(85,85,85,1.0);fill:none"/><text x="235" y="373" style="stroke-width:0;stroke:none;fill:rgba(51,51,51,1.0);font-size:12.8px;font-family:'Roboto Medium',sans-serif">2019-07-21</text><path  d="M 383 351
L 383 356" style="stroke-width:2;stroke:rgba(85,85,85,1.0);fill:none"/><text x="350" y="373" style="stroke-width:0;stroke:none;fill:rgba(51,51,51,1.0);font-size:12.8px;font-family:'Roboto Medium',sans-serif">2019-12-18</text><path  d="M 498 351
L 498 356" style="stroke-width:2;stroke:rgba(85,85,85,1.0);fill:none"/><text x="465" y="373" style="stroke-width:0;stroke:none;fill:rgba(51,51,51,1.0);font-size:12.8px;font-family:'Roboto Medium',sans-serif">2020-05-15</text><path  d="M 613 351
L 613 356" style="stroke-width:2;stroke:rgba(85,85,85,1.0);fill:none"/><text x="580" y="373" style="stroke-width:0;stroke:none;fill:rgba(51,51,51,1.0);font-size:12.8px;font-family:'Roboto Medium',sans-serif">2020-10-12</text><path  d="M 728 351
L 728 356" style="stroke-width:2;stroke:rgba(85,85,85,1.0);fill:none"/><text x="695" y="373" style="stroke-width:0;stroke:none;fill:rgba(51,51,51,1.0);font-size:12.8px;font-family:'Roboto Medium',sans-serif">2021-03-11</text><path  d="M 843 351
L 843 356" style="stroke-width:2;stroke:rgba(85,85,85,1.0);fill:none"/><text x="810" y="373" style="stroke-width:0;stroke:none;fill:rgba(51,51,51,1.0);font-size:12.8px;font-family:'Roboto Medium',sans-serif">2021-08-08</text><path  d="M 957 351
L 957 356" style="stroke-width:2;stroke:rgba(85,85,85,1.0);fill:none"/><text x="924" y="373" style="stroke-width:0;stroke:none;fill:rgba(51,51,51,1.0);font-size:12.8px;font-family:'Roboto Medium',sans-serif">2022-01-04</text><text x="483" y="395" style="stroke-width:0;stroke:none;fill:rgba(51,51,51,1.0);font-size:12.8px;font-family:'Roboto Medium',sans-serif">Time</text><path  d="M 959 351
L 959 11" style="stroke-width:2;stroke:rgba(85,85,85,1.0);fill:none"/><path  d="M 959 351
L 964 351" style="stroke-width:2;stroke:rgba(85,85,85,1.0);fill:none"/><text x="969" y="357" style="stroke-width:0;stroke:none;fill:rgba(51,51,51,1.0);font-size:12.8px;font-family:'Roboto Medium',sans-serif">0</text><path  d="M 959 308
L 964 308" style="stroke-width:2;stroke:rgba(85,85,85,1.0);fill:none"/><text x="969" y="314" style="stroke-width:0;stroke:none;fill:rgba(51,51,51,1.0);font-size:12.8px;font-family:'Roboto Medium',sans-serif">1200</text><path  d="M 959 266
L 964 266" style="stroke-width:2;stroke:rgba(85,85,85,1.0);fill:none"/><text x="969" y="272" style="stroke-width:0;stroke:none;fill:rgba(51,51,51,1.0);font-size:12.8px;font-family:'Roboto Medium',sans-serif">2400</text><path  d="M 959 223
L 964 223" style="stroke-width:2;stroke:rgba(85,85,85,1.0);fill:none"/><text x="969" y="229" style="stroke-width:0;stroke:none;fill:rgba(51,51,51,1.0);font-size:12.8px;font-family:'Roboto Medium',sans-serif">3600</text><path  d="M 959 181
L 964 181" style="stroke-width:2;stroke:rgba(85,85,85,1.0);fill:none"/><text x="969" y="187" style="stroke-width:0;stroke:none;fill:rgba(51,51,51,1.0);font-size:12.8px;font-family:'Roboto Medium',sans-serif">4800</text><path  d="M 959 138
L 964 138" style="stroke-width:2;stroke:rgba(85,85,85,1.0);fill:none"/><text x="969" y="144" style="stroke-width:0;stroke:none;fill:rgba(51,51,51,1.0);font-size:12.8px;font-family:'Roboto Medium',sans-serif">6000</text><path  d="M 959 96
L 964 96" style="stroke-width:2;stroke:rgba(85,85,85,1.0);fill:none"/><text x="969" y="102" style="stroke-width:0;stroke:none;fill:rgba(51,51,51,1.0);font-size:12.8px;font-family:'Roboto Medium',sans-serif">7200</text><path  d="M 959 53
L 964 53" style="stroke-width:2;stroke:rgba(85,85,85,1.0);fill:none"/><text x="969" y="59" style="stroke-width:0;stroke:none;fill:rgba(51,51,51,1.0);font-size:12.8px;font-family:'Roboto Medium',sans-serif">8400</text><path  d="M 959 11
L 964 11" style="stroke-width:2;stroke:rgba(85,85,85,1.0);fill:none"/><text x="969" y="17" style="stroke-width:0;stroke:none;fill:rgba(51,51,51,1.0);font-size:12.8px;font-family:'Roboto Medium',sans-serif">9600</text><text x="1009" y="150" style="stroke-width:0;stroke:none;fill:rgba(51,51,51,1.0);font-size:12.8px;font-family:'Roboto Medium',sans-serif" transform="rotate(90.00,1009,150)">Stargazers</text><path  d="M 38 351
L 40 350
L 50 350
L 50 350
L 50 350
L 51 350
L 51 350
L 53 350
L 54 350
L 55 350
L 56 350
L 57 350
L 57 350
L 58 350
L 58 350
L 58 350
L 60 350
L 66 350
L 66 350
L 69 350
L 69 350
L 69 350
L 71 350
L 72 350
L 73 350
L 73 350
L 78 350
L 82 350
L 87 350
L 87 349
L 92 349
L 93 349
L 93 349
L 93 349
L 93 349
L 93 349
L 93 349
L 93 349
L 94 349
L 94 349
L 94 349
L 96 349
L 97 349
L 97 349
L 98 349
L 98 349
L 98 349
L 99 349
L 99 349
L 100 349
L 101 349
L 102 349
L 103 349
L 104 349
L 105 349
L 106 349
L 106 349
L 108 348
L 108 348
L 109 348
L 109 348
L 109 348
L 109 348
L 110 348
L 110 348
L 110 348
L 110 348
L 111 348
L 111 348
L 111 348
L 111 348
L 111 348
L 112 348
L 113 348
L 113 348
L 113 348
L 115 348
L 115 348
L 116 348
L 116 348
L 118 348
L 118 348
L 119 348
L 119 348
L 119 348
L 119 347
L 120 347
L 120 347
L 121 347
L 121 347
L 121 347
L 121 347
L 123 347
L 125 347
L 125 347
L 125 347
L 125 347
L 125 347
L 127 347
L 129 347
L 131 347
L 131 347
L 132 347
L 132 347
L 132 347
L 139 347
L 142 347
L 146 347
L 146 347
L 148 347
L 148 347
L 148 347
L 149 347
L 149 346
L 151 346
L 151 346
L 151 346
L 152 346
L 152 346
L 152 346
L 152 346
L 153 346
L 154 346
L 156 346
L 156 346
L 158 346
L 159 346
L 161 346
L 161 346
L 162 346
L 163 346
L 164 346
L 164 346
L 164 346
L 164 346
L 166 346
L 166 346
L 167 346
L 168 346
L 169 346
L 170 346
L 172 346
L 172 345
L 173 345
L 174 345
L 174 345
L 174 345
L 175 345
L 175 345
L 178 345
L 179 345
L 179 345
L 179 345
L 180 345
L 181 345
L 181 345
L 181 345
L 181 345
L 181 345
L 182 345
L 183 345
L 183 345
L 183 345
L 183 345
L 184 345
L 184 345
L 184 345
L 184 345
L 184 345
L 184 345
L 184 344
L 184 344
L 184 344
L 185 344
L 185 344
L 185 344
L 185 344
L 185 344
L 186 344
L 188 344
L 188 344
L 188 344
L 189 344
L 189 344
L 190 344
L 190 344
L 190 344
L 190 344
L 190 344
L 190 344
L 191 344
L 191 344
L 192 344
L 194 344
L 194 344
L 195 344
L 197 344
L 197 344
L 199 343
L 200 343
L 200 343
L 200 343
L 201 343
L 201 343
L 201 343
L 201 343
L 201 343
L 203 343
L 203 343
L 204 343
L 204 343
L 205 343
L 205 343
L 205 343
L 206 343
L 206 343
L 207 343
L 207 343
L 208 343
L 208 343
L 209 343
L 210 343
L 211 343
L 212 343
L 212 343
L 213 343
L 213 342
L 213 342
L 214 342
L 214 342
L 217 342
L 217 342
L 220 342
L 221 342
L 223 342
L 224 342
L 225 342
L 226 342
L 226 342
L 227 342
L 232 342
L 232 342
L 232 342
L 233 342
L 233 342
L 233 342
L 234 342
L 234 342
L 234 342
L 234 342
L 240 342
L 242 342
L 243 342
L 243 342
L 243 342
L 243 341
L 243 341
L 244 341
L 244 341
L 244 341
L 244 341
L 245 341
L 245 341
L 247 341
L 248 341
L 248 341
L 250 341
L 250 341
L 250 341
L 251 341
L 252 341
L 253 341
L 253 341
L 253 341
L 254 341
L 254 341
L 254 341
L 254 341
L 254 341
L 255 341
L 255 341
L 255 341
L 255 341
L 256 340
L 256 340
L 256 340
L 257 340
L 257 340
L 257 340
L 257 340
L 258 340
L 259 340
L 260 340
L 261 340
L 262 340
L 263 340
L 263 340
L 263 340
L 264 340
L 264 340
L 266 340
L 268 340
L 269 340
L 270 340
L 272 340
L 273 340
L 274 340
L 275 340
L 275 340
L 275 340
L 276 340
L 280 339
L 284 339
L 284 339
L 286 339
L 287 339
L 289 339
L 290 339
L 292 339
L 295 339
L 295 339
L 295 339
L 296 339
L 299 339
L 303 339
L 303 339
L 303 339
L 304 339
L 304 339
L 315 339
L 315 339
L 316 339
L 316 339
L 316 339
L 316 339
L 316 339
L 316 339
L 316 339
L 317 339
L 317 338
L 317 338
L 317 338
L 318 338
L 319 338
L 322 338
L 322 338
L 322 338
L 328 338
L 329 338
L 330 338
L 331 338
L 331 338
L 332 338
L 333 338
L 334 338
L 334 338
L 334 338
L 335 338
L 336 338
L 336 338
L 336 338
L 339 338
L 339 338
L 339 338
L 340 338
L 344 338
L 355 338
L 356 338
L 359 337
L 362 337
L 362 337
L 364 337
L 366 337
L 366 337
L 366 337
L 367 337
L 367 337
L 368 337
L 368 337
L 371 337
L 372 337
L 374 337
L 375 337
L 379 337
L 379 337
L 379 337
L 385 337
L 387 337
L 387 337
L 389 337
L 389 337
L 389 337
L 389 337
L 389 337
L 390 337
L 390 337
L 390 336
L 390 336
L 390 336
L 392 336
L 393 336
L 396 336
L 398 336
L 399 336
L 403 336
L 403 336
L 403 336
L 404 336
L 404 336
L 405 336
L 406 336
L 408 336
L 408 336
L 413 336
L 413 336
L 414 336
L 415 336
L 416 336
L 418 336
L 420 336
L 422 336
L 426 336
L 428 336
L 428 336
L 429 335
L 432 335
L 438 335
L 440 335
L 442 335
L 443 335
L 444 335
L 444 335
L 445 335
L 446 335
L 446 335
L 446 335
L 448 335
L 448 335
L 448 335
L 448 335
L 448 335
L 449 335
L 450 335
L 450 335
L 451 335
L 451 335
L 452 335
L 453 335
L 453 335
L 453 335
L 453 335
L 453 335
L 454 334
L 454 334
L 454 334
L 454 334
L 454 334
L 454 334
L 455 334
L 456 334
L 456 334
L 458 334
L 458 334
L 459 334
L 459 334
L 459 334
L 459 334
L 460 334
L 461 334
L 461 334
L 461 334
L 461 334
L 462 334
L 462 334
L 462 334
L 462 334
L 463 334
L 463 334
L 465 334
L 465 334
L 467 334
L 467 333
L 468 333
L 468 333
L 468 333
L 468 333
L 469 333
L 469 333
L 470 333
L 470 333
L 470 333
L 470 333
L 470 333
L 470 333
L 470 333
L 470 333
L 470 333
L 470 333
L 470 333
L 470 333
L 470 333
L 471 333
L 471 333
L 471 333
L 471 333
L 472 333
L 472 333
L 472 333
L 473 333
L 473 332
L 473 332
L 474 332
L 475 332
L 475 332
L 476 332
L 476 332
L 476 332
L 477 332
L 478 332
L 478 332
L 478 332
L 478 332
L 478 332
L 478 332
L 478 332
L 478 332
L 478 332
L 478 332
L 478 332
L 478 332
L 478 332
L 478 332
L 478 332
L 479 332
L 479 332
L 479 332
L 479 332
L 479 331
L 479 331
L 479 331
L 479 331
L 479 331
L 479 331
L 479 331
L 479 331
L 479 331
L 480 331
L 480 331
L 480 331
L 480 331
L 480 331
L 481 331
L 481 331
L 481 331
L 481 331
L 481 331
L 481 331
L 481 331
L 482 331
L 482 331
L 483 331
L 483 331
L 484 331
L 484 331
L 484 331
L 484 330
L 484 330
L 485 330
L 485 330
L 485 330
L 485 330
L 485 330
L 485 330
L 486 330
L 487 330
L 487 330
L 488 330
L 488 330
L 489 330
L 490 330
L 491 330
L 491 330
L 491 330
L 491 330
L 491 330
L 491 330
L 491 330
L 492 330
L 492 330
L 492 330
L 493 330
L 494 330
L 494 330
L 494 329
L 495 329
L 495 329
L 495 329
L 496 329
L 496 329
L 497 329
L 497 329
L 497 329
L 497 329
L 498 329
L 498 329
L 498 329
L 498 329
L 498 329
L 498 329
L 499 329
L 499 329
L 500 329
L 501 329
L 501 329
L 502 329
L 502 329
L 502 329
L 503 329
L 503 329
L 504 329
L 504 329
L 504 329
L 505 328
L 505 328
L 505 328
L 506 328
L 506 328
L 506 328
L 507 328
L 507 328
L 507 328
L 507 328
L 507 328
L 507 328
L 508 328
L 508 328
L 508 328
L 508 328
L 508 328
L 508 328
L 508 328
L 509 328
L 509 328
L 510 328
L 510 328
L 511 328
L 512 328
L 512 328
L 512 328
L 512 328
L 513 327
L 513 327
L 513 327
L 514 327
L 514 327
L 514 327
L 514 327
L 514 327
L 514 327
L 515 327
L 515 327
L 515 327
L 515 327
L 515 327
L 515 327
L 515 327
L 515 327
L 515 327
L 515 327
L 515 327
L 515 327
L 515 327
L 515 327
L 516 327
L 516 327
L 517 327
L 517 327
L 517 327
L 517 326
L 518 326
L 518 326
L 519 326
L 519 326
L 520 326
L 520 326
L 520 326
L 520 326
L 520 326
L 521 326
L 521 326
L 521 326
L 521 326
L 521 326
L 521 326
L 521 326
L 521 326
L 522 326
L 522 326
L 522 326
L 522 326
L 522 326
L 522 326
L 522 326
L 522 326
L 522 326
L 522 326
L 523 325
L 523 325
L 523 325
L 523 325
L 523 325
L 523 325
L 524 325
L 524 325
L 524 325
L 524 325
L 524 325
L 525 325
L 525 325
L 525 325
L 525 325
L 525 325
L 525 325
L 525 325
L 525 325
L 526 325
L 526 325
L 527 325
L 527 325
L 527 325
L 527 325
L 528 325
L 528 325
L 529 325
L 530 325
L 530 324
L 530 324
L 531 324
L 531 324
L 531 324
L 531 324
L 531 324
L 532 324
L 532 324
L 532 324
L 532 324
L 532 324
L 533 324
L 534 324
L 534 324
L 534 324
L 534 324
L 534 324
L 534 324
L 534 324
L 535 324
L 535 324
L 535 324
L 535 324
L 535 324
L 536 324
L 536 324
L 536 324
L 537 323
L 537 323
L 537 323
L 538 323
L 538 323
L 538 323
L 539 323
L 539 323
L 540 323
L 540 323
L 540 323
L 540 323
L 541 323
L 541 323
L 541 323
L 543 323
L 543 323
L 543 323
L 543 323
L 544 323
L 544 323
L 545 323
L 545 323
L 545 323
L 545 323
L 546 323
L 546 323
L 546 323
L 546 322
L 546 322
L 547 322
L 547 322
L 547 322
L 547 322
L 548 322
L 548 322
L 548 322
L 548 322
L 548 322
L 548 322
L 548 322
L 549 322
L 549 322
L 549 322
L 550 322
L 550 322
L 551 322
L 551 322
L 551 322
L 551 322
L 551 322
L 552 322
L 552 322
L 552 322
L 553 322
L 553 322
L 553 321
L 553 321
L 553 321
L 554 321
L 554 321
L 554 321
L 554 321
L 554 321
L 554 321
L 554 321
L 555 321
L 555 321
L 555 321
L 555 321
L 555 321
L 555 321
L 555 321
L 556 321
L 556 321
L 556 321
L 556 321
L 556 321
L 556 321
L 557 321
L 557 321
L 557 321
L 557 321
L 557 321
L 557 321
L 558 320
L 558 320
L 559 320
L 559 320
L 559 320
L 559 320
L 559 320
L 560 320
L 560 320
L 560 320
L 561 320
L 561 320
L 561 320
L 561 320
L 561 320
L 561 320
L 562 320
L 562 320
L 562 320
L 563 320
L 563 320
L 564 320
L 564 320
L 564 320
L 564 320
L 564 320
L 565 320
L 565 320
L 565 319
L 565 319
L 565 319
L 566 319
L 566 319
L 566 319
L 566 319
L 566 319
L 567 319
L 567 319
L 567 319
L 567 319
L 567 319
L 567 319
L 569 319
L 569 319
L 569 319
L 570 319
L 570 319
L 570 319
L 570 319
L 570 319
L 570 319
L 571 319
L 571 319
L 571 319
L 572 319
L 572 319
L 572 318
L 572 318
L 572 318
L 573 318
L 573 318
L 573 318
L 574 318
L 574 318
L 575 318
L 575 318
L 576 318
L 576 318
L 577 318
L 577 318
L 578 318
L 579 318
L 580 318
L 580 318
L 580 318
L 580 318
L 581 318
L 582 318
L 582 318
L 583 318
L 583 318
L 583 318
L 583 318
L 583 318
L 584 317
L 584 317
L 585 317
L 585 317
L 585 317
L 586 317
L 586 317
L 586 317
L 586 317
L 587 317
L 587 317
L 588 317
L 588 317
L 588 317
L 588 317
L 588 317
L 588 317
L 588 317
L 588 317
L 589 317
L 589 317
L 589 317
L 589 317
L 589 317
L 589 317
L 590 317
L 590 317
L 590 317
L 590 317
L 590 316
L 590 316
L 591 316
L 592 316
L 592 316
L 592 316
L 593 316
L 593 316
L 593 316
L 595 316
L 595 316
L 596 316
L 597 316
L 597 316
L 597 316
L 597 316
L 598 316
L 598 316
L 598 316
L 598 316
L 599 316
L 601 316
L 601 316
L 601 316
L 601 316
L 601 316
L 602 316
L 602 316
L 602 315
L 602 315
L 603 315
L 603 315
L 603 315
L 603 315
L 603 315
L 603 315
L 603 315
L 603 315
L 605 315
L 607 315
L 607 315
L 608 315
L 609 315
L 610 315
L 610 315
L 611 315
L 611 315
L 611 315
L 611 315
L 612 315
L 612 315
L 612 315
L 612 315
L 613 315
L 613 315
L 613 315
L 613 314
L 613 314
L 613 314
L 613 314
L 613 314
L 613 314
L 614 314
L 614 314
L 614 314
L 614 314
L 614 314
L 615 314
L 615 314
L 615 314
L 615 314
L 615 314
L 615 314
L 615 314
L 616 314
L 616 314
L 616 314
L 616 314
L 616 314
L 616 314
L 618 314
L 618 314
L 618 314
L 618 314
L 619 313
L 619 313
L 619 313
L 619 313
L 620 313
L 620 313
L 620 313
L 620 313
L 620 313
L 621 313
L 621 313
L 621 313
L 621 313
L 621 313
L 621 313
L 623 313
L 623 313
L 623 313
L 624 313
L 624 313
L 624 313
L 624 313
L 624 313
L 624 313
L 624 313
L 624 313
L 624 313
L 624 313
L 624 312
L 624 312
L 625 312
L 625 312
L 625 312
L 625 312
L 625 312
L 625 312
L 625 312
L 625 312
L 625 312
L 626 312
L 626 312
L 626 312
L 626 312
L 626 312
L 626 312
L 626 312
L 626 312
L 626 312
L 626 312
L 626 312
L 626 312
L 626 312
L 626 312
L 626 312
L 626 312
L 627 312
L 627 312
L 627 311
L 628 311
L 628 311
L 628 311
L 628 311
L 628 311
L 628 311
L 629 311
L 629 311
L 629 311
L 629 311
L 629 311
L 629 311
L 629 311
L 629 311
L 630 311
L 630 311
L 630 311
L 630 311
L 630 311
L 630 311
L 630 311
L 630 311
L 630 311
L 630 311
L 631 311
L 631 311
L 631 311
L 631 310
L 632 310
L 632 310
L 632 310
L 633 310
L 633 310
L 633 310
L 634 310
L 634 310
L 634 310
L 634 310
L 634 310
L 634 310
L 634 310
L 634 310
L 635 310
L 635 310
L 635 310
L 636 310
L 636 310
L 636 310
L 636 310
L 636 310
L 636 310
L 636 310
L 637 310
L 637 310
L 637 310
L 637 309
L 637 309
L 638 309
L 638 309
L 638 309
L 639 309
L 639 309
L 639 309
L 639 309
L 639 309
L 639 309
L 640 309
L 640 309
L 640 309
L 640 309
L 641 309
L 641 309
L 641 309
L 641 309
L 641 309
L 642 309
L 642 309
L 642 309
L 642 309
L 642 309
L 642 309
L 642 309
L 642 309
L 643 308
L 643 308
L 644 308
L 644 308
L 644 308
L 644 308
L 644 308
L 645 308
L 645 308
L 645 308
L 645 308
L 645 308
L 645 308
L 646 308
L 646 308
L 647 308
L 647 308
L 647 308
L 647 308
L 648 308
L 648 308
L 648 308
L 648 308
L 648 308
L 648 308
L 648 308
L 649 308
L 650 308
L 650 308
L 650 307
L 650 307
L 650 307
L 650 307
L 650 307
L 651 307
L 651 307
L 651 307
L 651 307
L 651 307
L 652 307
L 652 307
L 652 307
L 652 307
L 652 307
L 652 307
L 652 307
L 652 307
L 653 307
L 653 307
L 653 307
L 653 307
L 654 307
L 655 307
L 655 307
L 656 307
L 656 307
L 656 307
L 656 306
L 656 306
L 656 306
L 656 306
L 657 306
L 657 306
L 657 306
L 657 306
L 657 306
L 657 306
L 658 306
L 658 306
L 658 306
L 658 306
L 658 306
L 658 306
L 659 306
L 659 306
L 659 306
L 660 306
L 660 306
L 660 306
L 660 306
L 661 306
L 661 306
L 661 306
L 661 306
L 661 306
L 662 305
L 662 305
L 662 305
L 662 305
L 662 305
L 662 305
L 663 305
L 663 305
L 663 305
L 664 305
L 664 305
L 664 305
L 666 305
L 666 305
L 666 305
L 666 305
L 666 305
L 666 305
L 666 305
L 666 305
L 667 305
L 667 305
L 667 305
L 667 305
L 667 305
L 667 305
L 667 305
L 667 305
L 667 304
L 667 304
L 668 304
L 668 304
L 668 304
L 668 304
L 668 304
L 668 304
L 668 304
L 668 304
L 668 304
L 669 304
L 669 304
L 669 304
L 669 304
L 669 304
L 669 304
L 669 304
L 669 304
L 670 304
L 670 304
L 670 304
L 671 304
L 671 304
L 671 304
L 671 304
L 672 304
L 672 304
L 672 304
L 672 303
L 672 303
L 672 303
L 672 303
L 672 303
L 672 303
L 672 303
L 672 303
L 673 303
L 673 303
L 673 303
L 673 303
L 673 303
L 674 303
L 674 303
L 674 303
L 675 303
L 675 303
L 676 303
L 676 303
L 676 303
L 676 303
L 677 303
L 677 303
L 677 303
L 677 303
L 677 303
L 678 303
L 678 302
L 678 302
L 678 302
L 678 302
L 678 302
L 679 302
L 679 302
L 679 302
L 679 302
L 679 302
L 679 302
L 679 302
L 679 302
L 679 302
L 679 302
L 679 302
L 679 302
L 679 302
L 680 302
L 680 302
L 680 302
L 681 302
L 681 302
L 681 302
L 682 302
L 682 302
L 682 302
L 682 302
L 683 301
L 683 301
L 683 301
L 683 301
L 683 301
L 683 301
L 683 301
L 683 301
L 683 301
L 683 301
L 684 301
L 684 301
L 684 301
L 684 301
L 685 301
L 685 301
L 685 301
L 686 301
L 686 301
L 686 301
L 686 301
L 686 301
L 686 301
L 686 301
L 687 301
L 688 301
L 688 301
L 688 301
L 688 300
L 688 300
L 689 300
L 689 300
L 689 300
L 689 300
L 689 300
L 689 300
L 690 300
L 690 300
L 690 300
L 690 300
L 690 300
L 691 300
L 691 300
L 691 300
L 691 300
L 691 300
L 691 300
L 691 300
L 692 300
L 692 300
L 692 300
L 692 300
L 692 300
L 692 300
L 692 300
L 693 300
L 693 300
L 693 299
L 693 299
L 693 299
L 693 299
L 693 299
L 693 299
L 693 299
L 694 299
L 694 299
L 694 299
L 694 299
L 694 299
L 694 299
L 694 299
L 695 299
L 695 299
L 695 299
L 695 299
L 695 299
L 696 299
L 697 299
L 697 299
L 697 299
L 697 299
L 698 299
L 698 299
L 698 299
L 698 299
L 698 298
L 698 298
L 698 298
L 698 298
L 699 298
L 699 298
L 699 298
L 699 298
L 700 298
L 700 298
L 700 298
L 700 298
L 701 298
L 701 298
L 701 298
L 701 298
L 701 298
L 701 298
L 701 298
L 701 298
L 702 298
L 702 298
L 702 298
L 702 298
L 702 298
L 702 298
L 702 298
L 702 298
L 703 297
L 703 297
L 703 297
L 703 297
L 703 297
L 703 297
L 703 297
L 704 297
L 704 297
L 704 297
L 705 297
L 705 297
L 705 297
L 706 297
L 706 297
L 708 297
L 708 297
L 708 297
L 708 297
L 708 297
L 708 297
L 709 297
L 709 297
L 709 297
L 710 297
L 710 297
L 710 297
L 711 297
L 711 296
L 711 296
L 711 296
L 712 296
L 712 296
L 712 296
L 712 296
L 712 296
L 712 296
L 712 296
L 712 296
L 712 296
L 712 296
L 712 296
L 713 296
L 713 296
L 713 296
L 713 296
L 713 296
L 713 296
L 713 296
L 713 296
L 713 296
L 714 296
L 714 296
L 714 296
L 714 296
L 714 296
L 715 295
L 715 295
L 715 295
L 715 295
L 715 295
L 715 295
L 715 295
L 715 295
L 715 295
L 716 295
L 716 295
L 716 295
L 716 295
L 716 295
L 716 295
L 716 295
L 716 295
L 716 295
L 717 295
L 717 295
L 717 295
L 717 295
L 717 295
L 717 295
L 717 295
L 717 295
L 718 295
L 718 295
L 718 295
L 718 294
L 718 294
L 718 294
L 718 294
L 719 294
L 719 294
L 719 294
L 719 294
L 719 294
L 719 294
L 720 294
L 720 294
L 720 294
L 720 294
L 720 294
L 720 294
L 720 294
L 721 294
L 721 294
L 721 294
L 721 294
L 721 294
L 721 294
L 721 294
L 721 294
L 721 294
L 721 294
L 721 294
L 721 293
L 721 293
L 721 293
L 721 293
L 722 293
L 722 293
L 722 293
L 722 293
L 722 293
L 722 293
L 722 293
L 722 293
L 722 293
L 722 293
L 723 293
L 723 293
L 723 293
L 723 293
L 724 293
L 724 293
L 724 293
L 724 293
L 724 293
L 724 293
L 725 293
L 725 293
L 725 293
L 725 293
L 725 292
L 725 292
L 726 292
L 726 292
L 726 292
L 726 292
L 726 292
L 726 292
L 726 292
L 726 292
L 726 292
L 726 292
L 727 292
L 727 292
L 727 292
L 727 292
L 728 292
L 728 292
L 728 292
L 728 292
L 728 292
L 728 292
L 728 292
L 728 292
L 728 292
L 728 292
L 728 292
L 728 292
L 728 291
L 728 291
L 728 291
L 728 291
L 728 291
L 729 291
L 729 291
L 729 291
L 729 291
L 729 291
L 730 291
L 730 291
L 730 291
L 730 291
L 730 291
L 730 291
L 730 291
L 730 291
L 730 291
L 730 291
L 730 291
L 730 291
L 730 291
L 730 291
L 730 291
L 730 291
L 730 291
L 730 291
L 730 291
L 730 290
L 730 290
L 730 290
L 730 290
L 730 290
L 730 290
L 730 290
L 730 290
L 730 290
L 730 290
L 730 290
L 730 290
L 730 290
L 730 290
L 730 290
L 730 290
L 730 290
L 730 290
L 730 290
L 730 290
L 730 290
L 730 290
L 730 290
L 730 290
L 730 290
L 730 290
L 730 290
L 730 290
L 730 289
L 730 289
L 730 289
L 730 289
L 730 289
L 730 289
L 730 289
L 730 289
L 730 289
L 730 289
L 730 289
L 730 289
L 730 289
L 730 289
L 730 289
L 730 289
L 730 289
L 730 289
L 730 289
L 730 289
L 730 289
L 730 289
L 730 289
L 730 289
L 730 289
L 730 289
L 730 289
L 731 289
L 731 288
L 731 288
L 731 288
L 731 288
L 731 288
L 731 288
L 731 288
L 731 288
L 731 288
L 731 288
L 731 288
L 731 288
L 731 288
L 731 288
L 731 288
L 731 288
L 731 288
L 731 288
L 731 288
L 731 288
L 731 288
L 731 288
L 731 288
L 731 288
L 731 288
L 731 288
L 731 288
L 731 288
L 731 287
L 731 287
L 731 287
L 731 287
L 731 287
L 731 287
L 731 287
L 731 287
L 731 287
L 731 287
L 731 287
L 731 287
L 731 287
L 731 287
L 731 287
L 731 287
L 731 287
L 731 287
L 731 287
L 731 287
L 731 287
L 731 287
L 731 287
L 731 287
L 731 287
L 731 287
L 731 287
L 731 287
L 732 287
L 732 286
L 732 286
L 732 286
L 732 286
L 732 286
L 732 286
L 732 286
L 732 286
L 732 286
L 732 286
L 732 286
L 732 286
L 732 286
L 732 286
L 732 286
L 732 286
L 732 286
L 732 286
L 732 286
L 732 286
L 732 286
L 732 286
L 732 286
L 732 286
L 732 286
L 732 286
L 732 286
L 732 286
L 732 285
L 732 285
L 732 285
L 732 285
L 732 285
L 732 285
L 732 285
L 732 285
L 732 285
L 732 285
L 732 285
L 732 285
L 732 285
L 732 285
L 732 285
L 732 285
L 732 285
L 732 285
L 732 285
L 732 285
L 732 285
L 732 285
L 732 285
L 732 285
L 732 285
L 732 285
L 732 285
L 732 285
L 732 284
L 732 284
L 732 284
L 732 284
L 732 284
L 732 284
L 732 284
L 732 284
L 732 284
L 732 284
L 732 284
L 732 284
L 732 284
L 732 284
L 732 284
L 732 284
L 732 284
L 732 284
L 732 284
L 732 284
L 732 284
L 732 284
L 732 284
L 732 284
L 732 284
L 732 284
L 732 284
L 732 284
L 732 283
L 732 283
L 732 283
L 732 283
L 732 283
L 732 283
L 732 283
L 732 283
L 732 283
L 732 283
L 732 283
L 732 283
L 732 283
L 732 283
L 732 283
L 732 283
L 732 283
L 733 283
L 733 283
L 733 283
L 733 283
L 733 283
L 733 283
L 733 283
L 733 283
L 733 283
L 733 283
L 733 283
L 733 283
L 733 282
L 733 282
L 733 282
L 733 282
L 733 282
L 733 282
L 733 282
L 733 282
L 733 282
L 733 282
L 733 282
L 733 282
L 733 282
L 733 282
L 733 282
L 733 282
L 733 282
L 733 282
L 733 282
L 733 282
L 733 282
L 733 282
L 733 282
L 733 282
L 733 282
L 733 282
L 733 282
L 733 282
L 733 281
L 733 281
L 733 281
L 733 281
L 733 281
L 733 281
L 733 281
L 733 281
L 734 281
L 734 281
L 734 281
L 734 281
L 734 281
L 734 281
L 734 281
L 734 281
L 734 281
L 734 281
L 734 281
L 734 281
L 734 281
L 734 281
L 734 281
L 734 281
L 734 281
L 734 281
L 734 281
L 734 281
L 734 280
L 734 280
L 734 280
L 734 280
L 734 280
L 734 280
L 734 280
L 734 280
L 734 280
L 734 280
L 734 280
L 734 280
L 734 280
L 734 280
L 734 280
L 734 280
L 734 280
L 734 280
L 734 280
L 734 280
L 734 280
L 734 280
L 734 280
L 734 280
L 735 280
L 735 280
L 735 280
L 735 280
L 735 279
L 735 279
L 735 279
L 735 279
L 735 279
L 735 279
L 735 279
L 735 279
L 735 279
L 735 279
L 735 279
L 736 279
L 736 279
L 736 279
L 736 279
L 736 279
L 736 279
L 736 279
L 736 279
L 736 279
L 737 279
L 737 279
L 737 279
L 737 279
L 737 279
L 737 279
L 737 279
L 737 279
L 737 278
L 737 278
L 737 278
L 738 278
L 738 278
L 738 278
L 738 278
L 738 278
L 738 278
L 738 278
L 738 278
L 738 278
L 738 278
L 738 278
L 738 278
L 738 278
L 738 278
L 738 278
L 738 278
L 738 278
L 738 278
L 738 278
L 738 278
L 739 278
L 739 278
L 739 278
L 739 278
L 739 278
L 739 278
L 739 277
L 739 277
L 739 277
L 739 277
L 740 277
L 740 277
L 740 277
L 740 277
L 740 277
L 740 277
L 740 277
L 741 277
L 741 277
L 741 277
L 741 277
L 741 277
L 741 277
L 741 277
L 741 277
L 741 277
L 741 277
L 741 277
L 742 277
L 742 277
L 742 277
L 742 277
L 742 277
L 742 277
L 742 276
L 742 276
L 742 276
L 742 276
L 742 276
L 742 276
L 742 276
L 742 276
L 742 276
L 742 276
L 742 276
L 742 276
L 742 276
L 742 276
L 742 276
L 742 276
L 742 276
L 742 276
L 742 276
L 742 276
L 742 276
L 742 276
L 742 276
L 742 276
L 742 276
L 742 276
L 742 276
L 742 276
L 742 275
L 742 275
L 742 275
L 742 275
L 742 275
L 742 275
L 742 275
L 742 275
L 742 275
L 742 275
L 742 275
L 742 275
L 742 275
L 742 275
L 742 275
L 742 275
L 742 275
L 742 275
L 742 275
L 743 275
L 743 275
L 743 275
L 743 275
L 743 275
L 743 275
L 743 275
L 743 275
L 743 275
L 743 274
L 743 274
L 743 274
L 743 274
L 743 274
L 743 274
L 743 274
L 743 274
L 743 274
L 743 274
L 743 274
L 743 274
L 743 274
L 743 274
L 743 274
L 743 274
L 743 274
L 744 274
L 744 274
L 744 274
L 744 274
L 744 274
L 744 274
L 744 274
L 744 274
L 744 274
L 744 274
L 744 274
L 744 274
L 744 273
L 744 273
L 744 273
L 744 273
L 744 273
L 744 273
L 744 273
L 744 273
L 744 273
L 744 273
L 744 273
L 744 273
L 744 273
L 744 273
L 744 273
L 744 273
L 744 273
L 744 273
L 744 273
L 744 273
L 744 273
L 744 273
L 744 273
L 744 273
L 744 273
L 744 273
L 744 273
L 744 273
L 744 272
L 744 272
L 744 272
L 744 272
L 744 272
L 744 272
L 744 272
L 744 272
L 744 272
L 744 272
L 744 272
L 744 272
L 744 272
L 744 272
L 744 272
L 744 272
L 744 272
L 744 272
L 744 272
L 744 272
L 744 272
L 744 272
L 744 272
L 744 272
L 744 272
L 744 272
L 744 272
L 744 272
L 744 271
L 744 271
L 744 271
L 744 271
L 744 271
L 744 271
L 744 271
L 744 271
L 744 271
L 744 271
L 744 271
L 744 271
L 744 271
L 744 271
L 744 271
L 744 271
L 744 271
L 744 271
L 744 271
L 744 271
L 744 271
L 744 271
L 744 271
L 744 271
L 744 271
L 744 271
L 744 271
L 744 271
L 745 270
L 745 270
L 745 270
L 745 270
L 745 270
L 745 270
L 745 270
L 745 270
L 745 270
L 745 270
L 745 270
L 745 270
L 745 270
L 745 270
L 745 270
L 745 270
L 745 270
L 745 270
L 745 270
L 745 270
L 745 270
L 745 270
L 745 270
L 745 270
L 745 270
L 745 270
L 745 270
L 745 270
L 745 270
L 745 269
L 745 269
L 745 269
L 745 269
L 745 269
L 745 269
L 745 269
L 745 269
L 745 269
L 745 269
L 745 269
L 745 269
L 746 269
L 746 269
L 746 269
L 746 269
L 746 269
L 746 269
L 746 269
L 746 269
L 746 269
L 746 269
L 746 269
L 746 269
L 746 269
L 746 269
L 746 269
L 746 269
L 746 268
L 746 268
L 746 268
L 746 268
L 746 268
L 746 268
L 746 268
L 746 268
L 746 268
L 746 268
L 746 268
L 746 268
L 746 268
L 746 268
L 746 268
L 746 268
L 747 268
L 747 268
L 747 268
L 747 268
L 747 268
L 747 268
L 747 268
L 747 268
L 747 268
L 747 268
L 747 268
L 747 268
L 747 267
L 747 267
L 747 267
L 747 267
L 747 267
L 747 267
L 747 267
L 747 267
L 747 267
L 747 267
L 747 267
L 747 267
L 747 267
L 748 267
L 748 267
L 748 267
L 748 267
L 748 267
L 748 267
L 748 267
L 748 267
L 748 267
L 748 267
L 748 267
L 748 267
L 748 267
L 748 267
L 748 267
L 748 266
L 748 266
L 748 266
L 748 266
L 748 266
L 748 266
L 748 266
L 748 266
L 748 266
L 748 266
L 748 266
L 748 266
L 748 266
L 748 266
L 748 266
L 749 266
L 749 266
L 749 266
L 749 266
L 749 266
L 749 266
L 749 266
L 749 266
L 749 266
L 749 266
L 749 266
L 749 266
L 749 266
L 749 266
L 750 265
L 750 265
L 750 265
L 750 265
L 750 265
L 750 265
L 750 265
L 750 265
L 750 265
L 750 265
L 750 265
L 751 265
L 751 265
L 751 265
L 751 265
L 751 265
L 751 265
L 751 265
L 751 265
L 751 265
L 751 265
L 751 265
L 751 265
L 752 265
L 752 265
L 752 265
L 752 265
L 752 265
L 752 264
L 752 264
L 752 264
L 752 264
L 752 264
L 752 264
L 753 264
L 753 264
L 753 264
L 753 264
L 753 264
L 753 264
L 753 264
L 753 264
L 753 264
L 753 264
L 753 264
L 754 264
L 754 264
L 754 264
L 754 264
L 754 264
L 754 264
L 754 264
L 754 264
L 754 264
L 754 264
L 754 264
L 754 263
L 754 263
L 754 263
L 754 263
L 754 263
L 754 263
L 754 263
L 755 263
L 755 263
L 755 263
L 755 263
L 755 263
L 755 263
L 755 263
L 755 263
L 755 263
L 755 263
L 755 263
L 755 263
L 755 263
L 755 263
L 755 263
L 756 263
L 756 263
L 756 263
L 756 263
L 756 263
L 756 263
L 756 262
L 756 262
L 756 262
L 756 262
L 756 262
L 756 262
L 756 262
L 756 262
L 756 262
L 757 262
L 757 262
L 757 262
L 757 262
L 757 262
L 757 262
L 757 262
L 757 262
L 757 262
L 757 262
L 757 262
L 757 262
L 757 262
L 757 262
L 757 262
L 757 262
L 758 262
L 758 262
L 758 262
L 758 261
L 758 261
L 758 261
L 758 261
L 758 261
L 758 261
L 758 261
L 758 261
L 758 261
L 758 261
L 758 261
L 758 261
L 758 261
L 758 261
L 758 261
L 758 261
L 758 261
L 758 261
L 758 261
L 758 261
L 758 261
L 758 261
L 758 261
L 759 261
L 759 261
L 759 261
L 759 261
L 759 261
L 759 261
L 759 260
L 759 260
L 759 260
L 759 260
L 760 260
L 760 260
L 760 260
L 760 260
L 760 260
L 760 260
L 760 260
L 760 260
L 761 260
L 761 260
L 761 260
L 761 260
L 761 260
L 761 260
L 761 260
L 761 260
L 761 260
L 761 260
L 761 260
L 761 260
L 761 260
L 761 260
L 761 260
L 761 260
L 761 259
L 761 259
L 761 259
L 761 259
L 761 259
L 761 259
L 761 259
L 761 259
L 761 259
L 761 259
L 762 259
L 762 259
L 762 259
L 762 259
L 762 259
L 762 259
L 762 259
L 762 259
L 762 259
L 762 259
L 762 259
L 762 259
L 762 259
L 762 259
L 762 259
L 762 259
L 762 259
L 762 259
L 762 258
L 762 258
L 762 258
L 762 258
L 762 258
L 762 258
L 762 258
L 762 258
L 762 258
L 762 258
L 762 258
L 762 258
L 762 258
L 762 258
L 762 258
L 762 258
L 762 258
L 762 258
L 762 258
L 763 258
L 763 258
L 763 258
L 763 258
L 763 258
L 763 258
L 763 258
L 763 258
L 763 258
L 763 257
L 763 257
L 763 257
L 763 257
L 763 257
L 763 257
L 763 257
L 763 257
L 763 257
L 763 257
L 763 257
L 763 257
L 763 257
L 763 257
L 763 257
L 763 257
L 763 257
L 763 257
L 763 257
L 763 257
L 763 257
L 763 257
L 763 257
L 763 257
L 763 257
L 763 257
L 763 257
L 763 257
L 763 257
L 763 256
L 763 256
L 763 256
L 763 256
L 763 256
L 763 256
L 763 256
L 763 256
L 763 256
L 763 256
L 763 256
L 763 256
L 763 256
L 763 256
L 763 256
L 763 256
L 763 256
L 763 256
L 763 256
L 763 256
L 763 256
L 763 256
L 763 256
L 763 256
L 763 256
L 763 256
L 763 256
L 764 256
L 764 255
L 764 255
L 764 255
L 764 255
L 764 255
L 764 255
L 764 255
L 764 255
L 764 255
L 764 255
L 764 255
L 764 255
L 764 255
L 764 255
L 764 255
L 764 255
L 764 255
L 764 255
L 764 255
L 764 255
L 764 255
L 764 255
L 764 255
L 764 255
L 764 255
L 764 255
L 764 255
L 764 255
L 764 254
L 764 254
L 764 254
L 764 254
L 764 254
L 764 254
L 764 254
L 764 254
L 764 254
L 764 254
L 764 254
L 764 254
L 764 254
L 764 254
L 764 254
L 764 254
L 764 254
L 764 254
L 764 254
L 764 254
L 764 254
L 764 254
L 764 254
L 764 254
L 764 254
L 764 254
L 764 254
L 764 254
L 764 253
L 764 253
L 764 253
L 764 253
L 764 253
L 764 253
L 764 253
L 764 253
L 764 253
L 764 253
L 764 253
L 764 253
L 764 253
L 764 253
L 764 253
L 764 253
L 764 253
L 764 253
L 764 253
L 764 253
L 764 253
L 764 253
L 765 253
L 765 253
L 765 253
L 765 253
L 765 253
L 765 253
L 765 253
L 765 252
L 765 252
L 765 252
L 765 252
L 765 252
L 765 252
L 765 252
L 765 252
L 765 252
L 765 252
L 765 252
L 765 252
L 765 252
L 765 252
L 765 252
L 765 252
L 765 252
L 765 252
L 765 252
L 765 252
L 765 252
L 765 252
L 765 252
L 765 252
L 765 252
L 765 252
L 765 252
L 765 252
L 765 251
L 765 251
L 765 251
L 765 251
L 765 251
L 765 251
L 765 251
L 765 251
L 765 251
L 765 251
L 765 251
L 765 251
L 765 251
L 765 251
L 765 251
L 765 251
L 765 251
L 765 251
L 765 251
L 765 251
L 765 251
L 765 251
L 765 251
L 765 251
L 765 251
L 765 251
L 765 251
L 765 251
L 765 250
L 765 250
L 765 250
L 765 250
L 765 250
L 765 250
L 765 250
L 765 250
L 765 250
L 765 250
L 765 250
L 765 250
L 765 250
L 765 250
L 765 250
L 765 250
L 765 250
L 765 250
L 765 250
L 765 250
L 765 250
L 765 250
L 765 250
L 765 250
L 765 250
L 765 250
L 765 250
L 765 250
L 765 249
L 765 249
L 765 249
L 765 249
L 765 249
L 765 249
L 765 249
L 765 249
L 765 249
L 765 249
L 765 249
L 765 249
L 765 249
L 765 249
L 765 249
L 765 249
L 765 249
L 765 249
L 765 249
L 765 249
L 765 249
L 765 249
L 765 249
L 765 249
L 765 249
L 765 249
L 765 249
L 765 249
L 765 249
L 765 248
L 765 248
L 765 248
L 765 248
L 765 248
L 765 248
L 765 248
L 765 248
L 765 248
L 765 248
L 765 248
L 765 248
L 765 248
L 765 248
L 765 248
L 765 248
L 765 248
L 765 248
L 765 248
L 765 248
L 765 248
L 765 248
L 765 248
L 765 248
L 765 248
L 765 248
L 765 248
L 765 248
L 765 247
L 765 247
L 765 247
L 765 247
L 765 247
L 765 247
L 765 247
L 765 247
L 765 247
L 765 247
L 765 247
L 765 247
L 765 247
L 765 247
L 765 247
L 765 247
L 765 247
L 765 247
L 765 247
L 765 247
L 765 247
L 765 247
L 765 247
L 765 247
L 765 247
L 765 247
L 765 247
L 765 247
L 765 246
L 765 246
L 765 246
L 765 246
L 765 246
L 765 246
L 765 246
L 765 246
L 765 246
L 765 246
L 765 246
L 765 246
L 765 246
L 765 246
L 765 246
L 765 246
L 765 246
L 765 246
L 765 246
L 765 246
L 765 246
L 765 246
L 765 246
L 765 246
L 765 246
L 765 246
L 765 246
L 765 246
L 765 245
L 765 245
L 765 245
L 765 245
L 765 245
L 765 245
L 765 245
L 765 245
L 765 245
L 765 245
L 765 245
L 765 245
L 765 245
L 765 245
L 765 245
L 765 245
L 765 245
L 765 245
L 765 245
L 765 245
L 765 245
L 765 245
L 765 245
L 765 245
L 765 245
L 765 245
L 765 245
L 765 245
L 765 244
L 765 244
L 765 244
L 765 244
L 765 244
L 765 244
L 765 244
L 765 244
L 765 244
L 765 244
L 765 244
L 765 244
L 765 244
L 765 244
L 765 244
L 765 244
L 765 244
L 765 244
L 765 244
L 765 244
L 765 244
L 765 244
L 765 244
L 765 244
L 765 244
L 765 244
L 765 244
L 765 244
L 765 244
L 765 243
L 765 243
L 765 243
L 765 243
L 765 243
L 765 243
L 765 243
L 765 243
L 765 243
L 765 243
L 765 243
L 765 243
L 765 243
L 765 243
L 765 243
L 765 243
L 765 243
L 765 243
L 765 243
L 765 243
L 765 243
L 765 243
L 765 243
L 765 243
L 765 243
L 765 243
L 765 243
L 765 243
L 765 242
L 765 242
L 765 242
L 765 242
L 765 242
L 765 242
L 765 242
L 765 242
L 765 242
L 765 242
L 765 242
L 765 242
L 765 242
L 765 242
L 765 242
L 765 242
L 765 242
L 765 242
L 765 242
L 765 242
L 765 242
L 765 242
L 765 242
L 765 242
L 765 242
L 765 242
L 765 242
L 765 242
L 765 241
L 765 241
L 765 241
L 765 241
L 765 241
L 765 241
L 765 241
L 765 241
L 765 241
L 765 241
L 765 241
L 765 241
L 765 241
L 765 241
L 765 241
L 765 241
L 765 241
L 765 241
L 765 241
L 765 241
L 765 241
L 765 241
L 765 241
L 765 241
L 765 241
L 765 241
L 765 241
L 765 241
L 765 240
L 765 240
L 765 240
L 765 240
L 765 240
L 765 240
L 765 240
L 765 240
L 765 240
L 765 240
L 765 240
L 765 240
L 766 240
L 766 240
L 766 240
L 766 240
L 766 240
L 766 240
L 766 240
L 766 240
L 766 240
L 766 240
L 766 240
L 766 240
L 766 240
L 766 240
L 766 240
L 766 240
L 766 240
L 766 239
L 766 239
L 766 239
L 766 239
L 766 239
L 766 239
L 766 239
L 766 239
L 766 239
L 766 239
L 766 239
L 766 239
L 766 239
L 766 239
L 766 239
L 766 239
L 766 239
L 766 239
L 766 239
L 766 239
L 766 239
L 766 239
L 766 239
L 766 239
L 766 239
L 766 239
L 766 239
L 766 239
L 766 238
L 766 238
L 766 238
L 766 238
L 766 238
L 766 238
L 766 238
L 766 238
L 766 238
L 766 238
L 766 238
L 766 238
L 766 238
L 766 238
L 766 238
L 766 238
L 766 238
L 766 238
L 766 238
L 766 238
L 766 238
L 766 238
L 766 238
L 766 238
L 766 238
L 766 238
L 766 238
L 766 238
L 766 237
L 766 237
L 766 237
L 766 237
L 766 237
L 766 237
L 766 237
L 766 237
L 766 237
L 766 237
L 766 237
L 766 237
L 766 237
L 766 237
L 766 237
L 766 237
L 766 237
L 766 237
L 766 237
L 766 237
L 766 237
L 766 237
L 766 237
L 766 237
L 766 237
L 766 237
L 766 237
L 766 237
L 766 236
L 766 236
L 766 236
L 766 236
L 766 236
L 766 236
L 766 236
L 766 236
L 766 236
L 766 236
L 766 236
L 766 236
L 766 236
L 766 236
L 766 236
L 766 236
L 766 236
L 766 236
L 766 236
L 766 236
L 766 236
L 766 236
L 766 236
L 766 236
L 766 236
L 766 236
L 766 236
L 766 236
L 766 236
L 766 235
L 766 235
L 766 235
L 766 235
L 766 235
L 766 235
L 766 235
L 766 235
L 766 235
L 766 235
L 766 235
L 766 235
L 766 235
L 766 235
L 766 235
L 766 235
L 766 235
L 766 235
L 766 235
L 766 235
L 766 235
L 766 235
L 766 235
L 766 235
L 766 235
L 766 235
L 766 235
L 766 235
L 766 234
L 766 234
L 766 234
L 766 234
L 766 234
L 766 234
L 766 234
L 766 234
L 766 234
L 766 234
L 766 234
L 766 234
L 766 234
L 766 234
L 766 234
L 766 234
L 766 234
L 766 234
L 766 234
L 766 234
L 766 234
L 766 234
L 766 234
L 766 234
L 766 234
L 766 234
L 766 234
L 766 234
L 766 233
L 766 233
L 766 233
L 766 233
L 766 233
L 766 233
L 766 233
L 766 233
L 766 233
L 766 233
L 766 233
L 766 233
L 766 233
L 766 233
L 766 233
L 766 233
L 766 233
L 766 233
L 766 233
L 766 233
L 766 233
L 766 233
L 766 233
L 766 233
L 766 233
L 766 233
L 766 233
L 766 233
L 766 232
L 766 232
L 766 232
L 766 232
L 766 232
L 766 232
L 766 232
L 766 232
L 766 232
L 766 232
L 766 232
L 766 232
L 766 232
L 766 232
L 766 232
L 766 232
L 766 232
L 766 232
L 766 232
L 766 232
L 766 232
L 766 232
L 766 232
L 766 232
L 766 232
L 766 232
L 766 232
L 766 232
L 766 232
L 766 231
L 766 231
L 766 231
L 766 231
L 766 231
L 766 231
L 766 231
L 766 231
L 766 231
L 766 231
L 766 231
L 766 231
L 766 231
L 766 231
L 766 231
L 766 231
L 766 231
L 766 231
L 766 231
L 766 231
L 766 231
L 766 231
L 766 231
L 766 231
L 766 231
L 766 231
L 766 231
L 766 231
L 766 230
L 766 230
L 766 230
L 766 230
L 766 230
L 766 230
L 766 230
L 766 230
L 766 230
L 766 230
L 766 230
L 766 230
L 766 230
L 766 230
L 766 230
L 766 230
L 766 230
L 766 230
L 766 230
L 766 230
L 766 230
L 766 230
L 766 230
L 766 230
L 766 230
L 766 230
L 766 230
L 766 230
L 766 229
L 766 229
L 766 229
L 766 229
L 766 229
L 766 229
L 766 229
L 766 229
L 766 229
L 766 229
L 766 229
L 766 229
L 766 229
L 766 229
L 766 229
L 766 229
L 766 229
L 766 229
L 766 229
L 766 229
L 766 229
L 766 229
L 766 229
L 766 229
L 766 229
L 766 229
L 766 229
L 766 229
L 767 228
L 767 228
L 767 228
L 767 228
L 767 228
L 767 228
L 767 228
L 767 228
L 767 228
L 767 228
L 767 228
L 767 228
L 767 228
L 767 228
L 767 228
L 767 228
L 767 228
L 767 228
L 767 228
L 767 228
L 767 228
L 767 228
L 767 228
L 767 228
L 767 228
L 767 228
L 767 228
L 767 228
L 767 227
L 767 227
L 767 227
L 767 227
L 767 227
L 767 227
L 767 227
L 767 227
L 767 227
L 767 227
L 767 227
L 767 227
L 767 227
L 767 227
L 767 227
L 767 227
L 767 227
L 767 227
L 767 227
L 767 227
L 767 227
L 767 227
L 767 227
L 767 227
L 767 227
L 767 227
L 767 227
L 767 227
L 767 227
L 767 226
L 767 226
L 767 226
L 767 226
L 767 226
L 767 226
L 767 226
L 767 226
L 767 226
L 767 226
L 767 226
L 767 226
L 767 226
L 767 226
L 767 226
L 767 226
L 767 226
L 767 226
L 767 226
L 767 226
L 767 226
L 767 226
L 767 226
L 767 226
L 767 226
L 767 226
L 767 226
L 767 226
L 767 225
L 767 225
L 767 225
L 767 225
L 767 225
L 767 225
L 767 225
L 767 225
L 767 225
L 767 225
L 767 225
L 767 225
L 767 225
L 767 225
L 767 225
L 767 225
L 767 225
L 767 225
L 767 225
L 767 225
L 767 225
L 767 225
L 767 225
L 767 225
L 767 225
L 767 225
L 767 225
L 767 225
L 767 224
L 767 224
L 767 224
L 767 224
L 767 224
L 767 224
L 767 224
L 767 224
L 767 224
L 767 224
L 767 224
L 767 224
L 767 224
L 767 224
L 767 224
L 767 224
L 767 224
L 767 224
L 767 224
L 767 224
L 767 224
L 767 224
L 767 224
L 767 224
L 767 224
L 767 224
L 767 224
L 767 224
L 767 223
L 767 223
L 767 223
L 767 223
L 767 223
L 767 223
L 767 223
L 767 223
L 767 223
L 767 223
L 767 223
L 767 223
L 767 223
L 767 223
L 767 223
L 767 223
L 767 223
L 767 223
L 767 223
L 767 223
L 767 223
L 767 223
L 767 223
L 767 223
L 767 223
L 767 223
L 767 223
L 767 223
L 767 223
L 768 222
L 768 222
L 768 222
L 768 222
L 768 222
L 768 222
L 768 222
L 768 222
L 768 222
L 768 222
L 768 222
L 768 222
L 768 222
L 768 222
L 768 222
L 768 222
L 768 222
L 768 222
L 768 222
L 768 222
L 768 222
L 768 222
L 768 222
L 768 222
L 768 222
L 768 222
L 768 222
L 768 222
L 768 221
L 768 221
L 768 221
L 768 221
L 768 221
L 768 221
L 768 221
L 768 221
L 768 221
L 768 221
L 768 221
L 768 221
L 769 221
L 769 221
L 769 221
L 769 221
L 769 221
L 769 221
L 769 221
L 769 221
L 769 221
L 769 221
L 769 221
L 769 221
L 770 221
L 770 221
L 770 221
L 770 221
L 770 220
L 770 220
L 770 220
L 770 220
L 770 220
L 770 220
L 770 220
L 770 220
L 770 220
L 770 220
L 770 220
L 770 220
L 770 220
L 770 220
L 770 220
L 770 220
L 770 220
L 770 220
L 770 220
L 770 220
L 770 220
L 770 220
L 770 220
L 770 220
L 771 220
L 771 220
L 771 220
L 771 220
L 771 219
L 771 219
L 771 219
L 771 219
L 771 219
L 771 219
L 771 219
L 771 219
L 771 219
L 771 219
L 771 219
L 771 219
L 771 219
L 771 219
L 771 219
L 771 219
L 771 219
L 771 219
L 771 219
L 771 219
L 771 219
L 771 219
L 771 219
L 771 219
L 771 219
L 771 219
L 771 219
L 771 219
L 771 219
L 771 218
L 771 218
L 771 218
L 772 218
L 772 218
L 772 218
L 772 218
L 772 218
L 772 218
L 772 218
L 772 218
L 772 218
L 772 218
L 772 218
L 772 218
L 772 218
L 772 218
L 772 218
L 772 218
L 772 218
L 772 218
L 772 218
L 772 218
L 772 218
L 772 218
L 772 218
L 772 218
L 772 218
L 772 217
L 773 217
L 773 217
L 773 217
L 773 217
L 773 217
L 773 217
L 773 217
L 773 217
L 773 217
L 773 217
L 773 217
L 774 217
L 774 217
L 774 217
L 774 217
L 774 217
L 774 217
L 774 217
L 774 217
L 774 217
L 774 217
L 774 217
L 774 217
L 774 217
L 774 217
L 774 217
L 774 217
L 774 216
L 774 216
L 774 216
L 774 216
L 774 216
L 774 216
L 774 216
L 774 216
L 774 216
L 774 216
L 774 216
L 774 216
L 774 216
L 774 216
L 774 216
L 774 216
L 774 216
L 774 216
L 774 216
L 774 216
L 774 216
L 774 216
L 774 216
L 774 216
L 775 216
L 775 216
L 775 216
L 775 216
L 775 215
L 775 215
L 775 215
L 775 215
L 775 215
L 775 215
L 775 215
L 775 215
L 775 215
L 775 215
L 775 215
L 775 215
L 775 215
L 775 215
L 775 215
L 776 215
L 776 215
L 776 215
L 776 215
L 776 215
L 776 215
L 776 215
L 776 215
L 776 215
L 776 215
L 776 215
L 776 215
L 776 215
L 776 215
L 776 214
L 776 214
L 776 214
L 776 214
L 776 214
L 777 214
L 777 214
L 777 214
L 777 214
L 777 214
L 777 214
L 777 214
L 777 214
L 777 214
L 777 214
L 777 214
L 777 214
L 777 214
L 777 214
L 777 214
L 777 214
L 777 214
L 777 214
L 777 214
L 778 214
L 778 214
L 778 214
L 778 214
L 778 213
L 778 213
L 778 213
L 778 213
L 778 213
L 778 213
L 779 213
L 779 213
L 779 213
L 779 213
L 779 213
L 779 213
L 779 213
L 779 213
L 779 213
L 779 213
L 779 213
L 779 213
L 779 213
L 779 213
L 779 213
L 779 213
L 779 213
L 779 213
L 779 213
L 780 213
L 780 213
L 780 213
L 780 212
L 780 212
L 780 212
L 780 212
L 780 212
L 780 212
L 780 212
L 780 212
L 780 212
L 780 212
L 780 212
L 780 212
L 780 212
L 780 212
L 780 212
L 780 212
L 780 212
L 780 212
L 780 212
L 780 212
L 780 212
L 780 212
L 781 212
L 781 212
L 781 212
L 781 212
L 781 212
L 781 212
L 781 211
L 781 211
L 781 211
L 781 211
L 781 211
L 781 211
L 781 211
L 781 211
L 781 211
L 781 211
L 781 211
L 782 211
L 782 211
L 782 211
L 782 211
L 782 211
L 782 211
L 782 211
L 782 211
L 782 211
L 782 211
L 782 211
L 782 211
L 782 211
L 782 211
L 782 211
L 783 211
L 783 211
L 783 210
L 783 210
L 783 210
L 783 210
L 783 210
L 784 210
L 784 210
L 784 210
L 784 210
L 784 210
L 784 210
L 784 210
L 784 210
L 784 210
L 784 210
L 784 210
L 784 210
L 784 210
L 784 210
L 784 210
L 784 210
L 784 210
L 784 210
L 784 210
L 784 210
L 784 210
L 784 210
L 784 210
L 784 210
L 784 209
L 784 209
L 784 209
L 784 209
L 785 209
L 785 209
L 785 209
L 785 209
L 785 209
L 785 209
L 785 209
L 785 209
L 785 209
L 785 209
L 785 209
L 785 209
L 785 209
L 785 209
L 785 209
L 785 209
L 785 209
L 785 209
L 785 209
L 785 209
L 785 209
L 785 209
L 785 209
L 785 209
L 785 208
L 785 208
L 785 208
L 785 208
L 785 208
L 785 208
L 785 208
L 785 208
L 785 208
L 785 208
L 785 208
L 785 208
L 785 208
L 785 208
L 785 208
L 785 208
L 785 208
L 785 208
L 785 208
L 785 208
L 785 208
L 785 208
L 785 208
L 785 208
L 785 208
L 785 208
L 785 208
L 785 208
L 785 207
L 785 207
L 785 207
L 785 207
L 785 207
L 785 207
L 785 207
L 785 207
L 785 207
L 785 207
L 785 207
L 785 207
L 785 207
L 785 207
L 785 207
L 785 207
L 785 207
L 785 207
L 785 207
L 785 207
L 785 207
L 785 207
L 785 207
L 785 207
L 785 207
L 785 207
L 785 207
L 785 207
L 785 206
L 785 206
L 785 206
L 786 206
L 786 206
L 786 206
L 786 206
L 786 206
L 786 206
L 786 206
L 786 206
L 786 206
L 786 206
L 786 206
L 786 206
L 786 206
L 786 206
L 786 206
L 786 206
L 786 206
L 786 206
L 786 206
L 786 206
L 786 206
L 786 206
L 786 206
L 786 206
L 786 206
L 786 206
L 786 205
L 786 205
L 786 205
L 786 205
L 786 205
L 786 205
L 786 205
L 786 205
L 786 205
L 786 205
L 786 205
L 786 205
L 786 205
L 786 205
L 786 205
L 786 205
L 786 205
L 786 205
L 786 205
L 786 205
L 786 205
L 786 205
L 786 205
L 786 205
L 786 205
L 786 205
L 786 205
L 786 205
L 786 204
L 786 204
L 786 204
L 786 204
L 786 204
L 786 204
L 786 204
L 786 204
L 786 204
L 786 204
L 786 204
L 786 204
L 786 204
L 786 204
L 786 204
L 786 204
L 786 204
L 786 204
L 786 204
L 786 204
L 786 204
L 786 204
L 786 204
L 786 204
L 786 204
L 786 204
L 786 204
L 786 204
L 786 203
L 786 203
L 786 203
L 786 203
L 786 203
L 786 203
L 786 203
L 786 203
L 786 203
L 786 203
L 786 203
L 786 203
L 786 203
L 786 203
L 786 203
L 786 203
L 786 203
L 786 203
L 786 203
L 786 203
L 786 203
L 786 203
L 786 203
L 786 203
L 786 203
L 786 203
L 786 203
L 786 203
L 786 202
L 786 202
L 786 202
L 786 202
L 786 202
L 786 202
L 786 202
L 786 202
L 786 202
L 786 202
L 786 202
L 786 202
L 786 202
L 786 202
L 786 202
L 786 202
L 786 202
L 786 202
L 786 202
L 786 202
L 786 202
L 786 202
L 786 202
L 786 202
L 786 202
L 786 202
L 786 202
L 786 202
L 786 202
L 786 201
L 786 201
L 786 201
L 786 201
L 786 201
L 786 201
L 786 201
L 786 201
L 786 201
L 786 201
L 786 201
L 786 201
L 786 201
L 786 201
L 786 201
L 786 201
L 786 201
L 786 201
L 786 201
L 786 201
L 786 201
L 786 201
L 786 201
L 786 201
L 786 201
L 786 201
L 786 201
L 786 201
L 786 200
L 786 200
L 786 200
L 786 200
L 786 200
L 786 200
L 786 200
L 786 200
L 786 200
L 786 200
L 786 200
L 786 200
L 786 200
L 786 200
L 786 200
L 786 200
L 786 200
L 786 200
L 786 200
L 786 200
L 786 200
L 786 200
L 786 200
L 786 200
L 786 200
L 786 200
L 786 200
L 786 200
L 786 199
L 786 199
L 786 199
L 786 199
L 786 199
L 786 199
L 786 199
L 786 199
L 786 199
L 786 199
L 786 199
L 786 199
L 786 199
L 786 199
L 786 199
L 786 199
L 786 199
L 786 199
L 786 199
L 786 199
L 786 199
L 786 199
L 786 199
L 786 199
L 786 199
L 786 199
L 786 199
L 786 199
L 786 198
L 786 198
L 786 198
L 786 198
L 786 198
L 786 198
L 786 198
L 786 198
L 786 198
L 786 198
L 786 198
L 786 198
L 786 198
L 786 198
L 786 198
L 786 198
L 786 198
L 786 198
L 786 198
L 786 198
L 786 198
L 786 198
L 786 198
L 786 198
L 786 198
L 786 198
L 786 198
L 786 198
L 786 198
L 786 197
L 786 197
L 786 197
L 786 197
L 786 197
L 786 197
L 786 197
L 786 197
L 786 197
L 786 197
L 786 197
L 786 197
L 786 197
L 786 197
L 786 197
L 786 197
L 786 197
L 786 197
L 786 197
L 786 197
L 786 197
L 786 197
L 786 197
L 786 197
L 786 197
L 786 197
L 786 197
L 786 197
L 786 196
L 786 196
L 786 196
L 787 196
L 787 196
L 787 196
L 787 196
L 787 196
L 787 196
L 787 196
L 787 196
L 787 196
L 787 196
L 787 196
L 787 196
L 787 196
L 787 196
L 787 196
L 787 196
L 787 196
L 787 196
L 787 196
L 787 196
L 787 196
L 787 196
L 787 196
L 787 196
L 787 196
L 787 195
L 787 195
L 787 195
L 787 195
L 787 195
L 787 195
L 787 195
L 787 195
L 787 195
L 787 195
L 787 195
L 787 195
L 787 195
L 787 195
L 787 195
L 787 195
L 787 195
L 787 195
L 787 195
L 787 195
L 787 195
L 787 195
L 787 195
L 787 195
L 787 195
L 787 195
L 787 195
L 787 195
L 787 194
L 787 194
L 787 194
L 787 194
L 787 194
L 787 194
L 787 194
L 787 194
L 787 194
L 787 194
L 787 194
L 787 194
L 787 194
L 787 194
L 787 194
L 787 194
L 787 194
L 787 194
L 787 194
L 787 194
L 787 194
L 787 194
L 787 194
L 787 194
L 787 194
L 787 194
L 787 194
L 787 194
L 787 193
L 787 193
L 787 193
L 787 193
L 787 193
L 787 193
L 787 193
L 787 193
L 787 193
L 787 193
L 787 193
L 787 193
L 787 193
L 787 193
L 787 193
L 787 193
L 787 193
L 787 193
L 787 193
L 787 193
L 787 193
L 787 193
L 787 193
L 787 193
L 787 193
L 787 193
L 787 193
L 787 193
L 787 193
L 787 192
L 787 192
L 787 192
L 787 192
L 787 192
L 787 192
L 787 192
L 787 192
L 787 192
L 787 192
L 787 192
L 787 192
L 787 192
L 787 192
L 787 192
L 787 192
L 787 192
L 787 192
L 787 192
L 787 192
L 787 192
L 787 192
L 787 192
L 787 192
L 787 192
L 787 192
L 787 192
L 787 192
L 787 191
L 787 191
L 787 191
L 787 191
L 787 191
L 787 191
L 787 191
L 787 191
L 787 191
L 787 191
L 787 191
L 787 191
L 787 191
L 787 191
L 787 191
L 787 191
L 787 191
L 787 191
L 787 191
L 787 191
L 787 191
L 787 191
L 787 191
L 787 191
L 787 191
L 787 191
L 787 191
L 787 191
L 787 190
L 787 190
L 787 190
L 787 190
L 787 190
L 787 190
L 787 190
L 787 190
L 787 190
L 787 190
L 787 190
L 787 190
L 787 190
L 787 190
L 787 190
L 787 190
L 787 190
L 787 190
L 787 190
L 787 190
L 787 190
L 787 190
L 787 190
L 787 190
L 787 190
L 787 190
L 787 190
L 787 190
L 787 189
L 787 189
L 787 189
L 787 189
L 787 189
L 787 189
L 787 189
L 787 189
L 787 189
L 787 189
L 787 189
L 787 189
L 787 189
L 787 189
L 787 189
L 787 189
L 787 189
L 787 189
L 787 189
L 787 189
L 787 189
L 787 189
L 787 189
L 787 189
L 787 189
L 787 189
L 787 189
L 787 189
L 787 189
L 787 188
L 787 188
L 787 188
L 787 188
L 787 188
L 787 188
L 787 188
L 787 188
L 787 188
L 787 188
L 787 188
L 787 188
L 787 188
L 787 188
L 787 188
L 787 188
L 787 188
L 787 188
L 787 188
L 787 188
L 787 188
L 787 188
L 787 188
L 787 188
L 787 188
L 787 188
L 787 188
L 787 188
L 787 187
L 787 187
L 787 187
L 787 187
L 787 187
L 787 187
L 787 187
L 787 187
L 787 187
L 787 187
L 787 187
L 787 187
L 787 187
L 787 187
L 787 187
L 787 187
L 787 187
L 787 187
L 787 187
L 787 187
L 787 187
L 787 187
L 787 187
L 787 187
L 787 187
L 787 187
L 787 187
L 787 187
L 787 186
L 787 186
L 787 186
L 787 186
L 787 186
L 787 186
L 787 186
L 787 186
L 787 186
L 787 186
L 787 186
L 787 186
L 787 186
L 787 186
L 787 186
L 787 186
L 787 186
L 787 186
L 787 186
L 787 186
L 787 186
L 787 186
L 787 186
L 787 186
L 787 186
L 787 186
L 787 186
L 787 186
L 787 185
L 787 185
L 787 185
L 787 185
L 787 185
L 787 185
L 787 185
L 787 185
L 787 185
L 787 185
L 787 185
L 787 185
L 787 185
L 787 185
L 787 185
L 787 185
L 787 185
L 787 185
L 787 185
L 787 185
L 787 185
L 787 185
L 787 185
L 787 185
L 787 185
L 787 185
L 787 185
L 787 185
L 787 185
L 787 184
L 787 184
L 787 184
L 787 184
L 787 184
L 787 184
L 787 184
L 787 184
L 787 184
L 787 184
L 787 184
L 787 184
L 787 184
L 787 184
L 787 184
L 787 184
L 787 184
L 787 184
L 787 184
L 787 184
L 787 184
L 787 184
L 787 184
L 787 184
L 787 184
L 787 184
L 787 184
L 787 184
L 787 183
L 787 183
L 787 183
L 787 183
L 787 183
L 787 183
L 787 183
L 787 183
L 787 183
L 787 183
L 787 183
L 787 183
L 787 183
L 787 183
L 787 183
L 787 183
L 787 183
L 787 183
L 787 183
L 787 183
L 787 183
L 787 183
L 787 183
L 787 183
L 787 183
L 787 183
L 787 183
L 787 183
L 787 182
L 787 182
L 787 182
L 787 182
L 787 182
L 787 182
L 787 182
L 787 182
L 787 182
L 787 182
L 787 182
L 787 182
L 787 182
L 787 182
L 787 182
L 787 182
L 788 182
L 788 182
L 788 182
L 788 182
L 788 182
L 788 182
L 788 182
L 788 182
L 788 182
L 788 182
L 788 182
L 788 182
L 788 181
L 788 181
L 788 181
L 788 181
L 788 181
L 788 181
L 788 181
L 788 181
L 788 181
L 788 181
L 788 181
L 788 181
L 788 181
L 788 181
L 788 181
L 788 181
L 788 181
L 788 181
L 788 181
L 788 181
L 788 181
L 788 181
L 788 181
L 788 181
L 788 181
L 788 181
L 788 181
L 788 181
L 788 181
L 788 180
L 788 180
L 788 180
L 788 180
L 788 180
L 788 180
L 788 180
L 788 180
L 788 180
L 788 180
L 788 180
L 788 180
L 788 180
L 788 180
L 788 180
L 788 180
L 788 180
L 788 180
L 788 180
L 788 180
L 788 180
L 788 180
L 788 180
L 788 180
L 788 180
L 788 180
L 788 180
L 788 180
L 788 179
L 788 179
L 788 179
L 788 179
L 788 179
L 788 179
L 788 179
L 788 179
L 788 179
L 788 179
L 788 179
L 788 179
L 788 179
L 788 179
L 788 179
L 788 179
L 788 179
L 788 179
L 788 179
L 788 179
L 788 179
L 788 179
L 788 179
L 788 179
L 788 179
L 788 179
L 788 179
L 788 179
L 788 178
L 788 178
L 788 178
L 788 178
L 788 178
L 788 178
L 788 178
L 788 178
L 788 178
L 788 178
L 788 178
L 788 178
L 788 178
L 788 178
L 788 178
L 788 178
L 788 178
L 788 178
L 788 178
L 788 178
L 788 178
L 788 178
L 788 178
L 788 178
L 788 178
L 788 178
L 788 178
L 788 178
L 788 177
L 788 177
L 788 177
L 788 177
L 788 177
L 788 177
L 788 177
L 788 177
L 788 177
L 788 177
L 788 177
L 788 177
L 788 177
L 788 177
L 788 177
L 788 177
L 788 177
L 788 177
L 788 177
L 788 177
L 788 177
L 788 177
L 788 177
L 788 177
L 788 177
L 788 177
L 788 177
L 788 177
L 788 176
L 788 176
L 788 176
L 788 176
L 788 176
L 788 176
L 788 176
L 788 176
L 788 176
L 788 176
L 788 176
L 788 176
L 788 176
L 788 176
L 788 176
L 788 176
L 788 176
L 788 176
L 788 176
L 788 176
L 788 176
L 788 176
L 788 176
L 788 176
L 788 176
L 788 176
L 788 176
L 788 176
L 788 176
L 788 175
L 788 175
L 788 175
L 788 175
L 788 175
L 788 175
L 788 175
L 788 175
L 788 175
L 788 175
L 788 175
L 788 175
L 788 175
L 788 175
L 788 175
L 788 175
L 788 175
L 788 175
L 788 175
L 788 175
L 788 175
L 788 175
L 788 175
L 788 175
L 788 175
L 788 175
L 788 175
L 788 175
L 788 174
L 788 174
L 788 174
L 788 174
L 788 174
L 788 174
L 788 174
L 788 174
L 788 174
L 788 174
L 788 174
L 788 174
L 788 174
L 788 174
L 788 174
L 788 174
L 788 174
L 788 174
L 788 174
L 788 174
L 788 174
L 788 174
L 788 174
L 788 174
L 788 174
L 788 174
L 788 174
L 788 174
L 788 173
L 788 173
L 788 173
L 788 173
L 788 173
L 788 173
L 788 173
L 788 173
L 788 173
L 788 173
L 788 173
L 788 173
L 788 173
L 788 173
L 788 173
L 788 173
L 788 173
L 788 173
L 788 173
L 788 173
L 788 173
L 788 173
L 789 173
L 789 173
L 789 173
L 789 173
L 789 173
L 789 173
L 789 172
L 789 172
L 789 172
L 789 172
L 789 172
L 789 172
L 789 172
L 789 172
L 789 172
L 789 172
L 789 172
L 789 172
L 789 172
L 789 172
L 789 172
L 789 172
L 789 172
L 789 172
L 789 172
L 789 172
L 789 172
L 789 172
L 789 172
L 789 172
L 789 172
L 789 172
L 789 172
L 789 172
L 789 172
L 789 171
L 789 171
L 789 171
L 789 171
L 789 171
L 789 171
L 789 171
L 789 171
L 789 171
L 789 171
L 789 171
L 789 171
L 789 171
L 789 171
L 789 171
L 789 171
L 789 171
L 789 171
L 789 171
L 789 171
L 789 171
L 789 171
L 789 171
L 789 171
L 789 171
L 789 171
L 789 171
L 789 171
L 789 170
L 789 170
L 789 170
L 789 170
L 789 170
L 789 170
L 789 170
L 789 170
L 789 170
L 789 170
L 789 170
L 789 170
L 789 170
L 789 170
L 789 170
L 789 170
L 789 170
L 789 170
L 789 170
L 789 170
L 789 170
L 789 170
L 789 170
L 789 170
L 789 170
L 789 170
L 789 170
L 789 170
L 789 169
L 789 169
L 789 169
L 789 169
L 789 169
L 789 169
L 789 169
L 789 169
L 789 169
L 789 169
L 789 169
L 789 169
L 789 169
L 789 169
L 789 169
L 789 169
L 789 169
L 789 169
L 789 169
L 789 169
L 789 169
L 789 169
L 789 169
L 789 169
L 789 169
L 789 169
L 789 169
L 789 169
L 789 168
L 789 168
L 789 168
L 789 168
L 789 168
L 789 168
L 789 168
L 789 168
L 789 168
L 789 168
L 789 168
L 789 168
L 789 168
L 789 168
L 789 168
L 789 168
L 789 168
L 789 168
L 789 168
L 789 168
L 789 168
L 789 168
L 789 168
L 789 168
L 789 168
L 789 168
L 789 168
L 789 168
L 789 168
L 789 167
L 789 167
L 789 167
L 790 167
L 790 167
L 790 167
L 790 167
L 790 167
L 790 167
L 790 167
L 790 167
L 790 167
L 790 167
L 790 167
L 790 167
L 790 167
L 790 167
L 790 167
L 790 167
L 790 167
L 790 167
L 790 167
L 790 167
L 790 167
L 790 167
L 790 167
L 790 167
L 790 167
L 790 166
L 790 166
L 790 166
L 790 166
L 790 166
L 790 166
L 790 166
L 790 166
L 790 166
L 790 166
L 790 166
L 790 166
L 790 166
L 790 166
L 790 166
L 790 166
L 790 166
L 790 166
L 790 166
L 790 166
L 790 166
L 790 166
L 790 166
L 790 166
L 790 166
L 790 166
L 790 166
L 790 166
L 790 165
L 790 165
L 791 165
L 791 165
L 791 165
L 791 165
L 791 165
L 791 165
L 791 165
L 791 165
L 791 165
L 791 165
L 791 165
L 791 165
L 791 165
L 791 165
L 791 165
L 791 165
L 791 165
L 791 165
L 791 165
L 791 165
L 791 165
L 791 165
L 791 165
L 791 165
L 791 165
L 791 165
L 791 164
L 791 164
L 791 164
L 791 164
L 791 164
L 791 164
L 791 164
L 791 164
L 791 164
L 791 164
L 791 164
L 791 164
L 791 164
L 791 164
L 791 164
L 791 164
L 791 164
L 791 164
L 791 164
L 791 164
L 791 164
L 791 164
L 791 164
L 791 164
L 791 164
L 791 164
L 791 164
L 791 164
L 791 163
L 791 163
L 791 163
L 791 163
L 791 163
L 791 163
L 791 163
L 791 163
L 791 163
L 791 163
L 791 163
L 791 163
L 791 163
L 791 163
L 791 163
L 791 163
L 791 163
L 791 163
L 791 163
L 791 163
L 791 163
L 791 163
L 791 163
L 791 163
L 791 163
L 791 163
L 791 163
L 791 163
L 791 163
L 791 162
L 791 162
L 791 162
L 791 162
L 791 162
L 791 162
L 791 162
L 792 162
L 792 162
L 792 162
L 792 162
L 792 162
L 792 162
L 792 162
L 792 162
L 792 162
L 792 162
L 792 162
L 792 162
L 792 162
L 792 162
L 792 162
L 792 162
L 792 162
L 792 162
L 792 162
L 792 162
L 792 162
L 792 161
L 792 161
L 792 161
L 792 161
L 792 161
L 792 161
L 792 161
L 792 161
L 792 161
L 792 161
L 792 161
L 792 161
L 792 161
L 792 161
L 792 161
L 792 161
L 792 161
L 792 161
L 792 161
L 793 161
L 793 161
L 793 161
L 793 161
L 793 161
L 793 161
L 793 161
L 793 161
L 793 161
L 793 160
L 793 160
L 793 160
L 793 160
L 793 160
L 793 160
L 793 160
L 793 160
L 793 160
L 793 160
L 793 160
L 793 160
L 793 160
L 793 160
L 793 160
L 793 160
L 793 160
L 793 160
L 793 160
L 793 160
L 793 160
L 794 160
L 794 160
L 794 160
L 794 160
L 794 160
L 794 160
L 794 160
L 794 159
L 794 159
L 794 159
L 794 159
L 794 159
L 794 159
L 794 159
L 794 159
L 794 159
L 794 159
L 794 159
L 795 159
L 795 159
L 795 159
L 795 159
L 795 159
L 795 159
L 795 159
L 795 159
L 795 159
L 795 159
L 795 159
L 795 159
L 795 159
L 795 159
L 795 159
L 795 159
L 795 159
L 795 159
L 795 158
L 795 158
L 795 158
L 795 158
L 795 158
L 795 158
L 795 158
L 795 158
L 795 158
L 795 158
L 795 158
L 795 158
L 795 158
L 795 158
L 795 158
L 796 158
L 796 158
L 796 158
L 796 158
L 796 158
L 796 158
L 796 158
L 796 158
L 796 158
L 796 158
L 796 158
L 796 158
L 796 158
L 796 157
L 796 157
L 796 157
L 796 157
L 796 157
L 796 157
L 796 157
L 796 157
L 796 157
L 796 157
L 796 157
L 796 157
L 797 157
L 797 157
L 797 157
L 797 157
L 797 157
L 797 157
L 797 157
L 797 157
L 797 157
L 797 157
L 797 157
L 797 157
L 797 157
L 797 157
L 797 157
L 797 157
L 797 156
L 797 156
L 797 156
L 797 156
L 797 156
L 797 156
L 797 156
L 797 156
L 797 156
L 797 156
L 798 156
L 798 156
L 798 156
L 798 156
L 798 156
L 798 156
L 798 156
L 798 156
L 798 156
L 798 156
L 798 156
L 798 156
L 798 156
L 798 156
L 798 156
L 798 156
L 798 156
L 798 156
L 798 155
L 798 155
L 798 155
L 798 155
L 798 155
L 798 155
L 798 155
L 798 155
L 798 155
L 798 155
L 798 155
L 798 155
L 799 155
L 799 155
L 799 155
L 799 155
L 799 155
L 799 155
L 799 155
L 799 155
L 799 155
L 799 155
L 799 155
L 799 155
L 799 155
L 799 155
L 800 155
L 800 155
L 800 155
L 800 154
L 800 154
L 800 154
L 800 154
L 800 154
L 800 154
L 800 154
L 800 154
L 800 154
L 800 154
L 801 154
L 801 154
L 801 154
L 801 154
L 801 154
L 801 154
L 801 154
L 801 154
L 801 154
L 801 154
L 801 154
L 801 154
L 801 154
L 801 154
L 801 154
L 801 154
L 801 154
L 801 154
L 801 153
L 801 153
L 801 153
L 801 153
L 801 153
L 801 153
L 801 153
L 801 153
L 801 153
L 801 153
L 801 153
L 802 153
L 802 153
L 802 153
L 802 153
L 802 153
L 802 153
L 802 153
L 802 153
L 802 153
L 802 153
L 802 153
L 802 153
L 802 153
L 802 153
L 802 153
L 802 153
L 802 153
L 802 152
L 802 152
L 802 152
L 802 152
L 802 152
L 802 152
L 802 152
L 802 152
L 802 152
L 802 152
L 802 152
L 802 152
L 802 152
L 802 152
L 802 152
L 802 152
L 802 152
L 803 152
L 803 152
L 803 152
L 803 152
L 803 152
L 803 152
L 803 152
L 803 152
L 803 152
L 803 152
L 803 152
L 803 151
L 803 151
L 803 151
L 803 151
L 803 151
L 803 151
L 803 151
L 803 151
L 803 151
L 803 151
L 803 151
L 803 151
L 803 151
L 803 151
L 803 151
L 803 151
L 803 151
L 803 151
L 803 151
L 803 151
L 803 151
L 803 151
L 803 151
L 803 151
L 803 151
L 803 151
L 803 151
L 803 151
L 803 151
L 803 150
L 803 150
L 803 150
L 803 150
L 803 150
L 803 150
L 803 150
L 803 150
L 803 150
L 803 150
L 804 150
L 804 150
L 804 150
L 804 150
L 804 150
L 804 150
L 804 150
L 804 150
L 804 150
L 804 150
L 804 150
L 804 150
L 804 150
L 804 150
L 804 150
L 804 150
L 804 150
L 804 150
L 804 149
L 804 149
L 804 149
L 804 149
L 804 149
L 804 149
L 804 149
L 804 149
L 804 149
L 804 149
L 804 149
L 804 149
L 804 149
L 804 149
L 804 149
L 804 149
L 804 149
L 804 149
L 804 149
L 804 149
L 804 149
L 804 149
L 804 149
L 804 149
L 804 149
L 804 149
L 804 149
L 804 149
L 804 148
L 804 148
L 804 148
L 804 148
L 805 148
L 805 148
L 805 148
L 805 148
L 805 148
L 805 148
L 805 148
L 805 148
L 805 148
L 805 148
L 805 148
L 805 148
L 805 148
L 805 148
L 806 148
L 806 148
L 806 148
L 806 148
L 806 148
L 806 148
L 806 148
L 806 148
L 806 148
L 806 148
L 806 147
L 806 147
L 806 147
L 806 147
L 806 147
L 806 147
L 806 147
L 806 147
L 806 147
L 806 147
L 806 147
L 806 147
L 806 147
L 806 147
L 806 147
L 806 147
L 806 147
L 806 147
L 806 147
L 806 147
L 806 147
L 806 147
L 806 147
L 806 147
L 806 147
L 806 147
L 806 147
L 806 147
L 807 147
L 807 146
L 807 146
L 807 146
L 807 146
L 807 146
L 807 146
L 807 146
L 807 146
L 807 146
L 807 146
L 807 146
L 807 146
L 807 146
L 807 146
L 807 146
L 807 146
L 807 146
L 807 146
L 807 146
L 807 146
L 807 146
L 807 146
L 807 146
L 807 146
L 807 146
L 807 146
L 807 146
L 807 146
L 807 145
L 807 145
L 807 145
L 807 145
L 807 145
L 807 145
L 807 145
L 808 145
L 808 145
L 808 145
L 808 145
L 808 145
L 808 145
L 808 145
L 808 145
L 808 145
L 808 145
L 808 145
L 808 145
L 808 145
L 808 145
L 808 145
L 808 145
L 808 145
L 808 145
L 808 145
L 808 145
L 809 145
L 809 144
L 809 144
L 809 144
L 809 144
L 809 144
L 809 144
L 809 144
L 809 144
L 809 144
L 809 144
L 809 144
L 809 144
L 810 144
L 810 144
L 810 144
L 810 144
L 810 144
L 810 144
L 811 144
L 811 144
L 811 144
L 811 144
L 811 144
L 811 144
L 811 144
L 811 144
L 812 144
L 812 144
L 812 143
L 812 143
L 812 143
L 812 143
L 812 143
L 812 143
L 812 143
L 812 143
L 812 143
L 812 143
L 812 143
L 812 143
L 812 143
L 813 143
L 813 143
L 813 143
L 813 143
L 813 143
L 813 143
L 813 143
L 813 143
L 813 143
L 813 143
L 813 143
L 813 143
L 813 143
L 814 143
L 814 143
L 814 142
L 814 142
L 814 142
L 814 142
L 814 142
L 814 142
L 814 142
L 814 142
L 814 142
L 814 142
L 814 142
L 814 142
L 815 142
L 815 142
L 815 142
L 815 142
L 815 142
L 815 142
L 815 142
L 816 142
L 816 142
L 816 142
L 816 142
L 816 142
L 816 142
L 816 142
L 816 142
L 816 142
L 817 142
L 817 141
L 817 141
L 817 141
L 817 141
L 817 141
L 817 141
L 817 141
L 817 141
L 817 141
L 817 141
L 817 141
L 817 141
L 818 141
L 818 141
L 818 141
L 818 141
L 818 141
L 818 141
L 818 141
L 818 141
L 818 141
L 818 141
L 818 141
L 818 141
L 818 141
L 819 141
L 819 141
L 819 141
L 819 140
L 819 140
L 819 140
L 819 140
L 819 140
L 819 140
L 820 140
L 820 140
L 820 140
L 820 140
L 820 140
L 820 140
L 820 140
L 820 140
L 820 140
L 820 140
L 820 140
L 820 140
L 820 140
L 820 140
L 820 140
L 820 140
L 820 140
L 820 140
L 820 140
L 821 140
L 821 140
L 821 140
L 821 139
L 821 139
L 821 139
L 822 139
L 822 139
L 822 139
L 822 139
L 822 139
L 822 139
L 822 139
L 822 139
L 822 139
L 822 139
L 822 139
L 823 139
L 823 139
L 823 139
L 823 139
L 823 139
L 823 139
L 823 139
L 823 139
L 823 139
L 823 139
L 823 139
L 823 139
L 823 139
L 823 139
L 823 138
L 823 138
L 823 138
L 823 138
L 823 138
L 824 138
L 824 138
L 824 138
L 824 138
L 824 138
L 824 138
L 824 138
L 824 138
L 824 138
L 824 138
L 824 138
L 825 138
L 825 138
L 825 138
L 825 138
L 825 138
L 825 138
L 825 138
L 826 138
L 826 138
L 826 138
L 826 138
L 826 138
L 826 138
L 827 137
L 827 137
L 827 137
L 827 137
L 827 137
L 827 137
L 827 137
L 827 137
L 827 137
L 827 137
L 827 137
L 827 137
L 828 137
L 828 137
L 828 137
L 828 137
L 828 137
L 828 137
L 828 137
L 828 137
L 828 137
L 828 137
L 828 137
L 828 137
L 828 137
L 828 137
L 828 137
L 828 137
L 828 136
L 828 136
L 828 136
L 828 136
L 828 136
L 828 136
L 828 136
L 828 136
L 828 136
L 828 136
L 828 136
L 828 136
L 828 136
L 828 136
L 828 136
L 828 136
L 828 136
L 828 136
L 828 136
L 828 136
L 828 136
L 828 136
L 828 136
L 829 136
L 829 136
L 829 136
L 829 136
L 829 136
L 829 135
L 829 135
L 829 135
L 829 135
L 829 135
L 829 135
L 829 135
L 829 135
L 829 135
L 829 135
L 829 135
L 829 135
L 830 135
L 830 135
L 830 135
L 830 135
L 830 135
L 830 135
L 830 135
L 830 135
L 830 135
L 830 135
L 830 135
L 830 135
L 830 135
L 830 135
L 830 135
L 830 135
L 830 134
L 830 134
L 830 134
L 830 134
L 830 134
L 830 134
L 830 134
L 830 134
L 830 134
L 830 134
L 830 134
L 830 134
L 830 134
L 830 134
L 830 134
L 830 134
L 830 134
L 830 134
L 830 134
L 830 134
L 831 134
L 831 134
L 831 134
L 831 134
L 831 134
L 831 134
L 831 134
L 831 134
L 831 134
L 832 133
L 832 133
L 832 133
L 832 133
L 832 133
L 832 133
L 832 133
L 832 133
L 832 133
L 832 133
L 833 133
L 833 133
L 833 133
L 833 133
L 833 133
L 833 133
L 833 133
L 833 133
L 833 133
L 833 133
L 833 133
L 833 133
L 833 133
L 833 133
L 833 133
L 834 133
L 834 133
L 834 133
L 834 132
L 834 132
L 834 132
L 834 132
L 834 132
L 834 132
L 834 132
L 834 132
L 834 132
L 834 132
L 834 132
L 834 132
L 835 132
L 835 132
L 835 132
L 835 132
L 835 132
L 835 132
L 835 132
L 835 132
L 835 132
L 835 132
L 835 132
L 835 132
L 835 132
L 835 132
L 835 132
L 836 132
L 836 131
L 836 131
L 836 131
L 836 131
L 836 131
L 836 131
L 836 131
L 836 131
L 836 131
L 836 131
L 836 131
L 836 131
L 836 131
L 837 131
L 837 131
L 837 131
L 837 131
L 837 131
L 837 131
L 837 131
L 837 131
L 837 131
L 838 131
L 838 131
L 838 131
L 838 131
L 838 131
L 838 131
L 838 130
L 838 130
L 838 130
L 839 130
L 839 130
L 839 130
L 839 130
L 839 130
L 839 130
L 839 130
L 839 130
L 839 130
L 839 130
L 839 130
L 840 130
L 840 130
L 840 130
L 840 130
L 840 130
L 840 130
L 840 130
L 840 130
L 840 130
L 840 130
L 840 130
L 840 130
L 840 130
L 840 130
L 840 130
L 840 129
L 841 129
L 841 129
L 841 129
L 841 129
L 841 129
L 841 129
L 841 129
L 841 129
L 841 129
L 841 129
L 841 129
L 841 129
L 841 129
L 842 129
L 842 129
L 842 129
L 842 129
L 842 129
L 842 129
L 842 129
L 843 129
L 843 129
L 843 129
L 843 129
L 843 129
L 843 129
L 843 129
L 843 128
L 843 128
L 843 128
L 843 128
L 843 128
L 843 128
L 843 128
L 843 128
L 844 128
L 844 128
L 844 128
L 844 128
L 844 128
L 844 128
L 844 128
L 844 128
L 844 128
L 844 128
L 844 128
L 844 128
L 844 128
L 844 128
L 844 128
L 844 128
L 844 128
L 844 128
L 844 128
L 844 128
L 844 127
L 844 127
L 844 127
L 845 127
L 845 127
L 845 127
L 845 127
L 845 127
L 845 127
L 845 127
L 845 127
L 845 127
L 846 127
L 846 127
L 846 127
L 846 127
L 846 127
L 846 127
L 846 127
L 846 127
L 846 127
L 846 127
L 846 127
L 847 127
L 847 127
L 847 127
L 847 127
L 847 127
L 847 126
L 847 126
L 847 126
L 847 126
L 848 126
L 848 126
L 848 126
L 848 126
L 848 126
L 848 126
L 848 126
L 848 126
L 848 126
L 849 126
L 849 126
L 849 126
L 849 126
L 849 126
L 849 126
L 849 126
L 849 126
L 849 126
L 850 126
L 850 126
L 850 126
L 850 126
L 850 126
L 850 126
L 850 125
L 850 125
L 850 125
L 850 125
L 850 125
L 850 125
L 850 125
L 850 125
L 850 125
L 850 125
L 850 125
L 851 125
L 851 125
L 851 125
L 851 125
L 851 125
L 851 125
L 851 125
L 851 125
L 851 125
L 851 125
L 851 125
L 851 125
L 851 125
L 851 125
L 852 125
L 852 125
L 852 125
L 852 125
L 852 124
L 852 124
L 852 124
L 853 124
L 853 124
L 853 124
L 853 124
L 853 124
L 853 124
L 853 124
L 853 124
L 853 124
L 854 124
L 854 124
L 854 124
L 854 124
L 854 124
L 854 124
L 854 124
L 854 124
L 854 124
L 854 124
L 854 124
L 854 124
L 854 124
L 854 124
L 854 124
L 855 124
L 855 123
L 855 123
L 855 123
L 855 123
L 855 123
L 855 123
L 855 123
L 855 123
L 855 123
L 856 123
L 856 123
L 856 123
L 856 123
L 856 123
L 856 123
L 856 123
L 856 123
L 856 123
L 856 123
L 856 123
L 856 123
L 856 123
L 856 123
L 856 123
L 856 123
L 856 123
L 856 123
L 856 123
L 856 122
L 856 122
L 856 122
L 856 122
L 856 122
L 856 122
L 856 122
L 856 122
L 856 122
L 856 122
L 856 122
L 856 122
L 856 122
L 856 122
L 856 122
L 856 122
L 856 122
L 856 122
L 856 122
L 856 122
L 856 122
L 856 122
L 856 122
L 856 122
L 856 122
L 856 122
L 856 122
L 856 122
L 856 121
L 856 121
L 856 121
L 856 121
L 856 121
L 857 121
L 857 121
L 857 121
L 857 121
L 857 121
L 857 121
L 857 121
L 857 121
L 857 121
L 857 121
L 857 121
L 857 121
L 857 121
L 857 121
L 857 121
L 857 121
L 857 121
L 857 121
L 857 121
L 857 121
L 857 121
L 857 121
L 857 121
L 857 121
L 857 120
L 857 120
L 857 120
L 857 120
L 857 120
L 857 120
L 857 120
L 857 120
L 857 120
L 857 120
L 857 120
L 857 120
L 857 120
L 857 120
L 857 120
L 857 120
L 857 120
L 857 120
L 857 120
L 857 120
L 858 120
L 858 120
L 858 120
L 858 120
L 858 120
L 858 120
L 858 120
L 858 120
L 858 119
L 858 119
L 858 119
L 858 119
L 858 119
L 858 119
L 858 119
L 858 119
L 858 119
L 858 119
L 859 119
L 859 119
L 859 119
L 859 119
L 859 119
L 859 119
L 859 119
L 859 119
L 859 119
L 859 119
L 859 119
L 859 119
L 859 119
L 859 119
L 860 119
L 860 119
L 860 119
L 860 119
L 860 118
L 860 118
L 860 118
L 860 118
L 860 118
L 860 118
L 860 118
L 860 118
L 860 118
L 860 118
L 860 118
L 860 118
L 860 118
L 860 118
L 860 118
L 860 118
L 860 118
L 860 118
L 860 118
L 860 118
L 860 118
L 860 118
L 860 118
L 860 118
L 860 118
L 860 118
L 860 118
L 860 118
L 860 117
L 860 117
L 860 117
L 860 117
L 860 117
L 860 117
L 860 117
L 860 117
L 860 117
L 860 117
L 860 117
L 860 117
L 860 117
L 860 117
L 860 117
L 860 117
L 860 117
L 860 117
L 860 117
L 860 117
L 860 117
L 861 117
L 861 117
L 861 117
L 861 117
L 861 117
L 861 117
L 861 117
L 861 117
L 861 116
L 861 116
L 861 116
L 861 116
L 861 116
L 861 116
L 861 116
L 861 116
L 861 116
L 861 116
L 861 116
L 861 116
L 861 116
L 861 116
L 861 116
L 861 116
L 861 116
L 861 116
L 861 116
L 861 116
L 861 116
L 861 116
L 861 116
L 861 116
L 861 116
L 861 116
L 861 116
L 861 116
L 861 115
L 861 115
L 861 115
L 861 115
L 861 115
L 861 115
L 861 115
L 861 115
L 861 115
L 861 115
L 861 115
L 861 115
L 861 115
L 861 115
L 861 115
L 861 115
L 861 115
L 861 115
L 861 115
L 861 115
L 861 115
L 861 115
L 861 115
L 861 115
L 861 115
L 861 115
L 861 115
L 861 115
L 861 114
L 861 114
L 861 114
L 862 114
L 862 114
L 862 114
L 862 114
L 862 114
L 862 114
L 862 114
L 862 114
L 862 114
L 862 114
L 862 114
L 862 114
L 862 114
L 862 114
L 862 114
L 862 114
L 862 114
L 862 114
L 862 114
L 862 114
L 862 114
L 862 114
L 862 114
L 862 114
L 862 114
L 862 113
L 862 113
L 862 113
L 862 113
L 862 113
L 862 113
L 862 113
L 862 113
L 862 113
L 862 113
L 862 113
L 862 113
L 862 113
L 862 113
L 862 113
L 862 113
L 862 113
L 862 113
L 862 113
L 862 113
L 862 113
L 862 113
L 863 113
L 863 113
L 863 113
L 863 113
L 863 113
L 863 113
L 863 113
L 863 112
L 863 112
L 863 112
L 863 112
L 863 112
L 863 112
L 863 112
L 863 112
L 863 112
L 863 112
L 863 112
L 863 112
L 863 112
L 863 112
L 863 112
L 863 112
L 863 112
L 863 112
L 863 112
L 863 112
L 863 112
L 863 112
L 863 112
L 863 112
L 863 112
L 863 112
L 863 112
L 863 112
L 863 111
L 863 111
L 863 111
L 863 111
L 863 111
L 863 111
L 863 111
L 863 111
L 863 111
L 863 111
L 863 111
L 863 111
L 863 111
L 863 111
L 863 111
L 863 111
L 863 111
L 863 111
L 864 111
L 864 111
L 864 111
L 864 111
L 864 111
L 864 111
L 864 111
L 864 111
L 864 111
L 864 111
L 864 110
L 864 110
L 864 110
L 864 110
L 864 110
L 864 110
L 864 110
L 864 110
L 864 110
L 865 110
L 865 110
L 865 110
L 865 110
L 865 110
L 865 110
L 865 110
L 865 110
L 865 110
L 865 110
L 865 110
L 865 110
L 865 110
L 865 110
L 865 110
L 865 110
L 865 110
L 865 110
L 865 110
L 865 109
L 865 109
L 865 109
L 865 109
L 865 109
L 865 109
L 865 109
L 865 109
L 865 109
L 865 109
L 865 109
L 866 109
L 866 109
L 866 109
L 866 109
L 866 109
L 866 109
L 866 109
L 866 109
L 866 109
L 866 109
L 866 109
L 866 109
L 866 109
L 866 109
L 866 109
L 866 109
L 866 109
L 866 108
L 866 108
L 866 108
L 866 108
L 866 108
L 866 108
L 866 108
L 866 108
L 866 108
L 866 108
L 866 108
L 867 108
L 867 108
L 867 108
L 867 108
L 867 108
L 867 108
L 867 108
L 867 108
L 867 108
L 867 108
L 867 108
L 867 108
L 867 108
L 867 108
L 867 108
L 867 108
L 867 108
L 867 108
L 868 107
L 868 107
L 868 107
L 868 107
L 868 107
L 868 107
L 868 107
L 868 107
L 868 107
L 869 107
L 869 107
L 869 107
L 869 107
L 869 107
L 869 107
L 869 107
L 869 107
L 869 107
L 869 107
L 869 107
L 869 107
L 869 107
L 869 107
L 869 107
L 870 107
L 870 107
L 870 107
L 870 107
L 870 106
L 870 106
L 870 106
L 870 106
L 870 106
L 870 106
L 870 106
L 870 106
L 870 106
L 870 106
L 870 106
L 870 106
L 870 106
L 870 106
L 870 106
L 870 106
L 870 106
L 870 106
L 870 106
L 870 106
L 870 106
L 870 106
L 871 106
L 871 106
L 871 106
L 871 106
L 871 106
L 871 106
L 871 105
L 871 105
L 871 105
L 871 105
L 871 105
L 871 105
L 871 105
L 871 105
L 871 105
L 871 105
L 871 105
L 871 105
L 871 105
L 871 105
L 871 105
L 872 105
L 872 105
L 872 105
L 872 105
L 872 105
L 872 105
L 872 105
L 872 105
L 872 105
L 872 105
L 872 105
L 872 105
L 872 105
L 872 104
L 872 104
L 872 104
L 872 104
L 872 104
L 872 104
L 872 104
L 872 104
L 872 104
L 872 104
L 872 104
L 872 104
L 872 104
L 872 104
L 872 104
L 872 104
L 873 104
L 873 104
L 873 104
L 873 104
L 873 104
L 873 104
L 873 104
L 873 104
L 873 104
L 873 104
L 873 104
L 873 104
L 873 104
L 873 103
L 873 103
L 873 103
L 873 103
L 873 103
L 873 103
L 873 103
L 873 103
L 873 103
L 874 103
L 874 103
L 874 103
L 874 103
L 874 103
L 874 103
L 874 103
L 874 103
L 874 103
L 874 103
L 874 103
L 874 103
L 874 103
L 874 103
L 874 103
L 874 103
L 874 103
L 874 103
L 874 103
L 874 102
L 874 102
L 874 102
L 874 102
L 874 102
L 874 102
L 874 102
L 874 102
L 874 102
L 874 102
L 874 102
L 874 102
L 874 102
L 874 102
L 874 102
L 874 102
L 874 102
L 874 102
L 875 102
L 875 102
L 875 102
L 875 102
L 875 102
L 875 102
L 876 102
L 876 102
L 876 102
L 876 102
L 876 101
L 876 101
L 876 101
L 876 101
L 876 101
L 876 101
L 876 101
L 876 101
L 877 101
L 877 101
L 877 101
L 877 101
L 877 101
L 877 101
L 877 101
L 877 101
L 877 101
L 877 101
L 877 101
L 877 101
L 877 101
L 877 101
L 877 101
L 877 101
L 877 101
L 877 101
L 877 101
L 877 101
L 877 100
L 878 100
L 878 100
L 878 100
L 878 100
L 878 100
L 878 100
L 878 100
L 878 100
L 878 100
L 878 100
L 878 100
L 878 100
L 878 100
L 878 100
L 878 100
L 878 100
L 878 100
L 878 100
L 878 100
L 878 100
L 878 100
L 878 100
L 878 100
L 878 100
L 878 100
L 878 100
L 878 100
L 878 100
L 878 99
L 879 99
L 879 99
L 879 99
L 879 99
L 879 99
L 879 99
L 879 99
L 879 99
L 879 99
L 879 99
L 879 99
L 879 99
L 879 99
L 879 99
L 879 99
L 879 99
L 879 99
L 879 99
L 880 99
L 880 99
L 880 99
L 880 99
L 880 99
L 880 99
L 880 99
L 880 99
L 880 99
L 880 98
L 880 98
L 880 98
L 880 98
L 880 98
L 880 98
L 880 98
L 880 98
L 881 98
L 881 98
L 881 98
L 881 98
L 881 98
L 881 98
L 881 98
L 881 98
L 881 98
L 882 98
L 882 98
L 882 98
L 882 98
L 882 98
L 882 98
L 882 98
L 882 98
L 882 98
L 882 98
L 882 98
L 882 97
L 882 97
L 882 97
L 882 97
L 883 97
L 883 97
L 883 97
L 883 97
L 883 97
L 883 97
L 883 97
L 883 97
L 883 97
L 883 97
L 883 97
L 883 97
L 883 97
L 883 97
L 883 97
L 883 97
L 883 97
L 884 97
L 884 97
L 884 97
L 884 97
L 884 97
L 884 97
L 884 97
L 884 96
L 884 96
L 884 96
L 885 96
L 885 96
L 885 96
L 885 96
L 885 96
L 885 96
L 886 96
L 886 96
L 886 96
L 886 96
L 886 96
L 886 96
L 886 96
L 886 96
L 886 96
L 886 96
L 886 96
L 886 96
L 886 96
L 886 96
L 887 96
L 887 96
L 888 96
L 888 96
L 888 96
L 888 96
L 888 95
L 888 95
L 888 95
L 888 95
L 888 95
L 889 95
L 889 95
L 889 95
L 889 95
L 889 95
L 889 95
L 889 95
L 889 95
L 889 95
L 889 95
L 890 95
L 890 95
L 890 95
L 890 95
L 890 95
L 891 95
L 891 95
L 891 95
L 891 95
L 891 95
L 891 95
L 891 95
L 891 95
L 891 94
L 892 94
L 892 94
L 892 94
L 892 94
L 892 94
L 892 94
L 892 94
L 892 94
L 892 94
L 892 94
L 892 94
L 893 94
L 893 94
L 893 94
L 893 94
L 893 94
L 893 94
L 893 94
L 893 94
L 893 94
L 893 94
L 893 94
L 893 94
L 893 94
L 893 94
L 893 94
L 893 94
L 893 93
L 893 93
L 893 93
L 893 93
L 893 93
L 893 93
L 893 93
L 894 93
L 894 93
L 894 93
L 894 93
L 894 93
L 894 93
L 894 93
L 894 93
L 894 93
L 894 93
L 894 93
L 894 93
L 894 93
L 894 93
L 894 93
L 894 93
L 894 93
L 894 93
L 894 93
L 894 93
L 894 93
L 894 92
L 894 92
L 894 92
L 894 92
L 894 92
L 894 92
L 894 92
L 894 92
L 895 92
L 895 92
L 895 92
L 895 92
L 895 92
L 895 92
L 895 92
L 895 92
L 895 92
L 895 92
L 895 92
L 895 92
L 895 92
L 896 92
L 896 92
L 896 92
L 896 92
L 896 92
L 897 92
L 897 92
L 897 91
L 897 91
L 897 91
L 897 91
L 897 91
L 897 91
L 897 91
L 897 91
L 898 91
L 898 91
L 898 91
L 898 91
L 898 91
L 898 91
L 898 91
L 898 91
L 898 91
L 898 91
L 899 91
L 899 91
L 899 91
L 899 91
L 899 91
L 899 91
L 899 91
L 899 91
L 899 91
L 900 91
L 900 91
L 900 90
L 900 90
L 900 90
L 900 90
L 900 90
L 900 90
L 900 90
L 900 90
L 900 90
L 901 90
L 901 90
L 901 90
L 901 90
L 901 90
L 901 90
L 902 90
L 902 90
L 902 90
L 902 90
L 902 90
L 902 90
L 902 90
L 902 90
L 902 90
L 903 90
L 903 90
L 903 90
L 903 90
L 903 89
L 903 89
L 903 89
L 903 89
L 903 89
L 903 89
L 903 89
L 903 89
L 903 89
L 903 89
L 904 89
L 904 89
L 904 89
L 904 89
L 904 89
L 904 89
L 904 89
L 904 89
L 904 89
L 904 89
L 904 89
L 904 89
L 904 89
L 904 89
L 904 89
L 904 89
L 904 89
L 904 89
L 904 88
L 904 88
L 904 88
L 904 88
L 904 88
L 904 88
L 904 88
L 904 88
L 905 88
L 905 88
L 905 88
L 905 88
L 905 88
L 905 88
L 905 88
L 905 88
L 905 88
L 905 88
L 905 88
L 905 88
L 906 88
L 906 88
L 906 88
L 906 88
L 906 88
L 906 88
L 906 88
L 906 88
L 906 87
L 906 87
L 906 87
L 906 87
L 906 87
L 907 87
L 907 87
L 907 87
L 907 87
L 907 87
L 907 87
L 907 87
L 907 87
L 907 87
L 907 87
L 907 87
L 908 87
L 908 87
L 908 87
L 908 87
L 908 87
L 908 87
L 908 87
L 908 87
L 908 87
L 908 87
L 908 87
L 908 87
L 908 87
L 909 86
L 909 86
L 909 86
L 909 86
L 909 86
L 909 86
L 909 86
L 909 86
L 909 86
L 909 86
L 909 86
L 909 86
L 909 86
L 909 86
L 910 86
L 910 86
L 910 86
L 910 86
L 910 86
L 910 86
L 910 86
L 910 86
L 910 86
L 910 86
L 911 86
L 911 86
L 911 86
L 911 86
L 911 85
L 911 85
L 911 85
L 911 85
L 911 85
L 911 85
L 911 85
L 911 85
L 911 85
L 911 85
L 911 85
L 911 85
L 911 85
L 912 85
L 912 85
L 912 85
L 912 85
L 912 85
L 913 85
L 913 85
L 913 85
L 913 85
L 913 85
L 913 85
L 913 85
L 913 85
L 913 85
L 913 85
L 913 84
L 913 84
L 914 84
L 914 84
L 914 84
L 914 84
L 914 84
L 915 84
L 915 84
L 915 84
L 915 84
L 915 84
L 915 84
L 915 84
L 915 84
L 916 84
L 916 84
L 916 84
L 916 84
L 916 84
L 916 84
L 916 84
L 916 84
L 916 84
L 916 84
L 916 84
L 917 84
L 917 84
L 917 83
L 917 83
L 918 83
L 918 83
L 918 83
L 918 83
L 918 83
L 918 83
L 919 83
L 919 83
L 919 83
L 919 83
L 919 83
L 919 83
L 919 83
L 919 83
L 920 83
L 920 83
L 920 83
L 920 83
L 920 83
L 920 83
L 920 83
L 920 83
L 920 83
L 920 83
L 920 83
L 920 83
L 920 83
L 920 82
L 920 82
L 920 82
L 921 82
L 921 82
L 921 82
L 921 82
L 921 82
L 921 82
L 921 82
L 921 82
L 921 82
L 921 82
L 921 82
L 921 82
L 921 82
L 921 82
L 921 82
L 921 82
L 922 82
L 922 82
L 922 82
L 922 82
L 922 82
L 922 82
L 922 82
L 922 82
L 922 82
L 922 81
L 922 81
L 922 81
L 923 81
L 923 81
L 923 81
L 923 81
L 923 81
L 923 81
L 923 81
L 923 81
L 923 81
L 923 81
L 923 81
L 924 81
L 924 81
L 924 81
L 924 81
L 924 81
L 924 81
L 924 81
L 924 81
L 924 81
L 924 81
L 924 81
L 924 81
L 925 81
L 925 81
L 925 80
L 925 80
L 925 80
L 925 80
L 925 80
L 925 80
L 925 80
L 925 80
L 925 80
L 926 80
L 926 80
L 926 80
L 926 80
L 926 80
L 926 80
L 927 80
L 927 80
L 927 80
L 927 80
L 927 80
L 928 80
L 928 80
L 928 80
L 929 80
L 929 80
L 929 80
L 929 80
L 929 80
L 929 79
L 929 79
L 930 79
L 930 79
L 930 79
L 930 79
L 930 79
L 930 79
L 930 79
L 930 79
L 930 79
L 930 79
L 930 79
L 930 79
L 931 79
L 931 79
L 931 79
L 931 79
L 931 79
L 931 79
L 931 79
L 931 79
L 931 79
L 931 79
L 931 79
L 931 79
L 932 79
L 932 79
L 932 79
L 932 78
L 932 78
L 932 78
L 932 78
L 932 78
L 932 78
L 932 78
L 932 78
L 932 78
L 932 78
L 932 78
L 932 78
L 932 78
L 932 78
L 932 78
L 932 78
L 932 78
L 932 78
L 932 78
L 932 78
L 932 78
L 932 78
L 932 78
L 932 78
L 932 78
L 932 78
L 932 78
L 932 78
L 932 77
L 933 77
L 933 77
L 933 77
L 933 77
L 933 77
L 933 77
L 933 77
L 933 77
L 933 77
L 933 77
L 933 77
L 933 77
L 933 77
L 933 77
L 933 77
L 933 77
L 933 77
L 933 77
L 933 77
L 933 77
L 934 77
L 934 77
L 934 77
L 934 77
L 934 77
L 934 77
L 934 77
L 934 76
L 934 76
L 934 76
L 934 76
L 934 76
L 934 76
L 934 76
L 934 76
L 934 76
L 934 76
L 934 76
L 934 76
L 934 76
L 934 76
L 934 76
L 934 76
L 934 76
L 934 76
L 935 76
L 935 76
L 935 76
L 935 76
L 935 76
L 935 76
L 935 76
L 935 76
L 935 76
L 935 76
L 935 75
L 935 75
L 935 75
L 935 75
L 935 75
L 935 75
L 935 75
L 935 75
L 935 75
L 935 75
L 935 75
L 935 75
L 935 75
L 935 75
L 935 75
L 935 75
L 935 75
L 935 75
L 935 75
L 935 75
L 935 75
L 935 75
L 935 75
L 935 75
L 935 75
L 935 75
L 935 75
L 935 75
L 935 74
L 935 74
L 935 74
L 935 74
L 935 74
L 935 74
L 935 74
L 935 74
L 935 74
L 935 74
L 935 74
L 935 74
L 935 74
L 935 74
L 935 74
L 935 74
L 935 74
L 935 74
L 935 74
L 935 74
L 935 74
L 935 74
L 935 74
L 935 74
L 935 74
L 935 74
L 935 74
L 935 74
L 935 74
L 935 73
L 935 73
L 935 73
L 935 73
L 935 73
L 935 73
L 935 73
L 935 73
L 935 73
L 935 73
L 935 73
L 935 73
L 935 73
L 935 73
L 935 73
L 935 73
L 935 73
L 935 73
L 935 73
L 935 73
L 935 73
L 935 73
L 935 73
L 935 73
L 935 73
L 935 73
L 935 73
L 935 73
L 935 72
L 935 72
L 935 72
L 935 72
L 935 72
L 935 72
L 935 72
L 935 72
L 935 72
L 935 72
L 935 72
L 935 72
L 935 72
L 935 72
L 935 72
L 935 72
L 935 72
L 935 72
L 935 72
L 935 72
L 935 72
L 935 72
L 935 72
L 935 72
L 935 72
L 935 72
L 935 72
L 935 72
L 935 71
L 935 71
L 935 71
L 935 71
L 935 71
L 935 71
L 935 71
L 935 71
L 935 71
L 935 71
L 935 71
L 935 71
L 935 71
L 935 71
L 935 71
L 935 71
L 935 71
L 935 71
L 935 71
L 935 71
L 935 71
L 935 71
L 935 71
L 935 71
L 935 71
L 935 71
L 935 71
L 935 71
L 935 70
L 935 70
L 935 70
L 935 70
L 935 70
L 935 70
L 935 70
L 935 70
L 935 70
L 935 70
L 935 70
L 935 70
L 935 70
L 935 70
L 935 70
L 935 70
L 935 70
L 935 70
L 935 70
L 935 70
L 935 70
L 935 70
L 935 70
L 935 70
L 935 70
L 935 70
L 935 70
L 935 70
L 935 70
L 935 69
L 935 69
L 935 69
L 935 69
L 935 69
L 935 69
L 936 69
L 936 69
L 936 69
L 936 69
L 936 69
L 936 69
L 936 69
L 936 69
L 936 69
L 936 69
L 936 69
L 936 69
L 936 69
L 936 69
L 936 69
L 936 69
L 936 69
L 936 69
L 936 69
L 936 69
L 936 69
L 936 69
L 936 68
L 936 68
L 936 68
L 936 68
L 936 68
L 936 68
L 936 68
L 936 68
L 936 68
L 936 68
L 936 68
L 936 68
L 936 68
L 936 68
L 936 68
L 936 68
L 936 68
L 936 68
L 936 68
L 936 68
L 936 68
L 936 68
L 936 68
L 936 68
L 936 68
L 936 68
L 936 68
L 936 68
L 936 67
L 936 67
L 936 67
L 936 67
L 936 67
L 936 67
L 936 67
L 936 67
L 936 67
L 936 67
L 936 67
L 936 67
L 936 67
L 936 67
L 936 67
L 936 67
L 936 67
L 936 67
L 936 67
L 936 67
L 936 67
L 936 67
L 936 67
L 936 67
L 936 67
L 936 67
L 936 67
L 936 67
L 936 66
L 936 66
L 936 66
L 936 66
L 936 66
L 936 66
L 936 66
L 936 66
L 936 66
L 936 66
L 936 66
L 936 66
L 936 66
L 936 66
L 936 66
L 936 66
L 936 66
L 936 66
L 936 66
L 936 66
L 936 66
L 936 66
L 936 66
L 936 66
L 936 66
L 936 66
L 936 66
L 936 66
L 936 66
L 936 65
L 936 65
L 936 65
L 936 65
L 936 65
L 936 65
L 936 65
L 936 65
L 936 65
L 936 65
L 936 65
L 936 65
L 936 65
L 936 65
L 936 65
L 936 65
L 936 65
L 936 65
L 936 65
L 936 65
L 937 65
L 937 65
L 937 65
L 937 65
L 937 65
L 937 65
L 937 65
L 937 65
L 937 64
L 937 64
L 937 64
L 937 64
L 937 64
L 937 64
L 937 64
L 937 64
L 937 64
L 937 64
L 937 64
L 937 64
L 937 64
L 937 64
L 937 64
L 937 64
L 937 64
L 937 64
L 937 64
L 937 64
L 937 64
L 937 64
L 937 64
L 937 64
L 937 64
L 937 64
L 937 64
L 937 64
L 937 63
L 937 63
L 937 63
L 937 63
L 937 63
L 937 63
L 937 63
L 937 63
L 937 63
L 937 63
L 937 63
L 937 63
L 937 63
L 937 63
L 937 63
L 937 63
L 937 63
L 937 63
L 937 63
L 937 63
L 937 63
L 937 63
L 937 63
L 937 63
L 937 63
L 937 63
L 937 63
L 937 63
L 937 62
L 937 62
L 937 62
L 937 62
L 937 62
L 937 62
L 937 62
L 937 62
L 937 62
L 937 62
L 937 62
L 937 62
L 937 62
L 937 62
L 937 62
L 937 62
L 937 62
L 937 62
L 937 62
L 937 62
L 937 62
L 937 62
L 937 62
L 937 62
L 937 62
L 937 62
L 937 62
L 937 62
L 937 62
L 937 61
L 937 61
L 937 61
L 937 61
L 937 61
L 937 61
L 937 61
L 937 61
L 937 61
L 937 61
L 937 61
L 937 61
L 937 61
L 937 61
L 937 61
L 937 61
L 937 61
L 937 61
L 937 61
L 937 61
L 937 61
L 937 61
L 937 61
L 937 61
L 937 61
L 937 61
L 937 61
L 937 61
L 937 60
L 937 60
L 937 60
L 937 60
L 937 60
L 937 60
L 937 60
L 937 60
L 937 60
L 937 60
L 937 60
L 937 60
L 937 60
L 937 60
L 937 60
L 937 60
L 937 60
L 937 60
L 937 60
L 937 60
L 937 60
L 937 60
L 937 60
L 937 60
L 937 60
L 937 60
L 937 60
L 937 60
L 937 59
L 937 59
L 937 59
L 937 59
L 937 59
L 937 59
L 937 59
L 937 59
L 937 59
L 937 59
L 937 59
L 937 59
L 937 59
L 937 59
L 937 59
L 937 59
L 937 59
L 937 59
L 937 59
L 937 59
L 937 59
L 937 59
L 937 59
L 937 59
L 937 59
L 937 59
L 937 59
L 937 59
L 937 58
L 937 58
L 937 58
L 937 58
L 937 58
L 937 58
L 937 58
L 937 58
L 937 58
L 937 58
L 937 58
L 937 58
L 937 58
L 937 58
L 937 58
L 937 58
L 937 58
L 937 58
L 937 58
L 937 58
L 937 58
L 937 58
L 937 58
L 937 58
L 937 58
L 937 58
L 937 58
L 937 58
L 937 57
L 937 57
L 937 57
L 937 57
L 937 57
L 937 57
L 937 57
L 937 57
L 937 57
L 937 57
L 937 57
L 937 57
L 937 57
L 937 57
L 937 57
L 937 57
L 937 57
L 937 57
L 937 57
L 937 57
L 937 57
L 937 57
L 937 57
L 937 57
L 937 57
L 937 57
L 937 57
L 937 57
L 937 57
L 937 56
L 937 56
L 937 56
L 937 56
L 937 56
L 937 56
L 937 56
L 937 56
L 937 56
L 937 56
L 937 56
L 937 56
L 937 56
L 937 56
L 937 56
L 937 56
L 937 56
L 937 56
L 937 56
L 937 56
L 937 56
L 937 56
L 937 56
L 937 56
L 937 56
L 937 56
L 937 56
L 937 56
L 937 55
L 937 55
L 937 55
L 937 55
L 937 55
L 937 55
L 937 55
L 937 55
L 937 55
L 937 55
L 937 55
L 937 55
L 937 55
L 937 55
L 937 55
L 937 55
L 937 55
L 937 55
L 937 55
L 937 55
L 937 55
L 937 55
L 937 55
L 937 55
L 937 55
L 937 55
L 937 55
L 937 55
L 937 54
L 937 54
L 937 54
L 937 54
L 937 54
L 937 54
L 937 54
L 937 54
L 937 54
L 937 54
L 937 54
L 937 54
L 937 54
L 937 54
L 937 54
L 937 54
L 937 54
L 937 54
L 937 54
L 937 54
L 937 54
L 937 54
L 937 54
L 937 54
L 937 54
L 937 54
L 937 54
L 937 54
L 937 53
L 937 53
L 937 53
L 937 53
L 937 53
L 937 53
L 937 53
L 937 53
L 937 53
L 937 53
L 938 53
L 938 53
L 938 53
L 938 53
L 938 53
L 938 53
L 938 53
L 938 53
L 938 53
L 938 53
L 938 53
L 938 53
L 938 53
L 938 53
L 938 53
L 938 53
L 938 53
L 938 53
L 938 53
L 938 52
L 938 52
L 938 52
L 938 52
L 938 52
L 938 52
L 938 52
L 938 52
L 938 52
L 938 52
L 938 52
L 938 52
L 938 52
L 938 52
L 938 52
L 938 52
L 938 52
L 938 52
L 938 52
L 938 52
L 938 52
L 938 52
L 938 52
L 938 52
L 938 52
L 938 52
L 938 52
L 938 52
L 938 51
L 938 51
L 938 51
L 938 51
L 938 51
L 938 51
L 938 51
L 938 51
L 938 51
L 938 51
L 938 51
L 938 51
L 938 51
L 938 51
L 938 51
L 938 51
L 938 51
L 938 51
L 938 51
L 938 51
L 938 51
L 938 51
L 938 51
L 938 51
L 938 51
L 938 51
L 938 51
L 938 51
L 938 50
L 938 50
L 938 50
L 938 50
L 938 50
L 938 50
L 938 50
L 938 50
L 938 50
L 938 50
L 938 50
L 938 50
L 938 50
L 938 50
L 938 50
L 938 50
L 938 50
L 938 50
L 938 50
L 938 50
L 938 50
L 938 50
L 938 50
L 938 50
L 938 50
L 938 50
L 938 50
L 938 50
L 938 49
L 938 49
L 938 49
L 938 49
L 938 49
L 938 49
L 938 49
L 938 49
L 938 49
L 938 49
L 938 49
L 938 49
L 938 49
L 938 49
L 938 49
L 938 49
L 938 49
L 938 49
L 938 49
L 938 49
L 938 49
L 938 49
L 938 49
L 938 49
L 938 49
L 938 49
L 938 49
L 938 49
L 938 49
L 938 48
L 938 48
L 938 48
L 938 48
L 938 48
L 938 48
L 938 48
L 938 48
L 938 48
L 938 48
L 938 48
L 938 48
L 938 48
L 938 48
L 938 48
L 938 48
L 938 48
L 938 48
L 938 48
L 938 48
L 938 48
L 938 48
L 938 48
L 938 48
L 938 48
L 938 48
L 938 48
L 938 48
L 938 47
L 938 47
L 938 47
L 938 47
L 938 47
L 938 47
L 938 47
L 938 47
L 938 47
L 938 47
L 938 47
L 938 47
L 938 47
L 938 47
L 938 47
L 938 47
L 938 47
L 938 47
L 938 47
L 938 47
L 938 47
L 938 47
L 938 47
L 938 47
L 938 47
L 938 47
L 938 47
L 938 47
L 938 46
L 938 46
L 938 46
L 938 46
L 938 46
L 938 46
L 938 46
L 938 46
L 938 46
L 938 46
L 938 46
L 938 46
L 938 46
L 938 46
L 938 46
L 938 46
L 938 46
L 938 46
L 938 46
L 938 46
L 938 46
L 938 46
L 938 46
L 938 46
L 938 46
L 938 46
L 938 46
L 938 46
L 938 45
L 938 45
L 938 45
L 938 45
L 938 45
L 938 45
L 938 45
L 938 45
L 938 45
L 938 45
L 938 45
L 938 45
L 938 45
L 938 45
L 938 45
L 938 45
L 938 45
L 938 45
L 939 45
L 939 45
L 939 45
L 939 45
L 939 45
L 939 45
L 939 45
L 939 45
L 939 45
L 939 45
L 939 45
L 939 44
L 939 44
L 939 44
L 939 44
L 939 44
L 939 44
L 939 44
L 939 44
L 939 44
L 939 44
L 939 44
L 939 44
L 939 44
L 939 44
L 939 44
L 939 44
L 939 44
L 939 44
L 939 44
L 939 44
L 939 44
L 939 44
L 939 44
L 939 44
L 939 44
L 939 44
L 939 44
L 939 44
L 939 43
L 939 43
L 939 43
L 939 43
L 939 43
L 939 43
L 939 43
L 939 43
L 939 43
L 939 43
L 939 43
L 939 43
L 939 43
L 939 43
L 939 43
L 939 43
L 939 43
L 939 43
L 939 43
L 939 43
L 939 43
L 939 43
L 939 43
L 939 43
L 939 43
L 939 43
L 939 43
L 939 43
L 939 42
L 939 42
L 939 42
L 939 42
L 939 42
L 939 42
L 939 42
L 939 42
L 939 42
L 939 42
L 939 42
L 939 42
L 939 42
L 939 42
L 939 42
L 939 42
L 939 42
L 939 42
L 939 42
L 939 42
L 939 42
L 939 42
L 939 42
L 939 42
L 939 42
L 939 42
L 939 42
L 939 42
L 939 41
L 939 41
L 939 41
L 939 41
L 939 41
L 939 41
L 939 41
L 939 41
L 939 41
L 939 41
L 939 41
L 939 41
L 939 41
L 939 41
L 939 41
L 939 41
L 939 41
L 939 41
L 939 41
L 939 41
L 939 41
L 939 41
L 939 41
L 939 41
L 939 41
L 939 41
L 939 41
L 939 41
L 939 40
L 939 40
L 939 40
L 939 40
L 939 40
L 939 40
L 939 40
L 939 40
L 939 40
L 939 40
L 939 40
L 939 40
L 939 40
L 939 40
L 939 40
L 939 40
L 939 40
L 939 40
L 939 40
L 939 40
L 939 40
L 939 40
L 939 40
L 939 40
L 939 40
L 939 40
L 939 40
L 939 40
L 939 40
L 939 39
L 939 39
L 939 39
L 939 39
L 939 39
L 939 39
L 939 39
L 939 39
L 939 39
L 939 39
L 939 39
L 939 39
L 939 39
L 939 39
L 939 39
L 939 39
L 939 39
L 939 39
L 939 39
L 939 39
L 939 39
L 939 39
L 939 39
L 939 39
L 939 39
L 939 39
L 939 39
L 939 39
L 939 38
L 939 38
L 939 38
L 939 38
L 939 38
L 939 38
L 939 38
L 939 38
L 939 38
L 939 38
L 939 38
L 939 38
L 939 38
L 939 38
L 939 38
L 939 38
L 939 38
L 939 38
L 939 38
L 939 38
L 939 38
L 939 38
L 939 38
L 939 38
L 939 38
L 939 38
L 939 38
L 939 38
L 939 37
L 939 37
L 939 37
L 939 37
L 939 37
L 939 37
L 939 37
L 939 37
L 939 37
L 939 37
L 939 37
L 939 37
L 939 37
L 939 37
L 939 37
L 939 37
L 939 37
L 939 37
L 939 37
L 939 37
L 939 37
L 939 37
L 939 37
L 939 37
L 939 37
L 940 37
L 940 37
L 940 37
L 940 36
L 940 36
L 940 36
L 940 36
L 940 36
L 940 36
L 940 36
L 940 36
L 940 36
L 940 36
L 940 36
L 940 36
L 940 36
L 940 36
L 940 36
L 940 36
L 940 36
L 940 36
L 940 36
L 940 36
L 940 36
L 940 36
L 940 36
L 940 36
L 940 36
L 940 36
L 940 36
L 940 36
L 940 36
L 940 35
L 940 35
L 940 35
L 940 35
L 940 35
L 940 35
L 940 35
L 940 35
L 940 35
L 940 35
L 940 35
L 940 35
L 940 35
L 940 35
L 940 35
L 940 35
L 940 35
L 940 35
L 940 35
L 940 35
L 940 35
L 940 35
L 940 35
L 940 35
L 940 35
L 940 35
L 940 35
L 940 35
L 940 34
L 940 34
L 940 34
L 940 34
L 940 34
L 940 34
L 940 34
L 940 34
L 940 34
L 940 34
L 940 34
L 940 34
L 940 34
L 940 34
L 940 34
L 940 34
L 940 34
L 940 34
L 940 34
L 940 34
L 940 34
L 940 34
L 940 34
L 940 34
L 940 34
L 940 34
L 940 34
L 940 34
L 940 33
L 940 33
L 940 33
L 940 33
L 940 33
L 940 33
L 940 33
L 940 33
L 940 33
L 940 33
L 940 33
L 940 33
L 940 33
L 940 33
L 940 33
L 940 33
L 940 33
L 940 33
L 940 33
L 940 33
L 940 33
L 940 33
L 940 33
L 940 33
L 940 33
L 940 33
L 940 33
L 940 33
L 940 32
L 940 32
L 940 32
L 940 32
L 940 32
L 940 32
L 940 32
L 940 32
L 940 32
L 940 32
L 940 32
L 940 32
L 940 32
L 940 32
L 940 32
L 940 32
L 940 32
L 940 32
L 940 32
L 940 32
L 940 32
L 940 32
L 940 32
L 940 32
L 940 32
L 940 32
L 940 32
L 940 32
L 940 32
L 940 31
L 940 31
L 940 31
L 940 31
L 940 31
L 940 31
L 940 31
L 940 31
L 940 31
L 940 31
L 940 31
L 940 31
L 940 31
L 940 31
L 940 31
L 940 31
L 940 31
L 940 31
L 940 31
L 940 31
L 940 31
L 940 31
L 940 31
L 940 31
L 940 31
L 940 31
L 940 31
L 940 31
L 940 30
L 940 30
L 940 30
L 940 30
L 940 30
L 940 30
L 940 30
L 940 30
L 940 30
L 940 30
L 940 30
L 940 30
L 940 30
L 940 30
L 940 30
L 940 30
L 940 30
L 940 30
L 940 30
L 940 30
L 940 30
L 940 30
L 940 30
L 940 30
L 940 30
L 940 30
L 940 30
L 940 30
L 940 29
L 940 29
L 940 29
L 940 29
L 940 29
L 940 29
L 940 29
L 940 29
L 940 29
L 940 29
L 940 29
L 940 29
L 940 29
L 940 29
L 940 29
L 940 29
L 940 29
L 940 29
L 940 29
L 940 29
L 940 29
L 940 29
L 940 29
L 940 29
L 940 29
L 940 29
L 940 29
L 940 29
L 940 28
L 940 28
L 940 28
L 940 28
L 940 28
L 940 28
L 940 28
L 940 28
L 940 28
L 940 28
L 940 28
L 940 28
L 940 28
L 940 28
L 940 28
L 940 28
L 940 28
L 940 28
L 940 28
L 940 28
L 940 28
L 940 28
L 940 28
L 940 28
L 940 28
L 940 28
L 940 28
L 940 28
L 940 28
L 940 27
L 940 27
L 940 27
L 940 27
L 940 27
L 940 27
L 940 27
L 940 27
L 940 27
L 940 27
L 940 27
L 940 27
L 940 27
L 940 27
L 940 27
L 940 27
L 940 27
L 940 27
L 940 27
L 940 27
L 940 27
L 940 27
L 940 27
L 940 27
L 940 27
L 940 27
L 940 27
L 940 27
L 940 26
L 940 26
L 940 26
L 940 26
L 940 26
L 940 26
L 940 26
L 940 26
L 940 26
L 940 26
L 940 26
L 940 26
L 940 26
L 940 26
L 940 26
L 940 26
L 940 26
L 940 26
L 940 26
L 940 26
L 940 26
L 940 26
L 940 26
L 940 26
L 940 26
L 940 26
L 940 26
L 940 26
L 940 25
L 940 25
L 940 25
L 940 25
L 940 25
L 940 25
L 940 25
L 940 25
L 940 25
L 941 25
L 941 25
L 941 25
L 941 25
L 941 25
L 941 25
L 941 25
L 941 25
L 941 25
L 941 25
L 941 25
L 941 25
L 941 25
L 941 25
L 941 25
L 941 25
L 941 25
L 941 25
L 941 25
L 941 24
L 941 24
L 941 24
L 941 24
L 941 24
L 941 24
L 941 24
L 941 24
L 941 24
L 941 24
L 941 24
L 941 24
L 941 24
L 941 24
L 941 24
L 941 24
L 941 24
L 941 24
L 941 24
L 941 24
L 941 24
L 941 24
L 941 24
L 941 24
L 941 24
L 941 24
L 941 24
L 941 24
L 941 23
L 941 23
L 941 23
L 941 23
L 941 23
L 941 23
L 941 23
L 941 23
L 941 23
L 941 23
L 941 23
L 941 23
L 941 23
L 941 23
L 941 23
L 941 23
L 941 23
L 941 23
L 941 23
L 941 23
L 941 23
L 942 23
L 942 23
L 942 23
L 942 23
L 942 23
L 942 23
L 942 23
L 942 23
L 942 22
L 942 22
L 942 22
L 942 22
L 942 22
L 942 22
L 942 22
L 942 22
L 942 22
L 942 22
L 942 22
L 942 22
L 942 22
L 942 22
L 942 22
L 942 22
L 942 22
L 942 22
L 942 22
L 942 22
L 942 22
L 942 22
L 942 22
L 942 22
L 942 22
L 942 22
L 942 22
L 942 22
L 942 21
L 942 21
L 942 21
L 942 21
L 942 21
L 942 21
L 942 21
L 942 21
L 942 21
L 942 21
L 942 21
L 942 21
L 943 21
L 943 21
L 943 21
L 943 21
L 943 21
L 943 21
L 943 21
L 943 21
L 943 21
L 943 21
L 943 21
L 943 21
L 943 21
L 943 21
L 943 21
L 943 21
L 943 20
L 943 20
L 943 20
L 943 20
L 943 20
L 943 20
L 943 20
L 943 20
L 943 20
L 943 20
L 943 20
L 943 20
L 943 20
L 943 20
L 943 20
L 943 20
L 943 20
L 943 20
L 943 20
L 943 20
L 943 20
L 943 20
L 943 20
L 943 20
L 943 20
L 943 20
L 943 20
L 943 20
L 944 19
L 944 19
L 944 19
L 944 19
L 944 19
L 944 19
L 944 19
L 944 19
L 944 19
L 944 19
L 944 19
L 944 19
L 944 19
L 944 19
L 944 19
L 944 19
L 944 19
L 944 19
L 944 19
L 944 19
L 945 19
L 945 19
L 945 19
L 945 19
L 945 19
L 945 19
L 945 19
L 945 19
L 945 19
L 945 18
L 945 18
L 945 18
L 945 18
L 945 18
L 945 18
L 945 18
L 945 18
L 945 18
L 945 18
L 945 18
L 946 18
L 946 18
L 946 18
L 946 18
L 946 18
L 946 18
L 946 18
L 946 18
L 946 18
L 946 18
L 946 18
L 946 18
L 946 18
L 946 18
L 946 18
L 946 18
L 946 18
L 946 17
L 946 17
L 946 17
L 946 17
L 947 17
L 947 17
L 947 17
L 947 17
L 947 17
L 947 17
L 947 17
L 947 17
L 947 17
L 947 17
L 947 17
L 947 17
L 947 17
L 947 17
L 947 17
L 947 17
L 947 17
L 947 17
L 947 17
L 947 17
L 947 17
L 947 17
L 947 17
L 948 17
L 948 16
L 948 16
L 948 16
L 948 16
L 948 16
L 949 16
L 949 16
L 949 16
L 949 16
L 949 16
L 949 16
L 949 16
L 949 16
L 949 16
L 949 16
L 949 16
L 949 16
L 949 16
L 949 16
L 950 16
L 950 16
L 950 16
L 950 16
L 950 16
L 950 16
L 950 16
L 950 16
L 950 16
L 950 15
L 950 15
L 950 15
L 951 15
L 951 15
L 951 15
L 951 15
L 951 15
L 951 15
L 951 15
L 951 15
L 951 15
L 951 15
L 951 15
L 951 15
L 951 15
L 951 15
L 951 15
L 951 15
L 951 15
L 951 15
L 952 15
L 952 15
L 952 15
L 952 15
L 952 15
L 952 15
L 952 15
L 952 15
L 952 14
L 952 14
L 952 14
L 952 14
L 952 14
L 952 14
L 952 14
L 952 14
L 952 14
L 952 14
L 952 14
L 952 14
L 952 14
L 952 14
L 952 14
L 952 14
L 953 14
L 953 14
L 953 14
L 953 14
L 953 14
L 953 14
L 953 14
L 953 14
L 953 14
L 953 14
L 953 14
L 953 14
L 953 13
L 954 13
L 954 13
L 954 13
L 954 13
L 954 13
L 954 13
L 954 13
L 954 13
L 954 13
L 954 13
L 954 13
L 954 13
L 955 13
L 955 13
L 955 13
L 955 13
L 955 13
L 955 13
L 955 13
L 956 13
L 956 13
L 956 13
L 956 13
L 956 13
L 956 13
L 956 13
L 956 13
L 956 12
L 956 12
L 956 12
L 956 12
L 956 12
L 956 12
L 956 12
L 956 12
L 956 12
L 956 12
L 956 12
L 956 12
L 956 12
L 957 12
L 957 12
L 957 12
L 957 12
L 957 12
L 957 12
L 957 12
L 957 12
L 957 12
L 957 12
L 957 12
L 957 12
L 957 12
L 957 12
L 957 12
L 957 11
L 957 11
L 957 11
L 957 11
L 957 11
L 957 11
L 957 11
L 957 11
L 957 11
L 957 11
L 957 11
L 957 11
L 957 11
L 957 11
L 957 11
L 957 11
L 957 11
L 957 11
L 957 11
L 957 11
L 957 11
L 957 11" style="stroke-width:2;stroke:rgba(129,199,239,1.0);fill:none"/></svg>