<!-- stars: 8398 -->
<svg xmlns="http://www.w3.org/2000/svg" xmlns:xlink="http://www.w3.org/1999/xlink" width="1024" height="400">\n<path  d="M 0 0
L 1024 0
L 1024 400
L 0 400
L 0 0" style="stroke-width:0;stroke:rgba(255,255,255,1.0);fill:rgba(255,255,255,1.0)"/><path  d="M 38 11
L 957 11
L 957 351
L 38 351
L 38 11" style="stroke-width:0;stroke:rgba(255,255,255,1.0);fill:rgba(255,255,255,1.0)"/><path  d="M 38 351
L 957 351" style="stroke-width:2;stroke:rgba(85,85,85,1.0);fill:none"/><path  d="M 38 351
L 38 356" style="stroke-width:2;stroke:rgba(85,85,85,1.0);fill:none"/><text x="5" y="373" style="stroke-width:0;stroke:none;fill:rgba(51,51,51,1.0);font-size:12.8px;font-family:'Roboto Medium',sans-serif">2018-09-25</text><path  d="M 153 351
L 153 356" style="stroke-width:2;stroke:rgba(85,85,85,1.0);fill:none"/><text x="120" y="373" style="stroke-width:0;stroke:none;fill:rgba(51,51,51,1.0);font-size:12.8px;font-family:'Roboto Medium',sans-serif">2019-02-18</text><path  d="M 268 351
L 268 356" style="stroke-width:2;stroke:rgba(85,85,85,1.0);fill:none"/><text x="235" y="373" style="stroke-width:0;stroke:none;fill:rgba(51,51,51,1.0);font-size:12.8px;font-family:'Roboto Medium',sans-serif">2019-07-14</text><path  d="M 383 351
L 383 356" style="stroke-width:2;stroke:rgba(85,85,85,1.0);fill:none"/><text x="350" y="373" style="stroke-width:0;stroke:none;fill:rgba(51,51,51,1.0);font-size:12.8px;font-family:'Roboto Medium',sans-serif">2019-12-08</text><path  d="M 498 351
L 498 356" style="stroke-width:2;stroke:rgba(85,85,85,1.0);fill:none"/><text x="465" y="373" style="stroke-width:0;stroke:none;fill:rgba(51,51,51,1.0);font-size:12.8px;font-family:'Roboto Medium',sans-serif">2020-05-02</text><path  d="M 613 351
L 613 356" style="stroke-width:2;stroke:rgba(85,85,85,1.0);fill:none"/><text x="580" y="373" style="stroke-width:0;stroke:none;fill:rgba(51,51,51,1.0);font-size:12.8px;font-family:'Roboto Medium',sans-serif">2020-09-26</text><path  d="M 728 351
L 728 356" style="stroke-width:2;stroke:rgba(85,85,85,1.0);fill:none"/><text x="695" y="373" style="stroke-width:0;stroke:none;fill:rgba(51,51,51,1.0);font-size:12.8px;font-family:'Roboto Medium',sans-serif">2021-02-19</text><path  d="M 843 351
L 843 356" style="stroke-width:2;stroke:rgba(85,85,85,1.0);fill:none"/><text x="810" y="373" style="stroke-width:0;stroke:none;fill:rgba(51,51,51,1.0);font-size:12.8px;font-family:'Roboto Medium',sans-serif">2021-07-16</text><path  d="M 957 351
L 957 356" style="stroke-width:2;stroke:rgba(85,85,85,1.0);fill:none"/><text x="924" y="373" style="stroke-width:0;stroke:none;fill:rgba(51,51,51,1.0);font-size:12.8px;font-family:'Roboto Medium',sans-serif">2021-12-09</text><text x="483" y="395" style="stroke-width:0;stroke:none;fill:rgba(51,51,51,1.0);font-size:12.8px;font-family:'Roboto Medium',sans-serif">Time</text><path  d="M 959 351
L 959 11" style="stroke-width:2;stroke:rgba(85,85,85,1.0);fill:none"/><path  d="M 959 351
L 964 351" style="stroke-width:2;stroke:rgba(85,85,85,1.0);fill:none"/><text x="969" y="357" style="stroke-width:0;stroke:none;fill:rgba(51,51,51,1.0);font-size:12.8px;font-family:'Roboto Medium',sans-serif">0</text><path  d="M 959 308
L 964 308" style="stroke-width:2;stroke:rgba(85,85,85,1.0);fill:none"/><text x="969" y="314" style="stroke-width:0;stroke:none;fill:rgba(51,51,51,1.0);font-size:12.8px;font-family:'Roboto Medium',sans-serif">1050</text><path  d="M 959 266
L 964 266" style="stroke-width:2;stroke:rgba(85,85,85,1.0);fill:none"/><text x="969" y="272" style="stroke-width:0;stroke:none;fill:rgba(51,51,51,1.0);font-size:12.8px;font-family:'Roboto Medium',sans-serif">2100</text><path  d="M 959 223
L 964 223" style="stroke-width:2;stroke:rgba(85,85,85,1.0);fill:none"/><text x="969" y="229" style="stroke-width:0;stroke:none;fill:rgba(51,51,51,1.0);font-size:12.8px;font-family:'Roboto Medium',sans-serif">3150</text><path  d="M 959 181
L 964 181" style="stroke-width:2;stroke:rgba(85,85,85,1.0);fill:none"/><text x="969" y="187" style="stroke-width:0;stroke:none;fill:rgba(51,51,51,1.0);font-size:12.8px;font-family:'Roboto Medium',sans-serif">4200</text><path  d="M 959 138
L 964 138" style="stroke-width:2;stroke:rgba(85,85,85,1.0);fill:none"/><text x="969" y="144" style="stroke-width:0;stroke:none;fill:rgba(51,51,51,1.0);font-size:12.8px;font-family:'Roboto Medium',sans-serif">5250</text><path  d="M 959 96
L 964 96" style="stroke-width:2;stroke:rgba(85,85,85,1.0);fill:none"/><text x="969" y="102" style="stroke-width:0;stroke:none;fill:rgba(51,51,51,1.0);font-size:12.8px;font-family:'Roboto Medium',sans-serif">6300</text><path  d="M 959 53
L 964 53" style="stroke-width:2;stroke:rgba(85,85,85,1.0);fill:none"/><text x="969" y="59" style="stroke-width:0;stroke:none;fill:rgba(51,51,51,1.0);font-size:12.8px;font-family:'Roboto Medium',sans-serif">7350</text><path  d="M 959 11
L 964 11" style="stroke-width:2;stroke:rgba(85,85,85,1.0);fill:none"/><text x="969" y="17" style="stroke-width:0;stroke:none;fill:rgba(51,51,51,1.0);font-size:12.8px;font-family:'Roboto Medium',sans-serif">8400</text><text x="1009" y="150" style="stroke-width:0;stroke:none;fill:rgba(51,51,51,1.0);font-size:12.8px;font-family:'Roboto Medium',sans-serif" transform="rotate(90.00,1009,150)">Stargazers</text><path  d="M 38 351
L 40 350
L 50 350
L 51 350
L 51 350
L 51 350
L 51 350
L 54 350
L 55 350
L 55 350
L 57 350
L 57 350
L 58 350
L 58 350
L 58 350
L 58 350
L 61 350
L 67 350
L 67 350
L 69 350
L 70 350
L 70 350
L 72 350
L 72 350
L 74 350
L 74 349
L 79 349
L 83 349
L 88 349
L 88 349
L 93 349
L 94 349
L 94 349
L 94 349
L 94 349
L 94 349
L 94 349
L 95 349
L 95 349
L 95 349
L 95 349
L 97 349
L 99 349
L 99 349
L 99 349
L 99 349
L 99 349
L 100 349
L 100 349
L 101 349
L 103 348
L 103 348
L 104 348
L 105 348
L 107 348
L 108 348
L 108 348
L 109 348
L 110 348
L 110 348
L 110 348
L 111 348
L 111 348
L 111 348
L 111 348
L 112 348
L 112 348
L 112 348
L 112 348
L 112 348
L 113 348
L 113 348
L 113 348
L 115 348
L 115 348
L 115 347
L 116 347
L 116 347
L 117 347
L 118 347
L 118 347
L 120 347
L 120 347
L 120 347
L 120 347
L 120 347
L 120 347
L 122 347
L 122 347
L 122 347
L 123 347
L 123 347
L 123 347
L 125 347
L 127 347
L 127 347
L 127 347
L 127 347
L 127 347
L 129 346
L 131 346
L 133 346
L 133 346
L 134 346
L 134 346
L 134 346
L 141 346
L 145 346
L 149 346
L 149 346
L 150 346
L 150 346
L 151 346
L 151 346
L 152 346
L 153 346
L 154 346
L 154 346
L 154 346
L 155 346
L 155 346
L 155 346
L 156 346
L 156 346
L 156 345
L 159 345
L 159 345
L 161 345
L 162 345
L 164 345
L 164 345
L 165 345
L 166 345
L 167 345
L 167 345
L 167 345
L 167 345
L 168 345
L 169 345
L 170 345
L 171 345
L 172 345
L 173 345
L 175 345
L 175 345
L 176 345
L 177 345
L 177 345
L 177 345
L 178 344
L 178 344
L 181 344
L 182 344
L 182 344
L 182 344
L 183 344
L 184 344
L 184 344
L 184 344
L 185 344
L 185 344
L 185 344
L 186 344
L 186 344
L 186 344
L 187 344
L 187 344
L 187 344
L 187 344
L 187 344
L 187 344
L 187 344
L 188 344
L 188 343
L 188 343
L 188 343
L 188 343
L 188 343
L 188 343
L 189 343
L 189 343
L 191 343
L 192 343
L 192 343
L 192 343
L 193 343
L 193 343
L 193 343
L 193 343
L 194 343
L 194 343
L 194 343
L 194 343
L 195 343
L 196 343
L 198 343
L 198 343
L 198 343
L 200 342
L 200 342
L 203 342
L 203 342
L 204 342
L 204 342
L 204 342
L 204 342
L 204 342
L 205 342
L 205 342
L 207 342
L 207 342
L 207 342
L 208 342
L 208 342
L 208 342
L 209 342
L 209 342
L 210 342
L 210 342
L 211 342
L 212 342
L 212 342
L 213 342
L 214 341
L 214 341
L 216 341
L 216 341
L 217 341
L 217 341
L 217 341
L 217 341
L 218 341
L 221 341
L 222 341
L 224 341
L 225 341
L 227 341
L 228 341
L 230 341
L 230 341
L 230 341
L 232 341
L 236 341
L 236 341
L 236 341
L 237 341
L 237 341
L 238 341
L 238 340
L 238 340
L 238 340
L 239 340
L 244 340
L 247 340
L 248 340
L 248 340
L 248 340
L 248 340
L 248 340
L 248 340
L 248 340
L 248 340
L 248 340
L 250 340
L 250 340
L 252 340
L 253 340
L 253 340
L 254 340
L 255 340
L 255 340
L 256 340
L 257 339
L 258 339
L 258 339
L 258 339
L 258 339
L 259 339
L 259 339
L 259 339
L 259 339
L 259 339
L 260 339
L 260 339
L 260 339
L 261 339
L 261 339
L 261 339
L 261 339
L 262 339
L 262 339
L 262 339
L 263 339
L 264 339
L 265 339
L 266 339
L 267 339
L 268 338
L 268 338
L 268 338
L 269 338
L 269 338
L 272 338
L 273 338
L 274 338
L 275 338
L 277 338
L 278 338
L 279 338
L 280 338
L 280 338
L 280 338
L 281 338
L 286 338
L 290 338
L 290 338
L 291 338
L 293 338
L 294 338
L 296 338
L 298 338
L 301 338
L 301 337
L 301 337
L 302 337
L 304 337
L 309 337
L 309 337
L 309 337
L 310 337
L 310 337
L 321 337
L 321 337
L 322 337
L 323 337
L 323 337
L 323 337
L 323 337
L 323 337
L 323 337
L 323 337
L 323 337
L 323 337
L 324 337
L 324 337
L 325 337
L 328 336
L 328 336
L 329 336
L 334 336
L 336 336
L 337 336
L 338 336
L 338 336
L 339 336
L 339 336
L 341 336
L 341 336
L 341 336
L 341 336
L 342 336
L 343 336
L 343 336
L 345 336
L 346 336
L 346 336
L 347 336
L 351 336
L 363 336
L 363 336
L 367 336
L 369 335
L 370 335
L 371 335
L 373 335
L 374 335
L 374 335
L 374 335
L 374 335
L 375 335
L 375 335
L 379 335
L 379 335
L 382 335
L 383 335
L 387 335
L 387 335
L 387 335
L 392 335
L 395 335
L 395 335
L 396 335
L 397 335
L 397 335
L 397 335
L 397 335
L 397 334
L 398 334
L 398 334
L 398 334
L 398 334
L 400 334
L 401 334
L 405 334
L 406 334
L 407 334
L 411 334
L 411 334
L 411 334
L 412 334
L 412 334
L 413 334
L 414 334
L 417 334
L 417 334
L 421 334
L 422 334
L 423 334
L 423 334
L 425 334
L 427 334
L 429 333
L 431 333
L 435 333
L 436 333
L 437 333
L 437 333
L 440 333
L 447 333
L 449 333
L 451 333
L 452 333
L 453 333
L 453 333
L 454 333
L 455 333
L 455 333
L 455 333
L 457 333
L 457 333
L 457 333
L 457 333
L 458 333
L 458 333
L 459 333
L 459 332
L 460 332
L 460 332
L 462 332
L 462 332
L 462 332
L 462 332
L 462 332
L 463 332
L 463 332
L 463 332
L 463 332
L 463 332
L 463 332
L 464 332
L 464 332
L 465 332
L 466 332
L 467 332
L 467 332
L 469 332
L 469 332
L 469 332
L 469 332
L 469 332
L 470 331
L 470 331
L 470 331
L 471 331
L 471 331
L 472 331
L 472 331
L 472 331
L 472 331
L 473 331
L 474 331
L 475 331
L 477 331
L 477 331
L 477 331
L 477 331
L 477 331
L 478 331
L 478 331
L 479 331
L 479 331
L 479 331
L 480 331
L 480 331
L 480 331
L 480 330
L 480 330
L 480 330
L 480 330
L 480 330
L 480 330
L 480 330
L 480 330
L 480 330
L 481 330
L 481 330
L 481 330
L 482 330
L 482 330
L 482 330
L 483 330
L 483 330
L 483 330
L 483 330
L 485 330
L 485 330
L 486 330
L 486 330
L 486 330
L 486 329
L 488 329
L 488 329
L 488 329
L 488 329
L 488 329
L 488 329
L 488 329
L 488 329
L 488 329
L 488 329
L 488 329
L 488 329
L 488 329
L 488 329
L 488 329
L 488 329
L 488 329
L 489 329
L 489 329
L 489 329
L 489 329
L 489 329
L 489 329
L 489 329
L 489 328
L 489 328
L 489 328
L 489 328
L 490 328
L 490 328
L 490 328
L 490 328
L 490 328
L 491 328
L 491 328
L 491 328
L 491 328
L 491 328
L 491 328
L 491 328
L 492 328
L 492 328
L 493 328
L 493 328
L 494 328
L 494 328
L 494 328
L 494 328
L 495 328
L 495 327
L 495 327
L 495 327
L 495 327
L 495 327
L 495 327
L 496 327
L 497 327
L 497 327
L 498 327
L 499 327
L 499 327
L 500 327
L 501 327
L 501 327
L 501 327
L 501 327
L 502 327
L 502 327
L 502 327
L 502 327
L 502 327
L 502 327
L 503 327
L 504 326
L 504 326
L 505 326
L 505 326
L 505 326
L 506 326
L 506 326
L 506 326
L 507 326
L 507 326
L 507 326
L 508 326
L 508 326
L 508 326
L 508 326
L 509 326
L 509 326
L 509 326
L 509 326
L 509 326
L 510 326
L 511 326
L 511 326
L 513 326
L 513 326
L 513 325
L 513 325
L 513 325
L 514 325
L 515 325
L 515 325
L 515 325
L 515 325
L 516 325
L 516 325
L 516 325
L 517 325
L 517 325
L 518 325
L 518 325
L 518 325
L 518 325
L 518 325
L 518 325
L 519 325
L 519 325
L 519 325
L 519 325
L 519 325
L 519 325
L 520 324
L 520 324
L 520 324
L 521 324
L 522 324
L 522 324
L 522 324
L 522 324
L 523 324
L 523 324
L 523 324
L 524 324
L 525 324
L 525 324
L 525 324
L 525 324
L 525 324
L 525 324
L 525 324
L 525 324
L 525 324
L 525 324
L 525 324
L 526 324
L 526 324
L 526 323
L 526 323
L 526 323
L 526 323
L 526 323
L 526 323
L 526 323
L 526 323
L 527 323
L 527 323
L 527 323
L 527 323
L 527 323
L 528 323
L 529 323
L 530 323
L 530 323
L 530 323
L 531 323
L 531 323
L 531 323
L 531 323
L 532 323
L 532 323
L 532 322
L 532 322
L 532 322
L 532 322
L 532 322
L 532 322
L 532 322
L 533 322
L 533 322
L 533 322
L 533 322
L 533 322
L 533 322
L 533 322
L 533 322
L 533 322
L 534 322
L 534 322
L 534 322
L 534 322
L 534 322
L 534 322
L 535 322
L 535 322
L 535 322
L 535 321
L 535 321
L 535 321
L 536 321
L 536 321
L 536 321
L 536 321
L 536 321
L 536 321
L 536 321
L 537 321
L 537 321
L 538 321
L 538 321
L 538 321
L 538 321
L 539 321
L 539 321
L 540 321
L 541 321
L 541 321
L 542 321
L 542 321
L 542 321
L 542 321
L 542 320
L 543 320
L 543 320
L 543 320
L 543 320
L 543 320
L 543 320
L 543 320
L 544 320
L 545 320
L 545 320
L 545 320
L 545 320
L 545 320
L 546 320
L 546 320
L 546 320
L 546 320
L 546 320
L 546 320
L 546 320
L 547 320
L 547 320
L 548 320
L 548 319
L 548 319
L 549 319
L 549 319
L 549 319
L 549 319
L 550 319
L 551 319
L 551 319
L 551 319
L 552 319
L 552 319
L 552 319
L 553 319
L 553 319
L 554 319
L 555 319
L 555 319
L 555 319
L 556 319
L 556 319
L 556 319
L 556 319
L 556 319
L 556 319
L 556 318
L 557 318
L 557 318
L 557 318
L 557 318
L 558 318
L 558 318
L 558 318
L 559 318
L 559 318
L 559 318
L 559 318
L 560 318
L 560 318
L 560 318
L 560 318
L 560 318
L 560 318
L 560 318
L 560 318
L 561 318
L 561 318
L 561 318
L 562 318
L 562 318
L 563 317
L 563 317
L 563 317
L 563 317
L 564 317
L 564 317
L 564 317
L 564 317
L 564 317
L 565 317
L 565 317
L 565 317
L 565 317
L 566 317
L 566 317
L 566 317
L 566 317
L 566 317
L 567 317
L 567 317
L 567 317
L 567 317
L 567 317
L 567 317
L 567 317
L 567 316
L 567 316
L 567 316
L 567 316
L 568 316
L 568 316
L 568 316
L 568 316
L 568 316
L 569 316
L 569 316
L 569 316
L 570 316
L 570 316
L 570 316
L 571 316
L 571 316
L 571 316
L 571 316
L 572 316
L 572 316
L 572 316
L 573 316
L 573 316
L 573 315
L 573 315
L 573 315
L 573 315
L 574 315
L 574 315
L 574 315
L 575 315
L 575 315
L 576 315
L 576 315
L 576 315
L 576 315
L 576 315
L 577 315
L 577 315
L 577 315
L 577 315
L 577 315
L 578 315
L 578 315
L 578 315
L 578 315
L 578 315
L 578 315
L 579 314
L 579 314
L 579 314
L 579 314
L 579 314
L 581 314
L 581 314
L 581 314
L 582 314
L 582 314
L 582 314
L 582 314
L 582 314
L 582 314
L 583 314
L 583 314
L 583 314
L 584 314
L 584 314
L 584 314
L 584 314
L 584 314
L 585 314
L 585 314
L 585 314
L 586 313
L 586 313
L 587 313
L 587 313
L 588 313
L 588 313
L 589 313
L 589 313
L 590 313
L 591 313
L 592 313
L 592 313
L 592 313
L 593 313
L 593 313
L 594 313
L 594 313
L 595 313
L 595 313
L 596 313
L 596 313
L 596 313
L 596 313
L 597 313
L 597 312
L 597 312
L 598 312
L 598 312
L 598 312
L 598 312
L 598 312
L 599 312
L 599 312
L 600 312
L 600 312
L 600 312
L 600 312
L 600 312
L 600 312
L 600 312
L 601 312
L 601 312
L 601 312
L 601 312
L 601 312
L 601 312
L 601 312
L 602 312
L 603 312
L 603 311
L 603 311
L 603 311
L 603 311
L 603 311
L 604 311
L 604 311
L 604 311
L 606 311
L 606 311
L 606 311
L 607 311
L 607 311
L 608 311
L 609 311
L 610 311
L 610 311
L 610 311
L 610 311
L 611 311
L 611 311
L 611 311
L 611 311
L 614 311
L 614 311
L 614 310
L 614 310
L 614 310
L 614 310
L 614 310
L 615 310
L 615 310
L 615 310
L 615 310
L 615 310
L 616 310
L 616 310
L 616 310
L 616 310
L 616 310
L 618 310
L 619 310
L 620 310
L 621 310
L 622 310
L 623 310
L 623 310
L 623 310
L 623 310
L 624 309
L 624 309
L 625 309
L 625 309
L 625 309
L 625 309
L 625 309
L 626 309
L 626 309
L 626 309
L 626 309
L 626 309
L 626 309
L 626 309
L 626 309
L 626 309
L 627 309
L 627 309
L 627 309
L 627 309
L 628 309
L 628 309
L 628 309
L 628 309
L 628 309
L 628 308
L 628 308
L 628 308
L 629 308
L 629 308
L 629 308
L 629 308
L 629 308
L 631 308
L 631 308
L 631 308
L 631 308
L 632 308
L 632 308
L 632 308
L 632 308
L 633 308
L 633 308
L 633 308
L 633 308
L 633 308
L 634 308
L 634 308
L 634 308
L 634 308
L 634 307
L 635 307
L 636 307
L 636 307
L 636 307
L 637 307
L 637 307
L 637 307
L 637 307
L 637 307
L 637 307
L 637 307
L 637 307
L 637 307
L 637 307
L 637 307
L 638 307
L 638 307
L 638 307
L 638 307
L 638 307
L 638 307
L 638 307
L 638 307
L 638 307
L 638 306
L 639 306
L 639 306
L 639 306
L 639 306
L 639 306
L 639 306
L 639 306
L 639 306
L 639 306
L 640 306
L 640 306
L 640 306
L 640 306
L 640 306
L 640 306
L 640 306
L 640 306
L 640 306
L 640 306
L 641 306
L 641 306
L 641 306
L 641 306
L 641 305
L 642 305
L 642 305
L 642 305
L 642 305
L 643 305
L 643 305
L 643 305
L 643 305
L 643 305
L 643 305
L 643 305
L 643 305
L 643 305
L 644 305
L 644 305
L 644 305
L 644 305
L 644 305
L 644 305
L 644 305
L 644 305
L 644 305
L 644 305
L 645 305
L 646 304
L 646 304
L 646 304
L 646 304
L 647 304
L 647 304
L 647 304
L 647 304
L 647 304
L 648 304
L 648 304
L 648 304
L 648 304
L 648 304
L 648 304
L 648 304
L 649 304
L 649 304
L 649 304
L 649 304
L 650 304
L 650 304
L 650 304
L 651 304
L 651 304
L 651 303
L 651 303
L 651 303
L 651 303
L 651 303
L 652 303
L 652 303
L 652 303
L 652 303
L 653 303
L 653 303
L 653 303
L 653 303
L 653 303
L 654 303
L 654 303
L 654 303
L 654 303
L 655 303
L 655 303
L 655 303
L 655 303
L 655 303
L 655 303
L 655 302
L 656 302
L 656 302
L 656 302
L 656 302
L 657 302
L 657 302
L 657 302
L 657 302
L 657 302
L 658 302
L 658 302
L 658 302
L 658 302
L 658 302
L 658 302
L 658 302
L 659 302
L 660 302
L 660 302
L 661 302
L 661 302
L 661 302
L 661 302
L 661 302
L 661 301
L 662 301
L 662 301
L 662 301
L 662 301
L 662 301
L 663 301
L 663 301
L 663 301
L 664 301
L 664 301
L 664 301
L 664 301
L 664 301
L 665 301
L 665 301
L 665 301
L 665 301
L 665 301
L 665 301
L 665 301
L 665 301
L 665 301
L 666 301
L 666 301
L 666 300
L 666 300
L 666 300
L 666 300
L 667 300
L 667 300
L 668 300
L 669 300
L 669 300
L 669 300
L 669 300
L 670 300
L 670 300
L 670 300
L 670 300
L 670 300
L 670 300
L 671 300
L 671 300
L 671 300
L 671 300
L 671 300
L 672 300
L 672 300
L 672 300
L 672 299
L 672 299
L 672 299
L 673 299
L 673 299
L 673 299
L 674 299
L 674 299
L 674 299
L 674 299
L 675 299
L 675 299
L 675 299
L 675 299
L 675 299
L 676 299
L 676 299
L 676 299
L 676 299
L 676 299
L 676 299
L 677 299
L 677 299
L 677 299
L 678 298
L 678 298
L 678 298
L 678 298
L 680 298
L 680 298
L 680 298
L 680 298
L 680 298
L 680 298
L 680 298
L 681 298
L 681 298
L 681 298
L 681 298
L 681 298
L 681 298
L 681 298
L 681 298
L 681 298
L 681 298
L 681 298
L 682 298
L 682 298
L 682 298
L 682 297
L 682 297
L 682 297
L 682 297
L 682 297
L 683 297
L 683 297
L 683 297
L 683 297
L 683 297
L 683 297
L 683 297
L 683 297
L 684 297
L 684 297
L 684 297
L 685 297
L 685 297
L 685 297
L 685 297
L 685 297
L 686 297
L 686 297
L 686 297
L 686 297
L 686 296
L 686 296
L 686 296
L 687 296
L 687 296
L 687 296
L 687 296
L 687 296
L 687 296
L 687 296
L 688 296
L 688 296
L 688 296
L 688 296
L 688 296
L 689 296
L 690 296
L 690 296
L 691 296
L 691 296
L 691 296
L 691 296
L 691 296
L 691 296
L 692 295
L 692 295
L 692 295
L 692 295
L 692 295
L 693 295
L 693 295
L 693 295
L 693 295
L 693 295
L 693 295
L 693 295
L 693 295
L 693 295
L 693 295
L 693 295
L 694 295
L 694 295
L 694 295
L 694 295
L 694 295
L 694 295
L 695 295
L 695 295
L 695 295
L 695 294
L 695 294
L 696 294
L 697 294
L 697 294
L 697 294
L 697 294
L 697 294
L 697 294
L 698 294
L 698 294
L 698 294
L 698 294
L 698 294
L 698 294
L 698 294
L 698 294
L 699 294
L 699 294
L 699 294
L 699 294
L 699 294
L 700 294
L 700 294
L 700 294
L 700 293
L 701 293
L 701 293
L 701 293
L 701 293
L 702 293
L 702 293
L 702 293
L 702 293
L 703 293
L 703 293
L 703 293
L 703 293
L 703 293
L 703 293
L 704 293
L 704 293
L 705 293
L 705 293
L 705 293
L 705 293
L 705 293
L 705 293
L 705 293
L 705 292
L 706 292
L 706 292
L 706 292
L 706 292
L 706 292
L 706 292
L 706 292
L 707 292
L 707 292
L 707 292
L 707 292
L 707 292
L 707 292
L 708 292
L 708 292
L 708 292
L 708 292
L 708 292
L 708 292
L 708 292
L 709 292
L 709 292
L 709 292
L 709 292
L 709 291
L 709 291
L 709 291
L 709 291
L 710 291
L 710 291
L 710 291
L 710 291
L 710 291
L 711 291
L 712 291
L 712 291
L 712 291
L 712 291
L 712 291
L 713 291
L 713 291
L 713 291
L 713 291
L 713 291
L 713 291
L 713 291
L 713 291
L 713 291
L 714 291
L 714 290
L 715 290
L 715 290
L 715 290
L 715 290
L 716 290
L 716 290
L 716 290
L 716 290
L 716 290
L 716 290
L 716 290
L 716 290
L 716 290
L 716 290
L 717 290
L 717 290
L 717 290
L 717 290
L 717 290
L 717 290
L 717 290
L 718 290
L 718 290
L 718 290
L 718 289
L 718 289
L 718 289
L 719 289
L 719 289
L 719 289
L 720 289
L 720 289
L 720 289
L 721 289
L 721 289
L 723 289
L 723 289
L 723 289
L 723 289
L 723 289
L 723 289
L 724 289
L 724 289
L 724 289
L 725 289
L 725 289
L 725 289
L 726 289
L 726 288
L 726 288
L 727 288
L 727 288
L 727 288
L 727 288
L 727 288
L 727 288
L 727 288
L 727 288
L 727 288
L 727 288
L 727 288
L 728 288
L 728 288
L 728 288
L 728 288
L 728 288
L 728 288
L 728 288
L 728 288
L 728 288
L 729 288
L 729 288
L 729 288
L 729 287
L 730 287
L 730 287
L 730 287
L 730 287
L 730 287
L 730 287
L 731 287
L 731 287
L 731 287
L 731 287
L 731 287
L 731 287
L 731 287
L 731 287
L 731 287
L 731 287
L 731 287
L 731 287
L 731 287
L 732 287
L 732 287
L 732 287
L 732 287
L 732 287
L 732 286
L 732 286
L 732 286
L 732 286
L 733 286
L 733 286
L 733 286
L 733 286
L 733 286
L 733 286
L 733 286
L 734 286
L 734 286
L 735 286
L 735 286
L 735 286
L 735 286
L 735 286
L 735 286
L 735 286
L 736 286
L 736 286
L 736 286
L 736 286
L 736 285
L 736 285
L 736 285
L 736 285
L 736 285
L 736 285
L 736 285
L 736 285
L 736 285
L 736 285
L 736 285
L 737 285
L 737 285
L 737 285
L 737 285
L 737 285
L 737 285
L 737 285
L 737 285
L 737 285
L 738 285
L 738 285
L 738 285
L 738 285
L 738 285
L 738 284
L 738 284
L 738 284
L 738 284
L 739 284
L 739 284
L 739 284
L 739 284
L 739 284
L 740 284
L 740 284
L 740 284
L 741 284
L 741 284
L 741 284
L 741 284
L 741 284
L 741 284
L 741 284
L 741 284
L 741 284
L 741 284
L 742 284
L 742 284
L 742 284
L 742 283
L 742 283
L 742 283
L 742 283
L 743 283
L 743 283
L 743 283
L 743 283
L 743 283
L 743 283
L 743 283
L 743 283
L 743 283
L 743 283
L 743 283
L 743 283
L 743 283
L 744 283
L 744 283
L 744 283
L 744 283
L 744 283
L 744 283
L 745 283
L 745 283
L 745 282
L 745 282
L 745 282
L 745 282
L 745 282
L 745 282
L 745 282
L 745 282
L 745 282
L 745 282
L 745 282
L 745 282
L 745 282
L 745 282
L 745 282
L 745 282
L 745 282
L 745 282
L 745 282
L 745 282
L 745 282
L 745 282
L 745 282
L 745 282
L 745 281
L 745 281
L 745 281
L 745 281
L 745 281
L 745 281
L 745 281
L 745 281
L 745 281
L 745 281
L 745 281
L 745 281
L 745 281
L 746 281
L 746 281
L 746 281
L 746 281
L 746 281
L 746 281
L 746 281
L 746 281
L 746 281
L 746 281
L 746 281
L 746 281
L 746 280
L 746 280
L 746 280
L 746 280
L 746 280
L 746 280
L 746 280
L 746 280
L 746 280
L 746 280
L 746 280
L 746 280
L 746 280
L 746 280
L 746 280
L 746 280
L 746 280
L 746 280
L 746 280
L 746 280
L 746 280
L 746 280
L 746 280
L 746 280
L 746 280
L 746 279
L 746 279
L 746 279
L 746 279
L 746 279
L 746 279
L 746 279
L 746 279
L 746 279
L 746 279
L 746 279
L 746 279
L 746 279
L 746 279
L 746 279
L 746 279
L 746 279
L 746 279
L 746 279
L 746 279
L 746 279
L 746 279
L 746 279
L 746 279
L 746 278
L 746 278
L 746 278
L 746 278
L 746 278
L 746 278
L 746 278
L 746 278
L 746 278
L 746 278
L 747 278
L 747 278
L 747 278
L 747 278
L 747 278
L 747 278
L 747 278
L 747 278
L 747 278
L 747 278
L 747 278
L 747 278
L 747 278
L 747 278
L 747 278
L 747 277
L 747 277
L 747 277
L 747 277
L 747 277
L 747 277
L 747 277
L 747 277
L 747 277
L 747 277
L 747 277
L 747 277
L 747 277
L 747 277
L 747 277
L 747 277
L 747 277
L 747 277
L 747 277
L 747 277
L 747 277
L 747 277
L 747 277
L 747 277
L 747 277
L 747 276
L 747 276
L 747 276
L 747 276
L 747 276
L 747 276
L 747 276
L 747 276
L 747 276
L 747 276
L 747 276
L 747 276
L 747 276
L 747 276
L 747 276
L 747 276
L 747 276
L 747 276
L 747 276
L 748 276
L 748 276
L 748 276
L 748 276
L 748 276
L 748 275
L 748 275
L 748 275
L 748 275
L 748 275
L 748 275
L 748 275
L 748 275
L 748 275
L 748 275
L 748 275
L 748 275
L 748 275
L 748 275
L 748 275
L 748 275
L 748 275
L 748 275
L 748 275
L 748 275
L 748 275
L 748 275
L 748 275
L 748 275
L 748 275
L 748 274
L 748 274
L 748 274
L 748 274
L 748 274
L 748 274
L 748 274
L 748 274
L 748 274
L 748 274
L 748 274
L 748 274
L 748 274
L 748 274
L 748 274
L 748 274
L 748 274
L 748 274
L 748 274
L 748 274
L 748 274
L 748 274
L 748 274
L 748 274
L 748 274
L 748 273
L 748 273
L 748 273
L 748 273
L 748 273
L 748 273
L 748 273
L 748 273
L 748 273
L 748 273
L 748 273
L 748 273
L 748 273
L 748 273
L 748 273
L 748 273
L 748 273
L 748 273
L 748 273
L 748 273
L 748 273
L 748 273
L 748 273
L 748 273
L 748 273
L 748 272
L 748 272
L 748 272
L 748 272
L 748 272
L 748 272
L 748 272
L 748 272
L 748 272
L 749 272
L 749 272
L 749 272
L 749 272
L 749 272
L 749 272
L 749 272
L 749 272
L 749 272
L 749 272
L 749 272
L 749 272
L 749 272
L 749 272
L 749 272
L 749 271
L 749 271
L 749 271
L 749 271
L 749 271
L 749 271
L 749 271
L 749 271
L 749 271
L 749 271
L 749 271
L 749 271
L 749 271
L 749 271
L 749 271
L 749 271
L 749 271
L 749 271
L 749 271
L 749 271
L 749 271
L 749 271
L 749 271
L 749 271
L 749 271
L 749 270
L 749 270
L 749 270
L 749 270
L 749 270
L 749 270
L 749 270
L 749 270
L 749 270
L 749 270
L 749 270
L 749 270
L 749 270
L 749 270
L 749 270
L 749 270
L 749 270
L 749 270
L 750 270
L 750 270
L 750 270
L 750 270
L 750 270
L 750 270
L 750 270
L 750 269
L 750 269
L 750 269
L 750 269
L 750 269
L 750 269
L 750 269
L 750 269
L 750 269
L 750 269
L 750 269
L 750 269
L 750 269
L 750 269
L 750 269
L 750 269
L 750 269
L 751 269
L 751 269
L 751 269
L 751 269
L 751 269
L 751 269
L 752 269
L 752 268
L 752 268
L 752 268
L 752 268
L 752 268
L 752 268
L 752 268
L 752 268
L 752 268
L 752 268
L 752 268
L 752 268
L 753 268
L 753 268
L 753 268
L 753 268
L 753 268
L 753 268
L 753 268
L 753 268
L 753 268
L 753 268
L 753 268
L 753 268
L 753 268
L 754 267
L 754 267
L 754 267
L 754 267
L 754 267
L 754 267
L 754 267
L 754 267
L 754 267
L 754 267
L 754 267
L 754 267
L 754 267
L 755 267
L 755 267
L 755 267
L 755 267
L 755 267
L 755 267
L 755 267
L 755 267
L 755 267
L 755 267
L 755 267
L 756 267
L 756 266
L 756 266
L 756 266
L 756 266
L 756 266
L 757 266
L 757 266
L 757 266
L 757 266
L 757 266
L 757 266
L 757 266
L 757 266
L 757 266
L 757 266
L 757 266
L 757 266
L 757 266
L 757 266
L 757 266
L 757 266
L 758 266
L 758 266
L 758 266
L 758 266
L 758 265
L 758 265
L 758 265
L 758 265
L 758 265
L 758 265
L 758 265
L 758 265
L 758 265
L 758 265
L 758 265
L 758 265
L 758 265
L 758 265
L 758 265
L 758 265
L 758 265
L 758 265
L 758 265
L 758 265
L 758 265
L 758 265
L 758 265
L 758 265
L 758 264
L 758 264
L 758 264
L 758 264
L 758 264
L 758 264
L 758 264
L 758 264
L 758 264
L 758 264
L 758 264
L 758 264
L 758 264
L 758 264
L 758 264
L 758 264
L 758 264
L 758 264
L 758 264
L 758 264
L 758 264
L 758 264
L 758 264
L 759 264
L 759 264
L 759 263
L 759 263
L 759 263
L 759 263
L 759 263
L 759 263
L 759 263
L 759 263
L 759 263
L 759 263
L 759 263
L 759 263
L 759 263
L 759 263
L 759 263
L 759 263
L 759 263
L 759 263
L 759 263
L 759 263
L 759 263
L 759 263
L 759 263
L 759 263
L 759 263
L 759 262
L 759 262
L 759 262
L 759 262
L 759 262
L 759 262
L 759 262
L 759 262
L 759 262
L 759 262
L 759 262
L 759 262
L 759 262
L 759 262
L 759 262
L 759 262
L 759 262
L 759 262
L 759 262
L 759 262
L 759 262
L 759 262
L 759 262
L 759 262
L 759 261
L 759 261
L 759 261
L 759 261
L 759 261
L 759 261
L 760 261
L 760 261
L 760 261
L 760 261
L 760 261
L 760 261
L 760 261
L 760 261
L 760 261
L 760 261
L 760 261
L 760 261
L 760 261
L 760 261
L 760 261
L 760 261
L 760 261
L 760 261
L 760 261
L 760 260
L 760 260
L 760 260
L 760 260
L 760 260
L 760 260
L 760 260
L 760 260
L 760 260
L 760 260
L 760 260
L 760 260
L 760 260
L 760 260
L 760 260
L 760 260
L 760 260
L 760 260
L 760 260
L 760 260
L 760 260
L 760 260
L 760 260
L 760 260
L 760 260
L 760 259
L 760 259
L 760 259
L 760 259
L 760 259
L 760 259
L 760 259
L 760 259
L 760 259
L 760 259
L 760 259
L 760 259
L 760 259
L 760 259
L 760 259
L 760 259
L 760 259
L 760 259
L 760 259
L 760 259
L 760 259
L 760 259
L 760 259
L 760 259
L 760 258
L 760 258
L 760 258
L 760 258
L 760 258
L 761 258
L 761 258
L 761 258
L 761 258
L 761 258
L 761 258
L 761 258
L 761 258
L 761 258
L 761 258
L 761 258
L 761 258
L 761 258
L 761 258
L 761 258
L 761 258
L 761 258
L 761 258
L 761 258
L 761 258
L 761 257
L 761 257
L 761 257
L 761 257
L 761 257
L 761 257
L 761 257
L 761 257
L 761 257
L 761 257
L 761 257
L 761 257
L 761 257
L 761 257
L 761 257
L 761 257
L 762 257
L 762 257
L 762 257
L 762 257
L 762 257
L 762 257
L 762 257
L 762 257
L 762 257
L 762 256
L 762 256
L 762 256
L 762 256
L 762 256
L 762 256
L 762 256
L 762 256
L 762 256
L 762 256
L 762 256
L 762 256
L 762 256
L 762 256
L 762 256
L 762 256
L 762 256
L 762 256
L 762 256
L 762 256
L 763 256
L 763 256
L 763 256
L 763 256
L 763 256
L 763 255
L 763 255
L 763 255
L 763 255
L 763 255
L 763 255
L 763 255
L 763 255
L 763 255
L 763 255
L 763 255
L 763 255
L 763 255
L 763 255
L 763 255
L 763 255
L 763 255
L 763 255
L 763 255
L 763 255
L 763 255
L 764 255
L 764 255
L 764 255
L 764 254
L 764 254
L 764 254
L 764 254
L 764 254
L 764 254
L 764 254
L 764 254
L 764 254
L 764 254
L 764 254
L 764 254
L 764 254
L 764 254
L 764 254
L 764 254
L 764 254
L 764 254
L 764 254
L 764 254
L 764 254
L 764 254
L 764 254
L 764 254
L 764 254
L 764 253
L 764 253
L 764 253
L 765 253
L 765 253
L 765 253
L 765 253
L 765 253
L 765 253
L 765 253
L 765 253
L 765 253
L 765 253
L 765 253
L 765 253
L 765 253
L 766 253
L 766 253
L 766 253
L 766 253
L 766 253
L 766 253
L 766 253
L 766 253
L 766 253
L 766 252
L 766 252
L 766 252
L 767 252
L 767 252
L 767 252
L 767 252
L 767 252
L 767 252
L 767 252
L 767 252
L 767 252
L 767 252
L 767 252
L 768 252
L 768 252
L 768 252
L 768 252
L 768 252
L 768 252
L 768 252
L 768 252
L 768 252
L 768 252
L 769 251
L 769 251
L 769 251
L 769 251
L 769 251
L 769 251
L 769 251
L 769 251
L 769 251
L 769 251
L 769 251
L 769 251
L 769 251
L 770 251
L 770 251
L 770 251
L 770 251
L 770 251
L 770 251
L 770 251
L 770 251
L 770 251
L 770 251
L 770 251
L 770 251
L 770 250
L 770 250
L 770 250
L 770 250
L 770 250
L 770 250
L 771 250
L 771 250
L 771 250
L 771 250
L 771 250
L 771 250
L 771 250
L 771 250
L 771 250
L 771 250
L 771 250
L 771 250
L 771 250
L 771 250
L 772 250
L 772 250
L 772 250
L 772 250
L 772 250
L 772 249
L 772 249
L 772 249
L 772 249
L 772 249
L 772 249
L 772 249
L 772 249
L 772 249
L 772 249
L 772 249
L 773 249
L 773 249
L 773 249
L 773 249
L 773 249
L 773 249
L 773 249
L 773 249
L 773 249
L 773 249
L 773 249
L 773 249
L 773 249
L 774 249
L 774 248
L 774 248
L 774 248
L 774 248
L 774 248
L 774 248
L 774 248
L 774 248
L 774 248
L 774 248
L 774 248
L 774 248
L 774 248
L 774 248
L 774 248
L 774 248
L 774 248
L 774 248
L 774 248
L 774 248
L 774 248
L 774 248
L 774 248
L 774 248
L 775 247
L 775 247
L 775 247
L 775 247
L 775 247
L 775 247
L 775 247
L 775 247
L 775 247
L 775 247
L 775 247
L 775 247
L 776 247
L 776 247
L 776 247
L 776 247
L 776 247
L 776 247
L 776 247
L 776 247
L 776 247
L 777 247
L 777 247
L 777 247
L 777 247
L 777 246
L 777 246
L 778 246
L 778 246
L 778 246
L 778 246
L 778 246
L 778 246
L 778 246
L 778 246
L 778 246
L 778 246
L 778 246
L 778 246
L 778 246
L 778 246
L 778 246
L 778 246
L 778 246
L 778 246
L 778 246
L 778 246
L 778 246
L 778 246
L 778 246
L 778 245
L 778 245
L 778 245
L 778 245
L 778 245
L 778 245
L 778 245
L 778 245
L 778 245
L 778 245
L 778 245
L 778 245
L 778 245
L 778 245
L 778 245
L 778 245
L 778 245
L 778 245
L 778 245
L 778 245
L 778 245
L 779 245
L 779 245
L 779 245
L 779 244
L 779 244
L 779 244
L 779 244
L 779 244
L 779 244
L 779 244
L 779 244
L 779 244
L 779 244
L 779 244
L 779 244
L 779 244
L 779 244
L 779 244
L 779 244
L 779 244
L 779 244
L 779 244
L 779 244
L 779 244
L 779 244
L 779 244
L 779 244
L 779 244
L 779 243
L 779 243
L 779 243
L 779 243
L 779 243
L 779 243
L 779 243
L 779 243
L 779 243
L 779 243
L 779 243
L 779 243
L 779 243
L 779 243
L 779 243
L 779 243
L 779 243
L 779 243
L 779 243
L 779 243
L 779 243
L 779 243
L 779 243
L 779 243
L 779 243
L 779 242
L 779 242
L 779 242
L 779 242
L 779 242
L 779 242
L 779 242
L 779 242
L 779 242
L 779 242
L 779 242
L 779 242
L 779 242
L 779 242
L 779 242
L 779 242
L 779 242
L 779 242
L 779 242
L 779 242
L 779 242
L 779 242
L 779 242
L 779 242
L 779 241
L 780 241
L 780 241
L 780 241
L 780 241
L 780 241
L 780 241
L 780 241
L 780 241
L 780 241
L 780 241
L 780 241
L 780 241
L 780 241
L 780 241
L 780 241
L 780 241
L 780 241
L 780 241
L 780 241
L 780 241
L 780 241
L 780 241
L 780 241
L 780 241
L 780 240
L 780 240
L 780 240
L 780 240
L 780 240
L 780 240
L 780 240
L 780 240
L 780 240
L 780 240
L 780 240
L 780 240
L 780 240
L 780 240
L 780 240
L 780 240
L 780 240
L 780 240
L 780 240
L 780 240
L 780 240
L 780 240
L 780 240
L 780 240
L 780 240
L 780 239
L 780 239
L 780 239
L 780 239
L 780 239
L 780 239
L 781 239
L 781 239
L 781 239
L 781 239
L 781 239
L 781 239
L 781 239
L 781 239
L 781 239
L 781 239
L 781 239
L 781 239
L 781 239
L 781 239
L 781 239
L 781 239
L 781 239
L 781 239
L 781 239
L 781 238
L 781 238
L 781 238
L 781 238
L 781 238
L 781 238
L 781 238
L 781 238
L 781 238
L 781 238
L 781 238
L 781 238
L 781 238
L 781 238
L 781 238
L 781 238
L 781 238
L 781 238
L 781 238
L 781 238
L 781 238
L 781 238
L 781 238
L 781 238
L 781 237
L 781 237
L 781 237
L 781 237
L 781 237
L 781 237
L 781 237
L 781 237
L 781 237
L 781 237
L 781 237
L 781 237
L 781 237
L 781 237
L 781 237
L 781 237
L 781 237
L 781 237
L 781 237
L 781 237
L 781 237
L 781 237
L 781 237
L 781 237
L 781 237
L 781 236
L 781 236
L 781 236
L 781 236
L 781 236
L 781 236
L 781 236
L 781 236
L 781 236
L 781 236
L 781 236
L 781 236
L 781 236
L 781 236
L 781 236
L 781 236
L 781 236
L 781 236
L 781 236
L 781 236
L 781 236
L 781 236
L 781 236
L 781 236
L 781 236
L 781 235
L 781 235
L 781 235
L 781 235
L 781 235
L 781 235
L 781 235
L 781 235
L 781 235
L 781 235
L 781 235
L 781 235
L 781 235
L 781 235
L 781 235
L 781 235
L 781 235
L 781 235
L 781 235
L 781 235
L 781 235
L 781 235
L 781 235
L 781 235
L 781 234
L 781 234
L 781 234
L 781 234
L 781 234
L 781 234
L 781 234
L 781 234
L 781 234
L 781 234
L 781 234
L 781 234
L 781 234
L 781 234
L 781 234
L 781 234
L 781 234
L 781 234
L 781 234
L 781 234
L 781 234
L 781 234
L 781 234
L 781 234
L 781 234
L 781 233
L 781 233
L 781 233
L 781 233
L 781 233
L 781 233
L 781 233
L 781 233
L 781 233
L 781 233
L 781 233
L 781 233
L 781 233
L 781 233
L 781 233
L 781 233
L 781 233
L 781 233
L 781 233
L 781 233
L 781 233
L 781 233
L 781 233
L 781 233
L 781 233
L 781 232
L 781 232
L 781 232
L 781 232
L 781 232
L 781 232
L 781 232
L 781 232
L 781 232
L 781 232
L 781 232
L 781 232
L 781 232
L 781 232
L 781 232
L 781 232
L 781 232
L 781 232
L 781 232
L 781 232
L 781 232
L 781 232
L 781 232
L 781 232
L 781 232
L 781 231
L 781 231
L 781 231
L 781 231
L 781 231
L 781 231
L 781 231
L 781 231
L 781 231
L 781 231
L 781 231
L 781 231
L 781 231
L 781 231
L 781 231
L 781 231
L 781 231
L 781 231
L 781 231
L 781 231
L 781 231
L 781 231
L 781 231
L 781 231
L 781 230
L 781 230
L 781 230
L 781 230
L 781 230
L 781 230
L 781 230
L 781 230
L 781 230
L 781 230
L 781 230
L 781 230
L 781 230
L 781 230
L 781 230
L 781 230
L 781 230
L 781 230
L 781 230
L 781 230
L 782 230
L 782 230
L 782 230
L 782 230
L 782 230
L 782 229
L 782 229
L 782 229
L 782 229
L 782 229
L 782 229
L 782 229
L 782 229
L 782 229
L 782 229
L 782 229
L 782 229
L 782 229
L 782 229
L 782 229
L 782 229
L 782 229
L 782 229
L 782 229
L 782 229
L 782 229
L 782 229
L 782 229
L 782 229
L 782 229
L 782 228
L 782 228
L 782 228
L 782 228
L 782 228
L 782 228
L 782 228
L 782 228
L 782 228
L 782 228
L 782 228
L 782 228
L 782 228
L 782 228
L 782 228
L 782 228
L 782 228
L 782 228
L 782 228
L 782 228
L 782 228
L 782 228
L 782 228
L 782 228
L 782 227
L 782 227
L 782 227
L 782 227
L 782 227
L 782 227
L 782 227
L 782 227
L 782 227
L 782 227
L 782 227
L 782 227
L 782 227
L 782 227
L 782 227
L 782 227
L 782 227
L 782 227
L 782 227
L 782 227
L 782 227
L 782 227
L 782 227
L 782 227
L 782 227
L 782 226
L 782 226
L 782 226
L 782 226
L 782 226
L 782 226
L 782 226
L 782 226
L 782 226
L 782 226
L 782 226
L 782 226
L 782 226
L 782 226
L 782 226
L 782 226
L 782 226
L 782 226
L 782 226
L 782 226
L 782 226
L 782 226
L 782 226
L 782 226
L 782 226
L 782 225
L 782 225
L 782 225
L 782 225
L 782 225
L 782 225
L 782 225
L 782 225
L 782 225
L 782 225
L 782 225
L 782 225
L 782 225
L 782 225
L 782 225
L 782 225
L 782 225
L 782 225
L 782 225
L 782 225
L 782 225
L 782 225
L 782 225
L 782 225
L 782 224
L 782 224
L 782 224
L 782 224
L 782 224
L 782 224
L 782 224
L 782 224
L 782 224
L 782 224
L 782 224
L 782 224
L 782 224
L 782 224
L 782 224
L 782 224
L 782 224
L 782 224
L 782 224
L 782 224
L 782 224
L 782 224
L 782 224
L 782 224
L 782 224
L 782 223
L 782 223
L 782 223
L 782 223
L 782 223
L 782 223
L 782 223
L 782 223
L 782 223
L 782 223
L 782 223
L 782 223
L 782 223
L 782 223
L 782 223
L 782 223
L 782 223
L 782 223
L 782 223
L 782 223
L 782 223
L 782 223
L 782 223
L 782 223
L 782 223
L 782 222
L 782 222
L 782 222
L 782 222
L 782 222
L 782 222
L 782 222
L 782 222
L 782 222
L 782 222
L 782 222
L 782 222
L 782 222
L 782 222
L 782 222
L 782 222
L 782 222
L 782 222
L 782 222
L 782 222
L 782 222
L 782 222
L 782 222
L 782 222
L 782 222
L 782 221
L 782 221
L 782 221
L 782 221
L 782 221
L 782 221
L 782 221
L 782 221
L 782 221
L 782 221
L 782 221
L 782 221
L 782 221
L 782 221
L 782 221
L 782 221
L 782 221
L 782 221
L 782 221
L 782 221
L 782 221
L 782 221
L 782 221
L 782 221
L 782 220
L 782 220
L 782 220
L 782 220
L 782 220
L 782 220
L 782 220
L 782 220
L 782 220
L 782 220
L 782 220
L 782 220
L 782 220
L 782 220
L 782 220
L 782 220
L 782 220
L 782 220
L 782 220
L 782 220
L 782 220
L 782 220
L 782 220
L 782 220
L 782 220
L 782 219
L 782 219
L 782 219
L 782 219
L 782 219
L 782 219
L 782 219
L 782 219
L 782 219
L 782 219
L 782 219
L 782 219
L 782 219
L 782 219
L 782 219
L 782 219
L 782 219
L 782 219
L 782 219
L 782 219
L 782 219
L 782 219
L 782 219
L 782 219
L 782 219
L 782 218
L 782 218
L 782 218
L 782 218
L 782 218
L 782 218
L 782 218
L 782 218
L 782 218
L 782 218
L 782 218
L 782 218
L 782 218
L 782 218
L 782 218
L 782 218
L 782 218
L 782 218
L 782 218
L 782 218
L 782 218
L 782 218
L 782 218
L 782 218
L 782 217
L 782 217
L 782 217
L 782 217
L 782 217
L 782 217
L 782 217
L 782 217
L 782 217
L 782 217
L 782 217
L 782 217
L 782 217
L 782 217
L 782 217
L 782 217
L 782 217
L 782 217
L 782 217
L 782 217
L 782 217
L 782 217
L 782 217
L 782 217
L 782 217
L 782 216
L 782 216
L 782 216
L 782 216
L 782 216
L 782 216
L 782 216
L 782 216
L 782 216
L 782 216
L 782 216
L 782 216
L 782 216
L 782 216
L 782 216
L 782 216
L 782 216
L 782 216
L 782 216
L 782 216
L 782 216
L 782 216
L 782 216
L 782 216
L 782 216
L 782 215
L 782 215
L 782 215
L 782 215
L 782 215
L 782 215
L 782 215
L 782 215
L 782 215
L 782 215
L 782 215
L 782 215
L 782 215
L 782 215
L 782 215
L 782 215
L 782 215
L 782 215
L 782 215
L 782 215
L 782 215
L 782 215
L 782 215
L 782 215
L 782 215
L 782 214
L 782 214
L 782 214
L 782 214
L 782 214
L 782 214
L 782 214
L 782 214
L 782 214
L 782 214
L 782 214
L 782 214
L 782 214
L 782 214
L 782 214
L 782 214
L 782 214
L 782 214
L 782 214
L 782 214
L 783 214
L 783 214
L 783 214
L 783 214
L 783 213
L 783 213
L 783 213
L 783 213
L 783 213
L 783 213
L 783 213
L 783 213
L 783 213
L 783 213
L 783 213
L 783 213
L 783 213
L 783 213
L 783 213
L 783 213
L 783 213
L 783 213
L 783 213
L 783 213
L 783 213
L 783 213
L 783 213
L 783 213
L 783 213
L 783 212
L 783 212
L 783 212
L 783 212
L 783 212
L 783 212
L 783 212
L 783 212
L 783 212
L 783 212
L 783 212
L 783 212
L 783 212
L 783 212
L 783 212
L 783 212
L 783 212
L 783 212
L 783 212
L 783 212
L 783 212
L 783 212
L 783 212
L 783 212
L 783 212
L 783 211
L 783 211
L 783 211
L 783 211
L 783 211
L 783 211
L 783 211
L 783 211
L 783 211
L 783 211
L 783 211
L 783 211
L 783 211
L 783 211
L 783 211
L 783 211
L 783 211
L 783 211
L 783 211
L 783 211
L 783 211
L 783 211
L 783 211
L 783 211
L 783 210
L 783 210
L 783 210
L 783 210
L 783 210
L 783 210
L 783 210
L 783 210
L 783 210
L 783 210
L 783 210
L 783 210
L 783 210
L 783 210
L 783 210
L 783 210
L 783 210
L 783 210
L 783 210
L 783 210
L 783 210
L 783 210
L 783 210
L 783 210
L 783 210
L 783 209
L 783 209
L 783 209
L 783 209
L 783 209
L 783 209
L 783 209
L 783 209
L 783 209
L 783 209
L 783 209
L 783 209
L 783 209
L 783 209
L 783 209
L 783 209
L 783 209
L 783 209
L 783 209
L 783 209
L 783 209
L 783 209
L 783 209
L 783 209
L 783 209
L 783 208
L 783 208
L 783 208
L 783 208
L 783 208
L 783 208
L 783 208
L 783 208
L 783 208
L 783 208
L 783 208
L 783 208
L 783 208
L 783 208
L 783 208
L 783 208
L 783 208
L 783 208
L 783 208
L 783 208
L 783 208
L 783 208
L 783 208
L 783 208
L 783 207
L 783 207
L 783 207
L 783 207
L 783 207
L 783 207
L 783 207
L 783 207
L 783 207
L 783 207
L 783 207
L 783 207
L 783 207
L 783 207
L 783 207
L 783 207
L 783 207
L 783 207
L 783 207
L 783 207
L 783 207
L 783 207
L 783 207
L 783 207
L 783 207
L 783 206
L 783 206
L 783 206
L 783 206
L 783 206
L 783 206
L 783 206
L 783 206
L 783 206
L 783 206
L 783 206
L 783 206
L 783 206
L 784 206
L 784 206
L 784 206
L 784 206
L 784 206
L 784 206
L 784 206
L 784 206
L 784 206
L 784 206
L 784 206
L 784 206
L 784 205
L 784 205
L 784 205
L 784 205
L 784 205
L 784 205
L 784 205
L 784 205
L 784 205
L 784 205
L 784 205
L 784 205
L 784 205
L 784 205
L 784 205
L 784 205
L 784 205
L 784 205
L 784 205
L 784 205
L 784 205
L 784 205
L 784 205
L 784 205
L 784 205
L 784 204
L 784 204
L 784 204
L 784 204
L 784 204
L 784 204
L 784 204
L 784 204
L 784 204
L 784 204
L 784 204
L 784 204
L 784 204
L 784 204
L 784 204
L 784 204
L 784 204
L 784 204
L 784 204
L 784 204
L 784 204
L 784 204
L 784 204
L 784 204
L 784 203
L 784 203
L 784 203
L 784 203
L 784 203
L 784 203
L 784 203
L 784 203
L 784 203
L 784 203
L 784 203
L 784 203
L 784 203
L 784 203
L 784 203
L 784 203
L 784 203
L 784 203
L 784 203
L 784 203
L 784 203
L 784 203
L 784 203
L 784 203
L 784 203
L 784 202
L 784 202
L 784 202
L 784 202
L 784 202
L 784 202
L 784 202
L 784 202
L 784 202
L 784 202
L 784 202
L 784 202
L 785 202
L 785 202
L 785 202
L 785 202
L 785 202
L 785 202
L 785 202
L 785 202
L 785 202
L 785 202
L 785 202
L 786 202
L 786 202
L 786 201
L 786 201
L 786 201
L 786 201
L 786 201
L 786 201
L 786 201
L 786 201
L 786 201
L 786 201
L 786 201
L 786 201
L 786 201
L 786 201
L 786 201
L 786 201
L 786 201
L 786 201
L 786 201
L 787 201
L 787 201
L 787 201
L 787 201
L 787 201
L 787 200
L 787 200
L 787 200
L 787 200
L 787 200
L 787 200
L 787 200
L 787 200
L 787 200
L 787 200
L 787 200
L 787 200
L 787 200
L 787 200
L 787 200
L 787 200
L 787 200
L 787 200
L 787 200
L 787 200
L 787 200
L 787 200
L 787 200
L 787 200
L 787 200
L 787 199
L 787 199
L 787 199
L 787 199
L 788 199
L 788 199
L 788 199
L 788 199
L 788 199
L 788 199
L 788 199
L 788 199
L 788 199
L 788 199
L 788 199
L 788 199
L 788 199
L 788 199
L 788 199
L 788 199
L 788 199
L 788 199
L 788 199
L 788 199
L 788 199
L 788 198
L 788 198
L 788 198
L 788 198
L 789 198
L 789 198
L 789 198
L 789 198
L 789 198
L 789 198
L 789 198
L 789 198
L 789 198
L 789 198
L 789 198
L 789 198
L 789 198
L 789 198
L 789 198
L 789 198
L 789 198
L 789 198
L 789 198
L 789 198
L 789 198
L 789 197
L 790 197
L 790 197
L 790 197
L 790 197
L 790 197
L 790 197
L 790 197
L 790 197
L 790 197
L 790 197
L 790 197
L 790 197
L 790 197
L 790 197
L 790 197
L 790 197
L 790 197
L 790 197
L 790 197
L 790 197
L 790 197
L 790 197
L 790 197
L 790 196
L 790 196
L 790 196
L 790 196
L 790 196
L 790 196
L 790 196
L 790 196
L 790 196
L 791 196
L 791 196
L 791 196
L 791 196
L 791 196
L 791 196
L 791 196
L 791 196
L 791 196
L 791 196
L 791 196
L 791 196
L 791 196
L 791 196
L 791 196
L 791 196
L 791 195
L 791 195
L 791 195
L 791 195
L 791 195
L 791 195
L 791 195
L 791 195
L 792 195
L 792 195
L 792 195
L 792 195
L 792 195
L 792 195
L 792 195
L 792 195
L 792 195
L 792 195
L 792 195
L 792 195
L 792 195
L 792 195
L 792 195
L 793 195
L 793 195
L 793 194
L 793 194
L 793 194
L 793 194
L 793 194
L 793 194
L 793 194
L 793 194
L 793 194
L 793 194
L 793 194
L 793 194
L 793 194
L 793 194
L 793 194
L 793 194
L 793 194
L 793 194
L 793 194
L 793 194
L 793 194
L 793 194
L 793 194
L 793 194
L 794 193
L 794 193
L 794 193
L 794 193
L 794 193
L 794 193
L 794 193
L 794 193
L 794 193
L 794 193
L 794 193
L 795 193
L 795 193
L 795 193
L 795 193
L 795 193
L 795 193
L 795 193
L 795 193
L 795 193
L 795 193
L 795 193
L 796 193
L 796 193
L 796 193
L 796 192
L 796 192
L 796 192
L 796 192
L 796 192
L 796 192
L 796 192
L 796 192
L 796 192
L 796 192
L 796 192
L 796 192
L 796 192
L 796 192
L 796 192
L 796 192
L 796 192
L 796 192
L 796 192
L 797 192
L 797 192
L 797 192
L 797 192
L 797 192
L 797 192
L 797 191
L 797 191
L 797 191
L 797 191
L 797 191
L 797 191
L 797 191
L 797 191
L 797 191
L 797 191
L 797 191
L 797 191
L 797 191
L 797 191
L 797 191
L 797 191
L 797 191
L 797 191
L 797 191
L 797 191
L 797 191
L 798 191
L 798 191
L 798 191
L 798 190
L 798 190
L 798 190
L 798 190
L 798 190
L 798 190
L 799 190
L 799 190
L 799 190
L 799 190
L 799 190
L 799 190
L 799 190
L 799 190
L 799 190
L 799 190
L 799 190
L 799 190
L 800 190
L 800 190
L 800 190
L 800 190
L 800 190
L 800 190
L 800 190
L 800 189
L 800 189
L 800 189
L 801 189
L 801 189
L 801 189
L 801 189
L 801 189
L 801 189
L 801 189
L 801 189
L 801 189
L 801 189
L 801 189
L 801 189
L 801 189
L 801 189
L 801 189
L 801 189
L 801 189
L 801 189
L 801 189
L 801 189
L 801 189
L 801 189
L 801 188
L 801 188
L 801 188
L 801 188
L 801 188
L 801 188
L 801 188
L 801 188
L 801 188
L 801 188
L 801 188
L 801 188
L 801 188
L 801 188
L 801 188
L 801 188
L 801 188
L 801 188
L 801 188
L 802 188
L 802 188
L 802 188
L 802 188
L 802 188
L 802 188
L 802 187
L 802 187
L 802 187
L 802 187
L 802 187
L 802 187
L 802 187
L 802 187
L 802 187
L 802 187
L 802 187
L 802 187
L 802 187
L 802 187
L 802 187
L 802 187
L 802 187
L 802 187
L 802 187
L 802 187
L 802 187
L 802 187
L 802 187
L 802 187
L 802 186
L 802 186
L 802 186
L 802 186
L 802 186
L 802 186
L 802 186
L 802 186
L 802 186
L 802 186
L 802 186
L 802 186
L 802 186
L 802 186
L 802 186
L 802 186
L 802 186
L 802 186
L 802 186
L 802 186
L 802 186
L 802 186
L 802 186
L 802 186
L 802 186
L 802 185
L 802 185
L 802 185
L 802 185
L 802 185
L 802 185
L 802 185
L 802 185
L 802 185
L 802 185
L 802 185
L 802 185
L 802 185
L 802 185
L 802 185
L 802 185
L 802 185
L 802 185
L 802 185
L 802 185
L 802 185
L 802 185
L 802 185
L 802 185
L 802 185
L 802 184
L 802 184
L 802 184
L 802 184
L 802 184
L 802 184
L 802 184
L 802 184
L 802 184
L 802 184
L 802 184
L 802 184
L 802 184
L 802 184
L 802 184
L 802 184
L 802 184
L 802 184
L 802 184
L 802 184
L 803 184
L 803 184
L 803 184
L 803 184
L 803 183
L 803 183
L 803 183
L 803 183
L 803 183
L 803 183
L 803 183
L 803 183
L 803 183
L 803 183
L 803 183
L 803 183
L 803 183
L 803 183
L 803 183
L 803 183
L 803 183
L 803 183
L 803 183
L 803 183
L 803 183
L 803 183
L 803 183
L 803 183
L 803 183
L 803 182
L 803 182
L 803 182
L 803 182
L 803 182
L 803 182
L 803 182
L 803 182
L 803 182
L 803 182
L 803 182
L 803 182
L 803 182
L 803 182
L 803 182
L 803 182
L 803 182
L 803 182
L 803 182
L 803 182
L 803 182
L 803 182
L 803 182
L 803 182
L 803 182
L 803 181
L 803 181
L 803 181
L 803 181
L 803 181
L 803 181
L 803 181
L 803 181
L 803 181
L 803 181
L 803 181
L 803 181
L 803 181
L 803 181
L 803 181
L 803 181
L 803 181
L 803 181
L 803 181
L 803 181
L 803 181
L 803 181
L 803 181
L 803 181
L 803 181
L 803 180
L 803 180
L 803 180
L 803 180
L 803 180
L 803 180
L 803 180
L 803 180
L 803 180
L 803 180
L 803 180
L 803 180
L 803 180
L 803 180
L 803 180
L 803 180
L 803 180
L 803 180
L 803 180
L 803 180
L 803 180
L 803 180
L 803 180
L 803 180
L 803 179
L 803 179
L 803 179
L 803 179
L 803 179
L 803 179
L 803 179
L 803 179
L 803 179
L 803 179
L 803 179
L 803 179
L 803 179
L 803 179
L 803 179
L 803 179
L 803 179
L 803 179
L 803 179
L 803 179
L 803 179
L 803 179
L 803 179
L 803 179
L 803 179
L 803 178
L 803 178
L 803 178
L 803 178
L 803 178
L 803 178
L 803 178
L 803 178
L 803 178
L 803 178
L 803 178
L 803 178
L 803 178
L 803 178
L 803 178
L 803 178
L 803 178
L 803 178
L 803 178
L 803 178
L 803 178
L 803 178
L 803 178
L 803 178
L 803 178
L 803 177
L 803 177
L 803 177
L 803 177
L 803 177
L 803 177
L 803 177
L 803 177
L 803 177
L 803 177
L 803 177
L 803 177
L 803 177
L 803 177
L 803 177
L 803 177
L 803 177
L 803 177
L 803 177
L 803 177
L 803 177
L 803 177
L 803 177
L 803 177
L 803 176
L 803 176
L 803 176
L 803 176
L 803 176
L 803 176
L 803 176
L 803 176
L 803 176
L 803 176
L 803 176
L 803 176
L 803 176
L 803 176
L 803 176
L 803 176
L 803 176
L 803 176
L 803 176
L 803 176
L 803 176
L 803 176
L 803 176
L 803 176
L 803 176
L 803 175
L 803 175
L 803 175
L 803 175
L 803 175
L 803 175
L 803 175
L 803 175
L 803 175
L 803 175
L 803 175
L 803 175
L 803 175
L 803 175
L 803 175
L 803 175
L 803 175
L 803 175
L 803 175
L 803 175
L 803 175
L 803 175
L 803 175
L 803 175
L 803 175
L 803 174
L 803 174
L 803 174
L 803 174
L 803 174
L 803 174
L 803 174
L 803 174
L 803 174
L 803 174
L 803 174
L 803 174
L 803 174
L 803 174
L 803 174
L 803 174
L 803 174
L 803 174
L 803 174
L 803 174
L 803 174
L 803 174
L 803 174
L 803 174
L 803 173
L 803 173
L 803 173
L 803 173
L 803 173
L 803 173
L 803 173
L 803 173
L 803 173
L 803 173
L 803 173
L 803 173
L 803 173
L 803 173
L 803 173
L 803 173
L 803 173
L 803 173
L 803 173
L 803 173
L 803 173
L 803 173
L 803 173
L 803 173
L 803 173
L 803 172
L 803 172
L 803 172
L 803 172
L 803 172
L 803 172
L 803 172
L 803 172
L 803 172
L 803 172
L 803 172
L 803 172
L 803 172
L 803 172
L 803 172
L 803 172
L 803 172
L 803 172
L 803 172
L 803 172
L 803 172
L 803 172
L 803 172
L 803 172
L 803 172
L 803 171
L 803 171
L 803 171
L 803 171
L 803 171
L 803 171
L 803 171
L 803 171
L 803 171
L 803 171
L 803 171
L 803 171
L 803 171
L 803 171
L 803 171
L 803 171
L 803 171
L 803 171
L 803 171
L 803 171
L 803 171
L 803 171
L 803 171
L 803 171
L 803 171
L 803 170
L 803 170
L 803 170
L 803 170
L 803 170
L 803 170
L 803 170
L 803 170
L 803 170
L 803 170
L 803 170
L 803 170
L 803 170
L 803 170
L 803 170
L 803 170
L 803 170
L 803 170
L 803 170
L 803 170
L 803 170
L 803 170
L 803 170
L 803 170
L 803 169
L 803 169
L 803 169
L 803 169
L 803 169
L 803 169
L 803 169
L 803 169
L 803 169
L 803 169
L 803 169
L 803 169
L 803 169
L 803 169
L 803 169
L 804 169
L 804 169
L 804 169
L 804 169
L 804 169
L 804 169
L 804 169
L 804 169
L 804 169
L 804 169
L 804 168
L 804 168
L 804 168
L 804 168
L 804 168
L 804 168
L 804 168
L 804 168
L 804 168
L 804 168
L 804 168
L 804 168
L 804 168
L 804 168
L 804 168
L 804 168
L 804 168
L 804 168
L 804 168
L 804 168
L 804 168
L 804 168
L 804 168
L 804 168
L 804 168
L 804 167
L 804 167
L 804 167
L 804 167
L 804 167
L 804 167
L 804 167
L 804 167
L 804 167
L 804 167
L 804 167
L 804 167
L 804 167
L 804 167
L 804 167
L 804 167
L 804 167
L 804 167
L 804 167
L 804 167
L 804 167
L 804 167
L 804 167
L 804 167
L 804 166
L 804 166
L 804 166
L 804 166
L 804 166
L 804 166
L 804 166
L 804 166
L 804 166
L 804 166
L 804 166
L 804 166
L 804 166
L 804 166
L 804 166
L 804 166
L 804 166
L 804 166
L 804 166
L 804 166
L 804 166
L 804 166
L 804 166
L 804 166
L 804 166
L 804 165
L 804 165
L 804 165
L 804 165
L 804 165
L 804 165
L 804 165
L 804 165
L 804 165
L 804 165
L 804 165
L 804 165
L 804 165
L 804 165
L 804 165
L 804 165
L 804 165
L 804 165
L 804 165
L 804 165
L 804 165
L 804 165
L 804 165
L 804 165
L 804 165
L 804 164
L 804 164
L 804 164
L 804 164
L 804 164
L 804 164
L 804 164
L 804 164
L 804 164
L 804 164
L 804 164
L 804 164
L 804 164
L 804 164
L 804 164
L 804 164
L 804 164
L 804 164
L 804 164
L 804 164
L 804 164
L 804 164
L 804 164
L 804 164
L 804 163
L 804 163
L 804 163
L 804 163
L 804 163
L 804 163
L 804 163
L 804 163
L 804 163
L 804 163
L 804 163
L 804 163
L 804 163
L 804 163
L 804 163
L 804 163
L 804 163
L 804 163
L 804 163
L 804 163
L 804 163
L 804 163
L 804 163
L 804 163
L 804 163
L 804 162
L 804 162
L 804 162
L 804 162
L 804 162
L 804 162
L 804 162
L 804 162
L 804 162
L 804 162
L 804 162
L 804 162
L 804 162
L 804 162
L 804 162
L 804 162
L 804 162
L 804 162
L 804 162
L 804 162
L 804 162
L 804 162
L 804 162
L 804 162
L 804 162
L 804 161
L 804 161
L 804 161
L 804 161
L 804 161
L 804 161
L 804 161
L 804 161
L 804 161
L 804 161
L 804 161
L 804 161
L 804 161
L 804 161
L 804 161
L 804 161
L 804 161
L 804 161
L 804 161
L 804 161
L 804 161
L 804 161
L 804 161
L 804 161
L 804 161
L 804 160
L 804 160
L 804 160
L 804 160
L 804 160
L 804 160
L 804 160
L 804 160
L 804 160
L 804 160
L 804 160
L 804 160
L 804 160
L 804 160
L 804 160
L 804 160
L 804 160
L 804 160
L 804 160
L 804 160
L 804 160
L 804 160
L 804 160
L 804 160
L 804 159
L 804 159
L 804 159
L 804 159
L 804 159
L 804 159
L 804 159
L 804 159
L 804 159
L 804 159
L 804 159
L 804 159
L 804 159
L 804 159
L 804 159
L 804 159
L 804 159
L 804 159
L 804 159
L 804 159
L 804 159
L 804 159
L 804 159
L 804 159
L 804 159
L 804 158
L 804 158
L 804 158
L 804 158
L 804 158
L 804 158
L 804 158
L 804 158
L 804 158
L 804 158
L 804 158
L 804 158
L 804 158
L 804 158
L 804 158
L 804 158
L 804 158
L 804 158
L 804 158
L 804 158
L 804 158
L 804 158
L 804 158
L 804 158
L 804 158
L 804 157
L 804 157
L 804 157
L 804 157
L 804 157
L 804 157
L 804 157
L 804 157
L 804 157
L 804 157
L 804 157
L 804 157
L 804 157
L 804 157
L 804 157
L 804 157
L 804 157
L 804 157
L 804 157
L 804 157
L 804 157
L 804 157
L 804 157
L 804 157
L 804 156
L 804 156
L 804 156
L 804 156
L 804 156
L 804 156
L 804 156
L 804 156
L 804 156
L 804 156
L 804 156
L 804 156
L 804 156
L 804 156
L 804 156
L 804 156
L 804 156
L 804 156
L 804 156
L 804 156
L 804 156
L 804 156
L 804 156
L 804 156
L 804 156
L 804 155
L 804 155
L 804 155
L 804 155
L 804 155
L 804 155
L 804 155
L 804 155
L 804 155
L 804 155
L 804 155
L 804 155
L 804 155
L 804 155
L 804 155
L 804 155
L 804 155
L 804 155
L 804 155
L 804 155
L 804 155
L 804 155
L 804 155
L 804 155
L 804 155
L 804 154
L 804 154
L 804 154
L 804 154
L 804 154
L 804 154
L 804 154
L 804 154
L 804 154
L 804 154
L 804 154
L 804 154
L 804 154
L 804 154
L 804 154
L 804 154
L 804 154
L 804 154
L 804 154
L 804 154
L 804 154
L 805 154
L 805 154
L 805 154
L 805 154
L 805 153
L 805 153
L 805 153
L 805 153
L 805 153
L 805 153
L 805 153
L 805 153
L 805 153
L 805 153
L 805 153
L 805 153
L 805 153
L 805 153
L 805 153
L 805 153
L 805 153
L 805 153
L 805 153
L 805 153
L 805 153
L 805 153
L 805 153
L 805 153
L 805 152
L 805 152
L 805 152
L 805 152
L 805 152
L 805 152
L 805 152
L 805 152
L 805 152
L 805 152
L 805 152
L 805 152
L 805 152
L 805 152
L 805 152
L 805 152
L 805 152
L 805 152
L 805 152
L 805 152
L 805 152
L 805 152
L 805 152
L 805 152
L 805 152
L 805 151
L 805 151
L 805 151
L 805 151
L 805 151
L 805 151
L 805 151
L 805 151
L 805 151
L 805 151
L 805 151
L 805 151
L 805 151
L 805 151
L 805 151
L 805 151
L 805 151
L 805 151
L 805 151
L 805 151
L 805 151
L 805 151
L 805 151
L 805 151
L 805 151
L 805 150
L 805 150
L 805 150
L 805 150
L 805 150
L 805 150
L 805 150
L 805 150
L 805 150
L 805 150
L 805 150
L 805 150
L 805 150
L 805 150
L 805 150
L 805 150
L 805 150
L 805 150
L 805 150
L 805 150
L 805 150
L 805 150
L 805 150
L 805 150
L 805 149
L 805 149
L 805 149
L 805 149
L 805 149
L 805 149
L 805 149
L 805 149
L 805 149
L 805 149
L 805 149
L 805 149
L 805 149
L 805 149
L 805 149
L 805 149
L 805 149
L 805 149
L 805 149
L 805 149
L 805 149
L 805 149
L 805 149
L 805 149
L 805 149
L 805 148
L 805 148
L 805 148
L 805 148
L 805 148
L 805 148
L 805 148
L 805 148
L 805 148
L 805 148
L 805 148
L 805 148
L 805 148
L 805 148
L 805 148
L 805 148
L 805 148
L 805 148
L 805 148
L 805 148
L 805 148
L 805 148
L 805 148
L 805 148
L 805 148
L 805 147
L 805 147
L 805 147
L 805 147
L 805 147
L 805 147
L 805 147
L 805 147
L 805 147
L 805 147
L 805 147
L 805 147
L 805 147
L 805 147
L 805 147
L 805 147
L 805 147
L 805 147
L 805 147
L 805 147
L 805 147
L 805 147
L 805 147
L 805 147
L 805 147
L 805 146
L 805 146
L 805 146
L 805 146
L 805 146
L 805 146
L 805 146
L 805 146
L 805 146
L 805 146
L 805 146
L 805 146
L 805 146
L 805 146
L 805 146
L 805 146
L 805 146
L 805 146
L 805 146
L 805 146
L 805 146
L 805 146
L 805 146
L 805 146
L 805 145
L 805 145
L 805 145
L 805 145
L 805 145
L 805 145
L 805 145
L 805 145
L 805 145
L 805 145
L 805 145
L 805 145
L 805 145
L 805 145
L 805 145
L 805 145
L 805 145
L 805 145
L 805 145
L 805 145
L 806 145
L 806 145
L 806 145
L 806 145
L 806 145
L 806 144
L 806 144
L 806 144
L 806 144
L 806 144
L 806 144
L 806 144
L 806 144
L 806 144
L 806 144
L 806 144
L 806 144
L 806 144
L 806 144
L 806 144
L 806 144
L 806 144
L 806 144
L 806 144
L 806 144
L 806 144
L 806 144
L 806 144
L 806 144
L 806 144
L 806 143
L 806 143
L 806 143
L 806 143
L 806 143
L 806 143
L 806 143
L 806 143
L 806 143
L 806 143
L 806 143
L 806 143
L 806 143
L 806 143
L 806 143
L 806 143
L 806 143
L 806 143
L 806 143
L 806 143
L 806 143
L 806 143
L 806 143
L 806 143
L 806 142
L 806 142
L 806 142
L 806 142
L 806 142
L 806 142
L 806 142
L 806 142
L 806 142
L 806 142
L 806 142
L 806 142
L 806 142
L 806 142
L 806 142
L 806 142
L 806 142
L 806 142
L 806 142
L 806 142
L 806 142
L 806 142
L 806 142
L 806 142
L 806 142
L 806 141
L 806 141
L 806 141
L 806 141
L 806 141
L 806 141
L 806 141
L 806 141
L 806 141
L 806 141
L 806 141
L 806 141
L 806 141
L 806 141
L 806 141
L 806 141
L 806 141
L 806 141
L 806 141
L 806 141
L 806 141
L 806 141
L 806 141
L 806 141
L 806 141
L 806 140
L 806 140
L 806 140
L 806 140
L 806 140
L 806 140
L 806 140
L 806 140
L 806 140
L 806 140
L 806 140
L 806 140
L 806 140
L 806 140
L 807 140
L 807 140
L 807 140
L 807 140
L 807 140
L 807 140
L 807 140
L 807 140
L 807 140
L 807 140
L 807 139
L 807 139
L 807 139
L 807 139
L 807 139
L 807 139
L 807 139
L 807 139
L 807 139
L 807 139
L 807 139
L 807 139
L 807 139
L 807 139
L 807 139
L 807 139
L 807 139
L 807 139
L 807 139
L 807 139
L 807 139
L 807 139
L 807 139
L 807 139
L 807 139
L 807 138
L 807 138
L 807 138
L 807 138
L 807 138
L 807 138
L 807 138
L 807 138
L 807 138
L 807 138
L 807 138
L 807 138
L 807 138
L 807 138
L 807 138
L 807 138
L 807 138
L 807 138
L 807 138
L 807 138
L 807 138
L 807 138
L 807 138
L 807 138
L 807 138
L 807 137
L 807 137
L 807 137
L 807 137
L 807 137
L 807 137
L 807 137
L 807 137
L 807 137
L 808 137
L 808 137
L 808 137
L 808 137
L 808 137
L 808 137
L 808 137
L 808 137
L 808 137
L 808 137
L 808 137
L 808 137
L 808 137
L 808 137
L 808 137
L 808 137
L 808 136
L 808 136
L 808 136
L 808 136
L 808 136
L 808 136
L 808 136
L 808 136
L 808 136
L 808 136
L 808 136
L 808 136
L 808 136
L 808 136
L 808 136
L 808 136
L 808 136
L 808 136
L 808 136
L 808 136
L 808 136
L 808 136
L 808 136
L 808 136
L 808 135
L 808 135
L 808 135
L 808 135
L 808 135
L 808 135
L 808 135
L 808 135
L 808 135
L 808 135
L 808 135
L 808 135
L 808 135
L 808 135
L 808 135
L 808 135
L 808 135
L 808 135
L 808 135
L 808 135
L 808 135
L 808 135
L 808 135
L 808 135
L 808 135
L 808 134
L 808 134
L 808 134
L 808 134
L 808 134
L 808 134
L 808 134
L 808 134
L 808 134
L 808 134
L 808 134
L 808 134
L 808 134
L 808 134
L 809 134
L 809 134
L 809 134
L 809 134
L 809 134
L 809 134
L 809 134
L 809 134
L 809 134
L 809 134
L 809 134
L 809 133
L 809 133
L 809 133
L 809 133
L 809 133
L 809 133
L 809 133
L 809 133
L 809 133
L 809 133
L 809 133
L 809 133
L 809 133
L 809 133
L 809 133
L 809 133
L 809 133
L 809 133
L 809 133
L 809 133
L 809 133
L 809 133
L 809 133
L 809 133
L 809 132
L 809 132
L 810 132
L 810 132
L 810 132
L 810 132
L 810 132
L 810 132
L 810 132
L 810 132
L 810 132
L 810 132
L 810 132
L 810 132
L 810 132
L 810 132
L 810 132
L 810 132
L 810 132
L 810 132
L 810 132
L 810 132
L 810 132
L 810 132
L 810 132
L 810 131
L 810 131
L 810 131
L 810 131
L 810 131
L 810 131
L 810 131
L 810 131
L 810 131
L 811 131
L 811 131
L 811 131
L 811 131
L 811 131
L 811 131
L 811 131
L 811 131
L 811 131
L 811 131
L 811 131
L 811 131
L 811 131
L 811 131
L 811 131
L 811 131
L 812 130
L 812 130
L 812 130
L 812 130
L 812 130
L 812 130
L 812 130
L 812 130
L 812 130
L 812 130
L 812 130
L 812 130
L 812 130
L 812 130
L 812 130
L 812 130
L 812 130
L 812 130
L 812 130
L 812 130
L 812 130
L 812 130
L 812 130
L 812 130
L 812 130
L 812 129
L 812 129
L 812 129
L 812 129
L 812 129
L 812 129
L 812 129
L 813 129
L 813 129
L 813 129
L 813 129
L 813 129
L 813 129
L 813 129
L 813 129
L 813 129
L 813 129
L 813 129
L 813 129
L 813 129
L 813 129
L 813 129
L 813 129
L 813 129
L 813 128
L 813 128
L 813 128
L 813 128
L 813 128
L 813 128
L 813 128
L 813 128
L 814 128
L 814 128
L 814 128
L 814 128
L 814 128
L 814 128
L 814 128
L 814 128
L 814 128
L 814 128
L 814 128
L 814 128
L 814 128
L 814 128
L 814 128
L 814 128
L 814 128
L 814 127
L 814 127
L 814 127
L 814 127
L 814 127
L 814 127
L 814 127
L 814 127
L 815 127
L 815 127
L 815 127
L 815 127
L 815 127
L 815 127
L 815 127
L 815 127
L 815 127
L 815 127
L 815 127
L 815 127
L 815 127
L 815 127
L 815 127
L 815 127
L 815 127
L 815 126
L 815 126
L 815 126
L 815 126
L 815 126
L 815 126
L 815 126
L 815 126
L 815 126
L 815 126
L 815 126
L 815 126
L 815 126
L 815 126
L 816 126
L 816 126
L 816 126
L 816 126
L 816 126
L 816 126
L 816 126
L 816 126
L 816 126
L 816 126
L 816 125
L 816 125
L 816 125
L 816 125
L 817 125
L 817 125
L 817 125
L 817 125
L 817 125
L 817 125
L 817 125
L 817 125
L 817 125
L 817 125
L 817 125
L 817 125
L 818 125
L 818 125
L 818 125
L 818 125
L 818 125
L 818 125
L 818 125
L 818 125
L 818 125
L 818 124
L 818 124
L 818 124
L 818 124
L 818 124
L 818 124
L 818 124
L 818 124
L 818 124
L 818 124
L 818 124
L 818 124
L 818 124
L 819 124
L 819 124
L 819 124
L 819 124
L 819 124
L 819 124
L 819 124
L 819 124
L 819 124
L 819 124
L 819 124
L 819 124
L 819 123
L 819 123
L 819 123
L 819 123
L 819 123
L 819 123
L 819 123
L 819 123
L 819 123
L 819 123
L 819 123
L 819 123
L 819 123
L 819 123
L 819 123
L 819 123
L 819 123
L 819 123
L 819 123
L 819 123
L 819 123
L 819 123
L 819 123
L 819 123
L 819 122
L 819 122
L 819 122
L 820 122
L 820 122
L 820 122
L 820 122
L 820 122
L 820 122
L 820 122
L 820 122
L 820 122
L 820 122
L 820 122
L 820 122
L 820 122
L 820 122
L 820 122
L 820 122
L 820 122
L 820 122
L 820 122
L 820 122
L 820 122
L 820 122
L 820 121
L 820 121
L 820 121
L 820 121
L 820 121
L 820 121
L 820 121
L 820 121
L 820 121
L 820 121
L 820 121
L 820 121
L 820 121
L 820 121
L 820 121
L 820 121
L 820 121
L 820 121
L 820 121
L 820 121
L 820 121
L 820 121
L 820 121
L 821 121
L 821 121
L 821 120
L 821 120
L 821 120
L 821 120
L 821 120
L 821 120
L 821 120
L 821 120
L 821 120
L 821 120
L 821 120
L 821 120
L 821 120
L 821 120
L 821 120
L 821 120
L 821 120
L 821 120
L 821 120
L 821 120
L 821 120
L 821 120
L 821 120
L 821 120
L 821 120
L 821 119
L 821 119
L 821 119
L 821 119
L 821 119
L 821 119
L 821 119
L 821 119
L 821 119
L 821 119
L 821 119
L 821 119
L 821 119
L 821 119
L 821 119
L 821 119
L 821 119
L 821 119
L 821 119
L 821 119
L 822 119
L 822 119
L 822 119
L 822 119
L 822 118
L 822 118
L 822 118
L 822 118
L 822 118
L 822 118
L 822 118
L 822 118
L 822 118
L 822 118
L 822 118
L 822 118
L 822 118
L 822 118
L 822 118
L 822 118
L 822 118
L 822 118
L 823 118
L 823 118
L 823 118
L 823 118
L 823 118
L 823 118
L 823 118
L 823 117
L 823 117
L 823 117
L 823 117
L 823 117
L 823 117
L 823 117
L 823 117
L 823 117
L 823 117
L 823 117
L 823 117
L 823 117
L 823 117
L 823 117
L 823 117
L 823 117
L 823 117
L 823 117
L 823 117
L 823 117
L 823 117
L 823 117
L 823 117
L 823 117
L 823 116
L 823 116
L 823 116
L 823 116
L 823 116
L 823 116
L 823 116
L 824 116
L 824 116
L 824 116
L 824 116
L 824 116
L 824 116
L 824 116
L 824 116
L 824 116
L 824 116
L 824 116
L 824 116
L 824 116
L 824 116
L 824 116
L 824 116
L 824 116
L 824 115
L 824 115
L 824 115
L 824 115
L 825 115
L 825 115
L 825 115
L 825 115
L 825 115
L 825 115
L 825 115
L 825 115
L 825 115
L 825 115
L 825 115
L 825 115
L 825 115
L 825 115
L 825 115
L 825 115
L 825 115
L 825 115
L 825 115
L 825 115
L 825 115
L 825 114
L 825 114
L 825 114
L 825 114
L 825 114
L 825 114
L 825 114
L 825 114
L 825 114
L 825 114
L 825 114
L 825 114
L 826 114
L 826 114
L 826 114
L 826 114
L 826 114
L 826 114
L 826 114
L 826 114
L 826 114
L 826 114
L 826 114
L 826 114
L 826 114
L 826 113
L 826 113
L 826 113
L 826 113
L 826 113
L 826 113
L 827 113
L 827 113
L 827 113
L 827 113
L 828 113
L 828 113
L 828 113
L 828 113
L 828 113
L 828 113
L 828 113
L 828 113
L 828 113
L 829 113
L 829 113
L 829 113
L 829 113
L 829 113
L 829 113
L 829 112
L 829 112
L 829 112
L 829 112
L 829 112
L 829 112
L 829 112
L 830 112
L 830 112
L 830 112
L 830 112
L 830 112
L 830 112
L 830 112
L 830 112
L 830 112
L 830 112
L 830 112
L 830 112
L 830 112
L 831 112
L 831 112
L 831 112
L 831 112
L 831 111
L 831 111
L 831 111
L 831 111
L 831 111
L 831 111
L 831 111
L 831 111
L 831 111
L 832 111
L 832 111
L 832 111
L 832 111
L 832 111
L 832 111
L 832 111
L 833 111
L 833 111
L 833 111
L 833 111
L 833 111
L 833 111
L 833 111
L 833 111
L 834 111
L 834 110
L 834 110
L 834 110
L 834 110
L 834 110
L 834 110
L 834 110
L 834 110
L 834 110
L 834 110
L 834 110
L 834 110
L 834 110
L 834 110
L 835 110
L 835 110
L 835 110
L 835 110
L 835 110
L 835 110
L 835 110
L 835 110
L 835 110
L 836 110
L 836 110
L 836 109
L 836 109
L 836 109
L 836 109
L 836 109
L 836 109
L 836 109
L 836 109
L 836 109
L 837 109
L 837 109
L 837 109
L 837 109
L 837 109
L 837 109
L 837 109
L 837 109
L 837 109
L 837 109
L 837 109
L 837 109
L 837 109
L 837 109
L 837 109
L 837 108
L 837 108
L 837 108
L 837 108
L 837 108
L 837 108
L 837 108
L 838 108
L 838 108
L 838 108
L 838 108
L 838 108
L 838 108
L 838 108
L 839 108
L 839 108
L 839 108
L 839 108
L 839 108
L 839 108
L 839 108
L 840 108
L 840 108
L 840 108
L 840 108
L 840 107
L 840 107
L 840 107
L 840 107
L 840 107
L 840 107
L 840 107
L 840 107
L 841 107
L 841 107
L 841 107
L 841 107
L 841 107
L 841 107
L 841 107
L 841 107
L 841 107
L 841 107
L 841 107
L 841 107
L 841 107
L 841 107
L 841 107
L 841 107
L 841 107
L 841 106
L 842 106
L 842 106
L 842 106
L 842 106
L 842 106
L 842 106
L 842 106
L 842 106
L 842 106
L 843 106
L 843 106
L 843 106
L 843 106
L 843 106
L 843 106
L 843 106
L 844 106
L 844 106
L 844 106
L 844 106
L 844 106
L 844 106
L 845 106
L 845 105
L 845 105
L 845 105
L 845 105
L 845 105
L 845 105
L 845 105
L 845 105
L 845 105
L 845 105
L 845 105
L 845 105
L 845 105
L 845 105
L 845 105
L 845 105
L 845 105
L 845 105
L 846 105
L 846 105
L 846 105
L 846 105
L 846 105
L 846 105
L 846 105
L 846 104
L 846 104
L 846 104
L 846 104
L 846 104
L 846 104
L 846 104
L 846 104
L 846 104
L 846 104
L 846 104
L 846 104
L 846 104
L 846 104
L 846 104
L 846 104
L 846 104
L 846 104
L 846 104
L 846 104
L 846 104
L 846 104
L 846 104
L 847 104
L 847 104
L 847 103
L 847 103
L 847 103
L 847 103
L 847 103
L 847 103
L 847 103
L 847 103
L 847 103
L 847 103
L 847 103
L 847 103
L 847 103
L 847 103
L 847 103
L 847 103
L 847 103
L 847 103
L 847 103
L 847 103
L 847 103
L 847 103
L 847 103
L 847 103
L 847 103
L 847 102
L 847 102
L 847 102
L 847 102
L 847 102
L 847 102
L 847 102
L 847 102
L 847 102
L 848 102
L 848 102
L 848 102
L 848 102
L 848 102
L 848 102
L 848 102
L 848 102
L 848 102
L 848 102
L 848 102
L 848 102
L 848 102
L 848 102
L 848 102
L 848 101
L 848 101
L 848 101
L 848 101
L 848 101
L 849 101
L 849 101
L 849 101
L 849 101
L 849 101
L 849 101
L 850 101
L 850 101
L 850 101
L 850 101
L 850 101
L 850 101
L 850 101
L 850 101
L 850 101
L 850 101
L 850 101
L 850 101
L 850 101
L 850 101
L 850 100
L 851 100
L 851 100
L 851 100
L 851 100
L 851 100
L 851 100
L 851 100
L 851 100
L 851 100
L 851 100
L 851 100
L 851 100
L 851 100
L 851 100
L 851 100
L 852 100
L 852 100
L 852 100
L 852 100
L 852 100
L 852 100
L 852 100
L 852 100
L 852 100
L 852 99
L 852 99
L 852 99
L 853 99
L 853 99
L 853 99
L 853 99
L 853 99
L 853 99
L 853 99
L 853 99
L 853 99
L 853 99
L 853 99
L 853 99
L 853 99
L 854 99
L 854 99
L 854 99
L 854 99
L 854 99
L 854 99
L 854 99
L 854 99
L 854 98
L 854 98
L 854 98
L 854 98
L 854 98
L 854 98
L 855 98
L 855 98
L 855 98
L 855 98
L 855 98
L 855 98
L 855 98
L 855 98
L 855 98
L 856 98
L 856 98
L 856 98
L 856 98
L 856 98
L 856 98
L 856 98
L 856 98
L 856 98
L 857 98
L 857 97
L 857 97
L 857 97
L 857 97
L 857 97
L 857 97
L 857 97
L 857 97
L 857 97
L 857 97
L 858 97
L 858 97
L 858 97
L 858 97
L 858 97
L 858 97
L 858 97
L 858 97
L 858 97
L 858 97
L 858 97
L 858 97
L 858 97
L 858 97
L 858 97
L 858 96
L 859 96
L 859 96
L 859 96
L 859 96
L 859 96
L 859 96
L 859 96
L 859 96
L 859 96
L 859 96
L 859 96
L 859 96
L 859 96
L 860 96
L 860 96
L 860 96
L 860 96
L 860 96
L 860 96
L 860 96
L 861 96
L 861 96
L 861 96
L 861 96
L 861 95
L 861 95
L 861 95
L 861 95
L 861 95
L 861 95
L 861 95
L 861 95
L 862 95
L 862 95
L 862 95
L 862 95
L 862 95
L 862 95
L 862 95
L 862 95
L 862 95
L 862 95
L 862 95
L 862 95
L 862 95
L 862 95
L 862 95
L 862 95
L 862 94
L 862 94
L 862 94
L 862 94
L 862 94
L 862 94
L 862 94
L 862 94
L 862 94
L 863 94
L 863 94
L 863 94
L 863 94
L 863 94
L 863 94
L 863 94
L 863 94
L 863 94
L 863 94
L 864 94
L 864 94
L 864 94
L 864 94
L 864 94
L 864 94
L 864 93
L 864 93
L 864 93
L 865 93
L 865 93
L 865 93
L 865 93
L 865 93
L 865 93
L 865 93
L 865 93
L 865 93
L 866 93
L 866 93
L 866 93
L 866 93
L 866 93
L 866 93
L 866 93
L 866 93
L 866 93
L 866 93
L 866 93
L 866 93
L 867 93
L 867 92
L 867 92
L 867 92
L 867 92
L 867 92
L 867 92
L 868 92
L 868 92
L 868 92
L 868 92
L 868 92
L 868 92
L 868 92
L 868 92
L 868 92
L 868 92
L 868 92
L 868 92
L 869 92
L 869 92
L 869 92
L 869 92
L 869 92
L 869 92
L 869 91
L 869 91
L 869 91
L 869 91
L 869 91
L 869 91
L 869 91
L 869 91
L 869 91
L 869 91
L 869 91
L 870 91
L 870 91
L 870 91
L 870 91
L 870 91
L 870 91
L 870 91
L 870 91
L 870 91
L 870 91
L 870 91
L 871 91
L 871 91
L 871 91
L 871 90
L 871 90
L 872 90
L 872 90
L 872 90
L 872 90
L 872 90
L 872 90
L 872 90
L 872 90
L 872 90
L 872 90
L 872 90
L 872 90
L 872 90
L 872 90
L 873 90
L 873 90
L 873 90
L 873 90
L 873 90
L 873 90
L 873 90
L 873 90
L 873 90
L 873 89
L 873 89
L 873 89
L 873 89
L 874 89
L 874 89
L 874 89
L 874 89
L 874 89
L 874 89
L 874 89
L 874 89
L 874 89
L 874 89
L 874 89
L 874 89
L 874 89
L 874 89
L 874 89
L 874 89
L 874 89
L 874 89
L 874 89
L 874 89
L 874 88
L 874 88
L 874 88
L 874 88
L 874 88
L 874 88
L 874 88
L 874 88
L 874 88
L 874 88
L 874 88
L 874 88
L 874 88
L 874 88
L 874 88
L 874 88
L 874 88
L 874 88
L 874 88
L 874 88
L 874 88
L 874 88
L 874 88
L 874 88
L 874 88
L 875 87
L 875 87
L 875 87
L 875 87
L 875 87
L 875 87
L 875 87
L 875 87
L 875 87
L 875 87
L 875 87
L 875 87
L 875 87
L 875 87
L 875 87
L 875 87
L 875 87
L 875 87
L 875 87
L 875 87
L 876 87
L 876 87
L 876 87
L 876 87
L 876 87
L 876 86
L 876 86
L 876 86
L 876 86
L 876 86
L 876 86
L 876 86
L 876 86
L 876 86
L 876 86
L 876 86
L 876 86
L 876 86
L 876 86
L 876 86
L 876 86
L 876 86
L 876 86
L 876 86
L 876 86
L 876 86
L 876 86
L 876 86
L 876 86
L 876 86
L 876 85
L 876 85
L 876 85
L 876 85
L 876 85
L 876 85
L 876 85
L 876 85
L 876 85
L 876 85
L 876 85
L 876 85
L 877 85
L 877 85
L 877 85
L 877 85
L 877 85
L 877 85
L 877 85
L 877 85
L 877 85
L 877 85
L 877 85
L 877 85
L 877 84
L 877 84
L 877 84
L 877 84
L 877 84
L 878 84
L 878 84
L 878 84
L 878 84
L 878 84
L 878 84
L 878 84
L 878 84
L 878 84
L 878 84
L 878 84
L 878 84
L 878 84
L 878 84
L 878 84
L 878 84
L 878 84
L 878 84
L 878 84
L 878 84
L 878 83
L 878 83
L 878 83
L 878 83
L 878 83
L 878 83
L 878 83
L 878 83
L 878 83
L 878 83
L 878 83
L 878 83
L 878 83
L 879 83
L 879 83
L 879 83
L 879 83
L 879 83
L 879 83
L 879 83
L 879 83
L 879 83
L 879 83
L 879 83
L 879 83
L 879 82
L 879 82
L 879 82
L 879 82
L 879 82
L 879 82
L 879 82
L 879 82
L 879 82
L 879 82
L 879 82
L 879 82
L 879 82
L 879 82
L 879 82
L 879 82
L 879 82
L 879 82
L 879 82
L 879 82
L 879 82
L 879 82
L 879 82
L 879 82
L 879 81
L 879 81
L 879 81
L 879 81
L 879 81
L 879 81
L 879 81
L 879 81
L 879 81
L 880 81
L 880 81
L 880 81
L 880 81
L 880 81
L 880 81
L 880 81
L 880 81
L 880 81
L 880 81
L 880 81
L 880 81
L 880 81
L 880 81
L 880 81
L 880 81
L 880 80
L 880 80
L 880 80
L 880 80
L 880 80
L 880 80
L 880 80
L 880 80
L 880 80
L 880 80
L 880 80
L 880 80
L 880 80
L 880 80
L 880 80
L 880 80
L 880 80
L 880 80
L 880 80
L 880 80
L 880 80
L 880 80
L 880 80
L 880 80
L 880 80
L 880 79
L 880 79
L 880 79
L 880 79
L 880 79
L 880 79
L 880 79
L 880 79
L 880 79
L 880 79
L 880 79
L 880 79
L 880 79
L 880 79
L 880 79
L 880 79
L 880 79
L 880 79
L 880 79
L 880 79
L 880 79
L 880 79
L 880 79
L 880 79
L 880 79
L 880 78
L 880 78
L 880 78
L 881 78
L 881 78
L 881 78
L 881 78
L 881 78
L 881 78
L 881 78
L 881 78
L 881 78
L 881 78
L 881 78
L 881 78
L 881 78
L 881 78
L 881 78
L 881 78
L 881 78
L 881 78
L 881 78
L 881 78
L 881 78
L 881 77
L 881 77
L 881 77
L 881 77
L 881 77
L 881 77
L 881 77
L 881 77
L 881 77
L 881 77
L 881 77
L 881 77
L 881 77
L 881 77
L 881 77
L 881 77
L 881 77
L 881 77
L 881 77
L 881 77
L 881 77
L 881 77
L 881 77
L 881 77
L 881 77
L 881 76
L 881 76
L 881 76
L 881 76
L 881 76
L 881 76
L 881 76
L 881 76
L 881 76
L 881 76
L 881 76
L 881 76
L 881 76
L 881 76
L 881 76
L 881 76
L 881 76
L 881 76
L 881 76
L 881 76
L 882 76
L 882 76
L 882 76
L 882 76
L 882 76
L 882 75
L 882 75
L 882 75
L 882 75
L 882 75
L 882 75
L 882 75
L 882 75
L 882 75
L 882 75
L 882 75
L 882 75
L 882 75
L 882 75
L 882 75
L 882 75
L 882 75
L 882 75
L 882 75
L 883 75
L 883 75
L 883 75
L 883 75
L 883 75
L 883 74
L 883 74
L 883 74
L 883 74
L 883 74
L 883 74
L 883 74
L 883 74
L 883 74
L 883 74
L 883 74
L 883 74
L 884 74
L 884 74
L 884 74
L 884 74
L 884 74
L 884 74
L 884 74
L 884 74
L 884 74
L 884 74
L 884 74
L 884 74
L 884 74
L 884 73
L 884 73
L 884 73
L 884 73
L 884 73
L 884 73
L 884 73
L 884 73
L 884 73
L 884 73
L 884 73
L 884 73
L 884 73
L 884 73
L 884 73
L 884 73
L 884 73
L 884 73
L 884 73
L 884 73
L 884 73
L 884 73
L 884 73
L 884 73
L 884 73
L 884 72
L 884 72
L 885 72
L 885 72
L 885 72
L 885 72
L 885 72
L 885 72
L 885 72
L 885 72
L 885 72
L 885 72
L 885 72
L 885 72
L 885 72
L 885 72
L 885 72
L 885 72
L 885 72
L 885 72
L 885 72
L 885 72
L 885 72
L 886 72
L 886 71
L 886 71
L 886 71
L 886 71
L 886 71
L 886 71
L 886 71
L 886 71
L 886 71
L 887 71
L 887 71
L 887 71
L 887 71
L 887 71
L 887 71
L 887 71
L 887 71
L 887 71
L 887 71
L 887 71
L 887 71
L 887 71
L 887 71
L 888 71
L 888 71
L 888 70
L 888 70
L 888 70
L 888 70
L 888 70
L 888 70
L 888 70
L 888 70
L 889 70
L 889 70
L 889 70
L 889 70
L 889 70
L 889 70
L 889 70
L 889 70
L 889 70
L 889 70
L 889 70
L 889 70
L 889 70
L 889 70
L 889 70
L 889 70
L 889 70
L 889 69
L 889 69
L 889 69
L 889 69
L 889 69
L 889 69
L 889 69
L 889 69
L 889 69
L 889 69
L 889 69
L 889 69
L 890 69
L 890 69
L 890 69
L 890 69
L 890 69
L 890 69
L 890 69
L 890 69
L 890 69
L 890 69
L 890 69
L 890 69
L 890 69
L 890 68
L 890 68
L 890 68
L 890 68
L 890 68
L 890 68
L 890 68
L 891 68
L 891 68
L 891 68
L 891 68
L 891 68
L 891 68
L 891 68
L 891 68
L 891 68
L 891 68
L 891 68
L 891 68
L 891 68
L 891 68
L 891 68
L 891 68
L 891 68
L 891 67
L 891 67
L 891 67
L 891 67
L 891 67
L 891 67
L 891 67
L 891 67
L 891 67
L 891 67
L 891 67
L 891 67
L 891 67
L 891 67
L 891 67
L 891 67
L 891 67
L 891 67
L 892 67
L 892 67
L 892 67
L 892 67
L 892 67
L 892 67
L 892 67
L 892 66
L 892 66
L 892 66
L 892 66
L 892 66
L 892 66
L 892 66
L 892 66
L 892 66
L 892 66
L 892 66
L 892 66
L 892 66
L 892 66
L 893 66
L 893 66
L 893 66
L 893 66
L 893 66
L 893 66
L 893 66
L 893 66
L 893 66
L 893 66
L 893 66
L 893 65
L 893 65
L 893 65
L 893 65
L 893 65
L 893 65
L 893 65
L 893 65
L 893 65
L 893 65
L 893 65
L 893 65
L 893 65
L 893 65
L 893 65
L 893 65
L 893 65
L 894 65
L 894 65
L 894 65
L 894 65
L 894 65
L 894 65
L 894 65
L 894 64
L 894 64
L 895 64
L 895 64
L 895 64
L 895 64
L 895 64
L 895 64
L 895 64
L 895 64
L 895 64
L 895 64
L 895 64
L 895 64
L 896 64
L 896 64
L 896 64
L 896 64
L 896 64
L 896 64
L 896 64
L 896 64
L 896 64
L 896 64
L 896 64
L 896 63
L 896 63
L 896 63
L 896 63
L 896 63
L 896 63
L 896 63
L 896 63
L 897 63
L 897 63
L 897 63
L 897 63
L 897 63
L 897 63
L 897 63
L 897 63
L 897 63
L 897 63
L 897 63
L 897 63
L 897 63
L 897 63
L 897 63
L 897 63
L 897 63
L 897 62
L 897 62
L 897 62
L 897 62
L 897 62
L 897 62
L 897 62
L 897 62
L 897 62
L 897 62
L 897 62
L 897 62
L 898 62
L 898 62
L 898 62
L 898 62
L 898 62
L 898 62
L 898 62
L 898 62
L 898 62
L 898 62
L 898 62
L 898 62
L 898 62
L 898 61
L 898 61
L 898 61
L 898 61
L 898 61
L 898 61
L 898 61
L 899 61
L 899 61
L 899 61
L 899 61
L 899 61
L 899 61
L 899 61
L 899 61
L 899 61
L 899 61
L 899 61
L 899 61
L 899 61
L 899 61
L 899 61
L 899 61
L 899 61
L 900 60
L 900 60
L 900 60
L 900 60
L 900 60
L 900 60
L 900 60
L 900 60
L 901 60
L 901 60
L 901 60
L 901 60
L 901 60
L 901 60
L 901 60
L 901 60
L 901 60
L 901 60
L 901 60
L 901 60
L 901 60
L 901 60
L 901 60
L 901 60
L 901 60
L 901 59
L 902 59
L 902 59
L 902 59
L 902 59
L 902 59
L 902 59
L 902 59
L 902 59
L 902 59
L 902 59
L 902 59
L 902 59
L 902 59
L 902 59
L 903 59
L 903 59
L 903 59
L 903 59
L 903 59
L 903 59
L 903 59
L 903 59
L 903 59
L 903 59
L 904 58
L 904 58
L 904 58
L 904 58
L 904 58
L 904 58
L 905 58
L 905 58
L 905 58
L 905 58
L 905 58
L 905 58
L 905 58
L 905 58
L 905 58
L 905 58
L 905 58
L 905 58
L 905 58
L 906 58
L 906 58
L 906 58
L 907 58
L 907 58
L 907 57
L 907 57
L 907 57
L 907 57
L 907 57
L 907 57
L 908 57
L 908 57
L 908 57
L 908 57
L 908 57
L 908 57
L 908 57
L 908 57
L 909 57
L 909 57
L 909 57
L 909 57
L 909 57
L 909 57
L 909 57
L 910 57
L 910 57
L 910 57
L 910 57
L 910 56
L 910 56
L 910 56
L 910 56
L 910 56
L 910 56
L 911 56
L 911 56
L 911 56
L 911 56
L 911 56
L 911 56
L 911 56
L 912 56
L 912 56
L 912 56
L 912 56
L 912 56
L 912 56
L 912 56
L 912 56
L 912 56
L 912 56
L 912 56
L 912 56
L 912 55
L 912 55
L 912 55
L 912 55
L 912 55
L 912 55
L 912 55
L 912 55
L 912 55
L 912 55
L 913 55
L 913 55
L 913 55
L 913 55
L 913 55
L 913 55
L 913 55
L 913 55
L 913 55
L 913 55
L 913 55
L 913 55
L 913 55
L 913 55
L 913 54
L 913 54
L 913 54
L 913 54
L 913 54
L 913 54
L 913 54
L 913 54
L 913 54
L 913 54
L 913 54
L 913 54
L 913 54
L 913 54
L 913 54
L 914 54
L 914 54
L 914 54
L 914 54
L 914 54
L 914 54
L 914 54
L 914 54
L 914 54
L 914 54
L 914 53
L 914 53
L 914 53
L 914 53
L 914 53
L 914 53
L 914 53
L 914 53
L 914 53
L 915 53
L 915 53
L 915 53
L 916 53
L 916 53
L 916 53
L 916 53
L 916 53
L 916 53
L 916 53
L 916 53
L 917 53
L 917 53
L 917 53
L 917 53
L 917 53
L 917 52
L 917 52
L 917 52
L 917 52
L 917 52
L 917 52
L 918 52
L 918 52
L 918 52
L 918 52
L 918 52
L 918 52
L 918 52
L 918 52
L 918 52
L 918 52
L 919 52
L 919 52
L 919 52
L 919 52
L 919 52
L 919 52
L 919 52
L 919 52
L 919 52
L 920 51
L 920 51
L 920 51
L 920 51
L 920 51
L 920 51
L 920 51
L 920 51
L 920 51
L 921 51
L 921 51
L 921 51
L 921 51
L 921 51
L 921 51
L 922 51
L 922 51
L 922 51
L 922 51
L 922 51
L 922 51
L 922 51
L 922 51
L 922 51
L 923 50
L 923 50
L 923 50
L 923 50
L 923 50
L 923 50
L 923 50
L 923 50
L 923 50
L 923 50
L 923 50
L 923 50
L 923 50
L 923 50
L 923 50
L 923 50
L 923 50
L 923 50
L 923 50
L 923 50
L 923 50
L 923 50
L 924 50
L 924 50
L 924 50
L 924 49
L 924 49
L 924 49
L 924 49
L 924 49
L 924 49
L 924 49
L 924 49
L 924 49
L 924 49
L 924 49
L 924 49
L 924 49
L 924 49
L 924 49
L 924 49
L 924 49
L 925 49
L 925 49
L 925 49
L 925 49
L 925 49
L 925 49
L 925 49
L 925 49
L 925 48
L 925 48
L 925 48
L 925 48
L 925 48
L 925 48
L 925 48
L 926 48
L 926 48
L 926 48
L 926 48
L 926 48
L 926 48
L 926 48
L 926 48
L 926 48
L 927 48
L 927 48
L 927 48
L 927 48
L 927 48
L 927 48
L 927 48
L 927 48
L 927 47
L 927 47
L 927 47
L 928 47
L 928 47
L 928 47
L 928 47
L 928 47
L 928 47
L 928 47
L 928 47
L 928 47
L 928 47
L 928 47
L 928 47
L 928 47
L 928 47
L 928 47
L 928 47
L 928 47
L 929 47
L 929 47
L 929 47
L 929 47
L 929 47
L 929 46
L 929 46
L 929 46
L 929 46
L 929 46
L 929 46
L 930 46
L 930 46
L 930 46
L 930 46
L 930 46
L 930 46
L 930 46
L 930 46
L 931 46
L 931 46
L 931 46
L 931 46
L 931 46
L 931 46
L 931 46
L 931 46
L 931 46
L 931 46
L 931 46
L 931 45
L 931 45
L 931 45
L 931 45
L 932 45
L 932 45
L 932 45
L 932 45
L 932 45
L 932 45
L 932 45
L 932 45
L 933 45
L 933 45
L 933 45
L 933 45
L 933 45
L 933 45
L 933 45
L 933 45
L 934 45
L 934 45
L 934 45
L 934 45
L 934 45
L 934 44
L 934 44
L 934 44
L 935 44
L 935 44
L 935 44
L 935 44
L 935 44
L 935 44
L 936 44
L 936 44
L 936 44
L 936 44
L 936 44
L 936 44
L 936 44
L 936 44
L 936 44
L 936 44
L 937 44
L 937 44
L 937 44
L 937 44
L 937 44
L 938 43
L 938 43
L 938 43
L 938 43
L 938 43
L 938 43
L 938 43
L 939 43
L 939 43
L 939 43
L 939 43
L 939 43
L 939 43
L 939 43
L 939 43
L 939 43
L 939 43
L 939 43
L 940 43
L 940 43
L 940 43
L 940 43
L 940 43
L 940 43
L 940 43
L 940 42
L 940 42
L 940 42
L 940 42
L 940 42
L 940 42
L 941 42
L 941 42
L 941 42
L 941 42
L 941 42
L 941 42
L 941 42
L 941 42
L 941 42
L 941 42
L 941 42
L 941 42
L 941 42
L 941 42
L 941 42
L 941 42
L 941 42
L 942 42
L 942 42
L 942 41
L 942 41
L 942 41
L 942 41
L 942 41
L 942 41
L 942 41
L 942 41
L 942 41
L 943 41
L 943 41
L 943 41
L 943 41
L 943 41
L 943 41
L 943 41
L 943 41
L 943 41
L 944 41
L 944 41
L 944 41
L 944 41
L 944 41
L 944 41
L 944 40
L 944 40
L 944 40
L 944 40
L 944 40
L 944 40
L 945 40
L 945 40
L 945 40
L 945 40
L 945 40
L 945 40
L 945 40
L 945 40
L 945 40
L 945 40
L 945 40
L 945 40
L 946 40
L 946 40
L 946 40
L 946 40
L 946 40
L 947 40
L 947 40
L 947 39
L 947 39
L 947 39
L 948 39
L 948 39
L 948 39
L 949 39
L 949 39
L 949 39
L 949 39
L 949 39
L 949 39
L 949 39
L 950 39
L 950 39
L 950 39
L 950 39
L 950 39
L 950 39
L 950 39
L 950 39
L 950 39
L 950 39
L 950 39
L 951 39
L 951 38
L 951 38
L 951 38
L 951 38
L 951 38
L 951 38
L 951 38
L 951 38
L 951 38
L 951 38
L 951 38
L 951 38
L 952 38
L 952 38
L 952 38
L 952 38
L 952 38
L 952 38
L 952 38
L 952 38
L 952 38
L 952 38
L 952 38
L 952 38
L 952 37
L 952 37
L 952 37
L 952 37
L 952 37
L 952 37
L 952 37
L 952 37
L 952 37
L 952 37
L 952 37
L 952 37
L 952 37
L 952 37
L 952 37
L 952 37
L 952 37
L 952 37
L 953 37
L 953 37
L 953 37
L 953 37
L 953 37
L 953 37
L 953 37
L 953 36
L 953 36
L 953 36
L 953 36
L 953 36
L 953 36
L 953 36
L 953 36
L 953 36
L 953 36
L 953 36
L 953 36
L 953 36
L 953 36
L 953 36
L 954 36
L 954 36
L 954 36
L 954 36
L 954 36
L 954 36
L 954 36
L 954 36
L 954 36
L 954 36
L 954 35
L 954 35
L 954 35
L 954 35
L 954 35
L 954 35
L 954 35
L 954 35
L 954 35
L 954 35
L 954 35
L 954 35
L 954 35
L 954 35
L 954 35
L 955 35
L 955 35
L 955 35
L 955 35
L 955 35
L 955 35
L 955 35
L 955 35
L 955 35
L 955 35
L 955 34
L 955 34
L 955 34
L 955 34
L 955 34
L 955 34
L 955 34
L 955 34
L 955 34
L 955 34
L 955 34
L 955 34
L 955 34
L 955 34
L 955 34
L 955 34
L 955 34
L 955 34
L 955 34
L 955 34
L 955 34
L 955 34
L 955 34
L 955 34
L 955 33
L 955 33
L 955 33
L 955 33
L 955 33
L 955 33
L 955 33
L 955 33
L 955 33
L 955 33
L 955 33
L 955 33
L 955 33
L 955 33
L 955 33
L 955 33
L 955 33
L 955 33
L 955 33
L 955 33
L 955 33
L 955 33
L 955 33
L 955 33
L 955 33
L 955 32
L 955 32
L 955 32
L 955 32
L 955 32
L 955 32
L 955 32
L 955 32
L 955 32
L 955 32
L 955 32
L 955 32
L 955 32
L 955 32
L 955 32
L 955 32
L 955 32
L 955 32
L 955 32
L 955 32
L 955 32
L 955 32
L 955 32
L 955 32
L 955 32
L 955 31
L 955 31
L 955 31
L 955 31
L 955 31
L 955 31
L 955 31
L 955 31
L 955 31
L 955 31
L 955 31
L 955 31
L 955 31
L 955 31
L 955 31
L 955 31
L 955 31
L 955 31
L 955 31
L 955 31
L 955 31
L 955 31
L 955 31
L 955 31
L 955 30
L 955 30
L 955 30
L 955 30
L 955 30
L 955 30
L 955 30
L 955 30
L 955 30
L 955 30
L 955 30
L 955 30
L 955 30
L 955 30
L 955 30
L 955 30
L 955 30
L 955 30
L 955 30
L 956 30
L 956 30
L 956 30
L 956 30
L 956 30
L 956 30
L 956 29
L 956 29
L 956 29
L 956 29
L 956 29
L 956 29
L 956 29
L 956 29
L 956 29
L 956 29
L 956 29
L 956 29
L 956 29
L 956 29
L 956 29
L 956 29
L 956 29
L 956 29
L 956 29
L 956 29
L 956 29
L 956 29
L 956 29
L 956 29
L 956 29
L 956 28
L 956 28
L 956 28
L 956 28
L 956 28
L 956 28
L 956 28
L 956 28
L 956 28
L 956 28
L 956 28
L 956 28
L 956 28
L 956 28
L 956 28
L 956 28
L 956 28
L 956 28
L 956 28
L 956 28
L 956 28
L 956 28
L 956 28
L 956 28
L 956 28
L 956 27
L 956 27
L 956 27
L 956 27
L 956 27
L 956 27
L 956 27
L 956 27
L 956 27
L 956 27
L 956 27
L 956 27
L 956 27
L 956 27
L 956 27
L 956 27
L 956 27
L 956 27
L 956 27
L 956 27
L 956 27
L 956 27
L 956 27
L 956 27
L 956 26
L 956 26
L 956 26
L 956 26
L 956 26
L 956 26
L 956 26
L 956 26
L 956 26
L 956 26
L 956 26
L 956 26
L 956 26
L 956 26
L 956 26
L 956 26
L 956 26
L 956 26
L 956 26
L 956 26
L 956 26
L 956 26
L 956 26
L 956 26
L 956 26
L 956 25
L 956 25
L 956 25
L 956 25
L 956 25
L 956 25
L 956 25
L 956 25
L 956 25
L 956 25
L 956 25
L 956 25
L 956 25
L 956 25
L 956 25
L 956 25
L 956 25
L 956 25
L 956 25
L 956 25
L 956 25
L 956 25
L 956 25
L 956 25
L 956 25
L 956 24
L 956 24
L 956 24
L 956 24
L 956 24
L 956 24
L 956 24
L 956 24
L 956 24
L 956 24
L 956 24
L 956 24
L 956 24
L 956 24
L 956 24
L 956 24
L 956 24
L 956 24
L 956 24
L 956 24
L 956 24
L 956 24
L 956 24
L 956 24
L 956 23
L 956 23
L 956 23
L 956 23
L 956 23
L 956 23
L 956 23
L 956 23
L 956 23
L 956 23
L 956 23
L 956 23
L 956 23
L 956 23
L 956 23
L 957 23
L 957 23
L 957 23
L 957 23
L 957 23
L 957 23
L 957 23
L 957 23
L 957 23
L 957 23
L 957 22
L 957 22
L 957 22
L 957 22
L 957 22
L 957 22
L 957 22
L 957 22
L 957 22
L 957 22
L 957 22
L 957 22
L 957 22
L 957 22
L 957 22
L 957 22
L 957 22
L 957 22
L 957 22
L 957 22
L 957 22
L 957 22
L 957 22
L 957 22
L 957 22
L 957 21
L 957 21
L 957 21
L 957 21
L 957 21
L 957 21
L 957 21
L 957 21
L 957 21
L 957 21
L 957 21
L 957 21
L 957 21
L 957 21
L 957 21
L 957 21
L 957 21
L 957 21
L 957 21
L 957 21
L 957 21
L 957 21
L 957 21
L 957 21
L 957 20
L 957 20
L 957 20
L 957 20
L 957 20
L 957 20
L 957 20
L 957 20
L 957 20
L 957 20
L 957 20
L 957 20
L 957 20
L 957 20
L 957 20
L 957 20
L 957 20
L 957 20
L 957 20
L 957 20
L 957 20
L 957 20
L 957 20
L 957 20
L 957 20
L 957 19
L 957 19
L 957 19
L 957 19
L 957 19
L 957 19
L 957 19
L 957 19
L 957 19
L 957 19
L 957 19
L 957 19
L 957 19
L 957 19
L 957 19
L 957 19
L 957 19
L 957 19
L 957 19
L 957 19
L 957 19
L 957 19
L 957 19
L 957 19
L 957 19
L 957 18
L 957 18
L 957 18
L 957 18
L 957 18
L 957 18
L 957 18
L 957 18
L 957 18
L 957 18
L 957 18
L 957 18
L 957 18
L 957 18
L 957 18
L 957 18
L 957 18
L 957 18
L 957 18
L 957 18
L 957 18
L 957 18
L 957 18
L 957 18
L 957 18
L 957 17
L 957 17
L 957 17
L 957 17
L 957 17
L 957 17
L 957 17
L 957 17
L 957 17
L 957 17
L 957 17
L 957 17
L 957 17
L 957 17
L 957 17
L 957 17
L 957 17
L 957 17
L 957 17
L 957 17
L 957 17
L 957 17
L 957 17
L 957 17
L 957 16
L 957 16
L 957 16
L 957 16
L 957 16
L 957 16
L 957 16
L 957 16
L 957 16
L 957 16
L 957 16
L 957 16
L 957 16
L 957 16
L 957 16
L 957 16
L 957 16
L 957 16
L 957 16
L 957 16
L 957 16
L 957 16
L 957 16
L 957 16
L 957 16
L 957 15
L 957 15
L 957 15
L 957 15
L 957 15
L 957 15
L 957 15
L 957 15
L 957 15
L 957 15
L 957 15
L 957 15
L 957 15
L 957 15
L 957 15
L 957 15
L 957 15
L 957 15
L 957 15
L 957 15
L 957 15
L 957 15
L 957 15
L 957 15
L 957 15
L 957 14
L 957 14
L 957 14
L 957 14
L 957 14
L 957 14
L 957 14
L 957 14
L 957 14
L 957 14
L 957 14
L 957 14
L 957 14
L 957 14
L 957 14
L 957 14
L 957 14
L 957 14
L 957 14
L 957 14
L 957 14
L 957 14
L 957 14
L 957 14
L 957 13
L 957 13
L 957 13
L 957 13
L 957 13
L 957 13
L 957 13
L 957 13
L 957 13
L 957 13
L 957 13
L 957 13
L 957 13
L 957 13
L 957 13
L 957 13
L 957 13
L 957 13
L 957 13
L 957 13
L 957 13
L 957 13
L 957 13
L 957 13
L 957 13
L 957 12
L 957 12
L 957 12
L 957 12
L 957 12
L 957 12
L 957 12
L 957 12
L 957 12
L 957 12
L 957 12
L 957 12
L 957 12
L 957 12
L 957 12
L 957 12
L 957 12
L 957 12
L 957 12
L 957 12
L 957 12
L 957 12
L 957 12
L 957 12
L 957 12
L 957 11
L 957 11
L 957 11
L 957 11
L 957 11
L 957 11
L 957 11
L 957 11
L 957 11
L 957 11
L 957 11
L 957 11
L 957 11
L 957 11
L 957 11
L 957 11
L 957 11
L 957 11
L 957 11
L 957 11
L 957 11
L 957 11" style="stroke-width:2;stroke:rgba(129,199,239,1.0);fill:none"/></svg>