<!-- stars: 8846 -->
<svg xmlns="http://www.w3.org/2000/svg" xmlns:xlink="http://www.w3.org/1999/xlink" width="1024" height="400">\n<path  d="M 0 0
L 1024 0
L 1024 400
L 0 400
L 0 0" style="stroke-width:0;stroke:rgba(255,255,255,1.0);fill:rgba(255,255,255,1.0)"/><path  d="M 38 11
L 957 11
L 957 351
L 38 351
L 38 11" style="stroke-width:0;stroke:rgba(255,255,255,1.0);fill:rgba(255,255,255,1.0)"/><path  d="M 38 351
L 957 351" style="stroke-width:2;stroke:rgba(85,85,85,1.0);fill:none"/><path  d="M 38 351
L 38 356" style="stroke-width:2;stroke:rgba(85,85,85,1.0);fill:none"/><text x="5" y="373" style="stroke-width:0;stroke:none;fill:rgba(51,51,51,1.0);font-size:12.8px;font-family:'Roboto Medium',sans-serif">2018-09-25</text><path  d="M 153 351
L 153 356" style="stroke-width:2;stroke:rgba(85,85,85,1.0);fill:none"/><text x="120" y="373" style="stroke-width:0;stroke:none;fill:rgba(51,51,51,1.0);font-size:12.8px;font-family:'Roboto Medium',sans-serif">2019-02-18</text><path  d="M 268 351
L 268 356" style="stroke-width:2;stroke:rgba(85,85,85,1.0);fill:none"/><text x="235" y="373" style="stroke-width:0;stroke:none;fill:rgba(51,51,51,1.0);font-size:12.8px;font-family:'Roboto Medium',sans-serif">2019-07-15</text><path  d="M 383 351
L 383 356" style="stroke-width:2;stroke:rgba(85,85,85,1.0);fill:none"/><text x="350" y="373" style="stroke-width:0;stroke:none;fill:rgba(51,51,51,1.0);font-size:12.8px;font-family:'Roboto Medium',sans-serif">2019-12-09</text><path  d="M 498 351
L 498 356" style="stroke-width:2;stroke:rgba(85,85,85,1.0);fill:none"/><text x="465" y="373" style="stroke-width:0;stroke:none;fill:rgba(51,51,51,1.0);font-size:12.8px;font-family:'Roboto Medium',sans-serif">2020-05-04</text><path  d="M 613 351
L 613 356" style="stroke-width:2;stroke:rgba(85,85,85,1.0);fill:none"/><text x="580" y="373" style="stroke-width:0;stroke:none;fill:rgba(51,51,51,1.0);font-size:12.8px;font-family:'Roboto Medium',sans-serif">2020-09-27</text><path  d="M 728 351
L 728 356" style="stroke-width:2;stroke:rgba(85,85,85,1.0);fill:none"/><text x="695" y="373" style="stroke-width:0;stroke:none;fill:rgba(51,51,51,1.0);font-size:12.8px;font-family:'Roboto Medium',sans-serif">2021-02-21</text><path  d="M 843 351
L 843 356" style="stroke-width:2;stroke:rgba(85,85,85,1.0);fill:none"/><text x="810" y="373" style="stroke-width:0;stroke:none;fill:rgba(51,51,51,1.0);font-size:12.8px;font-family:'Roboto Medium',sans-serif">2021-07-18</text><path  d="M 957 351
L 957 356" style="stroke-width:2;stroke:rgba(85,85,85,1.0);fill:none"/><text x="924" y="373" style="stroke-width:0;stroke:none;fill:rgba(51,51,51,1.0);font-size:12.8px;font-family:'Roboto Medium',sans-serif">2021-12-11</text><text x="483" y="395" style="stroke-width:0;stroke:none;fill:rgba(51,51,51,1.0);font-size:12.8px;font-family:'Roboto Medium',sans-serif">Time</text><path  d="M 959 351
L 959 11" style="stroke-width:2;stroke:rgba(85,85,85,1.0);fill:none"/><path  d="M 959 351
L 964 351" style="stroke-width:2;stroke:rgba(85,85,85,1.0);fill:none"/><text x="969" y="357" style="stroke-width:0;stroke:none;fill:rgba(51,51,51,1.0);font-size:12.8px;font-family:'Roboto Medium',sans-serif">0</text><path  d="M 959 308
L 964 308" style="stroke-width:2;stroke:rgba(85,85,85,1.0);fill:none"/><text x="969" y="314" style="stroke-width:0;stroke:none;fill:rgba(51,51,51,1.0);font-size:12.8px;font-family:'Roboto Medium',sans-serif">1120</text><path  d="M 959 265
L 964 265" style="stroke-width:2;stroke:rgba(85,85,85,1.0);fill:none"/><text x="969" y="271" style="stroke-width:0;stroke:none;fill:rgba(51,51,51,1.0);font-size:12.8px;font-family:'Roboto Medium',sans-serif">2230</text><path  d="M 959 223
L 964 223" style="stroke-width:2;stroke:rgba(85,85,85,1.0);fill:none"/><text x="969" y="229" style="stroke-width:0;stroke:none;fill:rgba(51,51,51,1.0);font-size:12.8px;font-family:'Roboto Medium',sans-serif">3340</text><path  d="M 959 181
L 964 181" style="stroke-width:2;stroke:rgba(85,85,85,1.0);fill:none"/><text x="969" y="187" style="stroke-width:0;stroke:none;fill:rgba(51,51,51,1.0);font-size:12.8px;font-family:'Roboto Medium',sans-serif">4450</text><path  d="M 959 138
L 964 138" style="stroke-width:2;stroke:rgba(85,85,85,1.0);fill:none"/><text x="969" y="144" style="stroke-width:0;stroke:none;fill:rgba(51,51,51,1.0);font-size:12.8px;font-family:'Roboto Medium',sans-serif">5570</text><path  d="M 959 95
L 964 95" style="stroke-width:2;stroke:rgba(85,85,85,1.0);fill:none"/><text x="969" y="101" style="stroke-width:0;stroke:none;fill:rgba(51,51,51,1.0);font-size:12.8px;font-family:'Roboto Medium',sans-serif">6680</text><path  d="M 959 53
L 964 53" style="stroke-width:2;stroke:rgba(85,85,85,1.0);fill:none"/><text x="969" y="59" style="stroke-width:0;stroke:none;fill:rgba(51,51,51,1.0);font-size:12.8px;font-family:'Roboto Medium',sans-serif">7790</text><path  d="M 959 11
L 964 11" style="stroke-width:2;stroke:rgba(85,85,85,1.0);fill:none"/><text x="969" y="17" style="stroke-width:0;stroke:none;fill:rgba(51,51,51,1.0);font-size:12.8px;font-family:'Roboto Medium',sans-serif">8900</text><text x="1009" y="150" style="stroke-width:0;stroke:none;fill:rgba(51,51,51,1.0);font-size:12.8px;font-family:'Roboto Medium',sans-serif" transform="rotate(90.00,1009,150)">Stargazers</text><path  d="M 38 351
L 40 350
L 50 350
L 51 350
L 51 350
L 51 350
L 51 350
L 54 350
L 55 350
L 55 350
L 57 350
L 57 350
L 58 350
L 58 350
L 58 350
L 58 350
L 61 350
L 67 350
L 67 350
L 69 350
L 69 350
L 70 350
L 72 350
L 72 350
L 74 350
L 74 350
L 79 350
L 83 349
L 88 349
L 88 349
L 93 349
L 94 349
L 94 349
L 94 349
L 94 349
L 94 349
L 94 349
L 94 349
L 95 349
L 95 349
L 95 349
L 97 349
L 98 349
L 98 349
L 99 349
L 99 349
L 99 349
L 100 349
L 100 349
L 101 349
L 103 349
L 103 349
L 104 349
L 105 348
L 107 348
L 108 348
L 108 348
L 109 348
L 110 348
L 110 348
L 110 348
L 111 348
L 111 348
L 111 348
L 111 348
L 112 348
L 112 348
L 112 348
L 112 348
L 112 348
L 113 348
L 113 348
L 113 348
L 114 348
L 115 348
L 115 348
L 116 348
L 116 348
L 118 348
L 118 347
L 120 347
L 120 347
L 120 347
L 120 347
L 120 347
L 120 347
L 122 347
L 122 347
L 122 347
L 122 347
L 123 347
L 123 347
L 125 347
L 126 347
L 126 347
L 126 347
L 127 347
L 127 347
L 129 347
L 131 347
L 133 347
L 133 347
L 133 347
L 134 347
L 134 347
L 141 346
L 144 346
L 148 346
L 148 346
L 150 346
L 150 346
L 150 346
L 151 346
L 151 346
L 153 346
L 154 346
L 154 346
L 154 346
L 154 346
L 155 346
L 155 346
L 155 346
L 156 346
L 158 346
L 159 346
L 161 346
L 161 346
L 164 346
L 164 346
L 165 346
L 165 346
L 166 345
L 166 345
L 167 345
L 167 345
L 168 345
L 169 345
L 169 345
L 171 345
L 172 345
L 173 345
L 174 345
L 175 345
L 176 345
L 176 345
L 176 345
L 177 345
L 177 345
L 178 345
L 181 345
L 182 345
L 182 345
L 182 345
L 183 345
L 183 345
L 184 345
L 184 345
L 184 345
L 184 344
L 184 344
L 186 344
L 186 344
L 186 344
L 186 344
L 186 344
L 186 344
L 187 344
L 187 344
L 187 344
L 187 344
L 187 344
L 187 344
L 187 344
L 187 344
L 187 344
L 188 344
L 188 344
L 188 344
L 189 344
L 191 344
L 191 344
L 191 344
L 192 344
L 192 344
L 193 343
L 193 343
L 193 343
L 193 343
L 193 343
L 194 343
L 194 343
L 194 343
L 195 343
L 197 343
L 197 343
L 198 343
L 200 343
L 200 343
L 203 343
L 203 343
L 203 343
L 204 343
L 204 343
L 204 343
L 204 343
L 205 343
L 205 343
L 206 343
L 206 343
L 207 343
L 208 342
L 208 342
L 208 342
L 209 342
L 209 342
L 209 342
L 210 342
L 210 342
L 211 342
L 212 342
L 213 342
L 213 342
L 214 342
L 215 342
L 216 342
L 216 342
L 216 342
L 216 342
L 217 342
L 218 342
L 220 342
L 221 342
L 224 342
L 225 342
L 226 342
L 228 342
L 229 341
L 230 341
L 230 341
L 231 341
L 236 341
L 236 341
L 236 341
L 236 341
L 237 341
L 237 341
L 238 341
L 238 341
L 238 341
L 238 341
L 244 341
L 246 341
L 247 341
L 247 341
L 247 341
L 248 341
L 248 341
L 248 341
L 248 341
L 248 341
L 248 341
L 249 341
L 249 340
L 252 340
L 252 340
L 252 340
L 254 340
L 255 340
L 255 340
L 256 340
L 256 340
L 257 340
L 257 340
L 258 340
L 258 340
L 258 340
L 258 340
L 258 340
L 259 340
L 259 340
L 259 340
L 260 340
L 260 340
L 260 340
L 260 340
L 261 340
L 261 340
L 262 340
L 262 339
L 262 339
L 262 339
L 264 339
L 265 339
L 266 339
L 266 339
L 267 339
L 268 339
L 268 339
L 269 339
L 269 339
L 271 339
L 272 339
L 274 339
L 274 339
L 277 339
L 277 339
L 278 339
L 280 339
L 280 339
L 280 339
L 281 339
L 285 339
L 289 339
L 289 339
L 291 339
L 292 338
L 294 338
L 295 338
L 298 338
L 300 338
L 300 338
L 300 338
L 301 338
L 304 338
L 309 338
L 309 338
L 309 338
L 309 338
L 310 338
L 320 338
L 321 338
L 321 338
L 322 338
L 322 338
L 322 338
L 322 338
L 322 338
L 322 338
L 322 338
L 322 338
L 323 338
L 323 337
L 323 337
L 325 337
L 328 337
L 328 337
L 328 337
L 334 337
L 335 337
L 336 337
L 337 337
L 337 337
L 338 337
L 339 337
L 340 337
L 340 337
L 340 337
L 341 337
L 342 337
L 342 337
L 342 337
L 345 337
L 345 337
L 345 337
L 346 337
L 351 337
L 362 337
L 363 336
L 366 336
L 368 336
L 369 336
L 370 336
L 373 336
L 373 336
L 373 336
L 374 336
L 374 336
L 375 336
L 375 336
L 378 336
L 378 336
L 381 336
L 382 336
L 386 336
L 386 336
L 386 336
L 392 336
L 394 336
L 394 336
L 396 336
L 396 336
L 396 336
L 396 336
L 396 335
L 397 335
L 397 335
L 397 335
L 397 335
L 398 335
L 400 335
L 400 335
L 404 335
L 405 335
L 407 335
L 410 335
L 410 335
L 411 335
L 411 335
L 411 335
L 412 335
L 413 335
L 416 335
L 416 335
L 421 335
L 421 335
L 422 335
L 422 335
L 424 335
L 426 335
L 428 334
L 430 334
L 434 334
L 436 334
L 436 334
L 437 334
L 440 334
L 446 334
L 448 334
L 450 334
L 451 334
L 452 334
L 452 334
L 453 334
L 454 334
L 454 334
L 454 334
L 456 334
L 456 334
L 456 334
L 457 334
L 457 334
L 457 334
L 458 334
L 458 334
L 459 334
L 459 334
L 461 333
L 461 333
L 461 333
L 461 333
L 462 333
L 462 333
L 462 333
L 462 333
L 462 333
L 462 333
L 462 333
L 463 333
L 463 333
L 464 333
L 465 333
L 466 333
L 466 333
L 468 333
L 468 333
L 468 333
L 468 333
L 468 333
L 469 333
L 469 333
L 470 333
L 470 333
L 470 332
L 471 332
L 471 332
L 471 332
L 471 332
L 472 332
L 473 332
L 474 332
L 476 332
L 476 332
L 476 332
L 476 332
L 476 332
L 477 332
L 477 332
L 478 332
L 478 332
L 478 332
L 479 332
L 479 332
L 479 332
L 479 332
L 479 332
L 479 332
L 479 332
L 479 332
L 479 331
L 479 331
L 479 331
L 479 331
L 480 331
L 480 331
L 480 331
L 481 331
L 481 331
L 481 331
L 482 331
L 482 331
L 482 331
L 482 331
L 484 331
L 484 331
L 485 331
L 485 331
L 485 331
L 486 331
L 487 331
L 487 331
L 487 331
L 487 331
L 487 331
L 487 331
L 487 330
L 487 330
L 487 330
L 487 330
L 487 330
L 487 330
L 487 330
L 487 330
L 487 330
L 487 330
L 487 330
L 488 330
L 488 330
L 488 330
L 488 330
L 488 330
L 488 330
L 488 330
L 488 330
L 488 330
L 488 330
L 488 330
L 489 330
L 489 330
L 489 330
L 489 330
L 489 329
L 490 329
L 490 329
L 490 329
L 490 329
L 490 329
L 490 329
L 490 329
L 491 329
L 491 329
L 492 329
L 492 329
L 493 329
L 493 329
L 493 329
L 493 329
L 494 329
L 494 329
L 494 329
L 494 329
L 494 329
L 494 329
L 494 329
L 495 329
L 496 329
L 496 329
L 497 328
L 498 328
L 498 328
L 499 328
L 500 328
L 500 328
L 500 328
L 500 328
L 501 328
L 501 328
L 501 328
L 501 328
L 501 328
L 501 328
L 502 328
L 503 328
L 503 328
L 504 328
L 504 328
L 504 328
L 505 328
L 505 328
L 505 328
L 506 328
L 506 328
L 506 328
L 507 328
L 507 327
L 507 327
L 507 327
L 508 327
L 508 327
L 508 327
L 508 327
L 508 327
L 509 327
L 510 327
L 510 327
L 512 327
L 512 327
L 512 327
L 512 327
L 512 327
L 513 327
L 514 327
L 514 327
L 514 327
L 514 327
L 515 327
L 515 327
L 515 327
L 515 327
L 516 327
L 517 326
L 517 326
L 517 326
L 517 326
L 517 326
L 517 326
L 518 326
L 518 326
L 518 326
L 518 326
L 518 326
L 518 326
L 519 326
L 519 326
L 519 326
L 519 326
L 521 326
L 521 326
L 521 326
L 521 326
L 522 326
L 522 326
L 522 326
L 523 326
L 524 326
L 524 326
L 524 325
L 524 325
L 524 325
L 524 325
L 524 325
L 524 325
L 524 325
L 524 325
L 524 325
L 525 325
L 525 325
L 525 325
L 525 325
L 525 325
L 525 325
L 525 325
L 525 325
L 525 325
L 525 325
L 526 325
L 526 325
L 526 325
L 526 325
L 526 325
L 527 325
L 528 325
L 529 324
L 529 324
L 529 324
L 529 324
L 530 324
L 530 324
L 530 324
L 531 324
L 531 324
L 531 324
L 531 324
L 531 324
L 531 324
L 531 324
L 531 324
L 531 324
L 532 324
L 532 324
L 532 324
L 532 324
L 532 324
L 532 324
L 532 324
L 532 324
L 532 324
L 532 324
L 533 323
L 533 323
L 533 323
L 533 323
L 533 323
L 533 323
L 533 323
L 534 323
L 534 323
L 534 323
L 534 323
L 535 323
L 535 323
L 535 323
L 535 323
L 535 323
L 535 323
L 535 323
L 536 323
L 536 323
L 537 323
L 537 323
L 537 323
L 537 323
L 538 323
L 538 323
L 539 322
L 540 322
L 540 322
L 540 322
L 540 322
L 541 322
L 541 322
L 541 322
L 542 322
L 542 322
L 542 322
L 542 322
L 542 322
L 542 322
L 543 322
L 544 322
L 544 322
L 544 322
L 544 322
L 544 322
L 544 322
L 545 322
L 545 322
L 545 322
L 545 322
L 545 322
L 545 322
L 546 321
L 546 321
L 547 321
L 547 321
L 547 321
L 548 321
L 548 321
L 548 321
L 548 321
L 549 321
L 550 321
L 550 321
L 550 321
L 551 321
L 551 321
L 551 321
L 552 321
L 552 321
L 553 321
L 554 321
L 554 321
L 554 321
L 554 321
L 555 321
L 555 321
L 555 321
L 555 320
L 555 320
L 555 320
L 555 320
L 556 320
L 556 320
L 556 320
L 556 320
L 556 320
L 557 320
L 558 320
L 558 320
L 558 320
L 558 320
L 558 320
L 558 320
L 559 320
L 559 320
L 559 320
L 559 320
L 559 320
L 559 320
L 560 320
L 560 320
L 560 320
L 561 320
L 561 319
L 562 319
L 562 319
L 562 319
L 562 319
L 562 319
L 563 319
L 563 319
L 563 319
L 563 319
L 564 319
L 564 319
L 564 319
L 564 319
L 565 319
L 565 319
L 565 319
L 565 319
L 565 319
L 565 319
L 565 319
L 566 319
L 566 319
L 566 319
L 566 319
L 566 319
L 566 318
L 566 318
L 566 318
L 566 318
L 566 318
L 567 318
L 567 318
L 567 318
L 567 318
L 567 318
L 567 318
L 568 318
L 569 318
L 569 318
L 569 318
L 569 318
L 570 318
L 570 318
L 570 318
L 571 318
L 571 318
L 571 318
L 572 318
L 572 318
L 572 318
L 572 318
L 572 317
L 572 317
L 572 317
L 573 317
L 573 317
L 574 317
L 574 317
L 575 317
L 575 317
L 575 317
L 575 317
L 575 317
L 576 317
L 576 317
L 576 317
L 576 317
L 576 317
L 577 317
L 577 317
L 577 317
L 577 317
L 577 317
L 577 317
L 578 317
L 578 317
L 578 317
L 578 317
L 578 316
L 580 316
L 580 316
L 580 316
L 580 316
L 581 316
L 581 316
L 581 316
L 581 316
L 581 316
L 581 316
L 582 316
L 582 316
L 583 316
L 583 316
L 583 316
L 583 316
L 583 316
L 583 316
L 583 316
L 584 316
L 585 316
L 585 316
L 586 316
L 586 316
L 587 316
L 587 315
L 588 315
L 588 315
L 589 315
L 590 315
L 591 315
L 591 315
L 591 315
L 591 315
L 592 315
L 593 315
L 593 315
L 594 315
L 594 315
L 594 315
L 594 315
L 595 315
L 595 315
L 595 315
L 596 315
L 596 315
L 596 315
L 597 315
L 597 315
L 597 315
L 597 315
L 598 314
L 598 314
L 599 314
L 599 314
L 599 314
L 599 314
L 599 314
L 599 314
L 599 314
L 599 314
L 600 314
L 600 314
L 600 314
L 600 314
L 600 314
L 600 314
L 601 314
L 601 314
L 601 314
L 601 314
L 602 314
L 602 314
L 602 314
L 603 314
L 603 314
L 603 314
L 605 313
L 605 313
L 605 313
L 606 313
L 606 313
L 607 313
L 608 313
L 609 313
L 609 313
L 609 313
L 609 313
L 609 313
L 610 313
L 610 313
L 610 313
L 612 313
L 612 313
L 612 313
L 613 313
L 613 313
L 613 313
L 613 313
L 613 313
L 614 313
L 614 313
L 614 313
L 614 312
L 615 312
L 615 312
L 615 312
L 615 312
L 615 312
L 617 312
L 618 312
L 619 312
L 620 312
L 621 312
L 621 312
L 621 312
L 622 312
L 622 312
L 623 312
L 623 312
L 624 312
L 624 312
L 624 312
L 624 312
L 624 312
L 624 312
L 624 312
L 624 312
L 625 312
L 625 311
L 625 311
L 625 311
L 625 311
L 625 311
L 625 311
L 626 311
L 626 311
L 626 311
L 626 311
L 626 311
L 627 311
L 627 311
L 627 311
L 627 311
L 627 311
L 627 311
L 627 311
L 628 311
L 628 311
L 628 311
L 628 311
L 630 311
L 630 311
L 630 311
L 630 311
L 630 311
L 631 310
L 631 310
L 631 310
L 631 310
L 632 310
L 632 310
L 632 310
L 632 310
L 633 310
L 633 310
L 633 310
L 633 310
L 633 310
L 633 310
L 635 310
L 635 310
L 635 310
L 636 310
L 636 310
L 636 310
L 636 310
L 636 310
L 636 310
L 636 310
L 636 310
L 636 310
L 636 309
L 636 309
L 636 309
L 637 309
L 637 309
L 637 309
L 637 309
L 637 309
L 637 309
L 637 309
L 637 309
L 637 309
L 637 309
L 638 309
L 638 309
L 638 309
L 638 309
L 638 309
L 638 309
L 638 309
L 638 309
L 638 309
L 638 309
L 638 309
L 638 309
L 638 309
L 638 308
L 638 308
L 639 308
L 639 308
L 639 308
L 640 308
L 640 308
L 640 308
L 640 308
L 640 308
L 640 308
L 641 308
L 641 308
L 641 308
L 641 308
L 641 308
L 641 308
L 641 308
L 641 308
L 642 308
L 642 308
L 642 308
L 642 308
L 642 308
L 642 308
L 642 308
L 642 307
L 642 307
L 642 307
L 643 307
L 643 307
L 643 307
L 643 307
L 644 307
L 644 307
L 644 307
L 645 307
L 645 307
L 645 307
L 646 307
L 646 307
L 646 307
L 646 307
L 646 307
L 646 307
L 646 307
L 646 307
L 647 307
L 647 307
L 647 307
L 648 307
L 648 307
L 648 306
L 648 306
L 648 306
L 648 306
L 648 306
L 649 306
L 649 306
L 649 306
L 649 306
L 650 306
L 650 306
L 650 306
L 650 306
L 651 306
L 651 306
L 651 306
L 652 306
L 652 306
L 652 306
L 652 306
L 652 306
L 653 306
L 653 306
L 653 306
L 653 306
L 653 306
L 653 305
L 653 305
L 654 305
L 654 305
L 654 305
L 654 305
L 654 305
L 655 305
L 655 305
L 655 305
L 655 305
L 656 305
L 656 305
L 656 305
L 656 305
L 656 305
L 657 305
L 657 305
L 657 305
L 657 305
L 657 305
L 657 305
L 657 305
L 658 305
L 659 305
L 659 305
L 659 305
L 660 304
L 660 304
L 660 304
L 660 304
L 660 304
L 660 304
L 660 304
L 660 304
L 661 304
L 662 304
L 662 304
L 662 304
L 662 304
L 663 304
L 663 304
L 663 304
L 663 304
L 663 304
L 663 304
L 663 304
L 664 304
L 664 304
L 664 304
L 664 304
L 664 304
L 664 304
L 664 303
L 664 303
L 665 303
L 665 303
L 665 303
L 665 303
L 665 303
L 665 303
L 667 303
L 668 303
L 668 303
L 668 303
L 668 303
L 669 303
L 669 303
L 669 303
L 669 303
L 669 303
L 669 303
L 669 303
L 670 303
L 670 303
L 670 303
L 670 303
L 670 303
L 670 303
L 670 302
L 670 302
L 671 302
L 671 302
L 671 302
L 671 302
L 671 302
L 673 302
L 673 302
L 673 302
L 673 302
L 673 302
L 673 302
L 674 302
L 674 302
L 674 302
L 674 302
L 674 302
L 674 302
L 675 302
L 675 302
L 675 302
L 675 302
L 676 302
L 676 302
L 676 302
L 677 301
L 677 301
L 677 301
L 678 301
L 678 301
L 678 301
L 679 301
L 679 301
L 679 301
L 679 301
L 679 301
L 680 301
L 680 301
L 680 301
L 680 301
L 680 301
L 680 301
L 680 301
L 680 301
L 680 301
L 680 301
L 680 301
L 680 301
L 680 301
L 681 301
L 681 301
L 681 300
L 681 300
L 681 300
L 681 300
L 681 300
L 681 300
L 682 300
L 682 300
L 682 300
L 682 300
L 682 300
L 682 300
L 683 300
L 683 300
L 683 300
L 684 300
L 684 300
L 684 300
L 684 300
L 684 300
L 685 300
L 685 300
L 685 300
L 685 300
L 685 300
L 685 300
L 685 300
L 685 299
L 685 299
L 685 299
L 685 299
L 686 299
L 686 299
L 686 299
L 686 299
L 687 299
L 687 299
L 687 299
L 688 299
L 688 299
L 689 299
L 689 299
L 689 299
L 689 299
L 690 299
L 690 299
L 690 299
L 690 299
L 690 299
L 691 299
L 691 299
L 691 299
L 691 299
L 691 298
L 691 298
L 692 298
L 692 298
L 692 298
L 692 298
L 692 298
L 692 298
L 692 298
L 692 298
L 692 298
L 692 298
L 692 298
L 692 298
L 693 298
L 693 298
L 693 298
L 693 298
L 694 298
L 694 298
L 694 298
L 695 298
L 695 298
L 696 298
L 696 298
L 696 298
L 696 297
L 696 297
L 696 297
L 696 297
L 696 297
L 696 297
L 696 297
L 696 297
L 696 297
L 697 297
L 697 297
L 697 297
L 698 297
L 698 297
L 698 297
L 699 297
L 699 297
L 699 297
L 699 297
L 699 297
L 699 297
L 699 297
L 700 297
L 700 297
L 701 297
L 701 297
L 701 296
L 701 296
L 701 296
L 702 296
L 702 296
L 702 296
L 702 296
L 703 296
L 703 296
L 703 296
L 703 296
L 703 296
L 703 296
L 704 296
L 704 296
L 704 296
L 704 296
L 704 296
L 704 296
L 704 296
L 705 296
L 705 296
L 705 296
L 705 296
L 706 296
L 706 296
L 706 295
L 706 295
L 706 295
L 706 295
L 706 295
L 706 295
L 706 295
L 706 295
L 706 295
L 707 295
L 707 295
L 707 295
L 707 295
L 707 295
L 707 295
L 707 295
L 707 295
L 708 295
L 708 295
L 708 295
L 708 295
L 709 295
L 709 295
L 709 295
L 709 295
L 710 295
L 710 294
L 711 294
L 711 294
L 711 294
L 711 294
L 711 294
L 711 294
L 711 294
L 711 294
L 711 294
L 712 294
L 712 294
L 712 294
L 712 294
L 713 294
L 713 294
L 714 294
L 714 294
L 714 294
L 714 294
L 714 294
L 714 294
L 714 294
L 714 294
L 714 294
L 715 294
L 715 294
L 715 293
L 715 293
L 715 293
L 715 293
L 716 293
L 716 293
L 716 293
L 716 293
L 716 293
L 716 293
L 716 293
L 716 293
L 717 293
L 717 293
L 717 293
L 717 293
L 717 293
L 718 293
L 718 293
L 718 293
L 719 293
L 719 293
L 720 293
L 721 293
L 721 293
L 721 293
L 721 292
L 721 292
L 721 292
L 723 292
L 723 292
L 723 292
L 724 292
L 724 292
L 724 292
L 724 292
L 724 292
L 725 292
L 725 292
L 725 292
L 725 292
L 725 292
L 725 292
L 726 292
L 726 292
L 726 292
L 726 292
L 726 292
L 726 292
L 726 292
L 727 292
L 727 292
L 727 291
L 727 291
L 727 291
L 727 291
L 727 291
L 727 291
L 727 291
L 728 291
L 728 291
L 728 291
L 728 291
L 728 291
L 728 291
L 729 291
L 729 291
L 729 291
L 729 291
L 729 291
L 729 291
L 729 291
L 729 291
L 729 291
L 729 291
L 729 291
L 730 291
L 730 291
L 730 290
L 730 290
L 730 290
L 730 290
L 731 290
L 731 290
L 731 290
L 731 290
L 731 290
L 731 290
L 731 290
L 731 290
L 731 290
L 731 290
L 731 290
L 731 290
L 732 290
L 732 290
L 732 290
L 732 290
L 733 290
L 733 290
L 733 290
L 733 290
L 733 290
L 734 290
L 734 289
L 734 289
L 734 289
L 734 289
L 734 289
L 734 289
L 734 289
L 734 289
L 734 289
L 734 289
L 734 289
L 735 289
L 735 289
L 735 289
L 735 289
L 735 289
L 735 289
L 735 289
L 735 289
L 735 289
L 735 289
L 735 289
L 735 289
L 735 289
L 736 289
L 736 289
L 736 288
L 736 288
L 736 288
L 736 288
L 736 288
L 736 288
L 736 288
L 737 288
L 737 288
L 738 288
L 738 288
L 738 288
L 738 288
L 738 288
L 738 288
L 738 288
L 739 288
L 739 288
L 739 288
L 739 288
L 739 288
L 739 288
L 739 288
L 740 288
L 740 288
L 740 288
L 740 288
L 740 287
L 740 287
L 740 287
L 740 287
L 741 287
L 741 287
L 741 287
L 741 287
L 742 287
L 742 287
L 742 287
L 742 287
L 742 287
L 742 287
L 742 287
L 742 287
L 742 287
L 742 287
L 742 287
L 742 287
L 742 287
L 742 287
L 742 287
L 742 287
L 742 287
L 743 287
L 743 286
L 743 286
L 743 286
L 743 286
L 744 286
L 744 286
L 744 286
L 744 286
L 744 286
L 744 286
L 744 286
L 744 286
L 744 286
L 744 286
L 744 286
L 744 286
L 744 286
L 744 286
L 744 286
L 744 286
L 744 286
L 744 286
L 744 286
L 744 286
L 744 286
L 744 286
L 744 285
L 744 285
L 744 285
L 744 285
L 744 285
L 744 285
L 744 285
L 744 285
L 744 285
L 744 285
L 744 285
L 744 285
L 744 285
L 744 285
L 744 285
L 744 285
L 744 285
L 744 285
L 744 285
L 744 285
L 744 285
L 744 285
L 744 285
L 744 285
L 744 285
L 744 285
L 744 284
L 744 284
L 744 284
L 744 284
L 744 284
L 744 284
L 744 284
L 744 284
L 744 284
L 744 284
L 744 284
L 744 284
L 744 284
L 744 284
L 744 284
L 744 284
L 744 284
L 744 284
L 744 284
L 744 284
L 744 284
L 744 284
L 744 284
L 744 284
L 744 284
L 744 284
L 745 283
L 745 283
L 745 283
L 745 283
L 745 283
L 745 283
L 745 283
L 745 283
L 745 283
L 745 283
L 745 283
L 745 283
L 745 283
L 745 283
L 745 283
L 745 283
L 745 283
L 745 283
L 745 283
L 745 283
L 745 283
L 745 283
L 745 283
L 745 283
L 745 283
L 745 283
L 745 283
L 745 282
L 745 282
L 745 282
L 745 282
L 745 282
L 745 282
L 745 282
L 745 282
L 745 282
L 745 282
L 745 282
L 745 282
L 745 282
L 745 282
L 745 282
L 745 282
L 745 282
L 745 282
L 745 282
L 745 282
L 745 282
L 745 282
L 745 282
L 746 282
L 746 282
L 746 282
L 746 281
L 746 281
L 746 281
L 746 281
L 746 281
L 746 281
L 746 281
L 746 281
L 746 281
L 746 281
L 746 281
L 746 281
L 746 281
L 746 281
L 746 281
L 746 281
L 746 281
L 746 281
L 746 281
L 746 281
L 746 281
L 746 281
L 746 281
L 746 281
L 746 281
L 746 281
L 746 280
L 746 280
L 746 280
L 746 280
L 746 280
L 746 280
L 746 280
L 746 280
L 746 280
L 746 280
L 746 280
L 746 280
L 746 280
L 746 280
L 746 280
L 746 280
L 746 280
L 746 280
L 746 280
L 746 280
L 746 280
L 746 280
L 746 280
L 746 280
L 746 280
L 746 280
L 746 279
L 746 279
L 746 279
L 746 279
L 746 279
L 746 279
L 746 279
L 746 279
L 746 279
L 746 279
L 746 279
L 746 279
L 746 279
L 746 279
L 746 279
L 746 279
L 746 279
L 746 279
L 746 279
L 746 279
L 746 279
L 746 279
L 746 279
L 746 279
L 746 279
L 746 279
L 746 278
L 746 278
L 746 278
L 746 278
L 746 278
L 746 278
L 746 278
L 746 278
L 746 278
L 746 278
L 746 278
L 746 278
L 746 278
L 746 278
L 746 278
L 746 278
L 746 278
L 746 278
L 746 278
L 746 278
L 746 278
L 747 278
L 747 278
L 747 278
L 747 278
L 747 278
L 747 277
L 747 277
L 747 277
L 747 277
L 747 277
L 747 277
L 747 277
L 747 277
L 747 277
L 747 277
L 747 277
L 747 277
L 747 277
L 747 277
L 747 277
L 747 277
L 747 277
L 747 277
L 747 277
L 747 277
L 747 277
L 747 277
L 747 277
L 747 277
L 747 277
L 747 277
L 747 277
L 747 276
L 747 276
L 747 276
L 747 276
L 747 276
L 747 276
L 747 276
L 747 276
L 747 276
L 747 276
L 747 276
L 747 276
L 747 276
L 747 276
L 747 276
L 747 276
L 747 276
L 747 276
L 747 276
L 747 276
L 747 276
L 747 276
L 747 276
L 747 276
L 748 276
L 748 276
L 748 275
L 748 275
L 748 275
L 748 275
L 748 275
L 748 275
L 748 275
L 748 275
L 748 275
L 748 275
L 748 275
L 748 275
L 748 275
L 748 275
L 748 275
L 748 275
L 748 275
L 748 275
L 748 275
L 748 275
L 748 275
L 748 275
L 748 275
L 748 275
L 748 275
L 748 275
L 748 274
L 748 274
L 748 274
L 748 274
L 748 274
L 748 274
L 748 274
L 748 274
L 748 274
L 748 274
L 748 274
L 748 274
L 748 274
L 748 274
L 748 274
L 749 274
L 749 274
L 749 274
L 749 274
L 749 274
L 749 274
L 749 274
L 749 274
L 749 274
L 749 274
L 749 274
L 749 273
L 749 273
L 749 273
L 750 273
L 750 273
L 750 273
L 750 273
L 750 273
L 750 273
L 750 273
L 750 273
L 750 273
L 750 273
L 751 273
L 751 273
L 751 273
L 751 273
L 751 273
L 751 273
L 751 273
L 751 273
L 751 273
L 751 273
L 751 273
L 752 273
L 752 273
L 752 272
L 752 272
L 752 272
L 752 272
L 752 272
L 752 272
L 752 272
L 752 272
L 752 272
L 752 272
L 752 272
L 752 272
L 752 272
L 752 272
L 752 272
L 753 272
L 753 272
L 753 272
L 753 272
L 753 272
L 753 272
L 753 272
L 753 272
L 753 272
L 753 272
L 754 272
L 754 271
L 754 271
L 754 271
L 754 271
L 754 271
L 754 271
L 754 271
L 754 271
L 755 271
L 755 271
L 755 271
L 755 271
L 755 271
L 755 271
L 755 271
L 755 271
L 755 271
L 755 271
L 756 271
L 756 271
L 756 271
L 756 271
L 756 271
L 756 271
L 756 271
L 756 271
L 756 271
L 756 270
L 756 270
L 756 270
L 756 270
L 756 270
L 756 270
L 756 270
L 756 270
L 756 270
L 756 270
L 756 270
L 756 270
L 756 270
L 756 270
L 756 270
L 756 270
L 756 270
L 756 270
L 756 270
L 756 270
L 756 270
L 756 270
L 756 270
L 756 270
L 756 270
L 756 270
L 756 269
L 756 269
L 757 269
L 757 269
L 757 269
L 757 269
L 757 269
L 757 269
L 757 269
L 757 269
L 757 269
L 757 269
L 757 269
L 757 269
L 757 269
L 757 269
L 757 269
L 757 269
L 757 269
L 757 269
L 757 269
L 757 269
L 757 269
L 757 269
L 757 269
L 757 269
L 757 268
L 757 268
L 757 268
L 757 268
L 757 268
L 757 268
L 757 268
L 757 268
L 757 268
L 757 268
L 757 268
L 757 268
L 757 268
L 757 268
L 757 268
L 757 268
L 757 268
L 757 268
L 758 268
L 758 268
L 758 268
L 758 268
L 758 268
L 758 268
L 758 268
L 758 268
L 758 267
L 758 267
L 758 267
L 758 267
L 758 267
L 758 267
L 758 267
L 758 267
L 758 267
L 758 267
L 758 267
L 758 267
L 758 267
L 758 267
L 758 267
L 758 267
L 758 267
L 758 267
L 758 267
L 758 267
L 758 267
L 758 267
L 758 267
L 758 267
L 758 267
L 758 267
L 758 266
L 758 266
L 758 266
L 758 266
L 758 266
L 758 266
L 758 266
L 758 266
L 758 266
L 758 266
L 758 266
L 758 266
L 758 266
L 758 266
L 758 266
L 758 266
L 758 266
L 758 266
L 758 266
L 758 266
L 758 266
L 758 266
L 758 266
L 758 266
L 758 266
L 758 266
L 758 266
L 758 265
L 758 265
L 758 265
L 758 265
L 758 265
L 758 265
L 758 265
L 758 265
L 758 265
L 758 265
L 758 265
L 758 265
L 758 265
L 758 265
L 758 265
L 758 265
L 758 265
L 758 265
L 758 265
L 758 265
L 758 265
L 758 265
L 758 265
L 758 265
L 758 265
L 758 265
L 758 264
L 758 264
L 758 264
L 758 264
L 759 264
L 759 264
L 759 264
L 759 264
L 759 264
L 759 264
L 759 264
L 759 264
L 759 264
L 759 264
L 759 264
L 759 264
L 759 264
L 759 264
L 759 264
L 759 264
L 759 264
L 759 264
L 759 264
L 759 264
L 759 264
L 759 264
L 759 263
L 759 263
L 759 263
L 759 263
L 759 263
L 759 263
L 759 263
L 759 263
L 759 263
L 759 263
L 759 263
L 759 263
L 759 263
L 759 263
L 759 263
L 759 263
L 759 263
L 760 263
L 760 263
L 760 263
L 760 263
L 760 263
L 760 263
L 760 263
L 760 263
L 760 263
L 760 262
L 760 262
L 760 262
L 760 262
L 760 262
L 760 262
L 760 262
L 760 262
L 760 262
L 760 262
L 760 262
L 760 262
L 760 262
L 760 262
L 760 262
L 760 262
L 760 262
L 760 262
L 760 262
L 760 262
L 760 262
L 761 262
L 761 262
L 761 262
L 761 262
L 761 262
L 761 261
L 761 261
L 761 261
L 761 261
L 761 261
L 761 261
L 761 261
L 761 261
L 761 261
L 761 261
L 761 261
L 761 261
L 761 261
L 761 261
L 761 261
L 761 261
L 761 261
L 761 261
L 761 261
L 761 261
L 761 261
L 761 261
L 762 261
L 762 261
L 762 261
L 762 261
L 762 260
L 762 260
L 762 260
L 762 260
L 762 260
L 762 260
L 762 260
L 762 260
L 762 260
L 762 260
L 762 260
L 762 260
L 762 260
L 762 260
L 762 260
L 762 260
L 762 260
L 762 260
L 762 260
L 762 260
L 762 260
L 762 260
L 762 260
L 762 260
L 763 260
L 763 260
L 763 260
L 763 259
L 763 259
L 763 259
L 763 259
L 763 259
L 763 259
L 763 259
L 763 259
L 763 259
L 763 259
L 763 259
L 763 259
L 763 259
L 763 259
L 763 259
L 763 259
L 763 259
L 763 259
L 763 259
L 763 259
L 763 259
L 763 259
L 764 259
L 764 259
L 764 259
L 764 259
L 764 258
L 764 258
L 764 258
L 764 258
L 764 258
L 764 258
L 764 258
L 764 258
L 764 258
L 765 258
L 765 258
L 765 258
L 765 258
L 765 258
L 765 258
L 765 258
L 765 258
L 765 258
L 765 258
L 765 258
L 765 258
L 765 258
L 766 258
L 766 258
L 766 258
L 766 258
L 766 257
L 766 257
L 767 257
L 767 257
L 767 257
L 767 257
L 767 257
L 767 257
L 767 257
L 767 257
L 767 257
L 767 257
L 767 257
L 767 257
L 768 257
L 768 257
L 768 257
L 768 257
L 768 257
L 768 257
L 768 257
L 768 257
L 768 257
L 768 257
L 768 257
L 768 257
L 768 256
L 768 256
L 768 256
L 768 256
L 768 256
L 768 256
L 768 256
L 768 256
L 768 256
L 768 256
L 769 256
L 769 256
L 769 256
L 769 256
L 769 256
L 769 256
L 769 256
L 769 256
L 769 256
L 769 256
L 769 256
L 769 256
L 770 256
L 770 256
L 770 256
L 770 256
L 770 255
L 770 255
L 770 255
L 771 255
L 771 255
L 771 255
L 771 255
L 771 255
L 771 255
L 771 255
L 771 255
L 771 255
L 771 255
L 771 255
L 771 255
L 771 255
L 771 255
L 771 255
L 771 255
L 771 255
L 771 255
L 771 255
L 771 255
L 772 255
L 772 255
L 772 255
L 772 254
L 772 254
L 772 254
L 772 254
L 772 254
L 772 254
L 772 254
L 772 254
L 772 254
L 772 254
L 772 254
L 772 254
L 772 254
L 772 254
L 772 254
L 772 254
L 772 254
L 773 254
L 773 254
L 773 254
L 773 254
L 773 254
L 773 254
L 773 254
L 773 254
L 773 254
L 773 254
L 773 253
L 773 253
L 773 253
L 773 253
L 773 253
L 773 253
L 773 253
L 773 253
L 773 253
L 774 253
L 774 253
L 774 253
L 774 253
L 774 253
L 774 253
L 774 253
L 774 253
L 774 253
L 774 253
L 775 253
L 775 253
L 775 253
L 775 253
L 775 253
L 775 253
L 775 253
L 775 252
L 775 252
L 776 252
L 776 252
L 776 252
L 776 252
L 776 252
L 776 252
L 776 252
L 776 252
L 776 252
L 776 252
L 776 252
L 776 252
L 776 252
L 776 252
L 776 252
L 776 252
L 776 252
L 776 252
L 776 252
L 776 252
L 776 252
L 776 252
L 776 252
L 776 252
L 776 251
L 776 251
L 776 251
L 776 251
L 776 251
L 776 251
L 776 251
L 776 251
L 776 251
L 776 251
L 777 251
L 777 251
L 777 251
L 777 251
L 777 251
L 777 251
L 777 251
L 777 251
L 777 251
L 777 251
L 777 251
L 777 251
L 777 251
L 777 251
L 777 251
L 777 251
L 777 250
L 777 250
L 777 250
L 777 250
L 777 250
L 777 250
L 777 250
L 777 250
L 777 250
L 777 250
L 777 250
L 777 250
L 777 250
L 777 250
L 777 250
L 777 250
L 777 250
L 777 250
L 778 250
L 778 250
L 778 250
L 778 250
L 778 250
L 778 250
L 778 250
L 778 250
L 778 249
L 778 249
L 778 249
L 778 249
L 778 249
L 778 249
L 778 249
L 778 249
L 778 249
L 778 249
L 778 249
L 778 249
L 778 249
L 778 249
L 778 249
L 778 249
L 778 249
L 778 249
L 778 249
L 778 249
L 778 249
L 778 249
L 778 249
L 778 249
L 778 249
L 778 249
L 778 249
L 778 248
L 778 248
L 778 248
L 778 248
L 778 248
L 778 248
L 778 248
L 778 248
L 778 248
L 778 248
L 778 248
L 778 248
L 778 248
L 778 248
L 778 248
L 778 248
L 778 248
L 778 248
L 778 248
L 778 248
L 778 248
L 778 248
L 778 248
L 778 248
L 778 248
L 778 248
L 778 247
L 778 247
L 778 247
L 778 247
L 778 247
L 778 247
L 778 247
L 778 247
L 778 247
L 778 247
L 778 247
L 778 247
L 778 247
L 778 247
L 778 247
L 778 247
L 778 247
L 778 247
L 778 247
L 778 247
L 778 247
L 779 247
L 779 247
L 779 247
L 779 247
L 779 247
L 779 246
L 779 246
L 779 246
L 779 246
L 779 246
L 779 246
L 779 246
L 779 246
L 779 246
L 779 246
L 779 246
L 779 246
L 779 246
L 779 246
L 779 246
L 779 246
L 779 246
L 779 246
L 779 246
L 779 246
L 779 246
L 779 246
L 779 246
L 779 246
L 779 246
L 779 246
L 779 245
L 779 245
L 779 245
L 779 245
L 779 245
L 779 245
L 779 245
L 779 245
L 779 245
L 779 245
L 779 245
L 779 245
L 779 245
L 779 245
L 779 245
L 779 245
L 779 245
L 779 245
L 779 245
L 779 245
L 779 245
L 779 245
L 779 245
L 779 245
L 779 245
L 779 245
L 779 244
L 779 244
L 779 244
L 779 244
L 779 244
L 779 244
L 779 244
L 779 244
L 779 244
L 779 244
L 779 244
L 779 244
L 779 244
L 779 244
L 779 244
L 779 244
L 779 244
L 779 244
L 779 244
L 779 244
L 779 244
L 779 244
L 779 244
L 779 244
L 779 244
L 779 244
L 779 243
L 779 243
L 779 243
L 779 243
L 779 243
L 779 243
L 779 243
L 779 243
L 779 243
L 779 243
L 779 243
L 779 243
L 779 243
L 779 243
L 779 243
L 779 243
L 779 243
L 779 243
L 779 243
L 779 243
L 779 243
L 779 243
L 779 243
L 779 243
L 779 243
L 779 243
L 779 243
L 779 242
L 779 242
L 779 242
L 779 242
L 779 242
L 779 242
L 779 242
L 779 242
L 779 242
L 779 242
L 779 242
L 779 242
L 779 242
L 779 242
L 780 242
L 780 242
L 780 242
L 780 242
L 780 242
L 780 242
L 780 242
L 780 242
L 780 242
L 780 242
L 780 242
L 780 242
L 780 241
L 780 241
L 780 241
L 780 241
L 780 241
L 780 241
L 780 241
L 780 241
L 780 241
L 780 241
L 780 241
L 780 241
L 780 241
L 780 241
L 780 241
L 780 241
L 780 241
L 780 241
L 780 241
L 780 241
L 780 241
L 780 241
L 780 241
L 780 241
L 780 241
L 780 241
L 780 240
L 780 240
L 780 240
L 780 240
L 780 240
L 780 240
L 780 240
L 780 240
L 780 240
L 780 240
L 780 240
L 780 240
L 780 240
L 780 240
L 780 240
L 780 240
L 780 240
L 780 240
L 780 240
L 780 240
L 780 240
L 780 240
L 780 240
L 780 240
L 780 240
L 780 240
L 780 239
L 780 239
L 780 239
L 780 239
L 780 239
L 780 239
L 780 239
L 780 239
L 780 239
L 780 239
L 780 239
L 780 239
L 780 239
L 780 239
L 780 239
L 780 239
L 780 239
L 780 239
L 780 239
L 780 239
L 780 239
L 780 239
L 780 239
L 780 239
L 780 239
L 780 239
L 780 238
L 780 238
L 780 238
L 780 238
L 780 238
L 780 238
L 780 238
L 780 238
L 780 238
L 780 238
L 780 238
L 780 238
L 780 238
L 780 238
L 780 238
L 780 238
L 780 238
L 780 238
L 780 238
L 780 238
L 780 238
L 780 238
L 780 238
L 780 238
L 780 238
L 780 238
L 780 237
L 780 237
L 780 237
L 780 237
L 780 237
L 780 237
L 780 237
L 780 237
L 780 237
L 780 237
L 780 237
L 780 237
L 780 237
L 780 237
L 780 237
L 780 237
L 780 237
L 780 237
L 780 237
L 780 237
L 780 237
L 780 237
L 780 237
L 780 237
L 780 237
L 780 237
L 780 237
L 780 236
L 780 236
L 780 236
L 780 236
L 780 236
L 780 236
L 780 236
L 780 236
L 780 236
L 780 236
L 780 236
L 780 236
L 780 236
L 780 236
L 780 236
L 780 236
L 780 236
L 780 236
L 780 236
L 780 236
L 780 236
L 780 236
L 780 236
L 780 236
L 780 236
L 780 236
L 780 235
L 780 235
L 780 235
L 780 235
L 780 235
L 780 235
L 780 235
L 780 235
L 780 235
L 780 235
L 780 235
L 780 235
L 780 235
L 780 235
L 780 235
L 780 235
L 780 235
L 780 235
L 780 235
L 780 235
L 780 235
L 780 235
L 780 235
L 780 235
L 780 235
L 780 235
L 780 234
L 780 234
L 780 234
L 780 234
L 780 234
L 780 234
L 780 234
L 780 234
L 780 234
L 780 234
L 780 234
L 780 234
L 780 234
L 780 234
L 780 234
L 780 234
L 780 234
L 780 234
L 780 234
L 780 234
L 780 234
L 780 234
L 780 234
L 780 234
L 780 234
L 780 234
L 780 233
L 780 233
L 780 233
L 780 233
L 780 233
L 780 233
L 780 233
L 780 233
L 780 233
L 780 233
L 780 233
L 780 233
L 780 233
L 780 233
L 780 233
L 780 233
L 780 233
L 780 233
L 780 233
L 780 233
L 780 233
L 780 233
L 780 233
L 780 233
L 780 233
L 780 233
L 780 232
L 780 232
L 780 232
L 780 232
L 780 232
L 780 232
L 780 232
L 780 232
L 780 232
L 780 232
L 780 232
L 780 232
L 780 232
L 780 232
L 780 232
L 780 232
L 780 232
L 780 232
L 780 232
L 780 232
L 780 232
L 780 232
L 780 232
L 780 232
L 780 232
L 780 232
L 780 232
L 780 231
L 780 231
L 780 231
L 780 231
L 780 231
L 780 231
L 780 231
L 780 231
L 780 231
L 780 231
L 780 231
L 780 231
L 780 231
L 780 231
L 780 231
L 780 231
L 780 231
L 780 231
L 780 231
L 780 231
L 780 231
L 780 231
L 780 231
L 780 231
L 780 231
L 780 231
L 780 230
L 780 230
L 780 230
L 780 230
L 780 230
L 780 230
L 780 230
L 780 230
L 780 230
L 780 230
L 780 230
L 780 230
L 780 230
L 780 230
L 780 230
L 780 230
L 780 230
L 780 230
L 780 230
L 780 230
L 780 230
L 780 230
L 780 230
L 780 230
L 780 230
L 780 230
L 780 229
L 780 229
L 780 229
L 780 229
L 780 229
L 780 229
L 780 229
L 780 229
L 780 229
L 780 229
L 780 229
L 780 229
L 780 229
L 780 229
L 780 229
L 781 229
L 781 229
L 781 229
L 781 229
L 781 229
L 781 229
L 781 229
L 781 229
L 781 229
L 781 229
L 781 229
L 781 228
L 781 228
L 781 228
L 781 228
L 781 228
L 781 228
L 781 228
L 781 228
L 781 228
L 781 228
L 781 228
L 781 228
L 781 228
L 781 228
L 781 228
L 781 228
L 781 228
L 781 228
L 781 228
L 781 228
L 781 228
L 781 228
L 781 228
L 781 228
L 781 228
L 781 228
L 781 227
L 781 227
L 781 227
L 781 227
L 781 227
L 781 227
L 781 227
L 781 227
L 781 227
L 781 227
L 781 227
L 781 227
L 781 227
L 781 227
L 781 227
L 781 227
L 781 227
L 781 227
L 781 227
L 781 227
L 781 227
L 781 227
L 781 227
L 781 227
L 781 227
L 781 227
L 781 226
L 781 226
L 781 226
L 781 226
L 781 226
L 781 226
L 781 226
L 781 226
L 781 226
L 781 226
L 781 226
L 781 226
L 781 226
L 781 226
L 781 226
L 781 226
L 781 226
L 781 226
L 781 226
L 781 226
L 781 226
L 781 226
L 781 226
L 781 226
L 781 226
L 781 226
L 781 226
L 781 225
L 781 225
L 781 225
L 781 225
L 781 225
L 781 225
L 781 225
L 781 225
L 781 225
L 781 225
L 781 225
L 781 225
L 781 225
L 781 225
L 781 225
L 781 225
L 781 225
L 781 225
L 781 225
L 781 225
L 781 225
L 781 225
L 781 225
L 781 225
L 781 225
L 781 225
L 781 224
L 781 224
L 781 224
L 781 224
L 781 224
L 781 224
L 781 224
L 781 224
L 781 224
L 781 224
L 781 224
L 781 224
L 781 224
L 781 224
L 781 224
L 781 224
L 781 224
L 781 224
L 781 224
L 781 224
L 781 224
L 781 224
L 781 224
L 781 224
L 781 224
L 781 224
L 781 223
L 781 223
L 781 223
L 781 223
L 781 223
L 781 223
L 781 223
L 781 223
L 781 223
L 781 223
L 781 223
L 781 223
L 781 223
L 781 223
L 781 223
L 781 223
L 781 223
L 781 223
L 781 223
L 781 223
L 781 223
L 781 223
L 781 223
L 781 223
L 781 223
L 781 223
L 781 222
L 781 222
L 781 222
L 781 222
L 781 222
L 781 222
L 781 222
L 781 222
L 781 222
L 781 222
L 781 222
L 781 222
L 781 222
L 781 222
L 781 222
L 781 222
L 781 222
L 781 222
L 781 222
L 781 222
L 781 222
L 781 222
L 781 222
L 781 222
L 781 222
L 781 222
L 781 221
L 781 221
L 781 221
L 781 221
L 781 221
L 781 221
L 781 221
L 781 221
L 781 221
L 781 221
L 781 221
L 781 221
L 781 221
L 781 221
L 781 221
L 781 221
L 781 221
L 781 221
L 781 221
L 781 221
L 781 221
L 781 221
L 781 221
L 781 221
L 781 221
L 781 221
L 781 220
L 781 220
L 781 220
L 781 220
L 781 220
L 781 220
L 781 220
L 781 220
L 781 220
L 781 220
L 781 220
L 781 220
L 781 220
L 781 220
L 781 220
L 781 220
L 781 220
L 781 220
L 781 220
L 781 220
L 781 220
L 781 220
L 781 220
L 781 220
L 781 220
L 781 220
L 781 220
L 781 219
L 781 219
L 781 219
L 781 219
L 781 219
L 781 219
L 781 219
L 781 219
L 781 219
L 781 219
L 781 219
L 781 219
L 781 219
L 781 219
L 781 219
L 781 219
L 781 219
L 781 219
L 781 219
L 781 219
L 781 219
L 781 219
L 781 219
L 781 219
L 781 219
L 781 219
L 781 218
L 781 218
L 781 218
L 781 218
L 781 218
L 781 218
L 781 218
L 781 218
L 781 218
L 781 218
L 781 218
L 781 218
L 781 218
L 781 218
L 781 218
L 781 218
L 781 218
L 781 218
L 781 218
L 781 218
L 781 218
L 781 218
L 781 218
L 781 218
L 781 218
L 781 218
L 781 217
L 781 217
L 781 217
L 781 217
L 781 217
L 781 217
L 781 217
L 781 217
L 781 217
L 781 217
L 781 217
L 781 217
L 781 217
L 781 217
L 781 217
L 782 217
L 782 217
L 782 217
L 782 217
L 782 217
L 782 217
L 782 217
L 782 217
L 782 217
L 782 217
L 782 217
L 782 216
L 782 216
L 782 216
L 782 216
L 782 216
L 782 216
L 782 216
L 782 216
L 782 216
L 782 216
L 782 216
L 782 216
L 782 216
L 782 216
L 782 216
L 782 216
L 782 216
L 782 216
L 782 216
L 782 216
L 782 216
L 782 216
L 782 216
L 782 216
L 782 216
L 782 216
L 782 215
L 782 215
L 782 215
L 782 215
L 782 215
L 782 215
L 782 215
L 782 215
L 782 215
L 782 215
L 782 215
L 782 215
L 782 215
L 782 215
L 782 215
L 782 215
L 782 215
L 782 215
L 782 215
L 782 215
L 782 215
L 782 215
L 782 215
L 782 215
L 782 215
L 782 215
L 782 215
L 782 214
L 782 214
L 782 214
L 782 214
L 782 214
L 782 214
L 782 214
L 782 214
L 782 214
L 782 214
L 782 214
L 782 214
L 782 214
L 782 214
L 782 214
L 782 214
L 782 214
L 782 214
L 782 214
L 782 214
L 782 214
L 782 214
L 782 214
L 782 214
L 782 214
L 782 214
L 782 213
L 782 213
L 782 213
L 782 213
L 782 213
L 782 213
L 782 213
L 782 213
L 782 213
L 782 213
L 782 213
L 782 213
L 782 213
L 782 213
L 782 213
L 782 213
L 782 213
L 782 213
L 782 213
L 782 213
L 782 213
L 782 213
L 782 213
L 782 213
L 782 213
L 782 213
L 782 212
L 782 212
L 782 212
L 782 212
L 782 212
L 782 212
L 782 212
L 782 212
L 782 212
L 782 212
L 782 212
L 782 212
L 782 212
L 782 212
L 782 212
L 782 212
L 782 212
L 782 212
L 782 212
L 782 212
L 782 212
L 782 212
L 782 212
L 782 212
L 782 212
L 782 212
L 782 211
L 782 211
L 782 211
L 782 211
L 782 211
L 782 211
L 782 211
L 782 211
L 782 211
L 782 211
L 782 211
L 782 211
L 782 211
L 782 211
L 782 211
L 782 211
L 782 211
L 782 211
L 782 211
L 783 211
L 783 211
L 783 211
L 783 211
L 783 211
L 783 211
L 783 211
L 783 210
L 783 210
L 783 210
L 784 210
L 784 210
L 784 210
L 784 210
L 784 210
L 784 210
L 784 210
L 784 210
L 784 210
L 784 210
L 784 210
L 784 210
L 784 210
L 785 210
L 785 210
L 785 210
L 785 210
L 785 210
L 785 210
L 785 210
L 785 210
L 785 210
L 785 210
L 785 209
L 785 209
L 785 209
L 785 209
L 785 209
L 785 209
L 785 209
L 785 209
L 785 209
L 785 209
L 785 209
L 785 209
L 785 209
L 785 209
L 785 209
L 785 209
L 785 209
L 785 209
L 785 209
L 785 209
L 785 209
L 785 209
L 785 209
L 785 209
L 785 209
L 785 209
L 786 209
L 786 208
L 786 208
L 786 208
L 786 208
L 786 208
L 786 208
L 786 208
L 786 208
L 786 208
L 786 208
L 786 208
L 786 208
L 786 208
L 786 208
L 786 208
L 786 208
L 786 208
L 786 208
L 786 208
L 786 208
L 786 208
L 786 208
L 786 208
L 786 208
L 786 208
L 786 208
L 786 207
L 786 207
L 786 207
L 786 207
L 787 207
L 787 207
L 787 207
L 787 207
L 787 207
L 787 207
L 787 207
L 787 207
L 787 207
L 787 207
L 787 207
L 787 207
L 787 207
L 787 207
L 787 207
L 787 207
L 787 207
L 787 207
L 787 207
L 787 207
L 787 207
L 788 207
L 788 206
L 788 206
L 788 206
L 788 206
L 788 206
L 788 206
L 788 206
L 788 206
L 788 206
L 788 206
L 788 206
L 788 206
L 788 206
L 788 206
L 788 206
L 788 206
L 788 206
L 788 206
L 788 206
L 788 206
L 788 206
L 788 206
L 789 206
L 789 206
L 789 206
L 789 206
L 789 205
L 789 205
L 789 205
L 789 205
L 789 205
L 789 205
L 789 205
L 789 205
L 789 205
L 789 205
L 789 205
L 789 205
L 789 205
L 789 205
L 789 205
L 789 205
L 789 205
L 789 205
L 789 205
L 789 205
L 789 205
L 789 205
L 789 205
L 789 205
L 789 205
L 789 205
L 789 204
L 790 204
L 790 204
L 790 204
L 790 204
L 790 204
L 790 204
L 790 204
L 790 204
L 790 204
L 790 204
L 790 204
L 790 204
L 790 204
L 790 204
L 790 204
L 790 204
L 790 204
L 791 204
L 791 204
L 791 204
L 791 204
L 791 204
L 791 204
L 791 204
L 791 204
L 791 203
L 791 203
L 791 203
L 791 203
L 791 203
L 791 203
L 791 203
L 791 203
L 791 203
L 791 203
L 792 203
L 792 203
L 792 203
L 792 203
L 792 203
L 792 203
L 792 203
L 792 203
L 792 203
L 792 203
L 792 203
L 792 203
L 792 203
L 792 203
L 792 203
L 792 203
L 792 203
L 792 202
L 792 202
L 793 202
L 793 202
L 793 202
L 793 202
L 793 202
L 793 202
L 793 202
L 793 202
L 793 202
L 794 202
L 794 202
L 794 202
L 794 202
L 794 202
L 794 202
L 794 202
L 794 202
L 794 202
L 794 202
L 794 202
L 794 202
L 794 202
L 794 202
L 794 202
L 794 201
L 794 201
L 794 201
L 794 201
L 794 201
L 795 201
L 795 201
L 795 201
L 795 201
L 795 201
L 795 201
L 795 201
L 795 201
L 795 201
L 795 201
L 795 201
L 795 201
L 795 201
L 795 201
L 795 201
L 795 201
L 795 201
L 795 201
L 795 201
L 795 201
L 795 201
L 796 200
L 796 200
L 796 200
L 796 200
L 796 200
L 796 200
L 796 200
L 796 200
L 796 200
L 796 200
L 796 200
L 796 200
L 796 200
L 796 200
L 796 200
L 796 200
L 796 200
L 796 200
L 796 200
L 796 200
L 797 200
L 797 200
L 797 200
L 797 200
L 797 200
L 797 200
L 797 199
L 797 199
L 797 199
L 797 199
L 797 199
L 797 199
L 797 199
L 797 199
L 797 199
L 797 199
L 798 199
L 798 199
L 798 199
L 798 199
L 798 199
L 798 199
L 798 199
L 799 199
L 799 199
L 799 199
L 799 199
L 799 199
L 799 199
L 799 199
L 799 199
L 799 199
L 799 198
L 799 198
L 799 198
L 799 198
L 799 198
L 800 198
L 800 198
L 800 198
L 800 198
L 800 198
L 800 198
L 800 198
L 800 198
L 800 198
L 800 198
L 800 198
L 800 198
L 800 198
L 800 198
L 800 198
L 800 198
L 800 198
L 800 198
L 800 198
L 800 198
L 800 198
L 800 198
L 800 197
L 800 197
L 800 197
L 800 197
L 800 197
L 800 197
L 800 197
L 800 197
L 800 197
L 800 197
L 800 197
L 800 197
L 800 197
L 800 197
L 800 197
L 800 197
L 800 197
L 800 197
L 800 197
L 800 197
L 800 197
L 800 197
L 800 197
L 800 197
L 800 197
L 800 197
L 801 196
L 801 196
L 801 196
L 801 196
L 801 196
L 801 196
L 801 196
L 801 196
L 801 196
L 801 196
L 801 196
L 801 196
L 801 196
L 801 196
L 801 196
L 801 196
L 801 196
L 801 196
L 801 196
L 801 196
L 801 196
L 801 196
L 801 196
L 801 196
L 801 196
L 801 196
L 801 195
L 801 195
L 801 195
L 801 195
L 801 195
L 801 195
L 801 195
L 801 195
L 801 195
L 801 195
L 801 195
L 801 195
L 801 195
L 801 195
L 801 195
L 801 195
L 801 195
L 801 195
L 801 195
L 801 195
L 801 195
L 801 195
L 801 195
L 801 195
L 801 195
L 801 195
L 801 194
L 801 194
L 801 194
L 801 194
L 801 194
L 801 194
L 801 194
L 801 194
L 801 194
L 801 194
L 801 194
L 801 194
L 801 194
L 801 194
L 801 194
L 801 194
L 801 194
L 801 194
L 801 194
L 801 194
L 801 194
L 801 194
L 801 194
L 801 194
L 801 194
L 801 194
L 801 193
L 801 193
L 801 193
L 801 193
L 801 193
L 801 193
L 801 193
L 801 193
L 801 193
L 801 193
L 801 193
L 801 193
L 801 193
L 801 193
L 801 193
L 801 193
L 801 193
L 801 193
L 801 193
L 801 193
L 801 193
L 801 193
L 801 193
L 801 193
L 801 193
L 801 193
L 801 192
L 801 192
L 801 192
L 801 192
L 801 192
L 801 192
L 801 192
L 801 192
L 801 192
L 801 192
L 801 192
L 801 192
L 801 192
L 801 192
L 801 192
L 801 192
L 801 192
L 801 192
L 801 192
L 801 192
L 801 192
L 801 192
L 801 192
L 801 192
L 801 192
L 801 192
L 801 192
L 801 191
L 801 191
L 801 191
L 801 191
L 801 191
L 801 191
L 801 191
L 801 191
L 801 191
L 801 191
L 801 191
L 801 191
L 801 191
L 801 191
L 801 191
L 801 191
L 801 191
L 801 191
L 801 191
L 801 191
L 801 191
L 801 191
L 801 191
L 801 191
L 801 191
L 801 191
L 801 190
L 801 190
L 801 190
L 801 190
L 801 190
L 801 190
L 801 190
L 801 190
L 801 190
L 801 190
L 801 190
L 801 190
L 801 190
L 801 190
L 801 190
L 801 190
L 801 190
L 801 190
L 801 190
L 801 190
L 801 190
L 801 190
L 801 190
L 801 190
L 801 190
L 801 190
L 801 189
L 801 189
L 801 189
L 801 189
L 801 189
L 801 189
L 801 189
L 801 189
L 801 189
L 801 189
L 801 189
L 801 189
L 801 189
L 801 189
L 801 189
L 801 189
L 801 189
L 801 189
L 801 189
L 801 189
L 801 189
L 801 189
L 801 189
L 801 189
L 801 189
L 801 189
L 801 188
L 801 188
L 801 188
L 801 188
L 801 188
L 801 188
L 801 188
L 801 188
L 801 188
L 801 188
L 801 188
L 801 188
L 801 188
L 801 188
L 801 188
L 801 188
L 801 188
L 801 188
L 801 188
L 801 188
L 801 188
L 801 188
L 801 188
L 801 188
L 801 188
L 801 188
L 801 187
L 801 187
L 801 187
L 801 187
L 801 187
L 801 187
L 801 187
L 801 187
L 801 187
L 801 187
L 801 187
L 801 187
L 801 187
L 801 187
L 801 187
L 801 187
L 801 187
L 801 187
L 801 187
L 801 187
L 801 187
L 801 187
L 801 187
L 801 187
L 801 187
L 801 187
L 801 186
L 801 186
L 801 186
L 801 186
L 801 186
L 801 186
L 801 186
L 801 186
L 801 186
L 801 186
L 801 186
L 801 186
L 801 186
L 801 186
L 801 186
L 801 186
L 801 186
L 801 186
L 801 186
L 801 186
L 801 186
L 801 186
L 801 186
L 801 186
L 801 186
L 801 186
L 801 186
L 801 185
L 801 185
L 801 185
L 801 185
L 801 185
L 801 185
L 801 185
L 801 185
L 801 185
L 801 185
L 801 185
L 801 185
L 801 185
L 801 185
L 801 185
L 801 185
L 801 185
L 801 185
L 801 185
L 801 185
L 801 185
L 801 185
L 801 185
L 802 185
L 802 185
L 802 185
L 802 184
L 802 184
L 802 184
L 802 184
L 802 184
L 802 184
L 802 184
L 802 184
L 802 184
L 802 184
L 802 184
L 802 184
L 802 184
L 802 184
L 802 184
L 802 184
L 802 184
L 802 184
L 802 184
L 802 184
L 802 184
L 802 184
L 802 184
L 802 184
L 802 184
L 802 184
L 802 183
L 802 183
L 802 183
L 802 183
L 802 183
L 802 183
L 802 183
L 802 183
L 802 183
L 802 183
L 802 183
L 802 183
L 802 183
L 802 183
L 802 183
L 802 183
L 802 183
L 802 183
L 802 183
L 802 183
L 802 183
L 802 183
L 802 183
L 802 183
L 802 183
L 802 183
L 802 182
L 802 182
L 802 182
L 802 182
L 802 182
L 802 182
L 802 182
L 802 182
L 802 182
L 802 182
L 802 182
L 802 182
L 802 182
L 802 182
L 802 182
L 802 182
L 802 182
L 802 182
L 802 182
L 802 182
L 802 182
L 802 182
L 802 182
L 802 182
L 802 182
L 802 182
L 802 181
L 802 181
L 802 181
L 802 181
L 802 181
L 802 181
L 802 181
L 802 181
L 802 181
L 802 181
L 802 181
L 802 181
L 802 181
L 802 181
L 802 181
L 802 181
L 802 181
L 802 181
L 802 181
L 802 181
L 802 181
L 802 181
L 802 181
L 802 181
L 802 181
L 802 181
L 802 181
L 802 180
L 802 180
L 802 180
L 802 180
L 802 180
L 802 180
L 802 180
L 802 180
L 802 180
L 802 180
L 802 180
L 802 180
L 802 180
L 802 180
L 802 180
L 802 180
L 802 180
L 802 180
L 802 180
L 802 180
L 802 180
L 802 180
L 802 180
L 802 180
L 802 180
L 802 180
L 802 179
L 802 179
L 802 179
L 802 179
L 802 179
L 802 179
L 802 179
L 802 179
L 802 179
L 802 179
L 802 179
L 802 179
L 802 179
L 802 179
L 802 179
L 802 179
L 802 179
L 802 179
L 802 179
L 802 179
L 802 179
L 802 179
L 802 179
L 802 179
L 802 179
L 802 179
L 802 178
L 802 178
L 802 178
L 802 178
L 802 178
L 802 178
L 802 178
L 802 178
L 802 178
L 802 178
L 802 178
L 802 178
L 802 178
L 802 178
L 802 178
L 802 178
L 802 178
L 802 178
L 802 178
L 802 178
L 802 178
L 802 178
L 802 178
L 802 178
L 802 178
L 802 178
L 802 177
L 802 177
L 802 177
L 802 177
L 802 177
L 802 177
L 802 177
L 802 177
L 802 177
L 802 177
L 802 177
L 802 177
L 802 177
L 802 177
L 802 177
L 802 177
L 802 177
L 802 177
L 802 177
L 802 177
L 802 177
L 802 177
L 802 177
L 802 177
L 802 177
L 802 177
L 802 176
L 802 176
L 802 176
L 802 176
L 802 176
L 802 176
L 802 176
L 802 176
L 802 176
L 802 176
L 802 176
L 802 176
L 802 176
L 802 176
L 802 176
L 802 176
L 802 176
L 802 176
L 802 176
L 802 176
L 802 176
L 802 176
L 802 176
L 802 176
L 802 176
L 802 176
L 802 175
L 802 175
L 802 175
L 802 175
L 802 175
L 802 175
L 802 175
L 802 175
L 802 175
L 802 175
L 802 175
L 802 175
L 802 175
L 802 175
L 802 175
L 802 175
L 802 175
L 802 175
L 802 175
L 802 175
L 802 175
L 802 175
L 802 175
L 802 175
L 802 175
L 802 175
L 802 175
L 802 174
L 802 174
L 802 174
L 802 174
L 802 174
L 802 174
L 802 174
L 802 174
L 802 174
L 802 174
L 802 174
L 802 174
L 802 174
L 802 174
L 802 174
L 802 174
L 802 174
L 802 174
L 802 174
L 802 174
L 802 174
L 802 174
L 802 174
L 802 174
L 802 174
L 802 174
L 802 173
L 802 173
L 802 173
L 802 173
L 802 173
L 802 173
L 802 173
L 802 173
L 802 173
L 802 173
L 802 173
L 802 173
L 802 173
L 802 173
L 802 173
L 802 173
L 802 173
L 802 173
L 802 173
L 802 173
L 802 173
L 802 173
L 802 173
L 802 173
L 802 173
L 802 173
L 802 172
L 802 172
L 802 172
L 802 172
L 802 172
L 802 172
L 802 172
L 802 172
L 802 172
L 802 172
L 802 172
L 802 172
L 802 172
L 803 172
L 803 172
L 803 172
L 803 172
L 803 172
L 803 172
L 803 172
L 803 172
L 803 172
L 803 172
L 803 172
L 803 172
L 803 172
L 803 171
L 803 171
L 803 171
L 803 171
L 803 171
L 803 171
L 803 171
L 803 171
L 803 171
L 803 171
L 803 171
L 803 171
L 803 171
L 803 171
L 803 171
L 803 171
L 803 171
L 803 171
L 803 171
L 803 171
L 803 171
L 803 171
L 803 171
L 803 171
L 803 171
L 803 171
L 803 170
L 803 170
L 803 170
L 803 170
L 803 170
L 803 170
L 803 170
L 803 170
L 803 170
L 803 170
L 803 170
L 803 170
L 803 170
L 803 170
L 803 170
L 803 170
L 803 170
L 803 170
L 803 170
L 803 170
L 803 170
L 803 170
L 803 170
L 803 170
L 803 170
L 803 170
L 803 169
L 803 169
L 803 169
L 803 169
L 803 169
L 803 169
L 803 169
L 803 169
L 803 169
L 803 169
L 803 169
L 803 169
L 803 169
L 803 169
L 803 169
L 803 169
L 803 169
L 803 169
L 803 169
L 803 169
L 803 169
L 803 169
L 803 169
L 803 169
L 803 169
L 803 169
L 803 169
L 803 168
L 803 168
L 803 168
L 803 168
L 803 168
L 803 168
L 803 168
L 803 168
L 803 168
L 803 168
L 803 168
L 803 168
L 803 168
L 803 168
L 803 168
L 803 168
L 803 168
L 803 168
L 803 168
L 803 168
L 803 168
L 803 168
L 803 168
L 803 168
L 803 168
L 803 168
L 803 167
L 803 167
L 803 167
L 803 167
L 803 167
L 803 167
L 803 167
L 803 167
L 803 167
L 803 167
L 803 167
L 803 167
L 803 167
L 803 167
L 803 167
L 803 167
L 803 167
L 803 167
L 803 167
L 803 167
L 803 167
L 803 167
L 803 167
L 803 167
L 803 167
L 803 167
L 803 166
L 803 166
L 803 166
L 803 166
L 803 166
L 803 166
L 803 166
L 803 166
L 803 166
L 803 166
L 803 166
L 803 166
L 803 166
L 803 166
L 803 166
L 803 166
L 803 166
L 803 166
L 803 166
L 803 166
L 803 166
L 803 166
L 803 166
L 803 166
L 803 166
L 803 166
L 803 165
L 803 165
L 803 165
L 803 165
L 803 165
L 803 165
L 803 165
L 803 165
L 803 165
L 803 165
L 803 165
L 803 165
L 803 165
L 803 165
L 803 165
L 803 165
L 803 165
L 803 165
L 803 165
L 803 165
L 803 165
L 803 165
L 803 165
L 803 165
L 803 165
L 803 165
L 803 164
L 803 164
L 803 164
L 803 164
L 803 164
L 803 164
L 803 164
L 803 164
L 803 164
L 803 164
L 803 164
L 803 164
L 803 164
L 803 164
L 803 164
L 803 164
L 803 164
L 803 164
L 803 164
L 803 164
L 803 164
L 803 164
L 803 164
L 803 164
L 803 164
L 803 164
L 803 163
L 803 163
L 803 163
L 803 163
L 803 163
L 803 163
L 803 163
L 803 163
L 803 163
L 803 163
L 803 163
L 803 163
L 803 163
L 803 163
L 803 163
L 803 163
L 803 163
L 803 163
L 803 163
L 803 163
L 803 163
L 803 163
L 803 163
L 803 163
L 803 163
L 803 163
L 803 163
L 803 162
L 803 162
L 803 162
L 803 162
L 803 162
L 803 162
L 803 162
L 803 162
L 803 162
L 803 162
L 803 162
L 803 162
L 803 162
L 803 162
L 803 162
L 803 162
L 803 162
L 803 162
L 803 162
L 803 162
L 803 162
L 803 162
L 803 162
L 803 162
L 803 162
L 803 162
L 803 161
L 803 161
L 803 161
L 803 161
L 803 161
L 803 161
L 803 161
L 803 161
L 803 161
L 803 161
L 803 161
L 803 161
L 803 161
L 803 161
L 803 161
L 803 161
L 803 161
L 803 161
L 803 161
L 803 161
L 803 161
L 803 161
L 803 161
L 803 161
L 803 161
L 803 161
L 803 160
L 803 160
L 803 160
L 803 160
L 803 160
L 803 160
L 803 160
L 803 160
L 803 160
L 803 160
L 803 160
L 803 160
L 803 160
L 803 160
L 803 160
L 803 160
L 803 160
L 804 160
L 804 160
L 804 160
L 804 160
L 804 160
L 804 160
L 804 160
L 804 160
L 804 160
L 804 159
L 804 159
L 804 159
L 804 159
L 804 159
L 804 159
L 804 159
L 804 159
L 804 159
L 804 159
L 804 159
L 804 159
L 804 159
L 804 159
L 804 159
L 804 159
L 804 159
L 804 159
L 804 159
L 804 159
L 804 159
L 804 159
L 804 159
L 804 159
L 804 159
L 804 159
L 804 158
L 804 158
L 804 158
L 804 158
L 804 158
L 804 158
L 804 158
L 804 158
L 804 158
L 804 158
L 804 158
L 804 158
L 804 158
L 804 158
L 804 158
L 804 158
L 804 158
L 804 158
L 804 158
L 804 158
L 804 158
L 804 158
L 804 158
L 804 158
L 804 158
L 804 158
L 804 158
L 804 157
L 804 157
L 804 157
L 804 157
L 804 157
L 804 157
L 804 157
L 804 157
L 804 157
L 804 157
L 804 157
L 804 157
L 804 157
L 804 157
L 804 157
L 804 157
L 804 157
L 804 157
L 804 157
L 804 157
L 804 157
L 804 157
L 804 157
L 804 157
L 804 157
L 804 157
L 804 156
L 804 156
L 804 156
L 804 156
L 804 156
L 804 156
L 804 156
L 804 156
L 804 156
L 804 156
L 804 156
L 804 156
L 804 156
L 804 156
L 804 156
L 804 156
L 804 156
L 804 156
L 804 156
L 804 156
L 804 156
L 804 156
L 804 156
L 804 156
L 804 156
L 804 156
L 804 155
L 804 155
L 804 155
L 804 155
L 804 155
L 804 155
L 804 155
L 804 155
L 804 155
L 804 155
L 804 155
L 804 155
L 804 155
L 804 155
L 804 155
L 804 155
L 804 155
L 804 155
L 804 155
L 804 155
L 804 155
L 804 155
L 804 155
L 804 155
L 804 155
L 804 155
L 804 154
L 804 154
L 804 154
L 804 154
L 804 154
L 804 154
L 804 154
L 804 154
L 804 154
L 804 154
L 804 154
L 804 154
L 804 154
L 804 154
L 804 154
L 804 154
L 804 154
L 804 154
L 804 154
L 804 154
L 804 154
L 804 154
L 804 154
L 804 154
L 804 154
L 804 154
L 804 153
L 804 153
L 804 153
L 804 153
L 804 153
L 804 153
L 804 153
L 804 153
L 804 153
L 804 153
L 804 153
L 804 153
L 804 153
L 804 153
L 804 153
L 804 153
L 804 153
L 804 153
L 804 153
L 804 153
L 804 153
L 804 153
L 804 153
L 804 153
L 804 153
L 804 153
L 805 152
L 805 152
L 805 152
L 805 152
L 805 152
L 805 152
L 805 152
L 805 152
L 805 152
L 805 152
L 805 152
L 805 152
L 805 152
L 805 152
L 805 152
L 805 152
L 805 152
L 805 152
L 805 152
L 805 152
L 805 152
L 805 152
L 805 152
L 805 152
L 805 152
L 805 152
L 805 152
L 805 151
L 805 151
L 805 151
L 805 151
L 806 151
L 806 151
L 806 151
L 806 151
L 806 151
L 806 151
L 806 151
L 806 151
L 806 151
L 806 151
L 806 151
L 806 151
L 806 151
L 806 151
L 806 151
L 806 151
L 806 151
L 806 151
L 806 151
L 806 151
L 806 151
L 806 151
L 806 150
L 806 150
L 806 150
L 806 150
L 806 150
L 806 150
L 806 150
L 806 150
L 806 150
L 806 150
L 806 150
L 806 150
L 806 150
L 806 150
L 806 150
L 806 150
L 806 150
L 806 150
L 806 150
L 806 150
L 806 150
L 806 150
L 806 150
L 806 150
L 806 150
L 806 150
L 806 149
L 806 149
L 806 149
L 806 149
L 806 149
L 806 149
L 806 149
L 806 149
L 806 149
L 806 149
L 806 149
L 806 149
L 806 149
L 806 149
L 806 149
L 806 149
L 806 149
L 806 149
L 806 149
L 806 149
L 806 149
L 806 149
L 806 149
L 806 149
L 806 149
L 806 149
L 806 148
L 806 148
L 806 148
L 806 148
L 806 148
L 806 148
L 806 148
L 806 148
L 806 148
L 806 148
L 806 148
L 806 148
L 806 148
L 806 148
L 806 148
L 806 148
L 806 148
L 806 148
L 806 148
L 806 148
L 806 148
L 806 148
L 806 148
L 806 148
L 807 148
L 807 148
L 807 147
L 807 147
L 807 147
L 807 147
L 807 147
L 807 147
L 807 147
L 807 147
L 807 147
L 807 147
L 807 147
L 807 147
L 807 147
L 807 147
L 807 147
L 807 147
L 807 147
L 807 147
L 807 147
L 807 147
L 807 147
L 807 147
L 807 147
L 807 147
L 807 147
L 807 147
L 807 147
L 807 146
L 807 146
L 807 146
L 807 146
L 807 146
L 807 146
L 807 146
L 807 146
L 807 146
L 807 146
L 807 146
L 807 146
L 807 146
L 807 146
L 807 146
L 807 146
L 807 146
L 807 146
L 807 146
L 807 146
L 807 146
L 807 146
L 807 146
L 808 146
L 808 146
L 808 146
L 808 145
L 808 145
L 808 145
L 808 145
L 808 145
L 808 145
L 808 145
L 808 145
L 808 145
L 808 145
L 808 145
L 808 145
L 808 145
L 808 145
L 808 145
L 808 145
L 808 145
L 808 145
L 808 145
L 808 145
L 808 145
L 808 145
L 808 145
L 808 145
L 808 145
L 808 145
L 808 144
L 808 144
L 808 144
L 808 144
L 808 144
L 808 144
L 808 144
L 808 144
L 808 144
L 808 144
L 808 144
L 809 144
L 809 144
L 809 144
L 809 144
L 809 144
L 809 144
L 809 144
L 809 144
L 809 144
L 809 144
L 809 144
L 809 144
L 809 144
L 809 144
L 809 144
L 810 143
L 810 143
L 810 143
L 810 143
L 810 143
L 810 143
L 810 143
L 810 143
L 810 143
L 810 143
L 810 143
L 810 143
L 810 143
L 810 143
L 810 143
L 810 143
L 810 143
L 810 143
L 810 143
L 810 143
L 810 143
L 810 143
L 810 143
L 810 143
L 810 143
L 810 143
L 811 142
L 811 142
L 811 142
L 811 142
L 811 142
L 811 142
L 811 142
L 811 142
L 811 142
L 811 142
L 811 142
L 811 142
L 811 142
L 811 142
L 811 142
L 811 142
L 811 142
L 811 142
L 811 142
L 811 142
L 811 142
L 811 142
L 811 142
L 811 142
L 811 142
L 811 142
L 811 141
L 811 141
L 811 141
L 811 141
L 811 141
L 811 141
L 811 141
L 812 141
L 812 141
L 812 141
L 812 141
L 812 141
L 812 141
L 812 141
L 812 141
L 812 141
L 812 141
L 812 141
L 812 141
L 812 141
L 812 141
L 812 141
L 812 141
L 812 141
L 812 141
L 812 141
L 813 141
L 813 140
L 813 140
L 813 140
L 813 140
L 813 140
L 813 140
L 813 140
L 813 140
L 813 140
L 813 140
L 813 140
L 813 140
L 813 140
L 813 140
L 813 140
L 813 140
L 813 140
L 813 140
L 813 140
L 814 140
L 814 140
L 814 140
L 814 140
L 814 140
L 814 140
L 814 140
L 814 139
L 814 139
L 814 139
L 814 139
L 814 139
L 814 139
L 814 139
L 814 139
L 814 139
L 814 139
L 814 139
L 814 139
L 814 139
L 814 139
L 814 139
L 814 139
L 814 139
L 814 139
L 814 139
L 814 139
L 814 139
L 814 139
L 814 139
L 814 139
L 815 139
L 815 139
L 815 138
L 815 138
L 815 138
L 815 138
L 815 138
L 815 138
L 815 138
L 815 138
L 815 138
L 815 138
L 815 138
L 816 138
L 816 138
L 816 138
L 816 138
L 816 138
L 816 138
L 816 138
L 816 138
L 816 138
L 816 138
L 816 138
L 817 138
L 817 138
L 817 138
L 817 138
L 817 137
L 817 137
L 817 137
L 817 137
L 817 137
L 817 137
L 817 137
L 817 137
L 817 137
L 817 137
L 817 137
L 817 137
L 817 137
L 817 137
L 817 137
L 817 137
L 817 137
L 817 137
L 817 137
L 817 137
L 817 137
L 817 137
L 817 137
L 817 137
L 817 137
L 817 137
L 817 136
L 817 136
L 817 136
L 817 136
L 817 136
L 817 136
L 818 136
L 818 136
L 818 136
L 818 136
L 818 136
L 818 136
L 818 136
L 818 136
L 818 136
L 818 136
L 818 136
L 818 136
L 818 136
L 818 136
L 818 136
L 818 136
L 818 136
L 818 136
L 818 136
L 818 136
L 818 135
L 818 135
L 818 135
L 818 135
L 818 135
L 818 135
L 818 135
L 818 135
L 818 135
L 818 135
L 818 135
L 818 135
L 818 135
L 818 135
L 818 135
L 818 135
L 818 135
L 818 135
L 818 135
L 818 135
L 818 135
L 818 135
L 818 135
L 818 135
L 818 135
L 818 135
L 818 135
L 818 134
L 818 134
L 818 134
L 818 134
L 818 134
L 818 134
L 819 134
L 819 134
L 819 134
L 819 134
L 819 134
L 819 134
L 819 134
L 819 134
L 819 134
L 819 134
L 819 134
L 819 134
L 819 134
L 819 134
L 819 134
L 819 134
L 819 134
L 819 134
L 819 134
L 819 134
L 819 133
L 819 133
L 819 133
L 819 133
L 819 133
L 819 133
L 819 133
L 819 133
L 819 133
L 819 133
L 819 133
L 819 133
L 819 133
L 819 133
L 819 133
L 819 133
L 819 133
L 819 133
L 819 133
L 819 133
L 819 133
L 819 133
L 819 133
L 819 133
L 819 133
L 819 133
L 819 132
L 819 132
L 820 132
L 820 132
L 820 132
L 820 132
L 820 132
L 820 132
L 820 132
L 820 132
L 820 132
L 820 132
L 820 132
L 820 132
L 820 132
L 820 132
L 820 132
L 820 132
L 820 132
L 820 132
L 820 132
L 820 132
L 820 132
L 820 132
L 820 132
L 820 132
L 821 131
L 821 131
L 821 131
L 821 131
L 821 131
L 821 131
L 821 131
L 821 131
L 821 131
L 821 131
L 821 131
L 821 131
L 821 131
L 821 131
L 821 131
L 821 131
L 821 131
L 821 131
L 821 131
L 821 131
L 821 131
L 821 131
L 821 131
L 821 131
L 821 131
L 821 131
L 821 130
L 821 130
L 821 130
L 821 130
L 821 130
L 821 130
L 821 130
L 821 130
L 821 130
L 822 130
L 822 130
L 822 130
L 822 130
L 822 130
L 822 130
L 822 130
L 822 130
L 822 130
L 822 130
L 822 130
L 822 130
L 822 130
L 822 130
L 822 130
L 822 130
L 822 130
L 822 130
L 822 129
L 822 129
L 822 129
L 822 129
L 822 129
L 822 129
L 822 129
L 822 129
L 822 129
L 823 129
L 823 129
L 823 129
L 823 129
L 823 129
L 823 129
L 823 129
L 823 129
L 823 129
L 823 129
L 823 129
L 823 129
L 823 129
L 823 129
L 823 129
L 823 129
L 823 129
L 823 128
L 823 128
L 823 128
L 823 128
L 823 128
L 823 128
L 823 128
L 823 128
L 823 128
L 823 128
L 823 128
L 823 128
L 824 128
L 824 128
L 824 128
L 824 128
L 824 128
L 824 128
L 824 128
L 824 128
L 824 128
L 824 128
L 824 128
L 824 128
L 824 128
L 824 128
L 824 127
L 824 127
L 824 127
L 824 127
L 824 127
L 824 127
L 824 127
L 825 127
L 825 127
L 825 127
L 825 127
L 825 127
L 825 127
L 825 127
L 825 127
L 825 127
L 826 127
L 826 127
L 826 127
L 826 127
L 826 127
L 826 127
L 826 127
L 826 127
L 827 127
L 827 127
L 827 126
L 827 126
L 827 126
L 828 126
L 828 126
L 828 126
L 828 126
L 828 126
L 828 126
L 828 126
L 828 126
L 828 126
L 828 126
L 828 126
L 828 126
L 828 126
L 828 126
L 828 126
L 828 126
L 828 126
L 828 126
L 829 126
L 829 126
L 829 126
L 829 126
L 829 126
L 829 125
L 829 125
L 829 125
L 829 125
L 829 125
L 829 125
L 829 125
L 829 125
L 830 125
L 830 125
L 830 125
L 830 125
L 830 125
L 830 125
L 830 125
L 830 125
L 830 125
L 831 125
L 831 125
L 831 125
L 831 125
L 831 125
L 831 125
L 831 125
L 831 125
L 831 125
L 832 124
L 832 124
L 832 124
L 832 124
L 832 124
L 832 124
L 832 124
L 832 124
L 832 124
L 832 124
L 833 124
L 833 124
L 833 124
L 833 124
L 833 124
L 833 124
L 833 124
L 833 124
L 833 124
L 833 124
L 833 124
L 833 124
L 833 124
L 834 124
L 834 124
L 834 124
L 834 124
L 834 123
L 834 123
L 834 123
L 834 123
L 834 123
L 834 123
L 835 123
L 835 123
L 835 123
L 835 123
L 835 123
L 835 123
L 835 123
L 835 123
L 835 123
L 835 123
L 835 123
L 835 123
L 835 123
L 835 123
L 836 123
L 836 123
L 836 123
L 836 123
L 836 123
L 836 123
L 836 122
L 836 122
L 836 122
L 836 122
L 836 122
L 836 122
L 836 122
L 836 122
L 837 122
L 837 122
L 837 122
L 837 122
L 837 122
L 837 122
L 837 122
L 838 122
L 838 122
L 838 122
L 838 122
L 838 122
L 838 122
L 838 122
L 838 122
L 838 122
L 838 122
L 839 122
L 839 121
L 839 121
L 839 121
L 839 121
L 839 121
L 839 121
L 839 121
L 839 121
L 839 121
L 839 121
L 839 121
L 839 121
L 839 121
L 839 121
L 839 121
L 839 121
L 839 121
L 839 121
L 839 121
L 839 121
L 840 121
L 840 121
L 840 121
L 840 121
L 840 121
L 840 121
L 840 120
L 840 120
L 840 120
L 840 120
L 841 120
L 841 120
L 841 120
L 841 120
L 841 120
L 841 120
L 841 120
L 842 120
L 842 120
L 842 120
L 842 120
L 842 120
L 842 120
L 843 120
L 843 120
L 843 120
L 843 120
L 843 120
L 843 120
L 843 120
L 843 120
L 843 120
L 843 119
L 843 119
L 844 119
L 844 119
L 844 119
L 844 119
L 844 119
L 844 119
L 844 119
L 844 119
L 844 119
L 844 119
L 844 119
L 844 119
L 844 119
L 844 119
L 844 119
L 844 119
L 844 119
L 844 119
L 844 119
L 844 119
L 844 119
L 844 119
L 844 119
L 844 119
L 844 118
L 844 118
L 844 118
L 844 118
L 844 118
L 844 118
L 844 118
L 844 118
L 844 118
L 844 118
L 844 118
L 844 118
L 844 118
L 844 118
L 844 118
L 845 118
L 845 118
L 845 118
L 845 118
L 845 118
L 845 118
L 845 118
L 845 118
L 845 118
L 845 118
L 845 118
L 845 118
L 845 117
L 845 117
L 845 117
L 845 117
L 845 117
L 845 117
L 846 117
L 846 117
L 846 117
L 846 117
L 846 117
L 846 117
L 846 117
L 846 117
L 846 117
L 846 117
L 846 117
L 846 117
L 846 117
L 846 117
L 846 117
L 846 117
L 846 117
L 846 117
L 846 117
L 846 117
L 846 116
L 846 116
L 846 116
L 846 116
L 846 116
L 846 116
L 846 116
L 846 116
L 846 116
L 846 116
L 847 116
L 847 116
L 847 116
L 847 116
L 847 116
L 847 116
L 847 116
L 847 116
L 847 116
L 847 116
L 847 116
L 847 116
L 847 116
L 848 116
L 848 116
L 848 116
L 848 115
L 848 115
L 848 115
L 848 115
L 848 115
L 848 115
L 848 115
L 848 115
L 848 115
L 849 115
L 849 115
L 849 115
L 849 115
L 849 115
L 849 115
L 849 115
L 849 115
L 849 115
L 849 115
L 849 115
L 850 115
L 850 115
L 850 115
L 850 115
L 850 115
L 850 115
L 850 114
L 850 114
L 850 114
L 850 114
L 850 114
L 850 114
L 850 114
L 850 114
L 850 114
L 850 114
L 850 114
L 850 114
L 851 114
L 851 114
L 851 114
L 851 114
L 851 114
L 851 114
L 851 114
L 851 114
L 851 114
L 851 114
L 851 114
L 851 114
L 851 114
L 851 114
L 851 113
L 852 113
L 852 113
L 852 113
L 852 113
L 852 113
L 852 113
L 852 113
L 852 113
L 852 113
L 852 113
L 853 113
L 853 113
L 853 113
L 853 113
L 853 113
L 853 113
L 853 113
L 853 113
L 853 113
L 853 113
L 854 113
L 854 113
L 854 113
L 854 113
L 854 113
L 854 113
L 854 112
L 854 112
L 854 112
L 854 112
L 854 112
L 855 112
L 855 112
L 855 112
L 855 112
L 855 112
L 855 112
L 855 112
L 855 112
L 855 112
L 856 112
L 856 112
L 856 112
L 856 112
L 856 112
L 856 112
L 856 112
L 856 112
L 856 112
L 856 112
L 856 112
L 856 112
L 856 111
L 856 111
L 856 111
L 857 111
L 857 111
L 857 111
L 857 111
L 857 111
L 857 111
L 857 111
L 857 111
L 857 111
L 857 111
L 857 111
L 857 111
L 857 111
L 858 111
L 858 111
L 858 111
L 858 111
L 858 111
L 858 111
L 858 111
L 858 111
L 858 111
L 859 111
L 859 110
L 859 110
L 859 110
L 859 110
L 859 110
L 859 110
L 859 110
L 859 110
L 859 110
L 859 110
L 859 110
L 859 110
L 859 110
L 860 110
L 860 110
L 860 110
L 860 110
L 860 110
L 860 110
L 860 110
L 860 110
L 860 110
L 860 110
L 860 110
L 860 110
L 860 110
L 860 109
L 860 109
L 860 109
L 860 109
L 860 109
L 860 109
L 861 109
L 861 109
L 861 109
L 861 109
L 861 109
L 861 109
L 861 109
L 861 109
L 861 109
L 861 109
L 861 109
L 861 109
L 862 109
L 862 109
L 862 109
L 862 109
L 862 109
L 862 109
L 862 109
L 862 109
L 862 108
L 862 108
L 862 108
L 862 108
L 862 108
L 862 108
L 863 108
L 863 108
L 863 108
L 863 108
L 863 108
L 863 108
L 864 108
L 864 108
L 864 108
L 864 108
L 864 108
L 864 108
L 864 108
L 864 108
L 865 108
L 865 108
L 865 108
L 865 108
L 865 108
L 865 108
L 865 107
L 865 107
L 865 107
L 865 107
L 865 107
L 865 107
L 865 107
L 866 107
L 866 107
L 866 107
L 866 107
L 866 107
L 866 107
L 866 107
L 866 107
L 866 107
L 866 107
L 866 107
L 866 107
L 867 107
L 867 107
L 867 107
L 867 107
L 867 107
L 867 107
L 867 107
L 867 107
L 867 106
L 867 106
L 867 106
L 867 106
L 867 106
L 868 106
L 868 106
L 868 106
L 868 106
L 868 106
L 868 106
L 868 106
L 868 106
L 868 106
L 868 106
L 868 106
L 868 106
L 869 106
L 869 106
L 869 106
L 869 106
L 869 106
L 869 106
L 869 106
L 870 106
L 870 106
L 870 105
L 870 105
L 870 105
L 870 105
L 870 105
L 870 105
L 870 105
L 870 105
L 870 105
L 870 105
L 871 105
L 871 105
L 871 105
L 871 105
L 871 105
L 871 105
L 871 105
L 871 105
L 871 105
L 871 105
L 871 105
L 871 105
L 872 105
L 872 105
L 872 105
L 872 105
L 872 104
L 872 104
L 872 104
L 872 104
L 872 104
L 872 104
L 872 104
L 872 104
L 872 104
L 872 104
L 872 104
L 872 104
L 872 104
L 872 104
L 872 104
L 872 104
L 872 104
L 872 104
L 872 104
L 872 104
L 872 104
L 872 104
L 872 104
L 872 104
L 872 104
L 872 104
L 872 103
L 872 103
L 872 103
L 872 103
L 872 103
L 872 103
L 872 103
L 872 103
L 872 103
L 872 103
L 873 103
L 873 103
L 873 103
L 873 103
L 873 103
L 873 103
L 873 103
L 873 103
L 873 103
L 873 103
L 873 103
L 873 103
L 873 103
L 873 103
L 873 103
L 873 103
L 873 102
L 873 102
L 873 102
L 873 102
L 873 102
L 873 102
L 873 102
L 873 102
L 873 102
L 873 102
L 873 102
L 874 102
L 874 102
L 874 102
L 874 102
L 874 102
L 874 102
L 874 102
L 874 102
L 874 102
L 874 102
L 874 102
L 874 102
L 874 102
L 874 102
L 874 102
L 874 101
L 874 101
L 874 101
L 874 101
L 874 101
L 874 101
L 874 101
L 874 101
L 874 101
L 874 101
L 874 101
L 874 101
L 874 101
L 874 101
L 874 101
L 874 101
L 874 101
L 874 101
L 874 101
L 874 101
L 874 101
L 874 101
L 874 101
L 874 101
L 874 101
L 875 101
L 875 101
L 875 100
L 875 100
L 875 100
L 875 100
L 875 100
L 875 100
L 875 100
L 875 100
L 875 100
L 875 100
L 875 100
L 875 100
L 875 100
L 875 100
L 876 100
L 876 100
L 876 100
L 876 100
L 876 100
L 876 100
L 876 100
L 876 100
L 876 100
L 876 100
L 876 100
L 876 100
L 876 99
L 876 99
L 876 99
L 876 99
L 876 99
L 876 99
L 876 99
L 876 99
L 876 99
L 876 99
L 876 99
L 876 99
L 876 99
L 876 99
L 876 99
L 877 99
L 877 99
L 877 99
L 877 99
L 877 99
L 877 99
L 877 99
L 877 99
L 877 99
L 877 99
L 877 99
L 877 98
L 877 98
L 877 98
L 877 98
L 877 98
L 877 98
L 877 98
L 877 98
L 877 98
L 877 98
L 877 98
L 877 98
L 877 98
L 877 98
L 877 98
L 877 98
L 877 98
L 877 98
L 877 98
L 877 98
L 877 98
L 877 98
L 877 98
L 877 98
L 877 98
L 877 98
L 877 97
L 877 97
L 877 97
L 877 97
L 877 97
L 877 97
L 877 97
L 877 97
L 877 97
L 877 97
L 877 97
L 878 97
L 878 97
L 878 97
L 878 97
L 878 97
L 878 97
L 878 97
L 878 97
L 878 97
L 878 97
L 878 97
L 878 97
L 878 97
L 878 97
L 878 97
L 878 96
L 878 96
L 878 96
L 878 96
L 878 96
L 878 96
L 878 96
L 878 96
L 878 96
L 878 96
L 878 96
L 878 96
L 878 96
L 878 96
L 878 96
L 878 96
L 878 96
L 878 96
L 878 96
L 878 96
L 878 96
L 878 96
L 878 96
L 878 96
L 878 96
L 878 96
L 878 96
L 878 95
L 878 95
L 878 95
L 878 95
L 878 95
L 878 95
L 878 95
L 878 95
L 878 95
L 878 95
L 878 95
L 878 95
L 878 95
L 878 95
L 878 95
L 878 95
L 878 95
L 878 95
L 879 95
L 879 95
L 879 95
L 879 95
L 879 95
L 879 95
L 879 95
L 879 95
L 879 94
L 879 94
L 879 94
L 879 94
L 879 94
L 879 94
L 879 94
L 879 94
L 879 94
L 879 94
L 879 94
L 879 94
L 879 94
L 879 94
L 879 94
L 879 94
L 879 94
L 879 94
L 879 94
L 879 94
L 879 94
L 879 94
L 879 94
L 879 94
L 879 94
L 879 94
L 879 93
L 879 93
L 879 93
L 879 93
L 879 93
L 879 93
L 879 93
L 879 93
L 879 93
L 879 93
L 879 93
L 879 93
L 879 93
L 879 93
L 879 93
L 879 93
L 879 93
L 879 93
L 879 93
L 879 93
L 879 93
L 879 93
L 879 93
L 879 93
L 879 93
L 879 93
L 879 92
L 879 92
L 879 92
L 879 92
L 879 92
L 879 92
L 879 92
L 879 92
L 879 92
L 879 92
L 879 92
L 879 92
L 879 92
L 880 92
L 880 92
L 880 92
L 880 92
L 880 92
L 880 92
L 880 92
L 880 92
L 880 92
L 880 92
L 880 92
L 880 92
L 880 92
L 880 91
L 880 91
L 880 91
L 880 91
L 880 91
L 880 91
L 880 91
L 880 91
L 880 91
L 880 91
L 880 91
L 880 91
L 880 91
L 880 91
L 880 91
L 880 91
L 880 91
L 880 91
L 881 91
L 881 91
L 881 91
L 881 91
L 881 91
L 881 91
L 881 91
L 881 91
L 881 90
L 881 90
L 881 90
L 881 90
L 881 90
L 881 90
L 881 90
L 882 90
L 882 90
L 882 90
L 882 90
L 882 90
L 882 90
L 882 90
L 882 90
L 882 90
L 882 90
L 882 90
L 882 90
L 882 90
L 882 90
L 882 90
L 882 90
L 882 90
L 882 90
L 882 90
L 882 90
L 882 89
L 882 89
L 882 89
L 882 89
L 882 89
L 882 89
L 882 89
L 882 89
L 882 89
L 882 89
L 882 89
L 883 89
L 883 89
L 883 89
L 883 89
L 883 89
L 883 89
L 883 89
L 883 89
L 883 89
L 883 89
L 883 89
L 883 89
L 883 89
L 883 89
L 883 89
L 883 88
L 883 88
L 883 88
L 883 88
L 883 88
L 883 88
L 883 88
L 883 88
L 883 88
L 883 88
L 883 88
L 883 88
L 883 88
L 883 88
L 884 88
L 884 88
L 884 88
L 884 88
L 884 88
L 884 88
L 884 88
L 884 88
L 884 88
L 884 88
L 884 88
L 884 88
L 884 87
L 884 87
L 884 87
L 885 87
L 885 87
L 885 87
L 885 87
L 885 87
L 885 87
L 885 87
L 885 87
L 886 87
L 886 87
L 886 87
L 886 87
L 886 87
L 886 87
L 886 87
L 886 87
L 886 87
L 886 87
L 886 87
L 886 87
L 886 87
L 886 87
L 886 87
L 887 86
L 887 86
L 887 86
L 887 86
L 887 86
L 887 86
L 887 86
L 887 86
L 887 86
L 887 86
L 887 86
L 887 86
L 887 86
L 887 86
L 887 86
L 887 86
L 887 86
L 887 86
L 887 86
L 887 86
L 887 86
L 887 86
L 887 86
L 887 86
L 887 86
L 887 86
L 888 85
L 888 85
L 888 85
L 888 85
L 888 85
L 888 85
L 888 85
L 888 85
L 888 85
L 888 85
L 888 85
L 888 85
L 888 85
L 888 85
L 888 85
L 888 85
L 888 85
L 888 85
L 888 85
L 888 85
L 888 85
L 888 85
L 889 85
L 889 85
L 889 85
L 889 85
L 889 84
L 889 84
L 889 84
L 889 84
L 889 84
L 889 84
L 889 84
L 889 84
L 889 84
L 889 84
L 889 84
L 889 84
L 889 84
L 889 84
L 889 84
L 889 84
L 889 84
L 889 84
L 889 84
L 889 84
L 889 84
L 889 84
L 889 84
L 889 84
L 889 84
L 889 84
L 889 84
L 889 83
L 890 83
L 890 83
L 890 83
L 890 83
L 890 83
L 890 83
L 890 83
L 890 83
L 890 83
L 890 83
L 890 83
L 890 83
L 890 83
L 890 83
L 890 83
L 890 83
L 890 83
L 891 83
L 891 83
L 891 83
L 891 83
L 891 83
L 891 83
L 891 83
L 891 83
L 891 82
L 891 82
L 891 82
L 891 82
L 891 82
L 891 82
L 891 82
L 891 82
L 891 82
L 891 82
L 891 82
L 891 82
L 891 82
L 891 82
L 891 82
L 891 82
L 891 82
L 891 82
L 891 82
L 891 82
L 891 82
L 891 82
L 891 82
L 891 82
L 891 82
L 891 82
L 891 81
L 891 81
L 891 81
L 892 81
L 892 81
L 892 81
L 892 81
L 892 81
L 892 81
L 893 81
L 893 81
L 893 81
L 893 81
L 893 81
L 893 81
L 893 81
L 893 81
L 893 81
L 893 81
L 893 81
L 893 81
L 894 81
L 894 81
L 894 81
L 894 81
L 894 81
L 894 80
L 894 80
L 894 80
L 894 80
L 894 80
L 894 80
L 894 80
L 894 80
L 894 80
L 894 80
L 894 80
L 894 80
L 894 80
L 894 80
L 894 80
L 894 80
L 895 80
L 895 80
L 895 80
L 895 80
L 895 80
L 895 80
L 895 80
L 895 80
L 895 80
L 895 80
L 895 79
L 895 79
L 895 79
L 895 79
L 895 79
L 895 79
L 895 79
L 895 79
L 895 79
L 895 79
L 895 79
L 895 79
L 895 79
L 895 79
L 895 79
L 895 79
L 895 79
L 895 79
L 896 79
L 896 79
L 896 79
L 896 79
L 896 79
L 896 79
L 896 79
L 896 79
L 896 79
L 896 78
L 896 78
L 896 78
L 896 78
L 896 78
L 896 78
L 896 78
L 896 78
L 896 78
L 896 78
L 897 78
L 897 78
L 897 78
L 897 78
L 897 78
L 897 78
L 897 78
L 897 78
L 897 78
L 897 78
L 897 78
L 897 78
L 897 78
L 897 78
L 897 78
L 897 78
L 897 77
L 897 77
L 897 77
L 898 77
L 898 77
L 898 77
L 898 77
L 898 77
L 898 77
L 898 77
L 898 77
L 898 77
L 899 77
L 899 77
L 899 77
L 899 77
L 899 77
L 899 77
L 899 77
L 899 77
L 899 77
L 899 77
L 899 77
L 899 77
L 899 77
L 899 77
L 899 76
L 900 76
L 900 76
L 900 76
L 900 76
L 900 76
L 900 76
L 900 76
L 900 76
L 900 76
L 900 76
L 900 76
L 900 76
L 900 76
L 900 76
L 900 76
L 901 76
L 901 76
L 901 76
L 901 76
L 901 76
L 901 76
L 901 76
L 901 76
L 901 76
L 901 76
L 902 75
L 902 75
L 902 75
L 902 75
L 902 75
L 902 75
L 902 75
L 903 75
L 903 75
L 903 75
L 903 75
L 903 75
L 903 75
L 903 75
L 903 75
L 903 75
L 903 75
L 903 75
L 903 75
L 904 75
L 904 75
L 904 75
L 904 75
L 904 75
L 905 75
L 905 75
L 905 74
L 905 74
L 905 74
L 905 74
L 906 74
L 906 74
L 906 74
L 906 74
L 906 74
L 906 74
L 906 74
L 906 74
L 906 74
L 907 74
L 907 74
L 907 74
L 907 74
L 907 74
L 907 74
L 907 74
L 907 74
L 908 74
L 908 74
L 908 74
L 908 74
L 908 74
L 908 73
L 909 73
L 909 73
L 909 73
L 909 73
L 909 73
L 909 73
L 909 73
L 909 73
L 909 73
L 909 73
L 909 73
L 910 73
L 910 73
L 910 73
L 910 73
L 910 73
L 910 73
L 910 73
L 910 73
L 910 73
L 910 73
L 910 73
L 910 73
L 910 73
L 910 73
L 910 73
L 910 72
L 910 72
L 911 72
L 911 72
L 911 72
L 911 72
L 911 72
L 911 72
L 911 72
L 911 72
L 911 72
L 911 72
L 911 72
L 911 72
L 911 72
L 911 72
L 911 72
L 911 72
L 911 72
L 911 72
L 911 72
L 911 72
L 911 72
L 911 72
L 911 72
L 911 72
L 911 71
L 911 71
L 911 71
L 911 71
L 911 71
L 911 71
L 912 71
L 912 71
L 912 71
L 912 71
L 912 71
L 912 71
L 912 71
L 912 71
L 912 71
L 912 71
L 912 71
L 912 71
L 912 71
L 912 71
L 912 71
L 912 71
L 912 71
L 912 71
L 912 71
L 912 71
L 912 70
L 913 70
L 913 70
L 913 70
L 913 70
L 913 70
L 914 70
L 914 70
L 914 70
L 914 70
L 914 70
L 914 70
L 915 70
L 915 70
L 915 70
L 915 70
L 915 70
L 915 70
L 915 70
L 915 70
L 915 70
L 915 70
L 915 70
L 915 70
L 916 70
L 916 70
L 916 69
L 916 69
L 916 69
L 916 69
L 916 69
L 916 69
L 916 69
L 916 69
L 917 69
L 917 69
L 917 69
L 917 69
L 917 69
L 917 69
L 917 69
L 917 69
L 917 69
L 918 69
L 918 69
L 918 69
L 918 69
L 918 69
L 918 69
L 918 69
L 919 69
L 919 69
L 919 68
L 919 68
L 919 68
L 919 68
L 919 68
L 919 68
L 919 68
L 920 68
L 920 68
L 920 68
L 920 68
L 920 68
L 920 68
L 920 68
L 920 68
L 920 68
L 921 68
L 921 68
L 921 68
L 921 68
L 921 68
L 921 68
L 921 68
L 921 68
L 921 68
L 921 68
L 921 67
L 921 67
L 921 67
L 921 67
L 922 67
L 922 67
L 922 67
L 922 67
L 922 67
L 922 67
L 922 67
L 922 67
L 922 67
L 922 67
L 922 67
L 922 67
L 922 67
L 922 67
L 922 67
L 922 67
L 922 67
L 922 67
L 922 67
L 922 67
L 922 67
L 922 67
L 922 67
L 922 66
L 922 66
L 922 66
L 923 66
L 923 66
L 923 66
L 923 66
L 923 66
L 923 66
L 923 66
L 923 66
L 923 66
L 923 66
L 923 66
L 923 66
L 924 66
L 924 66
L 924 66
L 924 66
L 924 66
L 924 66
L 924 66
L 924 66
L 924 66
L 924 66
L 924 66
L 924 65
L 924 65
L 924 65
L 925 65
L 925 65
L 925 65
L 925 65
L 925 65
L 925 65
L 925 65
L 925 65
L 925 65
L 925 65
L 926 65
L 926 65
L 926 65
L 926 65
L 926 65
L 926 65
L 926 65
L 926 65
L 926 65
L 926 65
L 926 65
L 926 65
L 926 65
L 926 64
L 927 64
L 927 64
L 927 64
L 927 64
L 927 64
L 927 64
L 927 64
L 927 64
L 927 64
L 927 64
L 927 64
L 927 64
L 927 64
L 927 64
L 928 64
L 928 64
L 928 64
L 928 64
L 928 64
L 928 64
L 928 64
L 928 64
L 929 64
L 929 64
L 929 64
L 929 63
L 929 63
L 929 63
L 929 63
L 929 63
L 929 63
L 929 63
L 929 63
L 929 63
L 929 63
L 929 63
L 929 63
L 929 63
L 930 63
L 930 63
L 930 63
L 930 63
L 930 63
L 930 63
L 930 63
L 930 63
L 931 63
L 931 63
L 931 63
L 931 63
L 931 63
L 931 62
L 931 62
L 931 62
L 932 62
L 932 62
L 932 62
L 932 62
L 932 62
L 932 62
L 933 62
L 933 62
L 933 62
L 933 62
L 933 62
L 933 62
L 934 62
L 934 62
L 934 62
L 934 62
L 934 62
L 934 62
L 934 62
L 934 62
L 934 62
L 934 62
L 934 62
L 934 62
L 935 61
L 935 61
L 935 61
L 935 61
L 936 61
L 936 61
L 936 61
L 936 61
L 936 61
L 936 61
L 936 61
L 937 61
L 937 61
L 937 61
L 937 61
L 937 61
L 937 61
L 937 61
L 937 61
L 937 61
L 937 61
L 938 61
L 938 61
L 938 61
L 938 61
L 938 61
L 938 60
L 938 60
L 938 60
L 938 60
L 938 60
L 938 60
L 938 60
L 938 60
L 938 60
L 938 60
L 939 60
L 939 60
L 939 60
L 939 60
L 939 60
L 939 60
L 939 60
L 939 60
L 939 60
L 939 60
L 939 60
L 939 60
L 939 60
L 939 60
L 940 60
L 940 60
L 940 59
L 940 59
L 940 59
L 940 59
L 940 59
L 940 59
L 940 59
L 940 59
L 940 59
L 940 59
L 941 59
L 941 59
L 941 59
L 941 59
L 941 59
L 941 59
L 941 59
L 941 59
L 941 59
L 941 59
L 941 59
L 942 59
L 942 59
L 942 59
L 942 59
L 942 59
L 942 58
L 942 58
L 942 58
L 942 58
L 942 58
L 942 58
L 942 58
L 943 58
L 943 58
L 943 58
L 943 58
L 943 58
L 943 58
L 943 58
L 943 58
L 943 58
L 943 58
L 943 58
L 944 58
L 944 58
L 944 58
L 944 58
L 944 58
L 944 58
L 945 58
L 945 58
L 945 57
L 945 57
L 945 57
L 946 57
L 946 57
L 946 57
L 947 57
L 947 57
L 947 57
L 947 57
L 947 57
L 947 57
L 948 57
L 948 57
L 948 57
L 948 57
L 948 57
L 948 57
L 948 57
L 948 57
L 948 57
L 948 57
L 948 57
L 948 57
L 949 57
L 949 57
L 949 56
L 949 56
L 949 56
L 949 56
L 949 56
L 949 56
L 949 56
L 949 56
L 949 56
L 949 56
L 950 56
L 950 56
L 950 56
L 950 56
L 950 56
L 950 56
L 950 56
L 950 56
L 950 56
L 950 56
L 950 56
L 950 56
L 950 56
L 950 56
L 950 56
L 950 56
L 950 56
L 950 55
L 950 55
L 950 55
L 950 55
L 950 55
L 950 55
L 950 55
L 950 55
L 950 55
L 950 55
L 951 55
L 951 55
L 951 55
L 951 55
L 951 55
L 951 55
L 951 55
L 951 55
L 951 55
L 951 55
L 951 55
L 951 55
L 951 55
L 951 55
L 951 55
L 951 55
L 951 54
L 951 54
L 951 54
L 951 54
L 951 54
L 951 54
L 951 54
L 951 54
L 952 54
L 952 54
L 952 54
L 952 54
L 952 54
L 952 54
L 952 54
L 952 54
L 952 54
L 952 54
L 952 54
L 952 54
L 952 54
L 952 54
L 952 54
L 952 54
L 952 54
L 952 54
L 952 53
L 952 53
L 952 53
L 952 53
L 952 53
L 952 53
L 953 53
L 953 53
L 953 53
L 953 53
L 953 53
L 953 53
L 953 53
L 953 53
L 953 53
L 953 53
L 953 53
L 953 53
L 953 53
L 953 53
L 953 53
L 953 53
L 953 53
L 953 53
L 953 53
L 953 53
L 953 52
L 953 52
L 953 52
L 953 52
L 953 52
L 953 52
L 953 52
L 953 52
L 953 52
L 953 52
L 953 52
L 953 52
L 953 52
L 953 52
L 953 52
L 953 52
L 953 52
L 953 52
L 953 52
L 953 52
L 953 52
L 953 52
L 953 52
L 953 52
L 953 52
L 953 52
L 953 51
L 953 51
L 953 51
L 953 51
L 953 51
L 953 51
L 953 51
L 953 51
L 953 51
L 953 51
L 953 51
L 953 51
L 953 51
L 953 51
L 953 51
L 953 51
L 953 51
L 953 51
L 953 51
L 953 51
L 953 51
L 953 51
L 953 51
L 953 51
L 953 51
L 953 51
L 953 50
L 953 50
L 953 50
L 953 50
L 953 50
L 953 50
L 953 50
L 953 50
L 953 50
L 953 50
L 953 50
L 953 50
L 953 50
L 953 50
L 953 50
L 953 50
L 953 50
L 953 50
L 953 50
L 953 50
L 953 50
L 953 50
L 953 50
L 953 50
L 953 50
L 953 50
L 953 50
L 953 49
L 953 49
L 953 49
L 953 49
L 953 49
L 953 49
L 953 49
L 953 49
L 953 49
L 953 49
L 953 49
L 953 49
L 953 49
L 953 49
L 953 49
L 953 49
L 953 49
L 953 49
L 953 49
L 953 49
L 953 49
L 953 49
L 953 49
L 953 49
L 954 49
L 954 49
L 954 48
L 954 48
L 954 48
L 954 48
L 954 48
L 954 48
L 954 48
L 954 48
L 954 48
L 954 48
L 954 48
L 954 48
L 954 48
L 954 48
L 954 48
L 954 48
L 954 48
L 954 48
L 954 48
L 954 48
L 954 48
L 954 48
L 954 48
L 954 48
L 954 48
L 954 48
L 954 47
L 954 47
L 954 47
L 954 47
L 954 47
L 954 47
L 954 47
L 954 47
L 954 47
L 954 47
L 954 47
L 954 47
L 954 47
L 954 47
L 954 47
L 954 47
L 954 47
L 954 47
L 954 47
L 954 47
L 954 47
L 954 47
L 954 47
L 954 47
L 954 47
L 954 47
L 954 46
L 954 46
L 954 46
L 954 46
L 954 46
L 954 46
L 954 46
L 954 46
L 954 46
L 954 46
L 954 46
L 954 46
L 954 46
L 954 46
L 954 46
L 954 46
L 954 46
L 954 46
L 954 46
L 954 46
L 954 46
L 954 46
L 954 46
L 954 46
L 954 46
L 954 46
L 954 45
L 954 45
L 954 45
L 954 45
L 954 45
L 954 45
L 954 45
L 954 45
L 954 45
L 954 45
L 954 45
L 954 45
L 954 45
L 954 45
L 954 45
L 954 45
L 954 45
L 954 45
L 954 45
L 954 45
L 954 45
L 954 45
L 954 45
L 954 45
L 954 45
L 954 45
L 954 45
L 954 44
L 954 44
L 954 44
L 954 44
L 954 44
L 954 44
L 954 44
L 954 44
L 954 44
L 954 44
L 954 44
L 954 44
L 954 44
L 954 44
L 954 44
L 954 44
L 954 44
L 954 44
L 954 44
L 954 44
L 954 44
L 954 44
L 954 44
L 954 44
L 954 44
L 954 44
L 954 43
L 954 43
L 954 43
L 954 43
L 954 43
L 954 43
L 954 43
L 954 43
L 954 43
L 954 43
L 954 43
L 954 43
L 954 43
L 954 43
L 954 43
L 954 43
L 954 43
L 954 43
L 954 43
L 954 43
L 954 43
L 954 43
L 954 43
L 954 43
L 954 43
L 954 43
L 954 42
L 954 42
L 954 42
L 954 42
L 954 42
L 954 42
L 954 42
L 954 42
L 954 42
L 954 42
L 954 42
L 954 42
L 954 42
L 954 42
L 955 42
L 955 42
L 955 42
L 955 42
L 955 42
L 955 42
L 955 42
L 955 42
L 955 42
L 955 42
L 955 42
L 955 42
L 955 41
L 955 41
L 955 41
L 955 41
L 955 41
L 955 41
L 955 41
L 955 41
L 955 41
L 955 41
L 955 41
L 955 41
L 955 41
L 955 41
L 955 41
L 955 41
L 955 41
L 955 41
L 955 41
L 955 41
L 955 41
L 955 41
L 955 41
L 955 41
L 955 41
L 955 41
L 955 40
L 955 40
L 955 40
L 955 40
L 955 40
L 955 40
L 955 40
L 955 40
L 955 40
L 955 40
L 955 40
L 955 40
L 955 40
L 955 40
L 955 40
L 955 40
L 955 40
L 955 40
L 955 40
L 955 40
L 955 40
L 955 40
L 955 40
L 955 40
L 955 40
L 955 40
L 955 39
L 955 39
L 955 39
L 955 39
L 955 39
L 955 39
L 955 39
L 955 39
L 955 39
L 955 39
L 955 39
L 955 39
L 955 39
L 955 39
L 955 39
L 955 39
L 955 39
L 955 39
L 955 39
L 955 39
L 955 39
L 955 39
L 955 39
L 955 39
L 955 39
L 955 39
L 955 39
L 955 38
L 955 38
L 955 38
L 955 38
L 955 38
L 955 38
L 955 38
L 955 38
L 955 38
L 955 38
L 955 38
L 955 38
L 955 38
L 955 38
L 955 38
L 955 38
L 955 38
L 955 38
L 955 38
L 955 38
L 955 38
L 955 38
L 955 38
L 955 38
L 955 38
L 955 38
L 955 37
L 955 37
L 955 37
L 955 37
L 955 37
L 955 37
L 955 37
L 955 37
L 955 37
L 955 37
L 955 37
L 955 37
L 955 37
L 955 37
L 955 37
L 955 37
L 955 37
L 955 37
L 955 37
L 955 37
L 955 37
L 955 37
L 955 37
L 955 37
L 955 37
L 955 37
L 955 36
L 955 36
L 955 36
L 955 36
L 955 36
L 955 36
L 955 36
L 955 36
L 955 36
L 955 36
L 955 36
L 955 36
L 955 36
L 955 36
L 955 36
L 955 36
L 955 36
L 955 36
L 955 36
L 955 36
L 955 36
L 955 36
L 955 36
L 955 36
L 955 36
L 955 36
L 955 35
L 955 35
L 955 35
L 955 35
L 955 35
L 955 35
L 955 35
L 955 35
L 955 35
L 955 35
L 955 35
L 955 35
L 955 35
L 955 35
L 955 35
L 955 35
L 955 35
L 955 35
L 955 35
L 955 35
L 955 35
L 955 35
L 955 35
L 955 35
L 955 35
L 955 35
L 955 34
L 955 34
L 955 34
L 955 34
L 955 34
L 955 34
L 955 34
L 955 34
L 955 34
L 955 34
L 955 34
L 955 34
L 955 34
L 955 34
L 955 34
L 955 34
L 955 34
L 955 34
L 955 34
L 955 34
L 955 34
L 955 34
L 955 34
L 955 34
L 955 34
L 955 34
L 955 33
L 955 33
L 955 33
L 955 33
L 955 33
L 955 33
L 955 33
L 955 33
L 955 33
L 955 33
L 955 33
L 955 33
L 955 33
L 955 33
L 955 33
L 955 33
L 955 33
L 955 33
L 955 33
L 955 33
L 955 33
L 955 33
L 955 33
L 955 33
L 955 33
L 955 33
L 955 33
L 955 32
L 955 32
L 955 32
L 955 32
L 955 32
L 955 32
L 955 32
L 955 32
L 955 32
L 955 32
L 955 32
L 955 32
L 955 32
L 955 32
L 955 32
L 955 32
L 955 32
L 955 32
L 955 32
L 955 32
L 955 32
L 955 32
L 955 32
L 955 32
L 955 32
L 955 32
L 955 31
L 955 31
L 955 31
L 955 31
L 955 31
L 955 31
L 955 31
L 955 31
L 955 31
L 956 31
L 956 31
L 956 31
L 956 31
L 956 31
L 956 31
L 956 31
L 956 31
L 956 31
L 956 31
L 956 31
L 956 31
L 956 31
L 956 31
L 956 31
L 956 31
L 956 31
L 956 30
L 956 30
L 956 30
L 956 30
L 956 30
L 956 30
L 956 30
L 956 30
L 956 30
L 956 30
L 956 30
L 956 30
L 956 30
L 956 30
L 956 30
L 956 30
L 956 30
L 956 30
L 956 30
L 956 30
L 956 30
L 956 30
L 956 30
L 956 30
L 956 30
L 956 30
L 956 29
L 956 29
L 956 29
L 956 29
L 956 29
L 956 29
L 956 29
L 956 29
L 956 29
L 956 29
L 956 29
L 956 29
L 956 29
L 956 29
L 956 29
L 956 29
L 956 29
L 956 29
L 956 29
L 956 29
L 956 29
L 956 29
L 956 29
L 956 29
L 956 29
L 956 29
L 956 28
L 956 28
L 956 28
L 956 28
L 956 28
L 956 28
L 956 28
L 956 28
L 956 28
L 956 28
L 956 28
L 956 28
L 956 28
L 956 28
L 956 28
L 956 28
L 956 28
L 956 28
L 956 28
L 956 28
L 956 28
L 956 28
L 956 28
L 956 28
L 956 28
L 956 28
L 956 28
L 956 27
L 956 27
L 956 27
L 956 27
L 956 27
L 956 27
L 956 27
L 956 27
L 956 27
L 956 27
L 956 27
L 956 27
L 956 27
L 956 27
L 956 27
L 956 27
L 956 27
L 956 27
L 956 27
L 956 27
L 956 27
L 956 27
L 956 27
L 956 27
L 956 27
L 956 27
L 956 26
L 956 26
L 956 26
L 956 26
L 956 26
L 956 26
L 956 26
L 956 26
L 956 26
L 956 26
L 956 26
L 956 26
L 956 26
L 956 26
L 956 26
L 956 26
L 956 26
L 956 26
L 956 26
L 956 26
L 956 26
L 956 26
L 956 26
L 956 26
L 956 26
L 956 26
L 956 25
L 956 25
L 956 25
L 956 25
L 956 25
L 956 25
L 956 25
L 956 25
L 956 25
L 956 25
L 956 25
L 956 25
L 956 25
L 956 25
L 956 25
L 956 25
L 956 25
L 956 25
L 956 25
L 956 25
L 956 25
L 956 25
L 956 25
L 956 25
L 956 25
L 956 25
L 956 24
L 956 24
L 956 24
L 956 24
L 956 24
L 956 24
L 956 24
L 956 24
L 956 24
L 956 24
L 956 24
L 956 24
L 956 24
L 956 24
L 956 24
L 956 24
L 956 24
L 956 24
L 956 24
L 956 24
L 956 24
L 956 24
L 956 24
L 956 24
L 956 24
L 956 24
L 956 23
L 956 23
L 956 23
L 956 23
L 956 23
L 956 23
L 956 23
L 956 23
L 956 23
L 956 23
L 956 23
L 956 23
L 956 23
L 956 23
L 956 23
L 956 23
L 956 23
L 956 23
L 956 23
L 956 23
L 956 23
L 956 23
L 956 23
L 956 23
L 956 23
L 956 23
L 956 22
L 956 22
L 956 22
L 956 22
L 956 22
L 956 22
L 956 22
L 956 22
L 956 22
L 956 22
L 956 22
L 956 22
L 956 22
L 956 22
L 956 22
L 956 22
L 956 22
L 956 22
L 956 22
L 956 22
L 956 22
L 956 22
L 956 22
L 956 22
L 956 22
L 956 22
L 956 22
L 956 21
L 956 21
L 956 21
L 956 21
L 956 21
L 956 21
L 956 21
L 956 21
L 956 21
L 956 21
L 956 21
L 956 21
L 956 21
L 956 21
L 956 21
L 956 21
L 956 21
L 956 21
L 956 21
L 956 21
L 956 21
L 956 21
L 956 21
L 956 21
L 956 21
L 956 21
L 956 20
L 956 20
L 957 20
L 957 20
L 957 20
L 957 20
L 957 20
L 957 20
L 957 20
L 957 20
L 957 20
L 957 20
L 957 20
L 957 20
L 957 20
L 957 20
L 957 20
L 957 20
L 957 20
L 957 20
L 957 20
L 957 20
L 957 20
L 957 20
L 957 20
L 957 20
L 957 19
L 957 19
L 957 19
L 957 19
L 957 19
L 957 19
L 957 19
L 957 19
L 957 19
L 957 19
L 957 19
L 957 19
L 957 19
L 957 19
L 957 19
L 957 19
L 957 19
L 957 19
L 957 19
L 957 19
L 957 19
L 957 19
L 957 19
L 957 19
L 957 19
L 957 19
L 957 18
L 957 18
L 957 18
L 957 18
L 957 18
L 957 18
L 957 18
L 957 18
L 957 18
L 957 18
L 957 18
L 957 18
L 957 18
L 957 18
L 957 18
L 957 18
L 957 18
L 957 18
L 957 18
L 957 18
L 957 18
L 957 18
L 957 18
L 957 18
L 957 18
L 957 18
L 957 17
L 957 17
L 957 17
L 957 17
L 957 17
L 957 17
L 957 17
L 957 17
L 957 17
L 957 17
L 957 17
L 957 17
L 957 17
L 957 17
L 957 17
L 957 17
L 957 17
L 957 17
L 957 17
L 957 17
L 957 17
L 957 17
L 957 17
L 957 17
L 957 17
L 957 17
L 957 16
L 957 16
L 957 16
L 957 16
L 957 16
L 957 16
L 957 16
L 957 16
L 957 16
L 957 16
L 957 16
L 957 16
L 957 16
L 957 16
L 957 16
L 957 16
L 957 16
L 957 16
L 957 16
L 957 16
L 957 16
L 957 16
L 957 16
L 957 16
L 957 16
L 957 16
L 957 16
L 957 15
L 957 15
L 957 15
L 957 15
L 957 15
L 957 15
L 957 15
L 957 15
L 957 15
L 957 15
L 957 15
L 957 15
L 957 15
L 957 15
L 957 15
L 957 15
L 957 15
L 957 15
L 957 15
L 957 15
L 957 15
L 957 15
L 957 15
L 957 15
L 957 15
L 957 15
L 957 14
L 957 14
L 957 14
L 957 14
L 957 14
L 957 14
L 957 14
L 957 14
L 957 14
L 957 14
L 957 14
L 957 14
L 957 14
L 957 14
L 957 14
L 957 14
L 957 14
L 957 14
L 957 14
L 957 14
L 957 14
L 957 14
L 957 14
L 957 14
L 957 14
L 957 14
L 957 13
L 957 13
L 957 13
L 957 13
L 957 13
L 957 13
L 957 13
L 957 13
L 957 13
L 957 13
L 957 13
L 957 13
L 957 13
L 957 13
L 957 13
L 957 13
L 957 13
L 957 13
L 957 13
L 957 13
L 957 13
L 957 13
L 957 13
L 957 13" style="stroke-width:2;stroke:rgba(129,199,239,1.0);fill:none"/></svg>