<!-- stars: 8619 -->
<svg xmlns="http://www.w3.org/2000/svg" xmlns:xlink="http://www.w3.org/1999/xlink" width="1024" height="400">\n<path  d="M 0 0
L 1024 0
L 1024 400
L 0 400
L 0 0" style="stroke-width:0;stroke:rgba(255,255,255,1.0);fill:rgba(255,255,255,1.0)"/><path  d="M 38 11
L 957 11
L 957 351
L 38 351
L 38 11" style="stroke-width:0;stroke:rgba(255,255,255,1.0);fill:rgba(255,255,255,1.0)"/><path  d="M 38 351
L 957 351" style="stroke-width:2;stroke:rgba(85,85,85,1.0);fill:none"/><path  d="M 38 351
L 38 356" style="stroke-width:2;stroke:rgba(85,85,85,1.0);fill:none"/><text x="5" y="373" style="stroke-width:0;stroke:none;fill:rgba(51,51,51,1.0);font-size:12.8px;font-family:'Roboto Medium',sans-serif">2018-09-25</text><path  d="M 153 351
L 153 356" style="stroke-width:2;stroke:rgba(85,85,85,1.0);fill:none"/><text x="120" y="373" style="stroke-width:0;stroke:none;fill:rgba(51,51,51,1.0);font-size:12.8px;font-family:'Roboto Medium',sans-serif">2019-02-18</text><path  d="M 268 351
L 268 356" style="stroke-width:2;stroke:rgba(85,85,85,1.0);fill:none"/><text x="235" y="373" style="stroke-width:0;stroke:none;fill:rgba(51,51,51,1.0);font-size:12.8px;font-family:'Roboto Medium',sans-serif">2019-07-15</text><path  d="M 383 351
L 383 356" style="stroke-width:2;stroke:rgba(85,85,85,1.0);fill:none"/><text x="350" y="373" style="stroke-width:0;stroke:none;fill:rgba(51,51,51,1.0);font-size:12.8px;font-family:'Roboto Medium',sans-serif">2019-12-08</text><path  d="M 498 351
L 498 356" style="stroke-width:2;stroke:rgba(85,85,85,1.0);fill:none"/><text x="465" y="373" style="stroke-width:0;stroke:none;fill:rgba(51,51,51,1.0);font-size:12.8px;font-family:'Roboto Medium',sans-serif">2020-05-03</text><path  d="M 613 351
L 613 356" style="stroke-width:2;stroke:rgba(85,85,85,1.0);fill:none"/><text x="580" y="373" style="stroke-width:0;stroke:none;fill:rgba(51,51,51,1.0);font-size:12.8px;font-family:'Roboto Medium',sans-serif">2020-09-26</text><path  d="M 728 351
L 728 356" style="stroke-width:2;stroke:rgba(85,85,85,1.0);fill:none"/><text x="695" y="373" style="stroke-width:0;stroke:none;fill:rgba(51,51,51,1.0);font-size:12.8px;font-family:'Roboto Medium',sans-serif">2021-02-20</text><path  d="M 843 351
L 843 356" style="stroke-width:2;stroke:rgba(85,85,85,1.0);fill:none"/><text x="810" y="373" style="stroke-width:0;stroke:none;fill:rgba(51,51,51,1.0);font-size:12.8px;font-family:'Roboto Medium',sans-serif">2021-07-16</text><path  d="M 957 351
L 957 356" style="stroke-width:2;stroke:rgba(85,85,85,1.0);fill:none"/><text x="924" y="373" style="stroke-width:0;stroke:none;fill:rgba(51,51,51,1.0);font-size:12.8px;font-family:'Roboto Medium',sans-serif">2021-12-10</text><text x="483" y="395" style="stroke-width:0;stroke:none;fill:rgba(51,51,51,1.0);font-size:12.8px;font-family:'Roboto Medium',sans-serif">Time</text><path  d="M 959 351
L 959 11" style="stroke-width:2;stroke:rgba(85,85,85,1.0);fill:none"/><path  d="M 959 351
L 964 351" style="stroke-width:2;stroke:rgba(85,85,85,1.0);fill:none"/><text x="969" y="357" style="stroke-width:0;stroke:none;fill:rgba(51,51,51,1.0);font-size:12.8px;font-family:'Roboto Medium',sans-serif">0</text><path  d="M 959 308
L 964 308" style="stroke-width:2;stroke:rgba(85,85,85,1.0);fill:none"/><text x="969" y="314" style="stroke-width:0;stroke:none;fill:rgba(51,51,51,1.0);font-size:12.8px;font-family:'Roboto Medium',sans-serif">1090</text><path  d="M 959 265
L 964 265" style="stroke-width:2;stroke:rgba(85,85,85,1.0);fill:none"/><text x="969" y="271" style="stroke-width:0;stroke:none;fill:rgba(51,51,51,1.0);font-size:12.8px;font-family:'Roboto Medium',sans-serif">2180</text><path  d="M 959 223
L 964 223" style="stroke-width:2;stroke:rgba(85,85,85,1.0);fill:none"/><text x="969" y="229" style="stroke-width:0;stroke:none;fill:rgba(51,51,51,1.0);font-size:12.8px;font-family:'Roboto Medium',sans-serif">3270</text><path  d="M 959 181
L 964 181" style="stroke-width:2;stroke:rgba(85,85,85,1.0);fill:none"/><text x="969" y="187" style="stroke-width:0;stroke:none;fill:rgba(51,51,51,1.0);font-size:12.8px;font-family:'Roboto Medium',sans-serif">4350</text><path  d="M 959 138
L 964 138" style="stroke-width:2;stroke:rgba(85,85,85,1.0);fill:none"/><text x="969" y="144" style="stroke-width:0;stroke:none;fill:rgba(51,51,51,1.0);font-size:12.8px;font-family:'Roboto Medium',sans-serif">5440</text><path  d="M 959 95
L 964 95" style="stroke-width:2;stroke:rgba(85,85,85,1.0);fill:none"/><text x="969" y="101" style="stroke-width:0;stroke:none;fill:rgba(51,51,51,1.0);font-size:12.8px;font-family:'Roboto Medium',sans-serif">6530</text><path  d="M 959 53
L 964 53" style="stroke-width:2;stroke:rgba(85,85,85,1.0);fill:none"/><text x="969" y="59" style="stroke-width:0;stroke:none;fill:rgba(51,51,51,1.0);font-size:12.8px;font-family:'Roboto Medium',sans-serif">7620</text><path  d="M 959 11
L 964 11" style="stroke-width:2;stroke:rgba(85,85,85,1.0);fill:none"/><text x="969" y="17" style="stroke-width:0;stroke:none;fill:rgba(51,51,51,1.0);font-size:12.8px;font-family:'Roboto Medium',sans-serif">8700</text><text x="1009" y="150" style="stroke-width:0;stroke:none;fill:rgba(51,51,51,1.0);font-size:12.8px;font-family:'Roboto Medium',sans-serif" transform="rotate(90.00,1009,150)">Stargazers</text><path  d="M 38 351
L 40 350
L 50 350
L 51 350
L 51 350
L 51 350
L 51 350
L 54 350
L 55 350
L 55 350
L 57 350
L 57 350
L 58 350
L 58 350
L 58 350
L 58 350
L 61 350
L 67 350
L 67 350
L 69 350
L 69 350
L 70 350
L 72 350
L 72 350
L 74 350
L 74 350
L 79 349
L 83 349
L 88 349
L 88 349
L 93 349
L 94 349
L 94 349
L 94 349
L 94 349
L 94 349
L 94 349
L 94 349
L 95 349
L 95 349
L 95 349
L 97 349
L 98 349
L 98 349
L 99 349
L 99 349
L 99 349
L 100 349
L 100 349
L 101 349
L 103 349
L 103 349
L 104 348
L 105 348
L 107 348
L 108 348
L 108 348
L 109 348
L 110 348
L 110 348
L 110 348
L 111 348
L 111 348
L 111 348
L 111 348
L 112 348
L 112 348
L 112 348
L 112 348
L 112 348
L 113 348
L 113 348
L 113 348
L 115 348
L 115 348
L 115 348
L 116 348
L 116 347
L 118 347
L 118 347
L 120 347
L 120 347
L 120 347
L 120 347
L 120 347
L 120 347
L 122 347
L 122 347
L 122 347
L 122 347
L 123 347
L 123 347
L 125 347
L 126 347
L 127 347
L 127 347
L 127 347
L 127 347
L 129 347
L 131 347
L 133 347
L 133 347
L 134 347
L 134 346
L 134 346
L 141 346
L 144 346
L 148 346
L 149 346
L 150 346
L 150 346
L 151 346
L 151 346
L 152 346
L 153 346
L 154 346
L 154 346
L 154 346
L 155 346
L 155 346
L 155 346
L 156 346
L 156 346
L 159 346
L 159 346
L 161 346
L 162 346
L 164 346
L 164 345
L 165 345
L 166 345
L 166 345
L 166 345
L 167 345
L 167 345
L 168 345
L 169 345
L 170 345
L 171 345
L 172 345
L 173 345
L 175 345
L 175 345
L 176 345
L 176 345
L 176 345
L 177 345
L 178 345
L 178 345
L 181 345
L 182 345
L 182 345
L 182 345
L 183 345
L 184 344
L 184 344
L 184 344
L 184 344
L 185 344
L 185 344
L 186 344
L 186 344
L 186 344
L 187 344
L 187 344
L 187 344
L 187 344
L 187 344
L 187 344
L 187 344
L 187 344
L 187 344
L 188 344
L 188 344
L 188 344
L 188 344
L 188 344
L 188 344
L 189 344
L 191 344
L 191 343
L 192 343
L 192 343
L 192 343
L 193 343
L 193 343
L 193 343
L 194 343
L 194 343
L 194 343
L 194 343
L 195 343
L 196 343
L 198 343
L 198 343
L 198 343
L 200 343
L 200 343
L 203 343
L 203 343
L 203 343
L 204 343
L 204 343
L 204 343
L 204 343
L 205 342
L 205 342
L 206 342
L 207 342
L 207 342
L 208 342
L 208 342
L 208 342
L 209 342
L 209 342
L 209 342
L 210 342
L 210 342
L 211 342
L 212 342
L 213 342
L 214 342
L 214 342
L 215 342
L 216 342
L 216 342
L 217 342
L 217 342
L 217 342
L 218 342
L 221 342
L 221 341
L 224 341
L 225 341
L 226 341
L 228 341
L 229 341
L 230 341
L 230 341
L 231 341
L 236 341
L 236 341
L 236 341
L 237 341
L 237 341
L 238 341
L 238 341
L 238 341
L 238 341
L 238 341
L 244 341
L 247 341
L 247 341
L 248 341
L 248 341
L 248 341
L 248 340
L 248 340
L 248 340
L 248 340
L 248 340
L 249 340
L 250 340
L 252 340
L 253 340
L 253 340
L 254 340
L 255 340
L 255 340
L 256 340
L 257 340
L 257 340
L 258 340
L 258 340
L 258 340
L 258 340
L 258 340
L 259 340
L 259 340
L 259 340
L 260 340
L 260 340
L 260 339
L 261 339
L 261 339
L 261 339
L 261 339
L 262 339
L 262 339
L 262 339
L 263 339
L 264 339
L 265 339
L 266 339
L 266 339
L 267 339
L 268 339
L 268 339
L 269 339
L 269 339
L 271 339
L 273 339
L 274 339
L 275 339
L 277 339
L 278 339
L 279 339
L 280 339
L 280 338
L 280 338
L 281 338
L 285 338
L 289 338
L 290 338
L 291 338
L 293 338
L 294 338
L 295 338
L 298 338
L 300 338
L 300 338
L 301 338
L 301 338
L 304 338
L 309 338
L 309 338
L 309 338
L 310 338
L 310 338
L 321 338
L 321 338
L 322 338
L 322 338
L 322 337
L 322 337
L 322 337
L 322 337
L 322 337
L 323 337
L 323 337
L 323 337
L 324 337
L 324 337
L 325 337
L 328 337
L 328 337
L 329 337
L 334 337
L 336 337
L 336 337
L 337 337
L 338 337
L 338 337
L 339 337
L 340 337
L 340 337
L 341 337
L 341 337
L 342 337
L 342 336
L 343 336
L 345 336
L 346 336
L 346 336
L 347 336
L 351 336
L 362 336
L 363 336
L 366 336
L 369 336
L 369 336
L 371 336
L 373 336
L 373 336
L 373 336
L 374 336
L 374 336
L 375 336
L 375 336
L 379 336
L 379 336
L 381 336
L 382 336
L 387 336
L 387 335
L 387 335
L 392 335
L 394 335
L 395 335
L 396 335
L 396 335
L 396 335
L 397 335
L 397 335
L 397 335
L 397 335
L 398 335
L 398 335
L 398 335
L 400 335
L 401 335
L 404 335
L 405 335
L 407 335
L 411 335
L 411 335
L 411 335
L 412 335
L 412 335
L 413 335
L 414 334
L 416 334
L 416 334
L 421 334
L 421 334
L 422 334
L 423 334
L 425 334
L 426 334
L 428 334
L 431 334
L 434 334
L 436 334
L 436 334
L 437 334
L 440 334
L 446 334
L 449 334
L 451 334
L 452 334
L 453 334
L 453 334
L 453 334
L 454 334
L 454 334
L 455 334
L 457 333
L 457 333
L 457 333
L 457 333
L 457 333
L 457 333
L 459 333
L 459 333
L 460 333
L 460 333
L 461 333
L 462 333
L 462 333
L 462 333
L 462 333
L 462 333
L 463 333
L 463 333
L 463 333
L 463 333
L 463 333
L 463 333
L 464 333
L 465 333
L 465 333
L 467 332
L 467 332
L 468 332
L 468 332
L 468 332
L 468 332
L 469 332
L 470 332
L 470 332
L 470 332
L 470 332
L 471 332
L 471 332
L 471 332
L 472 332
L 472 332
L 472 332
L 474 332
L 475 332
L 476 332
L 477 332
L 477 332
L 477 332
L 477 332
L 478 332
L 478 332
L 478 331
L 479 331
L 479 331
L 479 331
L 479 331
L 479 331
L 479 331
L 479 331
L 479 331
L 479 331
L 479 331
L 480 331
L 480 331
L 480 331
L 480 331
L 480 331
L 480 331
L 481 331
L 481 331
L 482 331
L 482 331
L 482 331
L 482 331
L 483 331
L 483 331
L 485 330
L 485 330
L 486 330
L 486 330
L 486 330
L 486 330
L 488 330
L 488 330
L 488 330
L 488 330
L 488 330
L 488 330
L 488 330
L 488 330
L 488 330
L 488 330
L 488 330
L 488 330
L 488 330
L 488 330
L 488 330
L 488 330
L 488 330
L 488 330
L 488 330
L 488 330
L 488 329
L 488 329
L 488 329
L 488 329
L 489 329
L 489 329
L 489 329
L 489 329
L 489 329
L 489 329
L 489 329
L 490 329
L 490 329
L 490 329
L 490 329
L 490 329
L 490 329
L 491 329
L 491 329
L 491 329
L 492 329
L 492 329
L 492 329
L 493 329
L 493 329
L 494 328
L 494 328
L 494 328
L 494 328
L 494 328
L 495 328
L 495 328
L 495 328
L 495 328
L 495 328
L 495 328
L 496 328
L 497 328
L 498 328
L 498 328
L 499 328
L 500 328
L 500 328
L 501 328
L 501 328
L 501 328
L 501 328
L 501 328
L 501 328
L 501 328
L 502 328
L 502 327
L 503 327
L 504 327
L 504 327
L 504 327
L 505 327
L 505 327
L 505 327
L 506 327
L 506 327
L 506 327
L 507 327
L 507 327
L 507 327
L 507 327
L 508 327
L 508 327
L 508 327
L 508 327
L 508 327
L 509 327
L 509 327
L 510 327
L 510 327
L 511 327
L 512 327
L 512 326
L 512 326
L 513 326
L 513 326
L 514 326
L 514 326
L 515 326
L 515 326
L 515 326
L 515 326
L 516 326
L 516 326
L 516 326
L 517 326
L 517 326
L 517 326
L 517 326
L 517 326
L 517 326
L 518 326
L 518 326
L 518 326
L 518 326
L 518 326
L 518 326
L 518 325
L 519 325
L 519 325
L 520 325
L 520 325
L 521 325
L 522 325
L 522 325
L 522 325
L 522 325
L 523 325
L 523 325
L 523 325
L 524 325
L 525 325
L 525 325
L 525 325
L 525 325
L 525 325
L 525 325
L 525 325
L 525 325
L 525 325
L 525 325
L 525 325
L 525 325
L 525 324
L 525 324
L 525 324
L 525 324
L 526 324
L 526 324
L 526 324
L 526 324
L 526 324
L 527 324
L 527 324
L 527 324
L 527 324
L 528 324
L 529 324
L 529 324
L 529 324
L 530 324
L 530 324
L 530 324
L 530 324
L 531 324
L 531 324
L 531 324
L 532 324
L 532 323
L 532 323
L 532 323
L 532 323
L 532 323
L 532 323
L 532 323
L 532 323
L 532 323
L 532 323
L 532 323
L 532 323
L 532 323
L 533 323
L 533 323
L 533 323
L 533 323
L 533 323
L 533 323
L 534 323
L 534 323
L 534 323
L 534 323
L 535 323
L 535 323
L 535 323
L 535 322
L 536 322
L 536 322
L 536 322
L 536 322
L 536 322
L 536 322
L 536 322
L 536 322
L 537 322
L 537 322
L 537 322
L 538 322
L 538 322
L 539 322
L 539 322
L 539 322
L 541 322
L 541 322
L 541 322
L 541 322
L 541 322
L 541 322
L 542 322
L 542 322
L 542 322
L 543 321
L 543 321
L 543 321
L 543 321
L 543 321
L 544 321
L 544 321
L 544 321
L 544 321
L 544 321
L 545 321
L 545 321
L 545 321
L 545 321
L 546 321
L 546 321
L 546 321
L 546 321
L 547 321
L 547 321
L 547 321
L 548 321
L 548 321
L 548 321
L 548 321
L 548 320
L 549 320
L 550 320
L 550 320
L 550 320
L 551 320
L 551 320
L 551 320
L 552 320
L 552 320
L 552 320
L 554 320
L 554 320
L 554 320
L 554 320
L 555 320
L 555 320
L 555 320
L 556 320
L 556 320
L 556 320
L 556 320
L 556 320
L 557 320
L 557 320
L 557 320
L 557 319
L 557 319
L 557 319
L 558 319
L 558 319
L 558 319
L 559 319
L 559 319
L 559 319
L 559 319
L 559 319
L 559 319
L 559 319
L 560 319
L 560 319
L 560 319
L 561 319
L 561 319
L 562 319
L 562 319
L 562 319
L 562 319
L 562 319
L 563 319
L 563 319
L 563 318
L 564 318
L 564 318
L 564 318
L 564 318
L 565 318
L 565 318
L 565 318
L 565 318
L 565 318
L 565 318
L 565 318
L 566 318
L 566 318
L 566 318
L 566 318
L 566 318
L 566 318
L 566 318
L 566 318
L 567 318
L 567 318
L 567 318
L 567 318
L 567 318
L 568 318
L 568 317
L 568 317
L 568 317
L 568 317
L 568 317
L 569 317
L 569 317
L 569 317
L 570 317
L 570 317
L 570 317
L 570 317
L 570 317
L 571 317
L 572 317
L 572 317
L 572 317
L 572 317
L 572 317
L 573 317
L 573 317
L 573 317
L 573 317
L 573 317
L 573 317
L 575 317
L 575 316
L 575 316
L 575 316
L 575 316
L 575 316
L 576 316
L 576 316
L 576 316
L 576 316
L 577 316
L 577 316
L 577 316
L 577 316
L 577 316
L 578 316
L 578 316
L 578 316
L 579 316
L 579 316
L 579 316
L 579 316
L 579 316
L 580 316
L 581 316
L 581 316
L 581 315
L 581 315
L 581 315
L 581 315
L 582 315
L 582 315
L 582 315
L 582 315
L 583 315
L 583 315
L 583 315
L 583 315
L 584 315
L 584 315
L 584 315
L 584 315
L 584 315
L 585 315
L 585 315
L 586 315
L 587 315
L 587 315
L 588 315
L 588 315
L 589 315
L 590 315
L 591 314
L 592 314
L 592 314
L 592 314
L 592 314
L 593 314
L 594 314
L 594 314
L 594 314
L 594 314
L 595 314
L 595 314
L 595 314
L 596 314
L 596 314
L 596 314
L 597 314
L 597 314
L 597 314
L 597 314
L 598 314
L 598 314
L 598 314
L 599 314
L 599 314
L 600 313
L 600 313
L 600 313
L 600 313
L 600 313
L 600 313
L 600 313
L 600 313
L 601 313
L 601 313
L 601 313
L 601 313
L 601 313
L 601 313
L 602 313
L 602 313
L 602 313
L 602 313
L 602 313
L 603 313
L 604 313
L 604 313
L 604 313
L 605 313
L 605 313
L 605 313
L 607 312
L 607 312
L 608 312
L 609 312
L 609 312
L 609 312
L 609 312
L 610 312
L 610 312
L 610 312
L 610 312
L 611 312
L 613 312
L 613 312
L 613 312
L 613 312
L 614 312
L 614 312
L 614 312
L 614 312
L 615 312
L 615 312
L 615 312
L 615 312
L 615 312
L 616 311
L 616 311
L 616 311
L 616 311
L 617 311
L 619 311
L 620 311
L 620 311
L 622 311
L 622 311
L 622 311
L 623 311
L 623 311
L 623 311
L 624 311
L 624 311
L 625 311
L 625 311
L 625 311
L 625 311
L 625 311
L 625 311
L 625 311
L 626 311
L 626 311
L 626 311
L 626 310
L 626 310
L 626 310
L 626 310
L 626 310
L 627 310
L 627 310
L 627 310
L 627 310
L 627 310
L 627 310
L 627 310
L 628 310
L 628 310
L 628 310
L 628 310
L 628 310
L 628 310
L 629 310
L 629 310
L 630 310
L 630 310
L 630 310
L 631 310
L 631 310
L 631 310
L 631 309
L 632 309
L 632 309
L 632 309
L 633 309
L 633 309
L 633 309
L 633 309
L 633 309
L 634 309
L 634 309
L 634 309
L 634 309
L 635 309
L 636 309
L 636 309
L 637 309
L 637 309
L 637 309
L 637 309
L 637 309
L 637 309
L 637 309
L 637 309
L 637 309
L 637 308
L 637 308
L 637 308
L 637 308
L 637 308
L 638 308
L 638 308
L 638 308
L 638 308
L 638 308
L 638 308
L 638 308
L 638 308
L 638 308
L 638 308
L 638 308
L 638 308
L 638 308
L 638 308
L 638 308
L 638 308
L 639 308
L 639 308
L 639 308
L 639 308
L 639 308
L 639 307
L 639 307
L 639 307
L 640 307
L 640 307
L 640 307
L 641 307
L 641 307
L 641 307
L 641 307
L 641 307
L 641 307
L 641 307
L 641 307
L 642 307
L 642 307
L 642 307
L 642 307
L 642 307
L 642 307
L 643 307
L 643 307
L 643 307
L 643 307
L 643 307
L 643 306
L 643 306
L 643 306
L 643 306
L 644 306
L 644 306
L 644 306
L 644 306
L 645 306
L 645 306
L 645 306
L 645 306
L 646 306
L 646 306
L 647 306
L 647 306
L 647 306
L 647 306
L 647 306
L 647 306
L 647 306
L 647 306
L 648 306
L 648 306
L 648 306
L 649 306
L 649 305
L 649 305
L 649 305
L 649 305
L 649 305
L 649 305
L 650 305
L 650 305
L 650 305
L 650 305
L 650 305
L 651 305
L 651 305
L 651 305
L 651 305
L 652 305
L 652 305
L 652 305
L 652 305
L 652 305
L 652 305
L 653 305
L 653 305
L 653 305
L 654 305
L 654 305
L 654 304
L 654 304
L 654 304
L 655 304
L 655 304
L 655 304
L 655 304
L 655 304
L 655 304
L 655 304
L 655 304
L 656 304
L 656 304
L 657 304
L 657 304
L 657 304
L 657 304
L 657 304
L 658 304
L 658 304
L 658 304
L 658 304
L 658 304
L 658 304
L 659 304
L 659 303
L 660 303
L 660 303
L 660 303
L 661 303
L 661 303
L 661 303
L 661 303
L 661 303
L 661 303
L 661 303
L 661 303
L 663 303
L 663 303
L 663 303
L 663 303
L 663 303
L 663 303
L 663 303
L 664 303
L 664 303
L 664 303
L 664 303
L 664 303
L 664 303
L 665 303
L 665 302
L 665 302
L 665 302
L 665 302
L 665 302
L 666 302
L 666 302
L 666 302
L 666 302
L 666 302
L 666 302
L 668 302
L 669 302
L 669 302
L 669 302
L 669 302
L 669 302
L 670 302
L 670 302
L 670 302
L 670 302
L 670 302
L 670 302
L 670 302
L 670 302
L 670 301
L 671 301
L 671 301
L 671 301
L 671 301
L 671 301
L 671 301
L 672 301
L 672 301
L 672 301
L 672 301
L 674 301
L 674 301
L 674 301
L 674 301
L 674 301
L 674 301
L 674 301
L 675 301
L 675 301
L 675 301
L 675 301
L 675 301
L 676 301
L 676 301
L 676 301
L 676 300
L 677 300
L 677 300
L 677 300
L 678 300
L 678 300
L 678 300
L 679 300
L 679 300
L 679 300
L 679 300
L 680 300
L 680 300
L 680 300
L 680 300
L 680 300
L 681 300
L 681 300
L 681 300
L 681 300
L 681 300
L 681 300
L 681 300
L 681 300
L 681 300
L 681 300
L 681 299
L 681 299
L 681 299
L 682 299
L 682 299
L 682 299
L 682 299
L 682 299
L 682 299
L 682 299
L 682 299
L 683 299
L 683 299
L 683 299
L 683 299
L 683 299
L 684 299
L 684 299
L 684 299
L 684 299
L 684 299
L 685 299
L 685 299
L 685 299
L 685 299
L 686 298
L 686 298
L 686 298
L 686 298
L 686 298
L 686 298
L 686 298
L 686 298
L 686 298
L 686 298
L 686 298
L 687 298
L 687 298
L 687 298
L 688 298
L 688 298
L 688 298
L 688 298
L 689 298
L 690 298
L 690 298
L 690 298
L 690 298
L 691 298
L 691 298
L 691 298
L 691 297
L 691 297
L 692 297
L 692 297
L 692 297
L 692 297
L 692 297
L 692 297
L 692 297
L 692 297
L 692 297
L 693 297
L 693 297
L 693 297
L 693 297
L 693 297
L 693 297
L 693 297
L 693 297
L 693 297
L 693 297
L 694 297
L 694 297
L 694 297
L 695 297
L 695 296
L 695 296
L 696 296
L 696 296
L 696 296
L 696 296
L 696 296
L 697 296
L 697 296
L 697 296
L 697 296
L 697 296
L 697 296
L 697 296
L 697 296
L 697 296
L 698 296
L 698 296
L 698 296
L 698 296
L 699 296
L 699 296
L 699 296
L 700 296
L 700 296
L 700 296
L 700 295
L 700 295
L 700 295
L 700 295
L 701 295
L 702 295
L 702 295
L 702 295
L 702 295
L 702 295
L 703 295
L 703 295
L 703 295
L 703 295
L 703 295
L 703 295
L 704 295
L 704 295
L 704 295
L 704 295
L 704 295
L 705 295
L 705 295
L 705 295
L 705 295
L 705 294
L 705 294
L 706 294
L 706 294
L 706 294
L 706 294
L 706 294
L 706 294
L 706 294
L 706 294
L 707 294
L 707 294
L 707 294
L 707 294
L 707 294
L 707 294
L 707 294
L 707 294
L 708 294
L 708 294
L 708 294
L 708 294
L 708 294
L 708 294
L 708 294
L 709 294
L 709 293
L 709 293
L 709 293
L 710 293
L 710 293
L 710 293
L 710 293
L 711 293
L 711 293
L 711 293
L 712 293
L 712 293
L 712 293
L 712 293
L 712 293
L 712 293
L 712 293
L 712 293
L 713 293
L 713 293
L 713 293
L 713 293
L 713 293
L 714 293
L 714 293
L 714 293
L 715 292
L 715 292
L 715 292
L 715 292
L 715 292
L 715 292
L 715 292
L 715 292
L 716 292
L 716 292
L 716 292
L 716 292
L 716 292
L 717 292
L 717 292
L 717 292
L 717 292
L 717 292
L 717 292
L 717 292
L 717 292
L 717 292
L 718 292
L 718 292
L 718 292
L 718 291
L 719 291
L 719 291
L 719 291
L 720 291
L 720 291
L 721 291
L 722 291
L 722 291
L 722 291
L 722 291
L 722 291
L 722 291
L 724 291
L 724 291
L 724 291
L 725 291
L 725 291
L 725 291
L 725 291
L 725 291
L 726 291
L 726 291
L 726 291
L 726 291
L 726 291
L 726 290
L 727 290
L 727 290
L 727 290
L 727 290
L 727 290
L 727 290
L 727 290
L 728 290
L 728 290
L 728 290
L 728 290
L 728 290
L 728 290
L 728 290
L 728 290
L 728 290
L 728 290
L 728 290
L 729 290
L 729 290
L 729 290
L 729 290
L 729 290
L 730 290
L 730 289
L 730 289
L 730 289
L 730 289
L 730 289
L 730 289
L 730 289
L 730 289
L 730 289
L 731 289
L 731 289
L 731 289
L 731 289
L 731 289
L 731 289
L 732 289
L 732 289
L 732 289
L 732 289
L 732 289
L 732 289
L 732 289
L 732 289
L 732 289
L 732 289
L 732 289
L 732 288
L 732 288
L 732 288
L 733 288
L 733 288
L 734 288
L 734 288
L 734 288
L 734 288
L 734 288
L 734 288
L 735 288
L 735 288
L 735 288
L 735 288
L 735 288
L 735 288
L 735 288
L 735 288
L 735 288
L 735 288
L 735 288
L 735 288
L 735 288
L 736 288
L 736 288
L 736 287
L 736 287
L 736 287
L 736 287
L 736 287
L 736 287
L 736 287
L 736 287
L 736 287
L 736 287
L 737 287
L 737 287
L 737 287
L 737 287
L 737 287
L 737 287
L 737 287
L 737 287
L 738 287
L 738 287
L 739 287
L 739 287
L 739 287
L 739 287
L 739 287
L 739 286
L 739 286
L 740 286
L 740 286
L 740 286
L 740 286
L 740 286
L 740 286
L 740 286
L 740 286
L 740 286
L 740 286
L 741 286
L 741 286
L 741 286
L 741 286
L 741 286
L 742 286
L 742 286
L 742 286
L 742 286
L 742 286
L 742 286
L 742 286
L 743 286
L 743 286
L 743 285
L 743 285
L 743 285
L 743 285
L 743 285
L 743 285
L 743 285
L 743 285
L 743 285
L 743 285
L 743 285
L 743 285
L 744 285
L 744 285
L 744 285
L 744 285
L 744 285
L 745 285
L 745 285
L 745 285
L 745 285
L 745 285
L 745 285
L 745 285
L 745 285
L 745 284
L 745 284
L 745 284
L 745 284
L 745 284
L 745 284
L 745 284
L 745 284
L 745 284
L 745 284
L 745 284
L 745 284
L 745 284
L 745 284
L 745 284
L 745 284
L 745 284
L 745 284
L 745 284
L 745 284
L 745 284
L 745 284
L 745 284
L 745 284
L 745 284
L 745 284
L 745 283
L 745 283
L 745 283
L 745 283
L 745 283
L 745 283
L 745 283
L 745 283
L 745 283
L 745 283
L 745 283
L 745 283
L 745 283
L 745 283
L 745 283
L 745 283
L 745 283
L 745 283
L 745 283
L 745 283
L 745 283
L 745 283
L 745 283
L 745 283
L 745 283
L 745 283
L 745 282
L 745 282
L 745 282
L 745 282
L 745 282
L 745 282
L 745 282
L 745 282
L 745 282
L 745 282
L 745 282
L 745 282
L 745 282
L 745 282
L 745 282
L 745 282
L 746 282
L 746 282
L 746 282
L 746 282
L 746 282
L 746 282
L 746 282
L 746 282
L 746 282
L 746 281
L 746 281
L 746 281
L 746 281
L 746 281
L 746 281
L 746 281
L 746 281
L 746 281
L 746 281
L 746 281
L 746 281
L 746 281
L 746 281
L 746 281
L 746 281
L 746 281
L 746 281
L 746 281
L 746 281
L 746 281
L 746 281
L 746 281
L 746 281
L 746 281
L 746 281
L 746 280
L 746 280
L 746 280
L 746 280
L 746 280
L 746 280
L 746 280
L 746 280
L 746 280
L 746 280
L 746 280
L 746 280
L 746 280
L 746 280
L 746 280
L 746 280
L 746 280
L 746 280
L 746 280
L 746 280
L 746 280
L 746 280
L 747 280
L 747 280
L 747 280
L 747 279
L 747 279
L 747 279
L 747 279
L 747 279
L 747 279
L 747 279
L 747 279
L 747 279
L 747 279
L 747 279
L 747 279
L 747 279
L 747 279
L 747 279
L 747 279
L 747 279
L 747 279
L 747 279
L 747 279
L 747 279
L 747 279
L 747 279
L 747 279
L 747 279
L 747 279
L 747 278
L 747 278
L 747 278
L 747 278
L 747 278
L 747 278
L 747 278
L 747 278
L 747 278
L 747 278
L 747 278
L 747 278
L 747 278
L 747 278
L 747 278
L 747 278
L 747 278
L 747 278
L 747 278
L 747 278
L 747 278
L 747 278
L 747 278
L 747 278
L 747 278
L 747 277
L 747 277
L 747 277
L 747 277
L 747 277
L 747 277
L 747 277
L 747 277
L 747 277
L 747 277
L 747 277
L 747 277
L 747 277
L 747 277
L 747 277
L 747 277
L 747 277
L 747 277
L 747 277
L 747 277
L 747 277
L 747 277
L 747 277
L 747 277
L 747 277
L 747 277
L 747 276
L 747 276
L 747 276
L 747 276
L 747 276
L 747 276
L 747 276
L 747 276
L 747 276
L 747 276
L 747 276
L 747 276
L 747 276
L 747 276
L 747 276
L 747 276
L 747 276
L 747 276
L 747 276
L 747 276
L 748 276
L 748 276
L 748 276
L 748 276
L 748 276
L 748 276
L 748 275
L 748 275
L 748 275
L 748 275
L 748 275
L 748 275
L 748 275
L 748 275
L 748 275
L 748 275
L 748 275
L 748 275
L 748 275
L 748 275
L 748 275
L 748 275
L 748 275
L 748 275
L 748 275
L 748 275
L 748 275
L 748 275
L 748 275
L 748 275
L 748 275
L 748 274
L 748 274
L 748 274
L 748 274
L 748 274
L 748 274
L 748 274
L 748 274
L 748 274
L 748 274
L 748 274
L 748 274
L 748 274
L 748 274
L 748 274
L 748 274
L 748 274
L 748 274
L 749 274
L 749 274
L 749 274
L 749 274
L 749 274
L 749 274
L 749 274
L 749 274
L 749 273
L 749 273
L 749 273
L 749 273
L 749 273
L 749 273
L 749 273
L 749 273
L 749 273
L 749 273
L 749 273
L 749 273
L 749 273
L 749 273
L 749 273
L 749 273
L 749 273
L 749 273
L 749 273
L 749 273
L 749 273
L 749 273
L 749 273
L 749 273
L 749 273
L 749 272
L 749 272
L 749 272
L 749 272
L 749 272
L 749 272
L 749 272
L 749 272
L 749 272
L 749 272
L 749 272
L 750 272
L 750 272
L 750 272
L 750 272
L 750 272
L 750 272
L 750 272
L 750 272
L 750 272
L 750 272
L 750 272
L 750 272
L 750 272
L 750 272
L 750 272
L 751 271
L 751 271
L 751 271
L 751 271
L 751 271
L 751 271
L 751 271
L 751 271
L 751 271
L 752 271
L 752 271
L 752 271
L 752 271
L 752 271
L 752 271
L 752 271
L 752 271
L 752 271
L 752 271
L 753 271
L 753 271
L 753 271
L 753 271
L 753 271
L 753 271
L 753 271
L 753 270
L 753 270
L 753 270
L 753 270
L 753 270
L 753 270
L 753 270
L 753 270
L 753 270
L 753 270
L 754 270
L 754 270
L 754 270
L 754 270
L 754 270
L 754 270
L 754 270
L 754 270
L 754 270
L 754 270
L 754 270
L 754 270
L 755 270
L 755 270
L 755 270
L 755 269
L 755 269
L 755 269
L 755 269
L 755 269
L 756 269
L 756 269
L 756 269
L 756 269
L 756 269
L 756 269
L 756 269
L 756 269
L 756 269
L 756 269
L 757 269
L 757 269
L 757 269
L 757 269
L 757 269
L 757 269
L 757 269
L 757 269
L 757 269
L 757 269
L 757 269
L 757 268
L 757 268
L 757 268
L 757 268
L 757 268
L 757 268
L 757 268
L 757 268
L 757 268
L 757 268
L 757 268
L 757 268
L 757 268
L 757 268
L 757 268
L 757 268
L 757 268
L 757 268
L 757 268
L 757 268
L 757 268
L 757 268
L 757 268
L 757 268
L 757 268
L 757 267
L 757 267
L 757 267
L 757 267
L 757 267
L 757 267
L 757 267
L 757 267
L 757 267
L 757 267
L 758 267
L 758 267
L 758 267
L 758 267
L 758 267
L 758 267
L 758 267
L 758 267
L 758 267
L 758 267
L 758 267
L 758 267
L 758 267
L 758 267
L 758 267
L 758 267
L 758 266
L 758 266
L 758 266
L 758 266
L 758 266
L 758 266
L 758 266
L 758 266
L 758 266
L 758 266
L 758 266
L 758 266
L 758 266
L 758 266
L 758 266
L 758 266
L 758 266
L 758 266
L 758 266
L 759 266
L 759 266
L 759 266
L 759 266
L 759 266
L 759 266
L 759 266
L 759 265
L 759 265
L 759 265
L 759 265
L 759 265
L 759 265
L 759 265
L 759 265
L 759 265
L 759 265
L 759 265
L 759 265
L 759 265
L 759 265
L 759 265
L 759 265
L 759 265
L 759 265
L 759 265
L 759 265
L 759 265
L 759 265
L 759 265
L 759 265
L 759 265
L 759 264
L 759 264
L 759 264
L 759 264
L 759 264
L 759 264
L 759 264
L 759 264
L 759 264
L 759 264
L 759 264
L 759 264
L 759 264
L 759 264
L 759 264
L 759 264
L 759 264
L 759 264
L 759 264
L 759 264
L 759 264
L 759 264
L 759 264
L 759 264
L 759 264
L 759 264
L 759 263
L 759 263
L 759 263
L 759 263
L 759 263
L 759 263
L 759 263
L 759 263
L 759 263
L 759 263
L 759 263
L 759 263
L 759 263
L 759 263
L 759 263
L 759 263
L 759 263
L 759 263
L 759 263
L 759 263
L 759 263
L 759 263
L 759 263
L 759 263
L 759 263
L 759 262
L 759 262
L 759 262
L 759 262
L 759 262
L 759 262
L 760 262
L 760 262
L 760 262
L 760 262
L 760 262
L 760 262
L 760 262
L 760 262
L 760 262
L 760 262
L 760 262
L 760 262
L 760 262
L 760 262
L 760 262
L 760 262
L 760 262
L 760 262
L 760 262
L 760 262
L 760 261
L 760 261
L 760 261
L 760 261
L 760 261
L 760 261
L 760 261
L 760 261
L 760 261
L 760 261
L 760 261
L 760 261
L 760 261
L 760 261
L 760 261
L 760 261
L 760 261
L 760 261
L 760 261
L 760 261
L 760 261
L 760 261
L 760 261
L 761 261
L 761 261
L 761 260
L 761 260
L 761 260
L 761 260
L 761 260
L 761 260
L 761 260
L 761 260
L 761 260
L 761 260
L 761 260
L 761 260
L 761 260
L 761 260
L 761 260
L 761 260
L 761 260
L 761 260
L 761 260
L 761 260
L 761 260
L 761 260
L 761 260
L 761 260
L 761 260
L 761 260
L 761 259
L 761 259
L 762 259
L 762 259
L 762 259
L 762 259
L 762 259
L 762 259
L 762 259
L 762 259
L 762 259
L 762 259
L 762 259
L 762 259
L 762 259
L 762 259
L 762 259
L 762 259
L 762 259
L 762 259
L 762 259
L 762 259
L 762 259
L 762 259
L 762 259
L 762 259
L 762 258
L 762 258
L 762 258
L 762 258
L 762 258
L 763 258
L 763 258
L 763 258
L 763 258
L 763 258
L 763 258
L 763 258
L 763 258
L 763 258
L 763 258
L 763 258
L 763 258
L 763 258
L 763 258
L 763 258
L 763 258
L 763 258
L 763 258
L 763 258
L 763 258
L 763 257
L 763 257
L 764 257
L 764 257
L 764 257
L 764 257
L 764 257
L 764 257
L 764 257
L 764 257
L 764 257
L 764 257
L 764 257
L 764 257
L 764 257
L 764 257
L 764 257
L 764 257
L 764 257
L 764 257
L 764 257
L 764 257
L 764 257
L 764 257
L 764 257
L 764 257
L 765 256
L 765 256
L 765 256
L 765 256
L 765 256
L 765 256
L 765 256
L 765 256
L 765 256
L 765 256
L 765 256
L 765 256
L 765 256
L 765 256
L 765 256
L 766 256
L 766 256
L 766 256
L 766 256
L 766 256
L 766 256
L 766 256
L 766 256
L 766 256
L 766 256
L 766 255
L 767 255
L 767 255
L 767 255
L 767 255
L 767 255
L 767 255
L 767 255
L 767 255
L 768 255
L 768 255
L 768 255
L 768 255
L 768 255
L 768 255
L 768 255
L 768 255
L 768 255
L 768 255
L 768 255
L 769 255
L 769 255
L 769 255
L 769 255
L 769 255
L 769 255
L 769 254
L 769 254
L 769 254
L 769 254
L 769 254
L 769 254
L 769 254
L 769 254
L 769 254
L 769 254
L 769 254
L 769 254
L 769 254
L 769 254
L 769 254
L 769 254
L 769 254
L 770 254
L 770 254
L 770 254
L 770 254
L 770 254
L 770 254
L 770 254
L 770 254
L 770 254
L 770 253
L 771 253
L 771 253
L 771 253
L 771 253
L 771 253
L 771 253
L 771 253
L 771 253
L 771 253
L 772 253
L 772 253
L 772 253
L 772 253
L 772 253
L 772 253
L 772 253
L 772 253
L 772 253
L 772 253
L 772 253
L 772 253
L 772 253
L 772 253
L 772 253
L 772 252
L 772 252
L 772 252
L 772 252
L 773 252
L 773 252
L 773 252
L 773 252
L 773 252
L 773 252
L 773 252
L 773 252
L 773 252
L 773 252
L 773 252
L 773 252
L 773 252
L 773 252
L 773 252
L 773 252
L 773 252
L 773 252
L 773 252
L 774 252
L 774 252
L 774 252
L 774 251
L 774 251
L 774 251
L 774 251
L 774 251
L 774 251
L 774 251
L 774 251
L 774 251
L 774 251
L 774 251
L 774 251
L 774 251
L 774 251
L 774 251
L 774 251
L 775 251
L 775 251
L 775 251
L 775 251
L 775 251
L 775 251
L 775 251
L 775 251
L 775 251
L 775 250
L 775 250
L 775 250
L 776 250
L 776 250
L 776 250
L 776 250
L 776 250
L 776 250
L 776 250
L 776 250
L 777 250
L 777 250
L 777 250
L 777 250
L 777 250
L 777 250
L 777 250
L 777 250
L 777 250
L 777 250
L 777 250
L 777 250
L 777 250
L 777 250
L 777 250
L 777 249
L 777 249
L 777 249
L 777 249
L 777 249
L 777 249
L 777 249
L 777 249
L 777 249
L 777 249
L 777 249
L 777 249
L 777 249
L 777 249
L 777 249
L 777 249
L 777 249
L 777 249
L 778 249
L 778 249
L 778 249
L 778 249
L 778 249
L 778 249
L 778 249
L 778 249
L 778 248
L 778 248
L 778 248
L 778 248
L 778 248
L 778 248
L 778 248
L 778 248
L 778 248
L 778 248
L 778 248
L 778 248
L 778 248
L 778 248
L 778 248
L 778 248
L 778 248
L 778 248
L 778 248
L 778 248
L 778 248
L 778 248
L 778 248
L 778 248
L 778 248
L 778 247
L 778 247
L 778 247
L 778 247
L 778 247
L 778 247
L 778 247
L 778 247
L 778 247
L 778 247
L 778 247
L 778 247
L 778 247
L 778 247
L 778 247
L 778 247
L 779 247
L 779 247
L 779 247
L 779 247
L 779 247
L 779 247
L 779 247
L 779 247
L 779 247
L 779 247
L 779 246
L 779 246
L 779 246
L 779 246
L 779 246
L 779 246
L 779 246
L 779 246
L 779 246
L 779 246
L 779 246
L 779 246
L 779 246
L 779 246
L 779 246
L 779 246
L 779 246
L 779 246
L 779 246
L 779 246
L 779 246
L 779 246
L 779 246
L 779 246
L 779 246
L 779 245
L 779 245
L 779 245
L 779 245
L 779 245
L 779 245
L 779 245
L 779 245
L 779 245
L 779 245
L 779 245
L 779 245
L 779 245
L 779 245
L 779 245
L 779 245
L 779 245
L 779 245
L 779 245
L 779 245
L 779 245
L 779 245
L 779 245
L 779 245
L 779 245
L 779 245
L 779 244
L 779 244
L 779 244
L 779 244
L 779 244
L 779 244
L 779 244
L 779 244
L 779 244
L 779 244
L 779 244
L 779 244
L 779 244
L 779 244
L 779 244
L 780 244
L 780 244
L 780 244
L 780 244
L 780 244
L 780 244
L 780 244
L 780 244
L 780 244
L 780 244
L 780 243
L 780 243
L 780 243
L 780 243
L 780 243
L 780 243
L 780 243
L 780 243
L 780 243
L 780 243
L 780 243
L 780 243
L 780 243
L 780 243
L 780 243
L 780 243
L 780 243
L 780 243
L 780 243
L 780 243
L 780 243
L 780 243
L 780 243
L 780 243
L 780 243
L 780 243
L 780 242
L 780 242
L 780 242
L 780 242
L 780 242
L 780 242
L 780 242
L 780 242
L 780 242
L 780 242
L 780 242
L 780 242
L 780 242
L 780 242
L 780 242
L 780 242
L 780 242
L 780 242
L 780 242
L 780 242
L 780 242
L 780 242
L 780 242
L 780 242
L 780 242
L 780 242
L 780 241
L 780 241
L 780 241
L 780 241
L 780 241
L 780 241
L 780 241
L 780 241
L 780 241
L 780 241
L 780 241
L 780 241
L 780 241
L 780 241
L 780 241
L 780 241
L 780 241
L 780 241
L 780 241
L 780 241
L 780 241
L 780 241
L 780 241
L 780 241
L 780 241
L 780 240
L 780 240
L 780 240
L 780 240
L 780 240
L 780 240
L 780 240
L 780 240
L 780 240
L 780 240
L 780 240
L 780 240
L 780 240
L 780 240
L 780 240
L 780 240
L 780 240
L 780 240
L 780 240
L 780 240
L 780 240
L 780 240
L 780 240
L 780 240
L 780 240
L 780 240
L 780 239
L 780 239
L 780 239
L 780 239
L 780 239
L 780 239
L 780 239
L 780 239
L 780 239
L 780 239
L 780 239
L 780 239
L 780 239
L 780 239
L 780 239
L 780 239
L 780 239
L 780 239
L 780 239
L 780 239
L 780 239
L 780 239
L 780 239
L 781 239
L 781 239
L 781 238
L 781 238
L 781 238
L 781 238
L 781 238
L 781 238
L 781 238
L 781 238
L 781 238
L 781 238
L 781 238
L 781 238
L 781 238
L 781 238
L 781 238
L 781 238
L 781 238
L 781 238
L 781 238
L 781 238
L 781 238
L 781 238
L 781 238
L 781 238
L 781 238
L 781 238
L 781 237
L 781 237
L 781 237
L 781 237
L 781 237
L 781 237
L 781 237
L 781 237
L 781 237
L 781 237
L 781 237
L 781 237
L 781 237
L 781 237
L 781 237
L 781 237
L 781 237
L 781 237
L 781 237
L 781 237
L 781 237
L 781 237
L 781 237
L 781 237
L 781 237
L 781 237
L 781 236
L 781 236
L 781 236
L 781 236
L 781 236
L 781 236
L 781 236
L 781 236
L 781 236
L 781 236
L 781 236
L 781 236
L 781 236
L 781 236
L 781 236
L 781 236
L 781 236
L 781 236
L 781 236
L 781 236
L 781 236
L 781 236
L 781 236
L 781 236
L 781 236
L 781 235
L 781 235
L 781 235
L 781 235
L 781 235
L 781 235
L 781 235
L 781 235
L 781 235
L 781 235
L 781 235
L 781 235
L 781 235
L 781 235
L 781 235
L 781 235
L 781 235
L 781 235
L 781 235
L 781 235
L 781 235
L 781 235
L 781 235
L 781 235
L 781 235
L 781 235
L 781 234
L 781 234
L 781 234
L 781 234
L 781 234
L 781 234
L 781 234
L 781 234
L 781 234
L 781 234
L 781 234
L 781 234
L 781 234
L 781 234
L 781 234
L 781 234
L 781 234
L 781 234
L 781 234
L 781 234
L 781 234
L 781 234
L 781 234
L 781 234
L 781 234
L 781 233
L 781 233
L 781 233
L 781 233
L 781 233
L 781 233
L 781 233
L 781 233
L 781 233
L 781 233
L 781 233
L 781 233
L 781 233
L 781 233
L 781 233
L 781 233
L 781 233
L 781 233
L 781 233
L 781 233
L 781 233
L 781 233
L 781 233
L 781 233
L 781 233
L 781 233
L 781 232
L 781 232
L 781 232
L 781 232
L 781 232
L 781 232
L 781 232
L 781 232
L 781 232
L 781 232
L 781 232
L 781 232
L 781 232
L 781 232
L 781 232
L 781 232
L 781 232
L 781 232
L 781 232
L 781 232
L 781 232
L 781 232
L 781 232
L 781 232
L 781 232
L 781 232
L 781 231
L 781 231
L 781 231
L 781 231
L 781 231
L 781 231
L 781 231
L 781 231
L 781 231
L 781 231
L 781 231
L 781 231
L 781 231
L 781 231
L 781 231
L 781 231
L 781 231
L 781 231
L 781 231
L 781 231
L 781 231
L 781 231
L 781 231
L 781 231
L 781 231
L 781 230
L 781 230
L 781 230
L 781 230
L 781 230
L 781 230
L 781 230
L 781 230
L 781 230
L 781 230
L 781 230
L 781 230
L 781 230
L 781 230
L 781 230
L 781 230
L 781 230
L 781 230
L 781 230
L 781 230
L 781 230
L 781 230
L 781 230
L 781 230
L 781 230
L 781 230
L 781 229
L 781 229
L 781 229
L 781 229
L 781 229
L 781 229
L 781 229
L 781 229
L 781 229
L 781 229
L 781 229
L 781 229
L 781 229
L 781 229
L 781 229
L 781 229
L 781 229
L 781 229
L 781 229
L 781 229
L 781 229
L 781 229
L 781 229
L 781 229
L 781 229
L 781 228
L 781 228
L 781 228
L 781 228
L 781 228
L 781 228
L 781 228
L 781 228
L 781 228
L 781 228
L 781 228
L 781 228
L 781 228
L 781 228
L 781 228
L 781 228
L 781 228
L 781 228
L 781 228
L 781 228
L 781 228
L 781 228
L 781 228
L 781 228
L 781 228
L 781 228
L 781 227
L 781 227
L 781 227
L 781 227
L 781 227
L 781 227
L 781 227
L 781 227
L 781 227
L 781 227
L 781 227
L 781 227
L 781 227
L 781 227
L 781 227
L 781 227
L 781 227
L 781 227
L 781 227
L 781 227
L 781 227
L 781 227
L 781 227
L 781 227
L 781 227
L 781 226
L 781 226
L 781 226
L 781 226
L 781 226
L 781 226
L 781 226
L 781 226
L 781 226
L 781 226
L 781 226
L 781 226
L 781 226
L 781 226
L 781 226
L 781 226
L 781 226
L 781 226
L 781 226
L 781 226
L 781 226
L 781 226
L 781 226
L 782 226
L 782 226
L 782 226
L 782 225
L 782 225
L 782 225
L 782 225
L 782 225
L 782 225
L 782 225
L 782 225
L 782 225
L 782 225
L 782 225
L 782 225
L 782 225
L 782 225
L 782 225
L 782 225
L 782 225
L 782 225
L 782 225
L 782 225
L 782 225
L 782 225
L 782 225
L 782 225
L 782 225
L 782 225
L 782 224
L 782 224
L 782 224
L 782 224
L 782 224
L 782 224
L 782 224
L 782 224
L 782 224
L 782 224
L 782 224
L 782 224
L 782 224
L 782 224
L 782 224
L 782 224
L 782 224
L 782 224
L 782 224
L 782 224
L 782 224
L 782 224
L 782 224
L 782 224
L 782 224
L 782 223
L 782 223
L 782 223
L 782 223
L 782 223
L 782 223
L 782 223
L 782 223
L 782 223
L 782 223
L 782 223
L 782 223
L 782 223
L 782 223
L 782 223
L 782 223
L 782 223
L 782 223
L 782 223
L 782 223
L 782 223
L 782 223
L 782 223
L 782 223
L 782 223
L 782 223
L 782 222
L 782 222
L 782 222
L 782 222
L 782 222
L 782 222
L 782 222
L 782 222
L 782 222
L 782 222
L 782 222
L 782 222
L 782 222
L 782 222
L 782 222
L 782 222
L 782 222
L 782 222
L 782 222
L 782 222
L 782 222
L 782 222
L 782 222
L 782 222
L 782 222
L 782 221
L 782 221
L 782 221
L 782 221
L 782 221
L 782 221
L 782 221
L 782 221
L 782 221
L 782 221
L 782 221
L 782 221
L 782 221
L 782 221
L 782 221
L 782 221
L 782 221
L 782 221
L 782 221
L 782 221
L 782 221
L 782 221
L 782 221
L 782 221
L 782 221
L 782 221
L 782 220
L 782 220
L 782 220
L 782 220
L 782 220
L 782 220
L 782 220
L 782 220
L 782 220
L 782 220
L 782 220
L 782 220
L 782 220
L 782 220
L 782 220
L 782 220
L 782 220
L 782 220
L 782 220
L 782 220
L 782 220
L 782 220
L 782 220
L 782 220
L 782 220
L 782 220
L 782 219
L 782 219
L 782 219
L 782 219
L 782 219
L 782 219
L 782 219
L 782 219
L 782 219
L 782 219
L 782 219
L 782 219
L 782 219
L 782 219
L 782 219
L 782 219
L 782 219
L 782 219
L 782 219
L 782 219
L 782 219
L 782 219
L 782 219
L 782 219
L 782 219
L 782 218
L 782 218
L 782 218
L 782 218
L 782 218
L 782 218
L 782 218
L 782 218
L 782 218
L 782 218
L 782 218
L 782 218
L 782 218
L 782 218
L 782 218
L 782 218
L 782 218
L 782 218
L 782 218
L 782 218
L 782 218
L 782 218
L 782 218
L 782 218
L 782 218
L 782 218
L 782 217
L 782 217
L 782 217
L 782 217
L 782 217
L 782 217
L 782 217
L 782 217
L 782 217
L 782 217
L 782 217
L 782 217
L 782 217
L 782 217
L 782 217
L 782 217
L 782 217
L 782 217
L 782 217
L 782 217
L 782 217
L 782 217
L 782 217
L 782 217
L 782 217
L 782 216
L 782 216
L 782 216
L 782 216
L 782 216
L 782 216
L 782 216
L 782 216
L 782 216
L 782 216
L 782 216
L 782 216
L 782 216
L 782 216
L 782 216
L 782 216
L 782 216
L 782 216
L 782 216
L 782 216
L 782 216
L 782 216
L 782 216
L 782 216
L 782 216
L 782 216
L 782 215
L 782 215
L 782 215
L 782 215
L 782 215
L 782 215
L 782 215
L 782 215
L 782 215
L 782 215
L 782 215
L 782 215
L 782 215
L 782 215
L 782 215
L 782 215
L 782 215
L 782 215
L 782 215
L 782 215
L 782 215
L 782 215
L 782 215
L 782 215
L 782 215
L 782 215
L 782 214
L 782 214
L 782 214
L 782 214
L 782 214
L 782 214
L 782 214
L 782 214
L 782 214
L 782 214
L 782 214
L 782 214
L 782 214
L 782 214
L 782 214
L 782 214
L 782 214
L 782 214
L 782 214
L 782 214
L 782 214
L 782 214
L 782 214
L 782 214
L 782 214
L 783 213
L 783 213
L 783 213
L 783 213
L 783 213
L 783 213
L 783 213
L 783 213
L 783 213
L 783 213
L 783 213
L 783 213
L 783 213
L 783 213
L 783 213
L 783 213
L 783 213
L 783 213
L 783 213
L 783 213
L 783 213
L 783 213
L 783 213
L 783 213
L 783 213
L 783 213
L 783 212
L 783 212
L 783 212
L 783 212
L 783 212
L 783 212
L 783 212
L 783 212
L 783 212
L 783 212
L 783 212
L 783 212
L 783 212
L 783 212
L 783 212
L 783 212
L 783 212
L 783 212
L 783 212
L 783 212
L 783 212
L 783 212
L 783 212
L 783 212
L 783 212
L 783 211
L 783 211
L 783 211
L 783 211
L 783 211
L 783 211
L 783 211
L 783 211
L 783 211
L 783 211
L 783 211
L 783 211
L 783 211
L 783 211
L 783 211
L 783 211
L 783 211
L 783 211
L 783 211
L 783 211
L 783 211
L 783 211
L 783 211
L 783 211
L 783 211
L 783 211
L 783 210
L 783 210
L 783 210
L 783 210
L 783 210
L 783 210
L 783 210
L 783 210
L 783 210
L 783 210
L 783 210
L 783 210
L 783 210
L 783 210
L 783 210
L 783 210
L 783 210
L 783 210
L 783 210
L 783 210
L 783 210
L 783 210
L 783 210
L 783 210
L 783 210
L 783 209
L 783 209
L 783 209
L 783 209
L 783 209
L 783 209
L 783 209
L 783 209
L 783 209
L 783 209
L 783 209
L 783 209
L 783 209
L 783 209
L 783 209
L 783 209
L 783 209
L 783 209
L 783 209
L 783 209
L 783 209
L 783 209
L 783 209
L 783 209
L 783 209
L 783 209
L 783 208
L 783 208
L 783 208
L 783 208
L 783 208
L 783 208
L 783 208
L 783 208
L 783 208
L 783 208
L 783 208
L 783 208
L 783 208
L 783 208
L 783 208
L 783 208
L 783 208
L 783 208
L 783 208
L 783 208
L 783 208
L 783 208
L 783 208
L 783 208
L 783 208
L 783 208
L 784 207
L 784 207
L 784 207
L 784 207
L 784 207
L 784 207
L 784 207
L 784 207
L 784 207
L 784 207
L 785 207
L 785 207
L 785 207
L 785 207
L 785 207
L 785 207
L 785 207
L 785 207
L 785 207
L 785 207
L 785 207
L 785 207
L 785 207
L 785 207
L 785 207
L 786 206
L 786 206
L 786 206
L 786 206
L 786 206
L 786 206
L 786 206
L 786 206
L 786 206
L 786 206
L 786 206
L 786 206
L 786 206
L 786 206
L 786 206
L 786 206
L 786 206
L 786 206
L 786 206
L 786 206
L 786 206
L 786 206
L 786 206
L 786 206
L 786 206
L 786 206
L 786 205
L 786 205
L 786 205
L 786 205
L 786 205
L 786 205
L 786 205
L 786 205
L 787 205
L 787 205
L 787 205
L 787 205
L 787 205
L 787 205
L 787 205
L 787 205
L 787 205
L 787 205
L 787 205
L 787 205
L 787 205
L 787 205
L 787 205
L 787 205
L 787 205
L 787 204
L 787 204
L 787 204
L 787 204
L 787 204
L 787 204
L 787 204
L 787 204
L 787 204
L 787 204
L 787 204
L 787 204
L 787 204
L 787 204
L 788 204
L 788 204
L 788 204
L 788 204
L 788 204
L 788 204
L 788 204
L 788 204
L 788 204
L 788 204
L 788 204
L 788 204
L 788 203
L 788 203
L 788 203
L 788 203
L 788 203
L 788 203
L 788 203
L 788 203
L 788 203
L 789 203
L 789 203
L 789 203
L 789 203
L 789 203
L 789 203
L 789 203
L 789 203
L 789 203
L 789 203
L 789 203
L 789 203
L 789 203
L 789 203
L 789 203
L 789 203
L 789 203
L 789 202
L 789 202
L 789 202
L 789 202
L 789 202
L 789 202
L 789 202
L 789 202
L 790 202
L 790 202
L 790 202
L 790 202
L 790 202
L 790 202
L 790 202
L 790 202
L 790 202
L 790 202
L 790 202
L 790 202
L 790 202
L 790 202
L 790 202
L 790 202
L 790 202
L 790 201
L 790 201
L 790 201
L 790 201
L 790 201
L 790 201
L 790 201
L 790 201
L 790 201
L 790 201
L 790 201
L 790 201
L 790 201
L 791 201
L 791 201
L 791 201
L 791 201
L 791 201
L 791 201
L 791 201
L 791 201
L 791 201
L 791 201
L 791 201
L 791 201
L 791 201
L 791 200
L 791 200
L 791 200
L 792 200
L 792 200
L 792 200
L 792 200
L 792 200
L 792 200
L 792 200
L 792 200
L 792 200
L 792 200
L 792 200
L 792 200
L 792 200
L 792 200
L 792 200
L 792 200
L 792 200
L 792 200
L 792 200
L 793 200
L 793 200
L 793 200
L 793 199
L 793 199
L 793 199
L 793 199
L 793 199
L 793 199
L 793 199
L 793 199
L 793 199
L 793 199
L 793 199
L 793 199
L 793 199
L 793 199
L 793 199
L 794 199
L 794 199
L 794 199
L 794 199
L 794 199
L 794 199
L 794 199
L 794 199
L 794 199
L 794 199
L 794 199
L 794 198
L 795 198
L 795 198
L 795 198
L 795 198
L 795 198
L 795 198
L 795 198
L 795 198
L 795 198
L 795 198
L 795 198
L 795 198
L 795 198
L 795 198
L 795 198
L 795 198
L 795 198
L 796 198
L 796 198
L 796 198
L 796 198
L 796 198
L 796 198
L 796 198
L 796 198
L 796 197
L 796 197
L 796 197
L 796 197
L 796 197
L 796 197
L 796 197
L 796 197
L 796 197
L 796 197
L 796 197
L 796 197
L 796 197
L 796 197
L 796 197
L 796 197
L 797 197
L 797 197
L 797 197
L 797 197
L 797 197
L 797 197
L 797 197
L 797 197
L 797 197
L 797 196
L 797 196
L 797 196
L 797 196
L 797 196
L 797 196
L 797 196
L 797 196
L 798 196
L 798 196
L 798 196
L 798 196
L 798 196
L 798 196
L 798 196
L 798 196
L 798 196
L 798 196
L 798 196
L 798 196
L 798 196
L 798 196
L 798 196
L 798 196
L 799 196
L 799 196
L 799 195
L 799 195
L 799 195
L 799 195
L 799 195
L 800 195
L 800 195
L 800 195
L 800 195
L 800 195
L 800 195
L 800 195
L 800 195
L 800 195
L 800 195
L 800 195
L 800 195
L 800 195
L 800 195
L 801 195
L 801 195
L 801 195
L 801 195
L 801 195
L 801 195
L 801 194
L 801 194
L 801 194
L 801 194
L 801 194
L 801 194
L 801 194
L 801 194
L 801 194
L 801 194
L 801 194
L 801 194
L 801 194
L 801 194
L 801 194
L 801 194
L 801 194
L 801 194
L 801 194
L 801 194
L 801 194
L 801 194
L 801 194
L 801 194
L 801 194
L 801 194
L 801 193
L 801 193
L 801 193
L 801 193
L 801 193
L 801 193
L 801 193
L 801 193
L 801 193
L 801 193
L 801 193
L 801 193
L 801 193
L 801 193
L 801 193
L 801 193
L 801 193
L 801 193
L 801 193
L 801 193
L 801 193
L 801 193
L 801 193
L 801 193
L 802 193
L 802 192
L 802 192
L 802 192
L 802 192
L 802 192
L 802 192
L 802 192
L 802 192
L 802 192
L 802 192
L 802 192
L 802 192
L 802 192
L 802 192
L 802 192
L 802 192
L 802 192
L 802 192
L 802 192
L 802 192
L 802 192
L 802 192
L 802 192
L 802 192
L 802 192
L 802 192
L 802 191
L 802 191
L 802 191
L 802 191
L 802 191
L 802 191
L 802 191
L 802 191
L 802 191
L 802 191
L 802 191
L 802 191
L 802 191
L 802 191
L 802 191
L 802 191
L 802 191
L 802 191
L 802 191
L 802 191
L 802 191
L 802 191
L 802 191
L 802 191
L 802 191
L 802 191
L 802 190
L 802 190
L 802 190
L 802 190
L 802 190
L 802 190
L 802 190
L 802 190
L 802 190
L 802 190
L 802 190
L 802 190
L 802 190
L 802 190
L 802 190
L 802 190
L 802 190
L 802 190
L 802 190
L 802 190
L 802 190
L 802 190
L 802 190
L 802 190
L 802 190
L 802 189
L 802 189
L 802 189
L 802 189
L 802 189
L 802 189
L 802 189
L 802 189
L 802 189
L 802 189
L 802 189
L 802 189
L 802 189
L 802 189
L 802 189
L 802 189
L 802 189
L 802 189
L 802 189
L 802 189
L 802 189
L 802 189
L 802 189
L 802 189
L 802 189
L 802 189
L 802 188
L 802 188
L 802 188
L 802 188
L 802 188
L 802 188
L 802 188
L 802 188
L 802 188
L 802 188
L 802 188
L 802 188
L 802 188
L 802 188
L 802 188
L 802 188
L 802 188
L 802 188
L 802 188
L 802 188
L 802 188
L 802 188
L 802 188
L 802 188
L 802 188
L 802 187
L 802 187
L 802 187
L 802 187
L 802 187
L 802 187
L 802 187
L 802 187
L 802 187
L 802 187
L 802 187
L 802 187
L 802 187
L 802 187
L 802 187
L 802 187
L 802 187
L 802 187
L 802 187
L 802 187
L 802 187
L 802 187
L 802 187
L 802 187
L 802 187
L 802 187
L 802 186
L 802 186
L 802 186
L 802 186
L 802 186
L 802 186
L 802 186
L 802 186
L 802 186
L 802 186
L 802 186
L 802 186
L 802 186
L 802 186
L 802 186
L 802 186
L 802 186
L 802 186
L 802 186
L 802 186
L 802 186
L 802 186
L 802 186
L 802 186
L 802 186
L 802 186
L 802 185
L 802 185
L 802 185
L 802 185
L 802 185
L 802 185
L 802 185
L 802 185
L 802 185
L 802 185
L 802 185
L 802 185
L 802 185
L 802 185
L 802 185
L 802 185
L 802 185
L 802 185
L 802 185
L 802 185
L 802 185
L 802 185
L 802 185
L 802 185
L 802 185
L 802 184
L 802 184
L 802 184
L 802 184
L 802 184
L 802 184
L 802 184
L 802 184
L 802 184
L 802 184
L 802 184
L 802 184
L 802 184
L 802 184
L 802 184
L 802 184
L 802 184
L 802 184
L 802 184
L 802 184
L 802 184
L 802 184
L 802 184
L 802 184
L 802 184
L 802 184
L 802 183
L 802 183
L 802 183
L 802 183
L 802 183
L 802 183
L 802 183
L 802 183
L 802 183
L 802 183
L 802 183
L 802 183
L 802 183
L 802 183
L 802 183
L 802 183
L 802 183
L 802 183
L 802 183
L 802 183
L 802 183
L 802 183
L 802 183
L 802 183
L 802 183
L 802 182
L 802 182
L 802 182
L 802 182
L 802 182
L 802 182
L 802 182
L 802 182
L 802 182
L 802 182
L 802 182
L 802 182
L 802 182
L 802 182
L 802 182
L 802 182
L 802 182
L 802 182
L 802 182
L 802 182
L 802 182
L 802 182
L 802 182
L 802 182
L 802 182
L 802 182
L 802 181
L 802 181
L 802 181
L 802 181
L 802 181
L 802 181
L 802 181
L 802 181
L 802 181
L 802 181
L 802 181
L 802 181
L 802 181
L 802 181
L 802 181
L 802 181
L 802 181
L 802 181
L 802 181
L 802 181
L 802 181
L 802 181
L 803 181
L 803 181
L 803 181
L 803 181
L 803 180
L 803 180
L 803 180
L 803 180
L 803 180
L 803 180
L 803 180
L 803 180
L 803 180
L 803 180
L 803 180
L 803 180
L 803 180
L 803 180
L 803 180
L 803 180
L 803 180
L 803 180
L 803 180
L 803 180
L 803 180
L 803 180
L 803 180
L 803 180
L 803 180
L 803 179
L 803 179
L 803 179
L 803 179
L 803 179
L 803 179
L 803 179
L 803 179
L 803 179
L 803 179
L 803 179
L 803 179
L 803 179
L 803 179
L 803 179
L 803 179
L 803 179
L 803 179
L 803 179
L 803 179
L 803 179
L 803 179
L 803 179
L 803 179
L 803 179
L 803 179
L 803 178
L 803 178
L 803 178
L 803 178
L 803 178
L 803 178
L 803 178
L 803 178
L 803 178
L 803 178
L 803 178
L 803 178
L 803 178
L 803 178
L 803 178
L 803 178
L 803 178
L 803 178
L 803 178
L 803 178
L 803 178
L 803 178
L 803 178
L 803 178
L 803 178
L 803 177
L 803 177
L 803 177
L 803 177
L 803 177
L 803 177
L 803 177
L 803 177
L 803 177
L 803 177
L 803 177
L 803 177
L 803 177
L 803 177
L 803 177
L 803 177
L 803 177
L 803 177
L 803 177
L 803 177
L 803 177
L 803 177
L 803 177
L 803 177
L 803 177
L 803 177
L 803 176
L 803 176
L 803 176
L 803 176
L 803 176
L 803 176
L 803 176
L 803 176
L 803 176
L 803 176
L 803 176
L 803 176
L 803 176
L 803 176
L 803 176
L 803 176
L 803 176
L 803 176
L 803 176
L 803 176
L 803 176
L 803 176
L 803 176
L 803 176
L 803 176
L 803 175
L 803 175
L 803 175
L 803 175
L 803 175
L 803 175
L 803 175
L 803 175
L 803 175
L 803 175
L 803 175
L 803 175
L 803 175
L 803 175
L 803 175
L 803 175
L 803 175
L 803 175
L 803 175
L 803 175
L 803 175
L 803 175
L 803 175
L 803 175
L 803 175
L 803 175
L 803 174
L 803 174
L 803 174
L 803 174
L 803 174
L 803 174
L 803 174
L 803 174
L 803 174
L 803 174
L 803 174
L 803 174
L 803 174
L 803 174
L 803 174
L 803 174
L 803 174
L 803 174
L 803 174
L 803 174
L 803 174
L 803 174
L 803 174
L 803 174
L 803 174
L 803 174
L 803 173
L 803 173
L 803 173
L 803 173
L 803 173
L 803 173
L 803 173
L 803 173
L 803 173
L 803 173
L 803 173
L 803 173
L 803 173
L 803 173
L 803 173
L 803 173
L 803 173
L 803 173
L 803 173
L 803 173
L 803 173
L 803 173
L 803 173
L 803 173
L 803 173
L 803 172
L 803 172
L 803 172
L 803 172
L 803 172
L 803 172
L 803 172
L 803 172
L 803 172
L 803 172
L 803 172
L 803 172
L 803 172
L 803 172
L 803 172
L 803 172
L 803 172
L 803 172
L 803 172
L 803 172
L 803 172
L 803 172
L 803 172
L 803 172
L 803 172
L 803 172
L 803 171
L 803 171
L 803 171
L 803 171
L 803 171
L 803 171
L 803 171
L 803 171
L 803 171
L 803 171
L 803 171
L 803 171
L 803 171
L 803 171
L 803 171
L 803 171
L 803 171
L 803 171
L 803 171
L 803 171
L 803 171
L 803 171
L 803 171
L 803 171
L 803 171
L 803 170
L 803 170
L 803 170
L 803 170
L 803 170
L 803 170
L 803 170
L 803 170
L 803 170
L 803 170
L 803 170
L 803 170
L 803 170
L 803 170
L 803 170
L 803 170
L 803 170
L 803 170
L 803 170
L 803 170
L 803 170
L 803 170
L 803 170
L 803 170
L 803 170
L 803 170
L 803 169
L 803 169
L 803 169
L 803 169
L 803 169
L 803 169
L 803 169
L 803 169
L 803 169
L 803 169
L 803 169
L 803 169
L 803 169
L 803 169
L 803 169
L 803 169
L 803 169
L 803 169
L 803 169
L 803 169
L 803 169
L 803 169
L 803 169
L 803 169
L 803 169
L 803 169
L 803 168
L 803 168
L 803 168
L 803 168
L 803 168
L 803 168
L 803 168
L 803 168
L 803 168
L 803 168
L 803 168
L 803 168
L 803 168
L 803 168
L 803 168
L 803 168
L 803 168
L 803 168
L 803 168
L 803 168
L 803 168
L 803 168
L 803 168
L 803 168
L 803 168
L 804 167
L 804 167
L 804 167
L 804 167
L 804 167
L 804 167
L 804 167
L 804 167
L 804 167
L 804 167
L 804 167
L 804 167
L 804 167
L 804 167
L 804 167
L 804 167
L 804 167
L 804 167
L 804 167
L 804 167
L 804 167
L 804 167
L 804 167
L 804 167
L 804 167
L 804 167
L 804 166
L 804 166
L 804 166
L 804 166
L 804 166
L 804 166
L 804 166
L 804 166
L 804 166
L 804 166
L 804 166
L 804 166
L 804 166
L 804 166
L 804 166
L 804 166
L 804 166
L 804 166
L 804 166
L 804 166
L 804 166
L 804 166
L 804 166
L 804 166
L 804 166
L 804 165
L 804 165
L 804 165
L 804 165
L 804 165
L 804 165
L 804 165
L 804 165
L 804 165
L 804 165
L 804 165
L 804 165
L 804 165
L 804 165
L 804 165
L 804 165
L 804 165
L 804 165
L 804 165
L 804 165
L 804 165
L 804 165
L 804 165
L 804 165
L 804 165
L 804 165
L 804 164
L 804 164
L 804 164
L 804 164
L 804 164
L 804 164
L 804 164
L 804 164
L 804 164
L 804 164
L 804 164
L 804 164
L 804 164
L 804 164
L 804 164
L 804 164
L 804 164
L 804 164
L 804 164
L 804 164
L 804 164
L 804 164
L 804 164
L 804 164
L 804 164
L 804 163
L 804 163
L 804 163
L 804 163
L 804 163
L 804 163
L 804 163
L 804 163
L 804 163
L 804 163
L 804 163
L 804 163
L 804 163
L 804 163
L 804 163
L 804 163
L 804 163
L 804 163
L 804 163
L 804 163
L 804 163
L 804 163
L 804 163
L 804 163
L 804 163
L 804 163
L 804 162
L 804 162
L 804 162
L 804 162
L 804 162
L 804 162
L 804 162
L 804 162
L 804 162
L 804 162
L 804 162
L 804 162
L 804 162
L 804 162
L 804 162
L 804 162
L 804 162
L 804 162
L 804 162
L 804 162
L 804 162
L 804 162
L 804 162
L 804 162
L 804 162
L 804 162
L 804 161
L 804 161
L 804 161
L 804 161
L 804 161
L 804 161
L 804 161
L 804 161
L 804 161
L 804 161
L 804 161
L 804 161
L 804 161
L 804 161
L 804 161
L 804 161
L 804 161
L 804 161
L 804 161
L 804 161
L 804 161
L 804 161
L 804 161
L 804 161
L 804 161
L 804 160
L 804 160
L 804 160
L 804 160
L 804 160
L 804 160
L 804 160
L 804 160
L 804 160
L 804 160
L 804 160
L 804 160
L 804 160
L 804 160
L 804 160
L 804 160
L 804 160
L 804 160
L 804 160
L 804 160
L 804 160
L 804 160
L 804 160
L 804 160
L 804 160
L 804 160
L 804 159
L 804 159
L 804 159
L 804 159
L 804 159
L 804 159
L 804 159
L 804 159
L 804 159
L 804 159
L 804 159
L 804 159
L 804 159
L 804 159
L 804 159
L 804 159
L 804 159
L 804 159
L 804 159
L 804 159
L 804 159
L 804 159
L 804 159
L 804 159
L 804 159
L 804 158
L 804 158
L 804 158
L 804 158
L 804 158
L 804 158
L 804 158
L 804 158
L 804 158
L 804 158
L 804 158
L 804 158
L 804 158
L 804 158
L 804 158
L 804 158
L 804 158
L 804 158
L 804 158
L 804 158
L 804 158
L 804 158
L 804 158
L 804 158
L 804 158
L 804 158
L 804 157
L 804 157
L 804 157
L 804 157
L 804 157
L 804 157
L 804 157
L 804 157
L 804 157
L 804 157
L 804 157
L 804 157
L 804 157
L 804 157
L 804 157
L 804 157
L 804 157
L 804 157
L 804 157
L 804 157
L 804 157
L 804 157
L 804 157
L 804 157
L 804 157
L 804 157
L 804 156
L 804 156
L 804 156
L 804 156
L 804 156
L 804 156
L 804 156
L 804 156
L 804 156
L 804 156
L 804 156
L 804 156
L 804 156
L 804 156
L 804 156
L 804 156
L 804 156
L 804 156
L 804 156
L 804 156
L 804 156
L 804 156
L 804 156
L 804 156
L 804 156
L 804 155
L 804 155
L 804 155
L 804 155
L 804 155
L 804 155
L 804 155
L 804 155
L 804 155
L 805 155
L 805 155
L 805 155
L 805 155
L 805 155
L 805 155
L 805 155
L 805 155
L 805 155
L 805 155
L 805 155
L 805 155
L 805 155
L 805 155
L 805 155
L 805 155
L 805 155
L 805 154
L 805 154
L 805 154
L 805 154
L 805 154
L 805 154
L 805 154
L 805 154
L 805 154
L 805 154
L 805 154
L 805 154
L 805 154
L 805 154
L 805 154
L 805 154
L 805 154
L 805 154
L 805 154
L 805 154
L 805 154
L 805 154
L 805 154
L 805 154
L 805 154
L 805 153
L 805 153
L 805 153
L 805 153
L 805 153
L 805 153
L 805 153
L 805 153
L 805 153
L 805 153
L 805 153
L 805 153
L 805 153
L 805 153
L 805 153
L 805 153
L 805 153
L 805 153
L 805 153
L 805 153
L 805 153
L 805 153
L 805 153
L 805 153
L 805 153
L 805 153
L 805 152
L 805 152
L 805 152
L 805 152
L 805 152
L 805 152
L 805 152
L 805 152
L 805 152
L 805 152
L 805 152
L 805 152
L 805 152
L 805 152
L 805 152
L 805 152
L 805 152
L 805 152
L 805 152
L 805 152
L 805 152
L 805 152
L 805 152
L 805 152
L 805 152
L 805 152
L 805 151
L 805 151
L 805 151
L 805 151
L 805 151
L 805 151
L 805 151
L 805 151
L 805 151
L 805 151
L 805 151
L 805 151
L 805 151
L 805 151
L 805 151
L 805 151
L 805 151
L 805 151
L 805 151
L 805 151
L 805 151
L 805 151
L 805 151
L 805 151
L 805 151
L 805 150
L 805 150
L 805 150
L 805 150
L 805 150
L 805 150
L 805 150
L 805 150
L 805 150
L 805 150
L 805 150
L 805 150
L 805 150
L 805 150
L 805 150
L 805 150
L 805 150
L 805 150
L 805 150
L 805 150
L 805 150
L 805 150
L 805 150
L 805 150
L 805 150
L 805 150
L 805 149
L 805 149
L 805 149
L 805 149
L 805 149
L 805 149
L 805 149
L 805 149
L 805 149
L 805 149
L 805 149
L 805 149
L 805 149
L 805 149
L 805 149
L 805 149
L 805 149
L 805 149
L 805 149
L 805 149
L 805 149
L 805 149
L 805 149
L 805 149
L 805 149
L 805 148
L 805 148
L 805 148
L 805 148
L 805 148
L 805 148
L 805 148
L 805 148
L 805 148
L 805 148
L 805 148
L 805 148
L 805 148
L 805 148
L 805 148
L 805 148
L 805 148
L 805 148
L 805 148
L 805 148
L 806 148
L 806 148
L 806 148
L 806 148
L 806 148
L 806 148
L 806 147
L 806 147
L 806 147
L 806 147
L 806 147
L 806 147
L 806 147
L 806 147
L 806 147
L 806 147
L 806 147
L 806 147
L 806 147
L 806 147
L 806 147
L 806 147
L 806 147
L 806 147
L 806 147
L 806 147
L 806 147
L 806 147
L 806 147
L 807 147
L 807 147
L 807 147
L 807 146
L 807 146
L 807 146
L 807 146
L 807 146
L 807 146
L 807 146
L 807 146
L 807 146
L 807 146
L 807 146
L 807 146
L 807 146
L 807 146
L 807 146
L 807 146
L 807 146
L 807 146
L 807 146
L 807 146
L 807 146
L 807 146
L 807 146
L 807 146
L 807 146
L 807 145
L 807 145
L 807 145
L 807 145
L 807 145
L 807 145
L 807 145
L 807 145
L 807 145
L 807 145
L 807 145
L 807 145
L 807 145
L 807 145
L 807 145
L 807 145
L 807 145
L 807 145
L 807 145
L 807 145
L 807 145
L 807 145
L 807 145
L 807 145
L 807 145
L 807 145
L 807 144
L 807 144
L 807 144
L 807 144
L 807 144
L 807 144
L 807 144
L 807 144
L 807 144
L 807 144
L 807 144
L 807 144
L 807 144
L 807 144
L 807 144
L 807 144
L 807 144
L 807 144
L 807 144
L 807 144
L 807 144
L 807 144
L 807 144
L 807 144
L 807 144
L 807 143
L 807 143
L 807 143
L 807 143
L 807 143
L 807 143
L 807 143
L 807 143
L 807 143
L 807 143
L 807 143
L 807 143
L 807 143
L 807 143
L 807 143
L 807 143
L 807 143
L 807 143
L 807 143
L 807 143
L 807 143
L 808 143
L 808 143
L 808 143
L 808 143
L 808 143
L 808 142
L 808 142
L 808 142
L 808 142
L 808 142
L 808 142
L 808 142
L 808 142
L 808 142
L 808 142
L 808 142
L 808 142
L 808 142
L 808 142
L 808 142
L 808 142
L 808 142
L 808 142
L 808 142
L 808 142
L 808 142
L 808 142
L 808 142
L 808 142
L 808 142
L 808 141
L 808 141
L 808 141
L 808 141
L 808 141
L 808 141
L 808 141
L 808 141
L 808 141
L 808 141
L 808 141
L 808 141
L 808 141
L 808 141
L 808 141
L 808 141
L 808 141
L 808 141
L 808 141
L 808 141
L 808 141
L 808 141
L 808 141
L 809 141
L 809 141
L 809 141
L 809 140
L 809 140
L 809 140
L 809 140
L 809 140
L 809 140
L 809 140
L 809 140
L 809 140
L 809 140
L 809 140
L 809 140
L 809 140
L 809 140
L 809 140
L 809 140
L 809 140
L 809 140
L 809 140
L 809 140
L 809 140
L 809 140
L 809 140
L 809 140
L 809 140
L 809 140
L 809 139
L 809 139
L 809 139
L 809 139
L 809 139
L 809 139
L 809 139
L 809 139
L 810 139
L 810 139
L 810 139
L 810 139
L 810 139
L 810 139
L 810 139
L 810 139
L 810 139
L 810 139
L 810 139
L 810 139
L 810 139
L 810 139
L 810 139
L 811 139
L 811 139
L 811 138
L 811 138
L 811 138
L 811 138
L 811 138
L 811 138
L 811 138
L 811 138
L 811 138
L 811 138
L 811 138
L 811 138
L 811 138
L 811 138
L 811 138
L 811 138
L 811 138
L 811 138
L 811 138
L 811 138
L 811 138
L 811 138
L 811 138
L 811 138
L 812 138
L 812 138
L 812 137
L 812 137
L 812 137
L 812 137
L 812 137
L 812 137
L 812 137
L 812 137
L 812 137
L 812 137
L 812 137
L 812 137
L 812 137
L 812 137
L 812 137
L 812 137
L 812 137
L 812 137
L 812 137
L 812 137
L 812 137
L 812 137
L 812 137
L 812 137
L 812 137
L 812 136
L 812 136
L 812 136
L 812 136
L 812 136
L 812 136
L 813 136
L 813 136
L 813 136
L 813 136
L 813 136
L 813 136
L 813 136
L 813 136
L 813 136
L 813 136
L 813 136
L 813 136
L 813 136
L 813 136
L 813 136
L 813 136
L 813 136
L 813 136
L 813 136
L 814 136
L 814 135
L 814 135
L 814 135
L 814 135
L 814 135
L 814 135
L 814 135
L 814 135
L 814 135
L 814 135
L 814 135
L 814 135
L 814 135
L 814 135
L 814 135
L 814 135
L 814 135
L 814 135
L 814 135
L 815 135
L 815 135
L 815 135
L 815 135
L 815 135
L 815 135
L 815 135
L 815 134
L 815 134
L 815 134
L 815 134
L 815 134
L 815 134
L 815 134
L 815 134
L 815 134
L 815 134
L 815 134
L 815 134
L 815 134
L 815 134
L 815 134
L 815 134
L 815 134
L 815 134
L 815 134
L 815 134
L 815 134
L 815 134
L 815 134
L 815 134
L 816 134
L 816 133
L 816 133
L 816 133
L 816 133
L 816 133
L 816 133
L 816 133
L 816 133
L 816 133
L 816 133
L 816 133
L 816 133
L 816 133
L 817 133
L 817 133
L 817 133
L 817 133
L 817 133
L 817 133
L 817 133
L 817 133
L 817 133
L 817 133
L 818 133
L 818 133
L 818 133
L 818 132
L 818 132
L 818 132
L 818 132
L 818 132
L 818 132
L 818 132
L 818 132
L 818 132
L 818 132
L 818 132
L 818 132
L 818 132
L 818 132
L 818 132
L 818 132
L 818 132
L 818 132
L 818 132
L 818 132
L 818 132
L 818 132
L 818 132
L 818 132
L 818 132
L 818 131
L 818 131
L 818 131
L 818 131
L 818 131
L 818 131
L 818 131
L 818 131
L 819 131
L 819 131
L 819 131
L 819 131
L 819 131
L 819 131
L 819 131
L 819 131
L 819 131
L 819 131
L 819 131
L 819 131
L 819 131
L 819 131
L 819 131
L 819 131
L 819 131
L 819 131
L 819 130
L 819 130
L 819 130
L 819 130
L 819 130
L 819 130
L 819 130
L 819 130
L 819 130
L 819 130
L 819 130
L 819 130
L 819 130
L 819 130
L 819 130
L 819 130
L 819 130
L 819 130
L 819 130
L 819 130
L 819 130
L 819 130
L 819 130
L 819 130
L 819 130
L 819 130
L 819 129
L 819 129
L 819 129
L 819 129
L 819 129
L 819 129
L 819 129
L 819 129
L 819 129
L 820 129
L 820 129
L 820 129
L 820 129
L 820 129
L 820 129
L 820 129
L 820 129
L 820 129
L 820 129
L 820 129
L 820 129
L 820 129
L 820 129
L 820 129
L 820 129
L 820 128
L 820 128
L 820 128
L 820 128
L 820 128
L 820 128
L 820 128
L 820 128
L 820 128
L 820 128
L 820 128
L 820 128
L 820 128
L 820 128
L 820 128
L 820 128
L 820 128
L 820 128
L 820 128
L 820 128
L 820 128
L 820 128
L 820 128
L 820 128
L 820 128
L 820 128
L 820 127
L 820 127
L 820 127
L 820 127
L 820 127
L 820 127
L 821 127
L 821 127
L 821 127
L 821 127
L 821 127
L 821 127
L 821 127
L 821 127
L 821 127
L 821 127
L 821 127
L 821 127
L 821 127
L 821 127
L 821 127
L 821 127
L 821 127
L 821 127
L 821 127
L 821 126
L 821 126
L 821 126
L 821 126
L 821 126
L 822 126
L 822 126
L 822 126
L 822 126
L 822 126
L 822 126
L 822 126
L 822 126
L 822 126
L 822 126
L 822 126
L 822 126
L 822 126
L 822 126
L 822 126
L 822 126
L 822 126
L 822 126
L 822 126
L 822 126
L 822 126
L 822 125
L 822 125
L 822 125
L 822 125
L 822 125
L 822 125
L 822 125
L 822 125
L 822 125
L 822 125
L 822 125
L 822 125
L 822 125
L 822 125
L 823 125
L 823 125
L 823 125
L 823 125
L 823 125
L 823 125
L 823 125
L 823 125
L 823 125
L 823 125
L 823 125
L 823 124
L 823 124
L 823 124
L 823 124
L 823 124
L 823 124
L 823 124
L 823 124
L 823 124
L 823 124
L 823 124
L 823 124
L 823 124
L 823 124
L 823 124
L 823 124
L 824 124
L 824 124
L 824 124
L 824 124
L 824 124
L 824 124
L 824 124
L 824 124
L 824 124
L 824 124
L 824 123
L 824 123
L 824 123
L 824 123
L 824 123
L 824 123
L 824 123
L 824 123
L 824 123
L 824 123
L 824 123
L 824 123
L 824 123
L 824 123
L 824 123
L 824 123
L 824 123
L 824 123
L 824 123
L 825 123
L 825 123
L 825 123
L 825 123
L 825 123
L 825 123
L 825 123
L 825 122
L 825 122
L 825 122
L 825 122
L 825 122
L 825 122
L 825 122
L 825 122
L 825 122
L 825 122
L 825 122
L 825 122
L 825 122
L 826 122
L 826 122
L 826 122
L 826 122
L 826 122
L 826 122
L 826 122
L 826 122
L 826 122
L 826 122
L 827 122
L 827 122
L 827 121
L 827 121
L 827 121
L 827 121
L 827 121
L 827 121
L 828 121
L 828 121
L 828 121
L 828 121
L 828 121
L 829 121
L 829 121
L 829 121
L 829 121
L 829 121
L 829 121
L 829 121
L 829 121
L 829 121
L 829 121
L 829 121
L 829 121
L 829 121
L 829 121
L 829 121
L 829 120
L 829 120
L 829 120
L 830 120
L 830 120
L 830 120
L 830 120
L 830 120
L 830 120
L 830 120
L 830 120
L 830 120
L 830 120
L 830 120
L 830 120
L 830 120
L 831 120
L 831 120
L 831 120
L 831 120
L 831 120
L 831 120
L 831 120
L 831 120
L 831 120
L 832 119
L 832 119
L 832 119
L 832 119
L 832 119
L 832 119
L 832 119
L 832 119
L 832 119
L 833 119
L 833 119
L 833 119
L 833 119
L 833 119
L 833 119
L 833 119
L 833 119
L 833 119
L 834 119
L 834 119
L 834 119
L 834 119
L 834 119
L 834 119
L 834 119
L 834 119
L 834 118
L 834 118
L 834 118
L 834 118
L 834 118
L 834 118
L 835 118
L 835 118
L 835 118
L 835 118
L 835 118
L 835 118
L 835 118
L 835 118
L 835 118
L 835 118
L 836 118
L 836 118
L 836 118
L 836 118
L 836 118
L 836 118
L 836 118
L 836 118
L 836 118
L 836 118
L 836 117
L 836 117
L 836 117
L 836 117
L 837 117
L 837 117
L 837 117
L 837 117
L 837 117
L 837 117
L 837 117
L 837 117
L 837 117
L 837 117
L 837 117
L 837 117
L 837 117
L 837 117
L 838 117
L 838 117
L 838 117
L 838 117
L 838 117
L 838 117
L 838 117
L 839 116
L 839 116
L 839 116
L 839 116
L 839 116
L 839 116
L 839 116
L 839 116
L 839 116
L 839 116
L 840 116
L 840 116
L 840 116
L 840 116
L 840 116
L 840 116
L 840 116
L 840 116
L 840 116
L 840 116
L 840 116
L 840 116
L 840 116
L 840 116
L 840 116
L 840 116
L 840 115
L 840 115
L 840 115
L 840 115
L 841 115
L 841 115
L 841 115
L 841 115
L 841 115
L 841 115
L 841 115
L 841 115
L 841 115
L 841 115
L 841 115
L 842 115
L 842 115
L 842 115
L 842 115
L 842 115
L 842 115
L 842 115
L 843 115
L 843 115
L 843 115
L 843 114
L 843 114
L 843 114
L 844 114
L 844 114
L 844 114
L 844 114
L 844 114
L 844 114
L 844 114
L 844 114
L 844 114
L 844 114
L 844 114
L 845 114
L 845 114
L 845 114
L 845 114
L 845 114
L 845 114
L 845 114
L 845 114
L 845 114
L 845 114
L 845 114
L 845 114
L 845 113
L 845 113
L 845 113
L 845 113
L 845 113
L 845 113
L 845 113
L 845 113
L 845 113
L 845 113
L 845 113
L 845 113
L 845 113
L 845 113
L 845 113
L 845 113
L 845 113
L 845 113
L 845 113
L 845 113
L 845 113
L 845 113
L 845 113
L 845 113
L 845 113
L 845 113
L 845 112
L 846 112
L 846 112
L 846 112
L 846 112
L 846 112
L 846 112
L 846 112
L 846 112
L 846 112
L 846 112
L 846 112
L 846 112
L 846 112
L 846 112
L 846 112
L 846 112
L 846 112
L 846 112
L 847 112
L 847 112
L 847 112
L 847 112
L 847 112
L 847 112
L 847 111
L 847 111
L 847 111
L 847 111
L 847 111
L 847 111
L 847 111
L 847 111
L 847 111
L 847 111
L 847 111
L 847 111
L 847 111
L 847 111
L 847 111
L 847 111
L 847 111
L 847 111
L 847 111
L 847 111
L 847 111
L 847 111
L 847 111
L 848 111
L 848 111
L 848 111
L 848 110
L 848 110
L 848 110
L 848 110
L 848 110
L 848 110
L 848 110
L 848 110
L 848 110
L 848 110
L 849 110
L 849 110
L 849 110
L 849 110
L 849 110
L 849 110
L 849 110
L 849 110
L 849 110
L 849 110
L 849 110
L 849 110
L 849 110
L 850 110
L 850 110
L 850 109
L 850 109
L 850 109
L 850 109
L 850 109
L 850 109
L 850 109
L 850 109
L 850 109
L 851 109
L 851 109
L 851 109
L 851 109
L 851 109
L 851 109
L 851 109
L 851 109
L 851 109
L 851 109
L 851 109
L 851 109
L 851 109
L 851 109
L 851 109
L 851 109
L 852 109
L 852 108
L 852 108
L 852 108
L 852 108
L 852 108
L 852 108
L 852 108
L 852 108
L 852 108
L 852 108
L 852 108
L 852 108
L 852 108
L 852 108
L 852 108
L 852 108
L 853 108
L 853 108
L 853 108
L 853 108
L 853 108
L 853 108
L 853 108
L 853 108
L 853 108
L 853 107
L 854 107
L 854 107
L 854 107
L 854 107
L 854 107
L 854 107
L 854 107
L 854 107
L 855 107
L 855 107
L 855 107
L 855 107
L 855 107
L 855 107
L 855 107
L 855 107
L 855 107
L 855 107
L 855 107
L 855 107
L 855 107
L 856 107
L 856 107
L 856 107
L 856 107
L 856 106
L 856 106
L 856 106
L 856 106
L 857 106
L 857 106
L 857 106
L 857 106
L 857 106
L 857 106
L 857 106
L 857 106
L 857 106
L 857 106
L 857 106
L 857 106
L 857 106
L 857 106
L 857 106
L 857 106
L 858 106
L 858 106
L 858 106
L 858 106
L 858 106
L 858 106
L 858 105
L 858 105
L 858 105
L 858 105
L 858 105
L 859 105
L 859 105
L 859 105
L 859 105
L 859 105
L 859 105
L 859 105
L 859 105
L 859 105
L 859 105
L 859 105
L 860 105
L 860 105
L 860 105
L 860 105
L 860 105
L 860 105
L 860 105
L 860 105
L 860 105
L 860 104
L 860 104
L 860 104
L 860 104
L 860 104
L 861 104
L 861 104
L 861 104
L 861 104
L 861 104
L 861 104
L 861 104
L 861 104
L 861 104
L 861 104
L 861 104
L 861 104
L 861 104
L 861 104
L 861 104
L 861 104
L 861 104
L 861 104
L 861 104
L 862 104
L 862 104
L 862 103
L 862 103
L 862 103
L 862 103
L 862 103
L 862 103
L 862 103
L 862 103
L 862 103
L 862 103
L 863 103
L 863 103
L 863 103
L 863 103
L 863 103
L 863 103
L 863 103
L 863 103
L 863 103
L 863 103
L 863 103
L 863 103
L 863 103
L 863 103
L 864 103
L 864 102
L 864 102
L 864 102
L 864 102
L 864 102
L 865 102
L 865 102
L 865 102
L 865 102
L 865 102
L 865 102
L 865 102
L 866 102
L 866 102
L 866 102
L 866 102
L 866 102
L 866 102
L 866 102
L 866 102
L 866 102
L 866 102
L 866 102
L 866 102
L 866 102
L 866 102
L 867 101
L 867 101
L 867 101
L 867 101
L 867 101
L 867 101
L 867 101
L 867 101
L 867 101
L 867 101
L 867 101
L 867 101
L 868 101
L 868 101
L 868 101
L 868 101
L 868 101
L 868 101
L 868 101
L 868 101
L 868 101
L 868 101
L 868 101
L 868 101
L 868 101
L 869 101
L 869 100
L 869 100
L 869 100
L 869 100
L 869 100
L 869 100
L 869 100
L 869 100
L 869 100
L 869 100
L 869 100
L 870 100
L 870 100
L 870 100
L 870 100
L 870 100
L 870 100
L 870 100
L 871 100
L 871 100
L 871 100
L 871 100
L 871 100
L 871 100
L 871 100
L 871 99
L 871 99
L 871 99
L 871 99
L 871 99
L 872 99
L 872 99
L 872 99
L 872 99
L 872 99
L 872 99
L 872 99
L 872 99
L 872 99
L 872 99
L 873 99
L 873 99
L 873 99
L 873 99
L 873 99
L 873 99
L 873 99
L 873 99
L 873 99
L 873 99
L 873 99
L 873 98
L 873 98
L 873 98
L 873 98
L 873 98
L 873 98
L 873 98
L 873 98
L 873 98
L 873 98
L 873 98
L 873 98
L 873 98
L 873 98
L 873 98
L 873 98
L 873 98
L 873 98
L 873 98
L 873 98
L 873 98
L 873 98
L 873 98
L 873 98
L 873 98
L 873 97
L 873 97
L 874 97
L 874 97
L 874 97
L 874 97
L 874 97
L 874 97
L 874 97
L 874 97
L 874 97
L 874 97
L 874 97
L 874 97
L 874 97
L 874 97
L 874 97
L 874 97
L 874 97
L 874 97
L 874 97
L 874 97
L 874 97
L 874 97
L 874 97
L 874 97
L 874 96
L 874 96
L 874 96
L 874 96
L 874 96
L 874 96
L 874 96
L 875 96
L 875 96
L 875 96
L 875 96
L 875 96
L 875 96
L 875 96
L 875 96
L 875 96
L 875 96
L 875 96
L 875 96
L 875 96
L 875 96
L 875 96
L 875 96
L 875 96
L 875 96
L 875 96
L 875 95
L 875 95
L 875 95
L 875 95
L 875 95
L 875 95
L 875 95
L 875 95
L 875 95
L 875 95
L 875 95
L 875 95
L 875 95
L 875 95
L 875 95
L 875 95
L 875 95
L 875 95
L 875 95
L 875 95
L 875 95
L 875 95
L 876 95
L 876 95
L 876 95
L 876 94
L 876 94
L 876 94
L 876 94
L 876 94
L 876 94
L 876 94
L 876 94
L 876 94
L 876 94
L 876 94
L 876 94
L 876 94
L 877 94
L 877 94
L 877 94
L 877 94
L 877 94
L 877 94
L 877 94
L 877 94
L 877 94
L 877 94
L 877 94
L 877 94
L 877 94
L 877 93
L 877 93
L 877 93
L 877 93
L 877 93
L 877 93
L 877 93
L 877 93
L 877 93
L 878 93
L 878 93
L 878 93
L 878 93
L 878 93
L 878 93
L 878 93
L 878 93
L 878 93
L 878 93
L 878 93
L 878 93
L 878 93
L 878 93
L 878 93
L 878 93
L 878 92
L 878 92
L 878 92
L 878 92
L 878 92
L 878 92
L 878 92
L 878 92
L 878 92
L 878 92
L 878 92
L 878 92
L 878 92
L 878 92
L 878 92
L 878 92
L 878 92
L 878 92
L 878 92
L 878 92
L 878 92
L 878 92
L 878 92
L 878 92
L 878 92
L 878 92
L 878 91
L 878 91
L 878 91
L 878 91
L 878 91
L 878 91
L 878 91
L 878 91
L 878 91
L 879 91
L 879 91
L 879 91
L 879 91
L 879 91
L 879 91
L 879 91
L 879 91
L 879 91
L 879 91
L 879 91
L 879 91
L 879 91
L 879 91
L 879 91
L 879 91
L 879 90
L 879 90
L 879 90
L 879 90
L 879 90
L 879 90
L 879 90
L 879 90
L 879 90
L 879 90
L 879 90
L 879 90
L 879 90
L 879 90
L 879 90
L 879 90
L 879 90
L 879 90
L 879 90
L 879 90
L 879 90
L 879 90
L 879 90
L 879 90
L 879 90
L 879 90
L 879 89
L 879 89
L 879 89
L 879 89
L 879 89
L 879 89
L 879 89
L 879 89
L 879 89
L 879 89
L 879 89
L 879 89
L 879 89
L 879 89
L 879 89
L 879 89
L 879 89
L 880 89
L 880 89
L 880 89
L 880 89
L 880 89
L 880 89
L 880 89
L 880 89
L 880 89
L 880 88
L 880 88
L 880 88
L 880 88
L 880 88
L 880 88
L 880 88
L 880 88
L 880 88
L 880 88
L 880 88
L 880 88
L 880 88
L 880 88
L 880 88
L 880 88
L 880 88
L 880 88
L 880 88
L 880 88
L 880 88
L 880 88
L 880 88
L 880 88
L 880 88
L 880 87
L 880 87
L 880 87
L 880 87
L 880 87
L 880 87
L 880 87
L 880 87
L 880 87
L 880 87
L 880 87
L 880 87
L 880 87
L 880 87
L 880 87
L 880 87
L 880 87
L 880 87
L 880 87
L 880 87
L 880 87
L 880 87
L 880 87
L 880 87
L 880 87
L 880 87
L 880 86
L 880 86
L 880 86
L 880 86
L 880 86
L 880 86
L 880 86
L 880 86
L 880 86
L 880 86
L 881 86
L 881 86
L 881 86
L 881 86
L 881 86
L 881 86
L 881 86
L 881 86
L 881 86
L 881 86
L 881 86
L 881 86
L 881 86
L 881 86
L 881 86
L 881 85
L 881 85
L 881 85
L 881 85
L 881 85
L 881 85
L 881 85
L 881 85
L 881 85
L 881 85
L 881 85
L 881 85
L 881 85
L 881 85
L 881 85
L 881 85
L 882 85
L 882 85
L 882 85
L 882 85
L 882 85
L 882 85
L 882 85
L 882 85
L 882 85
L 882 85
L 882 84
L 882 84
L 882 84
L 882 84
L 882 84
L 882 84
L 882 84
L 882 84
L 882 84
L 882 84
L 882 84
L 883 84
L 883 84
L 883 84
L 883 84
L 883 84
L 883 84
L 883 84
L 883 84
L 883 84
L 883 84
L 883 84
L 883 84
L 883 84
L 883 84
L 883 84
L 883 83
L 883 83
L 883 83
L 883 83
L 883 83
L 883 83
L 883 83
L 883 83
L 883 83
L 883 83
L 883 83
L 883 83
L 883 83
L 883 83
L 883 83
L 883 83
L 884 83
L 884 83
L 884 83
L 884 83
L 884 83
L 884 83
L 884 83
L 884 83
L 884 83
L 884 82
L 884 82
L 884 82
L 884 82
L 884 82
L 884 82
L 884 82
L 884 82
L 884 82
L 884 82
L 884 82
L 884 82
L 884 82
L 884 82
L 884 82
L 884 82
L 884 82
L 884 82
L 884 82
L 884 82
L 884 82
L 885 82
L 885 82
L 885 82
L 885 82
L 885 82
L 885 81
L 885 81
L 885 81
L 885 81
L 885 81
L 885 81
L 885 81
L 885 81
L 885 81
L 885 81
L 886 81
L 886 81
L 886 81
L 886 81
L 886 81
L 886 81
L 886 81
L 887 81
L 887 81
L 887 81
L 887 81
L 887 81
L 887 81
L 887 81
L 887 81
L 887 80
L 887 80
L 887 80
L 887 80
L 887 80
L 887 80
L 887 80
L 887 80
L 888 80
L 888 80
L 888 80
L 888 80
L 888 80
L 888 80
L 888 80
L 888 80
L 888 80
L 888 80
L 888 80
L 888 80
L 888 80
L 888 80
L 888 80
L 888 80
L 888 80
L 888 80
L 888 79
L 888 79
L 888 79
L 888 79
L 888 79
L 888 79
L 888 79
L 889 79
L 889 79
L 889 79
L 889 79
L 889 79
L 889 79
L 889 79
L 889 79
L 889 79
L 889 79
L 889 79
L 889 79
L 889 79
L 889 79
L 889 79
L 889 79
L 889 79
L 889 79
L 889 79
L 889 78
L 889 78
L 890 78
L 890 78
L 890 78
L 890 78
L 890 78
L 890 78
L 890 78
L 890 78
L 890 78
L 890 78
L 890 78
L 890 78
L 890 78
L 890 78
L 890 78
L 890 78
L 890 78
L 890 78
L 890 78
L 890 78
L 890 78
L 890 78
L 890 78
L 890 77
L 890 77
L 890 77
L 890 77
L 890 77
L 891 77
L 891 77
L 891 77
L 891 77
L 891 77
L 891 77
L 891 77
L 891 77
L 891 77
L 891 77
L 891 77
L 891 77
L 891 77
L 891 77
L 891 77
L 891 77
L 891 77
L 891 77
L 891 77
L 891 77
L 891 77
L 892 76
L 892 76
L 892 76
L 892 76
L 892 76
L 892 76
L 892 76
L 892 76
L 892 76
L 892 76
L 892 76
L 892 76
L 892 76
L 892 76
L 892 76
L 892 76
L 892 76
L 892 76
L 892 76
L 892 76
L 892 76
L 892 76
L 892 76
L 892 76
L 892 76
L 892 75
L 892 75
L 892 75
L 892 75
L 892 75
L 892 75
L 892 75
L 892 75
L 892 75
L 892 75
L 892 75
L 893 75
L 893 75
L 893 75
L 893 75
L 893 75
L 893 75
L 893 75
L 893 75
L 893 75
L 894 75
L 894 75
L 894 75
L 894 75
L 894 75
L 894 75
L 894 74
L 894 74
L 894 74
L 894 74
L 894 74
L 894 74
L 895 74
L 895 74
L 895 74
L 895 74
L 895 74
L 895 74
L 895 74
L 895 74
L 895 74
L 895 74
L 895 74
L 895 74
L 895 74
L 895 74
L 895 74
L 895 74
L 895 74
L 895 74
L 895 74
L 895 73
L 895 73
L 896 73
L 896 73
L 896 73
L 896 73
L 896 73
L 896 73
L 896 73
L 896 73
L 896 73
L 896 73
L 896 73
L 896 73
L 896 73
L 896 73
L 896 73
L 896 73
L 896 73
L 896 73
L 896 73
L 896 73
L 896 73
L 896 73
L 896 73
L 896 73
L 896 72
L 896 72
L 897 72
L 897 72
L 897 72
L 897 72
L 897 72
L 897 72
L 897 72
L 897 72
L 897 72
L 897 72
L 897 72
L 897 72
L 897 72
L 897 72
L 897 72
L 897 72
L 897 72
L 897 72
L 897 72
L 897 72
L 897 72
L 898 72
L 898 72
L 898 72
L 898 71
L 898 71
L 898 71
L 898 71
L 898 71
L 898 71
L 898 71
L 898 71
L 898 71
L 898 71
L 898 71
L 898 71
L 898 71
L 898 71
L 899 71
L 899 71
L 899 71
L 899 71
L 899 71
L 899 71
L 899 71
L 899 71
L 899 71
L 899 71
L 899 71
L 900 70
L 900 70
L 900 70
L 900 70
L 900 70
L 900 70
L 900 70
L 900 70
L 900 70
L 900 70
L 900 70
L 900 70
L 900 70
L 900 70
L 900 70
L 901 70
L 901 70
L 901 70
L 901 70
L 901 70
L 901 70
L 901 70
L 901 70
L 901 70
L 901 70
L 901 70
L 902 69
L 902 69
L 902 69
L 902 69
L 902 69
L 902 69
L 902 69
L 902 69
L 902 69
L 902 69
L 902 69
L 903 69
L 903 69
L 903 69
L 903 69
L 903 69
L 903 69
L 903 69
L 903 69
L 903 69
L 903 69
L 904 69
L 904 69
L 904 69
L 904 69
L 904 68
L 904 68
L 904 68
L 904 68
L 904 68
L 904 68
L 904 68
L 905 68
L 905 68
L 905 68
L 905 68
L 905 68
L 905 68
L 906 68
L 906 68
L 906 68
L 906 68
L 906 68
L 907 68
L 907 68
L 907 68
L 907 68
L 907 68
L 907 68
L 907 68
L 907 68
L 907 67
L 908 67
L 908 67
L 908 67
L 908 67
L 908 67
L 908 67
L 908 67
L 909 67
L 909 67
L 909 67
L 909 67
L 909 67
L 909 67
L 909 67
L 910 67
L 910 67
L 910 67
L 910 67
L 910 67
L 910 67
L 910 67
L 910 67
L 910 67
L 910 67
L 910 67
L 910 66
L 911 66
L 911 66
L 911 66
L 911 66
L 911 66
L 911 66
L 911 66
L 911 66
L 911 66
L 911 66
L 911 66
L 911 66
L 911 66
L 911 66
L 911 66
L 911 66
L 911 66
L 912 66
L 912 66
L 912 66
L 912 66
L 912 66
L 912 66
L 912 66
L 912 65
L 912 65
L 912 65
L 912 65
L 912 65
L 912 65
L 912 65
L 912 65
L 912 65
L 912 65
L 912 65
L 912 65
L 912 65
L 912 65
L 912 65
L 912 65
L 912 65
L 912 65
L 913 65
L 913 65
L 913 65
L 913 65
L 913 65
L 913 65
L 913 65
L 913 65
L 913 64
L 913 64
L 913 64
L 913 64
L 913 64
L 913 64
L 913 64
L 913 64
L 913 64
L 913 64
L 913 64
L 913 64
L 913 64
L 913 64
L 913 64
L 914 64
L 914 64
L 914 64
L 914 64
L 914 64
L 914 64
L 914 64
L 914 64
L 915 64
L 915 64
L 915 63
L 915 63
L 915 63
L 915 63
L 916 63
L 916 63
L 916 63
L 916 63
L 916 63
L 916 63
L 916 63
L 916 63
L 916 63
L 916 63
L 917 63
L 917 63
L 917 63
L 917 63
L 917 63
L 917 63
L 917 63
L 917 63
L 917 63
L 917 63
L 917 63
L 918 63
L 918 62
L 918 62
L 918 62
L 918 62
L 918 62
L 918 62
L 918 62
L 918 62
L 918 62
L 919 62
L 919 62
L 919 62
L 919 62
L 919 62
L 919 62
L 919 62
L 920 62
L 920 62
L 920 62
L 920 62
L 920 62
L 920 62
L 920 62
L 921 62
L 921 62
L 921 62
L 921 61
L 921 61
L 921 61
L 921 61
L 921 61
L 922 61
L 922 61
L 922 61
L 922 61
L 922 61
L 922 61
L 922 61
L 922 61
L 922 61
L 922 61
L 922 61
L 922 61
L 922 61
L 922 61
L 922 61
L 922 61
L 922 61
L 923 61
L 923 61
L 923 61
L 923 60
L 923 60
L 923 60
L 923 60
L 923 60
L 923 60
L 923 60
L 923 60
L 923 60
L 923 60
L 923 60
L 923 60
L 923 60
L 923 60
L 923 60
L 923 60
L 923 60
L 923 60
L 923 60
L 923 60
L 923 60
L 923 60
L 924 60
L 924 60
L 924 60
L 924 60
L 924 59
L 924 59
L 924 59
L 924 59
L 924 59
L 924 59
L 924 59
L 925 59
L 925 59
L 925 59
L 925 59
L 925 59
L 925 59
L 925 59
L 925 59
L 925 59
L 925 59
L 925 59
L 925 59
L 925 59
L 925 59
L 925 59
L 925 59
L 926 59
L 926 59
L 926 58
L 926 58
L 926 58
L 926 58
L 926 58
L 926 58
L 927 58
L 927 58
L 927 58
L 927 58
L 927 58
L 927 58
L 927 58
L 927 58
L 927 58
L 927 58
L 927 58
L 927 58
L 927 58
L 927 58
L 927 58
L 928 58
L 928 58
L 928 58
L 928 58
L 928 58
L 928 57
L 928 57
L 928 57
L 928 57
L 928 57
L 928 57
L 928 57
L 928 57
L 928 57
L 929 57
L 929 57
L 929 57
L 929 57
L 929 57
L 929 57
L 929 57
L 929 57
L 930 57
L 930 57
L 930 57
L 930 57
L 930 57
L 930 57
L 930 57
L 930 57
L 930 56
L 930 56
L 930 56
L 930 56
L 930 56
L 930 56
L 930 56
L 931 56
L 931 56
L 931 56
L 931 56
L 931 56
L 931 56
L 931 56
L 931 56
L 932 56
L 932 56
L 932 56
L 932 56
L 932 56
L 932 56
L 932 56
L 932 56
L 932 56
L 932 56
L 933 56
L 933 55
L 933 55
L 933 55
L 934 55
L 934 55
L 934 55
L 934 55
L 934 55
L 934 55
L 934 55
L 934 55
L 935 55
L 935 55
L 935 55
L 935 55
L 935 55
L 935 55
L 935 55
L 935 55
L 935 55
L 935 55
L 935 55
L 935 55
L 936 55
L 936 55
L 936 55
L 937 54
L 937 54
L 937 54
L 937 54
L 937 54
L 937 54
L 938 54
L 938 54
L 938 54
L 938 54
L 938 54
L 938 54
L 938 54
L 938 54
L 939 54
L 939 54
L 939 54
L 939 54
L 939 54
L 939 54
L 939 54
L 939 54
L 939 54
L 939 54
L 939 54
L 939 53
L 939 53
L 939 53
L 939 53
L 940 53
L 940 53
L 940 53
L 940 53
L 940 53
L 940 53
L 940 53
L 940 53
L 940 53
L 940 53
L 940 53
L 940 53
L 940 53
L 940 53
L 940 53
L 940 53
L 940 53
L 940 53
L 941 53
L 941 53
L 941 53
L 941 53
L 941 52
L 941 52
L 941 52
L 941 52
L 941 52
L 941 52
L 941 52
L 941 52
L 942 52
L 942 52
L 942 52
L 942 52
L 942 52
L 942 52
L 942 52
L 942 52
L 942 52
L 943 52
L 943 52
L 943 52
L 943 52
L 943 52
L 943 52
L 943 52
L 943 52
L 943 51
L 943 51
L 943 51
L 943 51
L 944 51
L 944 51
L 944 51
L 944 51
L 944 51
L 944 51
L 944 51
L 944 51
L 944 51
L 944 51
L 945 51
L 945 51
L 945 51
L 945 51
L 945 51
L 945 51
L 945 51
L 945 51
L 946 51
L 946 51
L 946 51
L 946 51
L 946 50
L 947 50
L 947 50
L 947 50
L 947 50
L 948 50
L 948 50
L 949 50
L 949 50
L 949 50
L 949 50
L 949 50
L 949 50
L 949 50
L 949 50
L 949 50
L 949 50
L 949 50
L 949 50
L 949 50
L 950 50
L 950 50
L 950 50
L 950 50
L 950 50
L 950 50
L 950 49
L 950 49
L 950 49
L 950 49
L 950 49
L 951 49
L 951 49
L 951 49
L 951 49
L 951 49
L 951 49
L 951 49
L 951 49
L 951 49
L 951 49
L 951 49
L 951 49
L 951 49
L 951 49
L 951 49
L 951 49
L 951 49
L 951 49
L 951 49
L 951 49
L 951 48
L 951 48
L 951 48
L 951 48
L 951 48
L 951 48
L 951 48
L 951 48
L 951 48
L 952 48
L 952 48
L 952 48
L 952 48
L 952 48
L 952 48
L 952 48
L 952 48
L 952 48
L 952 48
L 952 48
L 952 48
L 952 48
L 952 48
L 952 48
L 952 48
L 953 48
L 953 47
L 953 47
L 953 47
L 953 47
L 953 47
L 953 47
L 953 47
L 953 47
L 953 47
L 953 47
L 953 47
L 953 47
L 953 47
L 953 47
L 953 47
L 953 47
L 953 47
L 953 47
L 953 47
L 953 47
L 953 47
L 953 47
L 953 47
L 953 47
L 953 47
L 953 46
L 954 46
L 954 46
L 954 46
L 954 46
L 954 46
L 954 46
L 954 46
L 954 46
L 954 46
L 954 46
L 954 46
L 954 46
L 954 46
L 954 46
L 954 46
L 954 46
L 954 46
L 954 46
L 954 46
L 954 46
L 954 46
L 954 46
L 954 46
L 954 46
L 954 46
L 954 45
L 954 45
L 954 45
L 954 45
L 954 45
L 954 45
L 954 45
L 954 45
L 954 45
L 954 45
L 954 45
L 954 45
L 954 45
L 954 45
L 954 45
L 954 45
L 954 45
L 954 45
L 954 45
L 954 45
L 954 45
L 954 45
L 954 45
L 954 45
L 954 45
L 954 45
L 954 44
L 954 44
L 954 44
L 954 44
L 954 44
L 954 44
L 954 44
L 954 44
L 954 44
L 954 44
L 954 44
L 954 44
L 954 44
L 954 44
L 954 44
L 954 44
L 954 44
L 954 44
L 954 44
L 954 44
L 954 44
L 954 44
L 954 44
L 954 44
L 954 44
L 954 43
L 954 43
L 954 43
L 954 43
L 954 43
L 954 43
L 954 43
L 954 43
L 954 43
L 954 43
L 954 43
L 954 43
L 954 43
L 954 43
L 954 43
L 954 43
L 954 43
L 954 43
L 954 43
L 954 43
L 954 43
L 954 43
L 955 43
L 955 43
L 955 43
L 955 43
L 955 42
L 955 42
L 955 42
L 955 42
L 955 42
L 955 42
L 955 42
L 955 42
L 955 42
L 955 42
L 955 42
L 955 42
L 955 42
L 955 42
L 955 42
L 955 42
L 955 42
L 955 42
L 955 42
L 955 42
L 955 42
L 955 42
L 955 42
L 955 42
L 955 42
L 955 41
L 955 41
L 955 41
L 955 41
L 955 41
L 955 41
L 955 41
L 955 41
L 955 41
L 955 41
L 955 41
L 955 41
L 955 41
L 955 41
L 955 41
L 955 41
L 955 41
L 955 41
L 955 41
L 955 41
L 955 41
L 955 41
L 955 41
L 955 41
L 955 41
L 955 41
L 955 40
L 955 40
L 955 40
L 955 40
L 955 40
L 955 40
L 955 40
L 955 40
L 955 40
L 955 40
L 955 40
L 955 40
L 955 40
L 955 40
L 955 40
L 955 40
L 955 40
L 955 40
L 955 40
L 955 40
L 955 40
L 955 40
L 955 40
L 955 40
L 955 40
L 955 39
L 955 39
L 955 39
L 955 39
L 955 39
L 955 39
L 955 39
L 955 39
L 955 39
L 955 39
L 955 39
L 955 39
L 955 39
L 955 39
L 955 39
L 955 39
L 955 39
L 955 39
L 955 39
L 955 39
L 955 39
L 955 39
L 955 39
L 955 39
L 955 39
L 955 39
L 955 38
L 955 38
L 955 38
L 955 38
L 955 38
L 955 38
L 955 38
L 955 38
L 955 38
L 955 38
L 955 38
L 955 38
L 955 38
L 955 38
L 955 38
L 955 38
L 955 38
L 955 38
L 955 38
L 955 38
L 955 38
L 955 38
L 955 38
L 955 38
L 955 38
L 955 38
L 955 37
L 955 37
L 955 37
L 955 37
L 955 37
L 955 37
L 955 37
L 955 37
L 955 37
L 955 37
L 955 37
L 955 37
L 955 37
L 955 37
L 955 37
L 955 37
L 955 37
L 955 37
L 955 37
L 955 37
L 955 37
L 955 37
L 955 37
L 955 37
L 955 37
L 955 36
L 955 36
L 955 36
L 955 36
L 955 36
L 955 36
L 955 36
L 955 36
L 955 36
L 955 36
L 955 36
L 955 36
L 955 36
L 955 36
L 955 36
L 955 36
L 955 36
L 955 36
L 955 36
L 955 36
L 955 36
L 955 36
L 955 36
L 955 36
L 955 36
L 955 36
L 955 35
L 955 35
L 955 35
L 955 35
L 955 35
L 956 35
L 956 35
L 956 35
L 956 35
L 956 35
L 956 35
L 956 35
L 956 35
L 956 35
L 956 35
L 956 35
L 956 35
L 956 35
L 956 35
L 956 35
L 956 35
L 956 35
L 956 35
L 956 35
L 956 35
L 956 34
L 956 34
L 956 34
L 956 34
L 956 34
L 956 34
L 956 34
L 956 34
L 956 34
L 956 34
L 956 34
L 956 34
L 956 34
L 956 34
L 956 34
L 956 34
L 956 34
L 956 34
L 956 34
L 956 34
L 956 34
L 956 34
L 956 34
L 956 34
L 956 34
L 956 34
L 956 33
L 956 33
L 956 33
L 956 33
L 956 33
L 956 33
L 956 33
L 956 33
L 956 33
L 956 33
L 956 33
L 956 33
L 956 33
L 956 33
L 956 33
L 956 33
L 956 33
L 956 33
L 956 33
L 956 33
L 956 33
L 956 33
L 956 33
L 956 33
L 956 33
L 956 33
L 956 32
L 956 32
L 956 32
L 956 32
L 956 32
L 956 32
L 956 32
L 956 32
L 956 32
L 956 32
L 956 32
L 956 32
L 956 32
L 956 32
L 956 32
L 956 32
L 956 32
L 956 32
L 956 32
L 956 32
L 956 32
L 956 32
L 956 32
L 956 32
L 956 32
L 956 31
L 956 31
L 956 31
L 956 31
L 956 31
L 956 31
L 956 31
L 956 31
L 956 31
L 956 31
L 956 31
L 956 31
L 956 31
L 956 31
L 956 31
L 956 31
L 956 31
L 956 31
L 956 31
L 956 31
L 956 31
L 956 31
L 956 31
L 956 31
L 956 31
L 956 31
L 956 30
L 956 30
L 956 30
L 956 30
L 956 30
L 956 30
L 956 30
L 956 30
L 956 30
L 956 30
L 956 30
L 956 30
L 956 30
L 956 30
L 956 30
L 956 30
L 956 30
L 956 30
L 956 30
L 956 30
L 956 30
L 956 30
L 956 30
L 956 30
L 956 30
L 956 29
L 956 29
L 956 29
L 956 29
L 956 29
L 956 29
L 956 29
L 956 29
L 956 29
L 956 29
L 956 29
L 956 29
L 956 29
L 956 29
L 956 29
L 956 29
L 956 29
L 956 29
L 956 29
L 956 29
L 956 29
L 956 29
L 956 29
L 956 29
L 956 29
L 956 29
L 956 28
L 956 28
L 956 28
L 956 28
L 956 28
L 956 28
L 956 28
L 956 28
L 956 28
L 956 28
L 956 28
L 956 28
L 956 28
L 956 28
L 956 28
L 956 28
L 956 28
L 956 28
L 956 28
L 956 28
L 956 28
L 956 28
L 956 28
L 956 28
L 956 28
L 956 28
L 956 27
L 956 27
L 956 27
L 956 27
L 956 27
L 956 27
L 956 27
L 956 27
L 956 27
L 956 27
L 956 27
L 956 27
L 956 27
L 956 27
L 956 27
L 956 27
L 956 27
L 956 27
L 956 27
L 956 27
L 956 27
L 956 27
L 956 27
L 957 27
L 957 27
L 957 26
L 957 26
L 957 26
L 957 26
L 957 26
L 957 26
L 957 26
L 957 26
L 957 26
L 957 26
L 957 26
L 957 26
L 957 26
L 957 26
L 957 26
L 957 26
L 957 26
L 957 26
L 957 26
L 957 26
L 957 26
L 957 26
L 957 26
L 957 26
L 957 26
L 957 26
L 957 25
L 957 25
L 957 25
L 957 25
L 957 25
L 957 25
L 957 25
L 957 25
L 957 25
L 957 25
L 957 25
L 957 25
L 957 25
L 957 25
L 957 25
L 957 25
L 957 25
L 957 25
L 957 25
L 957 25
L 957 25
L 957 25
L 957 25
L 957 25
L 957 25
L 957 24
L 957 24
L 957 24
L 957 24
L 957 24
L 957 24
L 957 24
L 957 24
L 957 24
L 957 24
L 957 24
L 957 24
L 957 24
L 957 24
L 957 24
L 957 24
L 957 24
L 957 24
L 957 24
L 957 24
L 957 24
L 957 24
L 957 24
L 957 24
L 957 24
L 957 24
L 957 23
L 957 23
L 957 23
L 957 23
L 957 23
L 957 23
L 957 23
L 957 23
L 957 23
L 957 23
L 957 23
L 957 23
L 957 23
L 957 23
L 957 23
L 957 23
L 957 23
L 957 23
L 957 23
L 957 23
L 957 23
L 957 23
L 957 23
L 957 23
L 957 23
L 957 22
L 957 22
L 957 22
L 957 22
L 957 22
L 957 22
L 957 22
L 957 22
L 957 22
L 957 22
L 957 22
L 957 22
L 957 22
L 957 22
L 957 22
L 957 22
L 957 22
L 957 22
L 957 22
L 957 22
L 957 22
L 957 22
L 957 22
L 957 22
L 957 22
L 957 22
L 957 21
L 957 21
L 957 21
L 957 21
L 957 21
L 957 21
L 957 21
L 957 21
L 957 21
L 957 21
L 957 21
L 957 21
L 957 21
L 957 21
L 957 21
L 957 21
L 957 21
L 957 21
L 957 21
L 957 21
L 957 21
L 957 21
L 957 21
L 957 21
L 957 21
L 957 21
L 957 20
L 957 20
L 957 20
L 957 20
L 957 20
L 957 20
L 957 20
L 957 20
L 957 20
L 957 20
L 957 20
L 957 20
L 957 20
L 957 20
L 957 20
L 957 20
L 957 20
L 957 20
L 957 20
L 957 20
L 957 20
L 957 20
L 957 20
L 957 20
L 957 20
L 957 19
L 957 19
L 957 19
L 957 19
L 957 19
L 957 19
L 957 19
L 957 19
L 957 19
L 957 19
L 957 19
L 957 19
L 957 19
L 957 19
L 957 19
L 957 19
L 957 19
L 957 19
L 957 19
L 957 19
L 957 19
L 957 19
L 957 19
L 957 19
L 957 19
L 957 19
L 957 18
L 957 18
L 957 18
L 957 18
L 957 18
L 957 18
L 957 18
L 957 18
L 957 18
L 957 18
L 957 18
L 957 18
L 957 18
L 957 18
L 957 18
L 957 18
L 957 18
L 957 18
L 957 18
L 957 18
L 957 18
L 957 18
L 957 18
L 957 18
L 957 18
L 957 17
L 957 17
L 957 17
L 957 17
L 957 17
L 957 17
L 957 17
L 957 17
L 957 17
L 957 17
L 957 17
L 957 17
L 957 17
L 957 17
L 957 17
L 957 17
L 957 17
L 957 17
L 957 17
L 957 17
L 957 17
L 957 17
L 957 17
L 957 17
L 957 17
L 957 17
L 957 16
L 957 16
L 957 16
L 957 16
L 957 16
L 957 16
L 957 16
L 957 16
L 957 16
L 957 16
L 957 16
L 957 16
L 957 16
L 957 16
L 957 16
L 957 16
L 957 16
L 957 16
L 957 16
L 957 16
L 957 16
L 957 16
L 957 16
L 957 16
L 957 16
L 957 16
L 957 15
L 957 15
L 957 15
L 957 15
L 957 15
L 957 15
L 957 15
L 957 15
L 957 15
L 957 15
L 957 15
L 957 15
L 957 15
L 957 15
L 957 15
L 957 15
L 957 15
L 957 15
L 957 15
L 957 15
L 957 15
L 957 15
L 957 15
L 957 15
L 957 15
L 957 14
L 957 14
L 957 14
L 957 14
L 957 14
L 957 14
L 957 14
L 957 14
L 957 14
L 957 14
L 957 14
L 957 14
L 957 14
L 957 14
L 957 14
L 957 14
L 957 14
L 957 14
L 957 14
L 957 14
L 957 14" style="stroke-width:2;stroke:rgba(129,199,239,1.0);fill:none"/></svg>