<!-- stars: 9031 -->
<svg xmlns="http://www.w3.org/2000/svg" xmlns:xlink="http://www.w3.org/1999/xlink" width="1024" height="400">\n<path  d="M 0 0
L 1024 0
L 1024 400
L 0 400
L 0 0" style="stroke-width:0;stroke:rgba(255,255,255,1.0);fill:rgba(255,255,255,1.0)"/><path  d="M 38 11
L 957 11
L 957 351
L 38 351
L 38 11" style="stroke-width:0;stroke:rgba(255,255,255,1.0);fill:rgba(255,255,255,1.0)"/><path  d="M 38 351
L 957 351" style="stroke-width:2;stroke:rgba(85,85,85,1.0);fill:none"/><path  d="M 38 351
L 38 356" style="stroke-width:2;stroke:rgba(85,85,85,1.0);fill:none"/><text x="5" y="373" style="stroke-width:0;stroke:none;fill:rgba(51,51,51,1.0);font-size:12.8px;font-family:'Roboto Medium',sans-serif">2018-09-25</text><path  d="M 153 351
L 153 356" style="stroke-width:2;stroke:rgba(85,85,85,1.0);fill:none"/><text x="120" y="373" style="stroke-width:0;stroke:none;fill:rgba(51,51,51,1.0);font-size:12.8px;font-family:'Roboto Medium',sans-serif">2019-02-18</text><path  d="M 268 351
L 268 356" style="stroke-width:2;stroke:rgba(85,85,85,1.0);fill:none"/><text x="235" y="373" style="stroke-width:0;stroke:none;fill:rgba(51,51,51,1.0);font-size:12.8px;font-family:'Roboto Medium',sans-serif">2019-07-15</text><path  d="M 383 351
L 383 356" style="stroke-width:2;stroke:rgba(85,85,85,1.0);fill:none"/><text x="350" y="373" style="stroke-width:0;stroke:none;fill:rgba(51,51,51,1.0);font-size:12.8px;font-family:'Roboto Medium',sans-serif">2019-12-09</text><path  d="M 498 351
L 498 356" style="stroke-width:2;stroke:rgba(85,85,85,1.0);fill:none"/><text x="465" y="373" style="stroke-width:0;stroke:none;fill:rgba(51,51,51,1.0);font-size:12.8px;font-family:'Roboto Medium',sans-serif">2020-05-04</text><path  d="M 613 351
L 613 356" style="stroke-width:2;stroke:rgba(85,85,85,1.0);fill:none"/><text x="580" y="373" style="stroke-width:0;stroke:none;fill:rgba(51,51,51,1.0);font-size:12.8px;font-family:'Roboto Medium',sans-serif">2020-09-28</text><path  d="M 728 351
L 728 356" style="stroke-width:2;stroke:rgba(85,85,85,1.0);fill:none"/><text x="695" y="373" style="stroke-width:0;stroke:none;fill:rgba(51,51,51,1.0);font-size:12.8px;font-family:'Roboto Medium',sans-serif">2021-02-22</text><path  d="M 843 351
L 843 356" style="stroke-width:2;stroke:rgba(85,85,85,1.0);fill:none"/><text x="810" y="373" style="stroke-width:0;stroke:none;fill:rgba(51,51,51,1.0);font-size:12.8px;font-family:'Roboto Medium',sans-serif">2021-07-19</text><path  d="M 957 351
L 957 356" style="stroke-width:2;stroke:rgba(85,85,85,1.0);fill:none"/><text x="924" y="373" style="stroke-width:0;stroke:none;fill:rgba(51,51,51,1.0);font-size:12.8px;font-family:'Roboto Medium',sans-serif">2021-12-13</text><text x="483" y="395" style="stroke-width:0;stroke:none;fill:rgba(51,51,51,1.0);font-size:12.8px;font-family:'Roboto Medium',sans-serif">Time</text><path  d="M 959 351
L 959 11" style="stroke-width:2;stroke:rgba(85,85,85,1.0);fill:none"/><path  d="M 959 351
L 964 351" style="stroke-width:2;stroke:rgba(85,85,85,1.0);fill:none"/><text x="969" y="357" style="stroke-width:0;stroke:none;fill:rgba(51,51,51,1.0);font-size:12.8px;font-family:'Roboto Medium',sans-serif">0</text><path  d="M 959 308
L 964 308" style="stroke-width:2;stroke:rgba(85,85,85,1.0);fill:none"/><text x="969" y="314" style="stroke-width:0;stroke:none;fill:rgba(51,51,51,1.0);font-size:12.8px;font-family:'Roboto Medium',sans-serif">1140</text><path  d="M 959 265
L 964 265" style="stroke-width:2;stroke:rgba(85,85,85,1.0);fill:none"/><text x="969" y="271" style="stroke-width:0;stroke:none;fill:rgba(51,51,51,1.0);font-size:12.8px;font-family:'Roboto Medium',sans-serif">2280</text><path  d="M 959 223
L 964 223" style="stroke-width:2;stroke:rgba(85,85,85,1.0);fill:none"/><text x="969" y="229" style="stroke-width:0;stroke:none;fill:rgba(51,51,51,1.0);font-size:12.8px;font-family:'Roboto Medium',sans-serif">3420</text><path  d="M 959 181
L 964 181" style="stroke-width:2;stroke:rgba(85,85,85,1.0);fill:none"/><text x="969" y="187" style="stroke-width:0;stroke:none;fill:rgba(51,51,51,1.0);font-size:12.8px;font-family:'Roboto Medium',sans-serif">4550</text><path  d="M 959 138
L 964 138" style="stroke-width:2;stroke:rgba(85,85,85,1.0);fill:none"/><text x="969" y="144" style="stroke-width:0;stroke:none;fill:rgba(51,51,51,1.0);font-size:12.8px;font-family:'Roboto Medium',sans-serif">5690</text><path  d="M 959 95
L 964 95" style="stroke-width:2;stroke:rgba(85,85,85,1.0);fill:none"/><text x="969" y="101" style="stroke-width:0;stroke:none;fill:rgba(51,51,51,1.0);font-size:12.8px;font-family:'Roboto Medium',sans-serif">6830</text><path  d="M 959 53
L 964 53" style="stroke-width:2;stroke:rgba(85,85,85,1.0);fill:none"/><text x="969" y="59" style="stroke-width:0;stroke:none;fill:rgba(51,51,51,1.0);font-size:12.8px;font-family:'Roboto Medium',sans-serif">7970</text><path  d="M 959 11
L 964 11" style="stroke-width:2;stroke:rgba(85,85,85,1.0);fill:none"/><text x="969" y="17" style="stroke-width:0;stroke:none;fill:rgba(51,51,51,1.0);font-size:12.8px;font-family:'Roboto Medium',sans-serif">9100</text><text x="1009" y="150" style="stroke-width:0;stroke:none;fill:rgba(51,51,51,1.0);font-size:12.8px;font-family:'Roboto Medium',sans-serif" transform="rotate(90.00,1009,150)">Stargazers</text><path  d="M 38 351
L 40 350
L 50 350
L 51 350
L 51 350
L 51 350
L 51 350
L 54 350
L 55 350
L 55 350
L 57 350
L 57 350
L 58 350
L 58 350
L 58 350
L 58 350
L 61 350
L 67 350
L 67 350
L 69 350
L 69 350
L 70 350
L 72 350
L 72 350
L 74 350
L 74 350
L 79 350
L 83 349
L 88 349
L 88 349
L 93 349
L 94 349
L 94 349
L 94 349
L 94 349
L 94 349
L 94 349
L 94 349
L 95 349
L 95 349
L 95 349
L 97 349
L 98 349
L 98 349
L 99 349
L 99 349
L 99 349
L 100 349
L 100 349
L 101 349
L 103 349
L 103 349
L 104 349
L 105 349
L 107 348
L 108 348
L 108 348
L 109 348
L 110 348
L 110 348
L 110 348
L 111 348
L 111 348
L 111 348
L 111 348
L 112 348
L 112 348
L 112 348
L 112 348
L 112 348
L 113 348
L 113 348
L 113 348
L 114 348
L 115 348
L 115 348
L 116 348
L 116 348
L 118 348
L 118 348
L 120 348
L 120 347
L 120 347
L 120 347
L 120 347
L 120 347
L 122 347
L 122 347
L 122 347
L 122 347
L 123 347
L 123 347
L 125 347
L 126 347
L 126 347
L 126 347
L 127 347
L 127 347
L 129 347
L 131 347
L 133 347
L 133 347
L 133 347
L 134 347
L 134 347
L 141 347
L 144 347
L 148 347
L 148 346
L 150 346
L 150 346
L 150 346
L 151 346
L 151 346
L 153 346
L 153 346
L 154 346
L 154 346
L 154 346
L 154 346
L 155 346
L 155 346
L 156 346
L 158 346
L 158 346
L 161 346
L 161 346
L 164 346
L 164 346
L 165 346
L 165 346
L 166 346
L 166 346
L 167 346
L 167 345
L 168 345
L 169 345
L 169 345
L 171 345
L 172 345
L 172 345
L 174 345
L 175 345
L 176 345
L 176 345
L 176 345
L 176 345
L 177 345
L 178 345
L 181 345
L 182 345
L 182 345
L 182 345
L 182 345
L 183 345
L 183 345
L 183 345
L 184 345
L 184 345
L 184 345
L 186 345
L 186 344
L 186 344
L 186 344
L 186 344
L 186 344
L 186 344
L 187 344
L 187 344
L 187 344
L 187 344
L 187 344
L 187 344
L 187 344
L 187 344
L 188 344
L 188 344
L 188 344
L 189 344
L 191 344
L 191 344
L 191 344
L 192 344
L 192 344
L 193 344
L 193 344
L 193 344
L 193 344
L 193 343
L 193 343
L 194 343
L 194 343
L 195 343
L 197 343
L 197 343
L 198 343
L 200 343
L 200 343
L 202 343
L 203 343
L 203 343
L 204 343
L 204 343
L 204 343
L 204 343
L 204 343
L 205 343
L 206 343
L 206 343
L 207 343
L 207 343
L 208 343
L 208 343
L 208 343
L 209 343
L 209 342
L 210 342
L 210 342
L 211 342
L 212 342
L 212 342
L 213 342
L 214 342
L 215 342
L 216 342
L 216 342
L 216 342
L 216 342
L 217 342
L 218 342
L 220 342
L 221 342
L 224 342
L 225 342
L 226 342
L 228 342
L 229 342
L 229 342
L 229 342
L 231 342
L 235 342
L 236 341
L 236 341
L 236 341
L 237 341
L 237 341
L 237 341
L 238 341
L 238 341
L 238 341
L 244 341
L 246 341
L 247 341
L 247 341
L 247 341
L 247 341
L 247 341
L 248 341
L 248 341
L 248 341
L 248 341
L 249 341
L 249 341
L 251 341
L 252 341
L 252 341
L 254 341
L 254 341
L 255 340
L 256 340
L 256 340
L 257 340
L 257 340
L 258 340
L 258 340
L 258 340
L 258 340
L 258 340
L 259 340
L 259 340
L 259 340
L 259 340
L 259 340
L 260 340
L 260 340
L 260 340
L 261 340
L 261 340
L 261 340
L 262 340
L 262 340
L 263 340
L 265 340
L 266 340
L 266 340
L 267 339
L 268 339
L 268 339
L 269 339
L 269 339
L 271 339
L 272 339
L 273 339
L 274 339
L 276 339
L 277 339
L 278 339
L 279 339
L 279 339
L 280 339
L 281 339
L 285 339
L 289 339
L 289 339
L 290 339
L 292 339
L 294 339
L 295 339
L 297 339
L 300 339
L 300 339
L 300 339
L 301 338
L 304 338
L 309 338
L 309 338
L 309 338
L 309 338
L 310 338
L 320 338
L 320 338
L 321 338
L 322 338
L 322 338
L 322 338
L 322 338
L 322 338
L 322 338
L 322 338
L 322 338
L 323 338
L 323 338
L 323 338
L 325 338
L 327 338
L 327 338
L 328 338
L 334 338
L 335 337
L 336 337
L 337 337
L 337 337
L 338 337
L 339 337
L 340 337
L 340 337
L 340 337
L 340 337
L 342 337
L 342 337
L 342 337
L 344 337
L 345 337
L 345 337
L 346 337
L 350 337
L 362 337
L 363 337
L 366 337
L 368 337
L 369 337
L 370 337
L 372 337
L 373 337
L 373 337
L 373 336
L 373 336
L 374 336
L 374 336
L 378 336
L 378 336
L 381 336
L 382 336
L 386 336
L 386 336
L 386 336
L 391 336
L 394 336
L 394 336
L 395 336
L 395 336
L 396 336
L 396 336
L 396 336
L 396 336
L 397 336
L 397 336
L 397 336
L 397 336
L 399 336
L 400 336
L 403 336
L 405 335
L 406 335
L 410 335
L 410 335
L 410 335
L 411 335
L 411 335
L 412 335
L 413 335
L 416 335
L 416 335
L 420 335
L 420 335
L 422 335
L 422 335
L 424 335
L 425 335
L 427 335
L 430 335
L 434 335
L 435 335
L 435 335
L 436 335
L 439 335
L 446 335
L 448 335
L 450 335
L 451 334
L 452 334
L 452 334
L 453 334
L 453 334
L 454 334
L 454 334
L 456 334
L 456 334
L 456 334
L 456 334
L 456 334
L 456 334
L 458 334
L 458 334
L 459 334
L 459 334
L 460 334
L 461 334
L 461 334
L 461 334
L 461 334
L 461 334
L 462 334
L 462 334
L 462 334
L 462 334
L 462 333
L 462 333
L 463 333
L 464 333
L 464 333
L 466 333
L 466 333
L 467 333
L 467 333
L 467 333
L 468 333
L 468 333
L 469 333
L 469 333
L 469 333
L 470 333
L 470 333
L 470 333
L 470 333
L 471 333
L 471 333
L 471 333
L 473 333
L 474 333
L 475 333
L 476 333
L 476 332
L 476 332
L 476 332
L 477 332
L 477 332
L 477 332
L 478 332
L 478 332
L 478 332
L 478 332
L 478 332
L 478 332
L 478 332
L 478 332
L 478 332
L 478 332
L 479 332
L 479 332
L 479 332
L 479 332
L 479 332
L 480 332
L 480 332
L 481 332
L 481 332
L 481 332
L 481 332
L 481 331
L 482 331
L 482 331
L 484 331
L 484 331
L 485 331
L 485 331
L 485 331
L 485 331
L 487 331
L 487 331
L 487 331
L 487 331
L 487 331
L 487 331
L 487 331
L 487 331
L 487 331
L 487 331
L 487 331
L 487 331
L 487 331
L 487 331
L 487 331
L 487 331
L 487 331
L 487 331
L 487 330
L 487 330
L 487 330
L 487 330
L 488 330
L 488 330
L 488 330
L 488 330
L 488 330
L 488 330
L 488 330
L 488 330
L 488 330
L 489 330
L 489 330
L 489 330
L 489 330
L 489 330
L 489 330
L 490 330
L 490 330
L 490 330
L 491 330
L 491 330
L 492 330
L 492 330
L 492 330
L 493 329
L 493 329
L 493 329
L 493 329
L 493 329
L 494 329
L 494 329
L 494 329
L 494 329
L 494 329
L 495 329
L 496 329
L 496 329
L 497 329
L 497 329
L 498 329
L 499 329
L 499 329
L 500 329
L 500 329
L 500 329
L 500 329
L 500 329
L 500 329
L 500 329
L 501 329
L 501 328
L 502 328
L 503 328
L 503 328
L 503 328
L 504 328
L 504 328
L 504 328
L 505 328
L 505 328
L 505 328
L 506 328
L 506 328
L 506 328
L 506 328
L 507 328
L 507 328
L 507 328
L 507 328
L 507 328
L 508 328
L 508 328
L 509 328
L 509 328
L 510 328
L 511 328
L 511 328
L 511 327
L 512 327
L 512 327
L 513 327
L 513 327
L 514 327
L 514 327
L 514 327
L 514 327
L 515 327
L 515 327
L 515 327
L 516 327
L 516 327
L 516 327
L 516 327
L 516 327
L 516 327
L 517 327
L 517 327
L 517 327
L 517 327
L 517 327
L 517 327
L 517 327
L 518 327
L 518 327
L 519 326
L 519 326
L 520 326
L 521 326
L 521 326
L 521 326
L 521 326
L 522 326
L 522 326
L 522 326
L 523 326
L 524 326
L 524 326
L 524 326
L 524 326
L 524 326
L 524 326
L 524 326
L 524 326
L 524 326
L 524 326
L 524 326
L 524 326
L 524 326
L 524 326
L 524 326
L 524 326
L 525 325
L 525 325
L 525 325
L 525 325
L 525 325
L 526 325
L 526 325
L 526 325
L 526 325
L 527 325
L 528 325
L 528 325
L 528 325
L 529 325
L 529 325
L 529 325
L 529 325
L 530 325
L 530 325
L 530 325
L 530 325
L 531 325
L 531 325
L 531 325
L 531 325
L 531 325
L 531 324
L 531 324
L 531 324
L 531 324
L 531 324
L 531 324
L 531 324
L 531 324
L 531 324
L 532 324
L 532 324
L 532 324
L 532 324
L 532 324
L 532 324
L 533 324
L 533 324
L 533 324
L 534 324
L 534 324
L 534 324
L 534 324
L 535 324
L 535 324
L 535 324
L 535 324
L 535 324
L 535 323
L 535 323
L 535 323
L 536 323
L 536 323
L 536 323
L 537 323
L 537 323
L 538 323
L 538 323
L 538 323
L 540 323
L 540 323
L 540 323
L 540 323
L 540 323
L 540 323
L 541 323
L 541 323
L 541 323
L 542 323
L 542 323
L 542 323
L 542 323
L 542 323
L 543 323
L 543 323
L 543 322
L 543 322
L 544 322
L 544 322
L 544 322
L 544 322
L 545 322
L 545 322
L 545 322
L 545 322
L 546 322
L 546 322
L 546 322
L 547 322
L 547 322
L 547 322
L 547 322
L 547 322
L 548 322
L 549 322
L 549 322
L 549 322
L 549 322
L 550 322
L 550 322
L 550 322
L 551 322
L 551 321
L 553 321
L 553 321
L 553 321
L 553 321
L 554 321
L 554 321
L 554 321
L 555 321
L 555 321
L 555 321
L 555 321
L 555 321
L 556 321
L 556 321
L 556 321
L 556 321
L 556 321
L 556 321
L 557 321
L 557 321
L 557 321
L 557 321
L 558 321
L 558 321
L 558 321
L 558 320
L 558 320
L 558 320
L 559 320
L 559 320
L 559 320
L 560 320
L 560 320
L 560 320
L 561 320
L 561 320
L 561 320
L 561 320
L 562 320
L 562 320
L 562 320
L 563 320
L 563 320
L 563 320
L 563 320
L 564 320
L 564 320
L 564 320
L 564 320
L 564 320
L 564 320
L 564 320
L 564 319
L 565 319
L 565 319
L 565 319
L 565 319
L 565 319
L 565 319
L 565 319
L 566 319
L 566 319
L 566 319
L 566 319
L 566 319
L 567 319
L 567 319
L 567 319
L 567 319
L 567 319
L 567 319
L 567 319
L 568 319
L 568 319
L 569 319
L 569 319
L 569 319
L 569 319
L 569 319
L 570 318
L 570 318
L 570 318
L 571 318
L 571 318
L 571 318
L 571 318
L 571 318
L 572 318
L 572 318
L 572 318
L 572 318
L 573 318
L 574 318
L 574 318
L 574 318
L 574 318
L 574 318
L 575 318
L 575 318
L 575 318
L 575 318
L 575 318
L 575 318
L 576 318
L 576 318
L 576 318
L 577 317
L 577 317
L 577 317
L 577 317
L 577 317
L 578 317
L 578 317
L 578 317
L 579 317
L 579 317
L 580 317
L 580 317
L 580 317
L 580 317
L 580 317
L 581 317
L 581 317
L 581 317
L 581 317
L 582 317
L 582 317
L 582 317
L 582 317
L 582 317
L 583 317
L 583 317
L 583 317
L 583 316
L 584 316
L 584 316
L 585 316
L 585 316
L 586 316
L 586 316
L 587 316
L 588 316
L 588 316
L 590 316
L 590 316
L 591 316
L 591 316
L 591 316
L 592 316
L 592 316
L 592 316
L 593 316
L 593 316
L 594 316
L 594 316
L 594 316
L 595 316
L 595 316
L 595 316
L 595 315
L 596 315
L 596 315
L 596 315
L 597 315
L 597 315
L 597 315
L 597 315
L 598 315
L 598 315
L 598 315
L 599 315
L 599 315
L 599 315
L 599 315
L 599 315
L 599 315
L 599 315
L 599 315
L 599 315
L 600 315
L 600 315
L 600 315
L 601 315
L 601 315
L 601 315
L 601 315
L 601 314
L 602 314
L 602 314
L 602 314
L 602 314
L 604 314
L 604 314
L 604 314
L 606 314
L 606 314
L 606 314
L 607 314
L 608 314
L 608 314
L 608 314
L 609 314
L 609 314
L 609 314
L 609 314
L 610 314
L 612 314
L 612 314
L 612 314
L 612 314
L 612 314
L 612 314
L 613 314
L 613 313
L 613 313
L 614 313
L 614 313
L 614 313
L 614 313
L 614 313
L 614 313
L 614 313
L 614 313
L 616 313
L 618 313
L 618 313
L 619 313
L 621 313
L 621 313
L 621 313
L 622 313
L 622 313
L 622 313
L 622 313
L 623 313
L 624 313
L 624 313
L 624 313
L 624 313
L 624 313
L 624 312
L 624 312
L 624 312
L 625 312
L 625 312
L 625 312
L 625 312
L 625 312
L 625 312
L 625 312
L 625 312
L 625 312
L 626 312
L 626 312
L 626 312
L 626 312
L 626 312
L 626 312
L 627 312
L 627 312
L 627 312
L 627 312
L 627 312
L 628 312
L 628 312
L 629 312
L 629 311
L 629 311
L 629 311
L 630 311
L 630 311
L 630 311
L 630 311
L 631 311
L 631 311
L 631 311
L 632 311
L 632 311
L 632 311
L 632 311
L 632 311
L 632 311
L 633 311
L 633 311
L 634 311
L 635 311
L 635 311
L 635 311
L 635 311
L 635 311
L 635 311
L 635 311
L 635 311
L 635 310
L 635 310
L 635 310
L 635 310
L 636 310
L 636 310
L 636 310
L 636 310
L 636 310
L 636 310
L 636 310
L 636 310
L 636 310
L 636 310
L 636 310
L 637 310
L 637 310
L 637 310
L 637 310
L 637 310
L 637 310
L 637 310
L 637 310
L 637 310
L 638 310
L 638 310
L 638 310
L 638 309
L 638 309
L 638 309
L 638 309
L 638 309
L 638 309
L 639 309
L 639 309
L 639 309
L 639 309
L 639 309
L 640 309
L 640 309
L 640 309
L 640 309
L 640 309
L 641 309
L 641 309
L 641 309
L 641 309
L 641 309
L 641 309
L 641 309
L 641 309
L 642 309
L 642 309
L 642 309
L 642 308
L 642 308
L 642 308
L 642 308
L 642 308
L 642 308
L 642 308
L 643 308
L 643 308
L 644 308
L 644 308
L 644 308
L 644 308
L 645 308
L 645 308
L 645 308
L 645 308
L 646 308
L 646 308
L 646 308
L 646 308
L 646 308
L 646 308
L 646 308
L 646 308
L 647 308
L 647 307
L 647 307
L 647 307
L 648 307
L 648 307
L 648 307
L 649 307
L 649 307
L 649 307
L 649 307
L 649 307
L 650 307
L 650 307
L 650 307
L 650 307
L 650 307
L 651 307
L 651 307
L 651 307
L 651 307
L 651 307
L 651 307
L 652 307
L 652 307
L 653 307
L 653 307
L 653 307
L 653 306
L 653 306
L 653 306
L 653 306
L 653 306
L 654 306
L 654 306
L 654 306
L 654 306
L 654 306
L 655 306
L 655 306
L 655 306
L 656 306
L 656 306
L 656 306
L 656 306
L 656 306
L 656 306
L 656 306
L 656 306
L 657 306
L 657 306
L 658 306
L 658 306
L 659 306
L 659 306
L 659 305
L 659 305
L 660 305
L 660 305
L 660 305
L 660 305
L 660 305
L 660 305
L 660 305
L 661 305
L 661 305
L 661 305
L 662 305
L 662 305
L 662 305
L 662 305
L 662 305
L 663 305
L 663 305
L 663 305
L 663 305
L 663 305
L 663 305
L 664 305
L 664 305
L 664 305
L 664 305
L 664 304
L 664 304
L 664 304
L 664 304
L 664 304
L 665 304
L 665 304
L 666 304
L 667 304
L 667 304
L 668 304
L 668 304
L 668 304
L 668 304
L 668 304
L 668 304
L 668 304
L 669 304
L 669 304
L 669 304
L 669 304
L 669 304
L 669 304
L 670 304
L 670 304
L 670 304
L 670 303
L 670 303
L 670 303
L 671 303
L 671 303
L 671 303
L 672 303
L 672 303
L 672 303
L 672 303
L 673 303
L 673 303
L 673 303
L 673 303
L 673 303
L 674 303
L 674 303
L 674 303
L 674 303
L 674 303
L 675 303
L 675 303
L 675 303
L 675 303
L 676 303
L 676 303
L 676 303
L 676 302
L 678 302
L 678 302
L 678 302
L 678 302
L 678 302
L 679 302
L 679 302
L 679 302
L 679 302
L 679 302
L 679 302
L 679 302
L 679 302
L 679 302
L 679 302
L 679 302
L 680 302
L 680 302
L 680 302
L 680 302
L 680 302
L 680 302
L 680 302
L 680 302
L 680 302
L 680 302
L 681 301
L 681 301
L 681 301
L 681 301
L 681 301
L 681 301
L 681 301
L 682 301
L 682 301
L 682 301
L 682 301
L 683 301
L 683 301
L 683 301
L 683 301
L 683 301
L 684 301
L 684 301
L 684 301
L 684 301
L 684 301
L 685 301
L 685 301
L 685 301
L 685 301
L 685 301
L 685 301
L 685 300
L 685 300
L 685 300
L 686 300
L 686 300
L 686 300
L 686 300
L 686 300
L 687 300
L 688 300
L 688 300
L 689 300
L 689 300
L 689 300
L 689 300
L 690 300
L 690 300
L 690 300
L 690 300
L 690 300
L 690 300
L 690 300
L 691 300
L 691 300
L 691 300
L 691 300
L 691 300
L 691 299
L 691 299
L 691 299
L 691 299
L 691 299
L 691 299
L 692 299
L 692 299
L 692 299
L 692 299
L 692 299
L 693 299
L 693 299
L 693 299
L 693 299
L 693 299
L 693 299
L 694 299
L 695 299
L 695 299
L 695 299
L 695 299
L 695 299
L 695 299
L 696 299
L 696 299
L 696 298
L 696 298
L 696 298
L 696 298
L 696 298
L 696 298
L 697 298
L 697 298
L 697 298
L 697 298
L 697 298
L 698 298
L 698 298
L 698 298
L 698 298
L 699 298
L 699 298
L 699 298
L 699 298
L 700 298
L 700 298
L 700 298
L 700 298
L 701 298
L 701 298
L 701 298
L 701 298
L 701 297
L 701 297
L 702 297
L 702 297
L 703 297
L 703 297
L 703 297
L 703 297
L 703 297
L 703 297
L 703 297
L 703 297
L 704 297
L 704 297
L 704 297
L 704 297
L 704 297
L 704 297
L 704 297
L 705 297
L 705 297
L 705 297
L 705 297
L 705 297
L 705 297
L 706 297
L 706 297
L 706 296
L 706 296
L 706 296
L 706 296
L 706 296
L 707 296
L 707 296
L 707 296
L 707 296
L 707 296
L 707 296
L 707 296
L 707 296
L 708 296
L 708 296
L 708 296
L 708 296
L 709 296
L 710 296
L 710 296
L 710 296
L 710 296
L 710 296
L 711 296
L 711 296
L 711 296
L 711 296
L 711 295
L 711 295
L 711 295
L 711 295
L 711 295
L 712 295
L 712 295
L 713 295
L 713 295
L 713 295
L 713 295
L 713 295
L 714 295
L 714 295
L 714 295
L 714 295
L 714 295
L 714 295
L 714 295
L 714 295
L 714 295
L 714 295
L 715 295
L 715 295
L 715 295
L 715 295
L 715 294
L 715 294
L 716 294
L 716 294
L 716 294
L 716 294
L 716 294
L 716 294
L 717 294
L 717 294
L 717 294
L 717 294
L 718 294
L 718 294
L 719 294
L 719 294
L 721 294
L 721 294
L 721 294
L 721 294
L 721 294
L 721 294
L 722 294
L 722 294
L 722 294
L 723 294
L 723 294
L 723 293
L 724 293
L 724 293
L 724 293
L 724 293
L 725 293
L 725 293
L 725 293
L 725 293
L 725 293
L 725 293
L 725 293
L 725 293
L 725 293
L 725 293
L 725 293
L 726 293
L 726 293
L 726 293
L 726 293
L 726 293
L 726 293
L 726 293
L 726 293
L 727 293
L 727 293
L 727 293
L 727 292
L 728 292
L 728 292
L 728 292
L 728 292
L 728 292
L 728 292
L 728 292
L 728 292
L 729 292
L 729 292
L 729 292
L 729 292
L 729 292
L 729 292
L 729 292
L 729 292
L 729 292
L 729 292
L 729 292
L 729 292
L 730 292
L 730 292
L 730 292
L 730 292
L 730 292
L 730 292
L 730 291
L 730 291
L 731 291
L 731 291
L 731 291
L 731 291
L 731 291
L 731 291
L 731 291
L 732 291
L 732 291
L 733 291
L 733 291
L 733 291
L 733 291
L 733 291
L 733 291
L 733 291
L 733 291
L 733 291
L 733 291
L 734 291
L 734 291
L 734 291
L 734 291
L 734 291
L 734 290
L 734 290
L 734 290
L 734 290
L 734 290
L 734 290
L 734 290
L 735 290
L 735 290
L 735 290
L 735 290
L 735 290
L 735 290
L 735 290
L 735 290
L 735 290
L 735 290
L 736 290
L 736 290
L 736 290
L 736 290
L 736 290
L 736 290
L 736 290
L 736 290
L 737 290
L 737 290
L 737 289
L 737 289
L 737 289
L 738 289
L 738 289
L 738 289
L 739 289
L 739 289
L 739 289
L 739 289
L 739 289
L 739 289
L 739 289
L 739 289
L 739 289
L 739 289
L 739 289
L 740 289
L 740 289
L 740 289
L 740 289
L 740 289
L 740 289
L 740 289
L 741 289
L 741 289
L 741 289
L 741 288
L 741 288
L 741 288
L 741 288
L 741 288
L 741 288
L 741 288
L 741 288
L 741 288
L 741 288
L 742 288
L 742 288
L 742 288
L 742 288
L 742 288
L 743 288
L 743 288
L 743 288
L 743 288
L 743 288
L 743 288
L 743 288
L 743 288
L 743 288
L 743 288
L 743 288
L 743 288
L 743 287
L 743 287
L 743 287
L 743 287
L 743 287
L 743 287
L 743 287
L 743 287
L 743 287
L 743 287
L 743 287
L 743 287
L 743 287
L 743 287
L 743 287
L 743 287
L 743 287
L 743 287
L 743 287
L 743 287
L 743 287
L 743 287
L 743 287
L 743 287
L 743 287
L 743 287
L 743 286
L 743 286
L 743 286
L 743 286
L 743 286
L 743 286
L 743 286
L 743 286
L 743 286
L 743 286
L 743 286
L 743 286
L 743 286
L 743 286
L 743 286
L 743 286
L 743 286
L 743 286
L 743 286
L 743 286
L 743 286
L 743 286
L 744 286
L 744 286
L 744 286
L 744 286
L 744 286
L 744 285
L 744 285
L 744 285
L 744 285
L 744 285
L 744 285
L 744 285
L 744 285
L 744 285
L 744 285
L 744 285
L 744 285
L 744 285
L 744 285
L 744 285
L 744 285
L 744 285
L 744 285
L 744 285
L 744 285
L 744 285
L 744 285
L 744 285
L 744 285
L 744 285
L 744 285
L 744 285
L 744 284
L 744 284
L 744 284
L 744 284
L 744 284
L 744 284
L 744 284
L 744 284
L 744 284
L 744 284
L 744 284
L 744 284
L 744 284
L 744 284
L 744 284
L 744 284
L 744 284
L 744 284
L 744 284
L 744 284
L 744 284
L 744 284
L 744 284
L 744 284
L 745 284
L 745 284
L 745 284
L 745 283
L 745 283
L 745 283
L 745 283
L 745 283
L 745 283
L 745 283
L 745 283
L 745 283
L 745 283
L 745 283
L 745 283
L 745 283
L 745 283
L 745 283
L 745 283
L 745 283
L 745 283
L 745 283
L 745 283
L 745 283
L 745 283
L 745 283
L 745 283
L 745 283
L 745 283
L 745 283
L 745 282
L 745 282
L 745 282
L 745 282
L 745 282
L 745 282
L 745 282
L 745 282
L 745 282
L 745 282
L 745 282
L 745 282
L 745 282
L 745 282
L 745 282
L 745 282
L 745 282
L 745 282
L 745 282
L 745 282
L 745 282
L 745 282
L 745 282
L 745 282
L 745 282
L 745 282
L 746 281
L 746 281
L 746 281
L 746 281
L 746 281
L 746 281
L 746 281
L 746 281
L 746 281
L 746 281
L 746 281
L 746 281
L 746 281
L 746 281
L 746 281
L 746 281
L 746 281
L 746 281
L 746 281
L 746 281
L 746 281
L 746 281
L 746 281
L 746 281
L 746 281
L 746 281
L 746 281
L 746 280
L 746 280
L 746 280
L 746 280
L 746 280
L 746 280
L 746 280
L 746 280
L 746 280
L 746 280
L 746 280
L 746 280
L 746 280
L 746 280
L 746 280
L 746 280
L 746 280
L 746 280
L 746 280
L 746 280
L 746 280
L 746 280
L 746 280
L 746 280
L 746 280
L 746 280
L 746 280
L 746 279
L 746 279
L 746 279
L 746 279
L 746 279
L 746 279
L 746 279
L 746 279
L 746 279
L 746 279
L 746 279
L 746 279
L 746 279
L 746 279
L 746 279
L 746 279
L 746 279
L 746 279
L 746 279
L 746 279
L 746 279
L 746 279
L 746 279
L 746 279
L 746 279
L 746 279
L 746 279
L 746 278
L 746 278
L 746 278
L 746 278
L 746 278
L 746 278
L 746 278
L 746 278
L 746 278
L 746 278
L 746 278
L 746 278
L 746 278
L 746 278
L 746 278
L 747 278
L 747 278
L 747 278
L 747 278
L 747 278
L 747 278
L 747 278
L 747 278
L 747 278
L 747 278
L 747 278
L 747 277
L 747 277
L 747 277
L 747 277
L 747 277
L 747 277
L 747 277
L 747 277
L 747 277
L 747 277
L 747 277
L 747 277
L 747 277
L 747 277
L 747 277
L 747 277
L 747 277
L 747 277
L 747 277
L 747 277
L 747 277
L 747 277
L 747 277
L 747 277
L 747 277
L 747 277
L 747 277
L 747 276
L 747 276
L 747 276
L 747 276
L 747 276
L 747 276
L 747 276
L 747 276
L 747 276
L 747 276
L 747 276
L 747 276
L 747 276
L 747 276
L 747 276
L 747 276
L 747 276
L 747 276
L 747 276
L 748 276
L 748 276
L 748 276
L 748 276
L 748 276
L 748 276
L 748 276
L 748 276
L 748 275
L 748 275
L 748 275
L 748 275
L 748 275
L 748 275
L 748 275
L 748 275
L 749 275
L 749 275
L 749 275
L 749 275
L 749 275
L 749 275
L 749 275
L 749 275
L 750 275
L 750 275
L 750 275
L 750 275
L 750 275
L 750 275
L 750 275
L 750 275
L 750 275
L 750 275
L 750 275
L 751 274
L 751 274
L 751 274
L 751 274
L 751 274
L 751 274
L 751 274
L 751 274
L 751 274
L 751 274
L 751 274
L 751 274
L 751 274
L 751 274
L 751 274
L 751 274
L 752 274
L 752 274
L 752 274
L 752 274
L 752 274
L 752 274
L 752 274
L 752 274
L 752 274
L 753 274
L 753 273
L 753 273
L 753 273
L 753 273
L 753 273
L 753 273
L 753 273
L 753 273
L 753 273
L 753 273
L 753 273
L 753 273
L 754 273
L 754 273
L 754 273
L 754 273
L 754 273
L 754 273
L 755 273
L 755 273
L 755 273
L 755 273
L 755 273
L 755 273
L 755 273
L 755 273
L 755 273
L 755 272
L 755 272
L 755 272
L 755 272
L 755 272
L 755 272
L 755 272
L 755 272
L 755 272
L 755 272
L 755 272
L 755 272
L 755 272
L 756 272
L 756 272
L 756 272
L 756 272
L 756 272
L 756 272
L 756 272
L 756 272
L 756 272
L 756 272
L 756 272
L 756 272
L 756 272
L 756 272
L 756 271
L 756 271
L 756 271
L 756 271
L 756 271
L 756 271
L 756 271
L 756 271
L 756 271
L 756 271
L 756 271
L 756 271
L 756 271
L 756 271
L 756 271
L 756 271
L 756 271
L 756 271
L 756 271
L 756 271
L 756 271
L 756 271
L 756 271
L 756 271
L 756 271
L 756 271
L 756 271
L 756 270
L 756 270
L 756 270
L 756 270
L 757 270
L 757 270
L 757 270
L 757 270
L 757 270
L 757 270
L 757 270
L 757 270
L 757 270
L 757 270
L 757 270
L 757 270
L 757 270
L 757 270
L 757 270
L 757 270
L 757 270
L 757 270
L 757 270
L 757 270
L 757 270
L 757 270
L 757 269
L 757 269
L 757 269
L 757 269
L 757 269
L 757 269
L 757 269
L 757 269
L 757 269
L 757 269
L 757 269
L 757 269
L 757 269
L 757 269
L 757 269
L 757 269
L 757 269
L 757 269
L 757 269
L 757 269
L 757 269
L 757 269
L 757 269
L 757 269
L 757 269
L 757 269
L 757 269
L 757 268
L 757 268
L 757 268
L 757 268
L 757 268
L 757 268
L 757 268
L 757 268
L 757 268
L 757 268
L 757 268
L 757 268
L 757 268
L 757 268
L 757 268
L 757 268
L 757 268
L 757 268
L 757 268
L 757 268
L 757 268
L 757 268
L 757 268
L 757 268
L 757 268
L 757 268
L 757 268
L 757 267
L 757 267
L 757 267
L 757 267
L 757 267
L 757 267
L 757 267
L 758 267
L 758 267
L 758 267
L 758 267
L 758 267
L 758 267
L 758 267
L 758 267
L 758 267
L 758 267
L 758 267
L 758 267
L 758 267
L 758 267
L 758 267
L 758 267
L 758 267
L 758 267
L 758 267
L 758 267
L 758 266
L 758 266
L 758 266
L 758 266
L 758 266
L 758 266
L 758 266
L 758 266
L 758 266
L 758 266
L 758 266
L 758 266
L 758 266
L 758 266
L 758 266
L 758 266
L 758 266
L 758 266
L 758 266
L 758 266
L 758 266
L 758 266
L 758 266
L 758 266
L 758 266
L 758 266
L 758 266
L 758 265
L 758 265
L 758 265
L 758 265
L 758 265
L 758 265
L 759 265
L 759 265
L 759 265
L 759 265
L 759 265
L 759 265
L 759 265
L 759 265
L 759 265
L 759 265
L 759 265
L 759 265
L 759 265
L 759 265
L 759 265
L 759 265
L 759 265
L 759 265
L 759 265
L 759 265
L 759 264
L 759 264
L 759 264
L 759 264
L 759 264
L 759 264
L 759 264
L 760 264
L 760 264
L 760 264
L 760 264
L 760 264
L 760 264
L 760 264
L 760 264
L 760 264
L 760 264
L 760 264
L 760 264
L 760 264
L 760 264
L 760 264
L 760 264
L 760 264
L 760 264
L 760 264
L 760 264
L 760 263
L 760 263
L 760 263
L 760 263
L 760 263
L 760 263
L 760 263
L 760 263
L 760 263
L 760 263
L 760 263
L 761 263
L 761 263
L 761 263
L 761 263
L 761 263
L 761 263
L 761 263
L 761 263
L 761 263
L 761 263
L 761 263
L 761 263
L 761 263
L 761 263
L 761 263
L 761 263
L 761 262
L 761 262
L 761 262
L 761 262
L 761 262
L 761 262
L 761 262
L 761 262
L 761 262
L 761 262
L 761 262
L 761 262
L 761 262
L 761 262
L 761 262
L 761 262
L 761 262
L 762 262
L 762 262
L 762 262
L 762 262
L 762 262
L 762 262
L 762 262
L 762 262
L 762 262
L 762 262
L 762 261
L 762 261
L 762 261
L 762 261
L 762 261
L 762 261
L 762 261
L 762 261
L 762 261
L 762 261
L 762 261
L 762 261
L 762 261
L 762 261
L 763 261
L 763 261
L 763 261
L 763 261
L 763 261
L 763 261
L 763 261
L 763 261
L 763 261
L 763 261
L 764 261
L 764 261
L 764 260
L 764 260
L 764 260
L 764 260
L 764 260
L 764 260
L 764 260
L 764 260
L 764 260
L 764 260
L 764 260
L 764 260
L 764 260
L 764 260
L 765 260
L 765 260
L 765 260
L 765 260
L 765 260
L 765 260
L 765 260
L 765 260
L 766 260
L 766 260
L 766 260
L 766 260
L 766 260
L 766 259
L 766 259
L 766 259
L 766 259
L 766 259
L 766 259
L 767 259
L 767 259
L 767 259
L 767 259
L 767 259
L 767 259
L 767 259
L 767 259
L 767 259
L 767 259
L 767 259
L 767 259
L 767 259
L 767 259
L 767 259
L 768 259
L 768 259
L 768 259
L 768 259
L 768 259
L 768 259
L 768 258
L 768 258
L 768 258
L 768 258
L 768 258
L 768 258
L 768 258
L 768 258
L 768 258
L 768 258
L 768 258
L 768 258
L 769 258
L 769 258
L 769 258
L 769 258
L 769 258
L 769 258
L 769 258
L 769 258
L 769 258
L 769 258
L 769 258
L 770 258
L 770 258
L 770 258
L 770 258
L 770 257
L 770 257
L 770 257
L 770 257
L 770 257
L 770 257
L 770 257
L 770 257
L 770 257
L 770 257
L 770 257
L 771 257
L 771 257
L 771 257
L 771 257
L 771 257
L 771 257
L 771 257
L 771 257
L 771 257
L 771 257
L 771 257
L 771 257
L 771 257
L 771 257
L 771 257
L 771 256
L 772 256
L 772 256
L 772 256
L 772 256
L 772 256
L 772 256
L 772 256
L 772 256
L 772 256
L 772 256
L 772 256
L 772 256
L 772 256
L 772 256
L 772 256
L 772 256
L 772 256
L 772 256
L 772 256
L 772 256
L 772 256
L 772 256
L 772 256
L 772 256
L 772 256
L 772 256
L 773 255
L 773 255
L 773 255
L 773 255
L 773 255
L 773 255
L 773 255
L 773 255
L 773 255
L 773 255
L 774 255
L 774 255
L 774 255
L 774 255
L 774 255
L 774 255
L 774 255
L 774 255
L 775 255
L 775 255
L 775 255
L 775 255
L 775 255
L 775 255
L 775 255
L 775 255
L 775 255
L 775 254
L 775 254
L 775 254
L 775 254
L 775 254
L 775 254
L 775 254
L 775 254
L 775 254
L 775 254
L 775 254
L 775 254
L 775 254
L 776 254
L 776 254
L 776 254
L 776 254
L 776 254
L 776 254
L 776 254
L 776 254
L 776 254
L 776 254
L 776 254
L 776 254
L 776 254
L 776 254
L 776 253
L 776 253
L 776 253
L 776 253
L 776 253
L 776 253
L 776 253
L 776 253
L 776 253
L 776 253
L 776 253
L 776 253
L 776 253
L 776 253
L 776 253
L 776 253
L 776 253
L 776 253
L 776 253
L 776 253
L 776 253
L 776 253
L 776 253
L 776 253
L 777 253
L 777 253
L 777 252
L 777 252
L 777 252
L 777 252
L 777 252
L 777 252
L 777 252
L 777 252
L 777 252
L 777 252
L 777 252
L 777 252
L 777 252
L 777 252
L 777 252
L 777 252
L 777 252
L 777 252
L 777 252
L 777 252
L 777 252
L 777 252
L 777 252
L 777 252
L 777 252
L 777 252
L 777 252
L 777 251
L 777 251
L 777 251
L 777 251
L 777 251
L 777 251
L 777 251
L 777 251
L 777 251
L 777 251
L 777 251
L 777 251
L 777 251
L 777 251
L 777 251
L 777 251
L 777 251
L 777 251
L 777 251
L 777 251
L 777 251
L 777 251
L 777 251
L 777 251
L 777 251
L 777 251
L 777 251
L 777 250
L 777 250
L 777 250
L 777 250
L 777 250
L 777 250
L 777 250
L 777 250
L 777 250
L 777 250
L 777 250
L 777 250
L 777 250
L 778 250
L 778 250
L 778 250
L 778 250
L 778 250
L 778 250
L 778 250
L 778 250
L 778 250
L 778 250
L 778 250
L 778 250
L 778 250
L 778 250
L 778 249
L 778 249
L 778 249
L 778 249
L 778 249
L 778 249
L 778 249
L 778 249
L 778 249
L 778 249
L 778 249
L 778 249
L 778 249
L 778 249
L 778 249
L 778 249
L 778 249
L 778 249
L 778 249
L 778 249
L 778 249
L 778 249
L 778 249
L 778 249
L 778 249
L 778 249
L 778 249
L 778 248
L 778 248
L 778 248
L 778 248
L 778 248
L 778 248
L 778 248
L 778 248
L 778 248
L 778 248
L 778 248
L 778 248
L 778 248
L 778 248
L 778 248
L 778 248
L 778 248
L 778 248
L 778 248
L 778 248
L 778 248
L 778 248
L 778 248
L 778 248
L 778 248
L 778 248
L 778 247
L 778 247
L 778 247
L 778 247
L 778 247
L 779 247
L 779 247
L 779 247
L 779 247
L 779 247
L 779 247
L 779 247
L 779 247
L 779 247
L 779 247
L 779 247
L 779 247
L 779 247
L 779 247
L 779 247
L 779 247
L 779 247
L 779 247
L 779 247
L 779 247
L 779 247
L 779 247
L 779 246
L 779 246
L 779 246
L 779 246
L 779 246
L 779 246
L 779 246
L 779 246
L 779 246
L 779 246
L 779 246
L 779 246
L 779 246
L 779 246
L 779 246
L 779 246
L 779 246
L 779 246
L 779 246
L 779 246
L 779 246
L 779 246
L 779 246
L 779 246
L 779 246
L 779 246
L 779 246
L 779 245
L 779 245
L 779 245
L 779 245
L 779 245
L 779 245
L 779 245
L 779 245
L 779 245
L 779 245
L 779 245
L 779 245
L 779 245
L 779 245
L 779 245
L 779 245
L 779 245
L 779 245
L 779 245
L 779 245
L 779 245
L 779 245
L 779 245
L 779 245
L 779 245
L 779 245
L 779 245
L 779 244
L 779 244
L 779 244
L 779 244
L 779 244
L 779 244
L 779 244
L 779 244
L 779 244
L 779 244
L 779 244
L 779 244
L 779 244
L 779 244
L 779 244
L 779 244
L 779 244
L 779 244
L 779 244
L 779 244
L 779 244
L 779 244
L 779 244
L 779 244
L 779 244
L 779 244
L 779 243
L 779 243
L 779 243
L 779 243
L 779 243
L 779 243
L 779 243
L 779 243
L 779 243
L 779 243
L 779 243
L 779 243
L 779 243
L 779 243
L 779 243
L 779 243
L 779 243
L 779 243
L 779 243
L 779 243
L 779 243
L 779 243
L 779 243
L 779 243
L 779 243
L 779 243
L 779 243
L 779 242
L 779 242
L 779 242
L 779 242
L 779 242
L 779 242
L 779 242
L 779 242
L 779 242
L 779 242
L 779 242
L 779 242
L 779 242
L 779 242
L 779 242
L 779 242
L 779 242
L 779 242
L 779 242
L 779 242
L 779 242
L 779 242
L 779 242
L 779 242
L 779 242
L 779 242
L 779 242
L 779 241
L 779 241
L 779 241
L 779 241
L 779 241
L 779 241
L 779 241
L 779 241
L 779 241
L 779 241
L 779 241
L 779 241
L 779 241
L 779 241
L 779 241
L 779 241
L 779 241
L 779 241
L 779 241
L 779 241
L 779 241
L 779 241
L 779 241
L 779 241
L 779 241
L 779 241
L 779 241
L 779 240
L 779 240
L 779 240
L 779 240
L 779 240
L 779 240
L 779 240
L 779 240
L 779 240
L 779 240
L 779 240
L 779 240
L 779 240
L 779 240
L 779 240
L 779 240
L 779 240
L 779 240
L 779 240
L 779 240
L 779 240
L 779 240
L 779 240
L 779 240
L 779 240
L 779 240
L 779 239
L 779 239
L 779 239
L 779 239
L 779 239
L 779 239
L 779 239
L 779 239
L 779 239
L 779 239
L 779 239
L 779 239
L 779 239
L 779 239
L 779 239
L 779 239
L 779 239
L 779 239
L 779 239
L 779 239
L 779 239
L 779 239
L 779 239
L 779 239
L 779 239
L 779 239
L 779 239
L 779 238
L 779 238
L 779 238
L 779 238
L 779 238
L 779 238
L 779 238
L 779 238
L 779 238
L 779 238
L 779 238
L 779 238
L 779 238
L 779 238
L 779 238
L 779 238
L 779 238
L 779 238
L 779 238
L 779 238
L 779 238
L 779 238
L 779 238
L 779 238
L 779 238
L 779 238
L 779 238
L 779 237
L 779 237
L 779 237
L 779 237
L 779 237
L 779 237
L 779 237
L 779 237
L 779 237
L 779 237
L 779 237
L 779 237
L 779 237
L 779 237
L 779 237
L 779 237
L 779 237
L 779 237
L 779 237
L 779 237
L 779 237
L 779 237
L 779 237
L 779 237
L 779 237
L 779 237
L 779 237
L 779 236
L 779 236
L 779 236
L 779 236
L 779 236
L 779 236
L 779 236
L 779 236
L 779 236
L 779 236
L 779 236
L 779 236
L 779 236
L 779 236
L 779 236
L 779 236
L 779 236
L 779 236
L 779 236
L 779 236
L 779 236
L 779 236
L 779 236
L 779 236
L 779 236
L 779 236
L 779 235
L 779 235
L 779 235
L 779 235
L 779 235
L 780 235
L 780 235
L 780 235
L 780 235
L 780 235
L 780 235
L 780 235
L 780 235
L 780 235
L 780 235
L 780 235
L 780 235
L 780 235
L 780 235
L 780 235
L 780 235
L 780 235
L 780 235
L 780 235
L 780 235
L 780 235
L 780 235
L 780 234
L 780 234
L 780 234
L 780 234
L 780 234
L 780 234
L 780 234
L 780 234
L 780 234
L 780 234
L 780 234
L 780 234
L 780 234
L 780 234
L 780 234
L 780 234
L 780 234
L 780 234
L 780 234
L 780 234
L 780 234
L 780 234
L 780 234
L 780 234
L 780 234
L 780 234
L 780 234
L 780 233
L 780 233
L 780 233
L 780 233
L 780 233
L 780 233
L 780 233
L 780 233
L 780 233
L 780 233
L 780 233
L 780 233
L 780 233
L 780 233
L 780 233
L 780 233
L 780 233
L 780 233
L 780 233
L 780 233
L 780 233
L 780 233
L 780 233
L 780 233
L 780 233
L 780 233
L 780 233
L 780 232
L 780 232
L 780 232
L 780 232
L 780 232
L 780 232
L 780 232
L 780 232
L 780 232
L 780 232
L 780 232
L 780 232
L 780 232
L 780 232
L 780 232
L 780 232
L 780 232
L 780 232
L 780 232
L 780 232
L 780 232
L 780 232
L 780 232
L 780 232
L 780 232
L 780 232
L 780 232
L 780 231
L 780 231
L 780 231
L 780 231
L 780 231
L 780 231
L 780 231
L 780 231
L 780 231
L 780 231
L 780 231
L 780 231
L 780 231
L 780 231
L 780 231
L 780 231
L 780 231
L 780 231
L 780 231
L 780 231
L 780 231
L 780 231
L 780 231
L 780 231
L 780 231
L 780 231
L 780 230
L 780 230
L 780 230
L 780 230
L 780 230
L 780 230
L 780 230
L 780 230
L 780 230
L 780 230
L 780 230
L 780 230
L 780 230
L 780 230
L 780 230
L 780 230
L 780 230
L 780 230
L 780 230
L 780 230
L 780 230
L 780 230
L 780 230
L 780 230
L 780 230
L 780 230
L 780 230
L 780 229
L 780 229
L 780 229
L 780 229
L 780 229
L 780 229
L 780 229
L 780 229
L 780 229
L 780 229
L 780 229
L 780 229
L 780 229
L 780 229
L 780 229
L 780 229
L 780 229
L 780 229
L 780 229
L 780 229
L 780 229
L 780 229
L 780 229
L 780 229
L 780 229
L 780 229
L 780 229
L 780 228
L 780 228
L 780 228
L 780 228
L 780 228
L 780 228
L 780 228
L 780 228
L 780 228
L 780 228
L 780 228
L 780 228
L 780 228
L 780 228
L 780 228
L 780 228
L 780 228
L 780 228
L 780 228
L 780 228
L 780 228
L 780 228
L 780 228
L 780 228
L 780 228
L 780 228
L 780 228
L 780 227
L 780 227
L 780 227
L 780 227
L 780 227
L 780 227
L 780 227
L 780 227
L 780 227
L 780 227
L 780 227
L 780 227
L 780 227
L 780 227
L 780 227
L 780 227
L 780 227
L 780 227
L 780 227
L 780 227
L 780 227
L 780 227
L 780 227
L 780 227
L 780 227
L 780 227
L 780 226
L 780 226
L 780 226
L 780 226
L 780 226
L 780 226
L 780 226
L 780 226
L 780 226
L 780 226
L 780 226
L 780 226
L 780 226
L 780 226
L 780 226
L 780 226
L 780 226
L 780 226
L 780 226
L 780 226
L 780 226
L 780 226
L 780 226
L 780 226
L 780 226
L 780 226
L 780 226
L 780 225
L 780 225
L 780 225
L 780 225
L 780 225
L 780 225
L 780 225
L 780 225
L 780 225
L 780 225
L 780 225
L 780 225
L 780 225
L 780 225
L 780 225
L 780 225
L 780 225
L 780 225
L 780 225
L 780 225
L 780 225
L 780 225
L 780 225
L 780 225
L 780 225
L 780 225
L 780 225
L 780 224
L 780 224
L 780 224
L 780 224
L 780 224
L 780 224
L 780 224
L 780 224
L 780 224
L 780 224
L 780 224
L 780 224
L 780 224
L 780 224
L 780 224
L 780 224
L 780 224
L 780 224
L 780 224
L 780 224
L 780 224
L 780 224
L 780 224
L 780 224
L 780 224
L 780 224
L 780 224
L 780 223
L 780 223
L 780 223
L 780 223
L 780 223
L 780 223
L 780 223
L 780 223
L 780 223
L 780 223
L 780 223
L 780 223
L 780 223
L 780 223
L 780 223
L 780 223
L 780 223
L 780 223
L 780 223
L 780 223
L 780 223
L 780 223
L 780 223
L 780 223
L 780 223
L 780 223
L 780 222
L 780 222
L 780 222
L 781 222
L 781 222
L 781 222
L 781 222
L 781 222
L 781 222
L 781 222
L 781 222
L 781 222
L 781 222
L 781 222
L 781 222
L 781 222
L 781 222
L 781 222
L 781 222
L 781 222
L 781 222
L 781 222
L 781 222
L 781 222
L 781 222
L 781 222
L 781 222
L 781 221
L 781 221
L 781 221
L 781 221
L 781 221
L 781 221
L 781 221
L 781 221
L 781 221
L 781 221
L 781 221
L 781 221
L 781 221
L 781 221
L 781 221
L 781 221
L 781 221
L 781 221
L 781 221
L 781 221
L 781 221
L 781 221
L 781 221
L 781 221
L 781 221
L 781 221
L 781 221
L 781 220
L 781 220
L 781 220
L 781 220
L 781 220
L 781 220
L 781 220
L 781 220
L 781 220
L 781 220
L 781 220
L 781 220
L 781 220
L 781 220
L 781 220
L 781 220
L 781 220
L 781 220
L 781 220
L 781 220
L 781 220
L 781 220
L 781 220
L 781 220
L 781 220
L 781 220
L 781 220
L 781 219
L 781 219
L 781 219
L 781 219
L 781 219
L 781 219
L 781 219
L 781 219
L 781 219
L 781 219
L 781 219
L 781 219
L 781 219
L 781 219
L 781 219
L 781 219
L 781 219
L 781 219
L 781 219
L 781 219
L 781 219
L 781 219
L 781 219
L 781 219
L 781 219
L 781 219
L 781 218
L 781 218
L 781 218
L 781 218
L 781 218
L 781 218
L 781 218
L 781 218
L 781 218
L 781 218
L 781 218
L 781 218
L 781 218
L 781 218
L 781 218
L 781 218
L 781 218
L 781 218
L 781 218
L 781 218
L 781 218
L 781 218
L 781 218
L 781 218
L 781 218
L 781 218
L 781 218
L 781 217
L 781 217
L 781 217
L 781 217
L 781 217
L 781 217
L 781 217
L 781 217
L 781 217
L 781 217
L 781 217
L 781 217
L 781 217
L 781 217
L 781 217
L 781 217
L 781 217
L 781 217
L 781 217
L 781 217
L 781 217
L 781 217
L 781 217
L 781 217
L 781 217
L 781 217
L 781 217
L 781 216
L 781 216
L 781 216
L 781 216
L 781 216
L 782 216
L 782 216
L 782 216
L 782 216
L 782 216
L 782 216
L 782 216
L 782 216
L 782 216
L 782 216
L 782 216
L 782 216
L 782 216
L 782 216
L 782 216
L 782 216
L 782 216
L 782 216
L 782 216
L 782 216
L 782 216
L 782 216
L 782 215
L 782 215
L 782 215
L 782 215
L 782 215
L 782 215
L 782 215
L 782 215
L 782 215
L 782 215
L 782 215
L 782 215
L 782 215
L 782 215
L 782 215
L 782 215
L 782 215
L 782 215
L 782 215
L 782 215
L 782 215
L 782 215
L 782 215
L 782 215
L 782 215
L 782 215
L 782 215
L 782 214
L 782 214
L 782 214
L 782 214
L 782 214
L 782 214
L 782 214
L 782 214
L 782 214
L 782 214
L 782 214
L 782 214
L 782 214
L 782 214
L 782 214
L 782 214
L 782 214
L 782 214
L 782 214
L 783 214
L 783 214
L 783 214
L 783 214
L 783 214
L 783 214
L 783 214
L 783 213
L 783 213
L 783 213
L 783 213
L 783 213
L 784 213
L 784 213
L 784 213
L 784 213
L 784 213
L 784 213
L 784 213
L 784 213
L 784 213
L 784 213
L 784 213
L 784 213
L 784 213
L 784 213
L 784 213
L 784 213
L 784 213
L 784 213
L 784 213
L 784 213
L 784 213
L 784 213
L 784 212
L 784 212
L 784 212
L 784 212
L 785 212
L 785 212
L 785 212
L 785 212
L 785 212
L 785 212
L 785 212
L 785 212
L 785 212
L 785 212
L 785 212
L 785 212
L 785 212
L 785 212
L 785 212
L 785 212
L 785 212
L 785 212
L 785 212
L 785 212
L 785 212
L 785 212
L 785 212
L 785 211
L 785 211
L 785 211
L 785 211
L 785 211
L 785 211
L 786 211
L 786 211
L 786 211
L 786 211
L 786 211
L 786 211
L 786 211
L 786 211
L 786 211
L 786 211
L 786 211
L 786 211
L 786 211
L 786 211
L 786 211
L 786 211
L 786 211
L 786 211
L 786 211
L 786 211
L 786 211
L 786 210
L 786 210
L 786 210
L 786 210
L 786 210
L 786 210
L 786 210
L 786 210
L 786 210
L 786 210
L 786 210
L 786 210
L 786 210
L 786 210
L 786 210
L 787 210
L 787 210
L 787 210
L 787 210
L 787 210
L 787 210
L 787 210
L 787 210
L 787 210
L 787 210
L 787 210
L 787 209
L 787 209
L 787 209
L 788 209
L 788 209
L 788 209
L 788 209
L 788 209
L 788 209
L 788 209
L 788 209
L 788 209
L 788 209
L 788 209
L 788 209
L 788 209
L 788 209
L 788 209
L 788 209
L 788 209
L 788 209
L 788 209
L 788 209
L 788 209
L 788 209
L 788 209
L 788 209
L 788 208
L 788 208
L 788 208
L 788 208
L 789 208
L 789 208
L 789 208
L 789 208
L 789 208
L 789 208
L 789 208
L 789 208
L 789 208
L 789 208
L 789 208
L 789 208
L 789 208
L 789 208
L 789 208
L 789 208
L 789 208
L 789 208
L 789 208
L 789 208
L 789 208
L 789 208
L 789 208
L 789 207
L 789 207
L 789 207
L 789 207
L 790 207
L 790 207
L 790 207
L 790 207
L 790 207
L 790 207
L 790 207
L 790 207
L 790 207
L 790 207
L 790 207
L 790 207
L 790 207
L 790 207
L 790 207
L 790 207
L 790 207
L 790 207
L 790 207
L 790 207
L 791 207
L 791 207
L 791 207
L 791 206
L 791 206
L 791 206
L 791 206
L 791 206
L 791 206
L 791 206
L 791 206
L 791 206
L 791 206
L 791 206
L 791 206
L 791 206
L 791 206
L 791 206
L 792 206
L 792 206
L 792 206
L 792 206
L 792 206
L 792 206
L 792 206
L 792 206
L 792 206
L 793 206
L 793 206
L 793 205
L 793 205
L 793 205
L 793 205
L 793 205
L 793 205
L 793 205
L 793 205
L 793 205
L 793 205
L 793 205
L 793 205
L 793 205
L 793 205
L 793 205
L 794 205
L 794 205
L 794 205
L 794 205
L 794 205
L 794 205
L 794 205
L 794 205
L 794 205
L 794 205
L 794 205
L 794 205
L 794 204
L 794 204
L 794 204
L 794 204
L 794 204
L 794 204
L 794 204
L 794 204
L 794 204
L 794 204
L 794 204
L 794 204
L 794 204
L 795 204
L 795 204
L 795 204
L 795 204
L 795 204
L 795 204
L 795 204
L 795 204
L 795 204
L 795 204
L 795 204
L 795 204
L 795 204
L 795 204
L 795 203
L 795 203
L 795 203
L 795 203
L 795 203
L 795 203
L 796 203
L 796 203
L 796 203
L 796 203
L 796 203
L 796 203
L 796 203
L 796 203
L 796 203
L 796 203
L 796 203
L 796 203
L 796 203
L 796 203
L 796 203
L 796 203
L 797 203
L 797 203
L 797 203
L 797 203
L 797 203
L 797 202
L 797 202
L 798 202
L 798 202
L 798 202
L 798 202
L 798 202
L 798 202
L 798 202
L 798 202
L 798 202
L 799 202
L 799 202
L 799 202
L 799 202
L 799 202
L 799 202
L 799 202
L 799 202
L 799 202
L 799 202
L 799 202
L 799 202
L 799 202
L 799 202
L 799 202
L 799 201
L 799 201
L 799 201
L 799 201
L 799 201
L 799 201
L 799 201
L 799 201
L 799 201
L 799 201
L 799 201
L 799 201
L 799 201
L 799 201
L 799 201
L 799 201
L 799 201
L 799 201
L 799 201
L 799 201
L 799 201
L 799 201
L 799 201
L 799 201
L 799 201
L 799 201
L 800 201
L 800 200
L 800 200
L 800 200
L 800 200
L 800 200
L 800 200
L 800 200
L 800 200
L 800 200
L 800 200
L 800 200
L 800 200
L 800 200
L 800 200
L 800 200
L 800 200
L 800 200
L 800 200
L 800 200
L 800 200
L 800 200
L 800 200
L 800 200
L 800 200
L 800 200
L 800 200
L 800 200
L 800 199
L 800 199
L 800 199
L 800 199
L 800 199
L 800 199
L 800 199
L 800 199
L 800 199
L 800 199
L 800 199
L 800 199
L 800 199
L 800 199
L 800 199
L 800 199
L 800 199
L 800 199
L 800 199
L 800 199
L 800 199
L 800 199
L 800 199
L 800 199
L 800 199
L 800 199
L 800 199
L 800 198
L 800 198
L 800 198
L 800 198
L 800 198
L 800 198
L 800 198
L 800 198
L 800 198
L 800 198
L 800 198
L 800 198
L 800 198
L 800 198
L 800 198
L 800 198
L 800 198
L 800 198
L 800 198
L 800 198
L 800 198
L 800 198
L 800 198
L 800 198
L 800 198
L 800 198
L 800 198
L 800 197
L 800 197
L 800 197
L 800 197
L 800 197
L 800 197
L 800 197
L 800 197
L 800 197
L 800 197
L 800 197
L 800 197
L 800 197
L 800 197
L 800 197
L 800 197
L 800 197
L 800 197
L 800 197
L 800 197
L 800 197
L 800 197
L 800 197
L 800 197
L 800 197
L 800 197
L 800 196
L 800 196
L 800 196
L 800 196
L 800 196
L 800 196
L 800 196
L 800 196
L 800 196
L 800 196
L 800 196
L 800 196
L 800 196
L 800 196
L 800 196
L 800 196
L 800 196
L 800 196
L 800 196
L 800 196
L 800 196
L 800 196
L 800 196
L 800 196
L 800 196
L 800 196
L 800 196
L 800 195
L 800 195
L 800 195
L 800 195
L 800 195
L 800 195
L 800 195
L 800 195
L 800 195
L 800 195
L 800 195
L 800 195
L 800 195
L 800 195
L 800 195
L 800 195
L 800 195
L 800 195
L 800 195
L 800 195
L 800 195
L 800 195
L 800 195
L 800 195
L 800 195
L 800 195
L 800 195
L 800 194
L 800 194
L 800 194
L 800 194
L 800 194
L 800 194
L 800 194
L 800 194
L 800 194
L 800 194
L 800 194
L 800 194
L 800 194
L 800 194
L 800 194
L 800 194
L 800 194
L 800 194
L 800 194
L 800 194
L 800 194
L 800 194
L 800 194
L 800 194
L 800 194
L 800 194
L 800 194
L 800 193
L 800 193
L 800 193
L 800 193
L 800 193
L 800 193
L 800 193
L 800 193
L 800 193
L 800 193
L 800 193
L 800 193
L 800 193
L 800 193
L 801 193
L 801 193
L 801 193
L 801 193
L 801 193
L 801 193
L 801 193
L 801 193
L 801 193
L 801 193
L 801 193
L 801 193
L 801 192
L 801 192
L 801 192
L 801 192
L 801 192
L 801 192
L 801 192
L 801 192
L 801 192
L 801 192
L 801 192
L 801 192
L 801 192
L 801 192
L 801 192
L 801 192
L 801 192
L 801 192
L 801 192
L 801 192
L 801 192
L 801 192
L 801 192
L 801 192
L 801 192
L 801 192
L 801 192
L 801 191
L 801 191
L 801 191
L 801 191
L 801 191
L 801 191
L 801 191
L 801 191
L 801 191
L 801 191
L 801 191
L 801 191
L 801 191
L 801 191
L 801 191
L 801 191
L 801 191
L 801 191
L 801 191
L 801 191
L 801 191
L 801 191
L 801 191
L 801 191
L 801 191
L 801 191
L 801 191
L 801 190
L 801 190
L 801 190
L 801 190
L 801 190
L 801 190
L 801 190
L 801 190
L 801 190
L 801 190
L 801 190
L 801 190
L 801 190
L 801 190
L 801 190
L 801 190
L 801 190
L 801 190
L 801 190
L 801 190
L 801 190
L 801 190
L 801 190
L 801 190
L 801 190
L 801 190
L 801 190
L 801 189
L 801 189
L 801 189
L 801 189
L 801 189
L 801 189
L 801 189
L 801 189
L 801 189
L 801 189
L 801 189
L 801 189
L 801 189
L 801 189
L 801 189
L 801 189
L 801 189
L 801 189
L 801 189
L 801 189
L 801 189
L 801 189
L 801 189
L 801 189
L 801 189
L 801 189
L 801 188
L 801 188
L 801 188
L 801 188
L 801 188
L 801 188
L 801 188
L 801 188
L 801 188
L 801 188
L 801 188
L 801 188
L 801 188
L 801 188
L 801 188
L 801 188
L 801 188
L 801 188
L 801 188
L 801 188
L 801 188
L 801 188
L 801 188
L 801 188
L 801 188
L 801 188
L 801 188
L 801 187
L 801 187
L 801 187
L 801 187
L 801 187
L 801 187
L 801 187
L 801 187
L 801 187
L 801 187
L 801 187
L 801 187
L 801 187
L 801 187
L 801 187
L 801 187
L 801 187
L 801 187
L 801 187
L 801 187
L 801 187
L 801 187
L 801 187
L 801 187
L 801 187
L 801 187
L 801 187
L 801 186
L 801 186
L 801 186
L 801 186
L 801 186
L 801 186
L 801 186
L 801 186
L 801 186
L 801 186
L 801 186
L 801 186
L 801 186
L 801 186
L 801 186
L 801 186
L 801 186
L 801 186
L 801 186
L 801 186
L 801 186
L 801 186
L 801 186
L 801 186
L 801 186
L 801 186
L 801 186
L 801 185
L 801 185
L 801 185
L 801 185
L 801 185
L 801 185
L 801 185
L 801 185
L 801 185
L 801 185
L 801 185
L 801 185
L 801 185
L 801 185
L 801 185
L 801 185
L 801 185
L 801 185
L 801 185
L 801 185
L 801 185
L 801 185
L 801 185
L 801 185
L 801 185
L 801 185
L 801 184
L 801 184
L 801 184
L 801 184
L 801 184
L 801 184
L 801 184
L 801 184
L 801 184
L 801 184
L 801 184
L 801 184
L 801 184
L 801 184
L 801 184
L 801 184
L 801 184
L 801 184
L 801 184
L 801 184
L 801 184
L 801 184
L 801 184
L 801 184
L 801 184
L 801 184
L 801 184
L 801 183
L 801 183
L 801 183
L 801 183
L 801 183
L 801 183
L 801 183
L 801 183
L 801 183
L 801 183
L 801 183
L 801 183
L 801 183
L 801 183
L 801 183
L 801 183
L 801 183
L 801 183
L 801 183
L 801 183
L 801 183
L 801 183
L 801 183
L 801 183
L 801 183
L 801 183
L 801 183
L 801 182
L 801 182
L 801 182
L 801 182
L 801 182
L 801 182
L 801 182
L 801 182
L 801 182
L 801 182
L 801 182
L 801 182
L 801 182
L 801 182
L 801 182
L 801 182
L 801 182
L 801 182
L 801 182
L 801 182
L 801 182
L 801 182
L 801 182
L 801 182
L 801 182
L 801 182
L 801 182
L 801 181
L 801 181
L 801 181
L 801 181
L 801 181
L 801 181
L 801 181
L 801 181
L 801 181
L 801 181
L 801 181
L 801 181
L 801 181
L 801 181
L 801 181
L 801 181
L 801 181
L 801 181
L 801 181
L 801 181
L 801 181
L 801 181
L 801 181
L 801 181
L 801 181
L 801 181
L 801 181
L 801 180
L 801 180
L 801 180
L 801 180
L 801 180
L 801 180
L 801 180
L 801 180
L 801 180
L 801 180
L 801 180
L 801 180
L 801 180
L 801 180
L 801 180
L 801 180
L 801 180
L 801 180
L 801 180
L 801 180
L 801 180
L 801 180
L 801 180
L 801 180
L 801 180
L 801 180
L 801 179
L 801 179
L 801 179
L 801 179
L 801 179
L 801 179
L 801 179
L 801 179
L 801 179
L 801 179
L 801 179
L 801 179
L 801 179
L 801 179
L 801 179
L 802 179
L 802 179
L 802 179
L 802 179
L 802 179
L 802 179
L 802 179
L 802 179
L 802 179
L 802 179
L 802 179
L 802 179
L 802 178
L 802 178
L 802 178
L 802 178
L 802 178
L 802 178
L 802 178
L 802 178
L 802 178
L 802 178
L 802 178
L 802 178
L 802 178
L 802 178
L 802 178
L 802 178
L 802 178
L 802 178
L 802 178
L 802 178
L 802 178
L 802 178
L 802 178
L 802 178
L 802 178
L 802 178
L 802 178
L 802 177
L 802 177
L 802 177
L 802 177
L 802 177
L 802 177
L 802 177
L 802 177
L 802 177
L 802 177
L 802 177
L 802 177
L 802 177
L 802 177
L 802 177
L 802 177
L 802 177
L 802 177
L 802 177
L 802 177
L 802 177
L 802 177
L 802 177
L 802 177
L 802 177
L 802 177
L 802 177
L 802 176
L 802 176
L 802 176
L 802 176
L 802 176
L 802 176
L 802 176
L 802 176
L 802 176
L 802 176
L 802 176
L 802 176
L 802 176
L 802 176
L 802 176
L 802 176
L 802 176
L 802 176
L 802 176
L 802 176
L 802 176
L 802 176
L 802 176
L 802 176
L 802 176
L 802 176
L 802 175
L 802 175
L 802 175
L 802 175
L 802 175
L 802 175
L 802 175
L 802 175
L 802 175
L 802 175
L 802 175
L 802 175
L 802 175
L 802 175
L 802 175
L 802 175
L 802 175
L 802 175
L 802 175
L 802 175
L 802 175
L 802 175
L 802 175
L 802 175
L 802 175
L 802 175
L 802 175
L 802 174
L 802 174
L 802 174
L 802 174
L 802 174
L 802 174
L 802 174
L 802 174
L 802 174
L 802 174
L 802 174
L 802 174
L 802 174
L 802 174
L 802 174
L 802 174
L 802 174
L 802 174
L 802 174
L 802 174
L 802 174
L 802 174
L 802 174
L 802 174
L 802 174
L 802 174
L 802 174
L 802 173
L 802 173
L 802 173
L 802 173
L 802 173
L 802 173
L 802 173
L 802 173
L 802 173
L 802 173
L 802 173
L 802 173
L 802 173
L 802 173
L 802 173
L 802 173
L 802 173
L 802 173
L 802 173
L 802 173
L 802 173
L 802 173
L 802 173
L 802 173
L 802 173
L 802 173
L 802 173
L 802 172
L 802 172
L 802 172
L 802 172
L 802 172
L 802 172
L 802 172
L 802 172
L 802 172
L 802 172
L 802 172
L 802 172
L 802 172
L 802 172
L 802 172
L 802 172
L 802 172
L 802 172
L 802 172
L 802 172
L 802 172
L 802 172
L 802 172
L 802 172
L 802 172
L 802 172
L 802 171
L 802 171
L 802 171
L 802 171
L 802 171
L 802 171
L 802 171
L 802 171
L 802 171
L 802 171
L 802 171
L 802 171
L 802 171
L 802 171
L 802 171
L 802 171
L 802 171
L 802 171
L 802 171
L 802 171
L 802 171
L 802 171
L 802 171
L 802 171
L 802 171
L 802 171
L 802 171
L 802 170
L 802 170
L 802 170
L 802 170
L 802 170
L 802 170
L 802 170
L 802 170
L 802 170
L 802 170
L 802 170
L 802 170
L 802 170
L 802 170
L 802 170
L 802 170
L 802 170
L 802 170
L 802 170
L 802 170
L 802 170
L 802 170
L 802 170
L 802 170
L 802 170
L 802 170
L 802 170
L 802 169
L 802 169
L 802 169
L 802 169
L 802 169
L 802 169
L 802 169
L 802 169
L 802 169
L 802 169
L 802 169
L 802 169
L 802 169
L 802 169
L 802 169
L 802 169
L 802 169
L 802 169
L 802 169
L 802 169
L 802 169
L 802 169
L 802 169
L 802 169
L 802 169
L 802 169
L 802 169
L 802 168
L 802 168
L 802 168
L 802 168
L 802 168
L 802 168
L 802 168
L 802 168
L 802 168
L 802 168
L 802 168
L 802 168
L 802 168
L 802 168
L 802 168
L 802 168
L 802 168
L 802 168
L 802 168
L 802 168
L 802 168
L 802 168
L 802 168
L 802 168
L 802 168
L 802 168
L 802 167
L 802 167
L 802 167
L 802 167
L 802 167
L 802 167
L 802 167
L 802 167
L 802 167
L 802 167
L 802 167
L 802 167
L 802 167
L 802 167
L 802 167
L 802 167
L 802 167
L 802 167
L 802 167
L 802 167
L 802 167
L 802 167
L 802 167
L 802 167
L 803 167
L 803 167
L 803 167
L 803 166
L 803 166
L 803 166
L 803 166
L 803 166
L 803 166
L 803 166
L 803 166
L 803 166
L 803 166
L 803 166
L 803 166
L 803 166
L 803 166
L 803 166
L 803 166
L 803 166
L 803 166
L 803 166
L 803 166
L 803 166
L 803 166
L 803 166
L 803 166
L 803 166
L 803 166
L 803 166
L 803 165
L 803 165
L 803 165
L 803 165
L 803 165
L 803 165
L 803 165
L 803 165
L 803 165
L 803 165
L 803 165
L 803 165
L 803 165
L 803 165
L 803 165
L 803 165
L 803 165
L 803 165
L 803 165
L 803 165
L 803 165
L 803 165
L 803 165
L 803 165
L 803 165
L 803 165
L 803 165
L 803 164
L 803 164
L 803 164
L 803 164
L 803 164
L 803 164
L 803 164
L 803 164
L 803 164
L 803 164
L 803 164
L 803 164
L 803 164
L 803 164
L 803 164
L 803 164
L 803 164
L 803 164
L 803 164
L 803 164
L 803 164
L 803 164
L 803 164
L 803 164
L 803 164
L 803 164
L 803 163
L 803 163
L 803 163
L 803 163
L 803 163
L 803 163
L 803 163
L 803 163
L 803 163
L 803 163
L 803 163
L 803 163
L 803 163
L 803 163
L 803 163
L 803 163
L 803 163
L 803 163
L 803 163
L 803 163
L 803 163
L 803 163
L 803 163
L 803 163
L 803 163
L 803 163
L 803 163
L 803 162
L 803 162
L 803 162
L 803 162
L 803 162
L 803 162
L 803 162
L 803 162
L 803 162
L 803 162
L 803 162
L 803 162
L 803 162
L 803 162
L 803 162
L 803 162
L 803 162
L 803 162
L 803 162
L 803 162
L 803 162
L 803 162
L 803 162
L 803 162
L 803 162
L 803 162
L 803 162
L 803 161
L 803 161
L 803 161
L 803 161
L 803 161
L 803 161
L 803 161
L 803 161
L 803 161
L 803 161
L 803 161
L 803 161
L 803 161
L 803 161
L 803 161
L 803 161
L 803 161
L 803 161
L 803 161
L 803 161
L 803 161
L 803 161
L 803 161
L 803 161
L 803 161
L 803 161
L 803 161
L 803 160
L 803 160
L 803 160
L 803 160
L 803 160
L 803 160
L 803 160
L 803 160
L 803 160
L 803 160
L 803 160
L 803 160
L 803 160
L 803 160
L 803 160
L 803 160
L 803 160
L 803 160
L 803 160
L 803 160
L 803 160
L 803 160
L 803 160
L 803 160
L 803 160
L 804 160
L 804 160
L 804 159
L 804 159
L 804 159
L 804 159
L 804 159
L 804 159
L 804 159
L 804 159
L 804 159
L 804 159
L 804 159
L 804 159
L 804 159
L 804 159
L 804 159
L 804 159
L 804 159
L 804 159
L 804 159
L 804 159
L 804 159
L 804 159
L 804 159
L 804 159
L 804 159
L 804 159
L 804 158
L 804 158
L 804 158
L 804 158
L 804 158
L 804 158
L 804 158
L 804 158
L 804 158
L 804 158
L 804 158
L 804 158
L 804 158
L 804 158
L 804 158
L 804 158
L 804 158
L 804 158
L 804 158
L 804 158
L 804 158
L 804 158
L 804 158
L 804 158
L 804 158
L 804 158
L 804 158
L 804 157
L 804 157
L 804 157
L 804 157
L 804 157
L 804 157
L 804 157
L 804 157
L 804 157
L 804 157
L 804 157
L 804 157
L 804 157
L 804 157
L 804 157
L 804 157
L 804 157
L 804 157
L 804 157
L 804 157
L 804 157
L 804 157
L 804 157
L 804 157
L 804 157
L 804 157
L 804 157
L 804 156
L 804 156
L 804 156
L 804 156
L 804 156
L 804 156
L 805 156
L 805 156
L 805 156
L 805 156
L 805 156
L 805 156
L 805 156
L 805 156
L 805 156
L 805 156
L 805 156
L 805 156
L 805 156
L 805 156
L 805 156
L 805 156
L 805 156
L 805 156
L 805 156
L 805 156
L 805 156
L 805 155
L 805 155
L 805 155
L 805 155
L 805 155
L 805 155
L 805 155
L 805 155
L 805 155
L 805 155
L 805 155
L 805 155
L 805 155
L 805 155
L 805 155
L 805 155
L 805 155
L 805 155
L 805 155
L 805 155
L 805 155
L 805 155
L 805 155
L 805 155
L 805 155
L 805 155
L 805 154
L 805 154
L 805 154
L 805 154
L 805 154
L 805 154
L 805 154
L 805 154
L 805 154
L 805 154
L 805 154
L 805 154
L 805 154
L 805 154
L 805 154
L 805 154
L 805 154
L 805 154
L 805 154
L 805 154
L 805 154
L 805 154
L 805 154
L 805 154
L 805 154
L 805 154
L 805 154
L 805 153
L 805 153
L 805 153
L 805 153
L 805 153
L 805 153
L 805 153
L 805 153
L 805 153
L 805 153
L 805 153
L 805 153
L 805 153
L 805 153
L 806 153
L 806 153
L 806 153
L 806 153
L 806 153
L 806 153
L 806 153
L 806 153
L 806 153
L 806 153
L 806 153
L 806 153
L 806 153
L 806 152
L 806 152
L 806 152
L 806 152
L 806 152
L 806 152
L 806 152
L 806 152
L 806 152
L 806 152
L 806 152
L 806 152
L 806 152
L 806 152
L 806 152
L 806 152
L 806 152
L 806 152
L 806 152
L 806 152
L 806 152
L 806 152
L 806 152
L 806 152
L 806 152
L 806 152
L 806 152
L 806 151
L 806 151
L 806 151
L 806 151
L 806 151
L 806 151
L 806 151
L 806 151
L 806 151
L 806 151
L 806 151
L 806 151
L 806 151
L 807 151
L 807 151
L 807 151
L 807 151
L 807 151
L 807 151
L 807 151
L 807 151
L 807 151
L 807 151
L 807 151
L 807 151
L 807 151
L 807 150
L 807 150
L 807 150
L 807 150
L 807 150
L 807 150
L 807 150
L 807 150
L 807 150
L 807 150
L 807 150
L 807 150
L 807 150
L 807 150
L 807 150
L 807 150
L 807 150
L 807 150
L 807 150
L 807 150
L 807 150
L 807 150
L 807 150
L 807 150
L 807 150
L 807 150
L 807 150
L 807 149
L 807 149
L 807 149
L 808 149
L 808 149
L 808 149
L 808 149
L 808 149
L 808 149
L 808 149
L 808 149
L 808 149
L 808 149
L 808 149
L 808 149
L 808 149
L 808 149
L 808 149
L 808 149
L 808 149
L 808 149
L 808 149
L 808 149
L 808 149
L 808 149
L 808 149
L 808 149
L 808 148
L 808 148
L 808 148
L 809 148
L 809 148
L 809 148
L 809 148
L 809 148
L 809 148
L 809 148
L 809 148
L 809 148
L 809 148
L 809 148
L 809 148
L 809 148
L 809 148
L 809 148
L 809 148
L 809 148
L 809 148
L 809 148
L 810 148
L 810 148
L 810 148
L 810 148
L 810 148
L 810 147
L 810 147
L 810 147
L 810 147
L 810 147
L 810 147
L 810 147
L 810 147
L 810 147
L 810 147
L 810 147
L 810 147
L 810 147
L 810 147
L 810 147
L 810 147
L 810 147
L 810 147
L 810 147
L 810 147
L 810 147
L 810 147
L 810 147
L 810 147
L 810 147
L 811 147
L 811 147
L 811 146
L 811 146
L 811 146
L 811 146
L 811 146
L 811 146
L 811 146
L 811 146
L 811 146
L 811 146
L 811 146
L 811 146
L 811 146
L 811 146
L 811 146
L 811 146
L 811 146
L 811 146
L 811 146
L 811 146
L 811 146
L 811 146
L 811 146
L 811 146
L 811 146
L 811 146
L 811 145
L 812 145
L 812 145
L 812 145
L 812 145
L 812 145
L 812 145
L 812 145
L 812 145
L 812 145
L 812 145
L 812 145
L 812 145
L 812 145
L 812 145
L 812 145
L 812 145
L 812 145
L 812 145
L 812 145
L 812 145
L 812 145
L 812 145
L 812 145
L 812 145
L 813 145
L 813 145
L 813 144
L 813 144
L 813 144
L 813 144
L 813 144
L 813 144
L 813 144
L 813 144
L 813 144
L 813 144
L 813 144
L 813 144
L 813 144
L 813 144
L 813 144
L 813 144
L 813 144
L 813 144
L 813 144
L 813 144
L 813 144
L 813 144
L 813 144
L 814 144
L 814 144
L 814 144
L 814 144
L 814 143
L 814 143
L 814 143
L 814 143
L 814 143
L 814 143
L 814 143
L 814 143
L 815 143
L 815 143
L 815 143
L 815 143
L 815 143
L 815 143
L 815 143
L 815 143
L 815 143
L 815 143
L 815 143
L 815 143
L 815 143
L 815 143
L 815 143
L 815 143
L 816 143
L 816 143
L 816 143
L 816 142
L 816 142
L 816 142
L 816 142
L 816 142
L 816 142
L 816 142
L 816 142
L 816 142
L 816 142
L 816 142
L 816 142
L 816 142
L 816 142
L 816 142
L 816 142
L 816 142
L 816 142
L 816 142
L 816 142
L 816 142
L 816 142
L 816 142
L 816 142
L 816 142
L 817 142
L 817 141
L 817 141
L 817 141
L 817 141
L 817 141
L 817 141
L 817 141
L 817 141
L 817 141
L 817 141
L 817 141
L 817 141
L 817 141
L 817 141
L 817 141
L 817 141
L 817 141
L 817 141
L 817 141
L 817 141
L 817 141
L 817 141
L 817 141
L 817 141
L 817 141
L 817 141
L 817 141
L 817 140
L 817 140
L 817 140
L 817 140
L 817 140
L 817 140
L 818 140
L 818 140
L 818 140
L 818 140
L 818 140
L 818 140
L 818 140
L 818 140
L 818 140
L 818 140
L 818 140
L 818 140
L 818 140
L 818 140
L 818 140
L 818 140
L 818 140
L 818 140
L 818 140
L 818 140
L 818 140
L 818 139
L 818 139
L 818 139
L 818 139
L 818 139
L 818 139
L 818 139
L 818 139
L 818 139
L 818 139
L 818 139
L 818 139
L 818 139
L 818 139
L 818 139
L 818 139
L 818 139
L 818 139
L 818 139
L 818 139
L 818 139
L 818 139
L 818 139
L 818 139
L 818 139
L 818 139
L 818 139
L 818 138
L 818 138
L 818 138
L 818 138
L 818 138
L 818 138
L 818 138
L 818 138
L 818 138
L 818 138
L 818 138
L 818 138
L 818 138
L 818 138
L 819 138
L 819 138
L 819 138
L 819 138
L 819 138
L 819 138
L 819 138
L 819 138
L 819 138
L 819 138
L 819 138
L 819 138
L 819 137
L 819 137
L 819 137
L 819 137
L 819 137
L 819 137
L 819 137
L 819 137
L 819 137
L 819 137
L 819 137
L 819 137
L 819 137
L 819 137
L 819 137
L 819 137
L 819 137
L 819 137
L 819 137
L 819 137
L 819 137
L 819 137
L 819 137
L 819 137
L 820 137
L 820 137
L 820 137
L 820 136
L 820 136
L 820 136
L 820 136
L 820 136
L 820 136
L 820 136
L 820 136
L 820 136
L 820 136
L 820 136
L 821 136
L 821 136
L 821 136
L 821 136
L 821 136
L 821 136
L 821 136
L 821 136
L 821 136
L 821 136
L 821 136
L 821 136
L 821 136
L 821 136
L 821 136
L 821 136
L 821 135
L 821 135
L 821 135
L 821 135
L 821 135
L 821 135
L 821 135
L 821 135
L 821 135
L 821 135
L 821 135
L 821 135
L 821 135
L 821 135
L 821 135
L 821 135
L 821 135
L 821 135
L 821 135
L 821 135
L 821 135
L 821 135
L 821 135
L 821 135
L 822 135
L 822 135
L 822 135
L 822 134
L 822 134
L 822 134
L 822 134
L 822 134
L 822 134
L 822 134
L 822 134
L 822 134
L 822 134
L 822 134
L 822 134
L 822 134
L 822 134
L 822 134
L 822 134
L 822 134
L 822 134
L 822 134
L 822 134
L 822 134
L 822 134
L 822 134
L 822 134
L 822 134
L 822 134
L 822 133
L 822 133
L 822 133
L 822 133
L 822 133
L 822 133
L 823 133
L 823 133
L 823 133
L 823 133
L 823 133
L 823 133
L 823 133
L 823 133
L 823 133
L 823 133
L 823 133
L 823 133
L 823 133
L 823 133
L 823 133
L 823 133
L 823 133
L 823 133
L 823 133
L 823 133
L 824 133
L 824 132
L 824 132
L 824 132
L 824 132
L 824 132
L 824 132
L 824 132
L 824 132
L 824 132
L 824 132
L 824 132
L 824 132
L 825 132
L 825 132
L 825 132
L 825 132
L 825 132
L 825 132
L 826 132
L 826 132
L 826 132
L 826 132
L 826 132
L 826 132
L 826 132
L 826 132
L 827 132
L 827 131
L 827 131
L 827 131
L 827 131
L 827 131
L 827 131
L 827 131
L 827 131
L 827 131
L 827 131
L 827 131
L 827 131
L 827 131
L 827 131
L 828 131
L 828 131
L 828 131
L 828 131
L 828 131
L 828 131
L 828 131
L 828 131
L 828 131
L 828 131
L 828 131
L 829 131
L 829 131
L 829 130
L 829 130
L 829 130
L 829 130
L 829 130
L 829 130
L 829 130
L 829 130
L 829 130
L 829 130
L 829 130
L 829 130
L 829 130
L 829 130
L 830 130
L 830 130
L 830 130
L 830 130
L 830 130
L 830 130
L 830 130
L 831 130
L 831 130
L 831 130
L 831 130
L 831 130
L 831 130
L 831 129
L 831 129
L 832 129
L 832 129
L 832 129
L 832 129
L 832 129
L 832 129
L 832 129
L 832 129
L 832 129
L 832 129
L 832 129
L 833 129
L 833 129
L 833 129
L 833 129
L 833 129
L 833 129
L 833 129
L 833 129
L 833 129
L 833 129
L 833 129
L 833 129
L 833 129
L 834 128
L 834 128
L 834 128
L 834 128
L 834 128
L 834 128
L 834 128
L 834 128
L 834 128
L 834 128
L 834 128
L 834 128
L 835 128
L 835 128
L 835 128
L 835 128
L 835 128
L 835 128
L 835 128
L 835 128
L 835 128
L 835 128
L 835 128
L 835 128
L 835 128
L 835 128
L 835 128
L 835 127
L 835 127
L 836 127
L 836 127
L 836 127
L 836 127
L 836 127
L 836 127
L 837 127
L 837 127
L 837 127
L 837 127
L 837 127
L 837 127
L 837 127
L 837 127
L 837 127
L 837 127
L 838 127
L 838 127
L 838 127
L 838 127
L 838 127
L 838 127
L 838 127
L 838 127
L 838 127
L 838 126
L 838 126
L 838 126
L 838 126
L 838 126
L 838 126
L 838 126
L 839 126
L 839 126
L 839 126
L 839 126
L 839 126
L 839 126
L 839 126
L 839 126
L 839 126
L 839 126
L 839 126
L 839 126
L 840 126
L 840 126
L 840 126
L 840 126
L 840 126
L 840 126
L 840 126
L 840 126
L 840 125
L 840 125
L 840 125
L 841 125
L 841 125
L 841 125
L 841 125
L 841 125
L 841 125
L 841 125
L 842 125
L 842 125
L 842 125
L 842 125
L 842 125
L 842 125
L 842 125
L 842 125
L 843 125
L 843 125
L 843 125
L 843 125
L 843 125
L 843 125
L 843 125
L 843 125
L 843 124
L 843 124
L 843 124
L 843 124
L 843 124
L 843 124
L 843 124
L 843 124
L 843 124
L 843 124
L 843 124
L 843 124
L 843 124
L 843 124
L 843 124
L 843 124
L 843 124
L 843 124
L 843 124
L 843 124
L 843 124
L 843 124
L 843 124
L 844 124
L 844 124
L 844 124
L 844 124
L 844 123
L 844 123
L 844 123
L 844 123
L 844 123
L 844 123
L 844 123
L 844 123
L 844 123
L 844 123
L 844 123
L 844 123
L 844 123
L 844 123
L 844 123
L 844 123
L 844 123
L 844 123
L 844 123
L 844 123
L 844 123
L 844 123
L 845 123
L 845 123
L 845 123
L 845 123
L 845 123
L 845 122
L 845 122
L 845 122
L 845 122
L 845 122
L 845 122
L 845 122
L 845 122
L 845 122
L 845 122
L 845 122
L 845 122
L 845 122
L 845 122
L 845 122
L 845 122
L 845 122
L 845 122
L 845 122
L 845 122
L 845 122
L 845 122
L 845 122
L 845 122
L 846 122
L 846 122
L 846 122
L 846 121
L 846 121
L 846 121
L 846 121
L 846 121
L 846 121
L 846 121
L 846 121
L 846 121
L 846 121
L 847 121
L 847 121
L 847 121
L 847 121
L 847 121
L 847 121
L 847 121
L 847 121
L 847 121
L 847 121
L 847 121
L 847 121
L 848 121
L 848 121
L 848 121
L 848 121
L 848 120
L 848 120
L 848 120
L 848 120
L 848 120
L 848 120
L 848 120
L 848 120
L 848 120
L 849 120
L 849 120
L 849 120
L 849 120
L 849 120
L 849 120
L 849 120
L 849 120
L 849 120
L 849 120
L 849 120
L 849 120
L 849 120
L 849 120
L 850 120
L 850 120
L 850 120
L 850 120
L 850 119
L 850 119
L 850 119
L 850 119
L 850 119
L 850 119
L 850 119
L 850 119
L 850 119
L 850 119
L 850 119
L 851 119
L 851 119
L 851 119
L 851 119
L 851 119
L 851 119
L 851 119
L 851 119
L 851 119
L 851 119
L 851 119
L 851 119
L 851 119
L 851 119
L 851 119
L 852 119
L 852 118
L 852 118
L 852 118
L 852 118
L 852 118
L 852 118
L 852 118
L 852 118
L 853 118
L 853 118
L 853 118
L 853 118
L 853 118
L 853 118
L 853 118
L 853 118
L 853 118
L 854 118
L 854 118
L 854 118
L 854 118
L 854 118
L 854 118
L 854 118
L 854 118
L 854 118
L 854 118
L 854 117
L 854 117
L 855 117
L 855 117
L 855 117
L 855 117
L 855 117
L 855 117
L 855 117
L 855 117
L 855 117
L 855 117
L 855 117
L 855 117
L 855 117
L 855 117
L 855 117
L 855 117
L 856 117
L 856 117
L 856 117
L 856 117
L 856 117
L 856 117
L 856 117
L 856 117
L 857 116
L 857 116
L 857 116
L 857 116
L 857 116
L 857 116
L 857 116
L 857 116
L 857 116
L 857 116
L 857 116
L 857 116
L 858 116
L 858 116
L 858 116
L 858 116
L 858 116
L 858 116
L 858 116
L 858 116
L 858 116
L 858 116
L 858 116
L 858 116
L 858 116
L 859 116
L 859 116
L 859 115
L 859 115
L 859 115
L 859 115
L 859 115
L 859 115
L 859 115
L 859 115
L 859 115
L 859 115
L 859 115
L 859 115
L 859 115
L 859 115
L 859 115
L 859 115
L 859 115
L 859 115
L 859 115
L 859 115
L 860 115
L 860 115
L 860 115
L 860 115
L 860 115
L 860 115
L 860 115
L 860 114
L 860 114
L 860 114
L 860 114
L 861 114
L 861 114
L 861 114
L 861 114
L 861 114
L 861 114
L 861 114
L 861 114
L 861 114
L 861 114
L 861 114
L 862 114
L 862 114
L 862 114
L 862 114
L 862 114
L 862 114
L 862 114
L 862 114
L 862 114
L 862 114
L 863 114
L 863 114
L 863 113
L 863 113
L 863 113
L 864 113
L 864 113
L 864 113
L 864 113
L 864 113
L 864 113
L 864 113
L 864 113
L 864 113
L 864 113
L 864 113
L 865 113
L 865 113
L 865 113
L 865 113
L 865 113
L 865 113
L 865 113
L 865 113
L 865 113
L 865 113
L 865 113
L 865 113
L 865 113
L 866 112
L 866 112
L 866 112
L 866 112
L 866 112
L 866 112
L 866 112
L 866 112
L 866 112
L 866 112
L 866 112
L 866 112
L 866 112
L 866 112
L 866 112
L 866 112
L 867 112
L 867 112
L 867 112
L 867 112
L 867 112
L 867 112
L 867 112
L 867 112
L 867 112
L 867 112
L 867 111
L 868 111
L 868 111
L 868 111
L 868 111
L 868 111
L 868 111
L 868 111
L 868 111
L 869 111
L 869 111
L 869 111
L 869 111
L 869 111
L 869 111
L 869 111
L 869 111
L 870 111
L 870 111
L 870 111
L 870 111
L 870 111
L 870 111
L 870 111
L 870 111
L 870 111
L 870 111
L 870 110
L 870 110
L 870 110
L 870 110
L 871 110
L 871 110
L 871 110
L 871 110
L 871 110
L 871 110
L 871 110
L 871 110
L 871 110
L 871 110
L 871 110
L 871 110
L 872 110
L 872 110
L 872 110
L 872 110
L 872 110
L 872 110
L 872 110
L 872 110
L 872 110
L 872 110
L 872 110
L 872 109
L 872 109
L 872 109
L 872 109
L 872 109
L 872 109
L 872 109
L 872 109
L 872 109
L 872 109
L 872 109
L 872 109
L 872 109
L 872 109
L 872 109
L 872 109
L 872 109
L 872 109
L 872 109
L 872 109
L 872 109
L 872 109
L 872 109
L 872 109
L 872 109
L 872 109
L 872 109
L 872 108
L 872 108
L 872 108
L 872 108
L 872 108
L 872 108
L 872 108
L 872 108
L 872 108
L 872 108
L 872 108
L 872 108
L 872 108
L 872 108
L 873 108
L 873 108
L 873 108
L 873 108
L 873 108
L 873 108
L 873 108
L 873 108
L 873 108
L 873 108
L 873 108
L 873 108
L 873 107
L 873 107
L 873 107
L 873 107
L 873 107
L 873 107
L 873 107
L 873 107
L 873 107
L 873 107
L 873 107
L 873 107
L 873 107
L 873 107
L 873 107
L 873 107
L 873 107
L 873 107
L 873 107
L 873 107
L 873 107
L 873 107
L 873 107
L 873 107
L 873 107
L 873 107
L 873 107
L 873 106
L 873 106
L 873 106
L 873 106
L 873 106
L 874 106
L 874 106
L 874 106
L 874 106
L 874 106
L 874 106
L 874 106
L 874 106
L 874 106
L 874 106
L 874 106
L 874 106
L 874 106
L 874 106
L 874 106
L 874 106
L 875 106
L 875 106
L 875 106
L 875 106
L 875 106
L 875 106
L 875 105
L 875 105
L 875 105
L 875 105
L 875 105
L 875 105
L 875 105
L 875 105
L 876 105
L 876 105
L 876 105
L 876 105
L 876 105
L 876 105
L 876 105
L 876 105
L 876 105
L 876 105
L 876 105
L 876 105
L 876 105
L 876 105
L 876 105
L 876 105
L 876 105
L 876 105
L 876 105
L 876 104
L 876 104
L 876 104
L 876 104
L 876 104
L 876 104
L 876 104
L 876 104
L 876 104
L 876 104
L 876 104
L 876 104
L 876 104
L 876 104
L 876 104
L 876 104
L 876 104
L 876 104
L 876 104
L 876 104
L 876 104
L 876 104
L 876 104
L 876 104
L 876 104
L 876 104
L 876 103
L 876 103
L 876 103
L 876 103
L 876 103
L 876 103
L 876 103
L 876 103
L 876 103
L 876 103
L 877 103
L 877 103
L 877 103
L 877 103
L 877 103
L 877 103
L 877 103
L 877 103
L 877 103
L 877 103
L 877 103
L 877 103
L 877 103
L 877 103
L 877 103
L 877 103
L 877 103
L 877 102
L 877 102
L 877 102
L 877 102
L 877 102
L 877 102
L 877 102
L 877 102
L 877 102
L 877 102
L 877 102
L 877 102
L 877 102
L 877 102
L 877 102
L 877 102
L 877 102
L 877 102
L 877 102
L 877 102
L 877 102
L 877 102
L 877 102
L 877 102
L 877 102
L 877 102
L 877 102
L 877 101
L 877 101
L 877 101
L 877 101
L 877 101
L 877 101
L 877 101
L 877 101
L 877 101
L 877 101
L 877 101
L 877 101
L 877 101
L 877 101
L 877 101
L 877 101
L 877 101
L 877 101
L 877 101
L 877 101
L 877 101
L 878 101
L 878 101
L 878 101
L 878 101
L 878 101
L 878 101
L 878 100
L 878 100
L 878 100
L 878 100
L 878 100
L 878 100
L 878 100
L 878 100
L 878 100
L 878 100
L 878 100
L 878 100
L 878 100
L 878 100
L 878 100
L 878 100
L 878 100
L 878 100
L 878 100
L 878 100
L 878 100
L 878 100
L 878 100
L 878 100
L 878 100
L 878 100
L 878 99
L 878 99
L 878 99
L 878 99
L 878 99
L 878 99
L 878 99
L 878 99
L 878 99
L 878 99
L 878 99
L 878 99
L 878 99
L 878 99
L 878 99
L 879 99
L 879 99
L 879 99
L 879 99
L 879 99
L 879 99
L 879 99
L 879 99
L 879 99
L 879 99
L 879 99
L 879 99
L 879 98
L 879 98
L 879 98
L 879 98
L 879 98
L 879 98
L 879 98
L 879 98
L 879 98
L 879 98
L 879 98
L 879 98
L 879 98
L 879 98
L 879 98
L 879 98
L 879 98
L 879 98
L 879 98
L 879 98
L 879 98
L 879 98
L 879 98
L 879 98
L 879 98
L 879 98
L 879 98
L 879 97
L 879 97
L 879 97
L 879 97
L 879 97
L 879 97
L 879 97
L 879 97
L 879 97
L 879 97
L 879 97
L 880 97
L 880 97
L 880 97
L 880 97
L 880 97
L 880 97
L 880 97
L 880 97
L 880 97
L 880 97
L 880 97
L 880 97
L 880 97
L 880 97
L 880 97
L 880 97
L 880 96
L 880 96
L 880 96
L 880 96
L 880 96
L 881 96
L 881 96
L 881 96
L 881 96
L 881 96
L 881 96
L 881 96
L 881 96
L 881 96
L 881 96
L 881 96
L 881 96
L 881 96
L 881 96
L 881 96
L 881 96
L 881 96
L 881 96
L 881 96
L 881 96
L 881 96
L 881 96
L 881 95
L 881 95
L 881 95
L 881 95
L 881 95
L 881 95
L 881 95
L 881 95
L 881 95
L 882 95
L 882 95
L 882 95
L 882 95
L 882 95
L 882 95
L 882 95
L 882 95
L 882 95
L 882 95
L 882 95
L 882 95
L 882 95
L 882 95
L 882 95
L 882 95
L 882 95
L 882 94
L 882 94
L 882 94
L 882 94
L 882 94
L 882 94
L 882 94
L 882 94
L 883 94
L 883 94
L 883 94
L 883 94
L 883 94
L 883 94
L 883 94
L 883 94
L 883 94
L 883 94
L 883 94
L 883 94
L 883 94
L 883 94
L 883 94
L 883 94
L 883 94
L 883 94
L 883 94
L 884 93
L 884 93
L 884 93
L 884 93
L 884 93
L 884 93
L 884 93
L 884 93
L 884 93
L 884 93
L 885 93
L 885 93
L 885 93
L 885 93
L 885 93
L 885 93
L 885 93
L 885 93
L 885 93
L 885 93
L 885 93
L 885 93
L 885 93
L 885 93
L 886 93
L 886 93
L 886 93
L 886 92
L 886 92
L 886 92
L 886 92
L 886 92
L 886 92
L 886 92
L 886 92
L 886 92
L 886 92
L 886 92
L 886 92
L 886 92
L 886 92
L 886 92
L 886 92
L 886 92
L 887 92
L 887 92
L 887 92
L 887 92
L 887 92
L 887 92
L 887 92
L 887 92
L 887 92
L 887 92
L 887 91
L 887 91
L 887 91
L 887 91
L 887 91
L 887 91
L 887 91
L 887 91
L 887 91
L 887 91
L 887 91
L 887 91
L 888 91
L 888 91
L 888 91
L 888 91
L 888 91
L 888 91
L 888 91
L 888 91
L 888 91
L 888 91
L 888 91
L 888 91
L 888 91
L 888 91
L 888 90
L 888 90
L 888 90
L 888 90
L 888 90
L 888 90
L 888 90
L 888 90
L 888 90
L 888 90
L 888 90
L 888 90
L 888 90
L 888 90
L 888 90
L 888 90
L 888 90
L 888 90
L 888 90
L 888 90
L 889 90
L 889 90
L 889 90
L 889 90
L 889 90
L 889 90
L 889 90
L 889 89
L 889 89
L 889 89
L 889 89
L 889 89
L 889 89
L 889 89
L 889 89
L 889 89
L 889 89
L 889 89
L 889 89
L 890 89
L 890 89
L 890 89
L 890 89
L 890 89
L 890 89
L 890 89
L 890 89
L 890 89
L 890 89
L 890 89
L 890 89
L 890 89
L 890 89
L 890 89
L 890 88
L 890 88
L 890 88
L 890 88
L 890 88
L 890 88
L 890 88
L 890 88
L 890 88
L 890 88
L 890 88
L 890 88
L 890 88
L 890 88
L 890 88
L 890 88
L 891 88
L 891 88
L 891 88
L 891 88
L 891 88
L 891 88
L 891 88
L 891 88
L 891 88
L 891 88
L 891 88
L 891 87
L 891 87
L 891 87
L 891 87
L 891 87
L 892 87
L 892 87
L 892 87
L 892 87
L 892 87
L 892 87
L 892 87
L 892 87
L 892 87
L 892 87
L 892 87
L 892 87
L 893 87
L 893 87
L 893 87
L 893 87
L 893 87
L 893 87
L 893 87
L 893 87
L 893 87
L 893 86
L 894 86
L 894 86
L 894 86
L 894 86
L 894 86
L 894 86
L 894 86
L 894 86
L 894 86
L 894 86
L 894 86
L 894 86
L 894 86
L 894 86
L 894 86
L 894 86
L 894 86
L 894 86
L 894 86
L 894 86
L 894 86
L 894 86
L 894 86
L 894 86
L 894 86
L 894 86
L 894 85
L 894 85
L 894 85
L 894 85
L 894 85
L 894 85
L 894 85
L 895 85
L 895 85
L 895 85
L 895 85
L 895 85
L 895 85
L 895 85
L 895 85
L 895 85
L 895 85
L 895 85
L 895 85
L 895 85
L 895 85
L 895 85
L 895 85
L 895 85
L 895 85
L 895 85
L 895 85
L 895 84
L 895 84
L 895 84
L 895 84
L 895 84
L 896 84
L 896 84
L 896 84
L 896 84
L 896 84
L 896 84
L 896 84
L 896 84
L 896 84
L 896 84
L 896 84
L 897 84
L 897 84
L 897 84
L 897 84
L 897 84
L 897 84
L 897 84
L 897 84
L 897 84
L 897 84
L 897 84
L 897 83
L 897 83
L 898 83
L 898 83
L 898 83
L 898 83
L 898 83
L 898 83
L 898 83
L 898 83
L 898 83
L 898 83
L 898 83
L 898 83
L 898 83
L 898 83
L 898 83
L 898 83
L 898 83
L 898 83
L 898 83
L 898 83
L 899 83
L 899 83
L 899 83
L 899 83
L 899 82
L 899 82
L 899 82
L 899 82
L 899 82
L 899 82
L 899 82
L 900 82
L 900 82
L 900 82
L 900 82
L 900 82
L 900 82
L 900 82
L 900 82
L 900 82
L 900 82
L 901 82
L 901 82
L 901 82
L 901 82
L 901 82
L 901 82
L 901 82
L 901 82
L 901 82
L 901 82
L 902 81
L 902 81
L 902 81
L 902 81
L 902 81
L 902 81
L 902 81
L 902 81
L 902 81
L 902 81
L 902 81
L 903 81
L 903 81
L 903 81
L 903 81
L 903 81
L 903 81
L 903 81
L 904 81
L 904 81
L 904 81
L 904 81
L 905 81
L 905 81
L 905 81
L 905 81
L 905 81
L 905 80
L 905 80
L 906 80
L 906 80
L 906 80
L 906 80
L 906 80
L 906 80
L 906 80
L 906 80
L 906 80
L 906 80
L 907 80
L 907 80
L 907 80
L 907 80
L 907 80
L 907 80
L 908 80
L 908 80
L 908 80
L 908 80
L 908 80
L 908 80
L 908 80
L 908 80
L 908 80
L 908 79
L 908 79
L 909 79
L 909 79
L 909 79
L 909 79
L 909 79
L 909 79
L 909 79
L 909 79
L 909 79
L 909 79
L 909 79
L 909 79
L 909 79
L 909 79
L 909 79
L 909 79
L 909 79
L 910 79
L 910 79
L 910 79
L 910 79
L 910 79
L 910 79
L 910 79
L 910 79
L 910 78
L 910 78
L 910 78
L 910 78
L 910 78
L 910 78
L 910 78
L 910 78
L 910 78
L 910 78
L 910 78
L 910 78
L 910 78
L 910 78
L 910 78
L 911 78
L 911 78
L 911 78
L 911 78
L 911 78
L 911 78
L 911 78
L 911 78
L 911 78
L 911 78
L 911 78
L 911 77
L 911 77
L 911 77
L 911 77
L 911 77
L 911 77
L 911 77
L 911 77
L 911 77
L 911 77
L 911 77
L 911 77
L 912 77
L 912 77
L 912 77
L 912 77
L 912 77
L 912 77
L 912 77
L 912 77
L 912 77
L 912 77
L 912 77
L 912 77
L 913 77
L 913 77
L 913 77
L 913 76
L 913 76
L 913 76
L 914 76
L 914 76
L 914 76
L 914 76
L 914 76
L 914 76
L 914 76
L 914 76
L 915 76
L 915 76
L 915 76
L 915 76
L 915 76
L 915 76
L 915 76
L 915 76
L 915 76
L 915 76
L 915 76
L 915 76
L 915 76
L 916 76
L 916 76
L 916 76
L 916 75
L 916 75
L 916 75
L 916 75
L 916 75
L 916 75
L 917 75
L 917 75
L 917 75
L 917 75
L 917 75
L 917 75
L 917 75
L 917 75
L 918 75
L 918 75
L 918 75
L 918 75
L 918 75
L 918 75
L 918 75
L 919 75
L 919 75
L 919 75
L 919 75
L 919 75
L 919 75
L 919 74
L 920 74
L 920 74
L 920 74
L 920 74
L 920 74
L 920 74
L 920 74
L 920 74
L 920 74
L 920 74
L 920 74
L 920 74
L 920 74
L 920 74
L 920 74
L 920 74
L 920 74
L 921 74
L 921 74
L 921 74
L 921 74
L 921 74
L 921 74
L 921 74
L 921 74
L 921 73
L 921 73
L 921 73
L 921 73
L 921 73
L 921 73
L 921 73
L 921 73
L 921 73
L 921 73
L 921 73
L 921 73
L 921 73
L 921 73
L 921 73
L 922 73
L 922 73
L 922 73
L 922 73
L 922 73
L 922 73
L 922 73
L 922 73
L 922 73
L 922 73
L 922 73
L 922 73
L 923 72
L 923 72
L 923 72
L 923 72
L 923 72
L 923 72
L 923 72
L 923 72
L 923 72
L 923 72
L 923 72
L 923 72
L 923 72
L 923 72
L 923 72
L 924 72
L 924 72
L 924 72
L 924 72
L 924 72
L 924 72
L 924 72
L 924 72
L 924 72
L 924 72
L 924 72
L 925 72
L 925 71
L 925 71
L 925 71
L 925 71
L 925 71
L 925 71
L 925 71
L 925 71
L 925 71
L 925 71
L 926 71
L 926 71
L 926 71
L 926 71
L 926 71
L 926 71
L 926 71
L 926 71
L 926 71
L 926 71
L 926 71
L 926 71
L 926 71
L 926 71
L 926 71
L 926 71
L 927 71
L 927 70
L 927 70
L 927 70
L 927 70
L 927 70
L 927 70
L 927 70
L 928 70
L 928 70
L 928 70
L 928 70
L 928 70
L 928 70
L 928 70
L 928 70
L 928 70
L 928 70
L 928 70
L 928 70
L 928 70
L 928 70
L 928 70
L 928 70
L 928 70
L 929 70
L 929 70
L 929 69
L 929 69
L 929 69
L 930 69
L 930 69
L 930 69
L 930 69
L 930 69
L 930 69
L 930 69
L 930 69
L 930 69
L 930 69
L 930 69
L 930 69
L 931 69
L 931 69
L 931 69
L 931 69
L 931 69
L 932 69
L 932 69
L 932 69
L 932 69
L 932 69
L 932 69
L 932 69
L 932 68
L 933 68
L 933 68
L 933 68
L 933 68
L 933 68
L 933 68
L 933 68
L 933 68
L 933 68
L 933 68
L 933 68
L 934 68
L 934 68
L 934 68
L 934 68
L 935 68
L 935 68
L 935 68
L 935 68
L 935 68
L 936 68
L 936 68
L 936 68
L 936 68
L 936 68
L 936 68
L 936 67
L 936 67
L 937 67
L 937 67
L 937 67
L 937 67
L 937 67
L 937 67
L 937 67
L 937 67
L 937 67
L 937 67
L 937 67
L 937 67
L 937 67
L 937 67
L 938 67
L 938 67
L 938 67
L 938 67
L 938 67
L 938 67
L 938 67
L 938 67
L 938 67
L 938 67
L 938 67
L 938 66
L 938 66
L 938 66
L 938 66
L 938 66
L 938 66
L 938 66
L 938 66
L 938 66
L 939 66
L 939 66
L 939 66
L 939 66
L 939 66
L 939 66
L 939 66
L 939 66
L 939 66
L 939 66
L 940 66
L 940 66
L 940 66
L 940 66
L 940 66
L 940 66
L 940 66
L 940 65
L 940 65
L 940 65
L 941 65
L 941 65
L 941 65
L 941 65
L 941 65
L 941 65
L 941 65
L 941 65
L 941 65
L 941 65
L 941 65
L 941 65
L 942 65
L 942 65
L 942 65
L 942 65
L 942 65
L 942 65
L 942 65
L 942 65
L 942 65
L 942 65
L 942 65
L 943 65
L 943 64
L 943 64
L 943 64
L 943 64
L 943 64
L 943 64
L 943 64
L 944 64
L 944 64
L 944 64
L 944 64
L 945 64
L 945 64
L 945 64
L 945 64
L 945 64
L 946 64
L 946 64
L 947 64
L 947 64
L 947 64
L 947 64
L 947 64
L 947 64
L 947 64
L 947 64
L 947 64
L 947 63
L 947 63
L 947 63
L 948 63
L 948 63
L 948 63
L 948 63
L 948 63
L 948 63
L 948 63
L 948 63
L 948 63
L 948 63
L 948 63
L 949 63
L 949 63
L 949 63
L 949 63
L 949 63
L 949 63
L 949 63
L 949 63
L 949 63
L 949 63
L 949 63
L 949 63
L 949 63
L 949 62
L 949 62
L 949 62
L 949 62
L 949 62
L 949 62
L 949 62
L 949 62
L 949 62
L 949 62
L 949 62
L 949 62
L 949 62
L 949 62
L 949 62
L 949 62
L 949 62
L 950 62
L 950 62
L 950 62
L 950 62
L 950 62
L 950 62
L 950 62
L 950 62
L 950 62
L 950 62
L 950 61
L 950 61
L 950 61
L 950 61
L 950 61
L 951 61
L 951 61
L 951 61
L 951 61
L 951 61
L 951 61
L 951 61
L 951 61
L 951 61
L 951 61
L 951 61
L 951 61
L 951 61
L 951 61
L 951 61
L 951 61
L 951 61
L 951 61
L 951 61
L 951 61
L 951 61
L 951 60
L 951 60
L 951 60
L 951 60
L 951 60
L 951 60
L 951 60
L 952 60
L 952 60
L 952 60
L 952 60
L 952 60
L 952 60
L 952 60
L 952 60
L 952 60
L 952 60
L 952 60
L 952 60
L 952 60
L 952 60
L 952 60
L 952 60
L 952 60
L 952 60
L 952 60
L 952 60
L 952 59
L 952 59
L 952 59
L 952 59
L 952 59
L 952 59
L 952 59
L 952 59
L 952 59
L 952 59
L 952 59
L 952 59
L 952 59
L 952 59
L 952 59
L 952 59
L 952 59
L 952 59
L 952 59
L 952 59
L 952 59
L 952 59
L 952 59
L 952 59
L 952 59
L 952 59
L 952 59
L 952 58
L 952 58
L 952 58
L 952 58
L 952 58
L 952 58
L 952 58
L 952 58
L 952 58
L 952 58
L 952 58
L 952 58
L 952 58
L 952 58
L 952 58
L 952 58
L 952 58
L 952 58
L 952 58
L 952 58
L 952 58
L 952 58
L 952 58
L 952 58
L 952 58
L 952 58
L 952 58
L 952 57
L 952 57
L 952 57
L 952 57
L 952 57
L 952 57
L 952 57
L 952 57
L 952 57
L 952 57
L 952 57
L 952 57
L 952 57
L 952 57
L 952 57
L 953 57
L 953 57
L 953 57
L 953 57
L 953 57
L 953 57
L 953 57
L 953 57
L 953 57
L 953 57
L 953 57
L 953 56
L 953 56
L 953 56
L 953 56
L 953 56
L 953 56
L 953 56
L 953 56
L 953 56
L 953 56
L 953 56
L 953 56
L 953 56
L 953 56
L 953 56
L 953 56
L 953 56
L 953 56
L 953 56
L 953 56
L 953 56
L 953 56
L 953 56
L 953 56
L 953 56
L 953 56
L 953 56
L 953 55
L 953 55
L 953 55
L 953 55
L 953 55
L 953 55
L 953 55
L 953 55
L 953 55
L 953 55
L 953 55
L 953 55
L 953 55
L 953 55
L 953 55
L 953 55
L 953 55
L 953 55
L 953 55
L 953 55
L 953 55
L 953 55
L 953 55
L 953 55
L 953 55
L 953 55
L 953 55
L 953 54
L 953 54
L 953 54
L 953 54
L 953 54
L 953 54
L 953 54
L 953 54
L 953 54
L 953 54
L 953 54
L 953 54
L 953 54
L 953 54
L 953 54
L 953 54
L 953 54
L 953 54
L 953 54
L 953 54
L 953 54
L 953 54
L 953 54
L 953 54
L 953 54
L 953 54
L 953 54
L 953 53
L 953 53
L 953 53
L 953 53
L 953 53
L 953 53
L 953 53
L 953 53
L 953 53
L 953 53
L 953 53
L 953 53
L 953 53
L 953 53
L 953 53
L 953 53
L 953 53
L 953 53
L 953 53
L 953 53
L 953 53
L 953 53
L 953 53
L 953 53
L 953 53
L 953 53
L 953 52
L 953 52
L 953 52
L 953 52
L 953 52
L 953 52
L 953 52
L 953 52
L 953 52
L 953 52
L 953 52
L 953 52
L 953 52
L 953 52
L 953 52
L 953 52
L 953 52
L 953 52
L 953 52
L 953 52
L 953 52
L 953 52
L 953 52
L 953 52
L 953 52
L 953 52
L 953 52
L 953 51
L 953 51
L 953 51
L 953 51
L 953 51
L 953 51
L 953 51
L 953 51
L 953 51
L 953 51
L 953 51
L 953 51
L 953 51
L 953 51
L 953 51
L 953 51
L 953 51
L 953 51
L 953 51
L 953 51
L 953 51
L 953 51
L 953 51
L 953 51
L 953 51
L 953 51
L 953 51
L 953 50
L 953 50
L 953 50
L 953 50
L 953 50
L 953 50
L 953 50
L 953 50
L 953 50
L 953 50
L 953 50
L 953 50
L 953 50
L 953 50
L 953 50
L 953 50
L 953 50
L 953 50
L 953 50
L 953 50
L 953 50
L 953 50
L 954 50
L 954 50
L 954 50
L 954 50
L 954 50
L 954 49
L 954 49
L 954 49
L 954 49
L 954 49
L 954 49
L 954 49
L 954 49
L 954 49
L 954 49
L 954 49
L 954 49
L 954 49
L 954 49
L 954 49
L 954 49
L 954 49
L 954 49
L 954 49
L 954 49
L 954 49
L 954 49
L 954 49
L 954 49
L 954 49
L 954 49
L 954 48
L 954 48
L 954 48
L 954 48
L 954 48
L 954 48
L 954 48
L 954 48
L 954 48
L 954 48
L 954 48
L 954 48
L 954 48
L 954 48
L 954 48
L 954 48
L 954 48
L 954 48
L 954 48
L 954 48
L 954 48
L 954 48
L 954 48
L 954 48
L 954 48
L 954 48
L 954 48
L 954 47
L 954 47
L 954 47
L 954 47
L 954 47
L 954 47
L 954 47
L 954 47
L 954 47
L 954 47
L 954 47
L 954 47
L 954 47
L 954 47
L 954 47
L 954 47
L 954 47
L 954 47
L 954 47
L 954 47
L 954 47
L 954 47
L 954 47
L 954 47
L 954 47
L 954 47
L 954 47
L 954 46
L 954 46
L 954 46
L 954 46
L 954 46
L 954 46
L 954 46
L 954 46
L 954 46
L 954 46
L 954 46
L 954 46
L 954 46
L 954 46
L 954 46
L 954 46
L 954 46
L 954 46
L 954 46
L 954 46
L 954 46
L 954 46
L 954 46
L 954 46
L 954 46
L 954 46
L 954 46
L 954 45
L 954 45
L 954 45
L 954 45
L 954 45
L 954 45
L 954 45
L 954 45
L 954 45
L 954 45
L 954 45
L 954 45
L 954 45
L 954 45
L 954 45
L 954 45
L 954 45
L 954 45
L 954 45
L 954 45
L 954 45
L 954 45
L 954 45
L 954 45
L 954 45
L 954 45
L 954 45
L 954 44
L 954 44
L 954 44
L 954 44
L 954 44
L 954 44
L 954 44
L 954 44
L 954 44
L 954 44
L 954 44
L 954 44
L 954 44
L 954 44
L 954 44
L 954 44
L 954 44
L 954 44
L 954 44
L 954 44
L 954 44
L 954 44
L 954 44
L 954 44
L 954 44
L 954 44
L 954 43
L 954 43
L 954 43
L 954 43
L 954 43
L 954 43
L 954 43
L 954 43
L 954 43
L 954 43
L 954 43
L 954 43
L 954 43
L 954 43
L 954 43
L 954 43
L 954 43
L 954 43
L 954 43
L 954 43
L 954 43
L 954 43
L 954 43
L 954 43
L 954 43
L 954 43
L 954 43
L 954 42
L 954 42
L 954 42
L 954 42
L 954 42
L 954 42
L 954 42
L 954 42
L 954 42
L 954 42
L 954 42
L 954 42
L 954 42
L 954 42
L 954 42
L 954 42
L 954 42
L 955 42
L 955 42
L 955 42
L 955 42
L 955 42
L 955 42
L 955 42
L 955 42
L 955 42
L 955 42
L 955 41
L 955 41
L 955 41
L 955 41
L 955 41
L 955 41
L 955 41
L 955 41
L 955 41
L 955 41
L 955 41
L 955 41
L 955 41
L 955 41
L 955 41
L 955 41
L 955 41
L 955 41
L 955 41
L 955 41
L 955 41
L 955 41
L 955 41
L 955 41
L 955 41
L 955 41
L 955 41
L 955 40
L 955 40
L 955 40
L 955 40
L 955 40
L 955 40
L 955 40
L 955 40
L 955 40
L 955 40
L 955 40
L 955 40
L 955 40
L 955 40
L 955 40
L 955 40
L 955 40
L 955 40
L 955 40
L 955 40
L 955 40
L 955 40
L 955 40
L 955 40
L 955 40
L 955 40
L 955 39
L 955 39
L 955 39
L 955 39
L 955 39
L 955 39
L 955 39
L 955 39
L 955 39
L 955 39
L 955 39
L 955 39
L 955 39
L 955 39
L 955 39
L 955 39
L 955 39
L 955 39
L 955 39
L 955 39
L 955 39
L 955 39
L 955 39
L 955 39
L 955 39
L 955 39
L 955 39
L 955 38
L 955 38
L 955 38
L 955 38
L 955 38
L 955 38
L 955 38
L 955 38
L 955 38
L 955 38
L 955 38
L 955 38
L 955 38
L 955 38
L 955 38
L 955 38
L 955 38
L 955 38
L 955 38
L 955 38
L 955 38
L 955 38
L 955 38
L 955 38
L 955 38
L 955 38
L 955 38
L 955 37
L 955 37
L 955 37
L 955 37
L 955 37
L 955 37
L 955 37
L 955 37
L 955 37
L 955 37
L 955 37
L 955 37
L 955 37
L 955 37
L 955 37
L 955 37
L 955 37
L 955 37
L 955 37
L 955 37
L 955 37
L 955 37
L 955 37
L 955 37
L 955 37
L 955 37
L 955 37
L 955 36
L 955 36
L 955 36
L 955 36
L 955 36
L 955 36
L 955 36
L 955 36
L 955 36
L 955 36
L 955 36
L 955 36
L 955 36
L 955 36
L 955 36
L 955 36
L 955 36
L 955 36
L 955 36
L 955 36
L 955 36
L 955 36
L 955 36
L 955 36
L 955 36
L 955 36
L 955 35
L 955 35
L 955 35
L 955 35
L 955 35
L 955 35
L 955 35
L 955 35
L 955 35
L 955 35
L 955 35
L 955 35
L 955 35
L 955 35
L 955 35
L 955 35
L 955 35
L 955 35
L 955 35
L 955 35
L 955 35
L 955 35
L 955 35
L 955 35
L 955 35
L 955 35
L 955 35
L 955 34
L 955 34
L 955 34
L 955 34
L 955 34
L 955 34
L 955 34
L 955 34
L 955 34
L 955 34
L 955 34
L 955 34
L 955 34
L 955 34
L 955 34
L 955 34
L 955 34
L 955 34
L 955 34
L 955 34
L 955 34
L 955 34
L 955 34
L 955 34
L 955 34
L 955 34
L 955 34
L 955 33
L 955 33
L 955 33
L 955 33
L 955 33
L 955 33
L 955 33
L 955 33
L 955 33
L 955 33
L 955 33
L 955 33
L 955 33
L 955 33
L 955 33
L 955 33
L 955 33
L 955 33
L 955 33
L 955 33
L 955 33
L 955 33
L 955 33
L 955 33
L 955 33
L 955 33
L 955 33
L 955 32
L 955 32
L 955 32
L 955 32
L 955 32
L 955 32
L 955 32
L 955 32
L 955 32
L 955 32
L 955 32
L 955 32
L 955 32
L 955 32
L 955 32
L 955 32
L 955 32
L 955 32
L 955 32
L 955 32
L 955 32
L 955 32
L 955 32
L 955 32
L 955 32
L 955 32
L 955 31
L 955 31
L 955 31
L 955 31
L 955 31
L 955 31
L 955 31
L 955 31
L 955 31
L 955 31
L 955 31
L 955 31
L 955 31
L 955 31
L 955 31
L 955 31
L 955 31
L 955 31
L 955 31
L 955 31
L 955 31
L 955 31
L 955 31
L 955 31
L 955 31
L 955 31
L 955 31
L 955 30
L 955 30
L 955 30
L 955 30
L 955 30
L 955 30
L 955 30
L 955 30
L 955 30
L 955 30
L 955 30
L 955 30
L 955 30
L 955 30
L 955 30
L 955 30
L 955 30
L 955 30
L 955 30
L 955 30
L 955 30
L 955 30
L 956 30
L 956 30
L 956 30
L 956 30
L 956 30
L 956 29
L 956 29
L 956 29
L 956 29
L 956 29
L 956 29
L 956 29
L 956 29
L 956 29
L 956 29
L 956 29
L 956 29
L 956 29
L 956 29
L 956 29
L 956 29
L 956 29
L 956 29
L 956 29
L 956 29
L 956 29
L 956 29
L 956 29
L 956 29
L 956 29
L 956 29
L 956 29
L 956 28
L 956 28
L 956 28
L 956 28
L 956 28
L 956 28
L 956 28
L 956 28
L 956 28
L 956 28
L 956 28
L 956 28
L 956 28
L 956 28
L 956 28
L 956 28
L 956 28
L 956 28
L 956 28
L 956 28
L 956 28
L 956 28
L 956 28
L 956 28
L 956 28
L 956 28
L 956 28
L 956 27
L 956 27
L 956 27
L 956 27
L 956 27
L 956 27
L 956 27
L 956 27
L 956 27
L 956 27
L 956 27
L 956 27
L 956 27
L 956 27
L 956 27
L 956 27
L 956 27
L 956 27
L 956 27
L 956 27
L 956 27
L 956 27
L 956 27
L 956 27
L 956 27
L 956 27
L 956 26
L 956 26
L 956 26
L 956 26
L 956 26
L 956 26
L 956 26
L 956 26
L 956 26
L 956 26
L 956 26
L 956 26
L 956 26
L 956 26
L 956 26
L 956 26
L 956 26
L 956 26
L 956 26
L 956 26
L 956 26
L 956 26
L 956 26
L 956 26
L 956 26
L 956 26
L 956 26
L 956 25
L 956 25
L 956 25
L 956 25
L 956 25
L 956 25
L 956 25
L 956 25
L 956 25
L 956 25
L 956 25
L 956 25
L 956 25
L 956 25
L 956 25
L 956 25
L 956 25
L 956 25
L 956 25
L 956 25
L 956 25
L 956 25
L 956 25
L 956 25
L 956 25
L 956 25
L 956 25
L 956 24
L 956 24
L 956 24
L 956 24
L 956 24
L 956 24
L 956 24
L 956 24
L 956 24
L 956 24
L 956 24
L 956 24
L 956 24
L 956 24
L 956 24
L 956 24
L 956 24
L 956 24
L 956 24
L 956 24
L 956 24
L 956 24
L 956 24
L 956 24
L 956 24
L 956 24
L 956 24
L 956 23
L 956 23
L 956 23
L 956 23
L 956 23
L 956 23
L 956 23
L 956 23
L 956 23
L 956 23
L 956 23
L 956 23
L 956 23
L 956 23
L 956 23
L 956 23
L 956 23
L 956 23
L 956 23
L 956 23
L 956 23
L 956 23
L 956 23
L 956 23
L 956 23
L 956 23
L 956 22
L 956 22
L 956 22
L 956 22
L 956 22
L 956 22
L 956 22
L 956 22
L 956 22
L 956 22
L 956 22
L 956 22
L 956 22
L 956 22
L 956 22
L 956 22
L 956 22
L 956 22
L 956 22
L 956 22
L 956 22
L 956 22
L 956 22
L 956 22
L 956 22
L 956 22
L 956 22
L 956 21
L 956 21
L 956 21
L 956 21
L 956 21
L 956 21
L 956 21
L 956 21
L 957 21
L 957 21
L 957 21
L 957 21
L 957 21
L 957 21
L 957 21
L 957 21
L 957 21
L 957 21
L 957 21
L 957 21
L 957 21
L 957 21
L 957 21
L 957 21
L 957 21
L 957 21
L 957 21
L 957 20
L 957 20
L 957 20
L 957 20
L 957 20
L 957 20
L 957 20
L 957 20
L 957 20
L 957 20
L 957 20
L 957 20
L 957 20
L 957 20
L 957 20
L 957 20
L 957 20
L 957 20
L 957 20
L 957 20
L 957 20
L 957 20
L 957 20
L 957 20
L 957 20
L 957 20
L 957 20
L 957 19
L 957 19
L 957 19
L 957 19
L 957 19
L 957 19
L 957 19
L 957 19
L 957 19
L 957 19
L 957 19
L 957 19
L 957 19
L 957 19
L 957 19
L 957 19
L 957 19
L 957 19
L 957 19
L 957 19
L 957 19
L 957 19
L 957 19
L 957 19
L 957 19
L 957 19
L 957 18
L 957 18
L 957 18
L 957 18
L 957 18
L 957 18
L 957 18
L 957 18
L 957 18
L 957 18
L 957 18
L 957 18
L 957 18
L 957 18
L 957 18
L 957 18
L 957 18
L 957 18
L 957 18
L 957 18
L 957 18
L 957 18
L 957 18
L 957 18
L 957 18
L 957 18
L 957 18
L 957 17
L 957 17
L 957 17
L 957 17
L 957 17
L 957 17
L 957 17
L 957 17
L 957 17
L 957 17
L 957 17
L 957 17
L 957 17
L 957 17
L 957 17
L 957 17
L 957 17
L 957 17
L 957 17
L 957 17
L 957 17
L 957 17
L 957 17
L 957 17
L 957 17
L 957 17
L 957 17
L 957 16
L 957 16
L 957 16
L 957 16
L 957 16
L 957 16
L 957 16
L 957 16
L 957 16
L 957 16
L 957 16
L 957 16
L 957 16
L 957 16
L 957 16
L 957 16
L 957 16
L 957 16
L 957 16
L 957 16
L 957 16
L 957 16
L 957 16
L 957 16
L 957 16
L 957 16
L 957 16
L 957 15
L 957 15
L 957 15
L 957 15
L 957 15
L 957 15
L 957 15
L 957 15
L 957 15
L 957 15
L 957 15
L 957 15
L 957 15
L 957 15
L 957 15
L 957 15
L 957 15
L 957 15
L 957 15
L 957 15
L 957 15
L 957 15
L 957 15
L 957 15
L 957 15
L 957 15
L 957 14
L 957 14
L 957 14
L 957 14
L 957 14
L 957 14
L 957 14
L 957 14
L 957 14
L 957 14
L 957 14
L 957 14
L 957 14
L 957 14
L 957 14
L 957 14
L 957 14
L 957 14
L 957 14
L 957 14
L 957 14
L 957 14
L 957 14
L 957 14
L 957 14
L 957 14
L 957 14
L 957 13
L 957 13
L 957 13
L 957 13
L 957 13
L 957 13
L 957 13
L 957 13
L 957 13
L 957 13
L 957 13" style="stroke-width:2;stroke:rgba(129,199,239,1.0);fill:none"/></svg>