<!-- stars: 7555 -->
<svg xmlns="http://www.w3.org/2000/svg" xmlns:xlink="http://www.w3.org/1999/xlink" width="1024" height="400">\n<path  d="M 0 0
L 1024 0
L 1024 400
L 0 400
L 0 0" style="stroke-width:0;stroke:rgba(255,255,255,1.0);fill:rgba(255,255,255,1.0)"/><path  d="M 38 11
L 957 11
L 957 351
L 38 351
L 38 11" style="stroke-width:0;stroke:rgba(255,255,255,1.0);fill:rgba(255,255,255,1.0)"/><path  d="M 38 351
L 957 351" style="stroke-width:2;stroke:rgba(85,85,85,1.0);fill:none"/><path  d="M 38 351
L 38 356" style="stroke-width:2;stroke:rgba(85,85,85,1.0);fill:none"/><text x="5" y="373" style="stroke-width:0;stroke:none;fill:rgba(51,51,51,1.0);font-size:12.8px;font-family:'Roboto Medium',sans-serif">2018-09-25</text><path  d="M 153 351
L 153 356" style="stroke-width:2;stroke:rgba(85,85,85,1.0);fill:none"/><text x="120" y="373" style="stroke-width:0;stroke:none;fill:rgba(51,51,51,1.0);font-size:12.8px;font-family:'Roboto Medium',sans-serif">2019-02-14</text><path  d="M 268 351
L 268 356" style="stroke-width:2;stroke:rgba(85,85,85,1.0);fill:none"/><text x="235" y="373" style="stroke-width:0;stroke:none;fill:rgba(51,51,51,1.0);font-size:12.8px;font-family:'Roboto Medium',sans-serif">2019-07-06</text><path  d="M 383 351
L 383 356" style="stroke-width:2;stroke:rgba(85,85,85,1.0);fill:none"/><text x="350" y="373" style="stroke-width:0;stroke:none;fill:rgba(51,51,51,1.0);font-size:12.8px;font-family:'Roboto Medium',sans-serif">2019-11-25</text><path  d="M 498 351
L 498 356" style="stroke-width:2;stroke:rgba(85,85,85,1.0);fill:none"/><text x="465" y="373" style="stroke-width:0;stroke:none;fill:rgba(51,51,51,1.0);font-size:12.8px;font-family:'Roboto Medium',sans-serif">2020-04-15</text><path  d="M 613 351
L 613 356" style="stroke-width:2;stroke:rgba(85,85,85,1.0);fill:none"/><text x="580" y="373" style="stroke-width:0;stroke:none;fill:rgba(51,51,51,1.0);font-size:12.8px;font-family:'Roboto Medium',sans-serif">2020-09-04</text><path  d="M 728 351
L 728 356" style="stroke-width:2;stroke:rgba(85,85,85,1.0);fill:none"/><text x="695" y="373" style="stroke-width:0;stroke:none;fill:rgba(51,51,51,1.0);font-size:12.8px;font-family:'Roboto Medium',sans-serif">2021-01-25</text><path  d="M 843 351
L 843 356" style="stroke-width:2;stroke:rgba(85,85,85,1.0);fill:none"/><text x="810" y="373" style="stroke-width:0;stroke:none;fill:rgba(51,51,51,1.0);font-size:12.8px;font-family:'Roboto Medium',sans-serif">2021-06-16</text><path  d="M 957 351
L 957 356" style="stroke-width:2;stroke:rgba(85,85,85,1.0);fill:none"/><text x="924" y="373" style="stroke-width:0;stroke:none;fill:rgba(51,51,51,1.0);font-size:12.8px;font-family:'Roboto Medium',sans-serif">2021-11-05</text><text x="483" y="395" style="stroke-width:0;stroke:none;fill:rgba(51,51,51,1.0);font-size:12.8px;font-family:'Roboto Medium',sans-serif">Time</text><path  d="M 959 351
L 959 11" style="stroke-width:2;stroke:rgba(85,85,85,1.0);fill:none"/><path  d="M 959 351
L 964 351" style="stroke-width:2;stroke:rgba(85,85,85,1.0);fill:none"/><text x="969" y="357" style="stroke-width:0;stroke:none;fill:rgba(51,51,51,1.0);font-size:12.8px;font-family:'Roboto Medium',sans-serif">0</text><path  d="M 959 308
L 964 308" style="stroke-width:2;stroke:rgba(85,85,85,1.0);fill:none"/><text x="969" y="314" style="stroke-width:0;stroke:none;fill:rgba(51,51,51,1.0);font-size:12.8px;font-family:'Roboto Medium',sans-serif">950</text><path  d="M 959 266
L 964 266" style="stroke-width:2;stroke:rgba(85,85,85,1.0);fill:none"/><text x="969" y="272" style="stroke-width:0;stroke:none;fill:rgba(51,51,51,1.0);font-size:12.8px;font-family:'Roboto Medium',sans-serif">1900</text><path  d="M 959 223
L 964 223" style="stroke-width:2;stroke:rgba(85,85,85,1.0);fill:none"/><text x="969" y="229" style="stroke-width:0;stroke:none;fill:rgba(51,51,51,1.0);font-size:12.8px;font-family:'Roboto Medium',sans-serif">2850</text><path  d="M 959 181
L 964 181" style="stroke-width:2;stroke:rgba(85,85,85,1.0);fill:none"/><text x="969" y="187" style="stroke-width:0;stroke:none;fill:rgba(51,51,51,1.0);font-size:12.8px;font-family:'Roboto Medium',sans-serif">3800</text><path  d="M 959 138
L 964 138" style="stroke-width:2;stroke:rgba(85,85,85,1.0);fill:none"/><text x="969" y="144" style="stroke-width:0;stroke:none;fill:rgba(51,51,51,1.0);font-size:12.8px;font-family:'Roboto Medium',sans-serif">4750</text><path  d="M 959 96
L 964 96" style="stroke-width:2;stroke:rgba(85,85,85,1.0);fill:none"/><text x="969" y="102" style="stroke-width:0;stroke:none;fill:rgba(51,51,51,1.0);font-size:12.8px;font-family:'Roboto Medium',sans-serif">5700</text><path  d="M 959 53
L 964 53" style="stroke-width:2;stroke:rgba(85,85,85,1.0);fill:none"/><text x="969" y="59" style="stroke-width:0;stroke:none;fill:rgba(51,51,51,1.0);font-size:12.8px;font-family:'Roboto Medium',sans-serif">6650</text><path  d="M 959 11
L 964 11" style="stroke-width:2;stroke:rgba(85,85,85,1.0);fill:none"/><text x="969" y="17" style="stroke-width:0;stroke:none;fill:rgba(51,51,51,1.0);font-size:12.8px;font-family:'Roboto Medium',sans-serif">7600</text><text x="1009" y="150" style="stroke-width:0;stroke:none;fill:rgba(51,51,51,1.0);font-size:12.8px;font-family:'Roboto Medium',sans-serif" transform="rotate(90.00,1009,150)">Stargazers</text><path  d="M 38 351
L 40 350
L 51 350
L 51 350
L 51 350
L 52 350
L 52 350
L 54 350
L 55 350
L 56 350
L 57 350
L 58 350
L 58 350
L 59 350
L 59 350
L 59 350
L 61 350
L 68 350
L 68 350
L 70 350
L 70 350
L 71 350
L 73 350
L 73 349
L 75 349
L 75 349
L 80 349
L 84 349
L 90 349
L 90 349
L 95 349
L 95 349
L 95 349
L 95 349
L 96 349
L 96 349
L 96 349
L 96 349
L 97 349
L 97 349
L 97 349
L 99 349
L 100 349
L 100 349
L 101 349
L 101 348
L 101 348
L 102 348
L 102 348
L 103 348
L 105 348
L 105 348
L 106 348
L 107 348
L 109 348
L 110 348
L 110 348
L 111 348
L 112 348
L 112 348
L 112 348
L 113 348
L 113 348
L 114 348
L 114 348
L 114 348
L 114 348
L 115 348
L 115 347
L 115 347
L 115 347
L 115 347
L 116 347
L 117 347
L 117 347
L 117 347
L 118 347
L 119 347
L 119 347
L 120 347
L 120 347
L 123 347
L 123 347
L 123 347
L 123 347
L 123 347
L 123 347
L 124 347
L 124 347
L 125 347
L 125 346
L 126 346
L 126 346
L 128 346
L 129 346
L 129 346
L 129 346
L 130 346
L 130 346
L 132 346
L 134 346
L 136 346
L 136 346
L 137 346
L 137 346
L 137 346
L 145 346
L 148 346
L 152 346
L 152 346
L 153 346
L 153 346
L 154 345
L 155 345
L 155 345
L 157 345
L 157 345
L 157 345
L 158 345
L 158 345
L 158 345
L 158 345
L 159 345
L 159 345
L 160 345
L 162 345
L 162 345
L 165 345
L 165 345
L 168 345
L 168 345
L 169 345
L 170 345
L 170 345
L 170 345
L 171 344
L 171 344
L 172 344
L 173 344
L 174 344
L 175 344
L 176 344
L 177 344
L 179 344
L 179 344
L 180 344
L 181 344
L 181 344
L 181 344
L 182 344
L 182 344
L 186 344
L 186 344
L 187 344
L 187 344
L 187 344
L 188 344
L 188 343
L 188 343
L 189 343
L 189 343
L 189 343
L 190 343
L 190 343
L 191 343
L 191 343
L 191 343
L 191 343
L 191 343
L 192 343
L 192 343
L 192 343
L 192 343
L 192 343
L 192 343
L 192 343
L 192 343
L 193 343
L 193 343
L 193 342
L 194 342
L 196 342
L 196 342
L 196 342
L 197 342
L 197 342
L 198 342
L 198 342
L 198 342
L 198 342
L 198 342
L 199 342
L 199 342
L 199 342
L 200 342
L 202 342
L 202 342
L 203 342
L 205 342
L 205 342
L 208 342
L 208 342
L 208 341
L 209 341
L 209 341
L 209 341
L 209 341
L 210 341
L 210 341
L 212 341
L 212 341
L 212 341
L 213 341
L 213 341
L 213 341
L 214 341
L 215 341
L 215 341
L 216 341
L 216 341
L 217 341
L 217 341
L 218 341
L 219 341
L 220 340
L 221 340
L 222 340
L 222 340
L 222 340
L 222 340
L 223 340
L 224 340
L 226 340
L 227 340
L 230 340
L 231 340
L 232 340
L 234 340
L 235 340
L 236 340
L 236 340
L 237 340
L 242 340
L 242 340
L 242 340
L 243 340
L 243 339
L 244 339
L 244 339
L 244 339
L 244 339
L 245 339
L 250 339
L 253 339
L 254 339
L 254 339
L 254 339
L 254 339
L 254 339
L 255 339
L 255 339
L 255 339
L 255 339
L 256 339
L 256 339
L 259 339
L 259 339
L 259 339
L 261 339
L 262 338
L 262 338
L 263 338
L 263 338
L 264 338
L 264 338
L 265 338
L 265 338
L 265 338
L 265 338
L 266 338
L 266 338
L 266 338
L 266 338
L 267 338
L 267 338
L 267 338
L 267 338
L 268 338
L 268 338
L 269 338
L 269 338
L 269 337
L 270 337
L 271 337
L 272 337
L 273 337
L 273 337
L 274 337
L 275 337
L 275 337
L 276 337
L 276 337
L 278 337
L 280 337
L 281 337
L 282 337
L 284 337
L 285 337
L 286 337
L 287 337
L 287 337
L 288 337
L 289 337
L 293 336
L 297 336
L 297 336
L 299 336
L 300 336
L 302 336
L 303 336
L 306 336
L 308 336
L 309 336
L 309 336
L 310 336
L 312 336
L 317 336
L 317 336
L 317 336
L 318 336
L 319 336
L 329 336
L 330 336
L 331 336
L 331 336
L 331 336
L 331 335
L 331 335
L 331 335
L 331 335
L 331 335
L 331 335
L 332 335
L 332 335
L 332 335
L 334 335
L 337 335
L 337 335
L 337 335
L 343 335
L 345 335
L 346 335
L 347 335
L 347 335
L 348 335
L 348 335
L 350 335
L 350 335
L 350 334
L 350 334
L 352 334
L 352 334
L 352 334
L 355 334
L 355 334
L 355 334
L 356 334
L 361 334
L 372 334
L 373 334
L 377 334
L 379 334
L 379 334
L 381 334
L 384 334
L 384 334
L 384 334
L 384 334
L 385 334
L 385 334
L 386 334
L 389 333
L 389 333
L 392 333
L 393 333
L 397 333
L 397 333
L 397 333
L 403 333
L 405 333
L 406 333
L 407 333
L 407 333
L 407 333
L 408 333
L 408 333
L 408 333
L 409 333
L 409 333
L 409 333
L 409 333
L 411 333
L 412 333
L 415 332
L 417 332
L 418 332
L 422 332
L 422 332
L 422 332
L 423 332
L 423 332
L 424 332
L 426 332
L 428 332
L 428 332
L 433 332
L 433 332
L 434 332
L 435 332
L 436 332
L 438 332
L 440 332
L 443 332
L 447 332
L 448 332
L 449 331
L 449 331
L 452 331
L 459 331
L 461 331
L 463 331
L 465 331
L 465 331
L 465 331
L 466 331
L 467 331
L 467 331
L 468 331
L 469 331
L 470 331
L 470 331
L 470 331
L 470 331
L 470 331
L 472 331
L 472 331
L 473 331
L 473 331
L 474 330
L 475 330
L 475 330
L 475 330
L 475 330
L 475 330
L 476 330
L 476 330
L 476 330
L 476 330
L 476 330
L 477 330
L 477 330
L 478 330
L 478 330
L 480 330
L 480 330
L 481 330
L 482 330
L 482 330
L 482 330
L 482 330
L 483 329
L 483 329
L 483 329
L 484 329
L 484 329
L 485 329
L 485 329
L 485 329
L 485 329
L 486 329
L 487 329
L 488 329
L 490 329
L 490 329
L 490 329
L 490 329
L 490 329
L 491 329
L 491 329
L 492 329
L 492 329
L 493 329
L 493 328
L 493 328
L 493 328
L 493 328
L 493 328
L 493 328
L 493 328
L 493 328
L 493 328
L 493 328
L 493 328
L 494 328
L 494 328
L 494 328
L 494 328
L 495 328
L 495 328
L 495 328
L 496 328
L 496 328
L 496 328
L 497 328
L 498 328
L 498 327
L 499 327
L 499 327
L 499 327
L 500 327
L 502 327
L 502 327
L 502 327
L 502 327
L 502 327
L 502 327
L 502 327
L 502 327
L 502 327
L 502 327
L 502 327
L 502 327
L 502 327
L 502 327
L 502 327
L 502 327
L 502 327
L 502 326
L 502 326
L 502 326
L 502 326
L 502 326
L 502 326
L 502 326
L 502 326
L 503 326
L 503 326
L 503 326
L 503 326
L 503 326
L 503 326
L 503 326
L 504 326
L 504 326
L 504 326
L 504 326
L 504 326
L 505 326
L 505 326
L 505 325
L 506 325
L 506 325
L 506 325
L 507 325
L 507 325
L 508 325
L 508 325
L 508 325
L 508 325
L 508 325
L 509 325
L 509 325
L 509 325
L 509 325
L 509 325
L 510 325
L 511 325
L 511 325
L 512 325
L 512 325
L 513 325
L 514 325
L 515 324
L 515 324
L 515 324
L 515 324
L 515 324
L 515 324
L 516 324
L 516 324
L 516 324
L 516 324
L 517 324
L 518 324
L 518 324
L 518 324
L 519 324
L 519 324
L 520 324
L 520 324
L 520 324
L 521 324
L 521 324
L 521 324
L 522 323
L 522 323
L 522 323
L 523 323
L 523 323
L 523 323
L 523 323
L 523 323
L 523 323
L 525 323
L 525 323
L 526 323
L 527 323
L 527 323
L 527 323
L 527 323
L 528 323
L 528 323
L 529 323
L 529 323
L 529 323
L 529 323
L 530 322
L 531 322
L 531 322
L 531 322
L 531 322
L 532 322
L 532 322
L 532 322
L 532 322
L 532 322
L 532 322
L 533 322
L 533 322
L 533 322
L 533 322
L 533 322
L 533 322
L 534 322
L 534 322
L 535 322
L 535 322
L 536 322
L 537 322
L 537 321
L 537 321
L 537 321
L 538 321
L 538 321
L 538 321
L 539 321
L 540 321
L 540 321
L 540 321
L 540 321
L 540 321
L 540 321
L 540 321
L 540 321
L 540 321
L 540 321
L 540 321
L 540 321
L 540 321
L 540 321
L 540 321
L 541 320
L 541 320
L 541 320
L 541 320
L 541 320
L 541 320
L 542 320
L 542 320
L 542 320
L 542 320
L 543 320
L 544 320
L 544 320
L 545 320
L 545 320
L 545 320
L 545 320
L 545 320
L 546 320
L 546 320
L 546 320
L 547 320
L 547 319
L 547 319
L 547 319
L 547 319
L 547 319
L 547 319
L 548 319
L 548 319
L 548 319
L 548 319
L 548 319
L 548 319
L 548 319
L 548 319
L 548 319
L 548 319
L 548 319
L 548 319
L 549 319
L 549 319
L 549 319
L 549 319
L 549 319
L 550 318
L 550 318
L 550 318
L 550 318
L 551 318
L 551 318
L 551 318
L 551 318
L 551 318
L 551 318
L 551 318
L 552 318
L 552 318
L 553 318
L 553 318
L 553 318
L 553 318
L 554 318
L 554 318
L 555 318
L 556 318
L 556 318
L 557 317
L 557 317
L 557 317
L 557 317
L 557 317
L 558 317
L 558 317
L 558 317
L 558 317
L 558 317
L 558 317
L 558 317
L 559 317
L 560 317
L 560 317
L 560 317
L 560 317
L 560 317
L 561 317
L 561 317
L 561 317
L 561 317
L 561 317
L 562 316
L 562 316
L 562 316
L 563 316
L 563 316
L 563 316
L 564 316
L 564 316
L 564 316
L 564 316
L 565 316
L 566 316
L 566 316
L 566 316
L 566 316
L 567 316
L 567 316
L 567 316
L 568 316
L 568 316
L 570 316
L 570 316
L 570 315
L 570 315
L 571 315
L 571 315
L 571 315
L 572 315
L 572 315
L 572 315
L 572 315
L 572 315
L 573 315
L 573 315
L 573 315
L 573 315
L 573 315
L 573 315
L 574 315
L 574 315
L 575 315
L 575 315
L 575 315
L 575 315
L 575 314
L 575 314
L 575 314
L 576 314
L 576 314
L 576 314
L 576 314
L 577 314
L 577 314
L 578 314
L 578 314
L 578 314
L 579 314
L 579 314
L 579 314
L 579 314
L 579 314
L 580 314
L 580 314
L 580 314
L 581 314
L 581 314
L 581 314
L 581 313
L 581 313
L 581 313
L 582 313
L 582 313
L 582 313
L 582 313
L 582 313
L 582 313
L 583 313
L 583 313
L 583 313
L 583 313
L 583 313
L 583 313
L 583 313
L 583 313
L 583 313
L 584 313
L 584 313
L 584 313
L 584 313
L 584 312
L 584 312
L 585 312
L 586 312
L 586 312
L 586 312
L 587 312
L 587 312
L 587 312
L 587 312
L 588 312
L 588 312
L 588 312
L 589 312
L 589 312
L 589 312
L 589 312
L 589 312
L 589 312
L 590 312
L 590 312
L 590 312
L 591 311
L 591 311
L 592 311
L 592 311
L 592 311
L 592 311
L 592 311
L 593 311
L 593 311
L 593 311
L 593 311
L 593 311
L 594 311
L 594 311
L 594 311
L 594 311
L 595 311
L 595 311
L 595 311
L 595 311
L 595 311
L 595 311
L 596 311
L 597 310
L 597 310
L 598 310
L 598 310
L 598 310
L 598 310
L 598 310
L 598 310
L 598 310
L 599 310
L 599 310
L 600 310
L 600 310
L 600 310
L 600 310
L 600 310
L 601 310
L 601 310
L 601 310
L 601 310
L 602 310
L 602 310
L 603 309
L 604 309
L 604 309
L 605 309
L 605 309
L 606 309
L 607 309
L 608 309
L 609 309
L 609 309
L 609 309
L 609 309
L 610 309
L 611 309
L 611 309
L 611 309
L 611 309
L 612 309
L 612 309
L 612 309
L 613 309
L 613 309
L 614 308
L 614 308
L 614 308
L 615 308
L 615 308
L 615 308
L 615 308
L 616 308
L 616 308
L 617 308
L 617 308
L 617 308
L 617 308
L 617 308
L 617 308
L 617 308
L 617 308
L 618 308
L 618 308
L 618 308
L 618 308
L 618 308
L 618 308
L 619 307
L 619 307
L 619 307
L 619 307
L 620 307
L 620 307
L 620 307
L 621 307
L 621 307
L 621 307
L 623 307
L 623 307
L 623 307
L 624 307
L 624 307
L 625 307
L 626 307
L 627 307
L 627 307
L 627 307
L 628 307
L 628 307
L 628 306
L 628 306
L 629 306
L 631 306
L 631 306
L 631 306
L 631 306
L 631 306
L 631 306
L 632 306
L 632 306
L 632 306
L 633 306
L 633 306
L 633 306
L 633 306
L 633 306
L 633 306
L 633 306
L 633 306
L 635 306
L 637 306
L 638 305
L 638 305
L 640 305
L 640 305
L 640 305
L 641 305
L 641 305
L 641 305
L 642 305
L 642 305
L 643 305
L 643 305
L 643 305
L 643 305
L 643 305
L 643 305
L 643 305
L 644 305
L 644 305
L 644 305
L 644 305
L 644 305
L 644 305
L 644 304
L 645 304
L 645 304
L 645 304
L 645 304
L 645 304
L 645 304
L 646 304
L 646 304
L 646 304
L 646 304
L 646 304
L 646 304
L 646 304
L 647 304
L 647 304
L 647 304
L 649 304
L 649 304
L 649 304
L 649 304
L 649 304
L 650 303
L 650 303
L 650 303
L 651 303
L 651 303
L 651 303
L 651 303
L 651 303
L 652 303
L 652 303
L 652 303
L 652 303
L 652 303
L 652 303
L 654 303
L 654 303
L 654 303
L 655 303
L 655 303
L 655 303
L 655 303
L 655 303
L 655 302
L 655 302
L 655 302
L 655 302
L 655 302
L 655 302
L 655 302
L 656 302
L 656 302
L 656 302
L 656 302
L 656 302
L 656 302
L 656 302
L 656 302
L 656 302
L 657 302
L 657 302
L 657 302
L 657 302
L 657 302
L 657 302
L 657 302
L 657 301
L 657 301
L 658 301
L 658 301
L 658 301
L 658 301
L 658 301
L 658 301
L 658 301
L 658 301
L 658 301
L 659 301
L 659 301
L 659 301
L 659 301
L 659 301
L 659 301
L 660 301
L 660 301
L 660 301
L 660 301
L 661 301
L 661 300
L 661 300
L 661 300
L 661 300
L 661 300
L 661 300
L 661 300
L 661 300
L 662 300
L 662 300
L 662 300
L 662 300
L 662 300
L 662 300
L 662 300
L 662 300
L 662 300
L 663 300
L 663 300
L 664 300
L 664 300
L 664 300
L 664 300
L 665 299
L 665 299
L 665 299
L 666 299
L 666 299
L 666 299
L 666 299
L 666 299
L 666 299
L 666 299
L 666 299
L 667 299
L 667 299
L 667 299
L 668 299
L 668 299
L 668 299
L 668 299
L 668 299
L 669 299
L 669 299
L 669 299
L 669 298
L 669 298
L 670 298
L 670 298
L 670 298
L 670 298
L 671 298
L 671 298
L 671 298
L 671 298
L 671 298
L 671 298
L 672 298
L 672 298
L 672 298
L 673 298
L 673 298
L 673 298
L 673 298
L 673 298
L 674 298
L 674 298
L 674 297
L 674 297
L 674 297
L 674 297
L 674 297
L 674 297
L 675 297
L 675 297
L 676 297
L 676 297
L 676 297
L 676 297
L 677 297
L 677 297
L 677 297
L 677 297
L 677 297
L 677 297
L 677 297
L 678 297
L 679 297
L 679 297
L 679 297
L 680 296
L 680 296
L 680 296
L 680 296
L 680 296
L 680 296
L 680 296
L 680 296
L 681 296
L 682 296
L 682 296
L 682 296
L 683 296
L 683 296
L 683 296
L 683 296
L 683 296
L 683 296
L 684 296
L 684 296
L 684 296
L 684 296
L 684 295
L 684 295
L 684 295
L 684 295
L 684 295
L 684 295
L 685 295
L 685 295
L 685 295
L 685 295
L 685 295
L 686 295
L 687 295
L 688 295
L 688 295
L 688 295
L 688 295
L 689 295
L 689 295
L 689 295
L 689 295
L 689 295
L 689 294
L 690 294
L 690 294
L 690 294
L 690 294
L 690 294
L 691 294
L 691 294
L 691 294
L 691 294
L 691 294
L 691 294
L 692 294
L 692 294
L 692 294
L 693 294
L 693 294
L 693 294
L 693 294
L 693 294
L 694 294
L 694 294
L 694 294
L 694 293
L 694 293
L 695 293
L 695 293
L 695 293
L 695 293
L 695 293
L 696 293
L 696 293
L 696 293
L 696 293
L 697 293
L 697 293
L 697 293
L 698 293
L 699 293
L 699 293
L 699 293
L 699 293
L 699 293
L 700 293
L 700 293
L 700 292
L 700 292
L 700 292
L 700 292
L 700 292
L 700 292
L 700 292
L 701 292
L 701 292
L 701 292
L 701 292
L 701 292
L 701 292
L 701 292
L 701 292
L 701 292
L 701 292
L 702 292
L 702 292
L 702 292
L 702 292
L 702 292
L 702 291
L 703 291
L 703 291
L 703 291
L 703 291
L 703 291
L 704 291
L 704 291
L 704 291
L 704 291
L 704 291
L 705 291
L 705 291
L 705 291
L 705 291
L 706 291
L 706 291
L 706 291
L 706 291
L 706 291
L 706 291
L 706 291
L 706 291
L 706 290
L 706 290
L 706 290
L 707 290
L 707 290
L 707 290
L 708 290
L 708 290
L 708 290
L 708 290
L 709 290
L 710 290
L 710 290
L 710 290
L 710 290
L 711 290
L 711 290
L 711 290
L 711 290
L 711 290
L 712 290
L 712 290
L 712 289
L 712 289
L 712 289
L 712 289
L 713 289
L 713 289
L 713 289
L 713 289
L 713 289
L 713 289
L 713 289
L 713 289
L 713 289
L 713 289
L 713 289
L 713 289
L 714 289
L 714 289
L 714 289
L 714 289
L 715 289
L 715 289
L 715 288
L 716 288
L 716 288
L 717 288
L 717 288
L 717 288
L 717 288
L 717 288
L 717 288
L 717 288
L 717 288
L 718 288
L 718 288
L 718 288
L 718 288
L 718 288
L 719 288
L 719 288
L 719 288
L 719 288
L 719 288
L 720 288
L 720 288
L 720 287
L 720 287
L 721 287
L 721 287
L 721 287
L 721 287
L 722 287
L 722 287
L 722 287
L 722 287
L 722 287
L 722 287
L 723 287
L 723 287
L 723 287
L 723 287
L 724 287
L 724 287
L 724 287
L 725 287
L 725 287
L 725 287
L 725 286
L 725 286
L 725 286
L 725 286
L 725 286
L 726 286
L 726 286
L 726 286
L 726 286
L 726 286
L 726 286
L 726 286
L 727 286
L 727 286
L 727 286
L 727 286
L 727 286
L 727 286
L 728 286
L 728 286
L 728 286
L 728 286
L 728 285
L 728 285
L 728 285
L 729 285
L 729 285
L 729 285
L 729 285
L 729 285
L 729 285
L 729 285
L 730 285
L 730 285
L 730 285
L 730 285
L 730 285
L 731 285
L 731 285
L 732 285
L 732 285
L 732 285
L 732 285
L 733 285
L 733 285
L 733 284
L 733 284
L 733 284
L 733 284
L 733 284
L 733 284
L 734 284
L 734 284
L 734 284
L 734 284
L 735 284
L 735 284
L 735 284
L 735 284
L 736 284
L 736 284
L 736 284
L 736 284
L 736 284
L 736 284
L 736 284
L 737 284
L 737 283
L 737 283
L 737 283
L 737 283
L 738 283
L 738 283
L 738 283
L 738 283
L 738 283
L 738 283
L 738 283
L 738 283
L 738 283
L 739 283
L 739 283
L 739 283
L 739 283
L 740 283
L 740 283
L 740 283
L 741 283
L 741 283
L 742 283
L 743 282
L 743 282
L 743 282
L 743 282
L 743 282
L 743 282
L 745 282
L 745 282
L 745 282
L 746 282
L 746 282
L 746 282
L 746 282
L 746 282
L 747 282
L 747 282
L 747 282
L 747 282
L 748 282
L 748 282
L 748 282
L 748 282
L 748 281
L 748 281
L 748 281
L 748 281
L 748 281
L 749 281
L 749 281
L 749 281
L 749 281
L 749 281
L 749 281
L 749 281
L 749 281
L 749 281
L 750 281
L 750 281
L 750 281
L 750 281
L 750 281
L 751 281
L 751 281
L 751 281
L 751 280
L 751 280
L 751 280
L 751 280
L 751 280
L 751 280
L 751 280
L 751 280
L 752 280
L 752 280
L 752 280
L 752 280
L 752 280
L 752 280
L 752 280
L 753 280
L 753 280
L 753 280
L 753 280
L 753 280
L 753 280
L 753 280
L 753 280
L 754 279
L 754 279
L 754 279
L 754 279
L 754 279
L 754 279
L 754 279
L 755 279
L 755 279
L 755 279
L 755 279
L 756 279
L 756 279
L 756 279
L 756 279
L 756 279
L 756 279
L 756 279
L 756 279
L 757 279
L 757 279
L 757 279
L 757 278
L 757 278
L 757 278
L 757 278
L 757 278
L 757 278
L 757 278
L 757 278
L 757 278
L 758 278
L 758 278
L 758 278
L 758 278
L 758 278
L 758 278
L 758 278
L 758 278
L 758 278
L 758 278
L 759 278
L 759 278
L 759 278
L 759 277
L 759 277
L 759 277
L 759 277
L 759 277
L 760 277
L 760 277
L 760 277
L 760 277
L 760 277
L 761 277
L 761 277
L 761 277
L 762 277
L 762 277
L 762 277
L 762 277
L 762 277
L 762 277
L 762 277
L 762 277
L 762 277
L 762 277
L 762 276
L 763 276
L 763 276
L 763 276
L 763 276
L 763 276
L 763 276
L 763 276
L 764 276
L 764 276
L 764 276
L 764 276
L 764 276
L 764 276
L 764 276
L 764 276
L 764 276
L 764 276
L 764 276
L 765 276
L 765 276
L 765 276
L 765 275
L 765 275
L 765 275
L 765 275
L 765 275
L 766 275
L 766 275
L 766 275
L 766 275
L 767 275
L 767 275
L 767 275
L 767 275
L 767 275
L 767 275
L 767 275
L 767 275
L 767 275
L 767 275
L 767 275
L 767 275
L 767 275
L 767 274
L 767 274
L 767 274
L 767 274
L 767 274
L 767 274
L 767 274
L 767 274
L 767 274
L 767 274
L 767 274
L 767 274
L 767 274
L 767 274
L 767 274
L 767 274
L 767 274
L 767 274
L 767 274
L 767 274
L 767 274
L 767 274
L 767 274
L 767 273
L 767 273
L 767 273
L 767 273
L 767 273
L 767 273
L 767 273
L 767 273
L 767 273
L 767 273
L 767 273
L 767 273
L 767 273
L 767 273
L 767 273
L 767 273
L 767 273
L 767 273
L 767 273
L 767 273
L 767 273
L 767 273
L 767 272
L 767 272
L 767 272
L 767 272
L 767 272
L 767 272
L 767 272
L 767 272
L 767 272
L 767 272
L 767 272
L 767 272
L 767 272
L 767 272
L 767 272
L 767 272
L 767 272
L 767 272
L 767 272
L 767 272
L 767 272
L 767 272
L 767 271
L 767 271
L 767 271
L 767 271
L 767 271
L 767 271
L 767 271
L 767 271
L 767 271
L 767 271
L 767 271
L 767 271
L 767 271
L 767 271
L 767 271
L 767 271
L 768 271
L 768 271
L 768 271
L 768 271
L 768 271
L 768 271
L 768 271
L 768 270
L 768 270
L 768 270
L 768 270
L 768 270
L 768 270
L 768 270
L 768 270
L 768 270
L 768 270
L 768 270
L 768 270
L 768 270
L 768 270
L 768 270
L 768 270
L 768 270
L 768 270
L 768 270
L 768 270
L 768 270
L 768 270
L 768 269
L 768 269
L 768 269
L 768 269
L 768 269
L 768 269
L 768 269
L 768 269
L 768 269
L 768 269
L 768 269
L 768 269
L 768 269
L 768 269
L 768 269
L 768 269
L 769 269
L 769 269
L 769 269
L 769 269
L 769 269
L 769 269
L 769 268
L 769 268
L 769 268
L 769 268
L 769 268
L 769 268
L 769 268
L 769 268
L 769 268
L 769 268
L 769 268
L 769 268
L 769 268
L 769 268
L 769 268
L 769 268
L 769 268
L 769 268
L 769 268
L 769 268
L 769 268
L 769 268
L 769 268
L 769 267
L 769 267
L 769 267
L 769 267
L 769 267
L 769 267
L 769 267
L 769 267
L 769 267
L 769 267
L 769 267
L 769 267
L 769 267
L 769 267
L 769 267
L 769 267
L 769 267
L 769 267
L 769 267
L 769 267
L 769 267
L 769 267
L 769 266
L 769 266
L 769 266
L 769 266
L 769 266
L 769 266
L 769 266
L 769 266
L 769 266
L 769 266
L 769 266
L 769 266
L 769 266
L 769 266
L 769 266
L 769 266
L 769 266
L 769 266
L 769 266
L 769 266
L 769 266
L 769 266
L 769 266
L 769 265
L 769 265
L 769 265
L 769 265
L 769 265
L 769 265
L 769 265
L 769 265
L 769 265
L 769 265
L 769 265
L 769 265
L 769 265
L 769 265
L 769 265
L 769 265
L 769 265
L 769 265
L 769 265
L 769 265
L 769 265
L 769 265
L 769 264
L 769 264
L 769 264
L 769 264
L 769 264
L 770 264
L 770 264
L 770 264
L 770 264
L 770 264
L 770 264
L 770 264
L 770 264
L 770 264
L 770 264
L 770 264
L 770 264
L 770 264
L 770 264
L 770 264
L 770 264
L 770 264
L 770 263
L 770 263
L 770 263
L 770 263
L 770 263
L 770 263
L 770 263
L 770 263
L 770 263
L 770 263
L 770 263
L 770 263
L 770 263
L 770 263
L 770 263
L 770 263
L 770 263
L 770 263
L 770 263
L 770 263
L 770 263
L 770 263
L 770 263
L 771 262
L 771 262
L 771 262
L 771 262
L 771 262
L 771 262
L 771 262
L 771 262
L 771 262
L 771 262
L 771 262
L 771 262
L 771 262
L 771 262
L 771 262
L 771 262
L 771 262
L 771 262
L 771 262
L 771 262
L 771 262
L 771 262
L 771 261
L 771 261
L 771 261
L 771 261
L 771 261
L 771 261
L 771 261
L 771 261
L 771 261
L 771 261
L 771 261
L 771 261
L 771 261
L 771 261
L 771 261
L 771 261
L 771 261
L 771 261
L 771 261
L 771 261
L 771 261
L 771 261
L 772 260
L 772 260
L 772 260
L 772 260
L 772 260
L 772 260
L 772 260
L 772 260
L 772 260
L 772 260
L 772 260
L 772 260
L 772 260
L 772 260
L 772 260
L 773 260
L 773 260
L 773 260
L 773 260
L 773 260
L 773 260
L 773 260
L 773 260
L 773 259
L 774 259
L 774 259
L 774 259
L 774 259
L 774 259
L 774 259
L 774 259
L 774 259
L 774 259
L 774 259
L 775 259
L 775 259
L 775 259
L 775 259
L 775 259
L 775 259
L 775 259
L 775 259
L 775 259
L 775 259
L 775 259
L 775 258
L 775 258
L 775 258
L 775 258
L 775 258
L 775 258
L 776 258
L 776 258
L 776 258
L 776 258
L 776 258
L 776 258
L 776 258
L 776 258
L 776 258
L 776 258
L 776 258
L 777 258
L 777 258
L 777 258
L 777 258
L 777 258
L 777 257
L 777 257
L 777 257
L 778 257
L 778 257
L 778 257
L 778 257
L 778 257
L 778 257
L 778 257
L 778 257
L 778 257
L 778 257
L 779 257
L 779 257
L 779 257
L 779 257
L 779 257
L 779 257
L 779 257
L 779 257
L 779 257
L 779 257
L 779 256
L 779 256
L 779 256
L 779 256
L 779 256
L 779 256
L 779 256
L 779 256
L 779 256
L 779 256
L 779 256
L 779 256
L 779 256
L 779 256
L 779 256
L 779 256
L 779 256
L 779 256
L 779 256
L 779 256
L 779 256
L 779 256
L 779 255
L 779 255
L 780 255
L 780 255
L 780 255
L 780 255
L 780 255
L 780 255
L 780 255
L 780 255
L 780 255
L 780 255
L 780 255
L 780 255
L 780 255
L 780 255
L 780 255
L 780 255
L 780 255
L 780 255
L 780 255
L 780 255
L 780 254
L 780 254
L 780 254
L 780 254
L 780 254
L 780 254
L 780 254
L 780 254
L 780 254
L 780 254
L 780 254
L 780 254
L 780 254
L 780 254
L 780 254
L 780 254
L 780 254
L 780 254
L 780 254
L 780 254
L 780 254
L 780 254
L 781 254
L 781 253
L 781 253
L 781 253
L 781 253
L 781 253
L 781 253
L 781 253
L 781 253
L 781 253
L 781 253
L 781 253
L 781 253
L 781 253
L 781 253
L 781 253
L 781 253
L 781 253
L 781 253
L 781 253
L 781 253
L 781 253
L 781 253
L 781 252
L 781 252
L 781 252
L 781 252
L 781 252
L 781 252
L 781 252
L 781 252
L 781 252
L 781 252
L 781 252
L 781 252
L 781 252
L 781 252
L 781 252
L 781 252
L 781 252
L 781 252
L 781 252
L 781 252
L 781 252
L 781 252
L 781 251
L 781 251
L 781 251
L 781 251
L 781 251
L 781 251
L 781 251
L 781 251
L 781 251
L 781 251
L 781 251
L 781 251
L 781 251
L 781 251
L 781 251
L 781 251
L 781 251
L 781 251
L 781 251
L 781 251
L 781 251
L 781 251
L 781 251
L 781 250
L 781 250
L 781 250
L 781 250
L 781 250
L 781 250
L 781 250
L 781 250
L 781 250
L 781 250
L 781 250
L 781 250
L 781 250
L 781 250
L 781 250
L 781 250
L 781 250
L 781 250
L 781 250
L 781 250
L 781 250
L 781 250
L 782 249
L 782 249
L 782 249
L 782 249
L 782 249
L 782 249
L 782 249
L 782 249
L 782 249
L 782 249
L 782 249
L 782 249
L 782 249
L 782 249
L 782 249
L 782 249
L 782 249
L 782 249
L 782 249
L 782 249
L 782 249
L 782 249
L 782 249
L 782 248
L 782 248
L 782 248
L 782 248
L 782 248
L 782 248
L 782 248
L 782 248
L 782 248
L 782 248
L 782 248
L 782 248
L 782 248
L 782 248
L 782 248
L 782 248
L 782 248
L 782 248
L 783 248
L 783 248
L 783 248
L 783 248
L 783 247
L 783 247
L 783 247
L 783 247
L 783 247
L 783 247
L 783 247
L 783 247
L 783 247
L 783 247
L 783 247
L 783 247
L 783 247
L 783 247
L 783 247
L 783 247
L 783 247
L 783 247
L 783 247
L 784 247
L 784 247
L 784 247
L 784 246
L 784 246
L 784 246
L 784 246
L 784 246
L 784 246
L 784 246
L 784 246
L 784 246
L 784 246
L 784 246
L 784 246
L 784 246
L 784 246
L 784 246
L 784 246
L 784 246
L 784 246
L 784 246
L 784 246
L 784 246
L 784 246
L 784 246
L 784 245
L 784 245
L 784 245
L 784 245
L 784 245
L 784 245
L 785 245
L 785 245
L 785 245
L 785 245
L 785 245
L 785 245
L 785 245
L 785 245
L 785 245
L 785 245
L 785 245
L 785 245
L 785 245
L 785 245
L 785 245
L 785 245
L 785 244
L 785 244
L 785 244
L 785 244
L 785 244
L 785 244
L 785 244
L 785 244
L 785 244
L 785 244
L 785 244
L 785 244
L 785 244
L 785 244
L 785 244
L 786 244
L 786 244
L 786 244
L 786 244
L 786 244
L 786 244
L 786 244
L 786 243
L 786 243
L 786 243
L 786 243
L 786 243
L 786 243
L 786 243
L 786 243
L 786 243
L 786 243
L 786 243
L 786 243
L 786 243
L 786 243
L 786 243
L 787 243
L 787 243
L 787 243
L 787 243
L 787 243
L 787 243
L 787 243
L 787 243
L 787 242
L 787 242
L 788 242
L 788 242
L 788 242
L 788 242
L 788 242
L 788 242
L 788 242
L 788 242
L 788 242
L 788 242
L 788 242
L 788 242
L 788 242
L 788 242
L 788 242
L 788 242
L 789 242
L 789 242
L 789 242
L 789 242
L 789 241
L 789 241
L 789 241
L 789 241
L 790 241
L 790 241
L 790 241
L 790 241
L 790 241
L 790 241
L 790 241
L 790 241
L 790 241
L 790 241
L 790 241
L 791 241
L 791 241
L 791 241
L 791 241
L 791 241
L 791 241
L 791 241
L 791 240
L 791 240
L 791 240
L 791 240
L 791 240
L 792 240
L 792 240
L 792 240
L 792 240
L 792 240
L 792 240
L 792 240
L 792 240
L 792 240
L 792 240
L 792 240
L 792 240
L 792 240
L 792 240
L 792 240
L 792 240
L 792 240
L 793 240
L 793 239
L 793 239
L 793 239
L 793 239
L 793 239
L 793 239
L 793 239
L 793 239
L 793 239
L 793 239
L 793 239
L 793 239
L 793 239
L 794 239
L 794 239
L 794 239
L 794 239
L 794 239
L 794 239
L 794 239
L 794 239
L 794 239
L 794 238
L 794 238
L 794 238
L 794 238
L 794 238
L 794 238
L 794 238
L 794 238
L 795 238
L 795 238
L 795 238
L 795 238
L 795 238
L 795 238
L 795 238
L 795 238
L 795 238
L 795 238
L 795 238
L 795 238
L 795 238
L 796 238
L 796 237
L 796 237
L 796 237
L 796 237
L 796 237
L 796 237
L 796 237
L 796 237
L 796 237
L 796 237
L 796 237
L 796 237
L 796 237
L 796 237
L 796 237
L 796 237
L 796 237
L 796 237
L 796 237
L 796 237
L 797 237
L 797 237
L 797 237
L 797 236
L 797 236
L 797 236
L 797 236
L 797 236
L 797 236
L 797 236
L 797 236
L 797 236
L 797 236
L 797 236
L 797 236
L 798 236
L 798 236
L 798 236
L 798 236
L 798 236
L 798 236
L 798 236
L 798 236
L 798 236
L 798 236
L 799 235
L 799 235
L 799 235
L 799 235
L 799 235
L 799 235
L 800 235
L 800 235
L 800 235
L 800 235
L 800 235
L 800 235
L 800 235
L 800 235
L 800 235
L 800 235
L 800 235
L 800 235
L 800 235
L 800 235
L 800 235
L 800 235
L 800 234
L 800 234
L 800 234
L 800 234
L 800 234
L 800 234
L 800 234
L 800 234
L 800 234
L 800 234
L 800 234
L 800 234
L 800 234
L 800 234
L 800 234
L 800 234
L 800 234
L 800 234
L 800 234
L 800 234
L 800 234
L 800 234
L 800 234
L 801 233
L 801 233
L 801 233
L 801 233
L 801 233
L 801 233
L 801 233
L 801 233
L 801 233
L 801 233
L 801 233
L 801 233
L 801 233
L 801 233
L 801 233
L 801 233
L 801 233
L 801 233
L 801 233
L 801 233
L 801 233
L 801 233
L 801 232
L 801 232
L 801 232
L 801 232
L 801 232
L 801 232
L 801 232
L 801 232
L 801 232
L 801 232
L 801 232
L 801 232
L 801 232
L 801 232
L 801 232
L 801 232
L 801 232
L 801 232
L 801 232
L 801 232
L 801 232
L 801 232
L 801 232
L 801 231
L 801 231
L 801 231
L 801 231
L 801 231
L 801 231
L 801 231
L 801 231
L 801 231
L 801 231
L 801 231
L 801 231
L 801 231
L 801 231
L 801 231
L 801 231
L 801 231
L 801 231
L 801 231
L 801 231
L 802 231
L 802 231
L 802 230
L 802 230
L 802 230
L 802 230
L 802 230
L 802 230
L 802 230
L 802 230
L 802 230
L 802 230
L 802 230
L 802 230
L 802 230
L 802 230
L 802 230
L 802 230
L 802 230
L 802 230
L 802 230
L 802 230
L 802 230
L 802 230
L 802 229
L 802 229
L 802 229
L 802 229
L 802 229
L 802 229
L 802 229
L 802 229
L 802 229
L 802 229
L 802 229
L 802 229
L 802 229
L 802 229
L 802 229
L 802 229
L 802 229
L 802 229
L 802 229
L 802 229
L 802 229
L 802 229
L 802 229
L 802 228
L 802 228
L 802 228
L 802 228
L 802 228
L 802 228
L 802 228
L 802 228
L 802 228
L 802 228
L 802 228
L 802 228
L 802 228
L 802 228
L 802 228
L 802 228
L 802 228
L 802 228
L 803 228
L 803 228
L 803 228
L 803 228
L 803 227
L 803 227
L 803 227
L 803 227
L 803 227
L 803 227
L 803 227
L 803 227
L 803 227
L 803 227
L 803 227
L 803 227
L 803 227
L 803 227
L 803 227
L 803 227
L 803 227
L 803 227
L 803 227
L 803 227
L 803 227
L 803 227
L 803 226
L 803 226
L 803 226
L 803 226
L 803 226
L 803 226
L 803 226
L 803 226
L 803 226
L 803 226
L 803 226
L 803 226
L 803 226
L 803 226
L 803 226
L 803 226
L 803 226
L 803 226
L 803 226
L 803 226
L 803 226
L 803 226
L 803 226
L 803 225
L 803 225
L 803 225
L 803 225
L 803 225
L 803 225
L 803 225
L 803 225
L 803 225
L 803 225
L 803 225
L 803 225
L 803 225
L 803 225
L 803 225
L 803 225
L 803 225
L 803 225
L 803 225
L 803 225
L 803 225
L 803 225
L 803 224
L 803 224
L 803 224
L 803 224
L 803 224
L 803 224
L 803 224
L 803 224
L 803 224
L 803 224
L 803 224
L 803 224
L 803 224
L 803 224
L 803 224
L 803 224
L 803 224
L 803 224
L 803 224
L 803 224
L 803 224
L 803 224
L 803 223
L 803 223
L 803 223
L 803 223
L 803 223
L 803 223
L 803 223
L 803 223
L 803 223
L 803 223
L 803 223
L 803 223
L 803 223
L 803 223
L 803 223
L 803 223
L 803 223
L 803 223
L 803 223
L 803 223
L 803 223
L 803 223
L 803 223
L 803 222
L 803 222
L 803 222
L 803 222
L 803 222
L 803 222
L 803 222
L 803 222
L 803 222
L 803 222
L 803 222
L 803 222
L 803 222
L 803 222
L 803 222
L 803 222
L 803 222
L 803 222
L 803 222
L 803 222
L 803 222
L 803 222
L 803 221
L 803 221
L 803 221
L 803 221
L 803 221
L 803 221
L 803 221
L 803 221
L 803 221
L 803 221
L 803 221
L 803 221
L 803 221
L 804 221
L 804 221
L 804 221
L 804 221
L 804 221
L 804 221
L 804 221
L 804 221
L 804 221
L 804 220
L 804 220
L 804 220
L 804 220
L 804 220
L 804 220
L 804 220
L 804 220
L 804 220
L 804 220
L 804 220
L 804 220
L 804 220
L 804 220
L 804 220
L 804 220
L 804 220
L 804 220
L 804 220
L 804 220
L 804 220
L 804 220
L 804 220
L 804 219
L 804 219
L 804 219
L 804 219
L 804 219
L 804 219
L 804 219
L 804 219
L 804 219
L 804 219
L 804 219
L 804 219
L 804 219
L 804 219
L 804 219
L 804 219
L 804 219
L 804 219
L 804 219
L 804 219
L 804 219
L 804 219
L 804 218
L 804 218
L 804 218
L 804 218
L 804 218
L 804 218
L 804 218
L 804 218
L 804 218
L 804 218
L 804 218
L 804 218
L 804 218
L 804 218
L 804 218
L 804 218
L 804 218
L 804 218
L 804 218
L 804 218
L 804 218
L 804 218
L 804 217
L 804 217
L 804 217
L 804 217
L 804 217
L 804 217
L 804 217
L 804 217
L 804 217
L 804 217
L 804 217
L 804 217
L 804 217
L 804 217
L 804 217
L 804 217
L 804 217
L 804 217
L 804 217
L 804 217
L 804 217
L 804 217
L 804 217
L 804 216
L 804 216
L 804 216
L 804 216
L 804 216
L 804 216
L 804 216
L 804 216
L 804 216
L 804 216
L 804 216
L 804 216
L 804 216
L 804 216
L 804 216
L 804 216
L 804 216
L 804 216
L 804 216
L 804 216
L 804 216
L 804 216
L 804 215
L 804 215
L 804 215
L 804 215
L 804 215
L 804 215
L 804 215
L 804 215
L 804 215
L 804 215
L 804 215
L 804 215
L 804 215
L 804 215
L 804 215
L 804 215
L 804 215
L 804 215
L 804 215
L 804 215
L 804 215
L 804 215
L 804 215
L 804 214
L 804 214
L 804 214
L 804 214
L 804 214
L 804 214
L 804 214
L 804 214
L 804 214
L 804 214
L 804 214
L 804 214
L 804 214
L 804 214
L 804 214
L 804 214
L 804 214
L 804 214
L 804 214
L 804 214
L 804 214
L 804 214
L 804 213
L 804 213
L 804 213
L 804 213
L 804 213
L 804 213
L 804 213
L 804 213
L 804 213
L 804 213
L 804 213
L 804 213
L 804 213
L 804 213
L 804 213
L 804 213
L 804 213
L 804 213
L 804 213
L 804 213
L 804 213
L 804 213
L 804 212
L 804 212
L 804 212
L 804 212
L 804 212
L 804 212
L 804 212
L 804 212
L 804 212
L 804 212
L 804 212
L 804 212
L 804 212
L 804 212
L 804 212
L 804 212
L 804 212
L 804 212
L 804 212
L 804 212
L 804 212
L 804 212
L 804 212
L 804 211
L 804 211
L 804 211
L 804 211
L 804 211
L 804 211
L 804 211
L 804 211
L 804 211
L 804 211
L 804 211
L 804 211
L 804 211
L 804 211
L 804 211
L 804 211
L 804 211
L 804 211
L 804 211
L 804 211
L 804 211
L 804 211
L 804 210
L 804 210
L 804 210
L 804 210
L 804 210
L 804 210
L 804 210
L 804 210
L 804 210
L 804 210
L 804 210
L 804 210
L 804 210
L 804 210
L 804 210
L 804 210
L 804 210
L 804 210
L 804 210
L 804 210
L 804 210
L 804 210
L 804 209
L 804 209
L 804 209
L 804 209
L 804 209
L 804 209
L 804 209
L 804 209
L 804 209
L 804 209
L 804 209
L 804 209
L 804 209
L 804 209
L 804 209
L 804 209
L 804 209
L 804 209
L 804 209
L 804 209
L 804 209
L 804 209
L 804 209
L 804 208
L 804 208
L 804 208
L 804 208
L 804 208
L 804 208
L 804 208
L 804 208
L 804 208
L 804 208
L 804 208
L 804 208
L 804 208
L 804 208
L 804 208
L 804 208
L 804 208
L 804 208
L 804 208
L 804 208
L 804 208
L 804 208
L 804 207
L 804 207
L 804 207
L 804 207
L 804 207
L 804 207
L 804 207
L 804 207
L 804 207
L 804 207
L 804 207
L 804 207
L 804 207
L 804 207
L 804 207
L 804 207
L 804 207
L 804 207
L 804 207
L 804 207
L 804 207
L 804 207
L 804 206
L 804 206
L 804 206
L 804 206
L 804 206
L 804 206
L 804 206
L 804 206
L 804 206
L 804 206
L 804 206
L 805 206
L 805 206
L 805 206
L 805 206
L 805 206
L 805 206
L 805 206
L 805 206
L 805 206
L 805 206
L 805 206
L 805 206
L 805 205
L 805 205
L 805 205
L 805 205
L 805 205
L 805 205
L 805 205
L 805 205
L 805 205
L 805 205
L 805 205
L 805 205
L 805 205
L 805 205
L 805 205
L 805 205
L 805 205
L 805 205
L 805 205
L 805 205
L 805 205
L 805 205
L 805 204
L 805 204
L 805 204
L 805 204
L 805 204
L 805 204
L 805 204
L 805 204
L 805 204
L 805 204
L 805 204
L 805 204
L 805 204
L 805 204
L 805 204
L 805 204
L 805 204
L 805 204
L 805 204
L 805 204
L 805 204
L 805 204
L 805 203
L 805 203
L 805 203
L 805 203
L 805 203
L 805 203
L 805 203
L 805 203
L 805 203
L 805 203
L 805 203
L 805 203
L 805 203
L 805 203
L 805 203
L 805 203
L 805 203
L 805 203
L 805 203
L 805 203
L 805 203
L 805 203
L 805 203
L 805 202
L 805 202
L 805 202
L 805 202
L 805 202
L 805 202
L 805 202
L 805 202
L 805 202
L 805 202
L 805 202
L 805 202
L 805 202
L 805 202
L 805 202
L 805 202
L 805 202
L 805 202
L 805 202
L 805 202
L 805 202
L 805 202
L 805 201
L 805 201
L 805 201
L 805 201
L 805 201
L 805 201
L 805 201
L 805 201
L 805 201
L 805 201
L 805 201
L 805 201
L 805 201
L 805 201
L 805 201
L 805 201
L 805 201
L 805 201
L 805 201
L 805 201
L 805 201
L 805 201
L 805 200
L 805 200
L 805 200
L 805 200
L 805 200
L 805 200
L 805 200
L 805 200
L 805 200
L 805 200
L 805 200
L 805 200
L 805 200
L 805 200
L 805 200
L 805 200
L 805 200
L 805 200
L 805 200
L 805 200
L 805 200
L 805 200
L 805 200
L 805 199
L 805 199
L 805 199
L 805 199
L 805 199
L 805 199
L 805 199
L 805 199
L 805 199
L 805 199
L 805 199
L 805 199
L 805 199
L 805 199
L 805 199
L 805 199
L 805 199
L 805 199
L 805 199
L 805 199
L 805 199
L 805 199
L 805 198
L 805 198
L 805 198
L 805 198
L 805 198
L 805 198
L 805 198
L 805 198
L 805 198
L 805 198
L 805 198
L 805 198
L 805 198
L 805 198
L 805 198
L 805 198
L 805 198
L 805 198
L 805 198
L 805 198
L 805 198
L 805 198
L 805 198
L 805 197
L 805 197
L 805 197
L 805 197
L 805 197
L 805 197
L 805 197
L 805 197
L 805 197
L 805 197
L 805 197
L 805 197
L 805 197
L 805 197
L 805 197
L 805 197
L 805 197
L 805 197
L 805 197
L 805 197
L 805 197
L 805 197
L 805 196
L 805 196
L 805 196
L 805 196
L 805 196
L 805 196
L 805 196
L 805 196
L 805 196
L 805 196
L 805 196
L 805 196
L 805 196
L 805 196
L 805 196
L 805 196
L 805 196
L 805 196
L 805 196
L 805 196
L 805 196
L 805 196
L 805 195
L 805 195
L 805 195
L 805 195
L 805 195
L 805 195
L 805 195
L 805 195
L 805 195
L 805 195
L 805 195
L 805 195
L 805 195
L 805 195
L 805 195
L 805 195
L 805 195
L 805 195
L 805 195
L 805 195
L 805 195
L 805 195
L 805 195
L 805 194
L 805 194
L 805 194
L 805 194
L 805 194
L 805 194
L 805 194
L 805 194
L 805 194
L 805 194
L 805 194
L 805 194
L 805 194
L 805 194
L 805 194
L 805 194
L 805 194
L 805 194
L 805 194
L 805 194
L 805 194
L 805 194
L 805 193
L 805 193
L 805 193
L 805 193
L 805 193
L 805 193
L 805 193
L 805 193
L 805 193
L 805 193
L 805 193
L 805 193
L 805 193
L 805 193
L 806 193
L 806 193
L 806 193
L 806 193
L 806 193
L 806 193
L 806 193
L 806 193
L 806 192
L 806 192
L 806 192
L 806 192
L 806 192
L 806 192
L 806 192
L 806 192
L 806 192
L 806 192
L 806 192
L 806 192
L 806 192
L 806 192
L 806 192
L 806 192
L 806 192
L 806 192
L 806 192
L 806 192
L 806 192
L 806 192
L 806 192
L 806 191
L 806 191
L 806 191
L 806 191
L 806 191
L 806 191
L 806 191
L 806 191
L 806 191
L 806 191
L 806 191
L 806 191
L 806 191
L 806 191
L 806 191
L 806 191
L 806 191
L 806 191
L 806 191
L 806 191
L 806 191
L 806 191
L 806 190
L 806 190
L 806 190
L 806 190
L 806 190
L 806 190
L 806 190
L 806 190
L 806 190
L 806 190
L 806 190
L 806 190
L 806 190
L 806 190
L 806 190
L 806 190
L 806 190
L 806 190
L 806 190
L 806 190
L 806 190
L 806 190
L 806 189
L 806 189
L 806 189
L 806 189
L 806 189
L 806 189
L 806 189
L 806 189
L 806 189
L 806 189
L 806 189
L 806 189
L 806 189
L 806 189
L 806 189
L 806 189
L 806 189
L 806 189
L 806 189
L 806 189
L 806 189
L 806 189
L 806 189
L 806 188
L 806 188
L 806 188
L 806 188
L 806 188
L 806 188
L 806 188
L 806 188
L 806 188
L 806 188
L 806 188
L 806 188
L 806 188
L 806 188
L 806 188
L 806 188
L 806 188
L 806 188
L 806 188
L 806 188
L 806 188
L 806 188
L 806 187
L 806 187
L 806 187
L 806 187
L 806 187
L 806 187
L 806 187
L 806 187
L 806 187
L 806 187
L 806 187
L 806 187
L 806 187
L 806 187
L 806 187
L 806 187
L 806 187
L 806 187
L 806 187
L 806 187
L 806 187
L 806 187
L 806 186
L 806 186
L 806 186
L 806 186
L 806 186
L 806 186
L 806 186
L 807 186
L 807 186
L 807 186
L 807 186
L 807 186
L 807 186
L 807 186
L 807 186
L 807 186
L 807 186
L 808 186
L 808 186
L 808 186
L 808 186
L 808 186
L 808 186
L 808 185
L 808 185
L 808 185
L 808 185
L 808 185
L 808 185
L 808 185
L 809 185
L 809 185
L 809 185
L 809 185
L 809 185
L 809 185
L 809 185
L 809 185
L 809 185
L 809 185
L 809 185
L 809 185
L 809 185
L 809 185
L 809 185
L 809 184
L 809 184
L 809 184
L 809 184
L 809 184
L 809 184
L 809 184
L 809 184
L 809 184
L 809 184
L 809 184
L 809 184
L 809 184
L 809 184
L 809 184
L 809 184
L 809 184
L 809 184
L 810 184
L 810 184
L 810 184
L 810 184
L 810 183
L 810 183
L 810 183
L 810 183
L 810 183
L 810 183
L 810 183
L 810 183
L 810 183
L 810 183
L 810 183
L 810 183
L 810 183
L 810 183
L 810 183
L 810 183
L 810 183
L 810 183
L 810 183
L 810 183
L 810 183
L 810 183
L 810 183
L 810 182
L 810 182
L 810 182
L 810 182
L 811 182
L 811 182
L 811 182
L 811 182
L 811 182
L 811 182
L 811 182
L 811 182
L 811 182
L 811 182
L 811 182
L 811 182
L 811 182
L 811 182
L 811 182
L 811 182
L 811 182
L 811 182
L 811 181
L 811 181
L 811 181
L 811 181
L 811 181
L 811 181
L 812 181
L 812 181
L 812 181
L 812 181
L 812 181
L 812 181
L 812 181
L 812 181
L 812 181
L 812 181
L 812 181
L 813 181
L 813 181
L 813 181
L 813 181
L 813 181
L 813 181
L 813 180
L 813 180
L 813 180
L 813 180
L 813 180
L 813 180
L 813 180
L 813 180
L 813 180
L 813 180
L 813 180
L 813 180
L 813 180
L 813 180
L 813 180
L 813 180
L 813 180
L 813 180
L 813 180
L 813 180
L 813 180
L 813 180
L 813 179
L 813 179
L 813 179
L 813 179
L 813 179
L 813 179
L 813 179
L 814 179
L 814 179
L 814 179
L 814 179
L 814 179
L 814 179
L 814 179
L 814 179
L 814 179
L 814 179
L 814 179
L 814 179
L 814 179
L 814 179
L 814 179
L 814 178
L 814 178
L 814 178
L 814 178
L 814 178
L 814 178
L 814 178
L 814 178
L 815 178
L 815 178
L 815 178
L 815 178
L 815 178
L 815 178
L 815 178
L 815 178
L 815 178
L 815 178
L 815 178
L 815 178
L 815 178
L 815 178
L 815 178
L 815 177
L 815 177
L 815 177
L 815 177
L 815 177
L 816 177
L 816 177
L 816 177
L 816 177
L 816 177
L 816 177
L 816 177
L 816 177
L 816 177
L 816 177
L 816 177
L 816 177
L 816 177
L 816 177
L 816 177
L 817 177
L 817 177
L 817 176
L 817 176
L 817 176
L 817 176
L 817 176
L 817 176
L 817 176
L 817 176
L 817 176
L 818 176
L 818 176
L 818 176
L 818 176
L 818 176
L 818 176
L 818 176
L 818 176
L 818 176
L 818 176
L 818 176
L 818 176
L 818 176
L 818 175
L 818 175
L 818 175
L 818 175
L 818 175
L 819 175
L 819 175
L 819 175
L 819 175
L 819 175
L 819 175
L 819 175
L 819 175
L 819 175
L 819 175
L 819 175
L 819 175
L 819 175
L 819 175
L 819 175
L 819 175
L 819 175
L 819 175
L 819 174
L 819 174
L 819 174
L 819 174
L 819 174
L 820 174
L 820 174
L 820 174
L 820 174
L 820 174
L 820 174
L 820 174
L 820 174
L 820 174
L 820 174
L 820 174
L 820 174
L 820 174
L 820 174
L 820 174
L 820 174
L 820 174
L 820 173
L 820 173
L 820 173
L 821 173
L 821 173
L 821 173
L 821 173
L 821 173
L 821 173
L 821 173
L 821 173
L 821 173
L 821 173
L 821 173
L 821 173
L 821 173
L 822 173
L 822 173
L 822 173
L 822 173
L 822 173
L 822 173
L 822 172
L 822 172
L 822 172
L 823 172
L 823 172
L 823 172
L 823 172
L 823 172
L 823 172
L 823 172
L 823 172
L 823 172
L 824 172
L 824 172
L 824 172
L 824 172
L 824 172
L 824 172
L 824 172
L 824 172
L 824 172
L 824 172
L 824 172
L 824 171
L 824 171
L 824 171
L 824 171
L 824 171
L 824 171
L 824 171
L 824 171
L 824 171
L 824 171
L 824 171
L 824 171
L 824 171
L 824 171
L 824 171
L 824 171
L 824 171
L 824 171
L 824 171
L 824 171
L 824 171
L 824 171
L 824 170
L 824 170
L 824 170
L 824 170
L 824 170
L 824 170
L 824 170
L 825 170
L 825 170
L 825 170
L 825 170
L 825 170
L 825 170
L 825 170
L 825 170
L 825 170
L 825 170
L 825 170
L 825 170
L 825 170
L 825 170
L 825 170
L 825 169
L 825 169
L 825 169
L 825 169
L 825 169
L 825 169
L 825 169
L 825 169
L 825 169
L 825 169
L 825 169
L 825 169
L 825 169
L 825 169
L 825 169
L 825 169
L 825 169
L 825 169
L 825 169
L 825 169
L 825 169
L 825 169
L 825 169
L 825 168
L 825 168
L 825 168
L 825 168
L 825 168
L 825 168
L 825 168
L 825 168
L 825 168
L 825 168
L 825 168
L 825 168
L 825 168
L 825 168
L 825 168
L 825 168
L 825 168
L 825 168
L 825 168
L 825 168
L 825 168
L 825 168
L 825 167
L 825 167
L 825 167
L 825 167
L 825 167
L 825 167
L 825 167
L 825 167
L 825 167
L 825 167
L 825 167
L 825 167
L 825 167
L 825 167
L 825 167
L 825 167
L 825 167
L 825 167
L 825 167
L 825 167
L 825 167
L 825 167
L 825 166
L 825 166
L 825 166
L 825 166
L 825 166
L 825 166
L 825 166
L 825 166
L 825 166
L 825 166
L 825 166
L 825 166
L 825 166
L 825 166
L 825 166
L 825 166
L 825 166
L 825 166
L 825 166
L 825 166
L 825 166
L 825 166
L 825 166
L 825 165
L 825 165
L 825 165
L 825 165
L 825 165
L 825 165
L 825 165
L 825 165
L 825 165
L 825 165
L 825 165
L 825 165
L 825 165
L 825 165
L 825 165
L 825 165
L 826 165
L 826 165
L 826 165
L 826 165
L 826 165
L 826 165
L 826 164
L 826 164
L 826 164
L 826 164
L 826 164
L 826 164
L 826 164
L 826 164
L 826 164
L 826 164
L 826 164
L 826 164
L 826 164
L 826 164
L 826 164
L 826 164
L 826 164
L 826 164
L 826 164
L 826 164
L 826 164
L 826 164
L 826 163
L 826 163
L 826 163
L 826 163
L 826 163
L 826 163
L 826 163
L 826 163
L 826 163
L 826 163
L 826 163
L 826 163
L 826 163
L 826 163
L 826 163
L 826 163
L 826 163
L 826 163
L 826 163
L 826 163
L 826 163
L 826 163
L 826 163
L 826 162
L 826 162
L 826 162
L 826 162
L 826 162
L 826 162
L 826 162
L 826 162
L 826 162
L 826 162
L 826 162
L 826 162
L 826 162
L 826 162
L 826 162
L 826 162
L 826 162
L 826 162
L 826 162
L 826 162
L 826 162
L 826 162
L 826 161
L 826 161
L 826 161
L 826 161
L 826 161
L 826 161
L 826 161
L 826 161
L 826 161
L 826 161
L 826 161
L 826 161
L 826 161
L 826 161
L 826 161
L 826 161
L 826 161
L 826 161
L 826 161
L 826 161
L 826 161
L 826 161
L 826 161
L 826 160
L 826 160
L 826 160
L 826 160
L 826 160
L 826 160
L 826 160
L 826 160
L 826 160
L 826 160
L 826 160
L 826 160
L 826 160
L 826 160
L 826 160
L 826 160
L 826 160
L 826 160
L 826 160
L 826 160
L 826 160
L 826 160
L 826 159
L 826 159
L 826 159
L 826 159
L 826 159
L 826 159
L 826 159
L 826 159
L 826 159
L 826 159
L 826 159
L 826 159
L 826 159
L 826 159
L 826 159
L 826 159
L 826 159
L 826 159
L 826 159
L 826 159
L 826 159
L 826 159
L 826 158
L 826 158
L 826 158
L 826 158
L 826 158
L 826 158
L 826 158
L 826 158
L 826 158
L 826 158
L 826 158
L 826 158
L 826 158
L 826 158
L 826 158
L 826 158
L 826 158
L 826 158
L 826 158
L 826 158
L 826 158
L 826 158
L 826 158
L 826 157
L 826 157
L 826 157
L 826 157
L 826 157
L 826 157
L 826 157
L 826 157
L 826 157
L 826 157
L 826 157
L 826 157
L 826 157
L 826 157
L 826 157
L 826 157
L 826 157
L 826 157
L 826 157
L 826 157
L 826 157
L 826 157
L 826 156
L 826 156
L 826 156
L 826 156
L 826 156
L 826 156
L 826 156
L 826 156
L 826 156
L 826 156
L 826 156
L 826 156
L 826 156
L 826 156
L 826 156
L 826 156
L 826 156
L 826 156
L 826 156
L 826 156
L 826 156
L 826 156
L 826 155
L 826 155
L 826 155
L 826 155
L 826 155
L 826 155
L 826 155
L 826 155
L 826 155
L 826 155
L 826 155
L 826 155
L 826 155
L 826 155
L 826 155
L 826 155
L 826 155
L 826 155
L 826 155
L 826 155
L 826 155
L 826 155
L 826 155
L 826 154
L 826 154
L 826 154
L 826 154
L 826 154
L 826 154
L 826 154
L 826 154
L 826 154
L 826 154
L 826 154
L 826 154
L 826 154
L 826 154
L 826 154
L 826 154
L 826 154
L 826 154
L 826 154
L 826 154
L 826 154
L 826 154
L 826 153
L 826 153
L 826 153
L 826 153
L 826 153
L 826 153
L 826 153
L 826 153
L 826 153
L 826 153
L 826 153
L 826 153
L 826 153
L 826 153
L 826 153
L 826 153
L 826 153
L 826 153
L 826 153
L 826 153
L 826 153
L 826 153
L 826 152
L 826 152
L 826 152
L 826 152
L 826 152
L 826 152
L 826 152
L 826 152
L 826 152
L 826 152
L 826 152
L 826 152
L 826 152
L 826 152
L 826 152
L 826 152
L 826 152
L 826 152
L 826 152
L 826 152
L 826 152
L 826 152
L 826 152
L 826 151
L 826 151
L 826 151
L 826 151
L 826 151
L 826 151
L 826 151
L 826 151
L 826 151
L 826 151
L 826 151
L 826 151
L 826 151
L 826 151
L 826 151
L 826 151
L 826 151
L 826 151
L 826 151
L 826 151
L 826 151
L 826 151
L 826 150
L 826 150
L 826 150
L 826 150
L 826 150
L 826 150
L 826 150
L 826 150
L 826 150
L 826 150
L 826 150
L 826 150
L 826 150
L 826 150
L 826 150
L 826 150
L 826 150
L 826 150
L 826 150
L 826 150
L 826 150
L 826 150
L 826 149
L 826 149
L 826 149
L 826 149
L 826 149
L 826 149
L 826 149
L 826 149
L 826 149
L 826 149
L 826 149
L 826 149
L 826 149
L 826 149
L 826 149
L 826 149
L 826 149
L 826 149
L 826 149
L 826 149
L 826 149
L 826 149
L 826 149
L 826 148
L 826 148
L 826 148
L 826 148
L 826 148
L 826 148
L 826 148
L 826 148
L 826 148
L 826 148
L 826 148
L 826 148
L 826 148
L 826 148
L 826 148
L 826 148
L 827 148
L 827 148
L 827 148
L 827 148
L 827 148
L 827 148
L 827 147
L 827 147
L 827 147
L 827 147
L 827 147
L 827 147
L 827 147
L 827 147
L 827 147
L 827 147
L 827 147
L 827 147
L 827 147
L 827 147
L 827 147
L 827 147
L 827 147
L 827 147
L 827 147
L 827 147
L 827 147
L 827 147
L 827 147
L 827 146
L 827 146
L 827 146
L 827 146
L 827 146
L 827 146
L 827 146
L 827 146
L 827 146
L 827 146
L 827 146
L 827 146
L 827 146
L 827 146
L 827 146
L 827 146
L 827 146
L 827 146
L 827 146
L 827 146
L 827 146
L 827 146
L 827 145
L 827 145
L 827 145
L 827 145
L 827 145
L 827 145
L 827 145
L 827 145
L 827 145
L 827 145
L 827 145
L 827 145
L 827 145
L 827 145
L 827 145
L 827 145
L 827 145
L 827 145
L 827 145
L 827 145
L 827 145
L 827 145
L 827 144
L 827 144
L 827 144
L 827 144
L 827 144
L 827 144
L 827 144
L 827 144
L 827 144
L 827 144
L 827 144
L 827 144
L 827 144
L 827 144
L 827 144
L 827 144
L 827 144
L 827 144
L 827 144
L 827 144
L 827 144
L 827 144
L 827 144
L 827 143
L 827 143
L 827 143
L 827 143
L 827 143
L 827 143
L 827 143
L 827 143
L 827 143
L 827 143
L 827 143
L 827 143
L 827 143
L 827 143
L 827 143
L 827 143
L 827 143
L 827 143
L 827 143
L 827 143
L 827 143
L 827 143
L 827 142
L 827 142
L 827 142
L 827 142
L 827 142
L 827 142
L 827 142
L 827 142
L 827 142
L 827 142
L 827 142
L 827 142
L 827 142
L 827 142
L 827 142
L 827 142
L 827 142
L 827 142
L 827 142
L 827 142
L 827 142
L 827 142
L 827 141
L 827 141
L 827 141
L 827 141
L 827 141
L 827 141
L 827 141
L 827 141
L 827 141
L 827 141
L 827 141
L 827 141
L 827 141
L 827 141
L 827 141
L 827 141
L 827 141
L 827 141
L 827 141
L 827 141
L 827 141
L 827 141
L 827 141
L 827 140
L 827 140
L 827 140
L 827 140
L 827 140
L 827 140
L 827 140
L 827 140
L 827 140
L 827 140
L 827 140
L 827 140
L 827 140
L 827 140
L 827 140
L 827 140
L 827 140
L 827 140
L 827 140
L 827 140
L 827 140
L 827 140
L 827 139
L 827 139
L 827 139
L 827 139
L 827 139
L 827 139
L 827 139
L 827 139
L 827 139
L 827 139
L 827 139
L 827 139
L 827 139
L 827 139
L 827 139
L 827 139
L 827 139
L 827 139
L 827 139
L 827 139
L 827 139
L 827 139
L 827 138
L 827 138
L 827 138
L 827 138
L 827 138
L 827 138
L 827 138
L 827 138
L 827 138
L 827 138
L 827 138
L 827 138
L 827 138
L 827 138
L 827 138
L 827 138
L 827 138
L 827 138
L 827 138
L 827 138
L 827 138
L 827 138
L 827 138
L 827 137
L 827 137
L 827 137
L 827 137
L 827 137
L 827 137
L 827 137
L 827 137
L 827 137
L 827 137
L 827 137
L 827 137
L 827 137
L 827 137
L 827 137
L 827 137
L 827 137
L 827 137
L 827 137
L 827 137
L 827 137
L 827 137
L 827 136
L 827 136
L 827 136
L 827 136
L 827 136
L 827 136
L 827 136
L 827 136
L 827 136
L 827 136
L 827 136
L 827 136
L 827 136
L 827 136
L 827 136
L 827 136
L 827 136
L 827 136
L 827 136
L 827 136
L 827 136
L 827 136
L 827 135
L 827 135
L 827 135
L 827 135
L 827 135
L 827 135
L 827 135
L 827 135
L 827 135
L 827 135
L 827 135
L 827 135
L 827 135
L 827 135
L 827 135
L 827 135
L 827 135
L 827 135
L 827 135
L 827 135
L 827 135
L 827 135
L 827 135
L 827 134
L 827 134
L 827 134
L 827 134
L 827 134
L 827 134
L 827 134
L 827 134
L 827 134
L 827 134
L 827 134
L 827 134
L 827 134
L 827 134
L 827 134
L 827 134
L 827 134
L 827 134
L 827 134
L 827 134
L 827 134
L 827 134
L 827 133
L 827 133
L 827 133
L 827 133
L 827 133
L 827 133
L 827 133
L 827 133
L 827 133
L 827 133
L 827 133
L 827 133
L 827 133
L 827 133
L 827 133
L 827 133
L 827 133
L 827 133
L 827 133
L 827 133
L 827 133
L 827 133
L 827 132
L 827 132
L 827 132
L 827 132
L 827 132
L 827 132
L 827 132
L 827 132
L 827 132
L 827 132
L 827 132
L 828 132
L 828 132
L 828 132
L 828 132
L 828 132
L 828 132
L 828 132
L 828 132
L 828 132
L 828 132
L 828 132
L 828 132
L 828 131
L 828 131
L 828 131
L 828 131
L 828 131
L 828 131
L 828 131
L 828 131
L 828 131
L 828 131
L 828 131
L 828 131
L 828 131
L 828 131
L 828 131
L 828 131
L 828 131
L 828 131
L 828 131
L 828 131
L 828 131
L 828 131
L 828 130
L 828 130
L 828 130
L 828 130
L 828 130
L 828 130
L 828 130
L 828 130
L 828 130
L 828 130
L 828 130
L 828 130
L 828 130
L 828 130
L 828 130
L 828 130
L 828 130
L 828 130
L 828 130
L 828 130
L 828 130
L 828 130
L 828 130
L 828 129
L 828 129
L 828 129
L 828 129
L 828 129
L 828 129
L 828 129
L 828 129
L 828 129
L 828 129
L 828 129
L 828 129
L 828 129
L 828 129
L 828 129
L 828 129
L 828 129
L 828 129
L 828 129
L 828 129
L 828 129
L 828 129
L 828 128
L 828 128
L 828 128
L 828 128
L 828 128
L 828 128
L 828 128
L 828 128
L 828 128
L 828 128
L 828 128
L 828 128
L 828 128
L 828 128
L 828 128
L 828 128
L 828 128
L 828 128
L 828 128
L 828 128
L 828 128
L 828 128
L 828 127
L 828 127
L 828 127
L 828 127
L 828 127
L 828 127
L 828 127
L 828 127
L 828 127
L 828 127
L 828 127
L 828 127
L 828 127
L 828 127
L 828 127
L 828 127
L 828 127
L 828 127
L 828 127
L 828 127
L 828 127
L 828 127
L 828 127
L 828 126
L 828 126
L 828 126
L 828 126
L 828 126
L 828 126
L 828 126
L 828 126
L 828 126
L 828 126
L 828 126
L 828 126
L 828 126
L 828 126
L 828 126
L 828 126
L 828 126
L 828 126
L 828 126
L 828 126
L 828 126
L 828 126
L 828 125
L 828 125
L 828 125
L 828 125
L 828 125
L 828 125
L 828 125
L 828 125
L 828 125
L 828 125
L 828 125
L 828 125
L 828 125
L 828 125
L 828 125
L 828 125
L 828 125
L 828 125
L 828 125
L 828 125
L 828 125
L 828 125
L 828 124
L 828 124
L 828 124
L 828 124
L 828 124
L 828 124
L 828 124
L 828 124
L 828 124
L 828 124
L 828 124
L 828 124
L 828 124
L 828 124
L 828 124
L 828 124
L 828 124
L 828 124
L 828 124
L 828 124
L 828 124
L 828 124
L 828 124
L 828 123
L 828 123
L 828 123
L 828 123
L 828 123
L 828 123
L 828 123
L 828 123
L 828 123
L 828 123
L 828 123
L 828 123
L 828 123
L 828 123
L 828 123
L 828 123
L 828 123
L 828 123
L 828 123
L 828 123
L 828 123
L 828 123
L 829 122
L 829 122
L 829 122
L 829 122
L 829 122
L 829 122
L 829 122
L 829 122
L 829 122
L 829 122
L 829 122
L 829 122
L 829 122
L 829 122
L 829 122
L 829 122
L 829 122
L 829 122
L 829 122
L 829 122
L 829 122
L 829 122
L 829 121
L 829 121
L 829 121
L 829 121
L 829 121
L 829 121
L 829 121
L 829 121
L 829 121
L 829 121
L 829 121
L 829 121
L 829 121
L 829 121
L 829 121
L 829 121
L 829 121
L 829 121
L 829 121
L 829 121
L 829 121
L 829 121
L 829 121
L 829 120
L 829 120
L 829 120
L 829 120
L 829 120
L 829 120
L 829 120
L 829 120
L 829 120
L 829 120
L 829 120
L 829 120
L 829 120
L 829 120
L 829 120
L 829 120
L 829 120
L 829 120
L 829 120
L 829 120
L 829 120
L 829 120
L 829 119
L 829 119
L 829 119
L 829 119
L 829 119
L 829 119
L 829 119
L 829 119
L 829 119
L 829 119
L 829 119
L 829 119
L 829 119
L 829 119
L 829 119
L 829 119
L 829 119
L 829 119
L 829 119
L 829 119
L 829 119
L 829 119
L 829 118
L 829 118
L 829 118
L 829 118
L 829 118
L 829 118
L 829 118
L 829 118
L 829 118
L 829 118
L 829 118
L 829 118
L 829 118
L 829 118
L 829 118
L 829 118
L 829 118
L 829 118
L 829 118
L 829 118
L 829 118
L 829 118
L 829 118
L 829 117
L 829 117
L 829 117
L 829 117
L 830 117
L 830 117
L 830 117
L 830 117
L 830 117
L 830 117
L 830 117
L 830 117
L 830 117
L 830 117
L 830 117
L 830 117
L 830 117
L 830 117
L 830 117
L 830 117
L 830 117
L 830 117
L 830 116
L 830 116
L 830 116
L 830 116
L 830 116
L 830 116
L 830 116
L 830 116
L 830 116
L 830 116
L 830 116
L 830 116
L 830 116
L 830 116
L 830 116
L 830 116
L 830 116
L 830 116
L 830 116
L 830 116
L 830 116
L 830 116
L 830 115
L 830 115
L 830 115
L 830 115
L 830 115
L 830 115
L 830 115
L 830 115
L 830 115
L 830 115
L 830 115
L 830 115
L 830 115
L 830 115
L 830 115
L 830 115
L 830 115
L 830 115
L 830 115
L 830 115
L 831 115
L 831 115
L 831 115
L 831 114
L 831 114
L 831 114
L 831 114
L 831 114
L 831 114
L 831 114
L 831 114
L 831 114
L 831 114
L 831 114
L 831 114
L 831 114
L 831 114
L 831 114
L 831 114
L 831 114
L 831 114
L 831 114
L 831 114
L 831 114
L 831 114
L 831 113
L 831 113
L 831 113
L 831 113
L 831 113
L 831 113
L 831 113
L 831 113
L 831 113
L 831 113
L 831 113
L 831 113
L 831 113
L 831 113
L 831 113
L 831 113
L 831 113
L 831 113
L 831 113
L 831 113
L 831 113
L 831 113
L 831 113
L 831 112
L 831 112
L 831 112
L 831 112
L 831 112
L 831 112
L 831 112
L 831 112
L 831 112
L 831 112
L 831 112
L 831 112
L 831 112
L 831 112
L 831 112
L 831 112
L 831 112
L 831 112
L 831 112
L 831 112
L 831 112
L 831 112
L 831 111
L 831 111
L 831 111
L 831 111
L 831 111
L 831 111
L 831 111
L 831 111
L 831 111
L 831 111
L 831 111
L 831 111
L 831 111
L 831 111
L 831 111
L 832 111
L 832 111
L 832 111
L 832 111
L 832 111
L 832 111
L 832 111
L 832 110
L 832 110
L 832 110
L 832 110
L 832 110
L 832 110
L 832 110
L 832 110
L 832 110
L 832 110
L 832 110
L 832 110
L 832 110
L 832 110
L 832 110
L 832 110
L 832 110
L 832 110
L 832 110
L 832 110
L 832 110
L 832 110
L 832 110
L 832 109
L 832 109
L 832 109
L 832 109
L 832 109
L 832 109
L 832 109
L 832 109
L 832 109
L 832 109
L 832 109
L 833 109
L 833 109
L 833 109
L 833 109
L 833 109
L 833 109
L 833 109
L 833 109
L 833 109
L 833 109
L 833 109
L 833 108
L 833 108
L 833 108
L 833 108
L 833 108
L 833 108
L 833 108
L 833 108
L 833 108
L 833 108
L 833 108
L 833 108
L 833 108
L 833 108
L 833 108
L 833 108
L 833 108
L 833 108
L 833 108
L 833 108
L 834 108
L 834 108
L 834 107
L 834 107
L 834 107
L 834 107
L 834 107
L 834 107
L 834 107
L 834 107
L 834 107
L 834 107
L 834 107
L 834 107
L 834 107
L 834 107
L 834 107
L 835 107
L 835 107
L 835 107
L 835 107
L 835 107
L 835 107
L 835 107
L 835 107
L 835 106
L 835 106
L 835 106
L 835 106
L 835 106
L 835 106
L 835 106
L 835 106
L 835 106
L 835 106
L 835 106
L 835 106
L 835 106
L 835 106
L 835 106
L 835 106
L 835 106
L 835 106
L 835 106
L 835 106
L 836 106
L 836 106
L 836 105
L 836 105
L 836 105
L 836 105
L 836 105
L 836 105
L 836 105
L 836 105
L 836 105
L 836 105
L 836 105
L 836 105
L 836 105
L 836 105
L 836 105
L 836 105
L 836 105
L 836 105
L 836 105
L 836 105
L 836 105
L 836 105
L 836 104
L 836 104
L 836 104
L 836 104
L 836 104
L 837 104
L 837 104
L 837 104
L 837 104
L 837 104
L 837 104
L 837 104
L 837 104
L 837 104
L 837 104
L 837 104
L 837 104
L 837 104
L 837 104
L 837 104
L 837 104
L 837 104
L 838 104
L 838 103
L 838 103
L 838 103
L 838 103
L 838 103
L 838 103
L 838 103
L 838 103
L 838 103
L 838 103
L 838 103
L 838 103
L 838 103
L 838 103
L 838 103
L 838 103
L 838 103
L 838 103
L 838 103
L 838 103
L 838 103
L 838 103
L 838 102
L 838 102
L 838 102
L 838 102
L 838 102
L 838 102
L 838 102
L 838 102
L 839 102
L 839 102
L 839 102
L 839 102
L 839 102
L 839 102
L 839 102
L 839 102
L 839 102
L 839 102
L 839 102
L 839 102
L 839 102
L 839 102
L 839 101
L 839 101
L 839 101
L 839 101
L 839 101
L 839 101
L 840 101
L 840 101
L 840 101
L 840 101
L 840 101
L 840 101
L 840 101
L 840 101
L 840 101
L 840 101
L 840 101
L 840 101
L 840 101
L 840 101
L 841 101
L 841 101
L 841 101
L 841 100
L 841 100
L 841 100
L 841 100
L 841 100
L 841 100
L 841 100
L 842 100
L 842 100
L 842 100
L 842 100
L 842 100
L 842 100
L 842 100
L 842 100
L 842 100
L 842 100
L 842 100
L 842 100
L 842 100
L 842 100
L 842 100
L 842 99
L 842 99
L 842 99
L 842 99
L 842 99
L 842 99
L 842 99
L 842 99
L 842 99
L 842 99
L 842 99
L 842 99
L 842 99
L 842 99
L 843 99
L 843 99
L 843 99
L 843 99
L 843 99
L 843 99
L 843 99
L 843 99
L 843 98
L 843 98
L 843 98
L 843 98
L 843 98
L 843 98
L 843 98
L 843 98
L 843 98
L 843 98
L 843 98
L 843 98
L 843 98
L 843 98
L 843 98
L 843 98
L 843 98
L 843 98
L 843 98
L 843 98
L 843 98
L 843 98
L 843 98
L 843 97
L 843 97
L 843 97
L 843 97
L 843 97
L 843 97
L 843 97
L 843 97
L 843 97
L 843 97
L 843 97
L 843 97
L 843 97
L 843 97
L 843 97
L 843 97
L 843 97
L 843 97
L 843 97
L 843 97
L 843 97
L 844 97
L 844 96
L 844 96
L 844 96
L 844 96
L 844 96
L 844 96
L 844 96
L 844 96
L 844 96
L 844 96
L 844 96
L 844 96
L 844 96
L 844 96
L 844 96
L 844 96
L 844 96
L 844 96
L 844 96
L 844 96
L 844 96
L 844 96
L 844 96
L 844 95
L 844 95
L 844 95
L 844 95
L 844 95
L 844 95
L 844 95
L 844 95
L 844 95
L 844 95
L 844 95
L 844 95
L 844 95
L 844 95
L 844 95
L 844 95
L 844 95
L 844 95
L 844 95
L 844 95
L 844 95
L 844 95
L 844 94
L 844 94
L 844 94
L 844 94
L 844 94
L 844 94
L 844 94
L 845 94
L 845 94
L 845 94
L 845 94
L 845 94
L 845 94
L 845 94
L 845 94
L 845 94
L 845 94
L 845 94
L 845 94
L 845 94
L 845 94
L 845 94
L 845 93
L 845 93
L 845 93
L 845 93
L 845 93
L 845 93
L 845 93
L 845 93
L 845 93
L 845 93
L 845 93
L 845 93
L 846 93
L 846 93
L 846 93
L 846 93
L 846 93
L 846 93
L 846 93
L 846 93
L 846 93
L 846 93
L 846 93
L 846 92
L 846 92
L 846 92
L 847 92
L 847 92
L 847 92
L 847 92
L 847 92
L 847 92
L 847 92
L 847 92
L 847 92
L 847 92
L 847 92
L 847 92
L 847 92
L 847 92
L 847 92
L 847 92
L 847 92
L 847 92
L 847 92
L 847 91
L 847 91
L 847 91
L 847 91
L 847 91
L 847 91
L 847 91
L 847 91
L 847 91
L 847 91
L 847 91
L 847 91
L 847 91
L 847 91
L 847 91
L 847 91
L 847 91
L 847 91
L 847 91
L 847 91
L 847 91
L 847 91
L 848 90
L 848 90
L 848 90
L 848 90
L 848 90
L 848 90
L 848 90
L 848 90
L 848 90
L 848 90
L 848 90
L 848 90
L 848 90
L 848 90
L 848 90
L 848 90
L 848 90
L 848 90
L 848 90
L 848 90
L 848 90
L 848 90
L 848 90
L 848 89
L 848 89
L 848 89
L 848 89
L 848 89
L 848 89
L 848 89
L 848 89
L 848 89
L 848 89
L 849 89
L 849 89
L 849 89
L 849 89
L 849 89
L 849 89
L 849 89
L 849 89
L 849 89
L 849 89
L 849 89
L 849 89
L 849 88
L 849 88
L 849 88
L 849 88
L 849 88
L 850 88
L 850 88
L 850 88
L 850 88
L 850 88
L 850 88
L 850 88
L 850 88
L 850 88
L 850 88
L 850 88
L 850 88
L 850 88
L 851 88
L 851 88
L 851 88
L 851 88
L 851 87
L 851 87
L 852 87
L 852 87
L 852 87
L 852 87
L 852 87
L 852 87
L 852 87
L 852 87
L 853 87
L 853 87
L 853 87
L 853 87
L 853 87
L 853 87
L 853 87
L 853 87
L 853 87
L 853 87
L 853 87
L 853 87
L 853 87
L 853 86
L 853 86
L 854 86
L 854 86
L 854 86
L 854 86
L 854 86
L 854 86
L 854 86
L 854 86
L 854 86
L 854 86
L 854 86
L 855 86
L 855 86
L 855 86
L 855 86
L 855 86
L 855 86
L 855 86
L 855 86
L 855 86
L 855 85
L 855 85
L 855 85
L 855 85
L 856 85
L 856 85
L 856 85
L 856 85
L 856 85
L 856 85
L 856 85
L 856 85
L 856 85
L 857 85
L 857 85
L 857 85
L 857 85
L 857 85
L 857 85
L 857 85
L 857 85
L 857 85
L 858 84
L 858 84
L 858 84
L 858 84
L 858 84
L 858 84
L 858 84
L 858 84
L 858 84
L 858 84
L 858 84
L 859 84
L 859 84
L 859 84
L 859 84
L 859 84
L 859 84
L 859 84
L 859 84
L 859 84
L 860 84
L 860 84
L 860 84
L 860 83
L 860 83
L 860 83
L 860 83
L 860 83
L 860 83
L 860 83
L 861 83
L 861 83
L 861 83
L 861 83
L 861 83
L 861 83
L 861 83
L 861 83
L 861 83
L 861 83
L 861 83
L 861 83
L 861 83
L 861 83
L 861 83
L 861 82
L 861 82
L 861 82
L 861 82
L 861 82
L 861 82
L 861 82
L 862 82
L 862 82
L 862 82
L 862 82
L 862 82
L 862 82
L 862 82
L 863 82
L 863 82
L 863 82
L 863 82
L 863 82
L 863 82
L 863 82
L 864 82
L 864 81
L 864 81
L 864 81
L 864 81
L 864 81
L 864 81
L 864 81
L 864 81
L 864 81
L 864 81
L 865 81
L 865 81
L 865 81
L 865 81
L 865 81
L 865 81
L 865 81
L 865 81
L 865 81
L 865 81
L 865 81
L 865 81
L 865 81
L 865 80
L 865 80
L 865 80
L 865 80
L 865 80
L 866 80
L 866 80
L 866 80
L 866 80
L 866 80
L 866 80
L 866 80
L 866 80
L 866 80
L 866 80
L 867 80
L 867 80
L 867 80
L 867 80
L 867 80
L 867 80
L 868 80
L 868 79
L 868 79
L 868 79
L 868 79
L 869 79
L 869 79
L 869 79
L 869 79
L 869 79
L 869 79
L 869 79
L 869 79
L 869 79
L 869 79
L 869 79
L 869 79
L 869 79
L 869 79
L 870 79
L 870 79
L 870 79
L 870 79
L 870 79
L 870 78
L 870 78
L 870 78
L 870 78
L 870 78
L 870 78
L 870 78
L 870 78
L 870 78
L 870 78
L 870 78
L 870 78
L 870 78
L 870 78
L 870 78
L 870 78
L 870 78
L 870 78
L 870 78
L 870 78
L 870 78
L 870 78
L 870 77
L 870 77
L 870 77
L 870 77
L 870 77
L 870 77
L 870 77
L 870 77
L 870 77
L 870 77
L 871 77
L 871 77
L 871 77
L 871 77
L 871 77
L 871 77
L 871 77
L 871 77
L 871 77
L 871 77
L 871 77
L 871 77
L 871 76
L 871 76
L 871 76
L 871 76
L 871 76
L 872 76
L 872 76
L 872 76
L 872 76
L 872 76
L 872 76
L 872 76
L 872 76
L 872 76
L 872 76
L 872 76
L 872 76
L 872 76
L 872 76
L 872 76
L 872 76
L 872 76
L 872 76
L 872 75
L 872 75
L 872 75
L 872 75
L 872 75
L 872 75
L 872 75
L 872 75
L 872 75
L 872 75
L 872 75
L 872 75
L 873 75
L 873 75
L 873 75
L 873 75
L 873 75
L 873 75
L 873 75
L 873 75
L 873 75
L 873 75
L 873 74
L 873 74
L 874 74
L 874 74
L 874 74
L 874 74
L 874 74
L 874 74
L 874 74
L 874 74
L 874 74
L 874 74
L 874 74
L 874 74
L 874 74
L 875 74
L 875 74
L 875 74
L 875 74
L 875 74
L 875 74
L 875 74
L 875 73
L 875 73
L 875 73
L 875 73
L 876 73
L 876 73
L 876 73
L 876 73
L 876 73
L 876 73
L 876 73
L 876 73
L 876 73
L 876 73
L 876 73
L 876 73
L 876 73
L 876 73
L 876 73
L 877 73
L 877 73
L 877 73
L 877 73
L 877 72
L 877 72
L 877 72
L 877 72
L 877 72
L 877 72
L 877 72
L 877 72
L 877 72
L 877 72
L 877 72
L 878 72
L 878 72
L 878 72
L 878 72
L 878 72
L 878 72
L 878 72
L 878 72
L 878 72
L 878 72
L 878 72
L 878 71
L 878 71
L 879 71
L 879 71
L 879 71
L 879 71
L 879 71
L 879 71
L 879 71
L 879 71
L 880 71
L 880 71
L 880 71
L 880 71
L 880 71
L 880 71
L 880 71
L 880 71
L 880 71
L 880 71
L 880 71
L 881 71
L 881 70
L 881 70
L 881 70
L 881 70
L 881 70
L 881 70
L 881 70
L 881 70
L 881 70
L 882 70
L 882 70
L 882 70
L 882 70
L 882 70
L 882 70
L 882 70
L 882 70
L 882 70
L 882 70
L 882 70
L 882 70
L 882 70
L 882 70
L 882 69
L 882 69
L 883 69
L 883 69
L 883 69
L 883 69
L 883 69
L 883 69
L 883 69
L 883 69
L 884 69
L 884 69
L 884 69
L 884 69
L 884 69
L 884 69
L 884 69
L 884 69
L 884 69
L 884 69
L 885 69
L 885 69
L 885 68
L 885 68
L 885 68
L 885 68
L 885 68
L 885 68
L 885 68
L 885 68
L 885 68
L 886 68
L 886 68
L 886 68
L 886 68
L 886 68
L 886 68
L 886 68
L 886 68
L 886 68
L 886 68
L 886 68
L 886 68
L 886 68
L 886 67
L 886 67
L 886 67
L 886 67
L 886 67
L 886 67
L 886 67
L 886 67
L 886 67
L 887 67
L 887 67
L 887 67
L 887 67
L 887 67
L 887 67
L 887 67
L 887 67
L 887 67
L 887 67
L 887 67
L 887 67
L 887 67
L 888 67
L 888 66
L 888 66
L 888 66
L 888 66
L 888 66
L 888 66
L 888 66
L 889 66
L 889 66
L 889 66
L 889 66
L 889 66
L 889 66
L 889 66
L 889 66
L 889 66
L 889 66
L 889 66
L 890 66
L 890 66
L 890 66
L 890 66
L 890 65
L 890 65
L 890 65
L 890 65
L 890 65
L 891 65
L 891 65
L 891 65
L 891 65
L 891 65
L 891 65
L 891 65
L 891 65
L 891 65
L 891 65
L 892 65
L 892 65
L 892 65
L 892 65
L 892 65
L 892 65
L 892 65
L 893 64
L 893 64
L 893 64
L 893 64
L 893 64
L 893 64
L 893 64
L 893 64
L 893 64
L 893 64
L 893 64
L 893 64
L 893 64
L 893 64
L 893 64
L 894 64
L 894 64
L 894 64
L 894 64
L 894 64
L 894 64
L 894 64
L 894 64
L 894 63
L 894 63
L 894 63
L 894 63
L 894 63
L 894 63
L 894 63
L 894 63
L 895 63
L 895 63
L 895 63
L 895 63
L 895 63
L 895 63
L 895 63
L 895 63
L 895 63
L 896 63
L 896 63
L 896 63
L 896 63
L 896 63
L 897 62
L 897 62
L 897 62
L 897 62
L 897 62
L 897 62
L 897 62
L 897 62
L 897 62
L 897 62
L 897 62
L 897 62
L 897 62
L 897 62
L 898 62
L 898 62
L 898 62
L 898 62
L 898 62
L 898 62
L 898 62
L 898 62
L 898 62
L 898 61
L 898 61
L 898 61
L 898 61
L 899 61
L 899 61
L 899 61
L 899 61
L 899 61
L 899 61
L 899 61
L 899 61
L 899 61
L 899 61
L 899 61
L 899 61
L 899 61
L 899 61
L 899 61
L 899 61
L 899 61
L 899 61
L 899 60
L 899 60
L 899 60
L 899 60
L 899 60
L 899 60
L 899 60
L 899 60
L 899 60
L 899 60
L 899 60
L 899 60
L 899 60
L 899 60
L 899 60
L 899 60
L 899 60
L 899 60
L 899 60
L 899 60
L 899 60
L 899 60
L 899 59
L 899 59
L 899 59
L 900 59
L 900 59
L 900 59
L 900 59
L 900 59
L 900 59
L 900 59
L 900 59
L 900 59
L 900 59
L 900 59
L 900 59
L 900 59
L 900 59
L 900 59
L 900 59
L 900 59
L 900 59
L 900 59
L 900 59
L 900 58
L 901 58
L 901 58
L 901 58
L 901 58
L 901 58
L 901 58
L 901 58
L 901 58
L 901 58
L 901 58
L 901 58
L 901 58
L 901 58
L 901 58
L 901 58
L 901 58
L 901 58
L 901 58
L 901 58
L 901 58
L 901 58
L 901 57
L 901 57
L 901 57
L 901 57
L 901 57
L 901 57
L 901 57
L 901 57
L 901 57
L 901 57
L 901 57
L 901 57
L 901 57
L 901 57
L 901 57
L 901 57
L 901 57
L 901 57
L 901 57
L 902 57
L 902 57
L 902 57
L 902 56
L 902 56
L 902 56
L 902 56
L 902 56
L 902 56
L 902 56
L 902 56
L 902 56
L 902 56
L 902 56
L 902 56
L 902 56
L 902 56
L 903 56
L 903 56
L 903 56
L 903 56
L 903 56
L 903 56
L 903 56
L 903 56
L 903 56
L 903 55
L 903 55
L 903 55
L 903 55
L 903 55
L 903 55
L 903 55
L 903 55
L 903 55
L 903 55
L 903 55
L 903 55
L 903 55
L 903 55
L 903 55
L 903 55
L 903 55
L 903 55
L 903 55
L 904 55
L 904 55
L 904 55
L 904 54
L 904 54
L 904 54
L 904 54
L 904 54
L 904 54
L 904 54
L 904 54
L 904 54
L 904 54
L 904 54
L 904 54
L 904 54
L 904 54
L 904 54
L 904 54
L 904 54
L 904 54
L 904 54
L 904 54
L 904 54
L 904 54
L 904 53
L 904 53
L 904 53
L 904 53
L 904 53
L 904 53
L 904 53
L 904 53
L 904 53
L 904 53
L 904 53
L 904 53
L 904 53
L 904 53
L 904 53
L 904 53
L 904 53
L 904 53
L 904 53
L 904 53
L 904 53
L 905 53
L 905 53
L 905 52
L 905 52
L 905 52
L 905 52
L 905 52
L 905 52
L 905 52
L 905 52
L 905 52
L 905 52
L 905 52
L 905 52
L 905 52
L 905 52
L 905 52
L 905 52
L 905 52
L 905 52
L 905 52
L 905 52
L 905 52
L 905 52
L 905 51
L 905 51
L 905 51
L 905 51
L 905 51
L 905 51
L 905 51
L 905 51
L 905 51
L 905 51
L 905 51
L 905 51
L 905 51
L 905 51
L 905 51
L 905 51
L 905 51
L 905 51
L 905 51
L 905 51
L 905 51
L 905 51
L 905 50
L 905 50
L 905 50
L 905 50
L 905 50
L 905 50
L 905 50
L 905 50
L 905 50
L 905 50
L 905 50
L 905 50
L 905 50
L 906 50
L 906 50
L 906 50
L 906 50
L 906 50
L 906 50
L 906 50
L 906 50
L 906 50
L 906 50
L 906 49
L 906 49
L 906 49
L 906 49
L 906 49
L 906 49
L 906 49
L 906 49
L 906 49
L 906 49
L 906 49
L 906 49
L 906 49
L 906 49
L 906 49
L 906 49
L 906 49
L 906 49
L 906 49
L 906 49
L 906 49
L 906 49
L 906 48
L 906 48
L 906 48
L 906 48
L 906 48
L 906 48
L 906 48
L 906 48
L 906 48
L 906 48
L 906 48
L 906 48
L 906 48
L 906 48
L 906 48
L 906 48
L 906 48
L 906 48
L 906 48
L 906 48
L 906 48
L 906 48
L 906 47
L 906 47
L 906 47
L 906 47
L 906 47
L 906 47
L 906 47
L 906 47
L 906 47
L 906 47
L 906 47
L 906 47
L 906 47
L 906 47
L 906 47
L 906 47
L 906 47
L 906 47
L 907 47
L 907 47
L 907 47
L 907 47
L 907 47
L 907 46
L 907 46
L 907 46
L 907 46
L 907 46
L 907 46
L 907 46
L 907 46
L 907 46
L 907 46
L 907 46
L 907 46
L 907 46
L 907 46
L 907 46
L 907 46
L 907 46
L 907 46
L 907 46
L 907 46
L 907 46
L 907 46
L 907 45
L 908 45
L 908 45
L 908 45
L 908 45
L 908 45
L 908 45
L 908 45
L 908 45
L 908 45
L 908 45
L 908 45
L 908 45
L 908 45
L 908 45
L 908 45
L 908 45
L 908 45
L 908 45
L 908 45
L 908 45
L 908 45
L 909 45
L 909 44
L 909 44
L 909 44
L 909 44
L 909 44
L 909 44
L 909 44
L 909 44
L 909 44
L 909 44
L 909 44
L 909 44
L 909 44
L 909 44
L 909 44
L 909 44
L 909 44
L 909 44
L 909 44
L 909 44
L 909 44
L 909 44
L 909 43
L 909 43
L 909 43
L 909 43
L 909 43
L 910 43
L 910 43
L 910 43
L 910 43
L 910 43
L 910 43
L 910 43
L 910 43
L 910 43
L 910 43
L 910 43
L 910 43
L 910 43
L 910 43
L 910 43
L 910 43
L 910 43
L 910 42
L 910 42
L 910 42
L 910 42
L 910 42
L 910 42
L 910 42
L 910 42
L 910 42
L 910 42
L 910 42
L 911 42
L 911 42
L 911 42
L 911 42
L 911 42
L 911 42
L 911 42
L 911 42
L 911 42
L 911 42
L 911 42
L 911 42
L 911 41
L 911 41
L 911 41
L 911 41
L 911 41
L 912 41
L 912 41
L 912 41
L 912 41
L 912 41
L 912 41
L 912 41
L 912 41
L 912 41
L 912 41
L 913 41
L 913 41
L 913 41
L 913 41
L 913 41
L 913 41
L 913 41
L 913 40
L 913 40
L 913 40
L 913 40
L 913 40
L 913 40
L 914 40
L 914 40
L 914 40
L 914 40
L 914 40
L 914 40
L 914 40
L 914 40
L 914 40
L 914 40
L 914 40
L 914 40
L 914 40
L 914 40
L 914 40
L 914 40
L 914 39
L 915 39
L 915 39
L 915 39
L 915 39
L 915 39
L 915 39
L 915 39
L 915 39
L 915 39
L 915 39
L 915 39
L 915 39
L 915 39
L 915 39
L 915 39
L 915 39
L 915 39
L 915 39
L 915 39
L 915 39
L 915 39
L 915 39
L 915 38
L 916 38
L 916 38
L 916 38
L 916 38
L 916 38
L 916 38
L 916 38
L 916 38
L 916 38
L 916 38
L 916 38
L 916 38
L 916 38
L 916 38
L 916 38
L 916 38
L 916 38
L 916 38
L 916 38
L 916 38
L 916 38
L 916 37
L 916 37
L 916 37
L 916 37
L 916 37
L 916 37
L 916 37
L 916 37
L 916 37
L 916 37
L 916 37
L 916 37
L 916 37
L 916 37
L 916 37
L 917 37
L 917 37
L 917 37
L 917 37
L 917 37
L 917 37
L 917 37
L 917 36
L 917 36
L 917 36
L 917 36
L 917 36
L 917 36
L 917 36
L 917 36
L 917 36
L 917 36
L 917 36
L 918 36
L 918 36
L 918 36
L 918 36
L 918 36
L 918 36
L 918 36
L 918 36
L 918 36
L 918 36
L 918 36
L 918 36
L 918 35
L 918 35
L 918 35
L 918 35
L 918 35
L 918 35
L 918 35
L 918 35
L 918 35
L 918 35
L 918 35
L 918 35
L 918 35
L 918 35
L 919 35
L 919 35
L 919 35
L 919 35
L 919 35
L 919 35
L 919 35
L 919 35
L 919 34
L 919 34
L 919 34
L 919 34
L 919 34
L 919 34
L 919 34
L 919 34
L 919 34
L 919 34
L 920 34
L 920 34
L 920 34
L 920 34
L 920 34
L 920 34
L 920 34
L 920 34
L 920 34
L 920 34
L 920 34
L 920 34
L 920 33
L 920 33
L 921 33
L 921 33
L 921 33
L 921 33
L 921 33
L 921 33
L 922 33
L 922 33
L 922 33
L 922 33
L 922 33
L 922 33
L 922 33
L 922 33
L 922 33
L 922 33
L 922 33
L 922 33
L 922 33
L 922 33
L 922 33
L 922 32
L 922 32
L 922 32
L 922 32
L 922 32
L 922 32
L 922 32
L 922 32
L 923 32
L 923 32
L 923 32
L 923 32
L 923 32
L 923 32
L 923 32
L 923 32
L 923 32
L 923 32
L 923 32
L 923 32
L 923 32
L 923 32
L 923 31
L 923 31
L 923 31
L 923 31
L 923 31
L 923 31
L 923 31
L 923 31
L 923 31
L 923 31
L 923 31
L 923 31
L 923 31
L 923 31
L 923 31
L 923 31
L 923 31
L 923 31
L 923 31
L 923 31
L 923 31
L 923 31
L 924 30
L 924 30
L 924 30
L 924 30
L 924 30
L 924 30
L 924 30
L 924 30
L 924 30
L 924 30
L 924 30
L 924 30
L 924 30
L 924 30
L 925 30
L 925 30
L 925 30
L 925 30
L 925 30
L 925 30
L 925 30
L 925 30
L 925 30
L 925 29
L 925 29
L 925 29
L 925 29
L 926 29
L 926 29
L 926 29
L 926 29
L 926 29
L 926 29
L 926 29
L 926 29
L 926 29
L 926 29
L 926 29
L 927 29
L 927 29
L 927 29
L 927 29
L 927 29
L 927 29
L 927 29
L 927 28
L 927 28
L 927 28
L 927 28
L 927 28
L 927 28
L 927 28
L 927 28
L 927 28
L 927 28
L 927 28
L 928 28
L 928 28
L 928 28
L 928 28
L 928 28
L 928 28
L 928 28
L 928 28
L 928 28
L 928 28
L 928 28
L 928 28
L 928 27
L 928 27
L 928 27
L 929 27
L 929 27
L 929 27
L 929 27
L 929 27
L 929 27
L 929 27
L 930 27
L 930 27
L 930 27
L 930 27
L 930 27
L 930 27
L 931 27
L 931 27
L 931 27
L 931 27
L 931 27
L 931 27
L 931 26
L 931 26
L 931 26
L 931 26
L 931 26
L 931 26
L 931 26
L 932 26
L 932 26
L 932 26
L 933 26
L 933 26
L 933 26
L 933 26
L 933 26
L 933 26
L 933 26
L 933 26
L 934 26
L 934 26
L 934 26
L 934 26
L 934 25
L 934 25
L 934 25
L 935 25
L 935 25
L 935 25
L 935 25
L 935 25
L 935 25
L 935 25
L 935 25
L 936 25
L 936 25
L 936 25
L 936 25
L 936 25
L 936 25
L 937 25
L 937 25
L 937 25
L 937 25
L 937 25
L 937 25
L 937 24
L 937 24
L 937 24
L 937 24
L 937 24
L 938 24
L 938 24
L 938 24
L 938 24
L 938 24
L 938 24
L 938 24
L 938 24
L 938 24
L 938 24
L 938 24
L 938 24
L 938 24
L 938 24
L 938 24
L 938 24
L 938 24
L 939 23
L 939 23
L 939 23
L 939 23
L 939 23
L 939 23
L 939 23
L 939 23
L 939 23
L 939 23
L 939 23
L 939 23
L 939 23
L 939 23
L 939 23
L 939 23
L 939 23
L 939 23
L 939 23
L 939 23
L 939 23
L 939 23
L 939 22
L 939 22
L 939 22
L 939 22
L 939 22
L 940 22
L 940 22
L 940 22
L 940 22
L 940 22
L 940 22
L 940 22
L 940 22
L 940 22
L 940 22
L 940 22
L 940 22
L 940 22
L 940 22
L 940 22
L 940 22
L 940 22
L 940 22
L 940 21
L 940 21
L 940 21
L 941 21
L 941 21
L 941 21
L 941 21
L 941 21
L 941 21
L 941 21
L 941 21
L 941 21
L 942 21
L 942 21
L 942 21
L 942 21
L 942 21
L 942 21
L 943 21
L 943 21
L 943 21
L 943 21
L 943 20
L 943 20
L 943 20
L 943 20
L 943 20
L 944 20
L 944 20
L 944 20
L 944 20
L 944 20
L 944 20
L 944 20
L 944 20
L 944 20
L 944 20
L 944 20
L 944 20
L 945 20
L 945 20
L 945 20
L 945 20
L 945 20
L 945 19
L 945 19
L 945 19
L 945 19
L 946 19
L 946 19
L 946 19
L 946 19
L 946 19
L 946 19
L 946 19
L 947 19
L 947 19
L 947 19
L 947 19
L 947 19
L 947 19
L 947 19
L 948 19
L 948 19
L 948 19
L 948 19
L 948 19
L 948 18
L 948 18
L 948 18
L 949 18
L 949 18
L 949 18
L 949 18
L 949 18
L 949 18
L 949 18
L 949 18
L 949 18
L 949 18
L 949 18
L 949 18
L 949 18
L 949 18
L 949 18
L 950 18
L 950 18
L 950 18
L 950 18
L 950 17
L 950 17
L 950 17
L 950 17
L 950 17
L 950 17
L 950 17
L 950 17
L 950 17
L 950 17
L 950 17
L 950 17
L 950 17
L 950 17
L 950 17
L 950 17
L 950 17
L 950 17
L 950 17
L 950 17
L 950 17
L 950 17
L 951 16
L 951 16
L 951 16
L 951 16
L 951 16
L 951 16
L 951 16
L 951 16
L 951 16
L 951 16
L 952 16
L 952 16
L 952 16
L 952 16
L 952 16
L 952 16
L 952 16
L 952 16
L 952 16
L 952 16
L 952 16
L 952 16
L 952 16
L 953 15
L 953 15
L 953 15
L 953 15
L 953 15
L 953 15
L 953 15
L 953 15
L 953 15
L 954 15
L 954 15
L 954 15
L 954 15
L 954 15
L 954 15
L 954 15
L 954 15
L 954 15
L 954 15
L 954 15
L 954 15
L 954 15
L 954 14
L 954 14
L 954 14
L 955 14
L 955 14
L 955 14
L 955 14
L 955 14
L 955 14
L 955 14
L 955 14
L 955 14
L 955 14
L 955 14
L 955 14
L 956 14
L 956 14
L 956 14
L 956 14
L 956 14
L 956 14
L 956 14
L 956 13
L 956 13
L 956 13
L 956 13
L 957 13
L 957 13
L 957 13
L 957 13
L 957 13
L 957 13
L 957 13
L 957 13
L 957 13
L 957 13
L 957 13
L 957 13
L 957 13
L 957 13
L 957 13
L 957 13
L 957 13
L 957 13" style="stroke-width:2;stroke:rgba(129,199,239,1.0);fill:none"/></svg>