<!-- stars: 7690 -->
<svg xmlns="http://www.w3.org/2000/svg" xmlns:xlink="http://www.w3.org/1999/xlink" width="1024" height="400">\n<path  d="M 0 0
L 1024 0
L 1024 400
L 0 400
L 0 0" style="stroke-width:0;stroke:rgba(255,255,255,1.0);fill:rgba(255,255,255,1.0)"/><path  d="M 38 11
L 957 11
L 957 351
L 38 351
L 38 11" style="stroke-width:0;stroke:rgba(255,255,255,1.0);fill:rgba(255,255,255,1.0)"/><path  d="M 38 351
L 957 351" style="stroke-width:2;stroke:rgba(85,85,85,1.0);fill:none"/><path  d="M 38 351
L 38 356" style="stroke-width:2;stroke:rgba(85,85,85,1.0);fill:none"/><text x="5" y="373" style="stroke-width:0;stroke:none;fill:rgba(51,51,51,1.0);font-size:12.8px;font-family:'Roboto Medium',sans-serif">2018-09-25</text><path  d="M 153 351
L 153 356" style="stroke-width:2;stroke:rgba(85,85,85,1.0);fill:none"/><text x="120" y="373" style="stroke-width:0;stroke:none;fill:rgba(51,51,51,1.0);font-size:12.8px;font-family:'Roboto Medium',sans-serif">2019-02-16</text><path  d="M 268 351
L 268 356" style="stroke-width:2;stroke:rgba(85,85,85,1.0);fill:none"/><text x="235" y="373" style="stroke-width:0;stroke:none;fill:rgba(51,51,51,1.0);font-size:12.8px;font-family:'Roboto Medium',sans-serif">2019-07-11</text><path  d="M 383 351
L 383 356" style="stroke-width:2;stroke:rgba(85,85,85,1.0);fill:none"/><text x="350" y="373" style="stroke-width:0;stroke:none;fill:rgba(51,51,51,1.0);font-size:12.8px;font-family:'Roboto Medium',sans-serif">2019-12-03</text><path  d="M 498 351
L 498 356" style="stroke-width:2;stroke:rgba(85,85,85,1.0);fill:none"/><text x="465" y="373" style="stroke-width:0;stroke:none;fill:rgba(51,51,51,1.0);font-size:12.8px;font-family:'Roboto Medium',sans-serif">2020-04-25</text><path  d="M 613 351
L 613 356" style="stroke-width:2;stroke:rgba(85,85,85,1.0);fill:none"/><text x="580" y="373" style="stroke-width:0;stroke:none;fill:rgba(51,51,51,1.0);font-size:12.8px;font-family:'Roboto Medium',sans-serif">2020-09-17</text><path  d="M 728 351
L 728 356" style="stroke-width:2;stroke:rgba(85,85,85,1.0);fill:none"/><text x="695" y="373" style="stroke-width:0;stroke:none;fill:rgba(51,51,51,1.0);font-size:12.8px;font-family:'Roboto Medium',sans-serif">2021-02-08</text><path  d="M 843 351
L 843 356" style="stroke-width:2;stroke:rgba(85,85,85,1.0);fill:none"/><text x="810" y="373" style="stroke-width:0;stroke:none;fill:rgba(51,51,51,1.0);font-size:12.8px;font-family:'Roboto Medium',sans-serif">2021-07-03</text><path  d="M 957 351
L 957 356" style="stroke-width:2;stroke:rgba(85,85,85,1.0);fill:none"/><text x="924" y="373" style="stroke-width:0;stroke:none;fill:rgba(51,51,51,1.0);font-size:12.8px;font-family:'Roboto Medium',sans-serif">2021-11-25</text><text x="483" y="395" style="stroke-width:0;stroke:none;fill:rgba(51,51,51,1.0);font-size:12.8px;font-family:'Roboto Medium',sans-serif">Time</text><path  d="M 959 351
L 959 11" style="stroke-width:2;stroke:rgba(85,85,85,1.0);fill:none"/><path  d="M 959 351
L 964 351" style="stroke-width:2;stroke:rgba(85,85,85,1.0);fill:none"/><text x="969" y="357" style="stroke-width:0;stroke:none;fill:rgba(51,51,51,1.0);font-size:12.8px;font-family:'Roboto Medium',sans-serif">0</text><path  d="M 959 308
L 964 308" style="stroke-width:2;stroke:rgba(85,85,85,1.0);fill:none"/><text x="969" y="314" style="stroke-width:0;stroke:none;fill:rgba(51,51,51,1.0);font-size:12.8px;font-family:'Roboto Medium',sans-serif">970</text><path  d="M 959 265
L 964 265" style="stroke-width:2;stroke:rgba(85,85,85,1.0);fill:none"/><text x="969" y="271" style="stroke-width:0;stroke:none;fill:rgba(51,51,51,1.0);font-size:12.8px;font-family:'Roboto Medium',sans-serif">1930</text><path  d="M 959 223
L 964 223" style="stroke-width:2;stroke:rgba(85,85,85,1.0);fill:none"/><text x="969" y="229" style="stroke-width:0;stroke:none;fill:rgba(51,51,51,1.0);font-size:12.8px;font-family:'Roboto Medium',sans-serif">2890</text><path  d="M 959 181
L 964 181" style="stroke-width:2;stroke:rgba(85,85,85,1.0);fill:none"/><text x="969" y="187" style="stroke-width:0;stroke:none;fill:rgba(51,51,51,1.0);font-size:12.8px;font-family:'Roboto Medium',sans-serif">3850</text><path  d="M 959 138
L 964 138" style="stroke-width:2;stroke:rgba(85,85,85,1.0);fill:none"/><text x="969" y="144" style="stroke-width:0;stroke:none;fill:rgba(51,51,51,1.0);font-size:12.8px;font-family:'Roboto Medium',sans-serif">4820</text><path  d="M 959 95
L 964 95" style="stroke-width:2;stroke:rgba(85,85,85,1.0);fill:none"/><text x="969" y="101" style="stroke-width:0;stroke:none;fill:rgba(51,51,51,1.0);font-size:12.8px;font-family:'Roboto Medium',sans-serif">5780</text><path  d="M 959 53
L 964 53" style="stroke-width:2;stroke:rgba(85,85,85,1.0);fill:none"/><text x="969" y="59" style="stroke-width:0;stroke:none;fill:rgba(51,51,51,1.0);font-size:12.8px;font-family:'Roboto Medium',sans-serif">6740</text><path  d="M 959 11
L 964 11" style="stroke-width:2;stroke:rgba(85,85,85,1.0);fill:none"/><text x="969" y="17" style="stroke-width:0;stroke:none;fill:rgba(51,51,51,1.0);font-size:12.8px;font-family:'Roboto Medium',sans-serif">7700</text><text x="1009" y="150" style="stroke-width:0;stroke:none;fill:rgba(51,51,51,1.0);font-size:12.8px;font-family:'Roboto Medium',sans-serif" transform="rotate(90.00,1009,150)">Stargazers</text><path  d="M 38 351
L 40 350
L 50 350
L 51 350
L 51 350
L 51 350
L 51 350
L 54 350
L 55 350
L 56 350
L 57 350
L 57 350
L 58 350
L 58 350
L 58 350
L 59 350
L 61 350
L 67 350
L 67 350
L 70 350
L 70 350
L 70 350
L 72 350
L 73 349
L 74 349
L 74 349
L 79 349
L 83 349
L 89 349
L 89 349
L 94 349
L 94 349
L 94 349
L 94 349
L 95 349
L 95 349
L 95 349
L 95 349
L 96 349
L 96 349
L 96 349
L 98 349
L 99 349
L 99 349
L 100 349
L 100 349
L 100 348
L 101 348
L 101 348
L 102 348
L 104 348
L 104 348
L 105 348
L 106 348
L 108 348
L 109 348
L 109 348
L 110 348
L 111 348
L 111 348
L 111 348
L 112 348
L 112 348
L 112 348
L 112 348
L 113 348
L 113 348
L 113 348
L 113 347
L 113 347
L 114 347
L 114 347
L 114 347
L 116 347
L 116 347
L 116 347
L 117 347
L 117 347
L 118 347
L 119 347
L 119 347
L 121 347
L 121 347
L 121 347
L 121 347
L 121 347
L 121 347
L 123 347
L 123 347
L 123 347
L 124 347
L 124 346
L 124 346
L 126 346
L 128 346
L 128 346
L 128 346
L 128 346
L 128 346
L 130 346
L 132 346
L 134 346
L 135 346
L 135 346
L 135 346
L 135 346
L 143 346
L 146 346
L 150 346
L 150 346
L 151 346
L 152 346
L 152 346
L 153 346
L 153 345
L 155 345
L 155 345
L 155 345
L 156 345
L 156 345
L 156 345
L 156 345
L 157 345
L 157 345
L 158 345
L 160 345
L 160 345
L 163 345
L 163 345
L 166 345
L 166 345
L 167 345
L 167 345
L 168 345
L 168 345
L 169 345
L 169 344
L 170 344
L 171 344
L 171 344
L 173 344
L 174 344
L 175 344
L 176 344
L 177 344
L 178 344
L 178 344
L 178 344
L 179 344
L 179 344
L 180 344
L 183 344
L 184 344
L 184 344
L 184 344
L 185 344
L 186 344
L 186 344
L 186 344
L 186 343
L 186 343
L 187 343
L 188 343
L 188 343
L 188 343
L 189 343
L 189 343
L 189 343
L 189 343
L 189 343
L 189 343
L 189 343
L 189 343
L 189 343
L 189 343
L 190 343
L 190 343
L 190 343
L 190 343
L 190 343
L 191 343
L 193 343
L 193 342
L 194 342
L 194 342
L 194 342
L 195 342
L 195 342
L 195 342
L 196 342
L 196 342
L 196 342
L 196 342
L 197 342
L 198 342
L 200 342
L 200 342
L 200 342
L 202 342
L 202 342
L 205 342
L 205 342
L 206 342
L 206 342
L 206 341
L 206 341
L 206 341
L 207 341
L 207 341
L 209 341
L 209 341
L 209 341
L 210 341
L 210 341
L 210 341
L 211 341
L 212 341
L 212 341
L 212 341
L 213 341
L 214 341
L 214 341
L 215 341
L 216 341
L 217 341
L 218 341
L 218 341
L 219 340
L 219 340
L 219 340
L 220 340
L 220 340
L 223 340
L 224 340
L 227 340
L 228 340
L 229 340
L 231 340
L 232 340
L 232 340
L 232 340
L 234 340
L 238 340
L 239 340
L 239 340
L 239 340
L 240 340
L 240 340
L 240 340
L 241 340
L 241 339
L 241 339
L 247 339
L 249 339
L 250 339
L 251 339
L 251 339
L 251 339
L 251 339
L 251 339
L 251 339
L 251 339
L 251 339
L 252 339
L 252 339
L 255 339
L 255 339
L 255 339
L 257 339
L 258 339
L 258 339
L 259 339
L 260 338
L 260 338
L 261 338
L 261 338
L 261 338
L 261 338
L 261 338
L 262 338
L 262 338
L 262 338
L 263 338
L 263 338
L 263 338
L 264 338
L 264 338
L 264 338
L 264 338
L 265 338
L 265 338
L 265 338
L 266 338
L 267 338
L 268 338
L 269 337
L 269 337
L 270 337
L 271 337
L 271 337
L 272 337
L 272 337
L 274 337
L 276 337
L 277 337
L 278 337
L 280 337
L 281 337
L 282 337
L 283 337
L 283 337
L 283 337
L 284 337
L 289 337
L 293 337
L 293 337
L 294 337
L 296 337
L 298 336
L 299 336
L 301 336
L 304 336
L 304 336
L 304 336
L 305 336
L 308 336
L 313 336
L 313 336
L 313 336
L 313 336
L 314 336
L 324 336
L 325 336
L 326 336
L 326 336
L 326 336
L 326 336
L 326 336
L 326 336
L 326 336
L 326 335
L 326 335
L 327 335
L 327 335
L 327 335
L 329 335
L 332 335
L 332 335
L 332 335
L 338 335
L 340 335
L 340 335
L 341 335
L 341 335
L 342 335
L 343 335
L 344 335
L 344 335
L 345 335
L 345 335
L 346 335
L 346 335
L 347 335
L 349 334
L 350 334
L 350 334
L 351 334
L 355 334
L 367 334
L 367 334
L 371 334
L 373 334
L 374 334
L 375 334
L 378 334
L 378 334
L 378 334
L 379 334
L 379 334
L 379 334
L 380 334
L 383 334
L 383 334
L 386 334
L 387 334
L 391 334
L 391 333
L 391 333
L 397 333
L 399 333
L 399 333
L 401 333
L 401 333
L 401 333
L 402 333
L 402 333
L 402 333
L 402 333
L 402 333
L 402 333
L 403 333
L 405 333
L 405 333
L 409 333
L 410 333
L 412 333
L 415 333
L 416 333
L 416 332
L 417 332
L 417 332
L 418 332
L 419 332
L 421 332
L 421 332
L 426 332
L 426 332
L 427 332
L 428 332
L 430 332
L 431 332
L 433 332
L 436 332
L 440 332
L 441 332
L 442 332
L 442 332
L 445 332
L 452 332
L 454 332
L 456 332
L 457 331
L 458 331
L 458 331
L 459 331
L 460 331
L 460 331
L 460 331
L 462 331
L 462 331
L 462 331
L 463 331
L 463 331
L 463 331
L 464 331
L 465 331
L 465 331
L 465 331
L 467 331
L 467 331
L 467 331
L 468 331
L 468 331
L 468 330
L 468 330
L 468 330
L 468 330
L 469 330
L 469 330
L 469 330
L 469 330
L 471 330
L 471 330
L 472 330
L 473 330
L 474 330
L 474 330
L 474 330
L 474 330
L 475 330
L 476 330
L 476 330
L 476 330
L 476 330
L 477 330
L 477 330
L 477 329
L 477 329
L 478 329
L 478 329
L 479 329
L 480 329
L 482 329
L 482 329
L 483 329
L 483 329
L 483 329
L 483 329
L 484 329
L 484 329
L 485 329
L 485 329
L 485 329
L 485 329
L 485 329
L 485 329
L 485 329
L 485 329
L 485 329
L 485 328
L 485 328
L 485 328
L 486 328
L 486 328
L 486 328
L 486 328
L 487 328
L 487 328
L 487 328
L 488 328
L 488 328
L 488 328
L 488 328
L 489 328
L 490 328
L 490 328
L 491 328
L 492 328
L 492 328
L 492 328
L 494 328
L 494 327
L 494 327
L 494 327
L 494 327
L 494 327
L 494 327
L 494 327
L 494 327
L 494 327
L 494 327
L 494 327
L 494 327
L 494 327
L 494 327
L 494 327
L 494 327
L 494 327
L 494 327
L 494 327
L 494 327
L 494 327
L 494 327
L 494 327
L 495 326
L 495 326
L 495 326
L 495 326
L 495 326
L 495 326
L 495 326
L 496 326
L 496 326
L 496 326
L 496 326
L 496 326
L 496 326
L 497 326
L 497 326
L 497 326
L 498 326
L 498 326
L 498 326
L 499 326
L 499 326
L 500 326
L 500 326
L 500 325
L 500 325
L 500 325
L 501 325
L 501 325
L 501 325
L 501 325
L 501 325
L 501 325
L 503 325
L 503 325
L 504 325
L 504 325
L 505 325
L 506 325
L 507 325
L 507 325
L 507 325
L 507 325
L 507 325
L 507 325
L 507 325
L 507 324
L 508 324
L 508 324
L 509 324
L 510 324
L 510 324
L 510 324
L 511 324
L 511 324
L 511 324
L 512 324
L 512 324
L 513 324
L 513 324
L 513 324
L 513 324
L 514 324
L 514 324
L 514 324
L 514 324
L 514 324
L 515 324
L 515 324
L 515 323
L 516 323
L 517 323
L 517 323
L 518 323
L 518 323
L 518 323
L 519 323
L 519 323
L 520 323
L 521 323
L 521 323
L 521 323
L 521 323
L 522 323
L 522 323
L 522 323
L 522 323
L 523 323
L 524 323
L 524 323
L 524 323
L 524 323
L 524 322
L 524 322
L 525 322
L 525 322
L 525 322
L 525 322
L 525 322
L 525 322
L 526 322
L 526 322
L 526 322
L 526 322
L 528 322
L 528 322
L 528 322
L 528 322
L 529 322
L 529 322
L 529 322
L 530 322
L 531 322
L 531 322
L 531 321
L 531 321
L 531 321
L 531 321
L 531 321
L 531 321
L 531 321
L 531 321
L 531 321
L 532 321
L 532 321
L 532 321
L 532 321
L 532 321
L 532 321
L 532 321
L 532 321
L 532 321
L 532 321
L 533 321
L 533 321
L 533 321
L 533 321
L 533 320
L 534 320
L 535 320
L 536 320
L 536 320
L 536 320
L 537 320
L 537 320
L 537 320
L 537 320
L 538 320
L 538 320
L 538 320
L 538 320
L 538 320
L 538 320
L 538 320
L 538 320
L 538 320
L 539 320
L 539 320
L 539 320
L 539 320
L 539 319
L 539 319
L 539 319
L 539 319
L 539 319
L 540 319
L 540 319
L 540 319
L 540 319
L 540 319
L 540 319
L 541 319
L 541 319
L 541 319
L 541 319
L 541 319
L 542 319
L 542 319
L 542 319
L 542 319
L 542 319
L 542 319
L 542 318
L 543 318
L 543 318
L 543 318
L 544 318
L 544 318
L 544 318
L 545 318
L 545 318
L 545 318
L 546 318
L 548 318
L 548 318
L 548 318
L 548 318
L 548 318
L 548 318
L 548 318
L 549 318
L 549 318
L 549 318
L 549 318
L 549 318
L 550 317
L 550 317
L 550 317
L 551 317
L 551 317
L 551 317
L 551 317
L 552 317
L 552 317
L 552 317
L 552 317
L 552 317
L 552 317
L 553 317
L 553 317
L 553 317
L 554 317
L 554 317
L 554 317
L 555 317
L 555 317
L 555 317
L 555 317
L 555 316
L 557 316
L 557 316
L 557 316
L 557 316
L 558 316
L 558 316
L 558 316
L 559 316
L 559 316
L 560 316
L 561 316
L 561 316
L 561 316
L 562 316
L 562 316
L 562 316
L 563 316
L 563 316
L 563 316
L 563 316
L 563 316
L 563 315
L 564 315
L 564 315
L 564 315
L 564 315
L 564 315
L 565 315
L 565 315
L 565 315
L 565 315
L 566 315
L 566 315
L 566 315
L 566 315
L 566 315
L 566 315
L 567 315
L 567 315
L 567 315
L 568 315
L 568 315
L 569 315
L 569 315
L 569 314
L 569 314
L 569 314
L 570 314
L 570 314
L 570 314
L 571 314
L 571 314
L 571 314
L 571 314
L 572 314
L 572 314
L 572 314
L 572 314
L 572 314
L 572 314
L 572 314
L 572 314
L 573 314
L 573 314
L 573 314
L 573 314
L 573 313
L 573 313
L 573 313
L 574 313
L 574 313
L 574 313
L 574 313
L 574 313
L 575 313
L 575 313
L 575 313
L 575 313
L 575 313
L 575 313
L 576 313
L 576 313
L 576 313
L 577 313
L 577 313
L 577 313
L 577 313
L 577 313
L 578 313
L 579 312
L 579 312
L 579 312
L 579 312
L 579 312
L 580 312
L 580 312
L 580 312
L 580 312
L 580 312
L 580 312
L 582 312
L 582 312
L 582 312
L 583 312
L 583 312
L 583 312
L 583 312
L 583 312
L 583 312
L 584 312
L 584 312
L 584 312
L 584 311
L 584 311
L 584 311
L 585 311
L 585 311
L 585 311
L 586 311
L 586 311
L 586 311
L 586 311
L 586 311
L 588 311
L 588 311
L 588 311
L 588 311
L 588 311
L 588 311
L 589 311
L 589 311
L 589 311
L 589 311
L 590 311
L 590 310
L 590 310
L 590 310
L 590 310
L 591 310
L 591 310
L 591 310
L 591 310
L 591 310
L 592 310
L 593 310
L 594 310
L 594 310
L 595 310
L 595 310
L 596 310
L 596 310
L 597 310
L 598 310
L 599 310
L 599 310
L 599 310
L 599 310
L 600 309
L 601 309
L 601 309
L 602 309
L 602 309
L 602 309
L 603 309
L 603 309
L 603 309
L 603 309
L 604 309
L 604 309
L 605 309
L 605 309
L 605 309
L 605 309
L 605 309
L 606 309
L 606 309
L 607 309
L 607 309
L 607 309
L 607 309
L 607 308
L 607 308
L 607 308
L 608 308
L 608 308
L 608 308
L 608 308
L 608 308
L 608 308
L 608 308
L 609 308
L 610 308
L 610 308
L 610 308
L 610 308
L 610 308
L 610 308
L 611 308
L 611 308
L 611 308
L 613 308
L 613 308
L 613 307
L 614 307
L 614 307
L 615 307
L 616 307
L 617 307
L 617 307
L 617 307
L 617 307
L 618 307
L 618 307
L 618 307
L 618 307
L 621 307
L 621 307
L 621 307
L 621 307
L 621 307
L 621 307
L 621 307
L 622 307
L 622 307
L 622 307
L 622 306
L 622 306
L 623 306
L 623 306
L 623 306
L 623 306
L 623 306
L 625 306
L 626 306
L 627 306
L 628 306
L 629 306
L 630 306
L 630 306
L 631 306
L 631 306
L 631 306
L 631 306
L 632 306
L 632 306
L 633 306
L 633 306
L 633 306
L 633 305
L 633 305
L 633 305
L 633 305
L 634 305
L 634 305
L 634 305
L 634 305
L 634 305
L 634 305
L 634 305
L 634 305
L 634 305
L 635 305
L 635 305
L 635 305
L 635 305
L 635 305
L 635 305
L 636 305
L 636 305
L 636 305
L 636 304
L 636 304
L 637 304
L 637 304
L 638 304
L 638 304
L 638 304
L 638 304
L 639 304
L 639 304
L 639 304
L 639 304
L 640 304
L 640 304
L 641 304
L 641 304
L 641 304
L 641 304
L 641 304
L 642 304
L 642 304
L 642 304
L 642 304
L 643 303
L 644 303
L 644 303
L 645 303
L 645 303
L 645 303
L 645 303
L 645 303
L 645 303
L 645 303
L 645 303
L 645 303
L 645 303
L 645 303
L 645 303
L 645 303
L 645 303
L 645 303
L 645 303
L 645 303
L 645 303
L 645 303
L 646 303
L 646 302
L 646 302
L 646 302
L 646 302
L 646 302
L 646 302
L 646 302
L 646 302
L 646 302
L 646 302
L 647 302
L 647 302
L 647 302
L 647 302
L 647 302
L 647 302
L 647 302
L 647 302
L 648 302
L 648 302
L 648 302
L 648 302
L 648 301
L 649 301
L 649 301
L 649 301
L 649 301
L 649 301
L 649 301
L 650 301
L 650 301
L 650 301
L 650 301
L 650 301
L 650 301
L 650 301
L 651 301
L 651 301
L 651 301
L 651 301
L 651 301
L 651 301
L 651 301
L 651 301
L 652 301
L 652 300
L 652 300
L 652 300
L 653 300
L 653 300
L 653 300
L 653 300
L 654 300
L 654 300
L 655 300
L 655 300
L 655 300
L 655 300
L 655 300
L 655 300
L 655 300
L 655 300
L 656 300
L 656 300
L 656 300
L 657 300
L 657 300
L 657 300
L 657 299
L 657 299
L 657 299
L 657 299
L 658 299
L 658 299
L 658 299
L 658 299
L 658 299
L 659 299
L 659 299
L 659 299
L 660 299
L 660 299
L 660 299
L 660 299
L 660 299
L 660 299
L 661 299
L 661 299
L 661 299
L 662 299
L 662 298
L 662 298
L 662 298
L 662 298
L 662 298
L 663 298
L 663 298
L 663 298
L 663 298
L 663 298
L 663 298
L 664 298
L 664 298
L 664 298
L 665 298
L 665 298
L 665 298
L 665 298
L 665 298
L 666 298
L 666 298
L 666 298
L 666 298
L 666 297
L 666 297
L 666 297
L 667 297
L 668 297
L 668 297
L 668 297
L 669 297
L 669 297
L 669 297
L 669 297
L 669 297
L 669 297
L 669 297
L 669 297
L 670 297
L 671 297
L 671 297
L 671 297
L 671 297
L 672 297
L 672 297
L 672 296
L 672 296
L 672 296
L 672 296
L 672 296
L 673 296
L 673 296
L 673 296
L 673 296
L 673 296
L 673 296
L 673 296
L 673 296
L 674 296
L 674 296
L 674 296
L 674 296
L 674 296
L 674 296
L 676 296
L 677 296
L 677 296
L 677 296
L 677 295
L 678 295
L 678 295
L 678 295
L 678 295
L 678 295
L 678 295
L 679 295
L 679 295
L 679 295
L 679 295
L 679 295
L 679 295
L 679 295
L 680 295
L 680 295
L 680 295
L 680 295
L 680 295
L 680 295
L 680 295
L 682 295
L 682 295
L 682 294
L 682 294
L 682 294
L 683 294
L 683 294
L 683 294
L 683 294
L 683 294
L 684 294
L 684 294
L 684 294
L 684 294
L 684 294
L 685 294
L 685 294
L 685 294
L 686 294
L 686 294
L 686 294
L 686 294
L 688 294
L 688 294
L 688 293
L 688 293
L 688 293
L 688 293
L 688 293
L 688 293
L 689 293
L 689 293
L 689 293
L 689 293
L 689 293
L 689 293
L 689 293
L 689 293
L 689 293
L 689 293
L 690 293
L 690 293
L 690 293
L 690 293
L 690 293
L 690 293
L 690 293
L 690 292
L 691 292
L 691 292
L 691 292
L 691 292
L 691 292
L 691 292
L 691 292
L 691 292
L 692 292
L 692 292
L 692 292
L 692 292
L 693 292
L 693 292
L 693 292
L 693 292
L 694 292
L 694 292
L 694 292
L 694 292
L 694 292
L 694 292
L 694 291
L 695 291
L 695 291
L 695 291
L 695 291
L 695 291
L 695 291
L 695 291
L 696 291
L 696 291
L 696 291
L 696 291
L 696 291
L 697 291
L 698 291
L 698 291
L 699 291
L 699 291
L 699 291
L 699 291
L 699 291
L 700 291
L 700 290
L 700 290
L 700 290
L 700 290
L 700 290
L 701 290
L 701 290
L 701 290
L 701 290
L 701 290
L 701 290
L 701 290
L 701 290
L 701 290
L 701 290
L 701 290
L 702 290
L 702 290
L 702 290
L 702 290
L 702 290
L 703 290
L 703 290
L 703 289
L 703 289
L 703 289
L 704 289
L 704 289
L 705 289
L 705 289
L 705 289
L 705 289
L 705 289
L 706 289
L 706 289
L 706 289
L 706 289
L 706 289
L 706 289
L 706 289
L 706 289
L 707 289
L 707 289
L 707 289
L 707 289
L 707 289
L 708 288
L 708 288
L 708 288
L 708 288
L 708 288
L 709 288
L 709 288
L 709 288
L 709 288
L 710 288
L 710 288
L 710 288
L 711 288
L 711 288
L 711 288
L 711 288
L 711 288
L 711 288
L 712 288
L 712 288
L 712 288
L 713 288
L 713 287
L 713 287
L 713 287
L 713 287
L 714 287
L 714 287
L 714 287
L 714 287
L 714 287
L 714 287
L 714 287
L 715 287
L 715 287
L 715 287
L 715 287
L 715 287
L 715 287
L 715 287
L 716 287
L 716 287
L 716 287
L 716 287
L 716 287
L 716 286
L 716 286
L 716 286
L 716 286
L 717 286
L 717 286
L 717 286
L 717 286
L 717 286
L 717 286
L 717 286
L 718 286
L 718 286
L 718 286
L 718 286
L 718 286
L 719 286
L 719 286
L 720 286
L 720 286
L 720 286
L 720 286
L 721 286
L 721 285
L 721 285
L 721 285
L 721 285
L 721 285
L 721 285
L 722 285
L 722 285
L 722 285
L 722 285
L 722 285
L 723 285
L 723 285
L 723 285
L 723 285
L 724 285
L 724 285
L 724 285
L 724 285
L 724 285
L 724 285
L 724 285
L 725 284
L 725 284
L 725 284
L 725 284
L 725 284
L 726 284
L 726 284
L 726 284
L 726 284
L 726 284
L 726 284
L 726 284
L 726 284
L 726 284
L 727 284
L 727 284
L 727 284
L 727 284
L 728 284
L 728 284
L 728 284
L 729 284
L 729 284
L 730 283
L 731 283
L 731 283
L 731 283
L 731 283
L 731 283
L 731 283
L 733 283
L 733 283
L 733 283
L 734 283
L 734 283
L 734 283
L 734 283
L 734 283
L 735 283
L 735 283
L 735 283
L 735 283
L 735 283
L 735 283
L 736 283
L 736 283
L 736 282
L 736 282
L 736 282
L 736 282
L 736 282
L 737 282
L 737 282
L 737 282
L 737 282
L 737 282
L 737 282
L 737 282
L 737 282
L 737 282
L 738 282
L 738 282
L 738 282
L 738 282
L 738 282
L 738 282
L 739 282
L 739 282
L 739 281
L 739 281
L 739 281
L 739 281
L 739 281
L 739 281
L 739 281
L 739 281
L 739 281
L 740 281
L 740 281
L 740 281
L 740 281
L 740 281
L 740 281
L 741 281
L 741 281
L 741 281
L 741 281
L 741 281
L 741 281
L 741 281
L 741 281
L 741 280
L 741 280
L 741 280
L 742 280
L 742 280
L 742 280
L 742 280
L 742 280
L 743 280
L 743 280
L 743 280
L 743 280
L 743 280
L 744 280
L 744 280
L 744 280
L 744 280
L 744 280
L 744 280
L 744 280
L 744 280
L 745 280
L 745 279
L 745 279
L 745 279
L 745 279
L 745 279
L 745 279
L 745 279
L 745 279
L 745 279
L 745 279
L 745 279
L 745 279
L 745 279
L 745 279
L 745 279
L 746 279
L 746 279
L 746 279
L 746 279
L 746 279
L 746 279
L 746 279
L 746 279
L 747 278
L 747 278
L 747 278
L 747 278
L 748 278
L 748 278
L 748 278
L 748 278
L 748 278
L 749 278
L 749 278
L 749 278
L 749 278
L 749 278
L 749 278
L 750 278
L 750 278
L 750 278
L 750 278
L 750 278
L 750 278
L 750 278
L 750 278
L 750 277
L 750 277
L 750 277
L 750 277
L 751 277
L 751 277
L 751 277
L 751 277
L 752 277
L 752 277
L 752 277
L 752 277
L 752 277
L 752 277
L 752 277
L 752 277
L 752 277
L 752 277
L 752 277
L 752 277
L 752 277
L 752 277
L 753 276
L 753 276
L 753 276
L 753 276
L 753 276
L 753 276
L 754 276
L 754 276
L 754 276
L 754 276
L 754 276
L 754 276
L 754 276
L 754 276
L 754 276
L 754 276
L 754 276
L 754 276
L 754 276
L 754 276
L 754 276
L 754 276
L 754 276
L 754 275
L 754 275
L 754 275
L 754 275
L 754 275
L 754 275
L 754 275
L 754 275
L 754 275
L 754 275
L 754 275
L 754 275
L 754 275
L 754 275
L 754 275
L 754 275
L 754 275
L 754 275
L 754 275
L 754 275
L 754 275
L 754 275
L 754 275
L 754 274
L 754 274
L 754 274
L 754 274
L 754 274
L 754 274
L 754 274
L 754 274
L 754 274
L 754 274
L 754 274
L 754 274
L 754 274
L 754 274
L 754 274
L 754 274
L 754 274
L 754 274
L 754 274
L 754 274
L 754 274
L 754 274
L 754 273
L 754 273
L 754 273
L 754 273
L 754 273
L 754 273
L 754 273
L 754 273
L 754 273
L 754 273
L 755 273
L 755 273
L 755 273
L 755 273
L 755 273
L 755 273
L 755 273
L 755 273
L 755 273
L 755 273
L 755 273
L 755 273
L 755 273
L 755 272
L 755 272
L 755 272
L 755 272
L 755 272
L 755 272
L 755 272
L 755 272
L 755 272
L 755 272
L 755 272
L 755 272
L 755 272
L 755 272
L 755 272
L 755 272
L 755 272
L 755 272
L 755 272
L 755 272
L 755 272
L 755 272
L 755 272
L 755 271
L 755 271
L 755 271
L 755 271
L 755 271
L 755 271
L 755 271
L 755 271
L 756 271
L 756 271
L 756 271
L 756 271
L 756 271
L 756 271
L 756 271
L 756 271
L 756 271
L 756 271
L 756 271
L 756 271
L 756 271
L 756 271
L 756 270
L 756 270
L 756 270
L 756 270
L 756 270
L 756 270
L 756 270
L 756 270
L 756 270
L 756 270
L 756 270
L 756 270
L 756 270
L 756 270
L 756 270
L 756 270
L 756 270
L 756 270
L 756 270
L 756 270
L 756 270
L 756 270
L 756 270
L 756 269
L 756 269
L 756 269
L 756 269
L 756 269
L 756 269
L 756 269
L 756 269
L 756 269
L 756 269
L 756 269
L 756 269
L 756 269
L 756 269
L 756 269
L 756 269
L 756 269
L 756 269
L 756 269
L 756 269
L 756 269
L 756 269
L 756 269
L 756 268
L 756 268
L 756 268
L 756 268
L 756 268
L 756 268
L 756 268
L 756 268
L 756 268
L 756 268
L 756 268
L 756 268
L 756 268
L 756 268
L 756 268
L 756 268
L 756 268
L 756 268
L 756 268
L 757 268
L 757 268
L 757 268
L 757 267
L 757 267
L 757 267
L 757 267
L 757 267
L 757 267
L 757 267
L 757 267
L 757 267
L 757 267
L 757 267
L 757 267
L 757 267
L 757 267
L 757 267
L 757 267
L 757 267
L 757 267
L 757 267
L 757 267
L 757 267
L 757 267
L 757 267
L 757 266
L 757 266
L 757 266
L 757 266
L 757 266
L 757 266
L 757 266
L 757 266
L 757 266
L 757 266
L 757 266
L 757 266
L 757 266
L 757 266
L 757 266
L 757 266
L 757 266
L 757 266
L 757 266
L 757 266
L 757 266
L 757 266
L 757 266
L 757 265
L 757 265
L 757 265
L 757 265
L 757 265
L 757 265
L 757 265
L 757 265
L 757 265
L 757 265
L 757 265
L 757 265
L 757 265
L 757 265
L 757 265
L 757 265
L 757 265
L 757 265
L 757 265
L 757 265
L 757 265
L 757 265
L 757 264
L 757 264
L 757 264
L 757 264
L 757 264
L 757 264
L 757 264
L 758 264
L 758 264
L 758 264
L 758 264
L 758 264
L 758 264
L 758 264
L 758 264
L 758 264
L 758 264
L 758 264
L 758 264
L 758 264
L 758 264
L 758 264
L 758 264
L 758 263
L 758 263
L 758 263
L 758 263
L 758 263
L 758 263
L 758 263
L 758 263
L 758 263
L 758 263
L 758 263
L 758 263
L 758 263
L 758 263
L 758 263
L 758 263
L 758 263
L 758 263
L 758 263
L 758 263
L 758 263
L 758 263
L 758 262
L 758 262
L 758 262
L 758 262
L 758 262
L 758 262
L 758 262
L 758 262
L 758 262
L 758 262
L 758 262
L 758 262
L 758 262
L 758 262
L 758 262
L 759 262
L 759 262
L 759 262
L 759 262
L 759 262
L 759 262
L 759 262
L 759 262
L 759 261
L 759 261
L 759 261
L 759 261
L 759 261
L 760 261
L 760 261
L 760 261
L 760 261
L 760 261
L 760 261
L 760 261
L 760 261
L 760 261
L 761 261
L 761 261
L 761 261
L 761 261
L 761 261
L 761 261
L 761 261
L 761 261
L 761 261
L 761 260
L 761 260
L 762 260
L 762 260
L 762 260
L 762 260
L 762 260
L 762 260
L 762 260
L 762 260
L 762 260
L 762 260
L 762 260
L 762 260
L 762 260
L 762 260
L 762 260
L 762 260
L 762 260
L 763 260
L 763 260
L 763 260
L 763 259
L 763 259
L 763 259
L 763 259
L 764 259
L 764 259
L 764 259
L 764 259
L 764 259
L 764 259
L 764 259
L 764 259
L 764 259
L 764 259
L 764 259
L 764 259
L 764 259
L 765 259
L 765 259
L 765 259
L 765 259
L 765 259
L 765 259
L 766 258
L 766 258
L 766 258
L 766 258
L 766 258
L 766 258
L 766 258
L 766 258
L 766 258
L 766 258
L 766 258
L 766 258
L 766 258
L 766 258
L 766 258
L 766 258
L 766 258
L 766 258
L 766 258
L 766 258
L 766 258
L 766 258
L 766 258
L 767 257
L 767 257
L 767 257
L 767 257
L 767 257
L 767 257
L 767 257
L 767 257
L 767 257
L 767 257
L 767 257
L 767 257
L 767 257
L 767 257
L 767 257
L 767 257
L 767 257
L 767 257
L 767 257
L 767 257
L 767 257
L 767 257
L 767 256
L 767 256
L 767 256
L 767 256
L 767 256
L 767 256
L 767 256
L 767 256
L 767 256
L 767 256
L 767 256
L 767 256
L 767 256
L 767 256
L 767 256
L 767 256
L 767 256
L 767 256
L 767 256
L 767 256
L 767 256
L 767 256
L 768 256
L 768 255
L 768 255
L 768 255
L 768 255
L 768 255
L 768 255
L 768 255
L 768 255
L 768 255
L 768 255
L 768 255
L 768 255
L 768 255
L 768 255
L 768 255
L 768 255
L 768 255
L 768 255
L 768 255
L 768 255
L 768 255
L 768 255
L 768 255
L 768 254
L 768 254
L 768 254
L 768 254
L 768 254
L 768 254
L 768 254
L 768 254
L 768 254
L 768 254
L 768 254
L 768 254
L 768 254
L 768 254
L 768 254
L 768 254
L 768 254
L 768 254
L 768 254
L 768 254
L 768 254
L 768 254
L 768 253
L 768 253
L 768 253
L 768 253
L 768 253
L 768 253
L 768 253
L 768 253
L 768 253
L 768 253
L 768 253
L 768 253
L 768 253
L 768 253
L 768 253
L 768 253
L 768 253
L 768 253
L 768 253
L 768 253
L 768 253
L 768 253
L 768 253
L 768 252
L 768 252
L 768 252
L 768 252
L 768 252
L 768 252
L 768 252
L 768 252
L 768 252
L 769 252
L 769 252
L 769 252
L 769 252
L 769 252
L 769 252
L 769 252
L 769 252
L 769 252
L 769 252
L 769 252
L 769 252
L 769 252
L 769 252
L 769 251
L 769 251
L 769 251
L 769 251
L 769 251
L 769 251
L 769 251
L 769 251
L 769 251
L 769 251
L 769 251
L 769 251
L 769 251
L 769 251
L 769 251
L 769 251
L 769 251
L 769 251
L 769 251
L 769 251
L 769 251
L 769 251
L 769 250
L 769 250
L 769 250
L 769 250
L 769 250
L 769 250
L 769 250
L 769 250
L 769 250
L 769 250
L 769 250
L 769 250
L 769 250
L 769 250
L 769 250
L 769 250
L 769 250
L 769 250
L 769 250
L 770 250
L 770 250
L 770 250
L 770 250
L 770 249
L 770 249
L 770 249
L 770 249
L 770 249
L 770 249
L 770 249
L 770 249
L 770 249
L 770 249
L 770 249
L 770 249
L 770 249
L 770 249
L 770 249
L 770 249
L 770 249
L 770 249
L 770 249
L 770 249
L 770 249
L 770 249
L 770 249
L 770 248
L 770 248
L 770 248
L 770 248
L 770 248
L 771 248
L 771 248
L 771 248
L 771 248
L 771 248
L 771 248
L 771 248
L 771 248
L 771 248
L 771 248
L 771 248
L 771 248
L 771 248
L 771 248
L 771 248
L 771 248
L 771 248
L 771 247
L 771 247
L 771 247
L 771 247
L 771 247
L 771 247
L 771 247
L 771 247
L 771 247
L 771 247
L 771 247
L 772 247
L 772 247
L 772 247
L 772 247
L 772 247
L 772 247
L 772 247
L 772 247
L 772 247
L 772 247
L 772 247
L 772 247
L 772 246
L 772 246
L 772 246
L 772 246
L 772 246
L 772 246
L 772 246
L 772 246
L 772 246
L 772 246
L 772 246
L 772 246
L 772 246
L 772 246
L 772 246
L 772 246
L 772 246
L 772 246
L 772 246
L 772 246
L 773 246
L 773 246
L 773 245
L 773 245
L 773 245
L 773 245
L 773 245
L 773 245
L 773 245
L 773 245
L 773 245
L 773 245
L 773 245
L 773 245
L 773 245
L 773 245
L 773 245
L 773 245
L 773 245
L 773 245
L 773 245
L 773 245
L 773 245
L 773 245
L 773 245
L 773 244
L 773 244
L 774 244
L 774 244
L 774 244
L 774 244
L 774 244
L 774 244
L 774 244
L 774 244
L 774 244
L 774 244
L 774 244
L 775 244
L 775 244
L 775 244
L 775 244
L 775 244
L 775 244
L 775 244
L 775 244
L 775 244
L 775 244
L 775 243
L 775 243
L 776 243
L 776 243
L 776 243
L 776 243
L 776 243
L 776 243
L 776 243
L 776 243
L 776 243
L 776 243
L 776 243
L 777 243
L 777 243
L 777 243
L 777 243
L 777 243
L 777 243
L 777 243
L 777 243
L 777 243
L 777 242
L 778 242
L 778 242
L 778 242
L 778 242
L 778 242
L 778 242
L 778 242
L 778 242
L 778 242
L 778 242
L 778 242
L 778 242
L 778 242
L 779 242
L 779 242
L 779 242
L 779 242
L 779 242
L 779 242
L 779 242
L 779 242
L 779 242
L 779 241
L 779 241
L 779 241
L 779 241
L 779 241
L 779 241
L 779 241
L 779 241
L 779 241
L 780 241
L 780 241
L 780 241
L 780 241
L 780 241
L 780 241
L 780 241
L 780 241
L 780 241
L 780 241
L 780 241
L 780 241
L 781 241
L 781 241
L 781 240
L 781 240
L 781 240
L 781 240
L 781 240
L 781 240
L 781 240
L 781 240
L 781 240
L 781 240
L 781 240
L 781 240
L 781 240
L 781 240
L 781 240
L 782 240
L 782 240
L 782 240
L 782 240
L 782 240
L 782 240
L 782 240
L 782 239
L 782 239
L 782 239
L 782 239
L 782 239
L 782 239
L 782 239
L 783 239
L 783 239
L 783 239
L 783 239
L 783 239
L 783 239
L 783 239
L 783 239
L 783 239
L 783 239
L 783 239
L 783 239
L 783 239
L 783 239
L 783 239
L 783 239
L 783 238
L 783 238
L 783 238
L 783 238
L 783 238
L 784 238
L 784 238
L 784 238
L 784 238
L 784 238
L 784 238
L 784 238
L 784 238
L 784 238
L 784 238
L 784 238
L 784 238
L 784 238
L 784 238
L 784 238
L 785 238
L 785 238
L 785 238
L 785 237
L 785 237
L 785 237
L 785 237
L 785 237
L 785 237
L 785 237
L 786 237
L 786 237
L 786 237
L 786 237
L 786 237
L 786 237
L 787 237
L 787 237
L 787 237
L 787 237
L 787 237
L 787 237
L 787 237
L 787 237
L 787 237
L 787 236
L 787 236
L 787 236
L 787 236
L 787 236
L 787 236
L 787 236
L 787 236
L 787 236
L 787 236
L 787 236
L 787 236
L 787 236
L 787 236
L 787 236
L 787 236
L 787 236
L 787 236
L 787 236
L 787 236
L 787 236
L 787 236
L 787 236
L 787 235
L 787 235
L 787 235
L 787 235
L 787 235
L 787 235
L 787 235
L 788 235
L 788 235
L 788 235
L 788 235
L 788 235
L 788 235
L 788 235
L 788 235
L 788 235
L 788 235
L 788 235
L 788 235
L 788 235
L 788 235
L 788 235
L 788 235
L 788 234
L 788 234
L 788 234
L 788 234
L 788 234
L 788 234
L 788 234
L 788 234
L 788 234
L 788 234
L 788 234
L 788 234
L 788 234
L 788 234
L 788 234
L 788 234
L 788 234
L 788 234
L 788 234
L 788 234
L 788 234
L 788 234
L 788 233
L 788 233
L 788 233
L 788 233
L 788 233
L 788 233
L 788 233
L 788 233
L 788 233
L 788 233
L 788 233
L 788 233
L 788 233
L 788 233
L 788 233
L 788 233
L 788 233
L 788 233
L 788 233
L 788 233
L 788 233
L 788 233
L 788 233
L 788 232
L 788 232
L 788 232
L 788 232
L 788 232
L 788 232
L 788 232
L 788 232
L 788 232
L 788 232
L 788 232
L 789 232
L 789 232
L 789 232
L 789 232
L 789 232
L 789 232
L 789 232
L 789 232
L 789 232
L 789 232
L 789 232
L 789 232
L 789 231
L 789 231
L 789 231
L 789 231
L 789 231
L 789 231
L 789 231
L 789 231
L 789 231
L 789 231
L 789 231
L 789 231
L 789 231
L 789 231
L 789 231
L 789 231
L 789 231
L 789 231
L 789 231
L 789 231
L 789 231
L 789 231
L 789 230
L 789 230
L 789 230
L 789 230
L 789 230
L 789 230
L 789 230
L 789 230
L 789 230
L 789 230
L 789 230
L 789 230
L 789 230
L 789 230
L 789 230
L 789 230
L 789 230
L 789 230
L 789 230
L 789 230
L 789 230
L 789 230
L 789 230
L 789 229
L 789 229
L 789 229
L 789 229
L 789 229
L 789 229
L 789 229
L 790 229
L 790 229
L 790 229
L 790 229
L 790 229
L 790 229
L 790 229
L 790 229
L 790 229
L 790 229
L 790 229
L 790 229
L 790 229
L 790 229
L 790 229
L 790 228
L 790 228
L 790 228
L 790 228
L 790 228
L 790 228
L 790 228
L 790 228
L 790 228
L 790 228
L 790 228
L 790 228
L 790 228
L 790 228
L 790 228
L 790 228
L 790 228
L 790 228
L 790 228
L 790 228
L 790 228
L 790 228
L 790 228
L 790 227
L 790 227
L 790 227
L 790 227
L 790 227
L 790 227
L 790 227
L 790 227
L 790 227
L 790 227
L 790 227
L 790 227
L 790 227
L 790 227
L 790 227
L 790 227
L 790 227
L 790 227
L 790 227
L 790 227
L 790 227
L 790 227
L 790 227
L 790 226
L 790 226
L 790 226
L 790 226
L 790 226
L 790 226
L 790 226
L 790 226
L 790 226
L 790 226
L 790 226
L 790 226
L 790 226
L 790 226
L 790 226
L 790 226
L 790 226
L 790 226
L 790 226
L 790 226
L 790 226
L 790 226
L 790 225
L 790 225
L 790 225
L 790 225
L 790 225
L 790 225
L 790 225
L 790 225
L 790 225
L 790 225
L 790 225
L 790 225
L 790 225
L 790 225
L 790 225
L 790 225
L 790 225
L 790 225
L 790 225
L 790 225
L 790 225
L 790 225
L 790 225
L 790 224
L 790 224
L 790 224
L 790 224
L 790 224
L 790 224
L 790 224
L 790 224
L 790 224
L 790 224
L 790 224
L 790 224
L 790 224
L 790 224
L 790 224
L 790 224
L 790 224
L 790 224
L 790 224
L 790 224
L 790 224
L 790 224
L 790 224
L 790 223
L 790 223
L 790 223
L 790 223
L 790 223
L 790 223
L 790 223
L 790 223
L 790 223
L 790 223
L 790 223
L 790 223
L 790 223
L 790 223
L 790 223
L 790 223
L 790 223
L 790 223
L 790 223
L 790 223
L 790 223
L 790 223
L 790 222
L 790 222
L 790 222
L 790 222
L 790 222
L 790 222
L 790 222
L 790 222
L 790 222
L 790 222
L 790 222
L 790 222
L 791 222
L 791 222
L 791 222
L 791 222
L 791 222
L 791 222
L 791 222
L 791 222
L 791 222
L 791 222
L 791 222
L 791 221
L 791 221
L 791 221
L 791 221
L 791 221
L 791 221
L 791 221
L 791 221
L 791 221
L 791 221
L 791 221
L 791 221
L 791 221
L 791 221
L 791 221
L 791 221
L 791 221
L 791 221
L 791 221
L 791 221
L 791 221
L 791 221
L 791 221
L 791 220
L 791 220
L 791 220
L 791 220
L 791 220
L 791 220
L 791 220
L 791 220
L 791 220
L 791 220
L 791 220
L 791 220
L 791 220
L 791 220
L 791 220
L 791 220
L 791 220
L 791 220
L 791 220
L 791 220
L 791 220
L 791 220
L 791 219
L 791 219
L 791 219
L 791 219
L 791 219
L 791 219
L 791 219
L 791 219
L 791 219
L 791 219
L 791 219
L 791 219
L 791 219
L 791 219
L 791 219
L 791 219
L 791 219
L 791 219
L 791 219
L 791 219
L 791 219
L 791 219
L 791 219
L 791 218
L 791 218
L 791 218
L 791 218
L 791 218
L 791 218
L 791 218
L 791 218
L 791 218
L 791 218
L 791 218
L 791 218
L 791 218
L 791 218
L 791 218
L 791 218
L 791 218
L 791 218
L 791 218
L 791 218
L 791 218
L 791 218
L 791 218
L 791 217
L 791 217
L 791 217
L 791 217
L 791 217
L 791 217
L 791 217
L 791 217
L 791 217
L 791 217
L 791 217
L 791 217
L 791 217
L 791 217
L 791 217
L 791 217
L 791 217
L 791 217
L 791 217
L 791 217
L 791 217
L 791 217
L 791 216
L 791 216
L 791 216
L 791 216
L 791 216
L 791 216
L 791 216
L 791 216
L 791 216
L 791 216
L 791 216
L 791 216
L 791 216
L 791 216
L 791 216
L 791 216
L 791 216
L 791 216
L 791 216
L 791 216
L 791 216
L 791 216
L 791 216
L 791 215
L 791 215
L 791 215
L 791 215
L 791 215
L 791 215
L 791 215
L 791 215
L 791 215
L 791 215
L 791 215
L 791 215
L 791 215
L 791 215
L 791 215
L 791 215
L 791 215
L 791 215
L 791 215
L 791 215
L 791 215
L 791 215
L 791 215
L 791 214
L 791 214
L 791 214
L 791 214
L 791 214
L 791 214
L 791 214
L 791 214
L 791 214
L 791 214
L 791 214
L 791 214
L 791 214
L 791 214
L 791 214
L 791 214
L 791 214
L 791 214
L 791 214
L 791 214
L 791 214
L 791 214
L 791 213
L 791 213
L 791 213
L 791 213
L 791 213
L 791 213
L 791 213
L 791 213
L 791 213
L 791 213
L 791 213
L 791 213
L 791 213
L 791 213
L 791 213
L 791 213
L 791 213
L 791 213
L 791 213
L 791 213
L 791 213
L 791 213
L 791 213
L 791 212
L 791 212
L 791 212
L 791 212
L 791 212
L 791 212
L 791 212
L 791 212
L 791 212
L 791 212
L 791 212
L 791 212
L 791 212
L 791 212
L 791 212
L 791 212
L 791 212
L 791 212
L 791 212
L 791 212
L 791 212
L 791 212
L 791 211
L 791 211
L 791 211
L 791 211
L 791 211
L 791 211
L 791 211
L 791 211
L 791 211
L 791 211
L 791 211
L 791 211
L 791 211
L 791 211
L 791 211
L 791 211
L 791 211
L 791 211
L 791 211
L 791 211
L 791 211
L 791 211
L 791 211
L 791 210
L 791 210
L 791 210
L 791 210
L 791 210
L 791 210
L 791 210
L 791 210
L 791 210
L 791 210
L 791 210
L 791 210
L 791 210
L 791 210
L 791 210
L 791 210
L 791 210
L 791 210
L 791 210
L 791 210
L 791 210
L 791 210
L 791 210
L 791 209
L 791 209
L 791 209
L 791 209
L 791 209
L 791 209
L 791 209
L 791 209
L 791 209
L 791 209
L 791 209
L 791 209
L 791 209
L 791 209
L 791 209
L 791 209
L 791 209
L 791 209
L 791 209
L 791 209
L 791 209
L 791 209
L 791 208
L 791 208
L 791 208
L 791 208
L 791 208
L 791 208
L 791 208
L 791 208
L 791 208
L 791 208
L 791 208
L 791 208
L 791 208
L 791 208
L 791 208
L 791 208
L 791 208
L 791 208
L 791 208
L 791 208
L 791 208
L 791 208
L 791 208
L 791 207
L 791 207
L 791 207
L 791 207
L 791 207
L 791 207
L 791 207
L 791 207
L 791 207
L 791 207
L 791 207
L 791 207
L 791 207
L 791 207
L 791 207
L 791 207
L 791 207
L 791 207
L 791 207
L 791 207
L 791 207
L 791 207
L 791 207
L 791 206
L 791 206
L 791 206
L 791 206
L 791 206
L 791 206
L 791 206
L 791 206
L 791 206
L 791 206
L 791 206
L 791 206
L 791 206
L 791 206
L 791 206
L 791 206
L 791 206
L 791 206
L 791 206
L 791 206
L 791 206
L 791 206
L 791 205
L 791 205
L 791 205
L 791 205
L 791 205
L 791 205
L 791 205
L 791 205
L 792 205
L 792 205
L 792 205
L 792 205
L 792 205
L 792 205
L 792 205
L 792 205
L 792 205
L 792 205
L 792 205
L 792 205
L 792 205
L 792 205
L 792 205
L 792 204
L 792 204
L 792 204
L 792 204
L 792 204
L 792 204
L 792 204
L 792 204
L 792 204
L 792 204
L 792 204
L 792 204
L 792 204
L 792 204
L 792 204
L 792 204
L 792 204
L 792 204
L 792 204
L 792 204
L 792 204
L 792 204
L 792 204
L 792 203
L 792 203
L 792 203
L 792 203
L 792 203
L 792 203
L 792 203
L 792 203
L 792 203
L 792 203
L 792 203
L 792 203
L 792 203
L 792 203
L 792 203
L 792 203
L 792 203
L 792 203
L 792 203
L 792 203
L 792 203
L 792 203
L 792 202
L 792 202
L 792 202
L 792 202
L 792 202
L 792 202
L 792 202
L 792 202
L 792 202
L 792 202
L 792 202
L 792 202
L 792 202
L 792 202
L 792 202
L 792 202
L 792 202
L 792 202
L 792 202
L 792 202
L 792 202
L 792 202
L 792 202
L 792 201
L 792 201
L 792 201
L 792 201
L 792 201
L 792 201
L 792 201
L 792 201
L 792 201
L 792 201
L 792 201
L 792 201
L 792 201
L 792 201
L 792 201
L 792 201
L 792 201
L 792 201
L 792 201
L 792 201
L 792 201
L 792 201
L 792 201
L 792 200
L 792 200
L 792 200
L 792 200
L 792 200
L 792 200
L 792 200
L 792 200
L 792 200
L 792 200
L 792 200
L 792 200
L 792 200
L 792 200
L 792 200
L 792 200
L 792 200
L 792 200
L 792 200
L 792 200
L 792 200
L 792 200
L 792 199
L 792 199
L 792 199
L 792 199
L 792 199
L 792 199
L 792 199
L 792 199
L 792 199
L 792 199
L 792 199
L 792 199
L 792 199
L 792 199
L 792 199
L 792 199
L 792 199
L 792 199
L 792 199
L 792 199
L 792 199
L 792 199
L 792 199
L 792 198
L 792 198
L 792 198
L 792 198
L 792 198
L 792 198
L 792 198
L 792 198
L 792 198
L 792 198
L 792 198
L 792 198
L 792 198
L 792 198
L 792 198
L 792 198
L 792 198
L 792 198
L 792 198
L 792 198
L 792 198
L 792 198
L 792 198
L 792 197
L 792 197
L 792 197
L 792 197
L 792 197
L 792 197
L 792 197
L 792 197
L 792 197
L 792 197
L 792 197
L 792 197
L 792 197
L 792 197
L 792 197
L 792 197
L 792 197
L 792 197
L 792 197
L 792 197
L 792 197
L 792 197
L 792 196
L 792 196
L 792 196
L 792 196
L 792 196
L 792 196
L 792 196
L 792 196
L 792 196
L 792 196
L 792 196
L 792 196
L 792 196
L 792 196
L 792 196
L 792 196
L 792 196
L 792 196
L 792 196
L 792 196
L 792 196
L 792 196
L 792 196
L 792 195
L 792 195
L 792 195
L 792 195
L 792 195
L 792 195
L 792 195
L 792 195
L 792 195
L 792 195
L 792 195
L 792 195
L 792 195
L 792 195
L 792 195
L 792 195
L 792 195
L 792 195
L 792 195
L 792 195
L 792 195
L 792 195
L 792 194
L 792 194
L 792 194
L 792 194
L 792 194
L 792 194
L 792 194
L 792 194
L 792 194
L 792 194
L 792 194
L 792 194
L 793 194
L 793 194
L 793 194
L 793 194
L 793 194
L 793 194
L 793 194
L 793 194
L 793 194
L 793 194
L 793 194
L 793 193
L 793 193
L 793 193
L 793 193
L 793 193
L 793 193
L 793 193
L 793 193
L 793 193
L 793 193
L 793 193
L 793 193
L 793 193
L 793 193
L 793 193
L 793 193
L 793 193
L 793 193
L 793 193
L 793 193
L 793 193
L 793 193
L 793 193
L 793 192
L 793 192
L 793 192
L 793 192
L 793 192
L 793 192
L 793 192
L 793 192
L 793 192
L 793 192
L 793 192
L 793 192
L 793 192
L 793 192
L 793 192
L 793 192
L 793 192
L 793 192
L 793 192
L 793 192
L 793 192
L 793 192
L 793 191
L 793 191
L 793 191
L 793 191
L 793 191
L 793 191
L 793 191
L 793 191
L 793 191
L 793 191
L 793 191
L 793 191
L 793 191
L 793 191
L 793 191
L 793 191
L 793 191
L 793 191
L 793 191
L 793 191
L 793 191
L 793 191
L 793 191
L 793 190
L 793 190
L 793 190
L 793 190
L 793 190
L 793 190
L 793 190
L 793 190
L 793 190
L 793 190
L 793 190
L 793 190
L 793 190
L 793 190
L 793 190
L 793 190
L 793 190
L 793 190
L 793 190
L 793 190
L 793 190
L 793 190
L 793 190
L 793 189
L 793 189
L 793 189
L 793 189
L 793 189
L 793 189
L 793 189
L 793 189
L 793 189
L 793 189
L 793 189
L 793 189
L 793 189
L 793 189
L 793 189
L 793 189
L 793 189
L 793 189
L 793 189
L 793 189
L 793 189
L 793 189
L 793 188
L 794 188
L 794 188
L 794 188
L 794 188
L 794 188
L 794 188
L 794 188
L 794 188
L 794 188
L 795 188
L 795 188
L 795 188
L 795 188
L 795 188
L 795 188
L 795 188
L 795 188
L 795 188
L 795 188
L 795 188
L 795 188
L 795 188
L 795 187
L 795 187
L 795 187
L 796 187
L 796 187
L 796 187
L 796 187
L 796 187
L 796 187
L 796 187
L 796 187
L 796 187
L 796 187
L 796 187
L 796 187
L 796 187
L 796 187
L 796 187
L 796 187
L 796 187
L 796 187
L 796 187
L 796 187
L 796 186
L 796 186
L 796 186
L 796 186
L 796 186
L 796 186
L 796 186
L 796 186
L 796 186
L 796 186
L 796 186
L 796 186
L 796 186
L 796 186
L 796 186
L 796 186
L 796 186
L 796 186
L 797 186
L 797 186
L 797 186
L 797 186
L 797 185
L 797 185
L 797 185
L 797 185
L 797 185
L 797 185
L 797 185
L 797 185
L 797 185
L 797 185
L 797 185
L 797 185
L 797 185
L 797 185
L 797 185
L 797 185
L 797 185
L 797 185
L 797 185
L 797 185
L 797 185
L 797 185
L 797 185
L 798 184
L 798 184
L 798 184
L 798 184
L 798 184
L 798 184
L 798 184
L 798 184
L 798 184
L 798 184
L 798 184
L 798 184
L 798 184
L 798 184
L 798 184
L 798 184
L 798 184
L 798 184
L 798 184
L 799 184
L 799 184
L 799 184
L 799 184
L 799 183
L 799 183
L 799 183
L 799 183
L 799 183
L 799 183
L 799 183
L 799 183
L 799 183
L 799 183
L 799 183
L 799 183
L 799 183
L 799 183
L 799 183
L 799 183
L 799 183
L 799 183
L 799 183
L 799 183
L 799 183
L 799 183
L 799 182
L 799 182
L 799 182
L 800 182
L 800 182
L 800 182
L 800 182
L 800 182
L 800 182
L 800 182
L 800 182
L 800 182
L 800 182
L 800 182
L 800 182
L 800 182
L 800 182
L 800 182
L 800 182
L 800 182
L 800 182
L 800 182
L 800 182
L 800 181
L 800 181
L 800 181
L 800 181
L 800 181
L 800 181
L 800 181
L 801 181
L 801 181
L 801 181
L 801 181
L 801 181
L 801 181
L 801 181
L 801 181
L 801 181
L 801 181
L 801 181
L 801 181
L 801 181
L 801 181
L 801 181
L 802 181
L 802 180
L 802 180
L 802 180
L 802 180
L 802 180
L 802 180
L 802 180
L 802 180
L 802 180
L 802 180
L 802 180
L 802 180
L 802 180
L 802 180
L 802 180
L 802 180
L 802 180
L 802 180
L 803 180
L 803 180
L 803 180
L 803 180
L 803 179
L 803 179
L 803 179
L 803 179
L 803 179
L 803 179
L 803 179
L 803 179
L 803 179
L 803 179
L 803 179
L 803 179
L 803 179
L 803 179
L 803 179
L 803 179
L 803 179
L 804 179
L 804 179
L 804 179
L 804 179
L 804 179
L 804 179
L 804 178
L 804 178
L 804 178
L 805 178
L 805 178
L 805 178
L 805 178
L 805 178
L 805 178
L 805 178
L 805 178
L 805 178
L 805 178
L 805 178
L 805 178
L 805 178
L 805 178
L 805 178
L 805 178
L 805 178
L 806 178
L 806 178
L 806 177
L 806 177
L 806 177
L 806 177
L 806 177
L 806 177
L 806 177
L 806 177
L 806 177
L 806 177
L 806 177
L 806 177
L 806 177
L 806 177
L 806 177
L 806 177
L 806 177
L 806 177
L 806 177
L 806 177
L 806 177
L 806 177
L 807 177
L 807 176
L 807 176
L 807 176
L 807 176
L 807 176
L 807 176
L 807 176
L 807 176
L 807 176
L 807 176
L 807 176
L 807 176
L 807 176
L 807 176
L 807 176
L 807 176
L 808 176
L 808 176
L 808 176
L 808 176
L 808 176
L 808 176
L 808 176
L 808 175
L 808 175
L 808 175
L 808 175
L 808 175
L 808 175
L 808 175
L 808 175
L 808 175
L 809 175
L 809 175
L 809 175
L 809 175
L 809 175
L 809 175
L 809 175
L 810 175
L 810 175
L 810 175
L 810 175
L 810 175
L 810 175
L 810 174
L 810 174
L 810 174
L 810 174
L 810 174
L 810 174
L 810 174
L 811 174
L 811 174
L 811 174
L 811 174
L 811 174
L 811 174
L 811 174
L 811 174
L 811 174
L 811 174
L 811 174
L 811 174
L 811 174
L 811 174
L 811 174
L 811 174
L 811 173
L 811 173
L 811 173
L 811 173
L 811 173
L 811 173
L 811 173
L 811 173
L 811 173
L 811 173
L 811 173
L 811 173
L 811 173
L 811 173
L 811 173
L 811 173
L 811 173
L 811 173
L 811 173
L 811 173
L 811 173
L 811 173
L 811 173
L 811 172
L 811 172
L 811 172
L 811 172
L 811 172
L 811 172
L 811 172
L 811 172
L 812 172
L 812 172
L 812 172
L 812 172
L 812 172
L 812 172
L 812 172
L 812 172
L 812 172
L 812 172
L 812 172
L 812 172
L 812 172
L 812 172
L 812 171
L 812 171
L 812 171
L 812 171
L 812 171
L 812 171
L 812 171
L 812 171
L 812 171
L 812 171
L 812 171
L 812 171
L 812 171
L 812 171
L 812 171
L 812 171
L 812 171
L 812 171
L 812 171
L 812 171
L 812 171
L 812 171
L 812 171
L 812 170
L 812 170
L 812 170
L 812 170
L 812 170
L 812 170
L 812 170
L 812 170
L 812 170
L 812 170
L 812 170
L 812 170
L 812 170
L 812 170
L 812 170
L 812 170
L 812 170
L 812 170
L 812 170
L 812 170
L 812 170
L 812 170
L 812 170
L 812 169
L 812 169
L 812 169
L 812 169
L 812 169
L 812 169
L 812 169
L 812 169
L 812 169
L 812 169
L 812 169
L 812 169
L 812 169
L 812 169
L 812 169
L 812 169
L 812 169
L 812 169
L 812 169
L 812 169
L 812 169
L 812 169
L 812 168
L 812 168
L 812 168
L 812 168
L 812 168
L 812 168
L 812 168
L 812 168
L 812 168
L 812 168
L 812 168
L 812 168
L 812 168
L 812 168
L 812 168
L 812 168
L 812 168
L 812 168
L 812 168
L 812 168
L 812 168
L 812 168
L 812 168
L 812 167
L 812 167
L 812 167
L 812 167
L 812 167
L 812 167
L 812 167
L 812 167
L 812 167
L 812 167
L 812 167
L 812 167
L 812 167
L 812 167
L 812 167
L 812 167
L 812 167
L 812 167
L 812 167
L 812 167
L 812 167
L 812 167
L 812 167
L 812 166
L 812 166
L 812 166
L 812 166
L 812 166
L 812 166
L 812 166
L 812 166
L 812 166
L 812 166
L 812 166
L 812 166
L 812 166
L 812 166
L 812 166
L 812 166
L 812 166
L 812 166
L 812 166
L 812 166
L 812 166
L 812 166
L 812 165
L 812 165
L 812 165
L 812 165
L 812 165
L 812 165
L 812 165
L 812 165
L 812 165
L 812 165
L 812 165
L 812 165
L 812 165
L 812 165
L 812 165
L 812 165
L 812 165
L 812 165
L 812 165
L 812 165
L 812 165
L 812 165
L 812 165
L 812 164
L 812 164
L 812 164
L 812 164
L 812 164
L 812 164
L 812 164
L 812 164
L 812 164
L 812 164
L 812 164
L 812 164
L 812 164
L 812 164
L 812 164
L 812 164
L 812 164
L 812 164
L 812 164
L 812 164
L 812 164
L 812 164
L 812 163
L 812 163
L 812 163
L 812 163
L 812 163
L 812 163
L 812 163
L 812 163
L 812 163
L 812 163
L 812 163
L 812 163
L 812 163
L 812 163
L 812 163
L 812 163
L 812 163
L 812 163
L 812 163
L 812 163
L 812 163
L 812 163
L 812 163
L 812 162
L 812 162
L 812 162
L 812 162
L 812 162
L 812 162
L 812 162
L 812 162
L 812 162
L 812 162
L 812 162
L 812 162
L 812 162
L 812 162
L 812 162
L 812 162
L 812 162
L 812 162
L 812 162
L 812 162
L 812 162
L 812 162
L 812 162
L 812 161
L 812 161
L 812 161
L 812 161
L 812 161
L 812 161
L 812 161
L 812 161
L 812 161
L 812 161
L 812 161
L 812 161
L 812 161
L 812 161
L 812 161
L 812 161
L 812 161
L 812 161
L 812 161
L 812 161
L 812 161
L 812 161
L 812 160
L 812 160
L 812 160
L 812 160
L 812 160
L 812 160
L 812 160
L 812 160
L 812 160
L 812 160
L 812 160
L 812 160
L 812 160
L 812 160
L 812 160
L 812 160
L 812 160
L 812 160
L 812 160
L 812 160
L 812 160
L 812 160
L 812 160
L 812 159
L 812 159
L 812 159
L 812 159
L 812 159
L 812 159
L 812 159
L 812 159
L 812 159
L 812 159
L 812 159
L 812 159
L 812 159
L 812 159
L 812 159
L 812 159
L 812 159
L 813 159
L 813 159
L 813 159
L 813 159
L 813 159
L 813 159
L 813 158
L 813 158
L 813 158
L 813 158
L 813 158
L 813 158
L 813 158
L 813 158
L 813 158
L 813 158
L 813 158
L 813 158
L 813 158
L 813 158
L 813 158
L 813 158
L 813 158
L 813 158
L 813 158
L 813 158
L 813 158
L 813 158
L 813 157
L 813 157
L 813 157
L 813 157
L 813 157
L 813 157
L 813 157
L 813 157
L 813 157
L 813 157
L 813 157
L 813 157
L 813 157
L 813 157
L 813 157
L 813 157
L 813 157
L 813 157
L 813 157
L 813 157
L 813 157
L 813 157
L 813 157
L 813 156
L 813 156
L 813 156
L 813 156
L 813 156
L 813 156
L 813 156
L 813 156
L 813 156
L 813 156
L 813 156
L 813 156
L 813 156
L 813 156
L 813 156
L 813 156
L 813 156
L 813 156
L 813 156
L 813 156
L 813 156
L 813 156
L 813 156
L 813 155
L 813 155
L 813 155
L 813 155
L 813 155
L 813 155
L 813 155
L 813 155
L 813 155
L 813 155
L 813 155
L 813 155
L 813 155
L 813 155
L 813 155
L 813 155
L 813 155
L 813 155
L 813 155
L 813 155
L 813 155
L 813 155
L 813 154
L 813 154
L 813 154
L 813 154
L 813 154
L 813 154
L 813 154
L 813 154
L 813 154
L 813 154
L 813 154
L 813 154
L 813 154
L 813 154
L 813 154
L 813 154
L 813 154
L 813 154
L 813 154
L 813 154
L 813 154
L 813 154
L 813 154
L 813 153
L 813 153
L 813 153
L 813 153
L 813 153
L 813 153
L 813 153
L 813 153
L 813 153
L 813 153
L 813 153
L 813 153
L 813 153
L 813 153
L 813 153
L 813 153
L 813 153
L 813 153
L 813 153
L 813 153
L 813 153
L 813 153
L 813 153
L 813 152
L 813 152
L 813 152
L 813 152
L 813 152
L 813 152
L 813 152
L 813 152
L 813 152
L 813 152
L 813 152
L 813 152
L 813 152
L 813 152
L 813 152
L 813 152
L 813 152
L 813 152
L 813 152
L 813 152
L 813 152
L 813 152
L 813 151
L 813 151
L 813 151
L 813 151
L 813 151
L 813 151
L 813 151
L 813 151
L 813 151
L 813 151
L 813 151
L 813 151
L 813 151
L 813 151
L 813 151
L 813 151
L 813 151
L 813 151
L 813 151
L 813 151
L 813 151
L 813 151
L 813 151
L 813 150
L 813 150
L 813 150
L 813 150
L 813 150
L 813 150
L 813 150
L 813 150
L 813 150
L 813 150
L 813 150
L 813 150
L 813 150
L 813 150
L 813 150
L 813 150
L 813 150
L 813 150
L 813 150
L 813 150
L 813 150
L 813 150
L 813 150
L 813 149
L 813 149
L 813 149
L 813 149
L 813 149
L 813 149
L 813 149
L 813 149
L 813 149
L 813 149
L 813 149
L 813 149
L 813 149
L 813 149
L 813 149
L 813 149
L 813 149
L 813 149
L 813 149
L 813 149
L 813 149
L 813 149
L 813 148
L 813 148
L 813 148
L 813 148
L 813 148
L 813 148
L 813 148
L 813 148
L 813 148
L 813 148
L 813 148
L 813 148
L 813 148
L 813 148
L 813 148
L 813 148
L 813 148
L 813 148
L 813 148
L 813 148
L 813 148
L 813 148
L 813 148
L 813 147
L 813 147
L 813 147
L 813 147
L 813 147
L 813 147
L 813 147
L 813 147
L 813 147
L 813 147
L 813 147
L 813 147
L 813 147
L 813 147
L 813 147
L 813 147
L 813 147
L 813 147
L 813 147
L 813 147
L 813 147
L 813 147
L 813 147
L 813 146
L 813 146
L 813 146
L 813 146
L 813 146
L 813 146
L 813 146
L 813 146
L 813 146
L 813 146
L 813 146
L 813 146
L 813 146
L 813 146
L 813 146
L 813 146
L 813 146
L 813 146
L 813 146
L 813 146
L 813 146
L 813 146
L 813 145
L 813 145
L 813 145
L 813 145
L 813 145
L 813 145
L 813 145
L 813 145
L 813 145
L 813 145
L 813 145
L 813 145
L 813 145
L 813 145
L 813 145
L 813 145
L 813 145
L 813 145
L 813 145
L 813 145
L 813 145
L 813 145
L 813 145
L 813 144
L 813 144
L 813 144
L 813 144
L 813 144
L 813 144
L 813 144
L 813 144
L 813 144
L 813 144
L 813 144
L 814 144
L 814 144
L 814 144
L 814 144
L 814 144
L 814 144
L 814 144
L 814 144
L 814 144
L 814 144
L 814 144
L 814 143
L 814 143
L 814 143
L 814 143
L 814 143
L 814 143
L 814 143
L 814 143
L 814 143
L 814 143
L 814 143
L 814 143
L 814 143
L 814 143
L 814 143
L 814 143
L 814 143
L 814 143
L 814 143
L 814 143
L 814 143
L 814 143
L 814 143
L 814 142
L 814 142
L 814 142
L 814 142
L 814 142
L 814 142
L 814 142
L 814 142
L 814 142
L 814 142
L 814 142
L 814 142
L 814 142
L 814 142
L 814 142
L 814 142
L 814 142
L 814 142
L 814 142
L 814 142
L 814 142
L 814 142
L 814 142
L 814 141
L 814 141
L 814 141
L 814 141
L 814 141
L 814 141
L 814 141
L 814 141
L 814 141
L 814 141
L 814 141
L 814 141
L 814 141
L 814 141
L 814 141
L 814 141
L 814 141
L 814 141
L 814 141
L 814 141
L 814 141
L 814 141
L 814 140
L 814 140
L 814 140
L 814 140
L 814 140
L 814 140
L 814 140
L 814 140
L 814 140
L 814 140
L 814 140
L 814 140
L 814 140
L 814 140
L 814 140
L 814 140
L 814 140
L 814 140
L 814 140
L 814 140
L 814 140
L 814 140
L 814 140
L 814 139
L 814 139
L 814 139
L 814 139
L 814 139
L 814 139
L 814 139
L 814 139
L 814 139
L 814 139
L 814 139
L 814 139
L 814 139
L 814 139
L 814 139
L 814 139
L 814 139
L 814 139
L 814 139
L 814 139
L 814 139
L 814 139
L 814 139
L 814 138
L 814 138
L 814 138
L 814 138
L 814 138
L 814 138
L 814 138
L 814 138
L 814 138
L 814 138
L 814 138
L 814 138
L 814 138
L 814 138
L 814 138
L 814 138
L 814 138
L 814 138
L 814 138
L 814 138
L 814 138
L 814 138
L 814 137
L 814 137
L 814 137
L 814 137
L 814 137
L 814 137
L 814 137
L 814 137
L 814 137
L 814 137
L 814 137
L 814 137
L 814 137
L 814 137
L 814 137
L 814 137
L 814 137
L 814 137
L 814 137
L 814 137
L 814 137
L 814 137
L 814 137
L 814 136
L 814 136
L 814 136
L 814 136
L 814 136
L 814 136
L 814 136
L 814 136
L 814 136
L 814 136
L 814 136
L 814 136
L 814 136
L 814 136
L 814 136
L 814 136
L 814 136
L 814 136
L 814 136
L 814 136
L 814 136
L 814 136
L 814 136
L 814 135
L 814 135
L 814 135
L 814 135
L 814 135
L 814 135
L 814 135
L 814 135
L 814 135
L 814 135
L 814 135
L 814 135
L 814 135
L 814 135
L 814 135
L 814 135
L 814 135
L 814 135
L 814 135
L 814 135
L 814 135
L 814 135
L 814 134
L 814 134
L 814 134
L 814 134
L 814 134
L 814 134
L 814 134
L 814 134
L 814 134
L 814 134
L 814 134
L 814 134
L 814 134
L 814 134
L 814 134
L 814 134
L 814 134
L 814 134
L 814 134
L 814 134
L 814 134
L 814 134
L 814 134
L 814 133
L 814 133
L 814 133
L 814 133
L 814 133
L 814 133
L 814 133
L 814 133
L 814 133
L 814 133
L 814 133
L 814 133
L 814 133
L 814 133
L 814 133
L 814 133
L 814 133
L 814 133
L 814 133
L 814 133
L 814 133
L 814 133
L 814 133
L 814 132
L 814 132
L 814 132
L 814 132
L 814 132
L 814 132
L 814 132
L 814 132
L 814 132
L 814 132
L 814 132
L 814 132
L 814 132
L 814 132
L 814 132
L 814 132
L 814 132
L 814 132
L 814 132
L 814 132
L 814 132
L 814 132
L 814 131
L 814 131
L 814 131
L 814 131
L 814 131
L 814 131
L 814 131
L 814 131
L 814 131
L 814 131
L 814 131
L 814 131
L 814 131
L 814 131
L 814 131
L 814 131
L 814 131
L 814 131
L 815 131
L 815 131
L 815 131
L 815 131
L 815 131
L 815 130
L 815 130
L 815 130
L 815 130
L 815 130
L 815 130
L 815 130
L 815 130
L 815 130
L 815 130
L 815 130
L 815 130
L 815 130
L 815 130
L 815 130
L 815 130
L 815 130
L 815 130
L 815 130
L 815 130
L 815 130
L 815 130
L 815 130
L 815 129
L 815 129
L 815 129
L 815 129
L 815 129
L 815 129
L 815 129
L 815 129
L 815 129
L 815 129
L 815 129
L 815 129
L 815 129
L 815 129
L 815 129
L 815 129
L 815 129
L 815 129
L 815 129
L 815 129
L 815 129
L 815 129
L 815 128
L 815 128
L 815 128
L 815 128
L 815 128
L 815 128
L 815 128
L 815 128
L 815 128
L 815 128
L 815 128
L 815 128
L 815 128
L 815 128
L 815 128
L 815 128
L 815 128
L 815 128
L 815 128
L 815 128
L 815 128
L 815 128
L 815 128
L 815 127
L 815 127
L 815 127
L 815 127
L 815 127
L 815 127
L 815 127
L 815 127
L 815 127
L 815 127
L 815 127
L 815 127
L 815 127
L 815 127
L 815 127
L 815 127
L 815 127
L 815 127
L 815 127
L 815 127
L 815 127
L 815 127
L 815 126
L 815 126
L 815 126
L 815 126
L 815 126
L 815 126
L 815 126
L 815 126
L 815 126
L 815 126
L 815 126
L 815 126
L 815 126
L 815 126
L 815 126
L 815 126
L 815 126
L 815 126
L 815 126
L 815 126
L 815 126
L 815 126
L 815 126
L 815 125
L 815 125
L 815 125
L 815 125
L 815 125
L 815 125
L 815 125
L 815 125
L 815 125
L 815 125
L 815 125
L 815 125
L 815 125
L 815 125
L 815 125
L 815 125
L 815 125
L 815 125
L 815 125
L 815 125
L 815 125
L 815 125
L 815 125
L 815 124
L 815 124
L 815 124
L 815 124
L 815 124
L 815 124
L 815 124
L 815 124
L 815 124
L 815 124
L 815 124
L 815 124
L 815 124
L 815 124
L 815 124
L 815 124
L 815 124
L 815 124
L 815 124
L 815 124
L 815 124
L 815 124
L 815 123
L 815 123
L 815 123
L 815 123
L 815 123
L 815 123
L 815 123
L 815 123
L 815 123
L 815 123
L 815 123
L 815 123
L 815 123
L 815 123
L 815 123
L 815 123
L 815 123
L 815 123
L 815 123
L 815 123
L 815 123
L 815 123
L 815 123
L 815 122
L 815 122
L 815 122
L 815 122
L 815 122
L 815 122
L 815 122
L 815 122
L 815 122
L 815 122
L 815 122
L 815 122
L 815 122
L 815 122
L 815 122
L 815 122
L 815 122
L 815 122
L 815 122
L 815 122
L 815 122
L 815 122
L 815 122
L 815 121
L 815 121
L 815 121
L 815 121
L 815 121
L 815 121
L 815 121
L 815 121
L 815 121
L 816 121
L 816 121
L 816 121
L 816 121
L 816 121
L 816 121
L 816 121
L 816 121
L 816 121
L 816 121
L 816 121
L 816 121
L 816 121
L 816 120
L 816 120
L 816 120
L 816 120
L 816 120
L 816 120
L 816 120
L 816 120
L 816 120
L 816 120
L 816 120
L 816 120
L 816 120
L 816 120
L 816 120
L 816 120
L 816 120
L 816 120
L 816 120
L 816 120
L 817 120
L 817 120
L 817 120
L 817 119
L 817 119
L 817 119
L 817 119
L 817 119
L 817 119
L 817 119
L 817 119
L 817 119
L 817 119
L 817 119
L 817 119
L 817 119
L 817 119
L 817 119
L 817 119
L 817 119
L 817 119
L 817 119
L 817 119
L 817 119
L 817 119
L 817 119
L 817 118
L 817 118
L 817 118
L 817 118
L 817 118
L 817 118
L 817 118
L 817 118
L 817 118
L 817 118
L 817 118
L 817 118
L 817 118
L 817 118
L 817 118
L 817 118
L 817 118
L 817 118
L 817 118
L 817 118
L 817 118
L 817 118
L 817 117
L 817 117
L 817 117
L 817 117
L 817 117
L 817 117
L 817 117
L 817 117
L 817 117
L 817 117
L 817 117
L 817 117
L 817 117
L 817 117
L 817 117
L 817 117
L 817 117
L 817 117
L 817 117
L 817 117
L 817 117
L 817 117
L 817 117
L 817 116
L 817 116
L 817 116
L 817 116
L 817 116
L 817 116
L 817 116
L 817 116
L 817 116
L 817 116
L 817 116
L 817 116
L 818 116
L 818 116
L 818 116
L 818 116
L 818 116
L 818 116
L 818 116
L 818 116
L 818 116
L 818 116
L 818 116
L 818 115
L 818 115
L 818 115
L 818 115
L 818 115
L 818 115
L 818 115
L 818 115
L 818 115
L 818 115
L 818 115
L 818 115
L 818 115
L 818 115
L 818 115
L 818 115
L 818 115
L 818 115
L 818 115
L 818 115
L 818 115
L 818 115
L 818 114
L 818 114
L 818 114
L 818 114
L 818 114
L 818 114
L 818 114
L 818 114
L 818 114
L 818 114
L 818 114
L 818 114
L 818 114
L 818 114
L 818 114
L 818 114
L 818 114
L 818 114
L 818 114
L 818 114
L 818 114
L 818 114
L 818 114
L 818 113
L 818 113
L 819 113
L 819 113
L 819 113
L 819 113
L 819 113
L 819 113
L 819 113
L 819 113
L 819 113
L 819 113
L 819 113
L 819 113
L 819 113
L 819 113
L 819 113
L 819 113
L 819 113
L 819 113
L 819 113
L 819 113
L 819 113
L 819 112
L 819 112
L 819 112
L 819 112
L 819 112
L 819 112
L 819 112
L 819 112
L 819 112
L 819 112
L 819 112
L 819 112
L 819 112
L 819 112
L 819 112
L 819 112
L 819 112
L 819 112
L 819 112
L 819 112
L 819 112
L 819 112
L 819 111
L 819 111
L 819 111
L 819 111
L 820 111
L 820 111
L 820 111
L 820 111
L 820 111
L 820 111
L 820 111
L 820 111
L 820 111
L 820 111
L 820 111
L 820 111
L 820 111
L 820 111
L 820 111
L 820 111
L 820 111
L 820 111
L 821 111
L 821 110
L 821 110
L 821 110
L 821 110
L 821 110
L 821 110
L 821 110
L 821 110
L 821 110
L 821 110
L 821 110
L 821 110
L 821 110
L 821 110
L 821 110
L 821 110
L 821 110
L 822 110
L 822 110
L 822 110
L 822 110
L 822 110
L 822 109
L 822 109
L 822 109
L 822 109
L 822 109
L 822 109
L 822 109
L 822 109
L 822 109
L 822 109
L 822 109
L 822 109
L 822 109
L 822 109
L 822 109
L 822 109
L 822 109
L 822 109
L 822 109
L 822 109
L 822 109
L 822 109
L 822 109
L 822 108
L 822 108
L 822 108
L 822 108
L 822 108
L 822 108
L 822 108
L 822 108
L 822 108
L 823 108
L 823 108
L 823 108
L 823 108
L 823 108
L 823 108
L 823 108
L 823 108
L 823 108
L 823 108
L 823 108
L 823 108
L 823 108
L 823 108
L 823 107
L 823 107
L 823 107
L 823 107
L 823 107
L 823 107
L 823 107
L 823 107
L 824 107
L 824 107
L 824 107
L 824 107
L 824 107
L 824 107
L 824 107
L 824 107
L 824 107
L 824 107
L 824 107
L 824 107
L 824 107
L 824 107
L 824 106
L 824 106
L 824 106
L 824 106
L 824 106
L 824 106
L 824 106
L 824 106
L 825 106
L 825 106
L 825 106
L 825 106
L 825 106
L 825 106
L 825 106
L 825 106
L 825 106
L 825 106
L 825 106
L 825 106
L 825 106
L 825 106
L 825 106
L 825 105
L 825 105
L 825 105
L 825 105
L 825 105
L 825 105
L 825 105
L 825 105
L 825 105
L 826 105
L 826 105
L 826 105
L 826 105
L 826 105
L 826 105
L 826 105
L 826 105
L 826 105
L 826 105
L 826 105
L 826 105
L 827 105
L 827 105
L 827 104
L 827 104
L 827 104
L 827 104
L 827 104
L 827 104
L 827 104
L 827 104
L 827 104
L 827 104
L 827 104
L 827 104
L 827 104
L 827 104
L 827 104
L 828 104
L 828 104
L 828 104
L 828 104
L 828 104
L 828 104
L 828 104
L 828 103
L 828 103
L 828 103
L 828 103
L 828 103
L 828 103
L 828 103
L 828 103
L 828 103
L 828 103
L 828 103
L 828 103
L 828 103
L 828 103
L 828 103
L 828 103
L 828 103
L 828 103
L 828 103
L 828 103
L 828 103
L 829 103
L 829 103
L 829 102
L 829 102
L 829 102
L 829 102
L 829 102
L 829 102
L 829 102
L 829 102
L 829 102
L 829 102
L 829 102
L 829 102
L 829 102
L 829 102
L 829 102
L 829 102
L 829 102
L 829 102
L 829 102
L 829 102
L 829 102
L 829 102
L 829 102
L 829 101
L 829 101
L 829 101
L 829 101
L 829 101
L 829 101
L 829 101
L 829 101
L 829 101
L 829 101
L 829 101
L 829 101
L 830 101
L 830 101
L 830 101
L 830 101
L 830 101
L 830 101
L 830 101
L 830 101
L 830 101
L 830 101
L 830 100
L 830 100
L 830 100
L 830 100
L 830 100
L 830 100
L 830 100
L 830 100
L 830 100
L 830 100
L 830 100
L 830 100
L 830 100
L 830 100
L 830 100
L 830 100
L 830 100
L 830 100
L 830 100
L 830 100
L 830 100
L 830 100
L 830 100
L 830 99
L 830 99
L 830 99
L 830 99
L 830 99
L 830 99
L 830 99
L 830 99
L 830 99
L 830 99
L 830 99
L 830 99
L 830 99
L 830 99
L 830 99
L 830 99
L 830 99
L 830 99
L 830 99
L 830 99
L 830 99
L 830 99
L 830 99
L 830 98
L 830 98
L 830 98
L 831 98
L 831 98
L 831 98
L 831 98
L 831 98
L 831 98
L 831 98
L 831 98
L 831 98
L 831 98
L 831 98
L 831 98
L 831 98
L 831 98
L 831 98
L 831 98
L 831 98
L 831 98
L 831 98
L 831 97
L 831 97
L 831 97
L 831 97
L 831 97
L 831 97
L 831 97
L 831 97
L 831 97
L 831 97
L 831 97
L 831 97
L 831 97
L 831 97
L 831 97
L 831 97
L 832 97
L 832 97
L 832 97
L 832 97
L 832 97
L 832 97
L 832 97
L 832 96
L 832 96
L 832 96
L 832 96
L 832 96
L 832 96
L 832 96
L 833 96
L 833 96
L 833 96
L 833 96
L 833 96
L 833 96
L 833 96
L 833 96
L 833 96
L 833 96
L 833 96
L 833 96
L 833 96
L 833 96
L 833 96
L 833 96
L 833 95
L 833 95
L 833 95
L 833 95
L 833 95
L 833 95
L 833 95
L 833 95
L 833 95
L 833 95
L 833 95
L 833 95
L 833 95
L 833 95
L 833 95
L 833 95
L 833 95
L 833 95
L 833 95
L 833 95
L 833 95
L 833 95
L 833 94
L 833 94
L 834 94
L 834 94
L 834 94
L 834 94
L 834 94
L 834 94
L 834 94
L 834 94
L 834 94
L 834 94
L 834 94
L 834 94
L 834 94
L 834 94
L 834 94
L 834 94
L 834 94
L 834 94
L 834 94
L 834 94
L 834 94
L 834 93
L 834 93
L 834 93
L 834 93
L 834 93
L 834 93
L 834 93
L 834 93
L 834 93
L 834 93
L 834 93
L 834 93
L 834 93
L 835 93
L 835 93
L 835 93
L 835 93
L 835 93
L 835 93
L 835 93
L 835 93
L 835 93
L 835 92
L 835 92
L 835 92
L 835 92
L 835 92
L 835 92
L 835 92
L 835 92
L 835 92
L 835 92
L 835 92
L 835 92
L 836 92
L 836 92
L 836 92
L 836 92
L 836 92
L 836 92
L 836 92
L 836 92
L 836 92
L 836 92
L 836 92
L 836 91
L 836 91
L 837 91
L 837 91
L 837 91
L 837 91
L 837 91
L 837 91
L 838 91
L 838 91
L 838 91
L 838 91
L 838 91
L 838 91
L 838 91
L 838 91
L 839 91
L 839 91
L 839 91
L 839 91
L 839 91
L 839 91
L 839 91
L 839 90
L 839 90
L 839 90
L 839 90
L 839 90
L 839 90
L 839 90
L 839 90
L 840 90
L 840 90
L 840 90
L 840 90
L 840 90
L 840 90
L 840 90
L 840 90
L 840 90
L 840 90
L 840 90
L 841 90
L 841 90
L 841 90
L 841 89
L 841 89
L 841 89
L 841 89
L 841 89
L 841 89
L 841 89
L 841 89
L 841 89
L 841 89
L 842 89
L 842 89
L 842 89
L 842 89
L 842 89
L 842 89
L 842 89
L 842 89
L 842 89
L 843 89
L 843 89
L 843 89
L 843 89
L 843 88
L 843 88
L 843 88
L 843 88
L 843 88
L 844 88
L 844 88
L 844 88
L 844 88
L 844 88
L 844 88
L 844 88
L 844 88
L 844 88
L 844 88
L 844 88
L 845 88
L 845 88
L 845 88
L 845 88
L 845 88
L 845 88
L 845 88
L 845 87
L 845 87
L 845 87
L 845 87
L 846 87
L 846 87
L 846 87
L 846 87
L 846 87
L 846 87
L 846 87
L 846 87
L 846 87
L 846 87
L 847 87
L 847 87
L 847 87
L 847 87
L 847 87
L 847 87
L 847 87
L 847 87
L 847 86
L 847 86
L 847 86
L 847 86
L 847 86
L 847 86
L 847 86
L 847 86
L 847 86
L 847 86
L 847 86
L 847 86
L 848 86
L 848 86
L 848 86
L 848 86
L 848 86
L 848 86
L 848 86
L 849 86
L 849 86
L 849 86
L 849 86
L 849 85
L 849 85
L 849 85
L 850 85
L 850 85
L 850 85
L 850 85
L 850 85
L 850 85
L 850 85
L 850 85
L 850 85
L 850 85
L 850 85
L 850 85
L 850 85
L 850 85
L 851 85
L 851 85
L 851 85
L 851 85
L 851 85
L 851 85
L 851 84
L 851 84
L 851 84
L 851 84
L 851 84
L 851 84
L 851 84
L 851 84
L 851 84
L 851 84
L 851 84
L 852 84
L 852 84
L 852 84
L 852 84
L 852 84
L 852 84
L 852 84
L 852 84
L 853 84
L 853 84
L 853 84
L 853 83
L 853 83
L 853 83
L 853 83
L 853 83
L 854 83
L 854 83
L 854 83
L 854 83
L 854 83
L 854 83
L 855 83
L 855 83
L 855 83
L 855 83
L 855 83
L 855 83
L 855 83
L 855 83
L 855 83
L 855 83
L 855 83
L 855 83
L 855 82
L 855 82
L 855 82
L 855 82
L 855 82
L 855 82
L 856 82
L 856 82
L 856 82
L 856 82
L 856 82
L 856 82
L 856 82
L 856 82
L 856 82
L 856 82
L 856 82
L 856 82
L 856 82
L 856 82
L 856 82
L 856 82
L 856 82
L 856 81
L 856 81
L 856 81
L 856 81
L 856 81
L 856 81
L 856 81
L 856 81
L 856 81
L 856 81
L 856 81
L 856 81
L 856 81
L 856 81
L 856 81
L 856 81
L 857 81
L 857 81
L 857 81
L 857 81
L 857 81
L 857 81
L 857 80
L 857 80
L 857 80
L 857 80
L 857 80
L 857 80
L 857 80
L 857 80
L 857 80
L 857 80
L 857 80
L 857 80
L 857 80
L 857 80
L 857 80
L 857 80
L 857 80
L 857 80
L 857 80
L 857 80
L 857 80
L 857 80
L 857 80
L 857 79
L 857 79
L 857 79
L 857 79
L 857 79
L 858 79
L 858 79
L 858 79
L 858 79
L 858 79
L 858 79
L 858 79
L 858 79
L 858 79
L 858 79
L 858 79
L 858 79
L 858 79
L 858 79
L 858 79
L 858 79
L 858 79
L 858 79
L 858 78
L 859 78
L 859 78
L 859 78
L 859 78
L 859 78
L 859 78
L 860 78
L 860 78
L 860 78
L 860 78
L 860 78
L 860 78
L 860 78
L 860 78
L 860 78
L 860 78
L 860 78
L 860 78
L 860 78
L 860 78
L 860 78
L 861 77
L 861 77
L 861 77
L 861 77
L 861 77
L 861 77
L 861 77
L 861 77
L 861 77
L 861 77
L 861 77
L 861 77
L 861 77
L 861 77
L 861 77
L 862 77
L 862 77
L 862 77
L 862 77
L 862 77
L 862 77
L 862 77
L 862 77
L 862 76
L 862 76
L 862 76
L 863 76
L 863 76
L 863 76
L 863 76
L 863 76
L 863 76
L 863 76
L 863 76
L 863 76
L 863 76
L 863 76
L 863 76
L 863 76
L 863 76
L 864 76
L 864 76
L 864 76
L 864 76
L 864 76
L 864 75
L 864 75
L 864 75
L 864 75
L 864 75
L 864 75
L 864 75
L 864 75
L 864 75
L 865 75
L 865 75
L 865 75
L 865 75
L 865 75
L 865 75
L 865 75
L 865 75
L 865 75
L 866 75
L 866 75
L 866 75
L 866 75
L 866 75
L 866 74
L 866 74
L 866 74
L 866 74
L 867 74
L 867 74
L 867 74
L 867 74
L 867 74
L 867 74
L 867 74
L 867 74
L 867 74
L 867 74
L 868 74
L 868 74
L 868 74
L 868 74
L 868 74
L 868 74
L 868 74
L 868 74
L 868 74
L 868 73
L 868 73
L 868 73
L 868 73
L 868 73
L 868 73
L 869 73
L 869 73
L 869 73
L 869 73
L 869 73
L 869 73
L 869 73
L 869 73
L 869 73
L 869 73
L 869 73
L 869 73
L 869 73
L 869 73
L 870 73
L 870 73
L 870 72
L 870 72
L 870 72
L 870 72
L 870 72
L 870 72
L 871 72
L 871 72
L 871 72
L 871 72
L 871 72
L 871 72
L 871 72
L 871 72
L 871 72
L 871 72
L 871 72
L 872 72
L 872 72
L 872 72
L 872 72
L 872 72
L 872 72
L 872 71
L 872 71
L 872 71
L 872 71
L 872 71
L 872 71
L 872 71
L 872 71
L 872 71
L 872 71
L 872 71
L 872 71
L 872 71
L 873 71
L 873 71
L 873 71
L 873 71
L 873 71
L 873 71
L 873 71
L 873 71
L 873 71
L 873 71
L 873 70
L 873 70
L 873 70
L 873 70
L 874 70
L 874 70
L 874 70
L 874 70
L 874 70
L 874 70
L 874 70
L 874 70
L 874 70
L 874 70
L 874 70
L 874 70
L 875 70
L 875 70
L 875 70
L 875 70
L 875 70
L 875 70
L 875 69
L 876 69
L 876 69
L 876 69
L 876 69
L 876 69
L 876 69
L 876 69
L 876 69
L 877 69
L 877 69
L 877 69
L 877 69
L 877 69
L 877 69
L 877 69
L 877 69
L 877 69
L 877 69
L 877 69
L 877 69
L 877 69
L 878 69
L 878 68
L 878 68
L 878 68
L 878 68
L 878 68
L 878 68
L 878 68
L 878 68
L 878 68
L 878 68
L 879 68
L 879 68
L 879 68
L 879 68
L 879 68
L 879 68
L 879 68
L 879 68
L 879 68
L 879 68
L 879 68
L 879 68
L 879 68
L 880 67
L 880 67
L 880 67
L 880 67
L 880 67
L 880 67
L 880 67
L 880 67
L 880 67
L 880 67
L 880 67
L 880 67
L 881 67
L 881 67
L 881 67
L 881 67
L 881 67
L 881 67
L 881 67
L 882 67
L 882 67
L 882 67
L 882 66
L 882 66
L 882 66
L 882 66
L 882 66
L 882 66
L 882 66
L 882 66
L 882 66
L 883 66
L 883 66
L 883 66
L 883 66
L 883 66
L 883 66
L 883 66
L 883 66
L 883 66
L 883 66
L 884 66
L 884 66
L 884 66
L 884 66
L 884 65
L 884 65
L 884 65
L 884 65
L 884 65
L 884 65
L 884 65
L 884 65
L 884 65
L 884 65
L 884 65
L 884 65
L 884 65
L 884 65
L 884 65
L 884 65
L 884 65
L 884 65
L 884 65
L 884 65
L 884 65
L 884 65
L 884 65
L 884 64
L 884 64
L 884 64
L 884 64
L 884 64
L 884 64
L 884 64
L 884 64
L 884 64
L 884 64
L 884 64
L 885 64
L 885 64
L 885 64
L 885 64
L 885 64
L 885 64
L 885 64
L 885 64
L 885 64
L 885 64
L 885 64
L 885 63
L 885 63
L 885 63
L 885 63
L 885 63
L 885 63
L 885 63
L 885 63
L 885 63
L 885 63
L 885 63
L 885 63
L 885 63
L 885 63
L 885 63
L 885 63
L 885 63
L 885 63
L 885 63
L 886 63
L 886 63
L 886 63
L 886 63
L 886 62
L 886 62
L 886 62
L 886 62
L 886 62
L 886 62
L 886 62
L 886 62
L 886 62
L 886 62
L 886 62
L 886 62
L 886 62
L 886 62
L 886 62
L 886 62
L 886 62
L 886 62
L 886 62
L 886 62
L 886 62
L 886 62
L 886 62
L 886 61
L 886 61
L 886 61
L 886 61
L 886 61
L 886 61
L 886 61
L 886 61
L 886 61
L 886 61
L 886 61
L 886 61
L 886 61
L 886 61
L 886 61
L 887 61
L 887 61
L 887 61
L 887 61
L 887 61
L 887 61
L 887 61
L 887 60
L 887 60
L 887 60
L 887 60
L 887 60
L 887 60
L 887 60
L 887 60
L 887 60
L 887 60
L 888 60
L 888 60
L 888 60
L 888 60
L 888 60
L 888 60
L 888 60
L 888 60
L 888 60
L 888 60
L 888 60
L 888 60
L 888 60
L 888 59
L 888 59
L 888 59
L 888 59
L 888 59
L 888 59
L 889 59
L 889 59
L 889 59
L 889 59
L 889 59
L 889 59
L 889 59
L 889 59
L 889 59
L 889 59
L 889 59
L 889 59
L 889 59
L 889 59
L 889 59
L 889 59
L 889 58
L 889 58
L 889 58
L 889 58
L 889 58
L 889 58
L 889 58
L 889 58
L 889 58
L 889 58
L 889 58
L 889 58
L 889 58
L 889 58
L 889 58
L 889 58
L 889 58
L 889 58
L 889 58
L 889 58
L 889 58
L 889 58
L 889 58
L 889 57
L 889 57
L 889 57
L 889 57
L 889 57
L 889 57
L 889 57
L 889 57
L 889 57
L 889 57
L 889 57
L 889 57
L 889 57
L 889 57
L 890 57
L 890 57
L 890 57
L 890 57
L 890 57
L 890 57
L 890 57
L 890 57
L 890 57
L 890 56
L 890 56
L 890 56
L 890 56
L 890 56
L 890 56
L 890 56
L 890 56
L 890 56
L 890 56
L 890 56
L 890 56
L 890 56
L 890 56
L 890 56
L 890 56
L 890 56
L 890 56
L 890 56
L 890 56
L 890 56
L 890 56
L 890 55
L 890 55
L 890 55
L 890 55
L 890 55
L 890 55
L 890 55
L 890 55
L 890 55
L 890 55
L 890 55
L 890 55
L 890 55
L 890 55
L 890 55
L 890 55
L 890 55
L 890 55
L 890 55
L 890 55
L 890 55
L 890 55
L 890 55
L 890 54
L 890 54
L 890 54
L 890 54
L 890 54
L 890 54
L 891 54
L 891 54
L 891 54
L 891 54
L 891 54
L 891 54
L 891 54
L 891 54
L 891 54
L 891 54
L 891 54
L 891 54
L 891 54
L 891 54
L 891 54
L 891 54
L 891 54
L 891 53
L 891 53
L 891 53
L 891 53
L 891 53
L 891 53
L 891 53
L 891 53
L 891 53
L 891 53
L 891 53
L 891 53
L 891 53
L 891 53
L 891 53
L 891 53
L 891 53
L 891 53
L 891 53
L 891 53
L 891 53
L 891 53
L 891 52
L 891 52
L 891 52
L 891 52
L 891 52
L 891 52
L 891 52
L 891 52
L 891 52
L 891 52
L 891 52
L 891 52
L 891 52
L 891 52
L 891 52
L 891 52
L 891 52
L 891 52
L 891 52
L 892 52
L 892 52
L 892 52
L 892 52
L 892 51
L 892 51
L 892 51
L 892 51
L 892 51
L 892 51
L 892 51
L 892 51
L 892 51
L 892 51
L 892 51
L 892 51
L 892 51
L 892 51
L 892 51
L 892 51
L 892 51
L 892 51
L 892 51
L 892 51
L 892 51
L 892 51
L 892 51
L 892 50
L 892 50
L 892 50
L 892 50
L 892 50
L 892 50
L 892 50
L 892 50
L 892 50
L 892 50
L 892 50
L 892 50
L 892 50
L 892 50
L 892 50
L 892 50
L 893 50
L 893 50
L 893 50
L 893 50
L 893 50
L 893 50
L 893 49
L 893 49
L 893 49
L 893 49
L 893 49
L 893 49
L 893 49
L 893 49
L 893 49
L 893 49
L 893 49
L 893 49
L 893 49
L 893 49
L 894 49
L 894 49
L 894 49
L 894 49
L 894 49
L 894 49
L 894 49
L 894 49
L 894 49
L 894 48
L 894 48
L 894 48
L 894 48
L 894 48
L 894 48
L 894 48
L 894 48
L 894 48
L 894 48
L 894 48
L 894 48
L 894 48
L 894 48
L 894 48
L 894 48
L 894 48
L 894 48
L 894 48
L 894 48
L 894 48
L 895 48
L 895 48
L 895 47
L 895 47
L 895 47
L 895 47
L 895 47
L 895 47
L 895 47
L 895 47
L 895 47
L 895 47
L 895 47
L 895 47
L 895 47
L 895 47
L 895 47
L 895 47
L 895 47
L 895 47
L 895 47
L 895 47
L 895 47
L 895 47
L 895 46
L 895 46
L 895 46
L 896 46
L 896 46
L 896 46
L 896 46
L 896 46
L 896 46
L 896 46
L 896 46
L 896 46
L 896 46
L 896 46
L 896 46
L 896 46
L 896 46
L 896 46
L 896 46
L 896 46
L 897 46
L 897 46
L 897 46
L 897 45
L 897 45
L 897 45
L 897 45
L 897 45
L 897 45
L 897 45
L 897 45
L 898 45
L 898 45
L 898 45
L 898 45
L 898 45
L 898 45
L 898 45
L 898 45
L 898 45
L 898 45
L 898 45
L 898 45
L 898 45
L 899 45
L 899 45
L 899 44
L 899 44
L 899 44
L 899 44
L 899 44
L 899 44
L 899 44
L 899 44
L 899 44
L 899 44
L 899 44
L 899 44
L 899 44
L 899 44
L 899 44
L 899 44
L 899 44
L 900 44
L 900 44
L 900 44
L 900 44
L 900 44
L 900 43
L 900 43
L 900 43
L 900 43
L 900 43
L 900 43
L 900 43
L 900 43
L 900 43
L 900 43
L 900 43
L 900 43
L 900 43
L 900 43
L 900 43
L 900 43
L 900 43
L 901 43
L 901 43
L 901 43
L 901 43
L 901 43
L 901 43
L 901 42
L 901 42
L 901 42
L 901 42
L 901 42
L 901 42
L 901 42
L 901 42
L 901 42
L 901 42
L 901 42
L 901 42
L 901 42
L 901 42
L 901 42
L 901 42
L 901 42
L 901 42
L 901 42
L 901 42
L 901 42
L 901 42
L 901 41
L 901 41
L 901 41
L 901 41
L 901 41
L 901 41
L 901 41
L 902 41
L 902 41
L 902 41
L 902 41
L 902 41
L 902 41
L 902 41
L 902 41
L 902 41
L 902 41
L 902 41
L 902 41
L 902 41
L 902 41
L 902 41
L 902 41
L 902 40
L 902 40
L 903 40
L 903 40
L 903 40
L 903 40
L 903 40
L 903 40
L 903 40
L 903 40
L 903 40
L 903 40
L 903 40
L 903 40
L 903 40
L 903 40
L 903 40
L 903 40
L 903 40
L 903 40
L 903 40
L 903 40
L 903 40
L 903 39
L 903 39
L 903 39
L 903 39
L 903 39
L 903 39
L 903 39
L 904 39
L 904 39
L 904 39
L 904 39
L 904 39
L 904 39
L 904 39
L 904 39
L 904 39
L 904 39
L 904 39
L 904 39
L 904 39
L 904 39
L 904 39
L 904 38
L 904 38
L 904 38
L 905 38
L 905 38
L 905 38
L 905 38
L 905 38
L 905 38
L 905 38
L 905 38
L 905 38
L 905 38
L 905 38
L 905 38
L 905 38
L 905 38
L 906 38
L 906 38
L 906 38
L 906 38
L 906 38
L 907 38
L 907 37
L 907 37
L 907 37
L 907 37
L 907 37
L 907 37
L 907 37
L 907 37
L 907 37
L 907 37
L 907 37
L 907 37
L 907 37
L 907 37
L 907 37
L 907 37
L 907 37
L 907 37
L 907 37
L 907 37
L 907 37
L 907 37
L 907 37
L 907 36
L 907 36
L 907 36
L 907 36
L 907 36
L 907 36
L 907 36
L 907 36
L 907 36
L 908 36
L 908 36
L 908 36
L 908 36
L 908 36
L 908 36
L 908 36
L 908 36
L 908 36
L 908 36
L 908 36
L 908 36
L 908 36
L 908 35
L 908 35
L 908 35
L 908 35
L 908 35
L 908 35
L 908 35
L 908 35
L 908 35
L 908 35
L 908 35
L 908 35
L 908 35
L 908 35
L 908 35
L 908 35
L 909 35
L 909 35
L 909 35
L 909 35
L 909 35
L 909 35
L 909 35
L 909 34
L 909 34
L 909 34
L 909 34
L 910 34
L 910 34
L 910 34
L 910 34
L 910 34
L 910 34
L 910 34
L 910 34
L 910 34
L 910 34
L 910 34
L 910 34
L 911 34
L 911 34
L 911 34
L 911 34
L 911 34
L 911 34
L 911 34
L 911 33
L 911 33
L 911 33
L 911 33
L 911 33
L 911 33
L 911 33
L 911 33
L 911 33
L 911 33
L 911 33
L 911 33
L 912 33
L 912 33
L 912 33
L 912 33
L 912 33
L 912 33
L 912 33
L 912 33
L 912 33
L 912 33
L 912 32
L 912 32
L 912 32
L 912 32
L 912 32
L 913 32
L 913 32
L 913 32
L 913 32
L 913 32
L 913 32
L 913 32
L 913 32
L 913 32
L 913 32
L 914 32
L 914 32
L 914 32
L 914 32
L 914 32
L 914 32
L 914 32
L 915 32
L 915 31
L 915 31
L 915 31
L 915 31
L 915 31
L 916 31
L 916 31
L 916 31
L 916 31
L 916 31
L 916 31
L 916 31
L 916 31
L 916 31
L 916 31
L 916 31
L 916 31
L 916 31
L 916 31
L 917 31
L 918 31
L 918 31
L 918 31
L 918 30
L 918 30
L 918 30
L 918 30
L 918 30
L 918 30
L 919 30
L 919 30
L 919 30
L 919 30
L 919 30
L 919 30
L 919 30
L 919 30
L 919 30
L 919 30
L 919 30
L 920 30
L 920 30
L 920 30
L 920 30
L 920 30
L 920 29
L 921 29
L 921 29
L 921 29
L 921 29
L 921 29
L 921 29
L 921 29
L 922 29
L 922 29
L 922 29
L 922 29
L 922 29
L 922 29
L 922 29
L 922 29
L 922 29
L 922 29
L 922 29
L 922 29
L 923 29
L 923 29
L 923 29
L 923 28
L 923 28
L 923 28
L 923 28
L 923 28
L 923 28
L 923 28
L 923 28
L 923 28
L 923 28
L 923 28
L 923 28
L 923 28
L 923 28
L 923 28
L 923 28
L 923 28
L 923 28
L 923 28
L 924 28
L 924 28
L 924 28
L 924 28
L 924 27
L 924 27
L 924 27
L 924 27
L 924 27
L 924 27
L 924 27
L 924 27
L 924 27
L 924 27
L 924 27
L 924 27
L 924 27
L 924 27
L 924 27
L 924 27
L 924 27
L 924 27
L 924 27
L 924 27
L 924 27
L 924 27
L 924 26
L 924 26
L 924 26
L 924 26
L 925 26
L 925 26
L 925 26
L 925 26
L 925 26
L 925 26
L 925 26
L 925 26
L 925 26
L 925 26
L 925 26
L 925 26
L 925 26
L 926 26
L 926 26
L 926 26
L 926 26
L 927 26
L 927 26
L 927 25
L 927 25
L 927 25
L 927 25
L 927 25
L 927 25
L 927 25
L 927 25
L 928 25
L 928 25
L 928 25
L 928 25
L 928 25
L 928 25
L 928 25
L 928 25
L 928 25
L 928 25
L 928 25
L 928 25
L 929 25
L 929 25
L 929 24
L 929 24
L 929 24
L 929 24
L 929 24
L 930 24
L 930 24
L 930 24
L 930 24
L 930 24
L 930 24
L 930 24
L 930 24
L 930 24
L 930 24
L 930 24
L 931 24
L 931 24
L 931 24
L 931 24
L 931 24
L 931 24
L 931 24
L 931 23
L 932 23
L 932 23
L 932 23
L 932 23
L 932 23
L 933 23
L 933 23
L 933 23
L 933 23
L 933 23
L 933 23
L 933 23
L 933 23
L 933 23
L 933 23
L 934 23
L 934 23
L 934 23
L 934 23
L 934 23
L 934 23
L 934 23
L 934 22
L 934 22
L 934 22
L 934 22
L 934 22
L 934 22
L 934 22
L 934 22
L 934 22
L 934 22
L 934 22
L 934 22
L 934 22
L 934 22
L 934 22
L 935 22
L 935 22
L 935 22
L 935 22
L 935 22
L 935 22
L 935 22
L 935 21
L 935 21
L 935 21
L 935 21
L 935 21
L 935 21
L 935 21
L 935 21
L 935 21
L 935 21
L 935 21
L 935 21
L 935 21
L 936 21
L 936 21
L 936 21
L 936 21
L 936 21
L 936 21
L 936 21
L 936 21
L 936 21
L 936 21
L 936 20
L 936 20
L 936 20
L 936 20
L 937 20
L 937 20
L 937 20
L 937 20
L 937 20
L 937 20
L 937 20
L 937 20
L 937 20
L 938 20
L 938 20
L 938 20
L 938 20
L 938 20
L 938 20
L 938 20
L 938 20
L 938 20
L 938 20
L 938 19
L 938 19
L 939 19
L 939 19
L 939 19
L 939 19
L 939 19
L 939 19
L 939 19
L 939 19
L 939 19
L 939 19
L 939 19
L 939 19
L 939 19
L 939 19
L 939 19
L 939 19
L 939 19
L 939 19
L 940 19
L 940 19
L 940 18
L 940 18
L 940 18
L 940 18
L 940 18
L 940 18
L 940 18
L 940 18
L 941 18
L 941 18
L 941 18
L 941 18
L 941 18
L 941 18
L 941 18
L 941 18
L 941 18
L 942 18
L 942 18
L 942 18
L 942 18
L 942 18
L 942 18
L 942 17
L 942 17
L 942 17
L 942 17
L 942 17
L 942 17
L 942 17
L 943 17
L 943 17
L 943 17
L 943 17
L 943 17
L 943 17
L 943 17
L 943 17
L 944 17
L 944 17
L 944 17
L 944 17
L 944 17
L 944 17
L 944 17
L 944 17
L 945 16
L 945 16
L 945 16
L 945 16
L 945 16
L 945 16
L 945 16
L 945 16
L 946 16
L 946 16
L 946 16
L 946 16
L 946 16
L 946 16
L 947 16
L 947 16
L 947 16
L 947 16
L 947 16
L 947 16
L 947 16
L 947 16
L 947 15
L 947 15
L 948 15
L 948 15
L 948 15
L 948 15
L 949 15
L 949 15
L 949 15
L 949 15
L 949 15
L 949 15
L 949 15
L 950 15
L 950 15
L 950 15
L 950 15
L 950 15
L 950 15
L 950 15
L 950 15
L 950 15
L 950 15
L 951 14
L 951 14
L 951 14
L 951 14
L 951 14
L 951 14
L 951 14
L 951 14
L 951 14
L 951 14
L 951 14
L 951 14
L 951 14
L 951 14
L 951 14
L 952 14
L 952 14
L 952 14
L 952 14
L 952 14
L 952 14
L 952 14
L 952 14
L 952 13
L 952 13
L 952 13
L 952 13
L 952 13
L 952 13
L 953 13
L 953 13
L 953 13
L 953 13
L 953 13
L 953 13
L 953 13
L 953 13
L 953 13
L 953 13
L 953 13
L 953 13
L 954 13
L 954 13
L 954 13
L 954 13
L 954 12
L 954 12
L 954 12
L 954 12
L 954 12
L 954 12
L 955 12
L 955 12
L 955 12
L 955 12
L 955 12
L 955 12
L 955 12
L 955 12
L 955 12
L 955 12
L 955 12
L 955 12
L 955 12
L 956 12
L 956 12
L 956 12
L 956 12
L 956 11
L 956 11
L 956 11
L 956 11
L 957 11
L 957 11
L 957 11
L 957 11
L 957 11
L 957 11
L 957 11
L 957 11" style="stroke-width:2;stroke:rgba(129,199,239,1.0);fill:none"/></svg>