<!-- stars: 9537 -->
<svg xmlns="http://www.w3.org/2000/svg" xmlns:xlink="http://www.w3.org/1999/xlink" width="1024" height="400">\n<path  d="M 0 0
L 1024 0
L 1024 400
L 0 400
L 0 0" style="stroke-width:0;stroke:rgba(255,255,255,1.0);fill:rgba(255,255,255,1.0)"/><path  d="M 38 11
L 957 11
L 957 351
L 38 351
L 38 11" style="stroke-width:0;stroke:rgba(255,255,255,1.0);fill:rgba(255,255,255,1.0)"/><path  d="M 38 351
L 957 351" style="stroke-width:2;stroke:rgba(85,85,85,1.0);fill:none"/><path  d="M 38 351
L 38 356" style="stroke-width:2;stroke:rgba(85,85,85,1.0);fill:none"/><text x="5" y="373" style="stroke-width:0;stroke:none;fill:rgba(51,51,51,1.0);font-size:12.8px;font-family:'Roboto Medium',sans-serif">2018-09-25</text><path  d="M 153 351
L 153 356" style="stroke-width:2;stroke:rgba(85,85,85,1.0);fill:none"/><text x="120" y="373" style="stroke-width:0;stroke:none;fill:rgba(51,51,51,1.0);font-size:12.8px;font-family:'Roboto Medium',sans-serif">2019-02-21</text><path  d="M 268 351
L 268 356" style="stroke-width:2;stroke:rgba(85,85,85,1.0);fill:none"/><text x="235" y="373" style="stroke-width:0;stroke:none;fill:rgba(51,51,51,1.0);font-size:12.8px;font-family:'Roboto Medium',sans-serif">2019-07-20</text><path  d="M 383 351
L 383 356" style="stroke-width:2;stroke:rgba(85,85,85,1.0);fill:none"/><text x="350" y="373" style="stroke-width:0;stroke:none;fill:rgba(51,51,51,1.0);font-size:12.8px;font-family:'Roboto Medium',sans-serif">2019-12-16</text><path  d="M 498 351
L 498 356" style="stroke-width:2;stroke:rgba(85,85,85,1.0);fill:none"/><text x="465" y="373" style="stroke-width:0;stroke:none;fill:rgba(51,51,51,1.0);font-size:12.8px;font-family:'Roboto Medium',sans-serif">2020-05-14</text><path  d="M 613 351
L 613 356" style="stroke-width:2;stroke:rgba(85,85,85,1.0);fill:none"/><text x="580" y="373" style="stroke-width:0;stroke:none;fill:rgba(51,51,51,1.0);font-size:12.8px;font-family:'Roboto Medium',sans-serif">2020-10-10</text><path  d="M 728 351
L 728 356" style="stroke-width:2;stroke:rgba(85,85,85,1.0);fill:none"/><text x="695" y="373" style="stroke-width:0;stroke:none;fill:rgba(51,51,51,1.0);font-size:12.8px;font-family:'Roboto Medium',sans-serif">2021-03-08</text><path  d="M 843 351
L 843 356" style="stroke-width:2;stroke:rgba(85,85,85,1.0);fill:none"/><text x="810" y="373" style="stroke-width:0;stroke:none;fill:rgba(51,51,51,1.0);font-size:12.8px;font-family:'Roboto Medium',sans-serif">2021-08-04</text><path  d="M 957 351
L 957 356" style="stroke-width:2;stroke:rgba(85,85,85,1.0);fill:none"/><text x="924" y="373" style="stroke-width:0;stroke:none;fill:rgba(51,51,51,1.0);font-size:12.8px;font-family:'Roboto Medium',sans-serif">2022-01-01</text><text x="483" y="395" style="stroke-width:0;stroke:none;fill:rgba(51,51,51,1.0);font-size:12.8px;font-family:'Roboto Medium',sans-serif">Time</text><path  d="M 959 351
L 959 11" style="stroke-width:2;stroke:rgba(85,85,85,1.0);fill:none"/><path  d="M 959 351
L 964 351" style="stroke-width:2;stroke:rgba(85,85,85,1.0);fill:none"/><text x="969" y="357" style="stroke-width:0;stroke:none;fill:rgba(51,51,51,1.0);font-size:12.8px;font-family:'Roboto Medium',sans-serif">0</text><path  d="M 959 308
L 964 308" style="stroke-width:2;stroke:rgba(85,85,85,1.0);fill:none"/><text x="969" y="314" style="stroke-width:0;stroke:none;fill:rgba(51,51,51,1.0);font-size:12.8px;font-family:'Roboto Medium',sans-serif">1200</text><path  d="M 959 266
L 964 266" style="stroke-width:2;stroke:rgba(85,85,85,1.0);fill:none"/><text x="969" y="272" style="stroke-width:0;stroke:none;fill:rgba(51,51,51,1.0);font-size:12.8px;font-family:'Roboto Medium',sans-serif">2400</text><path  d="M 959 223
L 964 223" style="stroke-width:2;stroke:rgba(85,85,85,1.0);fill:none"/><text x="969" y="229" style="stroke-width:0;stroke:none;fill:rgba(51,51,51,1.0);font-size:12.8px;font-family:'Roboto Medium',sans-serif">3600</text><path  d="M 959 181
L 964 181" style="stroke-width:2;stroke:rgba(85,85,85,1.0);fill:none"/><text x="969" y="187" style="stroke-width:0;stroke:none;fill:rgba(51,51,51,1.0);font-size:12.8px;font-family:'Roboto Medium',sans-serif">4800</text><path  d="M 959 138
L 964 138" style="stroke-width:2;stroke:rgba(85,85,85,1.0);fill:none"/><text x="969" y="144" style="stroke-width:0;stroke:none;fill:rgba(51,51,51,1.0);font-size:12.8px;font-family:'Roboto Medium',sans-serif">6000</text><path  d="M 959 96
L 964 96" style="stroke-width:2;stroke:rgba(85,85,85,1.0);fill:none"/><text x="969" y="102" style="stroke-width:0;stroke:none;fill:rgba(51,51,51,1.0);font-size:12.8px;font-family:'Roboto Medium',sans-serif">7200</text><path  d="M 959 53
L 964 53" style="stroke-width:2;stroke:rgba(85,85,85,1.0);fill:none"/><text x="969" y="59" style="stroke-width:0;stroke:none;fill:rgba(51,51,51,1.0);font-size:12.8px;font-family:'Roboto Medium',sans-serif">8400</text><path  d="M 959 11
L 964 11" style="stroke-width:2;stroke:rgba(85,85,85,1.0);fill:none"/><text x="969" y="17" style="stroke-width:0;stroke:none;fill:rgba(51,51,51,1.0);font-size:12.8px;font-family:'Roboto Medium',sans-serif">9600</text><text x="1009" y="150" style="stroke-width:0;stroke:none;fill:rgba(51,51,51,1.0);font-size:12.8px;font-family:'Roboto Medium',sans-serif" transform="rotate(90.00,1009,150)">Stargazers</text><path  d="M 38 351
L 40 350
L 50 350
L 50 350
L 51 350
L 51 350
L 51 350
L 53 350
L 54 350
L 55 350
L 56 350
L 57 350
L 57 350
L 58 350
L 58 350
L 58 350
L 60 350
L 66 350
L 66 350
L 69 350
L 69 350
L 69 350
L 71 350
L 72 350
L 73 350
L 73 350
L 78 350
L 82 350
L 87 350
L 87 349
L 92 349
L 93 349
L 93 349
L 93 349
L 93 349
L 93 349
L 93 349
L 93 349
L 94 349
L 94 349
L 94 349
L 96 349
L 97 349
L 97 349
L 98 349
L 98 349
L 98 349
L 99 349
L 99 349
L 100 349
L 102 349
L 102 349
L 103 349
L 104 349
L 106 349
L 107 349
L 107 349
L 108 348
L 108 348
L 109 348
L 109 348
L 109 348
L 110 348
L 110 348
L 110 348
L 111 348
L 111 348
L 111 348
L 111 348
L 111 348
L 111 348
L 112 348
L 112 348
L 113 348
L 113 348
L 114 348
L 115 348
L 115 348
L 116 348
L 116 348
L 119 348
L 119 348
L 119 348
L 119 348
L 119 348
L 119 347
L 120 347
L 120 347
L 121 347
L 121 347
L 122 347
L 122 347
L 123 347
L 125 347
L 125 347
L 125 347
L 125 347
L 125 347
L 127 347
L 129 347
L 131 347
L 132 347
L 132 347
L 132 347
L 132 347
L 140 347
L 143 347
L 146 347
L 147 347
L 148 347
L 148 347
L 149 347
L 149 347
L 150 346
L 151 346
L 152 346
L 152 346
L 152 346
L 152 346
L 153 346
L 153 346
L 153 346
L 154 346
L 156 346
L 156 346
L 159 346
L 159 346
L 162 346
L 162 346
L 163 346
L 163 346
L 164 346
L 164 346
L 165 346
L 165 346
L 166 346
L 167 346
L 167 346
L 169 346
L 170 346
L 170 346
L 172 346
L 172 345
L 173 345
L 174 345
L 174 345
L 174 345
L 175 345
L 176 345
L 179 345
L 179 345
L 180 345
L 180 345
L 180 345
L 181 345
L 181 345
L 181 345
L 182 345
L 182 345
L 182 345
L 183 345
L 183 345
L 183 345
L 184 345
L 184 345
L 184 345
L 184 345
L 184 345
L 184 345
L 184 345
L 185 344
L 185 344
L 185 344
L 185 344
L 185 344
L 186 344
L 186 344
L 186 344
L 187 344
L 188 344
L 189 344
L 189 344
L 190 344
L 190 344
L 190 344
L 190 344
L 190 344
L 191 344
L 191 344
L 191 344
L 191 344
L 192 344
L 193 344
L 195 344
L 195 344
L 195 344
L 197 344
L 197 344
L 200 343
L 200 343
L 200 343
L 201 343
L 201 343
L 201 343
L 201 343
L 202 343
L 202 343
L 203 343
L 204 343
L 204 343
L 205 343
L 205 343
L 205 343
L 206 343
L 206 343
L 206 343
L 207 343
L 207 343
L 208 343
L 209 343
L 210 343
L 210 343
L 211 343
L 212 343
L 213 343
L 213 343
L 213 342
L 213 342
L 214 342
L 215 342
L 217 342
L 218 342
L 221 342
L 222 342
L 223 342
L 225 342
L 226 342
L 226 342
L 226 342
L 228 342
L 232 342
L 232 342
L 233 342
L 233 342
L 233 342
L 234 342
L 234 342
L 234 342
L 235 342
L 235 342
L 240 342
L 243 342
L 244 342
L 244 342
L 244 342
L 244 341
L 244 341
L 244 341
L 244 341
L 244 341
L 244 341
L 246 341
L 246 341
L 248 341
L 249 341
L 249 341
L 250 341
L 251 341
L 251 341
L 252 341
L 253 341
L 253 341
L 254 341
L 254 341
L 254 341
L 254 341
L 254 341
L 255 341
L 255 341
L 255 341
L 256 341
L 256 341
L 256 341
L 257 340
L 257 340
L 257 340
L 257 340
L 258 340
L 258 340
L 258 340
L 259 340
L 260 340
L 261 340
L 262 340
L 262 340
L 263 340
L 264 340
L 264 340
L 265 340
L 265 340
L 267 340
L 268 340
L 270 340
L 270 340
L 273 340
L 273 340
L 274 340
L 276 340
L 276 340
L 276 340
L 277 340
L 281 339
L 285 339
L 285 339
L 286 339
L 288 339
L 290 339
L 291 339
L 293 339
L 296 339
L 296 339
L 296 339
L 297 339
L 299 339
L 304 339
L 304 339
L 304 339
L 305 339
L 305 339
L 316 339
L 316 339
L 317 339
L 317 339
L 317 339
L 317 339
L 317 339
L 317 339
L 317 339
L 317 339
L 317 338
L 318 338
L 318 338
L 318 338
L 320 338
L 323 338
L 323 338
L 323 338
L 329 338
L 330 338
L 331 338
L 332 338
L 332 338
L 333 338
L 334 338
L 335 338
L 335 338
L 335 338
L 336 338
L 337 338
L 337 338
L 337 338
L 340 338
L 340 338
L 340 338
L 341 338
L 345 338
L 356 338
L 357 338
L 360 337
L 363 337
L 363 337
L 365 337
L 367 337
L 367 337
L 367 337
L 368 337
L 368 337
L 369 337
L 369 337
L 373 337
L 373 337
L 375 337
L 376 337
L 380 337
L 380 337
L 380 337
L 386 337
L 388 337
L 388 337
L 390 337
L 390 337
L 390 337
L 390 337
L 390 337
L 391 337
L 391 337
L 391 336
L 391 336
L 392 336
L 393 336
L 394 336
L 398 336
L 399 336
L 400 336
L 404 336
L 404 336
L 404 336
L 405 336
L 405 336
L 406 336
L 407 336
L 410 336
L 410 336
L 414 336
L 414 336
L 415 336
L 416 336
L 418 336
L 419 336
L 421 336
L 424 336
L 427 336
L 429 336
L 429 336
L 430 335
L 433 335
L 439 335
L 441 335
L 443 335
L 444 335
L 445 335
L 445 335
L 446 335
L 447 335
L 447 335
L 447 335
L 449 335
L 449 335
L 449 335
L 450 335
L 450 335
L 450 335
L 451 335
L 451 335
L 452 335
L 452 335
L 454 335
L 454 335
L 454 335
L 454 335
L 454 335
L 455 335
L 455 334
L 455 334
L 455 334
L 455 334
L 455 334
L 456 334
L 456 334
L 457 334
L 458 334
L 459 334
L 459 334
L 460 334
L 461 334
L 461 334
L 461 334
L 461 334
L 462 334
L 462 334
L 462 334
L 463 334
L 463 334
L 463 334
L 464 334
L 464 334
L 464 334
L 464 334
L 466 334
L 467 334
L 468 334
L 469 333
L 469 333
L 469 333
L 469 333
L 470 333
L 470 333
L 470 333
L 471 333
L 471 333
L 471 333
L 471 333
L 471 333
L 471 333
L 471 333
L 471 333
L 471 333
L 471 333
L 472 333
L 472 333
L 472 333
L 472 333
L 472 333
L 472 333
L 473 333
L 474 333
L 474 333
L 474 333
L 474 333
L 474 332
L 475 332
L 475 332
L 476 332
L 477 332
L 477 332
L 478 332
L 478 332
L 478 332
L 480 332
L 480 332
L 480 332
L 480 332
L 480 332
L 480 332
L 480 332
L 480 332
L 480 332
L 480 332
L 480 332
L 480 332
L 480 332
L 480 332
L 480 332
L 480 332
L 480 332
L 480 332
L 480 332
L 480 331
L 480 331
L 480 331
L 480 331
L 480 331
L 480 331
L 481 331
L 481 331
L 481 331
L 481 331
L 481 331
L 481 331
L 481 331
L 482 331
L 482 331
L 482 331
L 482 331
L 482 331
L 483 331
L 483 331
L 483 331
L 483 331
L 484 331
L 484 331
L 485 331
L 485 331
L 485 331
L 486 331
L 486 330
L 486 330
L 486 330
L 486 330
L 486 330
L 487 330
L 487 330
L 487 330
L 487 330
L 488 330
L 489 330
L 490 330
L 490 330
L 490 330
L 492 330
L 492 330
L 493 330
L 493 330
L 493 330
L 493 330
L 493 330
L 493 330
L 493 330
L 493 330
L 494 330
L 494 330
L 495 330
L 495 330
L 496 329
L 496 329
L 496 329
L 497 329
L 497 329
L 498 329
L 498 329
L 498 329
L 498 329
L 499 329
L 499 329
L 499 329
L 500 329
L 500 329
L 500 329
L 500 329
L 500 329
L 500 329
L 501 329
L 502 329
L 502 329
L 504 329
L 504 329
L 504 329
L 504 329
L 504 329
L 505 329
L 506 329
L 506 329
L 506 328
L 506 328
L 507 328
L 507 328
L 507 328
L 507 328
L 508 328
L 509 328
L 509 328
L 509 328
L 509 328
L 509 328
L 509 328
L 510 328
L 510 328
L 510 328
L 510 328
L 510 328
L 510 328
L 511 328
L 511 328
L 511 328
L 511 328
L 513 328
L 513 328
L 513 328
L 513 328
L 514 328
L 514 327
L 514 327
L 514 327
L 515 327
L 516 327
L 516 327
L 516 327
L 516 327
L 516 327
L 516 327
L 516 327
L 516 327
L 516 327
L 516 327
L 516 327
L 516 327
L 516 327
L 517 327
L 517 327
L 517 327
L 517 327
L 517 327
L 517 327
L 517 327
L 518 327
L 518 327
L 518 327
L 518 327
L 518 326
L 519 326
L 520 326
L 520 326
L 521 326
L 521 326
L 521 326
L 521 326
L 521 326
L 522 326
L 522 326
L 522 326
L 523 326
L 523 326
L 523 326
L 523 326
L 523 326
L 523 326
L 523 326
L 523 326
L 523 326
L 523 326
L 523 326
L 523 326
L 524 326
L 524 326
L 524 326
L 524 326
L 524 325
L 524 325
L 524 325
L 525 325
L 525 325
L 525 325
L 525 325
L 525 325
L 526 325
L 526 325
L 526 325
L 526 325
L 527 325
L 527 325
L 527 325
L 527 325
L 527 325
L 527 325
L 527 325
L 527 325
L 528 325
L 528 325
L 528 325
L 529 325
L 529 325
L 530 325
L 530 325
L 530 325
L 532 325
L 532 324
L 532 324
L 532 324
L 532 324
L 532 324
L 533 324
L 533 324
L 533 324
L 534 324
L 534 324
L 534 324
L 534 324
L 534 324
L 535 324
L 535 324
L 535 324
L 535 324
L 536 324
L 536 324
L 536 324
L 536 324
L 536 324
L 537 324
L 537 324
L 537 324
L 537 324
L 538 324
L 538 324
L 539 323
L 539 323
L 539 323
L 539 323
L 539 323
L 540 323
L 541 323
L 541 323
L 541 323
L 541 323
L 542 323
L 542 323
L 542 323
L 543 323
L 543 323
L 544 323
L 545 323
L 545 323
L 545 323
L 546 323
L 546 323
L 547 323
L 547 323
L 547 323
L 547 323
L 547 323
L 547 323
L 548 323
L 548 322
L 548 322
L 548 322
L 549 322
L 549 322
L 549 322
L 549 322
L 550 322
L 550 322
L 550 322
L 550 322
L 550 322
L 550 322
L 550 322
L 551 322
L 551 322
L 551 322
L 551 322
L 552 322
L 552 322
L 553 322
L 553 322
L 553 322
L 553 322
L 554 322
L 554 322
L 554 322
L 554 322
L 555 321
L 555 321
L 555 321
L 555 321
L 555 321
L 556 321
L 556 321
L 556 321
L 556 321
L 556 321
L 557 321
L 557 321
L 557 321
L 557 321
L 557 321
L 557 321
L 557 321
L 557 321
L 557 321
L 557 321
L 557 321
L 558 321
L 558 321
L 558 321
L 558 321
L 558 321
L 559 321
L 559 321
L 559 321
L 560 320
L 560 320
L 560 320
L 561 320
L 561 320
L 561 320
L 561 320
L 562 320
L 562 320
L 562 320
L 563 320
L 563 320
L 563 320
L 563 320
L 563 320
L 563 320
L 563 320
L 564 320
L 564 320
L 565 320
L 565 320
L 566 320
L 566 320
L 566 320
L 566 320
L 566 320
L 567 320
L 567 320
L 567 319
L 567 319
L 567 319
L 567 319
L 567 319
L 568 319
L 568 319
L 568 319
L 568 319
L 569 319
L 569 319
L 569 319
L 569 319
L 569 319
L 571 319
L 571 319
L 571 319
L 571 319
L 572 319
L 572 319
L 572 319
L 572 319
L 572 319
L 572 319
L 573 319
L 573 319
L 573 319
L 573 319
L 573 318
L 574 318
L 574 318
L 574 318
L 574 318
L 574 318
L 575 318
L 576 318
L 577 318
L 577 318
L 578 318
L 578 318
L 579 318
L 579 318
L 580 318
L 581 318
L 582 318
L 582 318
L 582 318
L 582 318
L 583 318
L 584 318
L 584 318
L 584 318
L 584 318
L 585 318
L 585 318
L 585 318
L 586 317
L 586 317
L 586 317
L 587 317
L 587 317
L 587 317
L 587 317
L 588 317
L 588 317
L 588 317
L 588 317
L 589 317
L 590 317
L 590 317
L 590 317
L 590 317
L 590 317
L 590 317
L 590 317
L 590 317
L 590 317
L 590 317
L 591 317
L 591 317
L 591 317
L 591 317
L 592 317
L 592 317
L 592 317
L 592 316
L 592 316
L 593 316
L 593 316
L 593 316
L 593 316
L 595 316
L 595 316
L 595 316
L 597 316
L 597 316
L 597 316
L 598 316
L 599 316
L 599 316
L 599 316
L 600 316
L 600 316
L 600 316
L 600 316
L 601 316
L 603 316
L 603 316
L 603 316
L 603 316
L 603 316
L 603 316
L 603 316
L 604 315
L 604 315
L 604 315
L 604 315
L 604 315
L 605 315
L 605 315
L 605 315
L 605 315
L 605 315
L 607 315
L 608 315
L 609 315
L 610 315
L 611 315
L 611 315
L 612 315
L 612 315
L 612 315
L 613 315
L 613 315
L 614 315
L 614 315
L 614 315
L 614 315
L 614 315
L 614 315
L 615 315
L 615 314
L 615 314
L 615 314
L 615 314
L 615 314
L 615 314
L 615 314
L 615 314
L 616 314
L 616 314
L 616 314
L 617 314
L 617 314
L 617 314
L 617 314
L 617 314
L 617 314
L 617 314
L 617 314
L 618 314
L 618 314
L 618 314
L 618 314
L 618 314
L 620 314
L 620 314
L 620 314
L 620 314
L 620 313
L 621 313
L 621 313
L 621 313
L 622 313
L 622 313
L 622 313
L 622 313
L 622 313
L 623 313
L 623 313
L 623 313
L 623 313
L 623 313
L 623 313
L 625 313
L 625 313
L 625 313
L 626 313
L 626 313
L 626 313
L 626 313
L 626 313
L 626 313
L 626 313
L 626 313
L 626 313
L 626 313
L 626 312
L 626 312
L 627 312
L 627 312
L 627 312
L 627 312
L 627 312
L 627 312
L 627 312
L 627 312
L 627 312
L 627 312
L 627 312
L 627 312
L 627 312
L 627 312
L 628 312
L 628 312
L 628 312
L 628 312
L 628 312
L 628 312
L 628 312
L 628 312
L 628 312
L 628 312
L 628 312
L 629 312
L 629 312
L 629 311
L 629 311
L 630 311
L 630 311
L 630 311
L 630 311
L 630 311
L 631 311
L 631 311
L 631 311
L 631 311
L 631 311
L 631 311
L 631 311
L 631 311
L 632 311
L 632 311
L 632 311
L 632 311
L 632 311
L 632 311
L 632 311
L 632 311
L 632 311
L 632 311
L 633 311
L 633 311
L 633 311
L 633 310
L 634 310
L 634 310
L 634 310
L 634 310
L 635 310
L 635 310
L 636 310
L 636 310
L 636 310
L 636 310
L 636 310
L 636 310
L 636 310
L 636 310
L 637 310
L 637 310
L 637 310
L 638 310
L 638 310
L 638 310
L 638 310
L 638 310
L 638 310
L 638 310
L 639 310
L 639 310
L 639 310
L 639 309
L 639 309
L 640 309
L 640 309
L 640 309
L 640 309
L 641 309
L 641 309
L 641 309
L 641 309
L 641 309
L 641 309
L 642 309
L 642 309
L 642 309
L 643 309
L 643 309
L 643 309
L 643 309
L 643 309
L 644 309
L 644 309
L 644 309
L 644 309
L 644 309
L 644 309
L 644 309
L 644 309
L 645 308
L 645 308
L 645 308
L 646 308
L 646 308
L 646 308
L 646 308
L 646 308
L 647 308
L 647 308
L 647 308
L 647 308
L 647 308
L 648 308
L 648 308
L 649 308
L 649 308
L 649 308
L 649 308
L 650 308
L 650 308
L 650 308
L 650 308
L 650 308
L 650 308
L 650 308
L 651 308
L 651 308
L 652 308
L 652 307
L 652 307
L 652 307
L 652 307
L 652 307
L 653 307
L 653 307
L 653 307
L 653 307
L 653 307
L 654 307
L 654 307
L 654 307
L 654 307
L 654 307
L 654 307
L 654 307
L 654 307
L 654 307
L 654 307
L 655 307
L 655 307
L 656 307
L 657 307
L 657 307
L 658 307
L 658 307
L 658 307
L 658 306
L 658 306
L 658 306
L 658 306
L 658 306
L 659 306
L 659 306
L 659 306
L 659 306
L 659 306
L 660 306
L 660 306
L 660 306
L 660 306
L 660 306
L 660 306
L 661 306
L 661 306
L 661 306
L 662 306
L 662 306
L 662 306
L 662 306
L 663 306
L 663 306
L 663 306
L 663 306
L 663 306
L 663 305
L 664 305
L 664 305
L 664 305
L 664 305
L 664 305
L 665 305
L 665 305
L 665 305
L 666 305
L 666 305
L 666 305
L 668 305
L 668 305
L 668 305
L 668 305
L 668 305
L 668 305
L 668 305
L 668 305
L 669 305
L 669 305
L 669 305
L 669 305
L 669 305
L 669 305
L 669 305
L 669 305
L 669 304
L 669 304
L 670 304
L 670 304
L 670 304
L 670 304
L 670 304
L 670 304
L 670 304
L 670 304
L 670 304
L 671 304
L 671 304
L 671 304
L 671 304
L 671 304
L 671 304
L 671 304
L 671 304
L 672 304
L 672 304
L 672 304
L 673 304
L 673 304
L 673 304
L 673 304
L 674 304
L 674 304
L 674 304
L 674 303
L 674 303
L 674 303
L 674 303
L 674 303
L 674 303
L 674 303
L 674 303
L 675 303
L 675 303
L 675 303
L 675 303
L 675 303
L 676 303
L 676 303
L 676 303
L 677 303
L 677 303
L 678 303
L 678 303
L 679 303
L 679 303
L 679 303
L 679 303
L 679 303
L 679 303
L 679 303
L 680 303
L 680 302
L 680 302
L 680 302
L 680 302
L 681 302
L 681 302
L 681 302
L 681 302
L 681 302
L 681 302
L 681 302
L 681 302
L 681 302
L 681 302
L 681 302
L 681 302
L 681 302
L 682 302
L 682 302
L 682 302
L 682 302
L 683 302
L 683 302
L 683 302
L 684 302
L 684 302
L 685 302
L 685 302
L 685 301
L 685 301
L 685 301
L 685 301
L 685 301
L 685 301
L 685 301
L 685 301
L 685 301
L 685 301
L 686 301
L 686 301
L 686 301
L 686 301
L 687 301
L 687 301
L 687 301
L 688 301
L 688 301
L 688 301
L 688 301
L 688 301
L 688 301
L 688 301
L 689 301
L 690 301
L 690 301
L 690 301
L 690 300
L 690 300
L 691 300
L 691 300
L 691 300
L 691 300
L 691 300
L 691 300
L 692 300
L 692 300
L 692 300
L 692 300
L 692 300
L 693 300
L 693 300
L 693 300
L 693 300
L 693 300
L 693 300
L 694 300
L 694 300
L 694 300
L 694 300
L 694 300
L 694 300
L 694 300
L 694 300
L 695 300
L 695 300
L 695 299
L 695 299
L 695 299
L 695 299
L 695 299
L 695 299
L 696 299
L 696 299
L 696 299
L 696 299
L 696 299
L 696 299
L 696 299
L 697 299
L 697 299
L 697 299
L 697 299
L 697 299
L 697 299
L 698 299
L 699 299
L 699 299
L 699 299
L 699 299
L 700 299
L 700 299
L 700 299
L 700 299
L 700 298
L 700 298
L 700 298
L 700 298
L 701 298
L 701 298
L 701 298
L 701 298
L 702 298
L 702 298
L 702 298
L 702 298
L 703 298
L 703 298
L 703 298
L 703 298
L 703 298
L 703 298
L 703 298
L 704 298
L 704 298
L 704 298
L 704 298
L 704 298
L 704 298
L 704 298
L 705 298
L 705 298
L 705 297
L 705 297
L 705 297
L 705 297
L 705 297
L 705 297
L 705 297
L 706 297
L 706 297
L 707 297
L 707 297
L 707 297
L 707 297
L 708 297
L 708 297
L 710 297
L 710 297
L 710 297
L 710 297
L 710 297
L 710 297
L 711 297
L 711 297
L 712 297
L 712 297
L 712 297
L 712 297
L 713 297
L 713 296
L 714 296
L 714 296
L 714 296
L 714 296
L 714 296
L 714 296
L 714 296
L 714 296
L 714 296
L 714 296
L 714 296
L 714 296
L 715 296
L 715 296
L 715 296
L 715 296
L 715 296
L 715 296
L 715 296
L 715 296
L 715 296
L 716 296
L 716 296
L 716 296
L 716 296
L 717 296
L 717 296
L 717 295
L 717 295
L 717 295
L 717 295
L 717 295
L 717 295
L 718 295
L 718 295
L 718 295
L 718 295
L 718 295
L 718 295
L 718 295
L 718 295
L 718 295
L 718 295
L 718 295
L 718 295
L 719 295
L 719 295
L 719 295
L 719 295
L 719 295
L 719 295
L 719 295
L 719 295
L 720 295
L 720 295
L 720 295
L 720 294
L 720 294
L 720 294
L 720 294
L 721 294
L 721 294
L 721 294
L 721 294
L 722 294
L 722 294
L 722 294
L 722 294
L 722 294
L 722 294
L 722 294
L 722 294
L 723 294
L 723 294
L 723 294
L 723 294
L 723 294
L 723 294
L 723 294
L 723 294
L 723 294
L 723 294
L 723 294
L 723 294
L 724 293
L 724 293
L 724 293
L 724 293
L 724 293
L 724 293
L 724 293
L 724 293
L 724 293
L 724 293
L 724 293
L 725 293
L 725 293
L 725 293
L 725 293
L 725 293
L 725 293
L 725 293
L 726 293
L 726 293
L 726 293
L 726 293
L 726 293
L 727 293
L 727 293
L 727 293
L 727 293
L 727 293
L 728 292
L 728 292
L 728 292
L 728 292
L 728 292
L 728 292
L 728 292
L 728 292
L 728 292
L 728 292
L 728 292
L 728 292
L 729 292
L 729 292
L 729 292
L 729 292
L 730 292
L 730 292
L 730 292
L 730 292
L 730 292
L 730 292
L 730 292
L 730 292
L 730 292
L 730 292
L 730 292
L 730 292
L 730 291
L 730 291
L 731 291
L 731 291
L 731 291
L 731 291
L 731 291
L 731 291
L 731 291
L 732 291
L 732 291
L 732 291
L 732 291
L 732 291
L 732 291
L 732 291
L 732 291
L 732 291
L 732 291
L 732 291
L 732 291
L 732 291
L 732 291
L 732 291
L 732 291
L 732 291
L 732 291
L 732 291
L 732 291
L 732 290
L 732 290
L 732 290
L 732 290
L 732 290
L 732 290
L 732 290
L 732 290
L 732 290
L 732 290
L 732 290
L 732 290
L 732 290
L 732 290
L 732 290
L 732 290
L 732 290
L 732 290
L 732 290
L 732 290
L 732 290
L 732 290
L 732 290
L 732 290
L 732 290
L 732 290
L 732 290
L 732 290
L 732 289
L 732 289
L 732 289
L 732 289
L 732 289
L 732 289
L 732 289
L 732 289
L 732 289
L 732 289
L 732 289
L 732 289
L 732 289
L 732 289
L 732 289
L 732 289
L 732 289
L 732 289
L 732 289
L 732 289
L 732 289
L 732 289
L 732 289
L 732 289
L 732 289
L 732 289
L 733 289
L 733 289
L 733 288
L 733 288
L 733 288
L 733 288
L 733 288
L 733 288
L 733 288
L 733 288
L 733 288
L 733 288
L 733 288
L 733 288
L 733 288
L 733 288
L 733 288
L 733 288
L 733 288
L 733 288
L 733 288
L 733 288
L 733 288
L 733 288
L 733 288
L 733 288
L 733 288
L 733 288
L 733 288
L 733 288
L 733 287
L 733 287
L 733 287
L 733 287
L 733 287
L 733 287
L 733 287
L 733 287
L 733 287
L 733 287
L 733 287
L 734 287
L 734 287
L 734 287
L 734 287
L 734 287
L 734 287
L 734 287
L 734 287
L 734 287
L 734 287
L 734 287
L 734 287
L 734 287
L 734 287
L 734 287
L 734 287
L 734 287
L 734 287
L 734 286
L 734 286
L 734 286
L 734 286
L 734 286
L 734 286
L 734 286
L 734 286
L 734 286
L 734 286
L 734 286
L 734 286
L 734 286
L 734 286
L 734 286
L 734 286
L 734 286
L 734 286
L 734 286
L 734 286
L 734 286
L 734 286
L 734 286
L 734 286
L 734 286
L 734 286
L 734 286
L 734 286
L 734 285
L 734 285
L 734 285
L 734 285
L 734 285
L 734 285
L 734 285
L 734 285
L 734 285
L 734 285
L 734 285
L 734 285
L 734 285
L 734 285
L 734 285
L 734 285
L 734 285
L 734 285
L 734 285
L 734 285
L 734 285
L 734 285
L 734 285
L 734 285
L 734 285
L 734 285
L 734 285
L 734 285
L 734 284
L 734 284
L 734 284
L 734 284
L 734 284
L 734 284
L 734 284
L 734 284
L 734 284
L 734 284
L 734 284
L 734 284
L 734 284
L 734 284
L 734 284
L 734 284
L 734 284
L 734 284
L 734 284
L 734 284
L 735 284
L 735 284
L 735 284
L 735 284
L 735 284
L 735 284
L 735 284
L 735 284
L 735 283
L 735 283
L 735 283
L 735 283
L 735 283
L 735 283
L 735 283
L 735 283
L 735 283
L 735 283
L 735 283
L 735 283
L 735 283
L 735 283
L 735 283
L 735 283
L 735 283
L 735 283
L 735 283
L 735 283
L 735 283
L 735 283
L 735 283
L 735 283
L 735 283
L 735 283
L 735 283
L 735 283
L 735 283
L 735 282
L 735 282
L 735 282
L 735 282
L 735 282
L 735 282
L 735 282
L 735 282
L 735 282
L 735 282
L 735 282
L 735 282
L 735 282
L 735 282
L 735 282
L 735 282
L 735 282
L 735 282
L 735 282
L 735 282
L 735 282
L 735 282
L 735 282
L 735 282
L 735 282
L 735 282
L 735 282
L 735 282
L 735 281
L 735 281
L 736 281
L 736 281
L 736 281
L 736 281
L 736 281
L 736 281
L 736 281
L 736 281
L 736 281
L 736 281
L 736 281
L 736 281
L 736 281
L 736 281
L 736 281
L 736 281
L 736 281
L 736 281
L 736 281
L 736 281
L 736 281
L 736 281
L 736 281
L 736 281
L 736 281
L 736 281
L 736 280
L 736 280
L 736 280
L 736 280
L 736 280
L 736 280
L 736 280
L 736 280
L 736 280
L 736 280
L 736 280
L 736 280
L 736 280
L 736 280
L 736 280
L 736 280
L 736 280
L 736 280
L 736 280
L 736 280
L 736 280
L 736 280
L 736 280
L 737 280
L 737 280
L 737 280
L 737 280
L 737 280
L 737 279
L 737 279
L 737 279
L 737 279
L 737 279
L 737 279
L 737 279
L 737 279
L 738 279
L 738 279
L 738 279
L 738 279
L 738 279
L 738 279
L 738 279
L 738 279
L 738 279
L 738 279
L 739 279
L 739 279
L 739 279
L 739 279
L 739 279
L 739 279
L 739 279
L 739 279
L 739 279
L 739 279
L 739 278
L 739 278
L 740 278
L 740 278
L 740 278
L 740 278
L 740 278
L 740 278
L 740 278
L 740 278
L 740 278
L 740 278
L 740 278
L 740 278
L 740 278
L 740 278
L 740 278
L 740 278
L 740 278
L 741 278
L 741 278
L 741 278
L 741 278
L 741 278
L 741 278
L 741 278
L 741 278
L 741 278
L 741 278
L 742 277
L 742 277
L 742 277
L 742 277
L 742 277
L 742 277
L 742 277
L 742 277
L 742 277
L 743 277
L 743 277
L 743 277
L 743 277
L 743 277
L 743 277
L 743 277
L 743 277
L 743 277
L 743 277
L 744 277
L 744 277
L 744 277
L 744 277
L 744 277
L 744 277
L 744 277
L 744 277
L 744 277
L 744 276
L 744 276
L 744 276
L 744 276
L 744 276
L 744 276
L 744 276
L 744 276
L 744 276
L 744 276
L 744 276
L 744 276
L 744 276
L 744 276
L 744 276
L 744 276
L 744 276
L 744 276
L 744 276
L 744 276
L 744 276
L 744 276
L 744 276
L 744 276
L 744 276
L 744 276
L 744 276
L 744 276
L 744 275
L 744 275
L 744 275
L 745 275
L 745 275
L 745 275
L 745 275
L 745 275
L 745 275
L 745 275
L 745 275
L 745 275
L 745 275
L 745 275
L 745 275
L 745 275
L 745 275
L 745 275
L 745 275
L 745 275
L 745 275
L 745 275
L 745 275
L 745 275
L 745 275
L 745 275
L 745 275
L 745 275
L 745 274
L 745 274
L 745 274
L 745 274
L 745 274
L 745 274
L 745 274
L 745 274
L 745 274
L 745 274
L 745 274
L 745 274
L 745 274
L 745 274
L 745 274
L 746 274
L 746 274
L 746 274
L 746 274
L 746 274
L 746 274
L 746 274
L 746 274
L 746 274
L 746 274
L 746 274
L 746 274
L 746 274
L 746 274
L 746 273
L 746 273
L 746 273
L 746 273
L 746 273
L 746 273
L 746 273
L 746 273
L 746 273
L 746 273
L 746 273
L 746 273
L 746 273
L 746 273
L 746 273
L 746 273
L 746 273
L 746 273
L 746 273
L 746 273
L 746 273
L 746 273
L 746 273
L 746 273
L 746 273
L 746 273
L 746 273
L 746 273
L 746 272
L 746 272
L 746 272
L 746 272
L 746 272
L 746 272
L 746 272
L 746 272
L 746 272
L 746 272
L 746 272
L 746 272
L 746 272
L 746 272
L 746 272
L 746 272
L 746 272
L 746 272
L 746 272
L 746 272
L 746 272
L 746 272
L 746 272
L 746 272
L 746 272
L 746 272
L 746 272
L 746 272
L 746 271
L 746 271
L 746 271
L 746 271
L 746 271
L 746 271
L 746 271
L 746 271
L 746 271
L 746 271
L 746 271
L 746 271
L 746 271
L 746 271
L 746 271
L 746 271
L 746 271
L 746 271
L 746 271
L 747 271
L 747 271
L 747 271
L 747 271
L 747 271
L 747 271
L 747 271
L 747 271
L 747 271
L 747 270
L 747 270
L 747 270
L 747 270
L 747 270
L 747 270
L 747 270
L 747 270
L 747 270
L 747 270
L 747 270
L 747 270
L 747 270
L 747 270
L 747 270
L 747 270
L 747 270
L 747 270
L 747 270
L 747 270
L 747 270
L 747 270
L 747 270
L 747 270
L 747 270
L 747 270
L 747 270
L 747 270
L 747 270
L 747 269
L 747 269
L 747 269
L 747 269
L 747 269
L 748 269
L 748 269
L 748 269
L 748 269
L 748 269
L 748 269
L 748 269
L 748 269
L 748 269
L 748 269
L 748 269
L 748 269
L 748 269
L 748 269
L 748 269
L 748 269
L 748 269
L 748 269
L 748 269
L 748 269
L 748 269
L 748 269
L 748 269
L 748 268
L 748 268
L 748 268
L 748 268
L 748 268
L 748 268
L 748 268
L 749 268
L 749 268
L 749 268
L 749 268
L 749 268
L 749 268
L 749 268
L 749 268
L 749 268
L 749 268
L 749 268
L 749 268
L 749 268
L 749 268
L 749 268
L 749 268
L 749 268
L 749 268
L 749 268
L 749 268
L 749 268
L 749 267
L 749 267
L 749 267
L 749 267
L 749 267
L 749 267
L 749 267
L 750 267
L 750 267
L 750 267
L 750 267
L 750 267
L 750 267
L 750 267
L 750 267
L 750 267
L 750 267
L 750 267
L 750 267
L 750 267
L 750 267
L 750 267
L 750 267
L 750 267
L 750 267
L 750 267
L 750 267
L 750 267
L 750 266
L 750 266
L 750 266
L 750 266
L 750 266
L 750 266
L 751 266
L 751 266
L 751 266
L 751 266
L 751 266
L 751 266
L 751 266
L 751 266
L 751 266
L 751 266
L 751 266
L 751 266
L 751 266
L 751 266
L 751 266
L 751 266
L 751 266
L 751 266
L 751 266
L 751 266
L 751 266
L 752 266
L 752 266
L 752 265
L 752 265
L 752 265
L 752 265
L 752 265
L 752 265
L 752 265
L 752 265
L 752 265
L 752 265
L 753 265
L 753 265
L 753 265
L 753 265
L 753 265
L 753 265
L 753 265
L 753 265
L 753 265
L 753 265
L 754 265
L 754 265
L 754 265
L 754 265
L 754 265
L 754 265
L 754 265
L 754 265
L 755 264
L 755 264
L 755 264
L 755 264
L 755 264
L 755 264
L 755 264
L 755 264
L 755 264
L 755 264
L 755 264
L 755 264
L 755 264
L 755 264
L 755 264
L 756 264
L 756 264
L 756 264
L 756 264
L 756 264
L 756 264
L 756 264
L 756 264
L 756 264
L 756 264
L 756 264
L 756 264
L 756 264
L 756 263
L 756 263
L 756 263
L 756 263
L 756 263
L 756 263
L 757 263
L 757 263
L 757 263
L 757 263
L 757 263
L 757 263
L 757 263
L 757 263
L 757 263
L 757 263
L 757 263
L 757 263
L 758 263
L 758 263
L 758 263
L 758 263
L 758 263
L 758 263
L 758 263
L 758 263
L 758 263
L 758 263
L 758 262
L 758 262
L 758 262
L 758 262
L 758 262
L 758 262
L 758 262
L 759 262
L 759 262
L 759 262
L 759 262
L 759 262
L 759 262
L 759 262
L 759 262
L 759 262
L 759 262
L 759 262
L 759 262
L 759 262
L 759 262
L 759 262
L 760 262
L 760 262
L 760 262
L 760 262
L 760 262
L 760 262
L 760 261
L 760 261
L 760 261
L 760 261
L 760 261
L 760 261
L 760 261
L 760 261
L 760 261
L 760 261
L 760 261
L 761 261
L 761 261
L 761 261
L 761 261
L 761 261
L 761 261
L 761 261
L 761 261
L 761 261
L 761 261
L 761 261
L 761 261
L 761 261
L 761 261
L 761 261
L 761 261
L 761 261
L 761 261
L 762 260
L 762 260
L 762 260
L 762 260
L 762 260
L 762 260
L 762 260
L 762 260
L 762 260
L 762 260
L 762 260
L 763 260
L 763 260
L 763 260
L 763 260
L 763 260
L 763 260
L 764 260
L 764 260
L 764 260
L 764 260
L 764 260
L 764 260
L 764 260
L 764 260
L 764 260
L 764 260
L 764 260
L 764 259
L 764 259
L 764 259
L 764 259
L 764 259
L 764 259
L 764 259
L 764 259
L 764 259
L 764 259
L 764 259
L 764 259
L 764 259
L 764 259
L 764 259
L 764 259
L 764 259
L 764 259
L 764 259
L 764 259
L 764 259
L 764 259
L 764 259
L 764 259
L 764 259
L 764 259
L 764 259
L 764 259
L 764 258
L 764 258
L 765 258
L 765 258
L 765 258
L 765 258
L 765 258
L 765 258
L 765 258
L 765 258
L 765 258
L 765 258
L 765 258
L 765 258
L 765 258
L 765 258
L 765 258
L 765 258
L 765 258
L 765 258
L 765 258
L 765 258
L 765 258
L 765 258
L 765 258
L 765 258
L 765 258
L 765 258
L 765 257
L 765 257
L 765 257
L 765 257
L 765 257
L 765 257
L 765 257
L 765 257
L 765 257
L 765 257
L 765 257
L 765 257
L 765 257
L 765 257
L 765 257
L 765 257
L 765 257
L 765 257
L 765 257
L 765 257
L 765 257
L 765 257
L 765 257
L 765 257
L 765 257
L 765 257
L 765 257
L 765 257
L 765 257
L 765 256
L 765 256
L 765 256
L 765 256
L 765 256
L 765 256
L 765 256
L 765 256
L 765 256
L 765 256
L 765 256
L 765 256
L 765 256
L 765 256
L 765 256
L 765 256
L 765 256
L 765 256
L 765 256
L 765 256
L 765 256
L 765 256
L 765 256
L 766 256
L 766 256
L 766 256
L 766 256
L 766 256
L 766 255
L 766 255
L 766 255
L 766 255
L 766 255
L 766 255
L 766 255
L 766 255
L 766 255
L 766 255
L 766 255
L 766 255
L 766 255
L 766 255
L 766 255
L 766 255
L 766 255
L 766 255
L 766 255
L 766 255
L 766 255
L 766 255
L 766 255
L 766 255
L 766 255
L 766 255
L 766 255
L 766 255
L 766 254
L 766 254
L 766 254
L 766 254
L 766 254
L 766 254
L 766 254
L 766 254
L 766 254
L 766 254
L 766 254
L 766 254
L 766 254
L 766 254
L 766 254
L 766 254
L 766 254
L 766 254
L 766 254
L 766 254
L 766 254
L 766 254
L 766 254
L 766 254
L 767 254
L 767 254
L 767 254
L 767 254
L 767 253
L 767 253
L 767 253
L 767 253
L 767 253
L 767 253
L 767 253
L 767 253
L 767 253
L 767 253
L 767 253
L 767 253
L 767 253
L 767 253
L 767 253
L 767 253
L 767 253
L 767 253
L 767 253
L 767 253
L 767 253
L 767 253
L 767 253
L 767 253
L 767 253
L 767 253
L 767 253
L 767 253
L 767 253
L 767 252
L 767 252
L 767 252
L 767 252
L 767 252
L 767 252
L 767 252
L 767 252
L 767 252
L 767 252
L 767 252
L 767 252
L 767 252
L 767 252
L 767 252
L 767 252
L 767 252
L 767 252
L 767 252
L 767 252
L 767 252
L 767 252
L 767 252
L 767 252
L 767 252
L 767 252
L 767 252
L 767 252
L 767 251
L 767 251
L 767 251
L 767 251
L 767 251
L 767 251
L 767 251
L 767 251
L 767 251
L 767 251
L 767 251
L 767 251
L 767 251
L 767 251
L 767 251
L 767 251
L 767 251
L 767 251
L 767 251
L 767 251
L 767 251
L 767 251
L 767 251
L 767 251
L 767 251
L 767 251
L 767 251
L 767 251
L 767 250
L 767 250
L 767 250
L 767 250
L 767 250
L 767 250
L 767 250
L 767 250
L 767 250
L 767 250
L 767 250
L 767 250
L 767 250
L 767 250
L 767 250
L 767 250
L 767 250
L 767 250
L 767 250
L 767 250
L 767 250
L 767 250
L 767 250
L 767 250
L 767 250
L 767 250
L 767 250
L 767 250
L 767 249
L 767 249
L 767 249
L 767 249
L 767 249
L 767 249
L 767 249
L 767 249
L 767 249
L 767 249
L 767 249
L 767 249
L 767 249
L 767 249
L 767 249
L 767 249
L 767 249
L 767 249
L 767 249
L 767 249
L 767 249
L 767 249
L 767 249
L 767 249
L 767 249
L 767 249
L 767 249
L 767 249
L 767 249
L 767 248
L 767 248
L 767 248
L 767 248
L 767 248
L 767 248
L 767 248
L 767 248
L 767 248
L 767 248
L 767 248
L 767 248
L 767 248
L 767 248
L 767 248
L 767 248
L 767 248
L 767 248
L 767 248
L 767 248
L 767 248
L 767 248
L 767 248
L 767 248
L 767 248
L 767 248
L 767 248
L 767 248
L 767 247
L 767 247
L 767 247
L 767 247
L 767 247
L 767 247
L 767 247
L 767 247
L 767 247
L 767 247
L 767 247
L 767 247
L 767 247
L 767 247
L 767 247
L 767 247
L 767 247
L 767 247
L 767 247
L 767 247
L 767 247
L 767 247
L 767 247
L 767 247
L 767 247
L 767 247
L 767 247
L 767 247
L 767 246
L 767 246
L 767 246
L 767 246
L 767 246
L 767 246
L 767 246
L 767 246
L 767 246
L 767 246
L 767 246
L 767 246
L 767 246
L 767 246
L 767 246
L 767 246
L 767 246
L 767 246
L 767 246
L 767 246
L 767 246
L 767 246
L 767 246
L 767 246
L 767 246
L 767 246
L 767 246
L 767 246
L 767 245
L 767 245
L 767 245
L 767 245
L 767 245
L 767 245
L 767 245
L 767 245
L 767 245
L 767 245
L 767 245
L 767 245
L 767 245
L 767 245
L 768 245
L 768 245
L 768 245
L 768 245
L 768 245
L 768 245
L 768 245
L 768 245
L 768 245
L 768 245
L 768 245
L 768 245
L 768 245
L 768 245
L 768 244
L 768 244
L 768 244
L 768 244
L 768 244
L 768 244
L 768 244
L 768 244
L 768 244
L 768 244
L 768 244
L 768 244
L 768 244
L 768 244
L 768 244
L 768 244
L 768 244
L 768 244
L 768 244
L 768 244
L 768 244
L 768 244
L 768 244
L 768 244
L 768 244
L 768 244
L 768 244
L 768 244
L 768 244
L 768 243
L 768 243
L 768 243
L 768 243
L 768 243
L 768 243
L 768 243
L 768 243
L 768 243
L 768 243
L 768 243
L 768 243
L 768 243
L 768 243
L 768 243
L 768 243
L 768 243
L 768 243
L 768 243
L 768 243
L 768 243
L 768 243
L 768 243
L 768 243
L 768 243
L 768 243
L 768 243
L 768 243
L 768 242
L 768 242
L 768 242
L 768 242
L 768 242
L 768 242
L 768 242
L 768 242
L 768 242
L 768 242
L 768 242
L 768 242
L 768 242
L 768 242
L 768 242
L 768 242
L 768 242
L 768 242
L 768 242
L 768 242
L 768 242
L 768 242
L 768 242
L 768 242
L 768 242
L 768 242
L 768 242
L 768 242
L 768 241
L 768 241
L 768 241
L 768 241
L 768 241
L 768 241
L 768 241
L 768 241
L 768 241
L 768 241
L 768 241
L 768 241
L 768 241
L 768 241
L 768 241
L 768 241
L 768 241
L 768 241
L 768 241
L 768 241
L 768 241
L 768 241
L 768 241
L 768 241
L 768 241
L 768 241
L 768 241
L 768 241
L 768 240
L 768 240
L 768 240
L 768 240
L 768 240
L 768 240
L 768 240
L 768 240
L 768 240
L 768 240
L 768 240
L 768 240
L 768 240
L 768 240
L 768 240
L 768 240
L 768 240
L 768 240
L 768 240
L 768 240
L 768 240
L 768 240
L 768 240
L 768 240
L 768 240
L 768 240
L 768 240
L 768 240
L 768 240
L 768 239
L 768 239
L 768 239
L 768 239
L 768 239
L 768 239
L 768 239
L 768 239
L 768 239
L 768 239
L 768 239
L 768 239
L 768 239
L 768 239
L 768 239
L 768 239
L 768 239
L 768 239
L 768 239
L 768 239
L 768 239
L 768 239
L 768 239
L 768 239
L 768 239
L 768 239
L 768 239
L 768 239
L 768 238
L 768 238
L 768 238
L 768 238
L 768 238
L 768 238
L 768 238
L 768 238
L 768 238
L 768 238
L 768 238
L 768 238
L 768 238
L 768 238
L 768 238
L 768 238
L 768 238
L 768 238
L 768 238
L 768 238
L 768 238
L 768 238
L 768 238
L 768 238
L 768 238
L 768 238
L 768 238
L 768 238
L 768 237
L 768 237
L 768 237
L 768 237
L 768 237
L 768 237
L 768 237
L 768 237
L 768 237
L 768 237
L 768 237
L 768 237
L 768 237
L 768 237
L 768 237
L 768 237
L 768 237
L 768 237
L 768 237
L 768 237
L 768 237
L 768 237
L 768 237
L 768 237
L 768 237
L 768 237
L 768 237
L 768 237
L 768 236
L 768 236
L 768 236
L 768 236
L 768 236
L 768 236
L 768 236
L 768 236
L 768 236
L 768 236
L 768 236
L 768 236
L 768 236
L 768 236
L 768 236
L 768 236
L 768 236
L 768 236
L 768 236
L 768 236
L 768 236
L 768 236
L 768 236
L 768 236
L 768 236
L 768 236
L 768 236
L 768 236
L 768 236
L 768 235
L 768 235
L 768 235
L 768 235
L 768 235
L 768 235
L 768 235
L 768 235
L 768 235
L 768 235
L 768 235
L 768 235
L 768 235
L 768 235
L 768 235
L 768 235
L 768 235
L 768 235
L 768 235
L 768 235
L 768 235
L 768 235
L 768 235
L 768 235
L 768 235
L 768 235
L 768 235
L 768 235
L 768 234
L 768 234
L 768 234
L 768 234
L 768 234
L 768 234
L 768 234
L 768 234
L 768 234
L 768 234
L 768 234
L 768 234
L 768 234
L 768 234
L 768 234
L 768 234
L 768 234
L 768 234
L 768 234
L 768 234
L 768 234
L 768 234
L 768 234
L 768 234
L 768 234
L 768 234
L 768 234
L 768 234
L 768 233
L 768 233
L 768 233
L 768 233
L 768 233
L 768 233
L 768 233
L 768 233
L 768 233
L 768 233
L 768 233
L 768 233
L 768 233
L 768 233
L 768 233
L 768 233
L 768 233
L 768 233
L 768 233
L 768 233
L 768 233
L 768 233
L 768 233
L 768 233
L 768 233
L 768 233
L 768 233
L 768 233
L 768 232
L 768 232
L 768 232
L 768 232
L 768 232
L 768 232
L 768 232
L 768 232
L 768 232
L 768 232
L 768 232
L 768 232
L 768 232
L 768 232
L 768 232
L 768 232
L 768 232
L 768 232
L 768 232
L 768 232
L 768 232
L 768 232
L 768 232
L 768 232
L 768 232
L 768 232
L 768 232
L 768 232
L 768 232
L 768 231
L 768 231
L 768 231
L 768 231
L 768 231
L 768 231
L 768 231
L 768 231
L 768 231
L 769 231
L 769 231
L 769 231
L 769 231
L 769 231
L 769 231
L 769 231
L 769 231
L 769 231
L 769 231
L 769 231
L 769 231
L 769 231
L 769 231
L 769 231
L 769 231
L 769 231
L 769 231
L 769 231
L 769 230
L 769 230
L 769 230
L 769 230
L 769 230
L 769 230
L 769 230
L 769 230
L 769 230
L 769 230
L 769 230
L 769 230
L 769 230
L 769 230
L 769 230
L 769 230
L 769 230
L 769 230
L 769 230
L 769 230
L 769 230
L 769 230
L 769 230
L 769 230
L 769 230
L 769 230
L 769 230
L 769 230
L 769 229
L 769 229
L 769 229
L 769 229
L 769 229
L 769 229
L 769 229
L 769 229
L 769 229
L 769 229
L 769 229
L 769 229
L 769 229
L 769 229
L 769 229
L 769 229
L 769 229
L 769 229
L 769 229
L 769 229
L 769 229
L 769 229
L 769 229
L 769 229
L 769 229
L 769 229
L 769 229
L 769 229
L 769 228
L 769 228
L 769 228
L 769 228
L 769 228
L 769 228
L 769 228
L 769 228
L 769 228
L 769 228
L 769 228
L 769 228
L 769 228
L 769 228
L 769 228
L 769 228
L 769 228
L 769 228
L 769 228
L 769 228
L 769 228
L 769 228
L 769 228
L 769 228
L 769 228
L 769 228
L 769 228
L 769 228
L 769 227
L 769 227
L 769 227
L 769 227
L 769 227
L 769 227
L 769 227
L 769 227
L 769 227
L 769 227
L 769 227
L 769 227
L 769 227
L 769 227
L 769 227
L 769 227
L 769 227
L 769 227
L 769 227
L 769 227
L 769 227
L 769 227
L 769 227
L 769 227
L 769 227
L 769 227
L 769 227
L 769 227
L 769 227
L 769 226
L 769 226
L 769 226
L 769 226
L 769 226
L 769 226
L 769 226
L 769 226
L 769 226
L 769 226
L 769 226
L 769 226
L 769 226
L 769 226
L 769 226
L 769 226
L 769 226
L 769 226
L 769 226
L 769 226
L 769 226
L 769 226
L 769 226
L 769 226
L 769 226
L 769 226
L 769 226
L 769 226
L 769 225
L 769 225
L 769 225
L 769 225
L 769 225
L 769 225
L 769 225
L 769 225
L 769 225
L 769 225
L 769 225
L 769 225
L 769 225
L 769 225
L 769 225
L 769 225
L 769 225
L 769 225
L 769 225
L 769 225
L 769 225
L 769 225
L 769 225
L 769 225
L 769 225
L 769 225
L 769 225
L 769 225
L 769 224
L 769 224
L 769 224
L 769 224
L 770 224
L 770 224
L 770 224
L 770 224
L 770 224
L 770 224
L 770 224
L 770 224
L 770 224
L 770 224
L 770 224
L 770 224
L 770 224
L 770 224
L 770 224
L 770 224
L 770 224
L 770 224
L 770 224
L 770 224
L 770 224
L 770 224
L 770 224
L 770 224
L 770 223
L 770 223
L 770 223
L 770 223
L 770 223
L 770 223
L 770 223
L 770 223
L 770 223
L 770 223
L 770 223
L 770 223
L 770 223
L 770 223
L 770 223
L 770 223
L 770 223
L 770 223
L 770 223
L 770 223
L 770 223
L 770 223
L 770 223
L 770 223
L 770 223
L 770 223
L 770 223
L 770 223
L 770 223
L 770 222
L 770 222
L 770 222
L 770 222
L 770 222
L 770 222
L 770 222
L 770 222
L 770 222
L 770 222
L 770 222
L 770 222
L 770 222
L 770 222
L 770 222
L 770 222
L 770 222
L 770 222
L 770 222
L 770 222
L 770 222
L 770 222
L 770 222
L 770 222
L 770 222
L 770 222
L 770 222
L 770 222
L 770 221
L 770 221
L 770 221
L 770 221
L 770 221
L 770 221
L 771 221
L 771 221
L 771 221
L 771 221
L 771 221
L 771 221
L 771 221
L 771 221
L 771 221
L 771 221
L 771 221
L 771 221
L 771 221
L 771 221
L 772 221
L 772 221
L 772 221
L 772 221
L 772 221
L 772 221
L 772 221
L 772 221
L 772 220
L 772 220
L 772 220
L 772 220
L 772 220
L 772 220
L 772 220
L 772 220
L 772 220
L 772 220
L 772 220
L 772 220
L 772 220
L 772 220
L 772 220
L 772 220
L 772 220
L 772 220
L 773 220
L 773 220
L 773 220
L 773 220
L 773 220
L 773 220
L 773 220
L 773 220
L 773 220
L 773 220
L 773 219
L 773 219
L 773 219
L 773 219
L 773 219
L 773 219
L 773 219
L 773 219
L 773 219
L 773 219
L 773 219
L 773 219
L 773 219
L 773 219
L 773 219
L 773 219
L 774 219
L 774 219
L 774 219
L 774 219
L 774 219
L 774 219
L 774 219
L 774 219
L 774 219
L 774 219
L 774 219
L 774 219
L 774 219
L 774 218
L 774 218
L 774 218
L 774 218
L 774 218
L 774 218
L 774 218
L 774 218
L 774 218
L 774 218
L 774 218
L 774 218
L 774 218
L 774 218
L 774 218
L 774 218
L 774 218
L 774 218
L 774 218
L 774 218
L 774 218
L 774 218
L 775 218
L 775 218
L 775 218
L 775 218
L 775 218
L 775 218
L 775 217
L 775 217
L 775 217
L 775 217
L 775 217
L 775 217
L 775 217
L 775 217
L 775 217
L 775 217
L 775 217
L 776 217
L 776 217
L 776 217
L 776 217
L 776 217
L 776 217
L 776 217
L 776 217
L 776 217
L 776 217
L 776 217
L 776 217
L 776 217
L 776 217
L 776 217
L 776 217
L 776 217
L 776 216
L 776 216
L 776 216
L 776 216
L 776 216
L 776 216
L 776 216
L 776 216
L 776 216
L 776 216
L 776 216
L 776 216
L 777 216
L 777 216
L 777 216
L 777 216
L 777 216
L 777 216
L 777 216
L 777 216
L 777 216
L 777 216
L 777 216
L 777 216
L 777 216
L 777 216
L 777 216
L 777 216
L 777 215
L 777 215
L 777 215
L 777 215
L 777 215
L 777 215
L 777 215
L 777 215
L 777 215
L 777 215
L 777 215
L 778 215
L 778 215
L 778 215
L 778 215
L 778 215
L 778 215
L 778 215
L 778 215
L 778 215
L 778 215
L 778 215
L 778 215
L 778 215
L 778 215
L 778 215
L 778 215
L 778 215
L 778 215
L 778 214
L 778 214
L 779 214
L 779 214
L 779 214
L 779 214
L 779 214
L 779 214
L 779 214
L 779 214
L 779 214
L 779 214
L 779 214
L 779 214
L 779 214
L 779 214
L 779 214
L 779 214
L 779 214
L 779 214
L 780 214
L 780 214
L 780 214
L 780 214
L 780 214
L 780 214
L 780 214
L 780 214
L 780 213
L 781 213
L 781 213
L 781 213
L 781 213
L 781 213
L 781 213
L 781 213
L 781 213
L 781 213
L 781 213
L 781 213
L 781 213
L 781 213
L 781 213
L 781 213
L 781 213
L 781 213
L 782 213
L 782 213
L 782 213
L 782 213
L 782 213
L 782 213
L 782 213
L 782 213
L 782 213
L 782 213
L 782 212
L 782 212
L 782 212
L 782 212
L 782 212
L 782 212
L 782 212
L 782 212
L 782 212
L 782 212
L 782 212
L 782 212
L 782 212
L 782 212
L 782 212
L 783 212
L 783 212
L 783 212
L 783 212
L 783 212
L 783 212
L 783 212
L 783 212
L 783 212
L 783 212
L 783 212
L 783 212
L 783 212
L 783 211
L 783 211
L 783 211
L 783 211
L 783 211
L 783 211
L 783 211
L 784 211
L 784 211
L 784 211
L 784 211
L 784 211
L 784 211
L 784 211
L 784 211
L 784 211
L 784 211
L 784 211
L 784 211
L 784 211
L 784 211
L 784 211
L 784 211
L 785 211
L 785 211
L 785 211
L 785 211
L 785 211
L 785 210
L 785 210
L 785 210
L 786 210
L 786 210
L 786 210
L 786 210
L 786 210
L 786 210
L 786 210
L 786 210
L 787 210
L 787 210
L 787 210
L 787 210
L 787 210
L 787 210
L 787 210
L 787 210
L 787 210
L 787 210
L 787 210
L 787 210
L 787 210
L 787 210
L 787 210
L 787 210
L 787 210
L 787 210
L 787 209
L 787 209
L 787 209
L 787 209
L 787 209
L 787 209
L 787 209
L 787 209
L 787 209
L 787 209
L 787 209
L 787 209
L 787 209
L 787 209
L 787 209
L 787 209
L 787 209
L 787 209
L 787 209
L 787 209
L 787 209
L 787 209
L 787 209
L 787 209
L 787 209
L 787 209
L 787 209
L 787 209
L 788 208
L 788 208
L 788 208
L 788 208
L 788 208
L 788 208
L 788 208
L 788 208
L 788 208
L 788 208
L 788 208
L 788 208
L 788 208
L 788 208
L 788 208
L 788 208
L 788 208
L 788 208
L 788 208
L 788 208
L 788 208
L 788 208
L 788 208
L 788 208
L 788 208
L 788 208
L 788 208
L 788 208
L 788 207
L 788 207
L 788 207
L 788 207
L 788 207
L 788 207
L 788 207
L 788 207
L 788 207
L 788 207
L 788 207
L 788 207
L 788 207
L 788 207
L 788 207
L 788 207
L 788 207
L 788 207
L 788 207
L 788 207
L 788 207
L 788 207
L 788 207
L 788 207
L 788 207
L 788 207
L 788 207
L 788 207
L 788 206
L 788 206
L 788 206
L 788 206
L 788 206
L 788 206
L 788 206
L 788 206
L 788 206
L 788 206
L 788 206
L 788 206
L 788 206
L 788 206
L 788 206
L 788 206
L 788 206
L 788 206
L 788 206
L 788 206
L 788 206
L 788 206
L 788 206
L 788 206
L 788 206
L 788 206
L 788 206
L 788 206
L 788 206
L 788 205
L 788 205
L 788 205
L 788 205
L 788 205
L 788 205
L 788 205
L 788 205
L 788 205
L 788 205
L 788 205
L 788 205
L 788 205
L 788 205
L 788 205
L 788 205
L 788 205
L 788 205
L 788 205
L 788 205
L 788 205
L 788 205
L 788 205
L 788 205
L 788 205
L 788 205
L 788 205
L 788 205
L 788 204
L 788 204
L 788 204
L 788 204
L 788 204
L 788 204
L 788 204
L 788 204
L 788 204
L 788 204
L 788 204
L 788 204
L 788 204
L 788 204
L 788 204
L 788 204
L 788 204
L 788 204
L 788 204
L 788 204
L 788 204
L 788 204
L 788 204
L 788 204
L 788 204
L 788 204
L 788 204
L 788 204
L 788 203
L 788 203
L 788 203
L 788 203
L 788 203
L 788 203
L 788 203
L 788 203
L 788 203
L 788 203
L 788 203
L 788 203
L 788 203
L 788 203
L 788 203
L 788 203
L 788 203
L 788 203
L 788 203
L 788 203
L 788 203
L 788 203
L 788 203
L 788 203
L 788 203
L 788 203
L 788 203
L 788 203
L 788 202
L 788 202
L 788 202
L 788 202
L 788 202
L 788 202
L 788 202
L 788 202
L 788 202
L 788 202
L 788 202
L 788 202
L 788 202
L 788 202
L 788 202
L 788 202
L 788 202
L 788 202
L 788 202
L 788 202
L 788 202
L 788 202
L 788 202
L 788 202
L 788 202
L 788 202
L 788 202
L 788 202
L 788 202
L 788 201
L 788 201
L 788 201
L 788 201
L 788 201
L 788 201
L 788 201
L 788 201
L 788 201
L 788 201
L 788 201
L 788 201
L 788 201
L 788 201
L 788 201
L 788 201
L 788 201
L 788 201
L 788 201
L 788 201
L 788 201
L 788 201
L 788 201
L 788 201
L 788 201
L 788 201
L 788 201
L 788 201
L 788 200
L 788 200
L 788 200
L 788 200
L 788 200
L 788 200
L 788 200
L 788 200
L 788 200
L 788 200
L 788 200
L 788 200
L 788 200
L 788 200
L 788 200
L 788 200
L 788 200
L 788 200
L 788 200
L 788 200
L 788 200
L 788 200
L 788 200
L 788 200
L 788 200
L 788 200
L 788 200
L 789 200
L 789 199
L 789 199
L 789 199
L 789 199
L 789 199
L 789 199
L 789 199
L 789 199
L 789 199
L 789 199
L 789 199
L 789 199
L 789 199
L 789 199
L 789 199
L 789 199
L 789 199
L 789 199
L 789 199
L 789 199
L 789 199
L 789 199
L 789 199
L 789 199
L 789 199
L 789 199
L 789 199
L 789 199
L 789 198
L 789 198
L 789 198
L 789 198
L 789 198
L 789 198
L 789 198
L 789 198
L 789 198
L 789 198
L 789 198
L 789 198
L 789 198
L 789 198
L 789 198
L 789 198
L 789 198
L 789 198
L 789 198
L 789 198
L 789 198
L 789 198
L 789 198
L 789 198
L 789 198
L 789 198
L 789 198
L 789 198
L 789 198
L 789 197
L 789 197
L 789 197
L 789 197
L 789 197
L 789 197
L 789 197
L 789 197
L 789 197
L 789 197
L 789 197
L 789 197
L 789 197
L 789 197
L 789 197
L 789 197
L 789 197
L 789 197
L 789 197
L 789 197
L 789 197
L 789 197
L 789 197
L 789 197
L 789 197
L 789 197
L 789 197
L 789 197
L 789 196
L 789 196
L 789 196
L 789 196
L 789 196
L 789 196
L 789 196
L 789 196
L 789 196
L 789 196
L 789 196
L 789 196
L 789 196
L 789 196
L 789 196
L 789 196
L 789 196
L 789 196
L 789 196
L 789 196
L 789 196
L 789 196
L 789 196
L 789 196
L 789 196
L 789 196
L 789 196
L 789 196
L 789 195
L 789 195
L 789 195
L 789 195
L 789 195
L 789 195
L 789 195
L 789 195
L 789 195
L 789 195
L 789 195
L 789 195
L 789 195
L 789 195
L 789 195
L 789 195
L 789 195
L 789 195
L 789 195
L 789 195
L 789 195
L 789 195
L 789 195
L 789 195
L 789 195
L 789 195
L 789 195
L 789 195
L 789 194
L 789 194
L 789 194
L 789 194
L 789 194
L 789 194
L 789 194
L 789 194
L 789 194
L 789 194
L 789 194
L 789 194
L 789 194
L 789 194
L 789 194
L 789 194
L 789 194
L 789 194
L 789 194
L 789 194
L 789 194
L 789 194
L 789 194
L 789 194
L 789 194
L 789 194
L 789 194
L 789 194
L 789 193
L 789 193
L 789 193
L 789 193
L 789 193
L 789 193
L 789 193
L 789 193
L 789 193
L 789 193
L 789 193
L 789 193
L 789 193
L 789 193
L 789 193
L 789 193
L 789 193
L 789 193
L 789 193
L 789 193
L 789 193
L 789 193
L 789 193
L 789 193
L 789 193
L 789 193
L 789 193
L 789 193
L 789 193
L 789 192
L 789 192
L 789 192
L 789 192
L 789 192
L 789 192
L 789 192
L 789 192
L 789 192
L 789 192
L 789 192
L 789 192
L 789 192
L 789 192
L 789 192
L 789 192
L 789 192
L 789 192
L 789 192
L 789 192
L 789 192
L 789 192
L 789 192
L 789 192
L 789 192
L 789 192
L 789 192
L 789 192
L 789 191
L 789 191
L 789 191
L 789 191
L 789 191
L 789 191
L 789 191
L 789 191
L 789 191
L 789 191
L 789 191
L 789 191
L 789 191
L 789 191
L 789 191
L 789 191
L 789 191
L 789 191
L 789 191
L 789 191
L 789 191
L 789 191
L 789 191
L 789 191
L 789 191
L 789 191
L 789 191
L 789 191
L 789 190
L 789 190
L 789 190
L 789 190
L 789 190
L 789 190
L 789 190
L 789 190
L 789 190
L 789 190
L 789 190
L 789 190
L 789 190
L 789 190
L 789 190
L 789 190
L 789 190
L 789 190
L 789 190
L 789 190
L 789 190
L 789 190
L 789 190
L 789 190
L 789 190
L 789 190
L 789 190
L 789 190
L 789 189
L 789 189
L 789 189
L 789 189
L 789 189
L 789 189
L 789 189
L 789 189
L 789 189
L 789 189
L 789 189
L 789 189
L 789 189
L 789 189
L 789 189
L 789 189
L 789 189
L 789 189
L 789 189
L 789 189
L 789 189
L 789 189
L 789 189
L 789 189
L 789 189
L 789 189
L 789 189
L 789 189
L 789 189
L 789 188
L 789 188
L 789 188
L 789 188
L 789 188
L 789 188
L 789 188
L 789 188
L 789 188
L 789 188
L 789 188
L 789 188
L 789 188
L 789 188
L 789 188
L 789 188
L 789 188
L 789 188
L 789 188
L 789 188
L 789 188
L 789 188
L 789 188
L 789 188
L 789 188
L 789 188
L 789 188
L 789 188
L 789 187
L 789 187
L 789 187
L 789 187
L 789 187
L 789 187
L 789 187
L 789 187
L 789 187
L 789 187
L 789 187
L 789 187
L 789 187
L 789 187
L 789 187
L 789 187
L 789 187
L 789 187
L 789 187
L 789 187
L 789 187
L 789 187
L 789 187
L 789 187
L 789 187
L 790 187
L 790 187
L 790 187
L 790 186
L 790 186
L 790 186
L 790 186
L 790 186
L 790 186
L 790 186
L 790 186
L 790 186
L 790 186
L 790 186
L 790 186
L 790 186
L 790 186
L 790 186
L 790 186
L 790 186
L 790 186
L 790 186
L 790 186
L 790 186
L 790 186
L 790 186
L 790 186
L 790 186
L 790 186
L 790 186
L 790 186
L 790 185
L 790 185
L 790 185
L 790 185
L 790 185
L 790 185
L 790 185
L 790 185
L 790 185
L 790 185
L 790 185
L 790 185
L 790 185
L 790 185
L 790 185
L 790 185
L 790 185
L 790 185
L 790 185
L 790 185
L 790 185
L 790 185
L 790 185
L 790 185
L 790 185
L 790 185
L 790 185
L 790 185
L 790 185
L 790 184
L 790 184
L 790 184
L 790 184
L 790 184
L 790 184
L 790 184
L 790 184
L 790 184
L 790 184
L 790 184
L 790 184
L 790 184
L 790 184
L 790 184
L 790 184
L 790 184
L 790 184
L 790 184
L 790 184
L 790 184
L 790 184
L 790 184
L 790 184
L 790 184
L 790 184
L 790 184
L 790 184
L 790 183
L 790 183
L 790 183
L 790 183
L 790 183
L 790 183
L 790 183
L 790 183
L 790 183
L 790 183
L 790 183
L 790 183
L 790 183
L 790 183
L 790 183
L 790 183
L 790 183
L 790 183
L 790 183
L 790 183
L 790 183
L 790 183
L 790 183
L 790 183
L 790 183
L 790 183
L 790 183
L 790 183
L 790 182
L 790 182
L 790 182
L 790 182
L 790 182
L 790 182
L 790 182
L 790 182
L 790 182
L 790 182
L 790 182
L 790 182
L 790 182
L 790 182
L 790 182
L 790 182
L 790 182
L 790 182
L 790 182
L 790 182
L 790 182
L 790 182
L 790 182
L 790 182
L 790 182
L 790 182
L 790 182
L 790 182
L 790 181
L 790 181
L 790 181
L 790 181
L 790 181
L 790 181
L 790 181
L 790 181
L 790 181
L 790 181
L 790 181
L 790 181
L 790 181
L 790 181
L 790 181
L 790 181
L 790 181
L 790 181
L 790 181
L 790 181
L 790 181
L 790 181
L 790 181
L 790 181
L 790 181
L 790 181
L 790 181
L 790 181
L 790 181
L 790 180
L 790 180
L 790 180
L 790 180
L 790 180
L 790 180
L 790 180
L 790 180
L 790 180
L 790 180
L 790 180
L 790 180
L 790 180
L 790 180
L 790 180
L 790 180
L 790 180
L 790 180
L 790 180
L 790 180
L 790 180
L 790 180
L 790 180
L 790 180
L 790 180
L 790 180
L 790 180
L 790 180
L 790 179
L 790 179
L 790 179
L 790 179
L 790 179
L 790 179
L 790 179
L 790 179
L 790 179
L 790 179
L 790 179
L 790 179
L 790 179
L 790 179
L 790 179
L 790 179
L 790 179
L 790 179
L 790 179
L 790 179
L 790 179
L 790 179
L 790 179
L 790 179
L 790 179
L 790 179
L 790 179
L 790 179
L 790 178
L 790 178
L 790 178
L 790 178
L 790 178
L 790 178
L 790 178
L 790 178
L 790 178
L 790 178
L 790 178
L 790 178
L 790 178
L 790 178
L 790 178
L 790 178
L 790 178
L 790 178
L 790 178
L 790 178
L 790 178
L 790 178
L 790 178
L 790 178
L 790 178
L 790 178
L 790 178
L 790 178
L 790 177
L 790 177
L 790 177
L 790 177
L 790 177
L 790 177
L 790 177
L 790 177
L 790 177
L 790 177
L 790 177
L 790 177
L 790 177
L 790 177
L 790 177
L 790 177
L 790 177
L 790 177
L 790 177
L 790 177
L 790 177
L 790 177
L 790 177
L 790 177
L 790 177
L 790 177
L 790 177
L 790 177
L 790 176
L 790 176
L 790 176
L 790 176
L 790 176
L 790 176
L 790 176
L 790 176
L 790 176
L 790 176
L 790 176
L 790 176
L 790 176
L 790 176
L 791 176
L 791 176
L 791 176
L 791 176
L 791 176
L 791 176
L 791 176
L 791 176
L 791 176
L 791 176
L 791 176
L 791 176
L 791 176
L 791 176
L 791 176
L 791 175
L 791 175
L 791 175
L 791 175
L 791 175
L 791 175
L 791 175
L 791 175
L 791 175
L 791 175
L 791 175
L 791 175
L 791 175
L 791 175
L 791 175
L 791 175
L 791 175
L 791 175
L 791 175
L 791 175
L 791 175
L 791 175
L 791 175
L 791 175
L 791 175
L 791 175
L 791 175
L 791 175
L 791 174
L 791 174
L 791 174
L 791 174
L 791 174
L 791 174
L 791 174
L 791 174
L 791 174
L 791 174
L 791 174
L 791 174
L 791 174
L 791 174
L 791 174
L 791 174
L 791 174
L 791 174
L 791 174
L 791 174
L 791 174
L 791 174
L 791 174
L 791 174
L 791 174
L 791 174
L 791 174
L 791 174
L 791 173
L 791 173
L 791 173
L 791 173
L 791 173
L 791 173
L 791 173
L 791 173
L 791 173
L 791 173
L 791 173
L 791 173
L 791 173
L 791 173
L 791 173
L 791 173
L 791 173
L 791 173
L 791 173
L 791 173
L 791 173
L 791 173
L 791 173
L 791 173
L 791 173
L 791 173
L 791 173
L 791 173
L 791 172
L 791 172
L 791 172
L 791 172
L 791 172
L 791 172
L 791 172
L 791 172
L 791 172
L 791 172
L 791 172
L 791 172
L 791 172
L 791 172
L 791 172
L 791 172
L 791 172
L 791 172
L 791 172
L 791 172
L 791 172
L 791 172
L 791 172
L 791 172
L 791 172
L 791 172
L 791 172
L 791 172
L 791 172
L 791 171
L 791 171
L 791 171
L 791 171
L 791 171
L 791 171
L 791 171
L 791 171
L 791 171
L 791 171
L 791 171
L 791 171
L 791 171
L 791 171
L 791 171
L 791 171
L 791 171
L 791 171
L 791 171
L 791 171
L 791 171
L 791 171
L 791 171
L 791 171
L 791 171
L 791 171
L 791 171
L 791 171
L 791 170
L 791 170
L 791 170
L 791 170
L 791 170
L 791 170
L 791 170
L 791 170
L 791 170
L 791 170
L 791 170
L 791 170
L 791 170
L 791 170
L 791 170
L 791 170
L 791 170
L 791 170
L 791 170
L 791 170
L 791 170
L 791 170
L 791 170
L 791 170
L 791 170
L 791 170
L 791 170
L 791 170
L 791 169
L 791 169
L 791 169
L 791 169
L 791 169
L 791 169
L 791 169
L 791 169
L 791 169
L 791 169
L 791 169
L 791 169
L 791 169
L 791 169
L 791 169
L 791 169
L 791 169
L 791 169
L 791 169
L 791 169
L 791 169
L 791 169
L 791 169
L 791 169
L 791 169
L 791 169
L 791 169
L 791 169
L 791 168
L 791 168
L 791 168
L 791 168
L 792 168
L 792 168
L 792 168
L 792 168
L 792 168
L 792 168
L 792 168
L 792 168
L 792 168
L 792 168
L 792 168
L 792 168
L 792 168
L 792 168
L 792 168
L 792 168
L 792 168
L 792 168
L 792 168
L 792 168
L 792 168
L 792 168
L 792 168
L 792 168
L 792 168
L 792 167
L 792 167
L 792 167
L 792 167
L 792 167
L 792 167
L 792 167
L 792 167
L 792 167
L 792 167
L 792 167
L 792 167
L 792 167
L 792 167
L 792 167
L 792 167
L 792 167
L 792 167
L 792 167
L 792 167
L 792 167
L 792 167
L 792 167
L 792 167
L 792 167
L 792 167
L 793 167
L 793 167
L 793 166
L 793 166
L 793 166
L 793 166
L 793 166
L 793 166
L 793 166
L 793 166
L 793 166
L 793 166
L 793 166
L 793 166
L 793 166
L 793 166
L 793 166
L 793 166
L 793 166
L 793 166
L 793 166
L 793 166
L 793 166
L 793 166
L 793 166
L 793 166
L 793 166
L 793 166
L 793 166
L 793 166
L 793 165
L 793 165
L 793 165
L 793 165
L 793 165
L 793 165
L 793 165
L 793 165
L 793 165
L 793 165
L 793 165
L 793 165
L 793 165
L 793 165
L 793 165
L 793 165
L 793 165
L 793 165
L 793 165
L 793 165
L 793 165
L 793 165
L 793 165
L 793 165
L 793 165
L 793 165
L 793 165
L 793 165
L 793 164
L 793 164
L 793 164
L 793 164
L 793 164
L 793 164
L 793 164
L 793 164
L 793 164
L 793 164
L 793 164
L 793 164
L 793 164
L 793 164
L 793 164
L 793 164
L 793 164
L 793 164
L 793 164
L 793 164
L 793 164
L 793 164
L 793 164
L 793 164
L 793 164
L 794 164
L 794 164
L 794 164
L 794 163
L 794 163
L 794 163
L 794 163
L 794 163
L 794 163
L 794 163
L 794 163
L 794 163
L 794 163
L 794 163
L 794 163
L 794 163
L 794 163
L 794 163
L 794 163
L 794 163
L 794 163
L 794 163
L 794 163
L 794 163
L 794 163
L 794 163
L 794 163
L 794 163
L 794 163
L 794 163
L 794 163
L 794 163
L 794 162
L 794 162
L 794 162
L 794 162
L 794 162
L 794 162
L 794 162
L 794 162
L 794 162
L 794 162
L 794 162
L 794 162
L 794 162
L 794 162
L 794 162
L 794 162
L 794 162
L 794 162
L 794 162
L 794 162
L 794 162
L 794 162
L 794 162
L 794 162
L 794 162
L 794 162
L 794 162
L 795 162
L 795 161
L 795 161
L 795 161
L 795 161
L 795 161
L 795 161
L 795 161
L 795 161
L 795 161
L 795 161
L 795 161
L 795 161
L 795 161
L 795 161
L 795 161
L 795 161
L 795 161
L 795 161
L 795 161
L 795 161
L 795 161
L 795 161
L 795 161
L 795 161
L 795 161
L 795 161
L 795 161
L 795 161
L 795 160
L 795 160
L 795 160
L 795 160
L 795 160
L 795 160
L 795 160
L 795 160
L 795 160
L 795 160
L 795 160
L 795 160
L 795 160
L 795 160
L 795 160
L 795 160
L 796 160
L 796 160
L 796 160
L 796 160
L 796 160
L 796 160
L 796 160
L 796 160
L 796 160
L 796 160
L 796 160
L 796 160
L 796 159
L 796 159
L 796 159
L 796 159
L 796 159
L 797 159
L 797 159
L 797 159
L 797 159
L 797 159
L 797 159
L 797 159
L 797 159
L 797 159
L 797 159
L 797 159
L 797 159
L 797 159
L 797 159
L 797 159
L 797 159
L 797 159
L 797 159
L 797 159
L 797 159
L 797 159
L 797 159
L 797 159
L 797 159
L 797 158
L 797 158
L 797 158
L 798 158
L 798 158
L 798 158
L 798 158
L 798 158
L 798 158
L 798 158
L 798 158
L 798 158
L 798 158
L 798 158
L 798 158
L 798 158
L 798 158
L 798 158
L 798 158
L 798 158
L 798 158
L 798 158
L 798 158
L 798 158
L 798 158
L 798 158
L 798 158
L 798 158
L 798 157
L 798 157
L 798 157
L 798 157
L 798 157
L 798 157
L 798 157
L 798 157
L 799 157
L 799 157
L 799 157
L 799 157
L 799 157
L 799 157
L 799 157
L 799 157
L 799 157
L 799 157
L 799 157
L 799 157
L 799 157
L 799 157
L 799 157
L 799 157
L 799 157
L 799 157
L 799 157
L 800 157
L 800 156
L 800 156
L 800 156
L 800 156
L 800 156
L 800 156
L 800 156
L 800 156
L 800 156
L 800 156
L 800 156
L 800 156
L 800 156
L 800 156
L 800 156
L 800 156
L 800 156
L 800 156
L 800 156
L 801 156
L 801 156
L 801 156
L 801 156
L 801 156
L 801 156
L 801 156
L 801 156
L 801 156
L 801 155
L 801 155
L 801 155
L 801 155
L 801 155
L 801 155
L 801 155
L 801 155
L 801 155
L 801 155
L 801 155
L 801 155
L 801 155
L 801 155
L 801 155
L 801 155
L 801 155
L 801 155
L 801 155
L 801 155
L 801 155
L 801 155
L 802 155
L 802 155
L 802 155
L 802 155
L 802 155
L 802 155
L 802 155
L 802 154
L 802 154
L 802 154
L 802 154
L 802 154
L 802 154
L 802 154
L 803 154
L 803 154
L 803 154
L 803 154
L 803 154
L 803 154
L 803 154
L 803 154
L 803 154
L 803 154
L 804 154
L 804 154
L 804 154
L 804 154
L 804 154
L 804 154
L 804 154
L 804 154
L 804 154
L 804 154
L 804 154
L 804 153
L 804 153
L 804 153
L 804 153
L 804 153
L 804 153
L 804 153
L 804 153
L 804 153
L 804 153
L 804 153
L 804 153
L 804 153
L 804 153
L 804 153
L 804 153
L 804 153
L 804 153
L 804 153
L 804 153
L 804 153
L 804 153
L 804 153
L 804 153
L 804 153
L 804 153
L 804 153
L 804 153
L 805 152
L 805 152
L 805 152
L 805 152
L 805 152
L 805 152
L 805 152
L 805 152
L 805 152
L 805 152
L 805 152
L 805 152
L 805 152
L 805 152
L 805 152
L 805 152
L 805 152
L 805 152
L 805 152
L 805 152
L 805 152
L 805 152
L 805 152
L 805 152
L 805 152
L 805 152
L 805 152
L 805 152
L 805 151
L 805 151
L 805 151
L 805 151
L 805 151
L 805 151
L 805 151
L 805 151
L 805 151
L 805 151
L 805 151
L 805 151
L 805 151
L 805 151
L 805 151
L 805 151
L 805 151
L 805 151
L 805 151
L 805 151
L 805 151
L 805 151
L 805 151
L 805 151
L 805 151
L 805 151
L 805 151
L 806 151
L 806 151
L 806 150
L 806 150
L 806 150
L 806 150
L 806 150
L 806 150
L 806 150
L 806 150
L 806 150
L 806 150
L 806 150
L 806 150
L 806 150
L 806 150
L 806 150
L 806 150
L 806 150
L 806 150
L 806 150
L 806 150
L 806 150
L 806 150
L 806 150
L 806 150
L 806 150
L 806 150
L 806 150
L 806 150
L 806 149
L 806 149
L 806 149
L 806 149
L 806 149
L 806 149
L 806 149
L 806 149
L 806 149
L 806 149
L 806 149
L 806 149
L 806 149
L 807 149
L 807 149
L 807 149
L 807 149
L 807 149
L 807 149
L 807 149
L 807 149
L 807 149
L 807 149
L 807 149
L 807 149
L 807 149
L 807 149
L 807 149
L 807 148
L 807 148
L 807 148
L 807 148
L 807 148
L 807 148
L 807 148
L 807 148
L 807 148
L 807 148
L 807 148
L 808 148
L 808 148
L 808 148
L 808 148
L 808 148
L 808 148
L 808 148
L 808 148
L 808 148
L 808 148
L 808 148
L 808 148
L 808 148
L 808 148
L 808 148
L 808 148
L 808 148
L 808 147
L 808 147
L 808 147
L 808 147
L 808 147
L 808 147
L 808 147
L 808 147
L 808 147
L 808 147
L 808 147
L 808 147
L 808 147
L 808 147
L 808 147
L 808 147
L 808 147
L 808 147
L 808 147
L 808 147
L 808 147
L 808 147
L 809 147
L 809 147
L 809 147
L 809 147
L 809 147
L 809 147
L 809 147
L 809 146
L 809 146
L 809 146
L 809 146
L 809 146
L 809 146
L 809 146
L 809 146
L 809 146
L 809 146
L 809 146
L 809 146
L 809 146
L 809 146
L 809 146
L 809 146
L 809 146
L 810 146
L 810 146
L 810 146
L 810 146
L 810 146
L 810 146
L 810 146
L 810 146
L 810 146
L 810 146
L 810 146
L 810 145
L 810 145
L 810 145
L 810 145
L 810 145
L 810 145
L 810 145
L 810 145
L 810 145
L 810 145
L 810 145
L 810 145
L 810 145
L 810 145
L 810 145
L 810 145
L 811 145
L 811 145
L 811 145
L 811 145
L 811 145
L 811 145
L 811 145
L 811 145
L 811 145
L 811 145
L 811 145
L 811 145
L 811 144
L 811 144
L 811 144
L 811 144
L 811 144
L 811 144
L 811 144
L 811 144
L 811 144
L 811 144
L 811 144
L 812 144
L 812 144
L 812 144
L 812 144
L 812 144
L 813 144
L 813 144
L 813 144
L 813 144
L 813 144
L 813 144
L 813 144
L 813 144
L 814 144
L 814 144
L 814 144
L 814 144
L 814 143
L 814 143
L 814 143
L 814 143
L 814 143
L 814 143
L 814 143
L 814 143
L 815 143
L 815 143
L 815 143
L 815 143
L 815 143
L 815 143
L 815 143
L 815 143
L 815 143
L 815 143
L 815 143
L 815 143
L 815 143
L 815 143
L 815 143
L 816 143
L 816 143
L 816 143
L 816 143
L 816 143
L 816 142
L 816 142
L 816 142
L 816 142
L 816 142
L 816 142
L 816 142
L 816 142
L 817 142
L 817 142
L 817 142
L 817 142
L 817 142
L 817 142
L 818 142
L 818 142
L 818 142
L 818 142
L 818 142
L 818 142
L 818 142
L 818 142
L 818 142
L 819 142
L 819 142
L 819 142
L 819 142
L 819 142
L 819 142
L 819 141
L 819 141
L 819 141
L 819 141
L 819 141
L 819 141
L 819 141
L 819 141
L 819 141
L 820 141
L 820 141
L 820 141
L 820 141
L 820 141
L 820 141
L 820 141
L 820 141
L 820 141
L 820 141
L 821 141
L 821 141
L 821 141
L 821 141
L 821 141
L 821 141
L 821 141
L 821 141
L 821 141
L 821 140
L 822 140
L 822 140
L 822 140
L 822 140
L 822 140
L 822 140
L 822 140
L 822 140
L 822 140
L 822 140
L 822 140
L 822 140
L 822 140
L 822 140
L 822 140
L 822 140
L 822 140
L 822 140
L 822 140
L 822 140
L 822 140
L 822 140
L 823 140
L 823 140
L 823 140
L 823 140
L 823 140
L 823 139
L 823 139
L 824 139
L 824 139
L 824 139
L 824 139
L 824 139
L 824 139
L 824 139
L 825 139
L 825 139
L 825 139
L 825 139
L 825 139
L 825 139
L 825 139
L 825 139
L 825 139
L 825 139
L 825 139
L 825 139
L 825 139
L 825 139
L 826 139
L 826 139
L 826 139
L 826 139
L 826 139
L 826 138
L 826 138
L 826 138
L 826 138
L 826 138
L 826 138
L 826 138
L 826 138
L 826 138
L 826 138
L 826 138
L 827 138
L 827 138
L 827 138
L 827 138
L 827 138
L 827 138
L 827 138
L 827 138
L 828 138
L 828 138
L 828 138
L 828 138
L 828 138
L 828 138
L 828 138
L 828 138
L 829 138
L 829 138
L 829 137
L 829 137
L 829 137
L 829 137
L 829 137
L 829 137
L 829 137
L 829 137
L 829 137
L 830 137
L 830 137
L 830 137
L 830 137
L 830 137
L 830 137
L 830 137
L 830 137
L 830 137
L 830 137
L 830 137
L 830 137
L 830 137
L 830 137
L 830 137
L 830 137
L 831 137
L 831 137
L 831 137
L 831 136
L 831 136
L 831 136
L 831 136
L 831 136
L 831 136
L 831 136
L 831 136
L 831 136
L 831 136
L 831 136
L 831 136
L 831 136
L 831 136
L 831 136
L 831 136
L 831 136
L 831 136
L 831 136
L 831 136
L 831 136
L 831 136
L 831 136
L 831 136
L 831 136
L 831 136
L 831 136
L 831 136
L 831 135
L 831 135
L 831 135
L 831 135
L 831 135
L 831 135
L 832 135
L 832 135
L 832 135
L 832 135
L 832 135
L 832 135
L 832 135
L 832 135
L 832 135
L 832 135
L 832 135
L 832 135
L 832 135
L 832 135
L 832 135
L 832 135
L 832 135
L 832 135
L 832 135
L 832 135
L 832 135
L 832 135
L 832 134
L 832 134
L 832 134
L 832 134
L 832 134
L 832 134
L 832 134
L 832 134
L 832 134
L 832 134
L 832 134
L 833 134
L 833 134
L 833 134
L 833 134
L 833 134
L 833 134
L 833 134
L 833 134
L 833 134
L 833 134
L 833 134
L 833 134
L 833 134
L 834 134
L 834 134
L 834 134
L 834 134
L 834 134
L 834 133
L 834 133
L 834 133
L 834 133
L 834 133
L 835 133
L 835 133
L 835 133
L 835 133
L 835 133
L 835 133
L 835 133
L 835 133
L 835 133
L 835 133
L 835 133
L 835 133
L 835 133
L 835 133
L 835 133
L 836 133
L 836 133
L 836 133
L 836 133
L 836 133
L 836 133
L 836 133
L 836 133
L 836 132
L 836 132
L 836 132
L 836 132
L 836 132
L 836 132
L 837 132
L 837 132
L 837 132
L 837 132
L 837 132
L 837 132
L 837 132
L 837 132
L 837 132
L 837 132
L 837 132
L 837 132
L 837 132
L 838 132
L 838 132
L 838 132
L 838 132
L 838 132
L 838 132
L 838 132
L 838 132
L 838 132
L 838 131
L 838 131
L 838 131
L 838 131
L 838 131
L 838 131
L 838 131
L 838 131
L 839 131
L 839 131
L 839 131
L 839 131
L 839 131
L 839 131
L 839 131
L 839 131
L 839 131
L 840 131
L 840 131
L 840 131
L 840 131
L 840 131
L 840 131
L 840 131
L 840 131
L 840 131
L 841 131
L 841 131
L 841 130
L 841 130
L 841 130
L 841 130
L 841 130
L 841 130
L 841 130
L 841 130
L 841 130
L 841 130
L 842 130
L 842 130
L 842 130
L 842 130
L 842 130
L 842 130
L 842 130
L 842 130
L 842 130
L 842 130
L 842 130
L 842 130
L 842 130
L 842 130
L 842 130
L 842 130
L 843 130
L 843 130
L 843 130
L 843 129
L 843 129
L 843 129
L 843 129
L 843 129
L 843 129
L 844 129
L 844 129
L 844 129
L 844 129
L 844 129
L 844 129
L 844 129
L 844 129
L 844 129
L 844 129
L 844 129
L 844 129
L 845 129
L 845 129
L 845 129
L 845 129
L 845 129
L 845 129
L 845 129
L 845 129
L 845 129
L 845 129
L 845 128
L 845 128
L 845 128
L 846 128
L 846 128
L 846 128
L 846 128
L 846 128
L 846 128
L 846 128
L 846 128
L 846 128
L 846 128
L 846 128
L 846 128
L 846 128
L 846 128
L 846 128
L 846 128
L 846 128
L 846 128
L 846 128
L 846 128
L 846 128
L 847 128
L 847 128
L 847 128
L 847 128
L 847 127
L 847 127
L 847 127
L 847 127
L 847 127
L 847 127
L 847 127
L 848 127
L 848 127
L 848 127
L 848 127
L 848 127
L 848 127
L 848 127
L 848 127
L 848 127
L 848 127
L 848 127
L 849 127
L 849 127
L 849 127
L 849 127
L 849 127
L 849 127
L 849 127
L 849 127
L 849 127
L 849 127
L 850 126
L 850 126
L 850 126
L 850 126
L 850 126
L 851 126
L 851 126
L 851 126
L 851 126
L 851 126
L 851 126
L 851 126
L 851 126
L 851 126
L 851 126
L 851 126
L 851 126
L 851 126
L 851 126
L 852 126
L 852 126
L 852 126
L 852 126
L 852 126
L 852 126
L 852 126
L 852 126
L 852 126
L 852 125
L 852 125
L 852 125
L 853 125
L 853 125
L 853 125
L 853 125
L 853 125
L 853 125
L 853 125
L 853 125
L 853 125
L 853 125
L 853 125
L 853 125
L 853 125
L 853 125
L 854 125
L 854 125
L 854 125
L 854 125
L 854 125
L 854 125
L 854 125
L 854 125
L 854 125
L 854 125
L 854 125
L 854 125
L 855 124
L 855 124
L 855 124
L 855 124
L 855 124
L 855 124
L 855 124
L 856 124
L 856 124
L 856 124
L 856 124
L 856 124
L 856 124
L 856 124
L 856 124
L 856 124
L 856 124
L 856 124
L 856 124
L 857 124
L 857 124
L 857 124
L 857 124
L 857 124
L 857 124
L 857 124
L 857 124
L 857 124
L 857 123
L 857 123
L 858 123
L 858 123
L 858 123
L 858 123
L 858 123
L 858 123
L 858 123
L 858 123
L 858 123
L 858 123
L 858 123
L 858 123
L 858 123
L 858 123
L 858 123
L 858 123
L 858 123
L 858 123
L 858 123
L 858 123
L 858 123
L 858 123
L 858 123
L 858 123
L 858 123
L 858 123
L 858 122
L 858 122
L 858 122
L 858 122
L 858 122
L 858 122
L 858 122
L 858 122
L 858 122
L 858 122
L 858 122
L 858 122
L 858 122
L 858 122
L 858 122
L 859 122
L 859 122
L 859 122
L 859 122
L 859 122
L 859 122
L 859 122
L 859 122
L 859 122
L 859 122
L 859 122
L 859 122
L 859 122
L 859 121
L 859 121
L 859 121
L 859 121
L 859 121
L 859 121
L 859 121
L 859 121
L 859 121
L 859 121
L 859 121
L 859 121
L 859 121
L 859 121
L 860 121
L 860 121
L 860 121
L 860 121
L 860 121
L 860 121
L 860 121
L 860 121
L 860 121
L 860 121
L 860 121
L 860 121
L 860 121
L 860 121
L 860 121
L 860 120
L 860 120
L 860 120
L 860 120
L 860 120
L 860 120
L 860 120
L 860 120
L 860 120
L 860 120
L 860 120
L 860 120
L 860 120
L 860 120
L 860 120
L 860 120
L 860 120
L 860 120
L 860 120
L 860 120
L 860 120
L 860 120
L 860 120
L 860 120
L 860 120
L 861 120
L 861 120
L 861 120
L 861 119
L 861 119
L 861 119
L 861 119
L 861 119
L 861 119
L 861 119
L 861 119
L 861 119
L 861 119
L 861 119
L 861 119
L 861 119
L 862 119
L 862 119
L 862 119
L 862 119
L 862 119
L 862 119
L 862 119
L 862 119
L 862 119
L 862 119
L 862 119
L 862 119
L 862 119
L 862 119
L 862 119
L 862 118
L 862 118
L 862 118
L 862 118
L 862 118
L 862 118
L 862 118
L 862 118
L 862 118
L 862 118
L 862 118
L 862 118
L 862 118
L 862 118
L 862 118
L 862 118
L 862 118
L 863 118
L 863 118
L 863 118
L 863 118
L 863 118
L 863 118
L 863 118
L 863 118
L 863 118
L 863 118
L 863 118
L 863 117
L 863 117
L 863 117
L 863 117
L 863 117
L 863 117
L 863 117
L 863 117
L 863 117
L 863 117
L 863 117
L 863 117
L 863 117
L 863 117
L 863 117
L 863 117
L 863 117
L 863 117
L 863 117
L 863 117
L 863 117
L 863 117
L 863 117
L 863 117
L 863 117
L 863 117
L 863 117
L 863 117
L 863 117
L 863 116
L 863 116
L 863 116
L 864 116
L 864 116
L 864 116
L 864 116
L 864 116
L 864 116
L 864 116
L 864 116
L 864 116
L 864 116
L 864 116
L 864 116
L 864 116
L 864 116
L 864 116
L 864 116
L 864 116
L 864 116
L 864 116
L 864 116
L 864 116
L 864 116
L 864 116
L 864 116
L 864 116
L 864 115
L 864 115
L 864 115
L 864 115
L 864 115
L 864 115
L 864 115
L 864 115
L 864 115
L 864 115
L 864 115
L 864 115
L 864 115
L 864 115
L 864 115
L 864 115
L 864 115
L 864 115
L 864 115
L 864 115
L 864 115
L 864 115
L 864 115
L 864 115
L 864 115
L 864 115
L 864 115
L 864 115
L 864 114
L 864 114
L 864 114
L 864 114
L 864 114
L 864 114
L 864 114
L 864 114
L 864 114
L 864 114
L 864 114
L 864 114
L 864 114
L 864 114
L 864 114
L 865 114
L 865 114
L 865 114
L 865 114
L 865 114
L 865 114
L 865 114
L 865 114
L 865 114
L 865 114
L 865 114
L 865 114
L 865 114
L 865 113
L 865 113
L 865 113
L 865 113
L 865 113
L 865 113
L 865 113
L 865 113
L 865 113
L 865 113
L 865 113
L 865 113
L 865 113
L 865 113
L 865 113
L 865 113
L 865 113
L 865 113
L 865 113
L 865 113
L 865 113
L 865 113
L 865 113
L 865 113
L 865 113
L 865 113
L 865 113
L 865 113
L 865 113
L 865 112
L 865 112
L 865 112
L 865 112
L 865 112
L 865 112
L 865 112
L 865 112
L 865 112
L 865 112
L 865 112
L 865 112
L 865 112
L 865 112
L 865 112
L 865 112
L 865 112
L 865 112
L 865 112
L 865 112
L 865 112
L 865 112
L 865 112
L 865 112
L 865 112
L 865 112
L 865 112
L 865 112
L 865 111
L 865 111
L 866 111
L 866 111
L 866 111
L 866 111
L 866 111
L 866 111
L 866 111
L 866 111
L 866 111
L 866 111
L 866 111
L 866 111
L 866 111
L 866 111
L 866 111
L 866 111
L 866 111
L 866 111
L 866 111
L 866 111
L 866 111
L 866 111
L 866 111
L 866 111
L 866 111
L 866 111
L 867 110
L 867 110
L 867 110
L 867 110
L 867 110
L 867 110
L 867 110
L 867 110
L 867 110
L 867 110
L 867 110
L 867 110
L 867 110
L 867 110
L 867 110
L 868 110
L 868 110
L 868 110
L 868 110
L 868 110
L 868 110
L 868 110
L 868 110
L 868 110
L 868 110
L 868 110
L 868 110
L 868 110
L 868 109
L 868 109
L 868 109
L 868 109
L 868 109
L 868 109
L 868 109
L 868 109
L 868 109
L 868 109
L 868 109
L 868 109
L 868 109
L 868 109
L 868 109
L 868 109
L 868 109
L 868 109
L 868 109
L 868 109
L 868 109
L 868 109
L 868 109
L 868 109
L 868 109
L 868 109
L 868 109
L 868 109
L 868 108
L 869 108
L 869 108
L 869 108
L 869 108
L 869 108
L 869 108
L 869 108
L 869 108
L 869 108
L 869 108
L 869 108
L 869 108
L 869 108
L 869 108
L 869 108
L 869 108
L 869 108
L 869 108
L 869 108
L 869 108
L 869 108
L 870 108
L 870 108
L 870 108
L 870 108
L 870 108
L 870 108
L 870 108
L 870 107
L 870 107
L 870 107
L 871 107
L 871 107
L 871 107
L 871 107
L 871 107
L 871 107
L 871 107
L 871 107
L 871 107
L 871 107
L 871 107
L 871 107
L 871 107
L 871 107
L 872 107
L 872 107
L 872 107
L 872 107
L 872 107
L 872 107
L 872 107
L 872 107
L 872 107
L 872 107
L 873 107
L 873 106
L 873 106
L 873 106
L 873 106
L 873 106
L 873 106
L 873 106
L 873 106
L 873 106
L 873 106
L 873 106
L 873 106
L 873 106
L 873 106
L 873 106
L 873 106
L 873 106
L 873 106
L 873 106
L 873 106
L 873 106
L 873 106
L 873 106
L 873 106
L 873 106
L 873 106
L 873 106
L 873 106
L 873 105
L 874 105
L 874 105
L 874 105
L 874 105
L 874 105
L 874 105
L 874 105
L 874 105
L 874 105
L 874 105
L 874 105
L 874 105
L 874 105
L 874 105
L 874 105
L 874 105
L 874 105
L 874 105
L 874 105
L 874 105
L 874 105
L 874 105
L 875 105
L 875 105
L 875 105
L 875 105
L 875 105
L 875 104
L 875 104
L 875 104
L 875 104
L 875 104
L 875 104
L 875 104
L 875 104
L 875 104
L 875 104
L 875 104
L 875 104
L 875 104
L 875 104
L 875 104
L 875 104
L 875 104
L 875 104
L 875 104
L 875 104
L 875 104
L 875 104
L 875 104
L 875 104
L 875 104
L 875 104
L 875 104
L 875 104
L 875 104
L 875 103
L 875 103
L 876 103
L 876 103
L 876 103
L 876 103
L 876 103
L 876 103
L 876 103
L 876 103
L 876 103
L 876 103
L 876 103
L 876 103
L 876 103
L 876 103
L 876 103
L 876 103
L 876 103
L 876 103
L 877 103
L 877 103
L 877 103
L 877 103
L 877 103
L 877 103
L 877 103
L 877 103
L 877 102
L 877 102
L 877 102
L 877 102
L 877 102
L 877 102
L 877 102
L 877 102
L 877 102
L 877 102
L 877 102
L 877 102
L 877 102
L 877 102
L 877 102
L 877 102
L 877 102
L 877 102
L 877 102
L 877 102
L 878 102
L 878 102
L 878 102
L 878 102
L 878 102
L 878 102
L 878 102
L 878 102
L 878 101
L 878 101
L 878 101
L 879 101
L 879 101
L 879 101
L 879 101
L 879 101
L 879 101
L 879 101
L 879 101
L 879 101
L 880 101
L 880 101
L 880 101
L 880 101
L 880 101
L 880 101
L 880 101
L 880 101
L 880 101
L 880 101
L 880 101
L 880 101
L 880 101
L 880 101
L 880 101
L 880 101
L 880 100
L 880 100
L 880 100
L 881 100
L 881 100
L 881 100
L 881 100
L 881 100
L 881 100
L 881 100
L 881 100
L 881 100
L 881 100
L 881 100
L 881 100
L 881 100
L 881 100
L 881 100
L 881 100
L 881 100
L 881 100
L 881 100
L 881 100
L 881 100
L 881 100
L 881 100
L 881 100
L 881 100
L 881 100
L 881 99
L 881 99
L 881 99
L 881 99
L 881 99
L 881 99
L 881 99
L 881 99
L 881 99
L 881 99
L 882 99
L 882 99
L 882 99
L 882 99
L 882 99
L 882 99
L 882 99
L 882 99
L 882 99
L 882 99
L 882 99
L 882 99
L 882 99
L 882 99
L 882 99
L 882 99
L 883 99
L 883 99
L 883 98
L 883 98
L 883 98
L 883 98
L 883 98
L 883 98
L 883 98
L 883 98
L 883 98
L 883 98
L 884 98
L 884 98
L 884 98
L 884 98
L 884 98
L 884 98
L 884 98
L 884 98
L 884 98
L 884 98
L 884 98
L 884 98
L 884 98
L 884 98
L 884 98
L 884 98
L 884 98
L 884 98
L 884 97
L 885 97
L 885 97
L 885 97
L 885 97
L 885 97
L 885 97
L 885 97
L 885 97
L 885 97
L 885 97
L 885 97
L 885 97
L 885 97
L 886 97
L 886 97
L 886 97
L 886 97
L 886 97
L 886 97
L 886 97
L 886 97
L 886 97
L 886 97
L 886 97
L 886 97
L 887 97
L 887 97
L 887 96
L 887 96
L 887 96
L 887 96
L 887 96
L 888 96
L 888 96
L 888 96
L 888 96
L 888 96
L 888 96
L 888 96
L 888 96
L 888 96
L 889 96
L 889 96
L 889 96
L 889 96
L 889 96
L 889 96
L 889 96
L 889 96
L 889 96
L 889 96
L 889 96
L 890 96
L 891 96
L 891 96
L 891 96
L 891 95
L 891 95
L 891 95
L 891 95
L 891 95
L 891 95
L 892 95
L 892 95
L 892 95
L 892 95
L 892 95
L 892 95
L 892 95
L 892 95
L 892 95
L 892 95
L 892 95
L 893 95
L 893 95
L 893 95
L 893 95
L 893 95
L 893 95
L 894 95
L 894 95
L 894 95
L 894 95
L 894 95
L 894 94
L 894 94
L 895 94
L 895 94
L 895 94
L 895 94
L 895 94
L 895 94
L 895 94
L 895 94
L 895 94
L 895 94
L 895 94
L 895 94
L 895 94
L 895 94
L 895 94
L 895 94
L 895 94
L 895 94
L 895 94
L 896 94
L 896 94
L 896 94
L 896 94
L 896 94
L 896 94
L 896 94
L 896 93
L 896 93
L 896 93
L 896 93
L 896 93
L 896 93
L 896 93
L 896 93
L 896 93
L 896 93
L 896 93
L 896 93
L 896 93
L 897 93
L 897 93
L 897 93
L 897 93
L 897 93
L 897 93
L 897 93
L 897 93
L 897 93
L 897 93
L 897 93
L 897 93
L 897 93
L 897 93
L 897 93
L 897 92
L 897 92
L 897 92
L 897 92
L 897 92
L 897 92
L 897 92
L 897 92
L 897 92
L 897 92
L 897 92
L 897 92
L 897 92
L 898 92
L 898 92
L 898 92
L 898 92
L 898 92
L 898 92
L 898 92
L 898 92
L 898 92
L 898 92
L 898 92
L 898 92
L 899 92
L 899 92
L 899 92
L 899 91
L 899 91
L 899 91
L 899 91
L 900 91
L 900 91
L 900 91
L 900 91
L 900 91
L 900 91
L 900 91
L 900 91
L 901 91
L 901 91
L 901 91
L 901 91
L 901 91
L 901 91
L 901 91
L 901 91
L 901 91
L 901 91
L 901 91
L 902 91
L 902 91
L 902 91
L 902 91
L 902 91
L 902 91
L 902 90
L 902 90
L 902 90
L 902 90
L 902 90
L 903 90
L 903 90
L 903 90
L 903 90
L 903 90
L 903 90
L 903 90
L 903 90
L 904 90
L 904 90
L 904 90
L 904 90
L 904 90
L 904 90
L 904 90
L 905 90
L 905 90
L 905 90
L 905 90
L 905 90
L 905 90
L 905 90
L 906 90
L 906 89
L 906 89
L 906 89
L 906 89
L 906 89
L 906 89
L 906 89
L 906 89
L 906 89
L 906 89
L 906 89
L 906 89
L 906 89
L 906 89
L 906 89
L 906 89
L 907 89
L 907 89
L 907 89
L 907 89
L 907 89
L 907 89
L 907 89
L 907 89
L 907 89
L 907 89
L 907 89
L 907 89
L 907 88
L 907 88
L 907 88
L 907 88
L 907 88
L 907 88
L 907 88
L 907 88
L 907 88
L 907 88
L 908 88
L 908 88
L 908 88
L 908 88
L 908 88
L 908 88
L 908 88
L 908 88
L 908 88
L 908 88
L 908 88
L 908 88
L 908 88
L 908 88
L 909 88
L 909 88
L 909 88
L 909 88
L 909 87
L 909 87
L 909 87
L 909 87
L 909 87
L 909 87
L 909 87
L 909 87
L 909 87
L 909 87
L 909 87
L 909 87
L 910 87
L 910 87
L 910 87
L 910 87
L 910 87
L 910 87
L 910 87
L 910 87
L 911 87
L 911 87
L 911 87
L 911 87
L 911 87
L 911 87
L 911 87
L 911 87
L 911 87
L 911 86
L 911 86
L 911 86
L 911 86
L 911 86
L 911 86
L 912 86
L 912 86
L 912 86
L 912 86
L 912 86
L 912 86
L 912 86
L 912 86
L 912 86
L 912 86
L 912 86
L 912 86
L 912 86
L 912 86
L 912 86
L 913 86
L 913 86
L 913 86
L 913 86
L 913 86
L 913 86
L 913 86
L 914 85
L 914 85
L 914 85
L 914 85
L 914 85
L 914 85
L 914 85
L 914 85
L 914 85
L 914 85
L 914 85
L 914 85
L 914 85
L 914 85
L 914 85
L 914 85
L 914 85
L 915 85
L 915 85
L 915 85
L 915 85
L 915 85
L 915 85
L 915 85
L 915 85
L 916 85
L 916 85
L 916 85
L 916 84
L 916 84
L 916 84
L 916 84
L 916 84
L 917 84
L 917 84
L 917 84
L 917 84
L 917 84
L 917 84
L 918 84
L 918 84
L 918 84
L 918 84
L 918 84
L 918 84
L 918 84
L 919 84
L 919 84
L 919 84
L 919 84
L 919 84
L 919 84
L 919 84
L 919 84
L 919 84
L 919 84
L 919 83
L 920 83
L 920 83
L 920 83
L 920 83
L 920 83
L 921 83
L 921 83
L 921 83
L 921 83
L 921 83
L 921 83
L 921 83
L 922 83
L 922 83
L 922 83
L 922 83
L 922 83
L 922 83
L 922 83
L 922 83
L 922 83
L 922 83
L 923 83
L 923 83
L 923 83
L 923 83
L 923 83
L 923 83
L 923 82
L 923 82
L 923 82
L 923 82
L 923 82
L 923 82
L 923 82
L 924 82
L 924 82
L 924 82
L 924 82
L 924 82
L 924 82
L 924 82
L 924 82
L 924 82
L 924 82
L 924 82
L 924 82
L 924 82
L 924 82
L 924 82
L 924 82
L 924 82
L 924 82
L 925 82
L 925 82
L 925 82
L 925 81
L 925 81
L 925 81
L 925 81
L 925 81
L 925 81
L 925 81
L 926 81
L 926 81
L 926 81
L 926 81
L 926 81
L 926 81
L 926 81
L 926 81
L 926 81
L 927 81
L 927 81
L 927 81
L 927 81
L 927 81
L 927 81
L 927 81
L 927 81
L 927 81
L 927 81
L 927 81
L 927 81
L 928 80
L 928 80
L 928 80
L 928 80
L 928 80
L 928 80
L 928 80
L 928 80
L 928 80
L 928 80
L 928 80
L 928 80
L 928 80
L 928 80
L 929 80
L 929 80
L 929 80
L 929 80
L 929 80
L 930 80
L 930 80
L 930 80
L 931 80
L 931 80
L 931 80
L 931 80
L 932 80
L 932 80
L 932 79
L 932 79
L 932 79
L 932 79
L 932 79
L 932 79
L 932 79
L 933 79
L 933 79
L 933 79
L 933 79
L 933 79
L 933 79
L 933 79
L 933 79
L 933 79
L 933 79
L 933 79
L 934 79
L 934 79
L 934 79
L 934 79
L 934 79
L 934 79
L 934 79
L 934 79
L 934 79
L 934 79
L 934 79
L 934 78
L 934 78
L 934 78
L 934 78
L 934 78
L 934 78
L 934 78
L 934 78
L 935 78
L 935 78
L 935 78
L 935 78
L 935 78
L 935 78
L 935 78
L 935 78
L 935 78
L 935 78
L 935 78
L 935 78
L 935 78
L 935 78
L 935 78
L 935 78
L 935 78
L 935 78
L 935 78
L 935 78
L 935 77
L 935 77
L 935 77
L 935 77
L 936 77
L 936 77
L 936 77
L 936 77
L 936 77
L 936 77
L 936 77
L 936 77
L 936 77
L 936 77
L 936 77
L 936 77
L 936 77
L 936 77
L 936 77
L 936 77
L 936 77
L 936 77
L 936 77
L 936 77
L 936 77
L 936 77
L 936 77
L 936 77
L 936 76
L 937 76
L 937 76
L 937 76
L 937 76
L 937 76
L 937 76
L 937 76
L 937 76
L 937 76
L 937 76
L 937 76
L 937 76
L 937 76
L 937 76
L 937 76
L 937 76
L 937 76
L 937 76
L 937 76
L 937 76
L 937 76
L 937 76
L 938 76
L 938 76
L 938 76
L 938 76
L 938 76
L 938 75
L 938 75
L 938 75
L 938 75
L 938 75
L 938 75
L 938 75
L 938 75
L 938 75
L 938 75
L 938 75
L 938 75
L 938 75
L 938 75
L 938 75
L 938 75
L 938 75
L 938 75
L 938 75
L 938 75
L 938 75
L 938 75
L 938 75
L 938 75
L 938 75
L 938 75
L 938 75
L 938 75
L 938 74
L 938 74
L 938 74
L 938 74
L 938 74
L 938 74
L 938 74
L 938 74
L 938 74
L 938 74
L 938 74
L 938 74
L 938 74
L 938 74
L 938 74
L 938 74
L 938 74
L 938 74
L 938 74
L 938 74
L 938 74
L 938 74
L 938 74
L 938 74
L 938 74
L 938 74
L 938 74
L 938 74
L 938 74
L 938 73
L 938 73
L 938 73
L 938 73
L 938 73
L 938 73
L 938 73
L 938 73
L 938 73
L 938 73
L 938 73
L 938 73
L 938 73
L 938 73
L 938 73
L 938 73
L 938 73
L 938 73
L 938 73
L 938 73
L 938 73
L 938 73
L 938 73
L 938 73
L 938 73
L 938 73
L 938 73
L 938 73
L 938 72
L 938 72
L 938 72
L 938 72
L 938 72
L 938 72
L 938 72
L 938 72
L 938 72
L 938 72
L 938 72
L 938 72
L 938 72
L 938 72
L 938 72
L 938 72
L 938 72
L 938 72
L 938 72
L 938 72
L 938 72
L 938 72
L 938 72
L 938 72
L 938 72
L 938 72
L 938 72
L 938 72
L 938 71
L 938 71
L 938 71
L 938 71
L 938 71
L 938 71
L 938 71
L 938 71
L 938 71
L 938 71
L 938 71
L 938 71
L 938 71
L 938 71
L 938 71
L 938 71
L 938 71
L 938 71
L 938 71
L 938 71
L 938 71
L 938 71
L 938 71
L 938 71
L 938 71
L 938 71
L 938 71
L 938 71
L 938 70
L 938 70
L 938 70
L 938 70
L 938 70
L 938 70
L 938 70
L 938 70
L 938 70
L 938 70
L 938 70
L 938 70
L 938 70
L 938 70
L 938 70
L 938 70
L 938 70
L 938 70
L 938 70
L 938 70
L 938 70
L 938 70
L 938 70
L 938 70
L 938 70
L 938 70
L 938 70
L 938 70
L 938 70
L 938 69
L 938 69
L 938 69
L 938 69
L 938 69
L 938 69
L 938 69
L 938 69
L 938 69
L 938 69
L 938 69
L 938 69
L 938 69
L 938 69
L 938 69
L 938 69
L 938 69
L 938 69
L 938 69
L 938 69
L 938 69
L 938 69
L 938 69
L 938 69
L 938 69
L 938 69
L 938 69
L 938 69
L 938 68
L 938 68
L 938 68
L 938 68
L 938 68
L 938 68
L 938 68
L 938 68
L 938 68
L 938 68
L 938 68
L 938 68
L 938 68
L 938 68
L 938 68
L 938 68
L 938 68
L 938 68
L 938 68
L 938 68
L 938 68
L 938 68
L 939 68
L 939 68
L 939 68
L 939 68
L 939 68
L 939 68
L 939 67
L 939 67
L 939 67
L 939 67
L 939 67
L 939 67
L 939 67
L 939 67
L 939 67
L 939 67
L 939 67
L 939 67
L 939 67
L 939 67
L 939 67
L 939 67
L 939 67
L 939 67
L 939 67
L 939 67
L 939 67
L 939 67
L 939 67
L 939 67
L 939 67
L 939 67
L 939 67
L 939 67
L 939 66
L 939 66
L 939 66
L 939 66
L 939 66
L 939 66
L 939 66
L 939 66
L 939 66
L 939 66
L 939 66
L 939 66
L 939 66
L 939 66
L 939 66
L 939 66
L 939 66
L 939 66
L 939 66
L 939 66
L 939 66
L 939 66
L 939 66
L 939 66
L 939 66
L 939 66
L 939 66
L 939 66
L 939 66
L 939 65
L 939 65
L 939 65
L 939 65
L 939 65
L 939 65
L 939 65
L 939 65
L 939 65
L 939 65
L 939 65
L 939 65
L 939 65
L 939 65
L 939 65
L 939 65
L 939 65
L 939 65
L 939 65
L 939 65
L 939 65
L 939 65
L 939 65
L 939 65
L 939 65
L 939 65
L 939 65
L 939 65
L 939 64
L 939 64
L 939 64
L 939 64
L 939 64
L 939 64
L 939 64
L 939 64
L 939 64
L 939 64
L 939 64
L 939 64
L 939 64
L 939 64
L 939 64
L 939 64
L 939 64
L 939 64
L 939 64
L 939 64
L 939 64
L 939 64
L 939 64
L 939 64
L 939 64
L 939 64
L 939 64
L 939 64
L 939 63
L 939 63
L 940 63
L 940 63
L 940 63
L 940 63
L 940 63
L 940 63
L 940 63
L 940 63
L 940 63
L 940 63
L 940 63
L 940 63
L 940 63
L 940 63
L 940 63
L 940 63
L 940 63
L 940 63
L 940 63
L 940 63
L 940 63
L 940 63
L 940 63
L 940 63
L 940 63
L 940 63
L 940 62
L 940 62
L 940 62
L 940 62
L 940 62
L 940 62
L 940 62
L 940 62
L 940 62
L 940 62
L 940 62
L 940 62
L 940 62
L 940 62
L 940 62
L 940 62
L 940 62
L 940 62
L 940 62
L 940 62
L 940 62
L 940 62
L 940 62
L 940 62
L 940 62
L 940 62
L 940 62
L 940 62
L 940 62
L 940 61
L 940 61
L 940 61
L 940 61
L 940 61
L 940 61
L 940 61
L 940 61
L 940 61
L 940 61
L 940 61
L 940 61
L 940 61
L 940 61
L 940 61
L 940 61
L 940 61
L 940 61
L 940 61
L 940 61
L 940 61
L 940 61
L 940 61
L 940 61
L 940 61
L 940 61
L 940 61
L 940 61
L 940 60
L 940 60
L 940 60
L 940 60
L 940 60
L 940 60
L 940 60
L 940 60
L 940 60
L 940 60
L 940 60
L 940 60
L 940 60
L 940 60
L 940 60
L 940 60
L 940 60
L 940 60
L 940 60
L 940 60
L 940 60
L 940 60
L 940 60
L 940 60
L 940 60
L 940 60
L 940 60
L 940 60
L 940 59
L 940 59
L 940 59
L 940 59
L 940 59
L 940 59
L 940 59
L 940 59
L 940 59
L 940 59
L 940 59
L 940 59
L 940 59
L 940 59
L 940 59
L 940 59
L 940 59
L 940 59
L 940 59
L 940 59
L 940 59
L 940 59
L 940 59
L 940 59
L 940 59
L 940 59
L 940 59
L 940 59
L 940 58
L 940 58
L 940 58
L 940 58
L 940 58
L 940 58
L 940 58
L 940 58
L 940 58
L 940 58
L 940 58
L 940 58
L 940 58
L 940 58
L 940 58
L 940 58
L 940 58
L 940 58
L 940 58
L 940 58
L 940 58
L 940 58
L 940 58
L 940 58
L 940 58
L 940 58
L 940 58
L 940 58
L 940 57
L 940 57
L 940 57
L 940 57
L 940 57
L 940 57
L 940 57
L 940 57
L 940 57
L 940 57
L 940 57
L 940 57
L 940 57
L 940 57
L 940 57
L 940 57
L 940 57
L 940 57
L 940 57
L 940 57
L 940 57
L 940 57
L 940 57
L 940 57
L 940 57
L 940 57
L 940 57
L 940 57
L 940 57
L 940 56
L 940 56
L 940 56
L 940 56
L 940 56
L 940 56
L 940 56
L 940 56
L 940 56
L 940 56
L 940 56
L 940 56
L 940 56
L 940 56
L 940 56
L 940 56
L 940 56
L 940 56
L 940 56
L 940 56
L 940 56
L 940 56
L 940 56
L 940 56
L 940 56
L 940 56
L 940 56
L 940 56
L 940 55
L 940 55
L 940 55
L 940 55
L 940 55
L 940 55
L 940 55
L 940 55
L 940 55
L 940 55
L 940 55
L 940 55
L 940 55
L 940 55
L 940 55
L 940 55
L 940 55
L 940 55
L 940 55
L 940 55
L 940 55
L 940 55
L 940 55
L 940 55
L 940 55
L 940 55
L 940 55
L 940 55
L 940 54
L 940 54
L 940 54
L 940 54
L 940 54
L 940 54
L 940 54
L 940 54
L 940 54
L 940 54
L 940 54
L 940 54
L 940 54
L 940 54
L 940 54
L 940 54
L 940 54
L 940 54
L 940 54
L 940 54
L 940 54
L 940 54
L 940 54
L 940 54
L 940 54
L 940 54
L 940 54
L 940 54
L 940 53
L 940 53
L 940 53
L 940 53
L 940 53
L 940 53
L 940 53
L 940 53
L 940 53
L 940 53
L 940 53
L 940 53
L 940 53
L 940 53
L 940 53
L 940 53
L 940 53
L 940 53
L 940 53
L 940 53
L 940 53
L 940 53
L 940 53
L 940 53
L 940 53
L 940 53
L 941 53
L 941 53
L 941 53
L 941 52
L 941 52
L 941 52
L 941 52
L 941 52
L 941 52
L 941 52
L 941 52
L 941 52
L 941 52
L 941 52
L 941 52
L 941 52
L 941 52
L 941 52
L 941 52
L 941 52
L 941 52
L 941 52
L 941 52
L 941 52
L 941 52
L 941 52
L 941 52
L 941 52
L 941 52
L 941 52
L 941 52
L 941 51
L 941 51
L 941 51
L 941 51
L 941 51
L 941 51
L 941 51
L 941 51
L 941 51
L 941 51
L 941 51
L 941 51
L 941 51
L 941 51
L 941 51
L 941 51
L 941 51
L 941 51
L 941 51
L 941 51
L 941 51
L 941 51
L 941 51
L 941 51
L 941 51
L 941 51
L 941 51
L 941 51
L 941 50
L 941 50
L 941 50
L 941 50
L 941 50
L 941 50
L 941 50
L 941 50
L 941 50
L 941 50
L 941 50
L 941 50
L 941 50
L 941 50
L 941 50
L 941 50
L 941 50
L 941 50
L 941 50
L 941 50
L 941 50
L 941 50
L 941 50
L 941 50
L 941 50
L 941 50
L 941 50
L 941 50
L 941 49
L 941 49
L 941 49
L 941 49
L 941 49
L 941 49
L 941 49
L 941 49
L 941 49
L 941 49
L 941 49
L 941 49
L 941 49
L 941 49
L 941 49
L 941 49
L 941 49
L 941 49
L 941 49
L 941 49
L 941 49
L 941 49
L 941 49
L 941 49
L 941 49
L 941 49
L 941 49
L 941 49
L 941 49
L 941 48
L 941 48
L 941 48
L 941 48
L 941 48
L 941 48
L 941 48
L 941 48
L 941 48
L 941 48
L 941 48
L 941 48
L 941 48
L 941 48
L 941 48
L 941 48
L 941 48
L 941 48
L 941 48
L 941 48
L 941 48
L 941 48
L 941 48
L 941 48
L 941 48
L 941 48
L 941 48
L 941 48
L 941 47
L 941 47
L 941 47
L 941 47
L 941 47
L 941 47
L 941 47
L 941 47
L 941 47
L 941 47
L 941 47
L 941 47
L 941 47
L 941 47
L 941 47
L 941 47
L 941 47
L 941 47
L 941 47
L 941 47
L 941 47
L 941 47
L 941 47
L 941 47
L 941 47
L 941 47
L 941 47
L 941 47
L 941 46
L 941 46
L 941 46
L 941 46
L 941 46
L 941 46
L 941 46
L 941 46
L 941 46
L 941 46
L 941 46
L 941 46
L 941 46
L 941 46
L 941 46
L 941 46
L 941 46
L 941 46
L 941 46
L 941 46
L 941 46
L 941 46
L 941 46
L 941 46
L 941 46
L 941 46
L 941 46
L 941 46
L 941 45
L 941 45
L 941 45
L 941 45
L 941 45
L 941 45
L 941 45
L 941 45
L 941 45
L 941 45
L 941 45
L 941 45
L 941 45
L 941 45
L 941 45
L 941 45
L 941 45
L 941 45
L 941 45
L 941 45
L 941 45
L 941 45
L 941 45
L 941 45
L 941 45
L 941 45
L 941 45
L 941 45
L 941 45
L 941 44
L 941 44
L 941 44
L 941 44
L 941 44
L 941 44
L 941 44
L 941 44
L 941 44
L 941 44
L 941 44
L 941 44
L 941 44
L 941 44
L 941 44
L 941 44
L 941 44
L 941 44
L 941 44
L 941 44
L 941 44
L 941 44
L 941 44
L 941 44
L 941 44
L 941 44
L 942 44
L 942 44
L 942 43
L 942 43
L 942 43
L 942 43
L 942 43
L 942 43
L 942 43
L 942 43
L 942 43
L 942 43
L 942 43
L 942 43
L 942 43
L 942 43
L 942 43
L 942 43
L 942 43
L 942 43
L 942 43
L 942 43
L 942 43
L 942 43
L 942 43
L 942 43
L 942 43
L 942 43
L 942 43
L 942 43
L 942 42
L 942 42
L 942 42
L 942 42
L 942 42
L 942 42
L 942 42
L 942 42
L 942 42
L 942 42
L 942 42
L 942 42
L 942 42
L 942 42
L 942 42
L 942 42
L 942 42
L 942 42
L 942 42
L 942 42
L 942 42
L 942 42
L 942 42
L 942 42
L 942 42
L 942 42
L 942 42
L 942 42
L 942 41
L 942 41
L 942 41
L 942 41
L 942 41
L 942 41
L 942 41
L 942 41
L 942 41
L 942 41
L 942 41
L 942 41
L 942 41
L 942 41
L 942 41
L 942 41
L 942 41
L 942 41
L 942 41
L 942 41
L 942 41
L 942 41
L 942 41
L 942 41
L 942 41
L 942 41
L 942 41
L 942 41
L 942 40
L 942 40
L 942 40
L 942 40
L 942 40
L 942 40
L 942 40
L 942 40
L 942 40
L 942 40
L 942 40
L 942 40
L 942 40
L 942 40
L 942 40
L 942 40
L 942 40
L 942 40
L 942 40
L 942 40
L 942 40
L 942 40
L 942 40
L 942 40
L 942 40
L 942 40
L 942 40
L 942 40
L 942 40
L 942 39
L 942 39
L 942 39
L 942 39
L 942 39
L 942 39
L 942 39
L 942 39
L 942 39
L 942 39
L 942 39
L 942 39
L 942 39
L 942 39
L 942 39
L 942 39
L 942 39
L 942 39
L 942 39
L 942 39
L 942 39
L 942 39
L 942 39
L 942 39
L 942 39
L 942 39
L 942 39
L 942 39
L 942 38
L 942 38
L 942 38
L 942 38
L 942 38
L 942 38
L 942 38
L 942 38
L 942 38
L 942 38
L 942 38
L 942 38
L 942 38
L 942 38
L 942 38
L 942 38
L 942 38
L 942 38
L 942 38
L 942 38
L 942 38
L 942 38
L 942 38
L 942 38
L 942 38
L 942 38
L 942 38
L 942 38
L 942 37
L 942 37
L 942 37
L 942 37
L 942 37
L 942 37
L 942 37
L 942 37
L 942 37
L 942 37
L 942 37
L 942 37
L 942 37
L 942 37
L 942 37
L 942 37
L 942 37
L 942 37
L 942 37
L 942 37
L 942 37
L 942 37
L 942 37
L 942 37
L 942 37
L 942 37
L 942 37
L 942 37
L 942 36
L 942 36
L 942 36
L 942 36
L 942 36
L 942 36
L 942 36
L 942 36
L 942 36
L 942 36
L 942 36
L 942 36
L 942 36
L 942 36
L 942 36
L 942 36
L 942 36
L 942 36
L 942 36
L 942 36
L 942 36
L 942 36
L 942 36
L 942 36
L 942 36
L 942 36
L 942 36
L 942 36
L 942 36
L 942 35
L 942 35
L 942 35
L 942 35
L 942 35
L 942 35
L 942 35
L 942 35
L 942 35
L 942 35
L 943 35
L 943 35
L 943 35
L 943 35
L 943 35
L 943 35
L 943 35
L 943 35
L 943 35
L 943 35
L 943 35
L 943 35
L 943 35
L 943 35
L 943 35
L 943 35
L 943 35
L 943 35
L 943 34
L 943 34
L 943 34
L 943 34
L 943 34
L 943 34
L 943 34
L 943 34
L 943 34
L 943 34
L 943 34
L 943 34
L 943 34
L 943 34
L 943 34
L 943 34
L 943 34
L 943 34
L 943 34
L 943 34
L 943 34
L 943 34
L 943 34
L 943 34
L 943 34
L 943 34
L 943 34
L 943 34
L 943 33
L 943 33
L 943 33
L 943 33
L 943 33
L 943 33
L 943 33
L 943 33
L 943 33
L 943 33
L 943 33
L 943 33
L 943 33
L 943 33
L 943 33
L 943 33
L 943 33
L 943 33
L 943 33
L 943 33
L 943 33
L 943 33
L 943 33
L 943 33
L 943 33
L 943 33
L 943 33
L 943 33
L 943 32
L 943 32
L 943 32
L 943 32
L 943 32
L 943 32
L 943 32
L 943 32
L 943 32
L 943 32
L 943 32
L 943 32
L 943 32
L 943 32
L 943 32
L 943 32
L 943 32
L 943 32
L 943 32
L 943 32
L 943 32
L 943 32
L 943 32
L 943 32
L 943 32
L 943 32
L 943 32
L 943 32
L 943 32
L 943 31
L 943 31
L 943 31
L 943 31
L 943 31
L 943 31
L 943 31
L 943 31
L 943 31
L 943 31
L 943 31
L 943 31
L 943 31
L 943 31
L 943 31
L 943 31
L 943 31
L 943 31
L 943 31
L 943 31
L 943 31
L 943 31
L 943 31
L 943 31
L 943 31
L 943 31
L 943 31
L 943 31
L 943 30
L 943 30
L 943 30
L 943 30
L 943 30
L 943 30
L 943 30
L 943 30
L 943 30
L 943 30
L 943 30
L 943 30
L 943 30
L 943 30
L 943 30
L 943 30
L 943 30
L 943 30
L 943 30
L 943 30
L 943 30
L 943 30
L 943 30
L 943 30
L 943 30
L 943 30
L 943 30
L 943 30
L 943 29
L 943 29
L 943 29
L 943 29
L 943 29
L 943 29
L 943 29
L 943 29
L 943 29
L 943 29
L 943 29
L 943 29
L 943 29
L 943 29
L 943 29
L 943 29
L 943 29
L 943 29
L 943 29
L 943 29
L 943 29
L 943 29
L 943 29
L 943 29
L 943 29
L 943 29
L 943 29
L 943 29
L 943 28
L 943 28
L 943 28
L 943 28
L 943 28
L 943 28
L 943 28
L 943 28
L 943 28
L 943 28
L 943 28
L 943 28
L 943 28
L 943 28
L 943 28
L 943 28
L 943 28
L 943 28
L 943 28
L 943 28
L 943 28
L 943 28
L 943 28
L 943 28
L 943 28
L 943 28
L 943 28
L 943 28
L 943 28
L 943 27
L 943 27
L 943 27
L 943 27
L 943 27
L 943 27
L 943 27
L 943 27
L 943 27
L 943 27
L 943 27
L 943 27
L 943 27
L 943 27
L 943 27
L 943 27
L 943 27
L 943 27
L 943 27
L 943 27
L 943 27
L 943 27
L 943 27
L 943 27
L 943 27
L 943 27
L 943 27
L 943 27
L 943 26
L 943 26
L 943 26
L 943 26
L 943 26
L 943 26
L 943 26
L 943 26
L 943 26
L 943 26
L 943 26
L 943 26
L 943 26
L 943 26
L 943 26
L 943 26
L 943 26
L 943 26
L 943 26
L 943 26
L 943 26
L 943 26
L 943 26
L 943 26
L 943 26
L 943 26
L 943 26
L 943 26
L 943 25
L 943 25
L 943 25
L 943 25
L 943 25
L 943 25
L 943 25
L 943 25
L 943 25
L 943 25
L 943 25
L 943 25
L 943 25
L 943 25
L 943 25
L 943 25
L 943 25
L 943 25
L 943 25
L 943 25
L 943 25
L 943 25
L 943 25
L 943 25
L 943 25
L 943 25
L 943 25
L 943 25
L 943 24
L 943 24
L 943 24
L 943 24
L 943 24
L 943 24
L 943 24
L 943 24
L 944 24
L 944 24
L 944 24
L 944 24
L 944 24
L 944 24
L 944 24
L 944 24
L 944 24
L 944 24
L 944 24
L 944 24
L 944 24
L 944 24
L 944 24
L 944 24
L 944 24
L 944 24
L 944 24
L 944 24
L 944 23
L 944 23
L 944 23
L 944 23
L 944 23
L 944 23
L 944 23
L 944 23
L 944 23
L 944 23
L 944 23
L 944 23
L 944 23
L 944 23
L 944 23
L 944 23
L 944 23
L 944 23
L 944 23
L 944 23
L 944 23
L 944 23
L 944 23
L 944 23
L 944 23
L 944 23
L 944 23
L 944 23
L 944 23
L 944 22
L 944 22
L 944 22
L 944 22
L 944 22
L 944 22
L 944 22
L 944 22
L 945 22
L 945 22
L 945 22
L 945 22
L 945 22
L 945 22
L 945 22
L 945 22
L 945 22
L 945 22
L 945 22
L 945 22
L 945 22
L 945 22
L 945 22
L 945 22
L 945 22
L 945 22
L 945 22
L 945 22
L 945 21
L 945 21
L 945 21
L 945 21
L 945 21
L 945 21
L 945 21
L 945 21
L 945 21
L 945 21
L 945 21
L 945 21
L 945 21
L 945 21
L 945 21
L 945 21
L 945 21
L 945 21
L 945 21
L 945 21
L 945 21
L 945 21
L 945 21
L 946 21
L 946 21
L 946 21
L 946 21
L 946 21
L 946 20
L 946 20
L 946 20
L 946 20
L 946 20
L 946 20
L 946 20
L 946 20
L 946 20
L 946 20
L 946 20
L 946 20
L 946 20
L 946 20
L 946 20
L 946 20
L 946 20
L 946 20
L 946 20
L 946 20
L 946 20
L 946 20
L 946 20
L 946 20
L 946 20
L 946 20
L 946 20
L 946 20
L 946 19
L 946 19
L 946 19
L 946 19
L 946 19
L 946 19
L 946 19
L 947 19
L 947 19
L 947 19
L 947 19
L 947 19
L 947 19
L 947 19
L 947 19
L 947 19
L 947 19
L 947 19
L 947 19
L 947 19
L 947 19
L 947 19
L 947 19
L 947 19
L 947 19
L 947 19
L 948 19
L 948 19
L 948 19
L 948 18
L 948 18
L 948 18
L 948 18
L 948 18
L 948 18
L 948 18
L 948 18
L 948 18
L 948 18
L 948 18
L 948 18
L 948 18
L 948 18
L 948 18
L 948 18
L 948 18
L 948 18
L 948 18
L 949 18
L 949 18
L 949 18
L 949 18
L 949 18
L 949 18
L 949 18
L 949 18
L 949 18
L 949 17
L 949 17
L 949 17
L 949 17
L 949 17
L 949 17
L 949 17
L 949 17
L 949 17
L 949 17
L 950 17
L 950 17
L 950 17
L 950 17
L 950 17
L 950 17
L 950 17
L 950 17
L 950 17
L 950 17
L 950 17
L 950 17
L 950 17
L 950 17
L 950 17
L 950 17
L 950 17
L 950 17
L 950 16
L 950 16
L 950 16
L 950 16
L 951 16
L 951 16
L 951 16
L 951 16
L 951 16
L 951 16
L 951 16
L 951 16
L 951 16
L 951 16
L 952 16
L 952 16
L 952 16
L 952 16
L 952 16
L 952 16
L 952 16
L 952 16
L 952 16
L 952 16
L 953 16
L 953 16
L 953 16
L 953 16
L 953 15
L 953 15
L 953 15
L 953 15
L 953 15
L 953 15
L 953 15
L 953 15
L 954 15
L 954 15
L 954 15
L 954 15
L 954 15
L 954 15
L 954 15
L 954 15
L 954 15
L 954 15
L 954 15
L 954 15
L 954 15
L 954 15
L 954 15
L 954 15
L 954 15
L 954 15
L 954 15
L 954 15
L 954 15
L 954 14
L 954 14
L 955 14
L 955 14
L 955 14
L 955 14
L 955 14
L 955 14
L 955 14
L 955 14
L 955 14
L 955 14
L 955 14
L 955 14
L 955 14
L 955 14
L 955 14
L 955 14
L 955 14
L 955 14
L 955 14
L 955 14
L 956 14
L 956 14
L 956 14
L 956 14
L 956 14
L 956 14
L 956 13
L 956 13
L 956 13
L 956 13
L 956 13
L 956 13
L 957 13
L 957 13
L 957 13
L 957 13
L 957 13
L 957 13
L 957 13
L 957 13
L 957 13
L 957 13
L 957 13
L 957 13
L 957 13
L 957 13
L 957 13" style="stroke-width:2;stroke:rgba(129,199,239,1.0);fill:none"/></svg>