<!-- stars: 9429 -->
<svg xmlns="http://www.w3.org/2000/svg" xmlns:xlink="http://www.w3.org/1999/xlink" width="1024" height="400">\n<path  d="M 0 0
L 1024 0
L 1024 400
L 0 400
L 0 0" style="stroke-width:0;stroke:rgba(255,255,255,1.0);fill:rgba(255,255,255,1.0)"/><path  d="M 38 11
L 957 11
L 957 351
L 38 351
L 38 11" style="stroke-width:0;stroke:rgba(255,255,255,1.0);fill:rgba(255,255,255,1.0)"/><path  d="M 38 351
L 957 351" style="stroke-width:2;stroke:rgba(85,85,85,1.0);fill:none"/><path  d="M 38 351
L 38 356" style="stroke-width:2;stroke:rgba(85,85,85,1.0);fill:none"/><text x="5" y="373" style="stroke-width:0;stroke:none;fill:rgba(51,51,51,1.0);font-size:12.8px;font-family:'Roboto Medium',sans-serif">2018-09-25</text><path  d="M 153 351
L 153 356" style="stroke-width:2;stroke:rgba(85,85,85,1.0);fill:none"/><text x="120" y="373" style="stroke-width:0;stroke:none;fill:rgba(51,51,51,1.0);font-size:12.8px;font-family:'Roboto Medium',sans-serif">2019-02-20</text><path  d="M 268 351
L 268 356" style="stroke-width:2;stroke:rgba(85,85,85,1.0);fill:none"/><text x="235" y="373" style="stroke-width:0;stroke:none;fill:rgba(51,51,51,1.0);font-size:12.8px;font-family:'Roboto Medium',sans-serif">2019-07-17</text><path  d="M 383 351
L 383 356" style="stroke-width:2;stroke:rgba(85,85,85,1.0);fill:none"/><text x="350" y="373" style="stroke-width:0;stroke:none;fill:rgba(51,51,51,1.0);font-size:12.8px;font-family:'Roboto Medium',sans-serif">2019-12-12</text><path  d="M 498 351
L 498 356" style="stroke-width:2;stroke:rgba(85,85,85,1.0);fill:none"/><text x="465" y="373" style="stroke-width:0;stroke:none;fill:rgba(51,51,51,1.0);font-size:12.8px;font-family:'Roboto Medium',sans-serif">2020-05-08</text><path  d="M 613 351
L 613 356" style="stroke-width:2;stroke:rgba(85,85,85,1.0);fill:none"/><text x="580" y="373" style="stroke-width:0;stroke:none;fill:rgba(51,51,51,1.0);font-size:12.8px;font-family:'Roboto Medium',sans-serif">2020-10-03</text><path  d="M 728 351
L 728 356" style="stroke-width:2;stroke:rgba(85,85,85,1.0);fill:none"/><text x="695" y="373" style="stroke-width:0;stroke:none;fill:rgba(51,51,51,1.0);font-size:12.8px;font-family:'Roboto Medium',sans-serif">2021-02-28</text><path  d="M 843 351
L 843 356" style="stroke-width:2;stroke:rgba(85,85,85,1.0);fill:none"/><text x="810" y="373" style="stroke-width:0;stroke:none;fill:rgba(51,51,51,1.0);font-size:12.8px;font-family:'Roboto Medium',sans-serif">2021-07-26</text><path  d="M 957 351
L 957 356" style="stroke-width:2;stroke:rgba(85,85,85,1.0);fill:none"/><text x="924" y="373" style="stroke-width:0;stroke:none;fill:rgba(51,51,51,1.0);font-size:12.8px;font-family:'Roboto Medium',sans-serif">2021-12-21</text><text x="483" y="395" style="stroke-width:0;stroke:none;fill:rgba(51,51,51,1.0);font-size:12.8px;font-family:'Roboto Medium',sans-serif">Time</text><path  d="M 959 351
L 959 11" style="stroke-width:2;stroke:rgba(85,85,85,1.0);fill:none"/><path  d="M 959 351
L 964 351" style="stroke-width:2;stroke:rgba(85,85,85,1.0);fill:none"/><text x="969" y="357" style="stroke-width:0;stroke:none;fill:rgba(51,51,51,1.0);font-size:12.8px;font-family:'Roboto Medium',sans-serif">0</text><path  d="M 959 308
L 964 308" style="stroke-width:2;stroke:rgba(85,85,85,1.0);fill:none"/><text x="969" y="314" style="stroke-width:0;stroke:none;fill:rgba(51,51,51,1.0);font-size:12.8px;font-family:'Roboto Medium',sans-serif">1190</text><path  d="M 959 265
L 964 265" style="stroke-width:2;stroke:rgba(85,85,85,1.0);fill:none"/><text x="969" y="271" style="stroke-width:0;stroke:none;fill:rgba(51,51,51,1.0);font-size:12.8px;font-family:'Roboto Medium',sans-serif">2380</text><path  d="M 959 223
L 964 223" style="stroke-width:2;stroke:rgba(85,85,85,1.0);fill:none"/><text x="969" y="229" style="stroke-width:0;stroke:none;fill:rgba(51,51,51,1.0);font-size:12.8px;font-family:'Roboto Medium',sans-serif">3570</text><path  d="M 959 181
L 964 181" style="stroke-width:2;stroke:rgba(85,85,85,1.0);fill:none"/><text x="969" y="187" style="stroke-width:0;stroke:none;fill:rgba(51,51,51,1.0);font-size:12.8px;font-family:'Roboto Medium',sans-serif">4750</text><path  d="M 959 138
L 964 138" style="stroke-width:2;stroke:rgba(85,85,85,1.0);fill:none"/><text x="969" y="144" style="stroke-width:0;stroke:none;fill:rgba(51,51,51,1.0);font-size:12.8px;font-family:'Roboto Medium',sans-serif">5940</text><path  d="M 959 95
L 964 95" style="stroke-width:2;stroke:rgba(85,85,85,1.0);fill:none"/><text x="969" y="101" style="stroke-width:0;stroke:none;fill:rgba(51,51,51,1.0);font-size:12.8px;font-family:'Roboto Medium',sans-serif">7130</text><path  d="M 959 53
L 964 53" style="stroke-width:2;stroke:rgba(85,85,85,1.0);fill:none"/><text x="969" y="59" style="stroke-width:0;stroke:none;fill:rgba(51,51,51,1.0);font-size:12.8px;font-family:'Roboto Medium',sans-serif">8320</text><path  d="M 959 11
L 964 11" style="stroke-width:2;stroke:rgba(85,85,85,1.0);fill:none"/><text x="969" y="17" style="stroke-width:0;stroke:none;fill:rgba(51,51,51,1.0);font-size:12.8px;font-family:'Roboto Medium',sans-serif">9500</text><text x="1009" y="150" style="stroke-width:0;stroke:none;fill:rgba(51,51,51,1.0);font-size:12.8px;font-family:'Roboto Medium',sans-serif" transform="rotate(90.00,1009,150)">Stargazers</text><path  d="M 38 351
L 40 350
L 50 350
L 50 350
L 51 350
L 51 350
L 51 350
L 54 350
L 54 350
L 55 350
L 57 350
L 57 350
L 58 350
L 58 350
L 58 350
L 58 350
L 60 350
L 67 350
L 67 350
L 69 350
L 69 350
L 70 350
L 72 350
L 72 350
L 73 350
L 74 350
L 78 350
L 82 350
L 88 349
L 88 349
L 93 349
L 93 349
L 93 349
L 93 349
L 94 349
L 94 349
L 94 349
L 94 349
L 94 349
L 95 349
L 95 349
L 96 349
L 98 349
L 98 349
L 98 349
L 99 349
L 99 349
L 99 349
L 100 349
L 101 349
L 102 349
L 103 349
L 103 349
L 105 349
L 106 349
L 107 349
L 107 348
L 108 348
L 109 348
L 110 348
L 110 348
L 110 348
L 110 348
L 111 348
L 111 348
L 111 348
L 111 348
L 112 348
L 112 348
L 112 348
L 112 348
L 112 348
L 113 348
L 114 348
L 114 348
L 114 348
L 116 348
L 116 348
L 117 348
L 117 348
L 119 348
L 119 348
L 119 348
L 119 348
L 119 347
L 120 347
L 121 347
L 121 347
L 122 347
L 122 347
L 122 347
L 122 347
L 124 347
L 126 347
L 126 347
L 126 347
L 126 347
L 126 347
L 128 347
L 130 347
L 132 347
L 132 347
L 133 347
L 133 347
L 133 347
L 140 347
L 143 347
L 147 347
L 148 347
L 149 347
L 149 347
L 150 347
L 150 346
L 151 346
L 152 346
L 153 346
L 153 346
L 153 346
L 153 346
L 154 346
L 154 346
L 154 346
L 155 346
L 157 346
L 158 346
L 160 346
L 160 346
L 163 346
L 163 346
L 164 346
L 164 346
L 165 346
L 165 346
L 166 346
L 166 346
L 167 346
L 168 346
L 168 346
L 170 346
L 171 346
L 172 345
L 173 345
L 174 345
L 175 345
L 175 345
L 175 345
L 175 345
L 176 345
L 177 345
L 180 345
L 181 345
L 181 345
L 181 345
L 181 345
L 182 345
L 182 345
L 182 345
L 183 345
L 183 345
L 183 345
L 185 345
L 185 345
L 185 345
L 185 345
L 185 345
L 185 345
L 185 345
L 186 345
L 186 344
L 186 344
L 186 344
L 186 344
L 186 344
L 186 344
L 186 344
L 187 344
L 187 344
L 187 344
L 188 344
L 190 344
L 190 344
L 190 344
L 191 344
L 191 344
L 192 344
L 192 344
L 192 344
L 192 344
L 192 344
L 192 344
L 193 344
L 193 344
L 194 344
L 196 344
L 196 344
L 197 344
L 199 343
L 199 343
L 201 343
L 202 343
L 202 343
L 202 343
L 203 343
L 203 343
L 203 343
L 203 343
L 203 343
L 205 343
L 205 343
L 206 343
L 206 343
L 207 343
L 207 343
L 207 343
L 208 343
L 208 343
L 209 343
L 209 343
L 210 343
L 210 343
L 211 343
L 212 343
L 213 343
L 214 343
L 214 342
L 215 342
L 215 342
L 215 342
L 216 342
L 216 342
L 219 342
L 220 342
L 223 342
L 224 342
L 225 342
L 226 342
L 228 342
L 228 342
L 228 342
L 230 342
L 234 342
L 234 342
L 234 342
L 235 342
L 235 342
L 236 342
L 236 342
L 236 342
L 236 342
L 237 342
L 242 342
L 245 342
L 246 341
L 246 341
L 246 341
L 246 341
L 246 341
L 246 341
L 246 341
L 246 341
L 246 341
L 247 341
L 248 341
L 250 341
L 251 341
L 251 341
L 252 341
L 253 341
L 253 341
L 254 341
L 255 341
L 255 341
L 256 341
L 256 341
L 256 341
L 256 341
L 256 341
L 257 341
L 257 341
L 257 341
L 258 340
L 258 340
L 258 340
L 259 340
L 259 340
L 259 340
L 259 340
L 260 340
L 260 340
L 260 340
L 261 340
L 262 340
L 263 340
L 264 340
L 264 340
L 265 340
L 266 340
L 266 340
L 267 340
L 267 340
L 269 340
L 271 340
L 272 340
L 272 340
L 275 340
L 276 340
L 276 340
L 278 340
L 278 339
L 278 339
L 279 339
L 283 339
L 287 339
L 287 339
L 289 339
L 290 339
L 292 339
L 293 339
L 296 339
L 298 339
L 298 339
L 298 339
L 299 339
L 302 339
L 307 339
L 307 339
L 307 339
L 307 339
L 308 339
L 318 339
L 318 339
L 319 339
L 320 339
L 320 339
L 320 339
L 320 339
L 320 338
L 320 338
L 320 338
L 320 338
L 321 338
L 321 338
L 321 338
L 323 338
L 325 338
L 325 338
L 326 338
L 331 338
L 333 338
L 334 338
L 335 338
L 335 338
L 336 338
L 336 338
L 338 338
L 338 338
L 338 338
L 338 338
L 339 338
L 339 338
L 340 338
L 342 338
L 343 338
L 343 338
L 344 337
L 348 337
L 359 337
L 360 337
L 363 337
L 366 337
L 366 337
L 368 337
L 370 337
L 370 337
L 370 337
L 371 337
L 371 337
L 372 337
L 372 337
L 375 337
L 376 337
L 378 337
L 379 337
L 383 337
L 383 337
L 383 337
L 389 337
L 391 337
L 391 337
L 393 337
L 393 337
L 393 337
L 394 336
L 394 336
L 394 336
L 394 336
L 394 336
L 394 336
L 395 336
L 397 336
L 397 336
L 401 336
L 402 336
L 404 336
L 407 336
L 407 336
L 408 336
L 408 336
L 408 336
L 409 336
L 410 336
L 413 336
L 413 336
L 418 336
L 418 336
L 419 336
L 419 336
L 421 336
L 423 336
L 425 336
L 427 335
L 431 335
L 432 335
L 433 335
L 433 335
L 436 335
L 443 335
L 445 335
L 447 335
L 448 335
L 449 335
L 449 335
L 450 335
L 451 335
L 451 335
L 451 335
L 453 335
L 453 335
L 453 335
L 453 335
L 453 335
L 453 335
L 455 335
L 455 335
L 456 335
L 456 335
L 457 335
L 458 335
L 458 334
L 458 334
L 458 334
L 458 334
L 459 334
L 459 334
L 459 334
L 459 334
L 459 334
L 459 334
L 460 334
L 461 334
L 461 334
L 463 334
L 463 334
L 464 334
L 464 334
L 464 334
L 464 334
L 465 334
L 466 334
L 466 334
L 466 334
L 466 334
L 467 334
L 467 334
L 467 334
L 468 334
L 468 333
L 468 333
L 470 333
L 471 333
L 472 333
L 473 333
L 473 333
L 473 333
L 473 333
L 473 333
L 474 333
L 474 333
L 475 333
L 475 333
L 475 333
L 475 333
L 475 333
L 475 333
L 475 333
L 475 333
L 475 333
L 475 333
L 475 333
L 475 333
L 476 333
L 476 333
L 476 333
L 476 332
L 477 332
L 477 332
L 478 332
L 478 332
L 478 332
L 478 332
L 478 332
L 479 332
L 480 332
L 480 332
L 481 332
L 481 332
L 481 332
L 482 332
L 484 332
L 484 332
L 484 332
L 484 332
L 484 332
L 484 332
L 484 332
L 484 332
L 484 332
L 484 332
L 484 332
L 484 332
L 484 332
L 484 331
L 484 331
L 484 331
L 484 331
L 484 331
L 484 331
L 484 331
L 484 331
L 484 331
L 484 331
L 484 331
L 484 331
L 485 331
L 485 331
L 485 331
L 485 331
L 485 331
L 485 331
L 485 331
L 486 331
L 486 331
L 486 331
L 486 331
L 486 331
L 487 331
L 487 331
L 487 331
L 487 331
L 488 330
L 488 330
L 489 330
L 489 330
L 489 330
L 490 330
L 490 330
L 490 330
L 490 330
L 490 330
L 490 330
L 491 330
L 491 330
L 491 330
L 491 330
L 492 330
L 493 330
L 494 330
L 494 330
L 495 330
L 496 330
L 496 330
L 497 330
L 497 330
L 497 330
L 497 330
L 497 330
L 497 330
L 497 329
L 498 329
L 498 329
L 498 329
L 499 329
L 499 329
L 500 329
L 500 329
L 501 329
L 501 329
L 501 329
L 502 329
L 502 329
L 502 329
L 502 329
L 503 329
L 503 329
L 503 329
L 504 329
L 504 329
L 504 329
L 504 329
L 504 329
L 505 329
L 506 329
L 506 329
L 507 329
L 508 329
L 508 328
L 508 328
L 508 328
L 509 328
L 509 328
L 510 328
L 510 328
L 510 328
L 510 328
L 511 328
L 511 328
L 511 328
L 512 328
L 512 328
L 513 328
L 513 328
L 513 328
L 513 328
L 513 328
L 513 328
L 514 328
L 514 328
L 514 328
L 514 328
L 514 328
L 514 328
L 515 328
L 515 328
L 515 327
L 516 327
L 517 327
L 517 327
L 517 327
L 517 327
L 518 327
L 518 327
L 518 327
L 519 327
L 520 327
L 520 327
L 520 327
L 520 327
L 520 327
L 520 327
L 520 327
L 520 327
L 520 327
L 520 327
L 521 327
L 521 327
L 521 327
L 521 327
L 521 327
L 521 327
L 521 327
L 521 327
L 521 326
L 521 326
L 522 326
L 522 326
L 522 326
L 522 326
L 522 326
L 523 326
L 524 326
L 524 326
L 525 326
L 525 326
L 525 326
L 526 326
L 526 326
L 526 326
L 526 326
L 527 326
L 527 326
L 527 326
L 527 326
L 527 326
L 527 326
L 527 326
L 527 326
L 527 326
L 528 326
L 528 326
L 528 325
L 528 325
L 528 325
L 528 325
L 528 325
L 528 325
L 528 325
L 529 325
L 529 325
L 529 325
L 529 325
L 529 325
L 529 325
L 529 325
L 530 325
L 530 325
L 530 325
L 530 325
L 530 325
L 531 325
L 531 325
L 531 325
L 531 325
L 531 325
L 531 325
L 531 325
L 532 325
L 532 325
L 533 324
L 533 324
L 533 324
L 533 324
L 534 324
L 534 324
L 535 324
L 536 324
L 536 324
L 536 324
L 536 324
L 537 324
L 537 324
L 537 324
L 537 324
L 538 324
L 538 324
L 538 324
L 538 324
L 538 324
L 539 324
L 540 324
L 540 324
L 540 324
L 540 324
L 540 324
L 540 324
L 541 324
L 541 323
L 541 323
L 541 323
L 541 323
L 541 323
L 542 323
L 542 323
L 543 323
L 543 323
L 543 323
L 544 323
L 544 323
L 544 323
L 544 323
L 545 323
L 546 323
L 546 323
L 546 323
L 546 323
L 547 323
L 547 323
L 548 323
L 548 323
L 549 323
L 549 323
L 550 323
L 550 323
L 550 323
L 550 322
L 551 322
L 551 322
L 551 322
L 551 322
L 552 322
L 552 322
L 552 322
L 552 322
L 552 322
L 553 322
L 553 322
L 553 322
L 554 322
L 554 322
L 554 322
L 554 322
L 554 322
L 554 322
L 555 322
L 555 322
L 555 322
L 555 322
L 555 322
L 556 322
L 556 322
L 557 322
L 557 322
L 557 321
L 558 321
L 558 321
L 558 321
L 558 321
L 558 321
L 559 321
L 559 321
L 559 321
L 560 321
L 560 321
L 560 321
L 560 321
L 560 321
L 560 321
L 561 321
L 561 321
L 561 321
L 561 321
L 561 321
L 561 321
L 561 321
L 561 321
L 562 321
L 562 321
L 562 321
L 562 321
L 562 321
L 562 320
L 562 320
L 563 320
L 563 320
L 563 320
L 563 320
L 563 320
L 563 320
L 564 320
L 564 320
L 564 320
L 565 320
L 565 320
L 565 320
L 565 320
L 565 320
L 567 320
L 567 320
L 567 320
L 567 320
L 567 320
L 568 320
L 568 320
L 568 320
L 568 320
L 568 320
L 568 320
L 568 320
L 570 319
L 570 319
L 570 319
L 570 319
L 570 319
L 571 319
L 571 319
L 571 319
L 571 319
L 571 319
L 572 319
L 572 319
L 572 319
L 572 319
L 572 319
L 573 319
L 573 319
L 573 319
L 574 319
L 574 319
L 574 319
L 574 319
L 574 319
L 575 319
L 576 319
L 576 319
L 576 319
L 576 319
L 576 318
L 576 318
L 577 318
L 577 318
L 577 318
L 577 318
L 578 318
L 578 318
L 578 318
L 578 318
L 579 318
L 579 318
L 579 318
L 579 318
L 579 318
L 580 318
L 580 318
L 581 318
L 582 318
L 582 318
L 583 318
L 583 318
L 584 318
L 584 318
L 586 318
L 586 318
L 587 318
L 587 318
L 587 317
L 588 317
L 588 317
L 588 317
L 589 317
L 589 317
L 590 317
L 590 317
L 590 317
L 591 317
L 591 317
L 591 317
L 591 317
L 592 317
L 592 317
L 592 317
L 593 317
L 593 317
L 593 317
L 593 317
L 594 317
L 594 317
L 595 317
L 595 317
L 595 317
L 595 317
L 595 317
L 595 317
L 595 316
L 595 316
L 595 316
L 595 316
L 596 316
L 596 316
L 596 316
L 597 316
L 597 316
L 597 316
L 597 316
L 597 316
L 598 316
L 598 316
L 598 316
L 598 316
L 600 316
L 600 316
L 600 316
L 602 316
L 602 316
L 602 316
L 603 316
L 604 316
L 604 316
L 604 316
L 605 316
L 605 315
L 605 315
L 605 315
L 606 315
L 608 315
L 608 315
L 608 315
L 608 315
L 608 315
L 608 315
L 608 315
L 609 315
L 609 315
L 609 315
L 610 315
L 610 315
L 610 315
L 610 315
L 610 315
L 610 315
L 610 315
L 612 315
L 613 315
L 614 315
L 615 315
L 616 315
L 617 315
L 617 315
L 617 314
L 618 314
L 618 314
L 618 314
L 619 314
L 619 314
L 619 314
L 619 314
L 620 314
L 620 314
L 620 314
L 620 314
L 620 314
L 620 314
L 620 314
L 620 314
L 620 314
L 621 314
L 621 314
L 621 314
L 621 314
L 621 314
L 622 314
L 622 314
L 622 314
L 622 314
L 622 314
L 622 314
L 623 313
L 623 313
L 623 313
L 623 313
L 623 313
L 623 313
L 623 313
L 625 313
L 625 313
L 625 313
L 625 313
L 626 313
L 626 313
L 626 313
L 626 313
L 627 313
L 627 313
L 627 313
L 627 313
L 627 313
L 628 313
L 628 313
L 628 313
L 628 313
L 628 313
L 629 313
L 630 313
L 630 313
L 630 312
L 631 312
L 631 312
L 631 312
L 631 312
L 631 312
L 631 312
L 631 312
L 631 312
L 631 312
L 631 312
L 631 312
L 631 312
L 632 312
L 632 312
L 632 312
L 632 312
L 632 312
L 632 312
L 632 312
L 632 312
L 632 312
L 633 312
L 633 312
L 633 312
L 633 312
L 633 312
L 633 312
L 633 311
L 633 311
L 633 311
L 633 311
L 633 311
L 634 311
L 634 311
L 634 311
L 634 311
L 634 311
L 634 311
L 634 311
L 634 311
L 635 311
L 635 311
L 635 311
L 635 311
L 635 311
L 636 311
L 636 311
L 636 311
L 636 311
L 637 311
L 637 311
L 637 311
L 637 311
L 637 311
L 637 311
L 637 310
L 637 310
L 637 310
L 637 310
L 637 310
L 637 310
L 637 310
L 637 310
L 638 310
L 638 310
L 638 310
L 638 310
L 638 310
L 639 310
L 640 310
L 640 310
L 640 310
L 640 310
L 641 310
L 641 310
L 641 310
L 641 310
L 641 310
L 641 310
L 642 310
L 642 310
L 642 310
L 642 310
L 642 309
L 642 309
L 643 309
L 643 309
L 643 309
L 643 309
L 643 309
L 643 309
L 643 309
L 644 309
L 644 309
L 644 309
L 644 309
L 645 309
L 645 309
L 645 309
L 645 309
L 646 309
L 646 309
L 646 309
L 647 309
L 647 309
L 647 309
L 647 309
L 647 309
L 648 309
L 648 309
L 648 309
L 648 308
L 648 308
L 648 308
L 649 308
L 649 308
L 649 308
L 649 308
L 649 308
L 649 308
L 650 308
L 650 308
L 650 308
L 651 308
L 651 308
L 651 308
L 651 308
L 651 308
L 651 308
L 652 308
L 652 308
L 652 308
L 652 308
L 652 308
L 652 308
L 653 308
L 653 308
L 654 308
L 654 308
L 654 307
L 655 307
L 655 307
L 655 307
L 655 307
L 655 307
L 655 307
L 655 307
L 655 307
L 656 307
L 657 307
L 657 307
L 657 307
L 657 307
L 658 307
L 658 307
L 658 307
L 658 307
L 658 307
L 658 307
L 658 307
L 659 307
L 659 307
L 659 307
L 659 307
L 659 307
L 659 307
L 659 307
L 659 306
L 660 306
L 660 306
L 660 306
L 660 306
L 660 306
L 660 306
L 662 306
L 663 306
L 663 306
L 663 306
L 663 306
L 664 306
L 664 306
L 664 306
L 664 306
L 664 306
L 664 306
L 664 306
L 665 306
L 665 306
L 665 306
L 665 306
L 665 306
L 665 306
L 665 306
L 665 306
L 666 306
L 666 305
L 666 305
L 666 305
L 666 305
L 668 305
L 668 305
L 668 305
L 668 305
L 668 305
L 668 305
L 669 305
L 669 305
L 669 305
L 669 305
L 669 305
L 669 305
L 670 305
L 670 305
L 670 305
L 670 305
L 671 305
L 671 305
L 671 305
L 672 305
L 672 305
L 672 305
L 673 305
L 673 305
L 673 304
L 674 304
L 674 304
L 674 304
L 674 304
L 674 304
L 675 304
L 675 304
L 675 304
L 675 304
L 675 304
L 675 304
L 675 304
L 675 304
L 675 304
L 675 304
L 675 304
L 675 304
L 675 304
L 676 304
L 676 304
L 676 304
L 676 304
L 676 304
L 676 304
L 676 304
L 676 304
L 676 304
L 677 303
L 677 303
L 677 303
L 677 303
L 677 303
L 678 303
L 678 303
L 678 303
L 678 303
L 679 303
L 679 303
L 679 303
L 679 303
L 680 303
L 680 303
L 680 303
L 680 303
L 680 303
L 680 303
L 680 303
L 680 303
L 680 303
L 680 303
L 680 303
L 680 303
L 681 303
L 681 303
L 681 303
L 682 302
L 682 302
L 682 302
L 682 302
L 683 302
L 684 302
L 684 302
L 684 302
L 684 302
L 685 302
L 685 302
L 685 302
L 685 302
L 685 302
L 686 302
L 686 302
L 686 302
L 686 302
L 686 302
L 686 302
L 686 302
L 686 302
L 686 302
L 686 302
L 686 302
L 687 302
L 687 302
L 687 302
L 687 301
L 687 301
L 687 301
L 687 301
L 687 301
L 688 301
L 688 301
L 688 301
L 689 301
L 689 301
L 689 301
L 690 301
L 690 301
L 690 301
L 690 301
L 690 301
L 690 301
L 691 301
L 691 301
L 691 301
L 691 301
L 691 301
L 691 301
L 691 301
L 691 301
L 692 301
L 692 301
L 692 301
L 692 300
L 693 300
L 693 300
L 693 300
L 693 300
L 693 300
L 694 300
L 694 300
L 694 300
L 694 300
L 694 300
L 695 300
L 696 300
L 696 300
L 696 300
L 696 300
L 696 300
L 696 300
L 697 300
L 697 300
L 697 300
L 697 300
L 697 300
L 698 300
L 698 300
L 698 300
L 698 300
L 698 300
L 699 299
L 699 299
L 699 299
L 699 299
L 699 299
L 699 299
L 699 299
L 700 299
L 700 299
L 700 299
L 700 299
L 700 299
L 700 299
L 700 299
L 701 299
L 701 299
L 701 299
L 701 299
L 701 299
L 701 299
L 701 299
L 701 299
L 701 299
L 702 299
L 702 299
L 702 299
L 702 299
L 702 298
L 702 298
L 702 298
L 703 298
L 703 298
L 703 298
L 703 298
L 703 298
L 704 298
L 705 298
L 705 298
L 705 298
L 705 298
L 706 298
L 706 298
L 706 298
L 706 298
L 706 298
L 706 298
L 706 298
L 706 298
L 707 298
L 707 298
L 707 298
L 707 298
L 708 298
L 708 298
L 708 298
L 708 297
L 709 297
L 709 297
L 709 297
L 709 297
L 709 297
L 709 297
L 709 297
L 709 297
L 710 297
L 710 297
L 710 297
L 710 297
L 710 297
L 710 297
L 711 297
L 711 297
L 711 297
L 711 297
L 711 297
L 711 297
L 711 297
L 711 297
L 711 297
L 712 297
L 712 297
L 713 297
L 713 297
L 713 296
L 713 296
L 714 296
L 714 296
L 716 296
L 716 296
L 716 296
L 716 296
L 716 296
L 716 296
L 717 296
L 717 296
L 718 296
L 718 296
L 718 296
L 719 296
L 719 296
L 719 296
L 720 296
L 720 296
L 720 296
L 720 296
L 720 296
L 720 296
L 720 296
L 720 296
L 720 296
L 720 296
L 720 295
L 721 295
L 721 295
L 721 295
L 721 295
L 721 295
L 721 295
L 721 295
L 721 295
L 721 295
L 721 295
L 722 295
L 722 295
L 722 295
L 722 295
L 723 295
L 723 295
L 723 295
L 723 295
L 723 295
L 723 295
L 724 295
L 724 295
L 724 295
L 724 295
L 724 295
L 724 295
L 724 295
L 724 294
L 724 294
L 724 294
L 724 294
L 724 294
L 724 294
L 725 294
L 725 294
L 725 294
L 725 294
L 725 294
L 725 294
L 725 294
L 725 294
L 725 294
L 726 294
L 726 294
L 726 294
L 726 294
L 726 294
L 726 294
L 726 294
L 727 294
L 727 294
L 728 294
L 728 294
L 728 294
L 728 294
L 728 293
L 728 293
L 728 293
L 729 293
L 729 293
L 729 293
L 729 293
L 729 293
L 729 293
L 729 293
L 729 293
L 729 293
L 729 293
L 729 293
L 729 293
L 729 293
L 729 293
L 729 293
L 730 293
L 730 293
L 730 293
L 730 293
L 730 293
L 730 293
L 730 293
L 730 293
L 730 293
L 730 293
L 731 292
L 731 292
L 731 292
L 731 292
L 731 292
L 731 292
L 731 292
L 731 292
L 732 292
L 732 292
L 732 292
L 732 292
L 732 292
L 733 292
L 733 292
L 733 292
L 734 292
L 734 292
L 734 292
L 734 292
L 734 292
L 734 292
L 734 292
L 734 292
L 734 292
L 734 292
L 735 292
L 735 292
L 735 291
L 735 291
L 735 291
L 735 291
L 735 291
L 735 291
L 736 291
L 736 291
L 736 291
L 736 291
L 736 291
L 736 291
L 736 291
L 736 291
L 736 291
L 736 291
L 736 291
L 736 291
L 736 291
L 737 291
L 737 291
L 737 291
L 737 291
L 737 291
L 738 291
L 738 291
L 738 291
L 738 291
L 738 290
L 738 290
L 738 290
L 738 290
L 738 290
L 738 290
L 738 290
L 738 290
L 738 290
L 738 290
L 738 290
L 738 290
L 738 290
L 738 290
L 738 290
L 738 290
L 738 290
L 738 290
L 738 290
L 738 290
L 738 290
L 738 290
L 738 290
L 738 290
L 738 290
L 738 290
L 738 290
L 738 290
L 738 289
L 738 289
L 738 289
L 738 289
L 738 289
L 738 289
L 738 289
L 738 289
L 738 289
L 738 289
L 738 289
L 738 289
L 738 289
L 738 289
L 738 289
L 738 289
L 738 289
L 738 289
L 738 289
L 738 289
L 738 289
L 738 289
L 738 289
L 738 289
L 738 289
L 738 289
L 738 289
L 738 289
L 738 288
L 738 288
L 739 288
L 739 288
L 739 288
L 739 288
L 739 288
L 739 288
L 739 288
L 739 288
L 739 288
L 739 288
L 739 288
L 739 288
L 739 288
L 739 288
L 739 288
L 739 288
L 739 288
L 739 288
L 739 288
L 739 288
L 739 288
L 739 288
L 739 288
L 739 288
L 739 288
L 739 288
L 739 287
L 739 287
L 739 287
L 739 287
L 739 287
L 739 287
L 739 287
L 739 287
L 739 287
L 739 287
L 739 287
L 739 287
L 739 287
L 739 287
L 739 287
L 739 287
L 739 287
L 739 287
L 739 287
L 739 287
L 739 287
L 739 287
L 739 287
L 739 287
L 739 287
L 739 287
L 739 287
L 739 287
L 739 286
L 739 286
L 740 286
L 740 286
L 740 286
L 740 286
L 740 286
L 740 286
L 740 286
L 740 286
L 740 286
L 740 286
L 740 286
L 740 286
L 740 286
L 740 286
L 740 286
L 740 286
L 740 286
L 740 286
L 740 286
L 740 286
L 740 286
L 740 286
L 740 286
L 740 286
L 740 286
L 740 286
L 740 285
L 740 285
L 740 285
L 740 285
L 740 285
L 740 285
L 740 285
L 740 285
L 740 285
L 740 285
L 740 285
L 740 285
L 740 285
L 740 285
L 740 285
L 740 285
L 740 285
L 740 285
L 740 285
L 740 285
L 740 285
L 740 285
L 740 285
L 740 285
L 740 285
L 740 285
L 740 285
L 740 285
L 740 284
L 741 284
L 741 284
L 741 284
L 741 284
L 741 284
L 741 284
L 741 284
L 741 284
L 741 284
L 741 284
L 741 284
L 741 284
L 741 284
L 741 284
L 741 284
L 741 284
L 741 284
L 741 284
L 741 284
L 741 284
L 741 284
L 741 284
L 741 284
L 741 284
L 741 284
L 741 284
L 741 284
L 741 283
L 741 283
L 741 283
L 741 283
L 741 283
L 741 283
L 741 283
L 741 283
L 741 283
L 741 283
L 741 283
L 741 283
L 741 283
L 741 283
L 741 283
L 741 283
L 741 283
L 741 283
L 741 283
L 741 283
L 741 283
L 741 283
L 741 283
L 741 283
L 741 283
L 741 283
L 741 283
L 741 283
L 741 282
L 741 282
L 741 282
L 741 282
L 741 282
L 741 282
L 741 282
L 741 282
L 741 282
L 741 282
L 741 282
L 741 282
L 741 282
L 741 282
L 741 282
L 741 282
L 741 282
L 741 282
L 741 282
L 741 282
L 741 282
L 741 282
L 741 282
L 741 282
L 741 282
L 741 282
L 741 282
L 741 281
L 741 281
L 741 281
L 741 281
L 741 281
L 741 281
L 741 281
L 741 281
L 741 281
L 741 281
L 741 281
L 741 281
L 741 281
L 741 281
L 742 281
L 742 281
L 742 281
L 742 281
L 742 281
L 742 281
L 742 281
L 742 281
L 742 281
L 742 281
L 742 281
L 742 281
L 742 281
L 742 281
L 742 280
L 742 280
L 742 280
L 742 280
L 742 280
L 742 280
L 742 280
L 742 280
L 742 280
L 742 280
L 742 280
L 742 280
L 742 280
L 742 280
L 742 280
L 742 280
L 742 280
L 742 280
L 742 280
L 742 280
L 742 280
L 742 280
L 742 280
L 742 280
L 742 280
L 742 280
L 742 280
L 742 280
L 742 279
L 742 279
L 742 279
L 742 279
L 742 279
L 742 279
L 742 279
L 742 279
L 742 279
L 742 279
L 742 279
L 742 279
L 742 279
L 742 279
L 743 279
L 743 279
L 743 279
L 743 279
L 743 279
L 743 279
L 743 279
L 743 279
L 743 279
L 743 279
L 743 279
L 743 279
L 743 279
L 743 279
L 743 278
L 744 278
L 744 278
L 744 278
L 744 278
L 744 278
L 744 278
L 744 278
L 744 278
L 744 278
L 745 278
L 745 278
L 745 278
L 745 278
L 745 278
L 745 278
L 745 278
L 745 278
L 745 278
L 745 278
L 745 278
L 746 278
L 746 278
L 746 278
L 746 278
L 746 278
L 746 278
L 746 278
L 746 277
L 746 277
L 746 277
L 746 277
L 746 277
L 746 277
L 746 277
L 746 277
L 746 277
L 746 277
L 747 277
L 747 277
L 747 277
L 747 277
L 747 277
L 747 277
L 747 277
L 748 277
L 748 277
L 748 277
L 748 277
L 748 277
L 748 277
L 748 277
L 748 277
L 748 277
L 748 277
L 748 277
L 748 276
L 748 276
L 749 276
L 749 276
L 749 276
L 749 276
L 749 276
L 749 276
L 749 276
L 749 276
L 749 276
L 750 276
L 750 276
L 750 276
L 750 276
L 750 276
L 750 276
L 750 276
L 750 276
L 750 276
L 750 276
L 750 276
L 750 276
L 750 276
L 750 276
L 750 276
L 750 276
L 750 276
L 750 275
L 750 275
L 751 275
L 751 275
L 751 275
L 751 275
L 751 275
L 751 275
L 751 275
L 751 275
L 751 275
L 751 275
L 751 275
L 751 275
L 751 275
L 751 275
L 751 275
L 751 275
L 751 275
L 751 275
L 751 275
L 751 275
L 751 275
L 751 275
L 751 275
L 751 275
L 751 275
L 751 275
L 751 274
L 751 274
L 751 274
L 751 274
L 751 274
L 751 274
L 751 274
L 751 274
L 751 274
L 751 274
L 751 274
L 751 274
L 751 274
L 751 274
L 751 274
L 751 274
L 751 274
L 751 274
L 751 274
L 751 274
L 751 274
L 751 274
L 751 274
L 751 274
L 752 274
L 752 274
L 752 274
L 752 274
L 752 273
L 752 273
L 752 273
L 752 273
L 752 273
L 752 273
L 752 273
L 752 273
L 752 273
L 752 273
L 752 273
L 752 273
L 752 273
L 752 273
L 752 273
L 752 273
L 752 273
L 752 273
L 752 273
L 752 273
L 752 273
L 752 273
L 752 273
L 752 273
L 752 273
L 752 273
L 752 273
L 752 273
L 752 272
L 752 272
L 752 272
L 752 272
L 752 272
L 752 272
L 752 272
L 752 272
L 752 272
L 752 272
L 752 272
L 752 272
L 752 272
L 752 272
L 752 272
L 752 272
L 752 272
L 752 272
L 752 272
L 752 272
L 752 272
L 752 272
L 752 272
L 752 272
L 752 272
L 752 272
L 752 272
L 752 272
L 752 271
L 752 271
L 752 271
L 752 271
L 752 271
L 752 271
L 752 271
L 752 271
L 752 271
L 752 271
L 752 271
L 752 271
L 752 271
L 752 271
L 752 271
L 752 271
L 752 271
L 752 271
L 752 271
L 752 271
L 752 271
L 752 271
L 752 271
L 752 271
L 752 271
L 752 271
L 752 271
L 752 271
L 753 270
L 753 270
L 753 270
L 753 270
L 753 270
L 753 270
L 753 270
L 753 270
L 753 270
L 753 270
L 753 270
L 753 270
L 753 270
L 753 270
L 753 270
L 753 270
L 753 270
L 753 270
L 753 270
L 753 270
L 753 270
L 753 270
L 753 270
L 753 270
L 753 270
L 753 270
L 753 270
L 753 270
L 753 269
L 753 269
L 753 269
L 753 269
L 753 269
L 753 269
L 753 269
L 753 269
L 753 269
L 753 269
L 753 269
L 753 269
L 753 269
L 753 269
L 753 269
L 753 269
L 753 269
L 753 269
L 753 269
L 753 269
L 754 269
L 754 269
L 754 269
L 754 269
L 754 269
L 754 269
L 754 269
L 754 269
L 754 268
L 754 268
L 754 268
L 754 268
L 754 268
L 754 268
L 754 268
L 754 268
L 754 268
L 754 268
L 754 268
L 754 268
L 754 268
L 754 268
L 754 268
L 755 268
L 755 268
L 755 268
L 755 268
L 755 268
L 755 268
L 755 268
L 755 268
L 755 268
L 755 268
L 755 268
L 755 268
L 755 268
L 755 267
L 755 267
L 755 267
L 755 267
L 755 267
L 755 267
L 755 267
L 755 267
L 755 267
L 755 267
L 755 267
L 755 267
L 755 267
L 755 267
L 755 267
L 755 267
L 755 267
L 755 267
L 755 267
L 755 267
L 755 267
L 756 267
L 756 267
L 756 267
L 756 267
L 756 267
L 756 267
L 756 267
L 756 266
L 756 266
L 756 266
L 756 266
L 756 266
L 756 266
L 756 266
L 756 266
L 756 266
L 756 266
L 756 266
L 756 266
L 756 266
L 756 266
L 756 266
L 756 266
L 756 266
L 756 266
L 756 266
L 756 266
L 756 266
L 756 266
L 756 266
L 756 266
L 757 266
L 757 266
L 757 266
L 757 266
L 757 265
L 757 265
L 757 265
L 757 265
L 757 265
L 757 265
L 757 265
L 757 265
L 757 265
L 757 265
L 757 265
L 757 265
L 757 265
L 757 265
L 757 265
L 757 265
L 757 265
L 758 265
L 758 265
L 758 265
L 758 265
L 758 265
L 758 265
L 758 265
L 758 265
L 758 265
L 758 265
L 758 264
L 758 264
L 758 264
L 759 264
L 759 264
L 759 264
L 759 264
L 759 264
L 759 264
L 759 264
L 759 264
L 759 264
L 759 264
L 759 264
L 759 264
L 759 264
L 759 264
L 759 264
L 759 264
L 760 264
L 760 264
L 760 264
L 760 264
L 760 264
L 760 264
L 760 264
L 760 264
L 761 264
L 761 263
L 761 263
L 761 263
L 761 263
L 761 263
L 761 263
L 761 263
L 761 263
L 761 263
L 762 263
L 762 263
L 762 263
L 762 263
L 762 263
L 762 263
L 762 263
L 762 263
L 762 263
L 762 263
L 762 263
L 762 263
L 762 263
L 762 263
L 762 263
L 762 263
L 762 263
L 762 263
L 763 263
L 763 262
L 763 262
L 763 262
L 763 262
L 763 262
L 763 262
L 763 262
L 763 262
L 763 262
L 763 262
L 763 262
L 763 262
L 763 262
L 763 262
L 763 262
L 763 262
L 764 262
L 764 262
L 764 262
L 764 262
L 764 262
L 764 262
L 764 262
L 765 262
L 765 262
L 765 262
L 765 262
L 765 262
L 765 261
L 765 261
L 765 261
L 765 261
L 765 261
L 765 261
L 765 261
L 765 261
L 765 261
L 765 261
L 765 261
L 766 261
L 766 261
L 766 261
L 766 261
L 766 261
L 766 261
L 766 261
L 766 261
L 766 261
L 766 261
L 766 261
L 766 261
L 766 261
L 766 261
L 766 261
L 766 261
L 766 261
L 766 260
L 766 260
L 766 260
L 766 260
L 766 260
L 766 260
L 767 260
L 767 260
L 767 260
L 767 260
L 767 260
L 767 260
L 767 260
L 767 260
L 767 260
L 767 260
L 767 260
L 767 260
L 767 260
L 767 260
L 767 260
L 767 260
L 767 260
L 767 260
L 767 260
L 767 260
L 767 260
L 768 260
L 768 259
L 768 259
L 768 259
L 768 259
L 768 259
L 768 259
L 768 259
L 768 259
L 769 259
L 769 259
L 769 259
L 769 259
L 769 259
L 769 259
L 769 259
L 769 259
L 769 259
L 770 259
L 770 259
L 770 259
L 770 259
L 770 259
L 770 259
L 770 259
L 770 259
L 770 259
L 770 259
L 770 259
L 770 258
L 770 258
L 770 258
L 770 258
L 770 258
L 770 258
L 770 258
L 770 258
L 770 258
L 770 258
L 770 258
L 770 258
L 770 258
L 770 258
L 770 258
L 770 258
L 770 258
L 770 258
L 770 258
L 770 258
L 770 258
L 770 258
L 770 258
L 770 258
L 771 258
L 771 258
L 771 258
L 771 258
L 771 257
L 771 257
L 771 257
L 771 257
L 771 257
L 771 257
L 771 257
L 771 257
L 771 257
L 771 257
L 771 257
L 771 257
L 771 257
L 771 257
L 771 257
L 771 257
L 771 257
L 771 257
L 771 257
L 771 257
L 771 257
L 772 257
L 772 257
L 772 257
L 772 257
L 772 257
L 772 257
L 772 257
L 772 256
L 772 256
L 772 256
L 772 256
L 772 256
L 772 256
L 772 256
L 772 256
L 772 256
L 772 256
L 772 256
L 772 256
L 772 256
L 772 256
L 772 256
L 772 256
L 772 256
L 772 256
L 772 256
L 772 256
L 772 256
L 772 256
L 772 256
L 772 256
L 772 256
L 772 256
L 772 256
L 772 256
L 772 255
L 772 255
L 772 255
L 772 255
L 772 255
L 772 255
L 772 255
L 772 255
L 772 255
L 772 255
L 772 255
L 772 255
L 772 255
L 772 255
L 772 255
L 772 255
L 772 255
L 772 255
L 772 255
L 772 255
L 772 255
L 772 255
L 772 255
L 772 255
L 772 255
L 772 255
L 772 255
L 772 255
L 772 254
L 772 254
L 772 254
L 772 254
L 772 254
L 772 254
L 772 254
L 772 254
L 772 254
L 772 254
L 772 254
L 772 254
L 772 254
L 772 254
L 772 254
L 772 254
L 772 254
L 772 254
L 772 254
L 772 254
L 772 254
L 773 254
L 773 254
L 773 254
L 773 254
L 773 254
L 773 254
L 773 254
L 773 253
L 773 253
L 773 253
L 773 253
L 773 253
L 773 253
L 773 253
L 773 253
L 773 253
L 773 253
L 773 253
L 773 253
L 773 253
L 773 253
L 773 253
L 773 253
L 773 253
L 773 253
L 773 253
L 773 253
L 773 253
L 773 253
L 773 253
L 773 253
L 773 253
L 773 253
L 773 253
L 773 253
L 773 252
L 773 252
L 773 252
L 773 252
L 773 252
L 773 252
L 773 252
L 773 252
L 773 252
L 773 252
L 773 252
L 773 252
L 773 252
L 773 252
L 773 252
L 773 252
L 773 252
L 773 252
L 773 252
L 773 252
L 773 252
L 773 252
L 773 252
L 773 252
L 773 252
L 773 252
L 773 252
L 773 252
L 773 251
L 773 251
L 773 251
L 773 251
L 773 251
L 773 251
L 773 251
L 773 251
L 773 251
L 773 251
L 773 251
L 773 251
L 773 251
L 773 251
L 773 251
L 773 251
L 773 251
L 773 251
L 773 251
L 773 251
L 773 251
L 773 251
L 773 251
L 773 251
L 773 251
L 773 251
L 773 251
L 773 251
L 773 250
L 774 250
L 774 250
L 774 250
L 774 250
L 774 250
L 774 250
L 774 250
L 774 250
L 774 250
L 774 250
L 774 250
L 774 250
L 774 250
L 774 250
L 774 250
L 774 250
L 774 250
L 774 250
L 774 250
L 774 250
L 774 250
L 774 250
L 774 250
L 774 250
L 774 250
L 774 250
L 774 250
L 774 249
L 774 249
L 774 249
L 774 249
L 774 249
L 774 249
L 774 249
L 774 249
L 774 249
L 774 249
L 774 249
L 774 249
L 774 249
L 774 249
L 774 249
L 774 249
L 774 249
L 774 249
L 774 249
L 774 249
L 774 249
L 774 249
L 774 249
L 774 249
L 774 249
L 774 249
L 774 249
L 774 249
L 774 248
L 774 248
L 774 248
L 774 248
L 774 248
L 774 248
L 774 248
L 774 248
L 774 248
L 774 248
L 774 248
L 774 248
L 774 248
L 774 248
L 774 248
L 774 248
L 774 248
L 774 248
L 774 248
L 774 248
L 774 248
L 774 248
L 774 248
L 774 248
L 774 248
L 774 248
L 774 248
L 774 247
L 774 247
L 774 247
L 774 247
L 774 247
L 774 247
L 774 247
L 774 247
L 774 247
L 774 247
L 774 247
L 774 247
L 774 247
L 774 247
L 774 247
L 774 247
L 774 247
L 774 247
L 774 247
L 774 247
L 774 247
L 774 247
L 774 247
L 774 247
L 774 247
L 774 247
L 774 247
L 774 247
L 774 246
L 774 246
L 774 246
L 774 246
L 774 246
L 774 246
L 774 246
L 774 246
L 774 246
L 774 246
L 774 246
L 774 246
L 774 246
L 774 246
L 774 246
L 774 246
L 774 246
L 774 246
L 774 246
L 774 246
L 774 246
L 774 246
L 774 246
L 774 246
L 774 246
L 774 246
L 774 246
L 774 246
L 774 245
L 774 245
L 774 245
L 774 245
L 774 245
L 774 245
L 774 245
L 774 245
L 774 245
L 774 245
L 774 245
L 774 245
L 774 245
L 774 245
L 774 245
L 774 245
L 774 245
L 774 245
L 774 245
L 774 245
L 774 245
L 774 245
L 774 245
L 774 245
L 774 245
L 774 245
L 774 245
L 774 245
L 774 244
L 774 244
L 774 244
L 774 244
L 774 244
L 774 244
L 774 244
L 774 244
L 774 244
L 774 244
L 774 244
L 774 244
L 774 244
L 774 244
L 774 244
L 774 244
L 774 244
L 774 244
L 774 244
L 774 244
L 774 244
L 774 244
L 774 244
L 774 244
L 774 244
L 774 244
L 774 244
L 774 244
L 774 243
L 774 243
L 774 243
L 774 243
L 774 243
L 774 243
L 774 243
L 774 243
L 774 243
L 774 243
L 774 243
L 774 243
L 774 243
L 774 243
L 774 243
L 774 243
L 774 243
L 774 243
L 774 243
L 774 243
L 774 243
L 774 243
L 774 243
L 774 243
L 774 243
L 774 243
L 774 243
L 774 243
L 774 242
L 774 242
L 774 242
L 774 242
L 774 242
L 774 242
L 774 242
L 774 242
L 774 242
L 774 242
L 774 242
L 774 242
L 774 242
L 774 242
L 774 242
L 774 242
L 774 242
L 774 242
L 774 242
L 774 242
L 774 242
L 774 242
L 774 242
L 774 242
L 774 242
L 774 242
L 774 242
L 774 242
L 774 241
L 774 241
L 774 241
L 774 241
L 774 241
L 774 241
L 774 241
L 774 241
L 774 241
L 774 241
L 774 241
L 774 241
L 774 241
L 774 241
L 774 241
L 774 241
L 774 241
L 774 241
L 774 241
L 774 241
L 774 241
L 774 241
L 774 241
L 774 241
L 774 241
L 774 241
L 774 241
L 774 241
L 774 240
L 774 240
L 774 240
L 774 240
L 774 240
L 774 240
L 774 240
L 774 240
L 774 240
L 774 240
L 774 240
L 774 240
L 774 240
L 774 240
L 774 240
L 774 240
L 774 240
L 774 240
L 774 240
L 774 240
L 774 240
L 774 240
L 774 240
L 774 240
L 774 240
L 774 240
L 774 240
L 774 240
L 774 239
L 774 239
L 774 239
L 774 239
L 774 239
L 774 239
L 774 239
L 774 239
L 774 239
L 774 239
L 774 239
L 774 239
L 774 239
L 774 239
L 774 239
L 774 239
L 774 239
L 774 239
L 774 239
L 774 239
L 774 239
L 774 239
L 774 239
L 774 239
L 774 239
L 774 239
L 774 239
L 774 239
L 774 238
L 774 238
L 774 238
L 774 238
L 774 238
L 774 238
L 774 238
L 774 238
L 774 238
L 774 238
L 774 238
L 774 238
L 774 238
L 774 238
L 774 238
L 774 238
L 774 238
L 774 238
L 774 238
L 774 238
L 774 238
L 774 238
L 774 238
L 774 238
L 774 238
L 774 238
L 774 238
L 774 238
L 774 237
L 774 237
L 774 237
L 774 237
L 774 237
L 774 237
L 775 237
L 775 237
L 775 237
L 775 237
L 775 237
L 775 237
L 775 237
L 775 237
L 775 237
L 775 237
L 775 237
L 775 237
L 775 237
L 775 237
L 775 237
L 775 237
L 775 237
L 775 237
L 775 237
L 775 237
L 775 237
L 775 237
L 775 236
L 775 236
L 775 236
L 775 236
L 775 236
L 775 236
L 775 236
L 775 236
L 775 236
L 775 236
L 775 236
L 775 236
L 775 236
L 775 236
L 775 236
L 775 236
L 775 236
L 775 236
L 775 236
L 775 236
L 775 236
L 775 236
L 775 236
L 775 236
L 775 236
L 775 236
L 775 236
L 775 236
L 775 235
L 775 235
L 775 235
L 775 235
L 775 235
L 775 235
L 775 235
L 775 235
L 775 235
L 775 235
L 775 235
L 775 235
L 775 235
L 775 235
L 775 235
L 775 235
L 775 235
L 775 235
L 775 235
L 775 235
L 775 235
L 775 235
L 775 235
L 775 235
L 775 235
L 775 235
L 775 235
L 775 235
L 775 234
L 775 234
L 775 234
L 775 234
L 775 234
L 775 234
L 775 234
L 775 234
L 775 234
L 775 234
L 775 234
L 775 234
L 775 234
L 775 234
L 775 234
L 775 234
L 775 234
L 775 234
L 775 234
L 775 234
L 775 234
L 775 234
L 775 234
L 775 234
L 775 234
L 775 234
L 775 234
L 775 234
L 775 233
L 775 233
L 775 233
L 775 233
L 775 233
L 775 233
L 775 233
L 775 233
L 775 233
L 775 233
L 775 233
L 775 233
L 775 233
L 775 233
L 775 233
L 775 233
L 775 233
L 775 233
L 775 233
L 775 233
L 775 233
L 775 233
L 775 233
L 775 233
L 775 233
L 775 233
L 775 233
L 775 233
L 775 232
L 775 232
L 775 232
L 775 232
L 775 232
L 775 232
L 775 232
L 775 232
L 775 232
L 775 232
L 775 232
L 775 232
L 775 232
L 775 232
L 775 232
L 775 232
L 775 232
L 775 232
L 775 232
L 775 232
L 775 232
L 775 232
L 775 232
L 775 232
L 775 232
L 775 232
L 775 232
L 775 232
L 775 231
L 775 231
L 775 231
L 775 231
L 775 231
L 775 231
L 775 231
L 775 231
L 775 231
L 775 231
L 775 231
L 775 231
L 775 231
L 775 231
L 775 231
L 775 231
L 775 231
L 775 231
L 775 231
L 775 231
L 775 231
L 775 231
L 775 231
L 775 231
L 775 231
L 775 231
L 775 231
L 775 230
L 775 230
L 775 230
L 775 230
L 775 230
L 775 230
L 775 230
L 775 230
L 775 230
L 775 230
L 775 230
L 775 230
L 775 230
L 775 230
L 775 230
L 775 230
L 775 230
L 775 230
L 775 230
L 775 230
L 775 230
L 775 230
L 775 230
L 775 230
L 775 230
L 775 230
L 775 230
L 775 230
L 775 229
L 775 229
L 775 229
L 775 229
L 775 229
L 775 229
L 775 229
L 775 229
L 775 229
L 775 229
L 775 229
L 775 229
L 775 229
L 775 229
L 775 229
L 775 229
L 775 229
L 775 229
L 775 229
L 775 229
L 775 229
L 775 229
L 775 229
L 775 229
L 775 229
L 775 229
L 775 229
L 775 229
L 775 228
L 775 228
L 775 228
L 775 228
L 775 228
L 775 228
L 775 228
L 775 228
L 775 228
L 775 228
L 775 228
L 775 228
L 775 228
L 775 228
L 775 228
L 775 228
L 775 228
L 775 228
L 775 228
L 775 228
L 775 228
L 775 228
L 775 228
L 775 228
L 775 228
L 775 228
L 775 228
L 775 228
L 775 227
L 775 227
L 775 227
L 775 227
L 775 227
L 775 227
L 775 227
L 775 227
L 775 227
L 775 227
L 775 227
L 775 227
L 775 227
L 775 227
L 775 227
L 775 227
L 775 227
L 775 227
L 775 227
L 775 227
L 775 227
L 775 227
L 775 227
L 775 227
L 775 227
L 775 227
L 775 227
L 775 227
L 775 226
L 775 226
L 775 226
L 775 226
L 775 226
L 775 226
L 775 226
L 776 226
L 776 226
L 776 226
L 776 226
L 776 226
L 776 226
L 776 226
L 776 226
L 776 226
L 776 226
L 776 226
L 776 226
L 776 226
L 776 226
L 776 226
L 776 226
L 776 226
L 776 226
L 776 226
L 776 226
L 776 226
L 776 225
L 776 225
L 776 225
L 776 225
L 776 225
L 776 225
L 776 225
L 776 225
L 776 225
L 776 225
L 776 225
L 776 225
L 776 225
L 776 225
L 776 225
L 776 225
L 776 225
L 776 225
L 776 225
L 776 225
L 776 225
L 776 225
L 776 225
L 776 225
L 776 225
L 776 225
L 776 225
L 776 225
L 776 224
L 776 224
L 776 224
L 776 224
L 776 224
L 776 224
L 776 224
L 776 224
L 776 224
L 776 224
L 776 224
L 776 224
L 776 224
L 776 224
L 776 224
L 776 224
L 776 224
L 776 224
L 776 224
L 776 224
L 776 224
L 776 224
L 776 224
L 776 224
L 776 224
L 776 224
L 776 224
L 776 224
L 776 223
L 776 223
L 776 223
L 776 223
L 776 223
L 776 223
L 776 223
L 776 223
L 776 223
L 776 223
L 776 223
L 776 223
L 776 223
L 776 223
L 776 223
L 776 223
L 776 223
L 776 223
L 776 223
L 776 223
L 776 223
L 776 223
L 776 223
L 776 223
L 776 223
L 776 223
L 776 223
L 776 223
L 776 222
L 776 222
L 776 222
L 776 222
L 776 222
L 776 222
L 776 222
L 776 222
L 776 222
L 776 222
L 776 222
L 776 222
L 776 222
L 776 222
L 776 222
L 776 222
L 776 222
L 776 222
L 776 222
L 776 222
L 776 222
L 776 222
L 776 222
L 776 222
L 776 222
L 776 222
L 776 222
L 776 222
L 776 221
L 776 221
L 776 221
L 776 221
L 776 221
L 776 221
L 776 221
L 776 221
L 776 221
L 776 221
L 776 221
L 776 221
L 776 221
L 776 221
L 776 221
L 776 221
L 776 221
L 776 221
L 776 221
L 776 221
L 776 221
L 776 221
L 776 221
L 776 221
L 776 221
L 776 221
L 776 221
L 776 221
L 776 220
L 776 220
L 776 220
L 776 220
L 776 220
L 776 220
L 777 220
L 777 220
L 777 220
L 777 220
L 777 220
L 777 220
L 777 220
L 777 220
L 777 220
L 777 220
L 777 220
L 777 220
L 777 220
L 777 220
L 777 220
L 777 220
L 777 220
L 777 220
L 777 220
L 778 220
L 778 220
L 778 220
L 778 219
L 778 219
L 778 219
L 778 219
L 778 219
L 778 219
L 778 219
L 778 219
L 778 219
L 778 219
L 778 219
L 779 219
L 779 219
L 779 219
L 779 219
L 779 219
L 779 219
L 779 219
L 779 219
L 779 219
L 779 219
L 779 219
L 779 219
L 779 219
L 779 219
L 779 219
L 779 219
L 779 219
L 779 218
L 779 218
L 779 218
L 779 218
L 779 218
L 779 218
L 779 218
L 779 218
L 779 218
L 779 218
L 779 218
L 779 218
L 779 218
L 779 218
L 779 218
L 780 218
L 780 218
L 780 218
L 780 218
L 780 218
L 780 218
L 780 218
L 780 218
L 780 218
L 780 218
L 780 218
L 780 218
L 780 218
L 780 217
L 780 217
L 780 217
L 780 217
L 780 217
L 780 217
L 780 217
L 780 217
L 780 217
L 780 217
L 780 217
L 780 217
L 780 217
L 780 217
L 780 217
L 780 217
L 780 217
L 780 217
L 780 217
L 780 217
L 780 217
L 781 217
L 781 217
L 781 217
L 781 217
L 781 217
L 781 217
L 781 217
L 781 216
L 781 216
L 781 216
L 781 216
L 781 216
L 781 216
L 781 216
L 781 216
L 781 216
L 781 216
L 781 216
L 781 216
L 781 216
L 781 216
L 781 216
L 782 216
L 782 216
L 782 216
L 782 216
L 782 216
L 782 216
L 782 216
L 782 216
L 782 216
L 782 216
L 782 216
L 782 216
L 782 216
L 782 215
L 782 215
L 782 215
L 782 215
L 782 215
L 782 215
L 782 215
L 782 215
L 783 215
L 783 215
L 783 215
L 783 215
L 783 215
L 783 215
L 783 215
L 783 215
L 783 215
L 783 215
L 783 215
L 783 215
L 783 215
L 783 215
L 783 215
L 783 215
L 783 215
L 783 215
L 783 215
L 783 215
L 783 214
L 783 214
L 783 214
L 783 214
L 783 214
L 783 214
L 783 214
L 783 214
L 783 214
L 783 214
L 783 214
L 783 214
L 783 214
L 784 214
L 784 214
L 784 214
L 784 214
L 784 214
L 784 214
L 784 214
L 784 214
L 784 214
L 784 214
L 784 214
L 784 214
L 784 214
L 784 214
L 784 213
L 784 213
L 784 213
L 785 213
L 785 213
L 785 213
L 785 213
L 785 213
L 785 213
L 785 213
L 785 213
L 785 213
L 785 213
L 785 213
L 785 213
L 785 213
L 785 213
L 785 213
L 785 213
L 785 213
L 785 213
L 786 213
L 786 213
L 786 213
L 786 213
L 786 213
L 786 213
L 786 213
L 786 212
L 786 212
L 786 212
L 786 212
L 786 212
L 786 212
L 786 212
L 786 212
L 786 212
L 786 212
L 786 212
L 786 212
L 787 212
L 787 212
L 787 212
L 787 212
L 787 212
L 787 212
L 787 212
L 787 212
L 787 212
L 787 212
L 788 212
L 788 212
L 788 212
L 788 212
L 788 212
L 788 212
L 788 211
L 788 211
L 788 211
L 788 211
L 788 211
L 788 211
L 788 211
L 788 211
L 788 211
L 788 211
L 788 211
L 788 211
L 788 211
L 789 211
L 789 211
L 789 211
L 789 211
L 789 211
L 789 211
L 789 211
L 789 211
L 789 211
L 789 211
L 789 211
L 789 211
L 789 211
L 789 211
L 789 211
L 789 210
L 789 210
L 789 210
L 789 210
L 789 210
L 789 210
L 789 210
L 789 210
L 789 210
L 790 210
L 790 210
L 790 210
L 790 210
L 790 210
L 790 210
L 790 210
L 790 210
L 790 210
L 790 210
L 790 210
L 790 210
L 790 210
L 790 210
L 790 210
L 790 210
L 790 210
L 790 210
L 791 210
L 791 209
L 791 209
L 791 209
L 791 209
L 791 209
L 791 209
L 791 209
L 791 209
L 791 209
L 791 209
L 791 209
L 791 209
L 791 209
L 791 209
L 792 209
L 792 209
L 792 209
L 792 209
L 792 209
L 792 209
L 792 209
L 793 209
L 793 209
L 793 209
L 793 209
L 793 209
L 793 209
L 793 209
L 793 208
L 793 208
L 793 208
L 793 208
L 793 208
L 793 208
L 793 208
L 794 208
L 794 208
L 794 208
L 794 208
L 794 208
L 794 208
L 794 208
L 794 208
L 794 208
L 794 208
L 794 208
L 794 208
L 794 208
L 794 208
L 794 208
L 794 208
L 794 208
L 794 208
L 794 208
L 794 208
L 794 208
L 794 207
L 794 207
L 794 207
L 794 207
L 794 207
L 794 207
L 794 207
L 794 207
L 794 207
L 794 207
L 794 207
L 794 207
L 794 207
L 794 207
L 794 207
L 794 207
L 794 207
L 794 207
L 794 207
L 794 207
L 794 207
L 794 207
L 794 207
L 794 207
L 794 207
L 794 207
L 794 207
L 794 207
L 794 206
L 794 206
L 794 206
L 794 206
L 794 206
L 794 206
L 794 206
L 794 206
L 794 206
L 794 206
L 794 206
L 794 206
L 794 206
L 794 206
L 794 206
L 794 206
L 794 206
L 794 206
L 794 206
L 794 206
L 794 206
L 794 206
L 794 206
L 795 206
L 795 206
L 795 206
L 795 206
L 795 206
L 795 205
L 795 205
L 795 205
L 795 205
L 795 205
L 795 205
L 795 205
L 795 205
L 795 205
L 795 205
L 795 205
L 795 205
L 795 205
L 795 205
L 795 205
L 795 205
L 795 205
L 795 205
L 795 205
L 795 205
L 795 205
L 795 205
L 795 205
L 795 205
L 795 205
L 795 205
L 795 205
L 795 205
L 795 204
L 795 204
L 795 204
L 795 204
L 795 204
L 795 204
L 795 204
L 795 204
L 795 204
L 795 204
L 795 204
L 795 204
L 795 204
L 795 204
L 795 204
L 795 204
L 795 204
L 795 204
L 795 204
L 795 204
L 795 204
L 795 204
L 795 204
L 795 204
L 795 204
L 795 204
L 795 204
L 795 204
L 795 203
L 795 203
L 795 203
L 795 203
L 795 203
L 795 203
L 795 203
L 795 203
L 795 203
L 795 203
L 795 203
L 795 203
L 795 203
L 795 203
L 795 203
L 795 203
L 795 203
L 795 203
L 795 203
L 795 203
L 795 203
L 795 203
L 795 203
L 795 203
L 795 203
L 795 203
L 795 203
L 795 203
L 795 202
L 795 202
L 795 202
L 795 202
L 795 202
L 795 202
L 795 202
L 795 202
L 795 202
L 795 202
L 795 202
L 795 202
L 795 202
L 795 202
L 795 202
L 795 202
L 795 202
L 795 202
L 795 202
L 795 202
L 795 202
L 795 202
L 795 202
L 795 202
L 795 202
L 795 202
L 795 202
L 795 202
L 795 201
L 795 201
L 795 201
L 795 201
L 795 201
L 795 201
L 795 201
L 795 201
L 795 201
L 795 201
L 795 201
L 795 201
L 795 201
L 795 201
L 795 201
L 795 201
L 795 201
L 795 201
L 795 201
L 795 201
L 795 201
L 795 201
L 795 201
L 795 201
L 795 201
L 795 201
L 795 201
L 795 201
L 795 200
L 795 200
L 795 200
L 795 200
L 795 200
L 795 200
L 795 200
L 795 200
L 795 200
L 795 200
L 795 200
L 795 200
L 795 200
L 795 200
L 795 200
L 795 200
L 795 200
L 795 200
L 795 200
L 795 200
L 795 200
L 795 200
L 795 200
L 795 200
L 795 200
L 795 200
L 795 200
L 795 200
L 795 199
L 795 199
L 795 199
L 795 199
L 795 199
L 795 199
L 795 199
L 795 199
L 795 199
L 795 199
L 795 199
L 795 199
L 795 199
L 795 199
L 795 199
L 795 199
L 795 199
L 795 199
L 795 199
L 795 199
L 795 199
L 795 199
L 795 199
L 795 199
L 795 199
L 795 199
L 795 199
L 795 199
L 795 198
L 795 198
L 795 198
L 795 198
L 795 198
L 795 198
L 795 198
L 795 198
L 795 198
L 795 198
L 795 198
L 795 198
L 795 198
L 795 198
L 795 198
L 795 198
L 795 198
L 795 198
L 795 198
L 795 198
L 795 198
L 795 198
L 795 198
L 795 198
L 795 198
L 795 198
L 795 198
L 795 198
L 795 197
L 795 197
L 795 197
L 795 197
L 795 197
L 795 197
L 795 197
L 795 197
L 795 197
L 795 197
L 795 197
L 795 197
L 795 197
L 795 197
L 795 197
L 795 197
L 795 197
L 795 197
L 795 197
L 795 197
L 795 197
L 795 197
L 795 197
L 795 197
L 795 197
L 795 197
L 795 197
L 795 196
L 795 196
L 795 196
L 795 196
L 795 196
L 795 196
L 795 196
L 795 196
L 795 196
L 795 196
L 795 196
L 795 196
L 795 196
L 795 196
L 795 196
L 795 196
L 795 196
L 795 196
L 795 196
L 795 196
L 795 196
L 795 196
L 795 196
L 795 196
L 795 196
L 795 196
L 795 196
L 795 196
L 795 195
L 795 195
L 795 195
L 795 195
L 795 195
L 795 195
L 795 195
L 795 195
L 795 195
L 795 195
L 795 195
L 795 195
L 795 195
L 795 195
L 795 195
L 795 195
L 795 195
L 795 195
L 795 195
L 796 195
L 796 195
L 796 195
L 796 195
L 796 195
L 796 195
L 796 195
L 796 195
L 796 195
L 796 194
L 796 194
L 796 194
L 796 194
L 796 194
L 796 194
L 796 194
L 796 194
L 796 194
L 796 194
L 796 194
L 796 194
L 796 194
L 796 194
L 796 194
L 796 194
L 796 194
L 796 194
L 796 194
L 796 194
L 796 194
L 796 194
L 796 194
L 796 194
L 796 194
L 796 194
L 796 194
L 796 194
L 796 193
L 796 193
L 796 193
L 796 193
L 796 193
L 796 193
L 796 193
L 796 193
L 796 193
L 796 193
L 796 193
L 796 193
L 796 193
L 796 193
L 796 193
L 796 193
L 796 193
L 796 193
L 796 193
L 796 193
L 796 193
L 796 193
L 796 193
L 796 193
L 796 193
L 796 193
L 796 193
L 796 193
L 796 192
L 796 192
L 796 192
L 796 192
L 796 192
L 796 192
L 796 192
L 796 192
L 796 192
L 796 192
L 796 192
L 796 192
L 796 192
L 796 192
L 796 192
L 796 192
L 796 192
L 796 192
L 796 192
L 796 192
L 796 192
L 796 192
L 796 192
L 796 192
L 796 192
L 796 192
L 796 192
L 796 192
L 796 191
L 796 191
L 796 191
L 796 191
L 796 191
L 796 191
L 796 191
L 796 191
L 796 191
L 796 191
L 796 191
L 796 191
L 796 191
L 796 191
L 796 191
L 796 191
L 796 191
L 796 191
L 796 191
L 796 191
L 796 191
L 796 191
L 796 191
L 796 191
L 796 191
L 796 191
L 796 191
L 796 191
L 796 190
L 796 190
L 796 190
L 796 190
L 796 190
L 796 190
L 796 190
L 796 190
L 796 190
L 796 190
L 796 190
L 796 190
L 796 190
L 796 190
L 796 190
L 796 190
L 796 190
L 796 190
L 796 190
L 796 190
L 796 190
L 796 190
L 796 190
L 796 190
L 796 190
L 796 190
L 796 190
L 796 190
L 796 189
L 796 189
L 796 189
L 796 189
L 796 189
L 796 189
L 796 189
L 796 189
L 796 189
L 796 189
L 796 189
L 796 189
L 796 189
L 796 189
L 796 189
L 796 189
L 796 189
L 796 189
L 796 189
L 796 189
L 796 189
L 796 189
L 796 189
L 796 189
L 796 189
L 796 189
L 796 189
L 796 189
L 796 188
L 796 188
L 796 188
L 796 188
L 796 188
L 796 188
L 796 188
L 796 188
L 796 188
L 796 188
L 796 188
L 796 188
L 796 188
L 796 188
L 796 188
L 796 188
L 796 188
L 796 188
L 796 188
L 796 188
L 796 188
L 796 188
L 796 188
L 796 188
L 796 188
L 796 188
L 796 188
L 796 188
L 796 187
L 796 187
L 796 187
L 796 187
L 796 187
L 796 187
L 796 187
L 796 187
L 796 187
L 796 187
L 796 187
L 796 187
L 796 187
L 796 187
L 796 187
L 796 187
L 796 187
L 796 187
L 796 187
L 796 187
L 796 187
L 796 187
L 796 187
L 796 187
L 796 187
L 796 187
L 796 187
L 796 187
L 796 186
L 796 186
L 796 186
L 796 186
L 796 186
L 796 186
L 796 186
L 796 186
L 796 186
L 796 186
L 796 186
L 796 186
L 796 186
L 796 186
L 796 186
L 796 186
L 796 186
L 796 186
L 796 186
L 796 186
L 796 186
L 796 186
L 796 186
L 796 186
L 796 186
L 796 186
L 796 186
L 796 186
L 796 185
L 796 185
L 796 185
L 796 185
L 796 185
L 796 185
L 796 185
L 796 185
L 796 185
L 796 185
L 796 185
L 796 185
L 796 185
L 796 185
L 796 185
L 796 185
L 796 185
L 796 185
L 796 185
L 796 185
L 796 185
L 796 185
L 796 185
L 796 185
L 796 185
L 796 185
L 796 185
L 796 185
L 796 184
L 796 184
L 796 184
L 796 184
L 796 184
L 796 184
L 796 184
L 796 184
L 796 184
L 796 184
L 796 184
L 796 184
L 796 184
L 796 184
L 796 184
L 796 184
L 796 184
L 796 184
L 796 184
L 796 184
L 796 184
L 796 184
L 796 184
L 796 184
L 796 184
L 796 184
L 796 184
L 796 184
L 796 183
L 796 183
L 796 183
L 796 183
L 796 183
L 796 183
L 796 183
L 796 183
L 796 183
L 796 183
L 796 183
L 796 183
L 796 183
L 796 183
L 796 183
L 796 183
L 796 183
L 796 183
L 796 183
L 796 183
L 796 183
L 796 183
L 796 183
L 796 183
L 796 183
L 796 183
L 796 183
L 796 183
L 796 182
L 796 182
L 796 182
L 796 182
L 796 182
L 796 182
L 796 182
L 796 182
L 796 182
L 796 182
L 796 182
L 796 182
L 796 182
L 796 182
L 796 182
L 796 182
L 796 182
L 796 182
L 796 182
L 797 182
L 797 182
L 797 182
L 797 182
L 797 182
L 797 182
L 797 182
L 797 182
L 797 182
L 797 181
L 797 181
L 797 181
L 797 181
L 797 181
L 797 181
L 797 181
L 797 181
L 797 181
L 797 181
L 797 181
L 797 181
L 797 181
L 797 181
L 797 181
L 797 181
L 797 181
L 797 181
L 797 181
L 797 181
L 797 181
L 797 181
L 797 181
L 797 181
L 797 181
L 797 181
L 797 181
L 797 181
L 797 180
L 797 180
L 797 180
L 797 180
L 797 180
L 797 180
L 797 180
L 797 180
L 797 180
L 797 180
L 797 180
L 797 180
L 797 180
L 797 180
L 797 180
L 797 180
L 797 180
L 797 180
L 797 180
L 797 180
L 797 180
L 797 180
L 797 180
L 797 180
L 797 180
L 797 180
L 797 180
L 797 179
L 797 179
L 797 179
L 797 179
L 797 179
L 797 179
L 797 179
L 797 179
L 797 179
L 797 179
L 797 179
L 797 179
L 797 179
L 797 179
L 797 179
L 797 179
L 797 179
L 797 179
L 797 179
L 797 179
L 797 179
L 797 179
L 797 179
L 797 179
L 797 179
L 797 179
L 797 179
L 797 179
L 797 178
L 797 178
L 797 178
L 797 178
L 797 178
L 797 178
L 797 178
L 797 178
L 797 178
L 797 178
L 797 178
L 797 178
L 797 178
L 797 178
L 797 178
L 797 178
L 797 178
L 797 178
L 797 178
L 797 178
L 797 178
L 797 178
L 797 178
L 797 178
L 797 178
L 797 178
L 797 178
L 797 178
L 797 177
L 797 177
L 797 177
L 797 177
L 797 177
L 797 177
L 797 177
L 797 177
L 797 177
L 797 177
L 797 177
L 797 177
L 797 177
L 797 177
L 797 177
L 797 177
L 797 177
L 797 177
L 797 177
L 797 177
L 797 177
L 797 177
L 797 177
L 797 177
L 797 177
L 797 177
L 797 177
L 797 177
L 797 176
L 797 176
L 797 176
L 797 176
L 797 176
L 797 176
L 797 176
L 797 176
L 797 176
L 797 176
L 797 176
L 797 176
L 797 176
L 797 176
L 797 176
L 797 176
L 797 176
L 797 176
L 797 176
L 797 176
L 797 176
L 797 176
L 797 176
L 797 176
L 797 176
L 797 176
L 797 176
L 797 176
L 797 175
L 797 175
L 797 175
L 797 175
L 797 175
L 797 175
L 797 175
L 797 175
L 797 175
L 797 175
L 797 175
L 797 175
L 797 175
L 797 175
L 797 175
L 797 175
L 797 175
L 797 175
L 797 175
L 797 175
L 797 175
L 797 175
L 797 175
L 797 175
L 797 175
L 797 175
L 797 175
L 797 175
L 797 174
L 797 174
L 797 174
L 797 174
L 797 174
L 797 174
L 797 174
L 797 174
L 797 174
L 797 174
L 797 174
L 797 174
L 797 174
L 797 174
L 797 174
L 797 174
L 797 174
L 797 174
L 797 174
L 797 174
L 797 174
L 797 174
L 797 174
L 797 174
L 797 174
L 797 174
L 797 174
L 797 174
L 797 173
L 797 173
L 797 173
L 797 173
L 797 173
L 797 173
L 797 173
L 797 173
L 797 173
L 797 173
L 797 173
L 797 173
L 797 173
L 797 173
L 797 173
L 797 173
L 797 173
L 797 173
L 797 173
L 797 173
L 797 173
L 797 173
L 797 173
L 797 173
L 797 173
L 797 173
L 797 173
L 797 173
L 797 172
L 797 172
L 797 172
L 797 172
L 797 172
L 797 172
L 797 172
L 797 172
L 797 172
L 797 172
L 797 172
L 797 172
L 797 172
L 797 172
L 797 172
L 797 172
L 797 172
L 797 172
L 797 172
L 797 172
L 797 172
L 798 172
L 798 172
L 798 172
L 798 172
L 798 172
L 798 172
L 798 172
L 798 171
L 798 171
L 798 171
L 798 171
L 798 171
L 798 171
L 798 171
L 798 171
L 798 171
L 798 171
L 798 171
L 798 171
L 798 171
L 798 171
L 798 171
L 798 171
L 798 171
L 798 171
L 798 171
L 798 171
L 798 171
L 798 171
L 798 171
L 798 171
L 798 171
L 798 171
L 798 171
L 798 171
L 798 170
L 798 170
L 798 170
L 798 170
L 798 170
L 798 170
L 798 170
L 798 170
L 798 170
L 798 170
L 798 170
L 798 170
L 798 170
L 798 170
L 798 170
L 798 170
L 798 170
L 798 170
L 798 170
L 798 170
L 798 170
L 798 170
L 798 170
L 798 170
L 798 170
L 798 170
L 798 170
L 798 170
L 798 169
L 798 169
L 798 169
L 798 169
L 798 169
L 798 169
L 798 169
L 798 169
L 798 169
L 798 169
L 798 169
L 798 169
L 798 169
L 798 169
L 798 169
L 798 169
L 798 169
L 798 169
L 798 169
L 798 169
L 798 169
L 798 169
L 798 169
L 798 169
L 798 169
L 798 169
L 798 169
L 798 169
L 798 168
L 798 168
L 798 168
L 798 168
L 798 168
L 798 168
L 798 168
L 798 168
L 798 168
L 798 168
L 798 168
L 798 168
L 798 168
L 798 168
L 798 168
L 798 168
L 798 168
L 798 168
L 798 168
L 798 168
L 798 168
L 798 168
L 798 168
L 798 168
L 798 168
L 798 168
L 798 168
L 798 168
L 798 167
L 798 167
L 798 167
L 798 167
L 798 167
L 798 167
L 798 167
L 798 167
L 798 167
L 798 167
L 798 167
L 798 167
L 798 167
L 798 167
L 798 167
L 798 167
L 798 167
L 798 167
L 798 167
L 798 167
L 798 167
L 798 167
L 798 167
L 798 167
L 798 167
L 798 167
L 798 167
L 798 167
L 798 166
L 798 166
L 798 166
L 798 166
L 798 166
L 798 166
L 798 166
L 798 166
L 798 166
L 798 166
L 798 166
L 798 166
L 798 166
L 798 166
L 798 166
L 798 166
L 798 166
L 798 166
L 798 166
L 798 166
L 798 166
L 798 166
L 798 166
L 798 166
L 798 166
L 798 166
L 798 166
L 798 166
L 798 165
L 798 165
L 798 165
L 798 165
L 798 165
L 798 165
L 799 165
L 799 165
L 799 165
L 799 165
L 799 165
L 799 165
L 799 165
L 799 165
L 799 165
L 799 165
L 799 165
L 799 165
L 799 165
L 799 165
L 799 165
L 799 165
L 799 165
L 799 165
L 799 165
L 799 165
L 799 165
L 799 165
L 799 164
L 799 164
L 799 164
L 800 164
L 800 164
L 800 164
L 800 164
L 800 164
L 800 164
L 800 164
L 800 164
L 800 164
L 800 164
L 800 164
L 800 164
L 800 164
L 800 164
L 800 164
L 800 164
L 800 164
L 800 164
L 800 164
L 800 164
L 800 164
L 800 164
L 800 164
L 800 164
L 800 163
L 800 163
L 800 163
L 800 163
L 800 163
L 800 163
L 800 163
L 800 163
L 800 163
L 800 163
L 800 163
L 800 163
L 800 163
L 800 163
L 800 163
L 800 163
L 800 163
L 800 163
L 800 163
L 800 163
L 800 163
L 800 163
L 800 163
L 800 163
L 800 163
L 800 163
L 800 163
L 800 163
L 800 162
L 800 162
L 800 162
L 800 162
L 800 162
L 800 162
L 800 162
L 800 162
L 800 162
L 800 162
L 800 162
L 800 162
L 800 162
L 800 162
L 800 162
L 800 162
L 800 162
L 800 162
L 800 162
L 800 162
L 800 162
L 800 162
L 800 162
L 800 162
L 800 162
L 800 162
L 800 162
L 800 162
L 800 161
L 800 161
L 800 161
L 800 161
L 800 161
L 800 161
L 800 161
L 800 161
L 800 161
L 800 161
L 800 161
L 800 161
L 800 161
L 800 161
L 800 161
L 800 161
L 800 161
L 800 161
L 800 161
L 800 161
L 800 161
L 800 161
L 800 161
L 800 161
L 800 161
L 800 161
L 800 161
L 801 161
L 801 160
L 801 160
L 801 160
L 801 160
L 801 160
L 801 160
L 801 160
L 801 160
L 801 160
L 801 160
L 801 160
L 801 160
L 801 160
L 801 160
L 801 160
L 801 160
L 801 160
L 801 160
L 801 160
L 801 160
L 801 160
L 801 160
L 801 160
L 801 160
L 801 160
L 801 160
L 801 160
L 801 160
L 801 159
L 801 159
L 801 159
L 801 159
L 801 159
L 801 159
L 801 159
L 801 159
L 801 159
L 801 159
L 801 159
L 801 159
L 801 159
L 801 159
L 801 159
L 801 159
L 801 159
L 801 159
L 801 159
L 801 159
L 801 159
L 801 159
L 801 159
L 802 159
L 802 159
L 802 159
L 802 159
L 802 159
L 802 158
L 802 158
L 802 158
L 802 158
L 802 158
L 802 158
L 802 158
L 802 158
L 802 158
L 802 158
L 802 158
L 802 158
L 802 158
L 802 158
L 802 158
L 802 158
L 802 158
L 802 158
L 802 158
L 802 158
L 802 158
L 802 158
L 802 158
L 802 158
L 802 158
L 802 158
L 802 158
L 803 158
L 803 157
L 803 157
L 803 157
L 803 157
L 803 157
L 803 157
L 803 157
L 803 157
L 803 157
L 803 157
L 803 157
L 803 157
L 803 157
L 803 157
L 804 157
L 804 157
L 804 157
L 804 157
L 804 157
L 804 157
L 804 157
L 804 157
L 804 157
L 804 157
L 804 157
L 804 157
L 804 157
L 804 157
L 804 156
L 804 156
L 804 156
L 804 156
L 804 156
L 804 156
L 804 156
L 804 156
L 804 156
L 804 156
L 804 156
L 804 156
L 804 156
L 804 156
L 804 156
L 804 156
L 805 156
L 805 156
L 805 156
L 805 156
L 805 156
L 805 156
L 805 156
L 805 156
L 805 156
L 805 156
L 805 156
L 805 156
L 805 155
L 805 155
L 805 155
L 805 155
L 805 155
L 805 155
L 805 155
L 805 155
L 805 155
L 805 155
L 805 155
L 805 155
L 805 155
L 805 155
L 805 155
L 805 155
L 805 155
L 805 155
L 806 155
L 806 155
L 806 155
L 806 155
L 806 155
L 806 155
L 806 155
L 806 155
L 806 155
L 806 155
L 806 154
L 806 154
L 806 154
L 806 154
L 806 154
L 806 154
L 807 154
L 807 154
L 807 154
L 807 154
L 807 154
L 807 154
L 807 154
L 807 154
L 807 154
L 807 154
L 807 154
L 807 154
L 807 154
L 807 154
L 807 154
L 807 154
L 807 154
L 807 154
L 807 154
L 807 154
L 807 154
L 807 154
L 807 153
L 807 153
L 807 153
L 807 153
L 807 153
L 807 153
L 807 153
L 807 153
L 807 153
L 807 153
L 807 153
L 807 153
L 807 153
L 808 153
L 808 153
L 808 153
L 808 153
L 808 153
L 808 153
L 808 153
L 808 153
L 808 153
L 808 153
L 808 153
L 808 153
L 808 153
L 808 153
L 808 153
L 808 152
L 808 152
L 809 152
L 809 152
L 809 152
L 809 152
L 809 152
L 809 152
L 809 152
L 809 152
L 809 152
L 809 152
L 809 152
L 809 152
L 809 152
L 810 152
L 810 152
L 810 152
L 810 152
L 810 152
L 810 152
L 810 152
L 810 152
L 810 152
L 810 152
L 810 152
L 810 152
L 811 152
L 811 151
L 811 151
L 811 151
L 811 151
L 811 151
L 811 151
L 811 151
L 811 151
L 811 151
L 811 151
L 811 151
L 811 151
L 811 151
L 811 151
L 811 151
L 811 151
L 811 151
L 811 151
L 811 151
L 811 151
L 811 151
L 811 151
L 811 151
L 811 151
L 811 151
L 811 151
L 811 151
L 811 151
L 811 150
L 811 150
L 811 150
L 811 150
L 811 150
L 811 150
L 811 150
L 811 150
L 811 150
L 811 150
L 811 150
L 811 150
L 811 150
L 811 150
L 811 150
L 811 150
L 811 150
L 812 150
L 812 150
L 812 150
L 812 150
L 812 150
L 812 150
L 812 150
L 812 150
L 812 150
L 812 150
L 812 150
L 812 149
L 812 149
L 812 149
L 812 149
L 812 149
L 812 149
L 812 149
L 812 149
L 812 149
L 812 149
L 812 149
L 812 149
L 812 149
L 812 149
L 812 149
L 812 149
L 812 149
L 812 149
L 812 149
L 812 149
L 812 149
L 812 149
L 812 149
L 812 149
L 812 149
L 812 149
L 812 149
L 812 149
L 812 148
L 812 148
L 812 148
L 812 148
L 812 148
L 812 148
L 812 148
L 812 148
L 812 148
L 812 148
L 813 148
L 813 148
L 813 148
L 813 148
L 813 148
L 813 148
L 813 148
L 813 148
L 813 148
L 813 148
L 813 148
L 813 148
L 813 148
L 813 148
L 813 148
L 813 148
L 813 148
L 813 148
L 813 147
L 813 147
L 813 147
L 813 147
L 813 147
L 813 147
L 813 147
L 813 147
L 813 147
L 813 147
L 813 147
L 813 147
L 813 147
L 813 147
L 813 147
L 813 147
L 813 147
L 813 147
L 813 147
L 813 147
L 813 147
L 813 147
L 814 147
L 814 147
L 814 147
L 814 147
L 814 147
L 814 147
L 814 146
L 814 146
L 814 146
L 814 146
L 814 146
L 814 146
L 814 146
L 814 146
L 814 146
L 814 146
L 814 146
L 814 146
L 814 146
L 814 146
L 814 146
L 814 146
L 814 146
L 814 146
L 814 146
L 814 146
L 814 146
L 814 146
L 815 146
L 815 146
L 815 146
L 815 146
L 815 146
L 815 145
L 815 145
L 815 145
L 815 145
L 815 145
L 815 145
L 815 145
L 815 145
L 815 145
L 815 145
L 815 145
L 815 145
L 815 145
L 815 145
L 815 145
L 815 145
L 815 145
L 815 145
L 815 145
L 815 145
L 815 145
L 815 145
L 815 145
L 815 145
L 815 145
L 815 145
L 815 145
L 815 145
L 815 144
L 815 144
L 815 144
L 815 144
L 815 144
L 815 144
L 815 144
L 816 144
L 816 144
L 816 144
L 816 144
L 816 144
L 816 144
L 816 144
L 816 144
L 816 144
L 816 144
L 816 144
L 816 144
L 816 144
L 816 144
L 816 144
L 816 144
L 816 144
L 816 144
L 816 144
L 816 144
L 816 144
L 817 143
L 817 143
L 817 143
L 817 143
L 817 143
L 817 143
L 817 143
L 817 143
L 817 143
L 817 143
L 817 143
L 817 143
L 817 143
L 817 143
L 817 143
L 817 143
L 817 143
L 817 143
L 817 143
L 817 143
L 817 143
L 817 143
L 817 143
L 817 143
L 817 143
L 817 143
L 817 143
L 817 143
L 817 142
L 817 142
L 818 142
L 818 142
L 818 142
L 818 142
L 818 142
L 818 142
L 818 142
L 818 142
L 818 142
L 818 142
L 818 142
L 818 142
L 818 142
L 818 142
L 818 142
L 818 142
L 818 142
L 818 142
L 818 142
L 818 142
L 819 142
L 819 142
L 819 142
L 819 142
L 819 142
L 820 142
L 820 141
L 820 141
L 820 141
L 820 141
L 820 141
L 820 141
L 820 141
L 821 141
L 821 141
L 821 141
L 821 141
L 821 141
L 821 141
L 821 141
L 821 141
L 821 141
L 821 141
L 821 141
L 821 141
L 821 141
L 822 141
L 822 141
L 822 141
L 822 141
L 822 141
L 822 141
L 822 141
L 822 141
L 822 140
L 822 140
L 822 140
L 822 140
L 822 140
L 822 140
L 823 140
L 823 140
L 823 140
L 823 140
L 823 140
L 823 140
L 823 140
L 823 140
L 823 140
L 823 140
L 823 140
L 823 140
L 823 140
L 824 140
L 824 140
L 824 140
L 824 140
L 824 140
L 824 140
L 824 140
L 825 140
L 825 140
L 825 139
L 825 139
L 825 139
L 825 139
L 825 139
L 825 139
L 826 139
L 826 139
L 826 139
L 826 139
L 826 139
L 826 139
L 826 139
L 826 139
L 826 139
L 826 139
L 826 139
L 826 139
L 826 139
L 826 139
L 826 139
L 827 139
L 827 139
L 827 139
L 827 139
L 827 139
L 827 139
L 827 139
L 827 138
L 827 138
L 827 138
L 828 138
L 828 138
L 828 138
L 828 138
L 828 138
L 828 138
L 828 138
L 828 138
L 828 138
L 828 138
L 829 138
L 829 138
L 829 138
L 829 138
L 829 138
L 829 138
L 829 138
L 829 138
L 829 138
L 829 138
L 829 138
L 829 138
L 829 138
L 829 138
L 829 138
L 829 137
L 829 137
L 829 137
L 829 137
L 829 137
L 829 137
L 829 137
L 830 137
L 830 137
L 830 137
L 830 137
L 830 137
L 830 137
L 830 137
L 831 137
L 831 137
L 831 137
L 831 137
L 831 137
L 831 137
L 831 137
L 832 137
L 832 137
L 832 137
L 832 137
L 832 137
L 832 137
L 832 137
L 832 136
L 832 136
L 832 136
L 832 136
L 832 136
L 832 136
L 832 136
L 833 136
L 833 136
L 833 136
L 833 136
L 833 136
L 833 136
L 833 136
L 833 136
L 833 136
L 833 136
L 833 136
L 833 136
L 833 136
L 833 136
L 833 136
L 833 136
L 834 136
L 834 136
L 834 136
L 834 136
L 834 136
L 834 135
L 834 135
L 834 135
L 835 135
L 835 135
L 835 135
L 835 135
L 835 135
L 835 135
L 835 135
L 835 135
L 836 135
L 836 135
L 836 135
L 836 135
L 836 135
L 836 135
L 836 135
L 836 135
L 837 135
L 837 135
L 837 135
L 837 135
L 837 135
L 837 135
L 837 135
L 837 135
L 837 135
L 837 134
L 837 134
L 837 134
L 837 134
L 837 134
L 837 134
L 837 134
L 837 134
L 838 134
L 838 134
L 838 134
L 838 134
L 838 134
L 838 134
L 838 134
L 838 134
L 838 134
L 838 134
L 838 134
L 838 134
L 838 134
L 838 134
L 838 134
L 838 134
L 838 134
L 838 134
L 838 134
L 838 134
L 838 133
L 838 133
L 838 133
L 838 133
L 838 133
L 838 133
L 838 133
L 838 133
L 838 133
L 838 133
L 838 133
L 838 133
L 838 133
L 838 133
L 838 133
L 838 133
L 839 133
L 839 133
L 839 133
L 839 133
L 839 133
L 839 133
L 839 133
L 839 133
L 839 133
L 839 133
L 839 133
L 839 133
L 839 132
L 839 132
L 839 132
L 839 132
L 839 132
L 839 132
L 839 132
L 839 132
L 839 132
L 839 132
L 839 132
L 839 132
L 839 132
L 839 132
L 839 132
L 839 132
L 839 132
L 839 132
L 839 132
L 839 132
L 839 132
L 839 132
L 840 132
L 840 132
L 840 132
L 840 132
L 840 132
L 840 132
L 840 131
L 840 131
L 840 131
L 840 131
L 840 131
L 840 131
L 840 131
L 840 131
L 840 131
L 841 131
L 841 131
L 841 131
L 841 131
L 841 131
L 841 131
L 841 131
L 842 131
L 842 131
L 842 131
L 842 131
L 842 131
L 842 131
L 842 131
L 842 131
L 842 131
L 842 131
L 842 131
L 842 131
L 842 130
L 842 130
L 842 130
L 842 130
L 842 130
L 843 130
L 843 130
L 843 130
L 843 130
L 843 130
L 843 130
L 843 130
L 843 130
L 843 130
L 843 130
L 843 130
L 843 130
L 843 130
L 843 130
L 844 130
L 844 130
L 844 130
L 844 130
L 844 130
L 844 130
L 844 130
L 844 130
L 844 130
L 844 129
L 845 129
L 845 129
L 845 129
L 845 129
L 845 129
L 845 129
L 845 129
L 845 129
L 845 129
L 845 129
L 845 129
L 845 129
L 845 129
L 845 129
L 845 129
L 845 129
L 845 129
L 845 129
L 846 129
L 846 129
L 846 129
L 846 129
L 846 129
L 846 129
L 846 129
L 846 129
L 846 128
L 846 128
L 846 128
L 846 128
L 847 128
L 847 128
L 847 128
L 847 128
L 847 128
L 847 128
L 847 128
L 847 128
L 848 128
L 848 128
L 848 128
L 848 128
L 848 128
L 848 128
L 848 128
L 848 128
L 848 128
L 849 128
L 849 128
L 849 128
L 849 128
L 849 128
L 849 128
L 849 128
L 849 127
L 849 127
L 849 127
L 849 127
L 849 127
L 849 127
L 849 127
L 849 127
L 849 127
L 850 127
L 850 127
L 850 127
L 850 127
L 850 127
L 850 127
L 850 127
L 850 127
L 850 127
L 850 127
L 850 127
L 850 127
L 851 127
L 851 127
L 851 127
L 851 127
L 851 127
L 851 127
L 851 127
L 851 126
L 851 126
L 851 126
L 852 126
L 852 126
L 852 126
L 852 126
L 852 126
L 852 126
L 852 126
L 852 126
L 852 126
L 852 126
L 853 126
L 853 126
L 853 126
L 853 126
L 853 126
L 853 126
L 853 126
L 853 126
L 853 126
L 853 126
L 853 126
L 853 126
L 853 126
L 853 126
L 853 126
L 853 125
L 853 125
L 853 125
L 853 125
L 853 125
L 853 125
L 853 125
L 854 125
L 854 125
L 854 125
L 854 125
L 854 125
L 854 125
L 854 125
L 854 125
L 854 125
L 854 125
L 854 125
L 854 125
L 854 125
L 854 125
L 855 125
L 855 125
L 855 125
L 855 125
L 855 125
L 855 125
L 855 125
L 855 124
L 856 124
L 856 124
L 856 124
L 856 124
L 856 124
L 856 124
L 856 124
L 856 124
L 856 124
L 856 124
L 856 124
L 856 124
L 857 124
L 857 124
L 857 124
L 857 124
L 857 124
L 857 124
L 857 124
L 857 124
L 858 124
L 858 124
L 858 124
L 858 124
L 858 124
L 858 124
L 858 124
L 858 123
L 858 123
L 859 123
L 859 123
L 859 123
L 859 123
L 859 123
L 859 123
L 859 123
L 859 123
L 859 123
L 859 123
L 859 123
L 859 123
L 859 123
L 859 123
L 860 123
L 860 123
L 860 123
L 860 123
L 860 123
L 860 123
L 860 123
L 860 123
L 860 123
L 860 123
L 860 123
L 860 123
L 860 122
L 860 122
L 860 122
L 861 122
L 861 122
L 861 122
L 861 122
L 861 122
L 861 122
L 861 122
L 861 122
L 861 122
L 861 122
L 861 122
L 861 122
L 862 122
L 862 122
L 862 122
L 862 122
L 862 122
L 862 122
L 863 122
L 863 122
L 863 122
L 863 122
L 863 122
L 863 122
L 863 122
L 863 121
L 863 121
L 863 121
L 864 121
L 864 121
L 864 121
L 864 121
L 864 121
L 864 121
L 864 121
L 864 121
L 864 121
L 864 121
L 864 121
L 864 121
L 864 121
L 864 121
L 865 121
L 865 121
L 865 121
L 865 121
L 865 121
L 865 121
L 865 121
L 865 121
L 865 121
L 865 121
L 866 121
L 866 120
L 866 120
L 866 120
L 866 120
L 866 120
L 866 120
L 866 120
L 866 120
L 866 120
L 866 120
L 866 120
L 866 120
L 866 120
L 866 120
L 866 120
L 866 120
L 866 120
L 866 120
L 866 120
L 866 120
L 866 120
L 866 120
L 866 120
L 866 120
L 866 120
L 866 120
L 866 120
L 866 120
L 866 119
L 866 119
L 866 119
L 866 119
L 866 119
L 866 119
L 866 119
L 866 119
L 866 119
L 866 119
L 866 119
L 866 119
L 866 119
L 866 119
L 866 119
L 866 119
L 866 119
L 866 119
L 866 119
L 866 119
L 866 119
L 866 119
L 866 119
L 867 119
L 867 119
L 867 119
L 867 119
L 867 119
L 867 118
L 867 118
L 867 118
L 867 118
L 867 118
L 867 118
L 867 118
L 867 118
L 867 118
L 867 118
L 867 118
L 867 118
L 867 118
L 867 118
L 867 118
L 867 118
L 867 118
L 867 118
L 867 118
L 867 118
L 867 118
L 867 118
L 867 118
L 867 118
L 867 118
L 867 118
L 867 118
L 867 118
L 867 117
L 867 117
L 867 117
L 867 117
L 867 117
L 867 117
L 867 117
L 867 117
L 867 117
L 867 117
L 867 117
L 867 117
L 868 117
L 868 117
L 868 117
L 868 117
L 868 117
L 868 117
L 868 117
L 868 117
L 868 117
L 868 117
L 868 117
L 868 117
L 868 117
L 868 117
L 868 117
L 868 117
L 868 116
L 869 116
L 869 116
L 869 116
L 869 116
L 869 116
L 869 116
L 869 116
L 869 116
L 869 116
L 869 116
L 869 116
L 869 116
L 869 116
L 869 116
L 870 116
L 870 116
L 870 116
L 870 116
L 870 116
L 870 116
L 870 116
L 870 116
L 870 116
L 870 116
L 870 116
L 870 116
L 870 116
L 870 115
L 870 115
L 870 115
L 870 115
L 870 115
L 870 115
L 870 115
L 870 115
L 870 115
L 870 115
L 870 115
L 870 115
L 870 115
L 870 115
L 870 115
L 870 115
L 870 115
L 870 115
L 870 115
L 870 115
L 870 115
L 870 115
L 870 115
L 870 115
L 870 115
L 870 115
L 870 115
L 870 115
L 870 114
L 870 114
L 870 114
L 870 114
L 870 114
L 870 114
L 870 114
L 870 114
L 870 114
L 870 114
L 870 114
L 870 114
L 871 114
L 871 114
L 871 114
L 871 114
L 871 114
L 871 114
L 871 114
L 871 114
L 871 114
L 871 114
L 871 114
L 871 114
L 871 114
L 871 114
L 871 114
L 871 114
L 871 113
L 871 113
L 871 113
L 871 113
L 871 113
L 871 113
L 871 113
L 871 113
L 871 113
L 871 113
L 871 113
L 871 113
L 871 113
L 871 113
L 871 113
L 871 113
L 871 113
L 871 113
L 871 113
L 871 113
L 871 113
L 871 113
L 871 113
L 871 113
L 871 113
L 871 113
L 871 113
L 871 113
L 871 112
L 871 112
L 871 112
L 871 112
L 871 112
L 871 112
L 871 112
L 871 112
L 871 112
L 871 112
L 871 112
L 871 112
L 871 112
L 871 112
L 871 112
L 871 112
L 871 112
L 871 112
L 871 112
L 871 112
L 871 112
L 871 112
L 872 112
L 872 112
L 872 112
L 872 112
L 872 112
L 872 111
L 872 111
L 872 111
L 872 111
L 872 111
L 872 111
L 872 111
L 872 111
L 872 111
L 872 111
L 872 111
L 872 111
L 872 111
L 872 111
L 872 111
L 872 111
L 872 111
L 872 111
L 872 111
L 872 111
L 872 111
L 872 111
L 872 111
L 872 111
L 872 111
L 872 111
L 872 111
L 872 111
L 872 110
L 872 110
L 872 110
L 872 110
L 872 110
L 872 110
L 872 110
L 872 110
L 872 110
L 872 110
L 872 110
L 872 110
L 872 110
L 872 110
L 872 110
L 873 110
L 873 110
L 873 110
L 873 110
L 873 110
L 873 110
L 873 110
L 873 110
L 873 110
L 873 110
L 873 110
L 873 110
L 873 110
L 873 109
L 873 109
L 873 109
L 873 109
L 873 109
L 873 109
L 873 109
L 873 109
L 873 109
L 873 109
L 873 109
L 873 109
L 873 109
L 873 109
L 873 109
L 873 109
L 873 109
L 873 109
L 873 109
L 873 109
L 873 109
L 873 109
L 873 109
L 873 109
L 873 109
L 873 109
L 873 109
L 873 109
L 873 108
L 873 108
L 873 108
L 873 108
L 873 108
L 873 108
L 873 108
L 873 108
L 873 108
L 874 108
L 874 108
L 874 108
L 874 108
L 874 108
L 874 108
L 874 108
L 874 108
L 874 108
L 874 108
L 874 108
L 874 108
L 874 108
L 874 108
L 874 108
L 874 108
L 874 108
L 874 108
L 874 108
L 874 107
L 874 107
L 875 107
L 875 107
L 875 107
L 875 107
L 875 107
L 875 107
L 875 107
L 875 107
L 875 107
L 875 107
L 875 107
L 875 107
L 875 107
L 875 107
L 875 107
L 875 107
L 875 107
L 875 107
L 875 107
L 875 107
L 875 107
L 875 107
L 875 107
L 875 107
L 875 107
L 875 107
L 875 106
L 875 106
L 875 106
L 875 106
L 875 106
L 876 106
L 876 106
L 876 106
L 876 106
L 876 106
L 876 106
L 876 106
L 876 106
L 876 106
L 876 106
L 876 106
L 876 106
L 876 106
L 876 106
L 876 106
L 876 106
L 876 106
L 876 106
L 876 106
L 876 106
L 876 106
L 876 106
L 876 106
L 876 105
L 876 105
L 876 105
L 877 105
L 877 105
L 877 105
L 877 105
L 877 105
L 877 105
L 877 105
L 877 105
L 877 105
L 877 105
L 877 105
L 877 105
L 877 105
L 877 105
L 877 105
L 877 105
L 877 105
L 877 105
L 878 105
L 878 105
L 878 105
L 878 105
L 878 105
L 878 105
L 878 105
L 878 104
L 878 104
L 878 104
L 878 104
L 879 104
L 879 104
L 879 104
L 879 104
L 879 104
L 879 104
L 879 104
L 879 104
L 879 104
L 879 104
L 879 104
L 879 104
L 879 104
L 880 104
L 880 104
L 880 104
L 880 104
L 880 104
L 880 104
L 880 104
L 880 104
L 880 104
L 880 104
L 880 104
L 880 103
L 880 103
L 880 103
L 880 103
L 880 103
L 880 103
L 880 103
L 880 103
L 880 103
L 880 103
L 880 103
L 881 103
L 881 103
L 881 103
L 881 103
L 881 103
L 881 103
L 881 103
L 881 103
L 881 103
L 881 103
L 881 103
L 881 103
L 881 103
L 881 103
L 881 103
L 881 103
L 881 103
L 881 102
L 881 102
L 881 102
L 881 102
L 881 102
L 881 102
L 881 102
L 882 102
L 882 102
L 882 102
L 882 102
L 882 102
L 882 102
L 882 102
L 882 102
L 882 102
L 882 102
L 882 102
L 882 102
L 882 102
L 882 102
L 882 102
L 882 102
L 882 102
L 882 102
L 882 102
L 882 102
L 882 102
L 882 101
L 882 101
L 882 101
L 882 101
L 882 101
L 882 101
L 882 101
L 882 101
L 882 101
L 883 101
L 883 101
L 883 101
L 883 101
L 883 101
L 883 101
L 883 101
L 883 101
L 883 101
L 883 101
L 883 101
L 883 101
L 883 101
L 883 101
L 883 101
L 883 101
L 883 101
L 883 101
L 883 101
L 883 100
L 883 100
L 883 100
L 884 100
L 884 100
L 884 100
L 884 100
L 884 100
L 884 100
L 884 100
L 884 100
L 884 100
L 884 100
L 884 100
L 884 100
L 884 100
L 884 100
L 884 100
L 884 100
L 884 100
L 884 100
L 884 100
L 884 100
L 884 100
L 884 100
L 884 100
L 884 100
L 884 100
L 884 99
L 884 99
L 884 99
L 884 99
L 884 99
L 884 99
L 884 99
L 884 99
L 885 99
L 885 99
L 885 99
L 885 99
L 885 99
L 885 99
L 885 99
L 885 99
L 885 99
L 885 99
L 885 99
L 886 99
L 886 99
L 886 99
L 886 99
L 886 99
L 886 99
L 886 99
L 886 99
L 886 99
L 886 98
L 886 98
L 886 98
L 887 98
L 887 98
L 887 98
L 887 98
L 887 98
L 887 98
L 887 98
L 887 98
L 887 98
L 887 98
L 887 98
L 887 98
L 887 98
L 887 98
L 887 98
L 888 98
L 888 98
L 888 98
L 888 98
L 888 98
L 888 98
L 888 98
L 888 98
L 888 98
L 888 98
L 888 97
L 888 97
L 888 97
L 888 97
L 888 97
L 888 97
L 888 97
L 888 97
L 888 97
L 888 97
L 888 97
L 888 97
L 888 97
L 888 97
L 888 97
L 888 97
L 888 97
L 888 97
L 888 97
L 888 97
L 888 97
L 888 97
L 889 97
L 889 97
L 889 97
L 889 97
L 889 97
L 889 97
L 889 96
L 889 96
L 889 96
L 889 96
L 889 96
L 889 96
L 889 96
L 889 96
L 889 96
L 889 96
L 889 96
L 889 96
L 889 96
L 889 96
L 890 96
L 890 96
L 890 96
L 890 96
L 890 96
L 890 96
L 890 96
L 890 96
L 890 96
L 890 96
L 890 96
L 890 96
L 890 96
L 890 96
L 890 95
L 890 95
L 891 95
L 891 95
L 891 95
L 891 95
L 891 95
L 891 95
L 891 95
L 891 95
L 891 95
L 891 95
L 891 95
L 892 95
L 892 95
L 892 95
L 892 95
L 892 95
L 892 95
L 892 95
L 892 95
L 892 95
L 892 95
L 892 95
L 892 95
L 892 95
L 892 95
L 892 94
L 892 94
L 892 94
L 893 94
L 893 94
L 893 94
L 893 94
L 893 94
L 893 94
L 893 94
L 893 94
L 893 94
L 893 94
L 893 94
L 894 94
L 894 94
L 894 94
L 894 94
L 894 94
L 894 94
L 894 94
L 894 94
L 894 94
L 894 94
L 894 94
L 895 94
L 895 94
L 895 94
L 895 93
L 895 93
L 895 93
L 895 93
L 895 93
L 895 93
L 895 93
L 896 93
L 896 93
L 896 93
L 896 93
L 896 93
L 896 93
L 896 93
L 896 93
L 896 93
L 896 93
L 896 93
L 897 93
L 897 93
L 897 93
L 897 93
L 897 93
L 897 93
L 898 93
L 898 93
L 898 93
L 898 93
L 898 92
L 899 92
L 899 92
L 899 92
L 899 92
L 899 92
L 899 92
L 899 92
L 899 92
L 899 92
L 900 92
L 900 92
L 900 92
L 900 92
L 900 92
L 900 92
L 900 92
L 900 92
L 901 92
L 901 92
L 901 92
L 901 92
L 901 92
L 901 92
L 901 92
L 902 92
L 902 92
L 902 92
L 902 91
L 902 91
L 902 91
L 902 91
L 902 91
L 902 91
L 902 91
L 902 91
L 903 91
L 903 91
L 903 91
L 903 91
L 903 91
L 903 91
L 903 91
L 903 91
L 903 91
L 903 91
L 903 91
L 903 91
L 903 91
L 903 91
L 903 91
L 903 91
L 903 91
L 904 91
L 904 91
L 904 91
L 904 90
L 904 90
L 904 90
L 904 90
L 904 90
L 904 90
L 904 90
L 904 90
L 904 90
L 904 90
L 904 90
L 904 90
L 904 90
L 904 90
L 904 90
L 904 90
L 904 90
L 904 90
L 904 90
L 904 90
L 904 90
L 904 90
L 904 90
L 904 90
L 904 90
L 904 90
L 905 90
L 905 90
L 905 89
L 905 89
L 905 89
L 905 89
L 905 89
L 905 89
L 905 89
L 905 89
L 905 89
L 905 89
L 905 89
L 905 89
L 905 89
L 905 89
L 905 89
L 905 89
L 905 89
L 905 89
L 905 89
L 906 89
L 906 89
L 906 89
L 906 89
L 906 89
L 906 89
L 907 89
L 907 89
L 907 89
L 907 88
L 907 88
L 907 88
L 908 88
L 908 88
L 908 88
L 908 88
L 908 88
L 908 88
L 908 88
L 908 88
L 908 88
L 908 88
L 908 88
L 908 88
L 909 88
L 909 88
L 909 88
L 909 88
L 909 88
L 909 88
L 909 88
L 909 88
L 909 88
L 909 88
L 910 88
L 910 88
L 910 88
L 910 87
L 910 87
L 910 87
L 910 87
L 910 87
L 910 87
L 911 87
L 911 87
L 911 87
L 911 87
L 911 87
L 911 87
L 911 87
L 912 87
L 912 87
L 912 87
L 912 87
L 912 87
L 912 87
L 912 87
L 912 87
L 912 87
L 913 87
L 913 87
L 913 87
L 913 87
L 913 87
L 913 87
L 913 86
L 913 86
L 913 86
L 914 86
L 914 86
L 914 86
L 914 86
L 914 86
L 914 86
L 914 86
L 914 86
L 914 86
L 914 86
L 914 86
L 914 86
L 914 86
L 914 86
L 915 86
L 915 86
L 915 86
L 915 86
L 915 86
L 915 86
L 915 86
L 915 86
L 915 86
L 915 86
L 915 86
L 915 85
L 915 85
L 915 85
L 915 85
L 915 85
L 915 85
L 915 85
L 915 85
L 915 85
L 915 85
L 915 85
L 915 85
L 915 85
L 915 85
L 915 85
L 916 85
L 916 85
L 916 85
L 916 85
L 916 85
L 916 85
L 916 85
L 916 85
L 916 85
L 916 85
L 916 85
L 916 85
L 916 85
L 916 84
L 917 84
L 917 84
L 917 84
L 917 84
L 917 84
L 917 84
L 917 84
L 917 84
L 917 84
L 917 84
L 917 84
L 918 84
L 918 84
L 918 84
L 918 84
L 918 84
L 918 84
L 918 84
L 918 84
L 918 84
L 918 84
L 918 84
L 919 84
L 919 84
L 919 84
L 919 84
L 919 84
L 919 83
L 919 83
L 919 83
L 919 83
L 919 83
L 919 83
L 919 83
L 919 83
L 919 83
L 919 83
L 919 83
L 920 83
L 920 83
L 920 83
L 920 83
L 920 83
L 920 83
L 920 83
L 920 83
L 920 83
L 920 83
L 920 83
L 920 83
L 921 83
L 921 83
L 921 83
L 921 83
L 921 83
L 921 82
L 921 82
L 921 82
L 922 82
L 922 82
L 922 82
L 922 82
L 922 82
L 922 82
L 922 82
L 922 82
L 922 82
L 922 82
L 922 82
L 922 82
L 922 82
L 922 82
L 922 82
L 923 82
L 923 82
L 923 82
L 923 82
L 923 82
L 923 82
L 923 82
L 923 82
L 924 82
L 924 82
L 924 81
L 924 81
L 924 81
L 924 81
L 924 81
L 924 81
L 925 81
L 925 81
L 925 81
L 925 81
L 925 81
L 925 81
L 925 81
L 925 81
L 926 81
L 926 81
L 926 81
L 926 81
L 926 81
L 926 81
L 926 81
L 927 81
L 927 81
L 927 81
L 927 81
L 927 81
L 927 81
L 927 81
L 927 80
L 927 80
L 928 80
L 928 80
L 928 80
L 928 80
L 928 80
L 929 80
L 929 80
L 929 80
L 929 80
L 929 80
L 929 80
L 929 80
L 930 80
L 930 80
L 930 80
L 930 80
L 930 80
L 930 80
L 930 80
L 930 80
L 930 80
L 930 80
L 930 80
L 930 80
L 931 80
L 931 80
L 931 79
L 931 79
L 931 79
L 931 79
L 931 79
L 931 79
L 931 79
L 931 79
L 931 79
L 931 79
L 932 79
L 932 79
L 932 79
L 932 79
L 932 79
L 932 79
L 932 79
L 932 79
L 932 79
L 932 79
L 932 79
L 932 79
L 932 79
L 932 79
L 932 79
L 932 79
L 932 79
L 932 79
L 932 78
L 932 78
L 932 78
L 933 78
L 933 78
L 933 78
L 933 78
L 933 78
L 933 78
L 933 78
L 934 78
L 934 78
L 934 78
L 934 78
L 934 78
L 934 78
L 934 78
L 934 78
L 934 78
L 935 78
L 935 78
L 935 78
L 935 78
L 935 78
L 935 78
L 935 78
L 935 78
L 935 77
L 935 77
L 935 77
L 935 77
L 935 77
L 935 77
L 936 77
L 936 77
L 936 77
L 936 77
L 936 77
L 936 77
L 936 77
L 936 77
L 936 77
L 936 77
L 936 77
L 936 77
L 936 77
L 937 77
L 937 77
L 937 77
L 937 77
L 938 77
L 938 77
L 938 77
L 939 77
L 939 77
L 939 76
L 939 76
L 940 76
L 940 76
L 940 76
L 940 76
L 940 76
L 940 76
L 940 76
L 940 76
L 940 76
L 941 76
L 941 76
L 941 76
L 941 76
L 941 76
L 941 76
L 941 76
L 941 76
L 941 76
L 941 76
L 941 76
L 942 76
L 942 76
L 942 76
L 942 76
L 942 76
L 942 76
L 942 75
L 942 75
L 942 75
L 942 75
L 942 75
L 942 75
L 942 75
L 942 75
L 942 75
L 942 75
L 942 75
L 942 75
L 943 75
L 943 75
L 943 75
L 943 75
L 943 75
L 943 75
L 943 75
L 943 75
L 943 75
L 943 75
L 943 75
L 943 75
L 943 75
L 943 75
L 943 75
L 943 75
L 943 74
L 943 74
L 943 74
L 943 74
L 943 74
L 943 74
L 943 74
L 943 74
L 943 74
L 944 74
L 944 74
L 944 74
L 944 74
L 944 74
L 944 74
L 944 74
L 944 74
L 944 74
L 944 74
L 944 74
L 944 74
L 944 74
L 944 74
L 944 74
L 944 74
L 944 74
L 944 74
L 944 74
L 944 73
L 944 73
L 944 73
L 944 73
L 945 73
L 945 73
L 945 73
L 945 73
L 945 73
L 945 73
L 945 73
L 945 73
L 945 73
L 945 73
L 945 73
L 945 73
L 945 73
L 945 73
L 945 73
L 945 73
L 945 73
L 945 73
L 945 73
L 945 73
L 945 73
L 945 73
L 946 73
L 946 73
L 946 72
L 946 72
L 946 72
L 946 72
L 946 72
L 946 72
L 946 72
L 946 72
L 946 72
L 946 72
L 946 72
L 946 72
L 946 72
L 946 72
L 946 72
L 946 72
L 946 72
L 946 72
L 946 72
L 946 72
L 946 72
L 946 72
L 946 72
L 946 72
L 946 72
L 946 72
L 946 72
L 946 72
L 946 71
L 946 71
L 946 71
L 946 71
L 946 71
L 946 71
L 946 71
L 946 71
L 946 71
L 946 71
L 946 71
L 946 71
L 946 71
L 946 71
L 946 71
L 946 71
L 946 71
L 946 71
L 946 71
L 946 71
L 946 71
L 946 71
L 946 71
L 946 71
L 946 71
L 946 71
L 946 71
L 946 71
L 946 70
L 946 70
L 946 70
L 946 70
L 946 70
L 946 70
L 946 70
L 946 70
L 946 70
L 946 70
L 946 70
L 946 70
L 946 70
L 946 70
L 946 70
L 946 70
L 946 70
L 946 70
L 946 70
L 946 70
L 946 70
L 946 70
L 946 70
L 946 70
L 946 70
L 946 70
L 946 70
L 946 70
L 946 69
L 946 69
L 946 69
L 946 69
L 946 69
L 946 69
L 946 69
L 946 69
L 946 69
L 946 69
L 946 69
L 946 69
L 946 69
L 946 69
L 946 69
L 946 69
L 946 69
L 946 69
L 946 69
L 946 69
L 946 69
L 946 69
L 946 69
L 946 69
L 946 69
L 946 69
L 946 69
L 946 69
L 946 68
L 946 68
L 946 68
L 946 68
L 946 68
L 946 68
L 946 68
L 946 68
L 946 68
L 946 68
L 946 68
L 946 68
L 946 68
L 946 68
L 946 68
L 946 68
L 946 68
L 946 68
L 946 68
L 946 68
L 946 68
L 946 68
L 946 68
L 946 68
L 946 68
L 946 68
L 946 68
L 946 68
L 946 67
L 946 67
L 946 67
L 946 67
L 946 67
L 946 67
L 946 67
L 946 67
L 946 67
L 946 67
L 946 67
L 946 67
L 946 67
L 946 67
L 946 67
L 946 67
L 946 67
L 946 67
L 946 67
L 946 67
L 946 67
L 946 67
L 946 67
L 946 67
L 946 67
L 946 67
L 946 67
L 946 67
L 946 66
L 946 66
L 946 66
L 946 66
L 946 66
L 946 66
L 946 66
L 946 66
L 946 66
L 946 66
L 946 66
L 946 66
L 946 66
L 946 66
L 946 66
L 946 66
L 946 66
L 946 66
L 946 66
L 946 66
L 946 66
L 946 66
L 946 66
L 946 66
L 946 66
L 946 66
L 946 66
L 946 66
L 946 65
L 946 65
L 946 65
L 946 65
L 946 65
L 946 65
L 946 65
L 946 65
L 946 65
L 946 65
L 946 65
L 947 65
L 947 65
L 947 65
L 947 65
L 947 65
L 947 65
L 947 65
L 947 65
L 947 65
L 947 65
L 947 65
L 947 65
L 947 65
L 947 65
L 947 65
L 947 65
L 947 65
L 947 64
L 947 64
L 947 64
L 947 64
L 947 64
L 947 64
L 947 64
L 947 64
L 947 64
L 947 64
L 947 64
L 947 64
L 947 64
L 947 64
L 947 64
L 947 64
L 947 64
L 947 64
L 947 64
L 947 64
L 947 64
L 947 64
L 947 64
L 947 64
L 947 64
L 947 64
L 947 64
L 947 64
L 947 63
L 947 63
L 947 63
L 947 63
L 947 63
L 947 63
L 947 63
L 947 63
L 947 63
L 947 63
L 947 63
L 947 63
L 947 63
L 947 63
L 947 63
L 947 63
L 947 63
L 947 63
L 947 63
L 947 63
L 947 63
L 947 63
L 947 63
L 947 63
L 947 63
L 947 63
L 947 63
L 947 63
L 947 62
L 947 62
L 947 62
L 947 62
L 947 62
L 947 62
L 947 62
L 947 62
L 947 62
L 947 62
L 947 62
L 947 62
L 947 62
L 947 62
L 947 62
L 947 62
L 947 62
L 947 62
L 947 62
L 947 62
L 947 62
L 947 62
L 947 62
L 947 62
L 947 62
L 947 62
L 947 62
L 947 62
L 947 61
L 947 61
L 947 61
L 947 61
L 947 61
L 947 61
L 947 61
L 947 61
L 947 61
L 947 61
L 947 61
L 947 61
L 947 61
L 947 61
L 947 61
L 947 61
L 947 61
L 947 61
L 947 61
L 947 61
L 947 61
L 947 61
L 948 61
L 948 61
L 948 61
L 948 61
L 948 61
L 948 60
L 948 60
L 948 60
L 948 60
L 948 60
L 948 60
L 948 60
L 948 60
L 948 60
L 948 60
L 948 60
L 948 60
L 948 60
L 948 60
L 948 60
L 948 60
L 948 60
L 948 60
L 948 60
L 948 60
L 948 60
L 948 60
L 948 60
L 948 60
L 948 60
L 948 60
L 948 60
L 948 60
L 948 59
L 948 59
L 948 59
L 948 59
L 948 59
L 948 59
L 948 59
L 948 59
L 948 59
L 948 59
L 948 59
L 948 59
L 948 59
L 948 59
L 948 59
L 948 59
L 948 59
L 948 59
L 948 59
L 948 59
L 948 59
L 948 59
L 948 59
L 948 59
L 948 59
L 948 59
L 948 59
L 948 59
L 948 58
L 948 58
L 948 58
L 948 58
L 948 58
L 948 58
L 948 58
L 948 58
L 948 58
L 948 58
L 948 58
L 948 58
L 948 58
L 948 58
L 948 58
L 948 58
L 948 58
L 948 58
L 948 58
L 948 58
L 948 58
L 948 58
L 948 58
L 948 58
L 948 58
L 948 58
L 948 58
L 948 58
L 948 57
L 948 57
L 948 57
L 948 57
L 948 57
L 948 57
L 948 57
L 948 57
L 948 57
L 948 57
L 948 57
L 948 57
L 948 57
L 948 57
L 948 57
L 948 57
L 948 57
L 948 57
L 948 57
L 948 57
L 948 57
L 948 57
L 948 57
L 948 57
L 948 57
L 948 57
L 948 57
L 948 57
L 948 56
L 948 56
L 948 56
L 948 56
L 948 56
L 948 56
L 948 56
L 948 56
L 948 56
L 948 56
L 948 56
L 948 56
L 948 56
L 948 56
L 948 56
L 948 56
L 948 56
L 948 56
L 948 56
L 948 56
L 948 56
L 948 56
L 948 56
L 948 56
L 948 56
L 948 56
L 948 56
L 948 56
L 948 55
L 948 55
L 948 55
L 948 55
L 948 55
L 948 55
L 948 55
L 948 55
L 948 55
L 948 55
L 948 55
L 948 55
L 948 55
L 948 55
L 948 55
L 948 55
L 948 55
L 948 55
L 948 55
L 948 55
L 948 55
L 948 55
L 948 55
L 948 55
L 948 55
L 948 55
L 948 55
L 948 55
L 948 54
L 948 54
L 948 54
L 948 54
L 948 54
L 948 54
L 948 54
L 948 54
L 948 54
L 948 54
L 948 54
L 948 54
L 948 54
L 948 54
L 948 54
L 948 54
L 948 54
L 948 54
L 948 54
L 948 54
L 948 54
L 948 54
L 948 54
L 948 54
L 948 54
L 948 54
L 948 54
L 948 54
L 948 53
L 948 53
L 948 53
L 948 53
L 948 53
L 948 53
L 948 53
L 948 53
L 948 53
L 948 53
L 948 53
L 948 53
L 948 53
L 948 53
L 948 53
L 948 53
L 948 53
L 948 53
L 948 53
L 948 53
L 948 53
L 948 53
L 948 53
L 948 53
L 948 53
L 948 53
L 948 53
L 948 53
L 948 52
L 948 52
L 948 52
L 948 52
L 948 52
L 948 52
L 948 52
L 948 52
L 948 52
L 948 52
L 948 52
L 948 52
L 948 52
L 948 52
L 948 52
L 948 52
L 948 52
L 948 52
L 948 52
L 948 52
L 948 52
L 948 52
L 948 52
L 948 52
L 948 52
L 948 52
L 948 52
L 948 52
L 948 51
L 948 51
L 948 51
L 948 51
L 948 51
L 948 51
L 948 51
L 948 51
L 948 51
L 948 51
L 948 51
L 948 51
L 948 51
L 948 51
L 948 51
L 948 51
L 948 51
L 948 51
L 948 51
L 948 51
L 948 51
L 948 51
L 948 51
L 948 51
L 948 51
L 948 51
L 948 51
L 948 51
L 948 50
L 948 50
L 948 50
L 948 50
L 948 50
L 948 50
L 948 50
L 948 50
L 948 50
L 948 50
L 948 50
L 948 50
L 948 50
L 948 50
L 948 50
L 948 50
L 948 50
L 948 50
L 948 50
L 948 50
L 948 50
L 948 50
L 948 50
L 948 50
L 948 50
L 948 50
L 948 50
L 948 50
L 948 49
L 948 49
L 948 49
L 948 49
L 948 49
L 949 49
L 949 49
L 949 49
L 949 49
L 949 49
L 949 49
L 949 49
L 949 49
L 949 49
L 949 49
L 949 49
L 949 49
L 949 49
L 949 49
L 949 49
L 949 49
L 949 49
L 949 49
L 949 49
L 949 49
L 949 49
L 949 49
L 949 49
L 949 48
L 949 48
L 949 48
L 949 48
L 949 48
L 949 48
L 949 48
L 949 48
L 949 48
L 949 48
L 949 48
L 949 48
L 949 48
L 949 48
L 949 48
L 949 48
L 949 48
L 949 48
L 949 48
L 949 48
L 949 48
L 949 48
L 949 48
L 949 48
L 949 48
L 949 48
L 949 48
L 949 48
L 949 47
L 949 47
L 949 47
L 949 47
L 949 47
L 949 47
L 949 47
L 949 47
L 949 47
L 949 47
L 949 47
L 949 47
L 949 47
L 949 47
L 949 47
L 949 47
L 949 47
L 949 47
L 949 47
L 949 47
L 949 47
L 949 47
L 949 47
L 949 47
L 949 47
L 949 47
L 949 47
L 949 47
L 949 46
L 949 46
L 949 46
L 949 46
L 949 46
L 949 46
L 949 46
L 949 46
L 949 46
L 949 46
L 949 46
L 949 46
L 949 46
L 949 46
L 949 46
L 949 46
L 949 46
L 949 46
L 949 46
L 949 46
L 949 46
L 949 46
L 949 46
L 949 46
L 949 46
L 949 46
L 949 46
L 949 46
L 949 45
L 949 45
L 949 45
L 949 45
L 949 45
L 949 45
L 949 45
L 949 45
L 949 45
L 949 45
L 949 45
L 949 45
L 949 45
L 949 45
L 949 45
L 949 45
L 949 45
L 949 45
L 949 45
L 949 45
L 949 45
L 949 45
L 949 45
L 949 45
L 949 45
L 949 45
L 949 45
L 949 45
L 949 44
L 949 44
L 949 44
L 949 44
L 949 44
L 949 44
L 949 44
L 949 44
L 949 44
L 949 44
L 949 44
L 949 44
L 949 44
L 949 44
L 949 44
L 949 44
L 949 44
L 949 44
L 949 44
L 949 44
L 949 44
L 949 44
L 949 44
L 949 44
L 949 44
L 949 44
L 949 44
L 949 43
L 949 43
L 949 43
L 949 43
L 949 43
L 949 43
L 949 43
L 949 43
L 949 43
L 949 43
L 949 43
L 949 43
L 949 43
L 949 43
L 949 43
L 949 43
L 949 43
L 949 43
L 949 43
L 949 43
L 949 43
L 949 43
L 949 43
L 949 43
L 949 43
L 949 43
L 949 43
L 949 43
L 949 42
L 949 42
L 949 42
L 949 42
L 949 42
L 949 42
L 949 42
L 949 42
L 949 42
L 949 42
L 949 42
L 949 42
L 949 42
L 949 42
L 949 42
L 949 42
L 949 42
L 949 42
L 949 42
L 949 42
L 949 42
L 949 42
L 949 42
L 949 42
L 949 42
L 949 42
L 949 42
L 949 42
L 949 41
L 949 41
L 949 41
L 949 41
L 949 41
L 949 41
L 949 41
L 949 41
L 949 41
L 949 41
L 949 41
L 949 41
L 949 41
L 949 41
L 949 41
L 949 41
L 949 41
L 949 41
L 949 41
L 949 41
L 949 41
L 949 41
L 949 41
L 949 41
L 950 41
L 950 41
L 950 41
L 950 41
L 950 40
L 950 40
L 950 40
L 950 40
L 950 40
L 950 40
L 950 40
L 950 40
L 950 40
L 950 40
L 950 40
L 950 40
L 950 40
L 950 40
L 950 40
L 950 40
L 950 40
L 950 40
L 950 40
L 950 40
L 950 40
L 950 40
L 950 40
L 950 40
L 950 40
L 950 40
L 950 40
L 950 40
L 950 39
L 950 39
L 950 39
L 950 39
L 950 39
L 950 39
L 950 39
L 950 39
L 950 39
L 950 39
L 950 39
L 950 39
L 950 39
L 950 39
L 950 39
L 950 39
L 950 39
L 950 39
L 950 39
L 950 39
L 950 39
L 950 39
L 950 39
L 950 39
L 950 39
L 950 39
L 950 39
L 950 39
L 950 38
L 950 38
L 950 38
L 950 38
L 950 38
L 950 38
L 950 38
L 950 38
L 950 38
L 950 38
L 950 38
L 950 38
L 950 38
L 950 38
L 950 38
L 950 38
L 950 38
L 950 38
L 950 38
L 950 38
L 950 38
L 950 38
L 950 38
L 950 38
L 950 38
L 950 38
L 950 38
L 950 38
L 950 37
L 950 37
L 950 37
L 950 37
L 950 37
L 950 37
L 950 37
L 950 37
L 950 37
L 950 37
L 950 37
L 950 37
L 950 37
L 950 37
L 950 37
L 950 37
L 950 37
L 950 37
L 950 37
L 950 37
L 950 37
L 950 37
L 950 37
L 950 37
L 950 37
L 950 37
L 950 37
L 950 37
L 950 36
L 950 36
L 950 36
L 950 36
L 950 36
L 950 36
L 950 36
L 950 36
L 950 36
L 950 36
L 950 36
L 950 36
L 950 36
L 950 36
L 950 36
L 950 36
L 950 36
L 950 36
L 950 36
L 950 36
L 950 36
L 950 36
L 950 36
L 950 36
L 950 36
L 950 36
L 950 36
L 950 36
L 950 35
L 950 35
L 950 35
L 950 35
L 950 35
L 950 35
L 950 35
L 950 35
L 950 35
L 950 35
L 950 35
L 950 35
L 950 35
L 950 35
L 950 35
L 950 35
L 950 35
L 950 35
L 950 35
L 950 35
L 950 35
L 950 35
L 950 35
L 950 35
L 950 35
L 950 35
L 950 35
L 950 35
L 950 34
L 950 34
L 950 34
L 950 34
L 950 34
L 950 34
L 950 34
L 950 34
L 950 34
L 950 34
L 950 34
L 950 34
L 950 34
L 950 34
L 950 34
L 950 34
L 950 34
L 950 34
L 950 34
L 950 34
L 950 34
L 950 34
L 950 34
L 950 34
L 950 34
L 950 34
L 950 34
L 950 34
L 950 33
L 950 33
L 950 33
L 950 33
L 950 33
L 950 33
L 950 33
L 950 33
L 950 33
L 950 33
L 950 33
L 950 33
L 950 33
L 950 33
L 950 33
L 950 33
L 950 33
L 950 33
L 950 33
L 950 33
L 950 33
L 950 33
L 950 33
L 950 33
L 950 33
L 950 33
L 950 33
L 950 33
L 950 32
L 950 32
L 950 32
L 950 32
L 950 32
L 950 32
L 951 32
L 951 32
L 951 32
L 951 32
L 951 32
L 951 32
L 951 32
L 951 32
L 951 32
L 951 32
L 951 32
L 951 32
L 951 32
L 951 32
L 951 32
L 951 32
L 951 32
L 951 32
L 951 32
L 951 32
L 951 32
L 951 32
L 951 31
L 951 31
L 951 31
L 951 31
L 951 31
L 951 31
L 951 31
L 951 31
L 951 31
L 951 31
L 951 31
L 951 31
L 951 31
L 951 31
L 951 31
L 951 31
L 951 31
L 951 31
L 951 31
L 951 31
L 951 31
L 951 31
L 951 31
L 951 31
L 951 31
L 951 31
L 951 31
L 951 31
L 951 30
L 951 30
L 951 30
L 951 30
L 951 30
L 951 30
L 951 30
L 951 30
L 951 30
L 951 30
L 951 30
L 951 30
L 951 30
L 951 30
L 951 30
L 951 30
L 951 30
L 951 30
L 951 30
L 951 30
L 951 30
L 951 30
L 951 30
L 951 30
L 951 30
L 951 30
L 951 30
L 951 30
L 951 29
L 951 29
L 951 29
L 951 29
L 951 29
L 951 29
L 951 29
L 951 29
L 951 29
L 951 29
L 951 29
L 951 29
L 951 29
L 951 29
L 951 29
L 951 29
L 951 29
L 951 29
L 951 29
L 951 29
L 951 29
L 951 29
L 951 29
L 951 29
L 951 29
L 951 29
L 951 29
L 951 29
L 951 28
L 951 28
L 951 28
L 951 28
L 951 28
L 951 28
L 951 28
L 951 28
L 951 28
L 951 28
L 951 28
L 951 28
L 951 28
L 951 28
L 951 28
L 951 28
L 951 28
L 951 28
L 951 28
L 951 28
L 951 28
L 951 28
L 951 28
L 951 28
L 951 28
L 951 28
L 951 28
L 951 28
L 951 27
L 951 27
L 951 27
L 951 27
L 951 27
L 951 27
L 951 27
L 951 27
L 951 27
L 951 27
L 951 27
L 951 27
L 951 27
L 951 27
L 951 27
L 951 27
L 951 27
L 951 27
L 951 27
L 951 27
L 951 27
L 951 27
L 951 27
L 951 27
L 951 27
L 951 27
L 951 27
L 951 26
L 951 26
L 951 26
L 951 26
L 951 26
L 951 26
L 951 26
L 951 26
L 951 26
L 951 26
L 951 26
L 951 26
L 951 26
L 951 26
L 951 26
L 951 26
L 951 26
L 951 26
L 951 26
L 951 26
L 951 26
L 951 26
L 951 26
L 951 26
L 951 26
L 951 26
L 951 26
L 951 26
L 951 25
L 951 25
L 951 25
L 951 25
L 951 25
L 951 25
L 951 25
L 951 25
L 951 25
L 951 25
L 951 25
L 951 25
L 951 25
L 951 25
L 951 25
L 951 25
L 951 25
L 951 25
L 951 25
L 951 25
L 951 25
L 951 25
L 951 25
L 951 25
L 951 25
L 951 25
L 951 25
L 951 25
L 951 24
L 951 24
L 951 24
L 951 24
L 951 24
L 951 24
L 951 24
L 951 24
L 951 24
L 951 24
L 951 24
L 951 24
L 951 24
L 951 24
L 951 24
L 951 24
L 951 24
L 951 24
L 951 24
L 951 24
L 951 24
L 951 24
L 951 24
L 951 24
L 951 24
L 951 24
L 951 24
L 951 24
L 951 23
L 951 23
L 951 23
L 951 23
L 951 23
L 951 23
L 951 23
L 951 23
L 951 23
L 951 23
L 951 23
L 951 23
L 951 23
L 951 23
L 951 23
L 951 23
L 951 23
L 951 23
L 951 23
L 951 23
L 951 23
L 951 23
L 951 23
L 951 23
L 951 23
L 951 23
L 951 23
L 951 23
L 951 22
L 951 22
L 951 22
L 951 22
L 951 22
L 951 22
L 951 22
L 951 22
L 951 22
L 951 22
L 951 22
L 951 22
L 951 22
L 951 22
L 951 22
L 951 22
L 951 22
L 951 22
L 951 22
L 951 22
L 951 22
L 951 22
L 951 22
L 951 22
L 951 22
L 951 22
L 951 22
L 951 22
L 951 21
L 951 21
L 951 21
L 951 21
L 951 21
L 951 21
L 951 21
L 951 21
L 951 21
L 951 21
L 951 21
L 951 21
L 951 21
L 951 21
L 951 21
L 951 21
L 951 21
L 951 21
L 951 21
L 951 21
L 951 21
L 952 21
L 952 21
L 952 21
L 952 21
L 952 21
L 952 21
L 952 21
L 952 20
L 952 20
L 952 20
L 952 20
L 952 20
L 952 20
L 952 20
L 952 20
L 952 20
L 952 20
L 952 20
L 952 20
L 952 20
L 952 20
L 952 20
L 952 20
L 952 20
L 952 20
L 952 20
L 952 20
L 952 20
L 952 20
L 952 20
L 952 20
L 952 20
L 952 20
L 952 20
L 952 20
L 952 19
L 952 19
L 952 19
L 952 19
L 952 19
L 952 19
L 952 19
L 952 19
L 952 19
L 952 19
L 952 19
L 952 19
L 952 19
L 952 19
L 952 19
L 952 19
L 952 19
L 952 19
L 952 19
L 952 19
L 952 19
L 952 19
L 952 19
L 952 19
L 952 19
L 952 19
L 952 19
L 953 19
L 953 18
L 953 18
L 953 18
L 953 18
L 953 18
L 953 18
L 953 18
L 953 18
L 953 18
L 953 18
L 953 18
L 953 18
L 953 18
L 953 18
L 953 18
L 953 18
L 953 18
L 953 18
L 953 18
L 953 18
L 953 18
L 953 18
L 953 18
L 953 18
L 953 18
L 953 18
L 953 18
L 953 18
L 953 17
L 953 17
L 953 17
L 953 17
L 953 17
L 953 17
L 953 17
L 953 17
L 953 17
L 953 17
L 953 17
L 953 17
L 953 17
L 953 17
L 953 17
L 953 17
L 953 17
L 953 17
L 953 17
L 954 17
L 954 17
L 954 17
L 954 17
L 954 17
L 954 17
L 954 17
L 954 17
L 954 17
L 954 16
L 954 16
L 954 16
L 954 16
L 954 16
L 954 16
L 954 16
L 954 16
L 954 16
L 954 16
L 954 16
L 954 16
L 954 16
L 954 16
L 954 16
L 954 16
L 954 16
L 954 16
L 954 16
L 954 16
L 954 16
L 954 16
L 954 16
L 954 16
L 954 16
L 954 16
L 954 16
L 954 16
L 954 15
L 954 15
L 954 15
L 954 15
L 954 15
L 954 15
L 955 15
L 955 15
L 955 15
L 955 15
L 955 15
L 955 15
L 955 15
L 955 15
L 955 15
L 955 15
L 955 15
L 955 15
L 955 15
L 955 15
L 955 15
L 955 15
L 955 15
L 955 15
L 955 15
L 955 15
L 956 15
L 956 15
L 956 14
L 956 14
L 956 14
L 956 14
L 956 14
L 956 14
L 956 14
L 956 14
L 956 14
L 956 14
L 956 14
L 956 14
L 956 14
L 956 14
L 956 14
L 956 14
L 956 14
L 956 14
L 957 14
L 957 14
L 957 14
L 957 14
L 957 14
L 957 14
L 957 14
L 957 14
L 957 14
L 957 14
L 957 13
L 957 13
L 957 13
L 957 13
L 957 13
L 957 13
L 957 13
L 957 13
L 957 13
L 957 13
L 957 13
L 957 13" style="stroke-width:2;stroke:rgba(129,199,239,1.0);fill:none"/></svg>