<!-- stars: 8477 -->
<svg xmlns="http://www.w3.org/2000/svg" xmlns:xlink="http://www.w3.org/1999/xlink" width="1024" height="400">\n<path  d="M 0 0
L 1024 0
L 1024 400
L 0 400
L 0 0" style="stroke-width:0;stroke:rgba(255,255,255,1.0);fill:rgba(255,255,255,1.0)"/><path  d="M 38 11
L 957 11
L 957 351
L 38 351
L 38 11" style="stroke-width:0;stroke:rgba(255,255,255,1.0);fill:rgba(255,255,255,1.0)"/><path  d="M 38 351
L 957 351" style="stroke-width:2;stroke:rgba(85,85,85,1.0);fill:none"/><path  d="M 38 351
L 38 356" style="stroke-width:2;stroke:rgba(85,85,85,1.0);fill:none"/><text x="5" y="373" style="stroke-width:0;stroke:none;fill:rgba(51,51,51,1.0);font-size:12.8px;font-family:'Roboto Medium',sans-serif">2018-09-25</text><path  d="M 153 351
L 153 356" style="stroke-width:2;stroke:rgba(85,85,85,1.0);fill:none"/><text x="120" y="373" style="stroke-width:0;stroke:none;fill:rgba(51,51,51,1.0);font-size:12.8px;font-family:'Roboto Medium',sans-serif">2019-02-18</text><path  d="M 268 351
L 268 356" style="stroke-width:2;stroke:rgba(85,85,85,1.0);fill:none"/><text x="235" y="373" style="stroke-width:0;stroke:none;fill:rgba(51,51,51,1.0);font-size:12.8px;font-family:'Roboto Medium',sans-serif">2019-07-15</text><path  d="M 383 351
L 383 356" style="stroke-width:2;stroke:rgba(85,85,85,1.0);fill:none"/><text x="350" y="373" style="stroke-width:0;stroke:none;fill:rgba(51,51,51,1.0);font-size:12.8px;font-family:'Roboto Medium',sans-serif">2019-12-08</text><path  d="M 498 351
L 498 356" style="stroke-width:2;stroke:rgba(85,85,85,1.0);fill:none"/><text x="465" y="373" style="stroke-width:0;stroke:none;fill:rgba(51,51,51,1.0);font-size:12.8px;font-family:'Roboto Medium',sans-serif">2020-05-03</text><path  d="M 613 351
L 613 356" style="stroke-width:2;stroke:rgba(85,85,85,1.0);fill:none"/><text x="580" y="373" style="stroke-width:0;stroke:none;fill:rgba(51,51,51,1.0);font-size:12.8px;font-family:'Roboto Medium',sans-serif">2020-09-26</text><path  d="M 728 351
L 728 356" style="stroke-width:2;stroke:rgba(85,85,85,1.0);fill:none"/><text x="695" y="373" style="stroke-width:0;stroke:none;fill:rgba(51,51,51,1.0);font-size:12.8px;font-family:'Roboto Medium',sans-serif">2021-02-20</text><path  d="M 843 351
L 843 356" style="stroke-width:2;stroke:rgba(85,85,85,1.0);fill:none"/><text x="810" y="373" style="stroke-width:0;stroke:none;fill:rgba(51,51,51,1.0);font-size:12.8px;font-family:'Roboto Medium',sans-serif">2021-07-16</text><path  d="M 957 351
L 957 356" style="stroke-width:2;stroke:rgba(85,85,85,1.0);fill:none"/><text x="924" y="373" style="stroke-width:0;stroke:none;fill:rgba(51,51,51,1.0);font-size:12.8px;font-family:'Roboto Medium',sans-serif">2021-12-10</text><text x="483" y="395" style="stroke-width:0;stroke:none;fill:rgba(51,51,51,1.0);font-size:12.8px;font-family:'Roboto Medium',sans-serif">Time</text><path  d="M 959 351
L 959 11" style="stroke-width:2;stroke:rgba(85,85,85,1.0);fill:none"/><path  d="M 959 351
L 964 351" style="stroke-width:2;stroke:rgba(85,85,85,1.0);fill:none"/><text x="969" y="357" style="stroke-width:0;stroke:none;fill:rgba(51,51,51,1.0);font-size:12.8px;font-family:'Roboto Medium',sans-serif">0</text><path  d="M 959 308
L 964 308" style="stroke-width:2;stroke:rgba(85,85,85,1.0);fill:none"/><text x="969" y="314" style="stroke-width:0;stroke:none;fill:rgba(51,51,51,1.0);font-size:12.8px;font-family:'Roboto Medium',sans-serif">1070</text><path  d="M 959 265
L 964 265" style="stroke-width:2;stroke:rgba(85,85,85,1.0);fill:none"/><text x="969" y="271" style="stroke-width:0;stroke:none;fill:rgba(51,51,51,1.0);font-size:12.8px;font-family:'Roboto Medium',sans-serif">2130</text><path  d="M 959 223
L 964 223" style="stroke-width:2;stroke:rgba(85,85,85,1.0);fill:none"/><text x="969" y="229" style="stroke-width:0;stroke:none;fill:rgba(51,51,51,1.0);font-size:12.8px;font-family:'Roboto Medium',sans-serif">3190</text><path  d="M 959 181
L 964 181" style="stroke-width:2;stroke:rgba(85,85,85,1.0);fill:none"/><text x="969" y="187" style="stroke-width:0;stroke:none;fill:rgba(51,51,51,1.0);font-size:12.8px;font-family:'Roboto Medium',sans-serif">4250</text><path  d="M 959 138
L 964 138" style="stroke-width:2;stroke:rgba(85,85,85,1.0);fill:none"/><text x="969" y="144" style="stroke-width:0;stroke:none;fill:rgba(51,51,51,1.0);font-size:12.8px;font-family:'Roboto Medium',sans-serif">5320</text><path  d="M 959 95
L 964 95" style="stroke-width:2;stroke:rgba(85,85,85,1.0);fill:none"/><text x="969" y="101" style="stroke-width:0;stroke:none;fill:rgba(51,51,51,1.0);font-size:12.8px;font-family:'Roboto Medium',sans-serif">6380</text><path  d="M 959 53
L 964 53" style="stroke-width:2;stroke:rgba(85,85,85,1.0);fill:none"/><text x="969" y="59" style="stroke-width:0;stroke:none;fill:rgba(51,51,51,1.0);font-size:12.8px;font-family:'Roboto Medium',sans-serif">7440</text><path  d="M 959 11
L 964 11" style="stroke-width:2;stroke:rgba(85,85,85,1.0);fill:none"/><text x="969" y="17" style="stroke-width:0;stroke:none;fill:rgba(51,51,51,1.0);font-size:12.8px;font-family:'Roboto Medium',sans-serif">8500</text><text x="1009" y="150" style="stroke-width:0;stroke:none;fill:rgba(51,51,51,1.0);font-size:12.8px;font-family:'Roboto Medium',sans-serif" transform="rotate(90.00,1009,150)">Stargazers</text><path  d="M 38 351
L 40 350
L 50 350
L 51 350
L 51 350
L 51 350
L 51 350
L 54 350
L 55 350
L 55 350
L 57 350
L 57 350
L 58 350
L 58 350
L 58 350
L 58 350
L 61 350
L 67 350
L 67 350
L 69 350
L 69 350
L 70 350
L 72 350
L 72 350
L 74 350
L 74 350
L 79 349
L 83 349
L 88 349
L 88 349
L 93 349
L 94 349
L 94 349
L 94 349
L 94 349
L 94 349
L 94 349
L 94 349
L 95 349
L 95 349
L 95 349
L 97 349
L 99 349
L 99 349
L 99 349
L 99 349
L 99 349
L 100 349
L 100 349
L 101 349
L 103 349
L 103 348
L 104 348
L 105 348
L 107 348
L 108 348
L 108 348
L 109 348
L 110 348
L 110 348
L 110 348
L 111 348
L 111 348
L 111 348
L 111 348
L 112 348
L 112 348
L 112 348
L 112 348
L 112 348
L 113 348
L 113 348
L 113 348
L 115 348
L 115 348
L 115 348
L 116 347
L 116 347
L 117 347
L 118 347
L 118 347
L 120 347
L 120 347
L 120 347
L 120 347
L 120 347
L 120 347
L 122 347
L 122 347
L 122 347
L 122 347
L 123 347
L 123 347
L 125 347
L 126 347
L 127 347
L 127 347
L 127 347
L 127 347
L 129 347
L 131 347
L 133 346
L 133 346
L 134 346
L 134 346
L 134 346
L 141 346
L 144 346
L 148 346
L 149 346
L 150 346
L 150 346
L 151 346
L 151 346
L 152 346
L 153 346
L 154 346
L 154 346
L 154 346
L 155 346
L 155 346
L 155 346
L 156 346
L 156 346
L 156 346
L 159 346
L 159 345
L 161 345
L 162 345
L 164 345
L 164 345
L 165 345
L 166 345
L 166 345
L 167 345
L 167 345
L 167 345
L 168 345
L 169 345
L 170 345
L 171 345
L 172 345
L 173 345
L 175 345
L 175 345
L 176 345
L 176 345
L 177 345
L 177 345
L 178 345
L 178 345
L 181 344
L 182 344
L 182 344
L 182 344
L 183 344
L 184 344
L 184 344
L 184 344
L 185 344
L 185 344
L 185 344
L 186 344
L 186 344
L 186 344
L 187 344
L 187 344
L 187 344
L 187 344
L 187 344
L 187 344
L 187 344
L 187 344
L 187 344
L 188 344
L 188 344
L 188 343
L 188 343
L 188 343
L 188 343
L 189 343
L 191 343
L 191 343
L 192 343
L 192 343
L 192 343
L 193 343
L 193 343
L 193 343
L 194 343
L 194 343
L 194 343
L 194 343
L 195 343
L 196 343
L 198 343
L 198 343
L 198 343
L 200 343
L 200 343
L 203 343
L 203 342
L 203 342
L 204 342
L 204 342
L 204 342
L 204 342
L 205 342
L 205 342
L 207 342
L 207 342
L 207 342
L 208 342
L 208 342
L 208 342
L 209 342
L 209 342
L 210 342
L 210 342
L 211 342
L 212 342
L 212 342
L 213 342
L 214 342
L 214 342
L 216 342
L 216 341
L 217 341
L 217 341
L 217 341
L 217 341
L 218 341
L 221 341
L 221 341
L 224 341
L 225 341
L 227 341
L 228 341
L 230 341
L 230 341
L 230 341
L 231 341
L 236 341
L 236 341
L 236 341
L 237 341
L 237 341
L 238 341
L 238 341
L 238 341
L 238 341
L 239 340
L 244 340
L 247 340
L 248 340
L 248 340
L 248 340
L 248 340
L 248 340
L 248 340
L 248 340
L 248 340
L 248 340
L 249 340
L 250 340
L 252 340
L 253 340
L 253 340
L 254 340
L 255 340
L 255 340
L 256 340
L 257 340
L 258 340
L 258 340
L 258 339
L 258 339
L 258 339
L 259 339
L 259 339
L 259 339
L 259 339
L 260 339
L 260 339
L 260 339
L 261 339
L 261 339
L 261 339
L 261 339
L 262 339
L 262 339
L 262 339
L 263 339
L 264 339
L 265 339
L 266 339
L 267 339
L 268 339
L 268 339
L 268 339
L 269 339
L 269 338
L 271 338
L 273 338
L 274 338
L 275 338
L 277 338
L 278 338
L 279 338
L 280 338
L 280 338
L 280 338
L 281 338
L 286 338
L 289 338
L 290 338
L 291 338
L 293 338
L 294 338
L 295 338
L 298 338
L 300 338
L 301 338
L 301 338
L 302 338
L 304 337
L 309 337
L 309 337
L 309 337
L 310 337
L 310 337
L 321 337
L 321 337
L 322 337
L 322 337
L 322 337
L 322 337
L 322 337
L 323 337
L 323 337
L 323 337
L 323 337
L 323 337
L 324 337
L 324 337
L 325 337
L 328 337
L 328 337
L 329 337
L 334 337
L 336 337
L 337 336
L 337 336
L 338 336
L 338 336
L 339 336
L 341 336
L 341 336
L 341 336
L 341 336
L 342 336
L 342 336
L 343 336
L 345 336
L 346 336
L 346 336
L 347 336
L 351 336
L 362 336
L 363 336
L 367 336
L 369 336
L 369 336
L 371 336
L 373 336
L 373 335
L 374 335
L 374 335
L 374 335
L 375 335
L 375 335
L 379 335
L 379 335
L 381 335
L 383 335
L 387 335
L 387 335
L 387 335
L 392 335
L 394 335
L 395 335
L 396 335
L 396 335
L 397 335
L 397 335
L 397 335
L 397 335
L 398 335
L 398 335
L 398 335
L 398 335
L 400 334
L 401 334
L 404 334
L 405 334
L 407 334
L 411 334
L 411 334
L 411 334
L 412 334
L 412 334
L 413 334
L 414 334
L 417 334
L 417 334
L 421 334
L 421 334
L 423 334
L 423 334
L 425 334
L 426 334
L 428 334
L 431 334
L 435 334
L 436 334
L 437 334
L 437 333
L 440 333
L 447 333
L 449 333
L 451 333
L 452 333
L 453 333
L 453 333
L 454 333
L 455 333
L 455 333
L 455 333
L 457 333
L 457 333
L 457 333
L 457 333
L 457 333
L 458 333
L 459 333
L 459 333
L 460 333
L 460 333
L 461 333
L 462 333
L 462 333
L 462 332
L 462 332
L 462 332
L 463 332
L 463 332
L 463 332
L 463 332
L 463 332
L 464 332
L 464 332
L 465 332
L 466 332
L 467 332
L 467 332
L 468 332
L 468 332
L 469 332
L 469 332
L 469 332
L 470 332
L 470 332
L 470 332
L 471 332
L 471 332
L 471 332
L 472 331
L 472 331
L 472 331
L 472 331
L 474 331
L 475 331
L 476 331
L 477 331
L 477 331
L 477 331
L 477 331
L 478 331
L 478 331
L 479 331
L 479 331
L 479 331
L 479 331
L 479 331
L 479 331
L 479 331
L 479 331
L 479 331
L 479 331
L 480 331
L 480 331
L 480 330
L 480 330
L 480 330
L 480 330
L 481 330
L 481 330
L 482 330
L 482 330
L 482 330
L 482 330
L 482 330
L 483 330
L 483 330
L 485 330
L 485 330
L 486 330
L 486 330
L 486 330
L 486 330
L 488 330
L 488 330
L 488 330
L 488 330
L 488 330
L 488 330
L 488 329
L 488 329
L 488 329
L 488 329
L 488 329
L 488 329
L 488 329
L 488 329
L 488 329
L 488 329
L 488 329
L 489 329
L 489 329
L 489 329
L 489 329
L 489 329
L 489 329
L 489 329
L 489 329
L 489 329
L 489 329
L 489 329
L 489 329
L 490 329
L 490 328
L 490 328
L 490 328
L 490 328
L 490 328
L 491 328
L 491 328
L 491 328
L 491 328
L 491 328
L 492 328
L 492 328
L 493 328
L 493 328
L 493 328
L 494 328
L 494 328
L 494 328
L 494 328
L 494 328
L 495 328
L 495 328
L 495 328
L 495 328
L 495 328
L 496 328
L 497 327
L 497 327
L 498 327
L 498 327
L 499 327
L 500 327
L 501 327
L 501 327
L 501 327
L 501 327
L 501 327
L 501 327
L 501 327
L 502 327
L 502 327
L 502 327
L 503 327
L 504 327
L 504 327
L 504 327
L 505 327
L 505 327
L 505 327
L 506 327
L 506 327
L 507 326
L 507 326
L 507 326
L 507 326
L 508 326
L 508 326
L 508 326
L 508 326
L 508 326
L 509 326
L 509 326
L 509 326
L 510 326
L 511 326
L 511 326
L 512 326
L 512 326
L 512 326
L 513 326
L 513 326
L 514 326
L 514 326
L 515 326
L 515 326
L 515 326
L 516 325
L 516 325
L 516 325
L 516 325
L 517 325
L 517 325
L 517 325
L 518 325
L 518 325
L 518 325
L 518 325
L 518 325
L 518 325
L 519 325
L 519 325
L 519 325
L 519 325
L 519 325
L 520 325
L 520 325
L 520 325
L 522 325
L 522 325
L 522 325
L 522 324
L 523 324
L 523 324
L 523 324
L 523 324
L 524 324
L 525 324
L 525 324
L 525 324
L 525 324
L 525 324
L 525 324
L 525 324
L 525 324
L 525 324
L 525 324
L 525 324
L 525 324
L 525 324
L 526 324
L 526 324
L 526 324
L 526 324
L 526 324
L 526 324
L 526 324
L 527 323
L 527 323
L 527 323
L 527 323
L 527 323
L 528 323
L 529 323
L 529 323
L 530 323
L 530 323
L 530 323
L 530 323
L 531 323
L 531 323
L 531 323
L 531 323
L 532 323
L 532 323
L 532 323
L 532 323
L 532 323
L 532 323
L 532 323
L 532 323
L 532 323
L 533 322
L 533 322
L 533 322
L 533 322
L 533 322
L 533 322
L 533 322
L 533 322
L 533 322
L 533 322
L 534 322
L 534 322
L 534 322
L 534 322
L 534 322
L 535 322
L 535 322
L 535 322
L 535 322
L 536 322
L 536 322
L 536 322
L 536 322
L 536 322
L 536 322
L 536 321
L 537 321
L 537 321
L 537 321
L 537 321
L 538 321
L 538 321
L 539 321
L 539 321
L 540 321
L 541 321
L 541 321
L 541 321
L 541 321
L 541 321
L 542 321
L 542 321
L 542 321
L 543 321
L 543 321
L 543 321
L 543 321
L 543 321
L 543 321
L 544 320
L 545 320
L 545 320
L 545 320
L 545 320
L 545 320
L 545 320
L 545 320
L 545 320
L 546 320
L 546 320
L 546 320
L 546 320
L 547 320
L 547 320
L 547 320
L 548 320
L 548 320
L 548 320
L 549 320
L 549 320
L 549 320
L 550 320
L 550 320
L 551 320
L 551 320
L 551 319
L 552 319
L 552 319
L 552 319
L 553 319
L 554 319
L 554 319
L 555 319
L 555 319
L 555 319
L 555 319
L 555 319
L 556 319
L 556 319
L 556 319
L 556 319
L 556 319
L 557 319
L 557 319
L 557 319
L 557 319
L 557 319
L 558 319
L 558 319
L 559 319
L 559 318
L 559 318
L 559 318
L 559 318
L 559 318
L 559 318
L 560 318
L 560 318
L 560 318
L 560 318
L 560 318
L 561 318
L 561 318
L 562 318
L 562 318
L 563 318
L 563 318
L 563 318
L 563 318
L 563 318
L 563 318
L 564 318
L 564 318
L 564 318
L 565 318
L 565 317
L 565 317
L 565 317
L 565 317
L 565 317
L 566 317
L 566 317
L 566 317
L 566 317
L 566 317
L 566 317
L 566 317
L 567 317
L 567 317
L 567 317
L 567 317
L 567 317
L 567 317
L 567 317
L 567 317
L 568 317
L 568 317
L 568 317
L 568 317
L 568 317
L 568 316
L 569 316
L 569 316
L 569 316
L 570 316
L 570 316
L 571 316
L 571 316
L 571 316
L 572 316
L 572 316
L 572 316
L 573 316
L 573 316
L 573 316
L 573 316
L 573 316
L 573 316
L 573 316
L 573 316
L 574 316
L 575 316
L 575 316
L 576 316
L 576 316
L 576 315
L 576 315
L 576 315
L 576 315
L 577 315
L 577 315
L 577 315
L 577 315
L 577 315
L 577 315
L 578 315
L 578 315
L 578 315
L 578 315
L 579 315
L 579 315
L 579 315
L 579 315
L 579 315
L 581 315
L 581 315
L 581 315
L 581 315
L 582 315
L 582 315
L 582 314
L 582 314
L 582 314
L 582 314
L 583 314
L 583 314
L 583 314
L 583 314
L 584 314
L 584 314
L 584 314
L 584 314
L 584 314
L 584 314
L 585 314
L 586 314
L 587 314
L 587 314
L 588 314
L 588 314
L 589 314
L 589 314
L 590 314
L 591 314
L 592 314
L 592 313
L 592 313
L 592 313
L 593 313
L 594 313
L 594 313
L 595 313
L 595 313
L 595 313
L 595 313
L 595 313
L 596 313
L 596 313
L 597 313
L 597 313
L 597 313
L 598 313
L 598 313
L 598 313
L 598 313
L 599 313
L 599 313
L 600 313
L 600 313
L 600 313
L 600 312
L 600 312
L 600 312
L 600 312
L 600 312
L 601 312
L 601 312
L 601 312
L 601 312
L 601 312
L 601 312
L 602 312
L 602 312
L 602 312
L 602 312
L 603 312
L 603 312
L 603 312
L 604 312
L 604 312
L 604 312
L 605 312
L 606 312
L 606 312
L 607 312
L 607 311
L 608 311
L 609 311
L 610 311
L 610 311
L 610 311
L 610 311
L 610 311
L 610 311
L 611 311
L 611 311
L 613 311
L 613 311
L 613 311
L 614 311
L 614 311
L 614 311
L 614 311
L 614 311
L 615 311
L 615 311
L 615 311
L 615 311
L 616 311
L 616 311
L 616 310
L 616 310
L 616 310
L 618 310
L 619 310
L 620 310
L 621 310
L 622 310
L 622 310
L 622 310
L 623 310
L 623 310
L 624 310
L 624 310
L 625 310
L 625 310
L 625 310
L 625 310
L 625 310
L 625 310
L 625 310
L 625 310
L 626 310
L 626 310
L 626 310
L 626 309
L 626 309
L 626 309
L 626 309
L 627 309
L 627 309
L 627 309
L 627 309
L 627 309
L 628 309
L 628 309
L 628 309
L 628 309
L 628 309
L 628 309
L 628 309
L 629 309
L 629 309
L 629 309
L 629 309
L 631 309
L 631 309
L 631 309
L 631 309
L 631 309
L 632 308
L 632 308
L 632 308
L 632 308
L 633 308
L 633 308
L 633 308
L 633 308
L 634 308
L 634 308
L 634 308
L 634 308
L 634 308
L 634 308
L 636 308
L 636 308
L 636 308
L 637 308
L 637 308
L 637 308
L 637 308
L 637 308
L 637 308
L 637 308
L 637 308
L 637 307
L 637 307
L 637 307
L 637 307
L 638 307
L 638 307
L 638 307
L 638 307
L 638 307
L 638 307
L 638 307
L 638 307
L 638 307
L 638 307
L 639 307
L 639 307
L 639 307
L 639 307
L 639 307
L 639 307
L 639 307
L 639 307
L 639 307
L 639 307
L 639 306
L 639 306
L 639 306
L 639 306
L 639 306
L 640 306
L 640 306
L 640 306
L 641 306
L 641 306
L 641 306
L 641 306
L 641 306
L 641 306
L 642 306
L 642 306
L 642 306
L 642 306
L 642 306
L 642 306
L 642 306
L 642 306
L 643 306
L 643 306
L 643 306
L 643 306
L 643 305
L 643 305
L 643 305
L 643 305
L 643 305
L 643 305
L 644 305
L 644 305
L 644 305
L 644 305
L 645 305
L 645 305
L 645 305
L 646 305
L 646 305
L 647 305
L 647 305
L 647 305
L 647 305
L 647 305
L 647 305
L 647 305
L 647 305
L 647 305
L 648 305
L 648 304
L 648 304
L 649 304
L 649 304
L 649 304
L 649 304
L 649 304
L 649 304
L 649 304
L 650 304
L 650 304
L 650 304
L 650 304
L 651 304
L 651 304
L 651 304
L 651 304
L 652 304
L 652 304
L 652 304
L 653 304
L 653 304
L 653 304
L 653 304
L 653 304
L 654 303
L 654 303
L 654 303
L 654 303
L 654 303
L 654 303
L 654 303
L 655 303
L 655 303
L 655 303
L 655 303
L 655 303
L 656 303
L 656 303
L 656 303
L 657 303
L 657 303
L 657 303
L 657 303
L 657 303
L 657 303
L 658 303
L 658 303
L 658 303
L 658 303
L 658 302
L 658 302
L 659 302
L 659 302
L 660 302
L 660 302
L 660 302
L 661 302
L 661 302
L 661 302
L 661 302
L 661 302
L 661 302
L 661 302
L 661 302
L 662 302
L 663 302
L 663 302
L 663 302
L 664 302
L 664 302
L 664 302
L 664 302
L 664 302
L 664 302
L 664 301
L 665 301
L 665 301
L 665 301
L 665 301
L 665 301
L 665 301
L 665 301
L 665 301
L 665 301
L 666 301
L 666 301
L 666 301
L 666 301
L 666 301
L 666 301
L 668 301
L 669 301
L 669 301
L 669 301
L 669 301
L 670 301
L 670 301
L 670 301
L 670 301
L 670 300
L 670 300
L 671 300
L 671 300
L 671 300
L 671 300
L 671 300
L 671 300
L 671 300
L 671 300
L 671 300
L 672 300
L 672 300
L 672 300
L 672 300
L 672 300
L 674 300
L 674 300
L 674 300
L 674 300
L 674 300
L 674 300
L 675 300
L 675 300
L 675 300
L 675 299
L 675 299
L 676 299
L 676 299
L 676 299
L 676 299
L 676 299
L 677 299
L 677 299
L 678 299
L 678 299
L 678 299
L 678 299
L 679 299
L 679 299
L 680 299
L 680 299
L 680 299
L 680 299
L 680 299
L 680 299
L 681 299
L 681 299
L 681 299
L 681 298
L 681 298
L 681 298
L 681 298
L 681 298
L 681 298
L 681 298
L 681 298
L 682 298
L 682 298
L 682 298
L 682 298
L 682 298
L 682 298
L 682 298
L 682 298
L 683 298
L 683 298
L 683 298
L 683 298
L 683 298
L 683 298
L 683 298
L 683 298
L 684 298
L 684 298
L 684 297
L 685 297
L 685 297
L 685 297
L 685 297
L 685 297
L 686 297
L 686 297
L 686 297
L 686 297
L 686 297
L 686 297
L 686 297
L 686 297
L 686 297
L 686 297
L 686 297
L 687 297
L 687 297
L 687 297
L 687 297
L 688 297
L 688 297
L 688 297
L 689 297
L 689 296
L 690 296
L 690 296
L 691 296
L 691 296
L 691 296
L 691 296
L 691 296
L 691 296
L 691 296
L 692 296
L 692 296
L 692 296
L 692 296
L 693 296
L 693 296
L 693 296
L 693 296
L 693 296
L 693 296
L 693 296
L 693 296
L 693 296
L 693 296
L 693 296
L 693 295
L 693 295
L 693 295
L 694 295
L 694 295
L 694 295
L 694 295
L 695 295
L 695 295
L 695 295
L 696 295
L 696 295
L 697 295
L 697 295
L 697 295
L 697 295
L 697 295
L 697 295
L 697 295
L 697 295
L 698 295
L 698 295
L 698 295
L 698 295
L 698 295
L 698 294
L 699 294
L 699 294
L 699 294
L 699 294
L 700 294
L 700 294
L 700 294
L 700 294
L 700 294
L 700 294
L 701 294
L 701 294
L 701 294
L 702 294
L 702 294
L 702 294
L 702 294
L 702 294
L 703 294
L 703 294
L 703 294
L 703 294
L 704 294
L 704 294
L 704 293
L 704 293
L 704 293
L 705 293
L 705 293
L 705 293
L 705 293
L 705 293
L 705 293
L 705 293
L 705 293
L 706 293
L 706 293
L 706 293
L 706 293
L 707 293
L 707 293
L 707 293
L 707 293
L 707 293
L 707 293
L 707 293
L 707 293
L 707 293
L 707 293
L 707 292
L 708 292
L 708 292
L 708 292
L 708 292
L 708 292
L 708 292
L 708 292
L 709 292
L 709 292
L 709 292
L 709 292
L 709 292
L 710 292
L 710 292
L 710 292
L 710 292
L 711 292
L 712 292
L 712 292
L 712 292
L 712 292
L 712 292
L 712 292
L 712 292
L 712 291
L 713 291
L 713 291
L 713 291
L 713 291
L 713 291
L 713 291
L 714 291
L 714 291
L 715 291
L 715 291
L 715 291
L 715 291
L 715 291
L 715 291
L 715 291
L 716 291
L 716 291
L 716 291
L 716 291
L 716 291
L 716 291
L 716 291
L 716 291
L 717 290
L 717 290
L 717 290
L 717 290
L 717 290
L 717 290
L 717 290
L 718 290
L 718 290
L 718 290
L 718 290
L 719 290
L 719 290
L 719 290
L 719 290
L 719 290
L 720 290
L 720 290
L 721 290
L 722 290
L 722 290
L 723 290
L 723 290
L 723 290
L 723 290
L 724 290
L 724 289
L 724 289
L 725 289
L 725 289
L 725 289
L 726 289
L 726 289
L 726 289
L 726 289
L 726 289
L 727 289
L 727 289
L 727 289
L 727 289
L 727 289
L 727 289
L 727 289
L 727 289
L 727 289
L 727 289
L 728 289
L 728 289
L 728 289
L 728 289
L 728 289
L 728 288
L 728 288
L 728 288
L 728 288
L 729 288
L 729 288
L 729 288
L 729 288
L 729 288
L 730 288
L 730 288
L 730 288
L 730 288
L 730 288
L 730 288
L 730 288
L 730 288
L 730 288
L 730 288
L 730 288
L 730 288
L 731 288
L 731 288
L 731 288
L 731 288
L 731 287
L 731 287
L 732 287
L 732 287
L 732 287
L 732 287
L 732 287
L 732 287
L 732 287
L 732 287
L 733 287
L 733 287
L 733 287
L 733 287
L 733 287
L 733 287
L 733 287
L 734 287
L 734 287
L 734 287
L 734 287
L 734 287
L 734 287
L 735 287
L 735 287
L 735 286
L 735 286
L 735 286
L 735 286
L 735 286
L 736 286
L 736 286
L 736 286
L 736 286
L 736 286
L 736 286
L 736 286
L 736 286
L 736 286
L 736 286
L 736 286
L 736 286
L 736 286
L 736 286
L 737 286
L 737 286
L 737 286
L 737 286
L 737 286
L 737 286
L 737 285
L 737 285
L 737 285
L 737 285
L 737 285
L 738 285
L 738 285
L 738 285
L 738 285
L 739 285
L 739 285
L 739 285
L 739 285
L 739 285
L 740 285
L 740 285
L 740 285
L 740 285
L 740 285
L 740 285
L 741 285
L 741 285
L 741 285
L 741 285
L 741 285
L 741 284
L 741 284
L 741 284
L 741 284
L 741 284
L 741 284
L 742 284
L 742 284
L 742 284
L 742 284
L 743 284
L 743 284
L 743 284
L 743 284
L 743 284
L 743 284
L 743 284
L 743 284
L 743 284
L 743 284
L 743 284
L 743 284
L 743 284
L 743 284
L 744 284
L 744 283
L 744 283
L 744 283
L 744 283
L 744 283
L 745 283
L 745 283
L 745 283
L 745 283
L 745 283
L 745 283
L 745 283
L 745 283
L 745 283
L 745 283
L 745 283
L 745 283
L 745 283
L 745 283
L 745 283
L 745 283
L 745 283
L 745 283
L 745 283
L 745 283
L 745 282
L 745 282
L 745 282
L 745 282
L 745 282
L 745 282
L 745 282
L 745 282
L 745 282
L 745 282
L 745 282
L 745 282
L 745 282
L 745 282
L 745 282
L 745 282
L 745 282
L 745 282
L 745 282
L 745 282
L 745 282
L 745 282
L 745 282
L 745 282
L 745 282
L 745 281
L 745 281
L 745 281
L 745 281
L 745 281
L 745 281
L 745 281
L 745 281
L 745 281
L 745 281
L 745 281
L 745 281
L 745 281
L 745 281
L 745 281
L 745 281
L 745 281
L 745 281
L 745 281
L 745 281
L 745 281
L 745 281
L 745 281
L 745 281
L 745 281
L 745 280
L 745 280
L 745 280
L 745 280
L 745 280
L 746 280
L 746 280
L 746 280
L 746 280
L 746 280
L 746 280
L 746 280
L 746 280
L 746 280
L 746 280
L 746 280
L 746 280
L 746 280
L 746 280
L 746 280
L 746 280
L 746 280
L 746 280
L 746 280
L 746 280
L 746 279
L 746 279
L 746 279
L 746 279
L 746 279
L 746 279
L 746 279
L 746 279
L 746 279
L 746 279
L 746 279
L 746 279
L 746 279
L 746 279
L 746 279
L 746 279
L 746 279
L 746 279
L 746 279
L 746 279
L 746 279
L 747 279
L 747 279
L 747 279
L 747 279
L 747 278
L 747 278
L 747 278
L 747 278
L 747 278
L 747 278
L 747 278
L 747 278
L 747 278
L 747 278
L 747 278
L 747 278
L 747 278
L 747 278
L 747 278
L 747 278
L 747 278
L 747 278
L 747 278
L 747 278
L 747 278
L 747 278
L 747 278
L 747 278
L 747 278
L 747 277
L 747 277
L 747 277
L 747 277
L 747 277
L 747 277
L 747 277
L 747 277
L 747 277
L 747 277
L 747 277
L 747 277
L 747 277
L 747 277
L 747 277
L 747 277
L 747 277
L 747 277
L 747 277
L 747 277
L 747 277
L 747 277
L 747 277
L 747 277
L 747 277
L 747 276
L 747 276
L 747 276
L 747 276
L 747 276
L 747 276
L 747 276
L 747 276
L 747 276
L 747 276
L 747 276
L 747 276
L 747 276
L 747 276
L 747 276
L 747 276
L 747 276
L 747 276
L 747 276
L 747 276
L 747 276
L 747 276
L 747 276
L 747 276
L 747 276
L 747 275
L 747 275
L 747 275
L 748 275
L 748 275
L 748 275
L 748 275
L 748 275
L 748 275
L 748 275
L 748 275
L 748 275
L 748 275
L 748 275
L 748 275
L 748 275
L 748 275
L 748 275
L 748 275
L 748 275
L 748 275
L 748 275
L 748 275
L 748 275
L 748 275
L 748 274
L 748 274
L 748 274
L 748 274
L 748 274
L 748 274
L 748 274
L 748 274
L 748 274
L 748 274
L 748 274
L 748 274
L 748 274
L 748 274
L 748 274
L 748 274
L 748 274
L 748 274
L 748 274
L 748 274
L 748 274
L 748 274
L 748 274
L 748 274
L 748 274
L 748 273
L 748 273
L 748 273
L 748 273
L 748 273
L 748 273
L 748 273
L 748 273
L 748 273
L 748 273
L 748 273
L 748 273
L 748 273
L 748 273
L 748 273
L 748 273
L 748 273
L 748 273
L 748 273
L 748 273
L 748 273
L 748 273
L 748 273
L 748 273
L 748 273
L 748 272
L 748 272
L 748 272
L 748 272
L 749 272
L 749 272
L 749 272
L 749 272
L 749 272
L 749 272
L 749 272
L 749 272
L 749 272
L 749 272
L 749 272
L 749 272
L 749 272
L 749 272
L 749 272
L 749 272
L 749 272
L 749 272
L 749 272
L 749 272
L 749 272
L 749 271
L 749 271
L 749 271
L 749 271
L 749 271
L 749 271
L 749 271
L 749 271
L 749 271
L 749 271
L 749 271
L 749 271
L 749 271
L 749 271
L 749 271
L 749 271
L 749 271
L 749 271
L 749 271
L 749 271
L 749 271
L 749 271
L 749 271
L 749 271
L 749 271
L 749 270
L 749 270
L 749 270
L 749 270
L 749 270
L 749 270
L 750 270
L 750 270
L 750 270
L 750 270
L 750 270
L 750 270
L 750 270
L 750 270
L 750 270
L 750 270
L 750 270
L 750 270
L 750 270
L 751 270
L 751 270
L 751 270
L 751 270
L 751 270
L 751 270
L 751 269
L 751 269
L 751 269
L 751 269
L 751 269
L 752 269
L 752 269
L 752 269
L 752 269
L 752 269
L 752 269
L 752 269
L 752 269
L 752 269
L 752 269
L 753 269
L 753 269
L 753 269
L 753 269
L 753 269
L 753 269
L 753 269
L 753 269
L 753 269
L 753 269
L 753 268
L 753 268
L 753 268
L 753 268
L 753 268
L 753 268
L 754 268
L 754 268
L 754 268
L 754 268
L 754 268
L 754 268
L 754 268
L 754 268
L 755 268
L 755 268
L 755 268
L 755 268
L 755 268
L 755 268
L 755 268
L 755 268
L 755 268
L 755 268
L 755 268
L 755 267
L 755 267
L 756 267
L 756 267
L 756 267
L 756 267
L 756 267
L 756 267
L 756 267
L 756 267
L 756 267
L 756 267
L 757 267
L 757 267
L 757 267
L 757 267
L 757 267
L 757 267
L 757 267
L 757 267
L 757 267
L 757 267
L 757 267
L 757 267
L 757 267
L 757 266
L 757 266
L 757 266
L 757 266
L 757 266
L 758 266
L 758 266
L 758 266
L 758 266
L 758 266
L 758 266
L 758 266
L 758 266
L 758 266
L 758 266
L 758 266
L 758 266
L 758 266
L 758 266
L 758 266
L 758 266
L 758 266
L 758 266
L 758 266
L 758 266
L 758 265
L 758 265
L 758 265
L 758 265
L 758 265
L 758 265
L 758 265
L 758 265
L 758 265
L 758 265
L 758 265
L 758 265
L 758 265
L 758 265
L 758 265
L 758 265
L 758 265
L 758 265
L 758 265
L 758 265
L 758 265
L 758 265
L 758 265
L 758 265
L 758 265
L 758 264
L 758 264
L 758 264
L 758 264
L 758 264
L 758 264
L 758 264
L 759 264
L 759 264
L 759 264
L 759 264
L 759 264
L 759 264
L 759 264
L 759 264
L 759 264
L 759 264
L 759 264
L 759 264
L 759 264
L 759 264
L 759 264
L 759 264
L 759 264
L 759 264
L 759 263
L 759 263
L 759 263
L 759 263
L 759 263
L 759 263
L 759 263
L 759 263
L 759 263
L 759 263
L 759 263
L 759 263
L 759 263
L 759 263
L 759 263
L 759 263
L 759 263
L 759 263
L 759 263
L 759 263
L 759 263
L 759 263
L 759 263
L 759 263
L 759 262
L 759 262
L 759 262
L 759 262
L 759 262
L 759 262
L 759 262
L 759 262
L 759 262
L 759 262
L 759 262
L 759 262
L 759 262
L 759 262
L 759 262
L 759 262
L 759 262
L 759 262
L 759 262
L 759 262
L 759 262
L 759 262
L 759 262
L 759 262
L 759 262
L 759 262
L 759 261
L 759 261
L 759 261
L 759 261
L 759 261
L 759 261
L 759 261
L 759 261
L 759 261
L 759 261
L 759 261
L 759 261
L 759 261
L 759 261
L 759 261
L 759 261
L 759 261
L 759 261
L 759 261
L 759 261
L 760 261
L 760 261
L 760 261
L 760 261
L 760 261
L 760 260
L 760 260
L 760 260
L 760 260
L 760 260
L 760 260
L 760 260
L 760 260
L 760 260
L 760 260
L 760 260
L 760 260
L 760 260
L 760 260
L 760 260
L 760 260
L 760 260
L 760 260
L 760 260
L 760 260
L 760 260
L 760 260
L 760 260
L 760 260
L 760 260
L 760 259
L 760 259
L 760 259
L 760 259
L 760 259
L 760 259
L 760 259
L 760 259
L 760 259
L 760 259
L 760 259
L 760 259
L 760 259
L 760 259
L 760 259
L 760 259
L 760 259
L 761 259
L 761 259
L 761 259
L 761 259
L 761 259
L 761 259
L 761 259
L 761 259
L 761 258
L 761 258
L 761 258
L 761 258
L 761 258
L 761 258
L 761 258
L 761 258
L 761 258
L 761 258
L 761 258
L 761 258
L 761 258
L 761 258
L 761 258
L 761 258
L 762 258
L 762 258
L 762 258
L 762 258
L 762 258
L 762 258
L 762 258
L 762 258
L 762 257
L 762 257
L 762 257
L 762 257
L 762 257
L 762 257
L 762 257
L 762 257
L 762 257
L 762 257
L 762 257
L 762 257
L 762 257
L 762 257
L 762 257
L 762 257
L 762 257
L 762 257
L 762 257
L 762 257
L 762 257
L 762 257
L 762 257
L 762 257
L 762 257
L 763 257
L 763 256
L 763 256
L 763 256
L 763 256
L 763 256
L 763 256
L 763 256
L 763 256
L 763 256
L 763 256
L 763 256
L 763 256
L 763 256
L 763 256
L 763 256
L 763 256
L 763 256
L 763 256
L 763 256
L 763 256
L 763 256
L 763 256
L 763 256
L 763 256
L 763 256
L 763 255
L 763 255
L 763 255
L 763 255
L 763 255
L 764 255
L 764 255
L 764 255
L 764 255
L 764 255
L 764 255
L 764 255
L 764 255
L 764 255
L 764 255
L 764 255
L 764 255
L 764 255
L 764 255
L 764 255
L 764 255
L 764 255
L 764 255
L 764 255
L 764 255
L 764 254
L 764 254
L 765 254
L 765 254
L 765 254
L 765 254
L 765 254
L 765 254
L 765 254
L 765 254
L 765 254
L 765 254
L 765 254
L 765 254
L 766 254
L 766 254
L 766 254
L 766 254
L 766 254
L 766 254
L 766 254
L 766 254
L 766 254
L 766 254
L 766 254
L 766 253
L 766 253
L 766 253
L 766 253
L 766 253
L 767 253
L 767 253
L 767 253
L 767 253
L 767 253
L 767 253
L 767 253
L 767 253
L 767 253
L 768 253
L 768 253
L 768 253
L 768 253
L 768 253
L 768 253
L 768 253
L 768 253
L 768 253
L 769 253
L 769 253
L 769 252
L 769 252
L 769 252
L 769 252
L 769 252
L 769 252
L 769 252
L 769 252
L 769 252
L 769 252
L 769 252
L 769 252
L 769 252
L 769 252
L 769 252
L 770 252
L 770 252
L 770 252
L 770 252
L 770 252
L 770 252
L 770 252
L 770 252
L 770 252
L 770 252
L 770 251
L 770 251
L 770 251
L 770 251
L 770 251
L 770 251
L 770 251
L 771 251
L 771 251
L 771 251
L 771 251
L 771 251
L 771 251
L 771 251
L 771 251
L 771 251
L 772 251
L 772 251
L 772 251
L 772 251
L 772 251
L 772 251
L 772 251
L 772 251
L 772 251
L 772 250
L 772 250
L 772 250
L 772 250
L 772 250
L 772 250
L 773 250
L 773 250
L 773 250
L 773 250
L 773 250
L 773 250
L 773 250
L 773 250
L 773 250
L 773 250
L 773 250
L 773 250
L 773 250
L 773 250
L 773 250
L 773 250
L 773 250
L 773 250
L 773 250
L 773 249
L 773 249
L 773 249
L 774 249
L 774 249
L 774 249
L 774 249
L 774 249
L 774 249
L 774 249
L 774 249
L 774 249
L 774 249
L 774 249
L 774 249
L 774 249
L 774 249
L 774 249
L 774 249
L 774 249
L 774 249
L 774 249
L 774 249
L 774 249
L 774 249
L 775 248
L 775 248
L 775 248
L 775 248
L 775 248
L 775 248
L 775 248
L 775 248
L 776 248
L 776 248
L 776 248
L 776 248
L 776 248
L 776 248
L 776 248
L 776 248
L 776 248
L 777 248
L 777 248
L 777 248
L 777 248
L 777 248
L 777 248
L 777 248
L 777 248
L 777 247
L 777 247
L 777 247
L 777 247
L 777 247
L 777 247
L 777 247
L 777 247
L 777 247
L 777 247
L 777 247
L 777 247
L 777 247
L 777 247
L 777 247
L 777 247
L 777 247
L 777 247
L 777 247
L 778 247
L 778 247
L 778 247
L 778 247
L 778 247
L 778 246
L 778 246
L 778 246
L 778 246
L 778 246
L 778 246
L 778 246
L 778 246
L 778 246
L 778 246
L 778 246
L 778 246
L 778 246
L 778 246
L 778 246
L 778 246
L 778 246
L 778 246
L 778 246
L 778 246
L 778 246
L 778 246
L 778 246
L 778 246
L 778 246
L 778 246
L 778 245
L 778 245
L 778 245
L 778 245
L 779 245
L 779 245
L 779 245
L 779 245
L 779 245
L 779 245
L 779 245
L 779 245
L 779 245
L 779 245
L 779 245
L 779 245
L 779 245
L 779 245
L 779 245
L 779 245
L 779 245
L 779 245
L 779 245
L 779 245
L 779 245
L 779 244
L 779 244
L 779 244
L 779 244
L 779 244
L 779 244
L 779 244
L 779 244
L 779 244
L 779 244
L 779 244
L 779 244
L 779 244
L 779 244
L 779 244
L 779 244
L 779 244
L 779 244
L 779 244
L 779 244
L 779 244
L 779 244
L 779 244
L 779 244
L 779 244
L 779 243
L 779 243
L 779 243
L 779 243
L 779 243
L 779 243
L 779 243
L 779 243
L 779 243
L 779 243
L 779 243
L 779 243
L 779 243
L 779 243
L 779 243
L 779 243
L 779 243
L 779 243
L 779 243
L 779 243
L 780 243
L 780 243
L 780 243
L 780 243
L 780 243
L 780 242
L 780 242
L 780 242
L 780 242
L 780 242
L 780 242
L 780 242
L 780 242
L 780 242
L 780 242
L 780 242
L 780 242
L 780 242
L 780 242
L 780 242
L 780 242
L 780 242
L 780 242
L 780 242
L 780 242
L 780 242
L 780 242
L 780 242
L 780 242
L 780 241
L 780 241
L 780 241
L 780 241
L 780 241
L 780 241
L 780 241
L 780 241
L 780 241
L 780 241
L 780 241
L 780 241
L 780 241
L 780 241
L 780 241
L 780 241
L 780 241
L 780 241
L 780 241
L 780 241
L 780 241
L 780 241
L 780 241
L 780 241
L 780 241
L 780 241
L 780 240
L 780 240
L 780 240
L 780 240
L 780 240
L 780 240
L 780 240
L 780 240
L 780 240
L 780 240
L 780 240
L 780 240
L 780 240
L 780 240
L 780 240
L 780 240
L 780 240
L 780 240
L 780 240
L 780 240
L 780 240
L 780 240
L 780 240
L 780 240
L 781 240
L 781 239
L 781 239
L 781 239
L 781 239
L 781 239
L 781 239
L 781 239
L 781 239
L 781 239
L 781 239
L 781 239
L 781 239
L 781 239
L 781 239
L 781 239
L 781 239
L 781 239
L 781 239
L 781 239
L 781 239
L 781 239
L 781 239
L 781 239
L 781 239
L 781 239
L 781 238
L 781 238
L 781 238
L 781 238
L 781 238
L 781 238
L 781 238
L 781 238
L 781 238
L 781 238
L 781 238
L 781 238
L 781 238
L 781 238
L 781 238
L 781 238
L 781 238
L 781 238
L 781 238
L 781 238
L 781 238
L 781 238
L 781 238
L 781 238
L 781 238
L 781 237
L 781 237
L 781 237
L 781 237
L 781 237
L 781 237
L 781 237
L 781 237
L 781 237
L 781 237
L 781 237
L 781 237
L 781 237
L 781 237
L 781 237
L 781 237
L 781 237
L 781 237
L 781 237
L 781 237
L 781 237
L 781 237
L 781 237
L 781 237
L 781 237
L 781 236
L 781 236
L 781 236
L 781 236
L 781 236
L 781 236
L 781 236
L 781 236
L 781 236
L 781 236
L 781 236
L 781 236
L 781 236
L 781 236
L 781 236
L 781 236
L 781 236
L 781 236
L 781 236
L 781 236
L 781 236
L 781 236
L 781 236
L 781 236
L 781 236
L 781 235
L 781 235
L 781 235
L 781 235
L 781 235
L 781 235
L 781 235
L 781 235
L 781 235
L 781 235
L 781 235
L 781 235
L 781 235
L 781 235
L 781 235
L 781 235
L 781 235
L 781 235
L 781 235
L 781 235
L 781 235
L 781 235
L 781 235
L 781 235
L 781 235
L 781 234
L 781 234
L 781 234
L 781 234
L 781 234
L 781 234
L 781 234
L 781 234
L 781 234
L 781 234
L 781 234
L 781 234
L 781 234
L 781 234
L 781 234
L 781 234
L 781 234
L 781 234
L 781 234
L 781 234
L 781 234
L 781 234
L 781 234
L 781 234
L 781 234
L 781 233
L 781 233
L 781 233
L 781 233
L 781 233
L 781 233
L 781 233
L 781 233
L 781 233
L 781 233
L 781 233
L 781 233
L 781 233
L 781 233
L 781 233
L 781 233
L 781 233
L 781 233
L 781 233
L 781 233
L 781 233
L 781 233
L 781 233
L 781 233
L 781 233
L 781 232
L 781 232
L 781 232
L 781 232
L 781 232
L 781 232
L 781 232
L 781 232
L 781 232
L 781 232
L 781 232
L 781 232
L 781 232
L 781 232
L 781 232
L 781 232
L 781 232
L 781 232
L 781 232
L 781 232
L 781 232
L 781 232
L 781 232
L 781 232
L 781 232
L 781 231
L 781 231
L 781 231
L 781 231
L 781 231
L 781 231
L 781 231
L 781 231
L 781 231
L 781 231
L 781 231
L 781 231
L 781 231
L 781 231
L 781 231
L 781 231
L 781 231
L 781 231
L 781 231
L 781 231
L 781 231
L 781 231
L 781 231
L 781 231
L 781 230
L 781 230
L 781 230
L 781 230
L 781 230
L 781 230
L 781 230
L 781 230
L 781 230
L 781 230
L 781 230
L 781 230
L 781 230
L 781 230
L 781 230
L 781 230
L 781 230
L 781 230
L 781 230
L 781 230
L 781 230
L 781 230
L 781 230
L 781 230
L 781 230
L 781 230
L 781 229
L 781 229
L 781 229
L 781 229
L 781 229
L 781 229
L 781 229
L 781 229
L 781 229
L 781 229
L 781 229
L 781 229
L 781 229
L 781 229
L 781 229
L 781 229
L 781 229
L 781 229
L 781 229
L 781 229
L 781 229
L 781 229
L 781 229
L 781 229
L 781 229
L 781 228
L 781 228
L 781 228
L 781 228
L 781 228
L 781 228
L 781 228
L 781 228
L 781 228
L 781 228
L 781 228
L 781 228
L 781 228
L 781 228
L 781 228
L 781 228
L 781 228
L 781 228
L 781 228
L 781 228
L 781 228
L 781 228
L 781 228
L 781 228
L 781 228
L 781 227
L 781 227
L 781 227
L 781 227
L 781 227
L 781 227
L 781 227
L 781 227
L 781 227
L 781 227
L 781 227
L 781 227
L 781 227
L 781 227
L 781 227
L 781 227
L 781 227
L 781 227
L 781 227
L 781 227
L 781 227
L 781 227
L 781 227
L 781 227
L 781 227
L 781 226
L 781 226
L 781 226
L 781 226
L 781 226
L 781 226
L 781 226
L 781 226
L 781 226
L 781 226
L 781 226
L 781 226
L 781 226
L 781 226
L 781 226
L 781 226
L 781 226
L 781 226
L 781 226
L 781 226
L 781 226
L 781 226
L 781 226
L 781 226
L 781 225
L 781 225
L 782 225
L 782 225
L 782 225
L 782 225
L 782 225
L 782 225
L 782 225
L 782 225
L 782 225
L 782 225
L 782 225
L 782 225
L 782 225
L 782 225
L 782 225
L 782 225
L 782 225
L 782 225
L 782 225
L 782 225
L 782 225
L 782 225
L 782 225
L 782 225
L 782 224
L 782 224
L 782 224
L 782 224
L 782 224
L 782 224
L 782 224
L 782 224
L 782 224
L 782 224
L 782 224
L 782 224
L 782 224
L 782 224
L 782 224
L 782 224
L 782 224
L 782 224
L 782 224
L 782 224
L 782 224
L 782 224
L 782 224
L 782 224
L 782 224
L 782 223
L 782 223
L 782 223
L 782 223
L 782 223
L 782 223
L 782 223
L 782 223
L 782 223
L 782 223
L 782 223
L 782 223
L 782 223
L 782 223
L 782 223
L 782 223
L 782 223
L 782 223
L 782 223
L 782 223
L 782 223
L 782 223
L 782 223
L 782 223
L 782 223
L 782 222
L 782 222
L 782 222
L 782 222
L 782 222
L 782 222
L 782 222
L 782 222
L 782 222
L 782 222
L 782 222
L 782 222
L 782 222
L 782 222
L 782 222
L 782 222
L 782 222
L 782 222
L 782 222
L 782 222
L 782 222
L 782 222
L 782 222
L 782 222
L 782 222
L 782 221
L 782 221
L 782 221
L 782 221
L 782 221
L 782 221
L 782 221
L 782 221
L 782 221
L 782 221
L 782 221
L 782 221
L 782 221
L 782 221
L 782 221
L 782 221
L 782 221
L 782 221
L 782 221
L 782 221
L 782 221
L 782 221
L 782 221
L 782 221
L 782 221
L 782 220
L 782 220
L 782 220
L 782 220
L 782 220
L 782 220
L 782 220
L 782 220
L 782 220
L 782 220
L 782 220
L 782 220
L 782 220
L 782 220
L 782 220
L 782 220
L 782 220
L 782 220
L 782 220
L 782 220
L 782 220
L 782 220
L 782 220
L 782 220
L 782 220
L 782 219
L 782 219
L 782 219
L 782 219
L 782 219
L 782 219
L 782 219
L 782 219
L 782 219
L 782 219
L 782 219
L 782 219
L 782 219
L 782 219
L 782 219
L 782 219
L 782 219
L 782 219
L 782 219
L 782 219
L 782 219
L 782 219
L 782 219
L 782 219
L 782 219
L 782 218
L 782 218
L 782 218
L 782 218
L 782 218
L 782 218
L 782 218
L 782 218
L 782 218
L 782 218
L 782 218
L 782 218
L 782 218
L 782 218
L 782 218
L 782 218
L 782 218
L 782 218
L 782 218
L 782 218
L 782 218
L 782 218
L 782 218
L 782 218
L 782 218
L 782 217
L 782 217
L 782 217
L 782 217
L 782 217
L 782 217
L 782 217
L 782 217
L 782 217
L 782 217
L 782 217
L 782 217
L 782 217
L 782 217
L 782 217
L 782 217
L 782 217
L 782 217
L 782 217
L 782 217
L 782 217
L 782 217
L 782 217
L 782 217
L 782 217
L 782 216
L 782 216
L 782 216
L 782 216
L 782 216
L 782 216
L 782 216
L 782 216
L 782 216
L 782 216
L 782 216
L 782 216
L 782 216
L 782 216
L 782 216
L 782 216
L 782 216
L 782 216
L 782 216
L 782 216
L 782 216
L 782 216
L 782 216
L 782 216
L 782 216
L 782 215
L 782 215
L 782 215
L 782 215
L 782 215
L 782 215
L 782 215
L 782 215
L 782 215
L 782 215
L 782 215
L 782 215
L 782 215
L 782 215
L 782 215
L 782 215
L 782 215
L 782 215
L 782 215
L 782 215
L 782 215
L 782 215
L 782 215
L 782 215
L 782 215
L 782 214
L 782 214
L 782 214
L 782 214
L 782 214
L 782 214
L 782 214
L 782 214
L 782 214
L 782 214
L 782 214
L 782 214
L 782 214
L 782 214
L 782 214
L 782 214
L 782 214
L 782 214
L 782 214
L 782 214
L 782 214
L 782 214
L 782 214
L 782 214
L 782 214
L 782 213
L 782 213
L 782 213
L 782 213
L 782 213
L 782 213
L 782 213
L 782 213
L 782 213
L 782 213
L 782 213
L 782 213
L 782 213
L 782 213
L 782 213
L 782 213
L 782 213
L 782 213
L 782 213
L 782 213
L 782 213
L 782 213
L 782 213
L 782 213
L 782 213
L 782 212
L 782 212
L 782 212
L 782 212
L 782 212
L 782 212
L 782 212
L 783 212
L 783 212
L 783 212
L 783 212
L 783 212
L 783 212
L 783 212
L 783 212
L 783 212
L 783 212
L 783 212
L 783 212
L 783 212
L 783 212
L 783 212
L 783 212
L 783 212
L 783 212
L 783 211
L 783 211
L 783 211
L 783 211
L 783 211
L 783 211
L 783 211
L 783 211
L 783 211
L 783 211
L 783 211
L 783 211
L 783 211
L 783 211
L 783 211
L 783 211
L 783 211
L 783 211
L 783 211
L 783 211
L 783 211
L 783 211
L 783 211
L 783 211
L 783 211
L 783 210
L 783 210
L 783 210
L 783 210
L 783 210
L 783 210
L 783 210
L 783 210
L 783 210
L 783 210
L 783 210
L 783 210
L 783 210
L 783 210
L 783 210
L 783 210
L 783 210
L 783 210
L 783 210
L 783 210
L 783 210
L 783 210
L 783 210
L 783 210
L 783 210
L 783 209
L 783 209
L 783 209
L 783 209
L 783 209
L 783 209
L 783 209
L 783 209
L 783 209
L 783 209
L 783 209
L 783 209
L 783 209
L 783 209
L 783 209
L 783 209
L 783 209
L 783 209
L 783 209
L 783 209
L 783 209
L 783 209
L 783 209
L 783 209
L 783 209
L 783 208
L 783 208
L 783 208
L 783 208
L 783 208
L 783 208
L 783 208
L 783 208
L 783 208
L 783 208
L 783 208
L 783 208
L 783 208
L 783 208
L 783 208
L 783 208
L 783 208
L 783 208
L 783 208
L 783 208
L 783 208
L 783 208
L 783 208
L 783 208
L 783 208
L 783 207
L 783 207
L 783 207
L 783 207
L 783 207
L 783 207
L 783 207
L 783 207
L 783 207
L 783 207
L 783 207
L 783 207
L 783 207
L 783 207
L 783 207
L 783 207
L 783 207
L 783 207
L 783 207
L 783 207
L 783 207
L 783 207
L 783 207
L 783 207
L 783 207
L 783 206
L 783 206
L 783 206
L 783 206
L 783 206
L 783 206
L 783 206
L 783 206
L 783 206
L 783 206
L 783 206
L 783 206
L 783 206
L 783 206
L 783 206
L 783 206
L 783 206
L 783 206
L 783 206
L 783 206
L 784 206
L 784 206
L 784 206
L 784 206
L 784 206
L 784 205
L 784 205
L 784 205
L 784 205
L 784 205
L 784 205
L 784 205
L 784 205
L 784 205
L 784 205
L 784 205
L 784 205
L 784 205
L 784 205
L 784 205
L 784 205
L 784 205
L 784 205
L 784 205
L 784 205
L 784 205
L 784 205
L 784 205
L 784 205
L 784 205
L 784 204
L 784 204
L 784 204
L 784 204
L 784 204
L 784 204
L 784 204
L 784 204
L 784 204
L 784 204
L 784 204
L 784 204
L 784 204
L 784 204
L 784 204
L 784 204
L 784 204
L 784 204
L 784 204
L 784 204
L 784 204
L 785 204
L 785 204
L 785 204
L 785 204
L 785 203
L 785 203
L 785 203
L 785 203
L 785 203
L 785 203
L 785 203
L 785 203
L 786 203
L 786 203
L 786 203
L 786 203
L 786 203
L 786 203
L 786 203
L 786 203
L 786 203
L 786 203
L 786 203
L 786 203
L 786 203
L 786 203
L 786 203
L 786 203
L 786 203
L 786 202
L 786 202
L 786 202
L 786 202
L 786 202
L 786 202
L 786 202
L 787 202
L 787 202
L 787 202
L 787 202
L 787 202
L 787 202
L 787 202
L 787 202
L 787 202
L 787 202
L 787 202
L 787 202
L 787 202
L 787 202
L 787 202
L 787 202
L 787 202
L 787 202
L 787 201
L 787 201
L 787 201
L 787 201
L 787 201
L 787 201
L 787 201
L 787 201
L 787 201
L 787 201
L 787 201
L 787 201
L 787 201
L 787 201
L 787 201
L 787 201
L 787 201
L 787 201
L 787 201
L 788 201
L 788 201
L 788 201
L 788 201
L 788 201
L 788 201
L 788 200
L 788 200
L 788 200
L 788 200
L 788 200
L 788 200
L 788 200
L 788 200
L 788 200
L 788 200
L 788 200
L 788 200
L 788 200
L 788 200
L 788 200
L 788 200
L 788 200
L 788 200
L 788 200
L 788 200
L 788 200
L 788 200
L 788 200
L 789 200
L 789 200
L 789 199
L 789 199
L 789 199
L 789 199
L 789 199
L 789 199
L 789 199
L 789 199
L 789 199
L 789 199
L 789 199
L 790 199
L 790 199
L 790 199
L 790 199
L 790 199
L 790 199
L 790 199
L 790 199
L 790 199
L 790 199
L 790 199
L 790 199
L 790 199
L 790 199
L 790 198
L 790 198
L 790 198
L 790 198
L 790 198
L 790 198
L 790 198
L 790 198
L 790 198
L 790 198
L 790 198
L 790 198
L 790 198
L 790 198
L 790 198
L 791 198
L 791 198
L 791 198
L 791 198
L 791 198
L 791 198
L 791 198
L 791 198
L 791 198
L 791 198
L 791 197
L 791 197
L 791 197
L 791 197
L 791 197
L 791 197
L 791 197
L 791 197
L 791 197
L 791 197
L 791 197
L 791 197
L 791 197
L 791 197
L 791 197
L 791 197
L 791 197
L 791 197
L 791 197
L 792 197
L 792 197
L 792 197
L 792 197
L 792 197
L 792 197
L 792 196
L 792 196
L 792 196
L 792 196
L 792 196
L 792 196
L 792 196
L 792 196
L 792 196
L 792 196
L 792 196
L 792 196
L 792 196
L 793 196
L 793 196
L 793 196
L 793 196
L 793 196
L 793 196
L 793 196
L 793 196
L 793 196
L 793 196
L 793 196
L 793 196
L 793 195
L 793 195
L 793 195
L 793 195
L 794 195
L 794 195
L 794 195
L 794 195
L 794 195
L 794 195
L 794 195
L 794 195
L 794 195
L 794 195
L 794 195
L 795 195
L 795 195
L 795 195
L 795 195
L 795 195
L 795 195
L 795 195
L 795 195
L 795 195
L 795 195
L 795 194
L 795 194
L 795 194
L 795 194
L 795 194
L 795 194
L 795 194
L 795 194
L 796 194
L 796 194
L 796 194
L 796 194
L 796 194
L 796 194
L 796 194
L 796 194
L 796 194
L 796 194
L 796 194
L 796 194
L 796 194
L 796 194
L 796 194
L 796 194
L 796 194
L 796 193
L 796 193
L 796 193
L 796 193
L 796 193
L 797 193
L 797 193
L 797 193
L 797 193
L 797 193
L 797 193
L 797 193
L 797 193
L 797 193
L 797 193
L 797 193
L 797 193
L 797 193
L 797 193
L 797 193
L 797 193
L 797 193
L 797 193
L 797 193
L 797 193
L 798 192
L 798 192
L 798 192
L 798 192
L 798 192
L 798 192
L 798 192
L 798 192
L 798 192
L 798 192
L 798 192
L 798 192
L 798 192
L 798 192
L 798 192
L 798 192
L 799 192
L 799 192
L 799 192
L 799 192
L 799 192
L 799 192
L 799 192
L 800 192
L 800 192
L 800 191
L 800 191
L 800 191
L 800 191
L 800 191
L 800 191
L 800 191
L 801 191
L 801 191
L 801 191
L 801 191
L 801 191
L 801 191
L 801 191
L 801 191
L 801 191
L 801 191
L 801 191
L 801 191
L 801 191
L 801 191
L 801 191
L 801 191
L 801 191
L 801 191
L 801 190
L 801 190
L 801 190
L 801 190
L 801 190
L 801 190
L 801 190
L 801 190
L 801 190
L 801 190
L 801 190
L 801 190
L 801 190
L 801 190
L 801 190
L 801 190
L 801 190
L 801 190
L 801 190
L 801 190
L 801 190
L 801 190
L 801 190
L 801 190
L 802 190
L 802 189
L 802 189
L 802 189
L 802 189
L 802 189
L 802 189
L 802 189
L 802 189
L 802 189
L 802 189
L 802 189
L 802 189
L 802 189
L 802 189
L 802 189
L 802 189
L 802 189
L 802 189
L 802 189
L 802 189
L 802 189
L 802 189
L 802 189
L 802 189
L 802 189
L 802 188
L 802 188
L 802 188
L 802 188
L 802 188
L 802 188
L 802 188
L 802 188
L 802 188
L 802 188
L 802 188
L 802 188
L 802 188
L 802 188
L 802 188
L 802 188
L 802 188
L 802 188
L 802 188
L 802 188
L 802 188
L 802 188
L 802 188
L 802 188
L 802 188
L 802 187
L 802 187
L 802 187
L 802 187
L 802 187
L 802 187
L 802 187
L 802 187
L 802 187
L 802 187
L 802 187
L 802 187
L 802 187
L 802 187
L 802 187
L 802 187
L 802 187
L 802 187
L 802 187
L 802 187
L 802 187
L 802 187
L 802 187
L 802 187
L 802 187
L 802 186
L 802 186
L 802 186
L 802 186
L 802 186
L 802 186
L 802 186
L 802 186
L 802 186
L 802 186
L 802 186
L 802 186
L 802 186
L 802 186
L 802 186
L 802 186
L 802 186
L 802 186
L 802 186
L 802 186
L 802 186
L 802 186
L 802 186
L 802 186
L 802 186
L 802 185
L 802 185
L 802 185
L 802 185
L 802 185
L 802 185
L 802 185
L 802 185
L 802 185
L 802 185
L 802 185
L 802 185
L 802 185
L 802 185
L 802 185
L 802 185
L 802 185
L 802 185
L 802 185
L 802 185
L 802 185
L 802 185
L 802 185
L 802 185
L 802 185
L 802 184
L 802 184
L 802 184
L 802 184
L 802 184
L 802 184
L 802 184
L 802 184
L 802 184
L 802 184
L 802 184
L 802 184
L 802 184
L 802 184
L 802 184
L 802 184
L 802 184
L 802 184
L 802 184
L 802 184
L 802 184
L 802 184
L 802 184
L 802 184
L 802 184
L 802 183
L 802 183
L 802 183
L 802 183
L 802 183
L 802 183
L 802 183
L 802 183
L 802 183
L 802 183
L 802 183
L 802 183
L 802 183
L 802 183
L 802 183
L 802 183
L 802 183
L 802 183
L 802 183
L 802 183
L 802 183
L 802 183
L 802 183
L 802 183
L 802 183
L 802 182
L 802 182
L 802 182
L 802 182
L 802 182
L 802 182
L 802 182
L 802 182
L 802 182
L 802 182
L 802 182
L 802 182
L 802 182
L 802 182
L 802 182
L 802 182
L 802 182
L 802 182
L 802 182
L 802 182
L 802 182
L 802 182
L 802 182
L 802 182
L 802 182
L 802 181
L 802 181
L 802 181
L 802 181
L 802 181
L 802 181
L 802 181
L 802 181
L 802 181
L 802 181
L 802 181
L 802 181
L 802 181
L 802 181
L 802 181
L 802 181
L 802 181
L 802 181
L 802 181
L 802 181
L 803 181
L 803 181
L 803 181
L 803 181
L 803 181
L 803 180
L 803 180
L 803 180
L 803 180
L 803 180
L 803 180
L 803 180
L 803 180
L 803 180
L 803 180
L 803 180
L 803 180
L 803 180
L 803 180
L 803 180
L 803 180
L 803 180
L 803 180
L 803 180
L 803 180
L 803 180
L 803 180
L 803 180
L 803 180
L 803 180
L 803 179
L 803 179
L 803 179
L 803 179
L 803 179
L 803 179
L 803 179
L 803 179
L 803 179
L 803 179
L 803 179
L 803 179
L 803 179
L 803 179
L 803 179
L 803 179
L 803 179
L 803 179
L 803 179
L 803 179
L 803 179
L 803 179
L 803 179
L 803 179
L 803 179
L 803 178
L 803 178
L 803 178
L 803 178
L 803 178
L 803 178
L 803 178
L 803 178
L 803 178
L 803 178
L 803 178
L 803 178
L 803 178
L 803 178
L 803 178
L 803 178
L 803 178
L 803 178
L 803 178
L 803 178
L 803 178
L 803 178
L 803 178
L 803 178
L 803 178
L 803 177
L 803 177
L 803 177
L 803 177
L 803 177
L 803 177
L 803 177
L 803 177
L 803 177
L 803 177
L 803 177
L 803 177
L 803 177
L 803 177
L 803 177
L 803 177
L 803 177
L 803 177
L 803 177
L 803 177
L 803 177
L 803 177
L 803 177
L 803 177
L 803 177
L 803 176
L 803 176
L 803 176
L 803 176
L 803 176
L 803 176
L 803 176
L 803 176
L 803 176
L 803 176
L 803 176
L 803 176
L 803 176
L 803 176
L 803 176
L 803 176
L 803 176
L 803 176
L 803 176
L 803 176
L 803 176
L 803 176
L 803 176
L 803 176
L 803 176
L 803 175
L 803 175
L 803 175
L 803 175
L 803 175
L 803 175
L 803 175
L 803 175
L 803 175
L 803 175
L 803 175
L 803 175
L 803 175
L 803 175
L 803 175
L 803 175
L 803 175
L 803 175
L 803 175
L 803 175
L 803 175
L 803 175
L 803 175
L 803 175
L 803 174
L 803 174
L 803 174
L 803 174
L 803 174
L 803 174
L 803 174
L 803 174
L 803 174
L 803 174
L 803 174
L 803 174
L 803 174
L 803 174
L 803 174
L 803 174
L 803 174
L 803 174
L 803 174
L 803 174
L 803 174
L 803 174
L 803 174
L 803 174
L 803 174
L 803 174
L 803 173
L 803 173
L 803 173
L 803 173
L 803 173
L 803 173
L 803 173
L 803 173
L 803 173
L 803 173
L 803 173
L 803 173
L 803 173
L 803 173
L 803 173
L 803 173
L 803 173
L 803 173
L 803 173
L 803 173
L 803 173
L 803 173
L 803 173
L 803 173
L 803 173
L 803 172
L 803 172
L 803 172
L 803 172
L 803 172
L 803 172
L 803 172
L 803 172
L 803 172
L 803 172
L 803 172
L 803 172
L 803 172
L 803 172
L 803 172
L 803 172
L 803 172
L 803 172
L 803 172
L 803 172
L 803 172
L 803 172
L 803 172
L 803 172
L 803 172
L 803 171
L 803 171
L 803 171
L 803 171
L 803 171
L 803 171
L 803 171
L 803 171
L 803 171
L 803 171
L 803 171
L 803 171
L 803 171
L 803 171
L 803 171
L 803 171
L 803 171
L 803 171
L 803 171
L 803 171
L 803 171
L 803 171
L 803 171
L 803 171
L 803 171
L 803 170
L 803 170
L 803 170
L 803 170
L 803 170
L 803 170
L 803 170
L 803 170
L 803 170
L 803 170
L 803 170
L 803 170
L 803 170
L 803 170
L 803 170
L 803 170
L 803 170
L 803 170
L 803 170
L 803 170
L 803 170
L 803 170
L 803 170
L 803 170
L 803 170
L 803 169
L 803 169
L 803 169
L 803 169
L 803 169
L 803 169
L 803 169
L 803 169
L 803 169
L 803 169
L 803 169
L 803 169
L 803 169
L 803 169
L 803 169
L 803 169
L 803 169
L 803 169
L 803 169
L 803 169
L 803 169
L 803 169
L 803 169
L 803 169
L 803 169
L 803 168
L 803 168
L 803 168
L 803 168
L 803 168
L 803 168
L 803 168
L 803 168
L 803 168
L 803 168
L 803 168
L 803 168
L 803 168
L 803 168
L 803 168
L 803 168
L 803 168
L 803 168
L 803 168
L 803 168
L 803 168
L 803 168
L 803 168
L 803 168
L 803 168
L 803 167
L 803 167
L 803 167
L 803 167
L 803 167
L 803 167
L 803 167
L 803 167
L 803 167
L 803 167
L 803 167
L 803 167
L 803 167
L 803 167
L 803 167
L 803 167
L 803 167
L 803 167
L 803 167
L 803 167
L 803 167
L 803 167
L 803 167
L 803 167
L 803 167
L 803 166
L 803 166
L 803 166
L 803 166
L 803 166
L 803 166
L 803 166
L 803 166
L 803 166
L 803 166
L 803 166
L 803 166
L 803 166
L 803 166
L 804 166
L 804 166
L 804 166
L 804 166
L 804 166
L 804 166
L 804 166
L 804 166
L 804 166
L 804 166
L 804 166
L 804 165
L 804 165
L 804 165
L 804 165
L 804 165
L 804 165
L 804 165
L 804 165
L 804 165
L 804 165
L 804 165
L 804 165
L 804 165
L 804 165
L 804 165
L 804 165
L 804 165
L 804 165
L 804 165
L 804 165
L 804 165
L 804 165
L 804 165
L 804 165
L 804 164
L 804 164
L 804 164
L 804 164
L 804 164
L 804 164
L 804 164
L 804 164
L 804 164
L 804 164
L 804 164
L 804 164
L 804 164
L 804 164
L 804 164
L 804 164
L 804 164
L 804 164
L 804 164
L 804 164
L 804 164
L 804 164
L 804 164
L 804 164
L 804 164
L 804 163
L 804 163
L 804 163
L 804 163
L 804 163
L 804 163
L 804 163
L 804 163
L 804 163
L 804 163
L 804 163
L 804 163
L 804 163
L 804 163
L 804 163
L 804 163
L 804 163
L 804 163
L 804 163
L 804 163
L 804 163
L 804 163
L 804 163
L 804 163
L 804 163
L 804 163
L 804 162
L 804 162
L 804 162
L 804 162
L 804 162
L 804 162
L 804 162
L 804 162
L 804 162
L 804 162
L 804 162
L 804 162
L 804 162
L 804 162
L 804 162
L 804 162
L 804 162
L 804 162
L 804 162
L 804 162
L 804 162
L 804 162
L 804 162
L 804 162
L 804 162
L 804 161
L 804 161
L 804 161
L 804 161
L 804 161
L 804 161
L 804 161
L 804 161
L 804 161
L 804 161
L 804 161
L 804 161
L 804 161
L 804 161
L 804 161
L 804 161
L 804 161
L 804 161
L 804 161
L 804 161
L 804 161
L 804 161
L 804 161
L 804 161
L 804 161
L 804 160
L 804 160
L 804 160
L 804 160
L 804 160
L 804 160
L 804 160
L 804 160
L 804 160
L 804 160
L 804 160
L 804 160
L 804 160
L 804 160
L 804 160
L 804 160
L 804 160
L 804 160
L 804 160
L 804 160
L 804 160
L 804 160
L 804 160
L 804 160
L 804 160
L 804 159
L 804 159
L 804 159
L 804 159
L 804 159
L 804 159
L 804 159
L 804 159
L 804 159
L 804 159
L 804 159
L 804 159
L 804 159
L 804 159
L 804 159
L 804 159
L 804 159
L 804 159
L 804 159
L 804 159
L 804 159
L 804 159
L 804 159
L 804 159
L 804 159
L 804 158
L 804 158
L 804 158
L 804 158
L 804 158
L 804 158
L 804 158
L 804 158
L 804 158
L 804 158
L 804 158
L 804 158
L 804 158
L 804 158
L 804 158
L 804 158
L 804 158
L 804 158
L 804 158
L 804 158
L 804 158
L 804 158
L 804 158
L 804 158
L 804 158
L 804 157
L 804 157
L 804 157
L 804 157
L 804 157
L 804 157
L 804 157
L 804 157
L 804 157
L 804 157
L 804 157
L 804 157
L 804 157
L 804 157
L 804 157
L 804 157
L 804 157
L 804 157
L 804 157
L 804 157
L 804 157
L 804 157
L 804 157
L 804 157
L 804 157
L 804 156
L 804 156
L 804 156
L 804 156
L 804 156
L 804 156
L 804 156
L 804 156
L 804 156
L 804 156
L 804 156
L 804 156
L 804 156
L 804 156
L 804 156
L 804 156
L 804 156
L 804 156
L 804 156
L 804 156
L 804 156
L 804 156
L 804 156
L 804 156
L 804 156
L 804 155
L 804 155
L 804 155
L 804 155
L 804 155
L 804 155
L 804 155
L 804 155
L 804 155
L 804 155
L 804 155
L 804 155
L 804 155
L 804 155
L 804 155
L 804 155
L 804 155
L 804 155
L 804 155
L 804 155
L 804 155
L 804 155
L 804 155
L 804 155
L 804 155
L 804 154
L 804 154
L 804 154
L 804 154
L 804 154
L 804 154
L 804 154
L 804 154
L 804 154
L 804 154
L 804 154
L 804 154
L 804 154
L 804 154
L 804 154
L 804 154
L 804 154
L 804 154
L 804 154
L 804 154
L 804 154
L 804 154
L 804 154
L 804 154
L 804 153
L 804 153
L 804 153
L 804 153
L 804 153
L 804 153
L 804 153
L 804 153
L 804 153
L 804 153
L 804 153
L 804 153
L 805 153
L 805 153
L 805 153
L 805 153
L 805 153
L 805 153
L 805 153
L 805 153
L 805 153
L 805 153
L 805 153
L 805 153
L 805 153
L 805 153
L 805 152
L 805 152
L 805 152
L 805 152
L 805 152
L 805 152
L 805 152
L 805 152
L 805 152
L 805 152
L 805 152
L 805 152
L 805 152
L 805 152
L 805 152
L 805 152
L 805 152
L 805 152
L 805 152
L 805 152
L 805 152
L 805 152
L 805 152
L 805 152
L 805 152
L 805 151
L 805 151
L 805 151
L 805 151
L 805 151
L 805 151
L 805 151
L 805 151
L 805 151
L 805 151
L 805 151
L 805 151
L 805 151
L 805 151
L 805 151
L 805 151
L 805 151
L 805 151
L 805 151
L 805 151
L 805 151
L 805 151
L 805 151
L 805 151
L 805 151
L 805 150
L 805 150
L 805 150
L 805 150
L 805 150
L 805 150
L 805 150
L 805 150
L 805 150
L 805 150
L 805 150
L 805 150
L 805 150
L 805 150
L 805 150
L 805 150
L 805 150
L 805 150
L 805 150
L 805 150
L 805 150
L 805 150
L 805 150
L 805 150
L 805 150
L 805 149
L 805 149
L 805 149
L 805 149
L 805 149
L 805 149
L 805 149
L 805 149
L 805 149
L 805 149
L 805 149
L 805 149
L 805 149
L 805 149
L 805 149
L 805 149
L 805 149
L 805 149
L 805 149
L 805 149
L 805 149
L 805 149
L 805 149
L 805 149
L 805 149
L 805 148
L 805 148
L 805 148
L 805 148
L 805 148
L 805 148
L 805 148
L 805 148
L 805 148
L 805 148
L 805 148
L 805 148
L 805 148
L 805 148
L 805 148
L 805 148
L 805 148
L 805 148
L 805 148
L 805 148
L 805 148
L 805 148
L 805 148
L 805 148
L 805 148
L 805 147
L 805 147
L 805 147
L 805 147
L 805 147
L 805 147
L 805 147
L 805 147
L 805 147
L 805 147
L 805 147
L 805 147
L 805 147
L 805 147
L 805 147
L 805 147
L 805 147
L 805 147
L 805 147
L 805 147
L 805 147
L 805 147
L 805 147
L 805 147
L 805 147
L 805 146
L 805 146
L 805 146
L 805 146
L 805 146
L 805 146
L 805 146
L 805 146
L 805 146
L 805 146
L 805 146
L 805 146
L 805 146
L 805 146
L 805 146
L 805 146
L 805 146
L 805 146
L 805 146
L 805 146
L 805 146
L 805 146
L 805 146
L 805 146
L 805 146
L 805 145
L 805 145
L 805 145
L 805 145
L 805 145
L 805 145
L 805 145
L 806 145
L 806 145
L 806 145
L 806 145
L 806 145
L 806 145
L 806 145
L 806 145
L 806 145
L 806 145
L 806 145
L 806 145
L 806 145
L 806 145
L 806 145
L 806 145
L 806 145
L 806 145
L 806 144
L 806 144
L 806 144
L 806 144
L 806 144
L 806 144
L 806 144
L 806 144
L 806 144
L 806 144
L 806 144
L 806 144
L 806 144
L 806 144
L 806 144
L 806 144
L 806 144
L 806 144
L 806 144
L 806 144
L 806 144
L 806 144
L 806 144
L 806 144
L 806 144
L 806 143
L 806 143
L 806 143
L 806 143
L 806 143
L 806 143
L 806 143
L 806 143
L 806 143
L 806 143
L 806 143
L 806 143
L 806 143
L 806 143
L 806 143
L 806 143
L 806 143
L 806 143
L 806 143
L 806 143
L 806 143
L 806 143
L 806 143
L 806 143
L 806 142
L 806 142
L 806 142
L 806 142
L 806 142
L 806 142
L 806 142
L 806 142
L 806 142
L 806 142
L 806 142
L 806 142
L 806 142
L 806 142
L 806 142
L 806 142
L 806 142
L 807 142
L 807 142
L 807 142
L 807 142
L 807 142
L 807 142
L 807 142
L 807 142
L 807 142
L 807 141
L 807 141
L 807 141
L 807 141
L 807 141
L 807 141
L 807 141
L 807 141
L 807 141
L 807 141
L 807 141
L 807 141
L 807 141
L 807 141
L 807 141
L 807 141
L 807 141
L 807 141
L 807 141
L 807 141
L 807 141
L 807 141
L 807 141
L 807 141
L 807 141
L 807 140
L 807 140
L 807 140
L 807 140
L 807 140
L 807 140
L 807 140
L 807 140
L 807 140
L 807 140
L 807 140
L 807 140
L 807 140
L 807 140
L 807 140
L 807 140
L 807 140
L 807 140
L 807 140
L 807 140
L 807 140
L 807 140
L 807 140
L 807 140
L 807 140
L 807 139
L 807 139
L 807 139
L 807 139
L 807 139
L 807 139
L 807 139
L 807 139
L 807 139
L 807 139
L 807 139
L 807 139
L 807 139
L 807 139
L 807 139
L 807 139
L 807 139
L 807 139
L 807 139
L 807 139
L 807 139
L 807 139
L 807 139
L 807 139
L 807 139
L 807 138
L 807 138
L 807 138
L 807 138
L 807 138
L 808 138
L 808 138
L 808 138
L 808 138
L 808 138
L 808 138
L 808 138
L 808 138
L 808 138
L 808 138
L 808 138
L 808 138
L 808 138
L 808 138
L 808 138
L 808 138
L 808 138
L 808 138
L 808 138
L 808 138
L 808 137
L 808 137
L 808 137
L 808 137
L 808 137
L 808 137
L 808 137
L 808 137
L 808 137
L 808 137
L 808 137
L 808 137
L 808 137
L 808 137
L 808 137
L 808 137
L 808 137
L 808 137
L 808 137
L 808 137
L 808 137
L 808 137
L 808 137
L 808 137
L 808 137
L 808 136
L 808 136
L 808 136
L 808 136
L 809 136
L 809 136
L 809 136
L 809 136
L 809 136
L 809 136
L 809 136
L 809 136
L 809 136
L 809 136
L 809 136
L 809 136
L 809 136
L 809 136
L 809 136
L 809 136
L 809 136
L 809 136
L 809 136
L 809 136
L 809 136
L 809 135
L 809 135
L 809 135
L 809 135
L 809 135
L 809 135
L 809 135
L 809 135
L 809 135
L 809 135
L 809 135
L 809 135
L 809 135
L 809 135
L 809 135
L 809 135
L 809 135
L 809 135
L 809 135
L 809 135
L 809 135
L 809 135
L 809 135
L 809 135
L 809 135
L 810 134
L 810 134
L 810 134
L 810 134
L 810 134
L 810 134
L 810 134
L 810 134
L 810 134
L 810 134
L 810 134
L 810 134
L 810 134
L 810 134
L 810 134
L 810 134
L 810 134
L 810 134
L 810 134
L 810 134
L 810 134
L 810 134
L 810 134
L 810 134
L 810 134
L 811 133
L 811 133
L 811 133
L 811 133
L 811 133
L 811 133
L 811 133
L 811 133
L 811 133
L 811 133
L 811 133
L 811 133
L 811 133
L 811 133
L 811 133
L 811 133
L 811 133
L 811 133
L 811 133
L 812 133
L 812 133
L 812 133
L 812 133
L 812 133
L 812 132
L 812 132
L 812 132
L 812 132
L 812 132
L 812 132
L 812 132
L 812 132
L 812 132
L 812 132
L 812 132
L 812 132
L 812 132
L 812 132
L 812 132
L 812 132
L 812 132
L 812 132
L 812 132
L 812 132
L 812 132
L 812 132
L 812 132
L 812 132
L 812 132
L 812 131
L 812 131
L 813 131
L 813 131
L 813 131
L 813 131
L 813 131
L 813 131
L 813 131
L 813 131
L 813 131
L 813 131
L 813 131
L 813 131
L 813 131
L 813 131
L 813 131
L 813 131
L 813 131
L 813 131
L 813 131
L 813 131
L 813 131
L 813 131
L 813 131
L 813 131
L 813 130
L 813 130
L 814 130
L 814 130
L 814 130
L 814 130
L 814 130
L 814 130
L 814 130
L 814 130
L 814 130
L 814 130
L 814 130
L 814 130
L 814 130
L 814 130
L 814 130
L 814 130
L 814 130
L 814 130
L 814 130
L 814 130
L 814 130
L 814 130
L 814 130
L 814 129
L 814 129
L 815 129
L 815 129
L 815 129
L 815 129
L 815 129
L 815 129
L 815 129
L 815 129
L 815 129
L 815 129
L 815 129
L 815 129
L 815 129
L 815 129
L 815 129
L 815 129
L 815 129
L 815 129
L 815 129
L 815 129
L 815 129
L 815 129
L 815 129
L 815 128
L 816 128
L 816 128
L 816 128
L 816 128
L 816 128
L 816 128
L 816 128
L 816 128
L 816 128
L 816 128
L 816 128
L 816 128
L 817 128
L 817 128
L 817 128
L 817 128
L 817 128
L 817 128
L 817 128
L 817 128
L 817 128
L 817 128
L 817 128
L 817 128
L 817 127
L 817 127
L 817 127
L 817 127
L 818 127
L 818 127
L 818 127
L 818 127
L 818 127
L 818 127
L 818 127
L 818 127
L 818 127
L 818 127
L 818 127
L 818 127
L 818 127
L 818 127
L 818 127
L 818 127
L 818 127
L 818 127
L 818 127
L 818 127
L 818 127
L 818 126
L 818 126
L 818 126
L 818 126
L 818 126
L 818 126
L 818 126
L 818 126
L 819 126
L 819 126
L 819 126
L 819 126
L 819 126
L 819 126
L 819 126
L 819 126
L 819 126
L 819 126
L 819 126
L 819 126
L 819 126
L 819 126
L 819 126
L 819 126
L 819 126
L 819 125
L 819 125
L 819 125
L 819 125
L 819 125
L 819 125
L 819 125
L 819 125
L 819 125
L 819 125
L 819 125
L 819 125
L 819 125
L 819 125
L 819 125
L 819 125
L 819 125
L 820 125
L 820 125
L 820 125
L 820 125
L 820 125
L 820 125
L 820 125
L 820 125
L 820 124
L 820 124
L 820 124
L 820 124
L 820 124
L 820 124
L 820 124
L 820 124
L 820 124
L 820 124
L 820 124
L 820 124
L 820 124
L 820 124
L 820 124
L 820 124
L 820 124
L 820 124
L 820 124
L 820 124
L 820 124
L 820 124
L 820 124
L 820 124
L 820 124
L 820 123
L 820 123
L 820 123
L 820 123
L 820 123
L 820 123
L 820 123
L 820 123
L 820 123
L 820 123
L 820 123
L 820 123
L 820 123
L 820 123
L 820 123
L 820 123
L 820 123
L 820 123
L 820 123
L 820 123
L 820 123
L 820 123
L 820 123
L 820 123
L 820 123
L 820 122
L 820 122
L 820 122
L 821 122
L 821 122
L 821 122
L 821 122
L 821 122
L 821 122
L 821 122
L 821 122
L 821 122
L 821 122
L 821 122
L 821 122
L 821 122
L 821 122
L 821 122
L 821 122
L 821 122
L 821 122
L 821 122
L 821 122
L 821 122
L 821 121
L 821 121
L 821 121
L 821 121
L 821 121
L 821 121
L 821 121
L 821 121
L 821 121
L 821 121
L 821 121
L 821 121
L 821 121
L 821 121
L 821 121
L 822 121
L 822 121
L 822 121
L 822 121
L 822 121
L 822 121
L 822 121
L 822 121
L 822 121
L 822 121
L 822 121
L 822 120
L 822 120
L 822 120
L 823 120
L 823 120
L 823 120
L 823 120
L 823 120
L 823 120
L 823 120
L 823 120
L 823 120
L 823 120
L 823 120
L 823 120
L 823 120
L 823 120
L 823 120
L 823 120
L 823 120
L 823 120
L 823 120
L 823 120
L 823 120
L 823 120
L 823 119
L 823 119
L 823 119
L 823 119
L 823 119
L 823 119
L 823 119
L 823 119
L 823 119
L 823 119
L 823 119
L 823 119
L 823 119
L 823 119
L 823 119
L 823 119
L 823 119
L 823 119
L 824 119
L 824 119
L 824 119
L 824 119
L 824 119
L 824 119
L 824 119
L 824 118
L 824 118
L 824 118
L 824 118
L 824 118
L 824 118
L 824 118
L 824 118
L 824 118
L 824 118
L 824 118
L 824 118
L 824 118
L 824 118
L 824 118
L 824 118
L 824 118
L 824 118
L 824 118
L 824 118
L 824 118
L 824 118
L 824 118
L 824 118
L 824 118
L 824 117
L 824 117
L 824 117
L 825 117
L 825 117
L 825 117
L 825 117
L 825 117
L 825 117
L 825 117
L 825 117
L 825 117
L 825 117
L 825 117
L 825 117
L 825 117
L 825 117
L 825 117
L 825 117
L 825 117
L 825 117
L 825 117
L 825 117
L 826 117
L 826 117
L 826 116
L 826 116
L 826 116
L 826 116
L 826 116
L 826 116
L 826 116
L 826 116
L 826 116
L 826 116
L 826 116
L 827 116
L 827 116
L 827 116
L 827 116
L 827 116
L 827 116
L 828 116
L 828 116
L 828 116
L 828 116
L 828 116
L 828 116
L 828 116
L 828 116
L 829 115
L 829 115
L 829 115
L 829 115
L 829 115
L 829 115
L 829 115
L 829 115
L 829 115
L 829 115
L 829 115
L 829 115
L 829 115
L 829 115
L 829 115
L 830 115
L 830 115
L 830 115
L 830 115
L 830 115
L 830 115
L 830 115
L 830 115
L 830 115
L 830 115
L 830 114
L 831 114
L 831 114
L 831 114
L 831 114
L 831 114
L 831 114
L 831 114
L 831 114
L 831 114
L 831 114
L 831 114
L 831 114
L 831 114
L 831 114
L 831 114
L 832 114
L 832 114
L 832 114
L 832 114
L 832 114
L 832 114
L 832 114
L 832 114
L 833 114
L 833 113
L 833 113
L 833 113
L 833 113
L 833 113
L 833 113
L 833 113
L 834 113
L 834 113
L 834 113
L 834 113
L 834 113
L 834 113
L 834 113
L 834 113
L 834 113
L 834 113
L 834 113
L 835 113
L 835 113
L 835 113
L 835 113
L 835 113
L 835 113
L 835 113
L 835 112
L 835 112
L 835 112
L 835 112
L 835 112
L 835 112
L 836 112
L 836 112
L 836 112
L 836 112
L 836 112
L 836 112
L 836 112
L 836 112
L 836 112
L 836 112
L 836 112
L 836 112
L 837 112
L 837 112
L 837 112
L 837 112
L 837 112
L 837 112
L 837 112
L 837 111
L 837 111
L 837 111
L 837 111
L 837 111
L 837 111
L 837 111
L 837 111
L 837 111
L 838 111
L 838 111
L 838 111
L 838 111
L 838 111
L 838 111
L 838 111
L 839 111
L 839 111
L 839 111
L 839 111
L 839 111
L 839 111
L 839 111
L 839 111
L 839 110
L 839 110
L 840 110
L 840 110
L 840 110
L 840 110
L 840 110
L 840 110
L 840 110
L 840 110
L 840 110
L 840 110
L 840 110
L 840 110
L 840 110
L 840 110
L 840 110
L 840 110
L 840 110
L 841 110
L 841 110
L 841 110
L 841 110
L 841 110
L 841 110
L 841 110
L 841 109
L 841 109
L 841 109
L 841 109
L 841 109
L 842 109
L 842 109
L 842 109
L 842 109
L 842 109
L 842 109
L 842 109
L 842 109
L 842 109
L 842 109
L 843 109
L 843 109
L 843 109
L 843 109
L 843 109
L 843 109
L 843 109
L 843 109
L 844 109
L 844 109
L 844 108
L 844 108
L 844 108
L 844 108
L 844 108
L 844 108
L 845 108
L 845 108
L 845 108
L 845 108
L 845 108
L 845 108
L 845 108
L 845 108
L 845 108
L 845 108
L 845 108
L 845 108
L 845 108
L 845 108
L 845 108
L 845 108
L 845 108
L 845 108
L 845 108
L 845 107
L 845 107
L 845 107
L 845 107
L 845 107
L 845 107
L 845 107
L 845 107
L 846 107
L 846 107
L 846 107
L 846 107
L 846 107
L 846 107
L 846 107
L 846 107
L 846 107
L 846 107
L 846 107
L 846 107
L 846 107
L 846 107
L 846 107
L 846 107
L 846 107
L 846 106
L 846 106
L 846 106
L 846 106
L 846 106
L 846 106
L 846 106
L 846 106
L 846 106
L 846 106
L 846 106
L 846 106
L 847 106
L 847 106
L 847 106
L 847 106
L 847 106
L 847 106
L 847 106
L 847 106
L 847 106
L 847 106
L 847 106
L 847 106
L 847 106
L 847 105
L 847 105
L 847 105
L 847 105
L 847 105
L 847 105
L 847 105
L 847 105
L 847 105
L 847 105
L 847 105
L 847 105
L 847 105
L 847 105
L 847 105
L 847 105
L 847 105
L 848 105
L 848 105
L 848 105
L 848 105
L 848 105
L 848 105
L 848 105
L 848 105
L 848 104
L 848 104
L 848 104
L 848 104
L 848 104
L 849 104
L 849 104
L 849 104
L 849 104
L 849 104
L 849 104
L 849 104
L 849 104
L 849 104
L 849 104
L 850 104
L 850 104
L 850 104
L 850 104
L 850 104
L 850 104
L 850 104
L 850 104
L 850 104
L 850 104
L 850 103
L 850 103
L 850 103
L 850 103
L 850 103
L 851 103
L 851 103
L 851 103
L 851 103
L 851 103
L 851 103
L 851 103
L 851 103
L 851 103
L 851 103
L 851 103
L 851 103
L 851 103
L 851 103
L 852 103
L 852 103
L 852 103
L 852 103
L 852 103
L 852 103
L 852 102
L 852 102
L 852 102
L 852 102
L 852 102
L 852 102
L 852 102
L 853 102
L 853 102
L 853 102
L 853 102
L 853 102
L 853 102
L 853 102
L 853 102
L 853 102
L 853 102
L 853 102
L 853 102
L 853 102
L 853 102
L 853 102
L 853 102
L 854 102
L 854 102
L 854 101
L 854 101
L 854 101
L 854 101
L 854 101
L 854 101
L 854 101
L 854 101
L 855 101
L 855 101
L 855 101
L 855 101
L 855 101
L 855 101
L 855 101
L 855 101
L 855 101
L 856 101
L 856 101
L 856 101
L 856 101
L 856 101
L 856 101
L 856 101
L 856 100
L 856 100
L 856 100
L 856 100
L 856 100
L 857 100
L 857 100
L 857 100
L 857 100
L 857 100
L 857 100
L 857 100
L 857 100
L 857 100
L 857 100
L 857 100
L 857 100
L 857 100
L 857 100
L 857 100
L 857 100
L 858 100
L 858 100
L 858 100
L 858 100
L 858 100
L 858 99
L 858 99
L 858 99
L 859 99
L 859 99
L 859 99
L 859 99
L 859 99
L 859 99
L 859 99
L 859 99
L 859 99
L 859 99
L 860 99
L 860 99
L 860 99
L 860 99
L 860 99
L 860 99
L 860 99
L 860 99
L 860 99
L 860 99
L 861 99
L 861 99
L 861 98
L 861 98
L 861 98
L 861 98
L 861 98
L 861 98
L 861 98
L 861 98
L 861 98
L 861 98
L 861 98
L 861 98
L 861 98
L 861 98
L 861 98
L 861 98
L 861 98
L 861 98
L 861 98
L 861 98
L 861 98
L 862 98
L 862 98
L 862 98
L 862 98
L 862 97
L 862 97
L 862 97
L 862 97
L 862 97
L 862 97
L 862 97
L 862 97
L 862 97
L 863 97
L 863 97
L 863 97
L 863 97
L 863 97
L 863 97
L 863 97
L 863 97
L 863 97
L 864 97
L 864 97
L 864 97
L 864 97
L 864 97
L 864 97
L 864 97
L 864 96
L 864 96
L 864 96
L 864 96
L 865 96
L 865 96
L 865 96
L 865 96
L 865 96
L 865 96
L 865 96
L 865 96
L 866 96
L 866 96
L 866 96
L 866 96
L 866 96
L 866 96
L 866 96
L 866 96
L 866 96
L 866 96
L 867 96
L 867 96
L 867 96
L 867 95
L 867 95
L 867 95
L 867 95
L 867 95
L 867 95
L 867 95
L 867 95
L 867 95
L 867 95
L 867 95
L 868 95
L 868 95
L 868 95
L 868 95
L 868 95
L 868 95
L 868 95
L 868 95
L 868 95
L 868 95
L 868 95
L 868 95
L 868 95
L 868 95
L 868 94
L 869 94
L 869 94
L 869 94
L 869 94
L 869 94
L 869 94
L 869 94
L 869 94
L 869 94
L 869 94
L 869 94
L 869 94
L 870 94
L 870 94
L 870 94
L 870 94
L 870 94
L 870 94
L 871 94
L 871 94
L 871 94
L 871 94
L 871 94
L 871 94
L 871 93
L 871 93
L 871 93
L 872 93
L 872 93
L 872 93
L 872 93
L 872 93
L 872 93
L 872 93
L 872 93
L 872 93
L 872 93
L 872 93
L 872 93
L 872 93
L 872 93
L 872 93
L 873 93
L 873 93
L 873 93
L 873 93
L 873 93
L 873 93
L 873 93
L 873 92
L 873 92
L 873 92
L 874 92
L 874 92
L 874 92
L 874 92
L 874 92
L 874 92
L 874 92
L 874 92
L 874 92
L 874 92
L 874 92
L 874 92
L 874 92
L 874 92
L 874 92
L 874 92
L 874 92
L 874 92
L 874 92
L 874 92
L 874 92
L 874 92
L 874 91
L 874 91
L 874 91
L 874 91
L 874 91
L 874 91
L 874 91
L 874 91
L 874 91
L 874 91
L 874 91
L 874 91
L 874 91
L 874 91
L 874 91
L 874 91
L 874 91
L 874 91
L 874 91
L 874 91
L 874 91
L 874 91
L 874 91
L 874 91
L 874 91
L 874 90
L 874 90
L 874 90
L 874 90
L 874 90
L 875 90
L 875 90
L 875 90
L 875 90
L 875 90
L 875 90
L 875 90
L 875 90
L 875 90
L 875 90
L 875 90
L 875 90
L 875 90
L 875 90
L 875 90
L 875 90
L 875 90
L 875 90
L 875 90
L 875 90
L 875 89
L 875 89
L 875 89
L 875 89
L 875 89
L 875 89
L 875 89
L 875 89
L 875 89
L 875 89
L 875 89
L 875 89
L 875 89
L 875 89
L 875 89
L 875 89
L 875 89
L 875 89
L 875 89
L 875 89
L 875 89
L 875 89
L 875 89
L 875 89
L 875 89
L 876 88
L 876 88
L 876 88
L 876 88
L 876 88
L 876 88
L 876 88
L 876 88
L 876 88
L 876 88
L 876 88
L 876 88
L 876 88
L 876 88
L 876 88
L 876 88
L 876 88
L 877 88
L 877 88
L 877 88
L 877 88
L 877 88
L 877 88
L 877 88
L 877 88
L 877 87
L 877 87
L 877 87
L 878 87
L 878 87
L 878 87
L 878 87
L 878 87
L 878 87
L 878 87
L 878 87
L 878 87
L 878 87
L 878 87
L 878 87
L 878 87
L 878 87
L 878 87
L 878 87
L 878 87
L 878 87
L 878 87
L 878 87
L 878 87
L 878 87
L 878 86
L 878 86
L 878 86
L 878 86
L 878 86
L 878 86
L 878 86
L 878 86
L 878 86
L 878 86
L 878 86
L 878 86
L 878 86
L 878 86
L 878 86
L 878 86
L 878 86
L 878 86
L 878 86
L 878 86
L 878 86
L 879 86
L 879 86
L 879 86
L 879 86
L 879 85
L 879 85
L 879 85
L 879 85
L 879 85
L 879 85
L 879 85
L 879 85
L 879 85
L 879 85
L 879 85
L 879 85
L 879 85
L 879 85
L 879 85
L 879 85
L 879 85
L 879 85
L 879 85
L 879 85
L 879 85
L 879 85
L 879 85
L 879 85
L 879 85
L 879 84
L 879 84
L 879 84
L 879 84
L 879 84
L 879 84
L 879 84
L 879 84
L 879 84
L 879 84
L 879 84
L 879 84
L 879 84
L 879 84
L 879 84
L 879 84
L 879 84
L 879 84
L 879 84
L 879 84
L 879 84
L 879 84
L 879 84
L 879 84
L 879 84
L 879 83
L 879 83
L 879 83
L 879 83
L 879 83
L 879 83
L 879 83
L 879 83
L 879 83
L 879 83
L 879 83
L 879 83
L 879 83
L 879 83
L 879 83
L 879 83
L 879 83
L 879 83
L 879 83
L 879 83
L 880 83
L 880 83
L 880 83
L 880 83
L 880 83
L 880 82
L 880 82
L 880 82
L 880 82
L 880 82
L 880 82
L 880 82
L 880 82
L 880 82
L 880 82
L 880 82
L 880 82
L 880 82
L 880 82
L 880 82
L 880 82
L 880 82
L 880 82
L 880 82
L 880 82
L 880 82
L 880 82
L 880 82
L 880 82
L 880 82
L 880 81
L 880 81
L 880 81
L 880 81
L 880 81
L 880 81
L 880 81
L 880 81
L 880 81
L 880 81
L 880 81
L 880 81
L 880 81
L 880 81
L 880 81
L 880 81
L 880 81
L 880 81
L 880 81
L 880 81
L 880 81
L 880 81
L 881 81
L 881 81
L 881 81
L 881 80
L 881 80
L 881 80
L 881 80
L 881 80
L 881 80
L 881 80
L 881 80
L 881 80
L 881 80
L 881 80
L 881 80
L 881 80
L 881 80
L 881 80
L 881 80
L 881 80
L 881 80
L 881 80
L 881 80
L 881 80
L 881 80
L 881 80
L 881 80
L 881 80
L 881 79
L 881 79
L 881 79
L 881 79
L 881 79
L 881 79
L 881 79
L 881 79
L 881 79
L 881 79
L 881 79
L 881 79
L 881 79
L 881 79
L 881 79
L 881 79
L 881 79
L 881 79
L 881 79
L 881 79
L 882 79
L 882 79
L 882 79
L 882 79
L 882 79
L 882 78
L 882 78
L 882 78
L 882 78
L 882 78
L 882 78
L 882 78
L 882 78
L 882 78
L 882 78
L 882 78
L 882 78
L 882 78
L 882 78
L 882 78
L 883 78
L 883 78
L 883 78
L 883 78
L 883 78
L 883 78
L 883 78
L 883 78
L 883 78
L 883 78
L 883 77
L 883 77
L 883 77
L 883 77
L 883 77
L 883 77
L 883 77
L 883 77
L 883 77
L 883 77
L 883 77
L 883 77
L 883 77
L 883 77
L 883 77
L 883 77
L 883 77
L 883 77
L 883 77
L 883 77
L 883 77
L 883 77
L 883 77
L 883 77
L 883 77
L 883 76
L 884 76
L 884 76
L 884 76
L 884 76
L 884 76
L 884 76
L 884 76
L 884 76
L 884 76
L 884 76
L 884 76
L 884 76
L 884 76
L 884 76
L 884 76
L 884 76
L 884 76
L 884 76
L 884 76
L 884 76
L 884 76
L 884 76
L 884 76
L 885 76
L 885 75
L 885 75
L 885 75
L 885 75
L 885 75
L 885 75
L 885 75
L 885 75
L 885 75
L 885 75
L 885 75
L 885 75
L 885 75
L 885 75
L 885 75
L 885 75
L 886 75
L 886 75
L 886 75
L 886 75
L 886 75
L 886 75
L 886 75
L 886 75
L 886 75
L 886 74
L 886 74
L 886 74
L 886 74
L 886 74
L 887 74
L 887 74
L 887 74
L 887 74
L 887 74
L 887 74
L 887 74
L 887 74
L 887 74
L 887 74
L 887 74
L 887 74
L 887 74
L 887 74
L 888 74
L 888 74
L 888 74
L 888 74
L 888 74
L 888 74
L 888 73
L 888 73
L 888 73
L 888 73
L 889 73
L 889 73
L 889 73
L 889 73
L 889 73
L 889 73
L 889 73
L 889 73
L 889 73
L 889 73
L 889 73
L 889 73
L 889 73
L 889 73
L 889 73
L 889 73
L 889 73
L 889 73
L 889 73
L 889 73
L 889 73
L 889 72
L 889 72
L 889 72
L 889 72
L 889 72
L 889 72
L 889 72
L 889 72
L 889 72
L 890 72
L 890 72
L 890 72
L 890 72
L 890 72
L 890 72
L 890 72
L 890 72
L 890 72
L 890 72
L 890 72
L 890 72
L 890 72
L 890 72
L 890 72
L 890 72
L 890 71
L 890 71
L 890 71
L 890 71
L 890 71
L 890 71
L 890 71
L 890 71
L 890 71
L 890 71
L 890 71
L 890 71
L 890 71
L 890 71
L 890 71
L 890 71
L 890 71
L 890 71
L 890 71
L 891 71
L 891 71
L 891 71
L 891 71
L 891 71
L 891 71
L 891 70
L 891 70
L 891 70
L 891 70
L 891 70
L 891 70
L 891 70
L 891 70
L 891 70
L 891 70
L 891 70
L 891 70
L 891 70
L 891 70
L 892 70
L 892 70
L 892 70
L 892 70
L 892 70
L 892 70
L 892 70
L 892 70
L 892 70
L 892 70
L 892 70
L 892 69
L 892 69
L 892 69
L 892 69
L 892 69
L 892 69
L 892 69
L 892 69
L 892 69
L 892 69
L 892 69
L 892 69
L 892 69
L 893 69
L 893 69
L 893 69
L 893 69
L 893 69
L 893 69
L 893 69
L 893 69
L 893 69
L 893 69
L 893 69
L 893 69
L 893 68
L 893 68
L 893 68
L 893 68
L 893 68
L 893 68
L 893 68
L 893 68
L 894 68
L 894 68
L 894 68
L 894 68
L 894 68
L 894 68
L 894 68
L 894 68
L 894 68
L 894 68
L 894 68
L 894 68
L 894 68
L 894 68
L 894 68
L 895 68
L 895 68
L 895 67
L 895 67
L 895 67
L 896 67
L 896 67
L 896 67
L 896 67
L 896 67
L 896 67
L 896 67
L 896 67
L 896 67
L 896 67
L 896 67
L 896 67
L 896 67
L 896 67
L 896 67
L 896 67
L 896 67
L 896 67
L 896 67
L 896 67
L 896 67
L 896 67
L 896 66
L 896 66
L 896 66
L 896 66
L 896 66
L 896 66
L 897 66
L 897 66
L 897 66
L 897 66
L 897 66
L 897 66
L 897 66
L 897 66
L 897 66
L 897 66
L 897 66
L 897 66
L 897 66
L 897 66
L 897 66
L 897 66
L 897 66
L 897 66
L 897 66
L 897 65
L 897 65
L 897 65
L 897 65
L 897 65
L 897 65
L 897 65
L 897 65
L 897 65
L 897 65
L 897 65
L 897 65
L 897 65
L 897 65
L 897 65
L 897 65
L 898 65
L 898 65
L 898 65
L 898 65
L 898 65
L 898 65
L 898 65
L 898 65
L 898 65
L 898 64
L 898 64
L 899 64
L 899 64
L 899 64
L 899 64
L 899 64
L 899 64
L 899 64
L 899 64
L 899 64
L 899 64
L 899 64
L 900 64
L 900 64
L 900 64
L 900 64
L 900 64
L 900 64
L 900 64
L 900 64
L 900 64
L 900 64
L 900 64
L 900 64
L 900 63
L 900 63
L 900 63
L 900 63
L 900 63
L 900 63
L 900 63
L 901 63
L 901 63
L 901 63
L 901 63
L 901 63
L 901 63
L 901 63
L 901 63
L 901 63
L 901 63
L 901 63
L 901 63
L 901 63
L 901 63
L 901 63
L 902 63
L 902 63
L 902 63
L 902 62
L 902 62
L 902 62
L 902 62
L 902 62
L 902 62
L 902 62
L 903 62
L 903 62
L 903 62
L 903 62
L 903 62
L 903 62
L 903 62
L 904 62
L 904 62
L 904 62
L 904 62
L 904 62
L 904 62
L 904 62
L 904 62
L 904 62
L 904 62
L 904 62
L 905 61
L 905 61
L 905 61
L 905 61
L 905 61
L 905 61
L 905 61
L 905 61
L 905 61
L 906 61
L 907 61
L 907 61
L 907 61
L 907 61
L 907 61
L 907 61
L 907 61
L 907 61
L 907 61
L 908 61
L 908 61
L 908 61
L 908 61
L 908 61
L 908 61
L 908 60
L 908 60
L 908 60
L 908 60
L 908 60
L 909 60
L 909 60
L 909 60
L 909 60
L 909 60
L 909 60
L 910 60
L 910 60
L 910 60
L 910 60
L 910 60
L 910 60
L 910 60
L 911 60
L 911 60
L 911 60
L 911 60
L 911 60
L 911 60
L 911 60
L 911 59
L 911 59
L 911 59
L 911 59
L 911 59
L 911 59
L 911 59
L 911 59
L 911 59
L 911 59
L 912 59
L 912 59
L 912 59
L 912 59
L 912 59
L 912 59
L 912 59
L 912 59
L 912 59
L 912 59
L 912 59
L 912 59
L 912 59
L 912 59
L 912 59
L 912 58
L 912 58
L 912 58
L 912 58
L 912 58
L 913 58
L 913 58
L 913 58
L 913 58
L 913 58
L 913 58
L 913 58
L 913 58
L 913 58
L 913 58
L 913 58
L 913 58
L 913 58
L 913 58
L 913 58
L 913 58
L 913 58
L 913 58
L 913 58
L 913 58
L 913 57
L 913 57
L 913 57
L 913 57
L 913 57
L 913 57
L 913 57
L 914 57
L 914 57
L 914 57
L 914 57
L 914 57
L 914 57
L 914 57
L 914 57
L 914 57
L 914 57
L 914 57
L 914 57
L 914 57
L 914 57
L 915 57
L 915 57
L 915 57
L 915 57
L 915 56
L 916 56
L 916 56
L 916 56
L 916 56
L 916 56
L 916 56
L 916 56
L 916 56
L 916 56
L 916 56
L 916 56
L 917 56
L 917 56
L 917 56
L 917 56
L 917 56
L 917 56
L 917 56
L 917 56
L 918 56
L 918 56
L 918 56
L 918 56
L 918 56
L 918 55
L 918 55
L 918 55
L 918 55
L 919 55
L 919 55
L 919 55
L 919 55
L 919 55
L 919 55
L 919 55
L 919 55
L 919 55
L 919 55
L 919 55
L 920 55
L 920 55
L 920 55
L 920 55
L 920 55
L 920 55
L 921 55
L 921 55
L 921 55
L 921 55
L 921 54
L 921 54
L 921 54
L 922 54
L 922 54
L 922 54
L 922 54
L 922 54
L 922 54
L 922 54
L 922 54
L 922 54
L 922 54
L 922 54
L 922 54
L 922 54
L 922 54
L 923 54
L 923 54
L 923 54
L 923 54
L 923 54
L 923 54
L 923 54
L 923 54
L 923 53
L 923 53
L 923 53
L 923 53
L 923 53
L 923 53
L 923 53
L 923 53
L 923 53
L 923 53
L 923 53
L 923 53
L 923 53
L 923 53
L 923 53
L 923 53
L 923 53
L 923 53
L 923 53
L 923 53
L 923 53
L 924 53
L 924 53
L 924 53
L 924 53
L 924 52
L 924 52
L 924 52
L 924 52
L 924 52
L 924 52
L 925 52
L 925 52
L 925 52
L 925 52
L 925 52
L 925 52
L 925 52
L 925 52
L 925 52
L 925 52
L 925 52
L 925 52
L 925 52
L 926 52
L 926 52
L 926 52
L 926 52
L 926 52
L 926 52
L 926 51
L 926 51
L 926 51
L 927 51
L 927 51
L 927 51
L 927 51
L 927 51
L 927 51
L 927 51
L 927 51
L 927 51
L 927 51
L 927 51
L 927 51
L 927 51
L 927 51
L 927 51
L 927 51
L 928 51
L 928 51
L 928 51
L 928 51
L 928 51
L 928 51
L 928 50
L 928 50
L 928 50
L 928 50
L 928 50
L 928 50
L 929 50
L 929 50
L 929 50
L 929 50
L 929 50
L 929 50
L 929 50
L 929 50
L 929 50
L 929 50
L 929 50
L 930 50
L 930 50
L 930 50
L 930 50
L 930 50
L 930 50
L 930 50
L 930 50
L 930 49
L 930 49
L 930 49
L 930 49
L 930 49
L 930 49
L 930 49
L 930 49
L 930 49
L 930 49
L 931 49
L 931 49
L 931 49
L 931 49
L 931 49
L 932 49
L 932 49
L 932 49
L 932 49
L 932 49
L 932 49
L 932 49
L 932 49
L 932 49
L 932 49
L 933 48
L 933 48
L 933 48
L 933 48
L 933 48
L 933 48
L 934 48
L 934 48
L 934 48
L 934 48
L 934 48
L 934 48
L 934 48
L 934 48
L 934 48
L 934 48
L 935 48
L 935 48
L 935 48
L 935 48
L 935 48
L 935 48
L 935 48
L 936 48
L 936 48
L 936 47
L 936 47
L 936 47
L 936 47
L 936 47
L 937 47
L 937 47
L 937 47
L 937 47
L 937 47
L 938 47
L 938 47
L 938 47
L 938 47
L 938 47
L 938 47
L 939 47
L 939 47
L 939 47
L 939 47
L 939 47
L 939 47
L 939 47
L 939 47
L 939 47
L 939 46
L 939 46
L 940 46
L 940 46
L 940 46
L 940 46
L 940 46
L 940 46
L 940 46
L 940 46
L 940 46
L 940 46
L 940 46
L 940 46
L 940 46
L 940 46
L 940 46
L 940 46
L 940 46
L 940 46
L 940 46
L 940 46
L 941 46
L 941 46
L 941 46
L 941 45
L 941 45
L 941 45
L 941 45
L 941 45
L 941 45
L 941 45
L 941 45
L 941 45
L 941 45
L 941 45
L 941 45
L 942 45
L 942 45
L 942 45
L 942 45
L 942 45
L 942 45
L 942 45
L 942 45
L 942 45
L 942 45
L 943 45
L 943 45
L 943 45
L 943 44
L 943 44
L 944 44
L 944 44
L 944 44
L 944 44
L 944 44
L 944 44
L 944 44
L 944 44
L 944 44
L 944 44
L 944 44
L 944 44
L 944 44
L 944 44
L 944 44
L 945 44
L 945 44
L 945 44
L 945 44
L 945 44
L 945 44
L 945 44
L 945 44
L 945 43
L 945 43
L 945 43
L 945 43
L 946 43
L 946 43
L 946 43
L 947 43
L 947 43
L 947 43
L 947 43
L 948 43
L 948 43
L 948 43
L 949 43
L 949 43
L 949 43
L 949 43
L 949 43
L 949 43
L 949 43
L 949 43
L 949 43
L 949 43
L 949 43
L 949 42
L 950 42
L 950 42
L 950 42
L 950 42
L 950 42
L 950 42
L 950 42
L 950 42
L 951 42
L 951 42
L 951 42
L 951 42
L 951 42
L 951 42
L 951 42
L 951 42
L 951 42
L 951 42
L 951 42
L 951 42
L 951 42
L 951 42
L 951 42
L 951 42
L 951 41
L 951 41
L 951 41
L 951 41
L 951 41
L 951 41
L 952 41
L 952 41
L 952 41
L 952 41
L 952 41
L 952 41
L 952 41
L 952 41
L 952 41
L 952 41
L 952 41
L 952 41
L 952 41
L 952 41
L 952 41
L 952 41
L 952 41
L 952 41
L 952 41
L 952 40
L 952 40
L 952 40
L 952 40
L 952 40
L 952 40
L 952 40
L 953 40
L 953 40
L 953 40
L 953 40
L 953 40
L 953 40
L 953 40
L 953 40
L 953 40
L 953 40
L 953 40
L 953 40
L 953 40
L 953 40
L 953 40
L 953 40
L 953 40
L 953 40
L 953 39
L 953 39
L 953 39
L 953 39
L 954 39
L 954 39
L 954 39
L 954 39
L 954 39
L 954 39
L 954 39
L 954 39
L 954 39
L 954 39
L 954 39
L 954 39
L 954 39
L 954 39
L 954 39
L 954 39
L 954 39
L 954 39
L 954 39
L 954 39
L 954 39
L 954 38
L 954 38
L 954 38
L 954 38
L 954 38
L 954 38
L 954 38
L 954 38
L 955 38
L 955 38
L 955 38
L 955 38
L 955 38
L 955 38
L 955 38
L 955 38
L 955 38
L 955 38
L 955 38
L 955 38
L 955 38
L 955 38
L 955 38
L 955 38
L 955 38
L 955 37
L 955 37
L 955 37
L 955 37
L 955 37
L 955 37
L 955 37
L 955 37
L 955 37
L 955 37
L 955 37
L 955 37
L 955 37
L 955 37
L 955 37
L 955 37
L 955 37
L 955 37
L 955 37
L 955 37
L 955 37
L 955 37
L 955 37
L 955 37
L 955 37
L 955 36
L 955 36
L 955 36
L 955 36
L 955 36
L 955 36
L 955 36
L 955 36
L 955 36
L 955 36
L 955 36
L 955 36
L 955 36
L 955 36
L 955 36
L 955 36
L 955 36
L 955 36
L 955 36
L 955 36
L 955 36
L 955 36
L 955 36
L 955 36
L 955 36
L 955 35
L 955 35
L 955 35
L 955 35
L 955 35
L 955 35
L 955 35
L 955 35
L 955 35
L 955 35
L 955 35
L 955 35
L 955 35
L 955 35
L 955 35
L 955 35
L 955 35
L 955 35
L 955 35
L 955 35
L 955 35
L 955 35
L 955 35
L 955 35
L 955 35
L 955 34
L 955 34
L 955 34
L 955 34
L 955 34
L 955 34
L 955 34
L 955 34
L 955 34
L 955 34
L 955 34
L 955 34
L 955 34
L 955 34
L 955 34
L 955 34
L 955 34
L 955 34
L 955 34
L 955 34
L 955 34
L 955 34
L 955 34
L 955 34
L 955 34
L 955 33
L 955 33
L 955 33
L 955 33
L 955 33
L 955 33
L 955 33
L 955 33
L 955 33
L 955 33
L 955 33
L 955 33
L 955 33
L 955 33
L 955 33
L 955 33
L 955 33
L 955 33
L 955 33
L 955 33
L 955 33
L 955 33
L 955 33
L 955 33
L 955 33
L 955 32
L 955 32
L 955 32
L 955 32
L 955 32
L 955 32
L 955 32
L 955 32
L 955 32
L 955 32
L 955 32
L 955 32
L 955 32
L 955 32
L 955 32
L 955 32
L 955 32
L 955 32
L 955 32
L 955 32
L 955 32
L 955 32
L 955 32
L 955 32
L 955 32
L 955 31
L 955 31
L 955 31
L 955 31
L 955 31
L 955 31
L 955 31
L 955 31
L 955 31
L 955 31
L 955 31
L 955 31
L 955 31
L 955 31
L 955 31
L 955 31
L 955 31
L 955 31
L 955 31
L 955 31
L 955 31
L 955 31
L 955 31
L 955 31
L 955 31
L 955 30
L 955 30
L 955 30
L 955 30
L 955 30
L 955 30
L 955 30
L 955 30
L 955 30
L 955 30
L 955 30
L 955 30
L 955 30
L 955 30
L 955 30
L 955 30
L 955 30
L 955 30
L 955 30
L 955 30
L 955 30
L 955 30
L 955 30
L 955 30
L 955 30
L 955 29
L 955 29
L 955 29
L 955 29
L 955 29
L 955 29
L 955 29
L 955 29
L 955 29
L 955 29
L 955 29
L 955 29
L 955 29
L 955 29
L 955 29
L 955 29
L 955 29
L 955 29
L 955 29
L 955 29
L 955 29
L 955 29
L 955 29
L 955 29
L 955 29
L 955 28
L 955 28
L 955 28
L 955 28
L 955 28
L 955 28
L 955 28
L 956 28
L 956 28
L 956 28
L 956 28
L 956 28
L 956 28
L 956 28
L 956 28
L 956 28
L 956 28
L 956 28
L 956 28
L 956 28
L 956 28
L 956 28
L 956 28
L 956 28
L 956 28
L 956 27
L 956 27
L 956 27
L 956 27
L 956 27
L 956 27
L 956 27
L 956 27
L 956 27
L 956 27
L 956 27
L 956 27
L 956 27
L 956 27
L 956 27
L 956 27
L 956 27
L 956 27
L 956 27
L 956 27
L 956 27
L 956 27
L 956 27
L 956 27
L 956 27
L 956 26
L 956 26
L 956 26
L 956 26
L 956 26
L 956 26
L 956 26
L 956 26
L 956 26
L 956 26
L 956 26
L 956 26
L 956 26
L 956 26
L 956 26
L 956 26
L 956 26
L 956 26
L 956 26
L 956 26
L 956 26
L 956 26
L 956 26
L 956 26
L 956 26
L 956 25
L 956 25
L 956 25
L 956 25
L 956 25
L 956 25
L 956 25
L 956 25
L 956 25
L 956 25
L 956 25
L 956 25
L 956 25
L 956 25
L 956 25
L 956 25
L 956 25
L 956 25
L 956 25
L 956 25
L 956 25
L 956 25
L 956 25
L 956 25
L 956 25
L 956 24
L 956 24
L 956 24
L 956 24
L 956 24
L 956 24
L 956 24
L 956 24
L 956 24
L 956 24
L 956 24
L 956 24
L 956 24
L 956 24
L 956 24
L 956 24
L 956 24
L 956 24
L 956 24
L 956 24
L 956 24
L 956 24
L 956 24
L 956 24
L 956 24
L 956 23
L 956 23
L 956 23
L 956 23
L 956 23
L 956 23
L 956 23
L 956 23
L 957 23
L 957 23
L 957 23
L 957 23
L 957 23
L 957 23
L 957 23
L 957 23
L 957 23
L 957 23
L 957 23
L 957 23
L 957 23
L 957 23
L 957 23
L 957 23
L 957 23
L 957 22
L 957 22
L 957 22
L 957 22
L 957 22
L 957 22
L 957 22
L 957 22
L 957 22
L 957 22
L 957 22
L 957 22
L 957 22
L 957 22
L 957 22
L 957 22
L 957 22
L 957 22
L 957 22
L 957 22
L 957 22
L 957 22
L 957 22
L 957 22
L 957 22
L 957 21
L 957 21
L 957 21
L 957 21
L 957 21
L 957 21
L 957 21
L 957 21
L 957 21
L 957 21
L 957 21
L 957 21
L 957 21
L 957 21
L 957 21
L 957 21
L 957 21
L 957 21
L 957 21
L 957 21
L 957 21
L 957 21
L 957 21
L 957 21
L 957 21
L 957 20
L 957 20
L 957 20
L 957 20
L 957 20
L 957 20
L 957 20
L 957 20
L 957 20
L 957 20
L 957 20
L 957 20
L 957 20
L 957 20
L 957 20
L 957 20
L 957 20
L 957 20
L 957 20
L 957 20
L 957 20
L 957 20
L 957 20
L 957 20
L 957 20
L 957 19
L 957 19
L 957 19
L 957 19
L 957 19
L 957 19
L 957 19
L 957 19
L 957 19
L 957 19
L 957 19
L 957 19
L 957 19
L 957 19
L 957 19
L 957 19
L 957 19
L 957 19
L 957 19
L 957 19
L 957 19
L 957 19
L 957 19
L 957 19
L 957 19
L 957 18
L 957 18
L 957 18
L 957 18
L 957 18
L 957 18
L 957 18
L 957 18
L 957 18
L 957 18
L 957 18
L 957 18
L 957 18
L 957 18
L 957 18
L 957 18
L 957 18
L 957 18
L 957 18
L 957 18
L 957 18
L 957 18
L 957 18
L 957 18
L 957 18
L 957 17
L 957 17
L 957 17
L 957 17
L 957 17
L 957 17
L 957 17
L 957 17
L 957 17
L 957 17
L 957 17
L 957 17
L 957 17
L 957 17
L 957 17
L 957 17
L 957 17
L 957 17
L 957 17
L 957 17
L 957 17
L 957 17
L 957 17
L 957 17
L 957 17
L 957 16
L 957 16
L 957 16
L 957 16
L 957 16
L 957 16
L 957 16
L 957 16
L 957 16
L 957 16
L 957 16
L 957 16
L 957 16
L 957 16
L 957 16
L 957 16
L 957 16
L 957 16
L 957 16
L 957 16
L 957 16
L 957 16
L 957 16
L 957 16
L 957 16
L 957 15
L 957 15
L 957 15
L 957 15
L 957 15
L 957 15
L 957 15
L 957 15
L 957 15
L 957 15
L 957 15
L 957 15
L 957 15
L 957 15
L 957 15
L 957 15
L 957 15
L 957 15
L 957 15
L 957 15
L 957 15
L 957 15
L 957 15
L 957 15
L 957 15
L 957 14
L 957 14
L 957 14
L 957 14
L 957 14
L 957 14
L 957 14
L 957 14
L 957 14
L 957 14
L 957 14
L 957 14
L 957 14
L 957 14
L 957 14
L 957 14
L 957 14
L 957 14
L 957 14
L 957 14
L 957 14
L 957 14
L 957 14
L 957 14
L 957 14
L 957 13
L 957 13
L 957 13
L 957 13
L 957 13
L 957 13
L 957 13
L 957 13
L 957 13
L 957 13
L 957 13
L 957 13
L 957 13
L 957 13
L 957 13
L 957 13
L 957 13
L 957 13
L 957 13
L 957 13
L 957 13
L 957 13
L 957 13
L 957 13
L 957 13
L 957 12
L 957 12
L 957 12
L 957 12
L 957 12
L 957 12
L 957 12
L 957 12
L 957 12
L 957 12
L 957 12
L 957 12
L 957 12
L 957 12
L 957 12
L 957 12
L 957 12
L 957 12
L 957 12
L 957 12
L 957 12
L 957 12
L 957 12
L 957 12
L 957 12
L 957 11" style="stroke-width:2;stroke:rgba(129,199,239,1.0);fill:none"/></svg>