<!-- stars: 7350 -->
<svg xmlns="http://www.w3.org/2000/svg" xmlns:xlink="http://www.w3.org/1999/xlink" width="1024" height="400">\n<path  d="M 0 0
L 1024 0
L 1024 400
L 0 400
L 0 0" style="stroke-width:0;stroke:rgba(255,255,255,1.0);fill:rgba(255,255,255,1.0)"/><path  d="M 38 11
L 957 11
L 957 351
L 38 351
L 38 11" style="stroke-width:0;stroke:rgba(255,255,255,1.0);fill:rgba(255,255,255,1.0)"/><path  d="M 38 351
L 957 351" style="stroke-width:2;stroke:rgba(85,85,85,1.0);fill:none"/><path  d="M 38 351
L 38 356" style="stroke-width:2;stroke:rgba(85,85,85,1.0);fill:none"/><text x="5" y="373" style="stroke-width:0;stroke:none;fill:rgba(51,51,51,1.0);font-size:12.8px;font-family:'Roboto Medium',sans-serif">2018-09-25</text><path  d="M 153 351
L 153 356" style="stroke-width:2;stroke:rgba(85,85,85,1.0);fill:none"/><text x="120" y="373" style="stroke-width:0;stroke:none;fill:rgba(51,51,51,1.0);font-size:12.8px;font-family:'Roboto Medium',sans-serif">2019-02-11</text><path  d="M 268 351
L 268 356" style="stroke-width:2;stroke:rgba(85,85,85,1.0);fill:none"/><text x="235" y="373" style="stroke-width:0;stroke:none;fill:rgba(51,51,51,1.0);font-size:12.8px;font-family:'Roboto Medium',sans-serif">2019-06-30</text><path  d="M 383 351
L 383 356" style="stroke-width:2;stroke:rgba(85,85,85,1.0);fill:none"/><text x="350" y="373" style="stroke-width:0;stroke:none;fill:rgba(51,51,51,1.0);font-size:12.8px;font-family:'Roboto Medium',sans-serif">2019-11-17</text><path  d="M 498 351
L 498 356" style="stroke-width:2;stroke:rgba(85,85,85,1.0);fill:none"/><text x="465" y="373" style="stroke-width:0;stroke:none;fill:rgba(51,51,51,1.0);font-size:12.8px;font-family:'Roboto Medium',sans-serif">2020-04-04</text><path  d="M 613 351
L 613 356" style="stroke-width:2;stroke:rgba(85,85,85,1.0);fill:none"/><text x="580" y="373" style="stroke-width:0;stroke:none;fill:rgba(51,51,51,1.0);font-size:12.8px;font-family:'Roboto Medium',sans-serif">2020-08-21</text><path  d="M 728 351
L 728 356" style="stroke-width:2;stroke:rgba(85,85,85,1.0);fill:none"/><text x="695" y="373" style="stroke-width:0;stroke:none;fill:rgba(51,51,51,1.0);font-size:12.8px;font-family:'Roboto Medium',sans-serif">2021-01-08</text><path  d="M 843 351
L 843 356" style="stroke-width:2;stroke:rgba(85,85,85,1.0);fill:none"/><text x="810" y="373" style="stroke-width:0;stroke:none;fill:rgba(51,51,51,1.0);font-size:12.8px;font-family:'Roboto Medium',sans-serif">2021-05-27</text><path  d="M 957 351
L 957 356" style="stroke-width:2;stroke:rgba(85,85,85,1.0);fill:none"/><text x="924" y="373" style="stroke-width:0;stroke:none;fill:rgba(51,51,51,1.0);font-size:12.8px;font-family:'Roboto Medium',sans-serif">2021-10-13</text><text x="483" y="395" style="stroke-width:0;stroke:none;fill:rgba(51,51,51,1.0);font-size:12.8px;font-family:'Roboto Medium',sans-serif">Time</text><path  d="M 959 351
L 959 11" style="stroke-width:2;stroke:rgba(85,85,85,1.0);fill:none"/><path  d="M 959 351
L 964 351" style="stroke-width:2;stroke:rgba(85,85,85,1.0);fill:none"/><text x="969" y="357" style="stroke-width:0;stroke:none;fill:rgba(51,51,51,1.0);font-size:12.8px;font-family:'Roboto Medium',sans-serif">0</text><path  d="M 959 308
L 964 308" style="stroke-width:2;stroke:rgba(85,85,85,1.0);fill:none"/><text x="969" y="314" style="stroke-width:0;stroke:none;fill:rgba(51,51,51,1.0);font-size:12.8px;font-family:'Roboto Medium',sans-serif">930</text><path  d="M 959 266
L 964 266" style="stroke-width:2;stroke:rgba(85,85,85,1.0);fill:none"/><text x="969" y="272" style="stroke-width:0;stroke:none;fill:rgba(51,51,51,1.0);font-size:12.8px;font-family:'Roboto Medium',sans-serif">1850</text><path  d="M 959 223
L 964 223" style="stroke-width:2;stroke:rgba(85,85,85,1.0);fill:none"/><text x="969" y="229" style="stroke-width:0;stroke:none;fill:rgba(51,51,51,1.0);font-size:12.8px;font-family:'Roboto Medium',sans-serif">2780</text><path  d="M 959 181
L 964 181" style="stroke-width:2;stroke:rgba(85,85,85,1.0);fill:none"/><text x="969" y="187" style="stroke-width:0;stroke:none;fill:rgba(51,51,51,1.0);font-size:12.8px;font-family:'Roboto Medium',sans-serif">3700</text><path  d="M 959 138
L 964 138" style="stroke-width:2;stroke:rgba(85,85,85,1.0);fill:none"/><text x="969" y="144" style="stroke-width:0;stroke:none;fill:rgba(51,51,51,1.0);font-size:12.8px;font-family:'Roboto Medium',sans-serif">4630</text><path  d="M 959 96
L 964 96" style="stroke-width:2;stroke:rgba(85,85,85,1.0);fill:none"/><text x="969" y="102" style="stroke-width:0;stroke:none;fill:rgba(51,51,51,1.0);font-size:12.8px;font-family:'Roboto Medium',sans-serif">5550</text><path  d="M 959 53
L 964 53" style="stroke-width:2;stroke:rgba(85,85,85,1.0);fill:none"/><text x="969" y="59" style="stroke-width:0;stroke:none;fill:rgba(51,51,51,1.0);font-size:12.8px;font-family:'Roboto Medium',sans-serif">6480</text><path  d="M 959 11
L 964 11" style="stroke-width:2;stroke:rgba(85,85,85,1.0);fill:none"/><text x="969" y="17" style="stroke-width:0;stroke:none;fill:rgba(51,51,51,1.0);font-size:12.8px;font-family:'Roboto Medium',sans-serif">7400</text><text x="1009" y="150" style="stroke-width:0;stroke:none;fill:rgba(51,51,51,1.0);font-size:12.8px;font-family:'Roboto Medium',sans-serif" transform="rotate(90.00,1009,150)">Stargazers</text><path  d="M 38 351
L 40 350
L 51 350
L 51 350
L 51 350
L 52 350
L 52 350
L 54 350
L 55 350
L 56 350
L 58 350
L 58 350
L 59 350
L 59 350
L 59 350
L 59 350
L 62 350
L 68 350
L 68 350
L 71 350
L 71 350
L 72 350
L 74 349
L 74 349
L 76 349
L 76 349
L 81 349
L 85 349
L 91 349
L 91 349
L 96 349
L 97 349
L 97 349
L 97 349
L 97 349
L 97 349
L 97 349
L 97 349
L 98 349
L 98 349
L 98 349
L 100 349
L 102 349
L 102 349
L 102 348
L 102 348
L 102 348
L 103 348
L 103 348
L 104 348
L 106 348
L 106 348
L 107 348
L 109 348
L 110 348
L 111 348
L 111 348
L 113 348
L 113 348
L 114 348
L 114 348
L 114 348
L 115 348
L 115 348
L 115 348
L 116 348
L 116 347
L 116 347
L 116 347
L 116 347
L 117 347
L 117 347
L 117 347
L 118 347
L 119 347
L 119 347
L 120 347
L 120 347
L 121 347
L 122 347
L 122 347
L 124 347
L 124 347
L 124 347
L 124 347
L 124 347
L 125 347
L 126 347
L 126 346
L 127 346
L 127 346
L 127 346
L 128 346
L 130 346
L 131 346
L 131 346
L 131 346
L 132 346
L 132 346
L 134 346
L 136 346
L 138 346
L 138 346
L 139 346
L 139 346
L 139 346
L 147 346
L 150 346
L 154 346
L 154 345
L 156 345
L 156 345
L 156 345
L 157 345
L 157 345
L 159 345
L 160 345
L 160 345
L 160 345
L 161 345
L 161 345
L 161 345
L 162 345
L 162 345
L 162 345
L 165 345
L 165 345
L 167 345
L 168 345
L 170 345
L 171 345
L 172 344
L 172 344
L 173 344
L 173 344
L 174 344
L 174 344
L 175 344
L 176 344
L 176 344
L 178 344
L 179 344
L 180 344
L 182 344
L 182 344
L 183 344
L 184 344
L 184 344
L 184 344
L 185 344
L 185 344
L 189 344
L 189 344
L 190 343
L 190 343
L 190 343
L 191 343
L 191 343
L 191 343
L 192 343
L 192 343
L 192 343
L 193 343
L 194 343
L 194 343
L 194 343
L 194 343
L 194 343
L 194 343
L 195 343
L 195 343
L 195 343
L 195 343
L 195 343
L 195 343
L 195 342
L 195 342
L 196 342
L 196 342
L 196 342
L 197 342
L 199 342
L 199 342
L 199 342
L 200 342
L 200 342
L 201 342
L 201 342
L 201 342
L 202 342
L 202 342
L 202 342
L 202 342
L 203 342
L 204 342
L 206 342
L 206 341
L 206 341
L 208 341
L 209 341
L 211 341
L 212 341
L 212 341
L 213 341
L 213 341
L 213 341
L 213 341
L 213 341
L 214 341
L 215 341
L 215 341
L 216 341
L 217 341
L 217 341
L 217 341
L 218 341
L 218 341
L 218 341
L 219 340
L 219 340
L 220 340
L 221 340
L 222 340
L 223 340
L 223 340
L 225 340
L 225 340
L 226 340
L 226 340
L 226 340
L 227 340
L 227 340
L 230 340
L 231 340
L 234 340
L 235 340
L 236 340
L 238 340
L 239 340
L 240 340
L 240 339
L 241 339
L 246 339
L 246 339
L 246 339
L 247 339
L 247 339
L 248 339
L 248 339
L 248 339
L 249 339
L 249 339
L 255 339
L 257 339
L 258 339
L 259 339
L 259 339
L 259 339
L 259 339
L 259 339
L 259 339
L 259 339
L 259 338
L 260 338
L 260 338
L 263 338
L 264 338
L 264 338
L 265 338
L 266 338
L 266 338
L 267 338
L 268 338
L 269 338
L 269 338
L 270 338
L 270 338
L 270 338
L 270 338
L 270 338
L 270 338
L 271 338
L 271 338
L 271 337
L 271 337
L 272 337
L 272 337
L 272 337
L 273 337
L 273 337
L 274 337
L 274 337
L 274 337
L 275 337
L 277 337
L 278 337
L 278 337
L 279 337
L 280 337
L 280 337
L 281 337
L 281 337
L 283 337
L 285 337
L 286 337
L 287 336
L 289 336
L 290 336
L 291 336
L 292 336
L 292 336
L 293 336
L 294 336
L 298 336
L 302 336
L 303 336
L 304 336
L 306 336
L 307 336
L 309 336
L 311 336
L 314 336
L 314 336
L 314 336
L 315 336
L 318 336
L 323 336
L 323 335
L 323 335
L 324 335
L 324 335
L 335 335
L 336 335
L 337 335
L 337 335
L 337 335
L 337 335
L 337 335
L 337 335
L 337 335
L 337 335
L 337 335
L 338 335
L 338 335
L 338 335
L 340 335
L 343 335
L 343 335
L 344 335
L 349 334
L 351 334
L 352 334
L 353 334
L 353 334
L 354 334
L 355 334
L 356 334
L 356 334
L 356 334
L 357 334
L 358 334
L 358 334
L 359 334
L 361 334
L 362 334
L 362 334
L 362 334
L 367 334
L 379 334
L 380 334
L 383 334
L 386 333
L 386 333
L 388 333
L 391 333
L 391 333
L 391 333
L 391 333
L 392 333
L 392 333
L 393 333
L 396 333
L 396 333
L 399 333
L 400 333
L 405 333
L 405 333
L 405 333
L 410 333
L 413 333
L 413 333
L 415 333
L 415 332
L 415 332
L 415 332
L 415 332
L 416 332
L 416 332
L 416 332
L 416 332
L 417 332
L 419 332
L 419 332
L 423 332
L 424 332
L 426 332
L 430 332
L 430 332
L 430 332
L 431 332
L 431 332
L 432 332
L 433 332
L 436 332
L 436 331
L 441 331
L 441 331
L 442 331
L 443 331
L 445 331
L 446 331
L 448 331
L 451 331
L 455 331
L 457 331
L 457 331
L 458 331
L 461 331
L 467 331
L 470 331
L 472 331
L 473 331
L 474 331
L 474 331
L 475 331
L 476 331
L 476 330
L 476 330
L 478 330
L 478 330
L 478 330
L 479 330
L 479 330
L 479 330
L 480 330
L 481 330
L 482 330
L 482 330
L 483 330
L 484 330
L 484 330
L 484 330
L 484 330
L 484 330
L 485 330
L 485 330
L 485 330
L 485 330
L 485 329
L 485 329
L 486 329
L 487 329
L 487 329
L 489 329
L 489 329
L 490 329
L 490 329
L 491 329
L 491 329
L 491 329
L 492 329
L 492 329
L 492 329
L 493 329
L 493 329
L 494 329
L 494 329
L 494 329
L 494 329
L 495 328
L 496 328
L 497 328
L 499 328
L 499 328
L 500 328
L 500 328
L 500 328
L 500 328
L 501 328
L 501 328
L 502 328
L 502 328
L 502 328
L 502 328
L 502 328
L 502 328
L 502 328
L 502 328
L 502 328
L 502 328
L 502 328
L 502 327
L 503 327
L 503 327
L 503 327
L 503 327
L 504 327
L 504 327
L 505 327
L 505 327
L 505 327
L 505 327
L 505 327
L 506 327
L 508 327
L 508 327
L 509 327
L 509 327
L 509 327
L 509 327
L 511 327
L 511 327
L 511 327
L 511 326
L 511 326
L 511 326
L 511 326
L 511 326
L 511 326
L 511 326
L 511 326
L 511 326
L 511 326
L 511 326
L 511 326
L 511 326
L 511 326
L 512 326
L 512 326
L 512 326
L 512 326
L 512 326
L 512 326
L 512 326
L 512 326
L 512 325
L 512 325
L 512 325
L 513 325
L 513 325
L 513 325
L 513 325
L 513 325
L 514 325
L 514 325
L 514 325
L 514 325
L 514 325
L 514 325
L 514 325
L 515 325
L 515 325
L 516 325
L 516 325
L 517 325
L 517 325
L 517 324
L 518 324
L 518 324
L 518 324
L 518 324
L 518 324
L 519 324
L 519 324
L 519 324
L 519 324
L 520 324
L 521 324
L 522 324
L 522 324
L 523 324
L 524 324
L 524 324
L 525 324
L 525 324
L 525 324
L 525 324
L 525 324
L 525 323
L 525 323
L 526 323
L 526 323
L 527 323
L 528 323
L 528 323
L 528 323
L 529 323
L 529 323
L 529 323
L 530 323
L 530 323
L 531 323
L 531 323
L 531 323
L 531 323
L 532 323
L 532 323
L 532 323
L 532 323
L 532 323
L 533 322
L 533 322
L 533 322
L 534 322
L 535 322
L 535 322
L 537 322
L 537 322
L 537 322
L 537 322
L 537 322
L 538 322
L 539 322
L 539 322
L 539 322
L 539 322
L 540 322
L 541 322
L 541 322
L 541 322
L 541 322
L 542 322
L 542 321
L 542 321
L 542 321
L 542 321
L 542 321
L 543 321
L 543 321
L 543 321
L 543 321
L 543 321
L 543 321
L 544 321
L 544 321
L 545 321
L 545 321
L 546 321
L 547 321
L 547 321
L 547 321
L 547 321
L 548 321
L 548 320
L 548 320
L 549 320
L 550 320
L 550 320
L 550 320
L 550 320
L 550 320
L 550 320
L 550 320
L 550 320
L 550 320
L 550 320
L 550 320
L 550 320
L 550 320
L 551 320
L 551 320
L 551 320
L 551 320
L 551 320
L 551 320
L 551 319
L 552 319
L 552 319
L 552 319
L 552 319
L 552 319
L 553 319
L 554 319
L 555 319
L 555 319
L 555 319
L 556 319
L 556 319
L 556 319
L 556 319
L 557 319
L 557 319
L 557 319
L 557 319
L 557 319
L 557 319
L 557 319
L 557 318
L 557 318
L 558 318
L 558 318
L 558 318
L 558 318
L 558 318
L 558 318
L 558 318
L 558 318
L 558 318
L 559 318
L 559 318
L 559 318
L 559 318
L 559 318
L 559 318
L 560 318
L 560 318
L 560 318
L 560 318
L 560 318
L 561 317
L 561 317
L 561 317
L 561 317
L 561 317
L 561 317
L 562 317
L 562 317
L 562 317
L 563 317
L 563 317
L 563 317
L 564 317
L 564 317
L 565 317
L 565 317
L 565 317
L 567 317
L 567 317
L 567 317
L 567 317
L 567 317
L 567 316
L 568 316
L 568 316
L 569 316
L 569 316
L 569 316
L 569 316
L 569 316
L 569 316
L 570 316
L 570 316
L 571 316
L 571 316
L 571 316
L 571 316
L 571 316
L 571 316
L 571 316
L 572 316
L 572 316
L 572 316
L 572 315
L 573 315
L 573 315
L 574 315
L 574 315
L 574 315
L 575 315
L 575 315
L 575 315
L 575 315
L 576 315
L 577 315
L 577 315
L 577 315
L 578 315
L 578 315
L 578 315
L 579 315
L 579 315
L 580 315
L 581 315
L 581 315
L 581 314
L 582 314
L 582 314
L 582 314
L 583 314
L 583 314
L 583 314
L 583 314
L 583 314
L 583 314
L 584 314
L 584 314
L 584 314
L 584 314
L 584 314
L 585 314
L 585 314
L 585 314
L 585 314
L 586 314
L 586 314
L 586 314
L 586 313
L 586 313
L 586 313
L 586 313
L 587 313
L 587 313
L 587 313
L 588 313
L 588 313
L 589 313
L 589 313
L 589 313
L 589 313
L 590 313
L 590 313
L 590 313
L 590 313
L 591 313
L 591 313
L 591 313
L 592 313
L 592 313
L 592 312
L 592 312
L 592 312
L 592 312
L 593 312
L 593 312
L 593 312
L 593 312
L 593 312
L 593 312
L 594 312
L 594 312
L 594 312
L 594 312
L 594 312
L 594 312
L 594 312
L 594 312
L 594 312
L 595 312
L 595 312
L 595 311
L 595 311
L 595 311
L 596 311
L 596 311
L 597 311
L 597 311
L 597 311
L 598 311
L 598 311
L 598 311
L 598 311
L 599 311
L 599 311
L 599 311
L 600 311
L 600 311
L 600 311
L 600 311
L 600 311
L 600 311
L 601 311
L 601 310
L 601 310
L 602 310
L 603 310
L 603 310
L 603 310
L 603 310
L 603 310
L 604 310
L 604 310
L 604 310
L 604 310
L 604 310
L 604 310
L 605 310
L 605 310
L 605 310
L 606 310
L 606 310
L 606 310
L 606 310
L 607 310
L 607 309
L 607 309
L 607 309
L 608 309
L 609 309
L 609 309
L 609 309
L 609 309
L 609 309
L 609 309
L 610 309
L 610 309
L 610 309
L 611 309
L 611 309
L 611 309
L 611 309
L 611 309
L 612 309
L 612 309
L 612 309
L 612 309
L 612 308
L 614 308
L 614 308
L 615 308
L 615 308
L 616 308
L 616 308
L 617 308
L 617 308
L 618 308
L 619 308
L 620 308
L 620 308
L 621 308
L 621 308
L 622 308
L 622 308
L 622 308
L 623 308
L 623 308
L 624 308
L 624 307
L 624 307
L 625 307
L 625 307
L 625 307
L 625 307
L 626 307
L 626 307
L 626 307
L 627 307
L 627 307
L 627 307
L 627 307
L 628 307
L 629 307
L 629 307
L 629 307
L 629 307
L 629 307
L 629 307
L 629 307
L 630 307
L 630 306
L 630 306
L 630 306
L 630 306
L 630 306
L 631 306
L 631 306
L 631 306
L 631 306
L 632 306
L 632 306
L 632 306
L 633 306
L 633 306
L 633 306
L 635 306
L 635 306
L 635 306
L 636 306
L 636 306
L 637 306
L 638 306
L 639 305
L 639 305
L 639 305
L 640 305
L 640 305
L 640 305
L 640 305
L 640 305
L 643 305
L 643 305
L 643 305
L 643 305
L 643 305
L 643 305
L 644 305
L 644 305
L 644 305
L 645 305
L 645 305
L 645 305
L 645 305
L 645 305
L 645 304
L 645 304
L 646 304
L 647 304
L 649 304
L 650 304
L 650 304
L 652 304
L 652 304
L 652 304
L 653 304
L 653 304
L 654 304
L 654 304
L 655 304
L 655 304
L 655 304
L 655 304
L 655 304
L 655 304
L 656 304
L 656 303
L 656 303
L 656 303
L 656 303
L 656 303
L 656 303
L 656 303
L 656 303
L 657 303
L 657 303
L 657 303
L 658 303
L 658 303
L 658 303
L 658 303
L 658 303
L 658 303
L 658 303
L 658 303
L 659 303
L 659 303
L 659 303
L 659 302
L 659 302
L 661 302
L 661 302
L 661 302
L 661 302
L 662 302
L 662 302
L 662 302
L 662 302
L 663 302
L 663 302
L 663 302
L 664 302
L 664 302
L 664 302
L 664 302
L 664 302
L 665 302
L 665 302
L 665 302
L 666 302
L 667 301
L 667 301
L 668 301
L 668 301
L 668 301
L 668 301
L 668 301
L 668 301
L 668 301
L 668 301
L 668 301
L 668 301
L 668 301
L 668 301
L 668 301
L 668 301
L 668 301
L 669 301
L 669 301
L 669 301
L 669 301
L 669 301
L 669 300
L 669 300
L 669 300
L 669 300
L 669 300
L 669 300
L 669 300
L 669 300
L 669 300
L 669 300
L 670 300
L 670 300
L 670 300
L 670 300
L 670 300
L 670 300
L 670 300
L 670 300
L 671 300
L 671 300
L 671 300
L 672 300
L 672 299
L 672 299
L 672 299
L 672 299
L 673 299
L 673 299
L 673 299
L 673 299
L 673 299
L 673 299
L 673 299
L 673 299
L 674 299
L 674 299
L 674 299
L 674 299
L 674 299
L 674 299
L 674 299
L 674 299
L 674 299
L 674 298
L 675 298
L 675 298
L 675 298
L 675 298
L 676 298
L 677 298
L 677 298
L 677 298
L 677 298
L 678 298
L 678 298
L 678 298
L 678 298
L 678 298
L 679 298
L 679 298
L 679 298
L 679 298
L 679 298
L 679 298
L 679 298
L 680 297
L 680 297
L 680 297
L 680 297
L 681 297
L 681 297
L 681 297
L 682 297
L 682 297
L 682 297
L 682 297
L 682 297
L 683 297
L 683 297
L 683 297
L 683 297
L 683 297
L 684 297
L 684 297
L 684 297
L 684 297
L 684 297
L 684 296
L 685 296
L 685 296
L 686 296
L 686 296
L 686 296
L 686 296
L 686 296
L 687 296
L 687 296
L 687 296
L 687 296
L 687 296
L 687 296
L 687 296
L 687 296
L 688 296
L 688 296
L 689 296
L 689 296
L 689 296
L 689 296
L 689 295
L 690 295
L 690 295
L 690 295
L 690 295
L 690 295
L 690 295
L 691 295
L 691 295
L 692 295
L 692 295
L 693 295
L 693 295
L 693 295
L 693 295
L 693 295
L 693 295
L 693 295
L 693 295
L 694 295
L 695 295
L 695 294
L 695 294
L 696 294
L 696 294
L 696 294
L 696 294
L 696 294
L 697 294
L 697 294
L 697 294
L 697 294
L 697 294
L 697 294
L 697 294
L 697 294
L 697 294
L 698 294
L 698 294
L 698 294
L 698 294
L 698 294
L 698 294
L 698 293
L 699 293
L 700 293
L 701 293
L 701 293
L 701 293
L 702 293
L 702 293
L 702 293
L 702 293
L 702 293
L 702 293
L 703 293
L 703 293
L 703 293
L 703 293
L 703 293
L 703 293
L 704 293
L 704 293
L 704 293
L 704 293
L 704 292
L 704 292
L 705 292
L 705 292
L 705 292
L 706 292
L 706 292
L 706 292
L 707 292
L 707 292
L 707 292
L 707 292
L 707 292
L 707 292
L 707 292
L 708 292
L 708 292
L 708 292
L 709 292
L 709 292
L 709 292
L 709 292
L 710 291
L 710 291
L 710 291
L 711 291
L 711 291
L 711 291
L 712 291
L 712 291
L 712 291
L 713 291
L 713 291
L 713 291
L 713 291
L 713 291
L 714 291
L 714 291
L 714 291
L 714 291
L 714 291
L 714 291
L 714 291
L 714 290
L 714 290
L 714 290
L 714 290
L 715 290
L 715 290
L 715 290
L 715 290
L 715 290
L 715 290
L 715 290
L 715 290
L 716 290
L 716 290
L 716 290
L 716 290
L 716 290
L 716 290
L 716 290
L 716 290
L 717 290
L 717 290
L 717 289
L 718 289
L 718 289
L 718 289
L 718 289
L 719 289
L 719 289
L 719 289
L 719 289
L 719 289
L 719 289
L 719 289
L 720 289
L 720 289
L 720 289
L 720 289
L 720 289
L 720 289
L 720 289
L 721 289
L 721 289
L 721 289
L 721 288
L 721 288
L 722 288
L 723 288
L 723 288
L 724 288
L 724 288
L 724 288
L 724 288
L 725 288
L 725 288
L 725 288
L 725 288
L 725 288
L 725 288
L 725 288
L 726 288
L 726 288
L 726 288
L 726 288
L 726 288
L 726 288
L 726 287
L 726 287
L 726 287
L 726 287
L 726 287
L 727 287
L 727 287
L 727 287
L 727 287
L 727 287
L 728 287
L 728 287
L 728 287
L 729 287
L 729 287
L 729 287
L 730 287
L 730 287
L 730 287
L 730 287
L 731 287
L 731 286
L 731 286
L 731 286
L 731 286
L 731 286
L 731 286
L 731 286
L 731 286
L 731 286
L 732 286
L 732 286
L 732 286
L 733 286
L 733 286
L 733 286
L 734 286
L 734 286
L 734 286
L 734 286
L 734 286
L 734 286
L 734 286
L 735 285
L 735 285
L 736 285
L 736 285
L 736 285
L 736 285
L 736 285
L 737 285
L 737 285
L 737 285
L 737 285
L 738 285
L 738 285
L 738 285
L 739 285
L 739 285
L 739 285
L 739 285
L 739 285
L 739 285
L 739 285
L 739 285
L 739 284
L 739 284
L 740 284
L 740 284
L 740 284
L 740 284
L 740 284
L 741 284
L 741 284
L 741 284
L 741 284
L 741 284
L 741 284
L 742 284
L 742 284
L 742 284
L 742 284
L 742 284
L 742 284
L 742 284
L 743 284
L 743 284
L 743 283
L 743 283
L 743 283
L 743 283
L 743 283
L 744 283
L 744 283
L 744 283
L 744 283
L 744 283
L 745 283
L 745 283
L 746 283
L 746 283
L 746 283
L 746 283
L 747 283
L 747 283
L 747 283
L 747 283
L 747 283
L 747 283
L 747 282
L 747 282
L 748 282
L 748 282
L 748 282
L 748 282
L 749 282
L 749 282
L 749 282
L 750 282
L 750 282
L 750 282
L 750 282
L 750 282
L 750 282
L 750 282
L 750 282
L 751 282
L 751 282
L 751 282
L 751 282
L 751 281
L 752 281
L 752 281
L 752 281
L 752 281
L 752 281
L 752 281
L 752 281
L 752 281
L 753 281
L 753 281
L 753 281
L 753 281
L 753 281
L 754 281
L 754 281
L 754 281
L 755 281
L 755 281
L 756 281
L 757 281
L 758 281
L 758 280
L 758 280
L 758 280
L 758 280
L 759 280
L 759 280
L 759 280
L 760 280
L 760 280
L 760 280
L 761 280
L 761 280
L 761 280
L 761 280
L 762 280
L 762 280
L 762 280
L 762 280
L 762 280
L 762 280
L 762 280
L 762 280
L 762 279
L 762 279
L 763 279
L 763 279
L 763 279
L 763 279
L 763 279
L 763 279
L 763 279
L 763 279
L 763 279
L 764 279
L 764 279
L 764 279
L 764 279
L 765 279
L 765 279
L 765 279
L 765 279
L 765 279
L 766 279
L 766 279
L 766 278
L 766 278
L 766 278
L 766 278
L 766 278
L 766 278
L 766 278
L 766 278
L 766 278
L 766 278
L 767 278
L 767 278
L 767 278
L 767 278
L 767 278
L 767 278
L 767 278
L 768 278
L 768 278
L 768 278
L 768 278
L 768 277
L 768 277
L 768 277
L 768 277
L 768 277
L 768 277
L 769 277
L 769 277
L 770 277
L 770 277
L 770 277
L 770 277
L 770 277
L 770 277
L 771 277
L 771 277
L 771 277
L 771 277
L 771 277
L 771 277
L 771 277
L 771 277
L 771 276
L 771 276
L 771 276
L 771 276
L 771 276
L 772 276
L 772 276
L 772 276
L 772 276
L 772 276
L 772 276
L 772 276
L 772 276
L 772 276
L 772 276
L 772 276
L 772 276
L 773 276
L 773 276
L 773 276
L 773 276
L 773 276
L 773 275
L 773 275
L 773 275
L 773 275
L 774 275
L 774 275
L 775 275
L 775 275
L 775 275
L 775 275
L 775 275
L 776 275
L 776 275
L 776 275
L 776 275
L 776 275
L 776 275
L 777 275
L 777 275
L 777 275
L 777 275
L 777 275
L 777 274
L 777 274
L 777 274
L 777 274
L 777 274
L 777 274
L 777 274
L 778 274
L 778 274
L 778 274
L 778 274
L 779 274
L 779 274
L 779 274
L 779 274
L 779 274
L 779 274
L 779 274
L 779 274
L 779 274
L 779 274
L 779 273
L 779 273
L 779 273
L 779 273
L 780 273
L 780 273
L 780 273
L 780 273
L 781 273
L 781 273
L 781 273
L 781 273
L 781 273
L 781 273
L 781 273
L 781 273
L 781 273
L 781 273
L 781 273
L 781 273
L 781 273
L 781 273
L 781 272
L 781 272
L 781 272
L 781 272
L 781 272
L 781 272
L 781 272
L 781 272
L 781 272
L 781 272
L 781 272
L 781 272
L 781 272
L 781 272
L 781 272
L 781 272
L 781 272
L 781 272
L 781 272
L 781 272
L 781 272
L 781 272
L 781 271
L 781 271
L 781 271
L 781 271
L 781 271
L 781 271
L 781 271
L 781 271
L 781 271
L 781 271
L 781 271
L 781 271
L 781 271
L 781 271
L 781 271
L 781 271
L 781 271
L 781 271
L 781 271
L 781 271
L 782 271
L 782 271
L 782 270
L 782 270
L 782 270
L 782 270
L 782 270
L 782 270
L 782 270
L 782 270
L 782 270
L 782 270
L 782 270
L 782 270
L 782 270
L 782 270
L 782 270
L 782 270
L 782 270
L 782 270
L 782 270
L 782 270
L 782 270
L 782 269
L 782 269
L 782 269
L 782 269
L 782 269
L 782 269
L 782 269
L 782 269
L 782 269
L 782 269
L 782 269
L 782 269
L 782 269
L 782 269
L 782 269
L 782 269
L 782 269
L 782 269
L 782 269
L 782 269
L 782 269
L 782 269
L 782 268
L 782 268
L 782 268
L 782 268
L 782 268
L 782 268
L 782 268
L 782 268
L 782 268
L 782 268
L 783 268
L 783 268
L 783 268
L 783 268
L 783 268
L 783 268
L 783 268
L 783 268
L 783 268
L 783 268
L 783 268
L 783 268
L 783 267
L 783 267
L 783 267
L 783 267
L 783 267
L 783 267
L 783 267
L 783 267
L 783 267
L 783 267
L 783 267
L 783 267
L 783 267
L 783 267
L 783 267
L 783 267
L 783 267
L 783 267
L 783 267
L 783 267
L 783 267
L 783 267
L 783 266
L 783 266
L 783 266
L 783 266
L 783 266
L 783 266
L 783 266
L 783 266
L 783 266
L 783 266
L 783 266
L 783 266
L 783 266
L 783 266
L 783 266
L 783 266
L 783 266
L 783 266
L 783 266
L 783 266
L 783 266
L 783 266
L 783 265
L 784 265
L 784 265
L 784 265
L 784 265
L 784 265
L 784 265
L 784 265
L 784 265
L 784 265
L 784 265
L 784 265
L 784 265
L 784 265
L 784 265
L 784 265
L 784 265
L 784 265
L 784 265
L 784 265
L 784 265
L 784 264
L 784 264
L 784 264
L 784 264
L 784 264
L 784 264
L 784 264
L 784 264
L 784 264
L 784 264
L 784 264
L 784 264
L 784 264
L 784 264
L 784 264
L 784 264
L 784 264
L 784 264
L 784 264
L 784 264
L 784 264
L 784 264
L 784 263
L 784 263
L 784 263
L 784 263
L 784 263
L 784 263
L 784 263
L 784 263
L 784 263
L 784 263
L 784 263
L 784 263
L 784 263
L 784 263
L 784 263
L 784 263
L 784 263
L 784 263
L 784 263
L 784 263
L 784 263
L 784 263
L 784 262
L 784 262
L 784 262
L 784 262
L 784 262
L 784 262
L 784 262
L 784 262
L 784 262
L 784 262
L 784 262
L 784 262
L 784 262
L 784 262
L 784 262
L 785 262
L 785 262
L 785 262
L 785 262
L 785 262
L 785 262
L 785 262
L 785 261
L 785 261
L 785 261
L 785 261
L 785 261
L 785 261
L 785 261
L 785 261
L 785 261
L 785 261
L 785 261
L 785 261
L 785 261
L 785 261
L 785 261
L 785 261
L 785 261
L 785 261
L 785 261
L 785 261
L 785 261
L 785 260
L 785 260
L 785 260
L 785 260
L 785 260
L 785 260
L 785 260
L 785 260
L 785 260
L 785 260
L 785 260
L 785 260
L 785 260
L 785 260
L 785 260
L 785 260
L 785 260
L 785 260
L 785 260
L 785 260
L 785 260
L 785 260
L 785 259
L 785 259
L 785 259
L 785 259
L 785 259
L 785 259
L 785 259
L 786 259
L 786 259
L 786 259
L 786 259
L 786 259
L 786 259
L 786 259
L 786 259
L 786 259
L 786 259
L 786 259
L 786 259
L 786 259
L 786 259
L 786 259
L 786 258
L 786 258
L 786 258
L 786 258
L 786 258
L 786 258
L 786 258
L 786 258
L 786 258
L 786 258
L 786 258
L 786 258
L 786 258
L 786 258
L 786 258
L 786 258
L 786 258
L 786 258
L 787 258
L 787 258
L 787 258
L 787 258
L 787 257
L 787 257
L 787 257
L 787 257
L 787 257
L 787 257
L 788 257
L 788 257
L 788 257
L 788 257
L 788 257
L 788 257
L 788 257
L 788 257
L 788 257
L 789 257
L 789 257
L 789 257
L 789 257
L 789 257
L 789 257
L 789 256
L 789 256
L 789 256
L 790 256
L 790 256
L 790 256
L 790 256
L 790 256
L 790 256
L 790 256
L 790 256
L 790 256
L 790 256
L 790 256
L 790 256
L 790 256
L 790 256
L 790 256
L 790 256
L 790 256
L 791 256
L 791 256
L 791 255
L 791 255
L 791 255
L 791 255
L 791 255
L 791 255
L 791 255
L 791 255
L 791 255
L 792 255
L 792 255
L 792 255
L 792 255
L 792 255
L 792 255
L 792 255
L 792 255
L 793 255
L 793 255
L 793 255
L 793 255
L 793 255
L 793 254
L 793 254
L 793 254
L 793 254
L 793 254
L 794 254
L 794 254
L 794 254
L 794 254
L 794 254
L 794 254
L 794 254
L 794 254
L 794 254
L 794 254
L 794 254
L 794 254
L 794 254
L 794 254
L 794 254
L 794 254
L 794 254
L 794 253
L 794 253
L 794 253
L 794 253
L 794 253
L 794 253
L 794 253
L 794 253
L 794 253
L 794 253
L 794 253
L 794 253
L 794 253
L 794 253
L 794 253
L 794 253
L 794 253
L 795 253
L 795 253
L 795 253
L 795 253
L 795 252
L 795 252
L 795 252
L 795 252
L 795 252
L 795 252
L 795 252
L 795 252
L 795 252
L 795 252
L 795 252
L 795 252
L 795 252
L 795 252
L 795 252
L 795 252
L 795 252
L 795 252
L 795 252
L 795 252
L 795 252
L 795 252
L 795 251
L 795 251
L 795 251
L 795 251
L 795 251
L 795 251
L 795 251
L 795 251
L 795 251
L 795 251
L 795 251
L 795 251
L 795 251
L 796 251
L 796 251
L 796 251
L 796 251
L 796 251
L 796 251
L 796 251
L 796 251
L 796 251
L 796 250
L 796 250
L 796 250
L 796 250
L 796 250
L 796 250
L 796 250
L 796 250
L 796 250
L 796 250
L 796 250
L 796 250
L 796 250
L 796 250
L 796 250
L 796 250
L 796 250
L 796 250
L 796 250
L 796 250
L 796 250
L 796 250
L 796 249
L 796 249
L 796 249
L 796 249
L 796 249
L 796 249
L 796 249
L 796 249
L 796 249
L 796 249
L 796 249
L 796 249
L 796 249
L 796 249
L 796 249
L 796 249
L 796 249
L 796 249
L 796 249
L 796 249
L 796 249
L 796 249
L 796 248
L 796 248
L 796 248
L 796 248
L 796 248
L 796 248
L 796 248
L 796 248
L 796 248
L 796 248
L 796 248
L 796 248
L 796 248
L 796 248
L 796 248
L 796 248
L 796 248
L 796 248
L 796 248
L 796 248
L 796 248
L 796 247
L 796 247
L 796 247
L 796 247
L 796 247
L 796 247
L 796 247
L 796 247
L 796 247
L 796 247
L 796 247
L 796 247
L 796 247
L 796 247
L 796 247
L 796 247
L 796 247
L 797 247
L 797 247
L 797 247
L 797 247
L 797 247
L 797 246
L 797 246
L 797 246
L 797 246
L 797 246
L 797 246
L 797 246
L 797 246
L 797 246
L 797 246
L 797 246
L 797 246
L 797 246
L 797 246
L 797 246
L 797 246
L 797 246
L 797 246
L 797 246
L 797 246
L 797 246
L 797 246
L 797 245
L 797 245
L 797 245
L 797 245
L 797 245
L 797 245
L 797 245
L 797 245
L 797 245
L 797 245
L 797 245
L 797 245
L 797 245
L 797 245
L 797 245
L 798 245
L 798 245
L 798 245
L 798 245
L 798 245
L 798 245
L 798 245
L 798 244
L 798 244
L 798 244
L 798 244
L 798 244
L 798 244
L 798 244
L 798 244
L 798 244
L 798 244
L 798 244
L 798 244
L 798 244
L 798 244
L 798 244
L 799 244
L 799 244
L 799 244
L 799 244
L 799 244
L 799 244
L 799 243
L 799 243
L 799 243
L 799 243
L 799 243
L 799 243
L 799 243
L 799 243
L 799 243
L 799 243
L 799 243
L 799 243
L 799 243
L 799 243
L 799 243
L 799 243
L 799 243
L 799 243
L 799 243
L 799 243
L 799 243
L 799 243
L 799 242
L 799 242
L 799 242
L 800 242
L 800 242
L 800 242
L 800 242
L 800 242
L 800 242
L 800 242
L 800 242
L 800 242
L 800 242
L 800 242
L 800 242
L 800 242
L 800 242
L 800 242
L 800 242
L 800 242
L 800 242
L 800 242
L 800 241
L 800 241
L 800 241
L 800 241
L 800 241
L 800 241
L 800 241
L 800 241
L 800 241
L 800 241
L 800 241
L 800 241
L 800 241
L 801 241
L 801 241
L 801 241
L 801 241
L 801 241
L 801 241
L 801 241
L 801 241
L 801 241
L 801 240
L 801 240
L 801 240
L 801 240
L 801 240
L 801 240
L 801 240
L 801 240
L 801 240
L 801 240
L 801 240
L 801 240
L 801 240
L 801 240
L 801 240
L 801 240
L 802 240
L 802 240
L 802 240
L 802 240
L 802 240
L 802 239
L 802 239
L 802 239
L 802 239
L 802 239
L 803 239
L 803 239
L 803 239
L 803 239
L 803 239
L 803 239
L 803 239
L 803 239
L 803 239
L 803 239
L 803 239
L 803 239
L 804 239
L 804 239
L 804 239
L 804 239
L 804 239
L 804 238
L 804 238
L 804 238
L 804 238
L 804 238
L 804 238
L 805 238
L 805 238
L 805 238
L 805 238
L 805 238
L 805 238
L 805 238
L 805 238
L 805 238
L 806 238
L 806 238
L 806 238
L 806 238
L 806 238
L 806 238
L 806 238
L 806 237
L 806 237
L 806 237
L 806 237
L 806 237
L 807 237
L 807 237
L 807 237
L 807 237
L 807 237
L 807 237
L 807 237
L 807 237
L 807 237
L 807 237
L 807 237
L 807 237
L 807 237
L 807 237
L 807 237
L 807 237
L 807 237
L 807 236
L 807 236
L 808 236
L 808 236
L 808 236
L 808 236
L 808 236
L 808 236
L 808 236
L 808 236
L 808 236
L 808 236
L 808 236
L 809 236
L 809 236
L 809 236
L 809 236
L 809 236
L 809 236
L 809 236
L 809 236
L 809 235
L 809 235
L 809 235
L 809 235
L 809 235
L 809 235
L 810 235
L 810 235
L 810 235
L 810 235
L 810 235
L 810 235
L 810 235
L 810 235
L 810 235
L 810 235
L 810 235
L 810 235
L 810 235
L 810 235
L 810 235
L 810 235
L 811 234
L 811 234
L 811 234
L 811 234
L 811 234
L 811 234
L 811 234
L 811 234
L 811 234
L 811 234
L 811 234
L 811 234
L 811 234
L 811 234
L 811 234
L 811 234
L 811 234
L 812 234
L 812 234
L 812 234
L 812 234
L 812 234
L 812 233
L 812 233
L 812 233
L 812 233
L 812 233
L 812 233
L 812 233
L 812 233
L 812 233
L 812 233
L 812 233
L 812 233
L 812 233
L 812 233
L 813 233
L 813 233
L 813 233
L 813 233
L 813 233
L 813 233
L 813 233
L 813 233
L 813 232
L 814 232
L 814 232
L 814 232
L 814 232
L 814 232
L 814 232
L 814 232
L 814 232
L 814 232
L 815 232
L 815 232
L 815 232
L 815 232
L 815 232
L 815 232
L 815 232
L 815 232
L 815 232
L 815 232
L 815 232
L 815 232
L 815 231
L 815 231
L 815 231
L 815 231
L 815 231
L 815 231
L 815 231
L 815 231
L 815 231
L 815 231
L 815 231
L 815 231
L 815 231
L 815 231
L 815 231
L 815 231
L 815 231
L 815 231
L 815 231
L 815 231
L 815 231
L 815 230
L 816 230
L 816 230
L 816 230
L 816 230
L 816 230
L 816 230
L 816 230
L 816 230
L 816 230
L 816 230
L 816 230
L 816 230
L 816 230
L 816 230
L 816 230
L 816 230
L 816 230
L 816 230
L 816 230
L 816 230
L 816 230
L 816 229
L 816 229
L 816 229
L 816 229
L 816 229
L 817 229
L 817 229
L 817 229
L 817 229
L 817 229
L 817 229
L 817 229
L 817 229
L 817 229
L 817 229
L 817 229
L 817 229
L 817 229
L 817 229
L 817 229
L 817 229
L 817 229
L 817 228
L 817 228
L 817 228
L 817 228
L 817 228
L 817 228
L 817 228
L 817 228
L 817 228
L 817 228
L 817 228
L 817 228
L 817 228
L 817 228
L 817 228
L 817 228
L 817 228
L 817 228
L 817 228
L 817 228
L 817 228
L 817 228
L 817 227
L 817 227
L 817 227
L 817 227
L 817 227
L 817 227
L 817 227
L 817 227
L 817 227
L 817 227
L 817 227
L 817 227
L 817 227
L 817 227
L 817 227
L 817 227
L 817 227
L 817 227
L 817 227
L 817 227
L 817 227
L 817 226
L 817 226
L 817 226
L 817 226
L 817 226
L 817 226
L 818 226
L 818 226
L 818 226
L 818 226
L 818 226
L 818 226
L 818 226
L 818 226
L 818 226
L 818 226
L 818 226
L 818 226
L 818 226
L 818 226
L 818 226
L 818 226
L 818 225
L 818 225
L 818 225
L 818 225
L 818 225
L 818 225
L 818 225
L 818 225
L 818 225
L 818 225
L 818 225
L 818 225
L 818 225
L 818 225
L 818 225
L 818 225
L 818 225
L 818 225
L 818 225
L 818 225
L 818 225
L 818 225
L 818 224
L 818 224
L 818 224
L 818 224
L 818 224
L 818 224
L 818 224
L 818 224
L 818 224
L 818 224
L 818 224
L 818 224
L 818 224
L 818 224
L 818 224
L 818 224
L 818 224
L 818 224
L 818 224
L 818 224
L 818 224
L 818 224
L 818 223
L 818 223
L 818 223
L 818 223
L 818 223
L 818 223
L 818 223
L 818 223
L 818 223
L 818 223
L 818 223
L 818 223
L 818 223
L 818 223
L 818 223
L 818 223
L 818 223
L 819 223
L 819 223
L 819 223
L 819 223
L 819 222
L 819 222
L 819 222
L 819 222
L 819 222
L 819 222
L 819 222
L 819 222
L 819 222
L 819 222
L 819 222
L 819 222
L 819 222
L 819 222
L 819 222
L 819 222
L 819 222
L 819 222
L 819 222
L 819 222
L 819 222
L 819 222
L 819 221
L 819 221
L 819 221
L 819 221
L 819 221
L 819 221
L 819 221
L 819 221
L 819 221
L 819 221
L 819 221
L 819 221
L 819 221
L 819 221
L 819 221
L 819 221
L 819 221
L 819 221
L 819 221
L 819 221
L 819 221
L 819 221
L 819 220
L 819 220
L 819 220
L 819 220
L 819 220
L 819 220
L 819 220
L 819 220
L 819 220
L 819 220
L 819 220
L 819 220
L 819 220
L 819 220
L 819 220
L 819 220
L 819 220
L 819 220
L 819 220
L 819 220
L 819 220
L 819 220
L 819 219
L 819 219
L 819 219
L 819 219
L 819 219
L 819 219
L 819 219
L 819 219
L 819 219
L 819 219
L 819 219
L 819 219
L 819 219
L 819 219
L 819 219
L 819 219
L 819 219
L 819 219
L 819 219
L 819 219
L 819 219
L 819 218
L 819 218
L 819 218
L 819 218
L 819 218
L 819 218
L 819 218
L 819 218
L 819 218
L 819 218
L 819 218
L 819 218
L 819 218
L 819 218
L 819 218
L 819 218
L 819 218
L 819 218
L 819 218
L 819 218
L 819 218
L 819 218
L 819 217
L 819 217
L 819 217
L 819 217
L 819 217
L 819 217
L 819 217
L 819 217
L 819 217
L 819 217
L 819 217
L 819 217
L 819 217
L 819 217
L 819 217
L 819 217
L 819 217
L 819 217
L 819 217
L 819 217
L 819 217
L 819 217
L 819 216
L 819 216
L 819 216
L 819 216
L 819 216
L 819 216
L 819 216
L 819 216
L 819 216
L 819 216
L 819 216
L 819 216
L 819 216
L 819 216
L 819 216
L 819 216
L 819 216
L 819 216
L 819 216
L 819 216
L 819 216
L 819 216
L 819 215
L 819 215
L 819 215
L 819 215
L 819 215
L 819 215
L 819 215
L 819 215
L 819 215
L 819 215
L 819 215
L 819 215
L 819 215
L 819 215
L 819 215
L 819 215
L 819 215
L 819 215
L 819 215
L 819 215
L 819 215
L 819 215
L 819 214
L 819 214
L 819 214
L 819 214
L 819 214
L 819 214
L 819 214
L 819 214
L 819 214
L 819 214
L 819 214
L 819 214
L 819 214
L 819 214
L 819 214
L 819 214
L 819 214
L 819 214
L 819 214
L 819 214
L 819 214
L 819 213
L 819 213
L 819 213
L 819 213
L 819 213
L 819 213
L 819 213
L 819 213
L 819 213
L 819 213
L 819 213
L 819 213
L 819 213
L 819 213
L 819 213
L 819 213
L 819 213
L 819 213
L 819 213
L 819 213
L 819 213
L 819 213
L 819 212
L 819 212
L 819 212
L 819 212
L 819 212
L 819 212
L 819 212
L 819 212
L 819 212
L 819 212
L 819 212
L 819 212
L 819 212
L 819 212
L 819 212
L 819 212
L 819 212
L 819 212
L 819 212
L 819 212
L 819 212
L 819 212
L 819 211
L 819 211
L 819 211
L 819 211
L 819 211
L 819 211
L 819 211
L 819 211
L 819 211
L 819 211
L 819 211
L 819 211
L 819 211
L 819 211
L 819 211
L 819 211
L 819 211
L 819 211
L 819 211
L 819 211
L 819 211
L 819 211
L 819 210
L 819 210
L 819 210
L 819 210
L 819 210
L 819 210
L 819 210
L 819 210
L 819 210
L 819 210
L 819 210
L 819 210
L 819 210
L 819 210
L 819 210
L 819 210
L 819 210
L 819 210
L 819 210
L 819 210
L 819 210
L 819 209
L 819 209
L 819 209
L 819 209
L 819 209
L 819 209
L 819 209
L 819 209
L 819 209
L 819 209
L 819 209
L 819 209
L 819 209
L 819 209
L 819 209
L 819 209
L 819 209
L 819 209
L 819 209
L 819 209
L 819 209
L 819 209
L 819 208
L 819 208
L 819 208
L 819 208
L 819 208
L 819 208
L 819 208
L 819 208
L 819 208
L 819 208
L 819 208
L 819 208
L 819 208
L 819 208
L 819 208
L 819 208
L 819 208
L 820 208
L 820 208
L 820 208
L 820 208
L 820 208
L 820 207
L 820 207
L 820 207
L 820 207
L 820 207
L 820 207
L 820 207
L 820 207
L 820 207
L 820 207
L 820 207
L 820 207
L 820 207
L 820 207
L 820 207
L 820 207
L 820 207
L 820 207
L 820 207
L 820 207
L 820 207
L 820 207
L 820 206
L 820 206
L 820 206
L 820 206
L 820 206
L 820 206
L 820 206
L 820 206
L 820 206
L 820 206
L 820 206
L 820 206
L 820 206
L 820 206
L 820 206
L 820 206
L 820 206
L 820 206
L 820 206
L 820 206
L 820 206
L 820 205
L 820 205
L 820 205
L 820 205
L 820 205
L 820 205
L 820 205
L 820 205
L 820 205
L 820 205
L 820 205
L 820 205
L 820 205
L 820 205
L 820 205
L 820 205
L 820 205
L 820 205
L 820 205
L 820 205
L 820 205
L 820 205
L 820 204
L 820 204
L 820 204
L 820 204
L 820 204
L 820 204
L 820 204
L 820 204
L 820 204
L 820 204
L 820 204
L 820 204
L 820 204
L 820 204
L 820 204
L 820 204
L 820 204
L 820 204
L 820 204
L 820 204
L 820 204
L 820 204
L 820 203
L 820 203
L 820 203
L 820 203
L 820 203
L 820 203
L 820 203
L 820 203
L 820 203
L 820 203
L 820 203
L 820 203
L 820 203
L 820 203
L 820 203
L 820 203
L 820 203
L 820 203
L 820 203
L 820 203
L 820 203
L 820 203
L 820 202
L 820 202
L 820 202
L 820 202
L 820 202
L 820 202
L 820 202
L 820 202
L 820 202
L 820 202
L 820 202
L 820 202
L 820 202
L 820 202
L 820 202
L 820 202
L 820 202
L 820 202
L 820 202
L 820 202
L 820 202
L 820 201
L 820 201
L 820 201
L 820 201
L 820 201
L 820 201
L 820 201
L 820 201
L 820 201
L 820 201
L 820 201
L 820 201
L 820 201
L 820 201
L 820 201
L 820 201
L 820 201
L 820 201
L 820 201
L 820 201
L 820 201
L 820 201
L 820 200
L 820 200
L 820 200
L 820 200
L 820 200
L 820 200
L 820 200
L 820 200
L 820 200
L 820 200
L 820 200
L 820 200
L 820 200
L 820 200
L 820 200
L 820 200
L 820 200
L 820 200
L 820 200
L 820 200
L 820 200
L 820 200
L 820 199
L 820 199
L 820 199
L 820 199
L 820 199
L 820 199
L 820 199
L 820 199
L 820 199
L 820 199
L 820 199
L 820 199
L 820 199
L 820 199
L 820 199
L 820 199
L 820 199
L 820 199
L 820 199
L 820 199
L 820 199
L 820 199
L 820 198
L 820 198
L 820 198
L 820 198
L 820 198
L 820 198
L 820 198
L 820 198
L 820 198
L 820 198
L 820 198
L 820 198
L 820 198
L 820 198
L 820 198
L 820 198
L 820 198
L 820 198
L 820 198
L 820 198
L 820 198
L 820 198
L 820 197
L 820 197
L 820 197
L 820 197
L 820 197
L 820 197
L 820 197
L 820 197
L 820 197
L 820 197
L 820 197
L 820 197
L 820 197
L 820 197
L 820 197
L 820 197
L 820 197
L 820 197
L 820 197
L 820 197
L 820 197
L 820 196
L 820 196
L 820 196
L 820 196
L 820 196
L 820 196
L 820 196
L 820 196
L 820 196
L 820 196
L 820 196
L 820 196
L 820 196
L 820 196
L 820 196
L 820 196
L 820 196
L 820 196
L 820 196
L 820 196
L 820 196
L 820 196
L 820 195
L 820 195
L 820 195
L 820 195
L 820 195
L 820 195
L 820 195
L 820 195
L 820 195
L 820 195
L 820 195
L 820 195
L 820 195
L 820 195
L 820 195
L 820 195
L 820 195
L 820 195
L 820 195
L 820 195
L 820 195
L 820 195
L 820 194
L 820 194
L 820 194
L 820 194
L 820 194
L 820 194
L 820 194
L 820 194
L 820 194
L 820 194
L 820 194
L 820 194
L 820 194
L 820 194
L 820 194
L 820 194
L 820 194
L 820 194
L 820 194
L 820 194
L 820 194
L 820 194
L 820 193
L 820 193
L 820 193
L 820 193
L 820 193
L 820 193
L 820 193
L 820 193
L 820 193
L 820 193
L 820 193
L 820 193
L 820 193
L 820 193
L 820 193
L 820 193
L 820 193
L 820 193
L 820 193
L 820 193
L 820 193
L 820 192
L 820 192
L 820 192
L 821 192
L 821 192
L 821 192
L 821 192
L 821 192
L 821 192
L 821 192
L 821 192
L 821 192
L 821 192
L 821 192
L 821 192
L 821 192
L 821 192
L 821 192
L 821 192
L 821 192
L 821 192
L 821 192
L 821 191
L 821 191
L 821 191
L 821 191
L 821 191
L 821 191
L 821 191
L 821 191
L 821 191
L 821 191
L 821 191
L 821 191
L 821 191
L 821 191
L 821 191
L 821 191
L 821 191
L 821 191
L 821 191
L 821 191
L 821 191
L 821 191
L 821 190
L 821 190
L 821 190
L 821 190
L 821 190
L 821 190
L 821 190
L 821 190
L 821 190
L 821 190
L 821 190
L 821 190
L 821 190
L 821 190
L 821 190
L 821 190
L 821 190
L 821 190
L 821 190
L 821 190
L 821 190
L 821 190
L 821 189
L 821 189
L 821 189
L 821 189
L 821 189
L 821 189
L 821 189
L 821 189
L 821 189
L 821 189
L 821 189
L 821 189
L 821 189
L 821 189
L 821 189
L 821 189
L 821 189
L 821 189
L 821 189
L 821 189
L 821 189
L 821 188
L 821 188
L 821 188
L 821 188
L 821 188
L 821 188
L 821 188
L 821 188
L 821 188
L 821 188
L 821 188
L 821 188
L 821 188
L 821 188
L 821 188
L 821 188
L 821 188
L 821 188
L 821 188
L 821 188
L 821 188
L 821 188
L 821 187
L 821 187
L 821 187
L 821 187
L 821 187
L 821 187
L 821 187
L 821 187
L 821 187
L 821 187
L 821 187
L 821 187
L 821 187
L 821 187
L 821 187
L 821 187
L 821 187
L 821 187
L 821 187
L 821 187
L 821 187
L 821 187
L 821 186
L 821 186
L 821 186
L 821 186
L 821 186
L 821 186
L 821 186
L 821 186
L 821 186
L 821 186
L 821 186
L 821 186
L 821 186
L 821 186
L 821 186
L 821 186
L 821 186
L 821 186
L 821 186
L 821 186
L 821 186
L 821 186
L 821 185
L 821 185
L 821 185
L 821 185
L 821 185
L 821 185
L 821 185
L 821 185
L 821 185
L 821 185
L 822 185
L 822 185
L 822 185
L 822 185
L 822 185
L 822 185
L 822 185
L 822 185
L 822 185
L 822 185
L 822 185
L 822 184
L 822 184
L 822 184
L 822 184
L 822 184
L 822 184
L 822 184
L 822 184
L 822 184
L 822 184
L 822 184
L 822 184
L 822 184
L 822 184
L 822 184
L 822 184
L 822 184
L 822 184
L 822 184
L 822 184
L 822 184
L 822 184
L 822 183
L 822 183
L 822 183
L 822 183
L 822 183
L 822 183
L 822 183
L 822 183
L 822 183
L 822 183
L 822 183
L 822 183
L 822 183
L 822 183
L 822 183
L 822 183
L 822 183
L 822 183
L 822 183
L 822 183
L 822 183
L 822 183
L 822 182
L 822 182
L 822 182
L 822 182
L 822 182
L 822 182
L 822 182
L 822 182
L 822 182
L 822 182
L 822 182
L 822 182
L 822 182
L 822 182
L 822 182
L 822 182
L 822 182
L 822 182
L 822 182
L 822 182
L 822 182
L 822 182
L 822 181
L 822 181
L 822 181
L 823 181
L 823 181
L 823 181
L 823 181
L 823 181
L 823 181
L 823 181
L 823 181
L 823 181
L 823 181
L 823 181
L 823 181
L 823 181
L 824 181
L 824 181
L 824 181
L 824 181
L 824 181
L 824 181
L 824 180
L 824 180
L 824 180
L 824 180
L 824 180
L 824 180
L 824 180
L 824 180
L 824 180
L 824 180
L 824 180
L 824 180
L 824 180
L 824 180
L 825 180
L 825 180
L 825 180
L 825 180
L 825 180
L 825 180
L 825 180
L 825 179
L 825 179
L 825 179
L 825 179
L 825 179
L 825 179
L 825 179
L 825 179
L 825 179
L 825 179
L 825 179
L 825 179
L 825 179
L 825 179
L 825 179
L 825 179
L 825 179
L 825 179
L 825 179
L 825 179
L 825 179
L 825 179
L 825 178
L 825 178
L 825 178
L 825 178
L 825 178
L 826 178
L 826 178
L 826 178
L 826 178
L 826 178
L 826 178
L 826 178
L 826 178
L 826 178
L 826 178
L 826 178
L 826 178
L 826 178
L 826 178
L 826 178
L 826 178
L 826 178
L 826 177
L 826 177
L 826 177
L 826 177
L 826 177
L 826 177
L 826 177
L 826 177
L 827 177
L 827 177
L 827 177
L 827 177
L 827 177
L 827 177
L 827 177
L 827 177
L 827 177
L 827 177
L 827 177
L 827 177
L 827 177
L 827 177
L 827 176
L 827 176
L 827 176
L 827 176
L 827 176
L 827 176
L 828 176
L 828 176
L 828 176
L 828 176
L 828 176
L 828 176
L 828 176
L 828 176
L 828 176
L 828 176
L 828 176
L 828 176
L 828 176
L 828 176
L 828 176
L 828 175
L 828 175
L 828 175
L 828 175
L 828 175
L 828 175
L 828 175
L 828 175
L 828 175
L 828 175
L 828 175
L 828 175
L 828 175
L 828 175
L 829 175
L 829 175
L 829 175
L 829 175
L 829 175
L 829 175
L 829 175
L 829 175
L 829 174
L 829 174
L 829 174
L 829 174
L 829 174
L 829 174
L 829 174
L 829 174
L 829 174
L 829 174
L 829 174
L 829 174
L 829 174
L 829 174
L 829 174
L 829 174
L 829 174
L 830 174
L 830 174
L 830 174
L 830 174
L 830 174
L 830 173
L 830 173
L 830 173
L 830 173
L 830 173
L 830 173
L 830 173
L 830 173
L 830 173
L 830 173
L 831 173
L 831 173
L 831 173
L 831 173
L 831 173
L 831 173
L 831 173
L 831 173
L 831 173
L 831 173
L 831 173
L 831 173
L 831 172
L 831 172
L 831 172
L 831 172
L 831 172
L 831 172
L 831 172
L 832 172
L 832 172
L 832 172
L 832 172
L 832 172
L 832 172
L 832 172
L 832 172
L 832 172
L 832 172
L 832 172
L 832 172
L 832 172
L 832 172
L 832 171
L 832 171
L 832 171
L 832 171
L 833 171
L 833 171
L 833 171
L 833 171
L 833 171
L 833 171
L 833 171
L 833 171
L 833 171
L 834 171
L 834 171
L 834 171
L 834 171
L 834 171
L 834 171
L 834 171
L 834 171
L 834 171
L 834 170
L 834 170
L 834 170
L 834 170
L 834 170
L 834 170
L 834 170
L 834 170
L 834 170
L 834 170
L 834 170
L 835 170
L 835 170
L 835 170
L 835 170
L 835 170
L 835 170
L 835 170
L 835 170
L 835 170
L 835 170
L 835 170
L 835 169
L 835 169
L 835 169
L 835 169
L 835 169
L 835 169
L 835 169
L 835 169
L 835 169
L 836 169
L 836 169
L 836 169
L 836 169
L 836 169
L 836 169
L 836 169
L 836 169
L 836 169
L 836 169
L 836 169
L 836 169
L 836 169
L 836 168
L 836 168
L 836 168
L 836 168
L 836 168
L 836 168
L 836 168
L 836 168
L 837 168
L 837 168
L 837 168
L 837 168
L 837 168
L 837 168
L 837 168
L 837 168
L 837 168
L 837 168
L 837 168
L 837 168
L 837 168
L 837 167
L 837 167
L 838 167
L 838 167
L 838 167
L 838 167
L 838 167
L 838 167
L 838 167
L 839 167
L 839 167
L 839 167
L 839 167
L 839 167
L 839 167
L 839 167
L 839 167
L 839 167
L 840 167
L 840 167
L 840 167
L 840 167
L 840 166
L 840 166
L 840 166
L 840 166
L 840 166
L 840 166
L 840 166
L 840 166
L 840 166
L 840 166
L 840 166
L 840 166
L 840 166
L 840 166
L 840 166
L 840 166
L 840 166
L 840 166
L 840 166
L 840 166
L 840 166
L 840 166
L 840 165
L 840 165
L 840 165
L 840 165
L 840 165
L 840 165
L 840 165
L 840 165
L 840 165
L 840 165
L 840 165
L 840 165
L 840 165
L 840 165
L 841 165
L 841 165
L 841 165
L 841 165
L 841 165
L 841 165
L 841 165
L 841 165
L 841 164
L 841 164
L 841 164
L 841 164
L 841 164
L 841 164
L 841 164
L 841 164
L 841 164
L 841 164
L 841 164
L 841 164
L 841 164
L 841 164
L 841 164
L 841 164
L 841 164
L 841 164
L 841 164
L 841 164
L 841 164
L 841 163
L 841 163
L 841 163
L 841 163
L 841 163
L 841 163
L 841 163
L 841 163
L 841 163
L 841 163
L 841 163
L 841 163
L 841 163
L 841 163
L 841 163
L 841 163
L 841 163
L 841 163
L 841 163
L 841 163
L 841 163
L 841 163
L 841 162
L 841 162
L 841 162
L 841 162
L 841 162
L 841 162
L 841 162
L 841 162
L 841 162
L 841 162
L 841 162
L 841 162
L 841 162
L 841 162
L 841 162
L 841 162
L 841 162
L 841 162
L 841 162
L 841 162
L 841 162
L 841 162
L 841 161
L 841 161
L 841 161
L 841 161
L 841 161
L 841 161
L 841 161
L 841 161
L 841 161
L 841 161
L 841 161
L 841 161
L 841 161
L 841 161
L 841 161
L 841 161
L 841 161
L 841 161
L 841 161
L 841 161
L 841 161
L 841 161
L 841 160
L 841 160
L 841 160
L 841 160
L 841 160
L 841 160
L 841 160
L 841 160
L 841 160
L 841 160
L 841 160
L 841 160
L 841 160
L 841 160
L 841 160
L 841 160
L 841 160
L 841 160
L 841 160
L 841 160
L 841 160
L 841 160
L 841 159
L 841 159
L 841 159
L 841 159
L 841 159
L 841 159
L 841 159
L 841 159
L 841 159
L 841 159
L 841 159
L 841 159
L 841 159
L 841 159
L 841 159
L 841 159
L 841 159
L 841 159
L 841 159
L 841 159
L 841 159
L 841 158
L 841 158
L 841 158
L 841 158
L 841 158
L 841 158
L 841 158
L 841 158
L 841 158
L 841 158
L 841 158
L 841 158
L 841 158
L 841 158
L 841 158
L 841 158
L 841 158
L 841 158
L 842 158
L 842 158
L 842 158
L 842 158
L 842 157
L 842 157
L 842 157
L 842 157
L 842 157
L 842 157
L 842 157
L 842 157
L 842 157
L 842 157
L 842 157
L 842 157
L 842 157
L 842 157
L 842 157
L 842 157
L 842 157
L 842 157
L 842 157
L 842 157
L 842 157
L 842 157
L 842 156
L 842 156
L 842 156
L 842 156
L 842 156
L 842 156
L 842 156
L 842 156
L 842 156
L 842 156
L 842 156
L 842 156
L 842 156
L 842 156
L 842 156
L 842 156
L 842 156
L 842 156
L 842 156
L 842 156
L 842 156
L 842 156
L 842 155
L 842 155
L 842 155
L 842 155
L 842 155
L 842 155
L 842 155
L 842 155
L 842 155
L 842 155
L 842 155
L 842 155
L 842 155
L 842 155
L 842 155
L 842 155
L 842 155
L 842 155
L 842 155
L 842 155
L 842 155
L 842 154
L 842 154
L 842 154
L 842 154
L 842 154
L 842 154
L 842 154
L 842 154
L 842 154
L 842 154
L 842 154
L 842 154
L 842 154
L 842 154
L 842 154
L 842 154
L 842 154
L 842 154
L 842 154
L 842 154
L 842 154
L 842 154
L 842 153
L 842 153
L 842 153
L 842 153
L 842 153
L 842 153
L 842 153
L 842 153
L 842 153
L 842 153
L 842 153
L 842 153
L 842 153
L 842 153
L 842 153
L 842 153
L 842 153
L 842 153
L 842 153
L 842 153
L 842 153
L 842 153
L 842 152
L 842 152
L 842 152
L 842 152
L 842 152
L 842 152
L 842 152
L 842 152
L 842 152
L 842 152
L 842 152
L 842 152
L 842 152
L 842 152
L 842 152
L 842 152
L 842 152
L 842 152
L 842 152
L 842 152
L 842 152
L 842 152
L 842 151
L 842 151
L 842 151
L 842 151
L 842 151
L 842 151
L 842 151
L 842 151
L 842 151
L 842 151
L 842 151
L 842 151
L 842 151
L 842 151
L 842 151
L 842 151
L 842 151
L 842 151
L 842 151
L 842 151
L 842 151
L 842 150
L 842 150
L 842 150
L 842 150
L 842 150
L 842 150
L 842 150
L 842 150
L 842 150
L 842 150
L 842 150
L 842 150
L 842 150
L 842 150
L 842 150
L 842 150
L 842 150
L 842 150
L 842 150
L 842 150
L 842 150
L 842 150
L 842 149
L 842 149
L 842 149
L 842 149
L 842 149
L 842 149
L 842 149
L 842 149
L 842 149
L 842 149
L 842 149
L 842 149
L 842 149
L 842 149
L 842 149
L 842 149
L 842 149
L 842 149
L 842 149
L 842 149
L 842 149
L 842 149
L 842 148
L 842 148
L 842 148
L 842 148
L 842 148
L 842 148
L 842 148
L 842 148
L 842 148
L 842 148
L 842 148
L 842 148
L 842 148
L 842 148
L 842 148
L 842 148
L 842 148
L 842 148
L 842 148
L 842 148
L 842 148
L 842 148
L 842 147
L 842 147
L 842 147
L 842 147
L 842 147
L 842 147
L 842 147
L 842 147
L 842 147
L 842 147
L 842 147
L 842 147
L 842 147
L 842 147
L 842 147
L 842 147
L 842 147
L 842 147
L 842 147
L 842 147
L 842 147
L 842 147
L 842 146
L 842 146
L 842 146
L 842 146
L 842 146
L 842 146
L 842 146
L 842 146
L 842 146
L 842 146
L 842 146
L 842 146
L 842 146
L 842 146
L 842 146
L 842 146
L 842 146
L 842 146
L 842 146
L 842 146
L 842 146
L 842 145
L 842 145
L 842 145
L 842 145
L 842 145
L 842 145
L 842 145
L 842 145
L 842 145
L 842 145
L 842 145
L 842 145
L 842 145
L 842 145
L 842 145
L 842 145
L 842 145
L 842 145
L 842 145
L 842 145
L 842 145
L 842 145
L 842 144
L 842 144
L 842 144
L 842 144
L 842 144
L 842 144
L 842 144
L 842 144
L 842 144
L 842 144
L 842 144
L 842 144
L 842 144
L 842 144
L 842 144
L 842 144
L 842 144
L 842 144
L 842 144
L 842 144
L 842 144
L 842 144
L 842 143
L 842 143
L 842 143
L 842 143
L 842 143
L 842 143
L 842 143
L 842 143
L 842 143
L 842 143
L 842 143
L 842 143
L 842 143
L 842 143
L 842 143
L 842 143
L 842 143
L 842 143
L 842 143
L 842 143
L 842 143
L 842 143
L 842 142
L 842 142
L 842 142
L 842 142
L 842 142
L 842 142
L 842 142
L 842 142
L 842 142
L 842 142
L 842 142
L 842 142
L 842 142
L 842 142
L 842 142
L 842 142
L 842 142
L 842 142
L 842 142
L 842 142
L 842 142
L 842 141
L 842 141
L 842 141
L 842 141
L 842 141
L 842 141
L 842 141
L 842 141
L 842 141
L 842 141
L 842 141
L 842 141
L 842 141
L 843 141
L 843 141
L 843 141
L 843 141
L 843 141
L 843 141
L 843 141
L 843 141
L 843 141
L 843 140
L 843 140
L 843 140
L 843 140
L 843 140
L 843 140
L 843 140
L 843 140
L 843 140
L 843 140
L 843 140
L 843 140
L 843 140
L 843 140
L 843 140
L 843 140
L 843 140
L 843 140
L 843 140
L 843 140
L 843 140
L 843 140
L 843 139
L 843 139
L 843 139
L 843 139
L 843 139
L 843 139
L 843 139
L 843 139
L 843 139
L 843 139
L 843 139
L 843 139
L 843 139
L 843 139
L 843 139
L 843 139
L 843 139
L 843 139
L 843 139
L 843 139
L 843 139
L 843 139
L 843 138
L 843 138
L 843 138
L 843 138
L 843 138
L 843 138
L 843 138
L 843 138
L 843 138
L 843 138
L 843 138
L 843 138
L 843 138
L 843 138
L 843 138
L 843 138
L 843 138
L 843 138
L 843 138
L 843 138
L 843 138
L 843 137
L 843 137
L 843 137
L 843 137
L 843 137
L 843 137
L 843 137
L 843 137
L 843 137
L 843 137
L 843 137
L 843 137
L 843 137
L 843 137
L 843 137
L 843 137
L 843 137
L 843 137
L 843 137
L 843 137
L 843 137
L 843 137
L 843 136
L 843 136
L 843 136
L 843 136
L 843 136
L 843 136
L 843 136
L 843 136
L 843 136
L 843 136
L 843 136
L 843 136
L 843 136
L 843 136
L 843 136
L 843 136
L 843 136
L 843 136
L 843 136
L 843 136
L 843 136
L 843 136
L 843 135
L 843 135
L 843 135
L 843 135
L 843 135
L 843 135
L 843 135
L 843 135
L 843 135
L 843 135
L 843 135
L 843 135
L 843 135
L 843 135
L 843 135
L 843 135
L 843 135
L 843 135
L 843 135
L 843 135
L 843 135
L 843 135
L 843 134
L 843 134
L 843 134
L 843 134
L 843 134
L 843 134
L 843 134
L 843 134
L 843 134
L 843 134
L 843 134
L 843 134
L 843 134
L 843 134
L 843 134
L 843 134
L 843 134
L 843 134
L 843 134
L 843 134
L 843 134
L 843 133
L 843 133
L 843 133
L 843 133
L 843 133
L 843 133
L 843 133
L 843 133
L 843 133
L 843 133
L 843 133
L 843 133
L 843 133
L 843 133
L 843 133
L 843 133
L 843 133
L 843 133
L 843 133
L 843 133
L 843 133
L 843 133
L 843 132
L 843 132
L 843 132
L 843 132
L 843 132
L 843 132
L 843 132
L 843 132
L 843 132
L 843 132
L 843 132
L 843 132
L 843 132
L 843 132
L 843 132
L 843 132
L 843 132
L 843 132
L 843 132
L 843 132
L 843 132
L 843 132
L 843 131
L 843 131
L 843 131
L 843 131
L 843 131
L 843 131
L 843 131
L 843 131
L 843 131
L 843 131
L 843 131
L 843 131
L 843 131
L 843 131
L 843 131
L 843 131
L 843 131
L 843 131
L 843 131
L 843 131
L 843 131
L 843 131
L 843 130
L 843 130
L 843 130
L 843 130
L 843 130
L 843 130
L 843 130
L 843 130
L 843 130
L 843 130
L 843 130
L 843 130
L 843 130
L 843 130
L 843 130
L 843 130
L 843 130
L 843 130
L 843 130
L 843 130
L 843 130
L 843 130
L 843 129
L 843 129
L 843 129
L 843 129
L 843 129
L 843 129
L 843 129
L 843 129
L 843 129
L 843 129
L 843 129
L 843 129
L 843 129
L 843 129
L 843 129
L 843 129
L 843 129
L 843 129
L 843 129
L 843 129
L 843 129
L 843 128
L 843 128
L 843 128
L 843 128
L 843 128
L 843 128
L 843 128
L 843 128
L 843 128
L 843 128
L 843 128
L 843 128
L 843 128
L 843 128
L 843 128
L 843 128
L 843 128
L 843 128
L 843 128
L 843 128
L 843 128
L 843 128
L 843 127
L 843 127
L 843 127
L 843 127
L 843 127
L 843 127
L 843 127
L 843 127
L 843 127
L 843 127
L 843 127
L 843 127
L 843 127
L 843 127
L 843 127
L 843 127
L 843 127
L 843 127
L 843 127
L 843 127
L 843 127
L 843 127
L 843 126
L 843 126
L 843 126
L 843 126
L 843 126
L 843 126
L 843 126
L 843 126
L 843 126
L 843 126
L 843 126
L 843 126
L 843 126
L 843 126
L 843 126
L 843 126
L 843 126
L 843 126
L 843 126
L 843 126
L 843 126
L 843 126
L 843 125
L 843 125
L 843 125
L 843 125
L 843 125
L 843 125
L 844 125
L 844 125
L 844 125
L 844 125
L 844 125
L 844 125
L 844 125
L 844 125
L 844 125
L 844 125
L 844 125
L 844 125
L 844 125
L 844 125
L 844 125
L 844 124
L 844 124
L 844 124
L 844 124
L 844 124
L 844 124
L 844 124
L 844 124
L 844 124
L 844 124
L 844 124
L 844 124
L 844 124
L 844 124
L 844 124
L 844 124
L 844 124
L 844 124
L 844 124
L 844 124
L 844 124
L 844 124
L 844 123
L 844 123
L 844 123
L 844 123
L 844 123
L 844 123
L 844 123
L 844 123
L 844 123
L 844 123
L 844 123
L 844 123
L 844 123
L 844 123
L 844 123
L 844 123
L 844 123
L 844 123
L 844 123
L 844 123
L 844 123
L 844 123
L 844 122
L 844 122
L 844 122
L 844 122
L 844 122
L 844 122
L 844 122
L 844 122
L 844 122
L 844 122
L 844 122
L 844 122
L 844 122
L 844 122
L 844 122
L 844 122
L 844 122
L 844 122
L 844 122
L 844 122
L 844 122
L 844 122
L 844 121
L 844 121
L 844 121
L 844 121
L 844 121
L 844 121
L 844 121
L 844 121
L 844 121
L 844 121
L 844 121
L 844 121
L 844 121
L 844 121
L 844 121
L 844 121
L 844 121
L 844 121
L 844 121
L 844 121
L 844 121
L 844 120
L 844 120
L 844 120
L 844 120
L 844 120
L 844 120
L 844 120
L 844 120
L 844 120
L 844 120
L 844 120
L 844 120
L 844 120
L 844 120
L 844 120
L 844 120
L 844 120
L 844 120
L 844 120
L 844 120
L 844 120
L 844 120
L 844 119
L 844 119
L 844 119
L 844 119
L 844 119
L 844 119
L 844 119
L 844 119
L 844 119
L 844 119
L 844 119
L 844 119
L 844 119
L 844 119
L 844 119
L 844 119
L 844 119
L 844 119
L 844 119
L 844 119
L 844 119
L 844 119
L 844 118
L 844 118
L 844 118
L 844 118
L 844 118
L 844 118
L 844 118
L 844 118
L 844 118
L 844 118
L 844 118
L 844 118
L 844 118
L 844 118
L 844 118
L 844 118
L 844 118
L 844 118
L 844 118
L 844 118
L 844 118
L 844 118
L 844 117
L 844 117
L 844 117
L 844 117
L 844 117
L 844 117
L 844 117
L 844 117
L 844 117
L 844 117
L 844 117
L 844 117
L 844 117
L 844 117
L 844 117
L 844 117
L 844 117
L 844 117
L 844 117
L 844 117
L 844 117
L 844 116
L 844 116
L 844 116
L 844 116
L 844 116
L 844 116
L 844 116
L 844 116
L 844 116
L 844 116
L 844 116
L 844 116
L 844 116
L 844 116
L 844 116
L 845 116
L 845 116
L 845 116
L 845 116
L 845 116
L 845 116
L 845 116
L 845 115
L 845 115
L 845 115
L 845 115
L 845 115
L 845 115
L 845 115
L 845 115
L 845 115
L 845 115
L 845 115
L 845 115
L 845 115
L 845 115
L 845 115
L 845 115
L 845 115
L 845 115
L 845 115
L 845 115
L 845 115
L 845 115
L 845 114
L 845 114
L 845 114
L 845 114
L 845 114
L 845 114
L 845 114
L 845 114
L 845 114
L 845 114
L 845 114
L 845 114
L 845 114
L 845 114
L 845 114
L 845 114
L 845 114
L 845 114
L 845 114
L 845 114
L 845 114
L 845 114
L 845 113
L 845 113
L 845 113
L 845 113
L 845 113
L 845 113
L 845 113
L 845 113
L 845 113
L 845 113
L 845 113
L 845 113
L 845 113
L 845 113
L 845 113
L 845 113
L 845 113
L 845 113
L 845 113
L 845 113
L 845 113
L 845 113
L 845 112
L 845 112
L 845 112
L 845 112
L 845 112
L 845 112
L 845 112
L 845 112
L 845 112
L 845 112
L 845 112
L 845 112
L 845 112
L 845 112
L 845 112
L 845 112
L 845 112
L 845 112
L 845 112
L 845 112
L 845 112
L 845 111
L 845 111
L 845 111
L 845 111
L 845 111
L 845 111
L 845 111
L 845 111
L 845 111
L 845 111
L 845 111
L 845 111
L 845 111
L 845 111
L 845 111
L 845 111
L 845 111
L 845 111
L 845 111
L 845 111
L 845 111
L 845 111
L 846 110
L 846 110
L 846 110
L 846 110
L 846 110
L 846 110
L 846 110
L 846 110
L 846 110
L 846 110
L 846 110
L 846 110
L 846 110
L 846 110
L 846 110
L 846 110
L 846 110
L 846 110
L 846 110
L 846 110
L 846 110
L 846 110
L 846 109
L 846 109
L 846 109
L 846 109
L 846 109
L 846 109
L 846 109
L 846 109
L 846 109
L 846 109
L 846 109
L 846 109
L 846 109
L 846 109
L 846 109
L 846 109
L 846 109
L 846 109
L 846 109
L 846 109
L 846 109
L 846 109
L 846 108
L 846 108
L 846 108
L 846 108
L 846 108
L 846 108
L 846 108
L 846 108
L 846 108
L 846 108
L 846 108
L 847 108
L 847 108
L 847 108
L 847 108
L 847 108
L 847 108
L 847 108
L 847 108
L 847 108
L 847 108
L 847 107
L 847 107
L 847 107
L 847 107
L 847 107
L 847 107
L 847 107
L 847 107
L 847 107
L 847 107
L 847 107
L 847 107
L 847 107
L 847 107
L 847 107
L 847 107
L 847 107
L 847 107
L 847 107
L 847 107
L 847 107
L 847 107
L 847 106
L 847 106
L 847 106
L 847 106
L 847 106
L 847 106
L 847 106
L 847 106
L 847 106
L 847 106
L 847 106
L 847 106
L 847 106
L 847 106
L 847 106
L 847 106
L 847 106
L 847 106
L 847 106
L 847 106
L 847 106
L 847 106
L 847 105
L 847 105
L 847 105
L 847 105
L 847 105
L 847 105
L 847 105
L 847 105
L 847 105
L 847 105
L 847 105
L 847 105
L 847 105
L 847 105
L 847 105
L 847 105
L 847 105
L 847 105
L 847 105
L 847 105
L 847 105
L 847 105
L 847 104
L 847 104
L 847 104
L 847 104
L 847 104
L 847 104
L 847 104
L 847 104
L 847 104
L 847 104
L 848 104
L 848 104
L 848 104
L 848 104
L 848 104
L 848 104
L 848 104
L 848 104
L 848 104
L 848 104
L 848 104
L 848 103
L 848 103
L 848 103
L 848 103
L 848 103
L 848 103
L 848 103
L 848 103
L 848 103
L 848 103
L 848 103
L 848 103
L 848 103
L 848 103
L 848 103
L 848 103
L 848 103
L 848 103
L 848 103
L 848 103
L 848 103
L 848 103
L 848 102
L 848 102
L 848 102
L 848 102
L 848 102
L 848 102
L 848 102
L 848 102
L 848 102
L 848 102
L 848 102
L 849 102
L 849 102
L 849 102
L 849 102
L 849 102
L 849 102
L 849 102
L 849 102
L 849 102
L 849 102
L 849 102
L 849 101
L 849 101
L 849 101
L 849 101
L 849 101
L 849 101
L 849 101
L 849 101
L 849 101
L 849 101
L 849 101
L 849 101
L 849 101
L 849 101
L 849 101
L 849 101
L 849 101
L 849 101
L 849 101
L 849 101
L 849 101
L 850 101
L 850 100
L 850 100
L 850 100
L 850 100
L 850 100
L 850 100
L 850 100
L 850 100
L 850 100
L 850 100
L 850 100
L 850 100
L 850 100
L 851 100
L 851 100
L 851 100
L 851 100
L 851 100
L 851 100
L 851 100
L 851 100
L 851 99
L 851 99
L 851 99
L 851 99
L 851 99
L 851 99
L 851 99
L 851 99
L 851 99
L 851 99
L 851 99
L 851 99
L 851 99
L 851 99
L 851 99
L 851 99
L 851 99
L 851 99
L 852 99
L 852 99
L 852 99
L 852 99
L 852 98
L 852 98
L 852 98
L 852 98
L 852 98
L 852 98
L 852 98
L 852 98
L 852 98
L 852 98
L 852 98
L 852 98
L 852 98
L 852 98
L 852 98
L 852 98
L 852 98
L 852 98
L 852 98
L 852 98
L 852 98
L 852 98
L 852 97
L 852 97
L 852 97
L 852 97
L 852 97
L 852 97
L 852 97
L 853 97
L 853 97
L 853 97
L 853 97
L 853 97
L 853 97
L 853 97
L 853 97
L 853 97
L 853 97
L 853 97
L 853 97
L 853 97
L 853 97
L 853 97
L 853 96
L 853 96
L 853 96
L 853 96
L 854 96
L 854 96
L 854 96
L 854 96
L 854 96
L 854 96
L 854 96
L 854 96
L 854 96
L 854 96
L 854 96
L 854 96
L 854 96
L 854 96
L 854 96
L 854 96
L 854 96
L 854 96
L 854 95
L 854 95
L 855 95
L 855 95
L 855 95
L 855 95
L 855 95
L 855 95
L 855 95
L 855 95
L 855 95
L 855 95
L 855 95
L 855 95
L 855 95
L 855 95
L 855 95
L 855 95
L 855 95
L 855 95
L 855 95
L 855 94
L 855 94
L 855 94
L 855 94
L 855 94
L 855 94
L 855 94
L 856 94
L 856 94
L 856 94
L 856 94
L 856 94
L 856 94
L 856 94
L 856 94
L 856 94
L 856 94
L 857 94
L 857 94
L 857 94
L 857 94
L 857 94
L 857 93
L 857 93
L 857 93
L 857 93
L 857 93
L 857 93
L 857 93
L 857 93
L 857 93
L 857 93
L 857 93
L 857 93
L 858 93
L 858 93
L 858 93
L 858 93
L 858 93
L 858 93
L 858 93
L 858 93
L 858 93
L 858 93
L 858 92
L 858 92
L 858 92
L 858 92
L 858 92
L 858 92
L 858 92
L 858 92
L 858 92
L 858 92
L 858 92
L 858 92
L 858 92
L 858 92
L 858 92
L 858 92
L 858 92
L 858 92
L 859 92
L 859 92
L 859 92
L 859 92
L 859 91
L 859 91
L 859 91
L 859 91
L 859 91
L 859 91
L 859 91
L 859 91
L 859 91
L 859 91
L 859 91
L 859 91
L 859 91
L 859 91
L 859 91
L 859 91
L 859 91
L 859 91
L 859 91
L 859 91
L 859 91
L 859 90
L 859 90
L 859 90
L 859 90
L 859 90
L 859 90
L 859 90
L 859 90
L 860 90
L 860 90
L 860 90
L 860 90
L 860 90
L 860 90
L 860 90
L 860 90
L 860 90
L 860 90
L 860 90
L 860 90
L 860 90
L 860 90
L 860 89
L 860 89
L 860 89
L 860 89
L 860 89
L 860 89
L 860 89
L 860 89
L 860 89
L 860 89
L 860 89
L 860 89
L 860 89
L 860 89
L 860 89
L 860 89
L 860 89
L 860 89
L 860 89
L 860 89
L 860 89
L 860 89
L 860 88
L 860 88
L 860 88
L 860 88
L 860 88
L 860 88
L 860 88
L 860 88
L 860 88
L 860 88
L 860 88
L 860 88
L 860 88
L 860 88
L 860 88
L 860 88
L 860 88
L 860 88
L 861 88
L 861 88
L 861 88
L 861 88
L 861 87
L 861 87
L 861 87
L 861 87
L 861 87
L 861 87
L 861 87
L 861 87
L 861 87
L 861 87
L 861 87
L 861 87
L 861 87
L 861 87
L 861 87
L 861 87
L 861 87
L 861 87
L 861 87
L 861 87
L 861 87
L 861 86
L 861 86
L 861 86
L 861 86
L 861 86
L 861 86
L 861 86
L 861 86
L 861 86
L 861 86
L 861 86
L 861 86
L 861 86
L 861 86
L 861 86
L 861 86
L 861 86
L 861 86
L 861 86
L 861 86
L 862 86
L 862 86
L 862 85
L 862 85
L 862 85
L 862 85
L 862 85
L 862 85
L 862 85
L 862 85
L 863 85
L 863 85
L 863 85
L 863 85
L 863 85
L 863 85
L 863 85
L 863 85
L 863 85
L 863 85
L 863 85
L 863 85
L 863 85
L 863 85
L 863 84
L 863 84
L 863 84
L 863 84
L 863 84
L 863 84
L 863 84
L 863 84
L 863 84
L 863 84
L 863 84
L 863 84
L 863 84
L 863 84
L 863 84
L 863 84
L 863 84
L 863 84
L 863 84
L 863 84
L 863 84
L 863 84
L 863 83
L 863 83
L 863 83
L 863 83
L 864 83
L 864 83
L 864 83
L 864 83
L 864 83
L 864 83
L 864 83
L 864 83
L 864 83
L 864 83
L 864 83
L 864 83
L 864 83
L 864 83
L 864 83
L 864 83
L 864 83
L 864 82
L 864 82
L 864 82
L 864 82
L 865 82
L 865 82
L 865 82
L 865 82
L 865 82
L 865 82
L 865 82
L 865 82
L 865 82
L 865 82
L 865 82
L 865 82
L 865 82
L 865 82
L 865 82
L 865 82
L 865 82
L 865 82
L 865 81
L 865 81
L 865 81
L 865 81
L 865 81
L 865 81
L 865 81
L 865 81
L 865 81
L 865 81
L 865 81
L 865 81
L 865 81
L 865 81
L 866 81
L 866 81
L 866 81
L 866 81
L 866 81
L 866 81
L 866 81
L 866 81
L 866 80
L 866 80
L 866 80
L 866 80
L 866 80
L 866 80
L 866 80
L 866 80
L 866 80
L 866 80
L 867 80
L 867 80
L 867 80
L 867 80
L 867 80
L 868 80
L 868 80
L 868 80
L 868 80
L 868 80
L 868 80
L 868 80
L 868 79
L 869 79
L 869 79
L 869 79
L 869 79
L 869 79
L 869 79
L 869 79
L 869 79
L 869 79
L 870 79
L 870 79
L 870 79
L 870 79
L 870 79
L 870 79
L 870 79
L 870 79
L 870 79
L 870 79
L 870 79
L 870 79
L 870 78
L 870 78
L 870 78
L 870 78
L 871 78
L 871 78
L 871 78
L 871 78
L 871 78
L 871 78
L 871 78
L 871 78
L 871 78
L 871 78
L 871 78
L 871 78
L 871 78
L 872 78
L 872 78
L 872 78
L 872 78
L 872 77
L 872 77
L 872 77
L 872 77
L 873 77
L 873 77
L 873 77
L 873 77
L 873 77
L 873 77
L 873 77
L 873 77
L 874 77
L 874 77
L 874 77
L 874 77
L 874 77
L 874 77
L 874 77
L 874 77
L 874 77
L 875 77
L 875 76
L 875 76
L 875 76
L 875 76
L 875 76
L 875 76
L 875 76
L 875 76
L 875 76
L 875 76
L 875 76
L 876 76
L 876 76
L 876 76
L 876 76
L 876 76
L 876 76
L 876 76
L 876 76
L 876 76
L 876 76
L 876 76
L 877 75
L 877 75
L 877 75
L 877 75
L 877 75
L 877 75
L 877 75
L 877 75
L 877 75
L 877 75
L 877 75
L 878 75
L 878 75
L 878 75
L 878 75
L 878 75
L 878 75
L 878 75
L 878 75
L 878 75
L 878 75
L 878 75
L 878 74
L 878 74
L 878 74
L 878 74
L 878 74
L 878 74
L 879 74
L 879 74
L 879 74
L 879 74
L 879 74
L 879 74
L 880 74
L 880 74
L 880 74
L 880 74
L 880 74
L 880 74
L 880 74
L 880 74
L 880 74
L 880 73
L 881 73
L 881 73
L 881 73
L 881 73
L 881 73
L 881 73
L 881 73
L 881 73
L 881 73
L 881 73
L 881 73
L 881 73
L 881 73
L 881 73
L 881 73
L 881 73
L 882 73
L 882 73
L 882 73
L 882 73
L 882 73
L 882 72
L 882 72
L 882 72
L 882 72
L 882 72
L 882 72
L 882 72
L 883 72
L 883 72
L 883 72
L 883 72
L 883 72
L 883 72
L 883 72
L 883 72
L 884 72
L 884 72
L 884 72
L 884 72
L 884 72
L 884 72
L 884 72
L 884 71
L 885 71
L 885 71
L 885 71
L 885 71
L 885 71
L 886 71
L 886 71
L 886 71
L 886 71
L 886 71
L 886 71
L 886 71
L 886 71
L 886 71
L 886 71
L 886 71
L 886 71
L 886 71
L 886 71
L 886 71
L 886 71
L 886 70
L 886 70
L 886 70
L 887 70
L 887 70
L 887 70
L 887 70
L 887 70
L 887 70
L 887 70
L 887 70
L 887 70
L 887 70
L 887 70
L 887 70
L 887 70
L 887 70
L 887 70
L 887 70
L 887 70
L 887 70
L 887 69
L 887 69
L 887 69
L 887 69
L 887 69
L 887 69
L 887 69
L 887 69
L 887 69
L 887 69
L 887 69
L 887 69
L 887 69
L 888 69
L 888 69
L 888 69
L 888 69
L 888 69
L 888 69
L 888 69
L 888 69
L 888 69
L 888 68
L 888 68
L 888 68
L 888 68
L 888 68
L 888 68
L 888 68
L 888 68
L 888 68
L 888 68
L 888 68
L 888 68
L 888 68
L 888 68
L 888 68
L 888 68
L 888 68
L 888 68
L 888 68
L 888 68
L 888 68
L 888 68
L 888 67
L 889 67
L 889 67
L 889 67
L 889 67
L 889 67
L 889 67
L 889 67
L 889 67
L 889 67
L 889 67
L 889 67
L 889 67
L 889 67
L 889 67
L 889 67
L 889 67
L 889 67
L 889 67
L 889 67
L 889 67
L 889 67
L 890 66
L 890 66
L 890 66
L 890 66
L 890 66
L 890 66
L 890 66
L 890 66
L 891 66
L 891 66
L 891 66
L 891 66
L 891 66
L 891 66
L 891 66
L 891 66
L 891 66
L 891 66
L 891 66
L 892 66
L 892 66
L 892 65
L 892 65
L 892 65
L 892 65
L 892 65
L 892 65
L 892 65
L 892 65
L 892 65
L 893 65
L 893 65
L 893 65
L 893 65
L 893 65
L 893 65
L 893 65
L 893 65
L 893 65
L 893 65
L 893 65
L 893 65
L 893 65
L 893 64
L 893 64
L 893 64
L 894 64
L 894 64
L 894 64
L 894 64
L 894 64
L 894 64
L 894 64
L 894 64
L 894 64
L 894 64
L 894 64
L 894 64
L 894 64
L 894 64
L 894 64
L 894 64
L 895 64
L 895 64
L 895 64
L 895 63
L 895 63
L 895 63
L 895 63
L 895 63
L 895 63
L 895 63
L 895 63
L 895 63
L 896 63
L 896 63
L 896 63
L 896 63
L 896 63
L 896 63
L 896 63
L 896 63
L 897 63
L 897 63
L 897 63
L 897 63
L 897 63
L 897 62
L 897 62
L 897 62
L 897 62
L 897 62
L 898 62
L 898 62
L 898 62
L 898 62
L 898 62
L 898 62
L 898 62
L 898 62
L 898 62
L 898 62
L 898 62
L 899 62
L 899 62
L 899 62
L 899 62
L 899 62
L 899 62
L 899 61
L 899 61
L 899 61
L 899 61
L 899 61
L 899 61
L 899 61
L 899 61
L 899 61
L 899 61
L 900 61
L 900 61
L 900 61
L 900 61
L 900 61
L 900 61
L 900 61
L 900 61
L 901 61
L 901 61
L 901 61
L 901 60
L 901 60
L 901 60
L 901 60
L 901 60
L 901 60
L 901 60
L 902 60
L 902 60
L 902 60
L 902 60
L 902 60
L 902 60
L 902 60
L 902 60
L 902 60
L 902 60
L 903 60
L 903 60
L 903 60
L 903 60
L 903 60
L 903 59
L 903 59
L 903 59
L 903 59
L 903 59
L 903 59
L 903 59
L 903 59
L 903 59
L 903 59
L 904 59
L 904 59
L 904 59
L 904 59
L 904 59
L 904 59
L 904 59
L 904 59
L 904 59
L 904 59
L 904 59
L 904 59
L 904 58
L 904 58
L 904 58
L 904 58
L 904 58
L 904 58
L 904 58
L 904 58
L 905 58
L 905 58
L 905 58
L 905 58
L 905 58
L 905 58
L 905 58
L 905 58
L 905 58
L 906 58
L 906 58
L 906 58
L 906 58
L 906 58
L 906 57
L 906 57
L 906 57
L 906 57
L 907 57
L 907 57
L 907 57
L 907 57
L 907 57
L 907 57
L 907 57
L 907 57
L 907 57
L 908 57
L 908 57
L 908 57
L 908 57
L 908 57
L 908 57
L 908 57
L 908 57
L 908 56
L 909 56
L 909 56
L 909 56
L 909 56
L 909 56
L 909 56
L 909 56
L 909 56
L 909 56
L 909 56
L 910 56
L 910 56
L 910 56
L 910 56
L 910 56
L 910 56
L 910 56
L 910 56
L 910 56
L 910 56
L 910 56
L 911 55
L 911 55
L 911 55
L 911 55
L 911 55
L 911 55
L 911 55
L 911 55
L 911 55
L 911 55
L 911 55
L 911 55
L 911 55
L 912 55
L 912 55
L 912 55
L 912 55
L 912 55
L 912 55
L 912 55
L 912 55
L 912 55
L 912 54
L 912 54
L 912 54
L 913 54
L 913 54
L 913 54
L 913 54
L 913 54
L 913 54
L 913 54
L 914 54
L 914 54
L 914 54
L 914 54
L 914 54
L 914 54
L 914 54
L 914 54
L 914 54
L 914 54
L 914 54
L 915 54
L 915 53
L 915 53
L 915 53
L 915 53
L 915 53
L 915 53
L 915 53
L 915 53
L 915 53
L 916 53
L 916 53
L 916 53
L 916 53
L 916 53
L 916 53
L 916 53
L 916 53
L 916 53
L 916 53
L 916 53
L 916 53
L 916 52
L 916 52
L 916 52
L 916 52
L 916 52
L 916 52
L 916 52
L 916 52
L 916 52
L 916 52
L 917 52
L 917 52
L 917 52
L 917 52
L 917 52
L 917 52
L 917 52
L 917 52
L 917 52
L 917 52
L 917 52
L 917 52
L 917 51
L 917 51
L 917 51
L 917 51
L 917 51
L 917 51
L 917 51
L 917 51
L 917 51
L 917 51
L 917 51
L 917 51
L 917 51
L 917 51
L 917 51
L 917 51
L 917 51
L 917 51
L 917 51
L 917 51
L 917 51
L 917 51
L 917 50
L 917 50
L 917 50
L 917 50
L 917 50
L 917 50
L 917 50
L 917 50
L 918 50
L 918 50
L 918 50
L 918 50
L 918 50
L 918 50
L 918 50
L 918 50
L 918 50
L 918 50
L 918 50
L 918 50
L 918 50
L 918 50
L 918 49
L 918 49
L 918 49
L 918 49
L 918 49
L 918 49
L 918 49
L 918 49
L 918 49
L 918 49
L 918 49
L 918 49
L 918 49
L 918 49
L 918 49
L 918 49
L 918 49
L 918 49
L 918 49
L 918 49
L 918 49
L 918 48
L 918 48
L 918 48
L 918 48
L 918 48
L 918 48
L 918 48
L 918 48
L 918 48
L 919 48
L 919 48
L 919 48
L 919 48
L 919 48
L 919 48
L 919 48
L 919 48
L 919 48
L 919 48
L 919 48
L 919 48
L 919 48
L 919 47
L 919 47
L 919 47
L 919 47
L 920 47
L 920 47
L 920 47
L 920 47
L 920 47
L 920 47
L 920 47
L 920 47
L 920 47
L 920 47
L 921 47
L 921 47
L 921 47
L 921 47
L 921 47
L 921 47
L 921 47
L 921 47
L 921 46
L 921 46
L 921 46
L 921 46
L 921 46
L 921 46
L 921 46
L 921 46
L 921 46
L 921 46
L 921 46
L 921 46
L 921 46
L 921 46
L 921 46
L 921 46
L 921 46
L 921 46
L 921 46
L 921 46
L 921 46
L 921 46
L 921 45
L 921 45
L 921 45
L 921 45
L 921 45
L 921 45
L 921 45
L 921 45
L 921 45
L 921 45
L 921 45
L 921 45
L 921 45
L 922 45
L 922 45
L 922 45
L 922 45
L 922 45
L 922 45
L 922 45
L 922 45
L 922 45
L 922 44
L 922 44
L 922 44
L 922 44
L 922 44
L 922 44
L 922 44
L 922 44
L 922 44
L 922 44
L 922 44
L 922 44
L 922 44
L 922 44
L 922 44
L 922 44
L 922 44
L 922 44
L 922 44
L 922 44
L 922 44
L 922 43
L 922 43
L 922 43
L 922 43
L 922 43
L 922 43
L 922 43
L 922 43
L 922 43
L 922 43
L 922 43
L 922 43
L 922 43
L 922 43
L 922 43
L 922 43
L 922 43
L 922 43
L 922 43
L 922 43
L 922 43
L 922 43
L 922 42
L 922 42
L 922 42
L 922 42
L 922 42
L 922 42
L 922 42
L 922 42
L 922 42
L 922 42
L 922 42
L 922 42
L 922 42
L 922 42
L 922 42
L 922 42
L 922 42
L 923 42
L 923 42
L 923 42
L 923 42
L 923 42
L 923 41
L 923 41
L 923 41
L 923 41
L 923 41
L 923 41
L 923 41
L 923 41
L 923 41
L 923 41
L 923 41
L 923 41
L 923 41
L 923 41
L 923 41
L 923 41
L 923 41
L 923 41
L 923 41
L 923 41
L 923 41
L 923 41
L 923 40
L 923 40
L 923 40
L 923 40
L 923 40
L 923 40
L 923 40
L 923 40
L 923 40
L 923 40
L 923 40
L 923 40
L 923 40
L 923 40
L 923 40
L 923 40
L 923 40
L 923 40
L 923 40
L 923 40
L 923 40
L 923 39
L 924 39
L 924 39
L 924 39
L 924 39
L 924 39
L 924 39
L 924 39
L 924 39
L 924 39
L 924 39
L 924 39
L 924 39
L 924 39
L 924 39
L 924 39
L 924 39
L 924 39
L 924 39
L 924 39
L 924 39
L 924 39
L 924 38
L 924 38
L 924 38
L 924 38
L 924 38
L 924 38
L 924 38
L 924 38
L 924 38
L 924 38
L 924 38
L 924 38
L 924 38
L 924 38
L 924 38
L 924 38
L 924 38
L 924 38
L 924 38
L 924 38
L 924 38
L 924 38
L 924 37
L 924 37
L 924 37
L 924 37
L 924 37
L 924 37
L 924 37
L 924 37
L 924 37
L 924 37
L 924 37
L 925 37
L 925 37
L 925 37
L 925 37
L 925 37
L 925 37
L 925 37
L 925 37
L 925 37
L 925 37
L 925 37
L 925 36
L 925 36
L 925 36
L 925 36
L 925 36
L 925 36
L 925 36
L 925 36
L 925 36
L 925 36
L 926 36
L 926 36
L 926 36
L 926 36
L 926 36
L 926 36
L 926 36
L 926 36
L 926 36
L 926 36
L 926 36
L 926 35
L 926 35
L 926 35
L 926 35
L 926 35
L 926 35
L 926 35
L 927 35
L 927 35
L 927 35
L 927 35
L 927 35
L 927 35
L 927 35
L 927 35
L 927 35
L 927 35
L 927 35
L 927 35
L 927 35
L 927 35
L 927 35
L 927 34
L 927 34
L 927 34
L 927 34
L 927 34
L 927 34
L 927 34
L 927 34
L 927 34
L 927 34
L 927 34
L 927 34
L 927 34
L 927 34
L 927 34
L 927 34
L 927 34
L 927 34
L 927 34
L 927 34
L 927 34
L 927 34
L 927 33
L 927 33
L 927 33
L 928 33
L 928 33
L 928 33
L 928 33
L 928 33
L 928 33
L 928 33
L 928 33
L 928 33
L 928 33
L 928 33
L 928 33
L 928 33
L 928 33
L 928 33
L 928 33
L 928 33
L 928 33
L 928 33
L 928 32
L 928 32
L 929 32
L 929 32
L 929 32
L 929 32
L 929 32
L 929 32
L 929 32
L 929 32
L 929 32
L 929 32
L 930 32
L 930 32
L 930 32
L 930 32
L 930 32
L 930 32
L 930 32
L 930 32
L 930 32
L 930 31
L 930 31
L 931 31
L 931 31
L 931 31
L 931 31
L 931 31
L 931 31
L 931 31
L 931 31
L 931 31
L 931 31
L 931 31
L 931 31
L 932 31
L 932 31
L 932 31
L 932 31
L 932 31
L 932 31
L 932 31
L 932 31
L 932 30
L 932 30
L 932 30
L 932 30
L 932 30
L 932 30
L 932 30
L 932 30
L 932 30
L 932 30
L 932 30
L 932 30
L 932 30
L 932 30
L 932 30
L 932 30
L 932 30
L 932 30
L 933 30
L 933 30
L 933 30
L 933 30
L 933 29
L 933 29
L 933 29
L 933 29
L 933 29
L 933 29
L 933 29
L 933 29
L 933 29
L 933 29
L 933 29
L 933 29
L 933 29
L 933 29
L 933 29
L 933 29
L 934 29
L 934 29
L 934 29
L 934 29
L 934 29
L 934 29
L 934 28
L 934 28
L 934 28
L 934 28
L 934 28
L 934 28
L 934 28
L 934 28
L 934 28
L 934 28
L 934 28
L 934 28
L 934 28
L 934 28
L 934 28
L 934 28
L 934 28
L 934 28
L 934 28
L 934 28
L 934 28
L 935 28
L 935 27
L 935 27
L 935 27
L 935 27
L 935 27
L 935 27
L 935 27
L 935 27
L 935 27
L 935 27
L 935 27
L 935 27
L 935 27
L 935 27
L 935 27
L 935 27
L 935 27
L 935 27
L 935 27
L 935 27
L 935 27
L 936 26
L 936 26
L 936 26
L 936 26
L 936 26
L 936 26
L 936 26
L 936 26
L 936 26
L 936 26
L 936 26
L 936 26
L 936 26
L 936 26
L 936 26
L 936 26
L 936 26
L 936 26
L 936 26
L 936 26
L 936 26
L 936 26
L 936 25
L 936 25
L 936 25
L 936 25
L 936 25
L 936 25
L 936 25
L 936 25
L 937 25
L 937 25
L 937 25
L 937 25
L 937 25
L 937 25
L 937 25
L 937 25
L 937 25
L 937 25
L 937 25
L 937 25
L 938 25
L 938 25
L 938 24
L 938 24
L 938 24
L 938 24
L 938 24
L 938 24
L 938 24
L 938 24
L 938 24
L 938 24
L 938 24
L 938 24
L 939 24
L 939 24
L 939 24
L 939 24
L 939 24
L 940 24
L 940 24
L 940 24
L 940 24
L 940 24
L 940 23
L 940 23
L 940 23
L 940 23
L 940 23
L 940 23
L 940 23
L 940 23
L 940 23
L 940 23
L 940 23
L 940 23
L 940 23
L 940 23
L 940 23
L 940 23
L 940 23
L 940 23
L 940 23
L 940 23
L 940 23
L 940 22
L 940 22
L 941 22
L 941 22
L 941 22
L 941 22
L 941 22
L 941 22
L 941 22
L 941 22
L 941 22
L 941 22
L 941 22
L 941 22
L 941 22
L 941 22
L 941 22
L 941 22
L 941 22
L 941 22
L 941 22
L 941 22
L 941 21
L 941 21
L 941 21
L 941 21
L 941 21
L 941 21
L 941 21
L 941 21
L 941 21
L 941 21
L 941 21
L 941 21
L 941 21
L 941 21
L 942 21
L 942 21
L 942 21
L 942 21
L 942 21
L 942 21
L 942 21
L 942 21
L 942 20
L 942 20
L 942 20
L 943 20
L 943 20
L 943 20
L 943 20
L 943 20
L 943 20
L 943 20
L 943 20
L 943 20
L 943 20
L 943 20
L 943 20
L 944 20
L 944 20
L 944 20
L 944 20
L 944 20
L 944 20
L 944 20
L 944 19
L 944 19
L 944 19
L 944 19
L 945 19
L 945 19
L 945 19
L 945 19
L 945 19
L 945 19
L 945 19
L 945 19
L 945 19
L 945 19
L 945 19
L 945 19
L 945 19
L 945 19
L 945 19
L 945 19
L 945 19
L 945 18
L 946 18
L 946 18
L 946 18
L 946 18
L 946 18
L 946 18
L 946 18
L 946 18
L 946 18
L 946 18
L 946 18
L 946 18
L 946 18
L 946 18
L 946 18
L 947 18
L 947 18
L 947 18
L 947 18
L 947 18
L 947 18
L 947 17
L 948 17
L 948 17
L 948 17
L 948 17
L 948 17
L 948 17
L 949 17
L 949 17
L 949 17
L 949 17
L 949 17
L 949 17
L 949 17
L 949 17
L 949 17
L 949 17
L 949 17
L 949 17
L 950 17
L 950 17
L 950 17
L 950 16
L 951 16
L 951 16
L 951 16
L 951 16
L 951 16
L 951 16
L 952 16
L 952 16
L 952 16
L 952 16
L 952 16
L 952 16
L 952 16
L 952 16
L 953 16
L 953 16
L 953 16
L 953 16
L 953 16
L 953 16
L 953 16
L 954 15
L 954 15
L 954 15
L 954 15
L 954 15
L 954 15
L 954 15
L 955 15
L 955 15
L 955 15
L 955 15
L 955 15
L 955 15
L 955 15
L 955 15
L 955 15
L 955 15
L 955 15
L 956 15
L 956 15
L 956 15
L 956 14
L 956 14
L 956 14
L 956 14
L 956 14
L 956 14
L 956 14
L 956 14
L 956 14
L 956 14
L 956 14
L 956 14
L 956 14
L 957 14
L 957 14
L 957 14
L 957 14
L 957 14
L 957 14
L 957 14
L 957 14
L 957 14
L 957 13
L 957 13
L 957 13
L 957 13
L 957 13
L 957 13
L 957 13
L 957 13
L 957 13
L 957 13
L 957 13
L 957 13
L 957 13
L 957 13
L 957 13" style="stroke-width:2;stroke:rgba(129,199,239,1.0);fill:none"/></svg>