<svg xmlns="http://www.w3.org/2000/svg" xmlns:xlink="http://www.w3.org/1999/xlink" style="vertical-align:-1.88ex" width="57.927ex" height="5.509ex" viewBox="0 -1562.8 24940.6 2372"><defs><path id="l" stroke-width="1" d="M213 578l-13-5q-14-5-40-10t-58-7H83v46h19q47 2 87 15t56 24 28 22q2 3 12 3 9 0 17-6V361l1-300q7-7 12-9t24-4 62-2h26V0h-11q-21 3-159 3-136 0-157-3H88v46h64q16 0 25 1t16 3 8 2 6 5 6 4v517z"/><path id="a" stroke-width="1" d="M580 385q0 21 19 39t42 19q18 0 33-18t16-57q0-29-19-115-15-56-27-92t-35-81-55-68-72-23q-44 0-78 16t-49 43q-1-1-3-4-41-55-100-55-26 0-50 6t-47 19-37 39-14 63q0 54 34 146t35 117v14q0 3-4 7t-11 4h-4q-23 0-42-19t-30-41-17-42-8-22q-2-2-16-2H27q-6 6-6 9 0 6 8 28t23 51 44 52 65 23q43 0 66-25t23-58q0-18-33-108t-33-139q0-46 21-65t53-20q43 0 76 61l5 9v32q0 6 1 8t1 7 1 9 3 13 3 17 6 24 8 32 11 43q29 114 33 123 13 27 43 27 19 0 26-10t8-19q0-13-29-128t-32-132q-2-11-2-35v-7q0-15 3-29t19-29 45-16q71 0 113 122 9 23 20 65t12 60q0 33-13 52t-26 32-13 28z"/><path id="c" stroke-width="1" d="M94 250q0 69 10 131t23 107 37 88 38 67 42 52 33 34 25 21h17q14 0 14-9 0-3-17-21t-41-53-49-86-42-138-17-193 17-192 41-139 49-86 42-53 17-21q0-9-15-9h-16l-28 24q-94 85-137 212T94 250z"/><path id="d" stroke-width="1" d="M118-250V750h137v-40h-97v-920h97v-40H118z"/><path id="e" stroke-width="1" d="M34 159q0 109 86 196t186 87q56 0 88-24t33-63q0-29-19-49t-48-21q-19 0-30 10t-11 30 11 34 22 21 14 6h1q0 2-6 6t-21 8-34 4q-30 0-57-14-21-9-43-31-44-44-64-124t-21-116q0-46 26-69 22-24 58-24h4q112 0 185 85 9 10 12 10 4 0 13-9t10-14-9-15-29-28-45-30-64-25-80-11q-75 0-121 48T34 159z"/><path id="f" stroke-width="1" d="M462 0q-18 3-129 3-116 0-134-3h-9v46h58q7 0 17 2t14 5 7 8q1 2 1 54v50H28v46l151 231q153 232 155 233 2 2 21 2h18l6-6V211h92v-46h-92v-51-48q0-7 6-12 8-7 57-8h29V0h-9zM293 211v334L74 212l109-1h110z"/><path id="g" stroke-width="1" d="M22 710v40h137V-250H22v40h97v920H22z"/><path id="h" stroke-width="1" d="M84 237v13l14 20h581q15-8 15-20t-15-20H98q-14 7-14 20z"/><path id="i" stroke-width="1" d="M109 429q-27 0-43 18t-16 44q0 71 53 123t132 52q91 0 152-56t62-145q0-43-20-82t-48-68-80-74q-36-31-100-92l-59-56 76-1q157 0 167 5 7 2 24 89v3h40v-3q-1-3-13-91T421 3V0H50v31q0 7 6 15t30 35q29 32 50 56 9 10 34 37t34 37 29 33 28 34 23 30 21 32 15 29 13 32 7 30 3 33q0 63-34 109t-97 46q-33 0-58-17t-35-33-10-19q0-1 5-1 18 0 37-14t19-46q0-25-16-42t-45-18z"/><path id="j" stroke-width="1" d="M56 237v13l14 20h299v150l1 150q10 13 19 13 13 0 20-15V270h298q15-8 15-20t-15-20H409V-68q-8-14-18-14h-4q-12 0-18 14v298H70q-14 7-14 20z"/><path id="k" stroke-width="1" d="M21 287q0 14 15 48t48 71 74 36q41 0 66-23t26-64q-2-19-3-21 0-3-16-46t-33-97-16-86q0-43 14-60t42-18q23 0 43 11t31 23 27 33q0 1 5 20t14 59 19 74q38 150 42 157 13 27 43 27 13 0 21-7t11-12 2-9q0-13-49-210T391-23q-28-83-97-132t-138-50q-45 0-79 22t-34 66q0 22 7 37t19 22 20 10 17 3q44 0 44-42 0-20-12-35t-23-20-13-5l-3-1q2-5 19-12t34-7h8q17 0 26 2 33 9 61 38t43 62 23 56 8 30l-6-4q-6-4-19-11T270-6q-20-5-39-5-46 0-81 22t-46 71q-1 7-1 31 0 57 35 149t35 117v14q0 3-4 7t-11 4h-4q-23 0-42-19t-30-41-17-42-8-22q-2-2-16-2H27q-6 6-6 9z"/><path id="b" stroke-width="1" d="M56 347q0 13 14 20h637q15-8 15-20 0-11-14-19l-318-1H72q-16 5-16 20zm0-194q0 15 16 20h636q14-10 14-20 0-13-15-20H70q-14 7-14 20z"/><path id="m" stroke-width="1" d="M127 463q-27 0-42 17t-16 44q0 55 48 98t116 43q35 0 44-1 74-12 113-53t40-89q0-52-34-101t-94-71l-3-2q0-1 9-3t29-9 38-21q82-53 82-140 0-79-62-138T238-22q-80 0-138 43T42 130q0 28 18 45t45 18q28 0 46-18t18-45q0-11-3-20t-7-16-11-12-12-8-10-4-8-3l-4-1q51-45 124-45 55 0 83 53 17 33 17 101v20q0 95-64 127-15 6-61 7l-42 1-3 2q-2 3-2 16 0 18 8 18 28 0 58 5 34 5 62 42t28 112v8q0 57-35 79-22 14-47 14-32 0-59-11t-38-23-11-12h3q3-1 8-2t10-5 12-7 10-11 8-15 3-20q0-22-14-39t-45-18z"/><path id="n" stroke-width="1" d="M630 29q0-20-21-20-5 0-22 16t-94 93L389 222 284 117Q178 13 175 11q-4-2-7-2-8 0-14 6t-7 14q0 7 14 22t94 95l104 104-104 104q-81 81-94 95t-14 22q0 9 6 14t15 5q5 0 7-1 3-2 109-106l105-105 104 104q77 77 94 93t22 16q21 0 21-20 0-7-10-18t-98-98L418 250l104-105q84-84 96-97t12-19z"/><path id="o" stroke-width="1" d="M21 287q1 6 3 16t12 38 20 47 32 37 44 17 43-7 30-18 16-22 8-19l2-7q0-2 1-2l11 11q60 64 141 64 17 0 31-2t26-7 19-10 15-12 10-13 8-13 4-12 3-9 2-7l8 10q63 75 149 75 54 0 87-27t34-79q0-51-38-158T704 50q1-14 5-19t15-5q28 0 52 30t39 82q3 11 6 13t16 2q20 0 20-8 0-1-4-15-8-29-22-57t-46-56-69-27q-47 0-68 27t-21 56q0 19 36 120t37 152q0 59-44 59h-5q-86 0-145-101l-7-12-33-134Q433 26 428 16q-13-27-43-27-13 0-21 7T353 8t-3 10q0 11 34 143l36 146q3 15 3 38 0 59-44 59h-5q-86 0-145-101l-7-12-33-134Q156 26 151 16q-13-27-43-27-13 0-21 6T76 7t-2 10q0 13 38 164 39 154 39 161 3 15 3 27 0 36-25 36-22 0-37-28t-23-61-12-36q-2-2-16-2H27q-6 6-6 9z"/><path id="p" stroke-width="1" d="M60 749l4 1h22l28-24q94-85 137-212t43-264q0-68-10-131T261 12t-37-88-38-67-41-51-32-33-23-19l-4-4H63q-3 0-5 3t-3 9q1 1 11 13Q221-64 221 250T66 725q-10 12-11 13 0 8 5 11z"/><path id="q" stroke-width="1" d="M164 157q0-24-16-40t-39-16h-7q46-79 122-79 70 0 102 60 19 33 19 128 0 103-27 139-26 33-58 33h-6q-78 0-118-68-4-7-7-8t-15-2q-17 0-19 6-2 4-2 175v129q0 50 5 50 2 2 4 2 1 0 21-8t55-16 75-8q71 0 136 28 8 4 13 4 8 0 8-18v-13q-82-97-205-97-31 0-56 6l-10 2V374q19 14 30 22t36 16 51 8q81 0 137-65t56-154q0-92-64-157T229-22q-81 0-130 54T50 154q0 24 11 38t23 18 23 4q25 0 41-17t16-40z"/><path id="r" stroke-width="1" d="M366 683q1 0 72 5t73 6q12 0 12-8 0-7-73-302T375 83t-1-15q0-42 28-42 9 1 20 9 21 20 41 96 6 20 10 21 2 1 10 1h8q15 0 15-8 0-5-3-16-13-50-30-81T445 8 417-8q-8-2-24-2-34 0-57 15t-30 31l-6 15q-1 1-4-1l-4-4q-59-56-120-56-55 0-97 40T33 157q0 48 20 98t48 86q47 57 94 79t85 22q56 0 84-42 5-6 5-4 1 4 27 109t28 111q0 13-7 16t-39 5h-21q-6 6-6 8t2 19q5 19 13 19zm-14-357q-23 79-75 79-35 0-67-31t-50-81q-29-79-41-164v-11q0-8-1-12 0-45 18-62t43-18q54 0 111 72l8 11 54 217z"/><path id="s" stroke-width="1" d="M132 622q-7 7-11 9t-16 3-43 3H29v46h106q86 0 97-1t17-7q1-1 105-277l104-274 104 274q104 276 106 277 3 6 15 7t98 1h106v-46h-33q-40-1-51-3t-18-12V61q6-10 17-12t52-3h33V0h-11q-21 3-140 3-131 0-140-3h-11v46h33q42 1 51 3t19 12v552l-1 19Q454 14 450 7q-4-6-20-6t-20 6q-1 2-118 309L176 624v-18q-1-18-1-63t0-80 0-107l1-270q11-36 85-40h17V0h-9q-15 3-115 3Q52 3 37 0h-8v46h17q32 2 52 10t24 13 10 17v536z"/><path id="t" stroke-width="1" d="M56 340q0 83 30 154t78 116 106 70 118 25q133 0 233-104t101-260q0-81-29-150T617 75 510 4 388-22 267 3 160 74 85 189 56 340zm411 307q-41 18-79 18-28 0-57-11t-62-34-56-71-34-110q-5-28-5-85 0-210 103-293 50-41 108-41h6q83 0 146 79 66 89 66 255 0 57-5 85-21 153-131 208z"/><path id="u" stroke-width="1" d="M130 622q-7 7-11 9t-16 3-43 3H27v46h201q171-1 191-1t42-6q43-9 85-35t80-68 59-103 23-134q0-126-74-220T442 3q-13-2-214-3H27v46h33q42 1 51 3t19 12v561zm463-284q0 101-22 163t-78 101q-54 35-138 35h-61q-56 0-60-9-3-4-3-284 0-282 1-285 1-10 16-11t91-2h11q106 0 165 49 46 38 62 96t16 147z"/><path id="v" stroke-width="1" d="M55 458q1 2 17 109l16 107q0 2 20 2h20v-4q0-10 15-17t52-9 169-2h121v-39l-68-93-30-40q-21-28-27-37t-21-32-20-36-14-37-13-46-8-54-6-68-3-82V52q0-14-1-24v-9q-4-17-19-29t-34-12q-11 0-21 3T179 0t-11 40q0 158 97 328 20 32 84 121l46 63h-93q-174 0-183-6-6-3-11-24t-10-43l-3-21v-3H55v3z"/></defs><g fill="currentColor" stroke="currentColor" stroke-width="0" transform="scale(1 -1)"><use xlink:href="#a"/><use x="994" xlink:href="#b"/><use x="2050" xlink:href="#c"/><use x="2440" xlink:href="#d"/><g transform="translate(2838)"><path stroke="none" d="M0 220h620v60H0z"/><use x="93" y="676" xlink:href="#e"/><use x="60" y="-686" xlink:href="#f"/></g><use x="3579" xlink:href="#g"/><use x="4079" xlink:href="#h"/><use x="5080" xlink:href="#i"/><use x="5581" xlink:href="#e"/><use x="6236" xlink:href="#j"/><use x="7237" xlink:href="#k"/><use x="7957" xlink:href="#j"/><use x="8957" xlink:href="#d"/><g transform="translate(9356)"><path stroke="none" d="M0 220h620v60H0z"/><use x="61" y="680" xlink:href="#k"/><use x="60" y="-686" xlink:href="#f"/></g><use x="10096" xlink:href="#g"/><use x="10597" xlink:href="#j"/><use x="11598" xlink:href="#d"/><g transform="translate(11996)"><path stroke="none" d="M0 220h5724v60H0z"/><g transform="translate(60 725)"><use xlink:href="#l"/><use x="500" xlink:href="#m"/><use x="1223" xlink:href="#n"/><use x="2223" xlink:href="#c"/><use x="2613" xlink:href="#o"/><use x="3714" xlink:href="#j"/><use x="4714" xlink:href="#l"/><use x="5215" xlink:href="#p"/></g><use x="2612" y="-686" xlink:href="#q"/></g><use x="17841" xlink:href="#g"/><use x="18342" xlink:href="#j"/><use x="19343" xlink:href="#r"/><use x="20088" xlink:href="#h"/><use x="21089" xlink:href="#l"/><use x="21590" xlink:href="#p"/><g transform="translate(21979)"><use xlink:href="#s"/><use x="917" xlink:href="#t"/><use x="1696" xlink:href="#u"/></g><use x="24440" xlink:href="#v"/></g></svg>